<?xml version="1.0" encoding="utf-8" standalone="no"?>
<!DOCTYPE svg PUBLIC "-//W3C//DTD SVG 1.1//EN"
  "http://www.w3.org/Graphics/SVG/1.1/DTD/svg11.dtd">
<svg xmlns:xlink="http://www.w3.org/1999/xlink" width="548.39952pt" height="312.14952pt" viewBox="0 0 548.39952 312.14952" xmlns="http://www.w3.org/2000/svg" version="1.1">
 <metadata>
  <rdf:RDF xmlns:dc="http://purl.org/dc/elements/1.1/" xmlns:cc="http://creativecommons.org/ns#" xmlns:rdf="http://www.w3.org/1999/02/22-rdf-syntax-ns#">
   <cc:Work>
    <dc:type rdf:resource="http://purl.org/dc/dcmitype/StillImage"/>
    <dc:date>2025-06-24T11:08:11.121211</dc:date>
    <dc:format>image/svg+xml</dc:format>
    <dc:creator>
     <cc:Agent>
      <dc:title>Matplotlib v3.10.1, https://matplotlib.org/</dc:title>
     </cc:Agent>
    </dc:creator>
   </cc:Work>
  </rdf:RDF>
 </metadata>
 <defs>
  <style type="text/css">*{stroke-linejoin: round; stroke-linecap: butt}</style>
 </defs>
 <g id="figure_1">
  <g id="patch_1">
   <path d="M 0 312.14952 
L 548.39952 312.14952 
L 548.39952 0 
L 0 0 
z
" style="fill: #ffffff"/>
  </g>
  <g id="axes_1">
   <g id="patch_2">
    <path d="M 42.520313 274.94952 
L 505.958895 274.94952 
L 505.958895 36.576 
L 42.520313 36.576 
z
" style="fill: #ffffff"/>
   </g>
   <g id="FillBetweenPolyCollection_1">
    <defs>
     <path id="m666260efd3" d="M 47.063828 -258.748945 
L 47.063828 -187.200213 
L 50.286179 -197.053466 
L 53.508531 -196.832736 
L 56.730882 -196.466393 
L 59.953234 -195.956723 
L 63.175585 -195.306877 
L 66.397937 -194.520822 
L 69.620288 -193.603282 
L 72.842639 -192.559669 
L 76.064991 -191.396003 
L 79.287342 -190.118835 
L 82.509694 -188.735154 
L 85.732045 -187.252301 
L 88.954397 -185.67788 
L 92.176748 -184.019672 
L 95.399099 -182.285548 
L 98.621451 -180.483394 
L 101.843802 -178.621038 
L 105.066154 -176.706179 
L 108.288505 -174.746335 
L 111.510857 -172.748787 
L 114.733208 -170.720534 
L 117.955559 -168.668265 
L 121.177911 -166.59832 
L 124.400262 -164.516678 
L 127.622614 -162.428937 
L 130.844965 -160.340304 
L 134.067317 -158.255597 
L 137.289668 -156.179243 
L 140.512019 -154.115281 
L 143.734371 -152.067378 
L 146.956722 -150.038832 
L 150.179074 -148.032595 
L 153.401425 -146.051281 
L 156.623777 -144.09719 
L 159.846128 -142.172323 
L 163.068479 -140.278399 
L 166.290831 -138.416878 
L 169.513182 -136.588978 
L 172.735534 -134.795693 
L 175.957885 -133.037812 
L 179.180237 -131.315938 
L 182.402588 -129.630502 
L 185.624939 -127.981781 
L 188.847291 -126.369914 
L 192.069642 -124.794913 
L 195.291994 -123.256681 
L 198.514345 -121.755022 
L 201.736697 -120.28965 
L 204.959048 -118.860207 
L 208.181399 -117.466264 
L 211.403751 -116.107339 
L 214.626102 -114.782897 
L 217.848454 -113.492363 
L 221.070805 -112.235127 
L 224.293157 -111.010552 
L 227.515508 -109.817975 
L 230.737859 -108.656716 
L 233.960211 -107.526083 
L 237.182562 -106.425372 
L 240.404914 -105.353876 
L 243.627265 -104.310882 
L 243.627265 -137.118376 
L 243.627265 -137.118376 
L 240.404914 -138.361324 
L 237.182562 -139.638238 
L 233.960211 -140.949968 
L 230.737859 -142.297356 
L 227.515508 -143.681242 
L 224.293157 -145.10245 
L 221.070805 -146.561791 
L 217.848454 -148.060053 
L 214.626102 -149.597997 
L 211.403751 -151.176351 
L 208.181399 -152.795798 
L 204.959048 -154.456975 
L 201.736697 -156.16046 
L 198.514345 -157.90676 
L 195.291994 -159.696305 
L 192.069642 -161.529434 
L 188.847291 -163.406381 
L 185.624939 -165.327262 
L 182.402588 -167.292062 
L 179.180237 -169.300616 
L 175.957885 -171.352593 
L 172.735534 -173.44748 
L 169.513182 -175.584559 
L 166.290831 -177.762889 
L 163.068479 -179.981285 
L 159.846128 -182.238296 
L 156.623777 -184.532183 
L 153.401425 -186.860896 
L 150.179074 -189.22205 
L 146.956722 -191.612907 
L 143.734371 -194.030348 
L 140.512019 -196.470859 
L 137.289668 -198.930506 
L 134.067317 -201.404922 
L 130.844965 -203.889291 
L 127.622614 -206.378339 
L 124.400262 -208.866325 
L 121.177911 -211.347042 
L 117.955559 -213.813819 
L 114.733208 -216.259533 
L 111.510857 -218.676625 
L 108.288505 -221.057127 
L 105.066154 -223.392696 
L 101.843802 -225.674655 
L 98.621451 -227.894047 
L 95.399099 -230.041694 
L 92.176748 -232.108269 
L 88.954397 -234.084376 
L 85.732045 -235.960631 
L 82.509694 -237.727764 
L 79.287342 -239.376714 
L 76.064991 -240.89873 
L 72.842639 -242.285484 
L 69.620288 -243.52917 
L 66.397937 -244.622613 
L 63.175585 -245.559364 
L 59.953234 -246.333793 
L 56.730882 -246.941172 
L 53.508531 -247.377748 
L 50.286179 -247.640795 
L 47.063828 -258.748945 
z
"/>
    </defs>
    <g clip-path="url(#p5eb2225d0a)">
     <use xlink:href="#m666260efd3" x="0" y="312.14952" style="fill: #2ca02c; fill-opacity: 0.3"/>
    </g>
   </g>
   <g id="matplotlib.axis_1">
    <g id="xtick_1">
     <g id="line2d_1">
      <defs>
       <path id="ma822f7a1ac" d="M 0 0 
L 0 3.5 
" style="stroke: #000000; stroke-width: 0.8"/>
      </defs>
      <g>
       <use xlink:href="#ma822f7a1ac" x="47.063828" y="274.94952" style="stroke: #000000; stroke-width: 0.8"/>
      </g>
     </g>
     <g id="text_1">
      <!-- 0.0 -->
      <g transform="translate(39.703672 289.34952) scale(0.1 -0.1)">
       <defs>
        <path id="IBMPlexSans-30" d="M 1920 -77 
C 2989 -77 3456 774 3456 2234 
C 3456 3693 2989 4544 1920 4544 
C 851 4544 384 3693 384 2234 
C 384 774 851 -77 1920 -77 
z
M 1920 390 
C 1222 390 947 1005 947 1869 
L 947 2598 
C 947 3462 1222 4077 1920 4077 
C 2618 4077 2893 3462 2893 2598 
L 2893 1869 
C 2893 1005 2618 390 1920 390 
z
" transform="scale(0.015625)"/>
        <path id="IBMPlexSans-2e" d="M 870 -77 
C 1139 -77 1261 77 1261 294 
L 1261 378 
C 1261 595 1139 749 870 749 
C 602 749 480 595 480 378 
L 480 294 
C 480 77 602 -77 870 -77 
z
" transform="scale(0.015625)"/>
       </defs>
       <use xlink:href="#IBMPlexSans-30"/>
       <use xlink:href="#IBMPlexSans-2e" transform="translate(59.999985 0)"/>
       <use xlink:href="#IBMPlexSans-30" transform="translate(87.199982 0)"/>
      </g>
     </g>
    </g>
    <g id="xtick_2">
     <g id="line2d_2">
      <g>
       <use xlink:href="#ma822f7a1ac" x="116.666619" y="274.94952" style="stroke: #000000; stroke-width: 0.8"/>
      </g>
     </g>
     <g id="text_2">
      <!-- 0.2 -->
      <g transform="translate(109.306463 289.34952) scale(0.1 -0.1)">
       <defs>
        <path id="IBMPlexSans-32" d="M 3411 474 
L 1062 474 
L 2266 1555 
C 2835 2067 3245 2554 3245 3245 
C 3245 4006 2746 4544 1875 4544 
C 1011 4544 614 4019 442 3494 
L 922 3309 
C 1043 3731 1299 4064 1850 4064 
C 2400 4064 2675 3725 2675 3232 
L 2675 3155 
C 2675 2726 2355 2278 1939 1894 
L 480 550 
L 480 0 
L 3411 0 
L 3411 474 
z
" transform="scale(0.015625)"/>
       </defs>
       <use xlink:href="#IBMPlexSans-30"/>
       <use xlink:href="#IBMPlexSans-2e" transform="translate(59.999985 0)"/>
       <use xlink:href="#IBMPlexSans-32" transform="translate(87.199982 0)"/>
      </g>
     </g>
    </g>
    <g id="xtick_3">
     <g id="line2d_3">
      <g>
       <use xlink:href="#ma822f7a1ac" x="186.26941" y="274.94952" style="stroke: #000000; stroke-width: 0.8"/>
      </g>
     </g>
     <g id="text_3">
      <!-- 0.4 -->
      <g transform="translate(178.909253 289.34952) scale(0.1 -0.1)">
       <defs>
        <path id="IBMPlexSans-34" d="M 2912 0 
L 2912 877 
L 3558 877 
L 3558 1325 
L 2912 1325 
L 2912 4467 
L 2112 4467 
L 243 1350 
L 243 877 
L 2400 877 
L 2400 0 
L 2912 0 
z
M 2368 4051 
L 2400 4051 
L 2400 1325 
L 749 1325 
L 2368 4051 
z
" transform="scale(0.015625)"/>
       </defs>
       <use xlink:href="#IBMPlexSans-30"/>
       <use xlink:href="#IBMPlexSans-2e" transform="translate(59.999985 0)"/>
       <use xlink:href="#IBMPlexSans-34" transform="translate(87.199982 0)"/>
      </g>
     </g>
    </g>
    <g id="xtick_4">
     <g id="line2d_4">
      <g>
       <use xlink:href="#ma822f7a1ac" x="255.872201" y="274.94952" style="stroke: #000000; stroke-width: 0.8"/>
      </g>
     </g>
     <g id="text_4">
      <!-- 0.6 -->
      <g transform="translate(248.512044 289.34952) scale(0.1 -0.1)">
       <defs>
        <path id="IBMPlexSans-36" d="M 1926 -77 
C 2822 -77 3411 525 3411 1402 
C 3411 2246 2861 2778 2093 2778 
C 1549 2778 1229 2502 1018 2138 
L 986 2150 
C 1229 3187 1760 3770 2714 4467 
L 2022 4467 
C 1306 4000 429 2963 429 1638 
C 429 576 998 -77 1926 -77 
z
M 1920 390 
C 1331 390 986 730 986 1331 
L 986 1382 
C 986 1984 1331 2323 1920 2323 
C 2509 2323 2854 1984 2854 1382 
L 2854 1331 
C 2854 730 2509 390 1920 390 
z
" transform="scale(0.015625)"/>
       </defs>
       <use xlink:href="#IBMPlexSans-30"/>
       <use xlink:href="#IBMPlexSans-2e" transform="translate(59.999985 0)"/>
       <use xlink:href="#IBMPlexSans-36" transform="translate(87.199982 0)"/>
      </g>
     </g>
    </g>
    <g id="xtick_5">
     <g id="line2d_5">
      <g>
       <use xlink:href="#ma822f7a1ac" x="325.474991" y="274.94952" style="stroke: #000000; stroke-width: 0.8"/>
      </g>
     </g>
     <g id="text_5">
      <!-- 0.8 -->
      <g transform="translate(318.114835 289.34952) scale(0.1 -0.1)">
       <defs>
        <path id="IBMPlexSans-38" d="M 1920 -77 
C 2938 -77 3469 480 3469 1216 
C 3469 1824 3104 2176 2566 2323 
L 2566 2374 
C 3034 2534 3334 2912 3334 3424 
C 3334 4102 2810 4544 1920 4544 
C 1030 4544 506 4102 506 3424 
C 506 2912 806 2534 1274 2374 
L 1274 2323 
C 736 2176 371 1824 371 1216 
C 371 480 902 -77 1920 -77 
z
M 1920 390 
C 1299 390 941 685 941 1190 
L 941 1325 
C 941 1830 1299 2125 1920 2125 
C 2541 2125 2899 1830 2899 1325 
L 2899 1190 
C 2899 685 2541 390 1920 390 
z
M 1920 2573 
C 1363 2573 1062 2822 1062 3277 
L 1062 3373 
C 1062 3827 1363 4077 1920 4077 
C 2477 4077 2778 3827 2778 3373 
L 2778 3277 
C 2778 2822 2477 2573 1920 2573 
z
" transform="scale(0.015625)"/>
       </defs>
       <use xlink:href="#IBMPlexSans-30"/>
       <use xlink:href="#IBMPlexSans-2e" transform="translate(59.999985 0)"/>
       <use xlink:href="#IBMPlexSans-38" transform="translate(87.199982 0)"/>
      </g>
     </g>
    </g>
    <g id="xtick_6">
     <g id="line2d_6">
      <g>
       <use xlink:href="#ma822f7a1ac" x="395.077782" y="274.94952" style="stroke: #000000; stroke-width: 0.8"/>
      </g>
     </g>
     <g id="text_6">
      <!-- 1.0 -->
      <g transform="translate(387.717626 289.34952) scale(0.1 -0.1)">
       <defs>
        <path id="IBMPlexSans-31" d="M 3501 0 
L 3501 474 
L 2349 474 
L 2349 4467 
L 1510 4467 
L 326 3360 
L 640 3021 
L 1766 4070 
L 1811 4070 
L 1811 474 
L 563 474 
L 563 0 
L 3501 0 
z
" transform="scale(0.015625)"/>
       </defs>
       <use xlink:href="#IBMPlexSans-31"/>
       <use xlink:href="#IBMPlexSans-2e" transform="translate(59.999985 0)"/>
       <use xlink:href="#IBMPlexSans-30" transform="translate(87.199982 0)"/>
      </g>
     </g>
    </g>
    <g id="xtick_7">
     <g id="line2d_7">
      <g>
       <use xlink:href="#ma822f7a1ac" x="464.680573" y="274.94952" style="stroke: #000000; stroke-width: 0.8"/>
      </g>
     </g>
     <g id="text_7">
      <!-- 1.2 -->
      <g transform="translate(457.320417 289.34952) scale(0.1 -0.1)">
       <use xlink:href="#IBMPlexSans-31"/>
       <use xlink:href="#IBMPlexSans-2e" transform="translate(59.999985 0)"/>
       <use xlink:href="#IBMPlexSans-32" transform="translate(87.199982 0)"/>
      </g>
     </g>
    </g>
    <g id="text_8">
     <!-- Frequency [1/τ*] -->
     <g transform="translate(236.628666 302.94952) scale(0.1 -0.1)">
      <defs>
       <path id="IBMPlexSans-46" d="M 1133 0 
L 1133 2022 
L 3072 2022 
L 3072 2496 
L 1133 2496 
L 1133 3994 
L 3258 3994 
L 3258 4467 
L 595 4467 
L 595 0 
L 1133 0 
z
" transform="scale(0.015625)"/>
       <path id="IBMPlexSans-72" d="M 1056 0 
L 1056 2240 
C 1056 2554 1389 2790 1939 2790 
L 2240 2790 
L 2240 3302 
L 2042 3302 
C 1504 3302 1203 3008 1088 2694 
L 1056 2694 
L 1056 3302 
L 544 3302 
L 544 0 
L 1056 0 
z
" transform="scale(0.015625)"/>
       <path id="IBMPlexSans-65" d="M 1786 -77 
C 2406 -77 2880 230 3091 678 
L 2726 941 
C 2554 576 2234 371 1818 371 
C 1203 371 838 800 838 1370 
L 838 1523 
L 3213 1523 
L 3213 1766 
C 3213 2701 2669 3379 1786 3379 
C 890 3379 301 2701 301 1651 
C 301 602 890 -77 1786 -77 
z
M 1786 2950 
C 2310 2950 2662 2560 2662 1978 
L 2662 1907 
L 838 1907 
L 838 1952 
C 838 2528 1229 2950 1786 2950 
z
" transform="scale(0.015625)"/>
       <path id="IBMPlexSans-71" d="M 2656 -1280 
L 3168 -1280 
L 3168 3302 
L 2656 3302 
L 2656 2765 
L 2630 2765 
C 2458 3181 2118 3379 1664 3379 
C 838 3379 320 2707 320 1651 
C 320 595 838 -77 1664 -77 
C 2118 -77 2432 128 2630 538 
L 2656 538 
L 2656 -1280 
z
M 1805 384 
C 1229 384 870 781 870 1370 
L 870 1933 
C 870 2522 1229 2918 1805 2918 
C 2272 2918 2656 2650 2656 2285 
L 2656 1056 
C 2656 627 2272 384 1805 384 
z
" transform="scale(0.015625)"/>
       <path id="IBMPlexSans-75" d="M 2579 0 
L 3091 0 
L 3091 3302 
L 2579 3302 
L 2579 1018 
C 2579 582 2182 384 1779 384 
C 1286 384 1024 685 1024 1274 
L 1024 3302 
L 512 3302 
L 512 1184 
C 512 384 947 -77 1626 -77 
C 2176 -77 2426 224 2554 538 
L 2579 538 
L 2579 0 
z
" transform="scale(0.015625)"/>
       <path id="IBMPlexSans-6e" d="M 1056 0 
L 1056 2291 
C 1056 2714 1453 2918 1862 2918 
C 2355 2918 2611 2618 2611 2029 
L 2611 0 
L 3123 0 
L 3123 2118 
C 3123 2918 2694 3379 2016 3379 
C 1523 3379 1242 3136 1082 2765 
L 1056 2765 
L 1056 3302 
L 544 3302 
L 544 0 
L 1056 0 
z
" transform="scale(0.015625)"/>
       <path id="IBMPlexSans-63" d="M 1773 -77 
C 2400 -77 2829 230 3040 704 
L 2669 954 
C 2490 576 2189 378 1773 378 
C 1165 378 851 794 851 1370 
L 851 1933 
C 851 2509 1165 2925 1773 2925 
C 2176 2925 2458 2726 2579 2387 
L 3008 2605 
C 2816 3059 2426 3379 1773 3379 
C 845 3379 301 2707 301 1651 
C 301 595 845 -77 1773 -77 
z
" transform="scale(0.015625)"/>
       <path id="IBMPlexSans-79" d="M 1779 1056 
L 1600 518 
L 1568 518 
L 1414 1056 
L 621 3302 
L 109 3302 
L 1344 -128 
L 1094 -832 
L 576 -832 
L 576 -1280 
L 838 -1280 
C 1325 -1280 1459 -1165 1606 -768 
L 3085 3302 
L 2579 3302 
L 1779 1056 
z
" transform="scale(0.015625)"/>
       <path id="IBMPlexSans-20" transform="scale(0.015625)"/>
       <path id="IBMPlexSans-5b" d="M 1645 -883 
L 1645 -480 
L 1037 -480 
L 1037 4461 
L 1645 4461 
L 1645 4864 
L 595 4864 
L 595 -883 
L 1645 -883 
z
" transform="scale(0.015625)"/>
       <path id="IBMPlexSans-2f" d="M 518 -966 
L 2189 4736 
L 1728 4736 
L 58 -966 
L 518 -966 
z
" transform="scale(0.015625)"/>
       <path id="IBMPlexSans-3c4" d="M 2451 0 
L 2451 448 
L 1715 448 
L 1715 2854 
L 2848 2854 
L 2848 3302 
L 128 3302 
L 128 2854 
L 1203 2854 
L 1203 544 
C 1203 224 1395 0 1747 0 
L 2451 0 
z
" transform="scale(0.015625)"/>
       <path id="IBMPlexSans-2a" d="M 1440 3270 
L 1965 2483 
L 2323 2746 
L 1741 3488 
L 2650 3738 
L 2509 4166 
L 1626 3840 
L 1664 4781 
L 1216 4781 
L 1254 3840 
L 371 4166 
L 230 3738 
L 1139 3488 
L 557 2746 
L 915 2483 
L 1440 3270 
z
" transform="scale(0.015625)"/>
       <path id="IBMPlexSans-5d" d="M 384 4864 
L 384 4461 
L 992 4461 
L 992 -480 
L 384 -480 
L 384 -883 
L 1434 -883 
L 1434 4864 
L 384 4864 
z
" transform="scale(0.015625)"/>
      </defs>
      <use xlink:href="#IBMPlexSans-46"/>
      <use xlink:href="#IBMPlexSans-72" transform="translate(55.899994 0)"/>
      <use xlink:href="#IBMPlexSans-65" transform="translate(92.599991 0)"/>
      <use xlink:href="#IBMPlexSans-71" transform="translate(147.499985 0)"/>
      <use xlink:href="#IBMPlexSans-75" transform="translate(205.499969 0)"/>
      <use xlink:href="#IBMPlexSans-65" transform="translate(262.299957 0)"/>
      <use xlink:href="#IBMPlexSans-6e" transform="translate(317.199951 0)"/>
      <use xlink:href="#IBMPlexSans-63" transform="translate(373.999939 0)"/>
      <use xlink:href="#IBMPlexSans-79" transform="translate(424.299927 0)"/>
      <use xlink:href="#IBMPlexSans-20" transform="translate(474.199921 0)"/>
      <use xlink:href="#IBMPlexSans-5b" transform="translate(497.799911 0)"/>
      <use xlink:href="#IBMPlexSans-31" transform="translate(529.499908 0)"/>
      <use xlink:href="#IBMPlexSans-2f" transform="translate(589.499893 0)"/>
      <use xlink:href="#IBMPlexSans-3c4" transform="translate(627.799881 0)"/>
      <use xlink:href="#IBMPlexSans-2a" transform="translate(675.499878 0)"/>
      <use xlink:href="#IBMPlexSans-5d" transform="translate(720.499863 0)"/>
     </g>
    </g>
   </g>
   <g id="matplotlib.axis_2">
    <g id="ytick_1">
     <g id="line2d_8">
      <defs>
       <path id="m1b5ca21eef" d="M 0 0 
L -3.5 0 
" style="stroke: #000000; stroke-width: 0.8"/>
      </defs>
      <g>
       <use xlink:href="#m1b5ca21eef" x="42.520313" y="243.934447" style="stroke: #000000; stroke-width: 0.8"/>
      </g>
     </g>
     <g id="text_9">
      <!-- 1.5 -->
      <g transform="translate(20.8 247.634447) scale(0.1 -0.1)">
       <defs>
        <path id="IBMPlexSans-35" d="M 3187 4467 
L 794 4467 
L 634 2010 
L 1088 1946 
C 1274 2150 1478 2323 1888 2323 
C 2496 2323 2822 1984 2822 1395 
L 2822 1331 
C 2822 742 2496 403 1888 403 
C 1350 403 1126 640 896 992 
L 493 685 
C 762 301 1146 -77 1888 -77 
C 2829 -77 3392 531 3392 1402 
C 3392 2266 2829 2784 2061 2784 
C 1594 2784 1357 2592 1146 2291 
L 1101 2291 
L 1229 3994 
L 3187 3994 
L 3187 4467 
z
" transform="scale(0.015625)"/>
       </defs>
       <use xlink:href="#IBMPlexSans-31"/>
       <use xlink:href="#IBMPlexSans-2e" transform="translate(59.999985 0)"/>
       <use xlink:href="#IBMPlexSans-35" transform="translate(87.199982 0)"/>
      </g>
     </g>
    </g>
    <g id="ytick_2">
     <g id="line2d_9">
      <g>
       <use xlink:href="#m1b5ca21eef" x="42.520313" y="198.923265" style="stroke: #000000; stroke-width: 0.8"/>
      </g>
     </g>
     <g id="text_10">
      <!-- 2.0 -->
      <g transform="translate(20.8 202.623265) scale(0.1 -0.1)">
       <use xlink:href="#IBMPlexSans-32"/>
       <use xlink:href="#IBMPlexSans-2e" transform="translate(59.999985 0)"/>
       <use xlink:href="#IBMPlexSans-30" transform="translate(87.199982 0)"/>
      </g>
     </g>
    </g>
    <g id="ytick_3">
     <g id="line2d_10">
      <g>
       <use xlink:href="#m1b5ca21eef" x="42.520313" y="153.912082" style="stroke: #000000; stroke-width: 0.8"/>
      </g>
     </g>
     <g id="text_11">
      <!-- 2.5 -->
      <g transform="translate(20.8 157.612082) scale(0.1 -0.1)">
       <use xlink:href="#IBMPlexSans-32"/>
       <use xlink:href="#IBMPlexSans-2e" transform="translate(59.999985 0)"/>
       <use xlink:href="#IBMPlexSans-35" transform="translate(87.199982 0)"/>
      </g>
     </g>
    </g>
    <g id="ytick_4">
     <g id="line2d_11">
      <g>
       <use xlink:href="#m1b5ca21eef" x="42.520313" y="108.9009" style="stroke: #000000; stroke-width: 0.8"/>
      </g>
     </g>
     <g id="text_12">
      <!-- 3.0 -->
      <g transform="translate(20.8 112.6009) scale(0.1 -0.1)">
       <defs>
        <path id="IBMPlexSans-33" d="M 1184 2573 
L 1184 2106 
L 1709 2106 
C 2336 2106 2669 1805 2669 1280 
L 2669 1229 
C 2669 704 2336 403 1709 403 
C 1165 403 902 640 672 992 
L 269 685 
C 544 301 941 -77 1715 -77 
C 2624 -77 3232 454 3232 1222 
C 3232 1894 2771 2253 2291 2349 
L 2291 2374 
C 2765 2496 3149 2842 3149 3418 
C 3149 4141 2547 4544 1792 4544 
C 1075 4544 685 4173 461 3814 
L 858 3507 
C 1043 3846 1318 4064 1779 4064 
C 2253 4064 2579 3827 2579 3360 
L 2579 3315 
C 2579 2886 2272 2573 1670 2573 
L 1184 2573 
z
" transform="scale(0.015625)"/>
       </defs>
       <use xlink:href="#IBMPlexSans-33"/>
       <use xlink:href="#IBMPlexSans-2e" transform="translate(59.999985 0)"/>
       <use xlink:href="#IBMPlexSans-30" transform="translate(87.199982 0)"/>
      </g>
     </g>
    </g>
    <g id="ytick_5">
     <g id="line2d_12">
      <g>
       <use xlink:href="#m1b5ca21eef" x="42.520313" y="63.889717" style="stroke: #000000; stroke-width: 0.8"/>
      </g>
     </g>
     <g id="text_13">
      <!-- 3.5 -->
      <g transform="translate(20.8 67.589717) scale(0.1 -0.1)">
       <use xlink:href="#IBMPlexSans-33"/>
       <use xlink:href="#IBMPlexSans-2e" transform="translate(59.999985 0)"/>
       <use xlink:href="#IBMPlexSans-35" transform="translate(87.199982 0)"/>
      </g>
     </g>
    </g>
    <g id="text_14">
     <!-- Amplitude [η*] -->
     <g transform="translate(14.8 188.547135) rotate(-90) scale(0.1 -0.1)">
      <defs>
       <path id="IBMPlexSans-41" d="M 3955 0 
L 2394 4467 
L 1709 4467 
L 147 0 
L 691 0 
L 1139 1318 
L 2944 1318 
L 3392 0 
L 3955 0 
z
M 2810 1792 
L 1267 1792 
L 2022 3968 
L 2054 3968 
L 2810 1792 
z
" transform="scale(0.015625)"/>
       <path id="IBMPlexSans-6d" d="M 1056 0 
L 1056 2291 
C 1056 2714 1440 2918 1843 2918 
C 2330 2918 2554 2618 2554 2029 
L 2554 0 
L 3066 0 
L 3066 2291 
C 3066 2714 3437 2918 3840 2918 
C 4339 2918 4563 2611 4563 2029 
L 4563 0 
L 5075 0 
L 5075 2118 
C 5075 2918 4672 3379 4000 3379 
C 3437 3379 3117 3066 2995 2707 
L 2982 2707 
C 2803 3181 2406 3379 1971 3379 
C 1459 3379 1229 3104 1082 2765 
L 1056 2765 
L 1056 3302 
L 544 3302 
L 544 0 
L 1056 0 
z
" transform="scale(0.015625)"/>
       <path id="IBMPlexSans-70" d="M 544 -1280 
L 1056 -1280 
L 1056 538 
L 1082 538 
C 1280 128 1594 -77 2048 -77 
C 2874 -77 3392 595 3392 1651 
C 3392 2707 2874 3379 2048 3379 
C 1594 3379 1254 3181 1082 2765 
L 1056 2765 
L 1056 3302 
L 544 3302 
L 544 -1280 
z
M 1907 384 
C 1440 384 1056 627 1056 1056 
L 1056 2285 
C 1056 2650 1440 2918 1907 2918 
C 2483 2918 2842 2522 2842 1933 
L 2842 1370 
C 2842 781 2483 384 1907 384 
z
" transform="scale(0.015625)"/>
       <path id="IBMPlexSans-6c" d="M 1542 0 
L 1542 448 
L 1056 448 
L 1056 4736 
L 544 4736 
L 544 531 
C 544 224 736 0 1088 0 
L 1542 0 
z
" transform="scale(0.015625)"/>
       <path id="IBMPlexSans-69" d="M 800 4077 
C 1018 4077 1114 4192 1114 4365 
L 1114 4448 
C 1114 4621 1018 4736 800 4736 
C 582 4736 486 4621 486 4448 
L 486 4365 
C 486 4192 582 4077 800 4077 
z
M 544 0 
L 1056 0 
L 1056 3302 
L 544 3302 
L 544 0 
z
" transform="scale(0.015625)"/>
       <path id="IBMPlexSans-74" d="M 1914 0 
L 1914 448 
L 1242 448 
L 1242 2854 
L 1965 2854 
L 1965 3302 
L 1242 3302 
L 1242 4218 
L 781 4218 
L 781 3603 
C 781 3379 710 3302 493 3302 
L 186 3302 
L 186 2854 
L 730 2854 
L 730 544 
C 730 224 922 0 1274 0 
L 1914 0 
z
" transform="scale(0.015625)"/>
       <path id="IBMPlexSans-64" d="M 2656 0 
L 3168 0 
L 3168 4736 
L 2656 4736 
L 2656 2765 
L 2630 2765 
C 2458 3181 2118 3379 1664 3379 
C 838 3379 320 2707 320 1651 
C 320 595 838 -77 1664 -77 
C 2118 -77 2432 128 2630 538 
L 2656 538 
L 2656 0 
z
M 1805 384 
C 1229 384 870 781 870 1370 
L 870 1933 
C 870 2522 1229 2918 1805 2918 
C 2272 2918 2656 2650 2656 2285 
L 2656 1056 
C 2656 627 2272 384 1805 384 
z
" transform="scale(0.015625)"/>
       <path id="IBMPlexSans-3b7" d="M 1088 0 
L 1088 2291 
C 1088 2714 1485 2918 1894 2918 
C 2387 2918 2643 2618 2643 2029 
L 2643 -1280 
L 3155 -1280 
L 3155 2118 
C 3155 2918 2726 3379 2048 3379 
C 1555 3379 1274 3136 1114 2765 
L 1088 2765 
C 1088 3078 896 3302 544 3302 
L 198 3302 
L 198 2854 
L 576 2854 
L 576 0 
L 1088 0 
z
" transform="scale(0.015625)"/>
      </defs>
      <use xlink:href="#IBMPlexSans-41"/>
      <use xlink:href="#IBMPlexSans-6d" transform="translate(64.099991 0)"/>
      <use xlink:href="#IBMPlexSans-70" transform="translate(151.399979 0)"/>
      <use xlink:href="#IBMPlexSans-6c" transform="translate(209.399963 0)"/>
      <use xlink:href="#IBMPlexSans-69" transform="translate(236.59996 0)"/>
      <use xlink:href="#IBMPlexSans-74" transform="translate(261.599945 0)"/>
      <use xlink:href="#IBMPlexSans-75" transform="translate(296.699936 0)"/>
      <use xlink:href="#IBMPlexSans-64" transform="translate(353.499924 0)"/>
      <use xlink:href="#IBMPlexSans-65" transform="translate(411.499908 0)"/>
      <use xlink:href="#IBMPlexSans-20" transform="translate(466.399902 0)"/>
      <use xlink:href="#IBMPlexSans-5b" transform="translate(489.999893 0)"/>
      <use xlink:href="#IBMPlexSans-3b7" transform="translate(521.69989 0)"/>
      <use xlink:href="#IBMPlexSans-2a" transform="translate(578.999878 0)"/>
      <use xlink:href="#IBMPlexSans-5d" transform="translate(623.999863 0)"/>
     </g>
    </g>
   </g>
   <g id="line2d_13">
    <defs>
     <path id="ma09109c576" d="M 0 1.5 
C 0.397805 1.5 0.77937 1.341951 1.06066 1.06066 
C 1.341951 0.77937 1.5 0.397805 1.5 0 
C 1.5 -0.397805 1.341951 -0.77937 1.06066 -1.06066 
C 0.77937 -1.341951 0.397805 -1.5 0 -1.5 
C -0.397805 -1.5 -0.77937 -1.341951 -1.06066 -1.06066 
C -1.341951 -0.77937 -1.5 -0.397805 -1.5 0 
C -1.5 0.397805 -1.341951 0.77937 -1.06066 1.06066 
C -0.77937 1.341951 -0.397805 1.5 0 1.5 
z
"/>
    </defs>
    <g clip-path="url(#p5eb2225d0a)">
     <use xlink:href="#ma09109c576" x="47.063828" y="67.702545" style="fill: #1f77b4"/>
     <use xlink:href="#ma09109c576" x="50.286179" y="78.244463" style="fill: #1f77b4"/>
     <use xlink:href="#ma09109c576" x="53.508531" y="99.055567" style="fill: #1f77b4"/>
     <use xlink:href="#ma09109c576" x="56.730882" y="105.794157" style="fill: #1f77b4"/>
     <use xlink:href="#ma09109c576" x="59.953234" y="71.79087" style="fill: #1f77b4"/>
     <use xlink:href="#ma09109c576" x="63.175585" y="87.005243" style="fill: #1f77b4"/>
     <use xlink:href="#ma09109c576" x="66.397937" y="89.313322" style="fill: #1f77b4"/>
     <use xlink:href="#ma09109c576" x="69.620288" y="80.764787" style="fill: #1f77b4"/>
     <use xlink:href="#ma09109c576" x="72.842639" y="86.971872" style="fill: #1f77b4"/>
     <use xlink:href="#ma09109c576" x="76.064991" y="102.548875" style="fill: #1f77b4"/>
     <use xlink:href="#ma09109c576" x="79.287342" y="104.988798" style="fill: #1f77b4"/>
     <use xlink:href="#ma09109c576" x="82.509694" y="110.839648" style="fill: #1f77b4"/>
     <use xlink:href="#ma09109c576" x="85.732045" y="100.148782" style="fill: #1f77b4"/>
     <use xlink:href="#ma09109c576" x="88.954397" y="116.016945" style="fill: #1f77b4"/>
     <use xlink:href="#ma09109c576" x="92.176748" y="104.79067" style="fill: #1f77b4"/>
     <use xlink:href="#ma09109c576" x="95.399099" y="109.800106" style="fill: #1f77b4"/>
     <use xlink:href="#ma09109c576" x="98.621451" y="114.930026" style="fill: #1f77b4"/>
     <use xlink:href="#ma09109c576" x="101.843802" y="99.089035" style="fill: #1f77b4"/>
     <use xlink:href="#ma09109c576" x="105.066154" y="103.985524" style="fill: #1f77b4"/>
     <use xlink:href="#ma09109c576" x="108.288505" y="122.57245" style="fill: #1f77b4"/>
     <use xlink:href="#ma09109c576" x="111.510857" y="111.192737" style="fill: #1f77b4"/>
     <use xlink:href="#ma09109c576" x="114.733208" y="138.540149" style="fill: #1f77b4"/>
     <use xlink:href="#ma09109c576" x="117.955559" y="119.451892" style="fill: #1f77b4"/>
     <use xlink:href="#ma09109c576" x="121.177911" y="121.162907" style="fill: #1f77b4"/>
     <use xlink:href="#ma09109c576" x="124.400262" y="131.872056" style="fill: #1f77b4"/>
     <use xlink:href="#ma09109c576" x="127.622614" y="134.449976" style="fill: #1f77b4"/>
     <use xlink:href="#ma09109c576" x="130.844965" y="125.78576" style="fill: #1f77b4"/>
     <use xlink:href="#ma09109c576" x="134.067317" y="135.004945" style="fill: #1f77b4"/>
     <use xlink:href="#ma09109c576" x="137.289668" y="146.697595" style="fill: #1f77b4"/>
     <use xlink:href="#ma09109c576" x="140.512019" y="149.164871" style="fill: #1f77b4"/>
     <use xlink:href="#ma09109c576" x="143.734371" y="135.166617" style="fill: #1f77b4"/>
     <use xlink:href="#ma09109c576" x="146.956722" y="119.487225" style="fill: #1f77b4"/>
     <use xlink:href="#ma09109c576" x="150.179074" y="171.026772" style="fill: #1f77b4"/>
     <use xlink:href="#ma09109c576" x="153.401425" y="149.930145" style="fill: #1f77b4"/>
     <use xlink:href="#ma09109c576" x="156.623777" y="138.480187" style="fill: #1f77b4"/>
     <use xlink:href="#ma09109c576" x="159.846128" y="157.577606" style="fill: #1f77b4"/>
     <use xlink:href="#ma09109c576" x="163.068479" y="145.129913" style="fill: #1f77b4"/>
     <use xlink:href="#ma09109c576" x="166.290831" y="156.591087" style="fill: #1f77b4"/>
     <use xlink:href="#ma09109c576" x="169.513182" y="151.000758" style="fill: #1f77b4"/>
     <use xlink:href="#ma09109c576" x="172.735534" y="143.98742" style="fill: #1f77b4"/>
     <use xlink:href="#ma09109c576" x="175.957885" y="166.206706" style="fill: #1f77b4"/>
     <use xlink:href="#ma09109c576" x="179.180237" y="173.776931" style="fill: #1f77b4"/>
     <use xlink:href="#ma09109c576" x="182.402588" y="169.081571" style="fill: #1f77b4"/>
     <use xlink:href="#ma09109c576" x="185.624939" y="158.231757" style="fill: #1f77b4"/>
     <use xlink:href="#ma09109c576" x="188.847291" y="153.327305" style="fill: #1f77b4"/>
     <use xlink:href="#ma09109c576" x="192.069642" y="174.750564" style="fill: #1f77b4"/>
     <use xlink:href="#ma09109c576" x="195.291994" y="179.396384" style="fill: #1f77b4"/>
     <use xlink:href="#ma09109c576" x="198.514345" y="155.21489" style="fill: #1f77b4"/>
     <use xlink:href="#ma09109c576" x="201.736697" y="175.747844" style="fill: #1f77b4"/>
     <use xlink:href="#ma09109c576" x="204.959048" y="184.883686" style="fill: #1f77b4"/>
     <use xlink:href="#ma09109c576" x="208.181399" y="176.304679" style="fill: #1f77b4"/>
     <use xlink:href="#ma09109c576" x="211.403751" y="179.541501" style="fill: #1f77b4"/>
     <use xlink:href="#ma09109c576" x="214.626102" y="176.8931" style="fill: #1f77b4"/>
     <use xlink:href="#ma09109c576" x="217.848454" y="181.111905" style="fill: #1f77b4"/>
     <use xlink:href="#ma09109c576" x="221.070805" y="181.897254" style="fill: #1f77b4"/>
     <use xlink:href="#ma09109c576" x="224.293157" y="180.531114" style="fill: #1f77b4"/>
     <use xlink:href="#ma09109c576" x="227.515508" y="180.229443" style="fill: #1f77b4"/>
     <use xlink:href="#ma09109c576" x="230.737859" y="192.315081" style="fill: #1f77b4"/>
     <use xlink:href="#ma09109c576" x="233.960211" y="176.036371" style="fill: #1f77b4"/>
     <use xlink:href="#ma09109c576" x="237.182562" y="176.213431" style="fill: #1f77b4"/>
     <use xlink:href="#ma09109c576" x="240.404914" y="179.524631" style="fill: #1f77b4"/>
     <use xlink:href="#ma09109c576" x="243.627265" y="190.034509" style="fill: #1f77b4"/>
     <use xlink:href="#ma09109c576" x="246.849617" y="194.706716" style="fill: #1f77b4"/>
     <use xlink:href="#ma09109c576" x="250.071968" y="206.954027" style="fill: #1f77b4"/>
     <use xlink:href="#ma09109c576" x="253.294319" y="194.773466" style="fill: #1f77b4"/>
     <use xlink:href="#ma09109c576" x="256.516671" y="193.980743" style="fill: #1f77b4"/>
     <use xlink:href="#ma09109c576" x="259.739022" y="212.58637" style="fill: #1f77b4"/>
     <use xlink:href="#ma09109c576" x="262.961374" y="197.646456" style="fill: #1f77b4"/>
     <use xlink:href="#ma09109c576" x="266.183725" y="200.414861" style="fill: #1f77b4"/>
     <use xlink:href="#ma09109c576" x="269.406077" y="194.824572" style="fill: #1f77b4"/>
     <use xlink:href="#ma09109c576" x="272.628428" y="194.38164" style="fill: #1f77b4"/>
     <use xlink:href="#ma09109c576" x="275.850779" y="212.849729" style="fill: #1f77b4"/>
     <use xlink:href="#ma09109c576" x="279.073131" y="196.726035" style="fill: #1f77b4"/>
     <use xlink:href="#ma09109c576" x="282.295482" y="207.849818" style="fill: #1f77b4"/>
     <use xlink:href="#ma09109c576" x="285.517834" y="216.534337" style="fill: #1f77b4"/>
     <use xlink:href="#ma09109c576" x="288.740185" y="221.822678" style="fill: #1f77b4"/>
     <use xlink:href="#ma09109c576" x="291.962537" y="204.893814" style="fill: #1f77b4"/>
     <use xlink:href="#ma09109c576" x="295.184888" y="204.908435" style="fill: #1f77b4"/>
     <use xlink:href="#ma09109c576" x="298.407239" y="216.250846" style="fill: #1f77b4"/>
     <use xlink:href="#ma09109c576" x="301.629591" y="210.719083" style="fill: #1f77b4"/>
     <use xlink:href="#ma09109c576" x="304.851942" y="209.893889" style="fill: #1f77b4"/>
     <use xlink:href="#ma09109c576" x="308.074294" y="202.508712" style="fill: #1f77b4"/>
     <use xlink:href="#ma09109c576" x="311.296645" y="212.141918" style="fill: #1f77b4"/>
     <use xlink:href="#ma09109c576" x="314.518997" y="211.151752" style="fill: #1f77b4"/>
     <use xlink:href="#ma09109c576" x="317.741348" y="215.125286" style="fill: #1f77b4"/>
     <use xlink:href="#ma09109c576" x="320.963699" y="208.343607" style="fill: #1f77b4"/>
     <use xlink:href="#ma09109c576" x="324.186051" y="210.634138" style="fill: #1f77b4"/>
     <use xlink:href="#ma09109c576" x="327.408402" y="204.296487" style="fill: #1f77b4"/>
     <use xlink:href="#ma09109c576" x="330.630754" y="217.234413" style="fill: #1f77b4"/>
     <use xlink:href="#ma09109c576" x="333.853105" y="225.712773" style="fill: #1f77b4"/>
     <use xlink:href="#ma09109c576" x="337.075457" y="203.374787" style="fill: #1f77b4"/>
     <use xlink:href="#ma09109c576" x="340.297808" y="228.227661" style="fill: #1f77b4"/>
     <use xlink:href="#ma09109c576" x="343.520159" y="224.201127" style="fill: #1f77b4"/>
     <use xlink:href="#ma09109c576" x="346.742511" y="216.034735" style="fill: #1f77b4"/>
     <use xlink:href="#ma09109c576" x="349.964862" y="217.297066" style="fill: #1f77b4"/>
     <use xlink:href="#ma09109c576" x="353.187214" y="222.18392" style="fill: #1f77b4"/>
     <use xlink:href="#ma09109c576" x="356.409565" y="223.387344" style="fill: #1f77b4"/>
     <use xlink:href="#ma09109c576" x="359.631917" y="222.015966" style="fill: #1f77b4"/>
     <use xlink:href="#ma09109c576" x="362.854268" y="224.907217" style="fill: #1f77b4"/>
     <use xlink:href="#ma09109c576" x="366.076619" y="229.491438" style="fill: #1f77b4"/>
     <use xlink:href="#ma09109c576" x="369.298971" y="218.24283" style="fill: #1f77b4"/>
     <use xlink:href="#ma09109c576" x="372.521322" y="229.610203" style="fill: #1f77b4"/>
     <use xlink:href="#ma09109c576" x="375.743674" y="238.6843" style="fill: #1f77b4"/>
     <use xlink:href="#ma09109c576" x="378.966025" y="214.361575" style="fill: #1f77b4"/>
     <use xlink:href="#ma09109c576" x="382.188377" y="234.889015" style="fill: #1f77b4"/>
     <use xlink:href="#ma09109c576" x="385.410728" y="215.995432" style="fill: #1f77b4"/>
     <use xlink:href="#ma09109c576" x="388.633079" y="234.403607" style="fill: #1f77b4"/>
     <use xlink:href="#ma09109c576" x="391.855431" y="247.710711" style="fill: #1f77b4"/>
     <use xlink:href="#ma09109c576" x="395.077782" y="229.430225" style="fill: #1f77b4"/>
     <use xlink:href="#ma09109c576" x="398.300134" y="234.132164" style="fill: #1f77b4"/>
     <use xlink:href="#ma09109c576" x="401.522485" y="243.982664" style="fill: #1f77b4"/>
     <use xlink:href="#ma09109c576" x="404.744837" y="243.484026" style="fill: #1f77b4"/>
     <use xlink:href="#ma09109c576" x="407.967188" y="228.454874" style="fill: #1f77b4"/>
     <use xlink:href="#ma09109c576" x="411.189539" y="225.78205" style="fill: #1f77b4"/>
     <use xlink:href="#ma09109c576" x="414.411891" y="249.165184" style="fill: #1f77b4"/>
     <use xlink:href="#ma09109c576" x="417.634242" y="240.850833" style="fill: #1f77b4"/>
     <use xlink:href="#ma09109c576" x="420.856594" y="227.889346" style="fill: #1f77b4"/>
     <use xlink:href="#ma09109c576" x="424.078945" y="237.187919" style="fill: #1f77b4"/>
     <use xlink:href="#ma09109c576" x="427.301297" y="237.232976" style="fill: #1f77b4"/>
     <use xlink:href="#ma09109c576" x="430.523648" y="230.059397" style="fill: #1f77b4"/>
     <use xlink:href="#ma09109c576" x="433.745999" y="239.202799" style="fill: #1f77b4"/>
     <use xlink:href="#ma09109c576" x="436.968351" y="242.364946" style="fill: #1f77b4"/>
     <use xlink:href="#ma09109c576" x="440.190702" y="247.940007" style="fill: #1f77b4"/>
     <use xlink:href="#ma09109c576" x="443.413054" y="239.520507" style="fill: #1f77b4"/>
     <use xlink:href="#ma09109c576" x="446.635405" y="236.518037" style="fill: #1f77b4"/>
     <use xlink:href="#ma09109c576" x="449.857757" y="227.141317" style="fill: #1f77b4"/>
     <use xlink:href="#ma09109c576" x="453.080108" y="241.477643" style="fill: #1f77b4"/>
     <use xlink:href="#ma09109c576" x="456.302459" y="239.784005" style="fill: #1f77b4"/>
     <use xlink:href="#ma09109c576" x="459.524811" y="245.242987" style="fill: #1f77b4"/>
     <use xlink:href="#ma09109c576" x="462.747162" y="236.057619" style="fill: #1f77b4"/>
     <use xlink:href="#ma09109c576" x="465.969514" y="264.39957" style="fill: #1f77b4"/>
     <use xlink:href="#ma09109c576" x="469.191865" y="247.316898" style="fill: #1f77b4"/>
     <use xlink:href="#ma09109c576" x="472.414217" y="236.53191" style="fill: #1f77b4"/>
     <use xlink:href="#ma09109c576" x="475.636568" y="242.40017" style="fill: #1f77b4"/>
     <use xlink:href="#ma09109c576" x="478.858919" y="249.778278" style="fill: #1f77b4"/>
     <use xlink:href="#ma09109c576" x="482.081271" y="241.407808" style="fill: #1f77b4"/>
     <use xlink:href="#ma09109c576" x="485.303622" y="258.776402" style="fill: #1f77b4"/>
     <use xlink:href="#ma09109c576" x="488.525974" y="256.538519" style="fill: #1f77b4"/>
     <use xlink:href="#ma09109c576" x="491.748325" y="261.510036" style="fill: #1f77b4"/>
     <use xlink:href="#ma09109c576" x="494.970677" y="250.915187" style="fill: #1f77b4"/>
     <use xlink:href="#ma09109c576" x="498.193028" y="250.414332" style="fill: #1f77b4"/>
     <use xlink:href="#ma09109c576" x="501.415379" y="244.807044" style="fill: #1f77b4"/>
    </g>
   </g>
   <g id="line2d_14">
    <path d="M 47.063828 90.268397 
L 50.286179 90.349043 
L 53.508531 90.590475 
L 56.730882 90.991175 
L 59.953234 91.548644 
L 63.175585 92.259435 
L 66.397937 93.119209 
L 69.620288 94.1228 
L 72.842639 95.264288 
L 76.064991 96.537087 
L 79.287342 97.934034 
L 82.509694 99.447482 
L 85.732045 101.069403 
L 88.954397 102.79148 
L 92.176748 104.605202 
L 95.399099 106.501959 
L 98.621451 108.473126 
L 101.843802 110.510142 
L 105.066154 112.604584 
L 108.288505 114.74823 
L 111.510857 116.933117 
L 114.733208 119.151587 
L 117.955559 121.396327 
L 121.177911 123.6604 
L 124.400262 125.937267 
L 127.622614 128.220806 
L 130.844965 130.505319 
L 134.067317 132.785538 
L 137.289668 135.056622 
L 140.512019 137.31415 
L 143.734371 139.554115 
L 146.956722 141.772906 
L 150.179074 143.967297 
L 153.401425 146.134426 
L 156.623777 148.271779 
L 159.846128 150.377169 
L 163.068479 152.448713 
L 166.290831 154.484815 
L 169.513182 156.484144 
L 172.735534 158.44561 
L 175.957885 160.368352 
L 179.180237 162.251711 
L 182.402588 164.095214 
L 185.624939 165.898559 
L 188.847291 167.661594 
L 192.069642 169.384305 
L 195.291994 171.066798 
L 198.514345 172.70929 
L 201.736697 174.31209 
L 204.959048 175.875593 
L 208.181399 177.400265 
L 211.403751 178.886636 
L 214.626102 180.33529 
L 217.848454 181.746855 
L 221.070805 183.122 
L 224.293157 184.461421 
L 227.515508 185.765843 
L 230.737859 187.036009 
L 233.960211 188.272678 
L 237.182562 189.476618 
L 240.404914 190.648603 
L 243.627265 191.789414 
" clip-path="url(#p5eb2225d0a)" style="fill: none; stroke: #2ca02c; stroke-width: 1.5; stroke-linecap: square"/>
   </g>
   <g id="line2d_15">
    <path d="M 47.063828 97.314945 
L 50.286179 97.376695 
L 53.508531 97.561835 
L 56.730882 97.870042 
L 59.953234 98.300779 
L 63.175585 98.85331 
L 66.397937 99.526709 
L 69.620288 100.319879 
L 72.842639 101.231566 
L 76.064991 102.260383 
L 79.287342 103.404822 
L 82.509694 104.663254 
L 85.732045 106.033906 
L 88.954397 107.514802 
L 92.176748 109.103636 
L 95.399099 110.797574 
L 98.621451 112.592982 
L 101.843802 114.485097 
L 105.066154 116.467718 
L 108.288505 118.533005 
L 111.510857 120.671478 
L 114.733208 122.872262 
L 117.955559 125.123549 
L 121.177911 127.413154 
L 124.400262 129.729071 
L 127.622614 132.059918 
L 130.844965 134.395244 
L 134.067317 136.725698 
L 137.289668 139.04309 
L 140.512019 141.340374 
L 143.734371 143.611593 
L 146.956722 145.851797 
L 150.179074 148.056954 
L 153.401425 150.223862 
L 156.623777 152.350068 
L 159.846128 154.433789 
L 163.068479 156.473846 
L 166.290831 158.469604 
L 169.513182 160.420917 
L 172.735534 162.328081 
L 175.957885 164.191794 
L 179.180237 166.013108 
L 182.402588 167.793399 
L 185.624939 169.534319 
L 188.847291 171.237753 
L 192.069642 172.905769 
L 195.291994 174.540555 
L 198.514345 176.144349 
L 201.736697 177.719362 
L 204.959048 179.26769 
L 208.181399 180.791234 
L 211.403751 182.291625 
L 214.626102 183.770173 
L 217.848454 185.227831 
L 221.070805 186.665205 
L 224.293157 188.082574 
L 227.515508 189.479945 
L 230.737859 190.857113 
L 233.960211 192.213727 
L 237.182562 193.549354 
L 240.404914 194.863529 
L 243.627265 196.155802 
" clip-path="url(#p5eb2225d0a)" style="fill: none; stroke-dasharray: 5.55,2.4; stroke-dashoffset: 0; stroke: #2ca02c; stroke-width: 1.5"/>
   </g>
   <g id="line2d_16">
    <path d="M 47.063828 83.221849 
L 50.286179 83.321392 
L 53.508531 83.619115 
L 56.730882 84.112309 
L 59.953234 84.796509 
L 63.175585 85.66556 
L 66.397937 86.711709 
L 69.620288 87.925721 
L 72.842639 89.29701 
L 76.064991 90.813791 
L 79.287342 92.463245 
L 82.509694 94.231711 
L 85.732045 96.1049 
L 88.954397 98.068157 
L 92.176748 100.106768 
L 95.399099 102.206344 
L 98.621451 104.35327 
L 101.843802 106.535187 
L 105.066154 108.741449 
L 108.288505 110.963454 
L 111.510857 113.194756 
L 114.733208 115.430912 
L 117.955559 117.669106 
L 121.177911 119.907646 
L 124.400262 122.145463 
L 127.622614 124.381694 
L 130.844965 126.615394 
L 134.067317 128.845378 
L 137.289668 131.070154 
L 140.512019 133.287927 
L 143.734371 135.496637 
L 146.956722 137.694015 
L 150.179074 139.877639 
L 153.401425 142.04499 
L 156.623777 144.193491 
L 159.846128 146.320549 
L 163.068479 148.42358 
L 166.290831 150.500027 
L 169.513182 152.54737 
L 172.735534 154.56314 
L 175.957885 156.544911 
L 179.180237 158.490314 
L 182.402588 160.39703 
L 185.624939 162.262799 
L 188.847291 164.085435 
L 192.069642 165.86284 
L 195.291994 167.593042 
L 198.514345 169.274231 
L 201.736697 170.904818 
L 204.959048 172.483496 
L 208.181399 174.009296 
L 211.403751 175.481647 
L 214.626102 176.900407 
L 217.848454 178.265879 
L 221.070805 179.578794 
L 224.293157 180.840268 
L 227.515508 182.051741 
L 230.737859 183.214906 
L 233.960211 184.331629 
L 237.182562 185.403882 
L 240.404914 186.433677 
L 243.627265 187.423025 
" clip-path="url(#p5eb2225d0a)" style="fill: none; stroke-dasharray: 5.55,2.4; stroke-dashoffset: 0; stroke: #2ca02c; stroke-width: 1.5"/>
   </g>
   <g id="line2d_17">
    <path d="M 237.309817 274.94952 
L 237.309817 251.112168 
" clip-path="url(#p5eb2225d0a)" style="fill: none; stroke: #000000; stroke-width: 1.5; stroke-linecap: square"/>
   </g>
   <g id="patch_3">
    <path d="M 42.520313 274.94952 
L 42.520313 36.576 
" style="fill: none; stroke: #000000; stroke-width: 0.8; stroke-linejoin: miter; stroke-linecap: square"/>
   </g>
   <g id="patch_4">
    <path d="M 42.520313 274.94952 
L 505.958895 274.94952 
" style="fill: none; stroke: #000000; stroke-width: 0.8; stroke-linejoin: miter; stroke-linecap: square"/>
   </g>
   <g id="text_15">
    <!-- Model lorentz(0.1)  -->
    <g transform="translate(42.520313 17.376) scale(0.12 -0.12)">
     <defs>
      <path id="IBMPlexSans-4d" d="M 595 0 
L 1120 0 
L 1120 3763 
L 1152 3763 
L 1530 3014 
L 2598 1069 
L 3667 3014 
L 4045 3763 
L 4077 3763 
L 4077 0 
L 4602 0 
L 4602 4467 
L 3910 4467 
L 2624 2061 
L 2592 2061 
L 1312 4467 
L 595 4467 
L 595 0 
z
" transform="scale(0.015625)"/>
      <path id="IBMPlexSans-6f" d="M 1792 -77 
C 2675 -77 3283 602 3283 1651 
C 3283 2701 2675 3379 1792 3379 
C 909 3379 301 2701 301 1651 
C 301 602 909 -77 1792 -77 
z
M 1792 378 
C 1242 378 851 717 851 1414 
L 851 1888 
C 851 2586 1242 2925 1792 2925 
C 2342 2925 2733 2586 2733 1888 
L 2733 1414 
C 2733 717 2342 378 1792 378 
z
" transform="scale(0.015625)"/>
      <path id="IBMPlexSans-7a" d="M 2758 0 
L 2758 448 
L 794 448 
L 2707 2918 
L 2707 3302 
L 269 3302 
L 269 2854 
L 2086 2854 
L 211 429 
L 211 0 
L 2758 0 
z
" transform="scale(0.015625)"/>
      <path id="IBMPlexSans-28" d="M 531 1997 
C 531 749 1056 -339 1690 -877 
L 2176 -877 
C 1485 -262 1011 819 1011 1715 
L 1011 2266 
C 1011 3162 1466 4224 2176 4864 
L 1690 4864 
C 1037 4307 531 3232 531 1997 
z
" transform="scale(0.015625)"/>
      <path id="IBMPlexSans-29" d="M 1613 1997 
C 1613 3232 1107 4307 454 4864 
L -32 4864 
C 678 4224 1133 3162 1133 2266 
L 1133 1715 
C 1133 819 659 -262 -32 -877 
L 454 -877 
C 1088 -339 1613 749 1613 1997 
z
" transform="scale(0.015625)"/>
     </defs>
     <use xlink:href="#IBMPlexSans-4d"/>
     <use xlink:href="#IBMPlexSans-6f" transform="translate(81.199982 0)"/>
     <use xlink:href="#IBMPlexSans-64" transform="translate(137.199966 0)"/>
     <use xlink:href="#IBMPlexSans-65" transform="translate(195.199951 0)"/>
     <use xlink:href="#IBMPlexSans-6c" transform="translate(250.099945 0)"/>
     <use xlink:href="#IBMPlexSans-20" transform="translate(277.299942 0)"/>
     <use xlink:href="#IBMPlexSans-6c" transform="translate(300.899933 0)"/>
     <use xlink:href="#IBMPlexSans-6f" transform="translate(328.09993 0)"/>
     <use xlink:href="#IBMPlexSans-72" transform="translate(384.099915 0)"/>
     <use xlink:href="#IBMPlexSans-65" transform="translate(420.799911 0)"/>
     <use xlink:href="#IBMPlexSans-6e" transform="translate(475.699905 0)"/>
     <use xlink:href="#IBMPlexSans-74" transform="translate(532.499893 0)"/>
     <use xlink:href="#IBMPlexSans-7a" transform="translate(567.599884 0)"/>
     <use xlink:href="#IBMPlexSans-28" transform="translate(613.999878 0)"/>
     <use xlink:href="#IBMPlexSans-30" transform="translate(647.499863 0)"/>
     <use xlink:href="#IBMPlexSans-2e" transform="translate(707.499847 0)"/>
     <use xlink:href="#IBMPlexSans-31" transform="translate(734.699844 0)"/>
     <use xlink:href="#IBMPlexSans-29" transform="translate(794.699829 0)"/>
     <use xlink:href="#IBMPlexSans-20" transform="translate(828.199814 0)"/>
    </g>
    <!-- $η$ = 3.207 ± 0.040 η* -->
    <g transform="translate(42.520313 30.576) scale(0.12 -0.12)">
     <defs>
      <path id="DejaVuSans-Oblique-3b7" d="M 3703 2113 
L 3034 -1331 
L 2459 -1331 
L 3125 2094 
Q 3222 2591 3075 2838 
Q 2931 3084 2544 3084 
Q 2078 3084 1750 2788 
Q 1425 2491 1325 1978 
L 941 0 
L 363 0 
L 1044 3500 
L 1622 3500 
L 1516 2956 
Q 1781 3272 2094 3428 
Q 2403 3584 2769 3584 
Q 3372 3584 3609 3213 
Q 3844 2838 3703 2113 
z
" transform="scale(0.015625)"/>
      <path id="IBMPlexSans-3d" d="M 3411 2381 
L 3411 2816 
L 429 2816 
L 429 2381 
L 3411 2381 
z
M 3411 1101 
L 3411 1536 
L 429 1536 
L 429 1101 
L 3411 1101 
z
" transform="scale(0.015625)"/>
      <path id="IBMPlexSans-37" d="M 1696 0 
L 3373 3994 
L 3373 4467 
L 442 4467 
L 442 3174 
L 922 3174 
L 922 4006 
L 2829 4006 
L 1120 0 
L 1696 0 
z
" transform="scale(0.015625)"/>
      <path id="IBMPlexSans-b1" d="M 2163 973 
L 2163 2246 
L 3411 2246 
L 3411 2682 
L 2163 2682 
L 2163 3955 
L 1677 3955 
L 1677 2682 
L 429 2682 
L 429 2246 
L 1677 2246 
L 1677 973 
L 2163 973 
z
M 3411 0 
L 3411 435 
L 429 435 
L 429 0 
L 3411 0 
z
" transform="scale(0.015625)"/>
     </defs>
     <use xlink:href="#DejaVuSans-Oblique-3b7" transform="translate(0 0.296875)"/>
     <use xlink:href="#IBMPlexSans-20" transform="translate(63.378906 0.296875)"/>
     <use xlink:href="#IBMPlexSans-3d" transform="translate(86.978897 0.296875)"/>
     <use xlink:href="#IBMPlexSans-20" transform="translate(146.978882 0.296875)"/>
     <use xlink:href="#IBMPlexSans-33" transform="translate(170.578873 0.296875)"/>
     <use xlink:href="#IBMPlexSans-2e" transform="translate(230.578857 0.296875)"/>
     <use xlink:href="#IBMPlexSans-32" transform="translate(257.778854 0.296875)"/>
     <use xlink:href="#IBMPlexSans-30" transform="translate(317.778839 0.296875)"/>
     <use xlink:href="#IBMPlexSans-37" transform="translate(377.778824 0.296875)"/>
     <use xlink:href="#IBMPlexSans-20" transform="translate(437.778809 0.296875)"/>
     <use xlink:href="#IBMPlexSans-b1" transform="translate(461.378799 0.296875)"/>
     <use xlink:href="#IBMPlexSans-20" transform="translate(521.378784 0.296875)"/>
     <use xlink:href="#IBMPlexSans-30" transform="translate(544.978775 0.296875)"/>
     <use xlink:href="#IBMPlexSans-2e" transform="translate(604.97876 0.296875)"/>
     <use xlink:href="#IBMPlexSans-30" transform="translate(632.178757 0.296875)"/>
     <use xlink:href="#IBMPlexSans-34" transform="translate(692.178741 0.296875)"/>
     <use xlink:href="#IBMPlexSans-30" transform="translate(752.178726 0.296875)"/>
     <use xlink:href="#IBMPlexSans-20" transform="translate(812.178711 0.296875)"/>
     <use xlink:href="#IBMPlexSans-3b7" transform="translate(835.778702 0.296875)"/>
     <use xlink:href="#IBMPlexSans-2a" transform="translate(893.07869 0.296875)"/>
    </g>
   </g>
   <g id="text_16">
    <!-- $\tau_\text{exp}$ = 0.394 ± 0.038 τ* -->
    <g transform="translate(379.118895 16.2) scale(0.12 -0.12)">
     <defs>
      <path id="DejaVuSans-Oblique-3c4" d="M 2103 638 
Q 2188 488 2525 488 
L 2800 488 
L 2706 0 
L 2363 0 
Q 1800 0 1600 300 
Q 1403 606 1534 1269 
L 1856 2925 
L 541 2925 
L 653 3500 
L 3881 3500 
L 3769 2925 
L 2444 2925 
L 2113 1234 
Q 2025 781 2103 638 
z
" transform="scale(0.015625)"/>
      <path id="DejaVuSans-65" d="M 3597 1894 
L 3597 1613 
L 953 1613 
Q 991 1019 1311 708 
Q 1631 397 2203 397 
Q 2534 397 2845 478 
Q 3156 559 3463 722 
L 3463 178 
Q 3153 47 2828 -22 
Q 2503 -91 2169 -91 
Q 1331 -91 842 396 
Q 353 884 353 1716 
Q 353 2575 817 3079 
Q 1281 3584 2069 3584 
Q 2775 3584 3186 3129 
Q 3597 2675 3597 1894 
z
M 3022 2063 
Q 3016 2534 2758 2815 
Q 2500 3097 2075 3097 
Q 1594 3097 1305 2825 
Q 1016 2553 972 2059 
L 3022 2063 
z
" transform="scale(0.015625)"/>
      <path id="DejaVuSans-78" d="M 3513 3500 
L 2247 1797 
L 3578 0 
L 2900 0 
L 1881 1375 
L 863 0 
L 184 0 
L 1544 1831 
L 300 3500 
L 978 3500 
L 1906 2253 
L 2834 3500 
L 3513 3500 
z
" transform="scale(0.015625)"/>
      <path id="DejaVuSans-70" d="M 1159 525 
L 1159 -1331 
L 581 -1331 
L 581 3500 
L 1159 3500 
L 1159 2969 
Q 1341 3281 1617 3432 
Q 1894 3584 2278 3584 
Q 2916 3584 3314 3078 
Q 3713 2572 3713 1747 
Q 3713 922 3314 415 
Q 2916 -91 2278 -91 
Q 1894 -91 1617 61 
Q 1341 213 1159 525 
z
M 3116 1747 
Q 3116 2381 2855 2742 
Q 2594 3103 2138 3103 
Q 1681 3103 1420 2742 
Q 1159 2381 1159 1747 
Q 1159 1113 1420 752 
Q 1681 391 2138 391 
Q 2594 391 2855 752 
Q 3116 1113 3116 1747 
z
" transform="scale(0.015625)"/>
      <path id="IBMPlexSans-39" d="M 3411 2829 
C 3411 3891 2842 4544 1914 4544 
C 1018 4544 429 3942 429 3066 
C 429 2221 979 1690 1747 1690 
C 2291 1690 2611 1965 2822 2330 
L 2854 2317 
C 2611 1280 2080 698 1126 0 
L 1818 0 
C 2534 467 3411 1504 3411 2829 
z
M 1920 2144 
C 1331 2144 986 2483 986 3085 
L 986 3136 
C 986 3738 1331 4077 1920 4077 
C 2509 4077 2854 3738 2854 3136 
L 2854 3085 
C 2854 2483 2509 2144 1920 2144 
z
" transform="scale(0.015625)"/>
     </defs>
     <use xlink:href="#DejaVuSans-Oblique-3c4" transform="translate(0 0.296875)"/>
     <use xlink:href="#DejaVuSans-65" transform="translate(60.205078 -16.109375) scale(0.7)"/>
     <use xlink:href="#DejaVuSans-78" transform="translate(103.271484 -16.109375) scale(0.7)"/>
     <use xlink:href="#DejaVuSans-70" transform="translate(144.697266 -16.109375) scale(0.7)"/>
     <use xlink:href="#IBMPlexSans-20" transform="translate(191.865234 0.296875)"/>
     <use xlink:href="#IBMPlexSans-3d" transform="translate(215.465225 0.296875)"/>
     <use xlink:href="#IBMPlexSans-20" transform="translate(275.46521 0.296875)"/>
     <use xlink:href="#IBMPlexSans-30" transform="translate(299.065201 0.296875)"/>
     <use xlink:href="#IBMPlexSans-2e" transform="translate(359.065186 0.296875)"/>
     <use xlink:href="#IBMPlexSans-33" transform="translate(386.265182 0.296875)"/>
     <use xlink:href="#IBMPlexSans-39" transform="translate(446.265167 0.296875)"/>
     <use xlink:href="#IBMPlexSans-34" transform="translate(506.265152 0.296875)"/>
     <use xlink:href="#IBMPlexSans-20" transform="translate(566.265137 0.296875)"/>
     <use xlink:href="#IBMPlexSans-b1" transform="translate(589.865128 0.296875)"/>
     <use xlink:href="#IBMPlexSans-20" transform="translate(649.865112 0.296875)"/>
     <use xlink:href="#IBMPlexSans-30" transform="translate(673.465103 0.296875)"/>
     <use xlink:href="#IBMPlexSans-2e" transform="translate(733.465088 0.296875)"/>
     <use xlink:href="#IBMPlexSans-30" transform="translate(760.665085 0.296875)"/>
     <use xlink:href="#IBMPlexSans-33" transform="translate(820.66507 0.296875)"/>
     <use xlink:href="#IBMPlexSans-38" transform="translate(880.665054 0.296875)"/>
     <use xlink:href="#IBMPlexSans-20" transform="translate(940.665039 0.296875)"/>
     <use xlink:href="#IBMPlexSans-3c4" transform="translate(964.26503 0.296875)"/>
     <use xlink:href="#IBMPlexSans-2a" transform="translate(1011.965027 0.296875)"/>
    </g>
    <!-- $\tau_\text{int}$ = 0.138 ± 0.002 τ* -->
    <g transform="translate(383.558895 30.576) scale(0.12 -0.12)">
     <defs>
      <path id="DejaVuSans-69" d="M 603 3500 
L 1178 3500 
L 1178 0 
L 603 0 
L 603 3500 
z
M 603 4863 
L 1178 4863 
L 1178 4134 
L 603 4134 
L 603 4863 
z
" transform="scale(0.015625)"/>
      <path id="DejaVuSans-6e" d="M 3513 2113 
L 3513 0 
L 2938 0 
L 2938 2094 
Q 2938 2591 2744 2837 
Q 2550 3084 2163 3084 
Q 1697 3084 1428 2787 
Q 1159 2491 1159 1978 
L 1159 0 
L 581 0 
L 581 3500 
L 1159 3500 
L 1159 2956 
Q 1366 3272 1645 3428 
Q 1925 3584 2291 3584 
Q 2894 3584 3203 3211 
Q 3513 2838 3513 2113 
z
" transform="scale(0.015625)"/>
      <path id="DejaVuSans-74" d="M 1172 4494 
L 1172 3500 
L 2356 3500 
L 2356 3053 
L 1172 3053 
L 1172 1153 
Q 1172 725 1289 603 
Q 1406 481 1766 481 
L 2356 481 
L 2356 0 
L 1766 0 
Q 1100 0 847 248 
Q 594 497 594 1153 
L 594 3053 
L 172 3053 
L 172 3500 
L 594 3500 
L 594 4494 
L 1172 4494 
z
" transform="scale(0.015625)"/>
     </defs>
     <use xlink:href="#DejaVuSans-Oblique-3c4" transform="translate(0 0.296875)"/>
     <use xlink:href="#DejaVuSans-69" transform="translate(60.205078 -16.109375) scale(0.7)"/>
     <use xlink:href="#DejaVuSans-6e" transform="translate(79.65332 -16.109375) scale(0.7)"/>
     <use xlink:href="#DejaVuSans-74" transform="translate(124.018555 -16.109375) scale(0.7)"/>
     <use xlink:href="#IBMPlexSans-20" transform="translate(154.199219 0.296875)"/>
     <use xlink:href="#IBMPlexSans-3d" transform="translate(177.79921 0.296875)"/>
     <use xlink:href="#IBMPlexSans-20" transform="translate(237.799194 0.296875)"/>
     <use xlink:href="#IBMPlexSans-30" transform="translate(261.399185 0.296875)"/>
     <use xlink:href="#IBMPlexSans-2e" transform="translate(321.39917 0.296875)"/>
     <use xlink:href="#IBMPlexSans-31" transform="translate(348.599167 0.296875)"/>
     <use xlink:href="#IBMPlexSans-33" transform="translate(408.599152 0.296875)"/>
     <use xlink:href="#IBMPlexSans-38" transform="translate(468.599136 0.296875)"/>
     <use xlink:href="#IBMPlexSans-20" transform="translate(528.599121 0.296875)"/>
     <use xlink:href="#IBMPlexSans-b1" transform="translate(552.199112 0.296875)"/>
     <use xlink:href="#IBMPlexSans-20" transform="translate(612.199097 0.296875)"/>
     <use xlink:href="#IBMPlexSans-30" transform="translate(635.799088 0.296875)"/>
     <use xlink:href="#IBMPlexSans-2e" transform="translate(695.799072 0.296875)"/>
     <use xlink:href="#IBMPlexSans-30" transform="translate(722.999069 0.296875)"/>
     <use xlink:href="#IBMPlexSans-30" transform="translate(782.999054 0.296875)"/>
     <use xlink:href="#IBMPlexSans-32" transform="translate(842.999039 0.296875)"/>
     <use xlink:href="#IBMPlexSans-20" transform="translate(902.999023 0.296875)"/>
     <use xlink:href="#IBMPlexSans-3c4" transform="translate(926.599014 0.296875)"/>
     <use xlink:href="#IBMPlexSans-2a" transform="translate(974.299011 0.296875)"/>
    </g>
   </g>
   <g id="legend_1">
    <g id="patch_5">
     <path d="M 368.902645 73.496312 
L 498.958895 73.496312 
Q 500.958895 73.496312 500.958895 71.496312 
L 500.958895 43.576 
Q 500.958895 41.576 498.958895 41.576 
L 368.902645 41.576 
Q 366.902645 41.576 366.902645 43.576 
L 366.902645 71.496312 
Q 366.902645 73.496312 368.902645 73.496312 
z
" style="fill: #ffffff; opacity: 0.8; stroke: #cccccc; stroke-linejoin: miter"/>
    </g>
    <g id="line2d_18">
     <path d="M 370.902645 49.476 
L 380.902645 49.476 
L 390.902645 49.476 
" style="fill: none; stroke-dasharray: 5.55,2.4; stroke-dashoffset: 0; stroke: #2ca02c; stroke-width: 1.5"/>
    </g>
    <g id="text_17">
     <!-- 95% CI fitted model -->
     <g transform="translate(398.902645 52.976) scale(0.1 -0.1)">
      <defs>
       <path id="IBMPlexSans-25" d="M 1664 0 
L 4762 4467 
L 4269 4467 
L 1171 0 
L 1664 0 
z
M 1427 2010 
C 2074 2010 2438 2458 2438 3277 
C 2438 4096 2074 4544 1427 4544 
C 781 4544 416 4096 416 3277 
C 416 2458 781 2010 1427 2010 
z
M 1427 2342 
C 1056 2342 877 2598 877 3085 
L 877 3469 
C 877 3955 1056 4211 1427 4211 
C 1798 4211 1978 3955 1978 3469 
L 1978 3085 
C 1978 2598 1798 2342 1427 2342 
z
M 4506 -77 
C 5152 -77 5517 371 5517 1190 
C 5517 2010 5152 2458 4506 2458 
C 3859 2458 3494 2010 3494 1190 
C 3494 371 3859 -77 4506 -77 
z
M 4506 256 
C 4134 256 3955 512 3955 998 
L 3955 1382 
C 3955 1869 4134 2125 4506 2125 
C 4877 2125 5056 1869 5056 1382 
L 5056 998 
C 5056 512 4877 256 4506 256 
z
" transform="scale(0.015625)"/>
       <path id="IBMPlexSans-43" d="M 2170 -77 
C 2912 -77 3456 314 3738 941 
L 3309 1210 
C 3130 723 2739 403 2170 403 
C 1402 403 947 960 947 1875 
L 947 2541 
C 947 3456 1402 4064 2170 4064 
C 2720 4064 3091 3763 3270 3302 
L 3706 3565 
C 3424 4186 2912 4544 2170 4544 
C 1043 4544 371 3699 371 2208 
C 371 717 1043 -77 2170 -77 
z
" transform="scale(0.015625)"/>
       <path id="IBMPlexSans-49" d="M 2176 0 
L 2176 448 
L 1549 448 
L 1549 4019 
L 2176 4019 
L 2176 4467 
L 384 4467 
L 384 4019 
L 1011 4019 
L 1011 448 
L 384 448 
L 384 0 
L 2176 0 
z
" transform="scale(0.015625)"/>
       <path id="IBMPlexSans-66" d="M 723 0 
L 1235 0 
L 1235 2854 
L 1946 2854 
L 1946 3302 
L 1235 3302 
L 1235 4288 
L 1946 4288 
L 1946 4736 
L 1446 4736 
C 960 4736 723 4422 723 3968 
L 723 3302 
L 186 3302 
L 186 2854 
L 723 2854 
L 723 0 
z
" transform="scale(0.015625)"/>
      </defs>
      <use xlink:href="#IBMPlexSans-39"/>
      <use xlink:href="#IBMPlexSans-35" transform="translate(59.999985 0)"/>
      <use xlink:href="#IBMPlexSans-25" transform="translate(119.999969 0)"/>
      <use xlink:href="#IBMPlexSans-20" transform="translate(212.699951 0)"/>
      <use xlink:href="#IBMPlexSans-43" transform="translate(236.299942 0)"/>
      <use xlink:href="#IBMPlexSans-49" transform="translate(298.399933 0)"/>
      <use xlink:href="#IBMPlexSans-20" transform="translate(338.399918 0)"/>
      <use xlink:href="#IBMPlexSans-66" transform="translate(361.999908 0)"/>
      <use xlink:href="#IBMPlexSans-69" transform="translate(394.399902 0)"/>
      <use xlink:href="#IBMPlexSans-74" transform="translate(419.399887 0)"/>
      <use xlink:href="#IBMPlexSans-74" transform="translate(454.499878 0)"/>
      <use xlink:href="#IBMPlexSans-65" transform="translate(489.599869 0)"/>
      <use xlink:href="#IBMPlexSans-64" transform="translate(544.499863 0)"/>
      <use xlink:href="#IBMPlexSans-20" transform="translate(602.499847 0)"/>
      <use xlink:href="#IBMPlexSans-6d" transform="translate(626.099838 0)"/>
      <use xlink:href="#IBMPlexSans-6f" transform="translate(713.399826 0)"/>
      <use xlink:href="#IBMPlexSans-64" transform="translate(769.399811 0)"/>
      <use xlink:href="#IBMPlexSans-65" transform="translate(827.399796 0)"/>
      <use xlink:href="#IBMPlexSans-6c" transform="translate(882.299789 0)"/>
     </g>
    </g>
    <g id="patch_6">
     <path d="M 370.902645 67.376 
L 390.902645 67.376 
L 390.902645 60.376 
L 370.902645 60.376 
z
" style="fill: #2ca02c; fill-opacity: 0.3"/>
    </g>
    <g id="text_18">
     <!-- 95% CI sampling PSD -->
     <g transform="translate(398.902645 67.376) scale(0.1 -0.1)">
      <defs>
       <path id="IBMPlexSans-73" d="M 1536 -77 
C 2291 -77 2758 314 2758 954 
C 2758 1453 2477 1773 1747 1882 
L 1491 1920 
C 1082 1984 858 2112 858 2432 
C 858 2746 1082 2944 1504 2944 
C 1926 2944 2208 2746 2355 2541 
L 2694 2848 
C 2426 3181 2074 3379 1542 3379 
C 870 3379 365 3059 365 2406 
C 365 1792 819 1542 1427 1453 
L 1690 1414 
C 2125 1350 2266 1152 2266 896 
C 2266 557 2010 358 1574 358 
C 1158 358 851 544 595 864 
L 230 570 
C 525 179 928 -77 1536 -77 
z
" transform="scale(0.015625)"/>
       <path id="IBMPlexSans-61" d="M 3232 0 
L 3232 448 
L 2854 448 
L 2854 2266 
C 2854 2963 2381 3379 1587 3379 
C 992 3379 595 3085 416 2733 
L 723 2445 
C 902 2746 1165 2938 1562 2938 
C 2086 2938 2342 2682 2342 2214 
L 2342 1888 
L 1690 1888 
C 730 1888 282 1542 282 922 
C 282 307 691 -77 1389 -77 
C 1850 -77 2202 134 2342 538 
L 2374 538 
C 2413 230 2566 0 2944 0 
L 3232 0 
z
M 1472 358 
C 1075 358 819 544 819 870 
L 819 1005 
C 819 1325 1082 1504 1664 1504 
L 2342 1504 
L 2342 960 
C 2342 621 1978 358 1472 358 
z
" transform="scale(0.015625)"/>
       <path id="IBMPlexSans-67" d="M 3328 -365 
C 3328 179 2976 512 2157 512 
L 1453 512 
C 1152 512 947 563 947 762 
C 947 966 1165 1075 1382 1133 
C 1478 1114 1594 1101 1702 1101 
C 2458 1101 2950 1568 2950 2240 
C 2950 2592 2810 2886 2573 3091 
L 2573 3302 
L 3200 3302 
L 3200 3750 
L 2707 3750 
C 2432 3750 2323 3565 2323 3309 
L 2323 3251 
C 2144 3334 1933 3379 1696 3379 
C 947 3379 454 2912 454 2240 
C 454 1779 685 1414 1075 1229 
L 1075 1203 
C 742 1120 506 960 506 627 
C 506 403 614 256 800 166 
L 800 96 
C 474 6 275 -186 275 -544 
C 275 -1062 698 -1357 1728 -1357 
C 2790 -1357 3328 -1043 3328 -365 
z
M 2848 -403 
C 2848 -762 2515 -941 1946 -941 
L 1472 -941 
C 954 -941 755 -704 755 -416 
C 755 -211 851 -64 1062 32 
L 2163 32 
C 2675 32 2848 -141 2848 -403 
z
M 1702 1510 
C 1267 1510 992 1715 992 2150 
L 992 2330 
C 992 2765 1267 2970 1702 2970 
C 2138 2970 2413 2765 2413 2330 
L 2413 2150 
C 2413 1715 2138 1510 1702 1510 
z
" transform="scale(0.015625)"/>
       <path id="IBMPlexSans-50" d="M 1133 0 
L 1133 1907 
L 2374 1907 
C 3174 1907 3622 2400 3622 3187 
C 3622 3974 3174 4467 2374 4467 
L 595 4467 
L 595 0 
L 1133 0 
z
M 1133 3994 
L 2374 3994 
C 2797 3994 3046 3763 3046 3354 
L 3046 3021 
C 3046 2611 2797 2381 2374 2381 
L 1133 2381 
L 1133 3994 
z
" transform="scale(0.015625)"/>
       <path id="IBMPlexSans-53" d="M 1850 -77 
C 2810 -77 3386 448 3386 1267 
C 3386 1933 3008 2317 2138 2515 
L 1773 2598 
C 1210 2726 934 2918 934 3341 
C 934 3821 1286 4070 1856 4070 
C 2374 4070 2714 3859 2957 3520 
L 3360 3814 
C 3027 4288 2554 4544 1882 4544 
C 1005 4544 403 4115 403 3322 
C 403 2637 851 2278 1664 2093 
L 2029 2010 
C 2618 1875 2854 1664 2854 1242 
C 2854 730 2509 397 1869 397 
C 1350 397 979 621 666 1037 
L 269 704 
C 627 218 1133 -77 1850 -77 
z
" transform="scale(0.015625)"/>
       <path id="IBMPlexSans-44" d="M 595 0 
L 2093 0 
C 3206 0 3923 742 3923 2234 
C 3923 3725 3206 4467 2093 4467 
L 595 4467 
L 595 0 
z
M 1133 474 
L 1133 3994 
L 2093 3994 
C 2829 3994 3347 3482 3347 2598 
L 3347 1869 
C 3347 986 2829 474 2093 474 
L 1133 474 
z
" transform="scale(0.015625)"/>
      </defs>
      <use xlink:href="#IBMPlexSans-39"/>
      <use xlink:href="#IBMPlexSans-35" transform="translate(59.999985 0)"/>
      <use xlink:href="#IBMPlexSans-25" transform="translate(119.999969 0)"/>
      <use xlink:href="#IBMPlexSans-20" transform="translate(212.699951 0)"/>
      <use xlink:href="#IBMPlexSans-43" transform="translate(236.299942 0)"/>
      <use xlink:href="#IBMPlexSans-49" transform="translate(298.399933 0)"/>
      <use xlink:href="#IBMPlexSans-20" transform="translate(338.399918 0)"/>
      <use xlink:href="#IBMPlexSans-73" transform="translate(361.999908 0)"/>
      <use xlink:href="#IBMPlexSans-61" transform="translate(410.699905 0)"/>
      <use xlink:href="#IBMPlexSans-6d" transform="translate(464.099899 0)"/>
      <use xlink:href="#IBMPlexSans-70" transform="translate(551.399887 0)"/>
      <use xlink:href="#IBMPlexSans-6c" transform="translate(609.399872 0)"/>
      <use xlink:href="#IBMPlexSans-69" transform="translate(636.599869 0)"/>
      <use xlink:href="#IBMPlexSans-6e" transform="translate(661.599854 0)"/>
      <use xlink:href="#IBMPlexSans-67" transform="translate(718.399841 0)"/>
      <use xlink:href="#IBMPlexSans-20" transform="translate(771.199829 0)"/>
      <use xlink:href="#IBMPlexSans-50" transform="translate(794.79982 0)"/>
      <use xlink:href="#IBMPlexSans-53" transform="translate(855.399811 0)"/>
      <use xlink:href="#IBMPlexSans-44" transform="translate(913.499802 0)"/>
     </g>
    </g>
   </g>
  </g>
  <g id="axes_2">
   <g id="matplotlib.axis_3">
    <g id="ytick_6">
     <g id="line2d_19">
      <defs>
       <path id="md60ee1f4a1" d="M 0 0 
L 3.5 0 
" style="stroke: #ff0000; stroke-width: 0.8"/>
      </defs>
      <g>
       <use xlink:href="#md60ee1f4a1" x="505.958895" y="270.365414" style="fill: #ff0000; stroke: #ff0000; stroke-width: 0.8"/>
      </g>
     </g>
     <g id="text_19">
      <!-- 0.0 -->
      <g style="fill: #ff0000" transform="translate(512.958895 274.065414) scale(0.1 -0.1)">
       <use xlink:href="#IBMPlexSans-30"/>
       <use xlink:href="#IBMPlexSans-2e" transform="translate(59.999985 0)"/>
       <use xlink:href="#IBMPlexSans-30" transform="translate(87.199982 0)"/>
      </g>
     </g>
    </g>
    <g id="ytick_7">
     <g id="line2d_20">
      <g>
       <use xlink:href="#md60ee1f4a1" x="505.958895" y="224.524352" style="fill: #ff0000; stroke: #ff0000; stroke-width: 0.8"/>
      </g>
     </g>
     <g id="text_20">
      <!-- 0.2 -->
      <g style="fill: #ff0000" transform="translate(512.958895 228.224352) scale(0.1 -0.1)">
       <use xlink:href="#IBMPlexSans-30"/>
       <use xlink:href="#IBMPlexSans-2e" transform="translate(59.999985 0)"/>
       <use xlink:href="#IBMPlexSans-32" transform="translate(87.199982 0)"/>
      </g>
     </g>
    </g>
    <g id="ytick_8">
     <g id="line2d_21">
      <g>
       <use xlink:href="#md60ee1f4a1" x="505.958895" y="178.683291" style="fill: #ff0000; stroke: #ff0000; stroke-width: 0.8"/>
      </g>
     </g>
     <g id="text_21">
      <!-- 0.4 -->
      <g style="fill: #ff0000" transform="translate(512.958895 182.383291) scale(0.1 -0.1)">
       <use xlink:href="#IBMPlexSans-30"/>
       <use xlink:href="#IBMPlexSans-2e" transform="translate(59.999985 0)"/>
       <use xlink:href="#IBMPlexSans-34" transform="translate(87.199982 0)"/>
      </g>
     </g>
    </g>
    <g id="ytick_9">
     <g id="line2d_22">
      <g>
       <use xlink:href="#md60ee1f4a1" x="505.958895" y="132.842229" style="fill: #ff0000; stroke: #ff0000; stroke-width: 0.8"/>
      </g>
     </g>
     <g id="text_22">
      <!-- 0.6 -->
      <g style="fill: #ff0000" transform="translate(512.958895 136.542229) scale(0.1 -0.1)">
       <use xlink:href="#IBMPlexSans-30"/>
       <use xlink:href="#IBMPlexSans-2e" transform="translate(59.999985 0)"/>
       <use xlink:href="#IBMPlexSans-36" transform="translate(87.199982 0)"/>
      </g>
     </g>
    </g>
    <g id="ytick_10">
     <g id="line2d_23">
      <g>
       <use xlink:href="#md60ee1f4a1" x="505.958895" y="87.001168" style="fill: #ff0000; stroke: #ff0000; stroke-width: 0.8"/>
      </g>
     </g>
     <g id="text_23">
      <!-- 0.8 -->
      <g style="fill: #ff0000" transform="translate(512.958895 90.701168) scale(0.1 -0.1)">
       <use xlink:href="#IBMPlexSans-30"/>
       <use xlink:href="#IBMPlexSans-2e" transform="translate(59.999985 0)"/>
       <use xlink:href="#IBMPlexSans-38" transform="translate(87.199982 0)"/>
      </g>
     </g>
    </g>
    <g id="ytick_11">
     <g id="line2d_24">
      <g>
       <use xlink:href="#md60ee1f4a1" x="505.958895" y="41.160106" style="fill: #ff0000; stroke: #ff0000; stroke-width: 0.8"/>
      </g>
     </g>
     <g id="text_24">
      <!-- 1.0 -->
      <g style="fill: #ff0000" transform="translate(512.958895 44.860106) scale(0.1 -0.1)">
       <use xlink:href="#IBMPlexSans-31"/>
       <use xlink:href="#IBMPlexSans-2e" transform="translate(59.999985 0)"/>
       <use xlink:href="#IBMPlexSans-30" transform="translate(87.199982 0)"/>
      </g>
     </g>
    </g>
    <g id="text_25">
     <!-- Fitting weight -->
     <g style="fill: #d62728" transform="translate(539.079207 186.296354) rotate(-90) scale(0.1 -0.1)">
      <defs>
       <path id="IBMPlexSans-77" d="M 1082 0 
L 1702 0 
L 2163 1587 
L 2445 2592 
L 2458 2592 
L 2746 1587 
L 3206 0 
L 3840 0 
L 4717 3302 
L 4237 3302 
L 3878 1875 
L 3539 429 
L 3526 429 
L 3117 1875 
L 2688 3302 
L 2234 3302 
L 1818 1875 
L 1414 429 
L 1402 429 
L 1050 1875 
L 698 3302 
L 198 3302 
L 1082 0 
z
" transform="scale(0.015625)"/>
       <path id="IBMPlexSans-68" d="M 544 0 
L 1056 0 
L 1056 2291 
C 1056 2714 1453 2918 1862 2918 
C 2355 2918 2611 2618 2611 2029 
L 2611 0 
L 3123 0 
L 3123 2118 
C 3123 2918 2694 3379 2016 3379 
C 1523 3379 1242 3136 1082 2765 
L 1056 2765 
L 1056 4736 
L 544 4736 
L 544 0 
z
" transform="scale(0.015625)"/>
      </defs>
      <use xlink:href="#IBMPlexSans-46"/>
      <use xlink:href="#IBMPlexSans-69" transform="translate(55.899994 0)"/>
      <use xlink:href="#IBMPlexSans-74" transform="translate(80.899979 0)"/>
      <use xlink:href="#IBMPlexSans-74" transform="translate(115.999969 0)"/>
      <use xlink:href="#IBMPlexSans-69" transform="translate(151.09996 0)"/>
      <use xlink:href="#IBMPlexSans-6e" transform="translate(176.099945 0)"/>
      <use xlink:href="#IBMPlexSans-67" transform="translate(232.899933 0)"/>
      <use xlink:href="#IBMPlexSans-20" transform="translate(285.699921 0)"/>
      <use xlink:href="#IBMPlexSans-77" transform="translate(309.299911 0)"/>
      <use xlink:href="#IBMPlexSans-65" transform="translate(386.099899 0)"/>
      <use xlink:href="#IBMPlexSans-69" transform="translate(440.999893 0)"/>
      <use xlink:href="#IBMPlexSans-67" transform="translate(465.999878 0)"/>
      <use xlink:href="#IBMPlexSans-68" transform="translate(518.799866 0)"/>
      <use xlink:href="#IBMPlexSans-74" transform="translate(575.599854 0)"/>
     </g>
    </g>
   </g>
   <g id="line2d_25">
    <path d="M 47.063828 41.160106 
L 117.955559 41.254737 
L 130.844965 41.51974 
L 137.289668 41.809798 
L 143.734371 42.285686 
L 150.179074 43.039252 
L 153.401425 43.557488 
L 156.623777 44.194409 
L 159.846128 44.971304 
L 163.068479 45.911912 
L 166.290831 47.042357 
L 169.513182 48.390961 
L 172.735534 49.987901 
L 175.957885 51.86469 
L 179.180237 54.05345 
L 182.402588 56.58596 
L 185.624939 59.492487 
L 188.847291 62.800418 
L 192.069642 66.532741 
L 195.291994 70.706457 
L 198.514345 75.33103 
L 201.736697 80.407003 
L 204.959048 85.924921 
L 208.181399 91.864694 
L 211.403751 98.195496 
L 214.626102 104.876267 
L 221.070805 119.079428 
L 230.737859 141.554609 
L 237.182562 156.551024 
L 243.627265 170.996882 
L 246.849617 177.892032 
L 250.071968 184.518795 
L 253.294319 190.849446 
L 256.516671 196.863753 
L 259.739022 202.548468 
L 262.961374 207.89666 
L 266.183725 212.906943 
L 269.406077 217.582655 
L 272.628428 221.931043 
L 275.850779 225.962473 
L 279.073131 229.689706 
L 282.295482 233.127244 
L 285.517834 236.290758 
L 288.740185 239.1966 
L 291.962537 241.8614 
L 295.184888 244.301731 
L 298.407239 246.533857 
L 301.629591 248.573524 
L 304.851942 250.435825 
L 308.074294 252.135093 
L 311.296645 253.684836 
L 314.518997 255.097708 
L 320.963699 257.559131 
L 327.408402 259.603504 
L 333.853105 261.302169 
L 340.297808 262.714951 
L 346.742511 263.891624 
L 353.187214 264.873369 
L 362.854268 266.053069 
L 372.521322 266.959364 
L 382.188377 267.659404 
L 395.077782 268.356457 
L 411.189539 268.961748 
L 430.523648 269.434925 
L 456.302459 269.811289 
L 491.748325 270.079864 
L 501.415379 270.124936 
L 501.415379 270.124936 
" clip-path="url(#p5eb2225d0a)" style="fill: none; stroke-dasharray: 1.5,2.475; stroke-dashoffset: 0; stroke: #d62728; stroke-width: 1.5"/>
   </g>
   <g id="patch_7">
    <path d="M 42.520313 274.94952 
L 42.520313 36.576 
" style="fill: none; stroke: #000000; stroke-width: 0.8; stroke-linejoin: miter; stroke-linecap: square"/>
   </g>
   <g id="patch_8">
    <path d="M 505.958895 274.94952 
L 505.958895 36.576 
" style="fill: none; stroke: #ff0000; stroke-width: 0.8; stroke-linejoin: miter; stroke-linecap: square"/>
   </g>
   <g id="patch_9">
    <path d="M 42.520313 274.94952 
L 505.958895 274.94952 
" style="fill: none; stroke: #000000; stroke-width: 0.8; stroke-linejoin: miter; stroke-linecap: square"/>
   </g>
  </g>
 </g>
 <defs>
  <clipPath id="p5eb2225d0a">
   <rect x="42.520313" y="36.576" width="463.438582" height="238.37352"/>
  </clipPath>
 </defs>
</svg>