<?xml version="1.0" encoding="utf-8" standalone="no"?>
<!DOCTYPE svg PUBLIC "-//W3C//DTD SVG 1.1//EN"
  "http://www.w3.org/Graphics/SVG/1.1/DTD/svg11.dtd">
<svg xmlns:xlink="http://www.w3.org/1999/xlink" width="548.39952pt" height="312.14952pt" viewBox="0 0 548.39952 312.14952" xmlns="http://www.w3.org/2000/svg" version="1.1">
 <metadata>
  <rdf:RDF xmlns:dc="http://purl.org/dc/elements/1.1/" xmlns:cc="http://creativecommons.org/ns#" xmlns:rdf="http://www.w3.org/1999/02/22-rdf-syntax-ns#">
   <cc:Work>
    <dc:type rdf:resource="http://purl.org/dc/dcmitype/StillImage"/>
    <dc:date>2026-01-27T08:26:13.255136</dc:date>
    <dc:format>image/svg+xml</dc:format>
    <dc:creator>
     <cc:Agent>
      <dc:title>Matplotlib v3.10.7, https://matplotlib.org/</dc:title>
     </cc:Agent>
    </dc:creator>
   </cc:Work>
  </rdf:RDF>
 </metadata>
 <defs>
  <style type="text/css">*{stroke-linejoin: round; stroke-linecap: butt}</style>
 </defs>
 <g id="figure_1">
  <g id="patch_1">
   <path d="M 0 312.14952 
L 548.39952 312.14952 
L 548.39952 0 
L 0 0 
z
" style="fill: #ffffff"/>
  </g>
  <g id="axes_1">
   <g id="patch_2">
    <path d="M 48.320313 274.829207 
L 532.19952 274.829207 
L 532.19952 22.08 
L 48.320313 22.08 
z
" style="fill: #ffffff"/>
   </g>
   <g id="matplotlib.axis_1">
    <g id="xtick_1">
     <g id="line2d_1">
      <path d="M 50.32811 274.829207 
L 50.32811 22.08 
" clip-path="url(#p642259c273)" style="fill: none; stroke: #b0b0b0; stroke-width: 0.8; stroke-linecap: square"/>
     </g>
     <g id="line2d_2">
      <defs>
       <path id="m7a21b63e53" d="M 0 0 
L 0 3.5 
" style="stroke: #000000; stroke-width: 0.8"/>
      </defs>
      <g>
       <use xlink:href="#m7a21b63e53" x="50.32811" y="274.829207" style="stroke: #000000; stroke-width: 0.8"/>
      </g>
     </g>
     <g id="text_1">
      <!-- 0 -->
      <g transform="translate(47.32811 289.229207) scale(0.1 -0.1)">
       <defs>
        <path id="IBMPlexSans-30" d="M 1920 -77 
C 2989 -77 3456 774 3456 2234 
C 3456 3693 2989 4544 1920 4544 
C 851 4544 384 3693 384 2234 
C 384 774 851 -77 1920 -77 
z
M 1920 390 
C 1222 390 947 1005 947 1869 
L 947 2598 
C 947 3462 1222 4077 1920 4077 
C 2618 4077 2893 3462 2893 2598 
L 2893 1869 
C 2893 1005 2618 390 1920 390 
z
" transform="scale(0.015625)"/>
       </defs>
       <use xlink:href="#IBMPlexSans-30"/>
      </g>
     </g>
    </g>
    <g id="xtick_2">
     <g id="line2d_3">
      <path d="M 98.515251 274.829207 
L 98.515251 22.08 
" clip-path="url(#p642259c273)" style="fill: none; stroke: #b0b0b0; stroke-width: 0.8; stroke-linecap: square"/>
     </g>
     <g id="line2d_4">
      <g>
       <use xlink:href="#m7a21b63e53" x="98.515251" y="274.829207" style="stroke: #000000; stroke-width: 0.8"/>
      </g>
     </g>
     <g id="text_2">
      <!-- 24 -->
      <g transform="translate(92.515251 289.229207) scale(0.1 -0.1)">
       <defs>
        <path id="IBMPlexSans-32" d="M 3411 474 
L 1062 474 
L 2266 1555 
C 2835 2067 3245 2554 3245 3245 
C 3245 4006 2746 4544 1875 4544 
C 1011 4544 614 4019 442 3494 
L 922 3309 
C 1043 3731 1299 4064 1850 4064 
C 2400 4064 2675 3725 2675 3232 
L 2675 3155 
C 2675 2726 2355 2278 1939 1894 
L 480 550 
L 480 0 
L 3411 0 
L 3411 474 
z
" transform="scale(0.015625)"/>
        <path id="IBMPlexSans-34" d="M 2912 0 
L 2912 877 
L 3558 877 
L 3558 1325 
L 2912 1325 
L 2912 4467 
L 2112 4467 
L 243 1350 
L 243 877 
L 2400 877 
L 2400 0 
L 2912 0 
z
M 2368 4051 
L 2400 4051 
L 2400 1325 
L 749 1325 
L 2368 4051 
z
" transform="scale(0.015625)"/>
       </defs>
       <use xlink:href="#IBMPlexSans-32"/>
       <use xlink:href="#IBMPlexSans-34" transform="translate(59.999985 0)"/>
      </g>
     </g>
    </g>
    <g id="xtick_3">
     <g id="line2d_5">
      <path d="M 146.702392 274.829207 
L 146.702392 22.08 
" clip-path="url(#p642259c273)" style="fill: none; stroke: #b0b0b0; stroke-width: 0.8; stroke-linecap: square"/>
     </g>
     <g id="line2d_6">
      <g>
       <use xlink:href="#m7a21b63e53" x="146.702392" y="274.829207" style="stroke: #000000; stroke-width: 0.8"/>
      </g>
     </g>
     <g id="text_3">
      <!-- 48 -->
      <g transform="translate(140.702392 289.229207) scale(0.1 -0.1)">
       <defs>
        <path id="IBMPlexSans-38" d="M 1920 -77 
C 2938 -77 3469 480 3469 1216 
C 3469 1824 3104 2176 2566 2323 
L 2566 2374 
C 3034 2534 3334 2912 3334 3424 
C 3334 4102 2810 4544 1920 4544 
C 1030 4544 506 4102 506 3424 
C 506 2912 806 2534 1274 2374 
L 1274 2323 
C 736 2176 371 1824 371 1216 
C 371 480 902 -77 1920 -77 
z
M 1920 390 
C 1299 390 941 685 941 1190 
L 941 1325 
C 941 1830 1299 2125 1920 2125 
C 2541 2125 2899 1830 2899 1325 
L 2899 1190 
C 2899 685 2541 390 1920 390 
z
M 1920 2573 
C 1363 2573 1062 2822 1062 3277 
L 1062 3373 
C 1062 3827 1363 4077 1920 4077 
C 2477 4077 2778 3827 2778 3373 
L 2778 3277 
C 2778 2822 2477 2573 1920 2573 
z
" transform="scale(0.015625)"/>
       </defs>
       <use xlink:href="#IBMPlexSans-34"/>
       <use xlink:href="#IBMPlexSans-38" transform="translate(59.999985 0)"/>
      </g>
     </g>
    </g>
    <g id="xtick_4">
     <g id="line2d_7">
      <path d="M 194.889533 274.829207 
L 194.889533 22.08 
" clip-path="url(#p642259c273)" style="fill: none; stroke: #b0b0b0; stroke-width: 0.8; stroke-linecap: square"/>
     </g>
     <g id="line2d_8">
      <g>
       <use xlink:href="#m7a21b63e53" x="194.889533" y="274.829207" style="stroke: #000000; stroke-width: 0.8"/>
      </g>
     </g>
     <g id="text_4">
      <!-- 72 -->
      <g transform="translate(188.889533 289.229207) scale(0.1 -0.1)">
       <defs>
        <path id="IBMPlexSans-37" d="M 1696 0 
L 3373 3994 
L 3373 4467 
L 442 4467 
L 442 3174 
L 922 3174 
L 922 4006 
L 2829 4006 
L 1120 0 
L 1696 0 
z
" transform="scale(0.015625)"/>
       </defs>
       <use xlink:href="#IBMPlexSans-37"/>
       <use xlink:href="#IBMPlexSans-32" transform="translate(59.999985 0)"/>
      </g>
     </g>
    </g>
    <g id="xtick_5">
     <g id="line2d_9">
      <path d="M 243.076674 274.829207 
L 243.076674 22.08 
" clip-path="url(#p642259c273)" style="fill: none; stroke: #b0b0b0; stroke-width: 0.8; stroke-linecap: square"/>
     </g>
     <g id="line2d_10">
      <g>
       <use xlink:href="#m7a21b63e53" x="243.076674" y="274.829207" style="stroke: #000000; stroke-width: 0.8"/>
      </g>
     </g>
     <g id="text_5">
      <!-- 96 -->
      <g transform="translate(237.076674 289.229207) scale(0.1 -0.1)">
       <defs>
        <path id="IBMPlexSans-39" d="M 3411 2829 
C 3411 3891 2842 4544 1914 4544 
C 1018 4544 429 3942 429 3066 
C 429 2221 979 1690 1747 1690 
C 2291 1690 2611 1965 2822 2330 
L 2854 2317 
C 2611 1280 2080 698 1126 0 
L 1818 0 
C 2534 467 3411 1504 3411 2829 
z
M 1920 2144 
C 1331 2144 986 2483 986 3085 
L 986 3136 
C 986 3738 1331 4077 1920 4077 
C 2509 4077 2854 3738 2854 3136 
L 2854 3085 
C 2854 2483 2509 2144 1920 2144 
z
" transform="scale(0.015625)"/>
        <path id="IBMPlexSans-36" d="M 1926 -77 
C 2822 -77 3411 525 3411 1402 
C 3411 2246 2861 2778 2093 2778 
C 1549 2778 1229 2502 1018 2138 
L 986 2150 
C 1229 3187 1760 3770 2714 4467 
L 2022 4467 
C 1306 4000 429 2963 429 1638 
C 429 576 998 -77 1926 -77 
z
M 1920 390 
C 1331 390 986 730 986 1331 
L 986 1382 
C 986 1984 1331 2323 1920 2323 
C 2509 2323 2854 1984 2854 1382 
L 2854 1331 
C 2854 730 2509 390 1920 390 
z
" transform="scale(0.015625)"/>
       </defs>
       <use xlink:href="#IBMPlexSans-39"/>
       <use xlink:href="#IBMPlexSans-36" transform="translate(59.999985 0)"/>
      </g>
     </g>
    </g>
    <g id="xtick_6">
     <g id="line2d_11">
      <path d="M 291.263815 274.829207 
L 291.263815 22.08 
" clip-path="url(#p642259c273)" style="fill: none; stroke: #b0b0b0; stroke-width: 0.8; stroke-linecap: square"/>
     </g>
     <g id="line2d_12">
      <g>
       <use xlink:href="#m7a21b63e53" x="291.263815" y="274.829207" style="stroke: #000000; stroke-width: 0.8"/>
      </g>
     </g>
     <g id="text_6">
      <!-- 120 -->
      <g transform="translate(282.263815 289.229207) scale(0.1 -0.1)">
       <defs>
        <path id="IBMPlexSans-31" d="M 3501 0 
L 3501 474 
L 2349 474 
L 2349 4467 
L 1510 4467 
L 326 3360 
L 640 3021 
L 1766 4070 
L 1811 4070 
L 1811 474 
L 563 474 
L 563 0 
L 3501 0 
z
" transform="scale(0.015625)"/>
       </defs>
       <use xlink:href="#IBMPlexSans-31"/>
       <use xlink:href="#IBMPlexSans-32" transform="translate(59.999985 0)"/>
       <use xlink:href="#IBMPlexSans-30" transform="translate(119.999969 0)"/>
      </g>
     </g>
    </g>
    <g id="xtick_7">
     <g id="line2d_13">
      <path d="M 339.450956 274.829207 
L 339.450956 22.08 
" clip-path="url(#p642259c273)" style="fill: none; stroke: #b0b0b0; stroke-width: 0.8; stroke-linecap: square"/>
     </g>
     <g id="line2d_14">
      <g>
       <use xlink:href="#m7a21b63e53" x="339.450956" y="274.829207" style="stroke: #000000; stroke-width: 0.8"/>
      </g>
     </g>
     <g id="text_7">
      <!-- 144 -->
      <g transform="translate(330.450956 289.229207) scale(0.1 -0.1)">
       <use xlink:href="#IBMPlexSans-31"/>
       <use xlink:href="#IBMPlexSans-34" transform="translate(59.999985 0)"/>
       <use xlink:href="#IBMPlexSans-34" transform="translate(119.999969 0)"/>
      </g>
     </g>
    </g>
    <g id="xtick_8">
     <g id="line2d_15">
      <path d="M 387.638097 274.829207 
L 387.638097 22.08 
" clip-path="url(#p642259c273)" style="fill: none; stroke: #b0b0b0; stroke-width: 0.8; stroke-linecap: square"/>
     </g>
     <g id="line2d_16">
      <g>
       <use xlink:href="#m7a21b63e53" x="387.638097" y="274.829207" style="stroke: #000000; stroke-width: 0.8"/>
      </g>
     </g>
     <g id="text_8">
      <!-- 168 -->
      <g transform="translate(378.638097 289.229207) scale(0.1 -0.1)">
       <use xlink:href="#IBMPlexSans-31"/>
       <use xlink:href="#IBMPlexSans-36" transform="translate(59.999985 0)"/>
       <use xlink:href="#IBMPlexSans-38" transform="translate(119.999969 0)"/>
      </g>
     </g>
    </g>
    <g id="xtick_9">
     <g id="line2d_17">
      <path d="M 435.825238 274.829207 
L 435.825238 22.08 
" clip-path="url(#p642259c273)" style="fill: none; stroke: #b0b0b0; stroke-width: 0.8; stroke-linecap: square"/>
     </g>
     <g id="line2d_18">
      <g>
       <use xlink:href="#m7a21b63e53" x="435.825238" y="274.829207" style="stroke: #000000; stroke-width: 0.8"/>
      </g>
     </g>
     <g id="text_9">
      <!-- 192 -->
      <g transform="translate(426.825238 289.229207) scale(0.1 -0.1)">
       <use xlink:href="#IBMPlexSans-31"/>
       <use xlink:href="#IBMPlexSans-39" transform="translate(59.999985 0)"/>
       <use xlink:href="#IBMPlexSans-32" transform="translate(119.999969 0)"/>
      </g>
     </g>
    </g>
    <g id="xtick_10">
     <g id="line2d_19">
      <path d="M 484.012379 274.829207 
L 484.012379 22.08 
" clip-path="url(#p642259c273)" style="fill: none; stroke: #b0b0b0; stroke-width: 0.8; stroke-linecap: square"/>
     </g>
     <g id="line2d_20">
      <g>
       <use xlink:href="#m7a21b63e53" x="484.012379" y="274.829207" style="stroke: #000000; stroke-width: 0.8"/>
      </g>
     </g>
     <g id="text_10">
      <!-- 216 -->
      <g transform="translate(475.012379 289.229207) scale(0.1 -0.1)">
       <use xlink:href="#IBMPlexSans-32"/>
       <use xlink:href="#IBMPlexSans-31" transform="translate(59.999985 0)"/>
       <use xlink:href="#IBMPlexSans-36" transform="translate(119.999969 0)"/>
      </g>
     </g>
    </g>
    <g id="xtick_11">
     <g id="line2d_21">
      <path d="M 532.19952 274.829207 
L 532.19952 22.08 
" clip-path="url(#p642259c273)" style="fill: none; stroke: #b0b0b0; stroke-width: 0.8; stroke-linecap: square"/>
     </g>
     <g id="line2d_22">
      <g>
       <use xlink:href="#m7a21b63e53" x="532.19952" y="274.829207" style="stroke: #000000; stroke-width: 0.8"/>
      </g>
     </g>
     <g id="text_11">
      <!-- 240 -->
      <g transform="translate(523.19952 289.229207) scale(0.1 -0.1)">
       <use xlink:href="#IBMPlexSans-32"/>
       <use xlink:href="#IBMPlexSans-34" transform="translate(59.999985 0)"/>
       <use xlink:href="#IBMPlexSans-30" transform="translate(119.999969 0)"/>
      </g>
     </g>
    </g>
    <g id="text_12">
     <!-- Lag Time [h] -->
     <g transform="translate(262.855229 302.829207) scale(0.1 -0.1)">
      <defs>
       <path id="IBMPlexSans-4c" d="M 3034 0 
L 3034 474 
L 1133 474 
L 1133 4467 
L 595 4467 
L 595 0 
L 3034 0 
z
" transform="scale(0.015625)"/>
       <path id="IBMPlexSans-61" d="M 3232 0 
L 3232 448 
L 2854 448 
L 2854 2266 
C 2854 2963 2381 3379 1587 3379 
C 992 3379 595 3085 416 2733 
L 723 2445 
C 902 2746 1165 2938 1562 2938 
C 2086 2938 2342 2682 2342 2214 
L 2342 1888 
L 1690 1888 
C 730 1888 282 1542 282 922 
C 282 307 691 -77 1389 -77 
C 1850 -77 2202 134 2342 538 
L 2374 538 
C 2413 230 2566 0 2944 0 
L 3232 0 
z
M 1472 358 
C 1075 358 819 544 819 870 
L 819 1005 
C 819 1325 1082 1504 1664 1504 
L 2342 1504 
L 2342 960 
C 2342 621 1978 358 1472 358 
z
" transform="scale(0.015625)"/>
       <path id="IBMPlexSans-67" d="M 3328 -365 
C 3328 179 2976 512 2157 512 
L 1453 512 
C 1152 512 947 563 947 762 
C 947 966 1165 1075 1382 1133 
C 1478 1114 1594 1101 1702 1101 
C 2458 1101 2950 1568 2950 2240 
C 2950 2592 2810 2886 2573 3091 
L 2573 3302 
L 3200 3302 
L 3200 3750 
L 2707 3750 
C 2432 3750 2323 3565 2323 3309 
L 2323 3251 
C 2144 3334 1933 3379 1696 3379 
C 947 3379 454 2912 454 2240 
C 454 1779 685 1414 1075 1229 
L 1075 1203 
C 742 1120 506 960 506 627 
C 506 403 614 256 800 166 
L 800 96 
C 474 6 275 -186 275 -544 
C 275 -1062 698 -1357 1728 -1357 
C 2790 -1357 3328 -1043 3328 -365 
z
M 2848 -403 
C 2848 -762 2515 -941 1946 -941 
L 1472 -941 
C 954 -941 755 -704 755 -416 
C 755 -211 851 -64 1062 32 
L 2163 32 
C 2675 32 2848 -141 2848 -403 
z
M 1702 1510 
C 1267 1510 992 1715 992 2150 
L 992 2330 
C 992 2765 1267 2970 1702 2970 
C 2138 2970 2413 2765 2413 2330 
L 2413 2150 
C 2413 1715 2138 1510 1702 1510 
z
" transform="scale(0.015625)"/>
       <path id="IBMPlexSans-20" transform="scale(0.015625)"/>
       <path id="IBMPlexSans-54" d="M 3520 3994 
L 3520 4467 
L 141 4467 
L 141 3994 
L 1562 3994 
L 1562 0 
L 2099 0 
L 2099 3994 
L 3520 3994 
z
" transform="scale(0.015625)"/>
       <path id="IBMPlexSans-69" d="M 800 4077 
C 1018 4077 1114 4192 1114 4365 
L 1114 4448 
C 1114 4621 1018 4736 800 4736 
C 582 4736 486 4621 486 4448 
L 486 4365 
C 486 4192 582 4077 800 4077 
z
M 544 0 
L 1056 0 
L 1056 3302 
L 544 3302 
L 544 0 
z
" transform="scale(0.015625)"/>
       <path id="IBMPlexSans-6d" d="M 1056 0 
L 1056 2291 
C 1056 2714 1440 2918 1843 2918 
C 2330 2918 2554 2618 2554 2029 
L 2554 0 
L 3066 0 
L 3066 2291 
C 3066 2714 3437 2918 3840 2918 
C 4339 2918 4563 2611 4563 2029 
L 4563 0 
L 5075 0 
L 5075 2118 
C 5075 2918 4672 3379 4000 3379 
C 3437 3379 3117 3066 2995 2707 
L 2982 2707 
C 2803 3181 2406 3379 1971 3379 
C 1459 3379 1229 3104 1082 2765 
L 1056 2765 
L 1056 3302 
L 544 3302 
L 544 0 
L 1056 0 
z
" transform="scale(0.015625)"/>
       <path id="IBMPlexSans-65" d="M 1786 -77 
C 2406 -77 2880 230 3091 678 
L 2726 941 
C 2554 576 2234 371 1818 371 
C 1203 371 838 800 838 1370 
L 838 1523 
L 3213 1523 
L 3213 1766 
C 3213 2701 2669 3379 1786 3379 
C 890 3379 301 2701 301 1651 
C 301 602 890 -77 1786 -77 
z
M 1786 2950 
C 2310 2950 2662 2560 2662 1978 
L 2662 1907 
L 838 1907 
L 838 1952 
C 838 2528 1229 2950 1786 2950 
z
" transform="scale(0.015625)"/>
       <path id="IBMPlexSans-5b" d="M 1645 -883 
L 1645 -480 
L 1037 -480 
L 1037 4461 
L 1645 4461 
L 1645 4864 
L 595 4864 
L 595 -883 
L 1645 -883 
z
" transform="scale(0.015625)"/>
       <path id="IBMPlexSans-68" d="M 544 0 
L 1056 0 
L 1056 2291 
C 1056 2714 1453 2918 1862 2918 
C 2355 2918 2611 2618 2611 2029 
L 2611 0 
L 3123 0 
L 3123 2118 
C 3123 2918 2694 3379 2016 3379 
C 1523 3379 1242 3136 1082 2765 
L 1056 2765 
L 1056 4736 
L 544 4736 
L 544 0 
z
" transform="scale(0.015625)"/>
       <path id="IBMPlexSans-5d" d="M 384 4864 
L 384 4461 
L 992 4461 
L 992 -480 
L 384 -480 
L 384 -883 
L 1434 -883 
L 1434 4864 
L 384 4864 
z
" transform="scale(0.015625)"/>
      </defs>
      <use xlink:href="#IBMPlexSans-4c"/>
      <use xlink:href="#IBMPlexSans-61" transform="translate(50.099991 0)"/>
      <use xlink:href="#IBMPlexSans-67" transform="translate(103.499985 0)"/>
      <use xlink:href="#IBMPlexSans-20" transform="translate(156.299973 0)"/>
      <use xlink:href="#IBMPlexSans-54" transform="translate(179.899963 0)"/>
      <use xlink:href="#IBMPlexSans-69" transform="translate(237.09996 0)"/>
      <use xlink:href="#IBMPlexSans-6d" transform="translate(262.099945 0)"/>
      <use xlink:href="#IBMPlexSans-65" transform="translate(349.399933 0)"/>
      <use xlink:href="#IBMPlexSans-20" transform="translate(404.299927 0)"/>
      <use xlink:href="#IBMPlexSans-5b" transform="translate(427.899918 0)"/>
      <use xlink:href="#IBMPlexSans-68" transform="translate(459.599915 0)"/>
      <use xlink:href="#IBMPlexSans-5d" transform="translate(516.399902 0)"/>
     </g>
    </g>
   </g>
   <g id="matplotlib.axis_2">
    <g id="ytick_1">
     <g id="line2d_23">
      <defs>
       <path id="m32777fb7d4" d="M 0 0 
L -3.5 0 
" style="stroke: #000000; stroke-width: 0.8"/>
      </defs>
      <g>
       <use xlink:href="#m32777fb7d4" x="48.320313" y="263.287047" style="stroke: #000000; stroke-width: 0.8"/>
      </g>
     </g>
     <g id="text_13">
      <!-- 0.00 -->
      <g transform="translate(20.6 266.987047) scale(0.1 -0.1)">
       <defs>
        <path id="IBMPlexSans-2e" d="M 870 -77 
C 1139 -77 1261 77 1261 294 
L 1261 378 
C 1261 595 1139 749 870 749 
C 602 749 480 595 480 378 
L 480 294 
C 480 77 602 -77 870 -77 
z
" transform="scale(0.015625)"/>
       </defs>
       <use xlink:href="#IBMPlexSans-30"/>
       <use xlink:href="#IBMPlexSans-2e" transform="translate(59.999985 0)"/>
       <use xlink:href="#IBMPlexSans-30" transform="translate(87.199982 0)"/>
       <use xlink:href="#IBMPlexSans-30" transform="translate(147.199966 0)"/>
      </g>
     </g>
    </g>
    <g id="ytick_2">
     <g id="line2d_24">
      <g>
       <use xlink:href="#m32777fb7d4" x="48.320313" y="229.5223" style="stroke: #000000; stroke-width: 0.8"/>
      </g>
     </g>
     <g id="text_14">
      <!-- 0.02 -->
      <g transform="translate(20.6 233.2223) scale(0.1 -0.1)">
       <use xlink:href="#IBMPlexSans-30"/>
       <use xlink:href="#IBMPlexSans-2e" transform="translate(59.999985 0)"/>
       <use xlink:href="#IBMPlexSans-30" transform="translate(87.199982 0)"/>
       <use xlink:href="#IBMPlexSans-32" transform="translate(147.199966 0)"/>
      </g>
     </g>
    </g>
    <g id="ytick_3">
     <g id="line2d_25">
      <g>
       <use xlink:href="#m32777fb7d4" x="48.320313" y="195.757553" style="stroke: #000000; stroke-width: 0.8"/>
      </g>
     </g>
     <g id="text_15">
      <!-- 0.04 -->
      <g transform="translate(20.6 199.457553) scale(0.1 -0.1)">
       <use xlink:href="#IBMPlexSans-30"/>
       <use xlink:href="#IBMPlexSans-2e" transform="translate(59.999985 0)"/>
       <use xlink:href="#IBMPlexSans-30" transform="translate(87.199982 0)"/>
       <use xlink:href="#IBMPlexSans-34" transform="translate(147.199966 0)"/>
      </g>
     </g>
    </g>
    <g id="ytick_4">
     <g id="line2d_26">
      <g>
       <use xlink:href="#m32777fb7d4" x="48.320313" y="161.992805" style="stroke: #000000; stroke-width: 0.8"/>
      </g>
     </g>
     <g id="text_16">
      <!-- 0.06 -->
      <g transform="translate(20.6 165.692805) scale(0.1 -0.1)">
       <use xlink:href="#IBMPlexSans-30"/>
       <use xlink:href="#IBMPlexSans-2e" transform="translate(59.999985 0)"/>
       <use xlink:href="#IBMPlexSans-30" transform="translate(87.199982 0)"/>
       <use xlink:href="#IBMPlexSans-36" transform="translate(147.199966 0)"/>
      </g>
     </g>
    </g>
    <g id="ytick_5">
     <g id="line2d_27">
      <g>
       <use xlink:href="#m32777fb7d4" x="48.320313" y="128.228058" style="stroke: #000000; stroke-width: 0.8"/>
      </g>
     </g>
     <g id="text_17">
      <!-- 0.08 -->
      <g transform="translate(20.6 131.928058) scale(0.1 -0.1)">
       <use xlink:href="#IBMPlexSans-30"/>
       <use xlink:href="#IBMPlexSans-2e" transform="translate(59.999985 0)"/>
       <use xlink:href="#IBMPlexSans-30" transform="translate(87.199982 0)"/>
       <use xlink:href="#IBMPlexSans-38" transform="translate(147.199966 0)"/>
      </g>
     </g>
    </g>
    <g id="ytick_6">
     <g id="line2d_28">
      <g>
       <use xlink:href="#m32777fb7d4" x="48.320313" y="94.46331" style="stroke: #000000; stroke-width: 0.8"/>
      </g>
     </g>
     <g id="text_18">
      <!-- 0.10 -->
      <g transform="translate(20.6 98.16331) scale(0.1 -0.1)">
       <use xlink:href="#IBMPlexSans-30"/>
       <use xlink:href="#IBMPlexSans-2e" transform="translate(59.999985 0)"/>
       <use xlink:href="#IBMPlexSans-31" transform="translate(87.199982 0)"/>
       <use xlink:href="#IBMPlexSans-30" transform="translate(147.199966 0)"/>
      </g>
     </g>
    </g>
    <g id="ytick_7">
     <g id="line2d_29">
      <g>
       <use xlink:href="#m32777fb7d4" x="48.320313" y="60.698563" style="stroke: #000000; stroke-width: 0.8"/>
      </g>
     </g>
     <g id="text_19">
      <!-- 0.12 -->
      <g transform="translate(20.6 64.398563) scale(0.1 -0.1)">
       <use xlink:href="#IBMPlexSans-30"/>
       <use xlink:href="#IBMPlexSans-2e" transform="translate(59.999985 0)"/>
       <use xlink:href="#IBMPlexSans-31" transform="translate(87.199982 0)"/>
       <use xlink:href="#IBMPlexSans-32" transform="translate(147.199966 0)"/>
      </g>
     </g>
    </g>
    <g id="ytick_8">
     <g id="line2d_30">
      <g>
       <use xlink:href="#m32777fb7d4" x="48.320313" y="26.933816" style="stroke: #000000; stroke-width: 0.8"/>
      </g>
     </g>
     <g id="text_20">
      <!-- 0.14 -->
      <g transform="translate(20.6 30.633816) scale(0.1 -0.1)">
       <use xlink:href="#IBMPlexSans-30"/>
       <use xlink:href="#IBMPlexSans-2e" transform="translate(59.999985 0)"/>
       <use xlink:href="#IBMPlexSans-31" transform="translate(87.199982 0)"/>
       <use xlink:href="#IBMPlexSans-34" transform="translate(147.199966 0)"/>
      </g>
     </g>
    </g>
    <g id="text_21">
     <!-- Autocorrelation Function -->
     <g transform="translate(14.6 204.273354) rotate(-90) scale(0.1 -0.1)">
      <defs>
       <path id="IBMPlexSans-41" d="M 3955 0 
L 2394 4467 
L 1709 4467 
L 147 0 
L 691 0 
L 1139 1318 
L 2944 1318 
L 3392 0 
L 3955 0 
z
M 2810 1792 
L 1267 1792 
L 2022 3968 
L 2054 3968 
L 2810 1792 
z
" transform="scale(0.015625)"/>
       <path id="IBMPlexSans-75" d="M 2579 0 
L 3091 0 
L 3091 3302 
L 2579 3302 
L 2579 1018 
C 2579 582 2182 384 1779 384 
C 1286 384 1024 685 1024 1274 
L 1024 3302 
L 512 3302 
L 512 1184 
C 512 384 947 -77 1626 -77 
C 2176 -77 2426 224 2554 538 
L 2579 538 
L 2579 0 
z
" transform="scale(0.015625)"/>
       <path id="IBMPlexSans-74" d="M 1914 0 
L 1914 448 
L 1242 448 
L 1242 2854 
L 1965 2854 
L 1965 3302 
L 1242 3302 
L 1242 4218 
L 781 4218 
L 781 3603 
C 781 3379 710 3302 493 3302 
L 186 3302 
L 186 2854 
L 730 2854 
L 730 544 
C 730 224 922 0 1274 0 
L 1914 0 
z
" transform="scale(0.015625)"/>
       <path id="IBMPlexSans-6f" d="M 1792 -77 
C 2675 -77 3283 602 3283 1651 
C 3283 2701 2675 3379 1792 3379 
C 909 3379 301 2701 301 1651 
C 301 602 909 -77 1792 -77 
z
M 1792 378 
C 1242 378 851 717 851 1414 
L 851 1888 
C 851 2586 1242 2925 1792 2925 
C 2342 2925 2733 2586 2733 1888 
L 2733 1414 
C 2733 717 2342 378 1792 378 
z
" transform="scale(0.015625)"/>
       <path id="IBMPlexSans-63" d="M 1773 -77 
C 2400 -77 2829 230 3040 704 
L 2669 954 
C 2490 576 2189 378 1773 378 
C 1165 378 851 794 851 1370 
L 851 1933 
C 851 2509 1165 2925 1773 2925 
C 2176 2925 2458 2726 2579 2387 
L 3008 2605 
C 2816 3059 2426 3379 1773 3379 
C 845 3379 301 2707 301 1651 
C 301 595 845 -77 1773 -77 
z
" transform="scale(0.015625)"/>
       <path id="IBMPlexSans-72" d="M 1056 0 
L 1056 2240 
C 1056 2554 1389 2790 1939 2790 
L 2240 2790 
L 2240 3302 
L 2042 3302 
C 1504 3302 1203 3008 1088 2694 
L 1056 2694 
L 1056 3302 
L 544 3302 
L 544 0 
L 1056 0 
z
" transform="scale(0.015625)"/>
       <path id="IBMPlexSans-6c" d="M 1542 0 
L 1542 448 
L 1056 448 
L 1056 4736 
L 544 4736 
L 544 531 
C 544 224 736 0 1088 0 
L 1542 0 
z
" transform="scale(0.015625)"/>
       <path id="IBMPlexSans-6e" d="M 1056 0 
L 1056 2291 
C 1056 2714 1453 2918 1862 2918 
C 2355 2918 2611 2618 2611 2029 
L 2611 0 
L 3123 0 
L 3123 2118 
C 3123 2918 2694 3379 2016 3379 
C 1523 3379 1242 3136 1082 2765 
L 1056 2765 
L 1056 3302 
L 544 3302 
L 544 0 
L 1056 0 
z
" transform="scale(0.015625)"/>
       <path id="IBMPlexSans-46" d="M 1133 0 
L 1133 2022 
L 3072 2022 
L 3072 2496 
L 1133 2496 
L 1133 3994 
L 3258 3994 
L 3258 4467 
L 595 4467 
L 595 0 
L 1133 0 
z
" transform="scale(0.015625)"/>
      </defs>
      <use xlink:href="#IBMPlexSans-41"/>
      <use xlink:href="#IBMPlexSans-75" transform="translate(64.099991 0)"/>
      <use xlink:href="#IBMPlexSans-74" transform="translate(120.899979 0)"/>
      <use xlink:href="#IBMPlexSans-6f" transform="translate(155.999969 0)"/>
      <use xlink:href="#IBMPlexSans-63" transform="translate(211.999954 0)"/>
      <use xlink:href="#IBMPlexSans-6f" transform="translate(262.299942 0)"/>
      <use xlink:href="#IBMPlexSans-72" transform="translate(318.299927 0)"/>
      <use xlink:href="#IBMPlexSans-72" transform="translate(354.999924 0)"/>
      <use xlink:href="#IBMPlexSans-65" transform="translate(391.699921 0)"/>
      <use xlink:href="#IBMPlexSans-6c" transform="translate(446.599915 0)"/>
      <use xlink:href="#IBMPlexSans-61" transform="translate(473.799911 0)"/>
      <use xlink:href="#IBMPlexSans-74" transform="translate(527.199905 0)"/>
      <use xlink:href="#IBMPlexSans-69" transform="translate(562.299896 0)"/>
      <use xlink:href="#IBMPlexSans-6f" transform="translate(587.299881 0)"/>
      <use xlink:href="#IBMPlexSans-6e" transform="translate(643.299866 0)"/>
      <use xlink:href="#IBMPlexSans-20" transform="translate(700.099854 0)"/>
      <use xlink:href="#IBMPlexSans-46" transform="translate(723.699844 0)"/>
      <use xlink:href="#IBMPlexSans-75" transform="translate(779.599838 0)"/>
      <use xlink:href="#IBMPlexSans-6e" transform="translate(836.399826 0)"/>
      <use xlink:href="#IBMPlexSans-63" transform="translate(893.199814 0)"/>
      <use xlink:href="#IBMPlexSans-74" transform="translate(943.499802 0)"/>
      <use xlink:href="#IBMPlexSans-69" transform="translate(978.599792 0)"/>
      <use xlink:href="#IBMPlexSans-6f" transform="translate(1003.599777 0)"/>
      <use xlink:href="#IBMPlexSans-6e" transform="translate(1059.599762 0)"/>
     </g>
    </g>
   </g>
   <g id="line2d_31">
    <path d="M 50.32811 33.5686 
L 54.343705 86.864004 
L 56.351503 108.020379 
L 58.3593 125.089381 
L 60.367098 139.156372 
L 62.374895 151.021218 
L 64.382693 161.2587 
L 66.39049 170.113285 
L 68.398288 177.584623 
L 70.406085 183.773776 
L 72.413883 188.981303 
L 76.429478 197.56391 
L 78.437276 200.931469 
L 80.445073 203.794483 
L 82.452871 206.042312 
L 84.460668 207.614866 
L 86.468466 208.901895 
L 88.476263 209.699174 
L 90.484061 210.338474 
L 94.499656 211.913701 
L 98.515251 214.196865 
L 100.523049 215.918301 
L 110.562036 226.362133 
L 112.569834 228.043809 
L 114.577631 229.887835 
L 116.585429 231.529767 
L 120.601024 234.244788 
L 122.608822 235.004499 
L 124.616619 235.266456 
L 126.624417 235.323481 
L 128.632214 235.512001 
L 130.640012 235.968921 
L 132.647809 236.143928 
L 136.663404 235.952188 
L 142.686797 234.377703 
L 144.694594 234.172243 
L 146.702392 234.457387 
L 148.71019 235.008208 
L 150.717987 235.715805 
L 152.725785 236.597039 
L 154.733582 237.967111 
L 158.749177 241.627259 
L 160.756975 242.883802 
L 162.764772 243.689371 
L 166.780367 244.914116 
L 170.795963 246.123199 
L 174.811558 246.396347 
L 180.83495 246.02105 
L 182.842748 245.659052 
L 188.86614 244.008263 
L 190.873938 243.296515 
L 192.881735 242.729043 
L 194.889533 242.704087 
L 196.897331 242.97428 
L 198.905128 243.420266 
L 202.920723 245.411995 
L 206.936318 247.847436 
L 210.951913 249.377671 
L 214.967508 250.533056 
L 216.975306 250.960198 
L 220.990901 251.059091 
L 225.006496 250.964697 
L 229.022091 250.322998 
L 231.029889 249.842599 
L 235.045484 248.243704 
L 239.061079 247.04144 
L 241.068876 246.914339 
L 243.076674 246.959485 
L 245.084472 247.402746 
L 249.100067 249.042236 
L 251.107864 250.060707 
L 253.115662 251.351689 
L 255.123459 252.287845 
L 259.139054 253.880662 
L 261.146852 254.500887 
L 263.154649 254.887527 
L 265.162447 255.429836 
L 269.178042 254.899743 
L 271.18584 254.847422 
L 275.201435 255.31393 
L 277.209232 255.26468 
L 279.21703 254.888886 
L 281.224827 254.294848 
L 283.232625 253.329911 
L 287.24822 251.753281 
L 291.263815 251.466522 
L 293.271613 251.480651 
L 295.27941 251.714052 
L 297.287208 252.180805 
L 299.295005 252.902146 
L 301.302803 253.817268 
L 309.333993 256.265793 
L 311.34179 256.50329 
L 315.357386 256.294507 
L 317.365183 256.397976 
L 319.372981 256.389246 
L 321.380778 256.036851 
L 323.388576 255.491066 
L 325.396373 254.745915 
L 327.404171 253.819942 
L 333.427563 251.489901 
L 335.435361 250.530843 
L 337.443158 249.973811 
L 339.450956 249.898058 
L 341.458754 250.087625 
L 343.466551 250.991531 
L 345.474349 252.070656 
L 351.497741 255.940101 
L 355.513336 257.501605 
L 359.528931 258.909419 
L 363.544527 259.224927 
L 367.560122 258.977328 
L 369.567919 258.49555 
L 373.583514 257.324649 
L 375.591312 256.508685 
L 377.599109 255.833998 
L 379.606907 255.038764 
L 381.614704 254.102663 
L 383.622502 253.431284 
L 385.630299 253.356288 
L 387.638097 253.455901 
L 391.653692 254.556987 
L 393.66149 255.412108 
L 395.669287 256.413925 
L 397.677085 257.612629 
L 401.69268 260.554867 
L 403.700477 261.51888 
L 407.716072 262.955535 
L 409.72387 263.340607 
L 411.731668 263.202885 
L 413.739465 263.229586 
L 415.747263 262.951238 
L 417.75506 262.549087 
L 423.778453 260.005481 
L 427.794048 258.126949 
L 429.801845 257.461654 
L 433.81744 256.452161 
L 435.825238 256.294099 
L 437.833036 256.453229 
L 439.840833 257.061578 
L 441.848631 257.810096 
L 443.856428 258.821532 
L 445.864226 259.674841 
L 447.872023 260.297131 
L 451.887618 261.806229 
L 455.903213 262.671517 
L 457.911011 262.500511 
L 463.934404 261.282468 
L 465.942201 260.667758 
L 471.965594 257.744419 
L 473.973391 257.022632 
L 477.988986 255.97977 
L 479.996784 255.189234 
L 482.004581 254.631989 
L 484.012379 254.552776 
L 486.020177 254.641621 
L 488.027974 255.029298 
L 492.043569 256.587405 
L 496.059164 258.559401 
L 500.074759 260.117275 
L 502.082557 260.537749 
L 508.10595 260.840772 
L 510.113747 260.849938 
L 512.121545 260.701586 
L 514.129342 260.684608 
L 516.13714 260.459687 
L 520.152735 259.367858 
L 522.160532 258.78223 
L 524.16833 258.352745 
L 526.176127 257.62424 
L 530.191722 256.56588 
L 530.191722 256.56588 
" clip-path="url(#p642259c273)" style="fill: none; stroke: #1f77b4; stroke-width: 1.5; stroke-linecap: square"/>
   </g>
   <g id="line2d_32">
    <path d="M 50.32811 204.705211 
L 58.3593 208.635351 
L 66.39049 212.301826 
L 74.421681 215.722325 
L 82.452871 218.913349 
L 90.484061 221.890293 
L 98.515251 224.66752 
L 108.554239 227.878527 
L 118.593226 230.822556 
L 128.632214 233.521805 
L 138.671202 235.996625 
L 148.71019 238.265678 
L 160.756975 240.740914 
L 172.80376 242.971288 
L 184.850545 244.981022 
L 198.905128 247.075846 
L 212.959711 248.930951 
L 227.014294 250.57377 
L 243.076674 252.222368 
L 259.139054 253.657183 
L 277.209232 255.050188 
L 297.287208 256.362948 
L 319.372981 257.566664 
L 343.466551 258.64246 
L 369.567919 259.580844 
L 399.684882 260.430564 
L 433.81744 261.1606 
L 473.973391 261.784397 
L 522.160532 262.296439 
L 530.191722 262.362897 
L 530.191722 262.362897 
" clip-path="url(#p642259c273)" style="fill: none; stroke-dasharray: 5.55,2.4; stroke-dashoffset: 0; stroke: #ff7f0e; stroke-width: 1.5"/>
   </g>
   <g id="patch_3">
    <path d="M 48.320313 274.829207 
L 48.320313 22.08 
" style="fill: none; stroke: #000000; stroke-width: 0.8; stroke-linejoin: miter; stroke-linecap: square"/>
   </g>
   <g id="patch_4">
    <path d="M 48.320313 274.829207 
L 532.19952 274.829207 
" style="fill: none; stroke: #000000; stroke-width: 0.8; stroke-linejoin: miter; stroke-linecap: square"/>
   </g>
   <g id="text_22">
    <!-- Autocorrelation Function of Cloud Cover Data (Ghent, 2010-2020) -->
    <g transform="translate(112.567104 16.08) scale(0.12 -0.12)">
     <defs>
      <path id="IBMPlexSans-66" d="M 723 0 
L 1235 0 
L 1235 2854 
L 1946 2854 
L 1946 3302 
L 1235 3302 
L 1235 4288 
L 1946 4288 
L 1946 4736 
L 1446 4736 
C 960 4736 723 4422 723 3968 
L 723 3302 
L 186 3302 
L 186 2854 
L 723 2854 
L 723 0 
z
" transform="scale(0.015625)"/>
      <path id="IBMPlexSans-43" d="M 2170 -77 
C 2912 -77 3456 314 3738 941 
L 3309 1210 
C 3130 723 2739 403 2170 403 
C 1402 403 947 960 947 1875 
L 947 2541 
C 947 3456 1402 4064 2170 4064 
C 2720 4064 3091 3763 3270 3302 
L 3706 3565 
C 3424 4186 2912 4544 2170 4544 
C 1043 4544 371 3699 371 2208 
C 371 717 1043 -77 2170 -77 
z
" transform="scale(0.015625)"/>
      <path id="IBMPlexSans-64" d="M 2656 0 
L 3168 0 
L 3168 4736 
L 2656 4736 
L 2656 2765 
L 2630 2765 
C 2458 3181 2118 3379 1664 3379 
C 838 3379 320 2707 320 1651 
C 320 595 838 -77 1664 -77 
C 2118 -77 2432 128 2630 538 
L 2656 538 
L 2656 0 
z
M 1805 384 
C 1229 384 870 781 870 1370 
L 870 1933 
C 870 2522 1229 2918 1805 2918 
C 2272 2918 2656 2650 2656 2285 
L 2656 1056 
C 2656 627 2272 384 1805 384 
z
" transform="scale(0.015625)"/>
      <path id="IBMPlexSans-76" d="M 1869 0 
L 3034 3302 
L 2541 3302 
L 1952 1664 
L 1594 538 
L 1562 538 
L 1203 1664 
L 627 3302 
L 115 3302 
L 1274 0 
L 1869 0 
z
" transform="scale(0.015625)"/>
      <path id="IBMPlexSans-44" d="M 595 0 
L 2093 0 
C 3206 0 3923 742 3923 2234 
C 3923 3725 3206 4467 2093 4467 
L 595 4467 
L 595 0 
z
M 1133 474 
L 1133 3994 
L 2093 3994 
C 2829 3994 3347 3482 3347 2598 
L 3347 1869 
C 3347 986 2829 474 2093 474 
L 1133 474 
z
" transform="scale(0.015625)"/>
      <path id="IBMPlexSans-28" d="M 531 1997 
C 531 749 1056 -339 1690 -877 
L 2176 -877 
C 1485 -262 1011 819 1011 1715 
L 1011 2266 
C 1011 3162 1466 4224 2176 4864 
L 1690 4864 
C 1037 4307 531 3232 531 1997 
z
" transform="scale(0.015625)"/>
      <path id="IBMPlexSans-47" d="M 3488 0 
L 3987 0 
L 3987 2298 
L 2477 2298 
L 2477 1824 
L 3462 1824 
L 3462 1382 
C 3462 723 2944 403 2323 403 
C 1472 403 947 992 947 1875 
L 947 2598 
C 947 3482 1485 4064 2272 4064 
C 2835 4064 3251 3770 3456 3296 
L 3898 3565 
C 3610 4147 3072 4544 2272 4544 
C 1126 4544 371 3718 371 2234 
C 371 736 1133 -77 2227 -77 
C 2906 -77 3360 237 3469 653 
L 3488 653 
L 3488 0 
z
" transform="scale(0.015625)"/>
      <path id="IBMPlexSans-2c" d="M 870 749 
C 602 749 480 595 480 371 
L 480 282 
C 480 109 557 -19 730 -58 
C 659 -358 506 -582 250 -851 
L 678 -851 
C 1043 -538 1261 -64 1261 282 
L 1261 371 
C 1261 595 1139 749 870 749 
z
" transform="scale(0.015625)"/>
      <path id="IBMPlexSans-2d" d="M 2112 1670 
L 2112 2221 
L 442 2221 
L 442 1670 
L 2112 1670 
z
" transform="scale(0.015625)"/>
      <path id="IBMPlexSans-29" d="M 1613 1997 
C 1613 3232 1107 4307 454 4864 
L -32 4864 
C 678 4224 1133 3162 1133 2266 
L 1133 1715 
C 1133 819 659 -262 -32 -877 
L 454 -877 
C 1088 -339 1613 749 1613 1997 
z
" transform="scale(0.015625)"/>
     </defs>
     <use xlink:href="#IBMPlexSans-41"/>
     <use xlink:href="#IBMPlexSans-75" transform="translate(64.099991 0)"/>
     <use xlink:href="#IBMPlexSans-74" transform="translate(120.899979 0)"/>
     <use xlink:href="#IBMPlexSans-6f" transform="translate(155.999969 0)"/>
     <use xlink:href="#IBMPlexSans-63" transform="translate(211.999954 0)"/>
     <use xlink:href="#IBMPlexSans-6f" transform="translate(262.299942 0)"/>
     <use xlink:href="#IBMPlexSans-72" transform="translate(318.299927 0)"/>
     <use xlink:href="#IBMPlexSans-72" transform="translate(354.999924 0)"/>
     <use xlink:href="#IBMPlexSans-65" transform="translate(391.699921 0)"/>
     <use xlink:href="#IBMPlexSans-6c" transform="translate(446.599915 0)"/>
     <use xlink:href="#IBMPlexSans-61" transform="translate(473.799911 0)"/>
     <use xlink:href="#IBMPlexSans-74" transform="translate(527.199905 0)"/>
     <use xlink:href="#IBMPlexSans-69" transform="translate(562.299896 0)"/>
     <use xlink:href="#IBMPlexSans-6f" transform="translate(587.299881 0)"/>
     <use xlink:href="#IBMPlexSans-6e" transform="translate(643.299866 0)"/>
     <use xlink:href="#IBMPlexSans-20" transform="translate(700.099854 0)"/>
     <use xlink:href="#IBMPlexSans-46" transform="translate(723.699844 0)"/>
     <use xlink:href="#IBMPlexSans-75" transform="translate(779.599838 0)"/>
     <use xlink:href="#IBMPlexSans-6e" transform="translate(836.399826 0)"/>
     <use xlink:href="#IBMPlexSans-63" transform="translate(893.199814 0)"/>
     <use xlink:href="#IBMPlexSans-74" transform="translate(943.499802 0)"/>
     <use xlink:href="#IBMPlexSans-69" transform="translate(978.599792 0)"/>
     <use xlink:href="#IBMPlexSans-6f" transform="translate(1003.599777 0)"/>
     <use xlink:href="#IBMPlexSans-6e" transform="translate(1059.599762 0)"/>
     <use xlink:href="#IBMPlexSans-20" transform="translate(1116.39975 0)"/>
     <use xlink:href="#IBMPlexSans-6f" transform="translate(1139.999741 0)"/>
     <use xlink:href="#IBMPlexSans-66" transform="translate(1195.999725 0)"/>
     <use xlink:href="#IBMPlexSans-20" transform="translate(1228.399719 0)"/>
     <use xlink:href="#IBMPlexSans-43" transform="translate(1251.99971 0)"/>
     <use xlink:href="#IBMPlexSans-6c" transform="translate(1314.099701 0)"/>
     <use xlink:href="#IBMPlexSans-6f" transform="translate(1341.299698 0)"/>
     <use xlink:href="#IBMPlexSans-75" transform="translate(1397.299683 0)"/>
     <use xlink:href="#IBMPlexSans-64" transform="translate(1454.09967 0)"/>
     <use xlink:href="#IBMPlexSans-20" transform="translate(1512.099655 0)"/>
     <use xlink:href="#IBMPlexSans-43" transform="translate(1535.699646 0)"/>
     <use xlink:href="#IBMPlexSans-6f" transform="translate(1597.799637 0)"/>
     <use xlink:href="#IBMPlexSans-76" transform="translate(1653.799622 0)"/>
     <use xlink:href="#IBMPlexSans-65" transform="translate(1702.999619 0)"/>
     <use xlink:href="#IBMPlexSans-72" transform="translate(1757.899612 0)"/>
     <use xlink:href="#IBMPlexSans-20" transform="translate(1794.599609 0)"/>
     <use xlink:href="#IBMPlexSans-44" transform="translate(1818.1996 0)"/>
     <use xlink:href="#IBMPlexSans-61" transform="translate(1885.299591 0)"/>
     <use xlink:href="#IBMPlexSans-74" transform="translate(1938.699585 0)"/>
     <use xlink:href="#IBMPlexSans-61" transform="translate(1973.799576 0)"/>
     <use xlink:href="#IBMPlexSans-20" transform="translate(2027.19957 0)"/>
     <use xlink:href="#IBMPlexSans-28" transform="translate(2050.799561 0)"/>
     <use xlink:href="#IBMPlexSans-47" transform="translate(2084.299545 0)"/>
     <use xlink:href="#IBMPlexSans-68" transform="translate(2153.79953 0)"/>
     <use xlink:href="#IBMPlexSans-65" transform="translate(2210.599518 0)"/>
     <use xlink:href="#IBMPlexSans-6e" transform="translate(2265.499512 0)"/>
     <use xlink:href="#IBMPlexSans-74" transform="translate(2322.2995 0)"/>
     <use xlink:href="#IBMPlexSans-2c" transform="translate(2357.39949 0)"/>
     <use xlink:href="#IBMPlexSans-20" transform="translate(2384.599487 0)"/>
     <use xlink:href="#IBMPlexSans-32" transform="translate(2408.199478 0)"/>
     <use xlink:href="#IBMPlexSans-30" transform="translate(2468.199463 0)"/>
     <use xlink:href="#IBMPlexSans-31" transform="translate(2528.199448 0)"/>
     <use xlink:href="#IBMPlexSans-30" transform="translate(2588.199432 0)"/>
     <use xlink:href="#IBMPlexSans-2d" transform="translate(2648.199417 0)"/>
     <use xlink:href="#IBMPlexSans-32" transform="translate(2688.099411 0)"/>
     <use xlink:href="#IBMPlexSans-30" transform="translate(2748.099396 0)"/>
     <use xlink:href="#IBMPlexSans-32" transform="translate(2808.09938 0)"/>
     <use xlink:href="#IBMPlexSans-30" transform="translate(2868.099365 0)"/>
     <use xlink:href="#IBMPlexSans-29" transform="translate(2928.09935 0)"/>
    </g>
   </g>
  </g>
 </g>
 <defs>
  <clipPath id="p642259c273">
   <rect x="48.320313" y="22.08" width="483.879207" height="252.749208"/>
  </clipPath>
 </defs>
</svg>