<?xml version="1.0" encoding="utf-8" standalone="no"?>
<!DOCTYPE svg PUBLIC "-//W3C//DTD SVG 1.1//EN"
  "http://www.w3.org/Graphics/SVG/1.1/DTD/svg11.dtd">
<svg xmlns:xlink="http://www.w3.org/1999/xlink" width="548.39952pt" height="312.14952pt" viewBox="0 0 548.39952 312.14952" xmlns="http://www.w3.org/2000/svg" version="1.1">
 <metadata>
  <rdf:RDF xmlns:dc="http://purl.org/dc/elements/1.1/" xmlns:cc="http://creativecommons.org/ns#" xmlns:rdf="http://www.w3.org/1999/02/22-rdf-syntax-ns#">
   <cc:Work>
    <dc:type rdf:resource="http://purl.org/dc/dcmitype/StillImage"/>
    <dc:date>2026-01-27T08:26:34.523004</dc:date>
    <dc:format>image/svg+xml</dc:format>
    <dc:creator>
     <cc:Agent>
      <dc:title>Matplotlib v3.10.7, https://matplotlib.org/</dc:title>
     </cc:Agent>
    </dc:creator>
   </cc:Work>
  </rdf:RDF>
 </metadata>
 <defs>
  <style type="text/css">*{stroke-linejoin: round; stroke-linecap: butt}</style>
 </defs>
 <g id="figure_1">
  <g id="patch_1">
   <path d="M 0 312.14952 
L 548.39952 312.14952 
L 548.39952 0 
L 0 0 
z
" style="fill: #ffffff"/>
  </g>
  <g id="axes_1">
   <g id="patch_2">
    <path d="M 42.520313 274.94952 
L 505.958895 274.94952 
L 505.958895 36.576 
L 42.520313 36.576 
z
" style="fill: #ffffff"/>
   </g>
   <g id="FillBetweenPolyCollection_1">
    <defs>
     <path id="m48fb8f17ff" d="M 47.063828 -255.792028 
L 47.063828 -181.060715 
L 48.343692 -191.419105 
L 49.623555 -191.388633 
L 50.903419 -191.337875 
L 52.183282 -191.266873 
L 53.463146 -191.175686 
L 54.743009 -191.064391 
L 56.022873 -190.933079 
L 57.302736 -190.781859 
L 58.5826 -190.610858 
L 59.862463 -190.420215 
L 61.142327 -190.210086 
L 62.42219 -189.980645 
L 63.702054 -189.732076 
L 64.981917 -189.464582 
L 66.261781 -189.178378 
L 67.541644 -188.873693 
L 68.821508 -188.550769 
L 70.101371 -188.209862 
L 71.381235 -187.851238 
L 72.661099 -187.475178 
L 73.940962 -187.081972 
L 75.220826 -186.67192 
L 76.500689 -186.245335 
L 77.780553 -185.802538 
L 79.060416 -185.343859 
L 80.34028 -184.869636 
L 81.620143 -184.380215 
L 82.900007 -183.875952 
L 84.17987 -183.357206 
L 85.459734 -182.824344 
L 86.739597 -182.277737 
L 88.019461 -181.717764 
L 89.299324 -181.144805 
L 90.579188 -180.559245 
L 91.859051 -179.961473 
L 93.138915 -179.35188 
L 94.418778 -178.730858 
L 95.698642 -178.098802 
L 96.978506 -177.456108 
L 98.258369 -176.803172 
L 99.538233 -176.140389 
L 100.818096 -175.468154 
L 102.09796 -174.786863 
L 103.377823 -174.096908 
L 104.657687 -173.39868 
L 105.93755 -172.692567 
L 107.217414 -171.978957 
L 108.497277 -171.258231 
L 109.777141 -170.530768 
L 111.057004 -169.796945 
L 112.336868 -169.057132 
L 113.616731 -168.311697 
L 114.896595 -167.561001 
L 116.176458 -166.805402 
L 117.456322 -166.04525 
L 118.736185 -165.280892 
L 120.016049 -164.512668 
L 121.295912 -163.740913 
L 122.575776 -162.965954 
L 123.85564 -162.188113 
L 125.135503 -161.407706 
L 126.415367 -160.625042 
L 127.69523 -159.840421 
L 128.975094 -159.054139 
L 130.254957 -158.266485 
L 131.534821 -157.477739 
L 132.814684 -156.688175 
L 134.094548 -155.898061 
L 135.374411 -155.107656 
L 136.654275 -154.317212 
L 137.934138 -153.526976 
L 139.214002 -152.737185 
L 140.493865 -151.948071 
L 141.773729 -151.159858 
L 143.053592 -150.372761 
L 144.333456 -149.586993 
L 145.613319 -148.802755 
L 146.893183 -148.020242 
L 148.173047 -147.239646 
L 149.45291 -146.461146 
L 150.732774 -145.68492 
L 152.012637 -144.911136 
L 153.292501 -144.139957 
L 154.572364 -143.371538 
L 155.852228 -142.606029 
L 157.132091 -141.843573 
L 158.411955 -141.084309 
L 159.691818 -140.328366 
L 160.971682 -139.57587 
L 162.251545 -138.826942 
L 163.531409 -138.081694 
L 164.811272 -137.340236 
L 166.091136 -136.60267 
L 167.370999 -135.869094 
L 168.650863 -135.139601 
L 169.930726 -134.414277 
L 171.21059 -133.693207 
L 172.490453 -132.976467 
L 173.770317 -132.264131 
L 175.050181 -131.556267 
L 176.330044 -130.852939 
L 177.609908 -130.154209 
L 178.889771 -129.46013 
L 180.169635 -128.770756 
L 181.449498 -128.086134 
L 182.729362 -127.406309 
L 184.009225 -126.73132 
L 185.289089 -126.061204 
L 186.568952 -125.395995 
L 187.848816 -124.735724 
L 189.128679 -124.080416 
L 190.408543 -123.430097 
L 191.688406 -122.784786 
L 192.96827 -122.144502 
L 194.248133 -121.509259 
L 195.527997 -120.879071 
L 196.80786 -120.253947 
L 198.087724 -119.633895 
L 199.367588 -119.01892 
L 200.647451 -118.409024 
L 201.927315 -117.804208 
L 203.207178 -117.204472 
L 204.487042 -116.60981 
L 205.766905 -116.020218 
L 207.046769 -115.435688 
L 208.326632 -114.856212 
L 209.606496 -114.281778 
L 210.886359 -113.712375 
L 212.166223 -113.147987 
L 213.446086 -112.588601 
L 214.72595 -112.034198 
L 216.005813 -111.484761 
L 217.285677 -110.940271 
L 218.56554 -110.400707 
L 219.845404 -109.866047 
L 221.125267 -109.336268 
L 222.405131 -108.811346 
L 223.684995 -108.291258 
L 224.964858 -107.775976 
L 226.244722 -107.265474 
L 227.524585 -106.759726 
L 228.804449 -106.258702 
L 230.084312 -105.762374 
L 231.364176 -105.270712 
L 232.644039 -104.783686 
L 233.923903 -104.301266 
L 235.203766 -103.823419 
L 236.48363 -103.350115 
L 237.763493 -102.881321 
L 239.043357 -102.417004 
L 239.043357 -138.204598 
L 239.043357 -138.204598 
L 237.763493 -138.75793 
L 236.48363 -139.316598 
L 235.203766 -139.88064 
L 233.923903 -140.450095 
L 232.644039 -141.025001 
L 231.364176 -141.605395 
L 230.084312 -142.191314 
L 228.804449 -142.782794 
L 227.524585 -143.37987 
L 226.244722 -143.982577 
L 224.964858 -144.590947 
L 223.684995 -145.205015 
L 222.405131 -145.82481 
L 221.125267 -146.450365 
L 219.845404 -147.081709 
L 218.56554 -147.71887 
L 217.285677 -148.361875 
L 216.005813 -149.01075 
L 214.72595 -149.66552 
L 213.446086 -150.326208 
L 212.166223 -150.992836 
L 210.886359 -151.665423 
L 209.606496 -152.343988 
L 208.326632 -153.028547 
L 207.046769 -153.719116 
L 205.766905 -154.415707 
L 204.487042 -155.11833 
L 203.207178 -155.826996 
L 201.927315 -156.541709 
L 200.647451 -157.262475 
L 199.367588 -157.989295 
L 198.087724 -158.722168 
L 196.80786 -159.461091 
L 195.527997 -160.206059 
L 194.248133 -160.957061 
L 192.96827 -161.714087 
L 191.688406 -162.477121 
L 190.408543 -163.246146 
L 189.128679 -164.021139 
L 187.848816 -164.802077 
L 186.568952 -165.58893 
L 185.289089 -166.381667 
L 184.009225 -167.180251 
L 182.729362 -167.984644 
L 181.449498 -168.7948 
L 180.169635 -169.610672 
L 178.889771 -170.432207 
L 177.609908 -171.259348 
L 176.330044 -172.092034 
L 175.050181 -172.930197 
L 173.770317 -173.773767 
L 172.490453 -174.622666 
L 171.21059 -175.476814 
L 169.930726 -176.336122 
L 168.650863 -177.200498 
L 167.370999 -178.069844 
L 166.091136 -178.944055 
L 164.811272 -179.823021 
L 163.531409 -180.706625 
L 162.251545 -181.594745 
L 160.971682 -182.487252 
L 159.691818 -183.38401 
L 158.411955 -184.284876 
L 157.132091 -185.1897 
L 155.852228 -186.098328 
L 154.572364 -187.010594 
L 153.292501 -187.926328 
L 152.012637 -188.845351 
L 150.732774 -189.767479 
L 149.45291 -190.692516 
L 148.173047 -191.620263 
L 146.893183 -192.550509 
L 145.613319 -193.483038 
L 144.333456 -194.417624 
L 143.053592 -195.354033 
L 141.773729 -196.292025 
L 140.493865 -197.231348 
L 139.214002 -198.171745 
L 137.934138 -199.112948 
L 136.654275 -200.054682 
L 135.374411 -200.996662 
L 134.094548 -201.938597 
L 132.814684 -202.880186 
L 131.534821 -203.821118 
L 130.254957 -204.761076 
L 128.975094 -205.699733 
L 127.69523 -206.636754 
L 126.415367 -207.571795 
L 125.135503 -208.504506 
L 123.85564 -209.434526 
L 122.575776 -210.361488 
L 121.295912 -211.285015 
L 120.016049 -212.204725 
L 118.736185 -213.120226 
L 117.456322 -214.03112 
L 116.176458 -214.937002 
L 114.896595 -215.837459 
L 113.616731 -216.732072 
L 112.336868 -217.620416 
L 111.057004 -218.50206 
L 109.777141 -219.376565 
L 108.497277 -220.243491 
L 107.217414 -221.102388 
L 105.93755 -221.952807 
L 104.657687 -222.794289 
L 103.377823 -223.626375 
L 102.09796 -224.448603 
L 100.818096 -225.260506 
L 99.538233 -226.061615 
L 98.258369 -226.851462 
L 96.978506 -227.629574 
L 95.698642 -228.39548 
L 94.418778 -229.148708 
L 93.138915 -229.888787 
L 91.859051 -230.615246 
L 90.579188 -231.327618 
L 89.299324 -232.025436 
L 88.019461 -232.708238 
L 86.739597 -233.375565 
L 85.459734 -234.026962 
L 84.17987 -234.661981 
L 82.900007 -235.280176 
L 81.620143 -235.881113 
L 80.34028 -236.464361 
L 79.060416 -237.029498 
L 77.780553 -237.576111 
L 76.500689 -238.103798 
L 75.220826 -238.612164 
L 73.940962 -239.100827 
L 72.661099 -239.569416 
L 71.381235 -240.017572 
L 70.101371 -240.444947 
L 68.821508 -240.851211 
L 67.541644 -241.236043 
L 66.261781 -241.59914 
L 64.981917 -241.940212 
L 63.702054 -242.258988 
L 62.42219 -242.55521 
L 61.142327 -242.828638 
L 59.862463 -243.07905 
L 58.5826 -243.306242 
L 57.302736 -243.510027 
L 56.022873 -243.690237 
L 54.743009 -243.846722 
L 53.463146 -243.979355 
L 52.183282 -244.088023 
L 50.903419 -244.172637 
L 49.623555 -244.233126 
L 48.343692 -244.26944 
L 47.063828 -255.792028 
z
"/>
    </defs>
    <g clip-path="url(#pd92d4c8de7)">
     <use xlink:href="#m48fb8f17ff" x="0" y="312.14952" style="fill: #2ca02c; fill-opacity: 0.3"/>
    </g>
   </g>
   <g id="matplotlib.axis_1">
    <g id="xtick_1">
     <g id="line2d_1">
      <defs>
       <path id="m19a828b0d1" d="M 0 0 
L 0 3.5 
" style="stroke: #000000; stroke-width: 0.8"/>
      </defs>
      <g>
       <use xlink:href="#m19a828b0d1" x="47.063828" y="274.94952" style="stroke: #000000; stroke-width: 0.8"/>
      </g>
     </g>
     <g id="text_1">
      <!-- 0.0 -->
      <g transform="translate(39.703672 289.34952) scale(0.1 -0.1)">
       <defs>
        <path id="IBMPlexSans-30" d="M 1920 -77 
C 2989 -77 3456 774 3456 2234 
C 3456 3693 2989 4544 1920 4544 
C 851 4544 384 3693 384 2234 
C 384 774 851 -77 1920 -77 
z
M 1920 390 
C 1222 390 947 1005 947 1869 
L 947 2598 
C 947 3462 1222 4077 1920 4077 
C 2618 4077 2893 3462 2893 2598 
L 2893 1869 
C 2893 1005 2618 390 1920 390 
z
" transform="scale(0.015625)"/>
        <path id="IBMPlexSans-2e" d="M 870 -77 
C 1139 -77 1261 77 1261 294 
L 1261 378 
C 1261 595 1139 749 870 749 
C 602 749 480 595 480 378 
L 480 294 
C 480 77 602 -77 870 -77 
z
" transform="scale(0.015625)"/>
       </defs>
       <use xlink:href="#IBMPlexSans-30"/>
       <use xlink:href="#IBMPlexSans-2e" transform="translate(59.999985 0)"/>
       <use xlink:href="#IBMPlexSans-30" transform="translate(87.199982 0)"/>
      </g>
     </g>
    </g>
    <g id="xtick_2">
     <g id="line2d_2">
      <g>
       <use xlink:href="#m19a828b0d1" x="123.85564" y="274.94952" style="stroke: #000000; stroke-width: 0.8"/>
      </g>
     </g>
     <g id="text_2">
      <!-- 0.2 -->
      <g transform="translate(116.495483 289.34952) scale(0.1 -0.1)">
       <defs>
        <path id="IBMPlexSans-32" d="M 3411 474 
L 1062 474 
L 2266 1555 
C 2835 2067 3245 2554 3245 3245 
C 3245 4006 2746 4544 1875 4544 
C 1011 4544 614 4019 442 3494 
L 922 3309 
C 1043 3731 1299 4064 1850 4064 
C 2400 4064 2675 3725 2675 3232 
L 2675 3155 
C 2675 2726 2355 2278 1939 1894 
L 480 550 
L 480 0 
L 3411 0 
L 3411 474 
z
" transform="scale(0.015625)"/>
       </defs>
       <use xlink:href="#IBMPlexSans-30"/>
       <use xlink:href="#IBMPlexSans-2e" transform="translate(59.999985 0)"/>
       <use xlink:href="#IBMPlexSans-32" transform="translate(87.199982 0)"/>
      </g>
     </g>
    </g>
    <g id="xtick_3">
     <g id="line2d_3">
      <g>
       <use xlink:href="#m19a828b0d1" x="200.647451" y="274.94952" style="stroke: #000000; stroke-width: 0.8"/>
      </g>
     </g>
     <g id="text_3">
      <!-- 0.4 -->
      <g transform="translate(193.287295 289.34952) scale(0.1 -0.1)">
       <defs>
        <path id="IBMPlexSans-34" d="M 2912 0 
L 2912 877 
L 3558 877 
L 3558 1325 
L 2912 1325 
L 2912 4467 
L 2112 4467 
L 243 1350 
L 243 877 
L 2400 877 
L 2400 0 
L 2912 0 
z
M 2368 4051 
L 2400 4051 
L 2400 1325 
L 749 1325 
L 2368 4051 
z
" transform="scale(0.015625)"/>
       </defs>
       <use xlink:href="#IBMPlexSans-30"/>
       <use xlink:href="#IBMPlexSans-2e" transform="translate(59.999985 0)"/>
       <use xlink:href="#IBMPlexSans-34" transform="translate(87.199982 0)"/>
      </g>
     </g>
    </g>
    <g id="xtick_4">
     <g id="line2d_4">
      <g>
       <use xlink:href="#m19a828b0d1" x="277.439263" y="274.94952" style="stroke: #000000; stroke-width: 0.8"/>
      </g>
     </g>
     <g id="text_4">
      <!-- 0.6 -->
      <g transform="translate(270.079106 289.34952) scale(0.1 -0.1)">
       <defs>
        <path id="IBMPlexSans-36" d="M 1926 -77 
C 2822 -77 3411 525 3411 1402 
C 3411 2246 2861 2778 2093 2778 
C 1549 2778 1229 2502 1018 2138 
L 986 2150 
C 1229 3187 1760 3770 2714 4467 
L 2022 4467 
C 1306 4000 429 2963 429 1638 
C 429 576 998 -77 1926 -77 
z
M 1920 390 
C 1331 390 986 730 986 1331 
L 986 1382 
C 986 1984 1331 2323 1920 2323 
C 2509 2323 2854 1984 2854 1382 
L 2854 1331 
C 2854 730 2509 390 1920 390 
z
" transform="scale(0.015625)"/>
       </defs>
       <use xlink:href="#IBMPlexSans-30"/>
       <use xlink:href="#IBMPlexSans-2e" transform="translate(59.999985 0)"/>
       <use xlink:href="#IBMPlexSans-36" transform="translate(87.199982 0)"/>
      </g>
     </g>
    </g>
    <g id="xtick_5">
     <g id="line2d_5">
      <g>
       <use xlink:href="#m19a828b0d1" x="354.231074" y="274.94952" style="stroke: #000000; stroke-width: 0.8"/>
      </g>
     </g>
     <g id="text_5">
      <!-- 0.8 -->
      <g transform="translate(346.870918 289.34952) scale(0.1 -0.1)">
       <defs>
        <path id="IBMPlexSans-38" d="M 1920 -77 
C 2938 -77 3469 480 3469 1216 
C 3469 1824 3104 2176 2566 2323 
L 2566 2374 
C 3034 2534 3334 2912 3334 3424 
C 3334 4102 2810 4544 1920 4544 
C 1030 4544 506 4102 506 3424 
C 506 2912 806 2534 1274 2374 
L 1274 2323 
C 736 2176 371 1824 371 1216 
C 371 480 902 -77 1920 -77 
z
M 1920 390 
C 1299 390 941 685 941 1190 
L 941 1325 
C 941 1830 1299 2125 1920 2125 
C 2541 2125 2899 1830 2899 1325 
L 2899 1190 
C 2899 685 2541 390 1920 390 
z
M 1920 2573 
C 1363 2573 1062 2822 1062 3277 
L 1062 3373 
C 1062 3827 1363 4077 1920 4077 
C 2477 4077 2778 3827 2778 3373 
L 2778 3277 
C 2778 2822 2477 2573 1920 2573 
z
" transform="scale(0.015625)"/>
       </defs>
       <use xlink:href="#IBMPlexSans-30"/>
       <use xlink:href="#IBMPlexSans-2e" transform="translate(59.999985 0)"/>
       <use xlink:href="#IBMPlexSans-38" transform="translate(87.199982 0)"/>
      </g>
     </g>
    </g>
    <g id="xtick_6">
     <g id="line2d_6">
      <g>
       <use xlink:href="#m19a828b0d1" x="431.022886" y="274.94952" style="stroke: #000000; stroke-width: 0.8"/>
      </g>
     </g>
     <g id="text_6">
      <!-- 1.0 -->
      <g transform="translate(423.662729 289.34952) scale(0.1 -0.1)">
       <defs>
        <path id="IBMPlexSans-31" d="M 3501 0 
L 3501 474 
L 2349 474 
L 2349 4467 
L 1510 4467 
L 326 3360 
L 640 3021 
L 1766 4070 
L 1811 4070 
L 1811 474 
L 563 474 
L 563 0 
L 3501 0 
z
" transform="scale(0.015625)"/>
       </defs>
       <use xlink:href="#IBMPlexSans-31"/>
       <use xlink:href="#IBMPlexSans-2e" transform="translate(59.999985 0)"/>
       <use xlink:href="#IBMPlexSans-30" transform="translate(87.199982 0)"/>
      </g>
     </g>
    </g>
    <g id="text_7">
     <!-- Frequency [1/τ*] -->
     <g transform="translate(236.628666 302.94952) scale(0.1 -0.1)">
      <defs>
       <path id="IBMPlexSans-46" d="M 1133 0 
L 1133 2022 
L 3072 2022 
L 3072 2496 
L 1133 2496 
L 1133 3994 
L 3258 3994 
L 3258 4467 
L 595 4467 
L 595 0 
L 1133 0 
z
" transform="scale(0.015625)"/>
       <path id="IBMPlexSans-72" d="M 1056 0 
L 1056 2240 
C 1056 2554 1389 2790 1939 2790 
L 2240 2790 
L 2240 3302 
L 2042 3302 
C 1504 3302 1203 3008 1088 2694 
L 1056 2694 
L 1056 3302 
L 544 3302 
L 544 0 
L 1056 0 
z
" transform="scale(0.015625)"/>
       <path id="IBMPlexSans-65" d="M 1786 -77 
C 2406 -77 2880 230 3091 678 
L 2726 941 
C 2554 576 2234 371 1818 371 
C 1203 371 838 800 838 1370 
L 838 1523 
L 3213 1523 
L 3213 1766 
C 3213 2701 2669 3379 1786 3379 
C 890 3379 301 2701 301 1651 
C 301 602 890 -77 1786 -77 
z
M 1786 2950 
C 2310 2950 2662 2560 2662 1978 
L 2662 1907 
L 838 1907 
L 838 1952 
C 838 2528 1229 2950 1786 2950 
z
" transform="scale(0.015625)"/>
       <path id="IBMPlexSans-71" d="M 2656 -1280 
L 3168 -1280 
L 3168 3302 
L 2656 3302 
L 2656 2765 
L 2630 2765 
C 2458 3181 2118 3379 1664 3379 
C 838 3379 320 2707 320 1651 
C 320 595 838 -77 1664 -77 
C 2118 -77 2432 128 2630 538 
L 2656 538 
L 2656 -1280 
z
M 1805 384 
C 1229 384 870 781 870 1370 
L 870 1933 
C 870 2522 1229 2918 1805 2918 
C 2272 2918 2656 2650 2656 2285 
L 2656 1056 
C 2656 627 2272 384 1805 384 
z
" transform="scale(0.015625)"/>
       <path id="IBMPlexSans-75" d="M 2579 0 
L 3091 0 
L 3091 3302 
L 2579 3302 
L 2579 1018 
C 2579 582 2182 384 1779 384 
C 1286 384 1024 685 1024 1274 
L 1024 3302 
L 512 3302 
L 512 1184 
C 512 384 947 -77 1626 -77 
C 2176 -77 2426 224 2554 538 
L 2579 538 
L 2579 0 
z
" transform="scale(0.015625)"/>
       <path id="IBMPlexSans-6e" d="M 1056 0 
L 1056 2291 
C 1056 2714 1453 2918 1862 2918 
C 2355 2918 2611 2618 2611 2029 
L 2611 0 
L 3123 0 
L 3123 2118 
C 3123 2918 2694 3379 2016 3379 
C 1523 3379 1242 3136 1082 2765 
L 1056 2765 
L 1056 3302 
L 544 3302 
L 544 0 
L 1056 0 
z
" transform="scale(0.015625)"/>
       <path id="IBMPlexSans-63" d="M 1773 -77 
C 2400 -77 2829 230 3040 704 
L 2669 954 
C 2490 576 2189 378 1773 378 
C 1165 378 851 794 851 1370 
L 851 1933 
C 851 2509 1165 2925 1773 2925 
C 2176 2925 2458 2726 2579 2387 
L 3008 2605 
C 2816 3059 2426 3379 1773 3379 
C 845 3379 301 2707 301 1651 
C 301 595 845 -77 1773 -77 
z
" transform="scale(0.015625)"/>
       <path id="IBMPlexSans-79" d="M 1779 1056 
L 1600 518 
L 1568 518 
L 1414 1056 
L 621 3302 
L 109 3302 
L 1344 -128 
L 1094 -832 
L 576 -832 
L 576 -1280 
L 838 -1280 
C 1325 -1280 1459 -1165 1606 -768 
L 3085 3302 
L 2579 3302 
L 1779 1056 
z
" transform="scale(0.015625)"/>
       <path id="IBMPlexSans-20" transform="scale(0.015625)"/>
       <path id="IBMPlexSans-5b" d="M 1645 -883 
L 1645 -480 
L 1037 -480 
L 1037 4461 
L 1645 4461 
L 1645 4864 
L 595 4864 
L 595 -883 
L 1645 -883 
z
" transform="scale(0.015625)"/>
       <path id="IBMPlexSans-2f" d="M 518 -966 
L 2189 4736 
L 1728 4736 
L 58 -966 
L 518 -966 
z
" transform="scale(0.015625)"/>
       <path id="IBMPlexSans-3c4" d="M 2451 0 
L 2451 448 
L 1715 448 
L 1715 2854 
L 2848 2854 
L 2848 3302 
L 128 3302 
L 128 2854 
L 1203 2854 
L 1203 544 
C 1203 224 1395 0 1747 0 
L 2451 0 
z
" transform="scale(0.015625)"/>
       <path id="IBMPlexSans-2a" d="M 1440 3270 
L 1965 2483 
L 2323 2746 
L 1741 3488 
L 2650 3738 
L 2509 4166 
L 1626 3840 
L 1664 4781 
L 1216 4781 
L 1254 3840 
L 371 4166 
L 230 3738 
L 1139 3488 
L 557 2746 
L 915 2483 
L 1440 3270 
z
" transform="scale(0.015625)"/>
       <path id="IBMPlexSans-5d" d="M 384 4864 
L 384 4461 
L 992 4461 
L 992 -480 
L 384 -480 
L 384 -883 
L 1434 -883 
L 1434 4864 
L 384 4864 
z
" transform="scale(0.015625)"/>
      </defs>
      <use xlink:href="#IBMPlexSans-46"/>
      <use xlink:href="#IBMPlexSans-72" transform="translate(55.899994 0)"/>
      <use xlink:href="#IBMPlexSans-65" transform="translate(92.599991 0)"/>
      <use xlink:href="#IBMPlexSans-71" transform="translate(147.499985 0)"/>
      <use xlink:href="#IBMPlexSans-75" transform="translate(205.499969 0)"/>
      <use xlink:href="#IBMPlexSans-65" transform="translate(262.299957 0)"/>
      <use xlink:href="#IBMPlexSans-6e" transform="translate(317.199951 0)"/>
      <use xlink:href="#IBMPlexSans-63" transform="translate(373.999939 0)"/>
      <use xlink:href="#IBMPlexSans-79" transform="translate(424.299927 0)"/>
      <use xlink:href="#IBMPlexSans-20" transform="translate(474.199921 0)"/>
      <use xlink:href="#IBMPlexSans-5b" transform="translate(497.799911 0)"/>
      <use xlink:href="#IBMPlexSans-31" transform="translate(529.499908 0)"/>
      <use xlink:href="#IBMPlexSans-2f" transform="translate(589.499893 0)"/>
      <use xlink:href="#IBMPlexSans-3c4" transform="translate(627.799881 0)"/>
      <use xlink:href="#IBMPlexSans-2a" transform="translate(675.499878 0)"/>
      <use xlink:href="#IBMPlexSans-5d" transform="translate(720.499863 0)"/>
     </g>
    </g>
   </g>
   <g id="matplotlib.axis_2">
    <g id="ytick_1">
     <g id="line2d_7">
      <defs>
       <path id="m3d9d96dca6" d="M 0 0 
L -3.5 0 
" style="stroke: #000000; stroke-width: 0.8"/>
      </defs>
      <g>
       <use xlink:href="#m3d9d96dca6" x="42.520313" y="256.773985" style="stroke: #000000; stroke-width: 0.8"/>
      </g>
     </g>
     <g id="text_8">
      <!-- 1.5 -->
      <g transform="translate(20.8 260.473985) scale(0.1 -0.1)">
       <defs>
        <path id="IBMPlexSans-35" d="M 3187 4467 
L 794 4467 
L 634 2010 
L 1088 1946 
C 1274 2150 1478 2323 1888 2323 
C 2496 2323 2822 1984 2822 1395 
L 2822 1331 
C 2822 742 2496 403 1888 403 
C 1350 403 1126 640 896 992 
L 493 685 
C 762 301 1146 -77 1888 -77 
C 2829 -77 3392 531 3392 1402 
C 3392 2266 2829 2784 2061 2784 
C 1594 2784 1357 2592 1146 2291 
L 1101 2291 
L 1229 3994 
L 3187 3994 
L 3187 4467 
z
" transform="scale(0.015625)"/>
       </defs>
       <use xlink:href="#IBMPlexSans-31"/>
       <use xlink:href="#IBMPlexSans-2e" transform="translate(59.999985 0)"/>
       <use xlink:href="#IBMPlexSans-35" transform="translate(87.199982 0)"/>
      </g>
     </g>
    </g>
    <g id="ytick_2">
     <g id="line2d_8">
      <g>
       <use xlink:href="#m3d9d96dca6" x="42.520313" y="210.229789" style="stroke: #000000; stroke-width: 0.8"/>
      </g>
     </g>
     <g id="text_9">
      <!-- 2.0 -->
      <g transform="translate(20.8 213.929789) scale(0.1 -0.1)">
       <use xlink:href="#IBMPlexSans-32"/>
       <use xlink:href="#IBMPlexSans-2e" transform="translate(59.999985 0)"/>
       <use xlink:href="#IBMPlexSans-30" transform="translate(87.199982 0)"/>
      </g>
     </g>
    </g>
    <g id="ytick_3">
     <g id="line2d_9">
      <g>
       <use xlink:href="#m3d9d96dca6" x="42.520313" y="163.685593" style="stroke: #000000; stroke-width: 0.8"/>
      </g>
     </g>
     <g id="text_10">
      <!-- 2.5 -->
      <g transform="translate(20.8 167.385593) scale(0.1 -0.1)">
       <use xlink:href="#IBMPlexSans-32"/>
       <use xlink:href="#IBMPlexSans-2e" transform="translate(59.999985 0)"/>
       <use xlink:href="#IBMPlexSans-35" transform="translate(87.199982 0)"/>
      </g>
     </g>
    </g>
    <g id="ytick_4">
     <g id="line2d_10">
      <g>
       <use xlink:href="#m3d9d96dca6" x="42.520313" y="117.141397" style="stroke: #000000; stroke-width: 0.8"/>
      </g>
     </g>
     <g id="text_11">
      <!-- 3.0 -->
      <g transform="translate(20.8 120.841397) scale(0.1 -0.1)">
       <defs>
        <path id="IBMPlexSans-33" d="M 1184 2573 
L 1184 2106 
L 1709 2106 
C 2336 2106 2669 1805 2669 1280 
L 2669 1229 
C 2669 704 2336 403 1709 403 
C 1165 403 902 640 672 992 
L 269 685 
C 544 301 941 -77 1715 -77 
C 2624 -77 3232 454 3232 1222 
C 3232 1894 2771 2253 2291 2349 
L 2291 2374 
C 2765 2496 3149 2842 3149 3418 
C 3149 4141 2547 4544 1792 4544 
C 1075 4544 685 4173 461 3814 
L 858 3507 
C 1043 3846 1318 4064 1779 4064 
C 2253 4064 2579 3827 2579 3360 
L 2579 3315 
C 2579 2886 2272 2573 1670 2573 
L 1184 2573 
z
" transform="scale(0.015625)"/>
       </defs>
       <use xlink:href="#IBMPlexSans-33"/>
       <use xlink:href="#IBMPlexSans-2e" transform="translate(59.999985 0)"/>
       <use xlink:href="#IBMPlexSans-30" transform="translate(87.199982 0)"/>
      </g>
     </g>
    </g>
    <g id="ytick_5">
     <g id="line2d_11">
      <g>
       <use xlink:href="#m3d9d96dca6" x="42.520313" y="70.597201" style="stroke: #000000; stroke-width: 0.8"/>
      </g>
     </g>
     <g id="text_12">
      <!-- 3.5 -->
      <g transform="translate(20.8 74.297201) scale(0.1 -0.1)">
       <use xlink:href="#IBMPlexSans-33"/>
       <use xlink:href="#IBMPlexSans-2e" transform="translate(59.999985 0)"/>
       <use xlink:href="#IBMPlexSans-35" transform="translate(87.199982 0)"/>
      </g>
     </g>
    </g>
    <g id="text_13">
     <!-- Amplitude [η*] -->
     <g transform="translate(14.8 188.547135) rotate(-90) scale(0.1 -0.1)">
      <defs>
       <path id="IBMPlexSans-41" d="M 3955 0 
L 2394 4467 
L 1709 4467 
L 147 0 
L 691 0 
L 1139 1318 
L 2944 1318 
L 3392 0 
L 3955 0 
z
M 2810 1792 
L 1267 1792 
L 2022 3968 
L 2054 3968 
L 2810 1792 
z
" transform="scale(0.015625)"/>
       <path id="IBMPlexSans-6d" d="M 1056 0 
L 1056 2291 
C 1056 2714 1440 2918 1843 2918 
C 2330 2918 2554 2618 2554 2029 
L 2554 0 
L 3066 0 
L 3066 2291 
C 3066 2714 3437 2918 3840 2918 
C 4339 2918 4563 2611 4563 2029 
L 4563 0 
L 5075 0 
L 5075 2118 
C 5075 2918 4672 3379 4000 3379 
C 3437 3379 3117 3066 2995 2707 
L 2982 2707 
C 2803 3181 2406 3379 1971 3379 
C 1459 3379 1229 3104 1082 2765 
L 1056 2765 
L 1056 3302 
L 544 3302 
L 544 0 
L 1056 0 
z
" transform="scale(0.015625)"/>
       <path id="IBMPlexSans-70" d="M 544 -1280 
L 1056 -1280 
L 1056 538 
L 1082 538 
C 1280 128 1594 -77 2048 -77 
C 2874 -77 3392 595 3392 1651 
C 3392 2707 2874 3379 2048 3379 
C 1594 3379 1254 3181 1082 2765 
L 1056 2765 
L 1056 3302 
L 544 3302 
L 544 -1280 
z
M 1907 384 
C 1440 384 1056 627 1056 1056 
L 1056 2285 
C 1056 2650 1440 2918 1907 2918 
C 2483 2918 2842 2522 2842 1933 
L 2842 1370 
C 2842 781 2483 384 1907 384 
z
" transform="scale(0.015625)"/>
       <path id="IBMPlexSans-6c" d="M 1542 0 
L 1542 448 
L 1056 448 
L 1056 4736 
L 544 4736 
L 544 531 
C 544 224 736 0 1088 0 
L 1542 0 
z
" transform="scale(0.015625)"/>
       <path id="IBMPlexSans-69" d="M 800 4077 
C 1018 4077 1114 4192 1114 4365 
L 1114 4448 
C 1114 4621 1018 4736 800 4736 
C 582 4736 486 4621 486 4448 
L 486 4365 
C 486 4192 582 4077 800 4077 
z
M 544 0 
L 1056 0 
L 1056 3302 
L 544 3302 
L 544 0 
z
" transform="scale(0.015625)"/>
       <path id="IBMPlexSans-74" d="M 1914 0 
L 1914 448 
L 1242 448 
L 1242 2854 
L 1965 2854 
L 1965 3302 
L 1242 3302 
L 1242 4218 
L 781 4218 
L 781 3603 
C 781 3379 710 3302 493 3302 
L 186 3302 
L 186 2854 
L 730 2854 
L 730 544 
C 730 224 922 0 1274 0 
L 1914 0 
z
" transform="scale(0.015625)"/>
       <path id="IBMPlexSans-64" d="M 2656 0 
L 3168 0 
L 3168 4736 
L 2656 4736 
L 2656 2765 
L 2630 2765 
C 2458 3181 2118 3379 1664 3379 
C 838 3379 320 2707 320 1651 
C 320 595 838 -77 1664 -77 
C 2118 -77 2432 128 2630 538 
L 2656 538 
L 2656 0 
z
M 1805 384 
C 1229 384 870 781 870 1370 
L 870 1933 
C 870 2522 1229 2918 1805 2918 
C 2272 2918 2656 2650 2656 2285 
L 2656 1056 
C 2656 627 2272 384 1805 384 
z
" transform="scale(0.015625)"/>
       <path id="IBMPlexSans-3b7" d="M 1088 0 
L 1088 2291 
C 1088 2714 1485 2918 1894 2918 
C 2387 2918 2643 2618 2643 2029 
L 2643 -1280 
L 3155 -1280 
L 3155 2118 
C 3155 2918 2726 3379 2048 3379 
C 1555 3379 1274 3136 1114 2765 
L 1088 2765 
C 1088 3078 896 3302 544 3302 
L 198 3302 
L 198 2854 
L 576 2854 
L 576 0 
L 1088 0 
z
" transform="scale(0.015625)"/>
      </defs>
      <use xlink:href="#IBMPlexSans-41"/>
      <use xlink:href="#IBMPlexSans-6d" transform="translate(64.099991 0)"/>
      <use xlink:href="#IBMPlexSans-70" transform="translate(151.399979 0)"/>
      <use xlink:href="#IBMPlexSans-6c" transform="translate(209.399963 0)"/>
      <use xlink:href="#IBMPlexSans-69" transform="translate(236.59996 0)"/>
      <use xlink:href="#IBMPlexSans-74" transform="translate(261.599945 0)"/>
      <use xlink:href="#IBMPlexSans-75" transform="translate(296.699936 0)"/>
      <use xlink:href="#IBMPlexSans-64" transform="translate(353.499924 0)"/>
      <use xlink:href="#IBMPlexSans-65" transform="translate(411.499908 0)"/>
      <use xlink:href="#IBMPlexSans-20" transform="translate(466.399902 0)"/>
      <use xlink:href="#IBMPlexSans-5b" transform="translate(489.999893 0)"/>
      <use xlink:href="#IBMPlexSans-3b7" transform="translate(521.69989 0)"/>
      <use xlink:href="#IBMPlexSans-2a" transform="translate(578.999878 0)"/>
      <use xlink:href="#IBMPlexSans-5d" transform="translate(623.999863 0)"/>
     </g>
    </g>
   </g>
   <g id="line2d_12">
    <defs>
     <path id="m0e1c8c879d" d="M 0 1.5 
C 0.397805 1.5 0.77937 1.341951 1.06066 1.06066 
C 1.341951 0.77937 1.5 0.397805 1.5 0 
C 1.5 -0.397805 1.341951 -0.77937 1.06066 -1.06066 
C 0.77937 -1.341951 0.397805 -1.5 0 -1.5 
C -0.397805 -1.5 -0.77937 -1.341951 -1.06066 -1.06066 
C -1.341951 -0.77937 -1.5 -0.397805 -1.5 0 
C -1.5 0.397805 -1.341951 0.77937 -1.06066 1.06066 
C -0.77937 1.341951 -0.397805 1.5 0 1.5 
z
"/>
    </defs>
    <g clip-path="url(#pd92d4c8de7)">
     <use xlink:href="#m0e1c8c879d" x="47.063828" y="73.094795" style="fill: #1f77b4"/>
     <use xlink:href="#m0e1c8c879d" x="48.343692" y="69.28787" style="fill: #1f77b4"/>
     <use xlink:href="#m0e1c8c879d" x="49.623555" y="86.77236" style="fill: #1f77b4"/>
     <use xlink:href="#m0e1c8c879d" x="50.903419" y="107.740276" style="fill: #1f77b4"/>
     <use xlink:href="#m0e1c8c879d" x="52.183282" y="84.016821" style="fill: #1f77b4"/>
     <use xlink:href="#m0e1c8c879d" x="53.463146" y="114.759954" style="fill: #1f77b4"/>
     <use xlink:href="#m0e1c8c879d" x="54.743009" y="91.707777" style="fill: #1f77b4"/>
     <use xlink:href="#m0e1c8c879d" x="56.022873" y="89.549769" style="fill: #1f77b4"/>
     <use xlink:href="#m0e1c8c879d" x="57.302736" y="91.201433" style="fill: #1f77b4"/>
     <use xlink:href="#m0e1c8c879d" x="58.5826" y="105.987259" style="fill: #1f77b4"/>
     <use xlink:href="#m0e1c8c879d" x="59.862463" y="82.112013" style="fill: #1f77b4"/>
     <use xlink:href="#m0e1c8c879d" x="61.142327" y="92.953899" style="fill: #1f77b4"/>
     <use xlink:href="#m0e1c8c879d" x="62.42219" y="94.192072" style="fill: #1f77b4"/>
     <use xlink:href="#m0e1c8c879d" x="63.702054" y="90.834967" style="fill: #1f77b4"/>
     <use xlink:href="#m0e1c8c879d" x="64.981917" y="109.285431" style="fill: #1f77b4"/>
     <use xlink:href="#m0e1c8c879d" x="66.261781" y="99.310228" style="fill: #1f77b4"/>
     <use xlink:href="#m0e1c8c879d" x="67.541644" y="85.047237" style="fill: #1f77b4"/>
     <use xlink:href="#m0e1c8c879d" x="68.821508" y="104.040301" style="fill: #1f77b4"/>
     <use xlink:href="#m0e1c8c879d" x="70.101371" y="80.801264" style="fill: #1f77b4"/>
     <use xlink:href="#m0e1c8c879d" x="71.381235" y="85.203895" style="fill: #1f77b4"/>
     <use xlink:href="#m0e1c8c879d" x="72.661099" y="94.603574" style="fill: #1f77b4"/>
     <use xlink:href="#m0e1c8c879d" x="73.940962" y="107.38087" style="fill: #1f77b4"/>
     <use xlink:href="#m0e1c8c879d" x="75.220826" y="86.661093" style="fill: #1f77b4"/>
     <use xlink:href="#m0e1c8c879d" x="76.500689" y="98.466079" style="fill: #1f77b4"/>
     <use xlink:href="#m0e1c8c879d" x="77.780553" y="96.870631" style="fill: #1f77b4"/>
     <use xlink:href="#m0e1c8c879d" x="79.060416" y="120.25119" style="fill: #1f77b4"/>
     <use xlink:href="#m0e1c8c879d" x="80.34028" y="83.729335" style="fill: #1f77b4"/>
     <use xlink:href="#m0e1c8c879d" x="81.620143" y="123.756878" style="fill: #1f77b4"/>
     <use xlink:href="#m0e1c8c879d" x="82.900007" y="103.956841" style="fill: #1f77b4"/>
     <use xlink:href="#m0e1c8c879d" x="84.17987" y="115.307185" style="fill: #1f77b4"/>
     <use xlink:href="#m0e1c8c879d" x="85.459734" y="108.364623" style="fill: #1f77b4"/>
     <use xlink:href="#m0e1c8c879d" x="86.739597" y="112.204183" style="fill: #1f77b4"/>
     <use xlink:href="#m0e1c8c879d" x="88.019461" y="101.460103" style="fill: #1f77b4"/>
     <use xlink:href="#m0e1c8c879d" x="89.299324" y="109.564322" style="fill: #1f77b4"/>
     <use xlink:href="#m0e1c8c879d" x="90.579188" y="96.802609" style="fill: #1f77b4"/>
     <use xlink:href="#m0e1c8c879d" x="91.859051" y="114.471961" style="fill: #1f77b4"/>
     <use xlink:href="#m0e1c8c879d" x="93.138915" y="111.385811" style="fill: #1f77b4"/>
     <use xlink:href="#m0e1c8c879d" x="94.418778" y="110.784826" style="fill: #1f77b4"/>
     <use xlink:href="#m0e1c8c879d" x="95.698642" y="133.671231" style="fill: #1f77b4"/>
     <use xlink:href="#m0e1c8c879d" x="96.978506" y="115.998456" style="fill: #1f77b4"/>
     <use xlink:href="#m0e1c8c879d" x="98.258369" y="130.735176" style="fill: #1f77b4"/>
     <use xlink:href="#m0e1c8c879d" x="99.538233" y="97.881564" style="fill: #1f77b4"/>
     <use xlink:href="#m0e1c8c879d" x="100.818096" y="125.229559" style="fill: #1f77b4"/>
     <use xlink:href="#m0e1c8c879d" x="102.09796" y="123.774903" style="fill: #1f77b4"/>
     <use xlink:href="#m0e1c8c879d" x="103.377823" y="111.561339" style="fill: #1f77b4"/>
     <use xlink:href="#m0e1c8c879d" x="104.657687" y="125.410903" style="fill: #1f77b4"/>
     <use xlink:href="#m0e1c8c879d" x="105.93755" y="105.493959" style="fill: #1f77b4"/>
     <use xlink:href="#m0e1c8c879d" x="107.217414" y="113.729582" style="fill: #1f77b4"/>
     <use xlink:href="#m0e1c8c879d" x="108.497277" y="98.305387" style="fill: #1f77b4"/>
     <use xlink:href="#m0e1c8c879d" x="109.777141" y="118.571321" style="fill: #1f77b4"/>
     <use xlink:href="#m0e1c8c879d" x="111.057004" y="119.314364" style="fill: #1f77b4"/>
     <use xlink:href="#m0e1c8c879d" x="112.336868" y="111.369333" style="fill: #1f77b4"/>
     <use xlink:href="#m0e1c8c879d" x="113.616731" y="127.461394" style="fill: #1f77b4"/>
     <use xlink:href="#m0e1c8c879d" x="114.896595" y="129.452344" style="fill: #1f77b4"/>
     <use xlink:href="#m0e1c8c879d" x="116.176458" y="89.674471" style="fill: #1f77b4"/>
     <use xlink:href="#m0e1c8c879d" x="117.456322" y="125.265055" style="fill: #1f77b4"/>
     <use xlink:href="#m0e1c8c879d" x="118.736185" y="104.789112" style="fill: #1f77b4"/>
     <use xlink:href="#m0e1c8c879d" x="120.016049" y="136.117574" style="fill: #1f77b4"/>
     <use xlink:href="#m0e1c8c879d" x="121.295912" y="117.393757" style="fill: #1f77b4"/>
     <use xlink:href="#m0e1c8c879d" x="122.575776" y="142.741085" style="fill: #1f77b4"/>
     <use xlink:href="#m0e1c8c879d" x="123.85564" y="149.056756" style="fill: #1f77b4"/>
     <use xlink:href="#m0e1c8c879d" x="125.135503" y="123.292585" style="fill: #1f77b4"/>
     <use xlink:href="#m0e1c8c879d" x="126.415367" y="138.337229" style="fill: #1f77b4"/>
     <use xlink:href="#m0e1c8c879d" x="127.69523" y="149.717209" style="fill: #1f77b4"/>
     <use xlink:href="#m0e1c8c879d" x="128.975094" y="116.59693" style="fill: #1f77b4"/>
     <use xlink:href="#m0e1c8c879d" x="130.254957" y="130.95948" style="fill: #1f77b4"/>
     <use xlink:href="#m0e1c8c879d" x="131.534821" y="113.775693" style="fill: #1f77b4"/>
     <use xlink:href="#m0e1c8c879d" x="132.814684" y="117.771856" style="fill: #1f77b4"/>
     <use xlink:href="#m0e1c8c879d" x="134.094548" y="136.93816" style="fill: #1f77b4"/>
     <use xlink:href="#m0e1c8c879d" x="135.374411" y="142.093801" style="fill: #1f77b4"/>
     <use xlink:href="#m0e1c8c879d" x="136.654275" y="136.438497" style="fill: #1f77b4"/>
     <use xlink:href="#m0e1c8c879d" x="137.934138" y="138.837207" style="fill: #1f77b4"/>
     <use xlink:href="#m0e1c8c879d" x="139.214002" y="121.173553" style="fill: #1f77b4"/>
     <use xlink:href="#m0e1c8c879d" x="140.493865" y="140.22893" style="fill: #1f77b4"/>
     <use xlink:href="#m0e1c8c879d" x="141.773729" y="155.210869" style="fill: #1f77b4"/>
     <use xlink:href="#m0e1c8c879d" x="143.053592" y="134.297953" style="fill: #1f77b4"/>
     <use xlink:href="#m0e1c8c879d" x="144.333456" y="140.503253" style="fill: #1f77b4"/>
     <use xlink:href="#m0e1c8c879d" x="145.613319" y="150.651777" style="fill: #1f77b4"/>
     <use xlink:href="#m0e1c8c879d" x="146.893183" y="141.991566" style="fill: #1f77b4"/>
     <use xlink:href="#m0e1c8c879d" x="148.173047" y="154.066843" style="fill: #1f77b4"/>
     <use xlink:href="#m0e1c8c879d" x="149.45291" y="146.894185" style="fill: #1f77b4"/>
     <use xlink:href="#m0e1c8c879d" x="150.732774" y="149.306842" style="fill: #1f77b4"/>
     <use xlink:href="#m0e1c8c879d" x="152.012637" y="147.061022" style="fill: #1f77b4"/>
     <use xlink:href="#m0e1c8c879d" x="153.292501" y="153.064932" style="fill: #1f77b4"/>
     <use xlink:href="#m0e1c8c879d" x="154.572364" y="144.266932" style="fill: #1f77b4"/>
     <use xlink:href="#m0e1c8c879d" x="155.852228" y="158.656501" style="fill: #1f77b4"/>
     <use xlink:href="#m0e1c8c879d" x="157.132091" y="153.339888" style="fill: #1f77b4"/>
     <use xlink:href="#m0e1c8c879d" x="158.411955" y="144.688101" style="fill: #1f77b4"/>
     <use xlink:href="#m0e1c8c879d" x="159.691818" y="179.67902" style="fill: #1f77b4"/>
     <use xlink:href="#m0e1c8c879d" x="160.971682" y="158.131843" style="fill: #1f77b4"/>
     <use xlink:href="#m0e1c8c879d" x="162.251545" y="161.122256" style="fill: #1f77b4"/>
     <use xlink:href="#m0e1c8c879d" x="163.531409" y="169.032546" style="fill: #1f77b4"/>
     <use xlink:href="#m0e1c8c879d" x="164.811272" y="163.557641" style="fill: #1f77b4"/>
     <use xlink:href="#m0e1c8c879d" x="166.091136" y="150.176333" style="fill: #1f77b4"/>
     <use xlink:href="#m0e1c8c879d" x="167.370999" y="130.699583" style="fill: #1f77b4"/>
     <use xlink:href="#m0e1c8c879d" x="168.650863" y="153.835041" style="fill: #1f77b4"/>
     <use xlink:href="#m0e1c8c879d" x="169.930726" y="148.127946" style="fill: #1f77b4"/>
     <use xlink:href="#m0e1c8c879d" x="171.21059" y="153.939804" style="fill: #1f77b4"/>
     <use xlink:href="#m0e1c8c879d" x="172.490453" y="147.687525" style="fill: #1f77b4"/>
     <use xlink:href="#m0e1c8c879d" x="173.770317" y="145.85685" style="fill: #1f77b4"/>
     <use xlink:href="#m0e1c8c879d" x="175.050181" y="152.930102" style="fill: #1f77b4"/>
     <use xlink:href="#m0e1c8c879d" x="176.330044" y="157.301884" style="fill: #1f77b4"/>
     <use xlink:href="#m0e1c8c879d" x="177.609908" y="153.990851" style="fill: #1f77b4"/>
     <use xlink:href="#m0e1c8c879d" x="178.889771" y="179.050616" style="fill: #1f77b4"/>
     <use xlink:href="#m0e1c8c879d" x="180.169635" y="157.013098" style="fill: #1f77b4"/>
     <use xlink:href="#m0e1c8c879d" x="181.449498" y="176.84031" style="fill: #1f77b4"/>
     <use xlink:href="#m0e1c8c879d" x="182.729362" y="147.51408" style="fill: #1f77b4"/>
     <use xlink:href="#m0e1c8c879d" x="184.009225" y="176.667712" style="fill: #1f77b4"/>
     <use xlink:href="#m0e1c8c879d" x="185.289089" y="160.854869" style="fill: #1f77b4"/>
     <use xlink:href="#m0e1c8c879d" x="186.568952" y="154.767715" style="fill: #1f77b4"/>
     <use xlink:href="#m0e1c8c879d" x="187.848816" y="179.103431" style="fill: #1f77b4"/>
     <use xlink:href="#m0e1c8c879d" x="189.128679" y="163.137305" style="fill: #1f77b4"/>
     <use xlink:href="#m0e1c8c879d" x="190.408543" y="177.131052" style="fill: #1f77b4"/>
     <use xlink:href="#m0e1c8c879d" x="191.688406" y="186.249424" style="fill: #1f77b4"/>
     <use xlink:href="#m0e1c8c879d" x="192.96827" y="181.365161" style="fill: #1f77b4"/>
     <use xlink:href="#m0e1c8c879d" x="194.248133" y="158.188974" style="fill: #1f77b4"/>
     <use xlink:href="#m0e1c8c879d" x="195.527997" y="185.012766" style="fill: #1f77b4"/>
     <use xlink:href="#m0e1c8c879d" x="196.80786" y="163.735632" style="fill: #1f77b4"/>
     <use xlink:href="#m0e1c8c879d" x="198.087724" y="171.774844" style="fill: #1f77b4"/>
     <use xlink:href="#m0e1c8c879d" x="199.367588" y="183.444053" style="fill: #1f77b4"/>
     <use xlink:href="#m0e1c8c879d" x="200.647451" y="163.222497" style="fill: #1f77b4"/>
     <use xlink:href="#m0e1c8c879d" x="201.927315" y="159.347193" style="fill: #1f77b4"/>
     <use xlink:href="#m0e1c8c879d" x="203.207178" y="174.542469" style="fill: #1f77b4"/>
     <use xlink:href="#m0e1c8c879d" x="204.487042" y="166.560835" style="fill: #1f77b4"/>
     <use xlink:href="#m0e1c8c879d" x="205.766905" y="176.296683" style="fill: #1f77b4"/>
     <use xlink:href="#m0e1c8c879d" x="207.046769" y="187.204916" style="fill: #1f77b4"/>
     <use xlink:href="#m0e1c8c879d" x="208.326632" y="157.134872" style="fill: #1f77b4"/>
     <use xlink:href="#m0e1c8c879d" x="209.606496" y="185.592525" style="fill: #1f77b4"/>
     <use xlink:href="#m0e1c8c879d" x="210.886359" y="181.81169" style="fill: #1f77b4"/>
     <use xlink:href="#m0e1c8c879d" x="212.166223" y="170.902641" style="fill: #1f77b4"/>
     <use xlink:href="#m0e1c8c879d" x="213.446086" y="192.368839" style="fill: #1f77b4"/>
     <use xlink:href="#m0e1c8c879d" x="214.72595" y="177.014499" style="fill: #1f77b4"/>
     <use xlink:href="#m0e1c8c879d" x="216.005813" y="184.077854" style="fill: #1f77b4"/>
     <use xlink:href="#m0e1c8c879d" x="217.285677" y="196.380536" style="fill: #1f77b4"/>
     <use xlink:href="#m0e1c8c879d" x="218.56554" y="175.446529" style="fill: #1f77b4"/>
     <use xlink:href="#m0e1c8c879d" x="219.845404" y="185.258779" style="fill: #1f77b4"/>
     <use xlink:href="#m0e1c8c879d" x="221.125267" y="173.792574" style="fill: #1f77b4"/>
     <use xlink:href="#m0e1c8c879d" x="222.405131" y="193.811968" style="fill: #1f77b4"/>
     <use xlink:href="#m0e1c8c879d" x="223.684995" y="196.596112" style="fill: #1f77b4"/>
     <use xlink:href="#m0e1c8c879d" x="224.964858" y="172.831195" style="fill: #1f77b4"/>
     <use xlink:href="#m0e1c8c879d" x="226.244722" y="199.504597" style="fill: #1f77b4"/>
     <use xlink:href="#m0e1c8c879d" x="227.524585" y="173.199329" style="fill: #1f77b4"/>
     <use xlink:href="#m0e1c8c879d" x="228.804449" y="187.461646" style="fill: #1f77b4"/>
     <use xlink:href="#m0e1c8c879d" x="230.084312" y="175.541788" style="fill: #1f77b4"/>
     <use xlink:href="#m0e1c8c879d" x="231.364176" y="177.434745" style="fill: #1f77b4"/>
     <use xlink:href="#m0e1c8c879d" x="232.644039" y="201.752789" style="fill: #1f77b4"/>
     <use xlink:href="#m0e1c8c879d" x="233.923903" y="182.268517" style="fill: #1f77b4"/>
     <use xlink:href="#m0e1c8c879d" x="235.203766" y="176.036321" style="fill: #1f77b4"/>
     <use xlink:href="#m0e1c8c879d" x="236.48363" y="193.383698" style="fill: #1f77b4"/>
     <use xlink:href="#m0e1c8c879d" x="237.763493" y="202.532835" style="fill: #1f77b4"/>
     <use xlink:href="#m0e1c8c879d" x="239.043357" y="176.139998" style="fill: #1f77b4"/>
     <use xlink:href="#m0e1c8c879d" x="240.32322" y="197.906295" style="fill: #1f77b4"/>
     <use xlink:href="#m0e1c8c879d" x="241.603084" y="198.277005" style="fill: #1f77b4"/>
     <use xlink:href="#m0e1c8c879d" x="242.882947" y="186.644002" style="fill: #1f77b4"/>
     <use xlink:href="#m0e1c8c879d" x="244.162811" y="191.681923" style="fill: #1f77b4"/>
     <use xlink:href="#m0e1c8c879d" x="245.442674" y="191.108959" style="fill: #1f77b4"/>
     <use xlink:href="#m0e1c8c879d" x="246.722538" y="188.089936" style="fill: #1f77b4"/>
     <use xlink:href="#m0e1c8c879d" x="248.002401" y="209.342511" style="fill: #1f77b4"/>
     <use xlink:href="#m0e1c8c879d" x="249.282265" y="213.29284" style="fill: #1f77b4"/>
     <use xlink:href="#m0e1c8c879d" x="250.562129" y="189.039331" style="fill: #1f77b4"/>
     <use xlink:href="#m0e1c8c879d" x="251.841992" y="210.805061" style="fill: #1f77b4"/>
     <use xlink:href="#m0e1c8c879d" x="253.121856" y="187.140111" style="fill: #1f77b4"/>
     <use xlink:href="#m0e1c8c879d" x="254.401719" y="191.993528" style="fill: #1f77b4"/>
     <use xlink:href="#m0e1c8c879d" x="255.681583" y="172.555736" style="fill: #1f77b4"/>
     <use xlink:href="#m0e1c8c879d" x="256.961446" y="191.209227" style="fill: #1f77b4"/>
     <use xlink:href="#m0e1c8c879d" x="258.24131" y="203.183069" style="fill: #1f77b4"/>
     <use xlink:href="#m0e1c8c879d" x="259.521173" y="195.553938" style="fill: #1f77b4"/>
     <use xlink:href="#m0e1c8c879d" x="260.801037" y="192.745182" style="fill: #1f77b4"/>
     <use xlink:href="#m0e1c8c879d" x="262.0809" y="203.928575" style="fill: #1f77b4"/>
     <use xlink:href="#m0e1c8c879d" x="263.360764" y="198.542509" style="fill: #1f77b4"/>
     <use xlink:href="#m0e1c8c879d" x="264.640627" y="212.506714" style="fill: #1f77b4"/>
     <use xlink:href="#m0e1c8c879d" x="265.920491" y="213.011087" style="fill: #1f77b4"/>
     <use xlink:href="#m0e1c8c879d" x="267.200354" y="199.268867" style="fill: #1f77b4"/>
     <use xlink:href="#m0e1c8c879d" x="268.480218" y="201.869715" style="fill: #1f77b4"/>
     <use xlink:href="#m0e1c8c879d" x="269.760081" y="219.239162" style="fill: #1f77b4"/>
     <use xlink:href="#m0e1c8c879d" x="271.039945" y="215.628457" style="fill: #1f77b4"/>
     <use xlink:href="#m0e1c8c879d" x="272.319808" y="190.01608" style="fill: #1f77b4"/>
     <use xlink:href="#m0e1c8c879d" x="273.599672" y="211.637725" style="fill: #1f77b4"/>
     <use xlink:href="#m0e1c8c879d" x="274.879536" y="199.935054" style="fill: #1f77b4"/>
     <use xlink:href="#m0e1c8c879d" x="276.159399" y="217.780097" style="fill: #1f77b4"/>
     <use xlink:href="#m0e1c8c879d" x="277.439263" y="196.819648" style="fill: #1f77b4"/>
     <use xlink:href="#m0e1c8c879d" x="278.719126" y="206.522697" style="fill: #1f77b4"/>
     <use xlink:href="#m0e1c8c879d" x="279.99899" y="216.252896" style="fill: #1f77b4"/>
     <use xlink:href="#m0e1c8c879d" x="281.278853" y="232.473789" style="fill: #1f77b4"/>
     <use xlink:href="#m0e1c8c879d" x="282.558717" y="185.161785" style="fill: #1f77b4"/>
     <use xlink:href="#m0e1c8c879d" x="283.83858" y="208.173457" style="fill: #1f77b4"/>
     <use xlink:href="#m0e1c8c879d" x="285.118444" y="211.223977" style="fill: #1f77b4"/>
     <use xlink:href="#m0e1c8c879d" x="286.398307" y="213.336277" style="fill: #1f77b4"/>
     <use xlink:href="#m0e1c8c879d" x="287.678171" y="202.791627" style="fill: #1f77b4"/>
     <use xlink:href="#m0e1c8c879d" x="288.958034" y="207.656733" style="fill: #1f77b4"/>
     <use xlink:href="#m0e1c8c879d" x="290.237898" y="209.068741" style="fill: #1f77b4"/>
     <use xlink:href="#m0e1c8c879d" x="291.517761" y="205.723753" style="fill: #1f77b4"/>
     <use xlink:href="#m0e1c8c879d" x="292.797625" y="206.230818" style="fill: #1f77b4"/>
     <use xlink:href="#m0e1c8c879d" x="294.077488" y="222.291138" style="fill: #1f77b4"/>
     <use xlink:href="#m0e1c8c879d" x="295.357352" y="207.957493" style="fill: #1f77b4"/>
     <use xlink:href="#m0e1c8c879d" x="296.637215" y="212.863388" style="fill: #1f77b4"/>
     <use xlink:href="#m0e1c8c879d" x="297.917079" y="216.597897" style="fill: #1f77b4"/>
     <use xlink:href="#m0e1c8c879d" x="299.196942" y="223.706622" style="fill: #1f77b4"/>
     <use xlink:href="#m0e1c8c879d" x="300.476806" y="216.147648" style="fill: #1f77b4"/>
     <use xlink:href="#m0e1c8c879d" x="301.75667" y="213.071247" style="fill: #1f77b4"/>
     <use xlink:href="#m0e1c8c879d" x="303.036533" y="203.688958" style="fill: #1f77b4"/>
     <use xlink:href="#m0e1c8c879d" x="304.316397" y="218.133356" style="fill: #1f77b4"/>
     <use xlink:href="#m0e1c8c879d" x="305.59626" y="214.925005" style="fill: #1f77b4"/>
     <use xlink:href="#m0e1c8c879d" x="306.876124" y="216.037812" style="fill: #1f77b4"/>
     <use xlink:href="#m0e1c8c879d" x="308.155987" y="215.540526" style="fill: #1f77b4"/>
     <use xlink:href="#m0e1c8c879d" x="309.435851" y="212.926153" style="fill: #1f77b4"/>
     <use xlink:href="#m0e1c8c879d" x="310.715714" y="226.787001" style="fill: #1f77b4"/>
     <use xlink:href="#m0e1c8c879d" x="311.995578" y="224.176175" style="fill: #1f77b4"/>
     <use xlink:href="#m0e1c8c879d" x="313.275441" y="208.294213" style="fill: #1f77b4"/>
     <use xlink:href="#m0e1c8c879d" x="314.555305" y="212.864868" style="fill: #1f77b4"/>
     <use xlink:href="#m0e1c8c879d" x="315.835168" y="225.895667" style="fill: #1f77b4"/>
     <use xlink:href="#m0e1c8c879d" x="317.115032" y="219.590625" style="fill: #1f77b4"/>
     <use xlink:href="#m0e1c8c879d" x="318.394895" y="206.338172" style="fill: #1f77b4"/>
     <use xlink:href="#m0e1c8c879d" x="319.674759" y="227.994791" style="fill: #1f77b4"/>
     <use xlink:href="#m0e1c8c879d" x="320.954622" y="217.515034" style="fill: #1f77b4"/>
     <use xlink:href="#m0e1c8c879d" x="322.234486" y="222.72695" style="fill: #1f77b4"/>
     <use xlink:href="#m0e1c8c879d" x="323.514349" y="217.819514" style="fill: #1f77b4"/>
     <use xlink:href="#m0e1c8c879d" x="324.794213" y="236.761087" style="fill: #1f77b4"/>
     <use xlink:href="#m0e1c8c879d" x="326.074077" y="211.340311" style="fill: #1f77b4"/>
     <use xlink:href="#m0e1c8c879d" x="327.35394" y="225.683422" style="fill: #1f77b4"/>
     <use xlink:href="#m0e1c8c879d" x="328.633804" y="221.127776" style="fill: #1f77b4"/>
     <use xlink:href="#m0e1c8c879d" x="329.913667" y="208.967455" style="fill: #1f77b4"/>
     <use xlink:href="#m0e1c8c879d" x="331.193531" y="220.863872" style="fill: #1f77b4"/>
     <use xlink:href="#m0e1c8c879d" x="332.473394" y="217.032107" style="fill: #1f77b4"/>
     <use xlink:href="#m0e1c8c879d" x="333.753258" y="216.32179" style="fill: #1f77b4"/>
     <use xlink:href="#m0e1c8c879d" x="335.033121" y="212.442858" style="fill: #1f77b4"/>
     <use xlink:href="#m0e1c8c879d" x="336.312985" y="215.697529" style="fill: #1f77b4"/>
     <use xlink:href="#m0e1c8c879d" x="337.592848" y="226.928588" style="fill: #1f77b4"/>
     <use xlink:href="#m0e1c8c879d" x="338.872712" y="226.104077" style="fill: #1f77b4"/>
     <use xlink:href="#m0e1c8c879d" x="340.152575" y="230.589993" style="fill: #1f77b4"/>
     <use xlink:href="#m0e1c8c879d" x="341.432439" y="217.263874" style="fill: #1f77b4"/>
     <use xlink:href="#m0e1c8c879d" x="342.712302" y="220.802615" style="fill: #1f77b4"/>
     <use xlink:href="#m0e1c8c879d" x="343.992166" y="235.792538" style="fill: #1f77b4"/>
     <use xlink:href="#m0e1c8c879d" x="345.272029" y="231.447897" style="fill: #1f77b4"/>
     <use xlink:href="#m0e1c8c879d" x="346.551893" y="218.859024" style="fill: #1f77b4"/>
     <use xlink:href="#m0e1c8c879d" x="347.831756" y="231.321455" style="fill: #1f77b4"/>
     <use xlink:href="#m0e1c8c879d" x="349.11162" y="226.35182" style="fill: #1f77b4"/>
     <use xlink:href="#m0e1c8c879d" x="350.391484" y="221.550114" style="fill: #1f77b4"/>
     <use xlink:href="#m0e1c8c879d" x="351.671347" y="233.518973" style="fill: #1f77b4"/>
     <use xlink:href="#m0e1c8c879d" x="352.951211" y="230.794346" style="fill: #1f77b4"/>
     <use xlink:href="#m0e1c8c879d" x="354.231074" y="209.053522" style="fill: #1f77b4"/>
     <use xlink:href="#m0e1c8c879d" x="355.510938" y="216.344315" style="fill: #1f77b4"/>
     <use xlink:href="#m0e1c8c879d" x="356.790801" y="219.557841" style="fill: #1f77b4"/>
     <use xlink:href="#m0e1c8c879d" x="358.070665" y="227.543835" style="fill: #1f77b4"/>
     <use xlink:href="#m0e1c8c879d" x="359.350528" y="230.831397" style="fill: #1f77b4"/>
     <use xlink:href="#m0e1c8c879d" x="360.630392" y="226.436782" style="fill: #1f77b4"/>
     <use xlink:href="#m0e1c8c879d" x="361.910255" y="211.026522" style="fill: #1f77b4"/>
     <use xlink:href="#m0e1c8c879d" x="363.190119" y="224.239304" style="fill: #1f77b4"/>
     <use xlink:href="#m0e1c8c879d" x="364.469982" y="230.415577" style="fill: #1f77b4"/>
     <use xlink:href="#m0e1c8c879d" x="365.749846" y="229.515684" style="fill: #1f77b4"/>
     <use xlink:href="#m0e1c8c879d" x="367.029709" y="225.142334" style="fill: #1f77b4"/>
     <use xlink:href="#m0e1c8c879d" x="368.309573" y="222.554805" style="fill: #1f77b4"/>
     <use xlink:href="#m0e1c8c879d" x="369.589436" y="235.115414" style="fill: #1f77b4"/>
     <use xlink:href="#m0e1c8c879d" x="370.8693" y="232.916267" style="fill: #1f77b4"/>
     <use xlink:href="#m0e1c8c879d" x="372.149163" y="230.396386" style="fill: #1f77b4"/>
     <use xlink:href="#m0e1c8c879d" x="373.429027" y="230.721623" style="fill: #1f77b4"/>
     <use xlink:href="#m0e1c8c879d" x="374.70889" y="230.600619" style="fill: #1f77b4"/>
     <use xlink:href="#m0e1c8c879d" x="375.988754" y="235.115837" style="fill: #1f77b4"/>
     <use xlink:href="#m0e1c8c879d" x="377.268618" y="236.222236" style="fill: #1f77b4"/>
     <use xlink:href="#m0e1c8c879d" x="378.548481" y="230.757049" style="fill: #1f77b4"/>
     <use xlink:href="#m0e1c8c879d" x="379.828345" y="223.948346" style="fill: #1f77b4"/>
     <use xlink:href="#m0e1c8c879d" x="381.108208" y="237.920376" style="fill: #1f77b4"/>
     <use xlink:href="#m0e1c8c879d" x="382.388072" y="230.697399" style="fill: #1f77b4"/>
     <use xlink:href="#m0e1c8c879d" x="383.667935" y="240.591345" style="fill: #1f77b4"/>
     <use xlink:href="#m0e1c8c879d" x="384.947799" y="231.240009" style="fill: #1f77b4"/>
     <use xlink:href="#m0e1c8c879d" x="386.227662" y="226.280345" style="fill: #1f77b4"/>
     <use xlink:href="#m0e1c8c879d" x="387.507526" y="236.373686" style="fill: #1f77b4"/>
     <use xlink:href="#m0e1c8c879d" x="388.787389" y="242.265951" style="fill: #1f77b4"/>
     <use xlink:href="#m0e1c8c879d" x="390.067253" y="239.550427" style="fill: #1f77b4"/>
     <use xlink:href="#m0e1c8c879d" x="391.347116" y="231.507221" style="fill: #1f77b4"/>
     <use xlink:href="#m0e1c8c879d" x="392.62698" y="238.785216" style="fill: #1f77b4"/>
     <use xlink:href="#m0e1c8c879d" x="393.906843" y="236.902299" style="fill: #1f77b4"/>
     <use xlink:href="#m0e1c8c879d" x="395.186707" y="234.840849" style="fill: #1f77b4"/>
     <use xlink:href="#m0e1c8c879d" x="396.46657" y="239.771421" style="fill: #1f77b4"/>
     <use xlink:href="#m0e1c8c879d" x="397.746434" y="234.854602" style="fill: #1f77b4"/>
     <use xlink:href="#m0e1c8c879d" x="399.026297" y="240.923667" style="fill: #1f77b4"/>
     <use xlink:href="#m0e1c8c879d" x="400.306161" y="241.883847" style="fill: #1f77b4"/>
     <use xlink:href="#m0e1c8c879d" x="401.586025" y="237.909273" style="fill: #1f77b4"/>
     <use xlink:href="#m0e1c8c879d" x="402.865888" y="240.537634" style="fill: #1f77b4"/>
     <use xlink:href="#m0e1c8c879d" x="404.145752" y="238.775433" style="fill: #1f77b4"/>
     <use xlink:href="#m0e1c8c879d" x="405.425615" y="239.973967" style="fill: #1f77b4"/>
     <use xlink:href="#m0e1c8c879d" x="406.705479" y="238.513129" style="fill: #1f77b4"/>
     <use xlink:href="#m0e1c8c879d" x="407.985342" y="241.601147" style="fill: #1f77b4"/>
     <use xlink:href="#m0e1c8c879d" x="409.265206" y="237.843211" style="fill: #1f77b4"/>
     <use xlink:href="#m0e1c8c879d" x="410.545069" y="239.731876" style="fill: #1f77b4"/>
     <use xlink:href="#m0e1c8c879d" x="411.824933" y="237.78812" style="fill: #1f77b4"/>
     <use xlink:href="#m0e1c8c879d" x="413.104796" y="232.260104" style="fill: #1f77b4"/>
     <use xlink:href="#m0e1c8c879d" x="414.38466" y="243.638444" style="fill: #1f77b4"/>
     <use xlink:href="#m0e1c8c879d" x="415.664523" y="252.548805" style="fill: #1f77b4"/>
     <use xlink:href="#m0e1c8c879d" x="416.944387" y="250.399665" style="fill: #1f77b4"/>
     <use xlink:href="#m0e1c8c879d" x="418.22425" y="238.224277" style="fill: #1f77b4"/>
     <use xlink:href="#m0e1c8c879d" x="419.504114" y="244.102575" style="fill: #1f77b4"/>
     <use xlink:href="#m0e1c8c879d" x="420.783977" y="230.277702" style="fill: #1f77b4"/>
     <use xlink:href="#m0e1c8c879d" x="422.063841" y="238.313719" style="fill: #1f77b4"/>
     <use xlink:href="#m0e1c8c879d" x="423.343704" y="240.889497" style="fill: #1f77b4"/>
     <use xlink:href="#m0e1c8c879d" x="424.623568" y="232.405771" style="fill: #1f77b4"/>
     <use xlink:href="#m0e1c8c879d" x="425.903431" y="243.896362" style="fill: #1f77b4"/>
     <use xlink:href="#m0e1c8c879d" x="427.183295" y="255.968449" style="fill: #1f77b4"/>
     <use xlink:href="#m0e1c8c879d" x="428.463159" y="260.550122" style="fill: #1f77b4"/>
     <use xlink:href="#m0e1c8c879d" x="429.743022" y="251.709514" style="fill: #1f77b4"/>
     <use xlink:href="#m0e1c8c879d" x="431.022886" y="249.052901" style="fill: #1f77b4"/>
     <use xlink:href="#m0e1c8c879d" x="432.302749" y="247.571758" style="fill: #1f77b4"/>
     <use xlink:href="#m0e1c8c879d" x="433.582613" y="240.733546" style="fill: #1f77b4"/>
     <use xlink:href="#m0e1c8c879d" x="434.862476" y="243.231077" style="fill: #1f77b4"/>
     <use xlink:href="#m0e1c8c879d" x="436.14234" y="245.535268" style="fill: #1f77b4"/>
     <use xlink:href="#m0e1c8c879d" x="437.422203" y="250.292408" style="fill: #1f77b4"/>
     <use xlink:href="#m0e1c8c879d" x="438.702067" y="242.533235" style="fill: #1f77b4"/>
     <use xlink:href="#m0e1c8c879d" x="439.98193" y="250.287142" style="fill: #1f77b4"/>
     <use xlink:href="#m0e1c8c879d" x="441.261794" y="250.074146" style="fill: #1f77b4"/>
     <use xlink:href="#m0e1c8c879d" x="442.541657" y="258.103073" style="fill: #1f77b4"/>
     <use xlink:href="#m0e1c8c879d" x="443.821521" y="235.741104" style="fill: #1f77b4"/>
     <use xlink:href="#m0e1c8c879d" x="445.101384" y="244.421251" style="fill: #1f77b4"/>
     <use xlink:href="#m0e1c8c879d" x="446.381248" y="250.77385" style="fill: #1f77b4"/>
     <use xlink:href="#m0e1c8c879d" x="447.661111" y="254.577135" style="fill: #1f77b4"/>
     <use xlink:href="#m0e1c8c879d" x="448.940975" y="247.22006" style="fill: #1f77b4"/>
     <use xlink:href="#m0e1c8c879d" x="450.220838" y="246.11039" style="fill: #1f77b4"/>
     <use xlink:href="#m0e1c8c879d" x="451.500702" y="254.02562" style="fill: #1f77b4"/>
     <use xlink:href="#m0e1c8c879d" x="452.780566" y="256.188642" style="fill: #1f77b4"/>
     <use xlink:href="#m0e1c8c879d" x="454.060429" y="238.036991" style="fill: #1f77b4"/>
     <use xlink:href="#m0e1c8c879d" x="455.340293" y="257.527363" style="fill: #1f77b4"/>
     <use xlink:href="#m0e1c8c879d" x="456.620156" y="249.235306" style="fill: #1f77b4"/>
     <use xlink:href="#m0e1c8c879d" x="457.90002" y="226.840179" style="fill: #1f77b4"/>
     <use xlink:href="#m0e1c8c879d" x="459.179883" y="239.33033" style="fill: #1f77b4"/>
     <use xlink:href="#m0e1c8c879d" x="460.459747" y="241.183215" style="fill: #1f77b4"/>
     <use xlink:href="#m0e1c8c879d" x="461.73961" y="253.720252" style="fill: #1f77b4"/>
     <use xlink:href="#m0e1c8c879d" x="463.019474" y="251.597488" style="fill: #1f77b4"/>
     <use xlink:href="#m0e1c8c879d" x="464.299337" y="247.220796" style="fill: #1f77b4"/>
     <use xlink:href="#m0e1c8c879d" x="465.579201" y="249.595629" style="fill: #1f77b4"/>
     <use xlink:href="#m0e1c8c879d" x="466.859064" y="251.648493" style="fill: #1f77b4"/>
     <use xlink:href="#m0e1c8c879d" x="468.138928" y="240.376148" style="fill: #1f77b4"/>
     <use xlink:href="#m0e1c8c879d" x="469.418791" y="247.683505" style="fill: #1f77b4"/>
     <use xlink:href="#m0e1c8c879d" x="470.698655" y="243.9677" style="fill: #1f77b4"/>
     <use xlink:href="#m0e1c8c879d" x="471.978518" y="244.440222" style="fill: #1f77b4"/>
     <use xlink:href="#m0e1c8c879d" x="473.258382" y="252.314233" style="fill: #1f77b4"/>
     <use xlink:href="#m0e1c8c879d" x="474.538245" y="239.571318" style="fill: #1f77b4"/>
     <use xlink:href="#m0e1c8c879d" x="475.818109" y="245.501385" style="fill: #1f77b4"/>
     <use xlink:href="#m0e1c8c879d" x="477.097973" y="264.540376" style="fill: #1f77b4"/>
     <use xlink:href="#m0e1c8c879d" x="478.377836" y="254.917995" style="fill: #1f77b4"/>
     <use xlink:href="#m0e1c8c879d" x="479.6577" y="257.670354" style="fill: #1f77b4"/>
     <use xlink:href="#m0e1c8c879d" x="480.937563" y="257.395873" style="fill: #1f77b4"/>
     <use xlink:href="#m0e1c8c879d" x="482.217427" y="253.393921" style="fill: #1f77b4"/>
     <use xlink:href="#m0e1c8c879d" x="483.49729" y="259.217148" style="fill: #1f77b4"/>
     <use xlink:href="#m0e1c8c879d" x="484.777154" y="258.289124" style="fill: #1f77b4"/>
     <use xlink:href="#m0e1c8c879d" x="486.057017" y="261.27992" style="fill: #1f77b4"/>
     <use xlink:href="#m0e1c8c879d" x="487.336881" y="258.288086" style="fill: #1f77b4"/>
     <use xlink:href="#m0e1c8c879d" x="488.616744" y="258.601821" style="fill: #1f77b4"/>
     <use xlink:href="#m0e1c8c879d" x="489.896608" y="252.79008" style="fill: #1f77b4"/>
     <use xlink:href="#m0e1c8c879d" x="491.176471" y="254.320184" style="fill: #1f77b4"/>
     <use xlink:href="#m0e1c8c879d" x="492.456335" y="246.329948" style="fill: #1f77b4"/>
     <use xlink:href="#m0e1c8c879d" x="493.736198" y="252.521549" style="fill: #1f77b4"/>
     <use xlink:href="#m0e1c8c879d" x="495.016062" y="251.957232" style="fill: #1f77b4"/>
     <use xlink:href="#m0e1c8c879d" x="496.295925" y="262.048251" style="fill: #1f77b4"/>
     <use xlink:href="#m0e1c8c879d" x="497.575789" y="263.210418" style="fill: #1f77b4"/>
     <use xlink:href="#m0e1c8c879d" x="498.855652" y="261.702043" style="fill: #1f77b4"/>
     <use xlink:href="#m0e1c8c879d" x="500.135516" y="255.131491" style="fill: #1f77b4"/>
     <use xlink:href="#m0e1c8c879d" x="501.415379" y="256.694844" style="fill: #1f77b4"/>
    </g>
   </g>
   <g id="line2d_13">
    <path d="M 47.063828 94.865243 
L 50.903419 94.965204 
L 54.743009 95.264337 
L 58.5826 95.760404 
L 62.42219 96.449721 
L 66.261781 97.327227 
L 70.101371 98.386575 
L 75.220826 100.068752 
L 80.34028 102.040062 
L 85.459734 104.27717 
L 90.579188 106.754699 
L 95.698642 109.445892 
L 102.09796 113.068439 
L 109.777141 117.723688 
L 118.736185 123.46592 
L 131.534821 132.000885 
L 154.572364 147.430024 
L 166.091136 154.833705 
L 176.330044 161.122669 
L 185.289089 166.363793 
L 194.248133 171.342638 
L 203.207178 176.051147 
L 212.166223 180.488065 
L 221.125267 184.657264 
L 230.084312 188.566333 
L 239.043357 192.225445 
L 239.043357 192.225445 
" clip-path="url(#pd92d4c8de7)" style="fill: none; stroke: #2ca02c; stroke-width: 1.5; stroke-linecap: square"/>
   </g>
   <g id="line2d_14">
    <path d="M 47.063828 99.417615 
L 50.903419 99.501648 
L 54.743009 99.753434 
L 59.862463 100.348412 
L 64.981917 101.236074 
L 70.101371 102.410867 
L 75.220826 103.865725 
L 80.34028 105.59232 
L 85.459734 107.581278 
L 90.579188 109.822218 
L 95.698642 112.303389 
L 100.818096 115.010661 
L 107.217414 118.684496 
L 113.616731 122.63453 
L 121.295912 127.650412 
L 132.814684 135.486518 
L 150.732774 147.682666 
L 160.971682 154.36797 
L 169.930726 159.962659 
L 178.889771 165.297811 
L 187.848816 170.375775 
L 196.80786 175.215495 
L 207.046769 180.490627 
L 217.285677 185.528553 
L 228.804449 190.933811 
L 239.043357 195.501254 
L 239.043357 195.501254 
" clip-path="url(#pd92d4c8de7)" style="fill: none; stroke-dasharray: 5.55,2.4; stroke-dashoffset: 0; stroke: #2ca02c; stroke-width: 1.5"/>
   </g>
   <g id="line2d_15">
    <path d="M 47.063828 90.31287 
L 50.903419 90.42876 
L 54.743009 90.77524 
L 58.5826 91.34876 
L 62.42219 92.143476 
L 66.261781 93.151349 
L 70.101371 94.362284 
L 73.940962 95.764297 
L 79.060416 97.907036 
L 84.17987 100.328675 
L 89.299324 102.989474 
L 95.698642 106.588395 
L 103.377823 111.202585 
L 113.616731 117.667216 
L 127.69523 126.855728 
L 164.811272 151.257158 
L 175.050181 157.663369 
L 184.009225 163.031575 
L 192.96827 168.126836 
L 200.647451 172.243687 
L 208.326632 176.106528 
L 216.005813 179.703603 
L 223.684995 183.03493 
L 231.364176 186.111146 
L 239.043357 188.949636 
L 239.043357 188.949636 
" clip-path="url(#pd92d4c8de7)" style="fill: none; stroke-dasharray: 5.55,2.4; stroke-dashoffset: 0; stroke: #2ca02c; stroke-width: 1.5"/>
   </g>
   <g id="line2d_16">
    <path d="M 234.755004 274.94952 
L 234.755004 251.112168 
" clip-path="url(#pd92d4c8de7)" style="fill: none; stroke: #000000; stroke-width: 1.5; stroke-linecap: square"/>
   </g>
   <g id="patch_3">
    <path d="M 42.520313 274.94952 
L 42.520313 36.576 
" style="fill: none; stroke: #000000; stroke-width: 0.8; stroke-linejoin: miter; stroke-linecap: square"/>
   </g>
   <g id="patch_4">
    <path d="M 42.520313 274.94952 
L 505.958895 274.94952 
" style="fill: none; stroke: #000000; stroke-width: 0.8; stroke-linejoin: miter; stroke-linecap: square"/>
   </g>
   <g id="text_14">
    <!-- Model lorentz()  -->
    <g transform="translate(42.520313 17.376) scale(0.12 -0.12)">
     <defs>
      <path id="IBMPlexSans-4d" d="M 595 0 
L 1120 0 
L 1120 3763 
L 1152 3763 
L 1530 3014 
L 2598 1069 
L 3667 3014 
L 4045 3763 
L 4077 3763 
L 4077 0 
L 4602 0 
L 4602 4467 
L 3910 4467 
L 2624 2061 
L 2592 2061 
L 1312 4467 
L 595 4467 
L 595 0 
z
" transform="scale(0.015625)"/>
      <path id="IBMPlexSans-6f" d="M 1792 -77 
C 2675 -77 3283 602 3283 1651 
C 3283 2701 2675 3379 1792 3379 
C 909 3379 301 2701 301 1651 
C 301 602 909 -77 1792 -77 
z
M 1792 378 
C 1242 378 851 717 851 1414 
L 851 1888 
C 851 2586 1242 2925 1792 2925 
C 2342 2925 2733 2586 2733 1888 
L 2733 1414 
C 2733 717 2342 378 1792 378 
z
" transform="scale(0.015625)"/>
      <path id="IBMPlexSans-7a" d="M 2758 0 
L 2758 448 
L 794 448 
L 2707 2918 
L 2707 3302 
L 269 3302 
L 269 2854 
L 2086 2854 
L 211 429 
L 211 0 
L 2758 0 
z
" transform="scale(0.015625)"/>
      <path id="IBMPlexSans-28" d="M 531 1997 
C 531 749 1056 -339 1690 -877 
L 2176 -877 
C 1485 -262 1011 819 1011 1715 
L 1011 2266 
C 1011 3162 1466 4224 2176 4864 
L 1690 4864 
C 1037 4307 531 3232 531 1997 
z
" transform="scale(0.015625)"/>
      <path id="IBMPlexSans-29" d="M 1613 1997 
C 1613 3232 1107 4307 454 4864 
L -32 4864 
C 678 4224 1133 3162 1133 2266 
L 1133 1715 
C 1133 819 659 -262 -32 -877 
L 454 -877 
C 1088 -339 1613 749 1613 1997 
z
" transform="scale(0.015625)"/>
     </defs>
     <use xlink:href="#IBMPlexSans-4d"/>
     <use xlink:href="#IBMPlexSans-6f" transform="translate(81.199982 0)"/>
     <use xlink:href="#IBMPlexSans-64" transform="translate(137.199966 0)"/>
     <use xlink:href="#IBMPlexSans-65" transform="translate(195.199951 0)"/>
     <use xlink:href="#IBMPlexSans-6c" transform="translate(250.099945 0)"/>
     <use xlink:href="#IBMPlexSans-20" transform="translate(277.299942 0)"/>
     <use xlink:href="#IBMPlexSans-6c" transform="translate(300.899933 0)"/>
     <use xlink:href="#IBMPlexSans-6f" transform="translate(328.09993 0)"/>
     <use xlink:href="#IBMPlexSans-72" transform="translate(384.099915 0)"/>
     <use xlink:href="#IBMPlexSans-65" transform="translate(420.799911 0)"/>
     <use xlink:href="#IBMPlexSans-6e" transform="translate(475.699905 0)"/>
     <use xlink:href="#IBMPlexSans-74" transform="translate(532.499893 0)"/>
     <use xlink:href="#IBMPlexSans-7a" transform="translate(567.599884 0)"/>
     <use xlink:href="#IBMPlexSans-28" transform="translate(613.999878 0)"/>
     <use xlink:href="#IBMPlexSans-29" transform="translate(647.499863 0)"/>
     <use xlink:href="#IBMPlexSans-20" transform="translate(680.999847 0)"/>
    </g>
    <!-- $η$ = 3.239 ± 0.025 η* -->
    <g transform="translate(42.520313 30.576) scale(0.12 -0.12)">
     <defs>
      <path id="DejaVuSans-Oblique-3b7" d="M 3703 2113 
L 3034 -1331 
L 2459 -1331 
L 3125 2094 
Q 3222 2591 3075 2838 
Q 2931 3084 2544 3084 
Q 2078 3084 1750 2788 
Q 1425 2491 1325 1978 
L 941 0 
L 363 0 
L 1044 3500 
L 1622 3500 
L 1516 2956 
Q 1781 3272 2094 3428 
Q 2403 3584 2769 3584 
Q 3372 3584 3609 3213 
Q 3844 2838 3703 2113 
z
" transform="scale(0.015625)"/>
      <path id="IBMPlexSans-3d" d="M 3411 2381 
L 3411 2816 
L 429 2816 
L 429 2381 
L 3411 2381 
z
M 3411 1101 
L 3411 1536 
L 429 1536 
L 429 1101 
L 3411 1101 
z
" transform="scale(0.015625)"/>
      <path id="IBMPlexSans-39" d="M 3411 2829 
C 3411 3891 2842 4544 1914 4544 
C 1018 4544 429 3942 429 3066 
C 429 2221 979 1690 1747 1690 
C 2291 1690 2611 1965 2822 2330 
L 2854 2317 
C 2611 1280 2080 698 1126 0 
L 1818 0 
C 2534 467 3411 1504 3411 2829 
z
M 1920 2144 
C 1331 2144 986 2483 986 3085 
L 986 3136 
C 986 3738 1331 4077 1920 4077 
C 2509 4077 2854 3738 2854 3136 
L 2854 3085 
C 2854 2483 2509 2144 1920 2144 
z
" transform="scale(0.015625)"/>
      <path id="IBMPlexSans-b1" d="M 2163 973 
L 2163 2246 
L 3411 2246 
L 3411 2682 
L 2163 2682 
L 2163 3955 
L 1677 3955 
L 1677 2682 
L 429 2682 
L 429 2246 
L 1677 2246 
L 1677 973 
L 2163 973 
z
M 3411 0 
L 3411 435 
L 429 435 
L 429 0 
L 3411 0 
z
" transform="scale(0.015625)"/>
     </defs>
     <use xlink:href="#DejaVuSans-Oblique-3b7" transform="translate(0 0.296875)"/>
     <use xlink:href="#IBMPlexSans-20" transform="translate(63.378906 0.296875)"/>
     <use xlink:href="#IBMPlexSans-3d" transform="translate(86.978897 0.296875)"/>
     <use xlink:href="#IBMPlexSans-20" transform="translate(146.978882 0.296875)"/>
     <use xlink:href="#IBMPlexSans-33" transform="translate(170.578873 0.296875)"/>
     <use xlink:href="#IBMPlexSans-2e" transform="translate(230.578857 0.296875)"/>
     <use xlink:href="#IBMPlexSans-32" transform="translate(257.778854 0.296875)"/>
     <use xlink:href="#IBMPlexSans-33" transform="translate(317.778839 0.296875)"/>
     <use xlink:href="#IBMPlexSans-39" transform="translate(377.778824 0.296875)"/>
     <use xlink:href="#IBMPlexSans-20" transform="translate(437.778809 0.296875)"/>
     <use xlink:href="#IBMPlexSans-b1" transform="translate(461.378799 0.296875)"/>
     <use xlink:href="#IBMPlexSans-20" transform="translate(521.378784 0.296875)"/>
     <use xlink:href="#IBMPlexSans-30" transform="translate(544.978775 0.296875)"/>
     <use xlink:href="#IBMPlexSans-2e" transform="translate(604.97876 0.296875)"/>
     <use xlink:href="#IBMPlexSans-30" transform="translate(632.178757 0.296875)"/>
     <use xlink:href="#IBMPlexSans-32" transform="translate(692.178741 0.296875)"/>
     <use xlink:href="#IBMPlexSans-35" transform="translate(752.178726 0.296875)"/>
     <use xlink:href="#IBMPlexSans-20" transform="translate(812.178711 0.296875)"/>
     <use xlink:href="#IBMPlexSans-3b7" transform="translate(835.778702 0.296875)"/>
     <use xlink:href="#IBMPlexSans-2a" transform="translate(893.07869 0.296875)"/>
    </g>
   </g>
   <g id="text_15">
    <!-- $\tau_\text{exp}$ = 0.399 ± 0.029 τ* -->
    <g transform="translate(379.118895 16.2) scale(0.12 -0.12)">
     <defs>
      <path id="DejaVuSans-Oblique-3c4" d="M 2103 638 
Q 2188 488 2525 488 
L 2800 488 
L 2706 0 
L 2363 0 
Q 1800 0 1600 300 
Q 1403 606 1534 1269 
L 1856 2925 
L 541 2925 
L 653 3500 
L 3881 3500 
L 3769 2925 
L 2444 2925 
L 2113 1234 
Q 2025 781 2103 638 
z
" transform="scale(0.015625)"/>
      <path id="DejaVuSans-65" d="M 3597 1894 
L 3597 1613 
L 953 1613 
Q 991 1019 1311 708 
Q 1631 397 2203 397 
Q 2534 397 2845 478 
Q 3156 559 3463 722 
L 3463 178 
Q 3153 47 2828 -22 
Q 2503 -91 2169 -91 
Q 1331 -91 842 396 
Q 353 884 353 1716 
Q 353 2575 817 3079 
Q 1281 3584 2069 3584 
Q 2775 3584 3186 3129 
Q 3597 2675 3597 1894 
z
M 3022 2063 
Q 3016 2534 2758 2815 
Q 2500 3097 2075 3097 
Q 1594 3097 1305 2825 
Q 1016 2553 972 2059 
L 3022 2063 
z
" transform="scale(0.015625)"/>
      <path id="DejaVuSans-78" d="M 3513 3500 
L 2247 1797 
L 3578 0 
L 2900 0 
L 1881 1375 
L 863 0 
L 184 0 
L 1544 1831 
L 300 3500 
L 978 3500 
L 1906 2253 
L 2834 3500 
L 3513 3500 
z
" transform="scale(0.015625)"/>
      <path id="DejaVuSans-70" d="M 1159 525 
L 1159 -1331 
L 581 -1331 
L 581 3500 
L 1159 3500 
L 1159 2969 
Q 1341 3281 1617 3432 
Q 1894 3584 2278 3584 
Q 2916 3584 3314 3078 
Q 3713 2572 3713 1747 
Q 3713 922 3314 415 
Q 2916 -91 2278 -91 
Q 1894 -91 1617 61 
Q 1341 213 1159 525 
z
M 3116 1747 
Q 3116 2381 2855 2742 
Q 2594 3103 2138 3103 
Q 1681 3103 1420 2742 
Q 1159 2381 1159 1747 
Q 1159 1113 1420 752 
Q 1681 391 2138 391 
Q 2594 391 2855 752 
Q 3116 1113 3116 1747 
z
" transform="scale(0.015625)"/>
     </defs>
     <use xlink:href="#DejaVuSans-Oblique-3c4" transform="translate(0 0.296875)"/>
     <use xlink:href="#DejaVuSans-65" transform="translate(60.205078 -16.109375) scale(0.7)"/>
     <use xlink:href="#DejaVuSans-78" transform="translate(103.271484 -16.109375) scale(0.7)"/>
     <use xlink:href="#DejaVuSans-70" transform="translate(144.697266 -16.109375) scale(0.7)"/>
     <use xlink:href="#IBMPlexSans-20" transform="translate(191.865234 0.296875)"/>
     <use xlink:href="#IBMPlexSans-3d" transform="translate(215.465225 0.296875)"/>
     <use xlink:href="#IBMPlexSans-20" transform="translate(275.46521 0.296875)"/>
     <use xlink:href="#IBMPlexSans-30" transform="translate(299.065201 0.296875)"/>
     <use xlink:href="#IBMPlexSans-2e" transform="translate(359.065186 0.296875)"/>
     <use xlink:href="#IBMPlexSans-33" transform="translate(386.265182 0.296875)"/>
     <use xlink:href="#IBMPlexSans-39" transform="translate(446.265167 0.296875)"/>
     <use xlink:href="#IBMPlexSans-39" transform="translate(506.265152 0.296875)"/>
     <use xlink:href="#IBMPlexSans-20" transform="translate(566.265137 0.296875)"/>
     <use xlink:href="#IBMPlexSans-b1" transform="translate(589.865128 0.296875)"/>
     <use xlink:href="#IBMPlexSans-20" transform="translate(649.865112 0.296875)"/>
     <use xlink:href="#IBMPlexSans-30" transform="translate(673.465103 0.296875)"/>
     <use xlink:href="#IBMPlexSans-2e" transform="translate(733.465088 0.296875)"/>
     <use xlink:href="#IBMPlexSans-30" transform="translate(760.665085 0.296875)"/>
     <use xlink:href="#IBMPlexSans-32" transform="translate(820.66507 0.296875)"/>
     <use xlink:href="#IBMPlexSans-39" transform="translate(880.665054 0.296875)"/>
     <use xlink:href="#IBMPlexSans-20" transform="translate(940.665039 0.296875)"/>
     <use xlink:href="#IBMPlexSans-3c4" transform="translate(964.26503 0.296875)"/>
     <use xlink:href="#IBMPlexSans-2a" transform="translate(1011.965027 0.296875)"/>
    </g>
    <!-- $\tau_\text{int}$ = 0.139 ± 0.001 τ* -->
    <g transform="translate(383.558895 30.576) scale(0.12 -0.12)">
     <defs>
      <path id="DejaVuSans-69" d="M 603 3500 
L 1178 3500 
L 1178 0 
L 603 0 
L 603 3500 
z
M 603 4863 
L 1178 4863 
L 1178 4134 
L 603 4134 
L 603 4863 
z
" transform="scale(0.015625)"/>
      <path id="DejaVuSans-6e" d="M 3513 2113 
L 3513 0 
L 2938 0 
L 2938 2094 
Q 2938 2591 2744 2837 
Q 2550 3084 2163 3084 
Q 1697 3084 1428 2787 
Q 1159 2491 1159 1978 
L 1159 0 
L 581 0 
L 581 3500 
L 1159 3500 
L 1159 2956 
Q 1366 3272 1645 3428 
Q 1925 3584 2291 3584 
Q 2894 3584 3203 3211 
Q 3513 2838 3513 2113 
z
" transform="scale(0.015625)"/>
      <path id="DejaVuSans-74" d="M 1172 4494 
L 1172 3500 
L 2356 3500 
L 2356 3053 
L 1172 3053 
L 1172 1153 
Q 1172 725 1289 603 
Q 1406 481 1766 481 
L 2356 481 
L 2356 0 
L 1766 0 
Q 1100 0 847 248 
Q 594 497 594 1153 
L 594 3053 
L 172 3053 
L 172 3500 
L 594 3500 
L 594 4494 
L 1172 4494 
z
" transform="scale(0.015625)"/>
     </defs>
     <use xlink:href="#DejaVuSans-Oblique-3c4" transform="translate(0 0.296875)"/>
     <use xlink:href="#DejaVuSans-69" transform="translate(60.205078 -16.109375) scale(0.7)"/>
     <use xlink:href="#DejaVuSans-6e" transform="translate(79.65332 -16.109375) scale(0.7)"/>
     <use xlink:href="#DejaVuSans-74" transform="translate(124.018555 -16.109375) scale(0.7)"/>
     <use xlink:href="#IBMPlexSans-20" transform="translate(154.199219 0.296875)"/>
     <use xlink:href="#IBMPlexSans-3d" transform="translate(177.79921 0.296875)"/>
     <use xlink:href="#IBMPlexSans-20" transform="translate(237.799194 0.296875)"/>
     <use xlink:href="#IBMPlexSans-30" transform="translate(261.399185 0.296875)"/>
     <use xlink:href="#IBMPlexSans-2e" transform="translate(321.39917 0.296875)"/>
     <use xlink:href="#IBMPlexSans-31" transform="translate(348.599167 0.296875)"/>
     <use xlink:href="#IBMPlexSans-33" transform="translate(408.599152 0.296875)"/>
     <use xlink:href="#IBMPlexSans-39" transform="translate(468.599136 0.296875)"/>
     <use xlink:href="#IBMPlexSans-20" transform="translate(528.599121 0.296875)"/>
     <use xlink:href="#IBMPlexSans-b1" transform="translate(552.199112 0.296875)"/>
     <use xlink:href="#IBMPlexSans-20" transform="translate(612.199097 0.296875)"/>
     <use xlink:href="#IBMPlexSans-30" transform="translate(635.799088 0.296875)"/>
     <use xlink:href="#IBMPlexSans-2e" transform="translate(695.799072 0.296875)"/>
     <use xlink:href="#IBMPlexSans-30" transform="translate(722.999069 0.296875)"/>
     <use xlink:href="#IBMPlexSans-30" transform="translate(782.999054 0.296875)"/>
     <use xlink:href="#IBMPlexSans-31" transform="translate(842.999039 0.296875)"/>
     <use xlink:href="#IBMPlexSans-20" transform="translate(902.999023 0.296875)"/>
     <use xlink:href="#IBMPlexSans-3c4" transform="translate(926.599014 0.296875)"/>
     <use xlink:href="#IBMPlexSans-2a" transform="translate(974.299011 0.296875)"/>
    </g>
   </g>
   <g id="legend_1">
    <g id="patch_5">
     <path d="M 368.902645 73.496312 
L 498.958895 73.496312 
Q 500.958895 73.496312 500.958895 71.496312 
L 500.958895 43.576 
Q 500.958895 41.576 498.958895 41.576 
L 368.902645 41.576 
Q 366.902645 41.576 366.902645 43.576 
L 366.902645 71.496312 
Q 366.902645 73.496312 368.902645 73.496312 
z
" style="fill: #ffffff; opacity: 0.8; stroke: #cccccc; stroke-linejoin: miter"/>
    </g>
    <g id="line2d_17">
     <path d="M 370.902645 49.476 
L 380.902645 49.476 
L 390.902645 49.476 
" style="fill: none; stroke-dasharray: 5.55,2.4; stroke-dashoffset: 0; stroke: #2ca02c; stroke-width: 1.5"/>
    </g>
    <g id="text_16">
     <!-- 95% CI fitted model -->
     <g transform="translate(398.902645 52.976) scale(0.1 -0.1)">
      <defs>
       <path id="IBMPlexSans-25" d="M 1664 0 
L 4762 4467 
L 4269 4467 
L 1171 0 
L 1664 0 
z
M 1427 2010 
C 2074 2010 2438 2458 2438 3277 
C 2438 4096 2074 4544 1427 4544 
C 781 4544 416 4096 416 3277 
C 416 2458 781 2010 1427 2010 
z
M 1427 2342 
C 1056 2342 877 2598 877 3085 
L 877 3469 
C 877 3955 1056 4211 1427 4211 
C 1798 4211 1978 3955 1978 3469 
L 1978 3085 
C 1978 2598 1798 2342 1427 2342 
z
M 4506 -77 
C 5152 -77 5517 371 5517 1190 
C 5517 2010 5152 2458 4506 2458 
C 3859 2458 3494 2010 3494 1190 
C 3494 371 3859 -77 4506 -77 
z
M 4506 256 
C 4134 256 3955 512 3955 998 
L 3955 1382 
C 3955 1869 4134 2125 4506 2125 
C 4877 2125 5056 1869 5056 1382 
L 5056 998 
C 5056 512 4877 256 4506 256 
z
" transform="scale(0.015625)"/>
       <path id="IBMPlexSans-43" d="M 2170 -77 
C 2912 -77 3456 314 3738 941 
L 3309 1210 
C 3130 723 2739 403 2170 403 
C 1402 403 947 960 947 1875 
L 947 2541 
C 947 3456 1402 4064 2170 4064 
C 2720 4064 3091 3763 3270 3302 
L 3706 3565 
C 3424 4186 2912 4544 2170 4544 
C 1043 4544 371 3699 371 2208 
C 371 717 1043 -77 2170 -77 
z
" transform="scale(0.015625)"/>
       <path id="IBMPlexSans-49" d="M 2176 0 
L 2176 448 
L 1549 448 
L 1549 4019 
L 2176 4019 
L 2176 4467 
L 384 4467 
L 384 4019 
L 1011 4019 
L 1011 448 
L 384 448 
L 384 0 
L 2176 0 
z
" transform="scale(0.015625)"/>
       <path id="IBMPlexSans-66" d="M 723 0 
L 1235 0 
L 1235 2854 
L 1946 2854 
L 1946 3302 
L 1235 3302 
L 1235 4288 
L 1946 4288 
L 1946 4736 
L 1446 4736 
C 960 4736 723 4422 723 3968 
L 723 3302 
L 186 3302 
L 186 2854 
L 723 2854 
L 723 0 
z
" transform="scale(0.015625)"/>
      </defs>
      <use xlink:href="#IBMPlexSans-39"/>
      <use xlink:href="#IBMPlexSans-35" transform="translate(59.999985 0)"/>
      <use xlink:href="#IBMPlexSans-25" transform="translate(119.999969 0)"/>
      <use xlink:href="#IBMPlexSans-20" transform="translate(212.699951 0)"/>
      <use xlink:href="#IBMPlexSans-43" transform="translate(236.299942 0)"/>
      <use xlink:href="#IBMPlexSans-49" transform="translate(298.399933 0)"/>
      <use xlink:href="#IBMPlexSans-20" transform="translate(338.399918 0)"/>
      <use xlink:href="#IBMPlexSans-66" transform="translate(361.999908 0)"/>
      <use xlink:href="#IBMPlexSans-69" transform="translate(394.399902 0)"/>
      <use xlink:href="#IBMPlexSans-74" transform="translate(419.399887 0)"/>
      <use xlink:href="#IBMPlexSans-74" transform="translate(454.499878 0)"/>
      <use xlink:href="#IBMPlexSans-65" transform="translate(489.599869 0)"/>
      <use xlink:href="#IBMPlexSans-64" transform="translate(544.499863 0)"/>
      <use xlink:href="#IBMPlexSans-20" transform="translate(602.499847 0)"/>
      <use xlink:href="#IBMPlexSans-6d" transform="translate(626.099838 0)"/>
      <use xlink:href="#IBMPlexSans-6f" transform="translate(713.399826 0)"/>
      <use xlink:href="#IBMPlexSans-64" transform="translate(769.399811 0)"/>
      <use xlink:href="#IBMPlexSans-65" transform="translate(827.399796 0)"/>
      <use xlink:href="#IBMPlexSans-6c" transform="translate(882.299789 0)"/>
     </g>
    </g>
    <g id="patch_6">
     <path d="M 370.902645 67.376 
L 390.902645 67.376 
L 390.902645 60.376 
L 370.902645 60.376 
z
" style="fill: #2ca02c; fill-opacity: 0.3"/>
    </g>
    <g id="text_17">
     <!-- 95% CI sampling PSD -->
     <g transform="translate(398.902645 67.376) scale(0.1 -0.1)">
      <defs>
       <path id="IBMPlexSans-73" d="M 1536 -77 
C 2291 -77 2758 314 2758 954 
C 2758 1453 2477 1773 1747 1882 
L 1491 1920 
C 1082 1984 858 2112 858 2432 
C 858 2746 1082 2944 1504 2944 
C 1926 2944 2208 2746 2355 2541 
L 2694 2848 
C 2426 3181 2074 3379 1542 3379 
C 870 3379 365 3059 365 2406 
C 365 1792 819 1542 1427 1453 
L 1690 1414 
C 2125 1350 2266 1152 2266 896 
C 2266 557 2010 358 1574 358 
C 1158 358 851 544 595 864 
L 230 570 
C 525 179 928 -77 1536 -77 
z
" transform="scale(0.015625)"/>
       <path id="IBMPlexSans-61" d="M 3232 0 
L 3232 448 
L 2854 448 
L 2854 2266 
C 2854 2963 2381 3379 1587 3379 
C 992 3379 595 3085 416 2733 
L 723 2445 
C 902 2746 1165 2938 1562 2938 
C 2086 2938 2342 2682 2342 2214 
L 2342 1888 
L 1690 1888 
C 730 1888 282 1542 282 922 
C 282 307 691 -77 1389 -77 
C 1850 -77 2202 134 2342 538 
L 2374 538 
C 2413 230 2566 0 2944 0 
L 3232 0 
z
M 1472 358 
C 1075 358 819 544 819 870 
L 819 1005 
C 819 1325 1082 1504 1664 1504 
L 2342 1504 
L 2342 960 
C 2342 621 1978 358 1472 358 
z
" transform="scale(0.015625)"/>
       <path id="IBMPlexSans-67" d="M 3328 -365 
C 3328 179 2976 512 2157 512 
L 1453 512 
C 1152 512 947 563 947 762 
C 947 966 1165 1075 1382 1133 
C 1478 1114 1594 1101 1702 1101 
C 2458 1101 2950 1568 2950 2240 
C 2950 2592 2810 2886 2573 3091 
L 2573 3302 
L 3200 3302 
L 3200 3750 
L 2707 3750 
C 2432 3750 2323 3565 2323 3309 
L 2323 3251 
C 2144 3334 1933 3379 1696 3379 
C 947 3379 454 2912 454 2240 
C 454 1779 685 1414 1075 1229 
L 1075 1203 
C 742 1120 506 960 506 627 
C 506 403 614 256 800 166 
L 800 96 
C 474 6 275 -186 275 -544 
C 275 -1062 698 -1357 1728 -1357 
C 2790 -1357 3328 -1043 3328 -365 
z
M 2848 -403 
C 2848 -762 2515 -941 1946 -941 
L 1472 -941 
C 954 -941 755 -704 755 -416 
C 755 -211 851 -64 1062 32 
L 2163 32 
C 2675 32 2848 -141 2848 -403 
z
M 1702 1510 
C 1267 1510 992 1715 992 2150 
L 992 2330 
C 992 2765 1267 2970 1702 2970 
C 2138 2970 2413 2765 2413 2330 
L 2413 2150 
C 2413 1715 2138 1510 1702 1510 
z
" transform="scale(0.015625)"/>
       <path id="IBMPlexSans-50" d="M 1133 0 
L 1133 1907 
L 2374 1907 
C 3174 1907 3622 2400 3622 3187 
C 3622 3974 3174 4467 2374 4467 
L 595 4467 
L 595 0 
L 1133 0 
z
M 1133 3994 
L 2374 3994 
C 2797 3994 3046 3763 3046 3354 
L 3046 3021 
C 3046 2611 2797 2381 2374 2381 
L 1133 2381 
L 1133 3994 
z
" transform="scale(0.015625)"/>
       <path id="IBMPlexSans-53" d="M 1850 -77 
C 2810 -77 3386 448 3386 1267 
C 3386 1933 3008 2317 2138 2515 
L 1773 2598 
C 1210 2726 934 2918 934 3341 
C 934 3821 1286 4070 1856 4070 
C 2374 4070 2714 3859 2957 3520 
L 3360 3814 
C 3027 4288 2554 4544 1882 4544 
C 1005 4544 403 4115 403 3322 
C 403 2637 851 2278 1664 2093 
L 2029 2010 
C 2618 1875 2854 1664 2854 1242 
C 2854 730 2509 397 1869 397 
C 1350 397 979 621 666 1037 
L 269 704 
C 627 218 1133 -77 1850 -77 
z
" transform="scale(0.015625)"/>
       <path id="IBMPlexSans-44" d="M 595 0 
L 2093 0 
C 3206 0 3923 742 3923 2234 
C 3923 3725 3206 4467 2093 4467 
L 595 4467 
L 595 0 
z
M 1133 474 
L 1133 3994 
L 2093 3994 
C 2829 3994 3347 3482 3347 2598 
L 3347 1869 
C 3347 986 2829 474 2093 474 
L 1133 474 
z
" transform="scale(0.015625)"/>
      </defs>
      <use xlink:href="#IBMPlexSans-39"/>
      <use xlink:href="#IBMPlexSans-35" transform="translate(59.999985 0)"/>
      <use xlink:href="#IBMPlexSans-25" transform="translate(119.999969 0)"/>
      <use xlink:href="#IBMPlexSans-20" transform="translate(212.699951 0)"/>
      <use xlink:href="#IBMPlexSans-43" transform="translate(236.299942 0)"/>
      <use xlink:href="#IBMPlexSans-49" transform="translate(298.399933 0)"/>
      <use xlink:href="#IBMPlexSans-20" transform="translate(338.399918 0)"/>
      <use xlink:href="#IBMPlexSans-73" transform="translate(361.999908 0)"/>
      <use xlink:href="#IBMPlexSans-61" transform="translate(410.699905 0)"/>
      <use xlink:href="#IBMPlexSans-6d" transform="translate(464.099899 0)"/>
      <use xlink:href="#IBMPlexSans-70" transform="translate(551.399887 0)"/>
      <use xlink:href="#IBMPlexSans-6c" transform="translate(609.399872 0)"/>
      <use xlink:href="#IBMPlexSans-69" transform="translate(636.599869 0)"/>
      <use xlink:href="#IBMPlexSans-6e" transform="translate(661.599854 0)"/>
      <use xlink:href="#IBMPlexSans-67" transform="translate(718.399841 0)"/>
      <use xlink:href="#IBMPlexSans-20" transform="translate(771.199829 0)"/>
      <use xlink:href="#IBMPlexSans-50" transform="translate(794.79982 0)"/>
      <use xlink:href="#IBMPlexSans-53" transform="translate(855.399811 0)"/>
      <use xlink:href="#IBMPlexSans-44" transform="translate(913.499802 0)"/>
     </g>
    </g>
   </g>
  </g>
  <g id="axes_2">
   <g id="matplotlib.axis_3">
    <g id="ytick_6">
     <g id="line2d_18">
      <defs>
       <path id="m1e464816f0" d="M 0 0 
L 3.5 0 
" style="stroke: #ff0000; stroke-width: 0.8"/>
      </defs>
      <g>
       <use xlink:href="#m1e464816f0" x="505.958895" y="270.365414" style="fill: #ff0000; stroke: #ff0000; stroke-width: 0.8"/>
      </g>
     </g>
     <g id="text_18">
      <!-- 0.0 -->
      <g style="fill: #ff0000" transform="translate(512.958895 274.065414) scale(0.1 -0.1)">
       <use xlink:href="#IBMPlexSans-30"/>
       <use xlink:href="#IBMPlexSans-2e" transform="translate(59.999985 0)"/>
       <use xlink:href="#IBMPlexSans-30" transform="translate(87.199982 0)"/>
      </g>
     </g>
    </g>
    <g id="ytick_7">
     <g id="line2d_19">
      <g>
       <use xlink:href="#m1e464816f0" x="505.958895" y="224.524352" style="fill: #ff0000; stroke: #ff0000; stroke-width: 0.8"/>
      </g>
     </g>
     <g id="text_19">
      <!-- 0.2 -->
      <g style="fill: #ff0000" transform="translate(512.958895 228.224352) scale(0.1 -0.1)">
       <use xlink:href="#IBMPlexSans-30"/>
       <use xlink:href="#IBMPlexSans-2e" transform="translate(59.999985 0)"/>
       <use xlink:href="#IBMPlexSans-32" transform="translate(87.199982 0)"/>
      </g>
     </g>
    </g>
    <g id="ytick_8">
     <g id="line2d_20">
      <g>
       <use xlink:href="#m1e464816f0" x="505.958895" y="178.683291" style="fill: #ff0000; stroke: #ff0000; stroke-width: 0.8"/>
      </g>
     </g>
     <g id="text_20">
      <!-- 0.4 -->
      <g style="fill: #ff0000" transform="translate(512.958895 182.383291) scale(0.1 -0.1)">
       <use xlink:href="#IBMPlexSans-30"/>
       <use xlink:href="#IBMPlexSans-2e" transform="translate(59.999985 0)"/>
       <use xlink:href="#IBMPlexSans-34" transform="translate(87.199982 0)"/>
      </g>
     </g>
    </g>
    <g id="ytick_9">
     <g id="line2d_21">
      <g>
       <use xlink:href="#m1e464816f0" x="505.958895" y="132.842229" style="fill: #ff0000; stroke: #ff0000; stroke-width: 0.8"/>
      </g>
     </g>
     <g id="text_21">
      <!-- 0.6 -->
      <g style="fill: #ff0000" transform="translate(512.958895 136.542229) scale(0.1 -0.1)">
       <use xlink:href="#IBMPlexSans-30"/>
       <use xlink:href="#IBMPlexSans-2e" transform="translate(59.999985 0)"/>
       <use xlink:href="#IBMPlexSans-36" transform="translate(87.199982 0)"/>
      </g>
     </g>
    </g>
    <g id="ytick_10">
     <g id="line2d_22">
      <g>
       <use xlink:href="#m1e464816f0" x="505.958895" y="87.001168" style="fill: #ff0000; stroke: #ff0000; stroke-width: 0.8"/>
      </g>
     </g>
     <g id="text_22">
      <!-- 0.8 -->
      <g style="fill: #ff0000" transform="translate(512.958895 90.701168) scale(0.1 -0.1)">
       <use xlink:href="#IBMPlexSans-30"/>
       <use xlink:href="#IBMPlexSans-2e" transform="translate(59.999985 0)"/>
       <use xlink:href="#IBMPlexSans-38" transform="translate(87.199982 0)"/>
      </g>
     </g>
    </g>
    <g id="ytick_11">
     <g id="line2d_23">
      <g>
       <use xlink:href="#m1e464816f0" x="505.958895" y="41.160106" style="fill: #ff0000; stroke: #ff0000; stroke-width: 0.8"/>
      </g>
     </g>
     <g id="text_23">
      <!-- 1.0 -->
      <g style="fill: #ff0000" transform="translate(512.958895 44.860106) scale(0.1 -0.1)">
       <use xlink:href="#IBMPlexSans-31"/>
       <use xlink:href="#IBMPlexSans-2e" transform="translate(59.999985 0)"/>
       <use xlink:href="#IBMPlexSans-30" transform="translate(87.199982 0)"/>
      </g>
     </g>
    </g>
    <g id="text_24">
     <!-- Fitting weight -->
     <g style="fill: #d62728" transform="translate(539.079207 186.296354) rotate(-90) scale(0.1 -0.1)">
      <defs>
       <path id="IBMPlexSans-77" d="M 1082 0 
L 1702 0 
L 2163 1587 
L 2445 2592 
L 2458 2592 
L 2746 1587 
L 3206 0 
L 3840 0 
L 4717 3302 
L 4237 3302 
L 3878 1875 
L 3539 429 
L 3526 429 
L 3117 1875 
L 2688 3302 
L 2234 3302 
L 1818 1875 
L 1414 429 
L 1402 429 
L 1050 1875 
L 698 3302 
L 198 3302 
L 1082 0 
z
" transform="scale(0.015625)"/>
       <path id="IBMPlexSans-68" d="M 544 0 
L 1056 0 
L 1056 2291 
C 1056 2714 1453 2918 1862 2918 
C 2355 2918 2611 2618 2611 2029 
L 2611 0 
L 3123 0 
L 3123 2118 
C 3123 2918 2694 3379 2016 3379 
C 1523 3379 1242 3136 1082 2765 
L 1056 2765 
L 1056 4736 
L 544 4736 
L 544 0 
z
" transform="scale(0.015625)"/>
      </defs>
      <use xlink:href="#IBMPlexSans-46"/>
      <use xlink:href="#IBMPlexSans-69" transform="translate(55.899994 0)"/>
      <use xlink:href="#IBMPlexSans-74" transform="translate(80.899979 0)"/>
      <use xlink:href="#IBMPlexSans-74" transform="translate(115.999969 0)"/>
      <use xlink:href="#IBMPlexSans-69" transform="translate(151.09996 0)"/>
      <use xlink:href="#IBMPlexSans-6e" transform="translate(176.099945 0)"/>
      <use xlink:href="#IBMPlexSans-67" transform="translate(232.899933 0)"/>
      <use xlink:href="#IBMPlexSans-20" transform="translate(285.699921 0)"/>
      <use xlink:href="#IBMPlexSans-77" transform="translate(309.299911 0)"/>
      <use xlink:href="#IBMPlexSans-65" transform="translate(386.099899 0)"/>
      <use xlink:href="#IBMPlexSans-69" transform="translate(440.999893 0)"/>
      <use xlink:href="#IBMPlexSans-67" transform="translate(465.999878 0)"/>
      <use xlink:href="#IBMPlexSans-68" transform="translate(518.799866 0)"/>
      <use xlink:href="#IBMPlexSans-74" transform="translate(575.599854 0)"/>
     </g>
    </g>
   </g>
   <g id="line2d_24">
    <path d="M 47.063828 41.160106 
L 116.176458 41.267664 
L 127.69523 41.528153 
L 135.374411 41.918761 
L 141.773729 42.479617 
L 146.893183 43.156128 
L 150.732774 43.840443 
L 154.572364 44.713906 
L 158.411955 45.81486 
L 162.251545 47.185475 
L 166.091136 48.870998 
L 168.650863 50.192904 
L 171.21059 51.689904 
L 173.770317 53.376013 
L 176.330044 55.264808 
L 178.889771 57.369131 
L 181.449498 59.700758 
L 184.009225 62.270058 
L 186.568952 65.085648 
L 189.128679 68.154065 
L 191.688406 71.479445 
L 194.248133 75.063254 
L 198.087724 80.919533 
L 201.927315 87.335391 
L 205.766905 94.276827 
L 209.606496 101.694083 
L 214.72595 112.211051 
L 219.845404 123.273206 
L 228.804449 143.301888 
L 237.763493 163.176099 
L 242.882947 174.052292 
L 248.002401 184.379473 
L 251.841992 191.693565 
L 255.681583 198.598593 
L 259.521173 205.071932 
L 263.360764 211.101792 
L 267.200354 216.685945 
L 271.039945 221.830265 
L 274.879536 226.547207 
L 278.719126 230.854326 
L 282.558717 234.772888 
L 286.398307 238.326644 
L 290.237898 241.540774 
L 294.077488 244.441014 
L 297.917079 247.052962 
L 301.75667 249.40155 
L 305.59626 251.510655 
L 309.435851 253.402837 
L 313.275441 255.099175 
L 318.394895 257.089812 
L 323.514349 258.808675 
L 328.633804 260.292775 
L 333.753258 261.574535 
L 340.152575 262.934811 
L 346.551893 264.069631 
L 354.231074 265.188133 
L 361.910255 266.09233 
L 370.8693 266.933674 
L 381.108208 267.677928 
L 393.906843 268.367587 
L 409.265206 268.947768 
L 428.463159 269.424826 
L 452.780566 269.790466 
L 487.336881 270.065935 
L 501.415379 270.132506 
L 501.415379 270.132506 
" clip-path="url(#pd92d4c8de7)" style="fill: none; stroke-dasharray: 1.5,2.475; stroke-dashoffset: 0; stroke: #d62728; stroke-width: 1.5"/>
   </g>
   <g id="patch_7">
    <path d="M 42.520313 274.94952 
L 42.520313 36.576 
" style="fill: none; stroke: #000000; stroke-width: 0.8; stroke-linejoin: miter; stroke-linecap: square"/>
   </g>
   <g id="patch_8">
    <path d="M 505.958895 274.94952 
L 505.958895 36.576 
" style="fill: none; stroke: #ff0000; stroke-width: 0.8; stroke-linejoin: miter; stroke-linecap: square"/>
   </g>
   <g id="patch_9">
    <path d="M 42.520313 274.94952 
L 505.958895 274.94952 
" style="fill: none; stroke: #000000; stroke-width: 0.8; stroke-linejoin: miter; stroke-linecap: square"/>
   </g>
  </g>
 </g>
 <defs>
  <clipPath id="pd92d4c8de7">
   <rect x="42.520313" y="36.576" width="463.438582" height="238.37352"/>
  </clipPath>
 </defs>
</svg>