<?xml version="1.0" encoding="utf-8" standalone="no"?>
<!DOCTYPE svg PUBLIC "-//W3C//DTD SVG 1.1//EN"
  "http://www.w3.org/Graphics/SVG/1.1/DTD/svg11.dtd">
<svg xmlns:xlink="http://www.w3.org/1999/xlink" width="548.39952pt" height="312.14952pt" viewBox="0 0 548.39952 312.14952" xmlns="http://www.w3.org/2000/svg" version="1.1">
 <metadata>
  <rdf:RDF xmlns:dc="http://purl.org/dc/elements/1.1/" xmlns:cc="http://creativecommons.org/ns#" xmlns:rdf="http://www.w3.org/1999/02/22-rdf-syntax-ns#">
   <cc:Work>
    <dc:type rdf:resource="http://purl.org/dc/dcmitype/StillImage"/>
    <dc:date>2025-06-25T08:39:05.095611</dc:date>
    <dc:format>image/svg+xml</dc:format>
    <dc:creator>
     <cc:Agent>
      <dc:title>Matplotlib v3.10.1, https://matplotlib.org/</dc:title>
     </cc:Agent>
    </dc:creator>
   </cc:Work>
  </rdf:RDF>
 </metadata>
 <defs>
  <style type="text/css">*{stroke-linejoin: round; stroke-linecap: butt}</style>
 </defs>
 <g id="figure_1">
  <g id="patch_1">
   <path d="M 0 312.14952 
L 548.39952 312.14952 
L 548.39952 0 
L 0 0 
z
" style="fill: #ffffff"/>
  </g>
  <g id="axes_1">
   <g id="patch_2">
    <path d="M 53.5 274.94952 
L 541.19952 274.94952 
L 541.19952 22.32 
L 53.5 22.32 
z
" style="fill: #ffffff"/>
   </g>
   <g id="matplotlib.axis_1">
    <g id="xtick_1">
     <g id="line2d_1">
      <defs>
       <path id="m8db2b3f1b9" d="M 0 0 
L 0 3.5 
" style="stroke: #000000; stroke-width: 0.8"/>
      </defs>
      <g>
       <use xlink:href="#m8db2b3f1b9" x="75.66816" y="274.94952" style="stroke: #000000; stroke-width: 0.8"/>
      </g>
     </g>
     <g id="text_1">
      <!-- 0 -->
      <g transform="translate(72.66816 289.34952) scale(0.1 -0.1)">
       <defs>
        <path id="IBMPlexSans-30" d="M 1920 -77 
C 2989 -77 3456 774 3456 2234 
C 3456 3693 2989 4544 1920 4544 
C 851 4544 384 3693 384 2234 
C 384 774 851 -77 1920 -77 
z
M 1920 390 
C 1222 390 947 1005 947 1869 
L 947 2598 
C 947 3462 1222 4077 1920 4077 
C 2618 4077 2893 3462 2893 2598 
L 2893 1869 
C 2893 1005 2618 390 1920 390 
z
" transform="scale(0.015625)"/>
       </defs>
       <use xlink:href="#IBMPlexSans-30"/>
      </g>
     </g>
    </g>
    <g id="xtick_2">
     <g id="line2d_2">
      <g>
       <use xlink:href="#m8db2b3f1b9" x="164.3408" y="274.94952" style="stroke: #000000; stroke-width: 0.8"/>
      </g>
     </g>
     <g id="text_2">
      <!-- 20 -->
      <g transform="translate(158.3408 289.34952) scale(0.1 -0.1)">
       <defs>
        <path id="IBMPlexSans-32" d="M 3411 474 
L 1062 474 
L 2266 1555 
C 2835 2067 3245 2554 3245 3245 
C 3245 4006 2746 4544 1875 4544 
C 1011 4544 614 4019 442 3494 
L 922 3309 
C 1043 3731 1299 4064 1850 4064 
C 2400 4064 2675 3725 2675 3232 
L 2675 3155 
C 2675 2726 2355 2278 1939 1894 
L 480 550 
L 480 0 
L 3411 0 
L 3411 474 
z
" transform="scale(0.015625)"/>
       </defs>
       <use xlink:href="#IBMPlexSans-32"/>
       <use xlink:href="#IBMPlexSans-30" transform="translate(59.999985 0)"/>
      </g>
     </g>
    </g>
    <g id="xtick_3">
     <g id="line2d_3">
      <g>
       <use xlink:href="#m8db2b3f1b9" x="253.01344" y="274.94952" style="stroke: #000000; stroke-width: 0.8"/>
      </g>
     </g>
     <g id="text_3">
      <!-- 40 -->
      <g transform="translate(247.01344 289.34952) scale(0.1 -0.1)">
       <defs>
        <path id="IBMPlexSans-34" d="M 2912 0 
L 2912 877 
L 3558 877 
L 3558 1325 
L 2912 1325 
L 2912 4467 
L 2112 4467 
L 243 1350 
L 243 877 
L 2400 877 
L 2400 0 
L 2912 0 
z
M 2368 4051 
L 2400 4051 
L 2400 1325 
L 749 1325 
L 2368 4051 
z
" transform="scale(0.015625)"/>
       </defs>
       <use xlink:href="#IBMPlexSans-34"/>
       <use xlink:href="#IBMPlexSans-30" transform="translate(59.999985 0)"/>
      </g>
     </g>
    </g>
    <g id="xtick_4">
     <g id="line2d_4">
      <g>
       <use xlink:href="#m8db2b3f1b9" x="341.68608" y="274.94952" style="stroke: #000000; stroke-width: 0.8"/>
      </g>
     </g>
     <g id="text_4">
      <!-- 60 -->
      <g transform="translate(335.68608 289.34952) scale(0.1 -0.1)">
       <defs>
        <path id="IBMPlexSans-36" d="M 1926 -77 
C 2822 -77 3411 525 3411 1402 
C 3411 2246 2861 2778 2093 2778 
C 1549 2778 1229 2502 1018 2138 
L 986 2150 
C 1229 3187 1760 3770 2714 4467 
L 2022 4467 
C 1306 4000 429 2963 429 1638 
C 429 576 998 -77 1926 -77 
z
M 1920 390 
C 1331 390 986 730 986 1331 
L 986 1382 
C 986 1984 1331 2323 1920 2323 
C 2509 2323 2854 1984 2854 1382 
L 2854 1331 
C 2854 730 2509 390 1920 390 
z
" transform="scale(0.015625)"/>
       </defs>
       <use xlink:href="#IBMPlexSans-36"/>
       <use xlink:href="#IBMPlexSans-30" transform="translate(59.999985 0)"/>
      </g>
     </g>
    </g>
    <g id="xtick_5">
     <g id="line2d_5">
      <g>
       <use xlink:href="#m8db2b3f1b9" x="430.35872" y="274.94952" style="stroke: #000000; stroke-width: 0.8"/>
      </g>
     </g>
     <g id="text_5">
      <!-- 80 -->
      <g transform="translate(424.35872 289.34952) scale(0.1 -0.1)">
       <defs>
        <path id="IBMPlexSans-38" d="M 1920 -77 
C 2938 -77 3469 480 3469 1216 
C 3469 1824 3104 2176 2566 2323 
L 2566 2374 
C 3034 2534 3334 2912 3334 3424 
C 3334 4102 2810 4544 1920 4544 
C 1030 4544 506 4102 506 3424 
C 506 2912 806 2534 1274 2374 
L 1274 2323 
C 736 2176 371 1824 371 1216 
C 371 480 902 -77 1920 -77 
z
M 1920 390 
C 1299 390 941 685 941 1190 
L 941 1325 
C 941 1830 1299 2125 1920 2125 
C 2541 2125 2899 1830 2899 1325 
L 2899 1190 
C 2899 685 2541 390 1920 390 
z
M 1920 2573 
C 1363 2573 1062 2822 1062 3277 
L 1062 3373 
C 1062 3827 1363 4077 1920 4077 
C 2477 4077 2778 3827 2778 3373 
L 2778 3277 
C 2778 2822 2477 2573 1920 2573 
z
" transform="scale(0.015625)"/>
       </defs>
       <use xlink:href="#IBMPlexSans-38"/>
       <use xlink:href="#IBMPlexSans-30" transform="translate(59.999985 0)"/>
      </g>
     </g>
    </g>
    <g id="xtick_6">
     <g id="line2d_6">
      <g>
       <use xlink:href="#m8db2b3f1b9" x="519.03136" y="274.94952" style="stroke: #000000; stroke-width: 0.8"/>
      </g>
     </g>
     <g id="text_6">
      <!-- 100 -->
      <g transform="translate(510.03136 289.34952) scale(0.1 -0.1)">
       <defs>
        <path id="IBMPlexSans-31" d="M 3501 0 
L 3501 474 
L 2349 474 
L 2349 4467 
L 1510 4467 
L 326 3360 
L 640 3021 
L 1766 4070 
L 1811 4070 
L 1811 474 
L 563 474 
L 563 0 
L 3501 0 
z
" transform="scale(0.015625)"/>
       </defs>
       <use xlink:href="#IBMPlexSans-31"/>
       <use xlink:href="#IBMPlexSans-30" transform="translate(59.999985 0)"/>
       <use xlink:href="#IBMPlexSans-30" transform="translate(119.999969 0)"/>
      </g>
     </g>
    </g>
    <g id="text_7">
     <!-- Time [ps] -->
     <g transform="translate(276.444291 302.94952) scale(0.1 -0.1)">
      <defs>
       <path id="IBMPlexSans-54" d="M 3520 3994 
L 3520 4467 
L 141 4467 
L 141 3994 
L 1562 3994 
L 1562 0 
L 2099 0 
L 2099 3994 
L 3520 3994 
z
" transform="scale(0.015625)"/>
       <path id="IBMPlexSans-69" d="M 800 4077 
C 1018 4077 1114 4192 1114 4365 
L 1114 4448 
C 1114 4621 1018 4736 800 4736 
C 582 4736 486 4621 486 4448 
L 486 4365 
C 486 4192 582 4077 800 4077 
z
M 544 0 
L 1056 0 
L 1056 3302 
L 544 3302 
L 544 0 
z
" transform="scale(0.015625)"/>
       <path id="IBMPlexSans-6d" d="M 1056 0 
L 1056 2291 
C 1056 2714 1440 2918 1843 2918 
C 2330 2918 2554 2618 2554 2029 
L 2554 0 
L 3066 0 
L 3066 2291 
C 3066 2714 3437 2918 3840 2918 
C 4339 2918 4563 2611 4563 2029 
L 4563 0 
L 5075 0 
L 5075 2118 
C 5075 2918 4672 3379 4000 3379 
C 3437 3379 3117 3066 2995 2707 
L 2982 2707 
C 2803 3181 2406 3379 1971 3379 
C 1459 3379 1229 3104 1082 2765 
L 1056 2765 
L 1056 3302 
L 544 3302 
L 544 0 
L 1056 0 
z
" transform="scale(0.015625)"/>
       <path id="IBMPlexSans-65" d="M 1786 -77 
C 2406 -77 2880 230 3091 678 
L 2726 941 
C 2554 576 2234 371 1818 371 
C 1203 371 838 800 838 1370 
L 838 1523 
L 3213 1523 
L 3213 1766 
C 3213 2701 2669 3379 1786 3379 
C 890 3379 301 2701 301 1651 
C 301 602 890 -77 1786 -77 
z
M 1786 2950 
C 2310 2950 2662 2560 2662 1978 
L 2662 1907 
L 838 1907 
L 838 1952 
C 838 2528 1229 2950 1786 2950 
z
" transform="scale(0.015625)"/>
       <path id="IBMPlexSans-20" transform="scale(0.015625)"/>
       <path id="IBMPlexSans-5b" d="M 1645 -883 
L 1645 -480 
L 1037 -480 
L 1037 4461 
L 1645 4461 
L 1645 4864 
L 595 4864 
L 595 -883 
L 1645 -883 
z
" transform="scale(0.015625)"/>
       <path id="IBMPlexSans-70" d="M 544 -1280 
L 1056 -1280 
L 1056 538 
L 1082 538 
C 1280 128 1594 -77 2048 -77 
C 2874 -77 3392 595 3392 1651 
C 3392 2707 2874 3379 2048 3379 
C 1594 3379 1254 3181 1082 2765 
L 1056 2765 
L 1056 3302 
L 544 3302 
L 544 -1280 
z
M 1907 384 
C 1440 384 1056 627 1056 1056 
L 1056 2285 
C 1056 2650 1440 2918 1907 2918 
C 2483 2918 2842 2522 2842 1933 
L 2842 1370 
C 2842 781 2483 384 1907 384 
z
" transform="scale(0.015625)"/>
       <path id="IBMPlexSans-73" d="M 1536 -77 
C 2291 -77 2758 314 2758 954 
C 2758 1453 2477 1773 1747 1882 
L 1491 1920 
C 1082 1984 858 2112 858 2432 
C 858 2746 1082 2944 1504 2944 
C 1926 2944 2208 2746 2355 2541 
L 2694 2848 
C 2426 3181 2074 3379 1542 3379 
C 870 3379 365 3059 365 2406 
C 365 1792 819 1542 1427 1453 
L 1690 1414 
C 2125 1350 2266 1152 2266 896 
C 2266 557 2010 358 1574 358 
C 1158 358 851 544 595 864 
L 230 570 
C 525 179 928 -77 1536 -77 
z
" transform="scale(0.015625)"/>
       <path id="IBMPlexSans-5d" d="M 384 4864 
L 384 4461 
L 992 4461 
L 992 -480 
L 384 -480 
L 384 -883 
L 1434 -883 
L 1434 4864 
L 384 4864 
z
" transform="scale(0.015625)"/>
      </defs>
      <use xlink:href="#IBMPlexSans-54"/>
      <use xlink:href="#IBMPlexSans-69" transform="translate(57.199997 0)"/>
      <use xlink:href="#IBMPlexSans-6d" transform="translate(82.199982 0)"/>
      <use xlink:href="#IBMPlexSans-65" transform="translate(169.499969 0)"/>
      <use xlink:href="#IBMPlexSans-20" transform="translate(224.399963 0)"/>
      <use xlink:href="#IBMPlexSans-5b" transform="translate(247.999954 0)"/>
      <use xlink:href="#IBMPlexSans-70" transform="translate(279.699951 0)"/>
      <use xlink:href="#IBMPlexSans-73" transform="translate(337.699936 0)"/>
      <use xlink:href="#IBMPlexSans-5d" transform="translate(386.399933 0)"/>
     </g>
    </g>
   </g>
   <g id="matplotlib.axis_2">
    <g id="ytick_1">
     <g id="line2d_7">
      <defs>
       <path id="m5fe43f0d2d" d="M 0 0 
L -3.5 0 
" style="stroke: #000000; stroke-width: 0.8"/>
      </defs>
      <g>
       <use xlink:href="#m5fe43f0d2d" x="53.5" y="260.677416" style="stroke: #000000; stroke-width: 0.8"/>
      </g>
     </g>
     <g id="text_8">
      <!-- 975 -->
      <g transform="translate(28.5 264.377416) scale(0.1 -0.1)">
       <defs>
        <path id="IBMPlexSans-39" d="M 3411 2829 
C 3411 3891 2842 4544 1914 4544 
C 1018 4544 429 3942 429 3066 
C 429 2221 979 1690 1747 1690 
C 2291 1690 2611 1965 2822 2330 
L 2854 2317 
C 2611 1280 2080 698 1126 0 
L 1818 0 
C 2534 467 3411 1504 3411 2829 
z
M 1920 2144 
C 1331 2144 986 2483 986 3085 
L 986 3136 
C 986 3738 1331 4077 1920 4077 
C 2509 4077 2854 3738 2854 3136 
L 2854 3085 
C 2854 2483 2509 2144 1920 2144 
z
" transform="scale(0.015625)"/>
        <path id="IBMPlexSans-37" d="M 1696 0 
L 3373 3994 
L 3373 4467 
L 442 4467 
L 442 3174 
L 922 3174 
L 922 4006 
L 2829 4006 
L 1120 0 
L 1696 0 
z
" transform="scale(0.015625)"/>
        <path id="IBMPlexSans-35" d="M 3187 4467 
L 794 4467 
L 634 2010 
L 1088 1946 
C 1274 2150 1478 2323 1888 2323 
C 2496 2323 2822 1984 2822 1395 
L 2822 1331 
C 2822 742 2496 403 1888 403 
C 1350 403 1126 640 896 992 
L 493 685 
C 762 301 1146 -77 1888 -77 
C 2829 -77 3392 531 3392 1402 
C 3392 2266 2829 2784 2061 2784 
C 1594 2784 1357 2592 1146 2291 
L 1101 2291 
L 1229 3994 
L 3187 3994 
L 3187 4467 
z
" transform="scale(0.015625)"/>
       </defs>
       <use xlink:href="#IBMPlexSans-39"/>
       <use xlink:href="#IBMPlexSans-37" transform="translate(59.999985 0)"/>
       <use xlink:href="#IBMPlexSans-35" transform="translate(119.999969 0)"/>
      </g>
     </g>
    </g>
    <g id="ytick_2">
     <g id="line2d_8">
      <g>
       <use xlink:href="#m5fe43f0d2d" x="53.5" y="231.105609" style="stroke: #000000; stroke-width: 0.8"/>
      </g>
     </g>
     <g id="text_9">
      <!-- 980 -->
      <g transform="translate(28.5 234.805609) scale(0.1 -0.1)">
       <use xlink:href="#IBMPlexSans-39"/>
       <use xlink:href="#IBMPlexSans-38" transform="translate(59.999985 0)"/>
       <use xlink:href="#IBMPlexSans-30" transform="translate(119.999969 0)"/>
      </g>
     </g>
    </g>
    <g id="ytick_3">
     <g id="line2d_9">
      <g>
       <use xlink:href="#m5fe43f0d2d" x="53.5" y="201.533802" style="stroke: #000000; stroke-width: 0.8"/>
      </g>
     </g>
     <g id="text_10">
      <!-- 985 -->
      <g transform="translate(28.5 205.233802) scale(0.1 -0.1)">
       <use xlink:href="#IBMPlexSans-39"/>
       <use xlink:href="#IBMPlexSans-38" transform="translate(59.999985 0)"/>
       <use xlink:href="#IBMPlexSans-35" transform="translate(119.999969 0)"/>
      </g>
     </g>
    </g>
    <g id="ytick_4">
     <g id="line2d_10">
      <g>
       <use xlink:href="#m5fe43f0d2d" x="53.5" y="171.961995" style="stroke: #000000; stroke-width: 0.8"/>
      </g>
     </g>
     <g id="text_11">
      <!-- 990 -->
      <g transform="translate(28.5 175.661995) scale(0.1 -0.1)">
       <use xlink:href="#IBMPlexSans-39"/>
       <use xlink:href="#IBMPlexSans-39" transform="translate(59.999985 0)"/>
       <use xlink:href="#IBMPlexSans-30" transform="translate(119.999969 0)"/>
      </g>
     </g>
    </g>
    <g id="ytick_5">
     <g id="line2d_11">
      <g>
       <use xlink:href="#m5fe43f0d2d" x="53.5" y="142.390189" style="stroke: #000000; stroke-width: 0.8"/>
      </g>
     </g>
     <g id="text_12">
      <!-- 995 -->
      <g transform="translate(28.5 146.090189) scale(0.1 -0.1)">
       <use xlink:href="#IBMPlexSans-39"/>
       <use xlink:href="#IBMPlexSans-39" transform="translate(59.999985 0)"/>
       <use xlink:href="#IBMPlexSans-35" transform="translate(119.999969 0)"/>
      </g>
     </g>
    </g>
    <g id="ytick_6">
     <g id="line2d_12">
      <g>
       <use xlink:href="#m5fe43f0d2d" x="53.5" y="112.818382" style="stroke: #000000; stroke-width: 0.8"/>
      </g>
     </g>
     <g id="text_13">
      <!-- 1000 -->
      <g transform="translate(22.5 116.518382) scale(0.1 -0.1)">
       <use xlink:href="#IBMPlexSans-31"/>
       <use xlink:href="#IBMPlexSans-30" transform="translate(59.999985 0)"/>
       <use xlink:href="#IBMPlexSans-30" transform="translate(119.999969 0)"/>
       <use xlink:href="#IBMPlexSans-30" transform="translate(179.999954 0)"/>
      </g>
     </g>
    </g>
    <g id="ytick_7">
     <g id="line2d_13">
      <g>
       <use xlink:href="#m5fe43f0d2d" x="53.5" y="83.246575" style="stroke: #000000; stroke-width: 0.8"/>
      </g>
     </g>
     <g id="text_14">
      <!-- 1005 -->
      <g transform="translate(22.5 86.946575) scale(0.1 -0.1)">
       <use xlink:href="#IBMPlexSans-31"/>
       <use xlink:href="#IBMPlexSans-30" transform="translate(59.999985 0)"/>
       <use xlink:href="#IBMPlexSans-30" transform="translate(119.999969 0)"/>
       <use xlink:href="#IBMPlexSans-35" transform="translate(179.999954 0)"/>
      </g>
     </g>
    </g>
    <g id="ytick_8">
     <g id="line2d_14">
      <g>
       <use xlink:href="#m5fe43f0d2d" x="53.5" y="53.674768" style="stroke: #000000; stroke-width: 0.8"/>
      </g>
     </g>
     <g id="text_15">
      <!-- 1010 -->
      <g transform="translate(22.5 57.374768) scale(0.1 -0.1)">
       <use xlink:href="#IBMPlexSans-31"/>
       <use xlink:href="#IBMPlexSans-30" transform="translate(59.999985 0)"/>
       <use xlink:href="#IBMPlexSans-31" transform="translate(119.999969 0)"/>
       <use xlink:href="#IBMPlexSans-30" transform="translate(179.999954 0)"/>
      </g>
     </g>
    </g>
    <g id="ytick_9">
     <g id="line2d_15">
      <g>
       <use xlink:href="#m5fe43f0d2d" x="53.5" y="24.102961" style="stroke: #000000; stroke-width: 0.8"/>
      </g>
     </g>
     <g id="text_16">
      <!-- 1015 -->
      <g transform="translate(22.5 27.802961) scale(0.1 -0.1)">
       <use xlink:href="#IBMPlexSans-31"/>
       <use xlink:href="#IBMPlexSans-30" transform="translate(59.999985 0)"/>
       <use xlink:href="#IBMPlexSans-31" transform="translate(119.999969 0)"/>
       <use xlink:href="#IBMPlexSans-35" transform="translate(179.999954 0)"/>
      </g>
     </g>
    </g>
    <g id="text_17">
     <!-- Density [kg m$^{-3}$] -->
     <g transform="translate(16.3 186.03476) rotate(-90) scale(0.1 -0.1)">
      <defs>
       <path id="IBMPlexSans-44" d="M 595 0 
L 2093 0 
C 3206 0 3923 742 3923 2234 
C 3923 3725 3206 4467 2093 4467 
L 595 4467 
L 595 0 
z
M 1133 474 
L 1133 3994 
L 2093 3994 
C 2829 3994 3347 3482 3347 2598 
L 3347 1869 
C 3347 986 2829 474 2093 474 
L 1133 474 
z
" transform="scale(0.015625)"/>
       <path id="IBMPlexSans-6e" d="M 1056 0 
L 1056 2291 
C 1056 2714 1453 2918 1862 2918 
C 2355 2918 2611 2618 2611 2029 
L 2611 0 
L 3123 0 
L 3123 2118 
C 3123 2918 2694 3379 2016 3379 
C 1523 3379 1242 3136 1082 2765 
L 1056 2765 
L 1056 3302 
L 544 3302 
L 544 0 
L 1056 0 
z
" transform="scale(0.015625)"/>
       <path id="IBMPlexSans-74" d="M 1914 0 
L 1914 448 
L 1242 448 
L 1242 2854 
L 1965 2854 
L 1965 3302 
L 1242 3302 
L 1242 4218 
L 781 4218 
L 781 3603 
C 781 3379 710 3302 493 3302 
L 186 3302 
L 186 2854 
L 730 2854 
L 730 544 
C 730 224 922 0 1274 0 
L 1914 0 
z
" transform="scale(0.015625)"/>
       <path id="IBMPlexSans-79" d="M 1779 1056 
L 1600 518 
L 1568 518 
L 1414 1056 
L 621 3302 
L 109 3302 
L 1344 -128 
L 1094 -832 
L 576 -832 
L 576 -1280 
L 838 -1280 
C 1325 -1280 1459 -1165 1606 -768 
L 3085 3302 
L 2579 3302 
L 1779 1056 
z
" transform="scale(0.015625)"/>
       <path id="IBMPlexSans-6b" d="M 544 0 
L 1056 0 
L 1056 1178 
L 1549 1683 
L 2643 0 
L 3264 0 
L 1920 1997 
L 3142 3302 
L 2522 3302 
L 1587 2298 
L 1082 1734 
L 1056 1734 
L 1056 4736 
L 544 4736 
L 544 0 
z
" transform="scale(0.015625)"/>
       <path id="IBMPlexSans-67" d="M 3328 -365 
C 3328 179 2976 512 2157 512 
L 1453 512 
C 1152 512 947 563 947 762 
C 947 966 1165 1075 1382 1133 
C 1478 1114 1594 1101 1702 1101 
C 2458 1101 2950 1568 2950 2240 
C 2950 2592 2810 2886 2573 3091 
L 2573 3302 
L 3200 3302 
L 3200 3750 
L 2707 3750 
C 2432 3750 2323 3565 2323 3309 
L 2323 3251 
C 2144 3334 1933 3379 1696 3379 
C 947 3379 454 2912 454 2240 
C 454 1779 685 1414 1075 1229 
L 1075 1203 
C 742 1120 506 960 506 627 
C 506 403 614 256 800 166 
L 800 96 
C 474 6 275 -186 275 -544 
C 275 -1062 698 -1357 1728 -1357 
C 2790 -1357 3328 -1043 3328 -365 
z
M 2848 -403 
C 2848 -762 2515 -941 1946 -941 
L 1472 -941 
C 954 -941 755 -704 755 -416 
C 755 -211 851 -64 1062 32 
L 2163 32 
C 2675 32 2848 -141 2848 -403 
z
M 1702 1510 
C 1267 1510 992 1715 992 2150 
L 992 2330 
C 992 2765 1267 2970 1702 2970 
C 2138 2970 2413 2765 2413 2330 
L 2413 2150 
C 2413 1715 2138 1510 1702 1510 
z
" transform="scale(0.015625)"/>
       <path id="DejaVuSans-2212" d="M 678 2272 
L 4684 2272 
L 4684 1741 
L 678 1741 
L 678 2272 
z
" transform="scale(0.015625)"/>
       <path id="DejaVuSans-33" d="M 2597 2516 
Q 3050 2419 3304 2112 
Q 3559 1806 3559 1356 
Q 3559 666 3084 287 
Q 2609 -91 1734 -91 
Q 1441 -91 1130 -33 
Q 819 25 488 141 
L 488 750 
Q 750 597 1062 519 
Q 1375 441 1716 441 
Q 2309 441 2620 675 
Q 2931 909 2931 1356 
Q 2931 1769 2642 2001 
Q 2353 2234 1838 2234 
L 1294 2234 
L 1294 2753 
L 1863 2753 
Q 2328 2753 2575 2939 
Q 2822 3125 2822 3475 
Q 2822 3834 2567 4026 
Q 2313 4219 1838 4219 
Q 1578 4219 1281 4162 
Q 984 4106 628 3988 
L 628 4550 
Q 988 4650 1302 4700 
Q 1616 4750 1894 4750 
Q 2613 4750 3031 4423 
Q 3450 4097 3450 3541 
Q 3450 3153 3228 2886 
Q 3006 2619 2597 2516 
z
" transform="scale(0.015625)"/>
      </defs>
      <use xlink:href="#IBMPlexSans-44" transform="translate(0 0.765625)"/>
      <use xlink:href="#IBMPlexSans-65" transform="translate(67.099991 0.765625)"/>
      <use xlink:href="#IBMPlexSans-6e" transform="translate(121.999985 0.765625)"/>
      <use xlink:href="#IBMPlexSans-73" transform="translate(178.799973 0.765625)"/>
      <use xlink:href="#IBMPlexSans-69" transform="translate(227.499969 0.765625)"/>
      <use xlink:href="#IBMPlexSans-74" transform="translate(252.499954 0.765625)"/>
      <use xlink:href="#IBMPlexSans-79" transform="translate(287.599945 0.765625)"/>
      <use xlink:href="#IBMPlexSans-20" transform="translate(337.499939 0.765625)"/>
      <use xlink:href="#IBMPlexSans-5b" transform="translate(361.09993 0.765625)"/>
      <use xlink:href="#IBMPlexSans-6b" transform="translate(392.799927 0.765625)"/>
      <use xlink:href="#IBMPlexSans-67" transform="translate(445.499924 0.765625)"/>
      <use xlink:href="#IBMPlexSans-20" transform="translate(498.299911 0.765625)"/>
      <use xlink:href="#IBMPlexSans-6d" transform="translate(521.899902 0.765625)"/>
      <use xlink:href="#DejaVuSans-2212" transform="translate(610.156921 39.046875) scale(0.7)"/>
      <use xlink:href="#DejaVuSans-33" transform="translate(668.809265 39.046875) scale(0.7)"/>
      <use xlink:href="#IBMPlexSans-5d" transform="translate(716.079773 0.765625)"/>
     </g>
    </g>
   </g>
   <g id="line2d_16">
    <path d="M 75.66816 130.11926 
L 77.884976 93.280503 
L 80.101792 83.02531 
L 82.318608 122.575183 
L 84.535424 84.942044 
L 86.75224 93.249513 
L 88.969056 88.567262 
L 91.185872 77.027381 
L 93.402688 144.389751 
L 95.619504 123.23073 
L 97.83632 89.697846 
L 102.269952 135.802105 
L 104.486768 139.927014 
L 106.703584 115.944828 
L 108.9204 121.328741 
L 111.137216 104.480103 
L 113.354032 98.928368 
L 115.570848 59.877501 
L 117.787664 85.409717 
L 120.00448 84.530523 
L 122.221296 73.594892 
L 124.438112 101.618024 
L 126.654928 85.810319 
L 128.871744 83.533304 
L 131.08856 104.614624 
L 133.305376 80.663518 
L 135.522192 101.65988 
L 137.739008 78.943664 
L 139.955824 97.960877 
L 142.17264 126.692133 
L 144.389456 115.609564 
L 146.606272 77.045358 
L 148.823088 137.309935 
L 151.039904 123.78984 
L 153.25672 74.610015 
L 155.473536 83.802797 
L 157.690352 76.781045 
L 159.907168 103.615186 
L 162.123984 81.82419 
L 164.3408 90.760185 
L 166.557616 91.974517 
L 168.774432 93.762652 
L 170.991248 92.965039 
L 173.208064 81.57549 
L 175.42488 75.422482 
L 177.641696 72.329174 
L 179.858512 101.013827 
L 182.075328 84.213019 
L 184.292144 36.458739 
L 186.50896 105.816412 
L 188.725776 128.454096 
L 190.942592 83.307419 
L 193.159408 116.382196 
L 195.376224 130.038238 
L 197.59304 72.982519 
L 199.809856 100.126709 
L 202.026672 52.592394 
L 204.243488 71.111124 
L 206.460304 86.400961 
L 208.67712 43.537039 
L 210.893936 131.742714 
L 213.110752 94.771764 
L 215.327568 106.938458 
L 217.544384 80.135651 
L 219.7612 106.433478 
L 221.978016 85.21836 
L 224.194832 108.892176 
L 226.411648 80.829192 
L 228.628464 97.257554 
L 230.84528 108.687462 
L 233.062096 66.201923 
L 235.278912 79.231386 
L 237.495728 75.771409 
L 239.712544 115.361857 
L 241.92936 72.018638 
L 244.146176 76.931196 
L 246.362992 112.449258 
L 248.579808 83.620536 
L 250.796624 108.313861 
L 255.230256 73.754826 
L 257.447072 90.460081 
L 259.663888 106.049066 
L 261.880704 114.068938 
L 264.09752 98.278435 
L 266.314336 85.659825 
L 268.531152 124.329421 
L 270.747968 107.845394 
L 272.964784 71.900109 
L 275.1816 110.32077 
L 277.398416 112.299233 
L 279.615232 121.90285 
L 281.832048 112.893791 
L 284.048864 131.421781 
L 286.26568 103.463013 
L 288.482496 109.656144 
L 290.699312 118.242238 
L 292.916128 58.705693 
L 295.132944 66.295038 
L 297.34976 95.555497 
L 299.566576 103.840927 
L 301.783392 110.310211 
L 304.000208 91.105449 
L 306.217024 94.114069 
L 308.43384 115.431815 
L 310.650656 111.895508 
L 312.867472 81.469884 
L 315.084288 75.32785 
L 317.301104 104.846989 
L 319.51792 112.0401 
L 321.734736 107.154363 
L 323.951552 124.602379 
L 326.168368 91.508722 
L 328.385184 112.554665 
L 330.602 94.031458 
L 332.818816 94.39764 
L 335.035632 77.803027 
L 337.252448 118.259656 
L 339.469264 131.731649 
L 341.68608 95.336289 
L 343.902896 67.93849 
L 346.119712 67.049441 
L 348.336528 99.139652 
L 350.553344 123.381404 
L 352.77016 78.485593 
L 354.986976 122.020748 
L 357.203792 71.427454 
L 359.420608 70.384499 
L 361.637424 118.773119 
L 363.85424 103.047953 
L 366.071056 135.921554 
L 368.287872 83.963038 
L 370.504688 92.342324 
L 372.721504 115.346623 
L 374.93832 102.68289 
L 377.155136 109.29451 
L 379.371952 112.771508 
L 381.588768 84.398186 
L 383.805584 116.405678 
L 386.0224 123.990312 
L 388.239216 61.935435 
L 390.456032 132.159018 
L 392.672848 86.300969 
L 394.889664 92.731194 
L 397.10648 76.921323 
L 399.323296 67.344617 
L 401.540112 115.184722 
L 403.756928 70.015628 
L 405.973744 92.86104 
L 408.19056 112.604517 
L 410.407376 85.194589 
L 412.624192 119.430579 
L 414.841008 84.886038 
L 417.057824 75.72717 
L 419.27464 89.85713 
L 421.491456 87.128849 
L 423.708272 106.606082 
L 425.925088 124.479301 
L 428.141904 84.883421 
L 430.35872 123.63384 
L 432.575536 112.347785 
L 434.792352 119.992216 
L 437.009168 33.80316 
L 439.225984 121.511255 
L 441.4428 76.059149 
L 443.659616 106.557891 
L 445.876432 101.462331 
L 448.093248 88.680412 
L 450.310064 105.499107 
L 452.52688 118.997976 
L 454.743696 122.94548 
L 456.960512 77.827826 
L 459.177328 77.142137 
L 461.394144 131.84397 
L 463.61096 92.301533 
L 465.827776 88.523547 
L 468.044592 73.743275 
L 470.261408 75.562652 
L 474.69504 119.431987 
L 476.911856 94.34685 
L 479.128672 98.227987 
L 481.345488 69.09196 
L 483.562304 106.061412 
L 485.77912 97.057533 
L 487.995936 113.230517 
L 490.212752 115.396872 
L 492.429568 85.413706 
L 494.646384 78.395564 
L 496.8632 107.324837 
L 499.080016 93.538553 
L 501.296832 102.595081 
L 503.513648 81.980406 
L 505.730464 84.309276 
L 507.94728 114.179779 
L 510.164096 116.322417 
L 512.380912 125.207189 
L 514.597728 73.913713 
L 516.814544 53.274329 
L 519.03136 80.007087 
L 519.03136 80.007087 
" clip-path="url(#p4693b9460f)" style="fill: none; stroke: #1f77b4; stroke-width: 1.5; stroke-linecap: square"/>
   </g>
   <g id="line2d_17">
    <path d="M 75.66816 130.11926 
L 77.884976 100.323138 
L 80.101792 86.547051 
L 82.318608 124.317454 
L 84.535424 128.995012 
L 86.75224 109.590607 
L 88.969056 107.43445 
L 91.185872 109.159376 
L 93.402688 154.736562 
L 95.619504 147.144925 
L 97.83632 131.650266 
L 100.053136 129.650775 
L 102.269952 152.938357 
L 104.486768 144.157855 
L 106.703584 130.509051 
L 108.9204 128.723985 
L 111.137216 127.89069 
L 113.354032 100.390642 
L 115.570848 97.542262 
L 117.787664 111.106163 
L 120.00448 119.379626 
L 122.221296 105.456186 
L 124.438112 111.284777 
L 126.654928 96.563057 
L 128.871744 97.922811 
L 131.08856 113.380867 
L 133.305376 93.961879 
L 135.522192 127.213051 
L 137.739008 99.228635 
L 139.955824 116.288737 
L 142.17264 135.99348 
L 144.389456 131.761593 
L 146.606272 106.724178 
L 148.823088 143.462889 
L 151.039904 127.437294 
L 153.25672 114.70705 
L 155.473536 109.898021 
L 157.690352 92.472603 
L 159.907168 126.628545 
L 162.123984 93.882029 
L 164.3408 114.976416 
L 166.557616 98.460677 
L 168.774432 139.872325 
L 170.991248 100.28769 
L 173.208064 134.453956 
L 175.42488 115.223185 
L 177.641696 86.367065 
L 179.858512 137.944166 
L 182.075328 132.473165 
L 184.292144 104.406878 
L 186.50896 115.454214 
L 188.725776 152.096326 
L 190.942592 100.391292 
L 193.159408 133.364218 
L 195.376224 149.395082 
L 197.59304 98.159617 
L 199.809856 109.79413 
L 202.026672 73.429977 
L 204.243488 93.674752 
L 206.460304 123.845792 
L 208.67712 98.836534 
L 210.893936 152.039651 
L 213.110752 118.306782 
L 215.327568 138.213676 
L 217.544384 117.34281 
L 219.7612 124.873514 
L 221.978016 103.97774 
L 224.194832 116.634415 
L 226.411648 124.141655 
L 228.628464 110.700561 
L 230.84528 129.69135 
L 233.062096 105.104371 
L 235.278912 118.748987 
L 237.495728 112.342966 
L 239.712544 134.619648 
L 241.92936 109.195186 
L 244.146176 91.779297 
L 246.362992 123.432105 
L 248.579808 111.293441 
L 250.796624 118.07799 
L 253.01344 104.882005 
L 255.230256 112.511329 
L 257.447072 111.366576 
L 259.663888 114.932232 
L 261.880704 144.950359 
L 264.09752 143.739619 
L 266.314336 140.246305 
L 268.531152 128.17695 
L 270.747968 120.093797 
L 272.964784 112.891878 
L 275.1816 125.656271 
L 277.398416 156.165409 
L 279.615232 147.577384 
L 281.832048 130.440464 
L 284.048864 149.845518 
L 286.26568 133.734154 
L 288.482496 114.872886 
L 290.699312 130.699795 
L 292.916128 83.92277 
L 295.132944 94.355568 
L 297.34976 109.552921 
L 299.566576 131.836028 
L 301.783392 111.438123 
L 304.000208 135.149067 
L 306.217024 97.982446 
L 308.43384 120.251114 
L 310.650656 117.752238 
L 312.867472 119.431969 
L 315.084288 105.023727 
L 317.301104 153.712306 
L 321.734736 119.54539 
L 323.951552 133.877826 
L 326.168368 101.762742 
L 328.385184 122.139204 
L 330.602 107.198583 
L 332.818816 102.766639 
L 335.035632 96.052265 
L 337.252448 144.06732 
L 339.469264 139.188044 
L 341.68608 104.56405 
L 343.902896 90.847814 
L 346.119712 101.837755 
L 348.336528 113.529231 
L 350.553344 150.418833 
L 352.77016 99.175065 
L 354.986976 139.194903 
L 357.203792 96.812786 
L 359.420608 140.002496 
L 361.637424 125.006428 
L 363.85424 118.130694 
L 366.071056 171.777821 
L 368.287872 139.659128 
L 370.504688 126.611507 
L 372.721504 119.205343 
L 374.93832 114.304408 
L 377.155136 135.751044 
L 379.371952 140.415101 
L 381.588768 125.406398 
L 383.805584 148.260582 
L 386.0224 135.015575 
L 388.239216 117.092576 
L 390.456032 161.745427 
L 392.672848 93.455635 
L 394.889664 103.529759 
L 397.10648 103.096217 
L 399.323296 101.664555 
L 401.540112 139.059967 
L 403.756928 108.719264 
L 405.973744 112.865021 
L 408.19056 126.860297 
L 410.407376 117.526551 
L 412.624192 144.001838 
L 414.841008 107.882359 
L 417.057824 95.076381 
L 419.27464 99.570775 
L 421.491456 105.692414 
L 423.708272 141.775577 
L 425.925088 153.373126 
L 428.141904 141.831313 
L 430.35872 134.271298 
L 432.575536 133.268629 
L 434.792352 146.006237 
L 437.009168 91.935964 
L 439.225984 127.545445 
L 441.4428 117.493774 
L 443.659616 135.897675 
L 445.876432 128.61504 
L 448.093248 99.498145 
L 450.310064 134.506154 
L 452.52688 123.678873 
L 454.743696 127.624933 
L 456.960512 118.081311 
L 459.177328 117.957927 
L 461.394144 144.238715 
L 463.61096 113.175323 
L 465.827776 132.350936 
L 468.044592 103.033334 
L 470.261408 120.133072 
L 472.478224 125.302363 
L 474.69504 142.476608 
L 476.911856 149.209753 
L 479.128672 119.667908 
L 481.345488 97.410431 
L 483.562304 109.590824 
L 485.77912 123.96831 
L 487.995936 143.058081 
L 490.212752 125.476501 
L 492.429568 115.264265 
L 494.646384 118.54828 
L 496.8632 125.810845 
L 499.080016 111.871665 
L 501.296832 125.377158 
L 503.513648 111.408017 
L 505.730464 112.2455 
L 507.94728 122.759086 
L 510.164096 130.485515 
L 512.380912 129.385091 
L 514.597728 123.575704 
L 516.814544 115.149761 
L 519.03136 98.127056 
L 519.03136 98.127056 
" clip-path="url(#p4693b9460f)" style="fill: none; stroke: #ff7f0e; stroke-width: 1.5; stroke-linecap: square"/>
   </g>
   <g id="line2d_18">
    <path d="M 75.66816 130.11926 
L 77.884976 154.868141 
L 80.101792 104.437958 
L 82.318608 166.344182 
L 84.535424 151.176177 
L 86.75224 126.216302 
L 88.969056 128.316146 
L 91.185872 135.771908 
L 93.402688 169.915577 
L 95.619504 171.426656 
L 97.83632 159.260052 
L 100.053136 155.289048 
L 102.269952 186.349372 
L 104.486768 188.089315 
L 106.703584 157.287817 
L 108.9204 167.136542 
L 111.137216 189.35294 
L 113.354032 148.613552 
L 115.570848 152.947887 
L 117.787664 130.339822 
L 120.00448 143.912097 
L 122.221296 154.366915 
L 124.438112 136.588815 
L 126.654928 103.395437 
L 128.871744 134.463522 
L 131.08856 167.807972 
L 133.305376 126.750558 
L 135.522192 152.719203 
L 137.739008 127.27236 
L 139.955824 122.663137 
L 142.17264 156.266593 
L 144.389456 144.152151 
L 146.606272 146.069157 
L 148.823088 160.821669 
L 151.039904 166.33245 
L 153.25672 158.898166 
L 155.473536 129.559013 
L 157.690352 109.127862 
L 159.907168 161.186082 
L 162.123984 141.401995 
L 164.3408 129.010859 
L 166.557616 141.773267 
L 168.774432 170.457234 
L 170.991248 133.332379 
L 173.208064 190.775758 
L 175.42488 137.053582 
L 177.641696 130.72806 
L 179.858512 178.779358 
L 182.075328 160.12858 
L 184.292144 164.759463 
L 186.50896 160.969312 
L 188.725776 173.392575 
L 190.942592 124.534297 
L 193.159408 159.19309 
L 195.376224 180.739501 
L 197.59304 132.495798 
L 199.809856 167.813929 
L 202.026672 119.76606 
L 204.243488 114.921294 
L 206.460304 174.843369 
L 208.67712 133.78758 
L 210.893936 162.12085 
L 213.110752 163.41588 
L 215.327568 164.106443 
L 217.544384 155.064877 
L 219.7612 143.846939 
L 221.978016 129.801595 
L 224.194832 148.738092 
L 226.411648 148.122434 
L 228.628464 135.291258 
L 230.84528 144.791815 
L 233.062096 128.683627 
L 235.278912 145.447181 
L 237.495728 138.849658 
L 239.712544 167.830173 
L 241.92936 142.735831 
L 244.146176 160.118111 
L 246.362992 142.549202 
L 248.579808 131.36628 
L 250.796624 131.696941 
L 253.01344 150.199355 
L 255.230256 130.528436 
L 257.447072 136.030553 
L 259.663888 127.844339 
L 261.880704 175.751064 
L 264.09752 189.077689 
L 266.314336 182.609218 
L 268.531152 153.399297 
L 270.747968 159.400295 
L 272.964784 148.329458 
L 275.1816 151.379953 
L 277.398416 168.624157 
L 279.615232 163.343503 
L 281.832048 149.843605 
L 284.048864 169.24162 
L 286.26568 166.584056 
L 288.482496 141.479967 
L 290.699312 166.646867 
L 292.916128 140.35821 
L 295.132944 148.250583 
L 297.34976 167.430564 
L 299.566576 148.291554 
L 301.783392 128.080784 
L 304.000208 154.306089 
L 306.217024 139.545635 
L 308.43384 133.784511 
L 310.650656 131.149148 
L 312.867472 150.544816 
L 315.084288 134.916015 
L 317.301104 158.107792 
L 319.51792 156.339331 
L 321.734736 136.85468 
L 323.951552 150.939733 
L 326.168368 132.682969 
L 328.385184 129.987682 
L 330.602 142.041659 
L 332.818816 150.044312 
L 335.035632 143.35564 
L 337.252448 158.18432 
L 339.469264 146.022048 
L 341.68608 133.131491 
L 343.902896 176.788712 
L 346.119712 167.983411 
L 348.336528 144.961838 
L 350.553344 168.27671 
L 352.77016 116.320287 
L 354.986976 164.899885 
L 357.203792 120.351756 
L 359.420608 149.868513 
L 361.637424 149.475762 
L 363.85424 137.488026 
L 366.071056 189.032747 
L 368.287872 155.917341 
L 370.504688 160.276764 
L 372.721504 138.385252 
L 374.93832 141.390263 
L 377.155136 166.665097 
L 379.371952 165.584853 
L 381.588768 154.84576 
L 383.805584 166.258088 
L 386.0224 161.241493 
L 388.239216 144.855709 
L 390.456032 176.317267 
L 392.672848 118.914679 
L 394.889664 140.50513 
L 397.10648 135.327176 
L 399.323296 141.07007 
L 401.540112 163.640773 
L 403.756928 129.931188 
L 405.973744 125.097793 
L 408.19056 144.942165 
L 410.407376 146.080889 
L 412.624192 162.237809 
L 414.841008 150.437965 
L 417.057824 140.112019 
L 419.27464 148.230548 
L 421.491456 132.867792 
L 423.708272 152.707471 
L 425.925088 170.48882 
L 428.141904 173.173097 
L 430.35872 146.194779 
L 432.575536 180.015909 
L 434.792352 173.030508 
L 437.009168 151.436627 
L 439.225984 144.218211 
L 441.4428 145.7255 
L 443.659616 156.680461 
L 445.876432 146.403067 
L 448.093248 150.252961 
L 450.310064 156.85969 
L 452.52688 141.728144 
L 454.743696 147.107166 
L 456.960512 157.846981 
L 459.177328 170.871282 
L 461.394144 161.809682 
L 463.61096 136.926155 
L 465.827776 173.099275 
L 468.044592 146.657922 
L 470.261408 160.551653 
L 472.478224 151.888218 
L 474.69504 160.888632 
L 476.911856 160.415201 
L 481.345488 138.059464 
L 483.562304 140.466144 
L 485.77912 133.978179 
L 487.995936 151.231588 
L 490.212752 169.880381 
L 492.429568 122.311719 
L 494.646384 168.484095 
L 496.8632 140.214899 
L 499.080016 128.917364 
L 501.296832 144.263515 
L 503.513648 139.116605 
L 505.730464 137.321252 
L 507.94728 144.271096 
L 510.164096 174.116889 
L 512.380912 170.350563 
L 514.597728 158.261029 
L 516.814544 156.125809 
L 519.03136 130.871732 
L 519.03136 130.871732 
" clip-path="url(#p4693b9460f)" style="fill: none; stroke: #2ca02c; stroke-width: 1.5; stroke-linecap: square"/>
   </g>
   <g id="line2d_19">
    <path d="M 75.66816 130.11926 
L 77.884976 176.073531 
L 80.101792 157.343011 
L 82.318608 183.255018 
L 84.535424 169.146248 
L 86.75224 189.385753 
L 88.969056 143.90892 
L 91.185872 203.232232 
L 93.402688 188.386838 
L 95.619504 195.24048 
L 97.83632 170.294683 
L 100.053136 190.467694 
L 102.269952 199.946917 
L 104.486768 198.720654 
L 106.703584 177.708788 
L 108.9204 191.791783 
L 111.137216 197.159759 
L 113.354032 181.909631 
L 115.570848 178.126663 
L 117.787664 164.208998 
L 120.00448 186.415505 
L 122.221296 190.595194 
L 124.438112 185.11589 
L 126.654928 136.811614 
L 128.871744 171.442756 
L 131.08856 185.88688 
L 133.305376 169.603976 
L 135.522192 176.575732 
L 137.739008 173.675442 
L 139.955824 165.004896 
L 142.17264 198.033196 
L 144.389456 182.432769 
L 146.606272 185.681624 
L 148.823088 199.235923 
L 151.039904 179.097493 
L 153.25672 169.402475 
L 155.473536 166.90591 
L 157.690352 159.376506 
L 159.907168 202.029722 
L 162.123984 161.821017 
L 164.3408 164.944467 
L 166.557616 179.280801 
L 168.774432 207.118802 
L 170.991248 168.196211 
L 173.208064 220.85944 
L 175.42488 203.797388 
L 177.641696 150.647047 
L 179.858512 206.840772 
L 182.075328 169.868505 
L 184.292144 202.829374 
L 186.50896 190.276589 
L 188.725776 191.081728 
L 190.942592 181.484319 
L 193.159408 186.817569 
L 195.376224 187.432902 
L 197.59304 160.905995 
L 199.809856 203.68635 
L 202.026672 161.5227 
L 204.243488 156.727822 
L 206.460304 245.597816 
L 208.67712 176.198214 
L 210.893936 174.2206 
L 213.110752 192.909967 
L 215.327568 196.206762 
L 217.544384 174.834489 
L 219.7612 183.226428 
L 221.978016 182.920314 
L 224.194832 156.83258 
L 226.411648 181.621999 
L 228.628464 200.708232 
L 230.84528 192.509347 
L 233.062096 185.331181 
L 235.278912 185.015031 
L 237.495728 170.541162 
L 239.712544 202.737828 
L 241.92936 204.634871 
L 244.146176 191.713811 
L 246.362992 177.90473 
L 248.579808 189.492171 
L 250.796624 160.081147 
L 253.01344 172.579134 
L 255.230256 147.936418 
L 257.447072 152.718157 
L 259.663888 157.161725 
L 261.880704 223.496428 
L 264.09752 213.12507 
L 266.314336 218.026727 
L 268.531152 161.19897 
L 270.747968 209.032017 
L 272.964784 216.824578 
L 275.1816 188.629492 
L 277.398416 185.637945 
L 279.615232 183.35992 
L 281.832048 169.966837 
L 284.048864 203.890811 
L 286.26568 183.585102 
L 288.482496 191.405892 
L 290.699312 214.598317 
L 292.916128 188.490441 
L 295.132944 184.537016 
L 297.34976 208.354306 
L 299.566576 180.246 
L 301.783392 144.842497 
L 304.000208 169.024885 
L 306.217024 160.8125 
L 308.43384 223.876688 
L 310.650656 180.042477 
L 312.867472 196.677413 
L 315.084288 156.671003 
L 317.301104 169.065243 
L 319.51792 175.509457 
L 321.734736 186.481132 
L 323.951552 200.731768 
L 326.168368 164.56926 
L 328.385184 155.707032 
L 330.602 178.845021 
L 332.818816 205.741287 
L 335.035632 173.319656 
L 337.252448 168.666934 
L 339.469264 164.955658 
L 341.68608 195.068868 
L 343.902896 196.217158 
L 346.119712 212.566772 
L 348.336528 177.433429 
L 350.553344 213.253797 
L 352.77016 148.023055 
L 354.986976 205.059966 
L 357.203792 149.34931 
L 359.420608 168.218953 
L 361.637424 167.922729 
L 363.85424 161.109157 
L 366.071056 219.92969 
L 368.287872 177.627567 
L 370.504688 218.872223 
L 372.721504 200.285808 
L 374.93832 169.271437 
L 377.155136 219.090763 
L 379.371952 192.568188 
L 381.588768 174.540504 
L 383.805584 191.545159 
L 386.0224 198.59792 
L 388.239216 157.78305 
L 390.456032 200.279672 
L 392.672848 141.251501 
L 394.889664 186.122386 
L 397.10648 155.310599 
L 399.323296 176.446644 
L 401.540112 189.709195 
L 403.756928 189.140501 
L 405.973744 150.668129 
L 408.19056 170.933191 
L 410.407376 186.500553 
L 412.624192 171.670465 
L 414.841008 188.82103 
L 417.057824 166.668165 
L 419.27464 168.9363 
L 421.491456 163.174851 
L 423.708272 178.600563 
L 425.925088 191.017978 
L 428.141904 216.715922 
L 430.35872 177.386646 
L 432.575536 206.671687 
L 434.792352 211.406064 
L 437.009168 172.229918 
L 439.225984 179.038075 
L 441.4428 160.038839 
L 443.659616 181.052438 
L 445.876432 231.621022 
L 448.093248 163.361769 
L 450.310064 173.508523 
L 452.52688 205.740709 
L 454.743696 190.58653 
L 456.960512 186.801036 
L 459.177328 210.734201 
L 461.394144 181.458184 
L 463.61096 170.090221 
L 465.827776 194.431298 
L 468.044592 179.102186 
L 470.261408 183.263609 
L 472.478224 184.82667 
L 474.69504 168.248481 
L 476.911856 182.002259 
L 479.128672 165.461974 
L 481.345488 167.926772 
L 483.562304 189.820955 
L 485.77912 182.977566 
L 487.995936 154.372618 
L 490.212752 190.38604 
L 492.429568 189.962317 
L 494.646384 193.642693 
L 496.8632 157.08599 
L 499.080016 186.488568 
L 501.296832 180.516954 
L 503.513648 172.012894 
L 505.730464 191.954154 
L 507.94728 187.060728 
L 510.164096 198.659359 
L 512.380912 196.073847 
L 514.597728 192.951264 
L 516.814544 195.855597 
L 519.03136 155.281287 
L 519.03136 155.281287 
" clip-path="url(#p4693b9460f)" style="fill: none; stroke: #d62728; stroke-width: 1.5; stroke-linecap: square"/>
   </g>
   <g id="line2d_20">
    <path d="M 75.66816 130.11926 
L 77.884976 200.937764 
L 80.101792 176.809505 
L 82.318608 190.355879 
L 84.535424 200.193378 
L 86.75224 193.997287 
L 88.969056 156.141819 
L 91.185872 230.027928 
L 93.402688 195.717971 
L 95.619504 218.911047 
L 97.83632 185.107858 
L 100.053136 213.141115 
L 102.269952 212.996975 
L 104.486768 205.079639 
L 106.703584 205.104132 
L 108.9204 216.636577 
L 111.137216 213.469755 
L 113.354032 228.874313 
L 115.570848 204.212971 
L 117.787664 196.845758 
L 120.00448 215.799871 
L 122.221296 217.97942 
L 124.438112 263.46636 
L 126.654928 160.736874 
L 128.871744 210.682995 
L 131.08856 213.734086 
L 133.305376 181.6094 
L 135.522192 217.59582 
L 137.739008 192.272758 
L 139.955824 180.490621 
L 142.17264 245.338449 
L 144.389456 202.36374 
L 146.606272 209.69648 
L 148.823088 228.343161 
L 151.039904 181.762656 
L 153.25672 195.973927 
L 155.473536 197.440154 
L 157.690352 188.083485 
L 159.907168 214.039153 
L 162.123984 201.069523 
L 164.3408 220.482645 
L 166.557616 183.492997 
L 168.774432 224.94049 
L 170.991248 203.457901 
L 173.208064 235.641752 
L 175.42488 211.498999 
L 177.641696 197.718346 
L 179.858512 227.511978 
L 182.075328 198.158079 
L 184.292144 230.079205 
L 186.50896 212.088955 
L 188.725776 218.712795 
L 190.942592 202.524487 
L 193.159408 192.67762 
L 195.376224 191.430727 
L 197.59304 224.396108 
L 199.809856 207.285739 
L 202.026672 173.685694 
L 204.243488 179.310059 
L 206.460304 258.539127 
L 208.67712 208.11315 
L 210.893936 202.758693 
L 213.110752 222.906436 
L 215.327568 249.50794 
L 217.544384 205.645265 
L 219.7612 220.372238 
L 221.978016 207.028032 
L 224.194832 172.634202 
L 226.411648 216.117807 
L 228.628464 220.312874 
L 230.84528 199.668742 
L 233.062096 246.164922 
L 235.278912 209.483734 
L 237.495728 177.792266 
L 239.712544 211.782227 
L 241.92936 221.001126 
L 244.146176 201.691191 
L 246.362992 193.995843 
L 248.579808 204.17218 
L 250.796624 171.460553 
L 253.01344 185.509056 
L 255.230256 169.887511 
L 257.447072 190.521679 
L 259.663888 206.992295 
L 261.880704 242.369807 
L 264.09752 230.785777 
L 266.314336 226.81508 
L 268.531152 197.283956 
L 270.747968 220.210445 
L 272.964784 221.958997 
L 275.1816 213.755673 
L 277.398416 215.089436 
L 279.615232 209.529579 
L 281.832048 186.287049 
L 284.048864 214.343517 
L 286.26568 202.901318 
L 288.482496 225.284291 
L 290.699312 242.634517 
L 292.916128 199.46235 
L 295.132944 224.683794 
L 297.34976 224.608006 
L 299.566576 211.569012 
L 301.783392 158.717006 
L 304.000208 192.348258 
L 306.217024 163.147362 
L 308.43384 251.597442 
L 310.650656 226.602009 
L 312.867472 240.610714 
L 315.084288 193.969275 
L 317.301104 207.3553 
L 319.51792 215.744297 
L 321.734736 235.075223 
L 323.951552 241.29689 
L 326.168368 198.946414 
L 328.385184 208.311493 
L 330.602 209.67502 
L 332.818816 221.084856 
L 335.035632 212.281992 
L 337.252448 185.965809 
L 339.469264 218.683681 
L 341.68608 215.646777 
L 343.902896 218.57674 
L 346.119712 218.113435 
L 348.336528 205.484916 
L 350.553344 245.47398 
L 352.77016 153.040443 
L 354.986976 254.723653 
L 357.203792 186.621248 
L 359.420608 203.306631 
L 361.637424 221.211436 
L 363.85424 168.986495 
L 366.071056 253.57632 
L 368.287872 180.303324 
L 370.504688 232.447188 
L 372.721504 249.473195 
L 374.93832 227.164729 
L 377.155136 247.829365 
L 379.371952 210.737486 
L 381.588768 200.149032 
L 383.805584 217.642604 
L 386.0224 215.908094 
L 388.239216 178.187218 
L 390.456032 223.320972 
L 392.672848 159.393797 
L 394.889664 218.38004 
L 397.10648 187.314427 
L 399.323296 208.510485 
L 401.540112 233.360369 
L 403.756928 223.541876 
L 405.973744 191.560844 
L 408.19056 200.610459 
L 410.407376 203.774213 
L 412.624192 182.473181 
L 414.841008 208.390982 
L 419.27464 175.231969 
L 421.491456 189.992495 
L 423.708272 219.789917 
L 425.925088 194.899837 
L 428.141904 243.279559 
L 430.35872 208.520015 
L 432.575536 226.3719 
L 434.792352 213.5478 
L 437.009168 209.576796 
L 439.225984 188.183947 
L 441.4428 204.46862 
L 443.659616 193.886628 
L 445.876432 253.40534 
L 448.093248 169.712343 
L 450.310064 188.016884 
L 452.52688 255.067635 
L 454.743696 224.247148 
L 456.960512 196.057748 
L 459.177328 234.630329 
L 461.394144 228.499539 
L 463.61096 175.294058 
L 465.827776 238.943257 
L 468.044592 217.622984 
L 470.261408 194.014434 
L 472.478224 193.441895 
L 474.69504 211.752518 
L 476.911856 188.809496 
L 479.128672 198.217785 
L 481.345488 186.471385 
L 483.562304 214.772871 
L 485.77912 193.809521 
L 487.995936 161.350222 
L 490.212752 199.578316 
L 492.429568 221.54854 
L 494.646384 204.04071 
L 496.8632 174.182841 
L 499.080016 222.519984 
L 501.296832 226.502666 
L 503.513648 202.265986 
L 505.730464 223.821476 
L 507.94728 217.643921 
L 510.164096 213.820307 
L 512.380912 229.644075 
L 514.597728 219.313977 
L 516.814544 221.533361 
L 519.03136 179.722194 
L 519.03136 179.722194 
" clip-path="url(#p4693b9460f)" style="fill: none; stroke: #9467bd; stroke-width: 1.5; stroke-linecap: square"/>
   </g>
   <g id="line2d_21">
    <path d="M 75.66816 130.11926 
L 77.884976 200.937764 
L 80.101792 176.809505 
L 82.318608 190.355879 
L 84.535424 200.193378 
L 86.75224 193.997287 
L 88.969056 156.141819 
L 91.185872 230.027928 
L 93.402688 195.717971 
L 95.619504 218.911047 
L 97.83632 185.107858 
L 100.053136 213.141115 
L 102.269952 212.996975 
L 104.486768 205.079639 
L 106.703584 205.104132 
L 108.9204 216.636577 
L 111.137216 213.469755 
L 113.354032 228.874313 
L 115.570848 204.212971 
L 117.787664 196.845758 
L 120.00448 215.799871 
L 122.221296 217.97942 
L 124.438112 263.46636 
L 126.654928 160.736874 
L 128.871744 210.682995 
L 131.08856 213.734086 
L 133.305376 181.6094 
L 135.522192 217.59582 
L 137.739008 192.272758 
L 139.955824 180.490621 
L 142.17264 245.338449 
L 144.389456 202.36374 
L 146.606272 209.69648 
L 148.823088 228.343161 
L 151.039904 181.762656 
L 153.25672 195.973927 
L 155.473536 197.440154 
L 157.690352 188.083485 
L 159.907168 214.039153 
L 162.123984 201.069523 
L 164.3408 220.482645 
L 166.557616 183.492997 
L 168.774432 224.94049 
L 170.991248 203.457901 
L 173.208064 235.641752 
L 175.42488 211.498999 
L 177.641696 197.718346 
L 179.858512 227.511978 
L 182.075328 198.158079 
L 184.292144 230.079205 
L 186.50896 212.088955 
L 188.725776 218.712795 
L 190.942592 202.524487 
L 193.159408 192.67762 
L 195.376224 191.430727 
L 197.59304 224.396108 
L 199.809856 207.285739 
L 202.026672 173.685694 
L 204.243488 179.310059 
L 206.460304 258.539127 
L 208.67712 208.11315 
L 210.893936 202.758693 
L 213.110752 222.906436 
L 215.327568 249.50794 
L 217.544384 205.645265 
L 219.7612 220.372238 
L 221.978016 207.028032 
L 224.194832 172.634202 
L 226.411648 216.117807 
L 228.628464 220.312874 
L 230.84528 199.668742 
L 233.062096 246.164922 
L 235.278912 209.483734 
L 237.495728 177.792266 
L 239.712544 211.782227 
L 241.92936 221.001126 
L 244.146176 201.691191 
L 246.362992 193.995843 
L 248.579808 204.17218 
L 250.796624 171.460553 
L 253.01344 185.509056 
L 255.230256 169.887511 
L 257.447072 190.521679 
L 259.663888 206.992295 
L 261.880704 242.369807 
L 264.09752 230.785777 
L 266.314336 226.81508 
L 268.531152 197.283956 
L 270.747968 220.210445 
L 272.964784 221.958997 
L 275.1816 213.755673 
L 277.398416 215.089436 
L 279.615232 209.529579 
L 281.832048 186.287049 
L 284.048864 214.343517 
L 286.26568 202.901318 
L 288.482496 225.284291 
L 290.699312 242.634517 
L 292.916128 199.46235 
L 295.132944 224.683794 
L 297.34976 224.608006 
L 299.566576 211.569012 
L 301.783392 158.717006 
L 304.000208 192.348258 
L 306.217024 163.147362 
L 308.43384 251.597442 
L 310.650656 226.602009 
L 312.867472 240.610714 
L 315.084288 193.969275 
L 317.301104 207.3553 
L 319.51792 215.744297 
L 321.734736 235.075223 
L 323.951552 241.29689 
L 326.168368 198.946414 
L 328.385184 208.311493 
L 330.602 209.67502 
L 332.818816 221.084856 
L 335.035632 212.281992 
L 337.252448 185.965809 
L 339.469264 218.683681 
L 341.68608 215.646777 
L 343.902896 218.57674 
L 346.119712 218.113435 
L 348.336528 205.484916 
L 350.553344 245.47398 
L 352.77016 153.040443 
L 354.986976 254.723653 
L 357.203792 186.621248 
L 359.420608 203.306631 
L 361.637424 221.211436 
L 363.85424 168.986495 
L 366.071056 253.57632 
L 368.287872 180.303324 
L 370.504688 232.447188 
L 372.721504 249.473195 
L 374.93832 227.164729 
L 377.155136 247.829365 
L 379.371952 210.737486 
L 381.588768 200.149032 
L 383.805584 217.642604 
L 386.0224 215.908094 
L 388.239216 178.187218 
L 390.456032 223.320972 
L 392.672848 159.393797 
L 394.889664 218.38004 
L 397.10648 187.314427 
L 399.323296 208.510485 
L 401.540112 233.360369 
L 403.756928 223.541876 
L 405.973744 191.560844 
L 408.19056 200.610459 
L 410.407376 203.774213 
L 412.624192 182.473181 
L 414.841008 208.390982 
L 419.27464 175.231969 
L 421.491456 189.992495 
L 423.708272 219.789917 
L 425.925088 194.899837 
L 428.141904 243.279559 
L 430.35872 208.520015 
L 432.575536 226.3719 
L 434.792352 213.5478 
L 437.009168 209.576796 
L 439.225984 188.183947 
L 441.4428 204.46862 
L 443.659616 193.886628 
L 445.876432 253.40534 
L 448.093248 169.712343 
L 450.310064 188.016884 
L 452.52688 255.067635 
L 454.743696 224.247148 
L 456.960512 196.057748 
L 459.177328 234.630329 
L 461.394144 228.499539 
L 463.61096 175.294058 
L 465.827776 238.943257 
L 468.044592 217.622984 
L 470.261408 194.014434 
L 472.478224 193.441895 
L 474.69504 211.752518 
L 476.911856 188.809496 
L 479.128672 198.217785 
L 481.345488 186.471385 
L 483.562304 214.772871 
L 485.77912 193.809521 
L 487.995936 161.350222 
L 490.212752 199.578316 
L 492.429568 221.54854 
L 494.646384 204.04071 
L 496.8632 174.182841 
L 499.080016 222.519984 
L 501.296832 226.502666 
L 503.513648 202.265986 
L 505.730464 223.821476 
L 507.94728 217.643921 
L 510.164096 213.820307 
L 512.380912 229.644075 
L 514.597728 219.313977 
L 516.814544 221.533361 
L 519.03136 179.722194 
L 519.03136 179.722194 
" clip-path="url(#p4693b9460f)" style="fill: none; stroke: #8c564b; stroke-width: 1.5; stroke-linecap: square"/>
   </g>
   <g id="patch_3">
    <path d="M 53.5 274.94952 
L 53.5 22.32 
" style="fill: none; stroke: #000000; stroke-width: 0.8; stroke-linejoin: miter; stroke-linecap: square"/>
   </g>
   <g id="patch_4">
    <path d="M 53.5 274.94952 
L 541.19952 274.94952 
" style="fill: none; stroke: #000000; stroke-width: 0.8; stroke-linejoin: miter; stroke-linecap: square"/>
   </g>
   <g id="text_18">
    <!-- Density percentiles during the NPT run (2000 H$_2$O) -->
    <g transform="translate(160.90976 16.32) scale(0.12 -0.12)">
     <defs>
      <path id="IBMPlexSans-72" d="M 1056 0 
L 1056 2240 
C 1056 2554 1389 2790 1939 2790 
L 2240 2790 
L 2240 3302 
L 2042 3302 
C 1504 3302 1203 3008 1088 2694 
L 1056 2694 
L 1056 3302 
L 544 3302 
L 544 0 
L 1056 0 
z
" transform="scale(0.015625)"/>
      <path id="IBMPlexSans-63" d="M 1773 -77 
C 2400 -77 2829 230 3040 704 
L 2669 954 
C 2490 576 2189 378 1773 378 
C 1165 378 851 794 851 1370 
L 851 1933 
C 851 2509 1165 2925 1773 2925 
C 2176 2925 2458 2726 2579 2387 
L 3008 2605 
C 2816 3059 2426 3379 1773 3379 
C 845 3379 301 2707 301 1651 
C 301 595 845 -77 1773 -77 
z
" transform="scale(0.015625)"/>
      <path id="IBMPlexSans-6c" d="M 1542 0 
L 1542 448 
L 1056 448 
L 1056 4736 
L 544 4736 
L 544 531 
C 544 224 736 0 1088 0 
L 1542 0 
z
" transform="scale(0.015625)"/>
      <path id="IBMPlexSans-64" d="M 2656 0 
L 3168 0 
L 3168 4736 
L 2656 4736 
L 2656 2765 
L 2630 2765 
C 2458 3181 2118 3379 1664 3379 
C 838 3379 320 2707 320 1651 
C 320 595 838 -77 1664 -77 
C 2118 -77 2432 128 2630 538 
L 2656 538 
L 2656 0 
z
M 1805 384 
C 1229 384 870 781 870 1370 
L 870 1933 
C 870 2522 1229 2918 1805 2918 
C 2272 2918 2656 2650 2656 2285 
L 2656 1056 
C 2656 627 2272 384 1805 384 
z
" transform="scale(0.015625)"/>
      <path id="IBMPlexSans-75" d="M 2579 0 
L 3091 0 
L 3091 3302 
L 2579 3302 
L 2579 1018 
C 2579 582 2182 384 1779 384 
C 1286 384 1024 685 1024 1274 
L 1024 3302 
L 512 3302 
L 512 1184 
C 512 384 947 -77 1626 -77 
C 2176 -77 2426 224 2554 538 
L 2579 538 
L 2579 0 
z
" transform="scale(0.015625)"/>
      <path id="IBMPlexSans-68" d="M 544 0 
L 1056 0 
L 1056 2291 
C 1056 2714 1453 2918 1862 2918 
C 2355 2918 2611 2618 2611 2029 
L 2611 0 
L 3123 0 
L 3123 2118 
C 3123 2918 2694 3379 2016 3379 
C 1523 3379 1242 3136 1082 2765 
L 1056 2765 
L 1056 4736 
L 544 4736 
L 544 0 
z
" transform="scale(0.015625)"/>
      <path id="IBMPlexSans-4e" d="M 3309 0 
L 3930 0 
L 3930 4467 
L 3405 4467 
L 3405 749 
L 3386 749 
L 2848 1741 
L 1216 4467 
L 595 4467 
L 595 0 
L 1120 0 
L 1120 3718 
L 1139 3718 
L 1677 2726 
L 3309 0 
z
" transform="scale(0.015625)"/>
      <path id="IBMPlexSans-50" d="M 1133 0 
L 1133 1907 
L 2374 1907 
C 3174 1907 3622 2400 3622 3187 
C 3622 3974 3174 4467 2374 4467 
L 595 4467 
L 595 0 
L 1133 0 
z
M 1133 3994 
L 2374 3994 
C 2797 3994 3046 3763 3046 3354 
L 3046 3021 
C 3046 2611 2797 2381 2374 2381 
L 1133 2381 
L 1133 3994 
z
" transform="scale(0.015625)"/>
      <path id="IBMPlexSans-28" d="M 531 1997 
C 531 749 1056 -339 1690 -877 
L 2176 -877 
C 1485 -262 1011 819 1011 1715 
L 1011 2266 
C 1011 3162 1466 4224 2176 4864 
L 1690 4864 
C 1037 4307 531 3232 531 1997 
z
" transform="scale(0.015625)"/>
      <path id="IBMPlexSans-48" d="M 3392 0 
L 3930 0 
L 3930 4467 
L 3392 4467 
L 3392 2496 
L 1133 2496 
L 1133 4467 
L 595 4467 
L 595 0 
L 1133 0 
L 1133 2022 
L 3392 2022 
L 3392 0 
z
" transform="scale(0.015625)"/>
      <path id="DejaVuSans-32" d="M 1228 531 
L 3431 531 
L 3431 0 
L 469 0 
L 469 531 
Q 828 903 1448 1529 
Q 2069 2156 2228 2338 
Q 2531 2678 2651 2914 
Q 2772 3150 2772 3378 
Q 2772 3750 2511 3984 
Q 2250 4219 1831 4219 
Q 1534 4219 1204 4116 
Q 875 4013 500 3803 
L 500 4441 
Q 881 4594 1212 4672 
Q 1544 4750 1819 4750 
Q 2544 4750 2975 4387 
Q 3406 4025 3406 3419 
Q 3406 3131 3298 2873 
Q 3191 2616 2906 2266 
Q 2828 2175 2409 1742 
Q 1991 1309 1228 531 
z
" transform="scale(0.015625)"/>
      <path id="IBMPlexSans-4f" d="M 2266 -77 
C 3418 -77 4160 736 4160 2234 
C 4160 3731 3418 4544 2266 4544 
C 1114 4544 371 3731 371 2234 
C 371 736 1114 -77 2266 -77 
z
M 2266 403 
C 1491 403 947 979 947 1862 
L 947 2605 
C 947 3488 1491 4064 2266 4064 
C 3040 4064 3584 3488 3584 2605 
L 3584 1862 
C 3584 979 3040 403 2266 403 
z
" transform="scale(0.015625)"/>
      <path id="IBMPlexSans-29" d="M 1613 1997 
C 1613 3232 1107 4307 454 4864 
L -32 4864 
C 678 4224 1133 3162 1133 2266 
L 1133 1715 
C 1133 819 659 -262 -32 -877 
L 454 -877 
C 1088 -339 1613 749 1613 1997 
z
" transform="scale(0.015625)"/>
     </defs>
     <use xlink:href="#IBMPlexSans-44"/>
     <use xlink:href="#IBMPlexSans-65" transform="translate(67.099991 0)"/>
     <use xlink:href="#IBMPlexSans-6e" transform="translate(121.999985 0)"/>
     <use xlink:href="#IBMPlexSans-73" transform="translate(178.799973 0)"/>
     <use xlink:href="#IBMPlexSans-69" transform="translate(227.499969 0)"/>
     <use xlink:href="#IBMPlexSans-74" transform="translate(252.499954 0)"/>
     <use xlink:href="#IBMPlexSans-79" transform="translate(287.599945 0)"/>
     <use xlink:href="#IBMPlexSans-20" transform="translate(337.499939 0)"/>
     <use xlink:href="#IBMPlexSans-70" transform="translate(361.09993 0)"/>
     <use xlink:href="#IBMPlexSans-65" transform="translate(419.099915 0)"/>
     <use xlink:href="#IBMPlexSans-72" transform="translate(473.999908 0)"/>
     <use xlink:href="#IBMPlexSans-63" transform="translate(510.699905 0)"/>
     <use xlink:href="#IBMPlexSans-65" transform="translate(560.999893 0)"/>
     <use xlink:href="#IBMPlexSans-6e" transform="translate(615.899887 0)"/>
     <use xlink:href="#IBMPlexSans-74" transform="translate(672.699875 0)"/>
     <use xlink:href="#IBMPlexSans-69" transform="translate(707.799866 0)"/>
     <use xlink:href="#IBMPlexSans-6c" transform="translate(732.79985 0)"/>
     <use xlink:href="#IBMPlexSans-65" transform="translate(759.999847 0)"/>
     <use xlink:href="#IBMPlexSans-73" transform="translate(814.899841 0)"/>
     <use xlink:href="#IBMPlexSans-20" transform="translate(863.599838 0)"/>
     <use xlink:href="#IBMPlexSans-64" transform="translate(887.199829 0)"/>
     <use xlink:href="#IBMPlexSans-75" transform="translate(945.199814 0)"/>
     <use xlink:href="#IBMPlexSans-72" transform="translate(1001.999802 0)"/>
     <use xlink:href="#IBMPlexSans-69" transform="translate(1038.699799 0)"/>
     <use xlink:href="#IBMPlexSans-6e" transform="translate(1063.699783 0)"/>
     <use xlink:href="#IBMPlexSans-67" transform="translate(1120.499771 0)"/>
     <use xlink:href="#IBMPlexSans-20" transform="translate(1173.299759 0)"/>
     <use xlink:href="#IBMPlexSans-74" transform="translate(1196.89975 0)"/>
     <use xlink:href="#IBMPlexSans-68" transform="translate(1231.999741 0)"/>
     <use xlink:href="#IBMPlexSans-65" transform="translate(1288.799728 0)"/>
     <use xlink:href="#IBMPlexSans-20" transform="translate(1343.699722 0)"/>
     <use xlink:href="#IBMPlexSans-4e" transform="translate(1367.299713 0)"/>
     <use xlink:href="#IBMPlexSans-50" transform="translate(1437.999695 0)"/>
     <use xlink:href="#IBMPlexSans-54" transform="translate(1498.599686 0)"/>
     <use xlink:href="#IBMPlexSans-20" transform="translate(1555.799683 0)"/>
     <use xlink:href="#IBMPlexSans-72" transform="translate(1579.399673 0)"/>
     <use xlink:href="#IBMPlexSans-75" transform="translate(1616.09967 0)"/>
     <use xlink:href="#IBMPlexSans-6e" transform="translate(1672.899658 0)"/>
     <use xlink:href="#IBMPlexSans-20" transform="translate(1729.699646 0)"/>
     <use xlink:href="#IBMPlexSans-28" transform="translate(1753.299637 0)"/>
     <use xlink:href="#IBMPlexSans-32" transform="translate(1786.799622 0)"/>
     <use xlink:href="#IBMPlexSans-30" transform="translate(1846.799606 0)"/>
     <use xlink:href="#IBMPlexSans-30" transform="translate(1906.799591 0)"/>
     <use xlink:href="#IBMPlexSans-30" transform="translate(1966.799576 0)"/>
     <use xlink:href="#IBMPlexSans-20" transform="translate(2026.799561 0)"/>
     <use xlink:href="#IBMPlexSans-48" transform="translate(2050.399551 0)"/>
     <use xlink:href="#DejaVuSans-32" transform="translate(2122.056564 -16.40625) scale(0.7)"/>
     <use xlink:href="#IBMPlexSans-4f" transform="translate(2169.327072 0)"/>
     <use xlink:href="#IBMPlexSans-29" transform="translate(2240.12706 0)"/>
    </g>
   </g>
   <g id="legend_1">
    <g id="patch_5">
     <path d="M 60.5 116.72 
L 116.129688 116.72 
Q 118.129688 116.72 118.129688 114.72 
L 118.129688 29.32 
Q 118.129688 27.32 116.129688 27.32 
L 60.5 27.32 
Q 58.5 27.32 58.5 29.32 
L 58.5 114.72 
Q 58.5 116.72 60.5 116.72 
z
" style="fill: #ffffff; opacity: 0.8; stroke: #cccccc; stroke-linejoin: miter"/>
    </g>
    <g id="line2d_22">
     <path d="M 62.5 35.22 
L 72.5 35.22 
L 82.5 35.22 
" style="fill: none; stroke: #1f77b4; stroke-width: 1.5; stroke-linecap: square"/>
    </g>
    <g id="text_19">
     <!-- 95 % -->
     <g transform="translate(90.5 38.72) scale(0.1 -0.1)">
      <defs>
       <path id="IBMPlexSans-25" d="M 1664 0 
L 4762 4467 
L 4269 4467 
L 1171 0 
L 1664 0 
z
M 1427 2010 
C 2074 2010 2438 2458 2438 3277 
C 2438 4096 2074 4544 1427 4544 
C 781 4544 416 4096 416 3277 
C 416 2458 781 2010 1427 2010 
z
M 1427 2342 
C 1056 2342 877 2598 877 3085 
L 877 3469 
C 877 3955 1056 4211 1427 4211 
C 1798 4211 1978 3955 1978 3469 
L 1978 3085 
C 1978 2598 1798 2342 1427 2342 
z
M 4506 -77 
C 5152 -77 5517 371 5517 1190 
C 5517 2010 5152 2458 4506 2458 
C 3859 2458 3494 2010 3494 1190 
C 3494 371 3859 -77 4506 -77 
z
M 4506 256 
C 4134 256 3955 512 3955 998 
L 3955 1382 
C 3955 1869 4134 2125 4506 2125 
C 4877 2125 5056 1869 5056 1382 
L 5056 998 
C 5056 512 4877 256 4506 256 
z
" transform="scale(0.015625)"/>
      </defs>
      <use xlink:href="#IBMPlexSans-39"/>
      <use xlink:href="#IBMPlexSans-35" transform="translate(59.999985 0)"/>
      <use xlink:href="#IBMPlexSans-20" transform="translate(119.999969 0)"/>
      <use xlink:href="#IBMPlexSans-25" transform="translate(143.59996 0)"/>
     </g>
    </g>
    <g id="line2d_23">
     <path d="M 62.5 49.62 
L 72.5 49.62 
L 82.5 49.62 
" style="fill: none; stroke: #ff7f0e; stroke-width: 1.5; stroke-linecap: square"/>
    </g>
    <g id="text_20">
     <!-- 80 % -->
     <g transform="translate(90.5 53.12) scale(0.1 -0.1)">
      <use xlink:href="#IBMPlexSans-38"/>
      <use xlink:href="#IBMPlexSans-30" transform="translate(59.999985 0)"/>
      <use xlink:href="#IBMPlexSans-20" transform="translate(119.999969 0)"/>
      <use xlink:href="#IBMPlexSans-25" transform="translate(143.59996 0)"/>
     </g>
    </g>
    <g id="line2d_24">
     <path d="M 62.5 64.02 
L 72.5 64.02 
L 82.5 64.02 
" style="fill: none; stroke: #2ca02c; stroke-width: 1.5; stroke-linecap: square"/>
    </g>
    <g id="text_21">
     <!-- 50 % -->
     <g transform="translate(90.5 67.52) scale(0.1 -0.1)">
      <use xlink:href="#IBMPlexSans-35"/>
      <use xlink:href="#IBMPlexSans-30" transform="translate(59.999985 0)"/>
      <use xlink:href="#IBMPlexSans-20" transform="translate(119.999969 0)"/>
      <use xlink:href="#IBMPlexSans-25" transform="translate(143.59996 0)"/>
     </g>
    </g>
    <g id="line2d_25">
     <path d="M 62.5 78.42 
L 72.5 78.42 
L 82.5 78.42 
" style="fill: none; stroke: #d62728; stroke-width: 1.5; stroke-linecap: square"/>
    </g>
    <g id="text_22">
     <!-- 20 % -->
     <g transform="translate(90.5 81.92) scale(0.1 -0.1)">
      <use xlink:href="#IBMPlexSans-32"/>
      <use xlink:href="#IBMPlexSans-30" transform="translate(59.999985 0)"/>
      <use xlink:href="#IBMPlexSans-20" transform="translate(119.999969 0)"/>
      <use xlink:href="#IBMPlexSans-25" transform="translate(143.59996 0)"/>
     </g>
    </g>
    <g id="line2d_26">
     <path d="M 62.5 92.82 
L 72.5 92.82 
L 82.5 92.82 
" style="fill: none; stroke: #9467bd; stroke-width: 1.5; stroke-linecap: square"/>
    </g>
    <g id="text_23">
     <!-- 5 % -->
     <g transform="translate(90.5 96.32) scale(0.1 -0.1)">
      <use xlink:href="#IBMPlexSans-35"/>
      <use xlink:href="#IBMPlexSans-20" transform="translate(59.999985 0)"/>
      <use xlink:href="#IBMPlexSans-25" transform="translate(83.599976 0)"/>
     </g>
    </g>
    <g id="line2d_27">
     <path d="M 62.5 107.22 
L 72.5 107.22 
L 82.5 107.22 
" style="fill: none; stroke: #8c564b; stroke-width: 1.5; stroke-linecap: square"/>
    </g>
    <g id="text_24">
     <!-- 5 % -->
     <g transform="translate(90.5 110.72) scale(0.1 -0.1)">
      <use xlink:href="#IBMPlexSans-35"/>
      <use xlink:href="#IBMPlexSans-20" transform="translate(59.999985 0)"/>
      <use xlink:href="#IBMPlexSans-25" transform="translate(83.599976 0)"/>
     </g>
    </g>
   </g>
  </g>
 </g>
 <defs>
  <clipPath id="p4693b9460f">
   <rect x="53.5" y="22.32" width="487.69952" height="252.62952"/>
  </clipPath>
 </defs>
</svg>