<?xml version="1.0" encoding="utf-8" standalone="no"?>
<!DOCTYPE svg PUBLIC "-//W3C//DTD SVG 1.1//EN"
  "http://www.w3.org/Graphics/SVG/1.1/DTD/svg11.dtd">
<svg xmlns:xlink="http://www.w3.org/1999/xlink" width="548.39952pt" height="312.149462pt" viewBox="0 0 548.39952 312.149462" xmlns="http://www.w3.org/2000/svg" version="1.1">
 <metadata>
  <rdf:RDF xmlns:dc="http://purl.org/dc/elements/1.1/" xmlns:cc="http://creativecommons.org/ns#" xmlns:rdf="http://www.w3.org/1999/02/22-rdf-syntax-ns#">
   <cc:Work>
    <dc:type rdf:resource="http://purl.org/dc/dcmitype/StillImage"/>
    <dc:date>2025-06-24T10:09:40.681263</dc:date>
    <dc:format>image/svg+xml</dc:format>
    <dc:creator>
     <cc:Agent>
      <dc:title>Matplotlib v3.10.1, https://matplotlib.org/</dc:title>
     </cc:Agent>
    </dc:creator>
   </cc:Work>
  </rdf:RDF>
 </metadata>
 <defs>
  <style type="text/css">*{stroke-linejoin: round; stroke-linecap: butt}</style>
 </defs>
 <g id="figure_1">
  <g id="patch_1">
   <path d="M 0 312.149462 
L 548.39952 312.149462 
L 548.39952 0 
L 0 0 
z
" style="fill: #ffffff"/>
  </g>
  <g id="axes_1">
   <g id="patch_2">
    <path d="M 48.640625 131.046371 
L 271.209676 131.046371 
L 271.209676 10.04376 
L 48.640625 10.04376 
z
" style="fill: #ffffff"/>
   </g>
   <g id="matplotlib.axis_1">
    <g id="xtick_1">
     <g id="line2d_1">
      <defs>
       <path id="m3d254c4f5c" d="M 0 0 
L 0 2 
" style="stroke: #000000; stroke-width: 0.6"/>
      </defs>
      <g>
       <use xlink:href="#m3d254c4f5c" x="75.306527" y="131.046371" style="stroke: #000000; stroke-width: 0.6"/>
      </g>
     </g>
     <g id="text_1">
      <!-- $\mathdefault{4\times10^{-1}}$ -->
      <g transform="translate(56.956527 143.846371) scale(0.1 -0.1)">
       <defs>
        <path id="IBMPlexSans-34" d="M 2912 0 
L 2912 877 
L 3558 877 
L 3558 1325 
L 2912 1325 
L 2912 4467 
L 2112 4467 
L 243 1350 
L 243 877 
L 2400 877 
L 2400 0 
L 2912 0 
z
M 2368 4051 
L 2400 4051 
L 2400 1325 
L 749 1325 
L 2368 4051 
z
" transform="scale(0.015625)"/>
        <path id="IBMPlexSans-d7" d="M 2938 595 
L 3251 909 
L 2234 1952 
L 3251 2995 
L 2938 3309 
L 1920 2266 
L 902 3309 
L 589 2995 
L 1606 1952 
L 589 909 
L 902 595 
L 1920 1638 
L 2938 595 
z
" transform="scale(0.015625)"/>
        <path id="IBMPlexSans-31" d="M 3501 0 
L 3501 474 
L 2349 474 
L 2349 4467 
L 1510 4467 
L 326 3360 
L 640 3021 
L 1766 4070 
L 1811 4070 
L 1811 474 
L 563 474 
L 563 0 
L 3501 0 
z
" transform="scale(0.015625)"/>
        <path id="IBMPlexSans-30" d="M 1920 -77 
C 2989 -77 3456 774 3456 2234 
C 3456 3693 2989 4544 1920 4544 
C 851 4544 384 3693 384 2234 
C 384 774 851 -77 1920 -77 
z
M 1920 390 
C 1222 390 947 1005 947 1869 
L 947 2598 
C 947 3462 1222 4077 1920 4077 
C 2618 4077 2893 3462 2893 2598 
L 2893 1869 
C 2893 1005 2618 390 1920 390 
z
" transform="scale(0.015625)"/>
        <path id="IBMPlexSans-2212" d="M 3411 1734 
L 3411 2170 
L 429 2170 
L 429 1734 
L 3411 1734 
z
" transform="scale(0.015625)"/>
       </defs>
       <use xlink:href="#IBMPlexSans-34" transform="translate(0 0.026563)"/>
       <use xlink:href="#IBMPlexSans-d7" transform="translate(79.482407 0.026563)"/>
       <use xlink:href="#IBMPlexSans-31" transform="translate(158.964813 0.026563)"/>
       <use xlink:href="#IBMPlexSans-30" transform="translate(218.964798 0.026563)"/>
       <use xlink:href="#IBMPlexSans-2212" transform="translate(279.867673 36.142188) scale(0.7)"/>
       <use xlink:href="#IBMPlexSans-31" transform="translate(321.867663 36.142188) scale(0.7)"/>
      </g>
     </g>
    </g>
    <g id="xtick_2">
     <g id="line2d_2">
      <g>
       <use xlink:href="#m3d254c4f5c" x="123.46638" y="131.046371" style="stroke: #000000; stroke-width: 0.6"/>
      </g>
     </g>
    </g>
    <g id="xtick_3">
     <g id="line2d_3">
      <g>
       <use xlink:href="#m3d254c4f5c" x="162.815845" y="131.046371" style="stroke: #000000; stroke-width: 0.6"/>
      </g>
     </g>
     <g id="text_2">
      <!-- $\mathdefault{6\times10^{-1}}$ -->
      <g transform="translate(144.465845 143.846371) scale(0.1 -0.1)">
       <defs>
        <path id="IBMPlexSans-36" d="M 1926 -77 
C 2822 -77 3411 525 3411 1402 
C 3411 2246 2861 2778 2093 2778 
C 1549 2778 1229 2502 1018 2138 
L 986 2150 
C 1229 3187 1760 3770 2714 4467 
L 2022 4467 
C 1306 4000 429 2963 429 1638 
C 429 576 998 -77 1926 -77 
z
M 1920 390 
C 1331 390 986 730 986 1331 
L 986 1382 
C 986 1984 1331 2323 1920 2323 
C 2509 2323 2854 1984 2854 1382 
L 2854 1331 
C 2854 730 2509 390 1920 390 
z
" transform="scale(0.015625)"/>
       </defs>
       <use xlink:href="#IBMPlexSans-36" transform="translate(0 0.026563)"/>
       <use xlink:href="#IBMPlexSans-d7" transform="translate(79.482407 0.026563)"/>
       <use xlink:href="#IBMPlexSans-31" transform="translate(158.964813 0.026563)"/>
       <use xlink:href="#IBMPlexSans-30" transform="translate(218.964798 0.026563)"/>
       <use xlink:href="#IBMPlexSans-2212" transform="translate(279.867673 36.142188) scale(0.7)"/>
       <use xlink:href="#IBMPlexSans-31" transform="translate(321.867663 36.142188) scale(0.7)"/>
      </g>
     </g>
    </g>
    <g id="xtick_4">
     <g id="line2d_4">
      <g>
       <use xlink:href="#m3d254c4f5c" x="196.085344" y="131.046371" style="stroke: #000000; stroke-width: 0.6"/>
      </g>
     </g>
    </g>
    <g id="xtick_5">
     <g id="line2d_5">
      <g>
       <use xlink:href="#m3d254c4f5c" x="224.904694" y="131.046371" style="stroke: #000000; stroke-width: 0.6"/>
      </g>
     </g>
    </g>
    <g id="xtick_6">
     <g id="line2d_6">
      <g>
       <use xlink:href="#m3d254c4f5c" x="250.325163" y="131.046371" style="stroke: #000000; stroke-width: 0.6"/>
      </g>
     </g>
    </g>
   </g>
   <g id="matplotlib.axis_2">
    <g id="ytick_1">
     <g id="line2d_7">
      <defs>
       <path id="mbc7a2ac29a" d="M 0 0 
L -3.5 0 
" style="stroke: #000000; stroke-width: 0.8"/>
      </defs>
      <g>
       <use xlink:href="#mbc7a2ac29a" x="48.640625" y="125.546252" style="stroke: #000000; stroke-width: 0.8"/>
      </g>
     </g>
     <g id="text_3">
      <!-- 0.00 -->
      <g transform="translate(20.920313 129.246252) scale(0.1 -0.1)">
       <defs>
        <path id="IBMPlexSans-2e" d="M 870 -77 
C 1139 -77 1261 77 1261 294 
L 1261 378 
C 1261 595 1139 749 870 749 
C 602 749 480 595 480 378 
L 480 294 
C 480 77 602 -77 870 -77 
z
" transform="scale(0.015625)"/>
       </defs>
       <use xlink:href="#IBMPlexSans-30"/>
       <use xlink:href="#IBMPlexSans-2e" transform="translate(59.999985 0)"/>
       <use xlink:href="#IBMPlexSans-30" transform="translate(87.199982 0)"/>
       <use xlink:href="#IBMPlexSans-30" transform="translate(147.199966 0)"/>
      </g>
     </g>
    </g>
    <g id="ytick_2">
     <g id="line2d_8">
      <g>
       <use xlink:href="#mbc7a2ac29a" x="48.640625" y="96.884689" style="stroke: #000000; stroke-width: 0.8"/>
      </g>
     </g>
     <g id="text_4">
      <!-- 0.05 -->
      <g transform="translate(20.920313 100.584689) scale(0.1 -0.1)">
       <defs>
        <path id="IBMPlexSans-35" d="M 3187 4467 
L 794 4467 
L 634 2010 
L 1088 1946 
C 1274 2150 1478 2323 1888 2323 
C 2496 2323 2822 1984 2822 1395 
L 2822 1331 
C 2822 742 2496 403 1888 403 
C 1350 403 1126 640 896 992 
L 493 685 
C 762 301 1146 -77 1888 -77 
C 2829 -77 3392 531 3392 1402 
C 3392 2266 2829 2784 2061 2784 
C 1594 2784 1357 2592 1146 2291 
L 1101 2291 
L 1229 3994 
L 3187 3994 
L 3187 4467 
z
" transform="scale(0.015625)"/>
       </defs>
       <use xlink:href="#IBMPlexSans-30"/>
       <use xlink:href="#IBMPlexSans-2e" transform="translate(59.999985 0)"/>
       <use xlink:href="#IBMPlexSans-30" transform="translate(87.199982 0)"/>
       <use xlink:href="#IBMPlexSans-35" transform="translate(147.199966 0)"/>
      </g>
     </g>
    </g>
    <g id="ytick_3">
     <g id="line2d_9">
      <g>
       <use xlink:href="#mbc7a2ac29a" x="48.640625" y="68.223126" style="stroke: #000000; stroke-width: 0.8"/>
      </g>
     </g>
     <g id="text_5">
      <!-- 0.10 -->
      <g transform="translate(20.920313 71.923126) scale(0.1 -0.1)">
       <use xlink:href="#IBMPlexSans-30"/>
       <use xlink:href="#IBMPlexSans-2e" transform="translate(59.999985 0)"/>
       <use xlink:href="#IBMPlexSans-31" transform="translate(87.199982 0)"/>
       <use xlink:href="#IBMPlexSans-30" transform="translate(147.199966 0)"/>
      </g>
     </g>
    </g>
    <g id="ytick_4">
     <g id="line2d_10">
      <g>
       <use xlink:href="#mbc7a2ac29a" x="48.640625" y="39.561563" style="stroke: #000000; stroke-width: 0.8"/>
      </g>
     </g>
     <g id="text_6">
      <!-- 0.15 -->
      <g transform="translate(20.920313 43.261563) scale(0.1 -0.1)">
       <use xlink:href="#IBMPlexSans-30"/>
       <use xlink:href="#IBMPlexSans-2e" transform="translate(59.999985 0)"/>
       <use xlink:href="#IBMPlexSans-31" transform="translate(87.199982 0)"/>
       <use xlink:href="#IBMPlexSans-35" transform="translate(147.199966 0)"/>
      </g>
     </g>
    </g>
    <g id="ytick_5">
     <g id="line2d_11">
      <g>
       <use xlink:href="#mbc7a2ac29a" x="48.640625" y="10.9" style="stroke: #000000; stroke-width: 0.8"/>
      </g>
     </g>
     <g id="text_7">
      <!-- 0.20 -->
      <g transform="translate(20.920313 14.6) scale(0.1 -0.1)">
       <defs>
        <path id="IBMPlexSans-32" d="M 3411 474 
L 1062 474 
L 2266 1555 
C 2835 2067 3245 2554 3245 3245 
C 3245 4006 2746 4544 1875 4544 
C 1011 4544 614 4019 442 3494 
L 922 3309 
C 1043 3731 1299 4064 1850 4064 
C 2400 4064 2675 3725 2675 3232 
L 2675 3155 
C 2675 2726 2355 2278 1939 1894 
L 480 550 
L 480 0 
L 3411 0 
L 3411 474 
z
" transform="scale(0.015625)"/>
       </defs>
       <use xlink:href="#IBMPlexSans-30"/>
       <use xlink:href="#IBMPlexSans-2e" transform="translate(59.999985 0)"/>
       <use xlink:href="#IBMPlexSans-32" transform="translate(87.199982 0)"/>
       <use xlink:href="#IBMPlexSans-30" transform="translate(147.199966 0)"/>
      </g>
     </g>
    </g>
    <g id="text_8">
     <!-- cv2l(125%) weight -->
     <g transform="translate(14.8 113.114597) rotate(-90) scale(0.1 -0.1)">
      <defs>
       <path id="IBMPlexSans-63" d="M 1773 -77 
C 2400 -77 2829 230 3040 704 
L 2669 954 
C 2490 576 2189 378 1773 378 
C 1165 378 851 794 851 1370 
L 851 1933 
C 851 2509 1165 2925 1773 2925 
C 2176 2925 2458 2726 2579 2387 
L 3008 2605 
C 2816 3059 2426 3379 1773 3379 
C 845 3379 301 2707 301 1651 
C 301 595 845 -77 1773 -77 
z
" transform="scale(0.015625)"/>
       <path id="IBMPlexSans-76" d="M 1869 0 
L 3034 3302 
L 2541 3302 
L 1952 1664 
L 1594 538 
L 1562 538 
L 1203 1664 
L 627 3302 
L 115 3302 
L 1274 0 
L 1869 0 
z
" transform="scale(0.015625)"/>
       <path id="IBMPlexSans-6c" d="M 1542 0 
L 1542 448 
L 1056 448 
L 1056 4736 
L 544 4736 
L 544 531 
C 544 224 736 0 1088 0 
L 1542 0 
z
" transform="scale(0.015625)"/>
       <path id="IBMPlexSans-28" d="M 531 1997 
C 531 749 1056 -339 1690 -877 
L 2176 -877 
C 1485 -262 1011 819 1011 1715 
L 1011 2266 
C 1011 3162 1466 4224 2176 4864 
L 1690 4864 
C 1037 4307 531 3232 531 1997 
z
" transform="scale(0.015625)"/>
       <path id="IBMPlexSans-25" d="M 1664 0 
L 4762 4467 
L 4269 4467 
L 1171 0 
L 1664 0 
z
M 1427 2010 
C 2074 2010 2438 2458 2438 3277 
C 2438 4096 2074 4544 1427 4544 
C 781 4544 416 4096 416 3277 
C 416 2458 781 2010 1427 2010 
z
M 1427 2342 
C 1056 2342 877 2598 877 3085 
L 877 3469 
C 877 3955 1056 4211 1427 4211 
C 1798 4211 1978 3955 1978 3469 
L 1978 3085 
C 1978 2598 1798 2342 1427 2342 
z
M 4506 -77 
C 5152 -77 5517 371 5517 1190 
C 5517 2010 5152 2458 4506 2458 
C 3859 2458 3494 2010 3494 1190 
C 3494 371 3859 -77 4506 -77 
z
M 4506 256 
C 4134 256 3955 512 3955 998 
L 3955 1382 
C 3955 1869 4134 2125 4506 2125 
C 4877 2125 5056 1869 5056 1382 
L 5056 998 
C 5056 512 4877 256 4506 256 
z
" transform="scale(0.015625)"/>
       <path id="IBMPlexSans-29" d="M 1613 1997 
C 1613 3232 1107 4307 454 4864 
L -32 4864 
C 678 4224 1133 3162 1133 2266 
L 1133 1715 
C 1133 819 659 -262 -32 -877 
L 454 -877 
C 1088 -339 1613 749 1613 1997 
z
" transform="scale(0.015625)"/>
       <path id="IBMPlexSans-20" transform="scale(0.015625)"/>
       <path id="IBMPlexSans-77" d="M 1082 0 
L 1702 0 
L 2163 1587 
L 2445 2592 
L 2458 2592 
L 2746 1587 
L 3206 0 
L 3840 0 
L 4717 3302 
L 4237 3302 
L 3878 1875 
L 3539 429 
L 3526 429 
L 3117 1875 
L 2688 3302 
L 2234 3302 
L 1818 1875 
L 1414 429 
L 1402 429 
L 1050 1875 
L 698 3302 
L 198 3302 
L 1082 0 
z
" transform="scale(0.015625)"/>
       <path id="IBMPlexSans-65" d="M 1786 -77 
C 2406 -77 2880 230 3091 678 
L 2726 941 
C 2554 576 2234 371 1818 371 
C 1203 371 838 800 838 1370 
L 838 1523 
L 3213 1523 
L 3213 1766 
C 3213 2701 2669 3379 1786 3379 
C 890 3379 301 2701 301 1651 
C 301 602 890 -77 1786 -77 
z
M 1786 2950 
C 2310 2950 2662 2560 2662 1978 
L 2662 1907 
L 838 1907 
L 838 1952 
C 838 2528 1229 2950 1786 2950 
z
" transform="scale(0.015625)"/>
       <path id="IBMPlexSans-69" d="M 800 4077 
C 1018 4077 1114 4192 1114 4365 
L 1114 4448 
C 1114 4621 1018 4736 800 4736 
C 582 4736 486 4621 486 4448 
L 486 4365 
C 486 4192 582 4077 800 4077 
z
M 544 0 
L 1056 0 
L 1056 3302 
L 544 3302 
L 544 0 
z
" transform="scale(0.015625)"/>
       <path id="IBMPlexSans-67" d="M 3328 -365 
C 3328 179 2976 512 2157 512 
L 1453 512 
C 1152 512 947 563 947 762 
C 947 966 1165 1075 1382 1133 
C 1478 1114 1594 1101 1702 1101 
C 2458 1101 2950 1568 2950 2240 
C 2950 2592 2810 2886 2573 3091 
L 2573 3302 
L 3200 3302 
L 3200 3750 
L 2707 3750 
C 2432 3750 2323 3565 2323 3309 
L 2323 3251 
C 2144 3334 1933 3379 1696 3379 
C 947 3379 454 2912 454 2240 
C 454 1779 685 1414 1075 1229 
L 1075 1203 
C 742 1120 506 960 506 627 
C 506 403 614 256 800 166 
L 800 96 
C 474 6 275 -186 275 -544 
C 275 -1062 698 -1357 1728 -1357 
C 2790 -1357 3328 -1043 3328 -365 
z
M 2848 -403 
C 2848 -762 2515 -941 1946 -941 
L 1472 -941 
C 954 -941 755 -704 755 -416 
C 755 -211 851 -64 1062 32 
L 2163 32 
C 2675 32 2848 -141 2848 -403 
z
M 1702 1510 
C 1267 1510 992 1715 992 2150 
L 992 2330 
C 992 2765 1267 2970 1702 2970 
C 2138 2970 2413 2765 2413 2330 
L 2413 2150 
C 2413 1715 2138 1510 1702 1510 
z
" transform="scale(0.015625)"/>
       <path id="IBMPlexSans-68" d="M 544 0 
L 1056 0 
L 1056 2291 
C 1056 2714 1453 2918 1862 2918 
C 2355 2918 2611 2618 2611 2029 
L 2611 0 
L 3123 0 
L 3123 2118 
C 3123 2918 2694 3379 2016 3379 
C 1523 3379 1242 3136 1082 2765 
L 1056 2765 
L 1056 4736 
L 544 4736 
L 544 0 
z
" transform="scale(0.015625)"/>
       <path id="IBMPlexSans-74" d="M 1914 0 
L 1914 448 
L 1242 448 
L 1242 2854 
L 1965 2854 
L 1965 3302 
L 1242 3302 
L 1242 4218 
L 781 4218 
L 781 3603 
C 781 3379 710 3302 493 3302 
L 186 3302 
L 186 2854 
L 730 2854 
L 730 544 
C 730 224 922 0 1274 0 
L 1914 0 
z
" transform="scale(0.015625)"/>
      </defs>
      <use xlink:href="#IBMPlexSans-63"/>
      <use xlink:href="#IBMPlexSans-76" transform="translate(50.299988 0)"/>
      <use xlink:href="#IBMPlexSans-32" transform="translate(99.499985 0)"/>
      <use xlink:href="#IBMPlexSans-6c" transform="translate(159.499969 0)"/>
      <use xlink:href="#IBMPlexSans-28" transform="translate(186.699966 0)"/>
      <use xlink:href="#IBMPlexSans-31" transform="translate(220.199951 0)"/>
      <use xlink:href="#IBMPlexSans-32" transform="translate(280.199936 0)"/>
      <use xlink:href="#IBMPlexSans-35" transform="translate(340.199921 0)"/>
      <use xlink:href="#IBMPlexSans-25" transform="translate(400.199905 0)"/>
      <use xlink:href="#IBMPlexSans-29" transform="translate(492.899887 0)"/>
      <use xlink:href="#IBMPlexSans-20" transform="translate(526.399872 0)"/>
      <use xlink:href="#IBMPlexSans-77" transform="translate(549.999863 0)"/>
      <use xlink:href="#IBMPlexSans-65" transform="translate(626.79985 0)"/>
      <use xlink:href="#IBMPlexSans-69" transform="translate(681.699844 0)"/>
      <use xlink:href="#IBMPlexSans-67" transform="translate(706.699829 0)"/>
      <use xlink:href="#IBMPlexSans-68" transform="translate(759.499817 0)"/>
      <use xlink:href="#IBMPlexSans-74" transform="translate(816.299805 0)"/>
     </g>
    </g>
   </g>
   <g id="line2d_12">
    <path d="M 58.7574 37.806867 
L 72.246433 32.807848 
L 85.735467 21.509979 
L 99.2245 15.543879 
L 112.713534 26.560685 
L 126.202567 66.873507 
L 139.691601 106.551985 
L 153.180634 123.527545 
L 166.669667 125.50281 
L 180.158701 125.546156 
L 193.647734 125.546252 
L 207.136768 125.546252 
L 220.625801 125.546252 
L 234.114834 125.546252 
L 247.603868 125.546252 
L 261.092901 125.546252 
" clip-path="url(#pf509e34b74)" style="fill: none; stroke: #ff7f0e; stroke-width: 1.5; stroke-linecap: square"/>
   </g>
   <g id="patch_3">
    <path d="M 48.640625 131.046371 
L 48.640625 10.04376 
" style="fill: none; stroke: #000000; stroke-width: 0.8; stroke-linejoin: miter; stroke-linecap: square"/>
   </g>
   <g id="patch_4">
    <path d="M 48.640625 131.046371 
L 271.209676 131.046371 
" style="fill: none; stroke: #000000; stroke-width: 0.8; stroke-linejoin: miter; stroke-linecap: square"/>
   </g>
  </g>
  <g id="axes_2">
   <g id="patch_5">
    <path d="M 318.630469 131.046371 
L 541.19952 131.046371 
L 541.19952 10.04376 
L 318.630469 10.04376 
z
" style="fill: #ffffff"/>
   </g>
   <g id="FillBetweenPolyCollection_1">
    <defs>
     <path id="mca88688ef8" d="M 328.747244 -296.605583 
L 328.747244 -228.433072 
L 342.236277 -227.399089 
L 355.725311 -226.183019 
L 369.214344 -224.761033 
L 382.703377 -223.257745 
L 396.192411 -221.550968 
L 409.681444 -219.734907 
L 423.170478 -217.847778 
L 436.659511 -215.829817 
L 450.148544 -213.567438 
L 463.637578 -210.909643 
L 477.126611 -207.644408 
L 490.615645 -203.66131 
L 504.104678 -198.841891 
L 517.593712 -193.143117 
L 531.082745 -186.603209 
L 531.082745 -237.351802 
L 531.082745 -237.351802 
L 517.593712 -245.029857 
L 504.104678 -251.825569 
L 490.615645 -257.69697 
L 477.126611 -262.695786 
L 463.637578 -266.962707 
L 450.148544 -270.632472 
L 436.659511 -273.943589 
L 423.170478 -277.064436 
L 409.681444 -280.116661 
L 396.192411 -283.151726 
L 382.703377 -286.12109 
L 369.214344 -288.918721 
L 355.725311 -291.65959 
L 342.236277 -294.215646 
L 328.747244 -296.605583 
z
"/>
    </defs>
    <g clip-path="url(#pfb36bee315)">
     <use xlink:href="#mca88688ef8" x="0" y="312.149462" style="fill: #d62728; fill-opacity: 0.3"/>
    </g>
   </g>
   <g id="PathCollection_1">
    <defs>
     <path id="C0_0_720b6a8137" d="M 0 2.738613 
C 0.726289 2.738613 1.422928 2.450055 1.936492 1.936492 
C 2.450055 1.422928 2.738613 0.726289 2.738613 -0 
C 2.738613 -0.726289 2.450055 -1.422928 1.936492 -1.936492 
C 1.422928 -2.450055 0.726289 -2.738613 0 -2.738613 
C -0.726289 -2.738613 -1.422928 -2.450055 -1.936492 -1.936492 
C -2.450055 -1.422928 -2.738613 -0.726289 -2.738613 0 
C -2.738613 0.726289 -2.450055 1.422928 -1.936492 1.936492 
C -1.422928 2.450055 -0.726289 2.738613 0 2.738613 
z
"/>
    </defs>
    <g clip-path="url(#pfb36bee315)">
     <use xlink:href="#C0_0_720b6a8137" x="328.747244" y="49.630134" style="fill: #404040"/>
    </g>
    <g clip-path="url(#pfb36bee315)">
     <use xlink:href="#C0_0_720b6a8137" x="342.236277" y="51.342094" style="fill: #303030"/>
    </g>
    <g clip-path="url(#pfb36bee315)">
     <use xlink:href="#C0_0_720b6a8137" x="355.725311" y="53.228157" style="fill: #0f0f0f"/>
    </g>
    <g clip-path="url(#pfb36bee315)">
     <use xlink:href="#C0_0_720b6a8137" x="369.214344" y="55.309585"/>
    </g>
    <g clip-path="url(#pfb36bee315)">
     <use xlink:href="#C0_0_720b6a8137" x="382.703377" y="57.460044" style="fill: #1d1d1d"/>
    </g>
    <g clip-path="url(#pfb36bee315)">
     <use xlink:href="#C0_0_720b6a8137" x="396.192411" y="59.798115" style="fill: #8d8d8d"/>
    </g>
    <g clip-path="url(#pfb36bee315)">
     <use xlink:href="#C0_0_720b6a8137" x="409.681444" y="62.223678" style="fill: #e7e7e7"/>
    </g>
    <g clip-path="url(#pfb36bee315)">
     <use xlink:href="#C0_0_720b6a8137" x="423.170478" y="64.693355" style="fill: #fdfdfd"/>
    </g>
   </g>
   <g id="matplotlib.axis_3">
    <g id="xtick_7">
     <g id="line2d_13">
      <g>
       <use xlink:href="#m3d254c4f5c" x="345.296371" y="131.046371" style="stroke: #000000; stroke-width: 0.6"/>
      </g>
     </g>
     <g id="text_9">
      <!-- $\mathdefault{4\times10^{-1}}$ -->
      <g transform="translate(326.946371 143.846371) scale(0.1 -0.1)">
       <use xlink:href="#IBMPlexSans-34" transform="translate(0 0.026563)"/>
       <use xlink:href="#IBMPlexSans-d7" transform="translate(79.482407 0.026563)"/>
       <use xlink:href="#IBMPlexSans-31" transform="translate(158.964813 0.026563)"/>
       <use xlink:href="#IBMPlexSans-30" transform="translate(218.964798 0.026563)"/>
       <use xlink:href="#IBMPlexSans-2212" transform="translate(279.867673 36.142188) scale(0.7)"/>
       <use xlink:href="#IBMPlexSans-31" transform="translate(321.867663 36.142188) scale(0.7)"/>
      </g>
     </g>
    </g>
    <g id="xtick_8">
     <g id="line2d_14">
      <g>
       <use xlink:href="#m3d254c4f5c" x="393.456224" y="131.046371" style="stroke: #000000; stroke-width: 0.6"/>
      </g>
     </g>
    </g>
    <g id="xtick_9">
     <g id="line2d_15">
      <g>
       <use xlink:href="#m3d254c4f5c" x="432.805689" y="131.046371" style="stroke: #000000; stroke-width: 0.6"/>
      </g>
     </g>
     <g id="text_10">
      <!-- $\mathdefault{6\times10^{-1}}$ -->
      <g transform="translate(414.455689 143.846371) scale(0.1 -0.1)">
       <use xlink:href="#IBMPlexSans-36" transform="translate(0 0.026563)"/>
       <use xlink:href="#IBMPlexSans-d7" transform="translate(79.482407 0.026563)"/>
       <use xlink:href="#IBMPlexSans-31" transform="translate(158.964813 0.026563)"/>
       <use xlink:href="#IBMPlexSans-30" transform="translate(218.964798 0.026563)"/>
       <use xlink:href="#IBMPlexSans-2212" transform="translate(279.867673 36.142188) scale(0.7)"/>
       <use xlink:href="#IBMPlexSans-31" transform="translate(321.867663 36.142188) scale(0.7)"/>
      </g>
     </g>
    </g>
    <g id="xtick_10">
     <g id="line2d_16">
      <g>
       <use xlink:href="#m3d254c4f5c" x="466.075187" y="131.046371" style="stroke: #000000; stroke-width: 0.6"/>
      </g>
     </g>
    </g>
    <g id="xtick_11">
     <g id="line2d_17">
      <g>
       <use xlink:href="#m3d254c4f5c" x="494.894538" y="131.046371" style="stroke: #000000; stroke-width: 0.6"/>
      </g>
     </g>
    </g>
    <g id="xtick_12">
     <g id="line2d_18">
      <g>
       <use xlink:href="#m3d254c4f5c" x="520.315007" y="131.046371" style="stroke: #000000; stroke-width: 0.6"/>
      </g>
     </g>
    </g>
   </g>
   <g id="matplotlib.axis_4">
    <g id="ytick_6">
     <g id="line2d_19">
      <g>
       <use xlink:href="#mbc7a2ac29a" x="318.630469" y="116.543578" style="stroke: #000000; stroke-width: 0.8"/>
      </g>
     </g>
     <g id="text_11">
      <!-- 3.15 -->
      <g transform="translate(290.910156 120.243578) scale(0.1 -0.1)">
       <defs>
        <path id="IBMPlexSans-33" d="M 1184 2573 
L 1184 2106 
L 1709 2106 
C 2336 2106 2669 1805 2669 1280 
L 2669 1229 
C 2669 704 2336 403 1709 403 
C 1165 403 902 640 672 992 
L 269 685 
C 544 301 941 -77 1715 -77 
C 2624 -77 3232 454 3232 1222 
C 3232 1894 2771 2253 2291 2349 
L 2291 2374 
C 2765 2496 3149 2842 3149 3418 
C 3149 4141 2547 4544 1792 4544 
C 1075 4544 685 4173 461 3814 
L 858 3507 
C 1043 3846 1318 4064 1779 4064 
C 2253 4064 2579 3827 2579 3360 
L 2579 3315 
C 2579 2886 2272 2573 1670 2573 
L 1184 2573 
z
" transform="scale(0.015625)"/>
       </defs>
       <use xlink:href="#IBMPlexSans-33"/>
       <use xlink:href="#IBMPlexSans-2e" transform="translate(59.999985 0)"/>
       <use xlink:href="#IBMPlexSans-31" transform="translate(87.199982 0)"/>
       <use xlink:href="#IBMPlexSans-35" transform="translate(147.199966 0)"/>
      </g>
     </g>
    </g>
    <g id="ytick_7">
     <g id="line2d_20">
      <g>
       <use xlink:href="#mbc7a2ac29a" x="318.630469" y="84.019559" style="stroke: #000000; stroke-width: 0.8"/>
      </g>
     </g>
     <g id="text_12">
      <!-- 3.20 -->
      <g transform="translate(290.910156 87.719559) scale(0.1 -0.1)">
       <use xlink:href="#IBMPlexSans-33"/>
       <use xlink:href="#IBMPlexSans-2e" transform="translate(59.999985 0)"/>
       <use xlink:href="#IBMPlexSans-32" transform="translate(87.199982 0)"/>
       <use xlink:href="#IBMPlexSans-30" transform="translate(147.199966 0)"/>
      </g>
     </g>
    </g>
    <g id="ytick_8">
     <g id="line2d_21">
      <g>
       <use xlink:href="#mbc7a2ac29a" x="318.630469" y="51.495541" style="stroke: #000000; stroke-width: 0.8"/>
      </g>
     </g>
     <g id="text_13">
      <!-- 3.25 -->
      <g transform="translate(290.910156 55.195541) scale(0.1 -0.1)">
       <use xlink:href="#IBMPlexSans-33"/>
       <use xlink:href="#IBMPlexSans-2e" transform="translate(59.999985 0)"/>
       <use xlink:href="#IBMPlexSans-32" transform="translate(87.199982 0)"/>
       <use xlink:href="#IBMPlexSans-35" transform="translate(147.199966 0)"/>
      </g>
     </g>
    </g>
    <g id="ytick_9">
     <g id="line2d_22">
      <g>
       <use xlink:href="#mbc7a2ac29a" x="318.630469" y="18.971522" style="stroke: #000000; stroke-width: 0.8"/>
      </g>
     </g>
     <g id="text_14">
      <!-- 3.30 -->
      <g transform="translate(290.910156 22.671522) scale(0.1 -0.1)">
       <use xlink:href="#IBMPlexSans-33"/>
       <use xlink:href="#IBMPlexSans-2e" transform="translate(59.999985 0)"/>
       <use xlink:href="#IBMPlexSans-33" transform="translate(87.199982 0)"/>
       <use xlink:href="#IBMPlexSans-30" transform="translate(147.199966 0)"/>
      </g>
     </g>
    </g>
    <g id="text_15">
     <!-- $η$ (95% CI) [η*] -->
     <g transform="translate(284.810156 104.645065) rotate(-90) scale(0.1 -0.1)">
      <defs>
       <path id="DejaVuSans-Oblique-3b7" d="M 3703 2113 
L 3034 -1331 
L 2459 -1331 
L 3125 2094 
Q 3222 2591 3075 2838 
Q 2931 3084 2544 3084 
Q 2078 3084 1750 2788 
Q 1425 2491 1325 1978 
L 941 0 
L 363 0 
L 1044 3500 
L 1622 3500 
L 1516 2956 
Q 1781 3272 2094 3428 
Q 2403 3584 2769 3584 
Q 3372 3584 3609 3213 
Q 3844 2838 3703 2113 
z
" transform="scale(0.015625)"/>
       <path id="IBMPlexSans-39" d="M 3411 2829 
C 3411 3891 2842 4544 1914 4544 
C 1018 4544 429 3942 429 3066 
C 429 2221 979 1690 1747 1690 
C 2291 1690 2611 1965 2822 2330 
L 2854 2317 
C 2611 1280 2080 698 1126 0 
L 1818 0 
C 2534 467 3411 1504 3411 2829 
z
M 1920 2144 
C 1331 2144 986 2483 986 3085 
L 986 3136 
C 986 3738 1331 4077 1920 4077 
C 2509 4077 2854 3738 2854 3136 
L 2854 3085 
C 2854 2483 2509 2144 1920 2144 
z
" transform="scale(0.015625)"/>
       <path id="IBMPlexSans-43" d="M 2170 -77 
C 2912 -77 3456 314 3738 941 
L 3309 1210 
C 3130 723 2739 403 2170 403 
C 1402 403 947 960 947 1875 
L 947 2541 
C 947 3456 1402 4064 2170 4064 
C 2720 4064 3091 3763 3270 3302 
L 3706 3565 
C 3424 4186 2912 4544 2170 4544 
C 1043 4544 371 3699 371 2208 
C 371 717 1043 -77 2170 -77 
z
" transform="scale(0.015625)"/>
       <path id="IBMPlexSans-49" d="M 2176 0 
L 2176 448 
L 1549 448 
L 1549 4019 
L 2176 4019 
L 2176 4467 
L 384 4467 
L 384 4019 
L 1011 4019 
L 1011 448 
L 384 448 
L 384 0 
L 2176 0 
z
" transform="scale(0.015625)"/>
       <path id="IBMPlexSans-5b" d="M 1645 -883 
L 1645 -480 
L 1037 -480 
L 1037 4461 
L 1645 4461 
L 1645 4864 
L 595 4864 
L 595 -883 
L 1645 -883 
z
" transform="scale(0.015625)"/>
       <path id="IBMPlexSans-3b7" d="M 1088 0 
L 1088 2291 
C 1088 2714 1485 2918 1894 2918 
C 2387 2918 2643 2618 2643 2029 
L 2643 -1280 
L 3155 -1280 
L 3155 2118 
C 3155 2918 2726 3379 2048 3379 
C 1555 3379 1274 3136 1114 2765 
L 1088 2765 
C 1088 3078 896 3302 544 3302 
L 198 3302 
L 198 2854 
L 576 2854 
L 576 0 
L 1088 0 
z
" transform="scale(0.015625)"/>
       <path id="IBMPlexSans-2a" d="M 1440 3270 
L 1965 2483 
L 2323 2746 
L 1741 3488 
L 2650 3738 
L 2509 4166 
L 1626 3840 
L 1664 4781 
L 1216 4781 
L 1254 3840 
L 371 4166 
L 230 3738 
L 1139 3488 
L 557 2746 
L 915 2483 
L 1440 3270 
z
" transform="scale(0.015625)"/>
       <path id="IBMPlexSans-5d" d="M 384 4864 
L 384 4461 
L 992 4461 
L 992 -480 
L 384 -480 
L 384 -883 
L 1434 -883 
L 1434 4864 
L 384 4864 
z
" transform="scale(0.015625)"/>
      </defs>
      <use xlink:href="#DejaVuSans-Oblique-3b7"/>
      <use xlink:href="#IBMPlexSans-20" transform="translate(63.378906 0)"/>
      <use xlink:href="#IBMPlexSans-28" transform="translate(86.978897 0)"/>
      <use xlink:href="#IBMPlexSans-39" transform="translate(120.478882 0)"/>
      <use xlink:href="#IBMPlexSans-35" transform="translate(180.478867 0)"/>
      <use xlink:href="#IBMPlexSans-25" transform="translate(240.478851 0)"/>
      <use xlink:href="#IBMPlexSans-20" transform="translate(333.178833 0)"/>
      <use xlink:href="#IBMPlexSans-43" transform="translate(356.778824 0)"/>
      <use xlink:href="#IBMPlexSans-49" transform="translate(418.878815 0)"/>
      <use xlink:href="#IBMPlexSans-29" transform="translate(458.878799 0)"/>
      <use xlink:href="#IBMPlexSans-20" transform="translate(492.378784 0)"/>
      <use xlink:href="#IBMPlexSans-5b" transform="translate(515.978775 0)"/>
      <use xlink:href="#IBMPlexSans-3b7" transform="translate(547.678772 0)"/>
      <use xlink:href="#IBMPlexSans-2a" transform="translate(604.97876 0)"/>
      <use xlink:href="#IBMPlexSans-5d" transform="translate(649.978745 0)"/>
     </g>
    </g>
   </g>
   <g id="line2d_23">
    <path d="M 328.747244 49.630134 
L 342.236277 51.342094 
L 355.725311 53.228157 
L 369.214344 55.309585 
L 382.703377 57.460044 
L 396.192411 59.798115 
L 409.681444 62.223678 
L 423.170478 64.693355 
L 436.659511 67.262758 
L 450.148544 70.049506 
L 463.637578 73.213287 
L 477.126611 76.979365 
L 490.615645 81.470322 
L 504.104678 86.815732 
L 517.593712 93.062975 
L 531.082745 100.171956 
" clip-path="url(#pfb36bee315)" style="fill: none; stroke: #d62728; stroke-width: 1.5; stroke-linecap: square"/>
   </g>
   <g id="patch_6">
    <path d="M 318.630469 131.046371 
L 318.630469 10.04376 
" style="fill: none; stroke: #000000; stroke-width: 0.8; stroke-linejoin: miter; stroke-linecap: square"/>
   </g>
   <g id="patch_7">
    <path d="M 318.630469 131.046371 
L 541.19952 131.046371 
" style="fill: none; stroke: #000000; stroke-width: 0.8; stroke-linejoin: miter; stroke-linecap: square"/>
   </g>
  </g>
  <g id="axes_3">
   <g id="patch_8">
    <path d="M 48.640625 276.549462 
L 271.209676 276.549462 
L 271.209676 155.546851 
L 48.640625 155.546851 
z
" style="fill: #ffffff"/>
   </g>
   <g id="matplotlib.axis_5">
    <g id="xtick_13">
     <g id="line2d_24">
      <g>
       <use xlink:href="#m3d254c4f5c" x="75.306527" y="276.549462" style="stroke: #000000; stroke-width: 0.6"/>
      </g>
     </g>
     <g id="text_16">
      <!-- $\mathdefault{4\times10^{-1}}$ -->
      <g transform="translate(56.956527 289.349462) scale(0.1 -0.1)">
       <use xlink:href="#IBMPlexSans-34" transform="translate(0 0.026563)"/>
       <use xlink:href="#IBMPlexSans-d7" transform="translate(79.482407 0.026563)"/>
       <use xlink:href="#IBMPlexSans-31" transform="translate(158.964813 0.026563)"/>
       <use xlink:href="#IBMPlexSans-30" transform="translate(218.964798 0.026563)"/>
       <use xlink:href="#IBMPlexSans-2212" transform="translate(279.867673 36.142188) scale(0.7)"/>
       <use xlink:href="#IBMPlexSans-31" transform="translate(321.867663 36.142188) scale(0.7)"/>
      </g>
     </g>
    </g>
    <g id="xtick_14">
     <g id="line2d_25">
      <g>
       <use xlink:href="#m3d254c4f5c" x="123.46638" y="276.549462" style="stroke: #000000; stroke-width: 0.6"/>
      </g>
     </g>
    </g>
    <g id="xtick_15">
     <g id="line2d_26">
      <g>
       <use xlink:href="#m3d254c4f5c" x="162.815845" y="276.549462" style="stroke: #000000; stroke-width: 0.6"/>
      </g>
     </g>
     <g id="text_17">
      <!-- $\mathdefault{6\times10^{-1}}$ -->
      <g transform="translate(144.465845 289.349462) scale(0.1 -0.1)">
       <use xlink:href="#IBMPlexSans-36" transform="translate(0 0.026563)"/>
       <use xlink:href="#IBMPlexSans-d7" transform="translate(79.482407 0.026563)"/>
       <use xlink:href="#IBMPlexSans-31" transform="translate(158.964813 0.026563)"/>
       <use xlink:href="#IBMPlexSans-30" transform="translate(218.964798 0.026563)"/>
       <use xlink:href="#IBMPlexSans-2212" transform="translate(279.867673 36.142188) scale(0.7)"/>
       <use xlink:href="#IBMPlexSans-31" transform="translate(321.867663 36.142188) scale(0.7)"/>
      </g>
     </g>
    </g>
    <g id="xtick_16">
     <g id="line2d_27">
      <g>
       <use xlink:href="#m3d254c4f5c" x="196.085344" y="276.549462" style="stroke: #000000; stroke-width: 0.6"/>
      </g>
     </g>
    </g>
    <g id="xtick_17">
     <g id="line2d_28">
      <g>
       <use xlink:href="#m3d254c4f5c" x="224.904694" y="276.549462" style="stroke: #000000; stroke-width: 0.6"/>
      </g>
     </g>
    </g>
    <g id="xtick_18">
     <g id="line2d_29">
      <g>
       <use xlink:href="#m3d254c4f5c" x="250.325163" y="276.549462" style="stroke: #000000; stroke-width: 0.6"/>
      </g>
     </g>
    </g>
    <g id="text_18">
     <!-- Cutoff frequency [1/τ*] -->
     <g transform="translate(108.569682 302.949462) scale(0.1 -0.1)">
      <defs>
       <path id="IBMPlexSans-75" d="M 2579 0 
L 3091 0 
L 3091 3302 
L 2579 3302 
L 2579 1018 
C 2579 582 2182 384 1779 384 
C 1286 384 1024 685 1024 1274 
L 1024 3302 
L 512 3302 
L 512 1184 
C 512 384 947 -77 1626 -77 
C 2176 -77 2426 224 2554 538 
L 2579 538 
L 2579 0 
z
" transform="scale(0.015625)"/>
       <path id="IBMPlexSans-6f" d="M 1792 -77 
C 2675 -77 3283 602 3283 1651 
C 3283 2701 2675 3379 1792 3379 
C 909 3379 301 2701 301 1651 
C 301 602 909 -77 1792 -77 
z
M 1792 378 
C 1242 378 851 717 851 1414 
L 851 1888 
C 851 2586 1242 2925 1792 2925 
C 2342 2925 2733 2586 2733 1888 
L 2733 1414 
C 2733 717 2342 378 1792 378 
z
" transform="scale(0.015625)"/>
       <path id="IBMPlexSans-66" d="M 723 0 
L 1235 0 
L 1235 2854 
L 1946 2854 
L 1946 3302 
L 1235 3302 
L 1235 4288 
L 1946 4288 
L 1946 4736 
L 1446 4736 
C 960 4736 723 4422 723 3968 
L 723 3302 
L 186 3302 
L 186 2854 
L 723 2854 
L 723 0 
z
" transform="scale(0.015625)"/>
       <path id="IBMPlexSans-72" d="M 1056 0 
L 1056 2240 
C 1056 2554 1389 2790 1939 2790 
L 2240 2790 
L 2240 3302 
L 2042 3302 
C 1504 3302 1203 3008 1088 2694 
L 1056 2694 
L 1056 3302 
L 544 3302 
L 544 0 
L 1056 0 
z
" transform="scale(0.015625)"/>
       <path id="IBMPlexSans-71" d="M 2656 -1280 
L 3168 -1280 
L 3168 3302 
L 2656 3302 
L 2656 2765 
L 2630 2765 
C 2458 3181 2118 3379 1664 3379 
C 838 3379 320 2707 320 1651 
C 320 595 838 -77 1664 -77 
C 2118 -77 2432 128 2630 538 
L 2656 538 
L 2656 -1280 
z
M 1805 384 
C 1229 384 870 781 870 1370 
L 870 1933 
C 870 2522 1229 2918 1805 2918 
C 2272 2918 2656 2650 2656 2285 
L 2656 1056 
C 2656 627 2272 384 1805 384 
z
" transform="scale(0.015625)"/>
       <path id="IBMPlexSans-6e" d="M 1056 0 
L 1056 2291 
C 1056 2714 1453 2918 1862 2918 
C 2355 2918 2611 2618 2611 2029 
L 2611 0 
L 3123 0 
L 3123 2118 
C 3123 2918 2694 3379 2016 3379 
C 1523 3379 1242 3136 1082 2765 
L 1056 2765 
L 1056 3302 
L 544 3302 
L 544 0 
L 1056 0 
z
" transform="scale(0.015625)"/>
       <path id="IBMPlexSans-79" d="M 1779 1056 
L 1600 518 
L 1568 518 
L 1414 1056 
L 621 3302 
L 109 3302 
L 1344 -128 
L 1094 -832 
L 576 -832 
L 576 -1280 
L 838 -1280 
C 1325 -1280 1459 -1165 1606 -768 
L 3085 3302 
L 2579 3302 
L 1779 1056 
z
" transform="scale(0.015625)"/>
       <path id="IBMPlexSans-2f" d="M 518 -966 
L 2189 4736 
L 1728 4736 
L 58 -966 
L 518 -966 
z
" transform="scale(0.015625)"/>
       <path id="IBMPlexSans-3c4" d="M 2451 0 
L 2451 448 
L 1715 448 
L 1715 2854 
L 2848 2854 
L 2848 3302 
L 128 3302 
L 128 2854 
L 1203 2854 
L 1203 544 
C 1203 224 1395 0 1747 0 
L 2451 0 
z
" transform="scale(0.015625)"/>
      </defs>
      <use xlink:href="#IBMPlexSans-43"/>
      <use xlink:href="#IBMPlexSans-75" transform="translate(62.099991 0)"/>
      <use xlink:href="#IBMPlexSans-74" transform="translate(118.899979 0)"/>
      <use xlink:href="#IBMPlexSans-6f" transform="translate(153.999969 0)"/>
      <use xlink:href="#IBMPlexSans-66" transform="translate(209.999954 0)"/>
      <use xlink:href="#IBMPlexSans-66" transform="translate(242.399948 0)"/>
      <use xlink:href="#IBMPlexSans-20" transform="translate(274.799942 0)"/>
      <use xlink:href="#IBMPlexSans-66" transform="translate(298.399933 0)"/>
      <use xlink:href="#IBMPlexSans-72" transform="translate(330.799927 0)"/>
      <use xlink:href="#IBMPlexSans-65" transform="translate(367.499924 0)"/>
      <use xlink:href="#IBMPlexSans-71" transform="translate(422.399918 0)"/>
      <use xlink:href="#IBMPlexSans-75" transform="translate(480.399902 0)"/>
      <use xlink:href="#IBMPlexSans-65" transform="translate(537.19989 0)"/>
      <use xlink:href="#IBMPlexSans-6e" transform="translate(592.099884 0)"/>
      <use xlink:href="#IBMPlexSans-63" transform="translate(648.899872 0)"/>
      <use xlink:href="#IBMPlexSans-79" transform="translate(699.19986 0)"/>
      <use xlink:href="#IBMPlexSans-20" transform="translate(749.099854 0)"/>
      <use xlink:href="#IBMPlexSans-5b" transform="translate(772.699844 0)"/>
      <use xlink:href="#IBMPlexSans-31" transform="translate(804.399841 0)"/>
      <use xlink:href="#IBMPlexSans-2f" transform="translate(864.399826 0)"/>
      <use xlink:href="#IBMPlexSans-3c4" transform="translate(902.699814 0)"/>
      <use xlink:href="#IBMPlexSans-2a" transform="translate(950.399811 0)"/>
      <use xlink:href="#IBMPlexSans-5d" transform="translate(995.399796 0)"/>
     </g>
    </g>
   </g>
   <g id="matplotlib.axis_6">
    <g id="ytick_10">
     <g id="line2d_30">
      <g>
       <use xlink:href="#mbc7a2ac29a" x="48.640625" y="271.895515" style="stroke: #000000; stroke-width: 0.8"/>
      </g>
     </g>
     <g id="text_19">
      <!-- −1 -->
      <g transform="translate(29.640625 275.595515) scale(0.1 -0.1)">
       <use xlink:href="#IBMPlexSans-2212"/>
       <use xlink:href="#IBMPlexSans-31" transform="translate(59.999985 0)"/>
      </g>
     </g>
    </g>
    <g id="ytick_11">
     <g id="line2d_31">
      <g>
       <use xlink:href="#mbc7a2ac29a" x="48.640625" y="248.625782" style="stroke: #000000; stroke-width: 0.8"/>
      </g>
     </g>
     <g id="text_20">
      <!-- 0 -->
      <g transform="translate(35.640625 252.325782) scale(0.1 -0.1)">
       <use xlink:href="#IBMPlexSans-30"/>
      </g>
     </g>
    </g>
    <g id="ytick_12">
     <g id="line2d_32">
      <g>
       <use xlink:href="#mbc7a2ac29a" x="48.640625" y="225.356049" style="stroke: #000000; stroke-width: 0.8"/>
      </g>
     </g>
     <g id="text_21">
      <!-- 1 -->
      <g transform="translate(35.640625 229.056049) scale(0.1 -0.1)">
       <use xlink:href="#IBMPlexSans-31"/>
      </g>
     </g>
    </g>
    <g id="ytick_13">
     <g id="line2d_33">
      <g>
       <use xlink:href="#mbc7a2ac29a" x="48.640625" y="202.086317" style="stroke: #000000; stroke-width: 0.8"/>
      </g>
     </g>
     <g id="text_22">
      <!-- 2 -->
      <g transform="translate(35.640625 205.786317) scale(0.1 -0.1)">
       <use xlink:href="#IBMPlexSans-32"/>
      </g>
     </g>
    </g>
    <g id="ytick_14">
     <g id="line2d_34">
      <g>
       <use xlink:href="#mbc7a2ac29a" x="48.640625" y="178.816584" style="stroke: #000000; stroke-width: 0.8"/>
      </g>
     </g>
     <g id="text_23">
      <!-- 3 -->
      <g transform="translate(35.640625 182.516584) scale(0.1 -0.1)">
       <use xlink:href="#IBMPlexSans-33"/>
      </g>
     </g>
    </g>
    <g id="ytick_15">
     <g id="line2d_35">
      <g>
       <use xlink:href="#mbc7a2ac29a" x="48.640625" y="155.546851" style="stroke: #000000; stroke-width: 0.8"/>
      </g>
     </g>
     <g id="text_24">
      <!-- 4 -->
      <g transform="translate(35.640625 159.246851) scale(0.1 -0.1)">
       <use xlink:href="#IBMPlexSans-34"/>
      </g>
     </g>
    </g>
    <g id="text_25">
     <!-- Z-score -->
     <g transform="translate(23.640625 233.273937) rotate(-90) scale(0.1 -0.1)">
      <defs>
       <path id="IBMPlexSans-5a" d="M 3482 474 
L 806 474 
L 3392 3981 
L 3392 4467 
L 365 4467 
L 365 3994 
L 2810 3994 
L 230 486 
L 230 0 
L 3482 0 
L 3482 474 
z
" transform="scale(0.015625)"/>
       <path id="IBMPlexSans-2d" d="M 2112 1670 
L 2112 2221 
L 442 2221 
L 442 1670 
L 2112 1670 
z
" transform="scale(0.015625)"/>
       <path id="IBMPlexSans-73" d="M 1536 -77 
C 2291 -77 2758 314 2758 954 
C 2758 1453 2477 1773 1747 1882 
L 1491 1920 
C 1082 1984 858 2112 858 2432 
C 858 2746 1082 2944 1504 2944 
C 1926 2944 2208 2746 2355 2541 
L 2694 2848 
C 2426 3181 2074 3379 1542 3379 
C 870 3379 365 3059 365 2406 
C 365 1792 819 1542 1427 1453 
L 1690 1414 
C 2125 1350 2266 1152 2266 896 
C 2266 557 2010 358 1574 358 
C 1158 358 851 544 595 864 
L 230 570 
C 525 179 928 -77 1536 -77 
z
" transform="scale(0.015625)"/>
      </defs>
      <use xlink:href="#IBMPlexSans-5a"/>
      <use xlink:href="#IBMPlexSans-2d" transform="translate(57.999985 0)"/>
      <use xlink:href="#IBMPlexSans-73" transform="translate(97.899979 0)"/>
      <use xlink:href="#IBMPlexSans-63" transform="translate(146.599976 0)"/>
      <use xlink:href="#IBMPlexSans-6f" transform="translate(196.899963 0)"/>
      <use xlink:href="#IBMPlexSans-72" transform="translate(252.899948 0)"/>
      <use xlink:href="#IBMPlexSans-65" transform="translate(289.599945 0)"/>
     </g>
    </g>
   </g>
   <g id="line2d_36">
    <path d="M 58.7574 256.407245 
L 72.246433 253.785531 
L 85.735467 250.888756 
L 99.2245 247.682263 
L 112.713534 244.267402 
L 126.202567 240.568047 
L 139.691601 236.778061 
L 153.180634 233.206623 
L 166.669667 229.974532 
L 180.158701 227.019579 
L 193.647734 224.087584 
L 207.136768 220.528715 
L 220.625801 215.898761 
L 234.114834 209.588269 
L 247.603868 200.781284 
L 261.092901 188.771256 
" clip-path="url(#p5b1928884d)" style="fill: none; stroke: #1f77b4; stroke-width: 1.5; stroke-linecap: square"/>
   </g>
   <g id="line2d_37">
    <path d="M 58.7574 193.894113 
L 72.246433 189.895943 
L 85.735467 187.07316 
L 99.2245 183.168035 
L 112.713534 176.359257 
L 126.202567 161.676798 
L 139.691601 135.656595 
L 153.180634 88.674984 
L 166.669667 11.533849 
L 168.075151 -1 
" clip-path="url(#p5b1928884d)" style="fill: none; stroke: #2ca02c; stroke-width: 1.5; stroke-linecap: square"/>
   </g>
   <g id="line2d_38">
    <path d="M 48.640625 248.625782 
L 271.209676 248.625782 
" clip-path="url(#p5b1928884d)" style="fill: none; stroke-dasharray: 5.55,2.4; stroke-dashoffset: 0; stroke: #000000; stroke-width: 1.5"/>
   </g>
   <g id="line2d_39">
    <path d="M 48.640625 202.086317 
L 271.209676 202.086317 
" clip-path="url(#p5b1928884d)" style="fill: none; stroke-dasharray: 5.55,2.4; stroke-dashoffset: 0; stroke: #000000; stroke-width: 1.5"/>
   </g>
   <g id="patch_9">
    <path d="M 48.640625 276.549462 
L 48.640625 155.546851 
" style="fill: none; stroke: #000000; stroke-width: 0.8; stroke-linejoin: miter; stroke-linecap: square"/>
   </g>
   <g id="patch_10">
    <path d="M 48.640625 276.549462 
L 271.209676 276.549462 
" style="fill: none; stroke: #000000; stroke-width: 0.8; stroke-linejoin: miter; stroke-linecap: square"/>
   </g>
   <g id="legend_1">
    <g id="patch_11">
     <path d="M 193.379989 271.549462 
L 264.209676 271.549462 
Q 266.209676 271.549462 266.209676 269.549462 
L 266.209676 241.749462 
Q 266.209676 239.749462 264.209676 239.749462 
L 193.379989 239.749462 
Q 191.379989 239.749462 191.379989 241.749462 
L 191.379989 269.549462 
Q 191.379989 271.549462 193.379989 271.549462 
z
" style="fill: #ffffff; opacity: 0.8; stroke: #cccccc; stroke-linejoin: miter"/>
    </g>
    <g id="line2d_40">
     <path d="M 195.379989 247.649462 
L 205.379989 247.649462 
L 215.379989 247.649462 
" style="fill: none; stroke: #1f77b4; stroke-width: 1.5; stroke-linecap: square"/>
    </g>
    <g id="text_26">
     <!-- Cost -->
     <g transform="translate(223.379989 251.149462) scale(0.1 -0.1)">
      <use xlink:href="#IBMPlexSans-43"/>
      <use xlink:href="#IBMPlexSans-6f" transform="translate(62.099991 0)"/>
      <use xlink:href="#IBMPlexSans-73" transform="translate(118.099976 0)"/>
      <use xlink:href="#IBMPlexSans-74" transform="translate(166.799973 0)"/>
     </g>
    </g>
    <g id="line2d_41">
     <path d="M 195.379989 262.049462 
L 205.379989 262.049462 
L 215.379989 262.049462 
" style="fill: none; stroke: #2ca02c; stroke-width: 1.5; stroke-linecap: square"/>
    </g>
    <g id="text_27">
     <!-- Criterion -->
     <g transform="translate(223.379989 265.549462) scale(0.1 -0.1)">
      <use xlink:href="#IBMPlexSans-43"/>
      <use xlink:href="#IBMPlexSans-72" transform="translate(62.099991 0)"/>
      <use xlink:href="#IBMPlexSans-69" transform="translate(98.799988 0)"/>
      <use xlink:href="#IBMPlexSans-74" transform="translate(123.799973 0)"/>
      <use xlink:href="#IBMPlexSans-65" transform="translate(158.899963 0)"/>
      <use xlink:href="#IBMPlexSans-72" transform="translate(213.799957 0)"/>
      <use xlink:href="#IBMPlexSans-69" transform="translate(250.499954 0)"/>
      <use xlink:href="#IBMPlexSans-6f" transform="translate(275.499939 0)"/>
      <use xlink:href="#IBMPlexSans-6e" transform="translate(331.499924 0)"/>
     </g>
    </g>
   </g>
  </g>
  <g id="axes_4">
   <g id="patch_12">
    <path d="M 318.630469 276.549462 
L 541.19952 276.549462 
L 541.19952 155.546851 
L 318.630469 155.546851 
z
" style="fill: #ffffff"/>
   </g>
   <g id="PathCollection_2">
    <defs>
     <path id="C1_0_250f36409b" d="M 0 2.738613 
C 0.726289 2.738613 1.422928 2.450055 1.936492 1.936492 
C 2.450055 1.422928 2.738613 0.726289 2.738613 -0 
C 2.738613 -0.726289 2.450055 -1.422928 1.936492 -1.936492 
C 1.422928 -2.450055 0.726289 -2.738613 0 -2.738613 
C -0.726289 -2.738613 -1.422928 -2.450055 -1.936492 -1.936492 
C -2.450055 -1.422928 -2.738613 -0.726289 -2.738613 0 
C -2.738613 0.726289 -2.450055 1.422928 -1.936492 1.936492 
C -1.422928 2.450055 -0.726289 2.738613 0 2.738613 
z
"/>
    </defs>
    <g clip-path="url(#p10d5775140)">
     <use xlink:href="#C1_0_250f36409b" x="328.747244" y="271.049343" style="fill: #404040"/>
    </g>
    <g clip-path="url(#p10d5775140)">
     <use xlink:href="#C1_0_250f36409b" x="342.236277" y="270.077589" style="fill: #303030"/>
    </g>
    <g clip-path="url(#p10d5775140)">
     <use xlink:href="#C1_0_250f36409b" x="355.725311" y="269.123324" style="fill: #0f0f0f"/>
    </g>
    <g clip-path="url(#p10d5775140)">
     <use xlink:href="#C1_0_250f36409b" x="369.214344" y="268.19594"/>
    </g>
    <g clip-path="url(#p10d5775140)">
     <use xlink:href="#C1_0_250f36409b" x="382.703377" y="267.290864" style="fill: #1d1d1d"/>
    </g>
    <g clip-path="url(#p10d5775140)">
     <use xlink:href="#C1_0_250f36409b" x="396.192411" y="266.428816" style="fill: #8d8d8d"/>
    </g>
    <g clip-path="url(#p10d5775140)">
     <use xlink:href="#C1_0_250f36409b" x="409.681444" y="265.622938" style="fill: #e7e7e7"/>
    </g>
    <g clip-path="url(#p10d5775140)">
     <use xlink:href="#C1_0_250f36409b" x="423.170478" y="264.888072" style="fill: #fdfdfd"/>
    </g>
   </g>
   <g id="PathCollection_3">
    <defs>
     <path id="C2_0_08dbfb2927" d="M 0 2.738613 
C 0.726289 2.738613 1.422928 2.450055 1.936492 1.936492 
C 2.450055 1.422928 2.738613 0.726289 2.738613 -0 
C 2.738613 -0.726289 2.450055 -1.422928 1.936492 -1.936492 
C 1.422928 -2.450055 0.726289 -2.738613 0 -2.738613 
C -0.726289 -2.738613 -1.422928 -2.450055 -1.936492 -1.936492 
C -2.450055 -1.422928 -2.738613 -0.726289 -2.738613 0 
C -2.738613 0.726289 -2.450055 1.422928 -1.936492 1.936492 
C -1.422928 2.450055 -0.726289 2.738613 0 2.738613 
z
"/>
    </defs>
    <g clip-path="url(#p10d5775140)">
     <use xlink:href="#C2_0_08dbfb2927" x="328.747244" y="188.88693" style="fill: #404040"/>
    </g>
    <g clip-path="url(#p10d5775140)">
     <use xlink:href="#C2_0_08dbfb2927" x="342.236277" y="188.843436" style="fill: #303030"/>
    </g>
    <g clip-path="url(#p10d5775140)">
     <use xlink:href="#C2_0_08dbfb2927" x="355.725311" y="188.797971" style="fill: #0f0f0f"/>
    </g>
    <g clip-path="url(#p10d5775140)">
     <use xlink:href="#C2_0_08dbfb2927" x="369.214344" y="188.7509"/>
    </g>
    <g clip-path="url(#p10d5775140)">
     <use xlink:href="#C2_0_08dbfb2927" x="382.703377" y="188.694988" style="fill: #1d1d1d"/>
    </g>
    <g clip-path="url(#p10d5775140)">
     <use xlink:href="#C2_0_08dbfb2927" x="396.192411" y="188.636601" style="fill: #8d8d8d"/>
    </g>
    <g clip-path="url(#p10d5775140)">
     <use xlink:href="#C2_0_08dbfb2927" x="409.681444" y="188.570301" style="fill: #e7e7e7"/>
    </g>
    <g clip-path="url(#p10d5775140)">
     <use xlink:href="#C2_0_08dbfb2927" x="423.170478" y="188.492531" style="fill: #fdfdfd"/>
    </g>
   </g>
   <g id="PathCollection_4">
    <defs>
     <path id="C3_0_17a752b592" d="M 0 2.738613 
C 0.726289 2.738613 1.422928 2.450055 1.936492 1.936492 
C 2.450055 1.422928 2.738613 0.726289 2.738613 -0 
C 2.738613 -0.726289 2.450055 -1.422928 1.936492 -1.936492 
C 1.422928 -2.450055 0.726289 -2.738613 0 -2.738613 
C -0.726289 -2.738613 -1.422928 -2.450055 -1.936492 -1.936492 
C -2.450055 -1.422928 -2.738613 -0.726289 -2.738613 0 
C -2.738613 0.726289 -2.450055 1.422928 -1.936492 1.936492 
C -1.422928 2.450055 -0.726289 2.738613 0 2.738613 
z
"/>
    </defs>
    <g clip-path="url(#p10d5775140)">
     <use xlink:href="#C3_0_17a752b592" x="328.747244" y="161.04697" style="fill: #404040"/>
    </g>
    <g clip-path="url(#p10d5775140)">
     <use xlink:href="#C3_0_17a752b592" x="342.236277" y="161.055506" style="fill: #303030"/>
    </g>
    <g clip-path="url(#p10d5775140)">
     <use xlink:href="#C3_0_17a752b592" x="355.725311" y="161.064454" style="fill: #0f0f0f"/>
    </g>
    <g clip-path="url(#p10d5775140)">
     <use xlink:href="#C3_0_17a752b592" x="369.214344" y="161.073744"/>
    </g>
    <g clip-path="url(#p10d5775140)">
     <use xlink:href="#C3_0_17a752b592" x="382.703377" y="161.084653" style="fill: #1d1d1d"/>
    </g>
    <g clip-path="url(#p10d5775140)">
     <use xlink:href="#C3_0_17a752b592" x="396.192411" y="161.096049" style="fill: #8d8d8d"/>
    </g>
    <g clip-path="url(#p10d5775140)">
     <use xlink:href="#C3_0_17a752b592" x="409.681444" y="161.108879" style="fill: #e7e7e7"/>
    </g>
    <g clip-path="url(#p10d5775140)">
     <use xlink:href="#C3_0_17a752b592" x="423.170478" y="161.12377" style="fill: #fdfdfd"/>
    </g>
   </g>
   <g id="matplotlib.axis_7">
    <g id="xtick_19">
     <g id="line2d_42">
      <g>
       <use xlink:href="#m3d254c4f5c" x="345.296371" y="276.549462" style="stroke: #000000; stroke-width: 0.6"/>
      </g>
     </g>
     <g id="text_28">
      <!-- $\mathdefault{4\times10^{-1}}$ -->
      <g transform="translate(326.946371 289.349462) scale(0.1 -0.1)">
       <use xlink:href="#IBMPlexSans-34" transform="translate(0 0.026563)"/>
       <use xlink:href="#IBMPlexSans-d7" transform="translate(79.482407 0.026563)"/>
       <use xlink:href="#IBMPlexSans-31" transform="translate(158.964813 0.026563)"/>
       <use xlink:href="#IBMPlexSans-30" transform="translate(218.964798 0.026563)"/>
       <use xlink:href="#IBMPlexSans-2212" transform="translate(279.867673 36.142188) scale(0.7)"/>
       <use xlink:href="#IBMPlexSans-31" transform="translate(321.867663 36.142188) scale(0.7)"/>
      </g>
     </g>
    </g>
    <g id="xtick_20">
     <g id="line2d_43">
      <g>
       <use xlink:href="#m3d254c4f5c" x="393.456224" y="276.549462" style="stroke: #000000; stroke-width: 0.6"/>
      </g>
     </g>
    </g>
    <g id="xtick_21">
     <g id="line2d_44">
      <g>
       <use xlink:href="#m3d254c4f5c" x="432.805689" y="276.549462" style="stroke: #000000; stroke-width: 0.6"/>
      </g>
     </g>
     <g id="text_29">
      <!-- $\mathdefault{6\times10^{-1}}$ -->
      <g transform="translate(414.455689 289.349462) scale(0.1 -0.1)">
       <use xlink:href="#IBMPlexSans-36" transform="translate(0 0.026563)"/>
       <use xlink:href="#IBMPlexSans-d7" transform="translate(79.482407 0.026563)"/>
       <use xlink:href="#IBMPlexSans-31" transform="translate(158.964813 0.026563)"/>
       <use xlink:href="#IBMPlexSans-30" transform="translate(218.964798 0.026563)"/>
       <use xlink:href="#IBMPlexSans-2212" transform="translate(279.867673 36.142188) scale(0.7)"/>
       <use xlink:href="#IBMPlexSans-31" transform="translate(321.867663 36.142188) scale(0.7)"/>
      </g>
     </g>
    </g>
    <g id="xtick_22">
     <g id="line2d_45">
      <g>
       <use xlink:href="#m3d254c4f5c" x="466.075187" y="276.549462" style="stroke: #000000; stroke-width: 0.6"/>
      </g>
     </g>
    </g>
    <g id="xtick_23">
     <g id="line2d_46">
      <g>
       <use xlink:href="#m3d254c4f5c" x="494.894538" y="276.549462" style="stroke: #000000; stroke-width: 0.6"/>
      </g>
     </g>
    </g>
    <g id="xtick_24">
     <g id="line2d_47">
      <g>
       <use xlink:href="#m3d254c4f5c" x="520.315007" y="276.549462" style="stroke: #000000; stroke-width: 0.6"/>
      </g>
     </g>
    </g>
    <g id="text_30">
     <!-- Cutoff frequency [1/τ*] -->
     <g transform="translate(378.559526 302.949462) scale(0.1 -0.1)">
      <use xlink:href="#IBMPlexSans-43"/>
      <use xlink:href="#IBMPlexSans-75" transform="translate(62.099991 0)"/>
      <use xlink:href="#IBMPlexSans-74" transform="translate(118.899979 0)"/>
      <use xlink:href="#IBMPlexSans-6f" transform="translate(153.999969 0)"/>
      <use xlink:href="#IBMPlexSans-66" transform="translate(209.999954 0)"/>
      <use xlink:href="#IBMPlexSans-66" transform="translate(242.399948 0)"/>
      <use xlink:href="#IBMPlexSans-20" transform="translate(274.799942 0)"/>
      <use xlink:href="#IBMPlexSans-66" transform="translate(298.399933 0)"/>
      <use xlink:href="#IBMPlexSans-72" transform="translate(330.799927 0)"/>
      <use xlink:href="#IBMPlexSans-65" transform="translate(367.499924 0)"/>
      <use xlink:href="#IBMPlexSans-71" transform="translate(422.399918 0)"/>
      <use xlink:href="#IBMPlexSans-75" transform="translate(480.399902 0)"/>
      <use xlink:href="#IBMPlexSans-65" transform="translate(537.19989 0)"/>
      <use xlink:href="#IBMPlexSans-6e" transform="translate(592.099884 0)"/>
      <use xlink:href="#IBMPlexSans-63" transform="translate(648.899872 0)"/>
      <use xlink:href="#IBMPlexSans-79" transform="translate(699.19986 0)"/>
      <use xlink:href="#IBMPlexSans-20" transform="translate(749.099854 0)"/>
      <use xlink:href="#IBMPlexSans-5b" transform="translate(772.699844 0)"/>
      <use xlink:href="#IBMPlexSans-31" transform="translate(804.399841 0)"/>
      <use xlink:href="#IBMPlexSans-2f" transform="translate(864.399826 0)"/>
      <use xlink:href="#IBMPlexSans-3c4" transform="translate(902.699814 0)"/>
      <use xlink:href="#IBMPlexSans-2a" transform="translate(950.399811 0)"/>
      <use xlink:href="#IBMPlexSans-5d" transform="translate(995.399796 0)"/>
     </g>
    </g>
   </g>
   <g id="matplotlib.axis_8">
    <g id="ytick_16">
     <g id="line2d_48">
      <g>
       <use xlink:href="#mbc7a2ac29a" x="318.630469" y="249.099981" style="stroke: #000000; stroke-width: 0.8"/>
      </g>
     </g>
     <g id="text_31">
      <!-- $\mathdefault{10^{-2}}$ -->
      <g transform="translate(290.830469 252.799981) scale(0.1 -0.1)">
       <use xlink:href="#IBMPlexSans-31" transform="translate(0 0.184375)"/>
       <use xlink:href="#IBMPlexSans-30" transform="translate(59.999985 0.184375)"/>
       <use xlink:href="#IBMPlexSans-2212" transform="translate(120.90286 36.3) scale(0.7)"/>
       <use xlink:href="#IBMPlexSans-32" transform="translate(162.902849 36.3) scale(0.7)"/>
      </g>
     </g>
    </g>
    <g id="ytick_17">
     <g id="line2d_49">
      <g>
       <use xlink:href="#mbc7a2ac29a" x="318.630469" y="212.52307" style="stroke: #000000; stroke-width: 0.8"/>
      </g>
     </g>
     <g id="text_32">
      <!-- $\mathdefault{10^{-1}}$ -->
      <g transform="translate(290.830469 216.22307) scale(0.1 -0.1)">
       <use xlink:href="#IBMPlexSans-31" transform="translate(0 0.026563)"/>
       <use xlink:href="#IBMPlexSans-30" transform="translate(59.999985 0.026563)"/>
       <use xlink:href="#IBMPlexSans-2212" transform="translate(120.90286 36.142188) scale(0.7)"/>
       <use xlink:href="#IBMPlexSans-31" transform="translate(162.902849 36.142188) scale(0.7)"/>
      </g>
     </g>
    </g>
    <g id="ytick_18">
     <g id="line2d_50">
      <g>
       <use xlink:href="#mbc7a2ac29a" x="318.630469" y="175.946158" style="stroke: #000000; stroke-width: 0.8"/>
      </g>
     </g>
     <g id="text_33">
      <!-- $\mathdefault{10^{0}}$ -->
      <g transform="translate(295.030469 179.646158) scale(0.1 -0.1)">
       <use xlink:href="#IBMPlexSans-31" transform="translate(0 0.184375)"/>
       <use xlink:href="#IBMPlexSans-30" transform="translate(59.999985 0.184375)"/>
       <use xlink:href="#IBMPlexSans-30" transform="translate(120.90286 36.3) scale(0.7)"/>
      </g>
     </g>
    </g>
    <g id="ytick_19">
     <g id="line2d_51">
      <defs>
       <path id="m182bf8dcca" d="M 0 0 
L -2 0 
" style="stroke: #000000; stroke-width: 0.6"/>
      </defs>
      <g>
       <use xlink:href="#m182bf8dcca" x="318.630469" y="274.666144" style="stroke: #000000; stroke-width: 0.6"/>
      </g>
     </g>
    </g>
    <g id="ytick_20">
     <g id="line2d_52">
      <g>
       <use xlink:href="#m182bf8dcca" x="318.630469" y="268.22527" style="stroke: #000000; stroke-width: 0.6"/>
      </g>
     </g>
    </g>
    <g id="ytick_21">
     <g id="line2d_53">
      <g>
       <use xlink:href="#m182bf8dcca" x="318.630469" y="263.655397" style="stroke: #000000; stroke-width: 0.6"/>
      </g>
     </g>
    </g>
    <g id="ytick_22">
     <g id="line2d_54">
      <g>
       <use xlink:href="#m182bf8dcca" x="318.630469" y="260.110728" style="stroke: #000000; stroke-width: 0.6"/>
      </g>
     </g>
    </g>
    <g id="ytick_23">
     <g id="line2d_55">
      <g>
       <use xlink:href="#m182bf8dcca" x="318.630469" y="257.214523" style="stroke: #000000; stroke-width: 0.6"/>
      </g>
     </g>
    </g>
    <g id="ytick_24">
     <g id="line2d_56">
      <g>
       <use xlink:href="#m182bf8dcca" x="318.630469" y="254.765816" style="stroke: #000000; stroke-width: 0.6"/>
      </g>
     </g>
    </g>
    <g id="ytick_25">
     <g id="line2d_57">
      <g>
       <use xlink:href="#m182bf8dcca" x="318.630469" y="252.64465" style="stroke: #000000; stroke-width: 0.6"/>
      </g>
     </g>
    </g>
    <g id="ytick_26">
     <g id="line2d_58">
      <g>
       <use xlink:href="#m182bf8dcca" x="318.630469" y="250.773648" style="stroke: #000000; stroke-width: 0.6"/>
      </g>
     </g>
    </g>
    <g id="ytick_27">
     <g id="line2d_59">
      <g>
       <use xlink:href="#m182bf8dcca" x="318.630469" y="238.089233" style="stroke: #000000; stroke-width: 0.6"/>
      </g>
     </g>
    </g>
    <g id="ytick_28">
     <g id="line2d_60">
      <g>
       <use xlink:href="#m182bf8dcca" x="318.630469" y="231.648359" style="stroke: #000000; stroke-width: 0.6"/>
      </g>
     </g>
    </g>
    <g id="ytick_29">
     <g id="line2d_61">
      <g>
       <use xlink:href="#m182bf8dcca" x="318.630469" y="227.078486" style="stroke: #000000; stroke-width: 0.6"/>
      </g>
     </g>
    </g>
    <g id="ytick_30">
     <g id="line2d_62">
      <g>
       <use xlink:href="#m182bf8dcca" x="318.630469" y="223.533817" style="stroke: #000000; stroke-width: 0.6"/>
      </g>
     </g>
    </g>
    <g id="ytick_31">
     <g id="line2d_63">
      <g>
       <use xlink:href="#m182bf8dcca" x="318.630469" y="220.637612" style="stroke: #000000; stroke-width: 0.6"/>
      </g>
     </g>
    </g>
    <g id="ytick_32">
     <g id="line2d_64">
      <g>
       <use xlink:href="#m182bf8dcca" x="318.630469" y="218.188905" style="stroke: #000000; stroke-width: 0.6"/>
      </g>
     </g>
    </g>
    <g id="ytick_33">
     <g id="line2d_65">
      <g>
       <use xlink:href="#m182bf8dcca" x="318.630469" y="216.067738" style="stroke: #000000; stroke-width: 0.6"/>
      </g>
     </g>
    </g>
    <g id="ytick_34">
     <g id="line2d_66">
      <g>
       <use xlink:href="#m182bf8dcca" x="318.630469" y="214.196737" style="stroke: #000000; stroke-width: 0.6"/>
      </g>
     </g>
    </g>
    <g id="ytick_35">
     <g id="line2d_67">
      <g>
       <use xlink:href="#m182bf8dcca" x="318.630469" y="201.512322" style="stroke: #000000; stroke-width: 0.6"/>
      </g>
     </g>
    </g>
    <g id="ytick_36">
     <g id="line2d_68">
      <g>
       <use xlink:href="#m182bf8dcca" x="318.630469" y="195.071448" style="stroke: #000000; stroke-width: 0.6"/>
      </g>
     </g>
    </g>
    <g id="ytick_37">
     <g id="line2d_69">
      <g>
       <use xlink:href="#m182bf8dcca" x="318.630469" y="190.501575" style="stroke: #000000; stroke-width: 0.6"/>
      </g>
     </g>
    </g>
    <g id="ytick_38">
     <g id="line2d_70">
      <g>
       <use xlink:href="#m182bf8dcca" x="318.630469" y="186.956906" style="stroke: #000000; stroke-width: 0.6"/>
      </g>
     </g>
    </g>
    <g id="ytick_39">
     <g id="line2d_71">
      <g>
       <use xlink:href="#m182bf8dcca" x="318.630469" y="184.0607" style="stroke: #000000; stroke-width: 0.6"/>
      </g>
     </g>
    </g>
    <g id="ytick_40">
     <g id="line2d_72">
      <g>
       <use xlink:href="#m182bf8dcca" x="318.630469" y="181.611994" style="stroke: #000000; stroke-width: 0.6"/>
      </g>
     </g>
    </g>
    <g id="ytick_41">
     <g id="line2d_73">
      <g>
       <use xlink:href="#m182bf8dcca" x="318.630469" y="179.490827" style="stroke: #000000; stroke-width: 0.6"/>
      </g>
     </g>
    </g>
    <g id="ytick_42">
     <g id="line2d_74">
      <g>
       <use xlink:href="#m182bf8dcca" x="318.630469" y="177.619826" style="stroke: #000000; stroke-width: 0.6"/>
      </g>
     </g>
    </g>
    <g id="ytick_43">
     <g id="line2d_75">
      <g>
       <use xlink:href="#m182bf8dcca" x="318.630469" y="164.935411" style="stroke: #000000; stroke-width: 0.6"/>
      </g>
     </g>
    </g>
    <g id="ytick_44">
     <g id="line2d_76">
      <g>
       <use xlink:href="#m182bf8dcca" x="318.630469" y="158.494537" style="stroke: #000000; stroke-width: 0.6"/>
      </g>
     </g>
    </g>
    <g id="text_34">
     <!-- Hessian Eigenvalues -->
     <g transform="translate(284.710156 262.039562) rotate(-90) scale(0.1 -0.1)">
      <defs>
       <path id="IBMPlexSans-48" d="M 3392 0 
L 3930 0 
L 3930 4467 
L 3392 4467 
L 3392 2496 
L 1133 2496 
L 1133 4467 
L 595 4467 
L 595 0 
L 1133 0 
L 1133 2022 
L 3392 2022 
L 3392 0 
z
" transform="scale(0.015625)"/>
       <path id="IBMPlexSans-61" d="M 3232 0 
L 3232 448 
L 2854 448 
L 2854 2266 
C 2854 2963 2381 3379 1587 3379 
C 992 3379 595 3085 416 2733 
L 723 2445 
C 902 2746 1165 2938 1562 2938 
C 2086 2938 2342 2682 2342 2214 
L 2342 1888 
L 1690 1888 
C 730 1888 282 1542 282 922 
C 282 307 691 -77 1389 -77 
C 1850 -77 2202 134 2342 538 
L 2374 538 
C 2413 230 2566 0 2944 0 
L 3232 0 
z
M 1472 358 
C 1075 358 819 544 819 870 
L 819 1005 
C 819 1325 1082 1504 1664 1504 
L 2342 1504 
L 2342 960 
C 2342 621 1978 358 1472 358 
z
" transform="scale(0.015625)"/>
       <path id="IBMPlexSans-45" d="M 3322 0 
L 3322 474 
L 1133 474 
L 1133 2022 
L 3194 2022 
L 3194 2496 
L 1133 2496 
L 1133 3994 
L 3322 3994 
L 3322 4467 
L 595 4467 
L 595 0 
L 3322 0 
z
" transform="scale(0.015625)"/>
      </defs>
      <use xlink:href="#IBMPlexSans-48"/>
      <use xlink:href="#IBMPlexSans-65" transform="translate(70.699982 0)"/>
      <use xlink:href="#IBMPlexSans-73" transform="translate(125.599976 0)"/>
      <use xlink:href="#IBMPlexSans-73" transform="translate(174.299973 0)"/>
      <use xlink:href="#IBMPlexSans-69" transform="translate(222.999969 0)"/>
      <use xlink:href="#IBMPlexSans-61" transform="translate(247.999954 0)"/>
      <use xlink:href="#IBMPlexSans-6e" transform="translate(301.399948 0)"/>
      <use xlink:href="#IBMPlexSans-20" transform="translate(358.199936 0)"/>
      <use xlink:href="#IBMPlexSans-45" transform="translate(381.799927 0)"/>
      <use xlink:href="#IBMPlexSans-69" transform="translate(440.099915 0)"/>
      <use xlink:href="#IBMPlexSans-67" transform="translate(465.099899 0)"/>
      <use xlink:href="#IBMPlexSans-65" transform="translate(517.899887 0)"/>
      <use xlink:href="#IBMPlexSans-6e" transform="translate(572.799881 0)"/>
      <use xlink:href="#IBMPlexSans-76" transform="translate(629.599869 0)"/>
      <use xlink:href="#IBMPlexSans-61" transform="translate(678.799866 0)"/>
      <use xlink:href="#IBMPlexSans-6c" transform="translate(732.19986 0)"/>
      <use xlink:href="#IBMPlexSans-75" transform="translate(759.399857 0)"/>
      <use xlink:href="#IBMPlexSans-65" transform="translate(816.199844 0)"/>
      <use xlink:href="#IBMPlexSans-73" transform="translate(871.099838 0)"/>
     </g>
    </g>
   </g>
   <g id="line2d_77">
    <path d="M 328.747244 271.049343 
L 342.236277 270.077589 
L 355.725311 269.123324 
L 369.214344 268.19594 
L 382.703377 267.290864 
L 396.192411 266.428816 
L 409.681444 265.622938 
L 423.170478 264.888072 
L 436.659511 264.24855 
L 450.148544 263.704676 
L 463.637578 263.244412 
L 477.126611 262.842011 
L 490.615645 262.46369 
L 504.104678 262.074336 
L 517.593712 261.654819 
L 531.082745 261.201138 
" clip-path="url(#p10d5775140)" style="fill: none; stroke: #9467bd; stroke-width: 1.5; stroke-linecap: square"/>
   </g>
   <g id="line2d_78">
    <path d="M 328.747244 188.88693 
L 342.236277 188.843436 
L 355.725311 188.797971 
L 369.214344 188.7509 
L 382.703377 188.694988 
L 396.192411 188.636601 
L 409.681444 188.570301 
L 423.170478 188.492531 
L 436.659511 188.404445 
L 450.148544 188.308712 
L 463.637578 188.210496 
L 477.126611 188.118077 
L 490.615645 188.036564 
L 504.104678 187.970781 
L 517.593712 187.922728 
L 531.082745 187.891095 
" clip-path="url(#p10d5775140)" style="fill: none; stroke: #9467bd; stroke-width: 1.5; stroke-linecap: square"/>
   </g>
   <g id="line2d_79">
    <path d="M 328.747244 161.04697 
L 342.236277 161.055506 
L 355.725311 161.064454 
L 369.214344 161.073744 
L 382.703377 161.084653 
L 396.192411 161.096049 
L 409.681444 161.108879 
L 423.170478 161.12377 
L 436.659511 161.140499 
L 450.148544 161.158607 
L 463.637578 161.177186 
L 477.126611 161.194758 
L 490.615645 161.210409 
L 504.104678 161.223265 
L 517.593712 161.232946 
L 531.082745 161.239675 
" clip-path="url(#p10d5775140)" style="fill: none; stroke: #9467bd; stroke-width: 1.5; stroke-linecap: square"/>
   </g>
   <g id="patch_13">
    <path d="M 318.630469 276.549462 
L 318.630469 155.546851 
" style="fill: none; stroke: #000000; stroke-width: 0.8; stroke-linejoin: miter; stroke-linecap: square"/>
   </g>
   <g id="patch_14">
    <path d="M 318.630469 276.549462 
L 541.19952 276.549462 
" style="fill: none; stroke: #000000; stroke-width: 0.8; stroke-linejoin: miter; stroke-linecap: square"/>
   </g>
  </g>
 </g>
 <defs>
  <clipPath id="pf509e34b74">
   <rect x="48.640625" y="10.04376" width="222.569051" height="121.002611"/>
  </clipPath>
  <clipPath id="pfb36bee315">
   <rect x="318.630469" y="10.04376" width="222.569051" height="121.002611"/>
  </clipPath>
  <clipPath id="p5b1928884d">
   <rect x="48.640625" y="155.546851" width="222.569051" height="121.002611"/>
  </clipPath>
  <clipPath id="p10d5775140">
   <rect x="318.630469" y="155.546851" width="222.569051" height="121.002611"/>
  </clipPath>
 </defs>
</svg>