<?xml version="1.0" encoding="utf-8" standalone="no"?>
<!DOCTYPE svg PUBLIC "-//W3C//DTD SVG 1.1//EN"
  "http://www.w3.org/Graphics/SVG/1.1/DTD/svg11.dtd">
<svg xmlns:xlink="http://www.w3.org/1999/xlink" width="548.39952pt" height="312.14952pt" viewBox="0 0 548.39952 312.14952" xmlns="http://www.w3.org/2000/svg" version="1.1">
 <metadata>
  <rdf:RDF xmlns:dc="http://purl.org/dc/elements/1.1/" xmlns:cc="http://creativecommons.org/ns#" xmlns:rdf="http://www.w3.org/1999/02/22-rdf-syntax-ns#">
   <cc:Work>
    <dc:type rdf:resource="http://purl.org/dc/dcmitype/StillImage"/>
    <dc:date>2025-06-25T08:45:30.823775</dc:date>
    <dc:format>image/svg+xml</dc:format>
    <dc:creator>
     <cc:Agent>
      <dc:title>Matplotlib v3.10.1, https://matplotlib.org/</dc:title>
     </cc:Agent>
    </dc:creator>
   </cc:Work>
  </rdf:RDF>
 </metadata>
 <defs>
  <style type="text/css">*{stroke-linejoin: round; stroke-linecap: butt}</style>
 </defs>
 <g id="figure_1">
  <g id="patch_1">
   <path d="M 0 312.14952 
L 548.39952 312.14952 
L 548.39952 0 
L 0 0 
z
" style="fill: #ffffff"/>
  </g>
  <g id="axes_1">
   <g id="patch_2">
    <path d="M 42.320312 274.94952 
L 541.19952 274.94952 
L 541.19952 22.32 
L 42.320312 22.32 
z
" style="fill: #ffffff"/>
   </g>
   <g id="matplotlib.axis_1">
    <g id="xtick_1">
     <g id="line2d_1">
      <defs>
       <path id="m7c061b09eb" d="M 0 0 
L 0 3.5 
" style="stroke: #000000; stroke-width: 0.8"/>
      </defs>
      <g>
       <use xlink:href="#m7c061b09eb" x="59.092876" y="274.94952" style="stroke: #000000; stroke-width: 0.8"/>
      </g>
     </g>
     <g id="text_1">
      <!-- 280 -->
      <g transform="translate(50.092876 289.34952) scale(0.1 -0.1)">
       <defs>
        <path id="IBMPlexSans-32" d="M 3411 474 
L 1062 474 
L 2266 1555 
C 2835 2067 3245 2554 3245 3245 
C 3245 4006 2746 4544 1875 4544 
C 1011 4544 614 4019 442 3494 
L 922 3309 
C 1043 3731 1299 4064 1850 4064 
C 2400 4064 2675 3725 2675 3232 
L 2675 3155 
C 2675 2726 2355 2278 1939 1894 
L 480 550 
L 480 0 
L 3411 0 
L 3411 474 
z
" transform="scale(0.015625)"/>
        <path id="IBMPlexSans-38" d="M 1920 -77 
C 2938 -77 3469 480 3469 1216 
C 3469 1824 3104 2176 2566 2323 
L 2566 2374 
C 3034 2534 3334 2912 3334 3424 
C 3334 4102 2810 4544 1920 4544 
C 1030 4544 506 4102 506 3424 
C 506 2912 806 2534 1274 2374 
L 1274 2323 
C 736 2176 371 1824 371 1216 
C 371 480 902 -77 1920 -77 
z
M 1920 390 
C 1299 390 941 685 941 1190 
L 941 1325 
C 941 1830 1299 2125 1920 2125 
C 2541 2125 2899 1830 2899 1325 
L 2899 1190 
C 2899 685 2541 390 1920 390 
z
M 1920 2573 
C 1363 2573 1062 2822 1062 3277 
L 1062 3373 
C 1062 3827 1363 4077 1920 4077 
C 2477 4077 2778 3827 2778 3373 
L 2778 3277 
C 2778 2822 2477 2573 1920 2573 
z
" transform="scale(0.015625)"/>
        <path id="IBMPlexSans-30" d="M 1920 -77 
C 2989 -77 3456 774 3456 2234 
C 3456 3693 2989 4544 1920 4544 
C 851 4544 384 3693 384 2234 
C 384 774 851 -77 1920 -77 
z
M 1920 390 
C 1222 390 947 1005 947 1869 
L 947 2598 
C 947 3462 1222 4077 1920 4077 
C 2618 4077 2893 3462 2893 2598 
L 2893 1869 
C 2893 1005 2618 390 1920 390 
z
" transform="scale(0.015625)"/>
       </defs>
       <use xlink:href="#IBMPlexSans-32"/>
       <use xlink:href="#IBMPlexSans-38" transform="translate(59.999985 0)"/>
       <use xlink:href="#IBMPlexSans-30" transform="translate(119.999969 0)"/>
      </g>
     </g>
    </g>
    <g id="xtick_2">
     <g id="line2d_2">
      <g>
       <use xlink:href="#m7c061b09eb" x="124.755264" y="274.94952" style="stroke: #000000; stroke-width: 0.8"/>
      </g>
     </g>
     <g id="text_2">
      <!-- 285 -->
      <g transform="translate(115.755264 289.34952) scale(0.1 -0.1)">
       <defs>
        <path id="IBMPlexSans-35" d="M 3187 4467 
L 794 4467 
L 634 2010 
L 1088 1946 
C 1274 2150 1478 2323 1888 2323 
C 2496 2323 2822 1984 2822 1395 
L 2822 1331 
C 2822 742 2496 403 1888 403 
C 1350 403 1126 640 896 992 
L 493 685 
C 762 301 1146 -77 1888 -77 
C 2829 -77 3392 531 3392 1402 
C 3392 2266 2829 2784 2061 2784 
C 1594 2784 1357 2592 1146 2291 
L 1101 2291 
L 1229 3994 
L 3187 3994 
L 3187 4467 
z
" transform="scale(0.015625)"/>
       </defs>
       <use xlink:href="#IBMPlexSans-32"/>
       <use xlink:href="#IBMPlexSans-38" transform="translate(59.999985 0)"/>
       <use xlink:href="#IBMPlexSans-35" transform="translate(119.999969 0)"/>
      </g>
     </g>
    </g>
    <g id="xtick_3">
     <g id="line2d_3">
      <g>
       <use xlink:href="#m7c061b09eb" x="190.417652" y="274.94952" style="stroke: #000000; stroke-width: 0.8"/>
      </g>
     </g>
     <g id="text_3">
      <!-- 290 -->
      <g transform="translate(181.417652 289.34952) scale(0.1 -0.1)">
       <defs>
        <path id="IBMPlexSans-39" d="M 3411 2829 
C 3411 3891 2842 4544 1914 4544 
C 1018 4544 429 3942 429 3066 
C 429 2221 979 1690 1747 1690 
C 2291 1690 2611 1965 2822 2330 
L 2854 2317 
C 2611 1280 2080 698 1126 0 
L 1818 0 
C 2534 467 3411 1504 3411 2829 
z
M 1920 2144 
C 1331 2144 986 2483 986 3085 
L 986 3136 
C 986 3738 1331 4077 1920 4077 
C 2509 4077 2854 3738 2854 3136 
L 2854 3085 
C 2854 2483 2509 2144 1920 2144 
z
" transform="scale(0.015625)"/>
       </defs>
       <use xlink:href="#IBMPlexSans-32"/>
       <use xlink:href="#IBMPlexSans-39" transform="translate(59.999985 0)"/>
       <use xlink:href="#IBMPlexSans-30" transform="translate(119.999969 0)"/>
      </g>
     </g>
    </g>
    <g id="xtick_4">
     <g id="line2d_4">
      <g>
       <use xlink:href="#m7c061b09eb" x="256.080039" y="274.94952" style="stroke: #000000; stroke-width: 0.8"/>
      </g>
     </g>
     <g id="text_4">
      <!-- 295 -->
      <g transform="translate(247.080039 289.34952) scale(0.1 -0.1)">
       <use xlink:href="#IBMPlexSans-32"/>
       <use xlink:href="#IBMPlexSans-39" transform="translate(59.999985 0)"/>
       <use xlink:href="#IBMPlexSans-35" transform="translate(119.999969 0)"/>
      </g>
     </g>
    </g>
    <g id="xtick_5">
     <g id="line2d_5">
      <g>
       <use xlink:href="#m7c061b09eb" x="321.742427" y="274.94952" style="stroke: #000000; stroke-width: 0.8"/>
      </g>
     </g>
     <g id="text_5">
      <!-- 300 -->
      <g transform="translate(312.742427 289.34952) scale(0.1 -0.1)">
       <defs>
        <path id="IBMPlexSans-33" d="M 1184 2573 
L 1184 2106 
L 1709 2106 
C 2336 2106 2669 1805 2669 1280 
L 2669 1229 
C 2669 704 2336 403 1709 403 
C 1165 403 902 640 672 992 
L 269 685 
C 544 301 941 -77 1715 -77 
C 2624 -77 3232 454 3232 1222 
C 3232 1894 2771 2253 2291 2349 
L 2291 2374 
C 2765 2496 3149 2842 3149 3418 
C 3149 4141 2547 4544 1792 4544 
C 1075 4544 685 4173 461 3814 
L 858 3507 
C 1043 3846 1318 4064 1779 4064 
C 2253 4064 2579 3827 2579 3360 
L 2579 3315 
C 2579 2886 2272 2573 1670 2573 
L 1184 2573 
z
" transform="scale(0.015625)"/>
       </defs>
       <use xlink:href="#IBMPlexSans-33"/>
       <use xlink:href="#IBMPlexSans-30" transform="translate(59.999985 0)"/>
       <use xlink:href="#IBMPlexSans-30" transform="translate(119.999969 0)"/>
      </g>
     </g>
    </g>
    <g id="xtick_6">
     <g id="line2d_6">
      <g>
       <use xlink:href="#m7c061b09eb" x="387.404814" y="274.94952" style="stroke: #000000; stroke-width: 0.8"/>
      </g>
     </g>
     <g id="text_6">
      <!-- 305 -->
      <g transform="translate(378.404814 289.34952) scale(0.1 -0.1)">
       <use xlink:href="#IBMPlexSans-33"/>
       <use xlink:href="#IBMPlexSans-30" transform="translate(59.999985 0)"/>
       <use xlink:href="#IBMPlexSans-35" transform="translate(119.999969 0)"/>
      </g>
     </g>
    </g>
    <g id="xtick_7">
     <g id="line2d_7">
      <g>
       <use xlink:href="#m7c061b09eb" x="453.067202" y="274.94952" style="stroke: #000000; stroke-width: 0.8"/>
      </g>
     </g>
     <g id="text_7">
      <!-- 310 -->
      <g transform="translate(444.067202 289.34952) scale(0.1 -0.1)">
       <defs>
        <path id="IBMPlexSans-31" d="M 3501 0 
L 3501 474 
L 2349 474 
L 2349 4467 
L 1510 4467 
L 326 3360 
L 640 3021 
L 1766 4070 
L 1811 4070 
L 1811 474 
L 563 474 
L 563 0 
L 3501 0 
z
" transform="scale(0.015625)"/>
       </defs>
       <use xlink:href="#IBMPlexSans-33"/>
       <use xlink:href="#IBMPlexSans-31" transform="translate(59.999985 0)"/>
       <use xlink:href="#IBMPlexSans-30" transform="translate(119.999969 0)"/>
      </g>
     </g>
    </g>
    <g id="xtick_8">
     <g id="line2d_8">
      <g>
       <use xlink:href="#m7c061b09eb" x="518.72959" y="274.94952" style="stroke: #000000; stroke-width: 0.8"/>
      </g>
     </g>
     <g id="text_8">
      <!-- 315 -->
      <g transform="translate(509.72959 289.34952) scale(0.1 -0.1)">
       <use xlink:href="#IBMPlexSans-33"/>
       <use xlink:href="#IBMPlexSans-31" transform="translate(59.999985 0)"/>
       <use xlink:href="#IBMPlexSans-35" transform="translate(119.999969 0)"/>
      </g>
     </g>
    </g>
    <g id="text_9">
     <!-- Temperature [K] -->
     <g transform="translate(254.94351 302.94952) scale(0.1 -0.1)">
      <defs>
       <path id="IBMPlexSans-54" d="M 3520 3994 
L 3520 4467 
L 141 4467 
L 141 3994 
L 1562 3994 
L 1562 0 
L 2099 0 
L 2099 3994 
L 3520 3994 
z
" transform="scale(0.015625)"/>
       <path id="IBMPlexSans-65" d="M 1786 -77 
C 2406 -77 2880 230 3091 678 
L 2726 941 
C 2554 576 2234 371 1818 371 
C 1203 371 838 800 838 1370 
L 838 1523 
L 3213 1523 
L 3213 1766 
C 3213 2701 2669 3379 1786 3379 
C 890 3379 301 2701 301 1651 
C 301 602 890 -77 1786 -77 
z
M 1786 2950 
C 2310 2950 2662 2560 2662 1978 
L 2662 1907 
L 838 1907 
L 838 1952 
C 838 2528 1229 2950 1786 2950 
z
" transform="scale(0.015625)"/>
       <path id="IBMPlexSans-6d" d="M 1056 0 
L 1056 2291 
C 1056 2714 1440 2918 1843 2918 
C 2330 2918 2554 2618 2554 2029 
L 2554 0 
L 3066 0 
L 3066 2291 
C 3066 2714 3437 2918 3840 2918 
C 4339 2918 4563 2611 4563 2029 
L 4563 0 
L 5075 0 
L 5075 2118 
C 5075 2918 4672 3379 4000 3379 
C 3437 3379 3117 3066 2995 2707 
L 2982 2707 
C 2803 3181 2406 3379 1971 3379 
C 1459 3379 1229 3104 1082 2765 
L 1056 2765 
L 1056 3302 
L 544 3302 
L 544 0 
L 1056 0 
z
" transform="scale(0.015625)"/>
       <path id="IBMPlexSans-70" d="M 544 -1280 
L 1056 -1280 
L 1056 538 
L 1082 538 
C 1280 128 1594 -77 2048 -77 
C 2874 -77 3392 595 3392 1651 
C 3392 2707 2874 3379 2048 3379 
C 1594 3379 1254 3181 1082 2765 
L 1056 2765 
L 1056 3302 
L 544 3302 
L 544 -1280 
z
M 1907 384 
C 1440 384 1056 627 1056 1056 
L 1056 2285 
C 1056 2650 1440 2918 1907 2918 
C 2483 2918 2842 2522 2842 1933 
L 2842 1370 
C 2842 781 2483 384 1907 384 
z
" transform="scale(0.015625)"/>
       <path id="IBMPlexSans-72" d="M 1056 0 
L 1056 2240 
C 1056 2554 1389 2790 1939 2790 
L 2240 2790 
L 2240 3302 
L 2042 3302 
C 1504 3302 1203 3008 1088 2694 
L 1056 2694 
L 1056 3302 
L 544 3302 
L 544 0 
L 1056 0 
z
" transform="scale(0.015625)"/>
       <path id="IBMPlexSans-61" d="M 3232 0 
L 3232 448 
L 2854 448 
L 2854 2266 
C 2854 2963 2381 3379 1587 3379 
C 992 3379 595 3085 416 2733 
L 723 2445 
C 902 2746 1165 2938 1562 2938 
C 2086 2938 2342 2682 2342 2214 
L 2342 1888 
L 1690 1888 
C 730 1888 282 1542 282 922 
C 282 307 691 -77 1389 -77 
C 1850 -77 2202 134 2342 538 
L 2374 538 
C 2413 230 2566 0 2944 0 
L 3232 0 
z
M 1472 358 
C 1075 358 819 544 819 870 
L 819 1005 
C 819 1325 1082 1504 1664 1504 
L 2342 1504 
L 2342 960 
C 2342 621 1978 358 1472 358 
z
" transform="scale(0.015625)"/>
       <path id="IBMPlexSans-74" d="M 1914 0 
L 1914 448 
L 1242 448 
L 1242 2854 
L 1965 2854 
L 1965 3302 
L 1242 3302 
L 1242 4218 
L 781 4218 
L 781 3603 
C 781 3379 710 3302 493 3302 
L 186 3302 
L 186 2854 
L 730 2854 
L 730 544 
C 730 224 922 0 1274 0 
L 1914 0 
z
" transform="scale(0.015625)"/>
       <path id="IBMPlexSans-75" d="M 2579 0 
L 3091 0 
L 3091 3302 
L 2579 3302 
L 2579 1018 
C 2579 582 2182 384 1779 384 
C 1286 384 1024 685 1024 1274 
L 1024 3302 
L 512 3302 
L 512 1184 
C 512 384 947 -77 1626 -77 
C 2176 -77 2426 224 2554 538 
L 2579 538 
L 2579 0 
z
" transform="scale(0.015625)"/>
       <path id="IBMPlexSans-20" transform="scale(0.015625)"/>
       <path id="IBMPlexSans-5b" d="M 1645 -883 
L 1645 -480 
L 1037 -480 
L 1037 4461 
L 1645 4461 
L 1645 4864 
L 595 4864 
L 595 -883 
L 1645 -883 
z
" transform="scale(0.015625)"/>
       <path id="IBMPlexSans-4b" d="M 3251 0 
L 3917 0 
L 2138 2554 
L 3802 4467 
L 3142 4467 
L 1792 2867 
L 1152 2093 
L 1133 2093 
L 1133 4467 
L 595 4467 
L 595 0 
L 1133 0 
L 1133 1491 
L 1766 2195 
L 3251 0 
z
" transform="scale(0.015625)"/>
       <path id="IBMPlexSans-5d" d="M 384 4864 
L 384 4461 
L 992 4461 
L 992 -480 
L 384 -480 
L 384 -883 
L 1434 -883 
L 1434 4864 
L 384 4864 
z
" transform="scale(0.015625)"/>
      </defs>
      <use xlink:href="#IBMPlexSans-54"/>
      <use xlink:href="#IBMPlexSans-65" transform="translate(57.199997 0)"/>
      <use xlink:href="#IBMPlexSans-6d" transform="translate(112.099991 0)"/>
      <use xlink:href="#IBMPlexSans-70" transform="translate(199.399979 0)"/>
      <use xlink:href="#IBMPlexSans-65" transform="translate(257.399963 0)"/>
      <use xlink:href="#IBMPlexSans-72" transform="translate(312.299957 0)"/>
      <use xlink:href="#IBMPlexSans-61" transform="translate(348.999954 0)"/>
      <use xlink:href="#IBMPlexSans-74" transform="translate(402.399948 0)"/>
      <use xlink:href="#IBMPlexSans-75" transform="translate(437.499939 0)"/>
      <use xlink:href="#IBMPlexSans-72" transform="translate(494.299927 0)"/>
      <use xlink:href="#IBMPlexSans-65" transform="translate(530.999924 0)"/>
      <use xlink:href="#IBMPlexSans-20" transform="translate(585.899918 0)"/>
      <use xlink:href="#IBMPlexSans-5b" transform="translate(609.499908 0)"/>
      <use xlink:href="#IBMPlexSans-4b" transform="translate(641.199905 0)"/>
      <use xlink:href="#IBMPlexSans-5d" transform="translate(704.599899 0)"/>
     </g>
    </g>
   </g>
   <g id="matplotlib.axis_2">
    <g id="ytick_1">
     <g id="line2d_9">
      <defs>
       <path id="m8083885638" d="M 0 0 
L -3.5 0 
" style="stroke: #000000; stroke-width: 0.8"/>
      </defs>
      <g>
       <use xlink:href="#m8083885638" x="42.320312" y="263.573125" style="stroke: #000000; stroke-width: 0.8"/>
      </g>
     </g>
     <g id="text_10">
      <!-- 0.0 -->
      <g transform="translate(20.6 267.273125) scale(0.1 -0.1)">
       <defs>
        <path id="IBMPlexSans-2e" d="M 870 -77 
C 1139 -77 1261 77 1261 294 
L 1261 378 
C 1261 595 1139 749 870 749 
C 602 749 480 595 480 378 
L 480 294 
C 480 77 602 -77 870 -77 
z
" transform="scale(0.015625)"/>
       </defs>
       <use xlink:href="#IBMPlexSans-30"/>
       <use xlink:href="#IBMPlexSans-2e" transform="translate(59.999985 0)"/>
       <use xlink:href="#IBMPlexSans-30" transform="translate(87.199982 0)"/>
      </g>
     </g>
    </g>
    <g id="ytick_2">
     <g id="line2d_10">
      <g>
       <use xlink:href="#m8083885638" x="42.320312" y="217.564983" style="stroke: #000000; stroke-width: 0.8"/>
      </g>
     </g>
     <g id="text_11">
      <!-- 0.2 -->
      <g transform="translate(20.6 221.264983) scale(0.1 -0.1)">
       <use xlink:href="#IBMPlexSans-30"/>
       <use xlink:href="#IBMPlexSans-2e" transform="translate(59.999985 0)"/>
       <use xlink:href="#IBMPlexSans-32" transform="translate(87.199982 0)"/>
      </g>
     </g>
    </g>
    <g id="ytick_3">
     <g id="line2d_11">
      <g>
       <use xlink:href="#m8083885638" x="42.320312" y="171.556841" style="stroke: #000000; stroke-width: 0.8"/>
      </g>
     </g>
     <g id="text_12">
      <!-- 0.4 -->
      <g transform="translate(20.6 175.256841) scale(0.1 -0.1)">
       <defs>
        <path id="IBMPlexSans-34" d="M 2912 0 
L 2912 877 
L 3558 877 
L 3558 1325 
L 2912 1325 
L 2912 4467 
L 2112 4467 
L 243 1350 
L 243 877 
L 2400 877 
L 2400 0 
L 2912 0 
z
M 2368 4051 
L 2400 4051 
L 2400 1325 
L 749 1325 
L 2368 4051 
z
" transform="scale(0.015625)"/>
       </defs>
       <use xlink:href="#IBMPlexSans-30"/>
       <use xlink:href="#IBMPlexSans-2e" transform="translate(59.999985 0)"/>
       <use xlink:href="#IBMPlexSans-34" transform="translate(87.199982 0)"/>
      </g>
     </g>
    </g>
    <g id="ytick_4">
     <g id="line2d_12">
      <g>
       <use xlink:href="#m8083885638" x="42.320312" y="125.548699" style="stroke: #000000; stroke-width: 0.8"/>
      </g>
     </g>
     <g id="text_13">
      <!-- 0.6 -->
      <g transform="translate(20.6 129.248699) scale(0.1 -0.1)">
       <defs>
        <path id="IBMPlexSans-36" d="M 1926 -77 
C 2822 -77 3411 525 3411 1402 
C 3411 2246 2861 2778 2093 2778 
C 1549 2778 1229 2502 1018 2138 
L 986 2150 
C 1229 3187 1760 3770 2714 4467 
L 2022 4467 
C 1306 4000 429 2963 429 1638 
C 429 576 998 -77 1926 -77 
z
M 1920 390 
C 1331 390 986 730 986 1331 
L 986 1382 
C 986 1984 1331 2323 1920 2323 
C 2509 2323 2854 1984 2854 1382 
L 2854 1331 
C 2854 730 2509 390 1920 390 
z
" transform="scale(0.015625)"/>
       </defs>
       <use xlink:href="#IBMPlexSans-30"/>
       <use xlink:href="#IBMPlexSans-2e" transform="translate(59.999985 0)"/>
       <use xlink:href="#IBMPlexSans-36" transform="translate(87.199982 0)"/>
      </g>
     </g>
    </g>
    <g id="ytick_5">
     <g id="line2d_13">
      <g>
       <use xlink:href="#m8083885638" x="42.320312" y="79.540556" style="stroke: #000000; stroke-width: 0.8"/>
      </g>
     </g>
     <g id="text_14">
      <!-- 0.8 -->
      <g transform="translate(20.6 83.240556) scale(0.1 -0.1)">
       <use xlink:href="#IBMPlexSans-30"/>
       <use xlink:href="#IBMPlexSans-2e" transform="translate(59.999985 0)"/>
       <use xlink:href="#IBMPlexSans-38" transform="translate(87.199982 0)"/>
      </g>
     </g>
    </g>
    <g id="ytick_6">
     <g id="line2d_14">
      <g>
       <use xlink:href="#m8083885638" x="42.320312" y="33.532414" style="stroke: #000000; stroke-width: 0.8"/>
      </g>
     </g>
     <g id="text_15">
      <!-- 1.0 -->
      <g transform="translate(20.6 37.232414) scale(0.1 -0.1)">
       <use xlink:href="#IBMPlexSans-31"/>
       <use xlink:href="#IBMPlexSans-2e" transform="translate(59.999985 0)"/>
       <use xlink:href="#IBMPlexSans-30" transform="translate(87.199982 0)"/>
      </g>
     </g>
    </g>
    <g id="text_16">
     <!-- Cumulative Probability -->
     <g transform="translate(14.6 199.449604) rotate(-90) scale(0.1 -0.1)">
      <defs>
       <path id="IBMPlexSans-43" d="M 2170 -77 
C 2912 -77 3456 314 3738 941 
L 3309 1210 
C 3130 723 2739 403 2170 403 
C 1402 403 947 960 947 1875 
L 947 2541 
C 947 3456 1402 4064 2170 4064 
C 2720 4064 3091 3763 3270 3302 
L 3706 3565 
C 3424 4186 2912 4544 2170 4544 
C 1043 4544 371 3699 371 2208 
C 371 717 1043 -77 2170 -77 
z
" transform="scale(0.015625)"/>
       <path id="IBMPlexSans-6c" d="M 1542 0 
L 1542 448 
L 1056 448 
L 1056 4736 
L 544 4736 
L 544 531 
C 544 224 736 0 1088 0 
L 1542 0 
z
" transform="scale(0.015625)"/>
       <path id="IBMPlexSans-69" d="M 800 4077 
C 1018 4077 1114 4192 1114 4365 
L 1114 4448 
C 1114 4621 1018 4736 800 4736 
C 582 4736 486 4621 486 4448 
L 486 4365 
C 486 4192 582 4077 800 4077 
z
M 544 0 
L 1056 0 
L 1056 3302 
L 544 3302 
L 544 0 
z
" transform="scale(0.015625)"/>
       <path id="IBMPlexSans-76" d="M 1869 0 
L 3034 3302 
L 2541 3302 
L 1952 1664 
L 1594 538 
L 1562 538 
L 1203 1664 
L 627 3302 
L 115 3302 
L 1274 0 
L 1869 0 
z
" transform="scale(0.015625)"/>
       <path id="IBMPlexSans-50" d="M 1133 0 
L 1133 1907 
L 2374 1907 
C 3174 1907 3622 2400 3622 3187 
C 3622 3974 3174 4467 2374 4467 
L 595 4467 
L 595 0 
L 1133 0 
z
M 1133 3994 
L 2374 3994 
C 2797 3994 3046 3763 3046 3354 
L 3046 3021 
C 3046 2611 2797 2381 2374 2381 
L 1133 2381 
L 1133 3994 
z
" transform="scale(0.015625)"/>
       <path id="IBMPlexSans-6f" d="M 1792 -77 
C 2675 -77 3283 602 3283 1651 
C 3283 2701 2675 3379 1792 3379 
C 909 3379 301 2701 301 1651 
C 301 602 909 -77 1792 -77 
z
M 1792 378 
C 1242 378 851 717 851 1414 
L 851 1888 
C 851 2586 1242 2925 1792 2925 
C 2342 2925 2733 2586 2733 1888 
L 2733 1414 
C 2733 717 2342 378 1792 378 
z
" transform="scale(0.015625)"/>
       <path id="IBMPlexSans-62" d="M 544 0 
L 1056 0 
L 1056 538 
L 1082 538 
C 1280 128 1594 -77 2048 -77 
C 2874 -77 3392 595 3392 1651 
C 3392 2707 2874 3379 2048 3379 
C 1594 3379 1254 3181 1082 2765 
L 1056 2765 
L 1056 4736 
L 544 4736 
L 544 0 
z
M 1907 384 
C 1440 384 1056 627 1056 1056 
L 1056 2285 
C 1056 2650 1440 2918 1907 2918 
C 2483 2918 2842 2522 2842 1933 
L 2842 1370 
C 2842 781 2483 384 1907 384 
z
" transform="scale(0.015625)"/>
       <path id="IBMPlexSans-79" d="M 1779 1056 
L 1600 518 
L 1568 518 
L 1414 1056 
L 621 3302 
L 109 3302 
L 1344 -128 
L 1094 -832 
L 576 -832 
L 576 -1280 
L 838 -1280 
C 1325 -1280 1459 -1165 1606 -768 
L 3085 3302 
L 2579 3302 
L 1779 1056 
z
" transform="scale(0.015625)"/>
      </defs>
      <use xlink:href="#IBMPlexSans-43"/>
      <use xlink:href="#IBMPlexSans-75" transform="translate(62.099991 0)"/>
      <use xlink:href="#IBMPlexSans-6d" transform="translate(118.899979 0)"/>
      <use xlink:href="#IBMPlexSans-75" transform="translate(206.199966 0)"/>
      <use xlink:href="#IBMPlexSans-6c" transform="translate(262.999954 0)"/>
      <use xlink:href="#IBMPlexSans-61" transform="translate(290.199951 0)"/>
      <use xlink:href="#IBMPlexSans-74" transform="translate(343.599945 0)"/>
      <use xlink:href="#IBMPlexSans-69" transform="translate(378.699936 0)"/>
      <use xlink:href="#IBMPlexSans-76" transform="translate(403.699921 0)"/>
      <use xlink:href="#IBMPlexSans-65" transform="translate(452.899918 0)"/>
      <use xlink:href="#IBMPlexSans-20" transform="translate(507.799911 0)"/>
      <use xlink:href="#IBMPlexSans-50" transform="translate(531.399902 0)"/>
      <use xlink:href="#IBMPlexSans-72" transform="translate(591.999893 0)"/>
      <use xlink:href="#IBMPlexSans-6f" transform="translate(628.69989 0)"/>
      <use xlink:href="#IBMPlexSans-62" transform="translate(684.699875 0)"/>
      <use xlink:href="#IBMPlexSans-61" transform="translate(742.69986 0)"/>
      <use xlink:href="#IBMPlexSans-62" transform="translate(796.099854 0)"/>
      <use xlink:href="#IBMPlexSans-69" transform="translate(854.099838 0)"/>
      <use xlink:href="#IBMPlexSans-6c" transform="translate(879.099823 0)"/>
      <use xlink:href="#IBMPlexSans-69" transform="translate(906.29982 0)"/>
      <use xlink:href="#IBMPlexSans-74" transform="translate(931.299805 0)"/>
      <use xlink:href="#IBMPlexSans-79" transform="translate(966.399796 0)"/>
     </g>
    </g>
   </g>
   <g id="line2d_15">
    <path d="M 112.9806 262.422922 
L 120.074254 260.122515 
L 138.579072 257.822108 
L 140.937211 255.521701 
L 160.464798 253.221293 
L 166.81983 250.920886 
L 170.902088 248.620479 
L 181.945745 246.320072 
L 184.176839 244.019665 
L 193.214235 241.719258 
L 194.160456 239.418851 
L 198.191815 237.118444 
L 206.481371 234.818037 
L 211.591207 232.517629 
L 211.870945 230.217222 
L 214.773733 227.916815 
L 216.574799 225.616408 
L 224.199876 223.316001 
L 224.900024 221.015594 
L 226.988443 218.715187 
L 229.781419 216.41478 
L 234.050036 214.114373 
L 234.321358 211.813965 
L 237.632932 209.513558 
L 237.973989 207.213151 
L 241.662689 204.912744 
L 242.294705 202.612337 
L 245.418317 200.31193 
L 248.198469 198.011523 
L 248.920258 195.711116 
L 250.112954 193.410708 
L 253.153606 191.110301 
L 254.605601 188.809894 
L 255.236415 186.509487 
L 255.80511 184.20908 
L 257.786925 181.908673 
L 259.160769 179.608266 
L 261.664789 177.307859 
L 262.904776 175.007452 
L 264.365187 172.707044 
L 267.724453 170.406637 
L 269.528325 168.10623 
L 270.890146 165.805823 
L 273.206204 163.505416 
L 277.485641 161.205009 
L 279.180503 158.904602 
L 280.765955 156.604195 
L 282.000331 154.303788 
L 282.385071 152.00338 
L 286.598381 149.702973 
L 288.489622 147.402566 
L 295.832555 145.102159 
L 297.159109 142.801752 
L 297.692936 140.501345 
L 299.572955 138.200938 
L 300.717157 135.900531 
L 302.569523 133.600124 
L 305.69033 131.299716 
L 309.91967 128.999309 
L 311.059865 126.698902 
L 312.402449 124.398495 
L 313.634421 122.098088 
L 314.197905 119.797681 
L 316.968839 117.497274 
L 318.830823 115.196867 
L 319.252835 112.89646 
L 319.49971 110.596052 
L 322.155622 108.295645 
L 322.651777 105.995238 
L 329.319812 103.694831 
L 333.326324 101.394424 
L 337.223425 99.094017 
L 338.690248 96.79361 
L 342.324043 94.493203 
L 344.802814 92.192795 
L 349.359985 89.892388 
L 356.941779 87.591981 
L 361.604754 85.291574 
L 362.752564 82.991167 
L 365.307481 80.69076 
L 365.584014 78.390353 
L 366.177957 76.089946 
L 369.958834 73.789539 
L 370.904655 71.489131 
L 372.210368 69.188724 
L 373.692821 66.888317 
L 377.199171 64.58791 
L 378.989416 62.287503 
L 388.507337 59.987096 
L 390.935611 57.686689 
L 393.702937 55.386282 
L 395.548089 53.085875 
L 404.559033 50.785467 
L 413.544328 48.48506 
L 416.842677 46.184653 
L 417.424998 43.884246 
L 423.741957 41.583839 
L 446.534227 39.283432 
L 463.790643 36.983025 
L 480.439489 34.682618 
" clip-path="url(#pa5440eb81c)" style="fill: none; stroke: #1f77b4; stroke-opacity: 0.2; stroke-width: 1.5; stroke-linecap: square"/>
   </g>
   <g id="line2d_16">
    <path d="M 134.813825 262.422922 
L 140.794136 260.122515 
L 160.377029 257.822108 
L 164.972675 255.521701 
L 179.612053 253.221293 
L 181.798662 250.920886 
L 185.913382 248.620479 
L 187.032336 246.320072 
L 191.003179 244.019665 
L 194.433381 241.719258 
L 197.653579 239.418851 
L 202.03361 237.118444 
L 214.722434 234.818037 
L 220.097981 232.517629 
L 222.187603 230.217222 
L 224.393048 227.916815 
L 226.959187 225.616408 
L 229.212725 223.316001 
L 236.172922 221.015594 
L 236.975266 218.715187 
L 238.086605 216.41478 
L 238.611215 214.114373 
L 243.620056 211.813965 
L 245.252799 209.513558 
L 247.186521 207.213151 
L 248.846917 204.912744 
L 252.326414 202.612337 
L 253.131965 200.31193 
L 256.4752 198.011523 
L 258.206132 195.711116 
L 260.014011 193.410708 
L 260.627993 191.110301 
L 261.07846 188.809894 
L 261.752157 186.509487 
L 264.758744 184.20908 
L 265.445266 181.908673 
L 268.018619 179.608266 
L 273.077556 177.307859 
L 274.61211 175.007452 
L 275.566747 172.707044 
L 278.303615 170.406637 
L 280.505053 168.10623 
L 281.131859 165.805823 
L 283.20505 163.505416 
L 284.445036 161.205009 
L 285.846935 158.904602 
L 286.337078 156.604195 
L 288.676381 154.303788 
L 290.438573 152.00338 
L 292.148665 149.702973 
L 292.751825 147.402566 
L 294.710395 145.102159 
L 298.973802 142.801752 
L 300.781681 140.501345 
L 303.688076 138.200938 
L 305.67991 135.900531 
L 306.472635 133.600124 
L 309.86236 131.299716 
L 311.693084 128.999309 
L 312.777571 126.698902 
L 314.173458 124.398495 
L 315.428674 122.098088 
L 316.636198 119.797681 
L 320.532498 117.497274 
L 320.932468 115.196867 
L 324.561052 112.89646 
L 327.004956 110.596052 
L 328.20166 108.295645 
L 332.562854 105.995238 
L 334.777918 103.694831 
L 338.014948 101.394424 
L 342.232266 99.094017 
L 343.414542 96.79361 
L 345.012417 94.493203 
L 346.737337 92.192795 
L 351.591481 89.892388 
L 357.178635 87.591981 
L 359.6542 85.291574 
L 361.657656 82.991167 
L 363.013867 80.69076 
L 363.993753 78.390353 
L 366.975091 76.089946 
L 370.437355 73.789539 
L 374.047905 71.489131 
L 378.452784 69.188724 
L 387.270556 66.888317 
L 389.914846 64.58791 
L 391.877824 62.287503 
L 394.572611 59.987096 
L 399.099324 57.686689 
L 403.662507 55.386282 
L 407.073473 53.085875 
L 409.481708 50.785467 
L 413.204474 48.48506 
L 415.822313 46.184653 
L 419.020068 43.884246 
L 427.606595 41.583839 
L 432.246326 39.283432 
L 455.703076 36.983025 
L 462.525808 34.682618 
" clip-path="url(#pa5440eb81c)" style="fill: none; stroke: #1f77b4; stroke-opacity: 0.2; stroke-width: 1.5; stroke-linecap: square"/>
   </g>
   <g id="line2d_17">
    <path d="M 154.232803 262.422922 
L 164.492551 260.122515 
L 170.050048 257.822108 
L 173.197707 255.521701 
L 179.326704 253.221293 
L 184.895422 250.920886 
L 186.678054 248.620479 
L 191.806725 246.320072 
L 193.228262 244.019665 
L 194.735563 241.719258 
L 196.984692 239.418851 
L 210.752793 237.118444 
L 216.956734 234.818037 
L 220.590128 232.517629 
L 226.844967 230.217222 
L 229.947339 227.916815 
L 231.261468 225.616408 
L 233.099005 223.316001 
L 234.679648 221.015594 
L 237.107922 218.715187 
L 238.488579 216.41478 
L 243.234113 214.114373 
L 245.649963 211.813965 
L 246.158542 209.513558 
L 249.321029 207.213151 
L 252.046676 204.912744 
L 254.077385 202.612337 
L 261.051208 200.31193 
L 263.370071 198.011523 
L 264.251368 195.711116 
L 265.330645 193.410708 
L 266.451202 191.110301 
L 269.131962 188.809894 
L 271.966217 186.509487 
L 274.659802 184.20908 
L 275.127502 181.908673 
L 278.710799 179.608266 
L 281.387952 177.307859 
L 283.078406 175.007452 
L 285.435743 172.707044 
L 287.050051 170.406637 
L 287.972226 168.10623 
L 289.48634 165.805823 
L 291.30985 163.505416 
L 292.868049 161.205009 
L 294.039504 158.904602 
L 297.224034 156.604195 
L 298.710495 154.303788 
L 299.675152 152.00338 
L 302.52664 149.702973 
L 307.453323 147.402566 
L 307.749894 145.102159 
L 308.343837 142.801752 
L 309.128548 140.501345 
L 310.616612 138.200938 
L 312.644515 135.900531 
L 314.99023 133.600124 
L 315.359341 131.299716 
L 316.46066 128.999309 
L 316.773663 126.698902 
L 317.290658 124.398495 
L 320.016304 122.098088 
L 321.270318 119.797681 
L 324.143849 117.497274 
L 325.381832 115.196867 
L 325.932492 112.89646 
L 329.713369 110.596052 
L 332.190537 108.295645 
L 334.453293 105.995238 
L 337.040272 103.694831 
L 338.298294 101.394424 
L 339.198827 99.094017 
L 345.731 96.79361 
L 354.489058 94.493203 
L 357.50326 92.192795 
L 358.839031 89.892388 
L 359.405722 87.591981 
L 365.706249 85.291574 
L 367.167461 82.991167 
L 368.513252 80.69076 
L 370.080268 78.390353 
L 374.837825 76.089946 
L 377.173521 73.789539 
L 377.989091 71.489131 
L 381.758346 69.188724 
L 384.713234 66.888317 
L 389.308078 64.58791 
L 400.815427 62.287503 
L 403.639663 59.987096 
L 406.290366 57.686689 
L 409.771065 55.386282 
L 413.408867 53.085875 
L 423.126372 50.785467 
L 425.595524 48.48506 
L 440.754703 46.184653 
L 454.339651 43.884246 
L 456.852087 41.583839 
L 480.661516 39.283432 
L 494.56107 36.983025 
L 502.181337 34.682618 
" clip-path="url(#pa5440eb81c)" style="fill: none; stroke: #1f77b4; stroke-opacity: 0.2; stroke-width: 1.5; stroke-linecap: square"/>
   </g>
   <g id="line2d_18">
    <path d="M 116.074155 262.422922 
L 168.527517 260.122515 
L 171.633095 257.822108 
L 172.278738 255.521701 
L 179.588808 253.221293 
L 189.400494 250.920886 
L 200.525908 248.620479 
L 204.70395 246.320072 
L 205.294687 244.019665 
L 208.499656 241.719258 
L 212.426815 239.418851 
L 215.071906 237.118444 
L 216.425712 234.818037 
L 221.429343 232.517629 
L 224.273618 230.217222 
L 226.542786 227.916815 
L 227.327095 225.616408 
L 229.912071 223.316001 
L 232.416091 221.015594 
L 232.953124 218.715187 
L 233.926999 216.41478 
L 235.286015 214.114373 
L 236.673085 211.813965 
L 237.075459 209.513558 
L 240.461577 207.213151 
L 243.863324 204.912744 
L 247.275492 202.612337 
L 248.024133 200.31193 
L 251.817034 198.011523 
L 252.116009 195.711116 
L 253.120342 193.410708 
L 254.17397 191.110301 
L 257.528427 188.809894 
L 259.55593 186.509487 
L 262.518833 184.20908 
L 264.299059 181.908673 
L 265.526221 179.608266 
L 266.085297 177.307859 
L 268.02984 175.007452 
L 272.712854 172.707044 
L 274.743162 170.406637 
L 275.122693 168.10623 
L 276.102178 165.805823 
L 276.504553 163.505416 
L 280.109491 161.205009 
L 283.471162 158.904602 
L 287.734568 156.604195 
L 289.276737 154.303788 
L 289.572907 152.00338 
L 290.246603 149.702973 
L 292.534207 147.402566 
L 293.717685 145.102159 
L 296.6353 142.801752 
L 297.729006 140.501345 
L 300.105179 138.200938 
L 300.465874 135.900531 
L 301.027354 133.600124 
L 303.015982 131.299716 
L 304.670366 128.999309 
L 306.250207 126.698902 
L 310.033489 124.398495 
L 311.543997 122.098088 
L 312.596423 119.797681 
L 314.30932 117.497274 
L 316.479898 115.196867 
L 318.747863 112.89646 
L 320.426694 110.596052 
L 320.763342 108.295645 
L 322.692255 105.995238 
L 323.324672 103.694831 
L 325.405077 101.394424 
L 328.371988 99.094017 
L 331.493997 96.79361 
L 332.558846 94.493203 
L 335.150234 92.192795 
L 337.320412 89.892388 
L 340.500933 87.591981 
L 341.299671 85.291574 
L 343.337193 82.991167 
L 344.506644 80.69076 
L 346.16744 78.390353 
L 346.526532 76.089946 
L 353.132046 73.789539 
L 358.762083 71.489131 
L 361.006403 69.188724 
L 369.13044 66.888317 
L 374.541255 64.58791 
L 384.298035 62.287503 
L 385.98929 59.987096 
L 389.953721 57.686689 
L 392.001262 55.386282 
L 392.741487 53.085875 
L 395.482362 50.785467 
L 402.268224 48.48506 
L 413.735496 46.184653 
L 419.317039 43.884246 
L 423.358819 41.583839 
L 426.038777 39.283432 
L 445.722264 36.983025 
L 469.778167 34.682618 
" clip-path="url(#pa5440eb81c)" style="fill: none; stroke: #1f77b4; stroke-opacity: 0.2; stroke-width: 1.5; stroke-linecap: square"/>
   </g>
   <g id="line2d_19">
    <path d="M 115.088257 262.422922 
L 129.280374 260.122515 
L 146.533583 257.822108 
L 149.99224 255.521701 
L 158.18481 253.221293 
L 167.800117 250.920886 
L 171.826267 248.620479 
L 181.041204 246.320072 
L 184.081055 244.019665 
L 187.733686 241.719258 
L 189.160833 239.418851 
L 191.195148 237.118444 
L 195.077421 234.818037 
L 200.627303 232.517629 
L 207.590707 230.217222 
L 212.920966 227.916815 
L 223.262872 225.616408 
L 224.95533 223.316001 
L 230.976119 221.015594 
L 232.335536 218.715187 
L 234.892858 216.41478 
L 246.502003 214.114373 
L 248.017721 211.813965 
L 251.571361 209.513558 
L 254.321855 207.213151 
L 256.471994 204.912744 
L 258.158841 202.612337 
L 259.693795 200.31193 
L 261.803055 198.011523 
L 264.203676 195.711116 
L 266.610308 193.410708 
L 272.177824 191.110301 
L 273.782914 188.809894 
L 276.446441 186.509487 
L 278.526444 184.20908 
L 279.72435 181.908673 
L 282.70128 179.608266 
L 283.302838 177.307859 
L 285.358395 175.007452 
L 285.573609 172.707044 
L 287.993867 170.406637 
L 291.573558 168.10623 
L 297.030461 165.805823 
L 297.354284 163.505416 
L 299.368962 161.205009 
L 300.8951 158.904602 
L 301.299478 156.604195 
L 302.876514 154.303788 
L 303.077701 152.00338 
L 306.611703 149.702973 
L 306.904266 147.402566 
L 309.683616 145.102159 
L 310.871502 142.801752 
L 311.387696 140.501345 
L 314.223955 138.200938 
L 315.796983 135.900531 
L 320.067603 133.600124 
L 321.893918 131.299716 
L 324.210377 128.999309 
L 325.129747 126.698902 
L 325.974573 124.398495 
L 327.301527 122.098088 
L 328.038946 119.797681 
L 329.461284 117.497274 
L 329.684113 115.196867 
L 329.834402 112.89646 
L 331.841466 110.596052 
L 333.129144 108.295645 
L 336.148957 105.995238 
L 337.217013 103.694831 
L 339.37717 101.394424 
L 339.499406 99.094017 
L 344.212477 96.79361 
L 346.581437 94.493203 
L 348.231012 92.192795 
L 349.683007 89.892388 
L 353.592532 87.591981 
L 356.987467 85.291574 
L 360.854911 82.991167 
L 363.102036 80.69076 
L 363.913598 78.390353 
L 366.593156 76.089946 
L 372.986262 73.789539 
L 374.500376 71.489131 
L 381.016919 69.188724 
L 383.387883 66.888317 
L 385.45947 64.58791 
L 387.394795 62.287503 
L 389.599839 59.987096 
L 397.667769 57.686689 
L 398.931401 55.386282 
L 404.318169 53.085875 
L 406.915569 50.785467 
L 411.006643 48.48506 
L 414.303389 46.184653 
L 418.7768 43.884246 
L 425.318992 41.583839 
L 432.100445 39.283432 
L 443.350499 36.983025 
L 469.744903 34.682618 
" clip-path="url(#pa5440eb81c)" style="fill: none; stroke: #1f77b4; stroke-opacity: 0.2; stroke-width: 1.5; stroke-linecap: square"/>
   </g>
   <g id="line2d_20">
    <path d="M 112.841532 262.422922 
L 158.390806 260.122515 
L 162.047444 257.822108 
L 180.479723 255.521701 
L 189.057434 253.221293 
L 193.584948 250.920886 
L 194.76001 248.620479 
L 196.543443 246.320072 
L 198.545697 244.019665 
L 202.05966 241.719258 
L 206.914605 239.418851 
L 214.116467 237.118444 
L 217.136681 234.818037 
L 220.436232 232.517629 
L 221.66139 230.217222 
L 223.753016 227.916815 
L 228.916956 225.616408 
L 235.593807 223.316001 
L 236.290348 221.015594 
L 238.672533 218.715187 
L 241.466711 216.41478 
L 241.977294 214.114373 
L 245.552175 211.813965 
L 248.65134 209.513558 
L 250.122973 207.213151 
L 252.113204 204.912744 
L 253.939519 202.612337 
L 254.622834 200.31193 
L 255.683276 198.011523 
L 257.033474 195.711116 
L 262.771719 193.410708 
L 265.475724 191.110301 
L 268.19055 188.809894 
L 269.575616 186.509487 
L 271.700906 184.20908 
L 274.787648 181.908673 
L 277.402681 179.608266 
L 278.098821 177.307859 
L 278.989335 175.007452 
L 282.170659 172.707044 
L 285.109515 170.406637 
L 285.86537 168.10623 
L 288.510462 165.805823 
L 289.202594 163.505416 
L 290.589263 161.205009 
L 292.876065 158.904602 
L 293.223533 156.604195 
L 293.599858 154.303788 
L 294.654287 152.00338 
L 296.274205 149.702973 
L 297.644042 147.402566 
L 297.948628 145.102159 
L 298.918495 142.801752 
L 301.017736 140.501345 
L 303.822735 138.200938 
L 304.426297 135.900531 
L 304.747315 133.600124 
L 304.856324 131.299716 
L 306.644967 128.999309 
L 308.071713 126.698902 
L 309.692032 124.398495 
L 310.986925 122.098088 
L 312.579189 119.797681 
L 314.668411 117.497274 
L 315.217868 115.196867 
L 316.712746 112.89646 
L 318.105827 110.596052 
L 319.375471 108.295645 
L 319.767826 105.995238 
L 320.929262 103.694831 
L 322.430151 101.394424 
L 324.947396 99.094017 
L 327.550005 96.79361 
L 329.434833 94.493203 
L 330.826312 92.192795 
L 331.676749 89.892388 
L 337.249074 87.591981 
L 338.413315 85.291574 
L 339.362743 82.991167 
L 342.193391 80.69076 
L 344.666151 78.390353 
L 345.843617 76.089946 
L 347.595389 73.789539 
L 350.144295 71.489131 
L 353.895515 69.188724 
L 355.055348 66.888317 
L 355.946263 64.58791 
L 362.549372 62.287503 
L 362.820294 59.987096 
L 372.518561 57.686689 
L 374.583736 55.386282 
L 377.808343 53.085875 
L 387.020074 50.785467 
L 395.913592 48.48506 
L 402.530729 46.184653 
L 412.951587 43.884246 
L 422.198586 41.583839 
L 436.275682 39.283432 
L 452.936951 36.983025 
L 482.237349 34.682618 
" clip-path="url(#pa5440eb81c)" style="fill: none; stroke: #1f77b4; stroke-opacity: 0.2; stroke-width: 1.5; stroke-linecap: square"/>
   </g>
   <g id="line2d_21">
    <path d="M 102.421075 262.422922 
L 127.991092 260.122515 
L 144.993419 257.822108 
L 176.918869 255.521701 
L 197.748162 253.221293 
L 201.294187 250.920886 
L 206.153941 248.620479 
L 208.624296 246.320072 
L 209.900753 244.019665 
L 215.774058 241.719258 
L 219.12611 239.418851 
L 223.219589 237.118444 
L 226.964798 234.818037 
L 227.053368 232.517629 
L 229.904456 230.217222 
L 233.247291 227.916815 
L 236.0575 225.616408 
L 238.557913 223.316001 
L 240.295657 221.015594 
L 243.961513 218.715187 
L 245.515304 216.41478 
L 248.120318 214.114373 
L 249.088181 211.813965 
L 251.998583 209.513558 
L 253.740737 207.213151 
L 255.376285 204.912744 
L 260.090559 202.612337 
L 260.795516 200.31193 
L 263.583682 198.011523 
L 267.806611 195.711116 
L 268.383722 193.410708 
L 270.854878 191.110301 
L 275.66133 188.809894 
L 276.476098 186.509487 
L 276.558256 184.20908 
L 277.17344 181.908673 
L 278.269149 179.608266 
L 279.559633 177.307859 
L 281.323428 175.007452 
L 283.61023 172.707044 
L 286.163144 170.406637 
L 286.983923 168.10623 
L 287.828349 165.805823 
L 288.408265 163.505416 
L 289.810965 161.205009 
L 291.482582 158.904602 
L 294.424245 156.604195 
L 296.938684 154.303788 
L 301.625305 152.00338 
L 301.809259 149.702973 
L 302.097815 147.402566 
L 303.580669 145.102159 
L 304.886783 142.801752 
L 305.66428 140.501345 
L 306.627734 138.200938 
L 307.541092 135.900531 
L 308.815946 133.600124 
L 309.577011 131.299716 
L 311.241414 128.999309 
L 311.76923 126.698902 
L 314.114945 124.398495 
L 315.903588 122.098088 
L 317.690227 119.797681 
L 319.243617 117.497274 
L 320.611851 115.196867 
L 321.4166 112.89646 
L 323.331886 110.596052 
L 325.06362 108.295645 
L 325.81707 105.995238 
L 327.011369 103.694831 
L 334.10382 101.394424 
L 336.023114 99.094017 
L 337.263903 96.79361 
L 339.089417 94.493203 
L 341.34616 92.192795 
L 341.730099 89.892388 
L 345.287346 87.591981 
L 347.994958 85.291574 
L 349.198074 82.991167 
L 350.333459 80.69076 
L 354.820095 78.390353 
L 357.221117 76.089946 
L 358.990923 73.789539 
L 361.432423 71.489131 
L 364.692698 69.188724 
L 369.092366 66.888317 
L 370.770396 64.58791 
L 377.823172 62.287503 
L 379.883938 59.987096 
L 382.859265 57.686689 
L 386.401684 55.386282 
L 388.225995 53.085875 
L 390.106815 50.785467 
L 393.682097 48.48506 
L 403.946654 46.184653 
L 406.758867 43.884246 
L 423.196507 41.583839 
L 443.201012 39.283432 
L 451.197203 36.983025 
L 457.100165 34.682618 
" clip-path="url(#pa5440eb81c)" style="fill: none; stroke: #1f77b4; stroke-opacity: 0.2; stroke-width: 1.5; stroke-linecap: square"/>
   </g>
   <g id="line2d_22">
    <path d="M 127.292548 262.422922 
L 158.757111 260.122515 
L 169.24089 257.822108 
L 176.556572 255.521701 
L 181.160233 253.221293 
L 183.611752 250.920886 
L 187.158579 248.620479 
L 190.817221 246.320072 
L 193.197001 244.019665 
L 197.085686 241.719258 
L 199.941583 239.418851 
L 203.453543 237.118444 
L 205.873802 234.818037 
L 211.68659 232.517629 
L 215.183321 230.217222 
L 217.284565 227.916815 
L 219.89519 225.616408 
L 221.617706 223.316001 
L 222.985939 221.015594 
L 225.721605 218.715187 
L 229.466814 216.41478 
L 233.56911 214.114373 
L 233.995531 211.813965 
L 234.81591 209.513558 
L 236.183743 207.213151 
L 237.098704 204.912744 
L 242.516332 202.612337 
L 243.680573 200.31193 
L 245.189076 198.011523 
L 245.351389 195.711116 
L 248.535918 193.410708 
L 250.385478 191.110301 
L 255.173494 188.809894 
L 257.355695 186.509487 
L 258.745971 184.20908 
L 260.49133 181.908673 
L 262.065961 179.608266 
L 263.966018 177.307859 
L 265.308603 175.007452 
L 267.643497 172.707044 
L 268.267498 170.406637 
L 269.205704 168.10623 
L 270.065358 165.805823 
L 270.748674 163.505416 
L 280.173615 161.205009 
L 280.444136 158.904602 
L 282.055237 156.604195 
L 285.149593 154.303788 
L 285.385246 152.00338 
L 285.693039 149.702973 
L 289.172536 147.402566 
L 293.157406 145.102159 
L 296.039353 142.801752 
L 297.677707 140.501345 
L 300.108385 138.200938 
L 301.623301 135.900531 
L 306.937931 133.600124 
L 310.659094 131.299716 
L 313.910953 128.999309 
L 315.04233 126.698902 
L 316.28873 124.398495 
L 317.594042 122.098088 
L 318.903362 119.797681 
L 320.444729 117.497274 
L 321.000198 115.196867 
L 327.201735 112.89646 
L 328.074214 110.596052 
L 328.414069 108.295645 
L 331.779747 105.995238 
L 335.9117 103.694831 
L 336.62347 101.394424 
L 337.911549 99.094017 
L 339.609618 96.79361 
L 340.444024 94.493203 
L 341.534924 92.192795 
L 342.762887 89.892388 
L 346.370231 87.591981 
L 348.218188 85.291574 
L 351.532166 82.991167 
L 353.941203 80.69076 
L 355.18119 78.390353 
L 362.151807 76.089946 
L 368.971334 73.789539 
L 372.299339 71.489131 
L 379.383375 69.188724 
L 382.720598 66.888317 
L 389.452356 64.58791 
L 389.824271 62.287503 
L 391.043819 59.987096 
L 391.988838 57.686689 
L 395.059548 55.386282 
L 396.372476 53.085875 
L 406.675908 50.785467 
L 410.265617 48.48506 
L 412.60492 46.184653 
L 420.440001 43.884246 
L 428.578065 41.583839 
L 440.303033 39.283432 
L 450.693032 36.983025 
L 464.182597 34.682618 
" clip-path="url(#pa5440eb81c)" style="fill: none; stroke: #1f77b4; stroke-opacity: 0.2; stroke-width: 1.5; stroke-linecap: square"/>
   </g>
   <g id="line2d_23">
    <path d="M 92.631833 262.422922 
L 128.851549 260.122515 
L 149.648379 257.822108 
L 156.919574 255.521701 
L 168.172835 253.221293 
L 174.555119 250.920886 
L 186.013174 248.620479 
L 188.294365 246.320072 
L 190.975525 244.019665 
L 193.109232 241.719258 
L 201.946242 239.418851 
L 205.422934 237.118444 
L 205.584445 234.818037 
L 209.763288 232.517629 
L 212.766669 230.217222 
L 216.620487 227.916815 
L 219.683984 225.616408 
L 224.006303 223.316001 
L 227.181615 221.015594 
L 233.316624 218.715187 
L 238.191207 216.41478 
L 243.55994 214.114373 
L 247.505535 211.813965 
L 250.141809 209.513558 
L 250.740562 207.213151 
L 253.658979 204.912744 
L 254.410025 202.612337 
L 255.695699 200.31193 
L 257.248689 198.011523 
L 258.119966 195.711116 
L 266.261236 193.410708 
L 267.24513 191.110301 
L 268.433016 188.809894 
L 271.379488 186.509487 
L 271.586286 184.20908 
L 273.637835 181.908673 
L 274.05103 179.608266 
L 275.109067 177.307859 
L 277.716886 175.007452 
L 278.726028 172.707044 
L 280.509862 170.406637 
L 283.219077 168.10623 
L 284.341637 165.805823 
L 285.382842 163.505416 
L 289.237862 161.205009 
L 292.039655 158.904602 
L 295.047444 156.604195 
L 296.144756 154.303788 
L 297.878093 152.00338 
L 299.605417 149.702973 
L 299.667938 147.402566 
L 302.211233 145.102159 
L 307.135511 142.801752 
L 308.980663 140.501345 
L 309.648348 138.200938 
L 312.403652 135.900531 
L 314.548981 133.600124 
L 315.287202 131.299716 
L 321.594943 128.999309 
L 322.128771 126.698902 
L 323.648496 124.398495 
L 324.205568 122.098088 
L 327.218567 119.797681 
L 329.284544 117.497274 
L 334.559898 115.196867 
L 335.831947 112.89646 
L 336.198252 110.596052 
L 339.569941 108.295645 
L 341.167416 105.995238 
L 346.509298 103.694831 
L 349.203685 101.394424 
L 350.792342 99.094017 
L 352.335312 96.79361 
L 353.033857 94.493203 
L 358.268332 92.192795 
L 359.521544 89.892388 
L 360.21007 87.591981 
L 361.153886 85.291574 
L 365.110302 82.991167 
L 366.241279 80.69076 
L 368.565352 78.390353 
L 372.170291 76.089946 
L 376.174398 73.789539 
L 378.554579 71.489131 
L 380.000162 69.188724 
L 381.403263 66.888317 
L 386.000912 64.58791 
L 388.262065 62.287503 
L 395.237491 59.987096 
L 396.645802 57.686689 
L 397.393641 55.386282 
L 401.432215 53.085875 
L 405.716461 50.785467 
L 411.70118 48.48506 
L 414.424021 46.184653 
L 424.662528 43.884246 
L 427.265138 41.583839 
L 432.528469 39.283432 
L 435.545476 36.983025 
L 451.332263 34.682618 
" clip-path="url(#pa5440eb81c)" style="fill: none; stroke: #1f77b4; stroke-opacity: 0.2; stroke-width: 1.5; stroke-linecap: square"/>
   </g>
   <g id="line2d_24">
    <path d="M 134.414256 262.422922 
L 145.212641 260.122515 
L 182.914009 257.822108 
L 187.052374 255.521701 
L 187.789794 253.221293 
L 203.128918 250.920886 
L 203.481197 248.620479 
L 207.815539 246.320072 
L 213.486455 244.019665 
L 217.286168 241.719258 
L 218.514934 239.418851 
L 222.034909 237.118444 
L 224.354173 234.818037 
L 228.389941 232.517629 
L 229.492864 230.217222 
L 230.427062 227.916815 
L 234.233188 225.616408 
L 236.509971 223.316001 
L 237.369225 221.015594 
L 238.03691 218.715187 
L 238.396802 216.41478 
L 240.809847 214.114373 
L 242.55721 211.813965 
L 244.49494 209.513558 
L 247.018598 207.213151 
L 249.585939 204.912744 
L 251.29563 202.612337 
L 253.114331 200.31193 
L 253.965569 198.011523 
L 255.824347 195.711116 
L 257.370523 193.410708 
L 260.377511 191.110301 
L 264.081841 188.809894 
L 265.194783 186.509487 
L 267.214671 184.20908 
L 270.101829 181.908673 
L 271.339411 179.608266 
L 275.013282 177.307859 
L 276.595127 175.007452 
L 277.923283 172.707044 
L 280.174016 170.406637 
L 282.7634 168.10623 
L 284.522385 165.805823 
L 285.72991 163.505416 
L 286.688555 161.205009 
L 287.780657 158.904602 
L 291.280594 156.604195 
L 294.302009 154.303788 
L 294.865895 152.00338 
L 298.140598 149.702973 
L 298.924507 147.402566 
L 306.077876 145.102159 
L 309.049596 142.801752 
L 309.959347 140.501345 
L 310.774516 138.200938 
L 313.016832 135.900531 
L 313.73301 133.600124 
L 314.435162 131.299716 
L 318.62162 128.999309 
L 318.965482 126.698902 
L 320.159781 124.398495 
L 320.993385 122.098088 
L 322.264231 119.797681 
L 324.304158 117.497274 
L 325.148182 115.196867 
L 325.837108 112.89646 
L 326.650674 110.596052 
L 331.094027 108.295645 
L 336.510453 105.995238 
L 337.70395 103.694831 
L 339.178789 101.394424 
L 343.406125 99.094017 
L 349.169619 96.79361 
L 349.790013 94.493203 
L 351.469245 92.192795 
L 354.728719 89.892388 
L 361.41038 87.591981 
L 362.198297 85.291574 
L 364.241429 82.991167 
L 364.888675 80.69076 
L 370.462604 78.390353 
L 373.34415 76.089946 
L 374.870288 73.789539 
L 376.130714 71.489131 
L 378.275242 69.188724 
L 383.458018 66.888317 
L 387.590772 64.58791 
L 390.440257 62.287503 
L 394.14058 59.987096 
L 400.429084 57.686689 
L 403.249312 55.386282 
L 407.475447 53.085875 
L 408.101452 50.785467 
L 413.864544 48.48506 
L 423.028183 46.184653 
L 429.921852 43.884246 
L 437.728879 41.583839 
L 442.40027 39.283432 
L 455.660995 36.983025 
L 470.978077 34.682618 
" clip-path="url(#pa5440eb81c)" style="fill: none; stroke: #1f77b4; stroke-opacity: 0.2; stroke-width: 1.5; stroke-linecap: square"/>
   </g>
   <g id="line2d_25">
    <path d="M 111.108485 262.422922 
L 140.130394 260.122515 
L 158.031995 257.822108 
L 168.216388 255.521701 
L 174.42969 253.221293 
L 182.412078 250.920886 
L 187.32457 248.620479 
L 191.132758 246.320072 
L 194.710416 244.019665 
L 200.066312 241.719258 
L 204.502398 239.418851 
L 209.207661 237.118444 
L 213.565206 234.818037 
L 216.969832 232.517629 
L 220.770425 230.217222 
L 224.065351 227.916815 
L 226.898615 225.616408 
L 229.541949 223.316001 
L 232.784406 221.015594 
L 234.67788 218.715187 
L 236.577024 216.41478 
L 238.190321 214.114373 
L 241.471611 211.813965 
L 244.421423 209.513558 
L 246.576192 207.213151 
L 248.657015 204.912744 
L 250.731935 202.612337 
L 253.125863 200.31193 
L 254.574221 198.011523 
L 256.474094 195.711116 
L 259.060839 193.410708 
L 261.052546 191.110301 
L 263.337188 188.809894 
L 265.308933 186.509487 
L 267.259732 184.20908 
L 269.245795 181.908673 
L 271.618953 179.608266 
L 274.233782 177.307859 
L 276.424444 175.007452 
L 277.879687 172.707044 
L 279.592721 170.406637 
L 281.279672 168.10623 
L 283.4598 165.805823 
L 285.431451 163.505416 
L 286.984222 161.205009 
L 288.688641 158.904602 
L 290.600755 156.604195 
L 293.075178 154.303788 
L 295.002856 152.00338 
L 297.118919 149.702973 
L 298.64649 147.402566 
L 300.171753 145.102159 
L 302.154474 142.801752 
L 304.451774 140.501345 
L 306.444752 138.200938 
L 308.285333 135.900531 
L 309.684331 133.600124 
L 311.156772 131.299716 
L 313.161899 128.999309 
L 314.582796 126.698902 
L 316.27316 124.398495 
L 317.965307 122.098088 
L 319.45312 119.797681 
L 320.837846 117.497274 
L 322.426712 115.196867 
L 324.303442 112.89646 
L 325.845398 110.596052 
L 328.041592 108.295645 
L 329.818339 105.995238 
L 332.997375 103.694831 
L 336.165963 101.394424 
L 337.674513 99.094017 
L 339.536437 96.79361 
L 341.815574 94.493203 
L 344.551286 92.192795 
L 347.317652 89.892388 
L 349.683362 87.591981 
L 353.482861 85.291574 
L 356.89344 82.991167 
L 359.542106 80.69076 
L 362.163197 78.390353 
L 364.83484 76.089946 
L 368.533521 73.789539 
L 371.600923 71.489131 
L 374.525107 69.188724 
L 377.818649 66.888317 
L 381.735081 64.58791 
L 387.019623 62.287503 
L 389.820484 59.987096 
L 392.254269 57.686689 
L 396.412108 55.386282 
L 402.269166 53.085875 
L 406.606925 50.785467 
L 411.656869 48.48506 
L 416.750032 46.184653 
L 423.843063 43.884246 
L 431.896563 41.583839 
L 444.28105 39.283432 
L 455.804302 36.983025 
L 481.954018 34.682618 
" clip-path="url(#pa5440eb81c)" style="fill: none; stroke: #000000; stroke-width: 1.5; stroke-linecap: square"/>
   </g>
   <g id="line2d_26">
    <path d="M 64.99664 263.46636 
L 69.577858 263.437894 
L 74.158675 263.402586 
L 78.739893 263.358988 
L 83.321111 263.305403 
L 87.901928 263.239852 
L 92.483146 263.160017 
L 97.064364 263.063235 
L 101.645182 262.946455 
L 106.2264 262.806159 
L 110.807217 262.638406 
L 115.388435 262.438691 
L 119.969653 262.202017 
L 124.55047 261.922831 
L 129.131688 261.594917 
L 133.712906 261.211523 
L 138.293723 260.765306 
L 142.874941 260.248193 
L 147.456159 259.65163 
L 152.036976 258.966524 
L 156.618194 258.183072 
L 161.199412 257.291181 
L 165.780229 256.280401 
L 170.361447 255.139712 
L 174.942265 253.858275 
L 179.523482 252.424759 
L 184.1047 250.828233 
L 188.685518 249.058051 
L 193.266736 247.103492 
L 197.847954 244.954862 
L 202.428771 242.6033 
L 207.009989 240.040267 
L 211.591207 237.258974 
L 216.172024 234.254039 
L 220.753242 231.020785 
L 225.33446 227.55699 
L 229.915277 223.862331 
L 234.496495 219.937455 
L 239.077713 215.786021 
L 243.65853 211.413886 
L 248.239748 206.827914 
L 252.820966 202.038273 
L 257.401783 197.057339 
L 261.983001 191.898237 
L 266.563819 186.577826 
L 271.145037 181.11295 
L 275.726255 175.523484 
L 280.307072 169.830785 
L 284.88829 164.055903 
L 289.469508 158.222323 
L 294.050325 152.354214 
L 298.631543 146.474575 
L 303.212761 140.608027 
L 307.793578 134.778968 
L 312.374796 129.00976 
L 316.956014 123.323514 
L 321.536831 117.742264 
L 326.118049 112.285293 
L 330.698866 106.972314 
L 335.280084 101.819469 
L 339.861302 96.842466 
L 344.442119 92.054999 
L 349.023337 87.467476 
L 353.604555 83.089488 
L 358.185373 78.928465 
L 362.766591 74.988681 
L 367.347809 71.273499 
L 371.928626 67.78427 
L 376.509844 64.519616 
L 381.091062 61.477386 
L 385.671879 58.653803 
L 390.253097 56.042968 
L 394.834315 53.638513 
L 399.415132 51.43295 
L 403.99635 49.41735 
L 408.577568 47.582675 
L 413.158385 45.919295 
L 417.739603 44.416787 
L 422.32042 43.065064 
L 426.901638 41.853464 
L 431.482856 40.771731 
L 436.063674 39.809725 
L 440.644891 38.957318 
L 445.226109 38.204974 
L 449.806927 37.543528 
L 454.388145 36.964105 
L 458.969363 36.458505 
L 463.55018 36.019025 
L 468.131398 35.638392 
L 472.712616 35.31 
L 477.293433 35.027764 
L 481.874651 34.786064 
L 486.455468 34.579887 
L 491.036686 34.404639 
L 495.617904 34.256248 
L 500.198721 34.131075 
L 504.779939 34.02586 
L 509.361157 33.937756 
L 513.941974 33.864258 
L 518.523192 33.80316 
" clip-path="url(#pa5440eb81c)" style="fill: none; stroke-dasharray: 4,6.6; stroke-dashoffset: 0; stroke: #d62728; stroke-width: 4"/>
   </g>
   <g id="patch_3">
    <path d="M 42.320312 274.94952 
L 42.320312 22.32 
" style="fill: none; stroke: #000000; stroke-width: 0.8; stroke-linejoin: miter; stroke-linecap: square"/>
   </g>
   <g id="patch_4">
    <path d="M 42.320312 274.94952 
L 541.19952 274.94952 
" style="fill: none; stroke: #000000; stroke-width: 0.8; stroke-linejoin: miter; stroke-linecap: square"/>
   </g>
   <g id="text_17">
    <!-- Cumulative Temperature Distribution (1000 H$_2$O, NPT) -->
    <g transform="translate(144.759916 16.32) scale(0.12 -0.12)">
     <defs>
      <path id="IBMPlexSans-44" d="M 595 0 
L 2093 0 
C 3206 0 3923 742 3923 2234 
C 3923 3725 3206 4467 2093 4467 
L 595 4467 
L 595 0 
z
M 1133 474 
L 1133 3994 
L 2093 3994 
C 2829 3994 3347 3482 3347 2598 
L 3347 1869 
C 3347 986 2829 474 2093 474 
L 1133 474 
z
" transform="scale(0.015625)"/>
      <path id="IBMPlexSans-73" d="M 1536 -77 
C 2291 -77 2758 314 2758 954 
C 2758 1453 2477 1773 1747 1882 
L 1491 1920 
C 1082 1984 858 2112 858 2432 
C 858 2746 1082 2944 1504 2944 
C 1926 2944 2208 2746 2355 2541 
L 2694 2848 
C 2426 3181 2074 3379 1542 3379 
C 870 3379 365 3059 365 2406 
C 365 1792 819 1542 1427 1453 
L 1690 1414 
C 2125 1350 2266 1152 2266 896 
C 2266 557 2010 358 1574 358 
C 1158 358 851 544 595 864 
L 230 570 
C 525 179 928 -77 1536 -77 
z
" transform="scale(0.015625)"/>
      <path id="IBMPlexSans-6e" d="M 1056 0 
L 1056 2291 
C 1056 2714 1453 2918 1862 2918 
C 2355 2918 2611 2618 2611 2029 
L 2611 0 
L 3123 0 
L 3123 2118 
C 3123 2918 2694 3379 2016 3379 
C 1523 3379 1242 3136 1082 2765 
L 1056 2765 
L 1056 3302 
L 544 3302 
L 544 0 
L 1056 0 
z
" transform="scale(0.015625)"/>
      <path id="IBMPlexSans-28" d="M 531 1997 
C 531 749 1056 -339 1690 -877 
L 2176 -877 
C 1485 -262 1011 819 1011 1715 
L 1011 2266 
C 1011 3162 1466 4224 2176 4864 
L 1690 4864 
C 1037 4307 531 3232 531 1997 
z
" transform="scale(0.015625)"/>
      <path id="IBMPlexSans-48" d="M 3392 0 
L 3930 0 
L 3930 4467 
L 3392 4467 
L 3392 2496 
L 1133 2496 
L 1133 4467 
L 595 4467 
L 595 0 
L 1133 0 
L 1133 2022 
L 3392 2022 
L 3392 0 
z
" transform="scale(0.015625)"/>
      <path id="DejaVuSans-32" d="M 1228 531 
L 3431 531 
L 3431 0 
L 469 0 
L 469 531 
Q 828 903 1448 1529 
Q 2069 2156 2228 2338 
Q 2531 2678 2651 2914 
Q 2772 3150 2772 3378 
Q 2772 3750 2511 3984 
Q 2250 4219 1831 4219 
Q 1534 4219 1204 4116 
Q 875 4013 500 3803 
L 500 4441 
Q 881 4594 1212 4672 
Q 1544 4750 1819 4750 
Q 2544 4750 2975 4387 
Q 3406 4025 3406 3419 
Q 3406 3131 3298 2873 
Q 3191 2616 2906 2266 
Q 2828 2175 2409 1742 
Q 1991 1309 1228 531 
z
" transform="scale(0.015625)"/>
      <path id="IBMPlexSans-4f" d="M 2266 -77 
C 3418 -77 4160 736 4160 2234 
C 4160 3731 3418 4544 2266 4544 
C 1114 4544 371 3731 371 2234 
C 371 736 1114 -77 2266 -77 
z
M 2266 403 
C 1491 403 947 979 947 1862 
L 947 2605 
C 947 3488 1491 4064 2266 4064 
C 3040 4064 3584 3488 3584 2605 
L 3584 1862 
C 3584 979 3040 403 2266 403 
z
" transform="scale(0.015625)"/>
      <path id="IBMPlexSans-2c" d="M 870 749 
C 602 749 480 595 480 371 
L 480 282 
C 480 109 557 -19 730 -58 
C 659 -358 506 -582 250 -851 
L 678 -851 
C 1043 -538 1261 -64 1261 282 
L 1261 371 
C 1261 595 1139 749 870 749 
z
" transform="scale(0.015625)"/>
      <path id="IBMPlexSans-4e" d="M 3309 0 
L 3930 0 
L 3930 4467 
L 3405 4467 
L 3405 749 
L 3386 749 
L 2848 1741 
L 1216 4467 
L 595 4467 
L 595 0 
L 1120 0 
L 1120 3718 
L 1139 3718 
L 1677 2726 
L 3309 0 
z
" transform="scale(0.015625)"/>
      <path id="IBMPlexSans-29" d="M 1613 1997 
C 1613 3232 1107 4307 454 4864 
L -32 4864 
C 678 4224 1133 3162 1133 2266 
L 1133 1715 
C 1133 819 659 -262 -32 -877 
L 454 -877 
C 1088 -339 1613 749 1613 1997 
z
" transform="scale(0.015625)"/>
     </defs>
     <use xlink:href="#IBMPlexSans-43"/>
     <use xlink:href="#IBMPlexSans-75" transform="translate(62.099991 0)"/>
     <use xlink:href="#IBMPlexSans-6d" transform="translate(118.899979 0)"/>
     <use xlink:href="#IBMPlexSans-75" transform="translate(206.199966 0)"/>
     <use xlink:href="#IBMPlexSans-6c" transform="translate(262.999954 0)"/>
     <use xlink:href="#IBMPlexSans-61" transform="translate(290.199951 0)"/>
     <use xlink:href="#IBMPlexSans-74" transform="translate(343.599945 0)"/>
     <use xlink:href="#IBMPlexSans-69" transform="translate(378.699936 0)"/>
     <use xlink:href="#IBMPlexSans-76" transform="translate(403.699921 0)"/>
     <use xlink:href="#IBMPlexSans-65" transform="translate(452.899918 0)"/>
     <use xlink:href="#IBMPlexSans-20" transform="translate(507.799911 0)"/>
     <use xlink:href="#IBMPlexSans-54" transform="translate(531.399902 0)"/>
     <use xlink:href="#IBMPlexSans-65" transform="translate(588.599899 0)"/>
     <use xlink:href="#IBMPlexSans-6d" transform="translate(643.499893 0)"/>
     <use xlink:href="#IBMPlexSans-70" transform="translate(730.799881 0)"/>
     <use xlink:href="#IBMPlexSans-65" transform="translate(788.799866 0)"/>
     <use xlink:href="#IBMPlexSans-72" transform="translate(843.69986 0)"/>
     <use xlink:href="#IBMPlexSans-61" transform="translate(880.399857 0)"/>
     <use xlink:href="#IBMPlexSans-74" transform="translate(933.79985 0)"/>
     <use xlink:href="#IBMPlexSans-75" transform="translate(968.899841 0)"/>
     <use xlink:href="#IBMPlexSans-72" transform="translate(1025.699829 0)"/>
     <use xlink:href="#IBMPlexSans-65" transform="translate(1062.399826 0)"/>
     <use xlink:href="#IBMPlexSans-20" transform="translate(1117.29982 0)"/>
     <use xlink:href="#IBMPlexSans-44" transform="translate(1140.899811 0)"/>
     <use xlink:href="#IBMPlexSans-69" transform="translate(1207.999802 0)"/>
     <use xlink:href="#IBMPlexSans-73" transform="translate(1232.999786 0)"/>
     <use xlink:href="#IBMPlexSans-74" transform="translate(1281.699783 0)"/>
     <use xlink:href="#IBMPlexSans-72" transform="translate(1316.799774 0)"/>
     <use xlink:href="#IBMPlexSans-69" transform="translate(1353.499771 0)"/>
     <use xlink:href="#IBMPlexSans-62" transform="translate(1378.499756 0)"/>
     <use xlink:href="#IBMPlexSans-75" transform="translate(1436.499741 0)"/>
     <use xlink:href="#IBMPlexSans-74" transform="translate(1493.299728 0)"/>
     <use xlink:href="#IBMPlexSans-69" transform="translate(1528.399719 0)"/>
     <use xlink:href="#IBMPlexSans-6f" transform="translate(1553.399704 0)"/>
     <use xlink:href="#IBMPlexSans-6e" transform="translate(1609.399689 0)"/>
     <use xlink:href="#IBMPlexSans-20" transform="translate(1666.199677 0)"/>
     <use xlink:href="#IBMPlexSans-28" transform="translate(1689.799667 0)"/>
     <use xlink:href="#IBMPlexSans-31" transform="translate(1723.299652 0)"/>
     <use xlink:href="#IBMPlexSans-30" transform="translate(1783.299637 0)"/>
     <use xlink:href="#IBMPlexSans-30" transform="translate(1843.299622 0)"/>
     <use xlink:href="#IBMPlexSans-30" transform="translate(1903.299606 0)"/>
     <use xlink:href="#IBMPlexSans-20" transform="translate(1963.299591 0)"/>
     <use xlink:href="#IBMPlexSans-48" transform="translate(1986.899582 0)"/>
     <use xlink:href="#DejaVuSans-32" transform="translate(2058.556595 -16.40625) scale(0.7)"/>
     <use xlink:href="#IBMPlexSans-4f" transform="translate(2105.827103 0)"/>
     <use xlink:href="#IBMPlexSans-2c" transform="translate(2176.62709 0)"/>
     <use xlink:href="#IBMPlexSans-20" transform="translate(2203.827087 0)"/>
     <use xlink:href="#IBMPlexSans-4e" transform="translate(2227.427078 0)"/>
     <use xlink:href="#IBMPlexSans-50" transform="translate(2298.12706 0)"/>
     <use xlink:href="#IBMPlexSans-54" transform="translate(2358.727051 0)"/>
     <use xlink:href="#IBMPlexSans-29" transform="translate(2415.927048 0)"/>
    </g>
   </g>
   <g id="legend_1">
    <g id="patch_5">
     <path d="M 49.320312 73.52 
L 148.479688 73.52 
Q 150.479688 73.52 150.479688 71.52 
L 150.479688 29.32 
Q 150.479688 27.32 148.479688 27.32 
L 49.320312 27.32 
Q 47.320312 27.32 47.320312 29.32 
L 47.320312 71.52 
Q 47.320312 73.52 49.320312 73.52 
z
" style="fill: #ffffff; opacity: 0.8; stroke: #cccccc; stroke-linejoin: miter"/>
    </g>
    <g id="line2d_27">
     <path d="M 51.320312 35.22 
L 61.320312 35.22 
L 71.320312 35.22 
" style="fill: none; stroke: #1f77b4; stroke-opacity: 0.2; stroke-width: 1.5; stroke-linecap: square"/>
    </g>
    <g id="text_18">
     <!-- Individual NVE -->
     <g transform="translate(79.320312 38.72) scale(0.1 -0.1)">
      <defs>
       <path id="IBMPlexSans-49" d="M 2176 0 
L 2176 448 
L 1549 448 
L 1549 4019 
L 2176 4019 
L 2176 4467 
L 384 4467 
L 384 4019 
L 1011 4019 
L 1011 448 
L 384 448 
L 384 0 
L 2176 0 
z
" transform="scale(0.015625)"/>
       <path id="IBMPlexSans-64" d="M 2656 0 
L 3168 0 
L 3168 4736 
L 2656 4736 
L 2656 2765 
L 2630 2765 
C 2458 3181 2118 3379 1664 3379 
C 838 3379 320 2707 320 1651 
C 320 595 838 -77 1664 -77 
C 2118 -77 2432 128 2630 538 
L 2656 538 
L 2656 0 
z
M 1805 384 
C 1229 384 870 781 870 1370 
L 870 1933 
C 870 2522 1229 2918 1805 2918 
C 2272 2918 2656 2650 2656 2285 
L 2656 1056 
C 2656 627 2272 384 1805 384 
z
" transform="scale(0.015625)"/>
       <path id="IBMPlexSans-56" d="M 2266 0 
L 3770 4467 
L 3213 4467 
L 2470 2214 
L 1965 538 
L 1933 538 
L 1440 2214 
L 704 4467 
L 128 4467 
L 1613 0 
L 2266 0 
z
" transform="scale(0.015625)"/>
       <path id="IBMPlexSans-45" d="M 3322 0 
L 3322 474 
L 1133 474 
L 1133 2022 
L 3194 2022 
L 3194 2496 
L 1133 2496 
L 1133 3994 
L 3322 3994 
L 3322 4467 
L 595 4467 
L 595 0 
L 3322 0 
z
" transform="scale(0.015625)"/>
      </defs>
      <use xlink:href="#IBMPlexSans-49"/>
      <use xlink:href="#IBMPlexSans-6e" transform="translate(39.999985 0)"/>
      <use xlink:href="#IBMPlexSans-64" transform="translate(96.799973 0)"/>
      <use xlink:href="#IBMPlexSans-69" transform="translate(154.799957 0)"/>
      <use xlink:href="#IBMPlexSans-76" transform="translate(179.799942 0)"/>
      <use xlink:href="#IBMPlexSans-69" transform="translate(228.999939 0)"/>
      <use xlink:href="#IBMPlexSans-64" transform="translate(253.999924 0)"/>
      <use xlink:href="#IBMPlexSans-75" transform="translate(311.999908 0)"/>
      <use xlink:href="#IBMPlexSans-61" transform="translate(368.799896 0)"/>
      <use xlink:href="#IBMPlexSans-6c" transform="translate(422.19989 0)"/>
      <use xlink:href="#IBMPlexSans-20" transform="translate(449.399887 0)"/>
      <use xlink:href="#IBMPlexSans-4e" transform="translate(472.999878 0)"/>
      <use xlink:href="#IBMPlexSans-56" transform="translate(543.69986 0)"/>
      <use xlink:href="#IBMPlexSans-45" transform="translate(604.599854 0)"/>
     </g>
    </g>
    <g id="line2d_28">
     <path d="M 51.320312 49.62 
L 61.320312 49.62 
L 71.320312 49.62 
" style="fill: none; stroke: #000000; stroke-width: 1.5; stroke-linecap: square"/>
    </g>
    <g id="text_19">
     <!-- Combined NVE -->
     <g transform="translate(79.320312 53.12) scale(0.1 -0.1)">
      <use xlink:href="#IBMPlexSans-43"/>
      <use xlink:href="#IBMPlexSans-6f" transform="translate(62.099991 0)"/>
      <use xlink:href="#IBMPlexSans-6d" transform="translate(118.099976 0)"/>
      <use xlink:href="#IBMPlexSans-62" transform="translate(205.399963 0)"/>
      <use xlink:href="#IBMPlexSans-69" transform="translate(263.399948 0)"/>
      <use xlink:href="#IBMPlexSans-6e" transform="translate(288.399933 0)"/>
      <use xlink:href="#IBMPlexSans-65" transform="translate(345.199921 0)"/>
      <use xlink:href="#IBMPlexSans-64" transform="translate(400.099915 0)"/>
      <use xlink:href="#IBMPlexSans-20" transform="translate(458.099899 0)"/>
      <use xlink:href="#IBMPlexSans-4e" transform="translate(481.69989 0)"/>
      <use xlink:href="#IBMPlexSans-56" transform="translate(552.399872 0)"/>
      <use xlink:href="#IBMPlexSans-45" transform="translate(613.299866 0)"/>
     </g>
    </g>
    <g id="line2d_29">
     <path d="M 51.320312 64.02 
L 61.320312 64.02 
L 71.320312 64.02 
" style="fill: none; stroke-dasharray: 4,6.6; stroke-dashoffset: 0; stroke: #d62728; stroke-width: 4"/>
    </g>
    <g id="text_20">
     <!-- NVT exact -->
     <g transform="translate(79.320312 67.52) scale(0.1 -0.1)">
      <defs>
       <path id="IBMPlexSans-78" d="M 134 0 
L 704 0 
L 1632 1293 
L 1651 1293 
L 2509 0 
L 3110 0 
L 1920 1702 
L 3085 3302 
L 2515 3302 
L 1645 2074 
L 1626 2074 
L 787 3302 
L 186 3302 
L 1357 1664 
L 134 0 
z
" transform="scale(0.015625)"/>
       <path id="IBMPlexSans-63" d="M 1773 -77 
C 2400 -77 2829 230 3040 704 
L 2669 954 
C 2490 576 2189 378 1773 378 
C 1165 378 851 794 851 1370 
L 851 1933 
C 851 2509 1165 2925 1773 2925 
C 2176 2925 2458 2726 2579 2387 
L 3008 2605 
C 2816 3059 2426 3379 1773 3379 
C 845 3379 301 2707 301 1651 
C 301 595 845 -77 1773 -77 
z
" transform="scale(0.015625)"/>
      </defs>
      <use xlink:href="#IBMPlexSans-4e"/>
      <use xlink:href="#IBMPlexSans-56" transform="translate(70.699982 0)"/>
      <use xlink:href="#IBMPlexSans-54" transform="translate(131.599976 0)"/>
      <use xlink:href="#IBMPlexSans-20" transform="translate(188.799973 0)"/>
      <use xlink:href="#IBMPlexSans-65" transform="translate(212.399963 0)"/>
      <use xlink:href="#IBMPlexSans-78" transform="translate(267.299957 0)"/>
      <use xlink:href="#IBMPlexSans-61" transform="translate(317.999954 0)"/>
      <use xlink:href="#IBMPlexSans-63" transform="translate(371.399948 0)"/>
      <use xlink:href="#IBMPlexSans-74" transform="translate(421.699936 0)"/>
     </g>
    </g>
   </g>
  </g>
 </g>
 <defs>
  <clipPath id="pa5440eb81c">
   <rect x="42.320312" y="22.32" width="498.879207" height="252.62952"/>
  </clipPath>
 </defs>
</svg>