<?xml version="1.0" encoding="utf-8" standalone="no"?>
<!DOCTYPE svg PUBLIC "-//W3C//DTD SVG 1.1//EN"
  "http://www.w3.org/Graphics/SVG/1.1/DTD/svg11.dtd">
<svg xmlns:xlink="http://www.w3.org/1999/xlink" width="548.39952pt" height="312.14952pt" viewBox="0 0 548.39952 312.14952" xmlns="http://www.w3.org/2000/svg" version="1.1">
 <metadata>
  <rdf:RDF xmlns:dc="http://purl.org/dc/elements/1.1/" xmlns:cc="http://creativecommons.org/ns#" xmlns:rdf="http://www.w3.org/1999/02/22-rdf-syntax-ns#">
   <cc:Work>
    <dc:type rdf:resource="http://purl.org/dc/dcmitype/StillImage"/>
    <dc:date>2025-06-25T08:45:30.424104</dc:date>
    <dc:format>image/svg+xml</dc:format>
    <dc:creator>
     <cc:Agent>
      <dc:title>Matplotlib v3.10.1, https://matplotlib.org/</dc:title>
     </cc:Agent>
    </dc:creator>
   </cc:Work>
  </rdf:RDF>
 </metadata>
 <defs>
  <style type="text/css">*{stroke-linejoin: round; stroke-linecap: butt}</style>
 </defs>
 <g id="figure_1">
  <g id="patch_1">
   <path d="M 0 312.14952 
L 548.39952 312.14952 
L 548.39952 0 
L 0 0 
z
" style="fill: #ffffff"/>
  </g>
  <g id="axes_1">
   <g id="patch_2">
    <path d="M 53.5 274.94952 
L 541.19952 274.94952 
L 541.19952 22.32 
L 53.5 22.32 
z
" style="fill: #ffffff"/>
   </g>
   <g id="matplotlib.axis_1">
    <g id="xtick_1">
     <g id="line2d_1">
      <defs>
       <path id="m3b061d8936" d="M 0 0 
L 0 3.5 
" style="stroke: #000000; stroke-width: 0.8"/>
      </defs>
      <g>
       <use xlink:href="#m3b061d8936" x="75.66816" y="274.94952" style="stroke: #000000; stroke-width: 0.8"/>
      </g>
     </g>
     <g id="text_1">
      <!-- 0 -->
      <g transform="translate(72.66816 289.34952) scale(0.1 -0.1)">
       <defs>
        <path id="IBMPlexSans-30" d="M 1920 -77 
C 2989 -77 3456 774 3456 2234 
C 3456 3693 2989 4544 1920 4544 
C 851 4544 384 3693 384 2234 
C 384 774 851 -77 1920 -77 
z
M 1920 390 
C 1222 390 947 1005 947 1869 
L 947 2598 
C 947 3462 1222 4077 1920 4077 
C 2618 4077 2893 3462 2893 2598 
L 2893 1869 
C 2893 1005 2618 390 1920 390 
z
" transform="scale(0.015625)"/>
       </defs>
       <use xlink:href="#IBMPlexSans-30"/>
      </g>
     </g>
    </g>
    <g id="xtick_2">
     <g id="line2d_2">
      <g>
       <use xlink:href="#m3b061d8936" x="164.3408" y="274.94952" style="stroke: #000000; stroke-width: 0.8"/>
      </g>
     </g>
     <g id="text_2">
      <!-- 20 -->
      <g transform="translate(158.3408 289.34952) scale(0.1 -0.1)">
       <defs>
        <path id="IBMPlexSans-32" d="M 3411 474 
L 1062 474 
L 2266 1555 
C 2835 2067 3245 2554 3245 3245 
C 3245 4006 2746 4544 1875 4544 
C 1011 4544 614 4019 442 3494 
L 922 3309 
C 1043 3731 1299 4064 1850 4064 
C 2400 4064 2675 3725 2675 3232 
L 2675 3155 
C 2675 2726 2355 2278 1939 1894 
L 480 550 
L 480 0 
L 3411 0 
L 3411 474 
z
" transform="scale(0.015625)"/>
       </defs>
       <use xlink:href="#IBMPlexSans-32"/>
       <use xlink:href="#IBMPlexSans-30" transform="translate(59.999985 0)"/>
      </g>
     </g>
    </g>
    <g id="xtick_3">
     <g id="line2d_3">
      <g>
       <use xlink:href="#m3b061d8936" x="253.01344" y="274.94952" style="stroke: #000000; stroke-width: 0.8"/>
      </g>
     </g>
     <g id="text_3">
      <!-- 40 -->
      <g transform="translate(247.01344 289.34952) scale(0.1 -0.1)">
       <defs>
        <path id="IBMPlexSans-34" d="M 2912 0 
L 2912 877 
L 3558 877 
L 3558 1325 
L 2912 1325 
L 2912 4467 
L 2112 4467 
L 243 1350 
L 243 877 
L 2400 877 
L 2400 0 
L 2912 0 
z
M 2368 4051 
L 2400 4051 
L 2400 1325 
L 749 1325 
L 2368 4051 
z
" transform="scale(0.015625)"/>
       </defs>
       <use xlink:href="#IBMPlexSans-34"/>
       <use xlink:href="#IBMPlexSans-30" transform="translate(59.999985 0)"/>
      </g>
     </g>
    </g>
    <g id="xtick_4">
     <g id="line2d_4">
      <g>
       <use xlink:href="#m3b061d8936" x="341.68608" y="274.94952" style="stroke: #000000; stroke-width: 0.8"/>
      </g>
     </g>
     <g id="text_4">
      <!-- 60 -->
      <g transform="translate(335.68608 289.34952) scale(0.1 -0.1)">
       <defs>
        <path id="IBMPlexSans-36" d="M 1926 -77 
C 2822 -77 3411 525 3411 1402 
C 3411 2246 2861 2778 2093 2778 
C 1549 2778 1229 2502 1018 2138 
L 986 2150 
C 1229 3187 1760 3770 2714 4467 
L 2022 4467 
C 1306 4000 429 2963 429 1638 
C 429 576 998 -77 1926 -77 
z
M 1920 390 
C 1331 390 986 730 986 1331 
L 986 1382 
C 986 1984 1331 2323 1920 2323 
C 2509 2323 2854 1984 2854 1382 
L 2854 1331 
C 2854 730 2509 390 1920 390 
z
" transform="scale(0.015625)"/>
       </defs>
       <use xlink:href="#IBMPlexSans-36"/>
       <use xlink:href="#IBMPlexSans-30" transform="translate(59.999985 0)"/>
      </g>
     </g>
    </g>
    <g id="xtick_5">
     <g id="line2d_5">
      <g>
       <use xlink:href="#m3b061d8936" x="430.35872" y="274.94952" style="stroke: #000000; stroke-width: 0.8"/>
      </g>
     </g>
     <g id="text_5">
      <!-- 80 -->
      <g transform="translate(424.35872 289.34952) scale(0.1 -0.1)">
       <defs>
        <path id="IBMPlexSans-38" d="M 1920 -77 
C 2938 -77 3469 480 3469 1216 
C 3469 1824 3104 2176 2566 2323 
L 2566 2374 
C 3034 2534 3334 2912 3334 3424 
C 3334 4102 2810 4544 1920 4544 
C 1030 4544 506 4102 506 3424 
C 506 2912 806 2534 1274 2374 
L 1274 2323 
C 736 2176 371 1824 371 1216 
C 371 480 902 -77 1920 -77 
z
M 1920 390 
C 1299 390 941 685 941 1190 
L 941 1325 
C 941 1830 1299 2125 1920 2125 
C 2541 2125 2899 1830 2899 1325 
L 2899 1190 
C 2899 685 2541 390 1920 390 
z
M 1920 2573 
C 1363 2573 1062 2822 1062 3277 
L 1062 3373 
C 1062 3827 1363 4077 1920 4077 
C 2477 4077 2778 3827 2778 3373 
L 2778 3277 
C 2778 2822 2477 2573 1920 2573 
z
" transform="scale(0.015625)"/>
       </defs>
       <use xlink:href="#IBMPlexSans-38"/>
       <use xlink:href="#IBMPlexSans-30" transform="translate(59.999985 0)"/>
      </g>
     </g>
    </g>
    <g id="xtick_6">
     <g id="line2d_6">
      <g>
       <use xlink:href="#m3b061d8936" x="519.03136" y="274.94952" style="stroke: #000000; stroke-width: 0.8"/>
      </g>
     </g>
     <g id="text_6">
      <!-- 100 -->
      <g transform="translate(510.03136 289.34952) scale(0.1 -0.1)">
       <defs>
        <path id="IBMPlexSans-31" d="M 3501 0 
L 3501 474 
L 2349 474 
L 2349 4467 
L 1510 4467 
L 326 3360 
L 640 3021 
L 1766 4070 
L 1811 4070 
L 1811 474 
L 563 474 
L 563 0 
L 3501 0 
z
" transform="scale(0.015625)"/>
       </defs>
       <use xlink:href="#IBMPlexSans-31"/>
       <use xlink:href="#IBMPlexSans-30" transform="translate(59.999985 0)"/>
       <use xlink:href="#IBMPlexSans-30" transform="translate(119.999969 0)"/>
      </g>
     </g>
    </g>
    <g id="text_7">
     <!-- Time [ps] -->
     <g transform="translate(276.444291 302.94952) scale(0.1 -0.1)">
      <defs>
       <path id="IBMPlexSans-54" d="M 3520 3994 
L 3520 4467 
L 141 4467 
L 141 3994 
L 1562 3994 
L 1562 0 
L 2099 0 
L 2099 3994 
L 3520 3994 
z
" transform="scale(0.015625)"/>
       <path id="IBMPlexSans-69" d="M 800 4077 
C 1018 4077 1114 4192 1114 4365 
L 1114 4448 
C 1114 4621 1018 4736 800 4736 
C 582 4736 486 4621 486 4448 
L 486 4365 
C 486 4192 582 4077 800 4077 
z
M 544 0 
L 1056 0 
L 1056 3302 
L 544 3302 
L 544 0 
z
" transform="scale(0.015625)"/>
       <path id="IBMPlexSans-6d" d="M 1056 0 
L 1056 2291 
C 1056 2714 1440 2918 1843 2918 
C 2330 2918 2554 2618 2554 2029 
L 2554 0 
L 3066 0 
L 3066 2291 
C 3066 2714 3437 2918 3840 2918 
C 4339 2918 4563 2611 4563 2029 
L 4563 0 
L 5075 0 
L 5075 2118 
C 5075 2918 4672 3379 4000 3379 
C 3437 3379 3117 3066 2995 2707 
L 2982 2707 
C 2803 3181 2406 3379 1971 3379 
C 1459 3379 1229 3104 1082 2765 
L 1056 2765 
L 1056 3302 
L 544 3302 
L 544 0 
L 1056 0 
z
" transform="scale(0.015625)"/>
       <path id="IBMPlexSans-65" d="M 1786 -77 
C 2406 -77 2880 230 3091 678 
L 2726 941 
C 2554 576 2234 371 1818 371 
C 1203 371 838 800 838 1370 
L 838 1523 
L 3213 1523 
L 3213 1766 
C 3213 2701 2669 3379 1786 3379 
C 890 3379 301 2701 301 1651 
C 301 602 890 -77 1786 -77 
z
M 1786 2950 
C 2310 2950 2662 2560 2662 1978 
L 2662 1907 
L 838 1907 
L 838 1952 
C 838 2528 1229 2950 1786 2950 
z
" transform="scale(0.015625)"/>
       <path id="IBMPlexSans-20" transform="scale(0.015625)"/>
       <path id="IBMPlexSans-5b" d="M 1645 -883 
L 1645 -480 
L 1037 -480 
L 1037 4461 
L 1645 4461 
L 1645 4864 
L 595 4864 
L 595 -883 
L 1645 -883 
z
" transform="scale(0.015625)"/>
       <path id="IBMPlexSans-70" d="M 544 -1280 
L 1056 -1280 
L 1056 538 
L 1082 538 
C 1280 128 1594 -77 2048 -77 
C 2874 -77 3392 595 3392 1651 
C 3392 2707 2874 3379 2048 3379 
C 1594 3379 1254 3181 1082 2765 
L 1056 2765 
L 1056 3302 
L 544 3302 
L 544 -1280 
z
M 1907 384 
C 1440 384 1056 627 1056 1056 
L 1056 2285 
C 1056 2650 1440 2918 1907 2918 
C 2483 2918 2842 2522 2842 1933 
L 2842 1370 
C 2842 781 2483 384 1907 384 
z
" transform="scale(0.015625)"/>
       <path id="IBMPlexSans-73" d="M 1536 -77 
C 2291 -77 2758 314 2758 954 
C 2758 1453 2477 1773 1747 1882 
L 1491 1920 
C 1082 1984 858 2112 858 2432 
C 858 2746 1082 2944 1504 2944 
C 1926 2944 2208 2746 2355 2541 
L 2694 2848 
C 2426 3181 2074 3379 1542 3379 
C 870 3379 365 3059 365 2406 
C 365 1792 819 1542 1427 1453 
L 1690 1414 
C 2125 1350 2266 1152 2266 896 
C 2266 557 2010 358 1574 358 
C 1158 358 851 544 595 864 
L 230 570 
C 525 179 928 -77 1536 -77 
z
" transform="scale(0.015625)"/>
       <path id="IBMPlexSans-5d" d="M 384 4864 
L 384 4461 
L 992 4461 
L 992 -480 
L 384 -480 
L 384 -883 
L 1434 -883 
L 1434 4864 
L 384 4864 
z
" transform="scale(0.015625)"/>
      </defs>
      <use xlink:href="#IBMPlexSans-54"/>
      <use xlink:href="#IBMPlexSans-69" transform="translate(57.199997 0)"/>
      <use xlink:href="#IBMPlexSans-6d" transform="translate(82.199982 0)"/>
      <use xlink:href="#IBMPlexSans-65" transform="translate(169.499969 0)"/>
      <use xlink:href="#IBMPlexSans-20" transform="translate(224.399963 0)"/>
      <use xlink:href="#IBMPlexSans-5b" transform="translate(247.999954 0)"/>
      <use xlink:href="#IBMPlexSans-70" transform="translate(279.699951 0)"/>
      <use xlink:href="#IBMPlexSans-73" transform="translate(337.699936 0)"/>
      <use xlink:href="#IBMPlexSans-5d" transform="translate(386.399933 0)"/>
     </g>
    </g>
   </g>
   <g id="matplotlib.axis_2">
    <g id="ytick_1">
     <g id="line2d_7">
      <defs>
       <path id="m1cfa4e432c" d="M 0 0 
L -3.5 0 
" style="stroke: #000000; stroke-width: 0.8"/>
      </defs>
      <g>
       <use xlink:href="#m1cfa4e432c" x="53.5" y="262.012771" style="stroke: #000000; stroke-width: 0.8"/>
      </g>
     </g>
     <g id="text_8">
      <!-- 960 -->
      <g transform="translate(28.5 265.712771) scale(0.1 -0.1)">
       <defs>
        <path id="IBMPlexSans-39" d="M 3411 2829 
C 3411 3891 2842 4544 1914 4544 
C 1018 4544 429 3942 429 3066 
C 429 2221 979 1690 1747 1690 
C 2291 1690 2611 1965 2822 2330 
L 2854 2317 
C 2611 1280 2080 698 1126 0 
L 1818 0 
C 2534 467 3411 1504 3411 2829 
z
M 1920 2144 
C 1331 2144 986 2483 986 3085 
L 986 3136 
C 986 3738 1331 4077 1920 4077 
C 2509 4077 2854 3738 2854 3136 
L 2854 3085 
C 2854 2483 2509 2144 1920 2144 
z
" transform="scale(0.015625)"/>
       </defs>
       <use xlink:href="#IBMPlexSans-39"/>
       <use xlink:href="#IBMPlexSans-36" transform="translate(59.999985 0)"/>
       <use xlink:href="#IBMPlexSans-30" transform="translate(119.999969 0)"/>
      </g>
     </g>
    </g>
    <g id="ytick_2">
     <g id="line2d_8">
      <g>
       <use xlink:href="#m1cfa4e432c" x="53.5" y="224.480409" style="stroke: #000000; stroke-width: 0.8"/>
      </g>
     </g>
     <g id="text_9">
      <!-- 970 -->
      <g transform="translate(28.5 228.180409) scale(0.1 -0.1)">
       <defs>
        <path id="IBMPlexSans-37" d="M 1696 0 
L 3373 3994 
L 3373 4467 
L 442 4467 
L 442 3174 
L 922 3174 
L 922 4006 
L 2829 4006 
L 1120 0 
L 1696 0 
z
" transform="scale(0.015625)"/>
       </defs>
       <use xlink:href="#IBMPlexSans-39"/>
       <use xlink:href="#IBMPlexSans-37" transform="translate(59.999985 0)"/>
       <use xlink:href="#IBMPlexSans-30" transform="translate(119.999969 0)"/>
      </g>
     </g>
    </g>
    <g id="ytick_3">
     <g id="line2d_9">
      <g>
       <use xlink:href="#m1cfa4e432c" x="53.5" y="186.948048" style="stroke: #000000; stroke-width: 0.8"/>
      </g>
     </g>
     <g id="text_10">
      <!-- 980 -->
      <g transform="translate(28.5 190.648048) scale(0.1 -0.1)">
       <use xlink:href="#IBMPlexSans-39"/>
       <use xlink:href="#IBMPlexSans-38" transform="translate(59.999985 0)"/>
       <use xlink:href="#IBMPlexSans-30" transform="translate(119.999969 0)"/>
      </g>
     </g>
    </g>
    <g id="ytick_4">
     <g id="line2d_10">
      <g>
       <use xlink:href="#m1cfa4e432c" x="53.5" y="149.415686" style="stroke: #000000; stroke-width: 0.8"/>
      </g>
     </g>
     <g id="text_11">
      <!-- 990 -->
      <g transform="translate(28.5 153.115686) scale(0.1 -0.1)">
       <use xlink:href="#IBMPlexSans-39"/>
       <use xlink:href="#IBMPlexSans-39" transform="translate(59.999985 0)"/>
       <use xlink:href="#IBMPlexSans-30" transform="translate(119.999969 0)"/>
      </g>
     </g>
    </g>
    <g id="ytick_5">
     <g id="line2d_11">
      <g>
       <use xlink:href="#m1cfa4e432c" x="53.5" y="111.883324" style="stroke: #000000; stroke-width: 0.8"/>
      </g>
     </g>
     <g id="text_12">
      <!-- 1000 -->
      <g transform="translate(22.5 115.583324) scale(0.1 -0.1)">
       <use xlink:href="#IBMPlexSans-31"/>
       <use xlink:href="#IBMPlexSans-30" transform="translate(59.999985 0)"/>
       <use xlink:href="#IBMPlexSans-30" transform="translate(119.999969 0)"/>
       <use xlink:href="#IBMPlexSans-30" transform="translate(179.999954 0)"/>
      </g>
     </g>
    </g>
    <g id="ytick_6">
     <g id="line2d_12">
      <g>
       <use xlink:href="#m1cfa4e432c" x="53.5" y="74.350962" style="stroke: #000000; stroke-width: 0.8"/>
      </g>
     </g>
     <g id="text_13">
      <!-- 1010 -->
      <g transform="translate(22.5 78.050962) scale(0.1 -0.1)">
       <use xlink:href="#IBMPlexSans-31"/>
       <use xlink:href="#IBMPlexSans-30" transform="translate(59.999985 0)"/>
       <use xlink:href="#IBMPlexSans-31" transform="translate(119.999969 0)"/>
       <use xlink:href="#IBMPlexSans-30" transform="translate(179.999954 0)"/>
      </g>
     </g>
    </g>
    <g id="ytick_7">
     <g id="line2d_13">
      <g>
       <use xlink:href="#m1cfa4e432c" x="53.5" y="36.8186" style="stroke: #000000; stroke-width: 0.8"/>
      </g>
     </g>
     <g id="text_14">
      <!-- 1020 -->
      <g transform="translate(22.5 40.5186) scale(0.1 -0.1)">
       <use xlink:href="#IBMPlexSans-31"/>
       <use xlink:href="#IBMPlexSans-30" transform="translate(59.999985 0)"/>
       <use xlink:href="#IBMPlexSans-32" transform="translate(119.999969 0)"/>
       <use xlink:href="#IBMPlexSans-30" transform="translate(179.999954 0)"/>
      </g>
     </g>
    </g>
    <g id="text_15">
     <!-- Density [kg m$^{-3}$] -->
     <g transform="translate(16.3 186.03476) rotate(-90) scale(0.1 -0.1)">
      <defs>
       <path id="IBMPlexSans-44" d="M 595 0 
L 2093 0 
C 3206 0 3923 742 3923 2234 
C 3923 3725 3206 4467 2093 4467 
L 595 4467 
L 595 0 
z
M 1133 474 
L 1133 3994 
L 2093 3994 
C 2829 3994 3347 3482 3347 2598 
L 3347 1869 
C 3347 986 2829 474 2093 474 
L 1133 474 
z
" transform="scale(0.015625)"/>
       <path id="IBMPlexSans-6e" d="M 1056 0 
L 1056 2291 
C 1056 2714 1453 2918 1862 2918 
C 2355 2918 2611 2618 2611 2029 
L 2611 0 
L 3123 0 
L 3123 2118 
C 3123 2918 2694 3379 2016 3379 
C 1523 3379 1242 3136 1082 2765 
L 1056 2765 
L 1056 3302 
L 544 3302 
L 544 0 
L 1056 0 
z
" transform="scale(0.015625)"/>
       <path id="IBMPlexSans-74" d="M 1914 0 
L 1914 448 
L 1242 448 
L 1242 2854 
L 1965 2854 
L 1965 3302 
L 1242 3302 
L 1242 4218 
L 781 4218 
L 781 3603 
C 781 3379 710 3302 493 3302 
L 186 3302 
L 186 2854 
L 730 2854 
L 730 544 
C 730 224 922 0 1274 0 
L 1914 0 
z
" transform="scale(0.015625)"/>
       <path id="IBMPlexSans-79" d="M 1779 1056 
L 1600 518 
L 1568 518 
L 1414 1056 
L 621 3302 
L 109 3302 
L 1344 -128 
L 1094 -832 
L 576 -832 
L 576 -1280 
L 838 -1280 
C 1325 -1280 1459 -1165 1606 -768 
L 3085 3302 
L 2579 3302 
L 1779 1056 
z
" transform="scale(0.015625)"/>
       <path id="IBMPlexSans-6b" d="M 544 0 
L 1056 0 
L 1056 1178 
L 1549 1683 
L 2643 0 
L 3264 0 
L 1920 1997 
L 3142 3302 
L 2522 3302 
L 1587 2298 
L 1082 1734 
L 1056 1734 
L 1056 4736 
L 544 4736 
L 544 0 
z
" transform="scale(0.015625)"/>
       <path id="IBMPlexSans-67" d="M 3328 -365 
C 3328 179 2976 512 2157 512 
L 1453 512 
C 1152 512 947 563 947 762 
C 947 966 1165 1075 1382 1133 
C 1478 1114 1594 1101 1702 1101 
C 2458 1101 2950 1568 2950 2240 
C 2950 2592 2810 2886 2573 3091 
L 2573 3302 
L 3200 3302 
L 3200 3750 
L 2707 3750 
C 2432 3750 2323 3565 2323 3309 
L 2323 3251 
C 2144 3334 1933 3379 1696 3379 
C 947 3379 454 2912 454 2240 
C 454 1779 685 1414 1075 1229 
L 1075 1203 
C 742 1120 506 960 506 627 
C 506 403 614 256 800 166 
L 800 96 
C 474 6 275 -186 275 -544 
C 275 -1062 698 -1357 1728 -1357 
C 2790 -1357 3328 -1043 3328 -365 
z
M 2848 -403 
C 2848 -762 2515 -941 1946 -941 
L 1472 -941 
C 954 -941 755 -704 755 -416 
C 755 -211 851 -64 1062 32 
L 2163 32 
C 2675 32 2848 -141 2848 -403 
z
M 1702 1510 
C 1267 1510 992 1715 992 2150 
L 992 2330 
C 992 2765 1267 2970 1702 2970 
C 2138 2970 2413 2765 2413 2330 
L 2413 2150 
C 2413 1715 2138 1510 1702 1510 
z
" transform="scale(0.015625)"/>
       <path id="DejaVuSans-2212" d="M 678 2272 
L 4684 2272 
L 4684 1741 
L 678 1741 
L 678 2272 
z
" transform="scale(0.015625)"/>
       <path id="DejaVuSans-33" d="M 2597 2516 
Q 3050 2419 3304 2112 
Q 3559 1806 3559 1356 
Q 3559 666 3084 287 
Q 2609 -91 1734 -91 
Q 1441 -91 1130 -33 
Q 819 25 488 141 
L 488 750 
Q 750 597 1062 519 
Q 1375 441 1716 441 
Q 2309 441 2620 675 
Q 2931 909 2931 1356 
Q 2931 1769 2642 2001 
Q 2353 2234 1838 2234 
L 1294 2234 
L 1294 2753 
L 1863 2753 
Q 2328 2753 2575 2939 
Q 2822 3125 2822 3475 
Q 2822 3834 2567 4026 
Q 2313 4219 1838 4219 
Q 1578 4219 1281 4162 
Q 984 4106 628 3988 
L 628 4550 
Q 988 4650 1302 4700 
Q 1616 4750 1894 4750 
Q 2613 4750 3031 4423 
Q 3450 4097 3450 3541 
Q 3450 3153 3228 2886 
Q 3006 2619 2597 2516 
z
" transform="scale(0.015625)"/>
      </defs>
      <use xlink:href="#IBMPlexSans-44" transform="translate(0 0.765625)"/>
      <use xlink:href="#IBMPlexSans-65" transform="translate(67.099991 0.765625)"/>
      <use xlink:href="#IBMPlexSans-6e" transform="translate(121.999985 0.765625)"/>
      <use xlink:href="#IBMPlexSans-73" transform="translate(178.799973 0.765625)"/>
      <use xlink:href="#IBMPlexSans-69" transform="translate(227.499969 0.765625)"/>
      <use xlink:href="#IBMPlexSans-74" transform="translate(252.499954 0.765625)"/>
      <use xlink:href="#IBMPlexSans-79" transform="translate(287.599945 0.765625)"/>
      <use xlink:href="#IBMPlexSans-20" transform="translate(337.499939 0.765625)"/>
      <use xlink:href="#IBMPlexSans-5b" transform="translate(361.09993 0.765625)"/>
      <use xlink:href="#IBMPlexSans-6b" transform="translate(392.799927 0.765625)"/>
      <use xlink:href="#IBMPlexSans-67" transform="translate(445.499924 0.765625)"/>
      <use xlink:href="#IBMPlexSans-20" transform="translate(498.299911 0.765625)"/>
      <use xlink:href="#IBMPlexSans-6d" transform="translate(521.899902 0.765625)"/>
      <use xlink:href="#DejaVuSans-2212" transform="translate(610.156921 39.046875) scale(0.7)"/>
      <use xlink:href="#DejaVuSans-33" transform="translate(668.809265 39.046875) scale(0.7)"/>
      <use xlink:href="#IBMPlexSans-5d" transform="translate(716.079773 0.765625)"/>
     </g>
    </g>
   </g>
   <g id="line2d_14">
    <path d="M 75.66816 121.64325 
L 77.884976 72.502555 
L 80.101792 74.15353 
L 82.318608 78.105538 
L 84.535424 93.31619 
L 86.75224 83.371191 
L 88.969056 46.56414 
L 91.185872 62.884383 
L 93.402688 72.228794 
L 95.619504 92.296386 
L 97.83632 110.812412 
L 100.053136 96.619388 
L 102.269952 102.345628 
L 104.486768 52.695793 
L 106.703584 68.175212 
L 108.9204 77.180012 
L 111.137216 92.065291 
L 113.354032 70.559229 
L 115.570848 115.528022 
L 117.787664 91.757969 
L 120.00448 78.65959 
L 122.221296 85.995135 
L 124.438112 67.333551 
L 126.654928 96.846727 
L 128.871744 47.298958 
L 131.08856 92.400159 
L 133.305376 85.775047 
L 135.522192 95.662547 
L 137.739008 83.604485 
L 139.955824 91.384776 
L 142.17264 107.229634 
L 144.389456 49.702733 
L 146.606272 83.289673 
L 148.823088 63.925824 
L 151.039904 90.881065 
L 153.25672 88.856382 
L 155.473536 61.447953 
L 157.690352 101.135551 
L 159.907168 70.479303 
L 162.123984 102.405761 
L 164.3408 33.941386 
L 166.557616 93.695362 
L 168.774432 68.902424 
L 170.991248 106.831872 
L 173.208064 76.241783 
L 175.42488 126.395226 
L 177.641696 100.865054 
L 179.858512 70.861889 
L 182.075328 58.802854 
L 184.292144 83.295331 
L 186.50896 119.23511 
L 188.725776 90.812261 
L 190.942592 111.886119 
L 193.159408 92.607315 
L 195.376224 54.241597 
L 197.59304 77.329864 
L 199.809856 75.266432 
L 202.026672 87.871352 
L 204.243488 69.475558 
L 206.460304 54.988373 
L 208.67712 86.661641 
L 210.893936 88.68046 
L 213.110752 78.781403 
L 215.327568 79.900536 
L 217.544384 85.788471 
L 221.978016 33.80316 
L 224.194832 50.819324 
L 226.411648 102.50438 
L 228.628464 94.308035 
L 230.84528 75.691603 
L 233.062096 88.388567 
L 235.278912 107.253516 
L 237.495728 82.82975 
L 239.712544 99.358181 
L 241.92936 92.823692 
L 244.146176 78.179233 
L 246.362992 78.505694 
L 248.579808 86.460887 
L 250.796624 55.757633 
L 253.01344 92.586023 
L 255.230256 78.283934 
L 257.447072 87.323669 
L 259.663888 88.809374 
L 261.880704 63.212963 
L 264.09752 101.623845 
L 266.314336 84.89324 
L 268.531152 84.493164 
L 270.747968 106.479479 
L 272.964784 61.387396 
L 275.1816 36.039123 
L 277.398416 106.47058 
L 279.615232 86.163428 
L 281.832048 91.20937 
L 284.048864 63.008029 
L 286.26568 62.02214 
L 288.482496 94.86645 
L 290.699312 84.598128 
L 292.916128 53.335554 
L 295.132944 104.656306 
L 297.34976 79.380995 
L 299.566576 68.668156 
L 301.783392 107.738431 
L 304.000208 58.941664 
L 306.217024 93.525053 
L 308.43384 93.377858 
L 310.650656 76.854204 
L 312.867472 93.771749 
L 315.084288 49.435879 
L 317.301104 80.670677 
L 319.51792 72.602079 
L 321.734736 116.36312 
L 323.951552 92.329832 
L 326.168368 87.11586 
L 328.385184 68.236628 
L 330.602 74.802512 
L 332.818816 80.697193 
L 335.035632 52.694235 
L 337.252448 82.73364 
L 339.469264 76.82542 
L 341.68608 57.53325 
L 343.902896 95.589505 
L 346.119712 86.835592 
L 348.336528 75.276763 
L 350.553344 90.161355 
L 352.77016 72.76571 
L 354.986976 75.93193 
L 357.203792 42.047027 
L 359.420608 104.865489 
L 361.637424 79.01401 
L 363.85424 111.669261 
L 366.071056 75.235667 
L 368.287872 124.369065 
L 370.504688 88.695854 
L 372.721504 125.923987 
L 374.93832 91.033391 
L 377.155136 83.33873 
L 379.371952 62.118296 
L 381.588768 71.591083 
L 383.805584 99.543369 
L 386.0224 75.659761 
L 388.239216 97.029475 
L 390.456032 111.764019 
L 392.672848 72.150792 
L 394.889664 76.684158 
L 397.10648 103.675857 
L 399.323296 42.780368 
L 401.540112 63.161867 
L 403.756928 103.065533 
L 405.973744 92.607361 
L 408.19056 89.952767 
L 410.407376 68.33787 
L 412.624192 78.922745 
L 414.841008 81.375394 
L 417.057824 88.547823 
L 419.27464 81.006966 
L 421.491456 102.982033 
L 423.708272 102.822628 
L 425.925088 61.003539 
L 428.141904 84.346794 
L 430.35872 74.451196 
L 432.575536 65.09997 
L 434.792352 38.531312 
L 437.009168 72.207192 
L 439.225984 119.828735 
L 441.4428 51.074552 
L 443.659616 73.425493 
L 445.876432 88.082803 
L 448.093248 87.466763 
L 450.310064 91.339052 
L 452.52688 36.935053 
L 454.743696 72.536803 
L 456.960512 114.146273 
L 459.177328 73.04663 
L 461.394144 115.398066 
L 463.61096 126.524439 
L 465.827776 94.977657 
L 468.044592 84.441106 
L 470.261408 89.221202 
L 472.478224 84.417671 
L 474.69504 67.157389 
L 476.911856 72.528762 
L 479.128672 85.191559 
L 481.345488 90.451358 
L 483.562304 80.515396 
L 485.77912 59.828053 
L 487.995936 81.644837 
L 490.212752 85.141871 
L 492.429568 115.320499 
L 494.646384 107.103629 
L 496.8632 81.255002 
L 499.080016 96.034721 
L 501.296832 69.809659 
L 503.513648 89.284038 
L 505.730464 87.387089 
L 507.94728 105.666053 
L 510.164096 75.200033 
L 512.380912 63.416191 
L 514.597728 103.568557 
L 516.814544 66.177903 
L 519.03136 108.067492 
L 519.03136 108.067492 
" clip-path="url(#p91a00cb380)" style="fill: none; stroke: #1f77b4; stroke-width: 1.5; stroke-linecap: square"/>
   </g>
   <g id="line2d_15">
    <path d="M 75.66816 121.64325 
L 77.884976 88.378591 
L 80.101792 93.539336 
L 82.318608 110.377814 
L 84.535424 107.680955 
L 86.75224 104.773342 
L 91.185872 96.289388 
L 93.402688 84.38221 
L 95.619504 129.678025 
L 97.83632 121.943252 
L 100.053136 102.959767 
L 102.269952 110.356556 
L 104.486768 66.485477 
L 106.703584 88.177322 
L 108.9204 127.538057 
L 111.137216 108.799183 
L 113.354032 93.561694 
L 115.570848 119.264856 
L 117.787664 112.32476 
L 120.00448 100.46917 
L 122.221296 104.419644 
L 124.438112 75.546436 
L 126.654928 131.675551 
L 128.871744 91.168502 
L 131.08856 119.408031 
L 133.305376 99.002787 
L 135.522192 117.87352 
L 137.739008 113.007554 
L 139.955824 104.905109 
L 142.17264 113.4987 
L 144.389456 94.313945 
L 146.606272 94.640292 
L 148.823088 97.648012 
L 151.039904 109.130752 
L 153.25672 123.147797 
L 155.473536 111.227516 
L 157.690352 110.220299 
L 159.907168 86.627004 
L 162.123984 120.415934 
L 164.3408 51.101148 
L 166.557616 132.051379 
L 168.774432 91.533747 
L 170.991248 122.011793 
L 173.208064 110.282013 
L 175.42488 129.173501 
L 177.641696 133.252671 
L 179.858512 90.459548 
L 182.075328 123.377381 
L 184.292144 115.105096 
L 186.50896 140.846881 
L 188.725776 121.774421 
L 190.942592 126.172149 
L 193.159408 110.37053 
L 195.376224 87.222519 
L 197.59304 108.285587 
L 199.809856 122.449976 
L 202.026672 105.642927 
L 204.243488 112.306525 
L 206.460304 123.066062 
L 208.67712 98.555212 
L 210.893936 99.919471 
L 213.110752 95.675593 
L 215.327568 99.076047 
L 217.544384 101.342833 
L 219.7612 91.524446 
L 221.978016 98.339419 
L 224.194832 95.585015 
L 226.411648 111.287901 
L 228.628464 109.75394 
L 230.84528 94.919677 
L 233.062096 100.274269 
L 235.278912 131.82821 
L 237.495728 117.090893 
L 239.712544 126.808715 
L 241.92936 120.016603 
L 244.146176 99.548729 
L 246.362992 111.154119 
L 248.579808 98.442963 
L 250.796624 88.102688 
L 253.01344 98.73 
L 255.230256 113.557894 
L 257.447072 116.665035 
L 259.663888 127.111924 
L 261.880704 106.37928 
L 264.09752 126.913129 
L 266.314336 117.164703 
L 268.531152 101.423515 
L 270.747968 122.304236 
L 272.964784 121.28804 
L 275.1816 70.495694 
L 277.398416 123.642838 
L 279.615232 99.017632 
L 281.832048 103.78743 
L 284.048864 84.235003 
L 286.26568 102.390092 
L 288.482496 106.339649 
L 290.699312 104.42757 
L 292.916128 64.851133 
L 295.132944 123.582544 
L 297.34976 102.259105 
L 299.566576 101.480235 
L 301.783392 122.561767 
L 304.000208 73.104633 
L 306.217024 96.228911 
L 308.43384 104.755428 
L 310.650656 101.098955 
L 312.867472 106.902039 
L 315.084288 102.989226 
L 317.301104 90.604097 
L 319.51792 93.629594 
L 321.734736 123.184862 
L 323.951552 113.16484 
L 326.168368 93.961209 
L 328.385184 112.449196 
L 330.602 102.885637 
L 332.818816 98.348033 
L 335.035632 92.187402 
L 337.252448 106.629389 
L 339.469264 101.112196 
L 341.68608 91.569575 
L 343.902896 102.482457 
L 346.119712 88.797027 
L 348.336528 92.83817 
L 350.553344 109.067481 
L 352.77016 79.658868 
L 354.986976 85.901006 
L 357.203792 81.831182 
L 359.420608 134.948225 
L 361.637424 95.672523 
L 363.85424 116.54486 
L 366.071056 97.714124 
L 368.287872 133.653468 
L 370.504688 98.747959 
L 372.721504 128.733348 
L 374.93832 127.709546 
L 377.155136 97.439 
L 381.588768 94.701639 
L 383.805584 121.604352 
L 386.0224 119.745053 
L 388.239216 136.827225 
L 390.456032 121.943298 
L 392.672848 75.69323 
L 394.889664 93.762322 
L 397.10648 127.493295 
L 399.323296 74.447175 
L 401.540112 81.299031 
L 403.756928 122.328839 
L 405.973744 108.084043 
L 408.19056 98.342535 
L 410.407376 79.13698 
L 412.624192 105.258441 
L 414.841008 122.194598 
L 417.057824 104.363794 
L 419.27464 126.37997 
L 421.491456 135.585982 
L 423.708272 138.016834 
L 425.925088 84.506417 
L 428.141904 111.051262 
L 430.35872 115.685629 
L 432.575536 86.401957 
L 434.792352 82.568772 
L 437.009168 97.423743 
L 439.225984 120.085419 
L 441.4428 111.069634 
L 443.659616 106.523829 
L 445.876432 104.288885 
L 448.093248 138.590403 
L 450.310064 133.960572 
L 452.52688 72.934839 
L 454.743696 98.765644 
L 456.960512 125.983891 
L 459.177328 99.534297 
L 461.394144 117.928911 
L 463.61096 128.045514 
L 465.827776 116.010097 
L 468.044592 99.121496 
L 470.261408 96.992937 
L 472.478224 106.655412 
L 474.69504 101.023359 
L 476.911856 89.198053 
L 479.128672 93.710321 
L 481.345488 120.869237 
L 483.562304 104.535924 
L 485.77912 71.628904 
L 487.995936 105.636788 
L 490.212752 94.646935 
L 492.429568 126.622611 
L 494.646384 129.684898 
L 496.8632 111.761683 
L 499.080016 108.642172 
L 501.296832 102.340748 
L 503.513648 107.310075 
L 505.730464 94.012889 
L 507.94728 119.544791 
L 510.164096 90.68542 
L 512.380912 105.666981 
L 514.597728 113.639675 
L 516.814544 100.153545 
L 519.03136 121.704048 
L 519.03136 121.704048 
" clip-path="url(#p91a00cb380)" style="fill: none; stroke: #ff7f0e; stroke-width: 1.5; stroke-linecap: square"/>
   </g>
   <g id="line2d_16">
    <path d="M 75.66816 121.64325 
L 77.884976 125.285841 
L 80.101792 146.159094 
L 82.318608 127.794489 
L 84.535424 139.924012 
L 86.75224 142.669642 
L 88.969056 128.351381 
L 91.185872 130.298097 
L 93.402688 102.991609 
L 95.619504 141.924104 
L 97.83632 143.158383 
L 100.053136 131.888481 
L 102.269952 125.554665 
L 104.486768 94.945196 
L 106.703584 139.522665 
L 108.9204 156.844958 
L 111.137216 114.354632 
L 113.354032 139.12693 
L 115.570848 145.446542 
L 117.787664 120.539546 
L 120.00448 112.33839 
L 122.221296 126.050851 
L 124.438112 112.068076 
L 126.654928 143.005587 
L 128.871744 116.343499 
L 131.08856 145.613198 
L 133.305376 135.126517 
L 135.522192 140.77172 
L 137.739008 130.182756 
L 139.955824 152.038759 
L 142.17264 181.118551 
L 144.389456 119.339513 
L 146.606272 129.035526 
L 148.823088 119.830316 
L 151.039904 176.515774 
L 153.25672 151.975533 
L 155.473536 146.712091 
L 157.690352 123.54793 
L 159.907168 137.689457 
L 162.123984 132.837213 
L 164.3408 119.892282 
L 166.557616 164.869723 
L 168.774432 117.131188 
L 170.991248 139.167363 
L 173.208064 128.57061 
L 175.42488 156.794905 
L 177.641696 148.946302 
L 179.858512 135.451237 
L 182.075328 141.787916 
L 184.292144 135.509194 
L 186.50896 169.942571 
L 188.725776 138.621467 
L 190.942592 146.231826 
L 193.159408 153.030558 
L 195.376224 135.405192 
L 199.809856 160.031452 
L 202.026672 120.355251 
L 204.243488 154.005863 
L 206.460304 151.492977 
L 208.67712 142.241379 
L 210.893936 139.805578 
L 215.327568 136.453574 
L 217.544384 136.357933 
L 219.7612 118.773 
L 221.978016 125.665425 
L 224.194832 130.415042 
L 226.411648 121.79742 
L 228.628464 130.111397 
L 230.84528 146.467893 
L 233.062096 127.202433 
L 235.278912 144.10723 
L 237.495728 182.450762 
L 239.712544 152.040477 
L 241.92936 125.726246 
L 244.146176 110.573448 
L 246.362992 153.664879 
L 248.579808 149.244907 
L 250.796624 120.276563 
L 253.01344 110.873886 
L 255.230256 146.990766 
L 257.447072 144.419465 
L 259.663888 160.057109 
L 261.880704 164.305271 
L 264.09752 171.892151 
L 266.314336 150.401414 
L 268.531152 112.911776 
L 270.747968 140.374611 
L 272.964784 152.676516 
L 275.1816 96.819982 
L 277.398416 134.30962 
L 279.615232 133.861885 
L 281.832048 131.530888 
L 284.048864 143.274068 
L 286.26568 118.624557 
L 288.482496 131.930975 
L 290.699312 130.541723 
L 292.916128 113.765669 
L 295.132944 134.818749 
L 297.34976 122.560026 
L 299.566576 124.902018 
L 301.783392 139.259338 
L 304.000208 147.670216 
L 306.217024 125.90447 
L 308.43384 133.861541 
L 310.650656 149.644765 
L 312.867472 140.78157 
L 315.084288 115.711355 
L 317.301104 145.091355 
L 319.51792 133.484706 
L 321.734736 148.517466 
L 323.951552 130.344829 
L 326.168368 155.928297 
L 330.602 121.833615 
L 332.818816 115.125599 
L 335.035632 120.591088 
L 337.252448 154.857122 
L 339.469264 136.174326 
L 341.68608 114.328975 
L 343.902896 110.343796 
L 346.119712 114.330693 
L 348.336528 140.41344 
L 350.553344 128.336376 
L 352.77016 106.834873 
L 354.986976 132.550405 
L 357.203792 117.680979 
L 359.420608 164.048244 
L 361.637424 122.531963 
L 366.071056 136.932579 
L 368.287872 158.745172 
L 370.504688 123.476343 
L 372.721504 141.714038 
L 374.93832 159.004719 
L 377.155136 138.241195 
L 379.371952 125.646068 
L 381.588768 136.23446 
L 383.805584 142.468969 
L 386.0224 144.870866 
L 388.239216 162.24161 
L 390.456032 136.124731 
L 392.672848 119.524037 
L 394.889664 127.001187 
L 397.10648 134.888275 
L 399.323296 147.805258 
L 401.540112 124.372387 
L 403.756928 135.663021 
L 405.973744 120.766334 
L 408.19056 134.639838 
L 410.407376 116.921237 
L 412.624192 151.714726 
L 414.841008 148.939201 
L 417.057824 161.523561 
L 419.27464 145.926234 
L 421.491456 151.571895 
L 423.708272 159.489794 
L 425.925088 122.327854 
L 428.141904 125.872399 
L 430.35872 132.523718 
L 432.575536 104.840737 
L 434.792352 127.2581 
L 437.009168 157.85348 
L 439.225984 142.902502 
L 441.4428 151.910245 
L 443.659616 125.337613 
L 445.876432 137.000501 
L 448.093248 160.926923 
L 450.310064 146.339837 
L 452.52688 146.313035 
L 454.743696 137.008633 
L 456.960512 136.336973 
L 459.177328 128.778041 
L 461.394144 136.128052 
L 463.61096 142.070829 
L 465.827776 138.937481 
L 468.044592 128.590081 
L 470.261408 148.127343 
L 472.478224 134.268042 
L 474.69504 130.101776 
L 476.911856 108.298461 
L 479.128672 140.76038 
L 481.345488 128.310719 
L 483.562304 120.736325 
L 485.77912 140.036604 
L 487.995936 126.865687 
L 490.212752 157.517421 
L 492.429568 141.978739 
L 494.646384 148.574392 
L 496.8632 127.278029 
L 499.080016 166.199987 
L 501.296832 132.129472 
L 503.513648 130.955555 
L 505.730464 124.516134 
L 507.94728 158.070075 
L 510.164096 111.151415 
L 512.380912 130.32467 
L 514.597728 143.176137 
L 516.814544 130.052524 
L 519.03136 153.502118 
L 519.03136 153.502118 
" clip-path="url(#p91a00cb380)" style="fill: none; stroke: #2ca02c; stroke-width: 1.5; stroke-linecap: square"/>
   </g>
   <g id="line2d_17">
    <path d="M 75.66816 121.64325 
L 77.884976 163.979177 
L 80.101792 179.908943 
L 82.318608 172.629855 
L 84.535424 159.679953 
L 86.75224 181.790738 
L 88.969056 141.898126 
L 91.185872 173.361901 
L 93.402688 135.307238 
L 95.619504 157.535358 
L 97.83632 163.868028 
L 100.053136 156.716124 
L 102.269952 197.440432 
L 104.486768 145.392457 
L 106.703584 169.025245 
L 108.9204 165.518865 
L 111.137216 145.380178 
L 113.354032 156.592101 
L 115.570848 170.901818 
L 117.787664 181.179417 
L 120.00448 152.427988 
L 122.221296 150.508028 
L 124.438112 163.178224 
L 126.654928 170.556045 
L 128.871744 145.926716 
L 131.08856 169.175842 
L 133.305376 157.039997 
L 135.522192 179.791654 
L 137.739008 152.188646 
L 139.955824 195.605461 
L 142.17264 204.747514 
L 144.389456 173.659017 
L 146.606272 178.586239 
L 148.823088 144.558837 
L 151.039904 181.399333 
L 153.25672 174.786866 
L 155.473536 174.056057 
L 157.690352 139.614663 
L 159.907168 206.574238 
L 162.123984 140.374932 
L 164.3408 140.4355 
L 166.557616 185.520929 
L 168.774432 147.49907 
L 170.991248 152.772431 
L 173.208064 131.86555 
L 175.42488 175.87032 
L 177.641696 173.625754 
L 179.858512 151.447986 
L 182.075328 172.691935 
L 184.292144 146.700042 
L 186.50896 189.485056 
L 188.725776 161.778457 
L 190.942592 173.508741 
L 193.159408 176.851008 
L 195.376224 165.477447 
L 197.59304 187.396035 
L 199.809856 175.752985 
L 202.026672 173.016678 
L 204.243488 179.472134 
L 206.460304 169.348064 
L 208.67712 160.114929 
L 210.893936 165.17717 
L 213.110752 185.809706 
L 215.327568 148.918492 
L 217.544384 179.717524 
L 219.7612 157.963324 
L 221.978016 148.054634 
L 224.194832 175.431862 
L 226.411648 174.876344 
L 228.628464 163.435342 
L 230.84528 161.011225 
L 233.062096 166.701785 
L 235.278912 155.249558 
L 237.495728 214.816284 
L 239.712544 170.827779 
L 241.92936 157.210477 
L 244.146176 150.747232 
L 246.362992 176.640164 
L 248.579808 159.616315 
L 250.796624 171.238335 
L 253.01344 149.453621 
L 255.230256 196.07631 
L 257.447072 172.562276 
L 259.663888 174.165786 
L 261.880704 178.675992 
L 264.09752 199.716931 
L 266.314336 168.908736 
L 268.531152 145.120952 
L 270.747968 157.818546 
L 272.964784 185.787303 
L 275.1816 122.905981 
L 277.398416 144.585181 
L 279.615232 156.374292 
L 281.832048 150.314364 
L 284.048864 161.995945 
L 286.26568 168.351248 
L 288.482496 145.239798 
L 290.699312 141.085673 
L 292.916128 144.738664 
L 295.132944 148.83978 
L 297.34976 146.30433 
L 299.566576 151.140653 
L 301.783392 161.622408 
L 304.000208 193.027218 
L 306.217024 150.782373 
L 308.43384 173.602526 
L 310.650656 172.552655 
L 312.867472 165.966761 
L 315.084288 139.581034 
L 317.301104 156.62463 
L 319.51792 157.287631 
L 321.734736 163.974549 
L 323.951552 144.956839 
L 326.168368 177.147712 
L 328.385184 161.149955 
L 330.602 148.859298 
L 332.818816 154.871577 
L 335.035632 168.527273 
L 337.252448 187.626627 
L 339.469264 154.155796 
L 341.68608 139.871415 
L 343.902896 169.561245 
L 346.119712 169.351592 
L 348.336528 166.551967 
L 350.553344 157.209561 
L 352.77016 156.128352 
L 354.986976 176.767944 
L 357.203792 164.096328 
L 359.420608 186.645755 
L 361.637424 184.099354 
L 363.85424 157.959979 
L 366.071056 158.996197 
L 368.287872 195.482033 
L 370.504688 141.439555 
L 372.721504 155.81401 
L 374.93832 171.182302 
L 377.155136 165.563215 
L 379.371952 156.906123 
L 381.588768 174.780223 
L 383.805584 173.705932 
L 386.0224 163.408357 
L 388.239216 174.101781 
L 392.672848 146.779715 
L 394.889664 167.227568 
L 397.10648 155.370512 
L 399.323296 183.111381 
L 401.540112 150.620139 
L 403.756928 181.315536 
L 405.973744 150.643734 
L 408.19056 147.193479 
L 410.407376 158.970952 
L 412.624192 176.25192 
L 414.841008 185.862899 
L 417.057824 188.044421 
L 419.27464 157.608938 
L 421.491456 164.429318 
L 423.708272 175.543698 
L 425.925088 158.673928 
L 428.141904 156.104207 
L 430.35872 156.54885 
L 432.575536 161.24232 
L 434.792352 141.779417 
L 437.009168 187.94436 
L 439.225984 178.554397 
L 441.4428 183.332397 
L 443.659616 162.657847 
L 445.876432 170.51165 
L 448.093248 170.133714 
L 450.310064 162.806886 
L 452.52688 177.131356 
L 454.743696 150.88019 
L 456.960512 179.62548 
L 459.177328 179.401578 
L 461.394144 153.738642 
L 463.61096 160.706778 
L 465.827776 152.647721 
L 468.044592 180.909103 
L 470.261408 175.678901 
L 472.478224 191.925805 
L 474.69504 160.955375 
L 476.911856 147.358187 
L 479.128672 161.480058 
L 481.345488 147.245525 
L 483.562304 149.074724 
L 485.77912 157.702769 
L 487.995936 180.658903 
L 490.212752 182.325822 
L 492.429568 150.757312 
L 494.646384 182.17747 
L 496.8632 145.720773 
L 499.080016 203.380826 
L 501.296832 153.827159 
L 503.513648 169.001742 
L 505.730464 144.338325 
L 507.94728 166.481594 
L 510.164096 134.368792 
L 512.380912 142.190248 
L 514.597728 167.909079 
L 516.814544 165.556113 
L 519.03136 166.744898 
L 519.03136 166.744898 
" clip-path="url(#p91a00cb380)" style="fill: none; stroke: #d62728; stroke-width: 1.5; stroke-linecap: square"/>
   </g>
   <g id="line2d_18">
    <path d="M 75.66816 121.64325 
L 77.884976 180.596227 
L 80.101792 192.008823 
L 82.318608 187.128803 
L 84.535424 177.567282 
L 86.75224 200.575864 
L 88.969056 167.728232 
L 91.185872 179.536334 
L 93.402688 138.528208 
L 95.619504 181.843346 
L 97.83632 184.637267 
L 100.053136 174.933866 
L 102.269952 242.436337 
L 104.486768 181.278712 
L 106.703584 188.736676 
L 108.9204 181.703929 
L 111.137216 171.361362 
L 113.354032 181.512086 
L 115.570848 177.501216 
L 117.787664 213.888318 
L 120.00448 194.250548 
L 122.221296 163.754164 
L 124.438112 191.831195 
L 126.654928 177.136281 
L 128.871744 168.059619 
L 131.08856 184.576481 
L 133.305376 172.467747 
L 135.522192 199.695776 
L 137.739008 156.16977 
L 139.955824 222.157304 
L 142.17264 214.990786 
L 144.389456 184.720595 
L 146.606272 203.013956 
L 148.823088 156.138993 
L 151.039904 194.417879 
L 153.25672 191.395875 
L 155.473536 185.092768 
L 157.690352 147.570005 
L 159.907168 220.414102 
L 162.123984 166.533343 
L 164.3408 179.567477 
L 166.557616 190.59593 
L 168.774432 174.881842 
L 170.991248 154.757267 
L 173.208064 170.754256 
L 175.42488 195.440959 
L 177.641696 201.230046 
L 179.858512 176.002625 
L 182.075328 187.608174 
L 184.292144 152.582593 
L 186.50896 212.629424 
L 188.725776 181.81533 
L 190.942592 196.50911 
L 193.159408 188.31005 
L 195.376224 183.050033 
L 197.59304 197.607144 
L 199.809856 221.416026 
L 202.026672 209.241341 
L 204.243488 257.314044 
L 206.460304 178.816727 
L 208.67712 187.869359 
L 210.893936 175.349382 
L 213.110752 214.974074 
L 215.327568 184.334917 
L 217.544384 186.180895 
L 219.7612 161.972865 
L 221.978016 162.167308 
L 224.194832 208.311072 
L 226.411648 192.476385 
L 228.628464 172.173998 
L 230.84528 209.928109 
L 233.062096 186.446169 
L 235.278912 192.644346 
L 237.495728 229.846296 
L 239.712544 227.546156 
L 241.92936 192.433009 
L 244.146176 186.66045 
L 246.362992 200.291416 
L 248.579808 172.288011 
L 250.796624 206.65957 
L 253.01344 178.995065 
L 255.230256 263.46636 
L 257.447072 182.040572 
L 259.663888 202.087421 
L 261.880704 190.300406 
L 264.09752 205.233506 
L 266.314336 173.595138 
L 268.531152 177.768162 
L 270.747968 166.55388 
L 272.964784 195.994815 
L 275.1816 180.911532 
L 277.398416 151.34474 
L 279.615232 189.446891 
L 281.832048 218.780022 
L 284.048864 171.186918 
L 286.26568 189.576401 
L 288.482496 158.346333 
L 290.699312 153.498132 
L 292.916128 193.112985 
L 295.132944 164.946957 
L 297.34976 164.821043 
L 299.566576 170.103888 
L 301.783392 176.751256 
L 304.000208 212.482023 
L 306.217024 185.707949 
L 308.43384 198.668916 
L 310.650656 191.300338 
L 312.867472 204.314393 
L 315.084288 162.749662 
L 317.301104 187.083182 
L 319.51792 175.026288 
L 321.734736 190.211787 
L 323.951552 166.122214 
L 326.168368 187.335776 
L 328.385184 194.971518 
L 330.602 179.448001 
L 332.818816 183.198087 
L 335.035632 171.143027 
L 337.252448 194.898533 
L 339.469264 156.915641 
L 341.68608 168.46163 
L 343.902896 181.004274 
L 346.119712 204.151804 
L 348.336528 193.883654 
L 350.553344 209.185995 
L 352.77016 173.619581 
L 354.986976 186.692945 
L 357.203792 205.485378 
L 359.420608 219.335493 
L 361.637424 203.130557 
L 363.85424 206.33162 
L 366.071056 169.961516 
L 368.287872 205.935691 
L 370.504688 180.648297 
L 372.721504 177.743536 
L 374.93832 177.279799 
L 377.155136 220.667819 
L 379.371952 206.138197 
L 381.588768 178.573891 
L 383.805584 186.343954 
L 386.0224 180.491881 
L 388.239216 183.315399 
L 390.456032 181.081005 
L 392.672848 158.685405 
L 394.889664 201.038856 
L 397.10648 192.924533 
L 399.323296 224.154006 
L 401.540112 156.478202 
L 403.756928 208.123387 
L 405.973744 198.948931 
L 408.19056 214.228959 
L 410.407376 178.059036 
L 412.624192 189.168857 
L 414.841008 190.371295 
L 417.057824 195.932643 
L 419.27464 169.14699 
L 421.491456 187.97761 
L 423.708272 205.428899 
L 428.141904 168.935355 
L 430.35872 196.346292 
L 434.792352 150.451216 
L 437.009168 203.766768 
L 439.225984 200.624795 
L 441.4428 203.532809 
L 443.659616 201.319123 
L 445.876432 202.656855 
L 448.093248 209.182662 
L 450.310064 182.908199 
L 452.52688 197.545717 
L 454.743696 195.587329 
L 456.960512 196.358948 
L 459.177328 185.231144 
L 461.394144 167.352783 
L 463.61096 188.645388 
L 465.827776 164.908334 
L 468.044592 191.844424 
L 470.261408 187.492924 
L 472.478224 198.814324 
L 474.69504 168.016288 
L 476.911856 166.586054 
L 479.128672 167.116453 
L 481.345488 175.192588 
L 483.562304 171.109856 
L 485.77912 183.498559 
L 487.995936 215.135484 
L 490.212752 196.037481 
L 492.429568 160.695542 
L 494.646384 201.356383 
L 496.8632 159.966875 
L 499.080016 212.273458 
L 501.296832 174.894029 
L 503.513648 186.202005 
L 505.730464 149.72429 
L 507.94728 178.881213 
L 510.164096 138.814729 
L 512.380912 167.293589 
L 514.597728 182.606765 
L 516.814544 205.709853 
L 519.03136 174.768505 
L 519.03136 174.768505 
" clip-path="url(#p91a00cb380)" style="fill: none; stroke: #9467bd; stroke-width: 1.5; stroke-linecap: square"/>
   </g>
   <g id="line2d_19">
    <path d="M 75.66816 121.64325 
L 77.884976 180.596227 
L 80.101792 192.008823 
L 82.318608 187.128803 
L 84.535424 177.567282 
L 86.75224 200.575864 
L 88.969056 167.728232 
L 91.185872 179.536334 
L 93.402688 138.528208 
L 95.619504 181.843346 
L 97.83632 184.637267 
L 100.053136 174.933866 
L 102.269952 242.436337 
L 104.486768 181.278712 
L 106.703584 188.736676 
L 108.9204 181.703929 
L 111.137216 171.361362 
L 113.354032 181.512086 
L 115.570848 177.501216 
L 117.787664 213.888318 
L 120.00448 194.250548 
L 122.221296 163.754164 
L 124.438112 191.831195 
L 126.654928 177.136281 
L 128.871744 168.059619 
L 131.08856 184.576481 
L 133.305376 172.467747 
L 135.522192 199.695776 
L 137.739008 156.16977 
L 139.955824 222.157304 
L 142.17264 214.990786 
L 144.389456 184.720595 
L 146.606272 203.013956 
L 148.823088 156.138993 
L 151.039904 194.417879 
L 153.25672 191.395875 
L 155.473536 185.092768 
L 157.690352 147.570005 
L 159.907168 220.414102 
L 162.123984 166.533343 
L 164.3408 179.567477 
L 166.557616 190.59593 
L 168.774432 174.881842 
L 170.991248 154.757267 
L 173.208064 170.754256 
L 175.42488 195.440959 
L 177.641696 201.230046 
L 179.858512 176.002625 
L 182.075328 187.608174 
L 184.292144 152.582593 
L 186.50896 212.629424 
L 188.725776 181.81533 
L 190.942592 196.50911 
L 193.159408 188.31005 
L 195.376224 183.050033 
L 197.59304 197.607144 
L 199.809856 221.416026 
L 202.026672 209.241341 
L 204.243488 257.314044 
L 206.460304 178.816727 
L 208.67712 187.869359 
L 210.893936 175.349382 
L 213.110752 214.974074 
L 215.327568 184.334917 
L 217.544384 186.180895 
L 219.7612 161.972865 
L 221.978016 162.167308 
L 224.194832 208.311072 
L 226.411648 192.476385 
L 228.628464 172.173998 
L 230.84528 209.928109 
L 233.062096 186.446169 
L 235.278912 192.644346 
L 237.495728 229.846296 
L 239.712544 227.546156 
L 241.92936 192.433009 
L 244.146176 186.66045 
L 246.362992 200.291416 
L 248.579808 172.288011 
L 250.796624 206.65957 
L 253.01344 178.995065 
L 255.230256 263.46636 
L 257.447072 182.040572 
L 259.663888 202.087421 
L 261.880704 190.300406 
L 264.09752 205.233506 
L 266.314336 173.595138 
L 268.531152 177.768162 
L 270.747968 166.55388 
L 272.964784 195.994815 
L 275.1816 180.911532 
L 277.398416 151.34474 
L 279.615232 189.446891 
L 281.832048 218.780022 
L 284.048864 171.186918 
L 286.26568 189.576401 
L 288.482496 158.346333 
L 290.699312 153.498132 
L 292.916128 193.112985 
L 295.132944 164.946957 
L 297.34976 164.821043 
L 299.566576 170.103888 
L 301.783392 176.751256 
L 304.000208 212.482023 
L 306.217024 185.707949 
L 308.43384 198.668916 
L 310.650656 191.300338 
L 312.867472 204.314393 
L 315.084288 162.749662 
L 317.301104 187.083182 
L 319.51792 175.026288 
L 321.734736 190.211787 
L 323.951552 166.122214 
L 326.168368 187.335776 
L 328.385184 194.971518 
L 330.602 179.448001 
L 332.818816 183.198087 
L 335.035632 171.143027 
L 337.252448 194.898533 
L 339.469264 156.915641 
L 341.68608 168.46163 
L 343.902896 181.004274 
L 346.119712 204.151804 
L 348.336528 193.883654 
L 350.553344 209.185995 
L 352.77016 173.619581 
L 354.986976 186.692945 
L 357.203792 205.485378 
L 359.420608 219.335493 
L 361.637424 203.130557 
L 363.85424 206.33162 
L 366.071056 169.961516 
L 368.287872 205.935691 
L 370.504688 180.648297 
L 372.721504 177.743536 
L 374.93832 177.279799 
L 377.155136 220.667819 
L 379.371952 206.138197 
L 381.588768 178.573891 
L 383.805584 186.343954 
L 386.0224 180.491881 
L 388.239216 183.315399 
L 390.456032 181.081005 
L 392.672848 158.685405 
L 394.889664 201.038856 
L 397.10648 192.924533 
L 399.323296 224.154006 
L 401.540112 156.478202 
L 403.756928 208.123387 
L 405.973744 198.948931 
L 408.19056 214.228959 
L 410.407376 178.059036 
L 412.624192 189.168857 
L 414.841008 190.371295 
L 417.057824 195.932643 
L 419.27464 169.14699 
L 421.491456 187.97761 
L 423.708272 205.428899 
L 428.141904 168.935355 
L 430.35872 196.346292 
L 434.792352 150.451216 
L 437.009168 203.766768 
L 439.225984 200.624795 
L 441.4428 203.532809 
L 443.659616 201.319123 
L 445.876432 202.656855 
L 448.093248 209.182662 
L 450.310064 182.908199 
L 452.52688 197.545717 
L 454.743696 195.587329 
L 456.960512 196.358948 
L 459.177328 185.231144 
L 461.394144 167.352783 
L 463.61096 188.645388 
L 465.827776 164.908334 
L 468.044592 191.844424 
L 470.261408 187.492924 
L 472.478224 198.814324 
L 474.69504 168.016288 
L 476.911856 166.586054 
L 479.128672 167.116453 
L 481.345488 175.192588 
L 483.562304 171.109856 
L 485.77912 183.498559 
L 487.995936 215.135484 
L 490.212752 196.037481 
L 492.429568 160.695542 
L 494.646384 201.356383 
L 496.8632 159.966875 
L 499.080016 212.273458 
L 501.296832 174.894029 
L 503.513648 186.202005 
L 505.730464 149.72429 
L 507.94728 178.881213 
L 510.164096 138.814729 
L 512.380912 167.293589 
L 514.597728 182.606765 
L 516.814544 205.709853 
L 519.03136 174.768505 
L 519.03136 174.768505 
" clip-path="url(#p91a00cb380)" style="fill: none; stroke: #8c564b; stroke-width: 1.5; stroke-linecap: square"/>
   </g>
   <g id="patch_3">
    <path d="M 53.5 274.94952 
L 53.5 22.32 
" style="fill: none; stroke: #000000; stroke-width: 0.8; stroke-linejoin: miter; stroke-linecap: square"/>
   </g>
   <g id="patch_4">
    <path d="M 53.5 274.94952 
L 541.19952 274.94952 
" style="fill: none; stroke: #000000; stroke-width: 0.8; stroke-linejoin: miter; stroke-linecap: square"/>
   </g>
   <g id="text_16">
    <!-- Density percentiles during the NPT run (1000 H$_2$O) -->
    <g transform="translate(160.90976 16.32) scale(0.12 -0.12)">
     <defs>
      <path id="IBMPlexSans-72" d="M 1056 0 
L 1056 2240 
C 1056 2554 1389 2790 1939 2790 
L 2240 2790 
L 2240 3302 
L 2042 3302 
C 1504 3302 1203 3008 1088 2694 
L 1056 2694 
L 1056 3302 
L 544 3302 
L 544 0 
L 1056 0 
z
" transform="scale(0.015625)"/>
      <path id="IBMPlexSans-63" d="M 1773 -77 
C 2400 -77 2829 230 3040 704 
L 2669 954 
C 2490 576 2189 378 1773 378 
C 1165 378 851 794 851 1370 
L 851 1933 
C 851 2509 1165 2925 1773 2925 
C 2176 2925 2458 2726 2579 2387 
L 3008 2605 
C 2816 3059 2426 3379 1773 3379 
C 845 3379 301 2707 301 1651 
C 301 595 845 -77 1773 -77 
z
" transform="scale(0.015625)"/>
      <path id="IBMPlexSans-6c" d="M 1542 0 
L 1542 448 
L 1056 448 
L 1056 4736 
L 544 4736 
L 544 531 
C 544 224 736 0 1088 0 
L 1542 0 
z
" transform="scale(0.015625)"/>
      <path id="IBMPlexSans-64" d="M 2656 0 
L 3168 0 
L 3168 4736 
L 2656 4736 
L 2656 2765 
L 2630 2765 
C 2458 3181 2118 3379 1664 3379 
C 838 3379 320 2707 320 1651 
C 320 595 838 -77 1664 -77 
C 2118 -77 2432 128 2630 538 
L 2656 538 
L 2656 0 
z
M 1805 384 
C 1229 384 870 781 870 1370 
L 870 1933 
C 870 2522 1229 2918 1805 2918 
C 2272 2918 2656 2650 2656 2285 
L 2656 1056 
C 2656 627 2272 384 1805 384 
z
" transform="scale(0.015625)"/>
      <path id="IBMPlexSans-75" d="M 2579 0 
L 3091 0 
L 3091 3302 
L 2579 3302 
L 2579 1018 
C 2579 582 2182 384 1779 384 
C 1286 384 1024 685 1024 1274 
L 1024 3302 
L 512 3302 
L 512 1184 
C 512 384 947 -77 1626 -77 
C 2176 -77 2426 224 2554 538 
L 2579 538 
L 2579 0 
z
" transform="scale(0.015625)"/>
      <path id="IBMPlexSans-68" d="M 544 0 
L 1056 0 
L 1056 2291 
C 1056 2714 1453 2918 1862 2918 
C 2355 2918 2611 2618 2611 2029 
L 2611 0 
L 3123 0 
L 3123 2118 
C 3123 2918 2694 3379 2016 3379 
C 1523 3379 1242 3136 1082 2765 
L 1056 2765 
L 1056 4736 
L 544 4736 
L 544 0 
z
" transform="scale(0.015625)"/>
      <path id="IBMPlexSans-4e" d="M 3309 0 
L 3930 0 
L 3930 4467 
L 3405 4467 
L 3405 749 
L 3386 749 
L 2848 1741 
L 1216 4467 
L 595 4467 
L 595 0 
L 1120 0 
L 1120 3718 
L 1139 3718 
L 1677 2726 
L 3309 0 
z
" transform="scale(0.015625)"/>
      <path id="IBMPlexSans-50" d="M 1133 0 
L 1133 1907 
L 2374 1907 
C 3174 1907 3622 2400 3622 3187 
C 3622 3974 3174 4467 2374 4467 
L 595 4467 
L 595 0 
L 1133 0 
z
M 1133 3994 
L 2374 3994 
C 2797 3994 3046 3763 3046 3354 
L 3046 3021 
C 3046 2611 2797 2381 2374 2381 
L 1133 2381 
L 1133 3994 
z
" transform="scale(0.015625)"/>
      <path id="IBMPlexSans-28" d="M 531 1997 
C 531 749 1056 -339 1690 -877 
L 2176 -877 
C 1485 -262 1011 819 1011 1715 
L 1011 2266 
C 1011 3162 1466 4224 2176 4864 
L 1690 4864 
C 1037 4307 531 3232 531 1997 
z
" transform="scale(0.015625)"/>
      <path id="IBMPlexSans-48" d="M 3392 0 
L 3930 0 
L 3930 4467 
L 3392 4467 
L 3392 2496 
L 1133 2496 
L 1133 4467 
L 595 4467 
L 595 0 
L 1133 0 
L 1133 2022 
L 3392 2022 
L 3392 0 
z
" transform="scale(0.015625)"/>
      <path id="DejaVuSans-32" d="M 1228 531 
L 3431 531 
L 3431 0 
L 469 0 
L 469 531 
Q 828 903 1448 1529 
Q 2069 2156 2228 2338 
Q 2531 2678 2651 2914 
Q 2772 3150 2772 3378 
Q 2772 3750 2511 3984 
Q 2250 4219 1831 4219 
Q 1534 4219 1204 4116 
Q 875 4013 500 3803 
L 500 4441 
Q 881 4594 1212 4672 
Q 1544 4750 1819 4750 
Q 2544 4750 2975 4387 
Q 3406 4025 3406 3419 
Q 3406 3131 3298 2873 
Q 3191 2616 2906 2266 
Q 2828 2175 2409 1742 
Q 1991 1309 1228 531 
z
" transform="scale(0.015625)"/>
      <path id="IBMPlexSans-4f" d="M 2266 -77 
C 3418 -77 4160 736 4160 2234 
C 4160 3731 3418 4544 2266 4544 
C 1114 4544 371 3731 371 2234 
C 371 736 1114 -77 2266 -77 
z
M 2266 403 
C 1491 403 947 979 947 1862 
L 947 2605 
C 947 3488 1491 4064 2266 4064 
C 3040 4064 3584 3488 3584 2605 
L 3584 1862 
C 3584 979 3040 403 2266 403 
z
" transform="scale(0.015625)"/>
      <path id="IBMPlexSans-29" d="M 1613 1997 
C 1613 3232 1107 4307 454 4864 
L -32 4864 
C 678 4224 1133 3162 1133 2266 
L 1133 1715 
C 1133 819 659 -262 -32 -877 
L 454 -877 
C 1088 -339 1613 749 1613 1997 
z
" transform="scale(0.015625)"/>
     </defs>
     <use xlink:href="#IBMPlexSans-44"/>
     <use xlink:href="#IBMPlexSans-65" transform="translate(67.099991 0)"/>
     <use xlink:href="#IBMPlexSans-6e" transform="translate(121.999985 0)"/>
     <use xlink:href="#IBMPlexSans-73" transform="translate(178.799973 0)"/>
     <use xlink:href="#IBMPlexSans-69" transform="translate(227.499969 0)"/>
     <use xlink:href="#IBMPlexSans-74" transform="translate(252.499954 0)"/>
     <use xlink:href="#IBMPlexSans-79" transform="translate(287.599945 0)"/>
     <use xlink:href="#IBMPlexSans-20" transform="translate(337.499939 0)"/>
     <use xlink:href="#IBMPlexSans-70" transform="translate(361.09993 0)"/>
     <use xlink:href="#IBMPlexSans-65" transform="translate(419.099915 0)"/>
     <use xlink:href="#IBMPlexSans-72" transform="translate(473.999908 0)"/>
     <use xlink:href="#IBMPlexSans-63" transform="translate(510.699905 0)"/>
     <use xlink:href="#IBMPlexSans-65" transform="translate(560.999893 0)"/>
     <use xlink:href="#IBMPlexSans-6e" transform="translate(615.899887 0)"/>
     <use xlink:href="#IBMPlexSans-74" transform="translate(672.699875 0)"/>
     <use xlink:href="#IBMPlexSans-69" transform="translate(707.799866 0)"/>
     <use xlink:href="#IBMPlexSans-6c" transform="translate(732.79985 0)"/>
     <use xlink:href="#IBMPlexSans-65" transform="translate(759.999847 0)"/>
     <use xlink:href="#IBMPlexSans-73" transform="translate(814.899841 0)"/>
     <use xlink:href="#IBMPlexSans-20" transform="translate(863.599838 0)"/>
     <use xlink:href="#IBMPlexSans-64" transform="translate(887.199829 0)"/>
     <use xlink:href="#IBMPlexSans-75" transform="translate(945.199814 0)"/>
     <use xlink:href="#IBMPlexSans-72" transform="translate(1001.999802 0)"/>
     <use xlink:href="#IBMPlexSans-69" transform="translate(1038.699799 0)"/>
     <use xlink:href="#IBMPlexSans-6e" transform="translate(1063.699783 0)"/>
     <use xlink:href="#IBMPlexSans-67" transform="translate(1120.499771 0)"/>
     <use xlink:href="#IBMPlexSans-20" transform="translate(1173.299759 0)"/>
     <use xlink:href="#IBMPlexSans-74" transform="translate(1196.89975 0)"/>
     <use xlink:href="#IBMPlexSans-68" transform="translate(1231.999741 0)"/>
     <use xlink:href="#IBMPlexSans-65" transform="translate(1288.799728 0)"/>
     <use xlink:href="#IBMPlexSans-20" transform="translate(1343.699722 0)"/>
     <use xlink:href="#IBMPlexSans-4e" transform="translate(1367.299713 0)"/>
     <use xlink:href="#IBMPlexSans-50" transform="translate(1437.999695 0)"/>
     <use xlink:href="#IBMPlexSans-54" transform="translate(1498.599686 0)"/>
     <use xlink:href="#IBMPlexSans-20" transform="translate(1555.799683 0)"/>
     <use xlink:href="#IBMPlexSans-72" transform="translate(1579.399673 0)"/>
     <use xlink:href="#IBMPlexSans-75" transform="translate(1616.09967 0)"/>
     <use xlink:href="#IBMPlexSans-6e" transform="translate(1672.899658 0)"/>
     <use xlink:href="#IBMPlexSans-20" transform="translate(1729.699646 0)"/>
     <use xlink:href="#IBMPlexSans-28" transform="translate(1753.299637 0)"/>
     <use xlink:href="#IBMPlexSans-31" transform="translate(1786.799622 0)"/>
     <use xlink:href="#IBMPlexSans-30" transform="translate(1846.799606 0)"/>
     <use xlink:href="#IBMPlexSans-30" transform="translate(1906.799591 0)"/>
     <use xlink:href="#IBMPlexSans-30" transform="translate(1966.799576 0)"/>
     <use xlink:href="#IBMPlexSans-20" transform="translate(2026.799561 0)"/>
     <use xlink:href="#IBMPlexSans-48" transform="translate(2050.399551 0)"/>
     <use xlink:href="#DejaVuSans-32" transform="translate(2122.056564 -16.40625) scale(0.7)"/>
     <use xlink:href="#IBMPlexSans-4f" transform="translate(2169.327072 0)"/>
     <use xlink:href="#IBMPlexSans-29" transform="translate(2240.12706 0)"/>
    </g>
   </g>
   <g id="legend_1">
    <g id="patch_5">
     <path d="M 478.569832 269.94952 
L 534.19952 269.94952 
Q 536.19952 269.94952 536.19952 267.94952 
L 536.19952 182.54952 
Q 536.19952 180.54952 534.19952 180.54952 
L 478.569832 180.54952 
Q 476.569832 180.54952 476.569832 182.54952 
L 476.569832 267.94952 
Q 476.569832 269.94952 478.569832 269.94952 
z
" style="fill: #ffffff; opacity: 0.8; stroke: #cccccc; stroke-linejoin: miter"/>
    </g>
    <g id="line2d_20">
     <path d="M 480.569832 188.44952 
L 490.569832 188.44952 
L 500.569832 188.44952 
" style="fill: none; stroke: #1f77b4; stroke-width: 1.5; stroke-linecap: square"/>
    </g>
    <g id="text_17">
     <!-- 95 % -->
     <g transform="translate(508.569832 191.94952) scale(0.1 -0.1)">
      <defs>
       <path id="IBMPlexSans-35" d="M 3187 4467 
L 794 4467 
L 634 2010 
L 1088 1946 
C 1274 2150 1478 2323 1888 2323 
C 2496 2323 2822 1984 2822 1395 
L 2822 1331 
C 2822 742 2496 403 1888 403 
C 1350 403 1126 640 896 992 
L 493 685 
C 762 301 1146 -77 1888 -77 
C 2829 -77 3392 531 3392 1402 
C 3392 2266 2829 2784 2061 2784 
C 1594 2784 1357 2592 1146 2291 
L 1101 2291 
L 1229 3994 
L 3187 3994 
L 3187 4467 
z
" transform="scale(0.015625)"/>
       <path id="IBMPlexSans-25" d="M 1664 0 
L 4762 4467 
L 4269 4467 
L 1171 0 
L 1664 0 
z
M 1427 2010 
C 2074 2010 2438 2458 2438 3277 
C 2438 4096 2074 4544 1427 4544 
C 781 4544 416 4096 416 3277 
C 416 2458 781 2010 1427 2010 
z
M 1427 2342 
C 1056 2342 877 2598 877 3085 
L 877 3469 
C 877 3955 1056 4211 1427 4211 
C 1798 4211 1978 3955 1978 3469 
L 1978 3085 
C 1978 2598 1798 2342 1427 2342 
z
M 4506 -77 
C 5152 -77 5517 371 5517 1190 
C 5517 2010 5152 2458 4506 2458 
C 3859 2458 3494 2010 3494 1190 
C 3494 371 3859 -77 4506 -77 
z
M 4506 256 
C 4134 256 3955 512 3955 998 
L 3955 1382 
C 3955 1869 4134 2125 4506 2125 
C 4877 2125 5056 1869 5056 1382 
L 5056 998 
C 5056 512 4877 256 4506 256 
z
" transform="scale(0.015625)"/>
      </defs>
      <use xlink:href="#IBMPlexSans-39"/>
      <use xlink:href="#IBMPlexSans-35" transform="translate(59.999985 0)"/>
      <use xlink:href="#IBMPlexSans-20" transform="translate(119.999969 0)"/>
      <use xlink:href="#IBMPlexSans-25" transform="translate(143.59996 0)"/>
     </g>
    </g>
    <g id="line2d_21">
     <path d="M 480.569832 202.84952 
L 490.569832 202.84952 
L 500.569832 202.84952 
" style="fill: none; stroke: #ff7f0e; stroke-width: 1.5; stroke-linecap: square"/>
    </g>
    <g id="text_18">
     <!-- 80 % -->
     <g transform="translate(508.569832 206.34952) scale(0.1 -0.1)">
      <use xlink:href="#IBMPlexSans-38"/>
      <use xlink:href="#IBMPlexSans-30" transform="translate(59.999985 0)"/>
      <use xlink:href="#IBMPlexSans-20" transform="translate(119.999969 0)"/>
      <use xlink:href="#IBMPlexSans-25" transform="translate(143.59996 0)"/>
     </g>
    </g>
    <g id="line2d_22">
     <path d="M 480.569832 217.24952 
L 490.569832 217.24952 
L 500.569832 217.24952 
" style="fill: none; stroke: #2ca02c; stroke-width: 1.5; stroke-linecap: square"/>
    </g>
    <g id="text_19">
     <!-- 50 % -->
     <g transform="translate(508.569832 220.74952) scale(0.1 -0.1)">
      <use xlink:href="#IBMPlexSans-35"/>
      <use xlink:href="#IBMPlexSans-30" transform="translate(59.999985 0)"/>
      <use xlink:href="#IBMPlexSans-20" transform="translate(119.999969 0)"/>
      <use xlink:href="#IBMPlexSans-25" transform="translate(143.59996 0)"/>
     </g>
    </g>
    <g id="line2d_23">
     <path d="M 480.569832 231.64952 
L 490.569832 231.64952 
L 500.569832 231.64952 
" style="fill: none; stroke: #d62728; stroke-width: 1.5; stroke-linecap: square"/>
    </g>
    <g id="text_20">
     <!-- 20 % -->
     <g transform="translate(508.569832 235.14952) scale(0.1 -0.1)">
      <use xlink:href="#IBMPlexSans-32"/>
      <use xlink:href="#IBMPlexSans-30" transform="translate(59.999985 0)"/>
      <use xlink:href="#IBMPlexSans-20" transform="translate(119.999969 0)"/>
      <use xlink:href="#IBMPlexSans-25" transform="translate(143.59996 0)"/>
     </g>
    </g>
    <g id="line2d_24">
     <path d="M 480.569832 246.04952 
L 490.569832 246.04952 
L 500.569832 246.04952 
" style="fill: none; stroke: #9467bd; stroke-width: 1.5; stroke-linecap: square"/>
    </g>
    <g id="text_21">
     <!-- 5 % -->
     <g transform="translate(508.569832 249.54952) scale(0.1 -0.1)">
      <use xlink:href="#IBMPlexSans-35"/>
      <use xlink:href="#IBMPlexSans-20" transform="translate(59.999985 0)"/>
      <use xlink:href="#IBMPlexSans-25" transform="translate(83.599976 0)"/>
     </g>
    </g>
    <g id="line2d_25">
     <path d="M 480.569832 260.44952 
L 490.569832 260.44952 
L 500.569832 260.44952 
" style="fill: none; stroke: #8c564b; stroke-width: 1.5; stroke-linecap: square"/>
    </g>
    <g id="text_22">
     <!-- 5 % -->
     <g transform="translate(508.569832 263.94952) scale(0.1 -0.1)">
      <use xlink:href="#IBMPlexSans-35"/>
      <use xlink:href="#IBMPlexSans-20" transform="translate(59.999985 0)"/>
      <use xlink:href="#IBMPlexSans-25" transform="translate(83.599976 0)"/>
     </g>
    </g>
   </g>
  </g>
 </g>
 <defs>
  <clipPath id="p91a00cb380">
   <rect x="53.5" y="22.32" width="487.69952" height="252.62952"/>
  </clipPath>
 </defs>
</svg>