<?xml version="1.0" encoding="utf-8" standalone="no"?>
<!DOCTYPE svg PUBLIC "-//W3C//DTD SVG 1.1//EN"
  "http://www.w3.org/Graphics/SVG/1.1/DTD/svg11.dtd">
<svg xmlns:xlink="http://www.w3.org/1999/xlink" width="548.39952pt" height="312.14952pt" viewBox="0 0 548.39952 312.14952" xmlns="http://www.w3.org/2000/svg" version="1.1">
 <metadata>
  <rdf:RDF xmlns:dc="http://purl.org/dc/elements/1.1/" xmlns:cc="http://creativecommons.org/ns#" xmlns:rdf="http://www.w3.org/1999/02/22-rdf-syntax-ns#">
   <cc:Work>
    <dc:type rdf:resource="http://purl.org/dc/dcmitype/StillImage"/>
    <dc:date>2025-06-25T08:39:25.755094</dc:date>
    <dc:format>image/svg+xml</dc:format>
    <dc:creator>
     <cc:Agent>
      <dc:title>Matplotlib v3.10.1, https://matplotlib.org/</dc:title>
     </cc:Agent>
    </dc:creator>
   </cc:Work>
  </rdf:RDF>
 </metadata>
 <defs>
  <style type="text/css">*{stroke-linejoin: round; stroke-linecap: butt}</style>
 </defs>
 <g id="figure_1">
  <g id="patch_1">
   <path d="M 0 312.14952 
L 548.39952 312.14952 
L 548.39952 0 
L 0 0 
z
" style="fill: #ffffff"/>
  </g>
  <g id="axes_1">
   <g id="patch_2">
    <path d="M 48.520313 274.94952 
L 541.19952 274.94952 
L 541.19952 22.32 
L 48.520313 22.32 
z
" style="fill: #ffffff"/>
   </g>
   <g id="matplotlib.axis_1">
    <g id="xtick_1">
     <g id="line2d_1">
      <defs>
       <path id="m388bfbad10" d="M 0 0 
L 0 3.5 
" style="stroke: #000000; stroke-width: 0.8"/>
      </defs>
      <g>
       <use xlink:href="#m388bfbad10" x="70.466483" y="274.94952" style="stroke: #000000; stroke-width: 0.8"/>
      </g>
     </g>
     <g id="text_1">
      <!-- 0.0 -->
      <g transform="translate(63.106327 289.34952) scale(0.1 -0.1)">
       <defs>
        <path id="IBMPlexSans-30" d="M 1920 -77 
C 2989 -77 3456 774 3456 2234 
C 3456 3693 2989 4544 1920 4544 
C 851 4544 384 3693 384 2234 
C 384 774 851 -77 1920 -77 
z
M 1920 390 
C 1222 390 947 1005 947 1869 
L 947 2598 
C 947 3462 1222 4077 1920 4077 
C 2618 4077 2893 3462 2893 2598 
L 2893 1869 
C 2893 1005 2618 390 1920 390 
z
" transform="scale(0.015625)"/>
        <path id="IBMPlexSans-2e" d="M 870 -77 
C 1139 -77 1261 77 1261 294 
L 1261 378 
C 1261 595 1139 749 870 749 
C 602 749 480 595 480 378 
L 480 294 
C 480 77 602 -77 870 -77 
z
" transform="scale(0.015625)"/>
       </defs>
       <use xlink:href="#IBMPlexSans-30"/>
       <use xlink:href="#IBMPlexSans-2e" transform="translate(59.999985 0)"/>
       <use xlink:href="#IBMPlexSans-30" transform="translate(87.199982 0)"/>
      </g>
     </g>
    </g>
    <g id="xtick_2">
     <g id="line2d_2">
      <g>
       <use xlink:href="#m388bfbad10" x="160.134185" y="274.94952" style="stroke: #000000; stroke-width: 0.8"/>
      </g>
     </g>
     <g id="text_2">
      <!-- 0.2 -->
      <g transform="translate(152.774028 289.34952) scale(0.1 -0.1)">
       <defs>
        <path id="IBMPlexSans-32" d="M 3411 474 
L 1062 474 
L 2266 1555 
C 2835 2067 3245 2554 3245 3245 
C 3245 4006 2746 4544 1875 4544 
C 1011 4544 614 4019 442 3494 
L 922 3309 
C 1043 3731 1299 4064 1850 4064 
C 2400 4064 2675 3725 2675 3232 
L 2675 3155 
C 2675 2726 2355 2278 1939 1894 
L 480 550 
L 480 0 
L 3411 0 
L 3411 474 
z
" transform="scale(0.015625)"/>
       </defs>
       <use xlink:href="#IBMPlexSans-30"/>
       <use xlink:href="#IBMPlexSans-2e" transform="translate(59.999985 0)"/>
       <use xlink:href="#IBMPlexSans-32" transform="translate(87.199982 0)"/>
      </g>
     </g>
    </g>
    <g id="xtick_3">
     <g id="line2d_3">
      <g>
       <use xlink:href="#m388bfbad10" x="249.801886" y="274.94952" style="stroke: #000000; stroke-width: 0.8"/>
      </g>
     </g>
     <g id="text_3">
      <!-- 0.4 -->
      <g transform="translate(242.44173 289.34952) scale(0.1 -0.1)">
       <defs>
        <path id="IBMPlexSans-34" d="M 2912 0 
L 2912 877 
L 3558 877 
L 3558 1325 
L 2912 1325 
L 2912 4467 
L 2112 4467 
L 243 1350 
L 243 877 
L 2400 877 
L 2400 0 
L 2912 0 
z
M 2368 4051 
L 2400 4051 
L 2400 1325 
L 749 1325 
L 2368 4051 
z
" transform="scale(0.015625)"/>
       </defs>
       <use xlink:href="#IBMPlexSans-30"/>
       <use xlink:href="#IBMPlexSans-2e" transform="translate(59.999985 0)"/>
       <use xlink:href="#IBMPlexSans-34" transform="translate(87.199982 0)"/>
      </g>
     </g>
    </g>
    <g id="xtick_4">
     <g id="line2d_4">
      <g>
       <use xlink:href="#m388bfbad10" x="339.469587" y="274.94952" style="stroke: #000000; stroke-width: 0.8"/>
      </g>
     </g>
     <g id="text_4">
      <!-- 0.6 -->
      <g transform="translate(332.109431 289.34952) scale(0.1 -0.1)">
       <defs>
        <path id="IBMPlexSans-36" d="M 1926 -77 
C 2822 -77 3411 525 3411 1402 
C 3411 2246 2861 2778 2093 2778 
C 1549 2778 1229 2502 1018 2138 
L 986 2150 
C 1229 3187 1760 3770 2714 4467 
L 2022 4467 
C 1306 4000 429 2963 429 1638 
C 429 576 998 -77 1926 -77 
z
M 1920 390 
C 1331 390 986 730 986 1331 
L 986 1382 
C 986 1984 1331 2323 1920 2323 
C 2509 2323 2854 1984 2854 1382 
L 2854 1331 
C 2854 730 2509 390 1920 390 
z
" transform="scale(0.015625)"/>
       </defs>
       <use xlink:href="#IBMPlexSans-30"/>
       <use xlink:href="#IBMPlexSans-2e" transform="translate(59.999985 0)"/>
       <use xlink:href="#IBMPlexSans-36" transform="translate(87.199982 0)"/>
      </g>
     </g>
    </g>
    <g id="xtick_5">
     <g id="line2d_5">
      <g>
       <use xlink:href="#m388bfbad10" x="429.137288" y="274.94952" style="stroke: #000000; stroke-width: 0.8"/>
      </g>
     </g>
     <g id="text_5">
      <!-- 0.8 -->
      <g transform="translate(421.777132 289.34952) scale(0.1 -0.1)">
       <defs>
        <path id="IBMPlexSans-38" d="M 1920 -77 
C 2938 -77 3469 480 3469 1216 
C 3469 1824 3104 2176 2566 2323 
L 2566 2374 
C 3034 2534 3334 2912 3334 3424 
C 3334 4102 2810 4544 1920 4544 
C 1030 4544 506 4102 506 3424 
C 506 2912 806 2534 1274 2374 
L 1274 2323 
C 736 2176 371 1824 371 1216 
C 371 480 902 -77 1920 -77 
z
M 1920 390 
C 1299 390 941 685 941 1190 
L 941 1325 
C 941 1830 1299 2125 1920 2125 
C 2541 2125 2899 1830 2899 1325 
L 2899 1190 
C 2899 685 2541 390 1920 390 
z
M 1920 2573 
C 1363 2573 1062 2822 1062 3277 
L 1062 3373 
C 1062 3827 1363 4077 1920 4077 
C 2477 4077 2778 3827 2778 3373 
L 2778 3277 
C 2778 2822 2477 2573 1920 2573 
z
" transform="scale(0.015625)"/>
       </defs>
       <use xlink:href="#IBMPlexSans-30"/>
       <use xlink:href="#IBMPlexSans-2e" transform="translate(59.999985 0)"/>
       <use xlink:href="#IBMPlexSans-38" transform="translate(87.199982 0)"/>
      </g>
     </g>
    </g>
    <g id="xtick_6">
     <g id="line2d_6">
      <g>
       <use xlink:href="#m388bfbad10" x="518.804989" y="274.94952" style="stroke: #000000; stroke-width: 0.8"/>
      </g>
     </g>
     <g id="text_6">
      <!-- 1.0 -->
      <g transform="translate(511.444833 289.34952) scale(0.1 -0.1)">
       <defs>
        <path id="IBMPlexSans-31" d="M 3501 0 
L 3501 474 
L 2349 474 
L 2349 4467 
L 1510 4467 
L 326 3360 
L 640 3021 
L 1766 4070 
L 1811 4070 
L 1811 474 
L 563 474 
L 563 0 
L 3501 0 
z
" transform="scale(0.015625)"/>
       </defs>
       <use xlink:href="#IBMPlexSans-31"/>
       <use xlink:href="#IBMPlexSans-2e" transform="translate(59.999985 0)"/>
       <use xlink:href="#IBMPlexSans-30" transform="translate(87.199982 0)"/>
      </g>
     </g>
    </g>
    <g id="text_7">
     <!-- Frequency [THz] -->
     <g transform="translate(258.083354 302.94952) scale(0.1 -0.1)">
      <defs>
       <path id="IBMPlexSans-46" d="M 1133 0 
L 1133 2022 
L 3072 2022 
L 3072 2496 
L 1133 2496 
L 1133 3994 
L 3258 3994 
L 3258 4467 
L 595 4467 
L 595 0 
L 1133 0 
z
" transform="scale(0.015625)"/>
       <path id="IBMPlexSans-72" d="M 1056 0 
L 1056 2240 
C 1056 2554 1389 2790 1939 2790 
L 2240 2790 
L 2240 3302 
L 2042 3302 
C 1504 3302 1203 3008 1088 2694 
L 1056 2694 
L 1056 3302 
L 544 3302 
L 544 0 
L 1056 0 
z
" transform="scale(0.015625)"/>
       <path id="IBMPlexSans-65" d="M 1786 -77 
C 2406 -77 2880 230 3091 678 
L 2726 941 
C 2554 576 2234 371 1818 371 
C 1203 371 838 800 838 1370 
L 838 1523 
L 3213 1523 
L 3213 1766 
C 3213 2701 2669 3379 1786 3379 
C 890 3379 301 2701 301 1651 
C 301 602 890 -77 1786 -77 
z
M 1786 2950 
C 2310 2950 2662 2560 2662 1978 
L 2662 1907 
L 838 1907 
L 838 1952 
C 838 2528 1229 2950 1786 2950 
z
" transform="scale(0.015625)"/>
       <path id="IBMPlexSans-71" d="M 2656 -1280 
L 3168 -1280 
L 3168 3302 
L 2656 3302 
L 2656 2765 
L 2630 2765 
C 2458 3181 2118 3379 1664 3379 
C 838 3379 320 2707 320 1651 
C 320 595 838 -77 1664 -77 
C 2118 -77 2432 128 2630 538 
L 2656 538 
L 2656 -1280 
z
M 1805 384 
C 1229 384 870 781 870 1370 
L 870 1933 
C 870 2522 1229 2918 1805 2918 
C 2272 2918 2656 2650 2656 2285 
L 2656 1056 
C 2656 627 2272 384 1805 384 
z
" transform="scale(0.015625)"/>
       <path id="IBMPlexSans-75" d="M 2579 0 
L 3091 0 
L 3091 3302 
L 2579 3302 
L 2579 1018 
C 2579 582 2182 384 1779 384 
C 1286 384 1024 685 1024 1274 
L 1024 3302 
L 512 3302 
L 512 1184 
C 512 384 947 -77 1626 -77 
C 2176 -77 2426 224 2554 538 
L 2579 538 
L 2579 0 
z
" transform="scale(0.015625)"/>
       <path id="IBMPlexSans-6e" d="M 1056 0 
L 1056 2291 
C 1056 2714 1453 2918 1862 2918 
C 2355 2918 2611 2618 2611 2029 
L 2611 0 
L 3123 0 
L 3123 2118 
C 3123 2918 2694 3379 2016 3379 
C 1523 3379 1242 3136 1082 2765 
L 1056 2765 
L 1056 3302 
L 544 3302 
L 544 0 
L 1056 0 
z
" transform="scale(0.015625)"/>
       <path id="IBMPlexSans-63" d="M 1773 -77 
C 2400 -77 2829 230 3040 704 
L 2669 954 
C 2490 576 2189 378 1773 378 
C 1165 378 851 794 851 1370 
L 851 1933 
C 851 2509 1165 2925 1773 2925 
C 2176 2925 2458 2726 2579 2387 
L 3008 2605 
C 2816 3059 2426 3379 1773 3379 
C 845 3379 301 2707 301 1651 
C 301 595 845 -77 1773 -77 
z
" transform="scale(0.015625)"/>
       <path id="IBMPlexSans-79" d="M 1779 1056 
L 1600 518 
L 1568 518 
L 1414 1056 
L 621 3302 
L 109 3302 
L 1344 -128 
L 1094 -832 
L 576 -832 
L 576 -1280 
L 838 -1280 
C 1325 -1280 1459 -1165 1606 -768 
L 3085 3302 
L 2579 3302 
L 1779 1056 
z
" transform="scale(0.015625)"/>
       <path id="IBMPlexSans-20" transform="scale(0.015625)"/>
       <path id="IBMPlexSans-5b" d="M 1645 -883 
L 1645 -480 
L 1037 -480 
L 1037 4461 
L 1645 4461 
L 1645 4864 
L 595 4864 
L 595 -883 
L 1645 -883 
z
" transform="scale(0.015625)"/>
       <path id="IBMPlexSans-54" d="M 3520 3994 
L 3520 4467 
L 141 4467 
L 141 3994 
L 1562 3994 
L 1562 0 
L 2099 0 
L 2099 3994 
L 3520 3994 
z
" transform="scale(0.015625)"/>
       <path id="IBMPlexSans-48" d="M 3392 0 
L 3930 0 
L 3930 4467 
L 3392 4467 
L 3392 2496 
L 1133 2496 
L 1133 4467 
L 595 4467 
L 595 0 
L 1133 0 
L 1133 2022 
L 3392 2022 
L 3392 0 
z
" transform="scale(0.015625)"/>
       <path id="IBMPlexSans-7a" d="M 2758 0 
L 2758 448 
L 794 448 
L 2707 2918 
L 2707 3302 
L 269 3302 
L 269 2854 
L 2086 2854 
L 211 429 
L 211 0 
L 2758 0 
z
" transform="scale(0.015625)"/>
       <path id="IBMPlexSans-5d" d="M 384 4864 
L 384 4461 
L 992 4461 
L 992 -480 
L 384 -480 
L 384 -883 
L 1434 -883 
L 1434 4864 
L 384 4864 
z
" transform="scale(0.015625)"/>
      </defs>
      <use xlink:href="#IBMPlexSans-46"/>
      <use xlink:href="#IBMPlexSans-72" transform="translate(55.899994 0)"/>
      <use xlink:href="#IBMPlexSans-65" transform="translate(92.599991 0)"/>
      <use xlink:href="#IBMPlexSans-71" transform="translate(147.499985 0)"/>
      <use xlink:href="#IBMPlexSans-75" transform="translate(205.499969 0)"/>
      <use xlink:href="#IBMPlexSans-65" transform="translate(262.299957 0)"/>
      <use xlink:href="#IBMPlexSans-6e" transform="translate(317.199951 0)"/>
      <use xlink:href="#IBMPlexSans-63" transform="translate(373.999939 0)"/>
      <use xlink:href="#IBMPlexSans-79" transform="translate(424.299927 0)"/>
      <use xlink:href="#IBMPlexSans-20" transform="translate(474.199921 0)"/>
      <use xlink:href="#IBMPlexSans-5b" transform="translate(497.799911 0)"/>
      <use xlink:href="#IBMPlexSans-54" transform="translate(529.499908 0)"/>
      <use xlink:href="#IBMPlexSans-48" transform="translate(586.699905 0)"/>
      <use xlink:href="#IBMPlexSans-7a" transform="translate(657.399887 0)"/>
      <use xlink:href="#IBMPlexSans-5d" transform="translate(703.799881 0)"/>
     </g>
    </g>
   </g>
   <g id="matplotlib.axis_2">
    <g id="ytick_1">
     <g id="line2d_7">
      <defs>
       <path id="mc154f2f0c2" d="M 0 0 
L -3.5 0 
" style="stroke: #000000; stroke-width: 0.8"/>
      </defs>
      <g>
       <use xlink:href="#mc154f2f0c2" x="48.520313" y="253.622894" style="stroke: #000000; stroke-width: 0.8"/>
      </g>
     </g>
     <g id="text_8">
      <!-- $\mathdefault{10^{-1}}$ -->
      <g transform="translate(20.720313 257.322894) scale(0.1 -0.1)">
       <defs>
        <path id="IBMPlexSans-2212" d="M 3411 1734 
L 3411 2170 
L 429 2170 
L 429 1734 
L 3411 1734 
z
" transform="scale(0.015625)"/>
       </defs>
       <use xlink:href="#IBMPlexSans-31" transform="translate(0 0.026563)"/>
       <use xlink:href="#IBMPlexSans-30" transform="translate(59.999985 0.026563)"/>
       <use xlink:href="#IBMPlexSans-2212" transform="translate(120.90286 36.142188) scale(0.7)"/>
       <use xlink:href="#IBMPlexSans-31" transform="translate(162.902849 36.142188) scale(0.7)"/>
      </g>
     </g>
    </g>
    <g id="ytick_2">
     <g id="line2d_8">
      <g>
       <use xlink:href="#mc154f2f0c2" x="48.520313" y="101.158128" style="stroke: #000000; stroke-width: 0.8"/>
      </g>
     </g>
     <g id="text_9">
      <!-- $\mathdefault{10^{0}}$ -->
      <g transform="translate(24.920313 104.858128) scale(0.1 -0.1)">
       <use xlink:href="#IBMPlexSans-31" transform="translate(0 0.184375)"/>
       <use xlink:href="#IBMPlexSans-30" transform="translate(59.999985 0.184375)"/>
       <use xlink:href="#IBMPlexSans-30" transform="translate(120.90286 36.3) scale(0.7)"/>
      </g>
     </g>
    </g>
    <g id="ytick_3">
     <g id="line2d_9">
      <defs>
       <path id="mc63f548cee" d="M 0 0 
L -2 0 
" style="stroke: #000000; stroke-width: 0.6"/>
      </defs>
      <g>
       <use xlink:href="#mc63f548cee" x="48.520313" y="268.398256" style="stroke: #000000; stroke-width: 0.6"/>
      </g>
     </g>
    </g>
    <g id="ytick_4">
     <g id="line2d_10">
      <g>
       <use xlink:href="#mc63f548cee" x="48.520313" y="260.599299" style="stroke: #000000; stroke-width: 0.6"/>
      </g>
     </g>
    </g>
    <g id="ytick_5">
     <g id="line2d_11">
      <g>
       <use xlink:href="#mc63f548cee" x="48.520313" y="207.726426" style="stroke: #000000; stroke-width: 0.6"/>
      </g>
     </g>
    </g>
    <g id="ytick_6">
     <g id="line2d_12">
      <g>
       <use xlink:href="#mc63f548cee" x="48.520313" y="180.878713" style="stroke: #000000; stroke-width: 0.6"/>
      </g>
     </g>
    </g>
    <g id="ytick_7">
     <g id="line2d_13">
      <g>
       <use xlink:href="#mc63f548cee" x="48.520313" y="161.829958" style="stroke: #000000; stroke-width: 0.6"/>
      </g>
     </g>
    </g>
    <g id="ytick_8">
     <g id="line2d_14">
      <g>
       <use xlink:href="#mc63f548cee" x="48.520313" y="147.054596" style="stroke: #000000; stroke-width: 0.6"/>
      </g>
     </g>
    </g>
    <g id="ytick_9">
     <g id="line2d_15">
      <g>
       <use xlink:href="#mc63f548cee" x="48.520313" y="134.982245" style="stroke: #000000; stroke-width: 0.6"/>
      </g>
     </g>
    </g>
    <g id="ytick_10">
     <g id="line2d_16">
      <g>
       <use xlink:href="#mc63f548cee" x="48.520313" y="124.775219" style="stroke: #000000; stroke-width: 0.6"/>
      </g>
     </g>
    </g>
    <g id="ytick_11">
     <g id="line2d_17">
      <g>
       <use xlink:href="#mc63f548cee" x="48.520313" y="115.93349" style="stroke: #000000; stroke-width: 0.6"/>
      </g>
     </g>
    </g>
    <g id="ytick_12">
     <g id="line2d_18">
      <g>
       <use xlink:href="#mc63f548cee" x="48.520313" y="108.134533" style="stroke: #000000; stroke-width: 0.6"/>
      </g>
     </g>
    </g>
    <g id="ytick_13">
     <g id="line2d_19">
      <g>
       <use xlink:href="#mc63f548cee" x="48.520313" y="55.26166" style="stroke: #000000; stroke-width: 0.6"/>
      </g>
     </g>
    </g>
    <g id="ytick_14">
     <g id="line2d_20">
      <g>
       <use xlink:href="#mc63f548cee" x="48.520313" y="28.413947" style="stroke: #000000; stroke-width: 0.6"/>
      </g>
     </g>
    </g>
    <g id="text_10">
     <!-- Relative Degrees of Freedom -->
     <g transform="translate(14.6 213.466791) rotate(-90) scale(0.1 -0.1)">
      <defs>
       <path id="IBMPlexSans-52" d="M 1133 1920 
L 2176 1920 
L 3142 0 
L 3750 0 
L 2726 1971 
C 3309 2106 3622 2547 3622 3200 
C 3622 4013 3155 4467 2374 4467 
L 595 4467 
L 595 0 
L 1133 0 
L 1133 1920 
z
M 1133 2381 
L 1133 3994 
L 2374 3994 
C 2797 3994 3046 3763 3046 3354 
L 3046 3021 
C 3046 2611 2797 2381 2374 2381 
L 1133 2381 
z
" transform="scale(0.015625)"/>
       <path id="IBMPlexSans-6c" d="M 1542 0 
L 1542 448 
L 1056 448 
L 1056 4736 
L 544 4736 
L 544 531 
C 544 224 736 0 1088 0 
L 1542 0 
z
" transform="scale(0.015625)"/>
       <path id="IBMPlexSans-61" d="M 3232 0 
L 3232 448 
L 2854 448 
L 2854 2266 
C 2854 2963 2381 3379 1587 3379 
C 992 3379 595 3085 416 2733 
L 723 2445 
C 902 2746 1165 2938 1562 2938 
C 2086 2938 2342 2682 2342 2214 
L 2342 1888 
L 1690 1888 
C 730 1888 282 1542 282 922 
C 282 307 691 -77 1389 -77 
C 1850 -77 2202 134 2342 538 
L 2374 538 
C 2413 230 2566 0 2944 0 
L 3232 0 
z
M 1472 358 
C 1075 358 819 544 819 870 
L 819 1005 
C 819 1325 1082 1504 1664 1504 
L 2342 1504 
L 2342 960 
C 2342 621 1978 358 1472 358 
z
" transform="scale(0.015625)"/>
       <path id="IBMPlexSans-74" d="M 1914 0 
L 1914 448 
L 1242 448 
L 1242 2854 
L 1965 2854 
L 1965 3302 
L 1242 3302 
L 1242 4218 
L 781 4218 
L 781 3603 
C 781 3379 710 3302 493 3302 
L 186 3302 
L 186 2854 
L 730 2854 
L 730 544 
C 730 224 922 0 1274 0 
L 1914 0 
z
" transform="scale(0.015625)"/>
       <path id="IBMPlexSans-69" d="M 800 4077 
C 1018 4077 1114 4192 1114 4365 
L 1114 4448 
C 1114 4621 1018 4736 800 4736 
C 582 4736 486 4621 486 4448 
L 486 4365 
C 486 4192 582 4077 800 4077 
z
M 544 0 
L 1056 0 
L 1056 3302 
L 544 3302 
L 544 0 
z
" transform="scale(0.015625)"/>
       <path id="IBMPlexSans-76" d="M 1869 0 
L 3034 3302 
L 2541 3302 
L 1952 1664 
L 1594 538 
L 1562 538 
L 1203 1664 
L 627 3302 
L 115 3302 
L 1274 0 
L 1869 0 
z
" transform="scale(0.015625)"/>
       <path id="IBMPlexSans-44" d="M 595 0 
L 2093 0 
C 3206 0 3923 742 3923 2234 
C 3923 3725 3206 4467 2093 4467 
L 595 4467 
L 595 0 
z
M 1133 474 
L 1133 3994 
L 2093 3994 
C 2829 3994 3347 3482 3347 2598 
L 3347 1869 
C 3347 986 2829 474 2093 474 
L 1133 474 
z
" transform="scale(0.015625)"/>
       <path id="IBMPlexSans-67" d="M 3328 -365 
C 3328 179 2976 512 2157 512 
L 1453 512 
C 1152 512 947 563 947 762 
C 947 966 1165 1075 1382 1133 
C 1478 1114 1594 1101 1702 1101 
C 2458 1101 2950 1568 2950 2240 
C 2950 2592 2810 2886 2573 3091 
L 2573 3302 
L 3200 3302 
L 3200 3750 
L 2707 3750 
C 2432 3750 2323 3565 2323 3309 
L 2323 3251 
C 2144 3334 1933 3379 1696 3379 
C 947 3379 454 2912 454 2240 
C 454 1779 685 1414 1075 1229 
L 1075 1203 
C 742 1120 506 960 506 627 
C 506 403 614 256 800 166 
L 800 96 
C 474 6 275 -186 275 -544 
C 275 -1062 698 -1357 1728 -1357 
C 2790 -1357 3328 -1043 3328 -365 
z
M 2848 -403 
C 2848 -762 2515 -941 1946 -941 
L 1472 -941 
C 954 -941 755 -704 755 -416 
C 755 -211 851 -64 1062 32 
L 2163 32 
C 2675 32 2848 -141 2848 -403 
z
M 1702 1510 
C 1267 1510 992 1715 992 2150 
L 992 2330 
C 992 2765 1267 2970 1702 2970 
C 2138 2970 2413 2765 2413 2330 
L 2413 2150 
C 2413 1715 2138 1510 1702 1510 
z
" transform="scale(0.015625)"/>
       <path id="IBMPlexSans-73" d="M 1536 -77 
C 2291 -77 2758 314 2758 954 
C 2758 1453 2477 1773 1747 1882 
L 1491 1920 
C 1082 1984 858 2112 858 2432 
C 858 2746 1082 2944 1504 2944 
C 1926 2944 2208 2746 2355 2541 
L 2694 2848 
C 2426 3181 2074 3379 1542 3379 
C 870 3379 365 3059 365 2406 
C 365 1792 819 1542 1427 1453 
L 1690 1414 
C 2125 1350 2266 1152 2266 896 
C 2266 557 2010 358 1574 358 
C 1158 358 851 544 595 864 
L 230 570 
C 525 179 928 -77 1536 -77 
z
" transform="scale(0.015625)"/>
       <path id="IBMPlexSans-6f" d="M 1792 -77 
C 2675 -77 3283 602 3283 1651 
C 3283 2701 2675 3379 1792 3379 
C 909 3379 301 2701 301 1651 
C 301 602 909 -77 1792 -77 
z
M 1792 378 
C 1242 378 851 717 851 1414 
L 851 1888 
C 851 2586 1242 2925 1792 2925 
C 2342 2925 2733 2586 2733 1888 
L 2733 1414 
C 2733 717 2342 378 1792 378 
z
" transform="scale(0.015625)"/>
       <path id="IBMPlexSans-66" d="M 723 0 
L 1235 0 
L 1235 2854 
L 1946 2854 
L 1946 3302 
L 1235 3302 
L 1235 4288 
L 1946 4288 
L 1946 4736 
L 1446 4736 
C 960 4736 723 4422 723 3968 
L 723 3302 
L 186 3302 
L 186 2854 
L 723 2854 
L 723 0 
z
" transform="scale(0.015625)"/>
       <path id="IBMPlexSans-64" d="M 2656 0 
L 3168 0 
L 3168 4736 
L 2656 4736 
L 2656 2765 
L 2630 2765 
C 2458 3181 2118 3379 1664 3379 
C 838 3379 320 2707 320 1651 
C 320 595 838 -77 1664 -77 
C 2118 -77 2432 128 2630 538 
L 2656 538 
L 2656 0 
z
M 1805 384 
C 1229 384 870 781 870 1370 
L 870 1933 
C 870 2522 1229 2918 1805 2918 
C 2272 2918 2656 2650 2656 2285 
L 2656 1056 
C 2656 627 2272 384 1805 384 
z
" transform="scale(0.015625)"/>
       <path id="IBMPlexSans-6d" d="M 1056 0 
L 1056 2291 
C 1056 2714 1440 2918 1843 2918 
C 2330 2918 2554 2618 2554 2029 
L 2554 0 
L 3066 0 
L 3066 2291 
C 3066 2714 3437 2918 3840 2918 
C 4339 2918 4563 2611 4563 2029 
L 4563 0 
L 5075 0 
L 5075 2118 
C 5075 2918 4672 3379 4000 3379 
C 3437 3379 3117 3066 2995 2707 
L 2982 2707 
C 2803 3181 2406 3379 1971 3379 
C 1459 3379 1229 3104 1082 2765 
L 1056 2765 
L 1056 3302 
L 544 3302 
L 544 0 
L 1056 0 
z
" transform="scale(0.015625)"/>
      </defs>
      <use xlink:href="#IBMPlexSans-52"/>
      <use xlink:href="#IBMPlexSans-65" transform="translate(63.999985 0)"/>
      <use xlink:href="#IBMPlexSans-6c" transform="translate(118.899979 0)"/>
      <use xlink:href="#IBMPlexSans-61" transform="translate(146.099976 0)"/>
      <use xlink:href="#IBMPlexSans-74" transform="translate(199.499969 0)"/>
      <use xlink:href="#IBMPlexSans-69" transform="translate(234.59996 0)"/>
      <use xlink:href="#IBMPlexSans-76" transform="translate(259.599945 0)"/>
      <use xlink:href="#IBMPlexSans-65" transform="translate(308.799942 0)"/>
      <use xlink:href="#IBMPlexSans-20" transform="translate(363.699936 0)"/>
      <use xlink:href="#IBMPlexSans-44" transform="translate(387.299927 0)"/>
      <use xlink:href="#IBMPlexSans-65" transform="translate(454.399918 0)"/>
      <use xlink:href="#IBMPlexSans-67" transform="translate(509.299911 0)"/>
      <use xlink:href="#IBMPlexSans-72" transform="translate(562.099899 0)"/>
      <use xlink:href="#IBMPlexSans-65" transform="translate(598.799896 0)"/>
      <use xlink:href="#IBMPlexSans-65" transform="translate(653.69989 0)"/>
      <use xlink:href="#IBMPlexSans-73" transform="translate(708.599884 0)"/>
      <use xlink:href="#IBMPlexSans-20" transform="translate(757.299881 0)"/>
      <use xlink:href="#IBMPlexSans-6f" transform="translate(780.899872 0)"/>
      <use xlink:href="#IBMPlexSans-66" transform="translate(836.899857 0)"/>
      <use xlink:href="#IBMPlexSans-20" transform="translate(869.29985 0)"/>
      <use xlink:href="#IBMPlexSans-46" transform="translate(892.899841 0)"/>
      <use xlink:href="#IBMPlexSans-72" transform="translate(948.799835 0)"/>
      <use xlink:href="#IBMPlexSans-65" transform="translate(985.499832 0)"/>
      <use xlink:href="#IBMPlexSans-65" transform="translate(1040.399826 0)"/>
      <use xlink:href="#IBMPlexSans-64" transform="translate(1095.29982 0)"/>
      <use xlink:href="#IBMPlexSans-6f" transform="translate(1153.299805 0)"/>
      <use xlink:href="#IBMPlexSans-6d" transform="translate(1209.299789 0)"/>
     </g>
    </g>
   </g>
   <g id="line2d_21">
    <path d="M 70.914822 234.261589 
L 71.36316 249.642608 
L 71.811499 237.392801 
L 72.259838 232.402485 
L 72.708176 219.81017 
L 73.156515 249.873812 
L 73.604853 243.57001 
L 74.053192 251.666012 
L 75.398207 218.02443 
L 75.846546 240.502178 
L 76.294884 214.880224 
L 76.743223 232.225034 
L 77.191561 228.522155 
L 77.6399 235.893702 
L 78.088238 219.815545 
L 78.536577 198.025374 
L 78.984915 241.243421 
L 79.433254 197.959257 
L 79.881592 206.28338 
L 80.329931 234.269433 
L 80.77827 203.172461 
L 81.226608 211.841166 
L 81.674947 230.644902 
L 82.123285 221.830483 
L 82.571624 219.088727 
L 83.019962 234.497273 
L 83.468301 199.018007 
L 83.916639 199.434062 
L 84.364978 199.674642 
L 84.813316 240.713753 
L 86.158332 220.559038 
L 86.60667 196.373858 
L 87.055009 223.978362 
L 87.503347 172.65368 
L 87.951686 207.315456 
L 88.400024 210.934684 
L 88.848363 241.04324 
L 89.296702 230.633463 
L 89.74504 230.02164 
L 90.193379 227.300134 
L 90.641717 223.83837 
L 91.090056 262.181982 
L 91.538394 239.374821 
L 91.986733 223.459414 
L 92.435071 213.45322 
L 92.88341 223.549748 
L 93.331748 220.575895 
L 93.780087 191.323205 
L 94.676764 238.709631 
L 95.125102 228.076273 
L 95.573441 243.407434 
L 96.021779 204.359539 
L 96.470118 222.906403 
L 96.918457 217.992262 
L 97.366795 192.461348 
L 97.815134 236.498346 
L 98.263472 200.607267 
L 98.711811 222.928128 
L 99.160149 237.123186 
L 99.608488 223.455178 
L 100.056826 158.17381 
L 100.505165 236.670412 
L 100.953503 224.470006 
L 101.401842 241.73149 
L 101.85018 263.46636 
L 102.298519 210.524684 
L 103.195196 252.055241 
L 103.643534 203.612638 
L 104.091873 245.66546 
L 104.540211 243.381831 
L 104.98855 212.306521 
L 105.436889 241.549026 
L 105.885227 174.25966 
L 106.333566 226.45956 
L 106.781904 246.127365 
L 107.230243 206.787724 
L 107.678581 234.388595 
L 108.12692 206.941122 
L 108.575258 187.684732 
L 109.023597 193.617114 
L 109.471935 225.180284 
L 109.920274 221.333221 
L 110.368612 190.842578 
L 110.816951 235.273806 
L 111.265289 236.698672 
L 111.713628 217.013452 
L 112.161966 220.631348 
L 112.610305 222.228953 
L 113.058643 214.37463 
L 113.506982 231.447017 
L 113.955321 203.308451 
L 114.403659 212.039033 
L 114.851998 241.17296 
L 115.300336 222.974259 
L 115.748675 224.271683 
L 116.197013 226.956911 
L 116.645352 204.488715 
L 117.09369 190.985891 
L 117.542029 200.077531 
L 117.990367 201.460924 
L 118.438706 194.150964 
L 118.887044 175.086586 
L 119.335383 180.438655 
L 119.783721 216.640702 
L 120.23206 195.337752 
L 120.680398 243.364224 
L 121.128737 217.504606 
L 121.577076 202.66899 
L 122.025414 192.36449 
L 122.473753 229.691815 
L 122.922091 206.692452 
L 123.37043 219.65225 
L 123.818768 200.683056 
L 124.267107 198.788494 
L 124.715445 200.404713 
L 125.163784 104.676844 
L 125.612122 133.254703 
L 126.060461 149.245427 
L 126.508799 172.643224 
L 126.957138 208.03749 
L 127.405476 138.512384 
L 127.853815 213.953882 
L 128.302153 203.612734 
L 128.750492 171.981134 
L 129.19883 172.188461 
L 129.647169 176.637414 
L 130.095508 232.0592 
L 130.543846 205.457201 
L 130.992185 206.595876 
L 131.440523 209.532511 
L 131.888862 223.579353 
L 132.3372 201.50486 
L 132.785539 227.487462 
L 133.233877 219.233703 
L 133.682216 228.726634 
L 134.130554 196.477486 
L 135.027231 221.666705 
L 135.47557 239.783006 
L 135.923908 229.379457 
L 136.820585 220.378403 
L 137.268924 234.691931 
L 137.717262 224.197936 
L 138.165601 199.472529 
L 138.61394 208.979053 
L 139.062278 203.04918 
L 139.510617 219.221647 
L 140.407294 192.050265 
L 140.855632 199.489844 
L 141.303971 229.287629 
L 141.752309 205.153089 
L 142.200648 225.361922 
L 142.648986 218.566911 
L 143.545663 168.69389 
L 143.994002 225.193721 
L 144.44234 223.085738 
L 145.787356 185.827043 
L 146.684033 205.525158 
L 147.132372 237.975385 
L 147.58071 224.845159 
L 148.029049 234.871466 
L 148.925726 220.843716 
L 149.374064 225.71204 
L 149.822403 197.403657 
L 150.270741 185.610895 
L 150.71908 192.512402 
L 151.615757 232.239914 
L 152.064095 219.215457 
L 152.512434 212.582462 
L 152.960772 198.620577 
L 153.409111 193.330622 
L 153.857449 192.76042 
L 154.305788 177.569145 
L 154.754127 204.379612 
L 155.202465 202.8017 
L 155.650804 179.658078 
L 156.099142 199.856932 
L 156.547481 191.900823 
L 156.995819 216.827265 
L 157.892496 196.441793 
L 158.340835 159.491117 
L 158.789173 254.040141 
L 159.237512 217.061376 
L 160.134189 186.269729 
L 160.582527 212.331609 
L 161.030866 194.308717 
L 161.927543 222.93215 
L 162.375881 212.488348 
L 162.82422 191.017632 
L 163.272559 219.015516 
L 163.720897 176.547066 
L 164.169236 217.488993 
L 164.617574 166.843245 
L 165.065913 187.95914 
L 165.514251 192.519642 
L 165.96259 214.907285 
L 166.410928 205.412985 
L 166.859267 177.954721 
L 167.307605 185.808486 
L 167.755944 197.394534 
L 168.204282 230.996804 
L 168.652621 179.467566 
L 169.100959 201.839984 
L 169.549298 189.763789 
L 169.997636 190.935233 
L 170.445975 174.284519 
L 170.894313 190.60564 
L 171.342652 191.953197 
L 171.790991 196.971048 
L 172.239329 229.635616 
L 172.687668 201.375461 
L 173.136006 222.587853 
L 173.584345 211.995772 
L 174.032683 196.201482 
L 174.481022 190.260381 
L 174.92936 221.059822 
L 175.826037 191.594891 
L 176.274376 190.278573 
L 176.722714 192.748219 
L 177.171053 204.318984 
L 177.619391 203.966812 
L 178.06773 196.950703 
L 178.964407 219.502831 
L 179.412746 183.131363 
L 179.861084 219.847049 
L 180.309423 200.424646 
L 180.757761 217.91235 
L 181.2061 213.255672 
L 181.654438 190.863184 
L 182.102777 215.7612 
L 182.551115 222.462119 
L 182.999454 162.638629 
L 183.447792 170.893267 
L 183.896131 200.823398 
L 184.344469 188.979091 
L 185.241146 150.195674 
L 185.689485 204.932183 
L 186.137823 184.765876 
L 186.586162 211.173605 
L 187.0345 165.683056 
L 187.482839 146.375244 
L 187.931178 197.234395 
L 188.379516 178.843688 
L 188.827855 202.181137 
L 189.276193 212.756679 
L 189.724532 208.891053 
L 190.621209 172.443208 
L 191.069547 192.474223 
L 191.517886 188.899739 
L 191.966224 209.835189 
L 192.414563 215.201971 
L 192.862901 243.834616 
L 193.31124 152.347867 
L 193.759578 195.477349 
L 194.207917 219.207313 
L 194.656255 183.751312 
L 195.104594 208.159294 
L 195.552932 169.161983 
L 196.001271 213.323885 
L 196.44961 220.41694 
L 196.897948 156.844611 
L 197.346287 147.985063 
L 197.794625 192.47099 
L 198.242964 209.745318 
L 198.691302 200.704307 
L 199.139641 204.269918 
L 199.587979 172.38642 
L 200.036318 171.01076 
L 200.484656 179.324894 
L 200.932995 153.789517 
L 202.726349 202.884268 
L 203.174687 186.652198 
L 203.623026 202.609469 
L 204.071364 186.024523 
L 204.519703 210.414067 
L 204.968042 182.837512 
L 205.41638 214.213551 
L 205.864719 163.156367 
L 206.313057 169.669304 
L 206.761396 161.524707 
L 207.209734 167.835729 
L 207.658073 205.355488 
L 208.106411 166.570124 
L 208.55475 174.811171 
L 209.003088 185.982391 
L 209.451427 170.499224 
L 210.348104 164.516155 
L 210.796442 173.509089 
L 211.244781 186.071507 
L 211.693119 208.864795 
L 212.141458 177.532176 
L 212.589797 163.383934 
L 213.038135 203.360919 
L 213.486474 203.466617 
L 213.934812 171.730693 
L 214.383151 209.161478 
L 214.831489 193.558701 
L 215.279828 148.04794 
L 215.728166 186.765684 
L 216.176505 127.797488 
L 216.624843 192.564139 
L 217.073182 190.345581 
L 217.52152 183.691383 
L 217.969859 193.300984 
L 218.418197 145.708141 
L 219.314874 199.992363 
L 219.763213 204.50417 
L 220.211551 161.384041 
L 220.65989 149.17284 
L 221.108229 166.684472 
L 221.556567 103.459894 
L 222.004906 160.322353 
L 222.453244 161.261606 
L 222.901583 170.116397 
L 223.349921 181.235961 
L 223.79826 177.807142 
L 224.246598 155.51506 
L 224.694937 202.773893 
L 225.143275 151.248581 
L 225.591614 153.424666 
L 226.039952 113.251362 
L 226.488291 175.99249 
L 226.936629 177.202934 
L 227.384968 162.990252 
L 227.833306 231.72101 
L 228.281645 179.283086 
L 228.729983 173.510728 
L 229.178322 188.159445 
L 229.626661 149.474705 
L 230.074999 177.145738 
L 230.523338 177.998872 
L 230.971676 227.611649 
L 231.420015 173.792824 
L 231.868353 168.739733 
L 232.316692 215.950004 
L 233.213369 195.612164 
L 233.661707 178.038377 
L 234.110046 193.875464 
L 234.558384 170.327012 
L 235.006723 198.307156 
L 235.455061 176.56624 
L 235.9034 160.237171 
L 236.351738 154.957736 
L 236.800077 161.870076 
L 237.248416 161.43062 
L 237.696754 202.778777 
L 238.145093 215.688483 
L 238.593431 183.644419 
L 239.04177 193.94843 
L 239.490108 195.175866 
L 239.938447 245.481795 
L 240.386785 160.871294 
L 240.835124 202.045062 
L 241.283462 206.246873 
L 241.731801 197.241258 
L 242.180139 164.692872 
L 242.628478 187.12629 
L 243.076816 159.136658 
L 243.525155 167.872505 
L 243.973493 159.771043 
L 244.421832 154.284361 
L 244.87017 181.26886 
L 245.318509 184.616971 
L 245.766848 172.51966 
L 246.215186 167.50217 
L 246.663525 179.984914 
L 247.111863 155.454224 
L 247.560202 182.686425 
L 248.456879 146.948275 
L 248.905217 194.612221 
L 249.353556 155.35251 
L 249.801894 144.072174 
L 250.250233 182.949497 
L 250.698571 209.973711 
L 251.595248 166.761745 
L 252.043587 148.018407 
L 252.491925 222.095311 
L 252.940264 197.400521 
L 253.388602 203.783065 
L 253.836941 151.706051 
L 254.28528 157.201172 
L 254.733618 177.421432 
L 255.181957 191.674403 
L 255.630295 164.365449 
L 256.078634 170.12794 
L 256.526972 200.841499 
L 256.975311 140.311129 
L 257.423649 209.972985 
L 257.871988 127.429718 
L 258.320326 187.347166 
L 258.768665 174.711747 
L 259.217003 181.438587 
L 259.665342 162.827533 
L 260.11368 161.573819 
L 260.562019 140.841191 
L 261.458696 203.345656 
L 261.907035 201.496019 
L 262.355373 189.415431 
L 262.803712 210.39947 
L 263.25205 174.076411 
L 263.700389 193.856778 
L 264.148727 134.135268 
L 264.597066 181.53379 
L 265.045404 197.412871 
L 265.493743 176.16532 
L 265.942081 174.588524 
L 266.39042 178.123148 
L 266.838758 160.257396 
L 267.287097 171.362038 
L 267.735435 197.526679 
L 268.183774 127.598004 
L 268.632112 169.991094 
L 269.080451 167.442382 
L 269.528789 168.448235 
L 269.977128 149.981561 
L 270.425467 210.07662 
L 270.873805 186.105377 
L 271.322144 175.056624 
L 271.770482 198.767935 
L 272.218821 180.036436 
L 272.667159 178.64052 
L 273.115498 197.547099 
L 273.563836 159.755649 
L 274.012175 172.216806 
L 274.460513 146.982729 
L 274.908852 209.162972 
L 275.35719 166.203429 
L 276.253867 190.207234 
L 276.702206 197.240738 
L 277.150544 163.328516 
L 277.598883 154.444937 
L 278.047221 156.197607 
L 278.49556 163.988313 
L 278.943899 181.109337 
L 279.392237 150.248142 
L 279.840576 217.139271 
L 280.288914 173.025351 
L 280.737253 174.064847 
L 281.185591 181.98929 
L 281.63393 154.820842 
L 282.082268 179.902564 
L 282.530607 180.375516 
L 282.978945 188.84912 
L 283.427284 115.799524 
L 283.875622 150.604784 
L 284.323961 157.276382 
L 284.772299 189.510337 
L 285.220638 138.368901 
L 285.668976 207.174245 
L 286.117315 176.574422 
L 286.565653 165.030675 
L 287.013992 143.613449 
L 287.462331 159.039612 
L 287.910669 184.064923 
L 288.359008 154.486054 
L 288.807346 117.005172 
L 289.255685 113.92236 
L 289.704023 178.255426 
L 290.152362 165.369366 
L 290.6007 128.385707 
L 291.049039 149.65593 
L 291.497377 125.089602 
L 291.945716 163.798244 
L 292.394054 145.864564 
L 292.842393 145.942026 
L 293.290731 206.980805 
L 293.73907 155.533561 
L 294.187408 155.656417 
L 294.635747 182.427472 
L 295.084086 183.956078 
L 295.532424 186.130006 
L 295.980763 130.054811 
L 296.429101 161.013533 
L 296.87744 159.962163 
L 297.325778 205.855251 
L 297.774117 171.59485 
L 298.222455 168.331874 
L 298.670794 159.653673 
L 299.119132 153.317556 
L 299.567471 129.174995 
L 300.015809 162.966926 
L 300.464148 126.281017 
L 300.912486 155.379551 
L 301.360825 138.837448 
L 301.809163 200.9798 
L 302.257502 168.112133 
L 302.70584 168.541457 
L 303.154179 148.096943 
L 303.602518 180.05065 
L 304.050856 144.0757 
L 304.499195 126.705378 
L 304.947533 159.510623 
L 305.395872 172.160911 
L 305.84421 147.835244 
L 306.292549 175.314518 
L 306.740887 129.084376 
L 307.189226 199.256847 
L 307.637564 134.56398 
L 308.085903 165.028448 
L 308.534241 142.633812 
L 308.98258 181.561365 
L 309.430918 184.765044 
L 309.879257 160.059364 
L 310.327595 180.969472 
L 310.775934 192.251474 
L 311.224272 137.026407 
L 311.672611 136.899142 
L 312.12095 167.70393 
L 312.569288 158.638946 
L 313.017627 155.037287 
L 313.914304 171.530671 
L 314.362642 150.584168 
L 314.810981 124.036954 
L 315.259319 156.386175 
L 315.707658 119.58379 
L 316.155996 193.0262 
L 316.604335 185.388096 
L 317.052673 142.101842 
L 317.501012 82.971375 
L 317.94935 146.719005 
L 318.397689 139.947901 
L 318.846027 179.113926 
L 319.294366 181.020393 
L 319.742705 193.818715 
L 320.191043 170.284934 
L 320.639382 199.331103 
L 321.08772 146.644068 
L 321.536059 163.292507 
L 321.984397 145.525338 
L 322.432736 178.241225 
L 322.881074 117.907036 
L 323.329413 168.498363 
L 323.777751 116.261797 
L 324.22609 114.859333 
L 324.674428 188.354571 
L 325.122767 168.235841 
L 325.571105 125.168371 
L 326.019444 172.684368 
L 326.467782 152.250631 
L 326.916121 103.439946 
L 327.364459 152.756508 
L 327.812798 147.305785 
L 328.261137 176.457664 
L 328.709475 153.883667 
L 329.157814 114.758242 
L 329.606152 161.322632 
L 330.054491 147.322827 
L 330.502829 192.575606 
L 330.951168 159.132166 
L 331.399506 186.212743 
L 331.847845 111.702201 
L 332.296183 143.873998 
L 333.19286 181.019134 
L 333.641199 165.29369 
L 334.089537 173.400988 
L 334.537876 114.414442 
L 334.986214 142.901145 
L 335.434553 97.619278 
L 335.882891 177.094784 
L 336.33123 173.590926 
L 336.779569 151.105409 
L 337.227907 181.154463 
L 337.676246 158.019742 
L 338.124584 147.533001 
L 338.572923 167.226425 
L 339.021261 157.623791 
L 339.4696 189.712336 
L 339.917938 204.699368 
L 340.366277 156.786645 
L 340.814615 170.460226 
L 341.262954 150.545697 
L 341.711292 184.079392 
L 342.159631 177.792624 
L 342.607969 158.175007 
L 343.056308 106.259149 
L 343.504646 164.077752 
L 343.952985 117.145911 
L 344.401324 167.07612 
L 344.849662 173.265373 
L 345.298001 174.696216 
L 345.746339 135.299223 
L 346.194678 135.533019 
L 346.643016 181.572954 
L 347.091355 170.096437 
L 347.539693 136.669023 
L 347.988032 125.245539 
L 348.43637 196.365997 
L 348.884709 129.668164 
L 349.333047 189.41457 
L 349.781386 159.067953 
L 350.229724 180.235238 
L 350.678063 149.546086 
L 351.126401 94.123705 
L 351.57474 149.696018 
L 352.023078 184.515998 
L 352.471417 99.084087 
L 352.919756 151.860837 
L 353.368094 167.884924 
L 353.816433 115.651278 
L 354.264771 176.958484 
L 354.71311 175.199315 
L 355.161448 133.940909 
L 355.609787 163.884488 
L 356.058125 166.907012 
L 356.506464 132.264768 
L 356.954802 147.96689 
L 357.403141 187.892255 
L 357.851479 111.116601 
L 358.299818 163.923186 
L 358.748156 132.604763 
L 359.196495 120.008831 
L 359.644833 161.068326 
L 360.093172 157.384135 
L 360.54151 167.388121 
L 360.989849 160.767207 
L 361.438188 109.922175 
L 361.886526 151.345177 
L 362.334865 143.547575 
L 362.783203 177.729353 
L 363.231542 143.919168 
L 363.67988 123.38986 
L 364.128219 149.161787 
L 364.576557 151.535463 
L 365.024896 163.115094 
L 365.473234 161.576247 
L 365.921573 143.56184 
L 366.81825 193.397598 
L 367.714927 128.416038 
L 368.163265 146.042304 
L 368.611604 176.789923 
L 369.059942 169.938826 
L 369.508281 143.583703 
L 369.95662 157.532882 
L 370.853297 133.808105 
L 371.301635 91.34259 
L 371.749974 183.614691 
L 372.198312 176.11185 
L 372.646651 122.466983 
L 373.094989 152.045605 
L 373.543328 195.937633 
L 373.991666 78.6555 
L 374.440005 133.889093 
L 374.888343 147.792209 
L 375.336682 149.478928 
L 375.78502 126.202851 
L 376.233359 173.386516 
L 376.681697 112.739226 
L 377.130036 133.451787 
L 378.026713 163.371434 
L 378.475052 102.440457 
L 378.92339 161.751547 
L 379.371729 171.728958 
L 379.820067 112.122427 
L 380.268406 145.625651 
L 380.716744 127.879351 
L 381.165083 115.491208 
L 381.613421 163.106137 
L 382.06176 158.557759 
L 382.510098 112.565714 
L 382.958437 118.443518 
L 383.406775 103.154357 
L 383.855114 193.26999 
L 384.303452 171.602774 
L 384.751791 97.981115 
L 385.200129 139.008631 
L 385.648468 163.001166 
L 386.096807 117.381663 
L 386.545145 153.726109 
L 386.993484 159.942863 
L 387.441822 149.946302 
L 387.890161 113.408051 
L 388.786838 169.788442 
L 389.235176 105.628224 
L 389.683515 142.498323 
L 390.131853 151.065636 
L 390.580192 143.527738 
L 391.02853 148.665543 
L 391.476869 167.311148 
L 391.925207 172.550487 
L 392.373546 160.431457 
L 392.821884 156.668648 
L 393.270223 143.423793 
L 393.718561 120.190708 
L 394.1669 160.870375 
L 394.615239 148.324974 
L 395.063577 130.400057 
L 395.511916 86.787796 
L 395.960254 173.1022 
L 396.408593 187.638515 
L 396.856931 93.634806 
L 397.30527 159.70587 
L 397.753608 190.687313 
L 398.201947 127.848892 
L 398.650285 133.194119 
L 399.098624 132.421688 
L 399.546962 186.647793 
L 399.995301 130.468404 
L 400.443639 92.865481 
L 400.891978 105.849653 
L 401.340316 166.275565 
L 401.788655 140.93486 
L 402.236994 150.829089 
L 402.685332 137.040853 
L 403.133671 136.367028 
L 403.582009 160.702243 
L 404.030348 155.393737 
L 404.478686 159.304036 
L 404.927025 149.283161 
L 405.375363 153.847444 
L 405.823702 91.188391 
L 406.27204 163.699425 
L 406.720379 96.976432 
L 407.617056 162.098576 
L 408.065394 158.874749 
L 408.513733 137.628249 
L 409.41041 157.745646 
L 409.858748 133.394385 
L 410.307087 129.798987 
L 410.755426 133.051694 
L 411.203764 191.698306 
L 411.652103 183.994716 
L 412.100441 150.649912 
L 412.54878 154.792261 
L 413.445457 132.785998 
L 413.893795 139.779212 
L 414.342134 127.605944 
L 415.238811 149.86746 
L 415.687149 94.418817 
L 416.135488 76.255245 
L 416.583826 153.162277 
L 417.032165 143.134242 
L 417.480503 147.523514 
L 417.928842 93.168072 
L 418.37718 164.3847 
L 419.273858 49.48536 
L 419.722196 155.430372 
L 420.170535 155.272786 
L 420.618873 107.725374 
L 421.067212 147.603524 
L 421.51555 121.989261 
L 421.963889 116.145409 
L 422.412227 129.049045 
L 422.860566 149.557533 
L 423.308904 159.321169 
L 423.757243 152.849519 
L 424.205581 129.309575 
L 424.65392 99.417979 
L 425.550597 188.837274 
L 425.998935 94.625936 
L 426.447274 169.39263 
L 426.895612 91.490977 
L 427.343951 171.259943 
L 427.79229 184.62392 
L 428.240628 50.988606 
L 428.688967 134.060133 
L 429.137305 123.12447 
L 429.585644 123.994337 
L 430.033982 79.216127 
L 430.482321 157.897468 
L 430.930659 146.663988 
L 431.378998 131.467665 
L 431.827336 122.587557 
L 432.275675 138.273177 
L 432.724013 109.269201 
L 433.62069 177.661503 
L 434.069029 143.321613 
L 434.517367 95.910226 
L 434.965706 149.450689 
L 435.414045 185.906814 
L 435.862383 130.330105 
L 436.310722 178.033237 
L 437.207399 152.586974 
L 437.655737 120.182127 
L 438.104076 134.458564 
L 438.552414 155.957318 
L 439.000753 126.487665 
L 439.449091 142.178091 
L 439.89743 179.225314 
L 440.345768 147.013605 
L 440.794107 172.252392 
L 441.242445 157.642883 
L 441.690784 159.619223 
L 442.139122 188.278026 
L 442.587461 130.11695 
L 443.035799 142.391528 
L 443.484138 142.869481 
L 443.932477 166.477566 
L 444.380815 146.953765 
L 444.829154 122.467014 
L 445.277492 161.79756 
L 445.725831 136.674544 
L 446.174169 147.370934 
L 446.622508 143.921616 
L 447.070846 112.005036 
L 447.519185 107.56792 
L 447.967523 179.93464 
L 448.415862 150.876113 
L 448.8642 129.165305 
L 449.312539 154.327367 
L 449.760877 164.96462 
L 450.209216 118.02573 
L 450.657554 118.096954 
L 451.105893 175.328411 
L 451.554231 130.129286 
L 452.00257 154.084125 
L 452.899247 135.657617 
L 453.347586 163.996316 
L 453.795924 172.386373 
L 454.692601 181.505616 
L 455.14094 33.80316 
L 455.589278 122.198424 
L 456.485955 172.962897 
L 456.934294 136.408311 
L 457.382632 148.378086 
L 457.830971 174.236596 
L 458.279309 162.566466 
L 458.727648 155.864162 
L 459.175986 139.51831 
L 459.624325 88.055946 
L 460.072664 143.219373 
L 460.521002 171.71589 
L 460.969341 141.945669 
L 461.417679 180.583127 
L 461.866018 171.449082 
L 462.314356 110.026676 
L 462.762695 149.624331 
L 463.211033 141.749361 
L 463.659372 119.118797 
L 464.10771 176.998555 
L 464.556049 163.902755 
L 465.004387 154.693748 
L 465.452726 136.743414 
L 465.901064 142.724788 
L 466.349403 181.267459 
L 466.797741 180.802193 
L 467.24608 153.57083 
L 467.694418 117.195971 
L 468.142757 125.169845 
L 468.591096 140.512199 
L 469.039434 107.011453 
L 469.487773 129.342242 
L 469.936111 136.255344 
L 470.38445 148.043452 
L 470.832788 124.24923 
L 471.281127 172.939196 
L 471.729465 154.631429 
L 472.626142 159.336803 
L 473.074481 92.789358 
L 473.522819 125.673411 
L 473.971158 186.838595 
L 474.419496 162.671102 
L 474.867835 166.935875 
L 475.316173 132.25466 
L 475.764512 111.382764 
L 476.21285 122.298812 
L 476.661189 117.399246 
L 477.109528 100.299638 
L 477.557866 131.521217 
L 478.006205 175.765582 
L 478.454543 88.101841 
L 478.902882 138.522446 
L 479.35122 124.937219 
L 479.799559 122.889426 
L 480.247897 116.601069 
L 480.696236 125.691566 
L 481.144574 129.419107 
L 481.592913 73.837239 
L 482.041251 198.310388 
L 482.937928 104.57906 
L 483.386267 138.815056 
L 483.834605 117.030846 
L 484.282944 158.314443 
L 484.731283 156.367824 
L 485.179621 111.323039 
L 485.62796 163.751659 
L 486.076298 110.20452 
L 486.524637 120.09675 
L 486.972975 150.773223 
L 487.421314 97.021902 
L 487.869652 142.332322 
L 488.317991 154.66434 
L 488.766329 89.584261 
L 489.214668 173.929551 
L 489.663006 116.060863 
L 490.111345 180.916564 
L 490.559683 76.350035 
L 491.008022 165.964041 
L 491.45636 73.17318 
L 491.904699 68.329038 
L 492.353037 200.696778 
L 493.249715 91.292903 
L 493.698053 106.17757 
L 494.146392 145.982244 
L 494.59473 63.293429 
L 495.043069 135.640046 
L 495.491407 162.531053 
L 495.939746 115.343789 
L 496.388084 164.572162 
L 496.836423 139.166535 
L 497.284761 99.851915 
L 497.7331 106.671182 
L 498.181438 102.864431 
L 498.629777 158.14609 
L 499.078115 58.718783 
L 499.526454 136.702856 
L 499.974792 147.469803 
L 500.423131 139.065675 
L 500.871469 122.329174 
L 501.319808 85.068025 
L 501.768147 80.540546 
L 502.216485 86.18555 
L 502.664824 108.517332 
L 503.113162 167.492083 
L 503.561501 153.223374 
L 504.009839 71.817526 
L 504.458178 141.007962 
L 504.906516 104.406532 
L 505.803193 146.124752 
L 506.251532 104.759977 
L 506.69987 178.224723 
L 507.148209 168.402798 
L 507.596547 153.375648 
L 508.044886 145.404917 
L 508.493224 177.294413 
L 508.941563 136.85728 
L 509.389901 119.93975 
L 509.83824 126.795825 
L 510.286579 176.500596 
L 510.734917 147.504997 
L 511.183256 166.740847 
L 511.631594 174.396742 
L 512.079933 137.944196 
L 512.528271 184.628823 
L 512.97661 110.982591 
L 513.424948 155.873672 
L 513.873287 183.219473 
L 514.321625 136.088209 
L 514.769964 116.349051 
L 515.218302 138.548291 
L 515.666641 119.224607 
L 516.114979 159.00028 
L 516.563318 87.02139 
L 517.011656 126.361283 
L 517.459995 90.663066 
L 517.908334 103.895982 
L 518.356672 194.637826 
L 518.805011 110.535834 
L 518.805011 110.535834 
" clip-path="url(#p51527d7d3c)" style="fill: none; stroke: #1f77b4; stroke-width: 1.5; stroke-linecap: square"/>
   </g>
   <g id="line2d_22">
    <path d="M 70.914822 227.244942 
L 78.088238 227.115314 
L 85.261655 226.757024 
L 92.435071 226.175051 
L 99.608488 225.377331 
L 107.230243 224.305235 
L 115.300336 222.93487 
L 123.818768 221.248851 
L 132.785539 219.237696 
L 142.648986 216.784406 
L 153.409111 213.87094 
L 165.96259 210.23176 
L 181.654438 205.437919 
L 210.348104 196.383972 
L 236.351738 188.282068 
L 255.181957 182.650818 
L 272.218821 177.788753 
L 288.359008 173.412163 
L 304.050856 169.382435 
L 319.742705 165.578046 
L 335.882891 161.897929 
L 352.023078 158.447987 
L 368.611604 155.13281 
L 385.648468 151.959485 
L 403.133671 148.932518 
L 421.067212 146.054164 
L 439.89743 143.260829 
L 459.175986 140.62515 
L 479.35122 138.089553 
L 500.871469 135.613597 
L 518.805011 133.714641 
L 518.805011 133.714641 
" clip-path="url(#p51527d7d3c)" style="fill: none; stroke-dasharray: 5.55,2.4; stroke-dashoffset: 0; stroke: #ff0000; stroke-width: 1.5"/>
   </g>
   <g id="patch_3">
    <path d="M 48.520313 274.94952 
L 48.520313 22.32 
" style="fill: none; stroke: #000000; stroke-width: 0.8; stroke-linejoin: miter; stroke-linecap: square"/>
   </g>
   <g id="patch_4">
    <path d="M 48.520313 274.94952 
L 541.19952 274.94952 
" style="fill: none; stroke: #000000; stroke-width: 0.8; stroke-linejoin: miter; stroke-linecap: square"/>
   </g>
   <g id="text_11">
    <!-- Degrees of freedom: All Atoms (4000 H$_2$O, ndof = 24000) -->
    <g transform="translate(140.179916 16.32) scale(0.12 -0.12)">
     <defs>
      <path id="IBMPlexSans-3a" d="M 934 -77 
C 1203 -77 1325 77 1325 294 
L 1325 378 
C 1325 595 1203 749 934 749 
C 666 749 544 595 544 378 
L 544 294 
C 544 77 666 -77 934 -77 
z
M 934 2554 
C 1203 2554 1325 2707 1325 2925 
L 1325 3008 
C 1325 3226 1203 3379 934 3379 
C 666 3379 544 3226 544 3008 
L 544 2925 
C 544 2707 666 2554 934 2554 
z
" transform="scale(0.015625)"/>
      <path id="IBMPlexSans-41" d="M 3955 0 
L 2394 4467 
L 1709 4467 
L 147 0 
L 691 0 
L 1139 1318 
L 2944 1318 
L 3392 0 
L 3955 0 
z
M 2810 1792 
L 1267 1792 
L 2022 3968 
L 2054 3968 
L 2810 1792 
z
" transform="scale(0.015625)"/>
      <path id="IBMPlexSans-28" d="M 531 1997 
C 531 749 1056 -339 1690 -877 
L 2176 -877 
C 1485 -262 1011 819 1011 1715 
L 1011 2266 
C 1011 3162 1466 4224 2176 4864 
L 1690 4864 
C 1037 4307 531 3232 531 1997 
z
" transform="scale(0.015625)"/>
      <path id="DejaVuSans-32" d="M 1228 531 
L 3431 531 
L 3431 0 
L 469 0 
L 469 531 
Q 828 903 1448 1529 
Q 2069 2156 2228 2338 
Q 2531 2678 2651 2914 
Q 2772 3150 2772 3378 
Q 2772 3750 2511 3984 
Q 2250 4219 1831 4219 
Q 1534 4219 1204 4116 
Q 875 4013 500 3803 
L 500 4441 
Q 881 4594 1212 4672 
Q 1544 4750 1819 4750 
Q 2544 4750 2975 4387 
Q 3406 4025 3406 3419 
Q 3406 3131 3298 2873 
Q 3191 2616 2906 2266 
Q 2828 2175 2409 1742 
Q 1991 1309 1228 531 
z
" transform="scale(0.015625)"/>
      <path id="IBMPlexSans-4f" d="M 2266 -77 
C 3418 -77 4160 736 4160 2234 
C 4160 3731 3418 4544 2266 4544 
C 1114 4544 371 3731 371 2234 
C 371 736 1114 -77 2266 -77 
z
M 2266 403 
C 1491 403 947 979 947 1862 
L 947 2605 
C 947 3488 1491 4064 2266 4064 
C 3040 4064 3584 3488 3584 2605 
L 3584 1862 
C 3584 979 3040 403 2266 403 
z
" transform="scale(0.015625)"/>
      <path id="IBMPlexSans-2c" d="M 870 749 
C 602 749 480 595 480 371 
L 480 282 
C 480 109 557 -19 730 -58 
C 659 -358 506 -582 250 -851 
L 678 -851 
C 1043 -538 1261 -64 1261 282 
L 1261 371 
C 1261 595 1139 749 870 749 
z
" transform="scale(0.015625)"/>
      <path id="IBMPlexSans-3d" d="M 3411 2381 
L 3411 2816 
L 429 2816 
L 429 2381 
L 3411 2381 
z
M 3411 1101 
L 3411 1536 
L 429 1536 
L 429 1101 
L 3411 1101 
z
" transform="scale(0.015625)"/>
      <path id="IBMPlexSans-29" d="M 1613 1997 
C 1613 3232 1107 4307 454 4864 
L -32 4864 
C 678 4224 1133 3162 1133 2266 
L 1133 1715 
C 1133 819 659 -262 -32 -877 
L 454 -877 
C 1088 -339 1613 749 1613 1997 
z
" transform="scale(0.015625)"/>
     </defs>
     <use xlink:href="#IBMPlexSans-44"/>
     <use xlink:href="#IBMPlexSans-65" transform="translate(67.099991 0)"/>
     <use xlink:href="#IBMPlexSans-67" transform="translate(121.999985 0)"/>
     <use xlink:href="#IBMPlexSans-72" transform="translate(174.799973 0)"/>
     <use xlink:href="#IBMPlexSans-65" transform="translate(211.499969 0)"/>
     <use xlink:href="#IBMPlexSans-65" transform="translate(266.399963 0)"/>
     <use xlink:href="#IBMPlexSans-73" transform="translate(321.299957 0)"/>
     <use xlink:href="#IBMPlexSans-20" transform="translate(369.999954 0)"/>
     <use xlink:href="#IBMPlexSans-6f" transform="translate(393.599945 0)"/>
     <use xlink:href="#IBMPlexSans-66" transform="translate(449.59993 0)"/>
     <use xlink:href="#IBMPlexSans-20" transform="translate(481.999924 0)"/>
     <use xlink:href="#IBMPlexSans-66" transform="translate(505.599915 0)"/>
     <use xlink:href="#IBMPlexSans-72" transform="translate(537.999908 0)"/>
     <use xlink:href="#IBMPlexSans-65" transform="translate(574.699905 0)"/>
     <use xlink:href="#IBMPlexSans-65" transform="translate(629.599899 0)"/>
     <use xlink:href="#IBMPlexSans-64" transform="translate(684.499893 0)"/>
     <use xlink:href="#IBMPlexSans-6f" transform="translate(742.499878 0)"/>
     <use xlink:href="#IBMPlexSans-6d" transform="translate(798.499863 0)"/>
     <use xlink:href="#IBMPlexSans-3a" transform="translate(885.79985 0)"/>
     <use xlink:href="#IBMPlexSans-20" transform="translate(914.999847 0)"/>
     <use xlink:href="#IBMPlexSans-41" transform="translate(938.599838 0)"/>
     <use xlink:href="#IBMPlexSans-6c" transform="translate(1002.699829 0)"/>
     <use xlink:href="#IBMPlexSans-6c" transform="translate(1029.899826 0)"/>
     <use xlink:href="#IBMPlexSans-20" transform="translate(1057.099823 0)"/>
     <use xlink:href="#IBMPlexSans-41" transform="translate(1080.699814 0)"/>
     <use xlink:href="#IBMPlexSans-74" transform="translate(1144.799805 0)"/>
     <use xlink:href="#IBMPlexSans-6f" transform="translate(1179.899796 0)"/>
     <use xlink:href="#IBMPlexSans-6d" transform="translate(1235.89978 0)"/>
     <use xlink:href="#IBMPlexSans-73" transform="translate(1323.199768 0)"/>
     <use xlink:href="#IBMPlexSans-20" transform="translate(1371.899765 0)"/>
     <use xlink:href="#IBMPlexSans-28" transform="translate(1395.499756 0)"/>
     <use xlink:href="#IBMPlexSans-34" transform="translate(1428.999741 0)"/>
     <use xlink:href="#IBMPlexSans-30" transform="translate(1488.999725 0)"/>
     <use xlink:href="#IBMPlexSans-30" transform="translate(1548.99971 0)"/>
     <use xlink:href="#IBMPlexSans-30" transform="translate(1608.999695 0)"/>
     <use xlink:href="#IBMPlexSans-20" transform="translate(1668.99968 0)"/>
     <use xlink:href="#IBMPlexSans-48" transform="translate(1692.59967 0)"/>
     <use xlink:href="#DejaVuSans-32" transform="translate(1764.256683 -16.40625) scale(0.7)"/>
     <use xlink:href="#IBMPlexSans-4f" transform="translate(1811.527191 0)"/>
     <use xlink:href="#IBMPlexSans-2c" transform="translate(1882.327179 0)"/>
     <use xlink:href="#IBMPlexSans-20" transform="translate(1909.527176 0)"/>
     <use xlink:href="#IBMPlexSans-6e" transform="translate(1933.127167 0)"/>
     <use xlink:href="#IBMPlexSans-64" transform="translate(1989.927155 0)"/>
     <use xlink:href="#IBMPlexSans-6f" transform="translate(2047.927139 0)"/>
     <use xlink:href="#IBMPlexSans-66" transform="translate(2103.927124 0)"/>
     <use xlink:href="#IBMPlexSans-20" transform="translate(2136.327118 0)"/>
     <use xlink:href="#IBMPlexSans-3d" transform="translate(2159.927109 0)"/>
     <use xlink:href="#IBMPlexSans-20" transform="translate(2219.927094 0)"/>
     <use xlink:href="#IBMPlexSans-32" transform="translate(2243.527084 0)"/>
     <use xlink:href="#IBMPlexSans-34" transform="translate(2303.527069 0)"/>
     <use xlink:href="#IBMPlexSans-30" transform="translate(2363.527054 0)"/>
     <use xlink:href="#IBMPlexSans-30" transform="translate(2423.527039 0)"/>
     <use xlink:href="#IBMPlexSans-30" transform="translate(2483.527023 0)"/>
     <use xlink:href="#IBMPlexSans-29" transform="translate(2543.527008 0)"/>
    </g>
   </g>
  </g>
 </g>
 <defs>
  <clipPath id="p51527d7d3c">
   <rect x="48.520313" y="22.32" width="492.679207" height="252.62952"/>
  </clipPath>
 </defs>
</svg>