<?xml version="1.0" encoding="utf-8" standalone="no"?>
<!DOCTYPE svg PUBLIC "-//W3C//DTD SVG 1.1//EN"
  "http://www.w3.org/Graphics/SVG/1.1/DTD/svg11.dtd">
<svg xmlns:xlink="http://www.w3.org/1999/xlink" width="548.39952pt" height="312.14952pt" viewBox="0 0 548.39952 312.14952" xmlns="http://www.w3.org/2000/svg" version="1.1">
 <metadata>
  <rdf:RDF xmlns:dc="http://purl.org/dc/elements/1.1/" xmlns:cc="http://creativecommons.org/ns#" xmlns:rdf="http://www.w3.org/1999/02/22-rdf-syntax-ns#">
   <cc:Work>
    <dc:type rdf:resource="http://purl.org/dc/dcmitype/StillImage"/>
    <dc:date>2025-06-25T08:45:30.188957</dc:date>
    <dc:format>image/svg+xml</dc:format>
    <dc:creator>
     <cc:Agent>
      <dc:title>Matplotlib v3.10.1, https://matplotlib.org/</dc:title>
     </cc:Agent>
    </dc:creator>
   </cc:Work>
  </rdf:RDF>
 </metadata>
 <defs>
  <style type="text/css">*{stroke-linejoin: round; stroke-linecap: butt}</style>
 </defs>
 <g id="figure_1">
  <g id="patch_1">
   <path d="M 0 312.14952 
L 548.39952 312.14952 
L 548.39952 0 
L 0 0 
z
" style="fill: #ffffff"/>
  </g>
  <g id="axes_1">
   <g id="patch_2">
    <path d="M 45.8 274.94952 
L 541.19952 274.94952 
L 541.19952 22.32 
L 45.8 22.32 
z
" style="fill: #ffffff"/>
   </g>
   <g id="matplotlib.axis_1">
    <g id="xtick_1">
     <g id="line2d_1">
      <defs>
       <path id="m17ed0f2be9" d="M 0 0 
L 0 3.5 
" style="stroke: #000000; stroke-width: 0.8"/>
      </defs>
      <g>
       <use xlink:href="#m17ed0f2be9" x="68.31816" y="274.94952" style="stroke: #000000; stroke-width: 0.8"/>
      </g>
     </g>
     <g id="text_1">
      <!-- 0 -->
      <g transform="translate(65.31816 289.34952) scale(0.1 -0.1)">
       <defs>
        <path id="IBMPlexSans-30" d="M 1920 -77 
C 2989 -77 3456 774 3456 2234 
C 3456 3693 2989 4544 1920 4544 
C 851 4544 384 3693 384 2234 
C 384 774 851 -77 1920 -77 
z
M 1920 390 
C 1222 390 947 1005 947 1869 
L 947 2598 
C 947 3462 1222 4077 1920 4077 
C 2618 4077 2893 3462 2893 2598 
L 2893 1869 
C 2893 1005 2618 390 1920 390 
z
" transform="scale(0.015625)"/>
       </defs>
       <use xlink:href="#IBMPlexSans-30"/>
      </g>
     </g>
    </g>
    <g id="xtick_2">
     <g id="line2d_2">
      <g>
       <use xlink:href="#m17ed0f2be9" x="158.3908" y="274.94952" style="stroke: #000000; stroke-width: 0.8"/>
      </g>
     </g>
     <g id="text_2">
      <!-- 20 -->
      <g transform="translate(152.3908 289.34952) scale(0.1 -0.1)">
       <defs>
        <path id="IBMPlexSans-32" d="M 3411 474 
L 1062 474 
L 2266 1555 
C 2835 2067 3245 2554 3245 3245 
C 3245 4006 2746 4544 1875 4544 
C 1011 4544 614 4019 442 3494 
L 922 3309 
C 1043 3731 1299 4064 1850 4064 
C 2400 4064 2675 3725 2675 3232 
L 2675 3155 
C 2675 2726 2355 2278 1939 1894 
L 480 550 
L 480 0 
L 3411 0 
L 3411 474 
z
" transform="scale(0.015625)"/>
       </defs>
       <use xlink:href="#IBMPlexSans-32"/>
       <use xlink:href="#IBMPlexSans-30" transform="translate(59.999985 0)"/>
      </g>
     </g>
    </g>
    <g id="xtick_3">
     <g id="line2d_3">
      <g>
       <use xlink:href="#m17ed0f2be9" x="248.46344" y="274.94952" style="stroke: #000000; stroke-width: 0.8"/>
      </g>
     </g>
     <g id="text_3">
      <!-- 40 -->
      <g transform="translate(242.46344 289.34952) scale(0.1 -0.1)">
       <defs>
        <path id="IBMPlexSans-34" d="M 2912 0 
L 2912 877 
L 3558 877 
L 3558 1325 
L 2912 1325 
L 2912 4467 
L 2112 4467 
L 243 1350 
L 243 877 
L 2400 877 
L 2400 0 
L 2912 0 
z
M 2368 4051 
L 2400 4051 
L 2400 1325 
L 749 1325 
L 2368 4051 
z
" transform="scale(0.015625)"/>
       </defs>
       <use xlink:href="#IBMPlexSans-34"/>
       <use xlink:href="#IBMPlexSans-30" transform="translate(59.999985 0)"/>
      </g>
     </g>
    </g>
    <g id="xtick_4">
     <g id="line2d_4">
      <g>
       <use xlink:href="#m17ed0f2be9" x="338.53608" y="274.94952" style="stroke: #000000; stroke-width: 0.8"/>
      </g>
     </g>
     <g id="text_4">
      <!-- 60 -->
      <g transform="translate(332.53608 289.34952) scale(0.1 -0.1)">
       <defs>
        <path id="IBMPlexSans-36" d="M 1926 -77 
C 2822 -77 3411 525 3411 1402 
C 3411 2246 2861 2778 2093 2778 
C 1549 2778 1229 2502 1018 2138 
L 986 2150 
C 1229 3187 1760 3770 2714 4467 
L 2022 4467 
C 1306 4000 429 2963 429 1638 
C 429 576 998 -77 1926 -77 
z
M 1920 390 
C 1331 390 986 730 986 1331 
L 986 1382 
C 986 1984 1331 2323 1920 2323 
C 2509 2323 2854 1984 2854 1382 
L 2854 1331 
C 2854 730 2509 390 1920 390 
z
" transform="scale(0.015625)"/>
       </defs>
       <use xlink:href="#IBMPlexSans-36"/>
       <use xlink:href="#IBMPlexSans-30" transform="translate(59.999985 0)"/>
      </g>
     </g>
    </g>
    <g id="xtick_5">
     <g id="line2d_5">
      <g>
       <use xlink:href="#m17ed0f2be9" x="428.60872" y="274.94952" style="stroke: #000000; stroke-width: 0.8"/>
      </g>
     </g>
     <g id="text_5">
      <!-- 80 -->
      <g transform="translate(422.60872 289.34952) scale(0.1 -0.1)">
       <defs>
        <path id="IBMPlexSans-38" d="M 1920 -77 
C 2938 -77 3469 480 3469 1216 
C 3469 1824 3104 2176 2566 2323 
L 2566 2374 
C 3034 2534 3334 2912 3334 3424 
C 3334 4102 2810 4544 1920 4544 
C 1030 4544 506 4102 506 3424 
C 506 2912 806 2534 1274 2374 
L 1274 2323 
C 736 2176 371 1824 371 1216 
C 371 480 902 -77 1920 -77 
z
M 1920 390 
C 1299 390 941 685 941 1190 
L 941 1325 
C 941 1830 1299 2125 1920 2125 
C 2541 2125 2899 1830 2899 1325 
L 2899 1190 
C 2899 685 2541 390 1920 390 
z
M 1920 2573 
C 1363 2573 1062 2822 1062 3277 
L 1062 3373 
C 1062 3827 1363 4077 1920 4077 
C 2477 4077 2778 3827 2778 3373 
L 2778 3277 
C 2778 2822 2477 2573 1920 2573 
z
" transform="scale(0.015625)"/>
       </defs>
       <use xlink:href="#IBMPlexSans-38"/>
       <use xlink:href="#IBMPlexSans-30" transform="translate(59.999985 0)"/>
      </g>
     </g>
    </g>
    <g id="xtick_6">
     <g id="line2d_6">
      <g>
       <use xlink:href="#m17ed0f2be9" x="518.68136" y="274.94952" style="stroke: #000000; stroke-width: 0.8"/>
      </g>
     </g>
     <g id="text_6">
      <!-- 100 -->
      <g transform="translate(509.68136 289.34952) scale(0.1 -0.1)">
       <defs>
        <path id="IBMPlexSans-31" d="M 3501 0 
L 3501 474 
L 2349 474 
L 2349 4467 
L 1510 4467 
L 326 3360 
L 640 3021 
L 1766 4070 
L 1811 4070 
L 1811 474 
L 563 474 
L 563 0 
L 3501 0 
z
" transform="scale(0.015625)"/>
       </defs>
       <use xlink:href="#IBMPlexSans-31"/>
       <use xlink:href="#IBMPlexSans-30" transform="translate(59.999985 0)"/>
       <use xlink:href="#IBMPlexSans-30" transform="translate(119.999969 0)"/>
      </g>
     </g>
    </g>
    <g id="text_7">
     <!-- Time [ps] -->
     <g transform="translate(272.594291 302.94952) scale(0.1 -0.1)">
      <defs>
       <path id="IBMPlexSans-54" d="M 3520 3994 
L 3520 4467 
L 141 4467 
L 141 3994 
L 1562 3994 
L 1562 0 
L 2099 0 
L 2099 3994 
L 3520 3994 
z
" transform="scale(0.015625)"/>
       <path id="IBMPlexSans-69" d="M 800 4077 
C 1018 4077 1114 4192 1114 4365 
L 1114 4448 
C 1114 4621 1018 4736 800 4736 
C 582 4736 486 4621 486 4448 
L 486 4365 
C 486 4192 582 4077 800 4077 
z
M 544 0 
L 1056 0 
L 1056 3302 
L 544 3302 
L 544 0 
z
" transform="scale(0.015625)"/>
       <path id="IBMPlexSans-6d" d="M 1056 0 
L 1056 2291 
C 1056 2714 1440 2918 1843 2918 
C 2330 2918 2554 2618 2554 2029 
L 2554 0 
L 3066 0 
L 3066 2291 
C 3066 2714 3437 2918 3840 2918 
C 4339 2918 4563 2611 4563 2029 
L 4563 0 
L 5075 0 
L 5075 2118 
C 5075 2918 4672 3379 4000 3379 
C 3437 3379 3117 3066 2995 2707 
L 2982 2707 
C 2803 3181 2406 3379 1971 3379 
C 1459 3379 1229 3104 1082 2765 
L 1056 2765 
L 1056 3302 
L 544 3302 
L 544 0 
L 1056 0 
z
" transform="scale(0.015625)"/>
       <path id="IBMPlexSans-65" d="M 1786 -77 
C 2406 -77 2880 230 3091 678 
L 2726 941 
C 2554 576 2234 371 1818 371 
C 1203 371 838 800 838 1370 
L 838 1523 
L 3213 1523 
L 3213 1766 
C 3213 2701 2669 3379 1786 3379 
C 890 3379 301 2701 301 1651 
C 301 602 890 -77 1786 -77 
z
M 1786 2950 
C 2310 2950 2662 2560 2662 1978 
L 2662 1907 
L 838 1907 
L 838 1952 
C 838 2528 1229 2950 1786 2950 
z
" transform="scale(0.015625)"/>
       <path id="IBMPlexSans-20" transform="scale(0.015625)"/>
       <path id="IBMPlexSans-5b" d="M 1645 -883 
L 1645 -480 
L 1037 -480 
L 1037 4461 
L 1645 4461 
L 1645 4864 
L 595 4864 
L 595 -883 
L 1645 -883 
z
" transform="scale(0.015625)"/>
       <path id="IBMPlexSans-70" d="M 544 -1280 
L 1056 -1280 
L 1056 538 
L 1082 538 
C 1280 128 1594 -77 2048 -77 
C 2874 -77 3392 595 3392 1651 
C 3392 2707 2874 3379 2048 3379 
C 1594 3379 1254 3181 1082 2765 
L 1056 2765 
L 1056 3302 
L 544 3302 
L 544 -1280 
z
M 1907 384 
C 1440 384 1056 627 1056 1056 
L 1056 2285 
C 1056 2650 1440 2918 1907 2918 
C 2483 2918 2842 2522 2842 1933 
L 2842 1370 
C 2842 781 2483 384 1907 384 
z
" transform="scale(0.015625)"/>
       <path id="IBMPlexSans-73" d="M 1536 -77 
C 2291 -77 2758 314 2758 954 
C 2758 1453 2477 1773 1747 1882 
L 1491 1920 
C 1082 1984 858 2112 858 2432 
C 858 2746 1082 2944 1504 2944 
C 1926 2944 2208 2746 2355 2541 
L 2694 2848 
C 2426 3181 2074 3379 1542 3379 
C 870 3379 365 3059 365 2406 
C 365 1792 819 1542 1427 1453 
L 1690 1414 
C 2125 1350 2266 1152 2266 896 
C 2266 557 2010 358 1574 358 
C 1158 358 851 544 595 864 
L 230 570 
C 525 179 928 -77 1536 -77 
z
" transform="scale(0.015625)"/>
       <path id="IBMPlexSans-5d" d="M 384 4864 
L 384 4461 
L 992 4461 
L 992 -480 
L 384 -480 
L 384 -883 
L 1434 -883 
L 1434 4864 
L 384 4864 
z
" transform="scale(0.015625)"/>
      </defs>
      <use xlink:href="#IBMPlexSans-54"/>
      <use xlink:href="#IBMPlexSans-69" transform="translate(57.199997 0)"/>
      <use xlink:href="#IBMPlexSans-6d" transform="translate(82.199982 0)"/>
      <use xlink:href="#IBMPlexSans-65" transform="translate(169.499969 0)"/>
      <use xlink:href="#IBMPlexSans-20" transform="translate(224.399963 0)"/>
      <use xlink:href="#IBMPlexSans-5b" transform="translate(247.999954 0)"/>
      <use xlink:href="#IBMPlexSans-70" transform="translate(279.699951 0)"/>
      <use xlink:href="#IBMPlexSans-73" transform="translate(337.699936 0)"/>
      <use xlink:href="#IBMPlexSans-5d" transform="translate(386.399933 0)"/>
     </g>
    </g>
   </g>
   <g id="matplotlib.axis_2">
    <g id="ytick_1">
     <g id="line2d_7">
      <defs>
       <path id="m569f25c912" d="M 0 0 
L -3.5 0 
" style="stroke: #000000; stroke-width: 0.8"/>
      </defs>
      <g>
       <use xlink:href="#m569f25c912" x="45.8" y="266.230985" style="stroke: #000000; stroke-width: 0.8"/>
      </g>
     </g>
     <g id="text_8">
      <!-- 294 -->
      <g transform="translate(20.8 269.930985) scale(0.1 -0.1)">
       <defs>
        <path id="IBMPlexSans-39" d="M 3411 2829 
C 3411 3891 2842 4544 1914 4544 
C 1018 4544 429 3942 429 3066 
C 429 2221 979 1690 1747 1690 
C 2291 1690 2611 1965 2822 2330 
L 2854 2317 
C 2611 1280 2080 698 1126 0 
L 1818 0 
C 2534 467 3411 1504 3411 2829 
z
M 1920 2144 
C 1331 2144 986 2483 986 3085 
L 986 3136 
C 986 3738 1331 4077 1920 4077 
C 2509 4077 2854 3738 2854 3136 
L 2854 3085 
C 2854 2483 2509 2144 1920 2144 
z
" transform="scale(0.015625)"/>
       </defs>
       <use xlink:href="#IBMPlexSans-32"/>
       <use xlink:href="#IBMPlexSans-39" transform="translate(59.999985 0)"/>
       <use xlink:href="#IBMPlexSans-34" transform="translate(119.999969 0)"/>
      </g>
     </g>
    </g>
    <g id="ytick_2">
     <g id="line2d_8">
      <g>
       <use xlink:href="#m569f25c912" x="45.8" y="238.018751" style="stroke: #000000; stroke-width: 0.8"/>
      </g>
     </g>
     <g id="text_9">
      <!-- 295 -->
      <g transform="translate(20.8 241.718751) scale(0.1 -0.1)">
       <defs>
        <path id="IBMPlexSans-35" d="M 3187 4467 
L 794 4467 
L 634 2010 
L 1088 1946 
C 1274 2150 1478 2323 1888 2323 
C 2496 2323 2822 1984 2822 1395 
L 2822 1331 
C 2822 742 2496 403 1888 403 
C 1350 403 1126 640 896 992 
L 493 685 
C 762 301 1146 -77 1888 -77 
C 2829 -77 3392 531 3392 1402 
C 3392 2266 2829 2784 2061 2784 
C 1594 2784 1357 2592 1146 2291 
L 1101 2291 
L 1229 3994 
L 3187 3994 
L 3187 4467 
z
" transform="scale(0.015625)"/>
       </defs>
       <use xlink:href="#IBMPlexSans-32"/>
       <use xlink:href="#IBMPlexSans-39" transform="translate(59.999985 0)"/>
       <use xlink:href="#IBMPlexSans-35" transform="translate(119.999969 0)"/>
      </g>
     </g>
    </g>
    <g id="ytick_3">
     <g id="line2d_9">
      <g>
       <use xlink:href="#m569f25c912" x="45.8" y="209.806518" style="stroke: #000000; stroke-width: 0.8"/>
      </g>
     </g>
     <g id="text_10">
      <!-- 296 -->
      <g transform="translate(20.8 213.506518) scale(0.1 -0.1)">
       <use xlink:href="#IBMPlexSans-32"/>
       <use xlink:href="#IBMPlexSans-39" transform="translate(59.999985 0)"/>
       <use xlink:href="#IBMPlexSans-36" transform="translate(119.999969 0)"/>
      </g>
     </g>
    </g>
    <g id="ytick_4">
     <g id="line2d_10">
      <g>
       <use xlink:href="#m569f25c912" x="45.8" y="181.594284" style="stroke: #000000; stroke-width: 0.8"/>
      </g>
     </g>
     <g id="text_11">
      <!-- 297 -->
      <g transform="translate(20.8 185.294284) scale(0.1 -0.1)">
       <defs>
        <path id="IBMPlexSans-37" d="M 1696 0 
L 3373 3994 
L 3373 4467 
L 442 4467 
L 442 3174 
L 922 3174 
L 922 4006 
L 2829 4006 
L 1120 0 
L 1696 0 
z
" transform="scale(0.015625)"/>
       </defs>
       <use xlink:href="#IBMPlexSans-32"/>
       <use xlink:href="#IBMPlexSans-39" transform="translate(59.999985 0)"/>
       <use xlink:href="#IBMPlexSans-37" transform="translate(119.999969 0)"/>
      </g>
     </g>
    </g>
    <g id="ytick_5">
     <g id="line2d_11">
      <g>
       <use xlink:href="#m569f25c912" x="45.8" y="153.38205" style="stroke: #000000; stroke-width: 0.8"/>
      </g>
     </g>
     <g id="text_12">
      <!-- 298 -->
      <g transform="translate(20.8 157.08205) scale(0.1 -0.1)">
       <use xlink:href="#IBMPlexSans-32"/>
       <use xlink:href="#IBMPlexSans-39" transform="translate(59.999985 0)"/>
       <use xlink:href="#IBMPlexSans-38" transform="translate(119.999969 0)"/>
      </g>
     </g>
    </g>
    <g id="ytick_6">
     <g id="line2d_12">
      <g>
       <use xlink:href="#m569f25c912" x="45.8" y="125.169816" style="stroke: #000000; stroke-width: 0.8"/>
      </g>
     </g>
     <g id="text_13">
      <!-- 299 -->
      <g transform="translate(20.8 128.869816) scale(0.1 -0.1)">
       <use xlink:href="#IBMPlexSans-32"/>
       <use xlink:href="#IBMPlexSans-39" transform="translate(59.999985 0)"/>
       <use xlink:href="#IBMPlexSans-39" transform="translate(119.999969 0)"/>
      </g>
     </g>
    </g>
    <g id="ytick_7">
     <g id="line2d_13">
      <g>
       <use xlink:href="#m569f25c912" x="45.8" y="96.957582" style="stroke: #000000; stroke-width: 0.8"/>
      </g>
     </g>
     <g id="text_14">
      <!-- 300 -->
      <g transform="translate(20.8 100.657582) scale(0.1 -0.1)">
       <defs>
        <path id="IBMPlexSans-33" d="M 1184 2573 
L 1184 2106 
L 1709 2106 
C 2336 2106 2669 1805 2669 1280 
L 2669 1229 
C 2669 704 2336 403 1709 403 
C 1165 403 902 640 672 992 
L 269 685 
C 544 301 941 -77 1715 -77 
C 2624 -77 3232 454 3232 1222 
C 3232 1894 2771 2253 2291 2349 
L 2291 2374 
C 2765 2496 3149 2842 3149 3418 
C 3149 4141 2547 4544 1792 4544 
C 1075 4544 685 4173 461 3814 
L 858 3507 
C 1043 3846 1318 4064 1779 4064 
C 2253 4064 2579 3827 2579 3360 
L 2579 3315 
C 2579 2886 2272 2573 1670 2573 
L 1184 2573 
z
" transform="scale(0.015625)"/>
       </defs>
       <use xlink:href="#IBMPlexSans-33"/>
       <use xlink:href="#IBMPlexSans-30" transform="translate(59.999985 0)"/>
       <use xlink:href="#IBMPlexSans-30" transform="translate(119.999969 0)"/>
      </g>
     </g>
    </g>
    <g id="ytick_8">
     <g id="line2d_14">
      <g>
       <use xlink:href="#m569f25c912" x="45.8" y="68.745348" style="stroke: #000000; stroke-width: 0.8"/>
      </g>
     </g>
     <g id="text_15">
      <!-- 301 -->
      <g transform="translate(20.8 72.445348) scale(0.1 -0.1)">
       <use xlink:href="#IBMPlexSans-33"/>
       <use xlink:href="#IBMPlexSans-30" transform="translate(59.999985 0)"/>
       <use xlink:href="#IBMPlexSans-31" transform="translate(119.999969 0)"/>
      </g>
     </g>
    </g>
    <g id="ytick_9">
     <g id="line2d_15">
      <g>
       <use xlink:href="#m569f25c912" x="45.8" y="40.533114" style="stroke: #000000; stroke-width: 0.8"/>
      </g>
     </g>
     <g id="text_16">
      <!-- 302 -->
      <g transform="translate(20.8 44.233114) scale(0.1 -0.1)">
       <use xlink:href="#IBMPlexSans-33"/>
       <use xlink:href="#IBMPlexSans-30" transform="translate(59.999985 0)"/>
       <use xlink:href="#IBMPlexSans-32" transform="translate(119.999969 0)"/>
      </g>
     </g>
    </g>
    <g id="text_17">
     <!-- Temperature [K] -->
     <g transform="translate(14.8 185.451166) rotate(-90) scale(0.1 -0.1)">
      <defs>
       <path id="IBMPlexSans-72" d="M 1056 0 
L 1056 2240 
C 1056 2554 1389 2790 1939 2790 
L 2240 2790 
L 2240 3302 
L 2042 3302 
C 1504 3302 1203 3008 1088 2694 
L 1056 2694 
L 1056 3302 
L 544 3302 
L 544 0 
L 1056 0 
z
" transform="scale(0.015625)"/>
       <path id="IBMPlexSans-61" d="M 3232 0 
L 3232 448 
L 2854 448 
L 2854 2266 
C 2854 2963 2381 3379 1587 3379 
C 992 3379 595 3085 416 2733 
L 723 2445 
C 902 2746 1165 2938 1562 2938 
C 2086 2938 2342 2682 2342 2214 
L 2342 1888 
L 1690 1888 
C 730 1888 282 1542 282 922 
C 282 307 691 -77 1389 -77 
C 1850 -77 2202 134 2342 538 
L 2374 538 
C 2413 230 2566 0 2944 0 
L 3232 0 
z
M 1472 358 
C 1075 358 819 544 819 870 
L 819 1005 
C 819 1325 1082 1504 1664 1504 
L 2342 1504 
L 2342 960 
C 2342 621 1978 358 1472 358 
z
" transform="scale(0.015625)"/>
       <path id="IBMPlexSans-74" d="M 1914 0 
L 1914 448 
L 1242 448 
L 1242 2854 
L 1965 2854 
L 1965 3302 
L 1242 3302 
L 1242 4218 
L 781 4218 
L 781 3603 
C 781 3379 710 3302 493 3302 
L 186 3302 
L 186 2854 
L 730 2854 
L 730 544 
C 730 224 922 0 1274 0 
L 1914 0 
z
" transform="scale(0.015625)"/>
       <path id="IBMPlexSans-75" d="M 2579 0 
L 3091 0 
L 3091 3302 
L 2579 3302 
L 2579 1018 
C 2579 582 2182 384 1779 384 
C 1286 384 1024 685 1024 1274 
L 1024 3302 
L 512 3302 
L 512 1184 
C 512 384 947 -77 1626 -77 
C 2176 -77 2426 224 2554 538 
L 2579 538 
L 2579 0 
z
" transform="scale(0.015625)"/>
       <path id="IBMPlexSans-4b" d="M 3251 0 
L 3917 0 
L 2138 2554 
L 3802 4467 
L 3142 4467 
L 1792 2867 
L 1152 2093 
L 1133 2093 
L 1133 4467 
L 595 4467 
L 595 0 
L 1133 0 
L 1133 1491 
L 1766 2195 
L 3251 0 
z
" transform="scale(0.015625)"/>
      </defs>
      <use xlink:href="#IBMPlexSans-54"/>
      <use xlink:href="#IBMPlexSans-65" transform="translate(57.199997 0)"/>
      <use xlink:href="#IBMPlexSans-6d" transform="translate(112.099991 0)"/>
      <use xlink:href="#IBMPlexSans-70" transform="translate(199.399979 0)"/>
      <use xlink:href="#IBMPlexSans-65" transform="translate(257.399963 0)"/>
      <use xlink:href="#IBMPlexSans-72" transform="translate(312.299957 0)"/>
      <use xlink:href="#IBMPlexSans-61" transform="translate(348.999954 0)"/>
      <use xlink:href="#IBMPlexSans-74" transform="translate(402.399948 0)"/>
      <use xlink:href="#IBMPlexSans-75" transform="translate(437.499939 0)"/>
      <use xlink:href="#IBMPlexSans-72" transform="translate(494.299927 0)"/>
      <use xlink:href="#IBMPlexSans-65" transform="translate(530.999924 0)"/>
      <use xlink:href="#IBMPlexSans-20" transform="translate(585.899918 0)"/>
      <use xlink:href="#IBMPlexSans-5b" transform="translate(609.499908 0)"/>
      <use xlink:href="#IBMPlexSans-4b" transform="translate(641.199905 0)"/>
      <use xlink:href="#IBMPlexSans-5d" transform="translate(704.599899 0)"/>
     </g>
    </g>
   </g>
   <g id="line2d_16">
    <path d="M 68.382707 -1 
L 70.569976 31.685882 
L 72.821792 92.600992 
L 75.073608 87.650851 
L 77.325424 80.717768 
L 79.57724 52.754828 
L 81.829056 16.196059 
L 84.080872 76.284079 
L 86.332688 31.314245 
L 88.584504 77.468428 
L 90.83632 131.876334 
L 93.088136 113.631281 
L 95.339952 131.095909 
L 97.591768 61.656215 
L 99.843584 41.68268 
L 102.0954 39.91115 
L 104.347216 39.731121 
L 106.599032 102.398347 
L 108.850848 96.166825 
L 111.102664 75.933019 
L 113.35448 50.027924 
L 115.606296 55.767143 
L 117.858112 85.056708 
L 120.109928 74.530414 
L 122.361744 93.840831 
L 124.61356 77.606614 
L 126.865376 65.434405 
L 129.117192 49.648365 
L 131.369008 44.416773 
L 133.620824 67.342786 
L 135.87264 88.069152 
L 138.124456 129.914702 
L 140.376272 123.056567 
L 142.628088 78.610762 
L 144.879904 72.50055 
L 147.13172 37.048815 
L 149.383536 92.510763 
L 151.635352 61.279971 
L 153.887168 22.217934 
L 156.138984 84.757306 
L 158.3908 67.332067 
L 160.642616 34.263107 
L 162.894432 101.441896 
L 165.146248 95.638534 
L 167.398064 67.058279 
L 169.64988 83.785659 
L 171.901696 40.164619 
L 174.153512 61.763621 
L 176.405328 47.009409 
L 178.657144 99.78565 
L 180.90896 99.700801 
L 183.160776 85.184476 
L 185.412592 17.315448 
L 187.664408 97.997546 
L 189.916224 84.380804 
L 192.16804 65.45933 
L 194.419856 109.262896 
L 196.671672 77.944113 
L 198.923488 23.911116 
L 201.175304 118.428342 
L 203.42712 71.552107 
L 205.678936 107.457659 
L 207.930752 59.318555 
L 210.182568 93.612373 
L 212.434384 72.935254 
L 214.6862 65.839965 
L 216.938016 90.529759 
L 219.189832 94.465378 
L 221.441648 -0.257103 
L 223.693464 87.672547 
L 225.94528 112.098928 
L 228.197096 78.04334 
L 230.448912 60.597567 
L 232.700728 89.483208 
L 234.952544 108.840246 
L 237.20436 77.999474 
L 239.456176 114.356561 
L 241.707992 105.764693 
L 243.959808 2.248059 
L 246.211624 77.209879 
L 248.46344 72.238428 
L 250.715256 98.038959 
L 252.967072 104.084339 
L 255.218888 96.228126 
L 257.470704 40.665402 
L 259.72252 108.942874 
L 261.974336 55.576783 
L 264.226152 79.46282 
L 266.477968 83.386084 
L 268.729784 58.569555 
L 270.9816 105.335198 
L 273.233416 95.735565 
L 275.485232 71.02683 
L 277.737048 101.113609 
L 279.988864 91.267782 
L 282.24068 101.280852 
L 284.492496 97.066494 
L 286.744312 105.224434 
L 288.996128 41.864775 
L 291.247944 98.050797 
L 293.49976 71.961024 
L 295.751576 77.137515 
L 298.003392 110.590682 
L 300.255208 34.916711 
L 302.507024 38.485773 
L 304.75884 72.119012 
L 307.010656 69.002261 
L 309.262472 78.135205 
L 311.514288 59.27951 
L 313.766104 77.558012 
L 316.01792 90.803332 
L 318.269736 53.835129 
L 320.521552 76.709527 
L 322.773368 88.567998 
L 325.025184 109.633414 
L 327.277 80.97847 
L 329.528816 26.910173 
L 331.780632 121.220034 
L 334.032448 92.141622 
L 336.284264 68.42821 
L 338.53608 74.732484 
L 340.787896 49.318959 
L 343.039712 54.043828 
L 345.291528 107.537213 
L 347.543344 52.452154 
L 349.79516 80.602571 
L 352.046976 88.318532 
L 354.298792 101.220885 
L 356.550608 62.587912 
L 358.802424 93.513533 
L 361.05424 60.297519 
L 363.306056 91.636449 
L 365.557872 78.237962 
L 367.809688 95.142013 
L 370.061504 105.970679 
L 372.31332 86.383633 
L 374.565136 50.160384 
L 376.816952 100.483336 
L 379.068768 53.033179 
L 381.320584 2.086196 
L 383.5724 92.471976 
L 385.824216 86.601975 
L 388.076032 62.928383 
L 390.327848 13.685085 
L 392.579664 56.966904 
L 394.83148 27.534806 
L 397.083296 79.853011 
L 399.335112 100.6681 
L 401.586928 93.171987 
L 403.838744 56.111014 
L 406.09056 54.425151 
L 408.342376 89.250273 
L 410.594192 100.121729 
L 412.846008 80.701065 
L 415.097824 75.32341 
L 417.34964 114.936381 
L 419.601456 77.704377 
L 421.853272 37.657262 
L 424.105088 8.805414 
L 426.356904 90.146369 
L 428.60872 90.887147 
L 430.860536 91.492538 
L 433.112352 63.9482 
L 435.364168 69.608297 
L 437.615984 34.493115 
L 442.119616 125.274983 
L 444.371432 55.252973 
L 446.623248 62.662645 
L 448.875064 71.582585 
L 451.12688 111.908223 
L 453.378696 92.346877 
L 455.630512 93.097126 
L 457.882328 91.499684 
L 460.134144 61.842916 
L 462.38596 97.577867 
L 464.637776 43.370782 
L 466.889592 53.03912 
L 469.141408 49.808204 
L 471.393224 83.937448 
L 473.64504 80.404376 
L 475.896856 87.956409 
L 478.097897 -1 
M 478.221352 -1 
L 480.400488 60.527441 
L 482.652304 25.93999 
L 484.90412 60.418098 
L 487.155936 138.161494 
L 489.407752 116.141565 
L 491.659568 74.505317 
L 493.911384 122.912914 
L 496.1632 89.333313 
L 498.415016 39.684414 
L 500.666832 38.818107 
L 502.918648 111.125473 
L 505.170464 17.350145 
L 507.42228 91.797105 
L 509.674096 112.126135 
L 511.925912 114.170893 
L 514.177728 84.805606 
L 516.429544 63.637606 
L 518.68136 109.281751 
L 518.68136 109.281751 
" clip-path="url(#pa1090a994d)" style="fill: none; stroke: #1f77b4; stroke-width: 1.5; stroke-linecap: square"/>
   </g>
   <g id="line2d_17">
    <path d="M 68.31816 24.271303 
L 70.569976 80.492754 
L 72.821792 111.070242 
L 75.073608 103.426731 
L 77.325424 112.682493 
L 79.57724 93.460325 
L 81.829056 66.390597 
L 84.080872 128.39139 
L 86.332688 139.676972 
L 88.584504 88.85638 
L 90.83632 137.121444 
L 93.088136 120.821061 
L 95.339952 135.036004 
L 97.591768 117.170552 
L 99.843584 62.882321 
L 102.0954 142.595829 
L 104.347216 77.318878 
L 106.599032 105.863446 
L 108.850848 130.777307 
L 111.102664 88.136093 
L 115.606296 104.080034 
L 117.858112 106.117432 
L 120.109928 107.651506 
L 122.361744 128.356262 
L 124.61356 80.991427 
L 126.865376 77.585606 
L 129.117192 64.218889 
L 131.369008 85.805277 
L 133.620824 120.200302 
L 135.87264 131.111019 
L 138.124456 164.242658 
L 142.628088 92.170938 
L 144.879904 85.270271 
L 147.13172 91.144147 
L 149.383536 130.771797 
L 151.635352 88.563133 
L 153.887168 101.696528 
L 156.138984 98.887358 
L 158.3908 103.587216 
L 160.642616 76.682966 
L 162.894432 116.583716 
L 165.146248 118.827573 
L 167.398064 106.626953 
L 169.64988 110.31104 
L 171.901696 93.943329 
L 174.153512 70.138396 
L 176.405328 77.702525 
L 178.657144 139.185359 
L 180.90896 107.200703 
L 183.160776 129.844189 
L 185.412592 78.131116 
L 187.664408 145.066638 
L 189.916224 104.661361 
L 192.16804 80.971969 
L 194.419856 144.769087 
L 196.671672 92.51722 
L 198.923488 62.813443 
L 201.175304 131.901561 
L 203.42712 90.992444 
L 205.678936 148.639488 
L 207.930752 108.981531 
L 210.182568 119.140449 
L 212.434384 81.973276 
L 214.6862 129.435917 
L 216.938016 116.010999 
L 219.189832 119.151125 
L 221.441648 78.944387 
L 223.693464 129.078443 
L 225.94528 137.698637 
L 228.197096 114.091038 
L 230.448912 96.712722 
L 232.700728 131.624845 
L 234.952544 142.927819 
L 237.20436 87.33763 
L 239.456176 135.109703 
L 241.707992 129.506517 
L 243.959808 80.880879 
L 246.211624 92.508955 
L 248.46344 89.015142 
L 250.715256 110.482028 
L 252.967072 120.69932 
L 255.218888 116.013926 
L 257.470704 59.412788 
L 259.72252 116.194213 
L 261.974336 122.896341 
L 264.226152 103.56087 
L 266.477968 114.926178 
L 268.729784 83.688499 
L 270.9816 136.980073 
L 273.233416 130.683806 
L 275.485232 77.711652 
L 277.737048 121.694084 
L 279.988864 102.774633 
L 282.24068 127.334292 
L 284.492496 112.654081 
L 286.744312 115.802989 
L 288.996128 87.149078 
L 291.247944 112.241504 
L 293.49976 104.698727 
L 295.751576 92.677188 
L 298.003392 123.426181 
L 300.255208 70.34279 
L 302.507024 66.631841 
L 304.75884 80.931676 
L 307.010656 101.857184 
L 309.262472 147.472702 
L 311.514288 94.719062 
L 313.766104 103.711023 
L 316.01792 113.85255 
L 318.269736 67.317861 
L 320.521552 121.521373 
L 322.773368 126.661358 
L 325.025184 124.405275 
L 327.277 103.740124 
L 329.528816 95.858124 
L 331.780632 131.201076 
L 334.032448 110.79301 
L 336.284264 89.188541 
L 338.53608 102.252025 
L 340.787896 67.90487 
L 343.039712 121.448707 
L 345.291528 119.382726 
L 347.543344 125.915587 
L 349.79516 120.104563 
L 352.046976 119.451431 
L 354.298792 130.246606 
L 356.550608 143.167341 
L 358.802424 136.875895 
L 361.05424 73.782361 
L 363.306056 115.029322 
L 365.557872 108.904044 
L 367.809688 109.254975 
L 370.061504 129.429374 
L 372.31332 95.560746 
L 374.565136 105.485308 
L 376.816952 114.157505 
L 379.068768 69.318064 
L 381.320584 80.295248 
L 383.5724 120.842585 
L 385.824216 107.367903 
L 388.076032 119.795302 
L 390.327848 103.941418 
L 392.579664 92.984037 
L 394.83148 81.163277 
L 397.083296 121.56821 
L 399.335112 137.011412 
L 401.586928 119.657892 
L 403.838744 84.405514 
L 406.09056 116.204717 
L 408.342376 126.240861 
L 410.594192 121.70011 
L 412.846008 102.773083 
L 415.097824 82.281503 
L 417.34964 129.505656 
L 419.601456 98.185496 
L 421.853272 88.933867 
L 424.105088 84.815335 
L 428.60872 156.02798 
L 430.860536 116.492109 
L 433.112352 79.291358 
L 435.364168 84.592689 
L 437.615984 91.548113 
L 439.8678 125.8059 
L 442.119616 135.310137 
L 444.371432 86.790054 
L 446.623248 65.499322 
L 448.875064 113.681217 
L 451.12688 128.831689 
L 453.378696 123.360575 
L 455.630512 97.293704 
L 457.882328 116.393097 
L 460.134144 109.193157 
L 462.38596 124.930466 
L 464.637776 87.41064 
L 466.889592 91.528311 
L 469.141408 96.521759 
L 471.393224 95.674566 
L 473.64504 108.006398 
L 475.896856 110.253355 
L 478.148672 79.346115 
L 480.400488 89.664313 
L 482.652304 78.422296 
L 484.90412 99.023047 
L 487.155936 147.077001 
L 489.407752 129.249948 
L 491.659568 98.758901 
L 493.911384 147.295343 
L 496.1632 136.4461 
L 498.415016 96.813972 
L 500.666832 69.456164 
L 502.918648 135.538638 
L 505.170464 87.639142 
L 507.42228 107.103758 
L 511.925912 143.041984 
L 514.177728 113.297397 
L 516.429544 101.232465 
L 518.68136 120.138485 
L 518.68136 120.138485 
" clip-path="url(#pa1090a994d)" style="fill: none; stroke: #ff7f0e; stroke-width: 1.5; stroke-linecap: square"/>
   </g>
   <g id="line2d_18">
    <path d="M 68.31816 34.226946 
L 70.569976 161.883258 
L 72.821792 139.001714 
L 75.073608 152.994614 
L 77.325424 143.462395 
L 79.57724 134.747666 
L 81.829056 116.068512 
L 84.080872 152.222755 
L 86.332688 165.480817 
L 88.584504 159.851371 
L 90.83632 158.65118 
L 93.088136 127.209882 
L 95.339952 154.051884 
L 97.591768 145.695748 
L 99.843584 129.668809 
L 102.0954 177.837015 
L 104.347216 106.528114 
L 106.599032 167.872589 
L 108.850848 184.077749 
L 111.102664 124.008799 
L 113.35448 120.671683 
L 115.606296 129.943889 
L 117.858112 134.543616 
L 120.109928 168.02412 
L 122.361744 158.759232 
L 124.61356 118.623438 
L 126.865376 115.723694 
L 129.117192 111.484713 
L 131.369008 106.265518 
L 133.620824 156.392858 
L 135.87264 167.849774 
L 138.124456 169.822254 
L 140.376272 145.724591 
L 142.628088 176.101301 
L 144.879904 149.433215 
L 147.13172 138.360292 
L 149.383536 188.822549 
L 151.635352 141.868741 
L 153.887168 155.587852 
L 156.138984 137.547107 
L 158.3908 124.397957 
L 160.642616 97.394524 
L 162.894432 152.379021 
L 165.146248 153.278733 
L 167.398064 131.122986 
L 169.64988 167.38442 
L 171.901696 128.94086 
L 174.153512 145.69747 
L 176.405328 133.93362 
L 178.657144 158.848342 
L 180.90896 136.481227 
L 183.160776 146.94975 
L 185.412592 103.839738 
L 187.664408 185.47381 
L 189.916224 156.339048 
L 192.16804 134.399834 
L 194.419856 184.385545 
L 196.671672 128.175889 
L 198.923488 127.118619 
L 201.175304 168.415861 
L 203.42712 150.644168 
L 205.678936 185.48285 
L 207.930752 160.230628 
L 210.182568 144.814977 
L 212.434384 160.593957 
L 214.6862 168.934164 
L 216.938016 160.871619 
L 219.189832 135.993488 
L 221.441648 171.600155 
L 223.693464 150.301933 
L 225.94528 165.573371 
L 228.197096 149.369073 
L 230.448912 145.678529 
L 232.700728 168.411986 
L 234.952544 176.674706 
L 237.20436 167.01119 
L 239.456176 163.445917 
L 241.707992 163.026194 
L 243.959808 137.62976 
L 246.211624 143.228642 
L 248.46344 153.918433 
L 250.715256 136.789885 
L 252.967072 149.701407 
L 255.218888 163.834214 
L 257.470704 127.31492 
L 259.72252 137.230701 
L 261.974336 168.741738 
L 264.226152 153.129786 
L 266.477968 155.299428 
L 268.729784 153.153893 
L 270.9816 158.936591 
L 273.233416 176.689773 
L 275.485232 131.464791 
L 277.737048 153.235254 
L 279.988864 138.967706 
L 282.24068 166.546266 
L 284.492496 158.720919 
L 286.744312 141.853674 
L 288.996128 123.4143 
L 291.247944 162.018 
L 293.49976 121.239061 
L 295.751576 139.832549 
L 298.003392 180.140107 
L 300.255208 114.087853 
L 302.507024 111.090389 
L 304.75884 151.666138 
L 307.010656 149.443977 
L 309.262472 182.924911 
L 311.514288 154.36872 
L 313.766104 142.3384 
L 316.01792 148.099574 
L 318.269736 141.010785 
L 320.521552 148.124542 
L 322.773368 146.797358 
L 325.025184 166.352118 
L 327.277 171.490812 
L 329.528816 151.078527 
L 331.780632 160.439843 
L 334.032448 128.216355 
L 336.284264 136.380494 
L 338.53608 123.280419 
L 340.787896 159.907765 
L 343.039712 162.280165 
L 345.291528 155.336449 
L 347.543344 158.756649 
L 349.79516 144.495558 
L 352.046976 163.922033 
L 354.298792 153.9335 
L 356.550608 173.850297 
L 358.802424 176.134018 
L 361.05424 116.487373 
L 363.306056 139.242355 
L 365.557872 148.471082 
L 367.809688 139.58416 
L 370.061504 146.282068 
L 372.31332 130.831118 
L 374.565136 170.326782 
L 376.816952 186.955538 
L 379.068768 126.023897 
L 381.320584 120.095695 
L 383.5724 159.962006 
L 385.824216 137.192818 
L 388.076032 156.360142 
L 390.327848 133.392931 
L 392.579664 118.703938 
L 394.83148 150.869311 
L 397.083296 165.549695 
L 399.335112 163.438168 
L 401.586928 144.744378 
L 403.838744 156.213346 
L 406.09056 187.891411 
L 408.342376 174.720307 
L 412.846008 130.883637 
L 415.097824 129.03815 
L 417.34964 141.461933 
L 419.601456 136.877273 
L 421.853272 113.956985 
L 424.105088 127.196967 
L 426.356904 178.558507 
L 428.60872 178.878357 
L 430.860536 171.440876 
L 433.112352 156.66966 
L 435.364168 167.245373 
L 437.615984 144.536454 
L 439.8678 153.39109 
L 442.119616 149.383279 
L 444.371432 159.561655 
L 446.623248 100.128961 
L 448.875064 137.357694 
L 451.12688 159.116104 
L 453.378696 166.13171 
L 455.630512 169.099901 
L 457.882328 153.286052 
L 460.134144 132.158732 
L 462.38596 162.466134 
L 464.637776 127.274024 
L 466.889592 133.832886 
L 469.141408 146.944154 
L 471.393224 136.229394 
L 473.64504 149.230026 
L 475.896856 143.83175 
L 478.148672 157.689478 
L 480.400488 112.186833 
L 482.652304 160.556505 
L 484.90412 137.779138 
L 487.155936 170.755114 
L 489.407752 169.857123 
L 491.659568 135.780398 
L 493.911384 166.082635 
L 496.1632 152.19219 
L 498.415016 133.164774 
L 500.666832 142.318597 
L 502.918648 149.939895 
L 505.170464 176.10905 
L 507.42228 140.956114 
L 509.674096 135.173415 
L 511.925912 173.164536 
L 514.177728 162.966357 
L 516.429544 136.010277 
L 518.68136 133.928454 
L 518.68136 133.928454 
" clip-path="url(#pa1090a994d)" style="fill: none; stroke: #2ca02c; stroke-width: 1.5; stroke-linecap: square"/>
   </g>
   <g id="line2d_19">
    <path d="M 68.31816 57.582023 
L 70.569976 178.31227 
L 72.821792 201.88543 
L 75.073608 179.339233 
L 77.325424 185.948893 
L 79.57724 204.772087 
L 81.829056 154.753057 
L 84.080872 167.221094 
L 86.332688 180.90017 
L 88.584504 187.846296 
L 90.83632 190.806136 
L 93.088136 164.239386 
L 95.339952 270.692871 
L 97.591768 186.856354 
L 99.843584 156.517871 
L 102.0954 210.769942 
L 104.347216 171.861201 
L 106.599032 194.036492 
L 108.850848 210.318105 
L 111.102664 166.201362 
L 113.35448 168.383402 
L 115.606296 165.919137 
L 117.858112 166.008333 
L 120.109928 195.904967 
L 122.361744 186.737541 
L 124.61356 176.095102 
L 126.865376 139.086864 
L 129.117192 181.97466 
L 131.369008 165.376726 
L 133.620824 183.974691 
L 135.87264 192.0356 
L 138.124456 184.871132 
L 140.376272 195.317442 
L 142.628088 193.560892 
L 144.879904 172.728885 
L 147.13172 168.494639 
L 149.383536 198.34392 
L 151.635352 190.649612 
L 153.887168 225.236116 
L 156.138984 191.932111 
L 158.3908 150.706158 
L 160.642616 157.018611 
L 162.894432 196.594431 
L 165.146248 209.12067 
L 167.398064 152.403472 
L 169.64988 202.119441 
L 171.901696 161.60947 
L 174.153512 175.020785 
L 176.405328 140.713407 
L 178.657144 197.514635 
L 180.90896 177.265848 
L 183.160776 177.299598 
L 185.412592 151.004225 
L 187.664408 189.298407 
L 189.916224 187.640008 
L 192.16804 165.740055 
L 194.419856 203.965876 
L 196.671672 188.69349 
L 198.923488 176.664891 
L 201.175304 188.628573 
L 203.42712 213.127964 
L 205.678936 226.708029 
L 207.930752 197.952007 
L 210.182568 155.249492 
L 212.434384 197.771031 
L 214.6862 244.206536 
L 219.189832 186.108517 
L 221.441648 223.422227 
L 223.693464 182.151331 
L 225.94528 211.687046 
L 228.197096 179.946561 
L 230.448912 180.943047 
L 232.700728 232.025546 
L 234.952544 202.589875 
L 237.20436 200.249072 
L 239.456176 195.275943 
L 241.707992 197.938404 
L 243.959808 161.365127 
L 246.211624 192.46264 
L 248.46344 169.785749 
L 250.715256 192.894675 
L 252.967072 179.355764 
L 255.218888 187.568892 
L 257.470704 149.891853 
L 259.72252 174.482335 
L 261.974336 210.703303 
L 264.226152 221.244491 
L 266.477968 227.117678 
L 268.729784 168.723829 
L 270.9816 166.717599 
L 273.233416 192.30956 
L 275.485232 153.460742 
L 277.737048 184.466304 
L 279.988864 164.670215 
L 282.24068 206.832903 
L 284.492496 239.614644 
L 286.744312 195.601389 
L 288.996128 174.086461 
L 291.247944 194.717518 
L 293.49976 191.671754 
L 295.751576 197.46952 
L 298.003392 226.207289 
L 300.255208 142.099739 
L 302.507024 151.992446 
L 304.75884 199.116726 
L 307.010656 172.786226 
L 309.262472 213.944335 
L 311.514288 216.978734 
L 313.766104 207.7903 
L 316.01792 167.326477 
L 318.269736 177.620223 
L 320.521552 171.221845 
L 322.773368 226.279094 
L 325.025184 184.505048 
L 327.277 201.968772 
L 329.528816 200.789244 
L 331.780632 226.231741 
L 334.032448 162.756453 
L 336.284264 199.370195 
L 338.53608 173.418005 
L 340.787896 207.625855 
L 343.039712 206.90333 
L 345.291528 227.450356 
L 349.79516 175.314031 
L 352.046976 201.390889 
L 354.298792 172.714077 
L 356.550608 204.031137 
L 358.802424 218.404671 
L 361.05424 150.191298 
L 363.306056 181.109386 
L 365.557872 167.662427 
L 367.809688 204.677553 
L 370.061504 190.183655 
L 372.31332 202.34932 
L 374.565136 222.519759 
L 376.816952 218.996673 
L 379.068768 130.735292 
L 381.320584 164.765438 
L 383.5724 210.023482 
L 385.824216 164.36526 
L 388.076032 201.507637 
L 390.327848 168.093256 
L 394.83148 192.622264 
L 397.083296 180.634131 
L 399.335112 209.661358 
L 401.586928 206.08386 
L 403.838744 201.488696 
L 408.342376 243.027008 
L 410.594192 178.829195 
L 412.846008 166.209455 
L 415.097824 170.822011 
L 417.34964 189.831519 
L 419.601456 182.117236 
L 421.853272 194.249151 
L 424.105088 157.486806 
L 426.356904 196.089214 
L 428.60872 208.394528 
L 430.860536 213.969303 
L 433.112352 200.424021 
L 435.364168 195.062767 
L 437.615984 180.261159 
L 439.8678 176.517666 
L 442.119616 163.950789 
L 444.371432 222.186219 
L 446.623248 124.82319 
L 448.875064 168.944582 
L 451.12688 220.668159 
L 453.378696 181.625623 
L 455.630512 205.840377 
L 457.882328 200.960921 
L 460.134144 156.50599 
L 462.38596 185.445743 
L 464.637776 177.534987 
L 466.889592 153.057637 
L 469.141408 198.366822 
L 471.393224 190.399586 
L 473.64504 208.198744 
L 475.896856 188.457584 
L 478.148672 188.575882 
L 480.400488 148.995068 
L 482.652304 212.717454 
L 484.90412 169.50249 
L 487.155936 190.174701 
L 489.407752 195.277148 
L 491.659568 171.50717 
L 493.911384 214.778786 
L 496.1632 190.445906 
L 498.415016 152.343893 
L 500.666832 177.166664 
L 502.918648 173.999503 
L 505.170464 218.738038 
L 507.42228 207.13958 
L 509.674096 171.088567 
L 511.925912 207.748629 
L 514.177728 210.402136 
L 518.68136 145.153424 
L 518.68136 145.153424 
" clip-path="url(#pa1090a994d)" style="fill: none; stroke: #d62728; stroke-width: 1.5; stroke-linecap: square"/>
   </g>
   <g id="line2d_20">
    <path d="M 68.31816 78.959928 
L 70.569976 267.329065 
L 72.821792 206.893816 
L 75.073608 210.104714 
L 77.325424 209.288171 
L 79.57724 227.549368 
L 81.829056 205.005108 
L 84.080872 210.089001 
L 86.332688 205.73874 
L 88.584504 196.917639 
L 90.83632 213.10291 
L 93.088136 187.241552 
L 95.339952 310.459224 
L 97.591768 205.866422 
L 99.843584 193.06364 
L 102.0954 240.948156 
L 104.347216 214.47142 
L 106.599032 216.925225 
L 108.850848 265.16291 
L 111.102664 190.441817 
L 113.35448 197.168999 
L 115.606296 194.888076 
L 117.858112 188.595684 
L 120.109928 258.682913 
L 122.361744 223.466825 
L 124.61356 203.689117 
L 126.865376 224.239889 
L 129.117192 185.109706 
L 131.369008 234.456922 
L 133.620824 252.263011 
L 135.87264 220.944917 
L 138.124456 214.566945 
L 140.376272 245.719818 
L 144.879904 200.980035 
L 147.13172 202.288191 
L 149.383536 203.26961 
L 151.635352 248.53975 
L 153.887168 253.238489 
L 156.138984 264.503881 
L 158.3908 188.814241 
L 160.642616 206.675173 
L 162.894432 249.311135 
L 165.146248 273.301392 
L 167.398064 194.78476 
L 169.64988 233.958206 
L 171.901696 172.081092 
L 174.153512 194.624491 
L 176.405328 154.011935 
L 178.657144 227.363398 
L 180.90896 249.295165 
L 183.160776 261.403403 
L 185.412592 183.754283 
L 187.664408 212.358387 
L 189.916224 216.746359 
L 192.16804 187.9274 
L 194.419856 227.448204 
L 196.671672 220.25145 
L 198.923488 214.161084 
L 201.175304 234.237935 
L 203.42712 239.869404 
L 205.678936 232.074105 
L 207.930752 245.138922 
L 210.182568 220.930453 
L 212.434384 209.02691 
L 214.6862 270.899289 
L 216.938016 236.502843 
L 219.189832 223.209137 
L 221.441648 261.822221 
L 223.693464 213.05095 
L 225.94528 234.388691 
L 228.197096 188.160292 
L 230.448912 222.72454 
L 232.700728 247.268659 
L 234.952544 222.10503 
L 237.20436 238.466886 
L 239.456176 258.73061 
L 241.707992 255.864272 
L 243.959808 188.681006 
L 246.211624 253.141285 
L 248.46344 193.625207 
L 250.715256 219.863669 
L 252.967072 199.629261 
L 255.218888 217.464622 
L 257.470704 173.422998 
L 259.72252 233.617994 
L 261.974336 223.116066 
L 264.226152 289.077144 
L 266.477968 296.11888 
L 268.729784 197.013292 
L 270.9816 215.91548 
L 273.233416 200.62424 
L 275.485232 174.502654 
L 277.737048 261.789935 
L 279.988864 216.030807 
L 282.24068 217.891921 
L 284.492496 265.53967 
L 286.744312 210.634598 
L 288.996128 203.900786 
L 291.247944 210.074193 
L 293.49976 203.961958 
L 295.751576 233.715155 
L 298.003392 255.403223 
L 300.255208 191.588757 
L 302.507024 160.604332 
L 304.75884 212.754605 
L 307.010656 174.374585 
L 309.262472 233.366807 
L 311.514288 257.260764 
L 313.766104 223.451499 
L 316.01792 185.592667 
L 318.269736 189.544773 
L 320.521552 213.692329 
L 322.773368 233.586009 
L 325.025184 234.526661 
L 327.277 254.801062 
L 329.528816 212.380126 
L 331.780632 264.139692 
L 334.032448 192.333194 
L 336.284264 254.764384 
L 338.53608 200.671464 
L 340.787896 264.948357 
L 343.039712 238.742181 
L 345.291528 247.341066 
L 347.543344 205.493579 
L 349.79516 207.147888 
L 352.046976 212.446937 
L 354.298792 255.816015 
L 356.550608 220.34706 
L 358.802424 246.643078 
L 361.05424 199.68673 
L 363.306056 214.94491 
L 365.557872 193.993702 
L 367.809688 233.865178 
L 370.061504 239.118424 
L 372.31332 226.997271 
L 374.565136 241.287076 
L 376.816952 254.09709 
L 379.068768 138.102087 
L 381.320584 227.744162 
L 383.5724 268.168682 
L 385.824216 210.910581 
L 388.076032 216.228701 
L 390.327848 205.510153 
L 392.579664 217.156309 
L 394.83148 239.280932 
L 397.083296 201.025494 
L 399.335112 257.749795 
L 401.586928 211.139599 
L 403.838744 205.536714 
L 406.09056 245.418006 
L 408.342376 283.319757 
L 410.594192 207.5491 
L 412.846008 237.144567 
L 415.097824 185.768606 
L 417.34964 277.800472 
L 419.601456 246.040701 
L 421.853272 216.252033 
L 424.105088 216.050782 
L 426.356904 202.47373 
L 428.60872 242.233023 
L 430.860536 230.837796 
L 433.112352 223.584132 
L 435.364168 214.240207 
L 437.615984 183.002614 
L 439.8678 223.391275 
L 442.119616 181.190016 
L 444.371432 261.553082 
L 446.623248 199.394087 
L 448.875064 214.042787 
L 451.12688 244.920538 
L 453.378696 193.1125 
L 455.630512 240.864728 
L 457.882328 258.010797 
L 460.134144 189.820843 
L 462.38596 232.76443 
L 464.637776 206.667898 
L 466.889592 158.456343 
L 469.141408 214.695573 
L 471.393224 238.180829 
L 473.64504 243.630246 
L 475.896856 229.356628 
L 478.148672 255.462845 
L 480.400488 216.064428 
L 482.652304 213.572353 
L 484.90412 178.82898 
L 487.155936 195.376418 
L 489.407752 219.119964 
L 491.659568 216.627114 
L 493.911384 234.469708 
L 496.1632 241.297795 
L 498.415016 158.990101 
L 500.666832 181.430398 
L 502.918648 219.790142 
L 505.170464 234.068712 
L 507.42228 249.57442 
L 509.674096 197.892126 
L 511.925912 243.789224 
L 514.177728 232.119822 
L 516.429544 193.027608 
L 518.68136 194.318373 
L 518.68136 194.318373 
" clip-path="url(#pa1090a994d)" style="fill: none; stroke: #9467bd; stroke-width: 1.5; stroke-linecap: square"/>
   </g>
   <g id="line2d_21">
    <path d="M 68.31816 78.959928 
L 70.569976 267.329065 
L 72.821792 206.893816 
L 75.073608 210.104714 
L 77.325424 209.288171 
L 79.57724 227.549368 
L 81.829056 205.005108 
L 84.080872 210.089001 
L 86.332688 205.73874 
L 88.584504 196.917639 
L 90.83632 213.10291 
L 93.088136 187.241552 
L 95.339952 310.459224 
L 97.591768 205.866422 
L 99.843584 193.06364 
L 102.0954 240.948156 
L 104.347216 214.47142 
L 106.599032 216.925225 
L 108.850848 265.16291 
L 111.102664 190.441817 
L 113.35448 197.168999 
L 115.606296 194.888076 
L 117.858112 188.595684 
L 120.109928 258.682913 
L 122.361744 223.466825 
L 124.61356 203.689117 
L 126.865376 224.239889 
L 129.117192 185.109706 
L 131.369008 234.456922 
L 133.620824 252.263011 
L 135.87264 220.944917 
L 138.124456 214.566945 
L 140.376272 245.719818 
L 144.879904 200.980035 
L 147.13172 202.288191 
L 149.383536 203.26961 
L 151.635352 248.53975 
L 153.887168 253.238489 
L 156.138984 264.503881 
L 158.3908 188.814241 
L 160.642616 206.675173 
L 162.894432 249.311135 
L 165.146248 273.301392 
L 167.398064 194.78476 
L 169.64988 233.958206 
L 171.901696 172.081092 
L 174.153512 194.624491 
L 176.405328 154.011935 
L 178.657144 227.363398 
L 180.90896 249.295165 
L 183.160776 261.403403 
L 185.412592 183.754283 
L 187.664408 212.358387 
L 189.916224 216.746359 
L 192.16804 187.9274 
L 194.419856 227.448204 
L 196.671672 220.25145 
L 198.923488 214.161084 
L 201.175304 234.237935 
L 203.42712 239.869404 
L 205.678936 232.074105 
L 207.930752 245.138922 
L 210.182568 220.930453 
L 212.434384 209.02691 
L 214.6862 270.899289 
L 216.938016 236.502843 
L 219.189832 223.209137 
L 221.441648 261.822221 
L 223.693464 213.05095 
L 225.94528 234.388691 
L 228.197096 188.160292 
L 230.448912 222.72454 
L 232.700728 247.268659 
L 234.952544 222.10503 
L 237.20436 238.466886 
L 239.456176 258.73061 
L 241.707992 255.864272 
L 243.959808 188.681006 
L 246.211624 253.141285 
L 248.46344 193.625207 
L 250.715256 219.863669 
L 252.967072 199.629261 
L 255.218888 217.464622 
L 257.470704 173.422998 
L 259.72252 233.617994 
L 261.974336 223.116066 
L 264.226152 289.077144 
L 266.477968 296.11888 
L 268.729784 197.013292 
L 270.9816 215.91548 
L 273.233416 200.62424 
L 275.485232 174.502654 
L 277.737048 261.789935 
L 279.988864 216.030807 
L 282.24068 217.891921 
L 284.492496 265.53967 
L 286.744312 210.634598 
L 288.996128 203.900786 
L 291.247944 210.074193 
L 293.49976 203.961958 
L 295.751576 233.715155 
L 298.003392 255.403223 
L 300.255208 191.588757 
L 302.507024 160.604332 
L 304.75884 212.754605 
L 307.010656 174.374585 
L 309.262472 233.366807 
L 311.514288 257.260764 
L 313.766104 223.451499 
L 316.01792 185.592667 
L 318.269736 189.544773 
L 320.521552 213.692329 
L 322.773368 233.586009 
L 325.025184 234.526661 
L 327.277 254.801062 
L 329.528816 212.380126 
L 331.780632 264.139692 
L 334.032448 192.333194 
L 336.284264 254.764384 
L 338.53608 200.671464 
L 340.787896 264.948357 
L 343.039712 238.742181 
L 345.291528 247.341066 
L 347.543344 205.493579 
L 349.79516 207.147888 
L 352.046976 212.446937 
L 354.298792 255.816015 
L 356.550608 220.34706 
L 358.802424 246.643078 
L 361.05424 199.68673 
L 363.306056 214.94491 
L 365.557872 193.993702 
L 367.809688 233.865178 
L 370.061504 239.118424 
L 372.31332 226.997271 
L 374.565136 241.287076 
L 376.816952 254.09709 
L 379.068768 138.102087 
L 381.320584 227.744162 
L 383.5724 268.168682 
L 385.824216 210.910581 
L 388.076032 216.228701 
L 390.327848 205.510153 
L 392.579664 217.156309 
L 394.83148 239.280932 
L 397.083296 201.025494 
L 399.335112 257.749795 
L 401.586928 211.139599 
L 403.838744 205.536714 
L 406.09056 245.418006 
L 408.342376 283.319757 
L 410.594192 207.5491 
L 412.846008 237.144567 
L 415.097824 185.768606 
L 417.34964 277.800472 
L 419.601456 246.040701 
L 421.853272 216.252033 
L 424.105088 216.050782 
L 426.356904 202.47373 
L 428.60872 242.233023 
L 430.860536 230.837796 
L 433.112352 223.584132 
L 435.364168 214.240207 
L 437.615984 183.002614 
L 439.8678 223.391275 
L 442.119616 181.190016 
L 444.371432 261.553082 
L 446.623248 199.394087 
L 448.875064 214.042787 
L 451.12688 244.920538 
L 453.378696 193.1125 
L 455.630512 240.864728 
L 457.882328 258.010797 
L 460.134144 189.820843 
L 462.38596 232.76443 
L 464.637776 206.667898 
L 466.889592 158.456343 
L 469.141408 214.695573 
L 471.393224 238.180829 
L 473.64504 243.630246 
L 475.896856 229.356628 
L 478.148672 255.462845 
L 480.400488 216.064428 
L 482.652304 213.572353 
L 484.90412 178.82898 
L 487.155936 195.376418 
L 489.407752 219.119964 
L 491.659568 216.627114 
L 493.911384 234.469708 
L 496.1632 241.297795 
L 498.415016 158.990101 
L 500.666832 181.430398 
L 502.918648 219.790142 
L 505.170464 234.068712 
L 507.42228 249.57442 
L 509.674096 197.892126 
L 511.925912 243.789224 
L 514.177728 232.119822 
L 516.429544 193.027608 
L 518.68136 194.318373 
L 518.68136 194.318373 
" clip-path="url(#pa1090a994d)" style="fill: none; stroke: #8c564b; stroke-width: 1.5; stroke-linecap: square"/>
   </g>
   <g id="line2d_22">
    <path d="M 45.8 59.639871 
L 541.19952 59.639871 
" clip-path="url(#pa1090a994d)" style="fill: none; stroke-dasharray: 1.5,2.475; stroke-dashoffset: 0; stroke: #000000; stroke-width: 1.5"/>
   </g>
   <g id="line2d_23">
    <path d="M 45.8 103.486653 
L 541.19952 103.486653 
" clip-path="url(#pa1090a994d)" style="fill: none; stroke-dasharray: 1.5,2.475; stroke-dashoffset: 0; stroke: #000000; stroke-width: 1.5"/>
   </g>
   <g id="line2d_24">
    <path d="M 45.8 149.267048 
L 541.19952 149.267048 
" clip-path="url(#pa1090a994d)" style="fill: none; stroke-dasharray: 1.5,2.475; stroke-dashoffset: 0; stroke: #000000; stroke-width: 1.5"/>
   </g>
   <g id="line2d_25">
    <path d="M 45.8 194.881931 
L 541.19952 194.881931 
" clip-path="url(#pa1090a994d)" style="fill: none; stroke-dasharray: 1.5,2.475; stroke-dashoffset: 0; stroke: #000000; stroke-width: 1.5"/>
   </g>
   <g id="line2d_26">
    <path d="M 45.8 238.26203 
L 541.19952 238.26203 
" clip-path="url(#pa1090a994d)" style="fill: none; stroke-dasharray: 1.5,2.475; stroke-dashoffset: 0; stroke: #000000; stroke-width: 1.5"/>
   </g>
   <g id="line2d_27">
    <path d="M 45.8 238.26203 
L 541.19952 238.26203 
" clip-path="url(#pa1090a994d)" style="fill: none; stroke-dasharray: 1.5,2.475; stroke-dashoffset: 0; stroke: #000000; stroke-width: 1.5"/>
   </g>
   <g id="patch_3">
    <path d="M 45.8 274.94952 
L 45.8 22.32 
" style="fill: none; stroke: #000000; stroke-width: 0.8; stroke-linejoin: miter; stroke-linecap: square"/>
   </g>
   <g id="patch_4">
    <path d="M 45.8 274.94952 
L 541.19952 274.94952 
" style="fill: none; stroke: #000000; stroke-width: 0.8; stroke-linejoin: miter; stroke-linecap: square"/>
   </g>
   <g id="text_18">
    <!-- Temperature percentiles during the NPT run (8000 H$_2$O) -->
    <g transform="translate(142.11976 16.32) scale(0.12 -0.12)">
     <defs>
      <path id="IBMPlexSans-63" d="M 1773 -77 
C 2400 -77 2829 230 3040 704 
L 2669 954 
C 2490 576 2189 378 1773 378 
C 1165 378 851 794 851 1370 
L 851 1933 
C 851 2509 1165 2925 1773 2925 
C 2176 2925 2458 2726 2579 2387 
L 3008 2605 
C 2816 3059 2426 3379 1773 3379 
C 845 3379 301 2707 301 1651 
C 301 595 845 -77 1773 -77 
z
" transform="scale(0.015625)"/>
      <path id="IBMPlexSans-6e" d="M 1056 0 
L 1056 2291 
C 1056 2714 1453 2918 1862 2918 
C 2355 2918 2611 2618 2611 2029 
L 2611 0 
L 3123 0 
L 3123 2118 
C 3123 2918 2694 3379 2016 3379 
C 1523 3379 1242 3136 1082 2765 
L 1056 2765 
L 1056 3302 
L 544 3302 
L 544 0 
L 1056 0 
z
" transform="scale(0.015625)"/>
      <path id="IBMPlexSans-6c" d="M 1542 0 
L 1542 448 
L 1056 448 
L 1056 4736 
L 544 4736 
L 544 531 
C 544 224 736 0 1088 0 
L 1542 0 
z
" transform="scale(0.015625)"/>
      <path id="IBMPlexSans-64" d="M 2656 0 
L 3168 0 
L 3168 4736 
L 2656 4736 
L 2656 2765 
L 2630 2765 
C 2458 3181 2118 3379 1664 3379 
C 838 3379 320 2707 320 1651 
C 320 595 838 -77 1664 -77 
C 2118 -77 2432 128 2630 538 
L 2656 538 
L 2656 0 
z
M 1805 384 
C 1229 384 870 781 870 1370 
L 870 1933 
C 870 2522 1229 2918 1805 2918 
C 2272 2918 2656 2650 2656 2285 
L 2656 1056 
C 2656 627 2272 384 1805 384 
z
" transform="scale(0.015625)"/>
      <path id="IBMPlexSans-67" d="M 3328 -365 
C 3328 179 2976 512 2157 512 
L 1453 512 
C 1152 512 947 563 947 762 
C 947 966 1165 1075 1382 1133 
C 1478 1114 1594 1101 1702 1101 
C 2458 1101 2950 1568 2950 2240 
C 2950 2592 2810 2886 2573 3091 
L 2573 3302 
L 3200 3302 
L 3200 3750 
L 2707 3750 
C 2432 3750 2323 3565 2323 3309 
L 2323 3251 
C 2144 3334 1933 3379 1696 3379 
C 947 3379 454 2912 454 2240 
C 454 1779 685 1414 1075 1229 
L 1075 1203 
C 742 1120 506 960 506 627 
C 506 403 614 256 800 166 
L 800 96 
C 474 6 275 -186 275 -544 
C 275 -1062 698 -1357 1728 -1357 
C 2790 -1357 3328 -1043 3328 -365 
z
M 2848 -403 
C 2848 -762 2515 -941 1946 -941 
L 1472 -941 
C 954 -941 755 -704 755 -416 
C 755 -211 851 -64 1062 32 
L 2163 32 
C 2675 32 2848 -141 2848 -403 
z
M 1702 1510 
C 1267 1510 992 1715 992 2150 
L 992 2330 
C 992 2765 1267 2970 1702 2970 
C 2138 2970 2413 2765 2413 2330 
L 2413 2150 
C 2413 1715 2138 1510 1702 1510 
z
" transform="scale(0.015625)"/>
      <path id="IBMPlexSans-68" d="M 544 0 
L 1056 0 
L 1056 2291 
C 1056 2714 1453 2918 1862 2918 
C 2355 2918 2611 2618 2611 2029 
L 2611 0 
L 3123 0 
L 3123 2118 
C 3123 2918 2694 3379 2016 3379 
C 1523 3379 1242 3136 1082 2765 
L 1056 2765 
L 1056 4736 
L 544 4736 
L 544 0 
z
" transform="scale(0.015625)"/>
      <path id="IBMPlexSans-4e" d="M 3309 0 
L 3930 0 
L 3930 4467 
L 3405 4467 
L 3405 749 
L 3386 749 
L 2848 1741 
L 1216 4467 
L 595 4467 
L 595 0 
L 1120 0 
L 1120 3718 
L 1139 3718 
L 1677 2726 
L 3309 0 
z
" transform="scale(0.015625)"/>
      <path id="IBMPlexSans-50" d="M 1133 0 
L 1133 1907 
L 2374 1907 
C 3174 1907 3622 2400 3622 3187 
C 3622 3974 3174 4467 2374 4467 
L 595 4467 
L 595 0 
L 1133 0 
z
M 1133 3994 
L 2374 3994 
C 2797 3994 3046 3763 3046 3354 
L 3046 3021 
C 3046 2611 2797 2381 2374 2381 
L 1133 2381 
L 1133 3994 
z
" transform="scale(0.015625)"/>
      <path id="IBMPlexSans-28" d="M 531 1997 
C 531 749 1056 -339 1690 -877 
L 2176 -877 
C 1485 -262 1011 819 1011 1715 
L 1011 2266 
C 1011 3162 1466 4224 2176 4864 
L 1690 4864 
C 1037 4307 531 3232 531 1997 
z
" transform="scale(0.015625)"/>
      <path id="IBMPlexSans-48" d="M 3392 0 
L 3930 0 
L 3930 4467 
L 3392 4467 
L 3392 2496 
L 1133 2496 
L 1133 4467 
L 595 4467 
L 595 0 
L 1133 0 
L 1133 2022 
L 3392 2022 
L 3392 0 
z
" transform="scale(0.015625)"/>
      <path id="DejaVuSans-32" d="M 1228 531 
L 3431 531 
L 3431 0 
L 469 0 
L 469 531 
Q 828 903 1448 1529 
Q 2069 2156 2228 2338 
Q 2531 2678 2651 2914 
Q 2772 3150 2772 3378 
Q 2772 3750 2511 3984 
Q 2250 4219 1831 4219 
Q 1534 4219 1204 4116 
Q 875 4013 500 3803 
L 500 4441 
Q 881 4594 1212 4672 
Q 1544 4750 1819 4750 
Q 2544 4750 2975 4387 
Q 3406 4025 3406 3419 
Q 3406 3131 3298 2873 
Q 3191 2616 2906 2266 
Q 2828 2175 2409 1742 
Q 1991 1309 1228 531 
z
" transform="scale(0.015625)"/>
      <path id="IBMPlexSans-4f" d="M 2266 -77 
C 3418 -77 4160 736 4160 2234 
C 4160 3731 3418 4544 2266 4544 
C 1114 4544 371 3731 371 2234 
C 371 736 1114 -77 2266 -77 
z
M 2266 403 
C 1491 403 947 979 947 1862 
L 947 2605 
C 947 3488 1491 4064 2266 4064 
C 3040 4064 3584 3488 3584 2605 
L 3584 1862 
C 3584 979 3040 403 2266 403 
z
" transform="scale(0.015625)"/>
      <path id="IBMPlexSans-29" d="M 1613 1997 
C 1613 3232 1107 4307 454 4864 
L -32 4864 
C 678 4224 1133 3162 1133 2266 
L 1133 1715 
C 1133 819 659 -262 -32 -877 
L 454 -877 
C 1088 -339 1613 749 1613 1997 
z
" transform="scale(0.015625)"/>
     </defs>
     <use xlink:href="#IBMPlexSans-54"/>
     <use xlink:href="#IBMPlexSans-65" transform="translate(57.199997 0)"/>
     <use xlink:href="#IBMPlexSans-6d" transform="translate(112.099991 0)"/>
     <use xlink:href="#IBMPlexSans-70" transform="translate(199.399979 0)"/>
     <use xlink:href="#IBMPlexSans-65" transform="translate(257.399963 0)"/>
     <use xlink:href="#IBMPlexSans-72" transform="translate(312.299957 0)"/>
     <use xlink:href="#IBMPlexSans-61" transform="translate(348.999954 0)"/>
     <use xlink:href="#IBMPlexSans-74" transform="translate(402.399948 0)"/>
     <use xlink:href="#IBMPlexSans-75" transform="translate(437.499939 0)"/>
     <use xlink:href="#IBMPlexSans-72" transform="translate(494.299927 0)"/>
     <use xlink:href="#IBMPlexSans-65" transform="translate(530.999924 0)"/>
     <use xlink:href="#IBMPlexSans-20" transform="translate(585.899918 0)"/>
     <use xlink:href="#IBMPlexSans-70" transform="translate(609.499908 0)"/>
     <use xlink:href="#IBMPlexSans-65" transform="translate(667.499893 0)"/>
     <use xlink:href="#IBMPlexSans-72" transform="translate(722.399887 0)"/>
     <use xlink:href="#IBMPlexSans-63" transform="translate(759.099884 0)"/>
     <use xlink:href="#IBMPlexSans-65" transform="translate(809.399872 0)"/>
     <use xlink:href="#IBMPlexSans-6e" transform="translate(864.299866 0)"/>
     <use xlink:href="#IBMPlexSans-74" transform="translate(921.099854 0)"/>
     <use xlink:href="#IBMPlexSans-69" transform="translate(956.199844 0)"/>
     <use xlink:href="#IBMPlexSans-6c" transform="translate(981.199829 0)"/>
     <use xlink:href="#IBMPlexSans-65" transform="translate(1008.399826 0)"/>
     <use xlink:href="#IBMPlexSans-73" transform="translate(1063.29982 0)"/>
     <use xlink:href="#IBMPlexSans-20" transform="translate(1111.999817 0)"/>
     <use xlink:href="#IBMPlexSans-64" transform="translate(1135.599808 0)"/>
     <use xlink:href="#IBMPlexSans-75" transform="translate(1193.599792 0)"/>
     <use xlink:href="#IBMPlexSans-72" transform="translate(1250.39978 0)"/>
     <use xlink:href="#IBMPlexSans-69" transform="translate(1287.099777 0)"/>
     <use xlink:href="#IBMPlexSans-6e" transform="translate(1312.099762 0)"/>
     <use xlink:href="#IBMPlexSans-67" transform="translate(1368.89975 0)"/>
     <use xlink:href="#IBMPlexSans-20" transform="translate(1421.699738 0)"/>
     <use xlink:href="#IBMPlexSans-74" transform="translate(1445.299728 0)"/>
     <use xlink:href="#IBMPlexSans-68" transform="translate(1480.399719 0)"/>
     <use xlink:href="#IBMPlexSans-65" transform="translate(1537.199707 0)"/>
     <use xlink:href="#IBMPlexSans-20" transform="translate(1592.099701 0)"/>
     <use xlink:href="#IBMPlexSans-4e" transform="translate(1615.699692 0)"/>
     <use xlink:href="#IBMPlexSans-50" transform="translate(1686.399673 0)"/>
     <use xlink:href="#IBMPlexSans-54" transform="translate(1746.999664 0)"/>
     <use xlink:href="#IBMPlexSans-20" transform="translate(1804.199661 0)"/>
     <use xlink:href="#IBMPlexSans-72" transform="translate(1827.799652 0)"/>
     <use xlink:href="#IBMPlexSans-75" transform="translate(1864.499649 0)"/>
     <use xlink:href="#IBMPlexSans-6e" transform="translate(1921.299637 0)"/>
     <use xlink:href="#IBMPlexSans-20" transform="translate(1978.099625 0)"/>
     <use xlink:href="#IBMPlexSans-28" transform="translate(2001.699615 0)"/>
     <use xlink:href="#IBMPlexSans-38" transform="translate(2035.1996 0)"/>
     <use xlink:href="#IBMPlexSans-30" transform="translate(2095.199585 0)"/>
     <use xlink:href="#IBMPlexSans-30" transform="translate(2155.19957 0)"/>
     <use xlink:href="#IBMPlexSans-30" transform="translate(2215.199554 0)"/>
     <use xlink:href="#IBMPlexSans-20" transform="translate(2275.199539 0)"/>
     <use xlink:href="#IBMPlexSans-48" transform="translate(2298.79953 0)"/>
     <use xlink:href="#DejaVuSans-32" transform="translate(2370.456543 -16.40625) scale(0.7)"/>
     <use xlink:href="#IBMPlexSans-4f" transform="translate(2417.727051 0)"/>
     <use xlink:href="#IBMPlexSans-29" transform="translate(2488.527039 0)"/>
    </g>
   </g>
   <g id="legend_1">
    <g id="patch_5">
     <path d="M 478.569832 116.72 
L 534.19952 116.72 
Q 536.19952 116.72 536.19952 114.72 
L 536.19952 29.32 
Q 536.19952 27.32 534.19952 27.32 
L 478.569832 27.32 
Q 476.569832 27.32 476.569832 29.32 
L 476.569832 114.72 
Q 476.569832 116.72 478.569832 116.72 
z
" style="fill: #ffffff; opacity: 0.8; stroke: #cccccc; stroke-linejoin: miter"/>
    </g>
    <g id="line2d_28">
     <path d="M 480.569832 35.22 
L 490.569832 35.22 
L 500.569832 35.22 
" style="fill: none; stroke: #1f77b4; stroke-width: 1.5; stroke-linecap: square"/>
    </g>
    <g id="text_19">
     <!-- 95 % -->
     <g transform="translate(508.569832 38.72) scale(0.1 -0.1)">
      <defs>
       <path id="IBMPlexSans-25" d="M 1664 0 
L 4762 4467 
L 4269 4467 
L 1171 0 
L 1664 0 
z
M 1427 2010 
C 2074 2010 2438 2458 2438 3277 
C 2438 4096 2074 4544 1427 4544 
C 781 4544 416 4096 416 3277 
C 416 2458 781 2010 1427 2010 
z
M 1427 2342 
C 1056 2342 877 2598 877 3085 
L 877 3469 
C 877 3955 1056 4211 1427 4211 
C 1798 4211 1978 3955 1978 3469 
L 1978 3085 
C 1978 2598 1798 2342 1427 2342 
z
M 4506 -77 
C 5152 -77 5517 371 5517 1190 
C 5517 2010 5152 2458 4506 2458 
C 3859 2458 3494 2010 3494 1190 
C 3494 371 3859 -77 4506 -77 
z
M 4506 256 
C 4134 256 3955 512 3955 998 
L 3955 1382 
C 3955 1869 4134 2125 4506 2125 
C 4877 2125 5056 1869 5056 1382 
L 5056 998 
C 5056 512 4877 256 4506 256 
z
" transform="scale(0.015625)"/>
      </defs>
      <use xlink:href="#IBMPlexSans-39"/>
      <use xlink:href="#IBMPlexSans-35" transform="translate(59.999985 0)"/>
      <use xlink:href="#IBMPlexSans-20" transform="translate(119.999969 0)"/>
      <use xlink:href="#IBMPlexSans-25" transform="translate(143.59996 0)"/>
     </g>
    </g>
    <g id="line2d_29">
     <path d="M 480.569832 49.62 
L 490.569832 49.62 
L 500.569832 49.62 
" style="fill: none; stroke: #ff7f0e; stroke-width: 1.5; stroke-linecap: square"/>
    </g>
    <g id="text_20">
     <!-- 80 % -->
     <g transform="translate(508.569832 53.12) scale(0.1 -0.1)">
      <use xlink:href="#IBMPlexSans-38"/>
      <use xlink:href="#IBMPlexSans-30" transform="translate(59.999985 0)"/>
      <use xlink:href="#IBMPlexSans-20" transform="translate(119.999969 0)"/>
      <use xlink:href="#IBMPlexSans-25" transform="translate(143.59996 0)"/>
     </g>
    </g>
    <g id="line2d_30">
     <path d="M 480.569832 64.02 
L 490.569832 64.02 
L 500.569832 64.02 
" style="fill: none; stroke: #2ca02c; stroke-width: 1.5; stroke-linecap: square"/>
    </g>
    <g id="text_21">
     <!-- 50 % -->
     <g transform="translate(508.569832 67.52) scale(0.1 -0.1)">
      <use xlink:href="#IBMPlexSans-35"/>
      <use xlink:href="#IBMPlexSans-30" transform="translate(59.999985 0)"/>
      <use xlink:href="#IBMPlexSans-20" transform="translate(119.999969 0)"/>
      <use xlink:href="#IBMPlexSans-25" transform="translate(143.59996 0)"/>
     </g>
    </g>
    <g id="line2d_31">
     <path d="M 480.569832 78.42 
L 490.569832 78.42 
L 500.569832 78.42 
" style="fill: none; stroke: #d62728; stroke-width: 1.5; stroke-linecap: square"/>
    </g>
    <g id="text_22">
     <!-- 20 % -->
     <g transform="translate(508.569832 81.92) scale(0.1 -0.1)">
      <use xlink:href="#IBMPlexSans-32"/>
      <use xlink:href="#IBMPlexSans-30" transform="translate(59.999985 0)"/>
      <use xlink:href="#IBMPlexSans-20" transform="translate(119.999969 0)"/>
      <use xlink:href="#IBMPlexSans-25" transform="translate(143.59996 0)"/>
     </g>
    </g>
    <g id="line2d_32">
     <path d="M 480.569832 92.82 
L 490.569832 92.82 
L 500.569832 92.82 
" style="fill: none; stroke: #9467bd; stroke-width: 1.5; stroke-linecap: square"/>
    </g>
    <g id="text_23">
     <!-- 5 % -->
     <g transform="translate(508.569832 96.32) scale(0.1 -0.1)">
      <use xlink:href="#IBMPlexSans-35"/>
      <use xlink:href="#IBMPlexSans-20" transform="translate(59.999985 0)"/>
      <use xlink:href="#IBMPlexSans-25" transform="translate(83.599976 0)"/>
     </g>
    </g>
    <g id="line2d_33">
     <path d="M 480.569832 107.22 
L 490.569832 107.22 
L 500.569832 107.22 
" style="fill: none; stroke: #8c564b; stroke-width: 1.5; stroke-linecap: square"/>
    </g>
    <g id="text_24">
     <!-- 5 % -->
     <g transform="translate(508.569832 110.72) scale(0.1 -0.1)">
      <use xlink:href="#IBMPlexSans-35"/>
      <use xlink:href="#IBMPlexSans-20" transform="translate(59.999985 0)"/>
      <use xlink:href="#IBMPlexSans-25" transform="translate(83.599976 0)"/>
     </g>
    </g>
   </g>
  </g>
 </g>
 <defs>
  <clipPath id="pa1090a994d">
   <rect x="45.8" y="22.32" width="495.39952" height="252.62952"/>
  </clipPath>
 </defs>
</svg>