<?xml version="1.0" encoding="utf-8" standalone="no"?>
<!DOCTYPE svg PUBLIC "-//W3C//DTD SVG 1.1//EN"
  "http://www.w3.org/Graphics/SVG/1.1/DTD/svg11.dtd">
<svg xmlns:xlink="http://www.w3.org/1999/xlink" width="548.39952pt" height="312.14952pt" viewBox="0 0 548.39952 312.14952" xmlns="http://www.w3.org/2000/svg" version="1.1">
 <metadata>
  <rdf:RDF xmlns:dc="http://purl.org/dc/elements/1.1/" xmlns:cc="http://creativecommons.org/ns#" xmlns:rdf="http://www.w3.org/1999/02/22-rdf-syntax-ns#">
   <cc:Work>
    <dc:type rdf:resource="http://purl.org/dc/dcmitype/StillImage"/>
    <dc:date>2025-06-25T08:39:08.974097</dc:date>
    <dc:format>image/svg+xml</dc:format>
    <dc:creator>
     <cc:Agent>
      <dc:title>Matplotlib v3.10.1, https://matplotlib.org/</dc:title>
     </cc:Agent>
    </dc:creator>
   </cc:Work>
  </rdf:RDF>
 </metadata>
 <defs>
  <style type="text/css">*{stroke-linejoin: round; stroke-linecap: butt}</style>
 </defs>
 <g id="figure_1">
  <g id="patch_1">
   <path d="M 0 312.14952 
L 548.39952 312.14952 
L 548.39952 0 
L 0 0 
z
" style="fill: #ffffff"/>
  </g>
  <g id="axes_1">
   <g id="patch_2">
    <path d="M 48.520313 274.94952 
L 541.19952 274.94952 
L 541.19952 22.32 
L 48.520313 22.32 
z
" style="fill: #ffffff"/>
   </g>
   <g id="matplotlib.axis_1">
    <g id="xtick_1">
     <g id="line2d_1">
      <defs>
       <path id="mf83652bd91" d="M 0 0 
L 0 3.5 
" style="stroke: #000000; stroke-width: 0.8"/>
      </defs>
      <g>
       <use xlink:href="#mf83652bd91" x="70.466483" y="274.94952" style="stroke: #000000; stroke-width: 0.8"/>
      </g>
     </g>
     <g id="text_1">
      <!-- 0.0 -->
      <g transform="translate(63.106327 289.34952) scale(0.1 -0.1)">
       <defs>
        <path id="IBMPlexSans-30" d="M 1920 -77 
C 2989 -77 3456 774 3456 2234 
C 3456 3693 2989 4544 1920 4544 
C 851 4544 384 3693 384 2234 
C 384 774 851 -77 1920 -77 
z
M 1920 390 
C 1222 390 947 1005 947 1869 
L 947 2598 
C 947 3462 1222 4077 1920 4077 
C 2618 4077 2893 3462 2893 2598 
L 2893 1869 
C 2893 1005 2618 390 1920 390 
z
" transform="scale(0.015625)"/>
        <path id="IBMPlexSans-2e" d="M 870 -77 
C 1139 -77 1261 77 1261 294 
L 1261 378 
C 1261 595 1139 749 870 749 
C 602 749 480 595 480 378 
L 480 294 
C 480 77 602 -77 870 -77 
z
" transform="scale(0.015625)"/>
       </defs>
       <use xlink:href="#IBMPlexSans-30"/>
       <use xlink:href="#IBMPlexSans-2e" transform="translate(59.999985 0)"/>
       <use xlink:href="#IBMPlexSans-30" transform="translate(87.199982 0)"/>
      </g>
     </g>
    </g>
    <g id="xtick_2">
     <g id="line2d_2">
      <g>
       <use xlink:href="#mf83652bd91" x="160.134185" y="274.94952" style="stroke: #000000; stroke-width: 0.8"/>
      </g>
     </g>
     <g id="text_2">
      <!-- 0.2 -->
      <g transform="translate(152.774028 289.34952) scale(0.1 -0.1)">
       <defs>
        <path id="IBMPlexSans-32" d="M 3411 474 
L 1062 474 
L 2266 1555 
C 2835 2067 3245 2554 3245 3245 
C 3245 4006 2746 4544 1875 4544 
C 1011 4544 614 4019 442 3494 
L 922 3309 
C 1043 3731 1299 4064 1850 4064 
C 2400 4064 2675 3725 2675 3232 
L 2675 3155 
C 2675 2726 2355 2278 1939 1894 
L 480 550 
L 480 0 
L 3411 0 
L 3411 474 
z
" transform="scale(0.015625)"/>
       </defs>
       <use xlink:href="#IBMPlexSans-30"/>
       <use xlink:href="#IBMPlexSans-2e" transform="translate(59.999985 0)"/>
       <use xlink:href="#IBMPlexSans-32" transform="translate(87.199982 0)"/>
      </g>
     </g>
    </g>
    <g id="xtick_3">
     <g id="line2d_3">
      <g>
       <use xlink:href="#mf83652bd91" x="249.801886" y="274.94952" style="stroke: #000000; stroke-width: 0.8"/>
      </g>
     </g>
     <g id="text_3">
      <!-- 0.4 -->
      <g transform="translate(242.44173 289.34952) scale(0.1 -0.1)">
       <defs>
        <path id="IBMPlexSans-34" d="M 2912 0 
L 2912 877 
L 3558 877 
L 3558 1325 
L 2912 1325 
L 2912 4467 
L 2112 4467 
L 243 1350 
L 243 877 
L 2400 877 
L 2400 0 
L 2912 0 
z
M 2368 4051 
L 2400 4051 
L 2400 1325 
L 749 1325 
L 2368 4051 
z
" transform="scale(0.015625)"/>
       </defs>
       <use xlink:href="#IBMPlexSans-30"/>
       <use xlink:href="#IBMPlexSans-2e" transform="translate(59.999985 0)"/>
       <use xlink:href="#IBMPlexSans-34" transform="translate(87.199982 0)"/>
      </g>
     </g>
    </g>
    <g id="xtick_4">
     <g id="line2d_4">
      <g>
       <use xlink:href="#mf83652bd91" x="339.469587" y="274.94952" style="stroke: #000000; stroke-width: 0.8"/>
      </g>
     </g>
     <g id="text_4">
      <!-- 0.6 -->
      <g transform="translate(332.109431 289.34952) scale(0.1 -0.1)">
       <defs>
        <path id="IBMPlexSans-36" d="M 1926 -77 
C 2822 -77 3411 525 3411 1402 
C 3411 2246 2861 2778 2093 2778 
C 1549 2778 1229 2502 1018 2138 
L 986 2150 
C 1229 3187 1760 3770 2714 4467 
L 2022 4467 
C 1306 4000 429 2963 429 1638 
C 429 576 998 -77 1926 -77 
z
M 1920 390 
C 1331 390 986 730 986 1331 
L 986 1382 
C 986 1984 1331 2323 1920 2323 
C 2509 2323 2854 1984 2854 1382 
L 2854 1331 
C 2854 730 2509 390 1920 390 
z
" transform="scale(0.015625)"/>
       </defs>
       <use xlink:href="#IBMPlexSans-30"/>
       <use xlink:href="#IBMPlexSans-2e" transform="translate(59.999985 0)"/>
       <use xlink:href="#IBMPlexSans-36" transform="translate(87.199982 0)"/>
      </g>
     </g>
    </g>
    <g id="xtick_5">
     <g id="line2d_5">
      <g>
       <use xlink:href="#mf83652bd91" x="429.137288" y="274.94952" style="stroke: #000000; stroke-width: 0.8"/>
      </g>
     </g>
     <g id="text_5">
      <!-- 0.8 -->
      <g transform="translate(421.777132 289.34952) scale(0.1 -0.1)">
       <defs>
        <path id="IBMPlexSans-38" d="M 1920 -77 
C 2938 -77 3469 480 3469 1216 
C 3469 1824 3104 2176 2566 2323 
L 2566 2374 
C 3034 2534 3334 2912 3334 3424 
C 3334 4102 2810 4544 1920 4544 
C 1030 4544 506 4102 506 3424 
C 506 2912 806 2534 1274 2374 
L 1274 2323 
C 736 2176 371 1824 371 1216 
C 371 480 902 -77 1920 -77 
z
M 1920 390 
C 1299 390 941 685 941 1190 
L 941 1325 
C 941 1830 1299 2125 1920 2125 
C 2541 2125 2899 1830 2899 1325 
L 2899 1190 
C 2899 685 2541 390 1920 390 
z
M 1920 2573 
C 1363 2573 1062 2822 1062 3277 
L 1062 3373 
C 1062 3827 1363 4077 1920 4077 
C 2477 4077 2778 3827 2778 3373 
L 2778 3277 
C 2778 2822 2477 2573 1920 2573 
z
" transform="scale(0.015625)"/>
       </defs>
       <use xlink:href="#IBMPlexSans-30"/>
       <use xlink:href="#IBMPlexSans-2e" transform="translate(59.999985 0)"/>
       <use xlink:href="#IBMPlexSans-38" transform="translate(87.199982 0)"/>
      </g>
     </g>
    </g>
    <g id="xtick_6">
     <g id="line2d_6">
      <g>
       <use xlink:href="#mf83652bd91" x="518.804989" y="274.94952" style="stroke: #000000; stroke-width: 0.8"/>
      </g>
     </g>
     <g id="text_6">
      <!-- 1.0 -->
      <g transform="translate(511.444833 289.34952) scale(0.1 -0.1)">
       <defs>
        <path id="IBMPlexSans-31" d="M 3501 0 
L 3501 474 
L 2349 474 
L 2349 4467 
L 1510 4467 
L 326 3360 
L 640 3021 
L 1766 4070 
L 1811 4070 
L 1811 474 
L 563 474 
L 563 0 
L 3501 0 
z
" transform="scale(0.015625)"/>
       </defs>
       <use xlink:href="#IBMPlexSans-31"/>
       <use xlink:href="#IBMPlexSans-2e" transform="translate(59.999985 0)"/>
       <use xlink:href="#IBMPlexSans-30" transform="translate(87.199982 0)"/>
      </g>
     </g>
    </g>
    <g id="text_7">
     <!-- Frequency [THz] -->
     <g transform="translate(258.083354 302.94952) scale(0.1 -0.1)">
      <defs>
       <path id="IBMPlexSans-46" d="M 1133 0 
L 1133 2022 
L 3072 2022 
L 3072 2496 
L 1133 2496 
L 1133 3994 
L 3258 3994 
L 3258 4467 
L 595 4467 
L 595 0 
L 1133 0 
z
" transform="scale(0.015625)"/>
       <path id="IBMPlexSans-72" d="M 1056 0 
L 1056 2240 
C 1056 2554 1389 2790 1939 2790 
L 2240 2790 
L 2240 3302 
L 2042 3302 
C 1504 3302 1203 3008 1088 2694 
L 1056 2694 
L 1056 3302 
L 544 3302 
L 544 0 
L 1056 0 
z
" transform="scale(0.015625)"/>
       <path id="IBMPlexSans-65" d="M 1786 -77 
C 2406 -77 2880 230 3091 678 
L 2726 941 
C 2554 576 2234 371 1818 371 
C 1203 371 838 800 838 1370 
L 838 1523 
L 3213 1523 
L 3213 1766 
C 3213 2701 2669 3379 1786 3379 
C 890 3379 301 2701 301 1651 
C 301 602 890 -77 1786 -77 
z
M 1786 2950 
C 2310 2950 2662 2560 2662 1978 
L 2662 1907 
L 838 1907 
L 838 1952 
C 838 2528 1229 2950 1786 2950 
z
" transform="scale(0.015625)"/>
       <path id="IBMPlexSans-71" d="M 2656 -1280 
L 3168 -1280 
L 3168 3302 
L 2656 3302 
L 2656 2765 
L 2630 2765 
C 2458 3181 2118 3379 1664 3379 
C 838 3379 320 2707 320 1651 
C 320 595 838 -77 1664 -77 
C 2118 -77 2432 128 2630 538 
L 2656 538 
L 2656 -1280 
z
M 1805 384 
C 1229 384 870 781 870 1370 
L 870 1933 
C 870 2522 1229 2918 1805 2918 
C 2272 2918 2656 2650 2656 2285 
L 2656 1056 
C 2656 627 2272 384 1805 384 
z
" transform="scale(0.015625)"/>
       <path id="IBMPlexSans-75" d="M 2579 0 
L 3091 0 
L 3091 3302 
L 2579 3302 
L 2579 1018 
C 2579 582 2182 384 1779 384 
C 1286 384 1024 685 1024 1274 
L 1024 3302 
L 512 3302 
L 512 1184 
C 512 384 947 -77 1626 -77 
C 2176 -77 2426 224 2554 538 
L 2579 538 
L 2579 0 
z
" transform="scale(0.015625)"/>
       <path id="IBMPlexSans-6e" d="M 1056 0 
L 1056 2291 
C 1056 2714 1453 2918 1862 2918 
C 2355 2918 2611 2618 2611 2029 
L 2611 0 
L 3123 0 
L 3123 2118 
C 3123 2918 2694 3379 2016 3379 
C 1523 3379 1242 3136 1082 2765 
L 1056 2765 
L 1056 3302 
L 544 3302 
L 544 0 
L 1056 0 
z
" transform="scale(0.015625)"/>
       <path id="IBMPlexSans-63" d="M 1773 -77 
C 2400 -77 2829 230 3040 704 
L 2669 954 
C 2490 576 2189 378 1773 378 
C 1165 378 851 794 851 1370 
L 851 1933 
C 851 2509 1165 2925 1773 2925 
C 2176 2925 2458 2726 2579 2387 
L 3008 2605 
C 2816 3059 2426 3379 1773 3379 
C 845 3379 301 2707 301 1651 
C 301 595 845 -77 1773 -77 
z
" transform="scale(0.015625)"/>
       <path id="IBMPlexSans-79" d="M 1779 1056 
L 1600 518 
L 1568 518 
L 1414 1056 
L 621 3302 
L 109 3302 
L 1344 -128 
L 1094 -832 
L 576 -832 
L 576 -1280 
L 838 -1280 
C 1325 -1280 1459 -1165 1606 -768 
L 3085 3302 
L 2579 3302 
L 1779 1056 
z
" transform="scale(0.015625)"/>
       <path id="IBMPlexSans-20" transform="scale(0.015625)"/>
       <path id="IBMPlexSans-5b" d="M 1645 -883 
L 1645 -480 
L 1037 -480 
L 1037 4461 
L 1645 4461 
L 1645 4864 
L 595 4864 
L 595 -883 
L 1645 -883 
z
" transform="scale(0.015625)"/>
       <path id="IBMPlexSans-54" d="M 3520 3994 
L 3520 4467 
L 141 4467 
L 141 3994 
L 1562 3994 
L 1562 0 
L 2099 0 
L 2099 3994 
L 3520 3994 
z
" transform="scale(0.015625)"/>
       <path id="IBMPlexSans-48" d="M 3392 0 
L 3930 0 
L 3930 4467 
L 3392 4467 
L 3392 2496 
L 1133 2496 
L 1133 4467 
L 595 4467 
L 595 0 
L 1133 0 
L 1133 2022 
L 3392 2022 
L 3392 0 
z
" transform="scale(0.015625)"/>
       <path id="IBMPlexSans-7a" d="M 2758 0 
L 2758 448 
L 794 448 
L 2707 2918 
L 2707 3302 
L 269 3302 
L 269 2854 
L 2086 2854 
L 211 429 
L 211 0 
L 2758 0 
z
" transform="scale(0.015625)"/>
       <path id="IBMPlexSans-5d" d="M 384 4864 
L 384 4461 
L 992 4461 
L 992 -480 
L 384 -480 
L 384 -883 
L 1434 -883 
L 1434 4864 
L 384 4864 
z
" transform="scale(0.015625)"/>
      </defs>
      <use xlink:href="#IBMPlexSans-46"/>
      <use xlink:href="#IBMPlexSans-72" transform="translate(55.899994 0)"/>
      <use xlink:href="#IBMPlexSans-65" transform="translate(92.599991 0)"/>
      <use xlink:href="#IBMPlexSans-71" transform="translate(147.499985 0)"/>
      <use xlink:href="#IBMPlexSans-75" transform="translate(205.499969 0)"/>
      <use xlink:href="#IBMPlexSans-65" transform="translate(262.299957 0)"/>
      <use xlink:href="#IBMPlexSans-6e" transform="translate(317.199951 0)"/>
      <use xlink:href="#IBMPlexSans-63" transform="translate(373.999939 0)"/>
      <use xlink:href="#IBMPlexSans-79" transform="translate(424.299927 0)"/>
      <use xlink:href="#IBMPlexSans-20" transform="translate(474.199921 0)"/>
      <use xlink:href="#IBMPlexSans-5b" transform="translate(497.799911 0)"/>
      <use xlink:href="#IBMPlexSans-54" transform="translate(529.499908 0)"/>
      <use xlink:href="#IBMPlexSans-48" transform="translate(586.699905 0)"/>
      <use xlink:href="#IBMPlexSans-7a" transform="translate(657.399887 0)"/>
      <use xlink:href="#IBMPlexSans-5d" transform="translate(703.799881 0)"/>
     </g>
    </g>
   </g>
   <g id="matplotlib.axis_2">
    <g id="ytick_1">
     <g id="line2d_7">
      <defs>
       <path id="ma0844077a4" d="M 0 0 
L -3.5 0 
" style="stroke: #000000; stroke-width: 0.8"/>
      </defs>
      <g>
       <use xlink:href="#ma0844077a4" x="48.520313" y="242.537113" style="stroke: #000000; stroke-width: 0.8"/>
      </g>
     </g>
     <g id="text_8">
      <!-- $\mathdefault{10^{-1}}$ -->
      <g transform="translate(20.720313 246.237113) scale(0.1 -0.1)">
       <defs>
        <path id="IBMPlexSans-2212" d="M 3411 1734 
L 3411 2170 
L 429 2170 
L 429 1734 
L 3411 1734 
z
" transform="scale(0.015625)"/>
       </defs>
       <use xlink:href="#IBMPlexSans-31" transform="translate(0 0.026563)"/>
       <use xlink:href="#IBMPlexSans-30" transform="translate(59.999985 0.026563)"/>
       <use xlink:href="#IBMPlexSans-2212" transform="translate(120.90286 36.142188) scale(0.7)"/>
       <use xlink:href="#IBMPlexSans-31" transform="translate(162.902849 36.142188) scale(0.7)"/>
      </g>
     </g>
    </g>
    <g id="ytick_2">
     <g id="line2d_8">
      <g>
       <use xlink:href="#ma0844077a4" x="48.520313" y="111.345105" style="stroke: #000000; stroke-width: 0.8"/>
      </g>
     </g>
     <g id="text_9">
      <!-- $\mathdefault{10^{0}}$ -->
      <g transform="translate(24.920313 115.045105) scale(0.1 -0.1)">
       <use xlink:href="#IBMPlexSans-31" transform="translate(0 0.184375)"/>
       <use xlink:href="#IBMPlexSans-30" transform="translate(59.999985 0.184375)"/>
       <use xlink:href="#IBMPlexSans-30" transform="translate(120.90286 36.3) scale(0.7)"/>
      </g>
     </g>
    </g>
    <g id="ytick_3">
     <g id="line2d_9">
      <defs>
       <path id="m8cdd0eb863" d="M 0 0 
L -2 0 
" style="stroke: #000000; stroke-width: 0.6"/>
      </defs>
      <g>
       <use xlink:href="#m8cdd0eb863" x="48.520313" y="271.641896" style="stroke: #000000; stroke-width: 0.6"/>
      </g>
     </g>
    </g>
    <g id="ytick_4">
     <g id="line2d_10">
      <g>
       <use xlink:href="#m8cdd0eb863" x="48.520313" y="262.859013" style="stroke: #000000; stroke-width: 0.6"/>
      </g>
     </g>
    </g>
    <g id="ytick_5">
     <g id="line2d_11">
      <g>
       <use xlink:href="#m8cdd0eb863" x="48.520313" y="255.250933" style="stroke: #000000; stroke-width: 0.6"/>
      </g>
     </g>
    </g>
    <g id="ytick_6">
     <g id="line2d_12">
      <g>
       <use xlink:href="#m8cdd0eb863" x="48.520313" y="248.54013" style="stroke: #000000; stroke-width: 0.6"/>
      </g>
     </g>
    </g>
    <g id="ytick_7">
     <g id="line2d_13">
      <g>
       <use xlink:href="#m8cdd0eb863" x="48.520313" y="203.044384" style="stroke: #000000; stroke-width: 0.6"/>
      </g>
     </g>
    </g>
    <g id="ytick_8">
     <g id="line2d_14">
      <g>
       <use xlink:href="#m8cdd0eb863" x="48.520313" y="179.942618" style="stroke: #000000; stroke-width: 0.6"/>
      </g>
     </g>
    </g>
    <g id="ytick_9">
     <g id="line2d_15">
      <g>
       <use xlink:href="#m8cdd0eb863" x="48.520313" y="163.551654" style="stroke: #000000; stroke-width: 0.6"/>
      </g>
     </g>
    </g>
    <g id="ytick_10">
     <g id="line2d_16">
      <g>
       <use xlink:href="#m8cdd0eb863" x="48.520313" y="150.837835" style="stroke: #000000; stroke-width: 0.6"/>
      </g>
     </g>
    </g>
    <g id="ytick_11">
     <g id="line2d_17">
      <g>
       <use xlink:href="#m8cdd0eb863" x="48.520313" y="140.449888" style="stroke: #000000; stroke-width: 0.6"/>
      </g>
     </g>
    </g>
    <g id="ytick_12">
     <g id="line2d_18">
      <g>
       <use xlink:href="#m8cdd0eb863" x="48.520313" y="131.667004" style="stroke: #000000; stroke-width: 0.6"/>
      </g>
     </g>
    </g>
    <g id="ytick_13">
     <g id="line2d_19">
      <g>
       <use xlink:href="#m8cdd0eb863" x="48.520313" y="124.058924" style="stroke: #000000; stroke-width: 0.6"/>
      </g>
     </g>
    </g>
    <g id="ytick_14">
     <g id="line2d_20">
      <g>
       <use xlink:href="#m8cdd0eb863" x="48.520313" y="117.348122" style="stroke: #000000; stroke-width: 0.6"/>
      </g>
     </g>
    </g>
    <g id="ytick_15">
     <g id="line2d_21">
      <g>
       <use xlink:href="#m8cdd0eb863" x="48.520313" y="71.852376" style="stroke: #000000; stroke-width: 0.6"/>
      </g>
     </g>
    </g>
    <g id="ytick_16">
     <g id="line2d_22">
      <g>
       <use xlink:href="#m8cdd0eb863" x="48.520313" y="48.75061" style="stroke: #000000; stroke-width: 0.6"/>
      </g>
     </g>
    </g>
    <g id="ytick_17">
     <g id="line2d_23">
      <g>
       <use xlink:href="#m8cdd0eb863" x="48.520313" y="32.359646" style="stroke: #000000; stroke-width: 0.6"/>
      </g>
     </g>
    </g>
    <g id="text_10">
     <!-- Relative Degrees of Freedom -->
     <g transform="translate(14.6 213.466791) rotate(-90) scale(0.1 -0.1)">
      <defs>
       <path id="IBMPlexSans-52" d="M 1133 1920 
L 2176 1920 
L 3142 0 
L 3750 0 
L 2726 1971 
C 3309 2106 3622 2547 3622 3200 
C 3622 4013 3155 4467 2374 4467 
L 595 4467 
L 595 0 
L 1133 0 
L 1133 1920 
z
M 1133 2381 
L 1133 3994 
L 2374 3994 
C 2797 3994 3046 3763 3046 3354 
L 3046 3021 
C 3046 2611 2797 2381 2374 2381 
L 1133 2381 
z
" transform="scale(0.015625)"/>
       <path id="IBMPlexSans-6c" d="M 1542 0 
L 1542 448 
L 1056 448 
L 1056 4736 
L 544 4736 
L 544 531 
C 544 224 736 0 1088 0 
L 1542 0 
z
" transform="scale(0.015625)"/>
       <path id="IBMPlexSans-61" d="M 3232 0 
L 3232 448 
L 2854 448 
L 2854 2266 
C 2854 2963 2381 3379 1587 3379 
C 992 3379 595 3085 416 2733 
L 723 2445 
C 902 2746 1165 2938 1562 2938 
C 2086 2938 2342 2682 2342 2214 
L 2342 1888 
L 1690 1888 
C 730 1888 282 1542 282 922 
C 282 307 691 -77 1389 -77 
C 1850 -77 2202 134 2342 538 
L 2374 538 
C 2413 230 2566 0 2944 0 
L 3232 0 
z
M 1472 358 
C 1075 358 819 544 819 870 
L 819 1005 
C 819 1325 1082 1504 1664 1504 
L 2342 1504 
L 2342 960 
C 2342 621 1978 358 1472 358 
z
" transform="scale(0.015625)"/>
       <path id="IBMPlexSans-74" d="M 1914 0 
L 1914 448 
L 1242 448 
L 1242 2854 
L 1965 2854 
L 1965 3302 
L 1242 3302 
L 1242 4218 
L 781 4218 
L 781 3603 
C 781 3379 710 3302 493 3302 
L 186 3302 
L 186 2854 
L 730 2854 
L 730 544 
C 730 224 922 0 1274 0 
L 1914 0 
z
" transform="scale(0.015625)"/>
       <path id="IBMPlexSans-69" d="M 800 4077 
C 1018 4077 1114 4192 1114 4365 
L 1114 4448 
C 1114 4621 1018 4736 800 4736 
C 582 4736 486 4621 486 4448 
L 486 4365 
C 486 4192 582 4077 800 4077 
z
M 544 0 
L 1056 0 
L 1056 3302 
L 544 3302 
L 544 0 
z
" transform="scale(0.015625)"/>
       <path id="IBMPlexSans-76" d="M 1869 0 
L 3034 3302 
L 2541 3302 
L 1952 1664 
L 1594 538 
L 1562 538 
L 1203 1664 
L 627 3302 
L 115 3302 
L 1274 0 
L 1869 0 
z
" transform="scale(0.015625)"/>
       <path id="IBMPlexSans-44" d="M 595 0 
L 2093 0 
C 3206 0 3923 742 3923 2234 
C 3923 3725 3206 4467 2093 4467 
L 595 4467 
L 595 0 
z
M 1133 474 
L 1133 3994 
L 2093 3994 
C 2829 3994 3347 3482 3347 2598 
L 3347 1869 
C 3347 986 2829 474 2093 474 
L 1133 474 
z
" transform="scale(0.015625)"/>
       <path id="IBMPlexSans-67" d="M 3328 -365 
C 3328 179 2976 512 2157 512 
L 1453 512 
C 1152 512 947 563 947 762 
C 947 966 1165 1075 1382 1133 
C 1478 1114 1594 1101 1702 1101 
C 2458 1101 2950 1568 2950 2240 
C 2950 2592 2810 2886 2573 3091 
L 2573 3302 
L 3200 3302 
L 3200 3750 
L 2707 3750 
C 2432 3750 2323 3565 2323 3309 
L 2323 3251 
C 2144 3334 1933 3379 1696 3379 
C 947 3379 454 2912 454 2240 
C 454 1779 685 1414 1075 1229 
L 1075 1203 
C 742 1120 506 960 506 627 
C 506 403 614 256 800 166 
L 800 96 
C 474 6 275 -186 275 -544 
C 275 -1062 698 -1357 1728 -1357 
C 2790 -1357 3328 -1043 3328 -365 
z
M 2848 -403 
C 2848 -762 2515 -941 1946 -941 
L 1472 -941 
C 954 -941 755 -704 755 -416 
C 755 -211 851 -64 1062 32 
L 2163 32 
C 2675 32 2848 -141 2848 -403 
z
M 1702 1510 
C 1267 1510 992 1715 992 2150 
L 992 2330 
C 992 2765 1267 2970 1702 2970 
C 2138 2970 2413 2765 2413 2330 
L 2413 2150 
C 2413 1715 2138 1510 1702 1510 
z
" transform="scale(0.015625)"/>
       <path id="IBMPlexSans-73" d="M 1536 -77 
C 2291 -77 2758 314 2758 954 
C 2758 1453 2477 1773 1747 1882 
L 1491 1920 
C 1082 1984 858 2112 858 2432 
C 858 2746 1082 2944 1504 2944 
C 1926 2944 2208 2746 2355 2541 
L 2694 2848 
C 2426 3181 2074 3379 1542 3379 
C 870 3379 365 3059 365 2406 
C 365 1792 819 1542 1427 1453 
L 1690 1414 
C 2125 1350 2266 1152 2266 896 
C 2266 557 2010 358 1574 358 
C 1158 358 851 544 595 864 
L 230 570 
C 525 179 928 -77 1536 -77 
z
" transform="scale(0.015625)"/>
       <path id="IBMPlexSans-6f" d="M 1792 -77 
C 2675 -77 3283 602 3283 1651 
C 3283 2701 2675 3379 1792 3379 
C 909 3379 301 2701 301 1651 
C 301 602 909 -77 1792 -77 
z
M 1792 378 
C 1242 378 851 717 851 1414 
L 851 1888 
C 851 2586 1242 2925 1792 2925 
C 2342 2925 2733 2586 2733 1888 
L 2733 1414 
C 2733 717 2342 378 1792 378 
z
" transform="scale(0.015625)"/>
       <path id="IBMPlexSans-66" d="M 723 0 
L 1235 0 
L 1235 2854 
L 1946 2854 
L 1946 3302 
L 1235 3302 
L 1235 4288 
L 1946 4288 
L 1946 4736 
L 1446 4736 
C 960 4736 723 4422 723 3968 
L 723 3302 
L 186 3302 
L 186 2854 
L 723 2854 
L 723 0 
z
" transform="scale(0.015625)"/>
       <path id="IBMPlexSans-64" d="M 2656 0 
L 3168 0 
L 3168 4736 
L 2656 4736 
L 2656 2765 
L 2630 2765 
C 2458 3181 2118 3379 1664 3379 
C 838 3379 320 2707 320 1651 
C 320 595 838 -77 1664 -77 
C 2118 -77 2432 128 2630 538 
L 2656 538 
L 2656 0 
z
M 1805 384 
C 1229 384 870 781 870 1370 
L 870 1933 
C 870 2522 1229 2918 1805 2918 
C 2272 2918 2656 2650 2656 2285 
L 2656 1056 
C 2656 627 2272 384 1805 384 
z
" transform="scale(0.015625)"/>
       <path id="IBMPlexSans-6d" d="M 1056 0 
L 1056 2291 
C 1056 2714 1440 2918 1843 2918 
C 2330 2918 2554 2618 2554 2029 
L 2554 0 
L 3066 0 
L 3066 2291 
C 3066 2714 3437 2918 3840 2918 
C 4339 2918 4563 2611 4563 2029 
L 4563 0 
L 5075 0 
L 5075 2118 
C 5075 2918 4672 3379 4000 3379 
C 3437 3379 3117 3066 2995 2707 
L 2982 2707 
C 2803 3181 2406 3379 1971 3379 
C 1459 3379 1229 3104 1082 2765 
L 1056 2765 
L 1056 3302 
L 544 3302 
L 544 0 
L 1056 0 
z
" transform="scale(0.015625)"/>
      </defs>
      <use xlink:href="#IBMPlexSans-52"/>
      <use xlink:href="#IBMPlexSans-65" transform="translate(63.999985 0)"/>
      <use xlink:href="#IBMPlexSans-6c" transform="translate(118.899979 0)"/>
      <use xlink:href="#IBMPlexSans-61" transform="translate(146.099976 0)"/>
      <use xlink:href="#IBMPlexSans-74" transform="translate(199.499969 0)"/>
      <use xlink:href="#IBMPlexSans-69" transform="translate(234.59996 0)"/>
      <use xlink:href="#IBMPlexSans-76" transform="translate(259.599945 0)"/>
      <use xlink:href="#IBMPlexSans-65" transform="translate(308.799942 0)"/>
      <use xlink:href="#IBMPlexSans-20" transform="translate(363.699936 0)"/>
      <use xlink:href="#IBMPlexSans-44" transform="translate(387.299927 0)"/>
      <use xlink:href="#IBMPlexSans-65" transform="translate(454.399918 0)"/>
      <use xlink:href="#IBMPlexSans-67" transform="translate(509.299911 0)"/>
      <use xlink:href="#IBMPlexSans-72" transform="translate(562.099899 0)"/>
      <use xlink:href="#IBMPlexSans-65" transform="translate(598.799896 0)"/>
      <use xlink:href="#IBMPlexSans-65" transform="translate(653.69989 0)"/>
      <use xlink:href="#IBMPlexSans-73" transform="translate(708.599884 0)"/>
      <use xlink:href="#IBMPlexSans-20" transform="translate(757.299881 0)"/>
      <use xlink:href="#IBMPlexSans-6f" transform="translate(780.899872 0)"/>
      <use xlink:href="#IBMPlexSans-66" transform="translate(836.899857 0)"/>
      <use xlink:href="#IBMPlexSans-20" transform="translate(869.29985 0)"/>
      <use xlink:href="#IBMPlexSans-46" transform="translate(892.899841 0)"/>
      <use xlink:href="#IBMPlexSans-72" transform="translate(948.799835 0)"/>
      <use xlink:href="#IBMPlexSans-65" transform="translate(985.499832 0)"/>
      <use xlink:href="#IBMPlexSans-65" transform="translate(1040.399826 0)"/>
      <use xlink:href="#IBMPlexSans-64" transform="translate(1095.29982 0)"/>
      <use xlink:href="#IBMPlexSans-6f" transform="translate(1153.299805 0)"/>
      <use xlink:href="#IBMPlexSans-6d" transform="translate(1209.299789 0)"/>
     </g>
    </g>
   </g>
   <g id="line2d_24">
    <path d="M 70.914822 241.293379 
L 71.36316 232.972931 
L 71.811499 227.002784 
L 72.259838 228.225627 
L 72.708176 237.696095 
L 73.156515 223.858556 
L 73.604853 247.639518 
L 74.053192 244.15119 
L 74.50153 239.74 
L 74.949869 232.894928 
L 75.398207 232.076142 
L 75.846546 224.705433 
L 76.294884 233.638209 
L 76.743223 250.68552 
L 77.191561 244.787248 
L 77.6399 240.622664 
L 78.088238 243.339922 
L 78.536577 232.568237 
L 78.984915 243.511136 
L 79.433254 263.46636 
L 79.881592 239.314579 
L 80.329931 236.534064 
L 80.77827 239.904645 
L 81.226608 258.494738 
L 81.674947 241.499107 
L 82.123285 240.299281 
L 82.571624 246.107728 
L 83.019962 246.560915 
L 83.468301 247.714433 
L 83.916639 225.254907 
L 84.364978 224.522904 
L 84.813316 247.114402 
L 85.261655 232.159486 
L 85.709993 229.287265 
L 86.158332 233.473778 
L 86.60667 252.528353 
L 87.055009 236.848112 
L 87.503347 251.69372 
L 87.951686 241.632424 
L 88.400024 222.1656 
L 89.296702 255.501822 
L 89.74504 227.872162 
L 90.193379 226.130084 
L 90.641717 247.417307 
L 91.090056 251.890287 
L 91.538394 252.488729 
L 91.986733 251.206014 
L 92.435071 241.698244 
L 92.88341 242.252442 
L 93.331748 238.864459 
L 93.780087 216.440522 
L 94.228425 223.693643 
L 95.125102 243.380285 
L 95.573441 248.271056 
L 96.021779 230.662777 
L 96.470118 199.818071 
L 96.918457 235.722804 
L 97.366795 231.79826 
L 97.815134 213.678511 
L 98.263472 213.1359 
L 98.711811 247.661282 
L 99.160149 223.453479 
L 99.608488 236.461242 
L 100.056826 226.968354 
L 100.505165 231.438034 
L 100.953503 228.812868 
L 101.401842 235.93273 
L 101.85018 236.135016 
L 102.298519 226.073182 
L 102.746857 222.998608 
L 103.195196 226.483662 
L 103.643534 219.146494 
L 104.091873 244.397029 
L 104.540211 234.410327 
L 104.98855 208.875492 
L 105.436889 233.754459 
L 106.781904 225.782186 
L 107.230243 202.17324 
L 107.678581 203.337024 
L 108.12692 243.746786 
L 108.575258 210.892026 
L 109.023597 225.001511 
L 109.471935 212.136703 
L 110.368612 236.244023 
L 110.816951 233.954444 
L 111.265289 210.083808 
L 111.713628 232.573086 
L 112.161966 219.409227 
L 112.610305 219.875937 
L 113.058643 226.953047 
L 113.506982 221.469076 
L 113.955321 222.020174 
L 114.403659 192.832774 
L 114.851998 223.212008 
L 115.300336 227.020194 
L 115.748675 222.244385 
L 116.197013 250.957419 
L 116.645352 235.23784 
L 117.09369 226.122782 
L 117.542029 227.064195 
L 117.990367 249.006688 
L 118.438706 239.4152 
L 118.887044 182.098218 
L 119.335383 228.182463 
L 119.783721 230.762188 
L 120.23206 232.22284 
L 120.680398 235.614367 
L 121.128737 220.664848 
L 121.577076 221.261468 
L 122.025414 228.757604 
L 122.473753 254.218192 
L 122.922091 213.755785 
L 123.37043 233.110115 
L 123.818768 195.199978 
L 124.267107 223.216109 
L 124.715445 206.373371 
L 125.163784 229.0527 
L 125.612122 215.765638 
L 126.060461 232.59334 
L 126.508799 231.937104 
L 126.957138 254.182935 
L 127.853815 218.314554 
L 128.302153 210.548243 
L 128.750492 232.272967 
L 129.19883 218.577566 
L 129.647169 220.63187 
L 130.095508 185.638986 
L 130.543846 228.744214 
L 130.992185 247.410001 
L 131.440523 222.478322 
L 131.888862 233.367589 
L 132.3372 225.454828 
L 132.785539 235.390248 
L 133.233877 231.229595 
L 133.682216 235.463459 
L 134.130554 218.349333 
L 134.578893 222.249788 
L 135.027231 229.417222 
L 135.47557 222.479251 
L 135.923908 218.532652 
L 136.372247 240.916616 
L 136.820585 232.983864 
L 137.268924 215.601808 
L 137.717262 227.956546 
L 138.165601 234.181588 
L 138.61394 237.314186 
L 139.062278 234.189417 
L 139.510617 226.334568 
L 139.958955 222.143249 
L 140.407294 236.330708 
L 140.855632 234.397639 
L 141.303971 239.345318 
L 141.752309 214.397209 
L 142.200648 204.22075 
L 143.097325 229.351493 
L 143.545663 237.843601 
L 143.994002 228.859607 
L 144.890679 222.011461 
L 145.339017 236.815115 
L 145.787356 225.258664 
L 146.235694 204.558181 
L 146.684033 210.518877 
L 147.132372 210.502676 
L 148.029049 229.269224 
L 148.477387 208.74543 
L 148.925726 206.733398 
L 149.374064 228.154063 
L 149.822403 175.802827 
L 150.270741 217.493338 
L 150.71908 232.703262 
L 151.167418 179.884364 
L 151.615757 197.444307 
L 152.064095 229.130241 
L 152.512434 184.535316 
L 152.960772 171.75448 
L 153.409111 220.219525 
L 153.857449 206.230652 
L 154.305788 209.045985 
L 154.754127 209.671935 
L 155.202465 242.061833 
L 155.650804 213.866188 
L 156.547481 197.842037 
L 156.995819 236.8273 
L 157.444158 206.014349 
L 157.892496 195.051881 
L 158.340835 208.582751 
L 158.789173 201.879587 
L 159.237512 208.904131 
L 159.68585 207.471466 
L 160.134189 184.291456 
L 160.582527 241.59071 
L 161.030866 219.395828 
L 161.479204 221.357487 
L 161.927543 222.202078 
L 162.375881 230.491314 
L 162.82422 211.414216 
L 163.272559 200.866642 
L 163.720897 202.202215 
L 164.169236 199.216255 
L 164.617574 185.423801 
L 165.065913 214.608059 
L 165.514251 218.746544 
L 165.96259 200.292938 
L 166.410928 209.113385 
L 166.859267 204.719572 
L 167.307605 198.391939 
L 167.755944 146.790477 
L 168.204282 191.483839 
L 168.652621 190.246837 
L 169.100959 213.424657 
L 169.549298 214.306213 
L 169.997636 201.780164 
L 170.445975 158.588465 
L 170.894313 187.203355 
L 171.342652 192.528303 
L 171.790991 227.679505 
L 172.239329 194.914549 
L 172.687668 199.799202 
L 173.136006 213.367781 
L 173.584345 192.28932 
L 174.032683 191.485137 
L 174.92936 204.583076 
L 175.377699 203.679868 
L 175.826037 206.088556 
L 176.274376 201.381125 
L 176.722714 164.760874 
L 177.171053 188.109073 
L 177.619391 200.247922 
L 178.06773 216.154714 
L 178.516068 200.833959 
L 178.964407 223.464944 
L 179.412746 216.333935 
L 179.861084 223.420877 
L 180.309423 194.738501 
L 180.757761 198.486857 
L 181.2061 220.439572 
L 181.654438 189.992476 
L 182.102777 196.752212 
L 182.551115 173.714071 
L 182.999454 229.11216 
L 183.447792 202.117356 
L 183.896131 216.253042 
L 184.344469 194.826098 
L 184.792808 218.772387 
L 185.241146 190.611332 
L 185.689485 184.870178 
L 186.137823 210.140865 
L 186.586162 168.101009 
L 187.0345 226.69265 
L 187.482839 225.388518 
L 187.931178 203.02415 
L 188.379516 207.868187 
L 188.827855 178.654035 
L 189.276193 179.872806 
L 189.724532 203.081897 
L 190.17287 183.949089 
L 190.621209 215.823715 
L 191.069547 207.966162 
L 191.517886 178.201277 
L 192.414563 225.254004 
L 192.862901 208.096605 
L 193.31124 234.965288 
L 193.759578 226.079615 
L 194.207917 220.77577 
L 194.656255 211.388643 
L 195.104594 208.845587 
L 195.552932 141.004272 
L 196.001271 199.946465 
L 196.44961 180.874106 
L 196.897948 227.102582 
L 197.346287 180.446725 
L 197.794625 179.810488 
L 198.242964 226.733223 
L 198.691302 209.729174 
L 199.139641 212.537081 
L 199.587979 201.473864 
L 200.036318 209.268327 
L 200.484656 236.13685 
L 200.932995 195.15951 
L 201.381333 204.094528 
L 201.829672 182.72142 
L 202.27801 179.891247 
L 202.726349 216.819417 
L 203.174687 203.198805 
L 203.623026 207.332115 
L 204.071364 192.902887 
L 204.519703 203.122888 
L 204.968042 166.348482 
L 205.41638 201.425523 
L 205.864719 213.942 
L 206.313057 180.889991 
L 206.761396 185.393486 
L 207.209734 200.799141 
L 207.658073 158.097756 
L 208.106411 194.400355 
L 208.55475 207.241223 
L 209.003088 194.851596 
L 209.451427 191.818437 
L 209.899765 159.531694 
L 210.348104 180.370583 
L 210.796442 171.109498 
L 211.244781 198.918099 
L 211.693119 207.279775 
L 212.141458 206.955842 
L 213.038135 199.045552 
L 213.486474 185.00229 
L 213.934812 186.427069 
L 214.383151 177.308043 
L 214.831489 181.73062 
L 215.279828 176.931572 
L 215.728166 168.798126 
L 216.176505 211.855555 
L 216.624843 215.918244 
L 217.073182 197.532994 
L 217.52152 187.060074 
L 217.969859 194.215117 
L 218.418197 192.827696 
L 218.866536 209.791236 
L 219.314874 188.750773 
L 219.763213 224.426629 
L 220.211551 170.926858 
L 220.65989 196.18097 
L 221.108229 189.48209 
L 221.556567 190.088879 
L 222.004906 201.679969 
L 222.453244 197.618521 
L 222.901583 178.555164 
L 223.349921 174.056365 
L 223.79826 204.354884 
L 224.246598 195.965339 
L 224.694937 220.973146 
L 225.143275 224.489124 
L 225.591614 200.116786 
L 226.039952 190.372992 
L 226.488291 194.793232 
L 226.936629 220.460829 
L 227.384968 180.004323 
L 227.833306 205.115103 
L 228.281645 176.302045 
L 228.729983 185.11473 
L 229.178322 171.505746 
L 229.626661 179.778986 
L 230.074999 208.656618 
L 230.523338 206.726911 
L 230.971676 202.72438 
L 231.420015 186.343048 
L 231.868353 182.552455 
L 232.316692 180.094896 
L 232.76503 194.336894 
L 233.213369 180.601022 
L 233.661707 187.445252 
L 234.110046 173.474087 
L 234.558384 163.897315 
L 235.006723 195.157012 
L 235.455061 187.188174 
L 235.9034 182.55962 
L 236.351738 185.852421 
L 236.800077 210.407571 
L 237.248416 163.033766 
L 237.696754 191.449978 
L 238.145093 166.656668 
L 238.593431 208.597164 
L 239.04177 183.37234 
L 239.490108 187.68557 
L 239.938447 175.430764 
L 240.386785 151.932282 
L 240.835124 177.325044 
L 241.283462 188.374293 
L 241.731801 187.06882 
L 242.180139 195.556684 
L 242.628478 152.26404 
L 243.525155 202.03906 
L 243.973493 194.714307 
L 244.421832 147.145893 
L 244.87017 198.320031 
L 245.318509 157.443419 
L 246.215186 219.802995 
L 246.663525 206.902832 
L 247.111863 163.564828 
L 247.560202 200.698984 
L 248.00854 195.090729 
L 248.456879 175.725536 
L 248.905217 209.999985 
L 249.353556 168.8369 
L 249.801894 192.633563 
L 250.250233 150.935032 
L 250.698571 154.400361 
L 251.14691 111.008983 
L 251.595248 187.646312 
L 252.043587 142.818796 
L 252.491925 81.058945 
L 252.940264 169.673027 
L 253.388602 160.11872 
L 253.836941 179.642771 
L 254.28528 182.783185 
L 254.733618 178.360109 
L 255.181957 146.029478 
L 255.630295 164.465803 
L 256.078634 143.598845 
L 256.975311 189.372038 
L 257.423649 136.597407 
L 257.871988 192.535088 
L 258.768665 164.546686 
L 259.217003 137.969317 
L 259.665342 163.184024 
L 260.11368 179.381028 
L 260.562019 208.934555 
L 261.010357 192.843453 
L 261.458696 140.471192 
L 261.907035 168.01289 
L 262.355373 154.944561 
L 262.803712 185.934727 
L 263.25205 193.367439 
L 263.700389 158.085605 
L 264.148727 139.214583 
L 264.597066 177.143053 
L 265.045404 144.828402 
L 265.493743 157.1011 
L 265.942081 139.117438 
L 266.39042 172.579829 
L 266.838758 170.654471 
L 267.287097 151.439458 
L 267.735435 203.116444 
L 268.183774 150.443148 
L 268.632112 168.355913 
L 269.080451 171.840243 
L 269.528789 172.048745 
L 269.977128 165.578441 
L 270.425467 126.88877 
L 270.873805 191.383826 
L 271.322144 164.296477 
L 271.770482 170.048412 
L 272.218821 161.330878 
L 272.667159 168.657636 
L 273.115498 213.672885 
L 273.563836 187.03739 
L 274.012175 138.423554 
L 274.460513 147.655076 
L 275.35719 186.275235 
L 275.805529 188.792448 
L 276.253867 170.4934 
L 276.702206 192.003198 
L 277.150544 158.673948 
L 277.598883 195.619242 
L 278.047221 186.305663 
L 278.49556 138.652518 
L 278.943899 189.886915 
L 279.392237 179.355188 
L 279.840576 191.087229 
L 280.288914 205.749548 
L 280.737253 164.020012 
L 281.185591 172.341084 
L 281.63393 183.779534 
L 282.082268 151.168539 
L 282.530607 210.322326 
L 282.978945 166.997479 
L 283.427284 197.751462 
L 283.875622 202.02557 
L 284.323961 176.521848 
L 284.772299 166.60177 
L 285.220638 164.278958 
L 285.668976 138.003829 
L 286.117315 186.396313 
L 286.565653 170.923661 
L 287.013992 164.109856 
L 287.462331 173.785353 
L 287.910669 170.354287 
L 288.359008 163.798536 
L 288.807346 176.503066 
L 289.255685 148.275747 
L 289.704023 186.040655 
L 290.152362 150.90138 
L 290.6007 174.763018 
L 291.049039 148.824965 
L 291.497377 189.433496 
L 291.945716 196.876921 
L 292.394054 154.857262 
L 292.842393 167.726573 
L 293.290731 149.52761 
L 293.73907 188.816672 
L 294.187408 126.237594 
L 294.635747 178.721062 
L 295.084086 158.757278 
L 295.532424 180.178312 
L 295.980763 180.985586 
L 296.429101 154.841825 
L 296.87744 121.232691 
L 297.325778 188.299153 
L 297.774117 123.914566 
L 298.222455 165.471159 
L 298.670794 130.735684 
L 299.119132 164.867124 
L 300.015809 166.786975 
L 300.464148 159.087405 
L 300.912486 186.504645 
L 301.360825 189.862366 
L 301.809163 132.552767 
L 302.257502 122.30969 
L 303.154179 187.633087 
L 303.602518 173.977181 
L 304.050856 182.332961 
L 304.499195 181.309006 
L 305.395872 163.604686 
L 305.84421 176.887993 
L 306.292549 166.99316 
L 306.740887 183.215861 
L 307.189226 178.994691 
L 307.637564 155.510169 
L 308.085903 181.914015 
L 308.534241 172.232065 
L 308.98258 154.127841 
L 309.430918 152.443046 
L 309.879257 192.660927 
L 310.327595 191.402906 
L 310.775934 153.278558 
L 311.224272 178.323458 
L 311.672611 167.005723 
L 312.12095 86.248918 
L 312.569288 187.914273 
L 313.017627 164.390506 
L 313.465965 157.029877 
L 313.914304 181.205515 
L 314.362642 143.188062 
L 314.810981 178.716887 
L 315.259319 199.349755 
L 315.707658 173.858755 
L 316.155996 160.91778 
L 316.604335 167.435359 
L 317.052673 170.307949 
L 317.501012 153.838568 
L 317.94935 173.105656 
L 318.397689 179.416092 
L 318.846027 131.300643 
L 319.294366 167.459071 
L 319.742705 142.181465 
L 320.191043 190.343646 
L 320.639382 163.445434 
L 321.08772 172.436133 
L 321.536059 103.439353 
L 321.984397 167.0507 
L 322.432736 139.626142 
L 322.881074 135.732011 
L 323.329413 156.169638 
L 323.777751 140.523246 
L 324.674428 145.60778 
L 325.122767 170.094925 
L 325.571105 163.744706 
L 326.019444 170.615753 
L 326.467782 150.976627 
L 326.916121 190.414128 
L 327.364459 142.69785 
L 327.812798 135.701961 
L 328.261137 155.274272 
L 328.709475 181.488797 
L 329.157814 166.782688 
L 329.606152 135.974324 
L 330.054491 170.543354 
L 330.502829 120.572699 
L 330.951168 143.851805 
L 331.399506 178.710364 
L 331.847845 143.058727 
L 332.296183 180.608238 
L 332.744522 57.39522 
L 333.19286 153.3034 
L 333.641199 126.520415 
L 334.089537 138.089404 
L 334.537876 174.360934 
L 334.986214 144.210253 
L 335.434553 177.688546 
L 335.882891 135.921665 
L 336.33123 150.163021 
L 336.779569 160.578125 
L 337.227907 174.476048 
L 337.676246 154.297434 
L 338.124584 140.578367 
L 338.572923 110.736982 
L 339.021261 140.775548 
L 339.4696 128.725799 
L 339.917938 103.772002 
L 340.366277 156.094969 
L 340.814615 130.887173 
L 341.262954 120.991546 
L 341.711292 159.121766 
L 342.607969 123.342072 
L 343.056308 149.706801 
L 343.504646 135.576418 
L 343.952985 171.16137 
L 344.401324 152.254739 
L 344.849662 153.13527 
L 345.298001 132.36206 
L 345.746339 172.4994 
L 346.194678 151.587308 
L 346.643016 194.848414 
L 347.091355 130.027622 
L 347.539693 144.503028 
L 347.988032 147.618296 
L 348.43637 164.022263 
L 348.884709 188.127985 
L 349.333047 154.266797 
L 349.781386 172.731746 
L 350.229724 156.813068 
L 351.126401 191.098428 
L 351.57474 150.720042 
L 352.023078 149.419338 
L 352.471417 195.138895 
L 353.368094 115.185104 
L 353.816433 139.372664 
L 354.264771 171.798929 
L 354.71311 176.650213 
L 355.161448 163.875433 
L 355.609787 175.496209 
L 356.506464 87.404581 
L 356.954802 180.029285 
L 357.403141 141.971117 
L 357.851479 140.077942 
L 358.299818 149.742446 
L 358.748156 180.73474 
L 359.196495 174.920528 
L 359.644833 108.277159 
L 360.093172 185.365599 
L 360.54151 123.76196 
L 360.989849 165.177816 
L 361.438188 184.311206 
L 361.886526 165.330159 
L 362.334865 170.698158 
L 362.783203 182.996929 
L 363.231542 150.854879 
L 363.67988 153.650558 
L 364.128219 140.561925 
L 364.576557 185.631488 
L 365.024896 170.761869 
L 365.473234 182.78067 
L 365.921573 175.874651 
L 366.369911 159.856462 
L 366.81825 123.925823 
L 367.266588 172.182827 
L 367.714927 170.459224 
L 368.163265 181.521945 
L 368.611604 134.751508 
L 369.059942 183.665173 
L 369.508281 159.5251 
L 369.95662 165.155643 
L 370.853297 128.691227 
L 371.301635 163.634666 
L 371.749974 188.000875 
L 372.198312 156.199221 
L 372.646651 160.078262 
L 373.094989 157.095787 
L 373.543328 143.141378 
L 373.991666 122.289839 
L 374.888343 162.796531 
L 375.336682 151.520167 
L 375.78502 183.056039 
L 376.233359 165.754808 
L 376.681697 134.764901 
L 377.130036 113.411463 
L 377.578375 175.95853 
L 378.026713 145.921373 
L 378.475052 151.766359 
L 378.92339 162.263975 
L 379.371729 154.603699 
L 379.820067 169.254211 
L 380.716744 133.987922 
L 381.165083 138.599487 
L 381.613421 164.106591 
L 382.06176 88.877059 
L 382.510098 143.865778 
L 382.958437 172.695721 
L 383.406775 151.349164 
L 383.855114 102.129737 
L 384.303452 203.519698 
L 384.751791 135.787307 
L 385.200129 94.927575 
L 385.648468 166.595722 
L 386.096807 122.370075 
L 386.993484 191.527734 
L 387.441822 161.226351 
L 387.890161 159.227182 
L 388.338499 164.739771 
L 388.786838 162.840695 
L 389.235176 195.434537 
L 390.131853 141.255624 
L 390.580192 146.616358 
L 391.02853 156.663439 
L 391.476869 133.274542 
L 391.925207 167.46399 
L 392.373546 132.566614 
L 392.821884 133.183745 
L 393.270223 192.340875 
L 393.718561 129.467237 
L 394.1669 118.091634 
L 394.615239 183.707128 
L 395.063577 154.616678 
L 395.511916 166.748664 
L 395.960254 169.883418 
L 396.408593 137.294843 
L 396.856931 129.884112 
L 397.30527 133.043074 
L 397.753608 154.023011 
L 398.201947 115.977512 
L 398.650285 107.472994 
L 399.098624 167.83476 
L 399.546962 131.884719 
L 399.995301 159.705985 
L 400.443639 163.308235 
L 400.891978 127.550387 
L 401.340316 111.615988 
L 401.788655 145.462329 
L 402.236994 157.208457 
L 402.685332 125.769071 
L 403.133671 144.004479 
L 403.582009 143.669311 
L 404.030348 157.761194 
L 404.478686 137.136725 
L 404.927025 164.27445 
L 405.375363 98.990651 
L 405.823702 131.632709 
L 406.27204 138.475845 
L 406.720379 163.452938 
L 407.168717 148.4027 
L 407.617056 116.470832 
L 408.065394 154.239643 
L 408.513733 136.662031 
L 408.962071 169.883245 
L 409.41041 154.641925 
L 409.858748 122.689116 
L 410.307087 129.955522 
L 410.755426 188.116647 
L 411.203764 179.459794 
L 411.652103 181.964204 
L 412.54878 109.1867 
L 412.997118 139.263429 
L 413.445457 135.722868 
L 413.893795 121.542036 
L 414.342134 161.821903 
L 414.790472 151.299717 
L 415.238811 170.800507 
L 415.687149 155.217721 
L 416.135488 163.108328 
L 416.583826 142.006529 
L 417.032165 184.210611 
L 417.480503 138.846685 
L 417.928842 148.460147 
L 418.37718 154.4341 
L 418.825519 134.575095 
L 419.273858 87.161499 
L 419.722196 96.637079 
L 420.170535 76.986474 
L 420.618873 127.554099 
L 421.067212 147.854921 
L 421.51555 161.973703 
L 421.963889 185.510865 
L 422.412227 158.065187 
L 422.860566 140.221582 
L 423.308904 153.491263 
L 423.757243 163.149466 
L 424.205581 135.027136 
L 424.65392 162.835715 
L 425.102258 147.116512 
L 425.550597 168.080304 
L 425.998935 197.807843 
L 426.447274 140.545095 
L 426.895612 175.322284 
L 427.343951 117.852019 
L 427.79229 130.823578 
L 428.240628 180.926951 
L 428.688967 111.140321 
L 429.137305 193.6068 
L 429.585644 114.14393 
L 430.033982 138.317844 
L 430.482321 153.555892 
L 430.930659 142.456202 
L 431.378998 56.963482 
L 431.827336 147.843753 
L 432.275675 136.692967 
L 433.172352 166.001792 
L 433.62069 158.865067 
L 434.069029 172.808785 
L 434.517367 159.441892 
L 434.965706 130.21185 
L 435.414045 137.633027 
L 435.862383 121.427511 
L 436.310722 153.553225 
L 436.75906 111.42419 
L 437.207399 92.392921 
L 437.655737 163.324338 
L 438.104076 107.311669 
L 438.552414 139.766199 
L 439.000753 128.342072 
L 439.449091 169.873877 
L 439.89743 113.260657 
L 440.345768 140.470662 
L 440.794107 129.39241 
L 441.242445 151.440613 
L 441.690784 144.919748 
L 442.139122 174.269286 
L 443.035799 99.38837 
L 443.484138 140.147653 
L 443.932477 169.175168 
L 444.380815 172.739745 
L 444.829154 174.352399 
L 445.277492 134.303888 
L 445.725831 160.107432 
L 446.174169 179.445593 
L 446.622508 184.309417 
L 447.070846 51.655206 
L 447.519185 144.491089 
L 447.967523 197.214789 
L 448.415862 151.729783 
L 448.8642 152.668716 
L 449.312539 159.906981 
L 449.760877 119.467784 
L 450.209216 161.821374 
L 450.657554 127.274589 
L 451.105893 164.263003 
L 451.554231 133.670179 
L 452.00257 89.664988 
L 452.450909 149.934924 
L 452.899247 160.393267 
L 453.347586 116.933642 
L 453.795924 122.535647 
L 454.244263 147.15844 
L 454.692601 143.100276 
L 455.14094 144.056653 
L 455.589278 132.030797 
L 456.037617 133.984215 
L 456.485955 109.157042 
L 456.934294 182.402072 
L 457.382632 144.473458 
L 457.830971 163.422037 
L 458.279309 82.150988 
L 458.727648 113.812167 
L 459.175986 154.338018 
L 459.624325 33.80316 
L 460.072664 143.092924 
L 460.521002 114.115781 
L 460.969341 154.592183 
L 461.417679 157.397914 
L 461.866018 147.304388 
L 462.314356 92.616926 
L 462.762695 145.021008 
L 463.211033 124.398104 
L 463.659372 152.48427 
L 464.10771 59.244288 
L 464.556049 132.91463 
L 465.004387 164.527363 
L 465.452726 131.160392 
L 465.901064 121.843518 
L 466.349403 136.963438 
L 466.797741 98.14993 
L 467.24608 108.356381 
L 467.694418 99.288279 
L 468.142757 81.481669 
L 468.591096 115.109539 
L 469.039434 130.446192 
L 469.487773 64.049733 
L 469.936111 110.824281 
L 470.38445 137.844914 
L 470.832788 123.964218 
L 471.281127 103.734042 
L 471.729465 149.019301 
L 472.177804 133.051881 
L 472.626142 142.042532 
L 473.074481 133.366912 
L 473.522819 144.771311 
L 473.971158 147.781285 
L 474.419496 119.896347 
L 474.867835 120.963118 
L 475.316173 123.236984 
L 475.764512 144.482338 
L 476.21285 78.3911 
L 477.109528 181.530123 
L 477.557866 160.301342 
L 478.006205 122.538988 
L 478.454543 145.540758 
L 478.902882 150.767922 
L 479.35122 149.282901 
L 479.799559 166.132228 
L 480.247897 107.309416 
L 480.696236 131.576544 
L 481.144574 125.882572 
L 481.592913 150.340303 
L 482.48959 103.589311 
L 482.937928 160.552974 
L 483.386267 160.906023 
L 483.834605 148.591754 
L 484.282944 165.340709 
L 484.731283 45.204423 
L 485.179621 137.28212 
L 485.62796 151.211793 
L 486.076298 147.633337 
L 486.524637 116.290179 
L 486.972975 149.581158 
L 487.421314 142.723093 
L 487.869652 94.422237 
L 488.317991 151.892469 
L 488.766329 112.579982 
L 489.214668 146.112634 
L 489.663006 141.093491 
L 490.111345 144.570444 
L 490.559683 135.752247 
L 491.008022 152.135867 
L 491.45636 136.849308 
L 491.904699 142.851399 
L 492.353037 111.331164 
L 492.801376 120.742693 
L 493.249715 144.803394 
L 493.698053 148.849455 
L 494.146392 77.171067 
L 494.59473 63.223635 
L 495.043069 184.778264 
L 495.491407 128.549041 
L 495.939746 149.212381 
L 496.388084 137.266583 
L 496.836423 145.463944 
L 497.284761 133.132339 
L 497.7331 77.835346 
L 498.181438 181.38136 
L 498.629777 160.079758 
L 499.078115 174.673693 
L 499.526454 136.79783 
L 499.974792 142.577705 
L 500.423131 152.000117 
L 500.871469 117.614078 
L 501.319808 96.353183 
L 501.768147 148.987545 
L 502.216485 152.814195 
L 503.113162 104.319464 
L 503.561501 135.264714 
L 504.009839 142.084252 
L 504.458178 127.541865 
L 504.906516 87.249495 
L 505.354855 165.793773 
L 505.803193 105.300762 
L 506.251532 135.119143 
L 506.69987 147.718484 
L 507.148209 138.320599 
L 507.596547 140.570692 
L 508.044886 136.223859 
L 508.493224 107.820172 
L 508.941563 125.77737 
L 509.389901 166.077038 
L 509.83824 130.631121 
L 510.286579 133.350885 
L 510.734917 81.521202 
L 511.183256 133.220745 
L 511.631594 157.158938 
L 512.079933 84.32858 
L 512.528271 161.933031 
L 512.97661 142.772665 
L 513.424948 142.661116 
L 513.873287 144.484902 
L 514.769964 125.971858 
L 515.218302 94.608076 
L 515.666641 143.943406 
L 516.114979 151.706623 
L 516.563318 98.885161 
L 517.011656 121.202794 
L 517.459995 164.608567 
L 518.356672 102.673665 
L 518.805011 174.83289 
L 518.805011 174.83289 
" clip-path="url(#pc7820228c8)" style="fill: none; stroke: #1f77b4; stroke-width: 1.5; stroke-linecap: square"/>
   </g>
   <g id="line2d_25">
    <path d="M 70.914822 237.558739 
L 77.191561 237.436212 
L 83.468301 237.100945 
L 90.193379 236.510986 
L 96.918457 235.69136 
L 103.643534 234.654429 
L 110.816951 233.325797 
L 118.438706 231.685171 
L 126.508799 229.7204 
L 135.47557 227.302571 
L 145.339017 224.410284 
L 156.995819 220.754883 
L 172.239329 215.723774 
L 230.971676 196.092061 
L 247.111863 191.0602 
L 262.355373 186.537619 
L 277.150544 182.375812 
L 291.945716 178.44329 
L 306.740887 174.738952 
L 321.984397 171.155529 
L 337.227907 167.800166 
L 352.919756 164.573198 
L 369.059942 161.481129 
L 385.648468 158.528178 
L 403.133671 155.645436 
L 421.067212 152.915385 
L 439.89743 150.27578 
L 459.624325 147.738288 
L 480.247897 145.3118 
L 501.768147 143.002605 
L 518.805011 141.32077 
L 518.805011 141.32077 
" clip-path="url(#pc7820228c8)" style="fill: none; stroke-dasharray: 5.55,2.4; stroke-dashoffset: 0; stroke: #ff0000; stroke-width: 1.5"/>
   </g>
   <g id="patch_3">
    <path d="M 48.520313 274.94952 
L 48.520313 22.32 
" style="fill: none; stroke: #000000; stroke-width: 0.8; stroke-linejoin: miter; stroke-linecap: square"/>
   </g>
   <g id="patch_4">
    <path d="M 48.520313 274.94952 
L 541.19952 274.94952 
" style="fill: none; stroke: #000000; stroke-width: 0.8; stroke-linejoin: miter; stroke-linecap: square"/>
   </g>
   <g id="text_11">
    <!-- Degrees of freedom: All Atoms (1000 H$_2$O, ndof = 6000) -->
    <g transform="translate(143.779916 16.32) scale(0.12 -0.12)">
     <defs>
      <path id="IBMPlexSans-3a" d="M 934 -77 
C 1203 -77 1325 77 1325 294 
L 1325 378 
C 1325 595 1203 749 934 749 
C 666 749 544 595 544 378 
L 544 294 
C 544 77 666 -77 934 -77 
z
M 934 2554 
C 1203 2554 1325 2707 1325 2925 
L 1325 3008 
C 1325 3226 1203 3379 934 3379 
C 666 3379 544 3226 544 3008 
L 544 2925 
C 544 2707 666 2554 934 2554 
z
" transform="scale(0.015625)"/>
      <path id="IBMPlexSans-41" d="M 3955 0 
L 2394 4467 
L 1709 4467 
L 147 0 
L 691 0 
L 1139 1318 
L 2944 1318 
L 3392 0 
L 3955 0 
z
M 2810 1792 
L 1267 1792 
L 2022 3968 
L 2054 3968 
L 2810 1792 
z
" transform="scale(0.015625)"/>
      <path id="IBMPlexSans-28" d="M 531 1997 
C 531 749 1056 -339 1690 -877 
L 2176 -877 
C 1485 -262 1011 819 1011 1715 
L 1011 2266 
C 1011 3162 1466 4224 2176 4864 
L 1690 4864 
C 1037 4307 531 3232 531 1997 
z
" transform="scale(0.015625)"/>
      <path id="DejaVuSans-32" d="M 1228 531 
L 3431 531 
L 3431 0 
L 469 0 
L 469 531 
Q 828 903 1448 1529 
Q 2069 2156 2228 2338 
Q 2531 2678 2651 2914 
Q 2772 3150 2772 3378 
Q 2772 3750 2511 3984 
Q 2250 4219 1831 4219 
Q 1534 4219 1204 4116 
Q 875 4013 500 3803 
L 500 4441 
Q 881 4594 1212 4672 
Q 1544 4750 1819 4750 
Q 2544 4750 2975 4387 
Q 3406 4025 3406 3419 
Q 3406 3131 3298 2873 
Q 3191 2616 2906 2266 
Q 2828 2175 2409 1742 
Q 1991 1309 1228 531 
z
" transform="scale(0.015625)"/>
      <path id="IBMPlexSans-4f" d="M 2266 -77 
C 3418 -77 4160 736 4160 2234 
C 4160 3731 3418 4544 2266 4544 
C 1114 4544 371 3731 371 2234 
C 371 736 1114 -77 2266 -77 
z
M 2266 403 
C 1491 403 947 979 947 1862 
L 947 2605 
C 947 3488 1491 4064 2266 4064 
C 3040 4064 3584 3488 3584 2605 
L 3584 1862 
C 3584 979 3040 403 2266 403 
z
" transform="scale(0.015625)"/>
      <path id="IBMPlexSans-2c" d="M 870 749 
C 602 749 480 595 480 371 
L 480 282 
C 480 109 557 -19 730 -58 
C 659 -358 506 -582 250 -851 
L 678 -851 
C 1043 -538 1261 -64 1261 282 
L 1261 371 
C 1261 595 1139 749 870 749 
z
" transform="scale(0.015625)"/>
      <path id="IBMPlexSans-3d" d="M 3411 2381 
L 3411 2816 
L 429 2816 
L 429 2381 
L 3411 2381 
z
M 3411 1101 
L 3411 1536 
L 429 1536 
L 429 1101 
L 3411 1101 
z
" transform="scale(0.015625)"/>
      <path id="IBMPlexSans-29" d="M 1613 1997 
C 1613 3232 1107 4307 454 4864 
L -32 4864 
C 678 4224 1133 3162 1133 2266 
L 1133 1715 
C 1133 819 659 -262 -32 -877 
L 454 -877 
C 1088 -339 1613 749 1613 1997 
z
" transform="scale(0.015625)"/>
     </defs>
     <use xlink:href="#IBMPlexSans-44"/>
     <use xlink:href="#IBMPlexSans-65" transform="translate(67.099991 0)"/>
     <use xlink:href="#IBMPlexSans-67" transform="translate(121.999985 0)"/>
     <use xlink:href="#IBMPlexSans-72" transform="translate(174.799973 0)"/>
     <use xlink:href="#IBMPlexSans-65" transform="translate(211.499969 0)"/>
     <use xlink:href="#IBMPlexSans-65" transform="translate(266.399963 0)"/>
     <use xlink:href="#IBMPlexSans-73" transform="translate(321.299957 0)"/>
     <use xlink:href="#IBMPlexSans-20" transform="translate(369.999954 0)"/>
     <use xlink:href="#IBMPlexSans-6f" transform="translate(393.599945 0)"/>
     <use xlink:href="#IBMPlexSans-66" transform="translate(449.59993 0)"/>
     <use xlink:href="#IBMPlexSans-20" transform="translate(481.999924 0)"/>
     <use xlink:href="#IBMPlexSans-66" transform="translate(505.599915 0)"/>
     <use xlink:href="#IBMPlexSans-72" transform="translate(537.999908 0)"/>
     <use xlink:href="#IBMPlexSans-65" transform="translate(574.699905 0)"/>
     <use xlink:href="#IBMPlexSans-65" transform="translate(629.599899 0)"/>
     <use xlink:href="#IBMPlexSans-64" transform="translate(684.499893 0)"/>
     <use xlink:href="#IBMPlexSans-6f" transform="translate(742.499878 0)"/>
     <use xlink:href="#IBMPlexSans-6d" transform="translate(798.499863 0)"/>
     <use xlink:href="#IBMPlexSans-3a" transform="translate(885.79985 0)"/>
     <use xlink:href="#IBMPlexSans-20" transform="translate(914.999847 0)"/>
     <use xlink:href="#IBMPlexSans-41" transform="translate(938.599838 0)"/>
     <use xlink:href="#IBMPlexSans-6c" transform="translate(1002.699829 0)"/>
     <use xlink:href="#IBMPlexSans-6c" transform="translate(1029.899826 0)"/>
     <use xlink:href="#IBMPlexSans-20" transform="translate(1057.099823 0)"/>
     <use xlink:href="#IBMPlexSans-41" transform="translate(1080.699814 0)"/>
     <use xlink:href="#IBMPlexSans-74" transform="translate(1144.799805 0)"/>
     <use xlink:href="#IBMPlexSans-6f" transform="translate(1179.899796 0)"/>
     <use xlink:href="#IBMPlexSans-6d" transform="translate(1235.89978 0)"/>
     <use xlink:href="#IBMPlexSans-73" transform="translate(1323.199768 0)"/>
     <use xlink:href="#IBMPlexSans-20" transform="translate(1371.899765 0)"/>
     <use xlink:href="#IBMPlexSans-28" transform="translate(1395.499756 0)"/>
     <use xlink:href="#IBMPlexSans-31" transform="translate(1428.999741 0)"/>
     <use xlink:href="#IBMPlexSans-30" transform="translate(1488.999725 0)"/>
     <use xlink:href="#IBMPlexSans-30" transform="translate(1548.99971 0)"/>
     <use xlink:href="#IBMPlexSans-30" transform="translate(1608.999695 0)"/>
     <use xlink:href="#IBMPlexSans-20" transform="translate(1668.99968 0)"/>
     <use xlink:href="#IBMPlexSans-48" transform="translate(1692.59967 0)"/>
     <use xlink:href="#DejaVuSans-32" transform="translate(1764.256683 -16.40625) scale(0.7)"/>
     <use xlink:href="#IBMPlexSans-4f" transform="translate(1811.527191 0)"/>
     <use xlink:href="#IBMPlexSans-2c" transform="translate(1882.327179 0)"/>
     <use xlink:href="#IBMPlexSans-20" transform="translate(1909.527176 0)"/>
     <use xlink:href="#IBMPlexSans-6e" transform="translate(1933.127167 0)"/>
     <use xlink:href="#IBMPlexSans-64" transform="translate(1989.927155 0)"/>
     <use xlink:href="#IBMPlexSans-6f" transform="translate(2047.927139 0)"/>
     <use xlink:href="#IBMPlexSans-66" transform="translate(2103.927124 0)"/>
     <use xlink:href="#IBMPlexSans-20" transform="translate(2136.327118 0)"/>
     <use xlink:href="#IBMPlexSans-3d" transform="translate(2159.927109 0)"/>
     <use xlink:href="#IBMPlexSans-20" transform="translate(2219.927094 0)"/>
     <use xlink:href="#IBMPlexSans-36" transform="translate(2243.527084 0)"/>
     <use xlink:href="#IBMPlexSans-30" transform="translate(2303.527069 0)"/>
     <use xlink:href="#IBMPlexSans-30" transform="translate(2363.527054 0)"/>
     <use xlink:href="#IBMPlexSans-30" transform="translate(2423.527039 0)"/>
     <use xlink:href="#IBMPlexSans-29" transform="translate(2483.527023 0)"/>
    </g>
   </g>
  </g>
 </g>
 <defs>
  <clipPath id="pc7820228c8">
   <rect x="48.520313" y="22.32" width="492.679207" height="252.62952"/>
  </clipPath>
 </defs>
</svg>