<?xml version="1.0" encoding="utf-8" standalone="no"?>
<!DOCTYPE svg PUBLIC "-//W3C//DTD SVG 1.1//EN"
  "http://www.w3.org/Graphics/SVG/1.1/DTD/svg11.dtd">
<svg xmlns:xlink="http://www.w3.org/1999/xlink" width="337.716775pt" height="312.14952pt" viewBox="0 0 337.716775 312.14952" xmlns="http://www.w3.org/2000/svg" version="1.1">
 <metadata>
  <rdf:RDF xmlns:dc="http://purl.org/dc/elements/1.1/" xmlns:cc="http://creativecommons.org/ns#" xmlns:rdf="http://www.w3.org/1999/02/22-rdf-syntax-ns#">
   <cc:Work>
    <dc:type rdf:resource="http://purl.org/dc/dcmitype/StillImage"/>
    <dc:date>2026-01-27T08:27:27.204606</dc:date>
    <dc:format>image/svg+xml</dc:format>
    <dc:creator>
     <cc:Agent>
      <dc:title>Matplotlib v3.10.7, https://matplotlib.org/</dc:title>
     </cc:Agent>
    </dc:creator>
   </cc:Work>
  </rdf:RDF>
 </metadata>
 <defs>
  <style type="text/css">*{stroke-linejoin: round; stroke-linecap: butt}</style>
 </defs>
 <g id="figure_1">
  <g id="patch_1">
   <path d="M 0 312.14952 
L 337.716775 312.14952 
L 337.716775 0 
L 0 0 
z
" style="fill: #ffffff"/>
  </g>
  <g id="axes_1">
   <g id="patch_2">
    <path d="M 47.959375 273.410457 
L 328.977567 273.410457 
L 328.977567 22.08 
L 47.959375 22.08 
z
" style="fill: #ffffff"/>
   </g>
   <g id="matplotlib.axis_1">
    <g id="xtick_1">
     <g id="line2d_1">
      <defs>
       <path id="m1783c00a92" d="M 0 0 
L 0 3.5 
" style="stroke: #000000; stroke-width: 0.8"/>
      </defs>
      <g>
       <use xlink:href="#m1783c00a92" x="62.768704" y="273.410457" style="stroke: #000000; stroke-width: 0.8"/>
      </g>
     </g>
     <g id="text_1">
      <!-- −35 -->
      <g transform="translate(53.768704 287.810457) scale(0.1 -0.1)">
       <defs>
        <path id="IBMPlexSans-2212" d="M 3411 1734 
L 3411 2170 
L 429 2170 
L 429 1734 
L 3411 1734 
z
" transform="scale(0.015625)"/>
        <path id="IBMPlexSans-33" d="M 1184 2573 
L 1184 2106 
L 1709 2106 
C 2336 2106 2669 1805 2669 1280 
L 2669 1229 
C 2669 704 2336 403 1709 403 
C 1165 403 902 640 672 992 
L 269 685 
C 544 301 941 -77 1715 -77 
C 2624 -77 3232 454 3232 1222 
C 3232 1894 2771 2253 2291 2349 
L 2291 2374 
C 2765 2496 3149 2842 3149 3418 
C 3149 4141 2547 4544 1792 4544 
C 1075 4544 685 4173 461 3814 
L 858 3507 
C 1043 3846 1318 4064 1779 4064 
C 2253 4064 2579 3827 2579 3360 
L 2579 3315 
C 2579 2886 2272 2573 1670 2573 
L 1184 2573 
z
" transform="scale(0.015625)"/>
        <path id="IBMPlexSans-35" d="M 3187 4467 
L 794 4467 
L 634 2010 
L 1088 1946 
C 1274 2150 1478 2323 1888 2323 
C 2496 2323 2822 1984 2822 1395 
L 2822 1331 
C 2822 742 2496 403 1888 403 
C 1350 403 1126 640 896 992 
L 493 685 
C 762 301 1146 -77 1888 -77 
C 2829 -77 3392 531 3392 1402 
C 3392 2266 2829 2784 2061 2784 
C 1594 2784 1357 2592 1146 2291 
L 1101 2291 
L 1229 3994 
L 3187 3994 
L 3187 4467 
z
" transform="scale(0.015625)"/>
       </defs>
       <use xlink:href="#IBMPlexSans-2212"/>
       <use xlink:href="#IBMPlexSans-33" transform="translate(59.999985 0)"/>
       <use xlink:href="#IBMPlexSans-35" transform="translate(119.999969 0)"/>
      </g>
     </g>
    </g>
    <g id="xtick_2">
     <g id="line2d_2">
      <g>
       <use xlink:href="#m1783c00a92" x="95.862213" y="273.410457" style="stroke: #000000; stroke-width: 0.8"/>
      </g>
     </g>
     <g id="text_2">
      <!-- −30 -->
      <g transform="translate(86.862213 287.810457) scale(0.1 -0.1)">
       <defs>
        <path id="IBMPlexSans-30" d="M 1920 -77 
C 2989 -77 3456 774 3456 2234 
C 3456 3693 2989 4544 1920 4544 
C 851 4544 384 3693 384 2234 
C 384 774 851 -77 1920 -77 
z
M 1920 390 
C 1222 390 947 1005 947 1869 
L 947 2598 
C 947 3462 1222 4077 1920 4077 
C 2618 4077 2893 3462 2893 2598 
L 2893 1869 
C 2893 1005 2618 390 1920 390 
z
" transform="scale(0.015625)"/>
       </defs>
       <use xlink:href="#IBMPlexSans-2212"/>
       <use xlink:href="#IBMPlexSans-33" transform="translate(59.999985 0)"/>
       <use xlink:href="#IBMPlexSans-30" transform="translate(119.999969 0)"/>
      </g>
     </g>
    </g>
    <g id="xtick_3">
     <g id="line2d_3">
      <g>
       <use xlink:href="#m1783c00a92" x="128.955722" y="273.410457" style="stroke: #000000; stroke-width: 0.8"/>
      </g>
     </g>
     <g id="text_3">
      <!-- −25 -->
      <g transform="translate(119.955722 287.810457) scale(0.1 -0.1)">
       <defs>
        <path id="IBMPlexSans-32" d="M 3411 474 
L 1062 474 
L 2266 1555 
C 2835 2067 3245 2554 3245 3245 
C 3245 4006 2746 4544 1875 4544 
C 1011 4544 614 4019 442 3494 
L 922 3309 
C 1043 3731 1299 4064 1850 4064 
C 2400 4064 2675 3725 2675 3232 
L 2675 3155 
C 2675 2726 2355 2278 1939 1894 
L 480 550 
L 480 0 
L 3411 0 
L 3411 474 
z
" transform="scale(0.015625)"/>
       </defs>
       <use xlink:href="#IBMPlexSans-2212"/>
       <use xlink:href="#IBMPlexSans-32" transform="translate(59.999985 0)"/>
       <use xlink:href="#IBMPlexSans-35" transform="translate(119.999969 0)"/>
      </g>
     </g>
    </g>
    <g id="xtick_4">
     <g id="line2d_4">
      <g>
       <use xlink:href="#m1783c00a92" x="162.049231" y="273.410457" style="stroke: #000000; stroke-width: 0.8"/>
      </g>
     </g>
     <g id="text_4">
      <!-- −20 -->
      <g transform="translate(153.049231 287.810457) scale(0.1 -0.1)">
       <use xlink:href="#IBMPlexSans-2212"/>
       <use xlink:href="#IBMPlexSans-32" transform="translate(59.999985 0)"/>
       <use xlink:href="#IBMPlexSans-30" transform="translate(119.999969 0)"/>
      </g>
     </g>
    </g>
    <g id="xtick_5">
     <g id="line2d_5">
      <g>
       <use xlink:href="#m1783c00a92" x="195.142739" y="273.410457" style="stroke: #000000; stroke-width: 0.8"/>
      </g>
     </g>
     <g id="text_5">
      <!-- −15 -->
      <g transform="translate(186.142739 287.810457) scale(0.1 -0.1)">
       <defs>
        <path id="IBMPlexSans-31" d="M 3501 0 
L 3501 474 
L 2349 474 
L 2349 4467 
L 1510 4467 
L 326 3360 
L 640 3021 
L 1766 4070 
L 1811 4070 
L 1811 474 
L 563 474 
L 563 0 
L 3501 0 
z
" transform="scale(0.015625)"/>
       </defs>
       <use xlink:href="#IBMPlexSans-2212"/>
       <use xlink:href="#IBMPlexSans-31" transform="translate(59.999985 0)"/>
       <use xlink:href="#IBMPlexSans-35" transform="translate(119.999969 0)"/>
      </g>
     </g>
    </g>
    <g id="xtick_6">
     <g id="line2d_6">
      <g>
       <use xlink:href="#m1783c00a92" x="228.236248" y="273.410457" style="stroke: #000000; stroke-width: 0.8"/>
      </g>
     </g>
     <g id="text_6">
      <!-- −10 -->
      <g transform="translate(219.236248 287.810457) scale(0.1 -0.1)">
       <use xlink:href="#IBMPlexSans-2212"/>
       <use xlink:href="#IBMPlexSans-31" transform="translate(59.999985 0)"/>
       <use xlink:href="#IBMPlexSans-30" transform="translate(119.999969 0)"/>
      </g>
     </g>
    </g>
    <g id="xtick_7">
     <g id="line2d_7">
      <g>
       <use xlink:href="#m1783c00a92" x="261.329757" y="273.410457" style="stroke: #000000; stroke-width: 0.8"/>
      </g>
     </g>
     <g id="text_7">
      <!-- −5 -->
      <g transform="translate(255.329757 287.810457) scale(0.1 -0.1)">
       <use xlink:href="#IBMPlexSans-2212"/>
       <use xlink:href="#IBMPlexSans-35" transform="translate(59.999985 0)"/>
      </g>
     </g>
    </g>
    <g id="xtick_8">
     <g id="line2d_8">
      <g>
       <use xlink:href="#m1783c00a92" x="294.423266" y="273.410457" style="stroke: #000000; stroke-width: 0.8"/>
      </g>
     </g>
     <g id="text_8">
      <!-- 0 -->
      <g transform="translate(291.423266 287.810457) scale(0.1 -0.1)">
       <use xlink:href="#IBMPlexSans-30"/>
      </g>
     </g>
    </g>
    <g id="xtick_9">
     <g id="line2d_9">
      <g>
       <use xlink:href="#m1783c00a92" x="327.516775" y="273.410457" style="stroke: #000000; stroke-width: 0.8"/>
      </g>
     </g>
     <g id="text_9">
      <!-- 5 -->
      <g transform="translate(324.516775 287.810457) scale(0.1 -0.1)">
       <use xlink:href="#IBMPlexSans-35"/>
      </g>
     </g>
    </g>
    <g id="text_10">
     <!-- x [Å] -->
     <g transform="translate(178.378627 302.94952) scale(0.1 -0.1)">
      <defs>
       <path id="IBMPlexSans-78" d="M 134 0 
L 704 0 
L 1632 1293 
L 1651 1293 
L 2509 0 
L 3110 0 
L 1920 1702 
L 3085 3302 
L 2515 3302 
L 1645 2074 
L 1626 2074 
L 787 3302 
L 186 3302 
L 1357 1664 
L 134 0 
z
" transform="scale(0.015625)"/>
       <path id="IBMPlexSans-20" transform="scale(0.015625)"/>
       <path id="IBMPlexSans-5b" d="M 1645 -883 
L 1645 -480 
L 1037 -480 
L 1037 4461 
L 1645 4461 
L 1645 4864 
L 595 4864 
L 595 -883 
L 1645 -883 
z
" transform="scale(0.015625)"/>
       <path id="IBMPlexSans-c5" d="M 3955 0 
L 2394 4467 
L 1709 4467 
L 147 0 
L 691 0 
L 1139 1318 
L 2944 1318 
L 3392 0 
L 3955 0 
z
M 2810 1792 
L 1267 1792 
L 2022 3968 
L 2054 3968 
L 2810 1792 
z
M 2061 4774 
C 2477 4774 2803 5088 2803 5510 
C 2803 5933 2477 6246 2061 6246 
C 1645 6246 1318 5933 1318 5510 
C 1318 5088 1645 4774 2061 4774 
z
M 2061 5088 
C 1830 5088 1690 5216 1690 5440 
L 1690 5581 
C 1690 5805 1830 5933 2061 5933 
C 2291 5933 2432 5805 2432 5581 
L 2432 5440 
C 2432 5216 2291 5088 2061 5088 
z
" transform="scale(0.015625)"/>
       <path id="IBMPlexSans-5d" d="M 384 4864 
L 384 4461 
L 992 4461 
L 992 -480 
L 384 -480 
L 384 -883 
L 1434 -883 
L 1434 4864 
L 384 4864 
z
" transform="scale(0.015625)"/>
      </defs>
      <use xlink:href="#IBMPlexSans-78"/>
      <use xlink:href="#IBMPlexSans-20" transform="translate(50.699997 0)"/>
      <use xlink:href="#IBMPlexSans-5b" transform="translate(74.299988 0)"/>
      <use xlink:href="#IBMPlexSans-c5" transform="translate(105.999985 0)"/>
      <use xlink:href="#IBMPlexSans-5d" transform="translate(170.099976 0)"/>
     </g>
    </g>
   </g>
   <g id="matplotlib.axis_2">
    <g id="ytick_1">
     <g id="line2d_10">
      <defs>
       <path id="m4778477b42" d="M 0 0 
L -3.5 0 
" style="stroke: #000000; stroke-width: 0.8"/>
      </defs>
      <g>
       <use xlink:href="#m4778477b42" x="47.959375" y="269.55662" style="stroke: #000000; stroke-width: 0.8"/>
      </g>
     </g>
     <g id="text_11">
      <!-- −20 -->
      <g transform="translate(22.959375 273.25662) scale(0.1 -0.1)">
       <use xlink:href="#IBMPlexSans-2212"/>
       <use xlink:href="#IBMPlexSans-32" transform="translate(59.999985 0)"/>
       <use xlink:href="#IBMPlexSans-30" transform="translate(119.999969 0)"/>
      </g>
     </g>
    </g>
    <g id="ytick_2">
     <g id="line2d_11">
      <g>
       <use xlink:href="#m4778477b42" x="47.959375" y="236.463111" style="stroke: #000000; stroke-width: 0.8"/>
      </g>
     </g>
     <g id="text_12">
      <!-- −15 -->
      <g transform="translate(22.959375 240.163111) scale(0.1 -0.1)">
       <use xlink:href="#IBMPlexSans-2212"/>
       <use xlink:href="#IBMPlexSans-31" transform="translate(59.999985 0)"/>
       <use xlink:href="#IBMPlexSans-35" transform="translate(119.999969 0)"/>
      </g>
     </g>
    </g>
    <g id="ytick_3">
     <g id="line2d_12">
      <g>
       <use xlink:href="#m4778477b42" x="47.959375" y="203.369602" style="stroke: #000000; stroke-width: 0.8"/>
      </g>
     </g>
     <g id="text_13">
      <!-- −10 -->
      <g transform="translate(22.959375 207.069602) scale(0.1 -0.1)">
       <use xlink:href="#IBMPlexSans-2212"/>
       <use xlink:href="#IBMPlexSans-31" transform="translate(59.999985 0)"/>
       <use xlink:href="#IBMPlexSans-30" transform="translate(119.999969 0)"/>
      </g>
     </g>
    </g>
    <g id="ytick_4">
     <g id="line2d_13">
      <g>
       <use xlink:href="#m4778477b42" x="47.959375" y="170.276094" style="stroke: #000000; stroke-width: 0.8"/>
      </g>
     </g>
     <g id="text_14">
      <!-- −5 -->
      <g transform="translate(28.959375 173.976094) scale(0.1 -0.1)">
       <use xlink:href="#IBMPlexSans-2212"/>
       <use xlink:href="#IBMPlexSans-35" transform="translate(59.999985 0)"/>
      </g>
     </g>
    </g>
    <g id="ytick_5">
     <g id="line2d_14">
      <g>
       <use xlink:href="#m4778477b42" x="47.959375" y="137.182585" style="stroke: #000000; stroke-width: 0.8"/>
      </g>
     </g>
     <g id="text_15">
      <!-- 0 -->
      <g transform="translate(34.959375 140.882585) scale(0.1 -0.1)">
       <use xlink:href="#IBMPlexSans-30"/>
      </g>
     </g>
    </g>
    <g id="ytick_6">
     <g id="line2d_15">
      <g>
       <use xlink:href="#m4778477b42" x="47.959375" y="104.089076" style="stroke: #000000; stroke-width: 0.8"/>
      </g>
     </g>
     <g id="text_16">
      <!-- 5 -->
      <g transform="translate(34.959375 107.789076) scale(0.1 -0.1)">
       <use xlink:href="#IBMPlexSans-35"/>
      </g>
     </g>
    </g>
    <g id="ytick_7">
     <g id="line2d_16">
      <g>
       <use xlink:href="#m4778477b42" x="47.959375" y="70.995567" style="stroke: #000000; stroke-width: 0.8"/>
      </g>
     </g>
     <g id="text_17">
      <!-- 10 -->
      <g transform="translate(28.959375 74.695567) scale(0.1 -0.1)">
       <use xlink:href="#IBMPlexSans-31"/>
       <use xlink:href="#IBMPlexSans-30" transform="translate(59.999985 0)"/>
      </g>
     </g>
    </g>
    <g id="ytick_8">
     <g id="line2d_17">
      <g>
       <use xlink:href="#m4778477b42" x="47.959375" y="37.902058" style="stroke: #000000; stroke-width: 0.8"/>
      </g>
     </g>
     <g id="text_18">
      <!-- 15 -->
      <g transform="translate(28.959375 41.602058) scale(0.1 -0.1)">
       <use xlink:href="#IBMPlexSans-31"/>
       <use xlink:href="#IBMPlexSans-35" transform="translate(59.999985 0)"/>
      </g>
     </g>
    </g>
    <g id="text_19">
     <!-- y [Å] -->
     <g transform="translate(16.959375 157.795229) rotate(-90) scale(0.1 -0.1)">
      <defs>
       <path id="IBMPlexSans-79" d="M 1779 1056 
L 1600 518 
L 1568 518 
L 1414 1056 
L 621 3302 
L 109 3302 
L 1344 -128 
L 1094 -832 
L 576 -832 
L 576 -1280 
L 838 -1280 
C 1325 -1280 1459 -1165 1606 -768 
L 3085 3302 
L 2579 3302 
L 1779 1056 
z
" transform="scale(0.015625)"/>
      </defs>
      <use xlink:href="#IBMPlexSans-79"/>
      <use xlink:href="#IBMPlexSans-20" transform="translate(49.899994 0)"/>
      <use xlink:href="#IBMPlexSans-5b" transform="translate(73.499985 0)"/>
      <use xlink:href="#IBMPlexSans-c5" transform="translate(105.199982 0)"/>
      <use xlink:href="#IBMPlexSans-5d" transform="translate(169.299973 0)"/>
     </g>
    </g>
   </g>
   <g id="line2d_18">
    <defs>
     <path id="m9d01d1e5de" d="M 0 3 
C 0.795609 3 1.55874 2.683901 2.12132 2.12132 
C 2.683901 1.55874 3 0.795609 3 0 
C 3 -0.795609 2.683901 -1.55874 2.12132 -2.12132 
C 1.55874 -2.683901 0.795609 -3 0 -3 
C -0.795609 -3 -1.55874 -2.683901 -2.12132 -2.12132 
C -2.683901 -1.55874 -3 -0.795609 -3 0 
C -3 0.795609 -2.683901 1.55874 -2.12132 2.12132 
C -1.55874 2.683901 -0.795609 3 0 3 
z
" style="stroke: #000000"/>
    </defs>
    <g clip-path="url(#peb53a4c727)">
     <use xlink:href="#m9d01d1e5de" x="294.423266" y="137.182585" style="stroke: #000000"/>
    </g>
   </g>
   <g id="line2d_19">
    <path d="M 295.14725 137.110186 
L 304.823458 136.036941 
L 306.294104 135.657506 
L 307.577883 135.126123 
L 309.061659 134.241041 
L 310.432133 133.13562 
L 311.546629 131.99824 
L 312.68302 130.570366 
L 313.762347 128.88865 
L 314.69271 127.060252 
L 315.403227 125.231053 
L 315.871931 123.52748 
L 316.166809 121.566062 
L 316.185693 119.975462 
L 315.959521 118.402585 
L 315.53934 117.094874 
L 314.656208 115.245323 
L 312.940434 111.681392 
L 311.74335 108.686897 
L 310.598386 105.290672 
L 309.625247 101.696532 
L 309.132753 99.108052 
L 308.981132 97.205883 
L 309.09177 95.451578 
L 309.4851 93.294184 
L 310.265154 90.230345 
L 311.483199 86.26195 
L 313.070416 81.862571 
L 315.618434 75.194202 
L 315.772466 73.581721 
L 315.695046 71.944345 
L 315.348491 69.909128 
L 314.855022 68.134504 
L 314.143933 66.233726 
L 313.248801 64.348597 
L 311.900928 62.114779 
L 310.550414 60.37334 
L 309.030857 58.856501 
L 307.515068 57.690641 
L 305.61863 56.538957 
L 303.764995 55.632792 
L 302.183215 55.052492 
L 300.499751 54.627103 
L 298.342744 54.324463 
L 295.745335 54.249759 
L 293.655596 54.387193 
L 290.995768 54.81552 
L 288.758378 55.433466 
L 287.029239 56.129058 
L 285.462886 57.012357 
L 284.325755 57.90946 
L 283.18546 59.127767 
L 280.068286 63.07727 
L 276.554818 67.291374 
L 272.858906 71.417434 
L 270.722389 73.542772 
L 269.37732 74.593086 
L 268.073833 75.342771 
L 266.312345 76.090989 
L 263.829554 76.863982 
L 261.280314 77.440045 
L 258.462054 77.878118 
L 255.170258 78.136381 
L 252.58751 78.115827 
L 249.494464 77.824103 
L 247.463334 77.710873 
L 246.165506 77.835739 
L 244.702264 78.199965 
L 243.389977 78.745604 
L 241.9879 79.61608 
L 240.927041 80.545467 
L 239.915599 81.749133 
L 239.018975 83.225938 
L 238.309353 84.923157 
L 237.84921 86.738477 
L 237.668228 88.547364 
L 237.752404 90.238316 
L 238.056378 91.736011 
L 238.526913 93.007784 
L 239.11924 94.058016 
L 240.042879 95.167774 
L 241.331061 96.242137 
L 243.936558 98.252233 
L 244.837938 99.339576 
L 245.412172 100.363934 
L 245.865966 101.602024 
L 246.156518 103.060799 
L 246.231256 104.713449 
L 246.04281 106.492887 
L 245.572374 108.294868 
L 244.844666 109.99665 
L 243.920419 111.490503 
L 242.873947 112.714399 
L 241.774697 113.658954 
L 240.679363 114.351539 
L 239.29379 114.956428 
L 238.036894 115.284938 
L 236.640444 115.415405 
L 235.350757 115.320336 
L 232.780923 114.816994 
L 230.834592 114.542058 
L 228.815264 114.475059 
L 226.354031 114.661166 
L 223.632943 115.161215 
L 221.020625 115.930096 
L 218.834163 116.836953 
L 217.166072 117.761409 
L 215.937049 118.655645 
L 214.799863 119.76201 
L 213.41688 121.503524 
L 211.509917 123.850654 
L 209.42249 126.046239 
L 206.803577 128.441398 
L 204.188089 130.522244 
L 202.023504 131.997429 
L 200.019134 133.095929 
L 198.251046 133.810479 
L 186.116429 138.11609 
L 181.524314 140.062728 
L 179.482155 141.13495 
L 177.389696 142.513608 
L 173.920712 145.142358 
L 169.548274 148.753167 
L 165.623778 152.281677 
L 163.375416 154.25342 
L 161.950377 155.230287 
L 159.98056 156.303227 
L 157.238407 157.504142 
L 153.902565 158.671193 
L 150.65546 159.542374 
L 148.04327 160.031839 
L 142.686845 160.84263 
L 141.347389 161.373195 
L 139.783208 162.244812 
L 137.974365 163.562637 
L 136.519275 164.863854 
L 135.089703 166.376919 
L 133.805233 167.986395 
L 132.460033 170.062003 
L 131.557225 171.885095 
L 130.888108 173.752041 
L 129.669697 177.67109 
L 129.024979 178.829691 
L 128.107882 180.032547 
L 127.133298 180.997831 
L 125.910275 181.884977 
L 124.811014 182.431006 
L 123.544681 182.815047 
L 122.114612 182.985696 
L 120.550477 182.899553 
L 118.917133 182.527295 
L 117.308302 181.862709 
L 115.825167 180.93259 
L 114.55323 179.798443 
L 113.548357 178.542075 
L 112.832281 177.241296 
L 112.394929 175.952846 
L 112.202023 174.711314 
L 112.241195 173.164158 
L 112.509092 171.771105 
L 113.018525 170.275355 
L 113.751608 168.821125 
L 114.743667 167.421162 
L 117.89212 163.496384 
L 119.032174 161.611069 
L 120.198358 159.2391 
L 121.228189 156.601919 
L 121.975475 154.076003 
L 122.409925 151.93154 
L 122.60786 149.849097 
L 122.545637 148.247169 
L 122.220672 146.562451 
L 121.367287 143.854455 
L 118.207535 134.141988 
L 116.603446 128.654966 
L 116.270663 126.895969 
L 116.190313 125.411749 
L 116.322781 123.584904 
L 116.761402 121.147358 
L 117.411395 118.704778 
L 118.327792 116.023989 
L 119.394841 113.484253 
L 120.705558 110.941204 
L 122.225317 108.563158 
L 123.730527 106.239487 
L 124.252782 105.023731 
L 124.61447 103.532469 
L 124.725956 102.053723 
L 124.642637 100.753816 
L 124.354328 99.294612 
L 123.80784 97.708238 
L 122.976436 96.064376 
L 121.881209 94.470324 
L 120.593507 93.045388 
L 119.21287 91.878542 
L 117.83565 91.003337 
L 116.532104 90.40579 
L 114.965334 89.974222 
L 113.589442 89.866809 
L 112.342236 89.990739 
L 110.187082 90.496668 
L 108.403384 90.8284 
L 106.668713 90.891457 
L 105.140378 90.732327 
L 103.429028 90.341592 
L 101.607083 89.695255 
L 99.800548 88.811673 
L 98.149082 87.756137 
L 96.754855 86.618964 
L 95.656571 85.479655 
L 94.616631 84.032934 
L 93.939632 82.689005 
L 92.063783 78.350327 
L 91.31938 77.390622 
L 90.320984 76.408836 
L 89.033301 75.434104 
L 87.459294 74.525262 
L 85.659424 73.760308 
L 83.752806 73.209302 
L 81.884017 72.907105 
L 80.17049 72.844849 
L 78.670569 72.980817 
L 77.005337 73.371547 
L 75.357978 74.011955 
L 72.117419 75.397133 
L 70.859386 75.663893 
L 69.137362 75.771454 
L 67.525922 75.67053 
L 65.85251 75.354783 
L 64.563267 74.898713 
L 63.385526 74.208488 
L 62.601131 73.507327 
L 61.918637 72.632191 
L 61.359098 71.579641 
L 60.954747 70.360953 
L 60.749066 69.002607 
L 60.78908 67.544261 
L 61.111534 66.03804 
L 61.728942 64.550908 
L 62.622813 63.163918 
L 63.747243 61.959756 
L 65.038327 61.002133 
L 66.422685 60.322353 
L 67.825214 59.921581 
L 69.179641 59.78262 
L 70.439293 59.880726 
L 71.581138 60.188457 
L 72.600915 60.675475 
L 73.779673 61.542481 
L 74.762865 62.570715 
L 75.719932 63.943226 
L 76.370622 65.303722 
L 76.724498 66.628323 
L 76.817432 67.966754 
L 76.685182 69.691961 
L 76.468483 72.308106 
L 76.572147 73.749262 
L 76.843865 74.879673 
L 77.337991 76.043168 
L 78.094521 77.218918 
L 79.134557 78.364171 
L 80.45064 79.411357 
L 81.998551 80.280228 
L 83.695347 80.901687 
L 85.431144 81.238112 
L 87.096902 81.288815 
L 88.613742 81.083172 
L 89.944015 80.669947 
L 91.082398 80.107167 
L 92.322976 79.223057 
L 93.286369 78.285275 
L 94.171367 77.127421 
L 94.789417 75.99424 
L 95.325828 74.565335 
L 96.543499 71.058837 
L 97.436473 69.280236 
L 98.756591 67.223618 
L 100.48079 65.066336 
L 102.401293 63.109309 
L 104.248828 61.581351 
L 105.864882 60.518192 
L 107.551194 59.706041 
L 109.025461 59.263599 
L 111.207696 58.902664 
L 114.784068 58.290938 
L 117.917961 57.533404 
L 121.347975 56.496947 
L 124.839095 55.200785 
L 127.239566 54.086458 
L 128.926492 53.069885 
L 130.737294 51.659154 
L 135.075425 47.825999 
L 145.008797 39.036535 
L 146.43304 38.159752 
L 148.372739 37.212535 
L 151.074781 36.1433 
L 154.418145 35.072793 
L 157.744456 34.24013 
L 160.902826 33.687666 
L 162.475174 33.504112 
L 162.475174 33.504112 
" clip-path="url(#peb53a4c727)" style="fill: none; stroke: #ff7f0e; stroke-width: 1.5; stroke-linecap: square"/>
   </g>
   <g id="line2d_20">
    <path d="M 295.14725 137.110186 
L 304.823476 136.03694 
L 306.294134 135.657502 
L 307.577927 135.126115 
L 309.06172 134.241024 
L 310.432205 133.135593 
L 311.546707 131.998203 
L 312.6831 130.570318 
L 313.762422 128.888595 
L 314.692774 127.060193 
L 315.403276 125.230996 
L 315.871965 123.527427 
L 316.166823 121.566016 
L 316.185691 119.975421 
L 315.959501 118.402546 
L 315.539304 117.094832 
L 314.656147 115.245259 
L 312.940344 111.681262 
L 311.743257 108.686726 
L 310.59831 105.290495 
L 309.625209 101.69639 
L 309.132749 99.107943 
L 308.981155 97.205783 
L 309.091819 95.451456 
L 309.485177 93.294001 
L 310.265264 90.230073 
L 311.483327 86.261627 
L 313.070516 81.86231 
L 315.618408 75.193999 
L 315.772403 73.581444 
L 315.694938 71.943981 
L 315.348321 69.908667 
L 314.854797 68.133981 
L 314.143658 66.233174 
L 313.248496 64.348061 
L 311.900624 62.114322 
L 310.550148 60.372981 
L 309.030655 58.856235 
L 307.514935 57.69042 
L 305.618556 56.538694 
L 303.764938 55.632412 
L 302.183168 55.052026 
L 300.499726 54.626583 
L 298.342759 54.323922 
L 295.745408 54.249253 
L 293.655711 54.386755 
L 290.995921 54.81522 
L 288.758553 55.433345 
L 287.029435 56.12913 
L 285.463134 57.012669 
L 284.326084 57.910008 
L 283.185905 59.128607 
L 279.687372 63.551006 
L 276.085583 67.834354 
L 272.241339 72.064991 
L 270.274689 73.924219 
L 268.890925 74.897479 
L 267.437704 75.637304 
L 265.41321 76.398152 
L 262.60435 77.161761 
L 259.875172 77.68105 
L 257.074219 78.020594 
L 254.040085 78.154325 
L 251.377141 78.029903 
L 247.209629 77.726324 
L 245.884294 77.894499 
L 244.379771 78.324011 
L 243.038281 78.946586 
L 241.979887 79.639425 
L 240.918433 80.575416 
L 239.907079 81.786399 
L 239.011626 83.270135 
L 238.304462 84.972381 
L 237.847696 86.789586 
L 237.670058 88.596926 
L 237.756558 90.283605 
L 238.061373 91.775582 
L 238.531381 93.041504 
L 239.122198 94.086764 
L 240.042964 95.192278 
L 241.327091 96.266067 
L 243.682134 98.05858 
L 244.611995 99.095306 
L 245.216181 100.069834 
L 245.709665 101.253193 
L 246.052853 102.65991 
L 246.194752 104.272801 
L 246.084552 106.034687 
L 245.694097 107.848671 
L 245.036872 109.593032 
L 244.166294 111.152528 
L 243.155044 112.452219 
L 242.074282 113.471005 
L 240.983601 114.22979 
L 239.589128 114.908476 
L 238.315656 115.298189 
L 236.903137 115.496249 
L 235.616459 115.465443 
L 233.744651 115.171879 
L 231.278395 114.802082 
L 229.350473 114.708604 
L 226.960197 114.825565 
L 224.240402 115.224413 
L 221.541916 115.885115 
L 219.220731 116.696351 
L 217.417027 117.539381 
L 215.794627 118.558805 
L 214.61916 119.572332 
L 213.387729 120.946583 
L 210.456633 124.341834 
L 207.628323 127.230779 
L 204.550164 130.056743 
L 201.709049 132.357929 
L 199.928155 133.556437 
L 198.281304 134.406685 
L 195.810436 135.375959 
L 191.358541 136.858007 
L 185.352694 138.634717 
L 178.558691 140.596303 
L 177.034417 141.376785 
L 175.166565 142.62946 
L 173.347297 144.10004 
L 171.341889 145.977622 
L 169.414902 148.054528 
L 167.497028 150.484356 
L 166.009295 152.793296 
L 164.102134 155.934243 
L 163.306609 156.806799 
L 162.237208 157.672251 
L 160.779535 158.52612 
L 159.375082 159.121882 
L 157.693185 159.624005 
L 155.782161 159.9721 
L 153.758416 160.118195 
L 151.778955 160.047547 
L 149.980785 159.784527 
L 147.982479 159.223709 
L 146.441355 158.540956 
L 145.028429 157.646098 
L 143.996932 156.749056 
L 142.99938 155.59544 
L 141.343029 153.226129 
L 137.692705 148.04529 
L 133.663157 142.739916 
L 131.116795 139.707489 
L 129.751979 138.422603 
L 128.630133 137.642211 
L 127.13553 136.880217 
L 125.507133 136.282929 
L 123.385561 135.753688 
L 120.798524 135.392246 
L 118.001076 135.291681 
L 115.385863 135.466937 
L 113.218762 135.844313 
L 111.182779 136.448367 
L 109.465165 137.20889 
L 107.967769 138.119634 
L 106.532319 139.254579 
L 105.033533 140.72849 
L 103.45288 142.60742 
L 101.991191 144.650892 
L 100.507001 147.059246 
L 99.218786 149.505966 
L 98.077645 152.151395 
L 97.313338 154.518337 
L 96.895847 156.499863 
L 96.715987 158.438904 
L 96.766514 160.118775 
L 97.044833 161.922457 
L 97.55487 163.738444 
L 98.443654 165.894186 
L 99.38876 167.653539 
L 100.530614 169.399814 
L 101.777947 170.990287 
L 103.43135 172.707195 
L 104.929613 173.931867 
L 106.522562 174.908278 
L 107.888202 175.474015 
L 109.476967 175.851795 
L 112.617315 176.257644 
L 117.895923 177.022258 
L 123.379038 178.044607 
L 127.54933 179.028812 
L 129.573859 179.720544 
L 130.831968 180.358107 
L 132.210337 181.294659 
L 133.907329 182.738281 
L 135.549914 184.388212 
L 137.34686 186.461473 
L 139.059232 188.727398 
L 140.741693 191.344601 
L 142.01255 193.784594 
L 143.94212 197.824895 
L 144.743324 198.893457 
L 145.85095 199.992317 
L 147.034279 200.852639 
L 148.132849 201.430335 
L 149.433892 201.889716 
L 150.9412 202.169627 
L 152.627004 202.214096 
L 154.418193 201.985041 
L 156.202145 201.475082 
L 157.857513 200.715562 
L 159.289742 199.771633 
L 160.448293 198.721997 
L 161.324139 197.63419 
L 161.938609 196.550584 
L 162.33187 195.489501 
L 162.599807 194.115106 
L 162.731552 191.806953 
L 162.883685 190.217538 
L 163.214698 188.961917 
L 163.651825 188.018541 
L 164.292546 187.073683 
L 165.167761 186.143579 
L 166.297877 185.266572 
L 167.68504 184.502488 
L 169.301369 183.921355 
L 171.077566 183.584457 
L 172.905057 183.526472 
L 174.66218 183.746382 
L 176.250825 184.209138 
L 177.616011 184.856207 
L 178.741252 185.621458 
L 179.634172 186.447127 
L 180.499127 187.577587 
L 181.051297 188.712194 
L 181.365084 189.861157 
L 181.579036 191.67752 
L 181.881872 194.043512 
L 182.345536 195.543918 
L 182.94469 196.738623 
L 183.816237 197.972124 
L 184.983863 199.196881 
L 186.428358 200.335097 
L 188.078689 201.295889 
L 189.821854 202.006981 
L 191.534479 202.437862 
L 193.120948 202.600216 
L 194.533915 202.533827 
L 195.769377 202.291974 
L 197.179814 201.794913 
L 199.47926 200.654234 
L 201.049206 200.010979 
L 202.154535 199.779713 
L 203.371889 199.746451 
L 204.726131 199.951989 
L 206.196587 200.456181 
L 207.333706 201.07815 
L 208.449083 201.947898 
L 209.485814 203.086889 
L 210.379705 204.485774 
L 211.063916 206.092189 
L 211.482098 207.815506 
L 211.60744 209.548299 
L 211.452695 211.190429 
L 211.06106 212.665303 
L 210.48576 213.928124 
L 209.773996 214.966893 
L 208.962633 215.796289 
L 207.778318 216.631878 
L 206.231699 217.371734 
L 202.204614 219.067407 
L 201.159149 219.839811 
L 200.191854 220.831947 
L 199.081029 222.310374 
L 197.883454 224.263768 
L 196.929449 226.174485 
L 196.386518 227.672387 
L 196.085577 229.121101 
L 195.293613 234.5009 
L 194.775704 235.828865 
L 193.999157 237.269329 
L 192.936467 238.768406 
L 191.613076 240.230667 
L 190.112799 241.540709 
L 188.553205 242.606944 
L 187.044102 243.391855 
L 185.656069 243.907812 
L 184.028845 244.247535 
L 182.615418 244.294732 
L 180.680215 244.065598 
L 178.613465 243.822033 
L 176.96277 243.859457 
L 175.514215 244.086398 
L 173.880515 244.53947 
L 172.115053 245.246841 
L 170.330192 246.195568 
L 168.66653 247.322151 
L 167.239797 248.531421 
L 166.103841 249.735404 
L 165.019879 251.245457 
L 164.308791 252.621182 
L 162.569251 256.558454 
L 161.627955 257.761834 
L 160.643486 258.683456 
L 159.37582 259.596155 
L 157.819499 260.446831 
L 156.023159 261.162206 
L 154.097182 261.67302 
L 152.187533 261.941329 
L 150.422645 261.97215 
L 148.8739 261.80512 
L 147.162466 261.373022 
L 145.498828 260.679601 
L 140.877495 258.372197 
L 140.877495 258.372197 
" clip-path="url(#peb53a4c727)" style="fill: none; stroke-dasharray: 1.5,2.475; stroke-dashoffset: 0; stroke: #d62728; stroke-width: 1.5"/>
   </g>
   <g id="patch_3">
    <path d="M 47.959375 273.410457 
L 47.959375 22.08 
" style="fill: none; stroke: #000000; stroke-width: 0.8; stroke-linejoin: miter; stroke-linecap: square"/>
   </g>
   <g id="patch_4">
    <path d="M 47.959375 273.410457 
L 328.977567 273.410457 
" style="fill: none; stroke: #000000; stroke-width: 0.8; stroke-linejoin: miter; stroke-linecap: square"/>
   </g>
   <g id="text_20">
    <!-- Two Trajectories -->
    <g transform="translate(143.617533 16.08) scale(0.12 -0.12)">
     <defs>
      <path id="IBMPlexSans-54" d="M 3520 3994 
L 3520 4467 
L 141 4467 
L 141 3994 
L 1562 3994 
L 1562 0 
L 2099 0 
L 2099 3994 
L 3520 3994 
z
" transform="scale(0.015625)"/>
      <path id="IBMPlexSans-77" d="M 1082 0 
L 1702 0 
L 2163 1587 
L 2445 2592 
L 2458 2592 
L 2746 1587 
L 3206 0 
L 3840 0 
L 4717 3302 
L 4237 3302 
L 3878 1875 
L 3539 429 
L 3526 429 
L 3117 1875 
L 2688 3302 
L 2234 3302 
L 1818 1875 
L 1414 429 
L 1402 429 
L 1050 1875 
L 698 3302 
L 198 3302 
L 1082 0 
z
" transform="scale(0.015625)"/>
      <path id="IBMPlexSans-6f" d="M 1792 -77 
C 2675 -77 3283 602 3283 1651 
C 3283 2701 2675 3379 1792 3379 
C 909 3379 301 2701 301 1651 
C 301 602 909 -77 1792 -77 
z
M 1792 378 
C 1242 378 851 717 851 1414 
L 851 1888 
C 851 2586 1242 2925 1792 2925 
C 2342 2925 2733 2586 2733 1888 
L 2733 1414 
C 2733 717 2342 378 1792 378 
z
" transform="scale(0.015625)"/>
      <path id="IBMPlexSans-72" d="M 1056 0 
L 1056 2240 
C 1056 2554 1389 2790 1939 2790 
L 2240 2790 
L 2240 3302 
L 2042 3302 
C 1504 3302 1203 3008 1088 2694 
L 1056 2694 
L 1056 3302 
L 544 3302 
L 544 0 
L 1056 0 
z
" transform="scale(0.015625)"/>
      <path id="IBMPlexSans-61" d="M 3232 0 
L 3232 448 
L 2854 448 
L 2854 2266 
C 2854 2963 2381 3379 1587 3379 
C 992 3379 595 3085 416 2733 
L 723 2445 
C 902 2746 1165 2938 1562 2938 
C 2086 2938 2342 2682 2342 2214 
L 2342 1888 
L 1690 1888 
C 730 1888 282 1542 282 922 
C 282 307 691 -77 1389 -77 
C 1850 -77 2202 134 2342 538 
L 2374 538 
C 2413 230 2566 0 2944 0 
L 3232 0 
z
M 1472 358 
C 1075 358 819 544 819 870 
L 819 1005 
C 819 1325 1082 1504 1664 1504 
L 2342 1504 
L 2342 960 
C 2342 621 1978 358 1472 358 
z
" transform="scale(0.015625)"/>
      <path id="IBMPlexSans-6a" d="M 544 -832 
L 6 -832 
L 6 -1280 
L 339 -1280 
C 832 -1280 1056 -966 1056 -512 
L 1056 3302 
L 544 3302 
L 544 -832 
z
M 800 4077 
C 1018 4077 1114 4192 1114 4365 
L 1114 4448 
C 1114 4621 1018 4736 800 4736 
C 582 4736 486 4621 486 4448 
L 486 4365 
C 486 4192 582 4077 800 4077 
z
" transform="scale(0.015625)"/>
      <path id="IBMPlexSans-65" d="M 1786 -77 
C 2406 -77 2880 230 3091 678 
L 2726 941 
C 2554 576 2234 371 1818 371 
C 1203 371 838 800 838 1370 
L 838 1523 
L 3213 1523 
L 3213 1766 
C 3213 2701 2669 3379 1786 3379 
C 890 3379 301 2701 301 1651 
C 301 602 890 -77 1786 -77 
z
M 1786 2950 
C 2310 2950 2662 2560 2662 1978 
L 2662 1907 
L 838 1907 
L 838 1952 
C 838 2528 1229 2950 1786 2950 
z
" transform="scale(0.015625)"/>
      <path id="IBMPlexSans-63" d="M 1773 -77 
C 2400 -77 2829 230 3040 704 
L 2669 954 
C 2490 576 2189 378 1773 378 
C 1165 378 851 794 851 1370 
L 851 1933 
C 851 2509 1165 2925 1773 2925 
C 2176 2925 2458 2726 2579 2387 
L 3008 2605 
C 2816 3059 2426 3379 1773 3379 
C 845 3379 301 2707 301 1651 
C 301 595 845 -77 1773 -77 
z
" transform="scale(0.015625)"/>
      <path id="IBMPlexSans-74" d="M 1914 0 
L 1914 448 
L 1242 448 
L 1242 2854 
L 1965 2854 
L 1965 3302 
L 1242 3302 
L 1242 4218 
L 781 4218 
L 781 3603 
C 781 3379 710 3302 493 3302 
L 186 3302 
L 186 2854 
L 730 2854 
L 730 544 
C 730 224 922 0 1274 0 
L 1914 0 
z
" transform="scale(0.015625)"/>
      <path id="IBMPlexSans-69" d="M 800 4077 
C 1018 4077 1114 4192 1114 4365 
L 1114 4448 
C 1114 4621 1018 4736 800 4736 
C 582 4736 486 4621 486 4448 
L 486 4365 
C 486 4192 582 4077 800 4077 
z
M 544 0 
L 1056 0 
L 1056 3302 
L 544 3302 
L 544 0 
z
" transform="scale(0.015625)"/>
      <path id="IBMPlexSans-73" d="M 1536 -77 
C 2291 -77 2758 314 2758 954 
C 2758 1453 2477 1773 1747 1882 
L 1491 1920 
C 1082 1984 858 2112 858 2432 
C 858 2746 1082 2944 1504 2944 
C 1926 2944 2208 2746 2355 2541 
L 2694 2848 
C 2426 3181 2074 3379 1542 3379 
C 870 3379 365 3059 365 2406 
C 365 1792 819 1542 1427 1453 
L 1690 1414 
C 2125 1350 2266 1152 2266 896 
C 2266 557 2010 358 1574 358 
C 1158 358 851 544 595 864 
L 230 570 
C 525 179 928 -77 1536 -77 
z
" transform="scale(0.015625)"/>
     </defs>
     <use xlink:href="#IBMPlexSans-54"/>
     <use xlink:href="#IBMPlexSans-77" transform="translate(57.199997 0)"/>
     <use xlink:href="#IBMPlexSans-6f" transform="translate(133.999985 0)"/>
     <use xlink:href="#IBMPlexSans-20" transform="translate(189.999969 0)"/>
     <use xlink:href="#IBMPlexSans-54" transform="translate(213.59996 0)"/>
     <use xlink:href="#IBMPlexSans-72" transform="translate(270.799957 0)"/>
     <use xlink:href="#IBMPlexSans-61" transform="translate(307.499954 0)"/>
     <use xlink:href="#IBMPlexSans-6a" transform="translate(360.899948 0)"/>
     <use xlink:href="#IBMPlexSans-65" transform="translate(385.899933 0)"/>
     <use xlink:href="#IBMPlexSans-63" transform="translate(440.799927 0)"/>
     <use xlink:href="#IBMPlexSans-74" transform="translate(491.099915 0)"/>
     <use xlink:href="#IBMPlexSans-6f" transform="translate(526.199905 0)"/>
     <use xlink:href="#IBMPlexSans-72" transform="translate(582.19989 0)"/>
     <use xlink:href="#IBMPlexSans-69" transform="translate(618.899887 0)"/>
     <use xlink:href="#IBMPlexSans-65" transform="translate(643.899872 0)"/>
     <use xlink:href="#IBMPlexSans-73" transform="translate(698.799866 0)"/>
    </g>
   </g>
   <g id="legend_1">
    <g id="patch_5">
     <path d="M 225.308817 268.410457 
L 321.977567 268.410457 
Q 323.977567 268.410457 323.977567 266.410457 
L 323.977567 224.210457 
Q 323.977567 222.210457 321.977567 222.210457 
L 225.308817 222.210457 
Q 223.308817 222.210457 223.308817 224.210457 
L 223.308817 266.410457 
Q 223.308817 268.410457 225.308817 268.410457 
z
" style="fill: #ffffff; opacity: 0.8; stroke: #cccccc; stroke-linejoin: miter"/>
    </g>
    <g id="line2d_21">
     <g>
      <use xlink:href="#m9d01d1e5de" x="237.308817" y="230.110457" style="stroke: #000000"/>
     </g>
    </g>
    <g id="text_21">
     <!-- Initial position -->
     <g transform="translate(255.308817 233.610457) scale(0.1 -0.1)">
      <defs>
       <path id="IBMPlexSans-49" d="M 2176 0 
L 2176 448 
L 1549 448 
L 1549 4019 
L 2176 4019 
L 2176 4467 
L 384 4467 
L 384 4019 
L 1011 4019 
L 1011 448 
L 384 448 
L 384 0 
L 2176 0 
z
" transform="scale(0.015625)"/>
       <path id="IBMPlexSans-6e" d="M 1056 0 
L 1056 2291 
C 1056 2714 1453 2918 1862 2918 
C 2355 2918 2611 2618 2611 2029 
L 2611 0 
L 3123 0 
L 3123 2118 
C 3123 2918 2694 3379 2016 3379 
C 1523 3379 1242 3136 1082 2765 
L 1056 2765 
L 1056 3302 
L 544 3302 
L 544 0 
L 1056 0 
z
" transform="scale(0.015625)"/>
       <path id="IBMPlexSans-6c" d="M 1542 0 
L 1542 448 
L 1056 448 
L 1056 4736 
L 544 4736 
L 544 531 
C 544 224 736 0 1088 0 
L 1542 0 
z
" transform="scale(0.015625)"/>
       <path id="IBMPlexSans-70" d="M 544 -1280 
L 1056 -1280 
L 1056 538 
L 1082 538 
C 1280 128 1594 -77 2048 -77 
C 2874 -77 3392 595 3392 1651 
C 3392 2707 2874 3379 2048 3379 
C 1594 3379 1254 3181 1082 2765 
L 1056 2765 
L 1056 3302 
L 544 3302 
L 544 -1280 
z
M 1907 384 
C 1440 384 1056 627 1056 1056 
L 1056 2285 
C 1056 2650 1440 2918 1907 2918 
C 2483 2918 2842 2522 2842 1933 
L 2842 1370 
C 2842 781 2483 384 1907 384 
z
" transform="scale(0.015625)"/>
      </defs>
      <use xlink:href="#IBMPlexSans-49"/>
      <use xlink:href="#IBMPlexSans-6e" transform="translate(39.999985 0)"/>
      <use xlink:href="#IBMPlexSans-69" transform="translate(96.799973 0)"/>
      <use xlink:href="#IBMPlexSans-74" transform="translate(121.799957 0)"/>
      <use xlink:href="#IBMPlexSans-69" transform="translate(156.899948 0)"/>
      <use xlink:href="#IBMPlexSans-61" transform="translate(181.899933 0)"/>
      <use xlink:href="#IBMPlexSans-6c" transform="translate(235.299927 0)"/>
      <use xlink:href="#IBMPlexSans-20" transform="translate(262.499924 0)"/>
      <use xlink:href="#IBMPlexSans-70" transform="translate(286.099915 0)"/>
      <use xlink:href="#IBMPlexSans-6f" transform="translate(344.099899 0)"/>
      <use xlink:href="#IBMPlexSans-73" transform="translate(400.099884 0)"/>
      <use xlink:href="#IBMPlexSans-69" transform="translate(448.799881 0)"/>
      <use xlink:href="#IBMPlexSans-74" transform="translate(473.799866 0)"/>
      <use xlink:href="#IBMPlexSans-69" transform="translate(508.899857 0)"/>
      <use xlink:href="#IBMPlexSans-6f" transform="translate(533.899841 0)"/>
      <use xlink:href="#IBMPlexSans-6e" transform="translate(589.899826 0)"/>
     </g>
    </g>
    <g id="line2d_22">
     <path d="M 227.308817 244.510457 
L 237.308817 244.510457 
L 247.308817 244.510457 
" style="fill: none; stroke: #ff7f0e; stroke-width: 1.5; stroke-linecap: square"/>
    </g>
    <g id="text_22">
     <!-- Trajectory 1 -->
     <g transform="translate(255.308817 248.010457) scale(0.1 -0.1)">
      <use xlink:href="#IBMPlexSans-54"/>
      <use xlink:href="#IBMPlexSans-72" transform="translate(57.199997 0)"/>
      <use xlink:href="#IBMPlexSans-61" transform="translate(93.899994 0)"/>
      <use xlink:href="#IBMPlexSans-6a" transform="translate(147.299988 0)"/>
      <use xlink:href="#IBMPlexSans-65" transform="translate(172.299973 0)"/>
      <use xlink:href="#IBMPlexSans-63" transform="translate(227.199966 0)"/>
      <use xlink:href="#IBMPlexSans-74" transform="translate(277.499954 0)"/>
      <use xlink:href="#IBMPlexSans-6f" transform="translate(312.599945 0)"/>
      <use xlink:href="#IBMPlexSans-72" transform="translate(368.59993 0)"/>
      <use xlink:href="#IBMPlexSans-79" transform="translate(405.299927 0)"/>
      <use xlink:href="#IBMPlexSans-20" transform="translate(455.199921 0)"/>
      <use xlink:href="#IBMPlexSans-31" transform="translate(478.799911 0)"/>
     </g>
    </g>
    <g id="line2d_23">
     <path d="M 227.308817 258.910457 
L 237.308817 258.910457 
L 247.308817 258.910457 
" style="fill: none; stroke-dasharray: 1.5,2.475; stroke-dashoffset: 0; stroke: #d62728; stroke-width: 1.5"/>
    </g>
    <g id="text_23">
     <!-- Trajectory 2 -->
     <g transform="translate(255.308817 262.410457) scale(0.1 -0.1)">
      <use xlink:href="#IBMPlexSans-54"/>
      <use xlink:href="#IBMPlexSans-72" transform="translate(57.199997 0)"/>
      <use xlink:href="#IBMPlexSans-61" transform="translate(93.899994 0)"/>
      <use xlink:href="#IBMPlexSans-6a" transform="translate(147.299988 0)"/>
      <use xlink:href="#IBMPlexSans-65" transform="translate(172.299973 0)"/>
      <use xlink:href="#IBMPlexSans-63" transform="translate(227.199966 0)"/>
      <use xlink:href="#IBMPlexSans-74" transform="translate(277.499954 0)"/>
      <use xlink:href="#IBMPlexSans-6f" transform="translate(312.599945 0)"/>
      <use xlink:href="#IBMPlexSans-72" transform="translate(368.59993 0)"/>
      <use xlink:href="#IBMPlexSans-79" transform="translate(405.299927 0)"/>
      <use xlink:href="#IBMPlexSans-20" transform="translate(455.199921 0)"/>
      <use xlink:href="#IBMPlexSans-32" transform="translate(478.799911 0)"/>
     </g>
    </g>
   </g>
  </g>
 </g>
 <defs>
  <clipPath id="peb53a4c727">
   <rect x="47.959375" y="22.08" width="281.018192" height="251.330458"/>
  </clipPath>
 </defs>
</svg>