<?xml version="1.0" encoding="utf-8" standalone="no"?>
<!DOCTYPE svg PUBLIC "-//W3C//DTD SVG 1.1//EN"
  "http://www.w3.org/Graphics/SVG/1.1/DTD/svg11.dtd">
<svg xmlns:xlink="http://www.w3.org/1999/xlink" width="548.39952pt" height="312.14952pt" viewBox="0 0 548.39952 312.14952" xmlns="http://www.w3.org/2000/svg" version="1.1">
 <metadata>
  <rdf:RDF xmlns:dc="http://purl.org/dc/elements/1.1/" xmlns:cc="http://creativecommons.org/ns#" xmlns:rdf="http://www.w3.org/1999/02/22-rdf-syntax-ns#">
   <cc:Work>
    <dc:type rdf:resource="http://purl.org/dc/dcmitype/StillImage"/>
    <dc:date>2026-01-27T08:27:31.963831</dc:date>
    <dc:format>image/svg+xml</dc:format>
    <dc:creator>
     <cc:Agent>
      <dc:title>Matplotlib v3.10.7, https://matplotlib.org/</dc:title>
     </cc:Agent>
    </dc:creator>
   </cc:Work>
  </rdf:RDF>
 </metadata>
 <defs>
  <style type="text/css">*{stroke-linejoin: round; stroke-linecap: butt}</style>
 </defs>
 <g id="figure_1">
  <g id="patch_1">
   <path d="M 0 312.14952 
L 548.39952 312.14952 
L 548.39952 0 
L 0 0 
z
" style="fill: #ffffff"/>
  </g>
  <g id="axes_1">
   <g id="patch_2">
    <path d="M 42.640625 134.82452 
L 268.259676 134.82452 
L 268.259676 17.6 
L 42.640625 17.6 
z
" style="fill: #ffffff"/>
   </g>
   <g id="matplotlib.axis_1">
    <g id="xtick_1">
     <g id="line2d_1">
      <defs>
       <path id="m1b100ac6b2" d="M 0 0 
L 0 2 
" style="stroke: #000000; stroke-width: 0.6"/>
      </defs>
      <g>
       <use xlink:href="#m1b100ac6b2" x="109.738684" y="134.82452" style="stroke: #000000; stroke-width: 0.6"/>
      </g>
     </g>
     <g id="text_1">
      <!-- $\mathdefault{2\times10^{-1}}$ -->
      <g transform="translate(91.388684 147.62452) scale(0.1 -0.1)">
       <defs>
        <path id="IBMPlexSans-32" d="M 3411 474 
L 1062 474 
L 2266 1555 
C 2835 2067 3245 2554 3245 3245 
C 3245 4006 2746 4544 1875 4544 
C 1011 4544 614 4019 442 3494 
L 922 3309 
C 1043 3731 1299 4064 1850 4064 
C 2400 4064 2675 3725 2675 3232 
L 2675 3155 
C 2675 2726 2355 2278 1939 1894 
L 480 550 
L 480 0 
L 3411 0 
L 3411 474 
z
" transform="scale(0.015625)"/>
        <path id="IBMPlexSans-d7" d="M 2938 595 
L 3251 909 
L 2234 1952 
L 3251 2995 
L 2938 3309 
L 1920 2266 
L 902 3309 
L 589 2995 
L 1606 1952 
L 589 909 
L 902 595 
L 1920 1638 
L 2938 595 
z
" transform="scale(0.015625)"/>
        <path id="IBMPlexSans-31" d="M 3501 0 
L 3501 474 
L 2349 474 
L 2349 4467 
L 1510 4467 
L 326 3360 
L 640 3021 
L 1766 4070 
L 1811 4070 
L 1811 474 
L 563 474 
L 563 0 
L 3501 0 
z
" transform="scale(0.015625)"/>
        <path id="IBMPlexSans-30" d="M 1920 -77 
C 2989 -77 3456 774 3456 2234 
C 3456 3693 2989 4544 1920 4544 
C 851 4544 384 3693 384 2234 
C 384 774 851 -77 1920 -77 
z
M 1920 390 
C 1222 390 947 1005 947 1869 
L 947 2598 
C 947 3462 1222 4077 1920 4077 
C 2618 4077 2893 3462 2893 2598 
L 2893 1869 
C 2893 1005 2618 390 1920 390 
z
" transform="scale(0.015625)"/>
        <path id="IBMPlexSans-2212" d="M 3411 1734 
L 3411 2170 
L 429 2170 
L 429 1734 
L 3411 1734 
z
" transform="scale(0.015625)"/>
       </defs>
       <use xlink:href="#IBMPlexSans-32" transform="translate(0 0.026563)"/>
       <use xlink:href="#IBMPlexSans-d7" transform="translate(79.482407 0.026563)"/>
       <use xlink:href="#IBMPlexSans-31" transform="translate(158.964813 0.026563)"/>
       <use xlink:href="#IBMPlexSans-30" transform="translate(218.964798 0.026563)"/>
       <use xlink:href="#IBMPlexSans-2212" transform="translate(279.867673 36.142188) scale(0.7)"/>
       <use xlink:href="#IBMPlexSans-31" transform="translate(321.867663 36.142188) scale(0.7)"/>
      </g>
     </g>
    </g>
    <g id="xtick_2">
     <g id="line2d_2">
      <g>
       <use xlink:href="#m1b100ac6b2" x="176.270068" y="134.82452" style="stroke: #000000; stroke-width: 0.6"/>
      </g>
     </g>
     <g id="text_2">
      <!-- $\mathdefault{3\times10^{-1}}$ -->
      <g transform="translate(157.920068 147.62452) scale(0.1 -0.1)">
       <defs>
        <path id="IBMPlexSans-33" d="M 1184 2573 
L 1184 2106 
L 1709 2106 
C 2336 2106 2669 1805 2669 1280 
L 2669 1229 
C 2669 704 2336 403 1709 403 
C 1165 403 902 640 672 992 
L 269 685 
C 544 301 941 -77 1715 -77 
C 2624 -77 3232 454 3232 1222 
C 3232 1894 2771 2253 2291 2349 
L 2291 2374 
C 2765 2496 3149 2842 3149 3418 
C 3149 4141 2547 4544 1792 4544 
C 1075 4544 685 4173 461 3814 
L 858 3507 
C 1043 3846 1318 4064 1779 4064 
C 2253 4064 2579 3827 2579 3360 
L 2579 3315 
C 2579 2886 2272 2573 1670 2573 
L 1184 2573 
z
" transform="scale(0.015625)"/>
       </defs>
       <use xlink:href="#IBMPlexSans-33" transform="translate(0 0.026563)"/>
       <use xlink:href="#IBMPlexSans-d7" transform="translate(79.482407 0.026563)"/>
       <use xlink:href="#IBMPlexSans-31" transform="translate(158.964813 0.026563)"/>
       <use xlink:href="#IBMPlexSans-30" transform="translate(218.964798 0.026563)"/>
       <use xlink:href="#IBMPlexSans-2212" transform="translate(279.867673 36.142188) scale(0.7)"/>
       <use xlink:href="#IBMPlexSans-31" transform="translate(321.867663 36.142188) scale(0.7)"/>
      </g>
     </g>
    </g>
    <g id="xtick_3">
     <g id="line2d_3">
      <g>
       <use xlink:href="#m1b100ac6b2" x="223.474836" y="134.82452" style="stroke: #000000; stroke-width: 0.6"/>
      </g>
     </g>
     <g id="text_3">
      <!-- $\mathdefault{4\times10^{-1}}$ -->
      <g transform="translate(205.124836 147.62452) scale(0.1 -0.1)">
       <defs>
        <path id="IBMPlexSans-34" d="M 2912 0 
L 2912 877 
L 3558 877 
L 3558 1325 
L 2912 1325 
L 2912 4467 
L 2112 4467 
L 243 1350 
L 243 877 
L 2400 877 
L 2400 0 
L 2912 0 
z
M 2368 4051 
L 2400 4051 
L 2400 1325 
L 749 1325 
L 2368 4051 
z
" transform="scale(0.015625)"/>
       </defs>
       <use xlink:href="#IBMPlexSans-34" transform="translate(0 0.026563)"/>
       <use xlink:href="#IBMPlexSans-d7" transform="translate(79.482407 0.026563)"/>
       <use xlink:href="#IBMPlexSans-31" transform="translate(158.964813 0.026563)"/>
       <use xlink:href="#IBMPlexSans-30" transform="translate(218.964798 0.026563)"/>
       <use xlink:href="#IBMPlexSans-2212" transform="translate(279.867673 36.142188) scale(0.7)"/>
       <use xlink:href="#IBMPlexSans-31" transform="translate(321.867663 36.142188) scale(0.7)"/>
      </g>
     </g>
    </g>
    <g id="xtick_4">
     <g id="line2d_4">
      <g>
       <use xlink:href="#m1b100ac6b2" x="260.089699" y="134.82452" style="stroke: #000000; stroke-width: 0.6"/>
      </g>
     </g>
    </g>
   </g>
   <g id="matplotlib.axis_2">
    <g id="ytick_1">
     <g id="line2d_5">
      <defs>
       <path id="m6ef08ff9e0" d="M 0 0 
L -3.5 0 
" style="stroke: #000000; stroke-width: 0.8"/>
      </defs>
      <g>
       <use xlink:href="#m6ef08ff9e0" x="42.640625" y="129.496133" style="stroke: #000000; stroke-width: 0.8"/>
      </g>
     </g>
     <g id="text_4">
      <!-- 0.0 -->
      <g transform="translate(20.920313 133.196133) scale(0.1 -0.1)">
       <defs>
        <path id="IBMPlexSans-2e" d="M 870 -77 
C 1139 -77 1261 77 1261 294 
L 1261 378 
C 1261 595 1139 749 870 749 
C 602 749 480 595 480 378 
L 480 294 
C 480 77 602 -77 870 -77 
z
" transform="scale(0.015625)"/>
       </defs>
       <use xlink:href="#IBMPlexSans-30"/>
       <use xlink:href="#IBMPlexSans-2e" transform="translate(59.999985 0)"/>
       <use xlink:href="#IBMPlexSans-30" transform="translate(87.199982 0)"/>
      </g>
     </g>
    </g>
    <g id="ytick_2">
     <g id="line2d_6">
      <g>
       <use xlink:href="#m6ef08ff9e0" x="42.640625" y="92.794697" style="stroke: #000000; stroke-width: 0.8"/>
      </g>
     </g>
     <g id="text_5">
      <!-- 0.1 -->
      <g transform="translate(20.920313 96.494697) scale(0.1 -0.1)">
       <use xlink:href="#IBMPlexSans-30"/>
       <use xlink:href="#IBMPlexSans-2e" transform="translate(59.999985 0)"/>
       <use xlink:href="#IBMPlexSans-31" transform="translate(87.199982 0)"/>
      </g>
     </g>
    </g>
    <g id="ytick_3">
     <g id="line2d_7">
      <g>
       <use xlink:href="#m6ef08ff9e0" x="42.640625" y="56.093261" style="stroke: #000000; stroke-width: 0.8"/>
      </g>
     </g>
     <g id="text_6">
      <!-- 0.2 -->
      <g transform="translate(20.920313 59.793261) scale(0.1 -0.1)">
       <use xlink:href="#IBMPlexSans-30"/>
       <use xlink:href="#IBMPlexSans-2e" transform="translate(59.999985 0)"/>
       <use xlink:href="#IBMPlexSans-32" transform="translate(87.199982 0)"/>
      </g>
     </g>
    </g>
    <g id="ytick_4">
     <g id="line2d_8">
      <g>
       <use xlink:href="#m6ef08ff9e0" x="42.640625" y="19.391826" style="stroke: #000000; stroke-width: 0.8"/>
      </g>
     </g>
     <g id="text_7">
      <!-- 0.3 -->
      <g transform="translate(20.920313 23.091826) scale(0.1 -0.1)">
       <use xlink:href="#IBMPlexSans-30"/>
       <use xlink:href="#IBMPlexSans-2e" transform="translate(59.999985 0)"/>
       <use xlink:href="#IBMPlexSans-33" transform="translate(87.199982 0)"/>
      </g>
     </g>
    </g>
    <g id="text_8">
     <!-- cv2l(125%) weight -->
     <g transform="translate(14.8 118.781791) rotate(-90) scale(0.1 -0.1)">
      <defs>
       <path id="IBMPlexSans-63" d="M 1773 -77 
C 2400 -77 2829 230 3040 704 
L 2669 954 
C 2490 576 2189 378 1773 378 
C 1165 378 851 794 851 1370 
L 851 1933 
C 851 2509 1165 2925 1773 2925 
C 2176 2925 2458 2726 2579 2387 
L 3008 2605 
C 2816 3059 2426 3379 1773 3379 
C 845 3379 301 2707 301 1651 
C 301 595 845 -77 1773 -77 
z
" transform="scale(0.015625)"/>
       <path id="IBMPlexSans-76" d="M 1869 0 
L 3034 3302 
L 2541 3302 
L 1952 1664 
L 1594 538 
L 1562 538 
L 1203 1664 
L 627 3302 
L 115 3302 
L 1274 0 
L 1869 0 
z
" transform="scale(0.015625)"/>
       <path id="IBMPlexSans-6c" d="M 1542 0 
L 1542 448 
L 1056 448 
L 1056 4736 
L 544 4736 
L 544 531 
C 544 224 736 0 1088 0 
L 1542 0 
z
" transform="scale(0.015625)"/>
       <path id="IBMPlexSans-28" d="M 531 1997 
C 531 749 1056 -339 1690 -877 
L 2176 -877 
C 1485 -262 1011 819 1011 1715 
L 1011 2266 
C 1011 3162 1466 4224 2176 4864 
L 1690 4864 
C 1037 4307 531 3232 531 1997 
z
" transform="scale(0.015625)"/>
       <path id="IBMPlexSans-35" d="M 3187 4467 
L 794 4467 
L 634 2010 
L 1088 1946 
C 1274 2150 1478 2323 1888 2323 
C 2496 2323 2822 1984 2822 1395 
L 2822 1331 
C 2822 742 2496 403 1888 403 
C 1350 403 1126 640 896 992 
L 493 685 
C 762 301 1146 -77 1888 -77 
C 2829 -77 3392 531 3392 1402 
C 3392 2266 2829 2784 2061 2784 
C 1594 2784 1357 2592 1146 2291 
L 1101 2291 
L 1229 3994 
L 3187 3994 
L 3187 4467 
z
" transform="scale(0.015625)"/>
       <path id="IBMPlexSans-25" d="M 1664 0 
L 4762 4467 
L 4269 4467 
L 1171 0 
L 1664 0 
z
M 1427 2010 
C 2074 2010 2438 2458 2438 3277 
C 2438 4096 2074 4544 1427 4544 
C 781 4544 416 4096 416 3277 
C 416 2458 781 2010 1427 2010 
z
M 1427 2342 
C 1056 2342 877 2598 877 3085 
L 877 3469 
C 877 3955 1056 4211 1427 4211 
C 1798 4211 1978 3955 1978 3469 
L 1978 3085 
C 1978 2598 1798 2342 1427 2342 
z
M 4506 -77 
C 5152 -77 5517 371 5517 1190 
C 5517 2010 5152 2458 4506 2458 
C 3859 2458 3494 2010 3494 1190 
C 3494 371 3859 -77 4506 -77 
z
M 4506 256 
C 4134 256 3955 512 3955 998 
L 3955 1382 
C 3955 1869 4134 2125 4506 2125 
C 4877 2125 5056 1869 5056 1382 
L 5056 998 
C 5056 512 4877 256 4506 256 
z
" transform="scale(0.015625)"/>
       <path id="IBMPlexSans-29" d="M 1613 1997 
C 1613 3232 1107 4307 454 4864 
L -32 4864 
C 678 4224 1133 3162 1133 2266 
L 1133 1715 
C 1133 819 659 -262 -32 -877 
L 454 -877 
C 1088 -339 1613 749 1613 1997 
z
" transform="scale(0.015625)"/>
       <path id="IBMPlexSans-20" transform="scale(0.015625)"/>
       <path id="IBMPlexSans-77" d="M 1082 0 
L 1702 0 
L 2163 1587 
L 2445 2592 
L 2458 2592 
L 2746 1587 
L 3206 0 
L 3840 0 
L 4717 3302 
L 4237 3302 
L 3878 1875 
L 3539 429 
L 3526 429 
L 3117 1875 
L 2688 3302 
L 2234 3302 
L 1818 1875 
L 1414 429 
L 1402 429 
L 1050 1875 
L 698 3302 
L 198 3302 
L 1082 0 
z
" transform="scale(0.015625)"/>
       <path id="IBMPlexSans-65" d="M 1786 -77 
C 2406 -77 2880 230 3091 678 
L 2726 941 
C 2554 576 2234 371 1818 371 
C 1203 371 838 800 838 1370 
L 838 1523 
L 3213 1523 
L 3213 1766 
C 3213 2701 2669 3379 1786 3379 
C 890 3379 301 2701 301 1651 
C 301 602 890 -77 1786 -77 
z
M 1786 2950 
C 2310 2950 2662 2560 2662 1978 
L 2662 1907 
L 838 1907 
L 838 1952 
C 838 2528 1229 2950 1786 2950 
z
" transform="scale(0.015625)"/>
       <path id="IBMPlexSans-69" d="M 800 4077 
C 1018 4077 1114 4192 1114 4365 
L 1114 4448 
C 1114 4621 1018 4736 800 4736 
C 582 4736 486 4621 486 4448 
L 486 4365 
C 486 4192 582 4077 800 4077 
z
M 544 0 
L 1056 0 
L 1056 3302 
L 544 3302 
L 544 0 
z
" transform="scale(0.015625)"/>
       <path id="IBMPlexSans-67" d="M 3328 -365 
C 3328 179 2976 512 2157 512 
L 1453 512 
C 1152 512 947 563 947 762 
C 947 966 1165 1075 1382 1133 
C 1478 1114 1594 1101 1702 1101 
C 2458 1101 2950 1568 2950 2240 
C 2950 2592 2810 2886 2573 3091 
L 2573 3302 
L 3200 3302 
L 3200 3750 
L 2707 3750 
C 2432 3750 2323 3565 2323 3309 
L 2323 3251 
C 2144 3334 1933 3379 1696 3379 
C 947 3379 454 2912 454 2240 
C 454 1779 685 1414 1075 1229 
L 1075 1203 
C 742 1120 506 960 506 627 
C 506 403 614 256 800 166 
L 800 96 
C 474 6 275 -186 275 -544 
C 275 -1062 698 -1357 1728 -1357 
C 2790 -1357 3328 -1043 3328 -365 
z
M 2848 -403 
C 2848 -762 2515 -941 1946 -941 
L 1472 -941 
C 954 -941 755 -704 755 -416 
C 755 -211 851 -64 1062 32 
L 2163 32 
C 2675 32 2848 -141 2848 -403 
z
M 1702 1510 
C 1267 1510 992 1715 992 2150 
L 992 2330 
C 992 2765 1267 2970 1702 2970 
C 2138 2970 2413 2765 2413 2330 
L 2413 2150 
C 2413 1715 2138 1510 1702 1510 
z
" transform="scale(0.015625)"/>
       <path id="IBMPlexSans-68" d="M 544 0 
L 1056 0 
L 1056 2291 
C 1056 2714 1453 2918 1862 2918 
C 2355 2918 2611 2618 2611 2029 
L 2611 0 
L 3123 0 
L 3123 2118 
C 3123 2918 2694 3379 2016 3379 
C 1523 3379 1242 3136 1082 2765 
L 1056 2765 
L 1056 4736 
L 544 4736 
L 544 0 
z
" transform="scale(0.015625)"/>
       <path id="IBMPlexSans-74" d="M 1914 0 
L 1914 448 
L 1242 448 
L 1242 2854 
L 1965 2854 
L 1965 3302 
L 1242 3302 
L 1242 4218 
L 781 4218 
L 781 3603 
C 781 3379 710 3302 493 3302 
L 186 3302 
L 186 2854 
L 730 2854 
L 730 544 
C 730 224 922 0 1274 0 
L 1914 0 
z
" transform="scale(0.015625)"/>
      </defs>
      <use xlink:href="#IBMPlexSans-63"/>
      <use xlink:href="#IBMPlexSans-76" transform="translate(50.299988 0)"/>
      <use xlink:href="#IBMPlexSans-32" transform="translate(99.499985 0)"/>
      <use xlink:href="#IBMPlexSans-6c" transform="translate(159.499969 0)"/>
      <use xlink:href="#IBMPlexSans-28" transform="translate(186.699966 0)"/>
      <use xlink:href="#IBMPlexSans-31" transform="translate(220.199951 0)"/>
      <use xlink:href="#IBMPlexSans-32" transform="translate(280.199936 0)"/>
      <use xlink:href="#IBMPlexSans-35" transform="translate(340.199921 0)"/>
      <use xlink:href="#IBMPlexSans-25" transform="translate(400.199905 0)"/>
      <use xlink:href="#IBMPlexSans-29" transform="translate(492.899887 0)"/>
      <use xlink:href="#IBMPlexSans-20" transform="translate(526.399872 0)"/>
      <use xlink:href="#IBMPlexSans-77" transform="translate(549.999863 0)"/>
      <use xlink:href="#IBMPlexSans-65" transform="translate(626.79985 0)"/>
      <use xlink:href="#IBMPlexSans-69" transform="translate(681.699844 0)"/>
      <use xlink:href="#IBMPlexSans-67" transform="translate(706.699829 0)"/>
      <use xlink:href="#IBMPlexSans-68" transform="translate(759.499817 0)"/>
      <use xlink:href="#IBMPlexSans-74" transform="translate(816.299805 0)"/>
     </g>
    </g>
   </g>
   <g id="line2d_9">
    <path d="M 52.896036 129.324304 
L 63.151448 129.172606 
L 73.406859 128.776315 
L 83.662271 127.935029 
L 93.917682 126.461362 
L 104.173094 123.847827 
L 114.428505 118.38792 
L 124.683916 107.192755 
L 134.939328 85.769306 
L 145.194739 52.265581 
L 155.450151 22.928387 
L 165.705562 54.634443 
L 175.960973 110.838012 
L 186.216385 128.410227 
L 196.471796 129.483579 
L 206.727208 129.496112 
L 216.982619 129.496133 
L 227.238031 129.496133 
L 237.493442 129.496133 
L 247.748853 129.496133 
L 258.004265 129.496133 
" clip-path="url(#pffed094654)" style="fill: none; stroke: #ff7f0e; stroke-width: 1.5; stroke-linecap: square"/>
   </g>
   <g id="patch_3">
    <path d="M 42.640625 134.82452 
L 42.640625 17.6 
" style="fill: none; stroke: #000000; stroke-width: 0.8; stroke-linejoin: miter; stroke-linecap: square"/>
   </g>
   <g id="patch_4">
    <path d="M 42.640625 134.82452 
L 268.259676 134.82452 
" style="fill: none; stroke: #000000; stroke-width: 0.8; stroke-linejoin: miter; stroke-linecap: square"/>
   </g>
  </g>
  <g id="axes_2">
   <g id="patch_5">
    <path d="M 315.580469 134.82452 
L 541.19952 134.82452 
L 541.19952 17.6 
L 315.580469 17.6 
z
" style="fill: #ffffff"/>
   </g>
   <g id="FillBetweenPolyCollection_1">
    <defs>
     <path id="m78f631bfaa" d="M 325.83588 -289.221133 
L 325.83588 -187.293526 
L 336.091292 -186.763489 
L 346.346703 -186.018895 
L 356.602114 -185.27782 
L 366.857526 -184.743116 
L 377.112937 -184.503369 
L 387.368349 -184.2 
L 397.62376 -183.818628 
L 407.879172 -183.424795 
L 418.134583 -182.93589 
L 428.389994 -182.653387 
L 438.645406 -182.820354 
L 448.900817 -183.471272 
L 459.156229 -184.81699 
L 469.41164 -186.869903 
L 479.667051 -189.322917 
L 489.922463 -192.400496 
L 500.177874 -195.73118 
L 510.433286 -199.948095 
L 520.688697 -204.313099 
L 530.944109 -209.442638 
L 530.944109 -282.311275 
L 530.944109 -282.311275 
L 520.688697 -276.917037 
L 510.433286 -272.465807 
L 500.177874 -268.321076 
L 489.922463 -265.246331 
L 479.667051 -262.63375 
L 469.41164 -260.863825 
L 459.156229 -259.762476 
L 448.900817 -259.678782 
L 438.645406 -260.53072 
L 428.389994 -262.109946 
L 418.134583 -264.321692 
L 407.879172 -266.757648 
L 397.62376 -269.246056 
L 387.368349 -271.68238 
L 377.112937 -274.164414 
L 366.857526 -276.685303 
L 356.602114 -279.876012 
L 346.346703 -283.403967 
L 336.091292 -286.622046 
L 325.83588 -289.221133 
z
"/>
    </defs>
    <g clip-path="url(#pf70a945bf2)">
     <use xlink:href="#m78f631bfaa" x="0" y="312.14952" style="fill: #d62728; fill-opacity: 0.3"/>
    </g>
   </g>
   <g id="PathCollection_1">
    <defs>
     <path id="C0_0_a8dd5de0c5" d="M 0 2.738613 
C 0.726289 2.738613 1.422928 2.450055 1.936492 1.936492 
C 2.450055 1.422928 2.738613 0.726289 2.738613 -0 
C 2.738613 -0.726289 2.450055 -1.422928 1.936492 -1.936492 
C 1.422928 -2.450055 0.726289 -2.738613 0 -2.738613 
C -0.726289 -2.738613 -1.422928 -2.450055 -1.936492 -1.936492 
C -2.450055 -1.422928 -2.738613 -0.726289 -2.738613 0 
C -2.738613 0.726289 -2.450055 1.422928 -1.936492 1.936492 
C -1.422928 2.450055 -0.726289 2.738613 0 2.738613 
z
"/>
    </defs>
    <g clip-path="url(#pf70a945bf2)">
     <use xlink:href="#C0_0_a8dd5de0c5" x="356.602114" y="79.572604" style="fill: #fefefe"/>
    </g>
    <g clip-path="url(#pf70a945bf2)">
     <use xlink:href="#C0_0_a8dd5de0c5" x="366.857526" y="81.43531" style="fill: #fcfcfc"/>
    </g>
    <g clip-path="url(#pf70a945bf2)">
     <use xlink:href="#C0_0_a8dd5de0c5" x="377.112937" y="82.815629" style="fill: #f9f9f9"/>
    </g>
    <g clip-path="url(#pf70a945bf2)">
     <use xlink:href="#C0_0_a8dd5de0c5" x="387.368349" y="84.20833" style="fill: #f3f3f3"/>
    </g>
    <g clip-path="url(#pf70a945bf2)">
     <use xlink:href="#C0_0_a8dd5de0c5" x="397.62376" y="85.617178" style="fill: #e1e1e1"/>
    </g>
    <g clip-path="url(#pf70a945bf2)">
     <use xlink:href="#C0_0_a8dd5de0c5" x="407.879172" y="87.058298" style="fill: #b2b2b2"/>
    </g>
    <g clip-path="url(#pf70a945bf2)">
     <use xlink:href="#C0_0_a8dd5de0c5" x="418.134583" y="88.520729" style="fill: #585858"/>
    </g>
    <g clip-path="url(#pf70a945bf2)">
     <use xlink:href="#C0_0_a8dd5de0c5" x="428.389994" y="89.767853"/>
    </g>
    <g clip-path="url(#pf70a945bf2)">
     <use xlink:href="#C0_0_a8dd5de0c5" x="438.645406" y="90.473983" style="fill: #5f5f5f"/>
    </g>
    <g clip-path="url(#pf70a945bf2)">
     <use xlink:href="#C0_0_a8dd5de0c5" x="448.900817" y="90.574493" style="fill: #e7e7e7"/>
    </g>
    <g clip-path="url(#pf70a945bf2)">
     <use xlink:href="#C0_0_a8dd5de0c5" x="459.156229" y="89.859787" style="fill: #fefefe"/>
    </g>
   </g>
   <g id="matplotlib.axis_3">
    <g id="xtick_5">
     <g id="line2d_10">
      <g>
       <use xlink:href="#m1b100ac6b2" x="382.678527" y="134.82452" style="stroke: #000000; stroke-width: 0.6"/>
      </g>
     </g>
     <g id="text_9">
      <!-- $\mathdefault{2\times10^{-1}}$ -->
      <g transform="translate(364.328527 147.62452) scale(0.1 -0.1)">
       <use xlink:href="#IBMPlexSans-32" transform="translate(0 0.026563)"/>
       <use xlink:href="#IBMPlexSans-d7" transform="translate(79.482407 0.026563)"/>
       <use xlink:href="#IBMPlexSans-31" transform="translate(158.964813 0.026563)"/>
       <use xlink:href="#IBMPlexSans-30" transform="translate(218.964798 0.026563)"/>
       <use xlink:href="#IBMPlexSans-2212" transform="translate(279.867673 36.142188) scale(0.7)"/>
       <use xlink:href="#IBMPlexSans-31" transform="translate(321.867663 36.142188) scale(0.7)"/>
      </g>
     </g>
    </g>
    <g id="xtick_6">
     <g id="line2d_11">
      <g>
       <use xlink:href="#m1b100ac6b2" x="449.209911" y="134.82452" style="stroke: #000000; stroke-width: 0.6"/>
      </g>
     </g>
     <g id="text_10">
      <!-- $\mathdefault{3\times10^{-1}}$ -->
      <g transform="translate(430.859911 147.62452) scale(0.1 -0.1)">
       <use xlink:href="#IBMPlexSans-33" transform="translate(0 0.026563)"/>
       <use xlink:href="#IBMPlexSans-d7" transform="translate(79.482407 0.026563)"/>
       <use xlink:href="#IBMPlexSans-31" transform="translate(158.964813 0.026563)"/>
       <use xlink:href="#IBMPlexSans-30" transform="translate(218.964798 0.026563)"/>
       <use xlink:href="#IBMPlexSans-2212" transform="translate(279.867673 36.142188) scale(0.7)"/>
       <use xlink:href="#IBMPlexSans-31" transform="translate(321.867663 36.142188) scale(0.7)"/>
      </g>
     </g>
    </g>
    <g id="xtick_7">
     <g id="line2d_12">
      <g>
       <use xlink:href="#m1b100ac6b2" x="496.41468" y="134.82452" style="stroke: #000000; stroke-width: 0.6"/>
      </g>
     </g>
     <g id="text_11">
      <!-- $\mathdefault{4\times10^{-1}}$ -->
      <g transform="translate(478.06468 147.62452) scale(0.1 -0.1)">
       <use xlink:href="#IBMPlexSans-34" transform="translate(0 0.026563)"/>
       <use xlink:href="#IBMPlexSans-d7" transform="translate(79.482407 0.026563)"/>
       <use xlink:href="#IBMPlexSans-31" transform="translate(158.964813 0.026563)"/>
       <use xlink:href="#IBMPlexSans-30" transform="translate(218.964798 0.026563)"/>
       <use xlink:href="#IBMPlexSans-2212" transform="translate(279.867673 36.142188) scale(0.7)"/>
       <use xlink:href="#IBMPlexSans-31" transform="translate(321.867663 36.142188) scale(0.7)"/>
      </g>
     </g>
    </g>
    <g id="xtick_8">
     <g id="line2d_13">
      <g>
       <use xlink:href="#m1b100ac6b2" x="533.029542" y="134.82452" style="stroke: #000000; stroke-width: 0.6"/>
      </g>
     </g>
    </g>
   </g>
   <g id="matplotlib.axis_4">
    <g id="ytick_5">
     <g id="line2d_14">
      <g>
       <use xlink:href="#m6ef08ff9e0" x="315.580469" y="114.435376" style="stroke: #000000; stroke-width: 0.8"/>
      </g>
     </g>
     <g id="text_12">
      <!-- 5.6 -->
      <g transform="translate(293.860156 118.135376) scale(0.1 -0.1)">
       <defs>
        <path id="IBMPlexSans-36" d="M 1926 -77 
C 2822 -77 3411 525 3411 1402 
C 3411 2246 2861 2778 2093 2778 
C 1549 2778 1229 2502 1018 2138 
L 986 2150 
C 1229 3187 1760 3770 2714 4467 
L 2022 4467 
C 1306 4000 429 2963 429 1638 
C 429 576 998 -77 1926 -77 
z
M 1920 390 
C 1331 390 986 730 986 1331 
L 986 1382 
C 986 1984 1331 2323 1920 2323 
C 2509 2323 2854 1984 2854 1382 
L 2854 1331 
C 2854 730 2509 390 1920 390 
z
" transform="scale(0.015625)"/>
       </defs>
       <use xlink:href="#IBMPlexSans-35"/>
       <use xlink:href="#IBMPlexSans-2e" transform="translate(59.999985 0)"/>
       <use xlink:href="#IBMPlexSans-36" transform="translate(87.199982 0)"/>
      </g>
     </g>
    </g>
    <g id="ytick_6">
     <g id="line2d_15">
      <g>
       <use xlink:href="#m6ef08ff9e0" x="315.580469" y="88.45458" style="stroke: #000000; stroke-width: 0.8"/>
      </g>
     </g>
     <g id="text_13">
      <!-- 5.8 -->
      <g transform="translate(293.860156 92.15458) scale(0.1 -0.1)">
       <defs>
        <path id="IBMPlexSans-38" d="M 1920 -77 
C 2938 -77 3469 480 3469 1216 
C 3469 1824 3104 2176 2566 2323 
L 2566 2374 
C 3034 2534 3334 2912 3334 3424 
C 3334 4102 2810 4544 1920 4544 
C 1030 4544 506 4102 506 3424 
C 506 2912 806 2534 1274 2374 
L 1274 2323 
C 736 2176 371 1824 371 1216 
C 371 480 902 -77 1920 -77 
z
M 1920 390 
C 1299 390 941 685 941 1190 
L 941 1325 
C 941 1830 1299 2125 1920 2125 
C 2541 2125 2899 1830 2899 1325 
L 2899 1190 
C 2899 685 2541 390 1920 390 
z
M 1920 2573 
C 1363 2573 1062 2822 1062 3277 
L 1062 3373 
C 1062 3827 1363 4077 1920 4077 
C 2477 4077 2778 3827 2778 3373 
L 2778 3277 
C 2778 2822 2477 2573 1920 2573 
z
" transform="scale(0.015625)"/>
       </defs>
       <use xlink:href="#IBMPlexSans-35"/>
       <use xlink:href="#IBMPlexSans-2e" transform="translate(59.999985 0)"/>
       <use xlink:href="#IBMPlexSans-38" transform="translate(87.199982 0)"/>
      </g>
     </g>
    </g>
    <g id="ytick_7">
     <g id="line2d_16">
      <g>
       <use xlink:href="#m6ef08ff9e0" x="315.580469" y="62.473783" style="stroke: #000000; stroke-width: 0.8"/>
      </g>
     </g>
     <g id="text_14">
      <!-- 6.0 -->
      <g transform="translate(293.860156 66.173783) scale(0.1 -0.1)">
       <use xlink:href="#IBMPlexSans-36"/>
       <use xlink:href="#IBMPlexSans-2e" transform="translate(59.999985 0)"/>
       <use xlink:href="#IBMPlexSans-30" transform="translate(87.199982 0)"/>
      </g>
     </g>
    </g>
    <g id="ytick_8">
     <g id="line2d_17">
      <g>
       <use xlink:href="#m6ef08ff9e0" x="315.580469" y="36.492987" style="stroke: #000000; stroke-width: 0.8"/>
      </g>
     </g>
     <g id="text_15">
      <!-- 6.2 -->
      <g transform="translate(293.860156 40.192987) scale(0.1 -0.1)">
       <use xlink:href="#IBMPlexSans-36"/>
       <use xlink:href="#IBMPlexSans-2e" transform="translate(59.999985 0)"/>
       <use xlink:href="#IBMPlexSans-32" transform="translate(87.199982 0)"/>
      </g>
     </g>
    </g>
    <g id="text_16">
     <!-- $D$ (95% CI) [m$^2$/s] -->
     <g transform="translate(287.860156 117.01226) rotate(-90) scale(0.1 -0.1)">
      <defs>
       <path id="DejaVuSans-Oblique-44" d="M 1081 4666 
L 2438 4666 
Q 3519 4666 4070 4208 
Q 4622 3750 4622 2847 
Q 4622 2250 4412 1698 
Q 4203 1147 3834 769 
Q 3463 381 2891 190 
Q 2319 0 1538 0 
L 172 0 
L 1081 4666 
z
M 1613 4147 
L 909 519 
L 1734 519 
Q 2794 519 3375 1128 
Q 3956 1738 3956 2847 
Q 3956 3519 3581 3833 
Q 3206 4147 2406 4147 
L 1613 4147 
z
" transform="scale(0.015625)"/>
       <path id="IBMPlexSans-39" d="M 3411 2829 
C 3411 3891 2842 4544 1914 4544 
C 1018 4544 429 3942 429 3066 
C 429 2221 979 1690 1747 1690 
C 2291 1690 2611 1965 2822 2330 
L 2854 2317 
C 2611 1280 2080 698 1126 0 
L 1818 0 
C 2534 467 3411 1504 3411 2829 
z
M 1920 2144 
C 1331 2144 986 2483 986 3085 
L 986 3136 
C 986 3738 1331 4077 1920 4077 
C 2509 4077 2854 3738 2854 3136 
L 2854 3085 
C 2854 2483 2509 2144 1920 2144 
z
" transform="scale(0.015625)"/>
       <path id="IBMPlexSans-43" d="M 2170 -77 
C 2912 -77 3456 314 3738 941 
L 3309 1210 
C 3130 723 2739 403 2170 403 
C 1402 403 947 960 947 1875 
L 947 2541 
C 947 3456 1402 4064 2170 4064 
C 2720 4064 3091 3763 3270 3302 
L 3706 3565 
C 3424 4186 2912 4544 2170 4544 
C 1043 4544 371 3699 371 2208 
C 371 717 1043 -77 2170 -77 
z
" transform="scale(0.015625)"/>
       <path id="IBMPlexSans-49" d="M 2176 0 
L 2176 448 
L 1549 448 
L 1549 4019 
L 2176 4019 
L 2176 4467 
L 384 4467 
L 384 4019 
L 1011 4019 
L 1011 448 
L 384 448 
L 384 0 
L 2176 0 
z
" transform="scale(0.015625)"/>
       <path id="IBMPlexSans-5b" d="M 1645 -883 
L 1645 -480 
L 1037 -480 
L 1037 4461 
L 1645 4461 
L 1645 4864 
L 595 4864 
L 595 -883 
L 1645 -883 
z
" transform="scale(0.015625)"/>
       <path id="IBMPlexSans-6d" d="M 1056 0 
L 1056 2291 
C 1056 2714 1440 2918 1843 2918 
C 2330 2918 2554 2618 2554 2029 
L 2554 0 
L 3066 0 
L 3066 2291 
C 3066 2714 3437 2918 3840 2918 
C 4339 2918 4563 2611 4563 2029 
L 4563 0 
L 5075 0 
L 5075 2118 
C 5075 2918 4672 3379 4000 3379 
C 3437 3379 3117 3066 2995 2707 
L 2982 2707 
C 2803 3181 2406 3379 1971 3379 
C 1459 3379 1229 3104 1082 2765 
L 1056 2765 
L 1056 3302 
L 544 3302 
L 544 0 
L 1056 0 
z
" transform="scale(0.015625)"/>
       <path id="DejaVuSans-32" d="M 1228 531 
L 3431 531 
L 3431 0 
L 469 0 
L 469 531 
Q 828 903 1448 1529 
Q 2069 2156 2228 2338 
Q 2531 2678 2651 2914 
Q 2772 3150 2772 3378 
Q 2772 3750 2511 3984 
Q 2250 4219 1831 4219 
Q 1534 4219 1204 4116 
Q 875 4013 500 3803 
L 500 4441 
Q 881 4594 1212 4672 
Q 1544 4750 1819 4750 
Q 2544 4750 2975 4387 
Q 3406 4025 3406 3419 
Q 3406 3131 3298 2873 
Q 3191 2616 2906 2266 
Q 2828 2175 2409 1742 
Q 1991 1309 1228 531 
z
" transform="scale(0.015625)"/>
       <path id="IBMPlexSans-2f" d="M 518 -966 
L 2189 4736 
L 1728 4736 
L 58 -966 
L 518 -966 
z
" transform="scale(0.015625)"/>
       <path id="IBMPlexSans-73" d="M 1536 -77 
C 2291 -77 2758 314 2758 954 
C 2758 1453 2477 1773 1747 1882 
L 1491 1920 
C 1082 1984 858 2112 858 2432 
C 858 2746 1082 2944 1504 2944 
C 1926 2944 2208 2746 2355 2541 
L 2694 2848 
C 2426 3181 2074 3379 1542 3379 
C 870 3379 365 3059 365 2406 
C 365 1792 819 1542 1427 1453 
L 1690 1414 
C 2125 1350 2266 1152 2266 896 
C 2266 557 2010 358 1574 358 
C 1158 358 851 544 595 864 
L 230 570 
C 525 179 928 -77 1536 -77 
z
" transform="scale(0.015625)"/>
       <path id="IBMPlexSans-5d" d="M 384 4864 
L 384 4461 
L 992 4461 
L 992 -480 
L 384 -480 
L 384 -883 
L 1434 -883 
L 1434 4864 
L 384 4864 
z
" transform="scale(0.015625)"/>
      </defs>
      <use xlink:href="#DejaVuSans-Oblique-44" transform="translate(0 0.765625)"/>
      <use xlink:href="#IBMPlexSans-20" transform="translate(77.001953 0.765625)"/>
      <use xlink:href="#IBMPlexSans-28" transform="translate(100.601944 0.765625)"/>
      <use xlink:href="#IBMPlexSans-39" transform="translate(134.101929 0.765625)"/>
      <use xlink:href="#IBMPlexSans-35" transform="translate(194.101913 0.765625)"/>
      <use xlink:href="#IBMPlexSans-25" transform="translate(254.101898 0.765625)"/>
      <use xlink:href="#IBMPlexSans-20" transform="translate(346.80188 0.765625)"/>
      <use xlink:href="#IBMPlexSans-43" transform="translate(370.401871 0.765625)"/>
      <use xlink:href="#IBMPlexSans-49" transform="translate(432.501862 0.765625)"/>
      <use xlink:href="#IBMPlexSans-29" transform="translate(472.501846 0.765625)"/>
      <use xlink:href="#IBMPlexSans-20" transform="translate(506.001831 0.765625)"/>
      <use xlink:href="#IBMPlexSans-5b" transform="translate(529.601822 0.765625)"/>
      <use xlink:href="#IBMPlexSans-6d" transform="translate(561.301819 0.765625)"/>
      <use xlink:href="#DejaVuSans-32" transform="translate(649.558838 39.046875) scale(0.7)"/>
      <use xlink:href="#IBMPlexSans-2f" transform="translate(696.829346 0.765625)"/>
      <use xlink:href="#IBMPlexSans-73" transform="translate(735.129333 0.765625)"/>
      <use xlink:href="#IBMPlexSans-5d" transform="translate(783.82933 0.765625)"/>
     </g>
    </g>
    <g id="text_17">
     <!-- 1e−7 -->
     <g transform="translate(315.580469 14.6) scale(0.1 -0.1)">
      <defs>
       <path id="IBMPlexSans-37" d="M 1696 0 
L 3373 3994 
L 3373 4467 
L 442 4467 
L 442 3174 
L 922 3174 
L 922 4006 
L 2829 4006 
L 1120 0 
L 1696 0 
z
" transform="scale(0.015625)"/>
      </defs>
      <use xlink:href="#IBMPlexSans-31"/>
      <use xlink:href="#IBMPlexSans-65" transform="translate(59.999985 0)"/>
      <use xlink:href="#IBMPlexSans-2212" transform="translate(114.899979 0)"/>
      <use xlink:href="#IBMPlexSans-37" transform="translate(174.899963 0)"/>
     </g>
    </g>
   </g>
   <g id="line2d_18">
    <path d="M 325.83588 73.89219 
L 336.091292 75.456752 
L 346.346703 77.438089 
L 356.602114 79.572604 
L 366.857526 81.43531 
L 377.112937 82.815629 
L 387.368349 84.20833 
L 397.62376 85.617178 
L 407.879172 87.058298 
L 418.134583 88.520729 
L 428.389994 89.767853 
L 438.645406 90.473983 
L 448.900817 90.574493 
L 459.156229 89.859787 
L 469.41164 88.282656 
L 479.667051 86.171187 
L 489.922463 83.326106 
L 500.177874 80.123392 
L 510.433286 75.942569 
L 520.688697 71.534452 
L 530.944109 66.272563 
" clip-path="url(#pf70a945bf2)" style="fill: none; stroke: #d62728; stroke-width: 1.5; stroke-linecap: square"/>
   </g>
   <g id="patch_6">
    <path d="M 315.580469 134.82452 
L 315.580469 17.6 
" style="fill: none; stroke: #000000; stroke-width: 0.8; stroke-linejoin: miter; stroke-linecap: square"/>
   </g>
   <g id="patch_7">
    <path d="M 315.580469 134.82452 
L 541.19952 134.82452 
" style="fill: none; stroke: #000000; stroke-width: 0.8; stroke-linejoin: miter; stroke-linecap: square"/>
   </g>
  </g>
  <g id="axes_3">
   <g id="patch_8">
    <path d="M 42.640625 276.54952 
L 268.259676 276.54952 
L 268.259676 159.325 
L 42.640625 159.325 
z
" style="fill: #ffffff"/>
   </g>
   <g id="matplotlib.axis_5">
    <g id="xtick_9">
     <g id="line2d_19">
      <g>
       <use xlink:href="#m1b100ac6b2" x="109.738684" y="276.54952" style="stroke: #000000; stroke-width: 0.6"/>
      </g>
     </g>
     <g id="text_18">
      <!-- $\mathdefault{2\times10^{-1}}$ -->
      <g transform="translate(91.388684 289.34952) scale(0.1 -0.1)">
       <use xlink:href="#IBMPlexSans-32" transform="translate(0 0.026563)"/>
       <use xlink:href="#IBMPlexSans-d7" transform="translate(79.482407 0.026563)"/>
       <use xlink:href="#IBMPlexSans-31" transform="translate(158.964813 0.026563)"/>
       <use xlink:href="#IBMPlexSans-30" transform="translate(218.964798 0.026563)"/>
       <use xlink:href="#IBMPlexSans-2212" transform="translate(279.867673 36.142188) scale(0.7)"/>
       <use xlink:href="#IBMPlexSans-31" transform="translate(321.867663 36.142188) scale(0.7)"/>
      </g>
     </g>
    </g>
    <g id="xtick_10">
     <g id="line2d_20">
      <g>
       <use xlink:href="#m1b100ac6b2" x="176.270068" y="276.54952" style="stroke: #000000; stroke-width: 0.6"/>
      </g>
     </g>
     <g id="text_19">
      <!-- $\mathdefault{3\times10^{-1}}$ -->
      <g transform="translate(157.920068 289.34952) scale(0.1 -0.1)">
       <use xlink:href="#IBMPlexSans-33" transform="translate(0 0.026563)"/>
       <use xlink:href="#IBMPlexSans-d7" transform="translate(79.482407 0.026563)"/>
       <use xlink:href="#IBMPlexSans-31" transform="translate(158.964813 0.026563)"/>
       <use xlink:href="#IBMPlexSans-30" transform="translate(218.964798 0.026563)"/>
       <use xlink:href="#IBMPlexSans-2212" transform="translate(279.867673 36.142188) scale(0.7)"/>
       <use xlink:href="#IBMPlexSans-31" transform="translate(321.867663 36.142188) scale(0.7)"/>
      </g>
     </g>
    </g>
    <g id="xtick_11">
     <g id="line2d_21">
      <g>
       <use xlink:href="#m1b100ac6b2" x="223.474836" y="276.54952" style="stroke: #000000; stroke-width: 0.6"/>
      </g>
     </g>
     <g id="text_20">
      <!-- $\mathdefault{4\times10^{-1}}$ -->
      <g transform="translate(205.124836 289.34952) scale(0.1 -0.1)">
       <use xlink:href="#IBMPlexSans-34" transform="translate(0 0.026563)"/>
       <use xlink:href="#IBMPlexSans-d7" transform="translate(79.482407 0.026563)"/>
       <use xlink:href="#IBMPlexSans-31" transform="translate(158.964813 0.026563)"/>
       <use xlink:href="#IBMPlexSans-30" transform="translate(218.964798 0.026563)"/>
       <use xlink:href="#IBMPlexSans-2212" transform="translate(279.867673 36.142188) scale(0.7)"/>
       <use xlink:href="#IBMPlexSans-31" transform="translate(321.867663 36.142188) scale(0.7)"/>
      </g>
     </g>
    </g>
    <g id="xtick_12">
     <g id="line2d_22">
      <g>
       <use xlink:href="#m1b100ac6b2" x="260.089699" y="276.54952" style="stroke: #000000; stroke-width: 0.6"/>
      </g>
     </g>
    </g>
    <g id="text_21">
     <!-- Cutoff frequency [THz] -->
     <g transform="translate(104.929057 302.94952) scale(0.1 -0.1)">
      <defs>
       <path id="IBMPlexSans-75" d="M 2579 0 
L 3091 0 
L 3091 3302 
L 2579 3302 
L 2579 1018 
C 2579 582 2182 384 1779 384 
C 1286 384 1024 685 1024 1274 
L 1024 3302 
L 512 3302 
L 512 1184 
C 512 384 947 -77 1626 -77 
C 2176 -77 2426 224 2554 538 
L 2579 538 
L 2579 0 
z
" transform="scale(0.015625)"/>
       <path id="IBMPlexSans-6f" d="M 1792 -77 
C 2675 -77 3283 602 3283 1651 
C 3283 2701 2675 3379 1792 3379 
C 909 3379 301 2701 301 1651 
C 301 602 909 -77 1792 -77 
z
M 1792 378 
C 1242 378 851 717 851 1414 
L 851 1888 
C 851 2586 1242 2925 1792 2925 
C 2342 2925 2733 2586 2733 1888 
L 2733 1414 
C 2733 717 2342 378 1792 378 
z
" transform="scale(0.015625)"/>
       <path id="IBMPlexSans-66" d="M 723 0 
L 1235 0 
L 1235 2854 
L 1946 2854 
L 1946 3302 
L 1235 3302 
L 1235 4288 
L 1946 4288 
L 1946 4736 
L 1446 4736 
C 960 4736 723 4422 723 3968 
L 723 3302 
L 186 3302 
L 186 2854 
L 723 2854 
L 723 0 
z
" transform="scale(0.015625)"/>
       <path id="IBMPlexSans-72" d="M 1056 0 
L 1056 2240 
C 1056 2554 1389 2790 1939 2790 
L 2240 2790 
L 2240 3302 
L 2042 3302 
C 1504 3302 1203 3008 1088 2694 
L 1056 2694 
L 1056 3302 
L 544 3302 
L 544 0 
L 1056 0 
z
" transform="scale(0.015625)"/>
       <path id="IBMPlexSans-71" d="M 2656 -1280 
L 3168 -1280 
L 3168 3302 
L 2656 3302 
L 2656 2765 
L 2630 2765 
C 2458 3181 2118 3379 1664 3379 
C 838 3379 320 2707 320 1651 
C 320 595 838 -77 1664 -77 
C 2118 -77 2432 128 2630 538 
L 2656 538 
L 2656 -1280 
z
M 1805 384 
C 1229 384 870 781 870 1370 
L 870 1933 
C 870 2522 1229 2918 1805 2918 
C 2272 2918 2656 2650 2656 2285 
L 2656 1056 
C 2656 627 2272 384 1805 384 
z
" transform="scale(0.015625)"/>
       <path id="IBMPlexSans-6e" d="M 1056 0 
L 1056 2291 
C 1056 2714 1453 2918 1862 2918 
C 2355 2918 2611 2618 2611 2029 
L 2611 0 
L 3123 0 
L 3123 2118 
C 3123 2918 2694 3379 2016 3379 
C 1523 3379 1242 3136 1082 2765 
L 1056 2765 
L 1056 3302 
L 544 3302 
L 544 0 
L 1056 0 
z
" transform="scale(0.015625)"/>
       <path id="IBMPlexSans-79" d="M 1779 1056 
L 1600 518 
L 1568 518 
L 1414 1056 
L 621 3302 
L 109 3302 
L 1344 -128 
L 1094 -832 
L 576 -832 
L 576 -1280 
L 838 -1280 
C 1325 -1280 1459 -1165 1606 -768 
L 3085 3302 
L 2579 3302 
L 1779 1056 
z
" transform="scale(0.015625)"/>
       <path id="IBMPlexSans-54" d="M 3520 3994 
L 3520 4467 
L 141 4467 
L 141 3994 
L 1562 3994 
L 1562 0 
L 2099 0 
L 2099 3994 
L 3520 3994 
z
" transform="scale(0.015625)"/>
       <path id="IBMPlexSans-48" d="M 3392 0 
L 3930 0 
L 3930 4467 
L 3392 4467 
L 3392 2496 
L 1133 2496 
L 1133 4467 
L 595 4467 
L 595 0 
L 1133 0 
L 1133 2022 
L 3392 2022 
L 3392 0 
z
" transform="scale(0.015625)"/>
       <path id="IBMPlexSans-7a" d="M 2758 0 
L 2758 448 
L 794 448 
L 2707 2918 
L 2707 3302 
L 269 3302 
L 269 2854 
L 2086 2854 
L 211 429 
L 211 0 
L 2758 0 
z
" transform="scale(0.015625)"/>
      </defs>
      <use xlink:href="#IBMPlexSans-43"/>
      <use xlink:href="#IBMPlexSans-75" transform="translate(62.099991 0)"/>
      <use xlink:href="#IBMPlexSans-74" transform="translate(118.899979 0)"/>
      <use xlink:href="#IBMPlexSans-6f" transform="translate(153.999969 0)"/>
      <use xlink:href="#IBMPlexSans-66" transform="translate(209.999954 0)"/>
      <use xlink:href="#IBMPlexSans-66" transform="translate(242.399948 0)"/>
      <use xlink:href="#IBMPlexSans-20" transform="translate(274.799942 0)"/>
      <use xlink:href="#IBMPlexSans-66" transform="translate(298.399933 0)"/>
      <use xlink:href="#IBMPlexSans-72" transform="translate(330.799927 0)"/>
      <use xlink:href="#IBMPlexSans-65" transform="translate(367.499924 0)"/>
      <use xlink:href="#IBMPlexSans-71" transform="translate(422.399918 0)"/>
      <use xlink:href="#IBMPlexSans-75" transform="translate(480.399902 0)"/>
      <use xlink:href="#IBMPlexSans-65" transform="translate(537.19989 0)"/>
      <use xlink:href="#IBMPlexSans-6e" transform="translate(592.099884 0)"/>
      <use xlink:href="#IBMPlexSans-63" transform="translate(648.899872 0)"/>
      <use xlink:href="#IBMPlexSans-79" transform="translate(699.19986 0)"/>
      <use xlink:href="#IBMPlexSans-20" transform="translate(749.099854 0)"/>
      <use xlink:href="#IBMPlexSans-5b" transform="translate(772.699844 0)"/>
      <use xlink:href="#IBMPlexSans-54" transform="translate(804.399841 0)"/>
      <use xlink:href="#IBMPlexSans-48" transform="translate(861.599838 0)"/>
      <use xlink:href="#IBMPlexSans-7a" transform="translate(932.29982 0)"/>
      <use xlink:href="#IBMPlexSans-5d" transform="translate(978.699814 0)"/>
     </g>
    </g>
   </g>
   <g id="matplotlib.axis_6">
    <g id="ytick_9">
     <g id="line2d_23">
      <g>
       <use xlink:href="#m6ef08ff9e0" x="42.640625" y="249.497708" style="stroke: #000000; stroke-width: 0.8"/>
      </g>
     </g>
     <g id="text_22">
      <!-- 0 -->
      <g transform="translate(29.640625 253.197708) scale(0.1 -0.1)">
       <use xlink:href="#IBMPlexSans-30"/>
      </g>
     </g>
    </g>
    <g id="ytick_10">
     <g id="line2d_24">
      <g>
       <use xlink:href="#m6ef08ff9e0" x="42.640625" y="204.411354" style="stroke: #000000; stroke-width: 0.8"/>
      </g>
     </g>
     <g id="text_23">
      <!-- 2 -->
      <g transform="translate(29.640625 208.111354) scale(0.1 -0.1)">
       <use xlink:href="#IBMPlexSans-32"/>
      </g>
     </g>
    </g>
    <g id="ytick_11">
     <g id="line2d_25">
      <g>
       <use xlink:href="#m6ef08ff9e0" x="42.640625" y="159.325" style="stroke: #000000; stroke-width: 0.8"/>
      </g>
     </g>
     <g id="text_24">
      <!-- 4 -->
      <g transform="translate(29.640625 163.025) scale(0.1 -0.1)">
       <use xlink:href="#IBMPlexSans-34"/>
      </g>
     </g>
    </g>
    <g id="text_25">
     <!-- Z-score -->
     <g transform="translate(23.640625 235.163041) rotate(-90) scale(0.1 -0.1)">
      <defs>
       <path id="IBMPlexSans-5a" d="M 3482 474 
L 806 474 
L 3392 3981 
L 3392 4467 
L 365 4467 
L 365 3994 
L 2810 3994 
L 230 486 
L 230 0 
L 3482 0 
L 3482 474 
z
" transform="scale(0.015625)"/>
       <path id="IBMPlexSans-2d" d="M 2112 1670 
L 2112 2221 
L 442 2221 
L 442 1670 
L 2112 1670 
z
" transform="scale(0.015625)"/>
      </defs>
      <use xlink:href="#IBMPlexSans-5a"/>
      <use xlink:href="#IBMPlexSans-2d" transform="translate(57.999985 0)"/>
      <use xlink:href="#IBMPlexSans-73" transform="translate(97.899979 0)"/>
      <use xlink:href="#IBMPlexSans-63" transform="translate(146.599976 0)"/>
      <use xlink:href="#IBMPlexSans-6f" transform="translate(196.899963 0)"/>
      <use xlink:href="#IBMPlexSans-72" transform="translate(252.899948 0)"/>
      <use xlink:href="#IBMPlexSans-65" transform="translate(289.599945 0)"/>
     </g>
    </g>
   </g>
   <g id="line2d_26">
    <path d="M 52.896036 260.581442 
L 63.151448 260.151481 
L 73.406859 259.332448 
L 83.662271 258.260968 
L 93.917682 257.110021 
L 104.173094 256.049264 
L 114.428505 255.033401 
L 124.683916 254.150451 
L 134.939328 253.435307 
L 145.194739 252.820601 
L 155.450151 252.334435 
L 165.705562 251.864044 
L 175.960973 251.172211 
L 186.216385 249.813608 
L 196.471796 247.245172 
L 206.727208 243.577696 
L 216.982619 238.381291 
L 227.238031 232.063746 
L 237.493442 223.020278 
L 247.748853 212.422037 
L 258.004265 197.423576 
" clip-path="url(#pab2de12c3a)" style="fill: none; stroke: #1f77b4; stroke-width: 1.5; stroke-linecap: square"/>
   </g>
   <g id="line2d_27">
    <path d="M 52.896036 251.967066 
L 63.151448 250.34966 
L 73.406859 251.529267 
L 83.662271 251.851462 
L 93.917682 250.984213 
L 104.173094 250.819861 
L 114.428505 252.465815 
L 124.683916 255.287882 
L 134.939328 258.029966 
L 145.194739 259.56304 
L 155.450151 256.853092 
L 165.705562 242.455575 
L 175.960973 209.796983 
L 186.216385 151.21102 
L 196.471796 63.968599 
L 201.915251 -1 
" clip-path="url(#pab2de12c3a)" style="fill: none; stroke: #2ca02c; stroke-width: 1.5; stroke-linecap: square"/>
   </g>
   <g id="line2d_28">
    <path d="M 42.640625 249.497708 
L 268.259676 249.497708 
" clip-path="url(#pab2de12c3a)" style="fill: none; stroke-dasharray: 5.55,2.4; stroke-dashoffset: 0; stroke: #000000; stroke-width: 1.5"/>
   </g>
   <g id="line2d_29">
    <path d="M 42.640625 204.411354 
L 268.259676 204.411354 
" clip-path="url(#pab2de12c3a)" style="fill: none; stroke-dasharray: 5.55,2.4; stroke-dashoffset: 0; stroke: #000000; stroke-width: 1.5"/>
   </g>
   <g id="patch_9">
    <path d="M 42.640625 276.54952 
L 42.640625 159.325 
" style="fill: none; stroke: #000000; stroke-width: 0.8; stroke-linejoin: miter; stroke-linecap: square"/>
   </g>
   <g id="patch_10">
    <path d="M 42.640625 276.54952 
L 268.259676 276.54952 
" style="fill: none; stroke: #000000; stroke-width: 0.8; stroke-linejoin: miter; stroke-linecap: square"/>
   </g>
   <g id="legend_1">
    <g id="patch_11">
     <path d="M 190.429989 196.125 
L 261.259676 196.125 
Q 263.259676 196.125 263.259676 194.125 
L 263.259676 166.325 
Q 263.259676 164.325 261.259676 164.325 
L 190.429989 164.325 
Q 188.429989 164.325 188.429989 166.325 
L 188.429989 194.125 
Q 188.429989 196.125 190.429989 196.125 
z
" style="fill: #ffffff; opacity: 0.8; stroke: #cccccc; stroke-linejoin: miter"/>
    </g>
    <g id="line2d_30">
     <path d="M 192.429989 172.225 
L 202.429989 172.225 
L 212.429989 172.225 
" style="fill: none; stroke: #1f77b4; stroke-width: 1.5; stroke-linecap: square"/>
    </g>
    <g id="text_26">
     <!-- Cost -->
     <g transform="translate(220.429989 175.725) scale(0.1 -0.1)">
      <use xlink:href="#IBMPlexSans-43"/>
      <use xlink:href="#IBMPlexSans-6f" transform="translate(62.099991 0)"/>
      <use xlink:href="#IBMPlexSans-73" transform="translate(118.099976 0)"/>
      <use xlink:href="#IBMPlexSans-74" transform="translate(166.799973 0)"/>
     </g>
    </g>
    <g id="line2d_31">
     <path d="M 192.429989 186.625 
L 202.429989 186.625 
L 212.429989 186.625 
" style="fill: none; stroke: #2ca02c; stroke-width: 1.5; stroke-linecap: square"/>
    </g>
    <g id="text_27">
     <!-- Criterion -->
     <g transform="translate(220.429989 190.125) scale(0.1 -0.1)">
      <use xlink:href="#IBMPlexSans-43"/>
      <use xlink:href="#IBMPlexSans-72" transform="translate(62.099991 0)"/>
      <use xlink:href="#IBMPlexSans-69" transform="translate(98.799988 0)"/>
      <use xlink:href="#IBMPlexSans-74" transform="translate(123.799973 0)"/>
      <use xlink:href="#IBMPlexSans-65" transform="translate(158.899963 0)"/>
      <use xlink:href="#IBMPlexSans-72" transform="translate(213.799957 0)"/>
      <use xlink:href="#IBMPlexSans-69" transform="translate(250.499954 0)"/>
      <use xlink:href="#IBMPlexSans-6f" transform="translate(275.499939 0)"/>
      <use xlink:href="#IBMPlexSans-6e" transform="translate(331.499924 0)"/>
     </g>
    </g>
   </g>
  </g>
  <g id="axes_4">
   <g id="patch_12">
    <path d="M 315.580469 276.54952 
L 541.19952 276.54952 
L 541.19952 159.325 
L 315.580469 159.325 
z
" style="fill: #ffffff"/>
   </g>
   <g id="PathCollection_2">
    <defs>
     <path id="C1_0_9b819dd117" d="M 0 2.738613 
C 0.726289 2.738613 1.422928 2.450055 1.936492 1.936492 
C 2.450055 1.422928 2.738613 0.726289 2.738613 -0 
C 2.738613 -0.726289 2.450055 -1.422928 1.936492 -1.936492 
C 1.422928 -2.450055 0.726289 -2.738613 0 -2.738613 
C -0.726289 -2.738613 -1.422928 -2.450055 -1.936492 -1.936492 
C -2.450055 -1.422928 -2.738613 -0.726289 -2.738613 0 
C -2.738613 0.726289 -2.450055 1.422928 -1.936492 1.936492 
C -1.422928 2.450055 -0.726289 2.738613 0 2.738613 
z
"/>
    </defs>
    <g clip-path="url(#pac74ac8caf)">
     <use xlink:href="#C1_0_9b819dd117" x="356.602114" y="265.061955" style="fill: #fefefe"/>
    </g>
    <g clip-path="url(#pac74ac8caf)">
     <use xlink:href="#C1_0_9b819dd117" x="366.857526" y="262.228985" style="fill: #fcfcfc"/>
    </g>
    <g clip-path="url(#pac74ac8caf)">
     <use xlink:href="#C1_0_9b819dd117" x="377.112937" y="259.914332" style="fill: #f9f9f9"/>
    </g>
    <g clip-path="url(#pac74ac8caf)">
     <use xlink:href="#C1_0_9b819dd117" x="387.368349" y="257.641482" style="fill: #f3f3f3"/>
    </g>
    <g clip-path="url(#pac74ac8caf)">
     <use xlink:href="#C1_0_9b819dd117" x="397.62376" y="255.55314" style="fill: #e1e1e1"/>
    </g>
    <g clip-path="url(#pac74ac8caf)">
     <use xlink:href="#C1_0_9b819dd117" x="407.879172" y="253.239848" style="fill: #b2b2b2"/>
    </g>
    <g clip-path="url(#pac74ac8caf)">
     <use xlink:href="#C1_0_9b819dd117" x="418.134583" y="251.221179" style="fill: #585858"/>
    </g>
    <g clip-path="url(#pac74ac8caf)">
     <use xlink:href="#C1_0_9b819dd117" x="428.389994" y="249.013954"/>
    </g>
    <g clip-path="url(#pac74ac8caf)">
     <use xlink:href="#C1_0_9b819dd117" x="438.645406" y="246.956609" style="fill: #5f5f5f"/>
    </g>
    <g clip-path="url(#pac74ac8caf)">
     <use xlink:href="#C1_0_9b819dd117" x="448.900817" y="245.227267" style="fill: #e7e7e7"/>
    </g>
    <g clip-path="url(#pac74ac8caf)">
     <use xlink:href="#C1_0_9b819dd117" x="459.156229" y="243.759957" style="fill: #fefefe"/>
    </g>
   </g>
   <g id="PathCollection_3">
    <defs>
     <path id="C2_0_5959d6e750" d="M 0 2.738613 
C 0.726289 2.738613 1.422928 2.450055 1.936492 1.936492 
C 2.450055 1.422928 2.738613 0.726289 2.738613 -0 
C 2.738613 -0.726289 2.450055 -1.422928 1.936492 -1.936492 
C 1.422928 -2.450055 0.726289 -2.738613 0 -2.738613 
C -0.726289 -2.738613 -1.422928 -2.450055 -1.936492 -1.936492 
C -2.450055 -1.422928 -2.738613 -0.726289 -2.738613 0 
C -2.738613 0.726289 -2.450055 1.422928 -1.936492 1.936492 
C -1.422928 2.450055 -0.726289 2.738613 0 2.738613 
z
"/>
    </defs>
    <g clip-path="url(#pac74ac8caf)">
     <use xlink:href="#C2_0_5959d6e750" x="356.602114" y="208.101805" style="fill: #fefefe"/>
    </g>
    <g clip-path="url(#pac74ac8caf)">
     <use xlink:href="#C2_0_5959d6e750" x="366.857526" y="208.387593" style="fill: #fcfcfc"/>
    </g>
    <g clip-path="url(#pac74ac8caf)">
     <use xlink:href="#C2_0_5959d6e750" x="377.112937" y="208.672099" style="fill: #f9f9f9"/>
    </g>
    <g clip-path="url(#pac74ac8caf)">
     <use xlink:href="#C2_0_5959d6e750" x="387.368349" y="208.930215" style="fill: #f3f3f3"/>
    </g>
    <g clip-path="url(#pac74ac8caf)">
     <use xlink:href="#C2_0_5959d6e750" x="397.62376" y="209.174729" style="fill: #e1e1e1"/>
    </g>
    <g clip-path="url(#pac74ac8caf)">
     <use xlink:href="#C2_0_5959d6e750" x="407.879172" y="209.34747" style="fill: #b2b2b2"/>
    </g>
    <g clip-path="url(#pac74ac8caf)">
     <use xlink:href="#C2_0_5959d6e750" x="418.134583" y="209.522173" style="fill: #585858"/>
    </g>
    <g clip-path="url(#pac74ac8caf)">
     <use xlink:href="#C2_0_5959d6e750" x="428.389994" y="209.573974"/>
    </g>
    <g clip-path="url(#pac74ac8caf)">
     <use xlink:href="#C2_0_5959d6e750" x="438.645406" y="209.501827" style="fill: #5f5f5f"/>
    </g>
    <g clip-path="url(#pac74ac8caf)">
     <use xlink:href="#C2_0_5959d6e750" x="448.900817" y="209.31533" style="fill: #e7e7e7"/>
    </g>
    <g clip-path="url(#pac74ac8caf)">
     <use xlink:href="#C2_0_5959d6e750" x="459.156229" y="208.945088" style="fill: #fefefe"/>
    </g>
   </g>
   <g id="PathCollection_4">
    <defs>
     <path id="C3_0_b5a273d316" d="M 0 2.738613 
C 0.726289 2.738613 1.422928 2.450055 1.936492 1.936492 
C 2.450055 1.422928 2.738613 0.726289 2.738613 -0 
C 2.738613 -0.726289 2.450055 -1.422928 1.936492 -1.936492 
C 1.422928 -2.450055 0.726289 -2.738613 0 -2.738613 
C -0.726289 -2.738613 -1.422928 -2.450055 -1.936492 -1.936492 
C -2.450055 -1.422928 -2.738613 -0.726289 -2.738613 0 
C -2.738613 0.726289 -2.450055 1.422928 -1.936492 1.936492 
C -1.422928 2.450055 -0.726289 2.738613 0 2.738613 
z
"/>
    </defs>
    <g clip-path="url(#pac74ac8caf)">
     <use xlink:href="#C3_0_b5a273d316" x="356.602114" y="164.67436" style="fill: #fefefe"/>
    </g>
    <g clip-path="url(#pac74ac8caf)">
     <use xlink:href="#C3_0_b5a273d316" x="366.857526" y="164.666562" style="fill: #fcfcfc"/>
    </g>
    <g clip-path="url(#pac74ac8caf)">
     <use xlink:href="#C3_0_b5a273d316" x="377.112937" y="164.656849" style="fill: #f9f9f9"/>
    </g>
    <g clip-path="url(#pac74ac8caf)">
     <use xlink:href="#C3_0_b5a273d316" x="387.368349" y="164.653786" style="fill: #f3f3f3"/>
    </g>
    <g clip-path="url(#pac74ac8caf)">
     <use xlink:href="#C3_0_b5a273d316" x="397.62376" y="164.653387" style="fill: #e1e1e1"/>
    </g>
    <g clip-path="url(#pac74ac8caf)">
     <use xlink:href="#C3_0_b5a273d316" x="407.879172" y="164.670002" style="fill: #b2b2b2"/>
    </g>
    <g clip-path="url(#pac74ac8caf)">
     <use xlink:href="#C3_0_b5a273d316" x="418.134583" y="164.685077" style="fill: #585858"/>
    </g>
    <g clip-path="url(#pac74ac8caf)">
     <use xlink:href="#C3_0_b5a273d316" x="428.389994" y="164.724092"/>
    </g>
    <g clip-path="url(#pac74ac8caf)">
     <use xlink:href="#C3_0_b5a273d316" x="438.645406" y="164.780656" style="fill: #5f5f5f"/>
    </g>
    <g clip-path="url(#pac74ac8caf)">
     <use xlink:href="#C3_0_b5a273d316" x="448.900817" y="164.848577" style="fill: #e7e7e7"/>
    </g>
    <g clip-path="url(#pac74ac8caf)">
     <use xlink:href="#C3_0_b5a273d316" x="459.156229" y="164.937928" style="fill: #fefefe"/>
    </g>
   </g>
   <g id="matplotlib.axis_7">
    <g id="xtick_13">
     <g id="line2d_32">
      <g>
       <use xlink:href="#m1b100ac6b2" x="382.678527" y="276.54952" style="stroke: #000000; stroke-width: 0.6"/>
      </g>
     </g>
     <g id="text_28">
      <!-- $\mathdefault{2\times10^{-1}}$ -->
      <g transform="translate(364.328527 289.34952) scale(0.1 -0.1)">
       <use xlink:href="#IBMPlexSans-32" transform="translate(0 0.026563)"/>
       <use xlink:href="#IBMPlexSans-d7" transform="translate(79.482407 0.026563)"/>
       <use xlink:href="#IBMPlexSans-31" transform="translate(158.964813 0.026563)"/>
       <use xlink:href="#IBMPlexSans-30" transform="translate(218.964798 0.026563)"/>
       <use xlink:href="#IBMPlexSans-2212" transform="translate(279.867673 36.142188) scale(0.7)"/>
       <use xlink:href="#IBMPlexSans-31" transform="translate(321.867663 36.142188) scale(0.7)"/>
      </g>
     </g>
    </g>
    <g id="xtick_14">
     <g id="line2d_33">
      <g>
       <use xlink:href="#m1b100ac6b2" x="449.209911" y="276.54952" style="stroke: #000000; stroke-width: 0.6"/>
      </g>
     </g>
     <g id="text_29">
      <!-- $\mathdefault{3\times10^{-1}}$ -->
      <g transform="translate(430.859911 289.34952) scale(0.1 -0.1)">
       <use xlink:href="#IBMPlexSans-33" transform="translate(0 0.026563)"/>
       <use xlink:href="#IBMPlexSans-d7" transform="translate(79.482407 0.026563)"/>
       <use xlink:href="#IBMPlexSans-31" transform="translate(158.964813 0.026563)"/>
       <use xlink:href="#IBMPlexSans-30" transform="translate(218.964798 0.026563)"/>
       <use xlink:href="#IBMPlexSans-2212" transform="translate(279.867673 36.142188) scale(0.7)"/>
       <use xlink:href="#IBMPlexSans-31" transform="translate(321.867663 36.142188) scale(0.7)"/>
      </g>
     </g>
    </g>
    <g id="xtick_15">
     <g id="line2d_34">
      <g>
       <use xlink:href="#m1b100ac6b2" x="496.41468" y="276.54952" style="stroke: #000000; stroke-width: 0.6"/>
      </g>
     </g>
     <g id="text_30">
      <!-- $\mathdefault{4\times10^{-1}}$ -->
      <g transform="translate(478.06468 289.34952) scale(0.1 -0.1)">
       <use xlink:href="#IBMPlexSans-34" transform="translate(0 0.026563)"/>
       <use xlink:href="#IBMPlexSans-d7" transform="translate(79.482407 0.026563)"/>
       <use xlink:href="#IBMPlexSans-31" transform="translate(158.964813 0.026563)"/>
       <use xlink:href="#IBMPlexSans-30" transform="translate(218.964798 0.026563)"/>
       <use xlink:href="#IBMPlexSans-2212" transform="translate(279.867673 36.142188) scale(0.7)"/>
       <use xlink:href="#IBMPlexSans-31" transform="translate(321.867663 36.142188) scale(0.7)"/>
      </g>
     </g>
    </g>
    <g id="xtick_16">
     <g id="line2d_35">
      <g>
       <use xlink:href="#m1b100ac6b2" x="533.029542" y="276.54952" style="stroke: #000000; stroke-width: 0.6"/>
      </g>
     </g>
    </g>
    <g id="text_31">
     <!-- Cutoff frequency [THz] -->
     <g transform="translate(377.868901 302.94952) scale(0.1 -0.1)">
      <use xlink:href="#IBMPlexSans-43"/>
      <use xlink:href="#IBMPlexSans-75" transform="translate(62.099991 0)"/>
      <use xlink:href="#IBMPlexSans-74" transform="translate(118.899979 0)"/>
      <use xlink:href="#IBMPlexSans-6f" transform="translate(153.999969 0)"/>
      <use xlink:href="#IBMPlexSans-66" transform="translate(209.999954 0)"/>
      <use xlink:href="#IBMPlexSans-66" transform="translate(242.399948 0)"/>
      <use xlink:href="#IBMPlexSans-20" transform="translate(274.799942 0)"/>
      <use xlink:href="#IBMPlexSans-66" transform="translate(298.399933 0)"/>
      <use xlink:href="#IBMPlexSans-72" transform="translate(330.799927 0)"/>
      <use xlink:href="#IBMPlexSans-65" transform="translate(367.499924 0)"/>
      <use xlink:href="#IBMPlexSans-71" transform="translate(422.399918 0)"/>
      <use xlink:href="#IBMPlexSans-75" transform="translate(480.399902 0)"/>
      <use xlink:href="#IBMPlexSans-65" transform="translate(537.19989 0)"/>
      <use xlink:href="#IBMPlexSans-6e" transform="translate(592.099884 0)"/>
      <use xlink:href="#IBMPlexSans-63" transform="translate(648.899872 0)"/>
      <use xlink:href="#IBMPlexSans-79" transform="translate(699.19986 0)"/>
      <use xlink:href="#IBMPlexSans-20" transform="translate(749.099854 0)"/>
      <use xlink:href="#IBMPlexSans-5b" transform="translate(772.699844 0)"/>
      <use xlink:href="#IBMPlexSans-54" transform="translate(804.399841 0)"/>
      <use xlink:href="#IBMPlexSans-48" transform="translate(861.599838 0)"/>
      <use xlink:href="#IBMPlexSans-7a" transform="translate(932.29982 0)"/>
      <use xlink:href="#IBMPlexSans-5d" transform="translate(978.699814 0)"/>
     </g>
    </g>
   </g>
   <g id="matplotlib.axis_8">
    <g id="ytick_12">
     <g id="line2d_36">
      <g>
       <use xlink:href="#m6ef08ff9e0" x="315.580469" y="236.547864" style="stroke: #000000; stroke-width: 0.8"/>
      </g>
     </g>
     <g id="text_32">
      <!-- $\mathdefault{10^{-1}}$ -->
      <g transform="translate(287.780469 240.247864) scale(0.1 -0.1)">
       <use xlink:href="#IBMPlexSans-31" transform="translate(0 0.026563)"/>
       <use xlink:href="#IBMPlexSans-30" transform="translate(59.999985 0.026563)"/>
       <use xlink:href="#IBMPlexSans-2212" transform="translate(120.90286 36.142188) scale(0.7)"/>
       <use xlink:href="#IBMPlexSans-31" transform="translate(162.902849 36.142188) scale(0.7)"/>
      </g>
     </g>
    </g>
    <g id="ytick_13">
     <g id="line2d_37">
      <g>
       <use xlink:href="#m6ef08ff9e0" x="315.580469" y="185.806681" style="stroke: #000000; stroke-width: 0.8"/>
      </g>
     </g>
     <g id="text_33">
      <!-- $\mathdefault{10^{0}}$ -->
      <g transform="translate(291.980469 189.506681) scale(0.1 -0.1)">
       <use xlink:href="#IBMPlexSans-31" transform="translate(0 0.184375)"/>
       <use xlink:href="#IBMPlexSans-30" transform="translate(59.999985 0.184375)"/>
       <use xlink:href="#IBMPlexSans-30" transform="translate(120.90286 36.3) scale(0.7)"/>
      </g>
     </g>
    </g>
    <g id="ytick_14">
     <g id="line2d_38">
      <defs>
       <path id="m68be026151" d="M 0 0 
L -2 0 
" style="stroke: #000000; stroke-width: 0.6"/>
      </defs>
      <g>
       <use xlink:href="#m68be026151" x="315.580469" y="272.01443" style="stroke: #000000; stroke-width: 0.6"/>
      </g>
     </g>
    </g>
    <g id="ytick_15">
     <g id="line2d_39">
      <g>
       <use xlink:href="#m68be026151" x="315.580469" y="263.079351" style="stroke: #000000; stroke-width: 0.6"/>
      </g>
     </g>
    </g>
    <g id="ytick_16">
     <g id="line2d_40">
      <g>
       <use xlink:href="#m68be026151" x="315.580469" y="256.739811" style="stroke: #000000; stroke-width: 0.6"/>
      </g>
     </g>
    </g>
    <g id="ytick_17">
     <g id="line2d_41">
      <g>
       <use xlink:href="#m68be026151" x="315.580469" y="251.822483" style="stroke: #000000; stroke-width: 0.6"/>
      </g>
     </g>
    </g>
    <g id="ytick_18">
     <g id="line2d_42">
      <g>
       <use xlink:href="#m68be026151" x="315.580469" y="247.804733" style="stroke: #000000; stroke-width: 0.6"/>
      </g>
     </g>
    </g>
    <g id="ytick_19">
     <g id="line2d_43">
      <g>
       <use xlink:href="#m68be026151" x="315.580469" y="244.407773" style="stroke: #000000; stroke-width: 0.6"/>
      </g>
     </g>
    </g>
    <g id="ytick_20">
     <g id="line2d_44">
      <g>
       <use xlink:href="#m68be026151" x="315.580469" y="241.465193" style="stroke: #000000; stroke-width: 0.6"/>
      </g>
     </g>
    </g>
    <g id="ytick_21">
     <g id="line2d_45">
      <g>
       <use xlink:href="#m68be026151" x="315.580469" y="238.869654" style="stroke: #000000; stroke-width: 0.6"/>
      </g>
     </g>
    </g>
    <g id="ytick_22">
     <g id="line2d_46">
      <g>
       <use xlink:href="#m68be026151" x="315.580469" y="221.273246" style="stroke: #000000; stroke-width: 0.6"/>
      </g>
     </g>
    </g>
    <g id="ytick_23">
     <g id="line2d_47">
      <g>
       <use xlink:href="#m68be026151" x="315.580469" y="212.338167" style="stroke: #000000; stroke-width: 0.6"/>
      </g>
     </g>
    </g>
    <g id="ytick_24">
     <g id="line2d_48">
      <g>
       <use xlink:href="#m68be026151" x="315.580469" y="205.998628" style="stroke: #000000; stroke-width: 0.6"/>
      </g>
     </g>
    </g>
    <g id="ytick_25">
     <g id="line2d_49">
      <g>
       <use xlink:href="#m68be026151" x="315.580469" y="201.081299" style="stroke: #000000; stroke-width: 0.6"/>
      </g>
     </g>
    </g>
    <g id="ytick_26">
     <g id="line2d_50">
      <g>
       <use xlink:href="#m68be026151" x="315.580469" y="197.063549" style="stroke: #000000; stroke-width: 0.6"/>
      </g>
     </g>
    </g>
    <g id="ytick_27">
     <g id="line2d_51">
      <g>
       <use xlink:href="#m68be026151" x="315.580469" y="193.66659" style="stroke: #000000; stroke-width: 0.6"/>
      </g>
     </g>
    </g>
    <g id="ytick_28">
     <g id="line2d_52">
      <g>
       <use xlink:href="#m68be026151" x="315.580469" y="190.72401" style="stroke: #000000; stroke-width: 0.6"/>
      </g>
     </g>
    </g>
    <g id="ytick_29">
     <g id="line2d_53">
      <g>
       <use xlink:href="#m68be026151" x="315.580469" y="188.12847" style="stroke: #000000; stroke-width: 0.6"/>
      </g>
     </g>
    </g>
    <g id="ytick_30">
     <g id="line2d_54">
      <g>
       <use xlink:href="#m68be026151" x="315.580469" y="170.532063" style="stroke: #000000; stroke-width: 0.6"/>
      </g>
     </g>
    </g>
    <g id="ytick_31">
     <g id="line2d_55">
      <g>
       <use xlink:href="#m68be026151" x="315.580469" y="161.596984" style="stroke: #000000; stroke-width: 0.6"/>
      </g>
     </g>
    </g>
    <g id="text_34">
     <!-- Hessian Eigenvalues -->
     <g transform="translate(281.660156 263.928666) rotate(-90) scale(0.1 -0.1)">
      <defs>
       <path id="IBMPlexSans-61" d="M 3232 0 
L 3232 448 
L 2854 448 
L 2854 2266 
C 2854 2963 2381 3379 1587 3379 
C 992 3379 595 3085 416 2733 
L 723 2445 
C 902 2746 1165 2938 1562 2938 
C 2086 2938 2342 2682 2342 2214 
L 2342 1888 
L 1690 1888 
C 730 1888 282 1542 282 922 
C 282 307 691 -77 1389 -77 
C 1850 -77 2202 134 2342 538 
L 2374 538 
C 2413 230 2566 0 2944 0 
L 3232 0 
z
M 1472 358 
C 1075 358 819 544 819 870 
L 819 1005 
C 819 1325 1082 1504 1664 1504 
L 2342 1504 
L 2342 960 
C 2342 621 1978 358 1472 358 
z
" transform="scale(0.015625)"/>
       <path id="IBMPlexSans-45" d="M 3322 0 
L 3322 474 
L 1133 474 
L 1133 2022 
L 3194 2022 
L 3194 2496 
L 1133 2496 
L 1133 3994 
L 3322 3994 
L 3322 4467 
L 595 4467 
L 595 0 
L 3322 0 
z
" transform="scale(0.015625)"/>
      </defs>
      <use xlink:href="#IBMPlexSans-48"/>
      <use xlink:href="#IBMPlexSans-65" transform="translate(70.699982 0)"/>
      <use xlink:href="#IBMPlexSans-73" transform="translate(125.599976 0)"/>
      <use xlink:href="#IBMPlexSans-73" transform="translate(174.299973 0)"/>
      <use xlink:href="#IBMPlexSans-69" transform="translate(222.999969 0)"/>
      <use xlink:href="#IBMPlexSans-61" transform="translate(247.999954 0)"/>
      <use xlink:href="#IBMPlexSans-6e" transform="translate(301.399948 0)"/>
      <use xlink:href="#IBMPlexSans-20" transform="translate(358.199936 0)"/>
      <use xlink:href="#IBMPlexSans-45" transform="translate(381.799927 0)"/>
      <use xlink:href="#IBMPlexSans-69" transform="translate(440.099915 0)"/>
      <use xlink:href="#IBMPlexSans-67" transform="translate(465.099899 0)"/>
      <use xlink:href="#IBMPlexSans-65" transform="translate(517.899887 0)"/>
      <use xlink:href="#IBMPlexSans-6e" transform="translate(572.799881 0)"/>
      <use xlink:href="#IBMPlexSans-76" transform="translate(629.599869 0)"/>
      <use xlink:href="#IBMPlexSans-61" transform="translate(678.799866 0)"/>
      <use xlink:href="#IBMPlexSans-6c" transform="translate(732.19986 0)"/>
      <use xlink:href="#IBMPlexSans-75" transform="translate(759.399857 0)"/>
      <use xlink:href="#IBMPlexSans-65" transform="translate(816.199844 0)"/>
      <use xlink:href="#IBMPlexSans-73" transform="translate(871.099838 0)"/>
     </g>
    </g>
   </g>
   <g id="line2d_56">
    <path d="M 325.83588 271.221133 
L 336.091292 269.909002 
L 346.346703 267.881042 
L 356.602114 265.061955 
L 366.857526 262.228985 
L 377.112937 259.914332 
L 387.368349 257.641482 
L 397.62376 255.55314 
L 407.879172 253.239848 
L 418.134583 251.221179 
L 428.389994 249.013954 
L 438.645406 246.956609 
L 448.900817 245.227267 
L 459.156229 243.759957 
L 469.41164 242.795625 
L 479.667051 242.381085 
L 489.922463 242.274071 
L 500.177874 242.610201 
L 510.433286 243.028457 
L 520.688697 243.766894 
L 530.944109 244.607542 
" clip-path="url(#pac74ac8caf)" style="fill: none; stroke: #9467bd; stroke-width: 1.5; stroke-linecap: square"/>
   </g>
   <g id="line2d_57">
    <path d="M 325.83588 207.279042 
L 336.091292 207.521516 
L 346.346703 207.810597 
L 356.602114 208.101805 
L 366.857526 208.387593 
L 377.112937 208.672099 
L 387.368349 208.930215 
L 397.62376 209.174729 
L 407.879172 209.34747 
L 418.134583 209.522173 
L 428.389994 209.573974 
L 438.645406 209.501827 
L 448.900817 209.31533 
L 459.156229 208.945088 
L 469.41164 208.488264 
L 479.667051 208.071467 
L 489.922463 207.603246 
L 500.177874 207.303333 
L 510.433286 206.861933 
L 520.688697 206.624619 
L 530.944109 206.348003 
" clip-path="url(#pac74ac8caf)" style="fill: none; stroke: #9467bd; stroke-width: 1.5; stroke-linecap: square"/>
   </g>
   <g id="line2d_58">
    <path d="M 325.83588 164.7348 
L 336.091292 164.710607 
L 346.346703 164.687406 
L 356.602114 164.67436 
L 366.857526 164.666562 
L 377.112937 164.656849 
L 387.368349 164.653786 
L 397.62376 164.653387 
L 407.879172 164.670002 
L 418.134583 164.685077 
L 428.389994 164.724092 
L 438.645406 164.780656 
L 448.900817 164.848577 
L 459.156229 164.937928 
L 469.41164 165.028335 
L 479.667051 165.099275 
L 489.922463 165.169931 
L 500.177874 165.203897 
L 510.433286 165.257601 
L 520.688697 165.272426 
L 530.944109 165.291647 
" clip-path="url(#pac74ac8caf)" style="fill: none; stroke: #9467bd; stroke-width: 1.5; stroke-linecap: square"/>
   </g>
   <g id="patch_13">
    <path d="M 315.580469 276.54952 
L 315.580469 159.325 
" style="fill: none; stroke: #000000; stroke-width: 0.8; stroke-linejoin: miter; stroke-linecap: square"/>
   </g>
   <g id="patch_14">
    <path d="M 315.580469 276.54952 
L 541.19952 276.54952 
" style="fill: none; stroke: #000000; stroke-width: 0.8; stroke-linejoin: miter; stroke-linecap: square"/>
   </g>
  </g>
 </g>
 <defs>
  <clipPath id="pffed094654">
   <rect x="42.640625" y="17.6" width="225.619051" height="117.22452"/>
  </clipPath>
  <clipPath id="pf70a945bf2">
   <rect x="315.580469" y="17.6" width="225.619051" height="117.22452"/>
  </clipPath>
  <clipPath id="pab2de12c3a">
   <rect x="42.640625" y="159.325" width="225.619051" height="117.22452"/>
  </clipPath>
  <clipPath id="pac74ac8caf">
   <rect x="315.580469" y="159.325" width="225.619051" height="117.22452"/>
  </clipPath>
 </defs>
</svg>