<?xml version="1.0" encoding="utf-8" standalone="no"?>
<!DOCTYPE svg PUBLIC "-//W3C//DTD SVG 1.1//EN"
  "http://www.w3.org/Graphics/SVG/1.1/DTD/svg11.dtd">
<svg xmlns:xlink="http://www.w3.org/1999/xlink" width="548.392865pt" height="312.14952pt" viewBox="0 0 548.392865 312.14952" xmlns="http://www.w3.org/2000/svg" version="1.1">
 <metadata>
  <rdf:RDF xmlns:dc="http://purl.org/dc/elements/1.1/" xmlns:cc="http://creativecommons.org/ns#" xmlns:rdf="http://www.w3.org/1999/02/22-rdf-syntax-ns#">
   <cc:Work>
    <dc:type rdf:resource="http://purl.org/dc/dcmitype/StillImage"/>
    <dc:date>2025-06-25T08:45:30.914279</dc:date>
    <dc:format>image/svg+xml</dc:format>
    <dc:creator>
     <cc:Agent>
      <dc:title>Matplotlib v3.10.1, https://matplotlib.org/</dc:title>
     </cc:Agent>
    </dc:creator>
   </cc:Work>
  </rdf:RDF>
 </metadata>
 <defs>
  <style type="text/css">*{stroke-linejoin: round; stroke-linecap: butt}</style>
 </defs>
 <g id="figure_1">
  <g id="patch_1">
   <path d="M 0 312.14952 
L 548.392865 312.14952 
L 548.392865 0 
L 0 0 
z
" style="fill: #ffffff"/>
  </g>
  <g id="axes_1">
   <g id="patch_2">
    <path d="M 42.320312 274.94952 
L 536.841464 274.94952 
L 536.841464 22.32 
L 42.320312 22.32 
z
" style="fill: #ffffff"/>
   </g>
   <g id="matplotlib.axis_1">
    <g id="xtick_1">
     <g id="line2d_1">
      <defs>
       <path id="m3c4c1906e5" d="M 0 0 
L 0 3.5 
" style="stroke: #000000; stroke-width: 0.8"/>
      </defs>
      <g>
       <use xlink:href="#m3c4c1906e5" x="85.456752" y="274.94952" style="stroke: #000000; stroke-width: 0.8"/>
      </g>
     </g>
     <g id="text_1">
      <!-- 280 -->
      <g transform="translate(76.456752 289.34952) scale(0.1 -0.1)">
       <defs>
        <path id="IBMPlexSans-32" d="M 3411 474 
L 1062 474 
L 2266 1555 
C 2835 2067 3245 2554 3245 3245 
C 3245 4006 2746 4544 1875 4544 
C 1011 4544 614 4019 442 3494 
L 922 3309 
C 1043 3731 1299 4064 1850 4064 
C 2400 4064 2675 3725 2675 3232 
L 2675 3155 
C 2675 2726 2355 2278 1939 1894 
L 480 550 
L 480 0 
L 3411 0 
L 3411 474 
z
" transform="scale(0.015625)"/>
        <path id="IBMPlexSans-38" d="M 1920 -77 
C 2938 -77 3469 480 3469 1216 
C 3469 1824 3104 2176 2566 2323 
L 2566 2374 
C 3034 2534 3334 2912 3334 3424 
C 3334 4102 2810 4544 1920 4544 
C 1030 4544 506 4102 506 3424 
C 506 2912 806 2534 1274 2374 
L 1274 2323 
C 736 2176 371 1824 371 1216 
C 371 480 902 -77 1920 -77 
z
M 1920 390 
C 1299 390 941 685 941 1190 
L 941 1325 
C 941 1830 1299 2125 1920 2125 
C 2541 2125 2899 1830 2899 1325 
L 2899 1190 
C 2899 685 2541 390 1920 390 
z
M 1920 2573 
C 1363 2573 1062 2822 1062 3277 
L 1062 3373 
C 1062 3827 1363 4077 1920 4077 
C 2477 4077 2778 3827 2778 3373 
L 2778 3277 
C 2778 2822 2477 2573 1920 2573 
z
" transform="scale(0.015625)"/>
        <path id="IBMPlexSans-30" d="M 1920 -77 
C 2989 -77 3456 774 3456 2234 
C 3456 3693 2989 4544 1920 4544 
C 851 4544 384 3693 384 2234 
C 384 774 851 -77 1920 -77 
z
M 1920 390 
C 1222 390 947 1005 947 1869 
L 947 2598 
C 947 3462 1222 4077 1920 4077 
C 2618 4077 2893 3462 2893 2598 
L 2893 1869 
C 2893 1005 2618 390 1920 390 
z
" transform="scale(0.015625)"/>
       </defs>
       <use xlink:href="#IBMPlexSans-32"/>
       <use xlink:href="#IBMPlexSans-38" transform="translate(59.999985 0)"/>
       <use xlink:href="#IBMPlexSans-30" transform="translate(119.999969 0)"/>
      </g>
     </g>
    </g>
    <g id="xtick_2">
     <g id="line2d_2">
      <g>
       <use xlink:href="#m3c4c1906e5" x="141.298766" y="274.94952" style="stroke: #000000; stroke-width: 0.8"/>
      </g>
     </g>
     <g id="text_2">
      <!-- 285 -->
      <g transform="translate(132.298766 289.34952) scale(0.1 -0.1)">
       <defs>
        <path id="IBMPlexSans-35" d="M 3187 4467 
L 794 4467 
L 634 2010 
L 1088 1946 
C 1274 2150 1478 2323 1888 2323 
C 2496 2323 2822 1984 2822 1395 
L 2822 1331 
C 2822 742 2496 403 1888 403 
C 1350 403 1126 640 896 992 
L 493 685 
C 762 301 1146 -77 1888 -77 
C 2829 -77 3392 531 3392 1402 
C 3392 2266 2829 2784 2061 2784 
C 1594 2784 1357 2592 1146 2291 
L 1101 2291 
L 1229 3994 
L 3187 3994 
L 3187 4467 
z
" transform="scale(0.015625)"/>
       </defs>
       <use xlink:href="#IBMPlexSans-32"/>
       <use xlink:href="#IBMPlexSans-38" transform="translate(59.999985 0)"/>
       <use xlink:href="#IBMPlexSans-35" transform="translate(119.999969 0)"/>
      </g>
     </g>
    </g>
    <g id="xtick_3">
     <g id="line2d_3">
      <g>
       <use xlink:href="#m3c4c1906e5" x="197.14078" y="274.94952" style="stroke: #000000; stroke-width: 0.8"/>
      </g>
     </g>
     <g id="text_3">
      <!-- 290 -->
      <g transform="translate(188.14078 289.34952) scale(0.1 -0.1)">
       <defs>
        <path id="IBMPlexSans-39" d="M 3411 2829 
C 3411 3891 2842 4544 1914 4544 
C 1018 4544 429 3942 429 3066 
C 429 2221 979 1690 1747 1690 
C 2291 1690 2611 1965 2822 2330 
L 2854 2317 
C 2611 1280 2080 698 1126 0 
L 1818 0 
C 2534 467 3411 1504 3411 2829 
z
M 1920 2144 
C 1331 2144 986 2483 986 3085 
L 986 3136 
C 986 3738 1331 4077 1920 4077 
C 2509 4077 2854 3738 2854 3136 
L 2854 3085 
C 2854 2483 2509 2144 1920 2144 
z
" transform="scale(0.015625)"/>
       </defs>
       <use xlink:href="#IBMPlexSans-32"/>
       <use xlink:href="#IBMPlexSans-39" transform="translate(59.999985 0)"/>
       <use xlink:href="#IBMPlexSans-30" transform="translate(119.999969 0)"/>
      </g>
     </g>
    </g>
    <g id="xtick_4">
     <g id="line2d_4">
      <g>
       <use xlink:href="#m3c4c1906e5" x="252.982794" y="274.94952" style="stroke: #000000; stroke-width: 0.8"/>
      </g>
     </g>
     <g id="text_4">
      <!-- 295 -->
      <g transform="translate(243.982794 289.34952) scale(0.1 -0.1)">
       <use xlink:href="#IBMPlexSans-32"/>
       <use xlink:href="#IBMPlexSans-39" transform="translate(59.999985 0)"/>
       <use xlink:href="#IBMPlexSans-35" transform="translate(119.999969 0)"/>
      </g>
     </g>
    </g>
    <g id="xtick_5">
     <g id="line2d_5">
      <g>
       <use xlink:href="#m3c4c1906e5" x="308.824808" y="274.94952" style="stroke: #000000; stroke-width: 0.8"/>
      </g>
     </g>
     <g id="text_5">
      <!-- 300 -->
      <g transform="translate(299.824808 289.34952) scale(0.1 -0.1)">
       <defs>
        <path id="IBMPlexSans-33" d="M 1184 2573 
L 1184 2106 
L 1709 2106 
C 2336 2106 2669 1805 2669 1280 
L 2669 1229 
C 2669 704 2336 403 1709 403 
C 1165 403 902 640 672 992 
L 269 685 
C 544 301 941 -77 1715 -77 
C 2624 -77 3232 454 3232 1222 
C 3232 1894 2771 2253 2291 2349 
L 2291 2374 
C 2765 2496 3149 2842 3149 3418 
C 3149 4141 2547 4544 1792 4544 
C 1075 4544 685 4173 461 3814 
L 858 3507 
C 1043 3846 1318 4064 1779 4064 
C 2253 4064 2579 3827 2579 3360 
L 2579 3315 
C 2579 2886 2272 2573 1670 2573 
L 1184 2573 
z
" transform="scale(0.015625)"/>
       </defs>
       <use xlink:href="#IBMPlexSans-33"/>
       <use xlink:href="#IBMPlexSans-30" transform="translate(59.999985 0)"/>
       <use xlink:href="#IBMPlexSans-30" transform="translate(119.999969 0)"/>
      </g>
     </g>
    </g>
    <g id="xtick_6">
     <g id="line2d_6">
      <g>
       <use xlink:href="#m3c4c1906e5" x="364.666823" y="274.94952" style="stroke: #000000; stroke-width: 0.8"/>
      </g>
     </g>
     <g id="text_6">
      <!-- 305 -->
      <g transform="translate(355.666823 289.34952) scale(0.1 -0.1)">
       <use xlink:href="#IBMPlexSans-33"/>
       <use xlink:href="#IBMPlexSans-30" transform="translate(59.999985 0)"/>
       <use xlink:href="#IBMPlexSans-35" transform="translate(119.999969 0)"/>
      </g>
     </g>
    </g>
    <g id="xtick_7">
     <g id="line2d_7">
      <g>
       <use xlink:href="#m3c4c1906e5" x="420.508837" y="274.94952" style="stroke: #000000; stroke-width: 0.8"/>
      </g>
     </g>
     <g id="text_7">
      <!-- 310 -->
      <g transform="translate(411.508837 289.34952) scale(0.1 -0.1)">
       <defs>
        <path id="IBMPlexSans-31" d="M 3501 0 
L 3501 474 
L 2349 474 
L 2349 4467 
L 1510 4467 
L 326 3360 
L 640 3021 
L 1766 4070 
L 1811 4070 
L 1811 474 
L 563 474 
L 563 0 
L 3501 0 
z
" transform="scale(0.015625)"/>
       </defs>
       <use xlink:href="#IBMPlexSans-33"/>
       <use xlink:href="#IBMPlexSans-31" transform="translate(59.999985 0)"/>
       <use xlink:href="#IBMPlexSans-30" transform="translate(119.999969 0)"/>
      </g>
     </g>
    </g>
    <g id="xtick_8">
     <g id="line2d_8">
      <g>
       <use xlink:href="#m3c4c1906e5" x="476.350851" y="274.94952" style="stroke: #000000; stroke-width: 0.8"/>
      </g>
     </g>
     <g id="text_8">
      <!-- 315 -->
      <g transform="translate(467.350851 289.34952) scale(0.1 -0.1)">
       <use xlink:href="#IBMPlexSans-33"/>
       <use xlink:href="#IBMPlexSans-31" transform="translate(59.999985 0)"/>
       <use xlink:href="#IBMPlexSans-35" transform="translate(119.999969 0)"/>
      </g>
     </g>
    </g>
    <g id="xtick_9">
     <g id="line2d_9">
      <g>
       <use xlink:href="#m3c4c1906e5" x="532.192865" y="274.94952" style="stroke: #000000; stroke-width: 0.8"/>
      </g>
     </g>
     <g id="text_9">
      <!-- 320 -->
      <g transform="translate(523.192865 289.34952) scale(0.1 -0.1)">
       <use xlink:href="#IBMPlexSans-33"/>
       <use xlink:href="#IBMPlexSans-32" transform="translate(59.999985 0)"/>
       <use xlink:href="#IBMPlexSans-30" transform="translate(119.999969 0)"/>
      </g>
     </g>
    </g>
    <g id="text_10">
     <!-- Temperature [K] -->
     <g transform="translate(252.764482 302.94952) scale(0.1 -0.1)">
      <defs>
       <path id="IBMPlexSans-54" d="M 3520 3994 
L 3520 4467 
L 141 4467 
L 141 3994 
L 1562 3994 
L 1562 0 
L 2099 0 
L 2099 3994 
L 3520 3994 
z
" transform="scale(0.015625)"/>
       <path id="IBMPlexSans-65" d="M 1786 -77 
C 2406 -77 2880 230 3091 678 
L 2726 941 
C 2554 576 2234 371 1818 371 
C 1203 371 838 800 838 1370 
L 838 1523 
L 3213 1523 
L 3213 1766 
C 3213 2701 2669 3379 1786 3379 
C 890 3379 301 2701 301 1651 
C 301 602 890 -77 1786 -77 
z
M 1786 2950 
C 2310 2950 2662 2560 2662 1978 
L 2662 1907 
L 838 1907 
L 838 1952 
C 838 2528 1229 2950 1786 2950 
z
" transform="scale(0.015625)"/>
       <path id="IBMPlexSans-6d" d="M 1056 0 
L 1056 2291 
C 1056 2714 1440 2918 1843 2918 
C 2330 2918 2554 2618 2554 2029 
L 2554 0 
L 3066 0 
L 3066 2291 
C 3066 2714 3437 2918 3840 2918 
C 4339 2918 4563 2611 4563 2029 
L 4563 0 
L 5075 0 
L 5075 2118 
C 5075 2918 4672 3379 4000 3379 
C 3437 3379 3117 3066 2995 2707 
L 2982 2707 
C 2803 3181 2406 3379 1971 3379 
C 1459 3379 1229 3104 1082 2765 
L 1056 2765 
L 1056 3302 
L 544 3302 
L 544 0 
L 1056 0 
z
" transform="scale(0.015625)"/>
       <path id="IBMPlexSans-70" d="M 544 -1280 
L 1056 -1280 
L 1056 538 
L 1082 538 
C 1280 128 1594 -77 2048 -77 
C 2874 -77 3392 595 3392 1651 
C 3392 2707 2874 3379 2048 3379 
C 1594 3379 1254 3181 1082 2765 
L 1056 2765 
L 1056 3302 
L 544 3302 
L 544 -1280 
z
M 1907 384 
C 1440 384 1056 627 1056 1056 
L 1056 2285 
C 1056 2650 1440 2918 1907 2918 
C 2483 2918 2842 2522 2842 1933 
L 2842 1370 
C 2842 781 2483 384 1907 384 
z
" transform="scale(0.015625)"/>
       <path id="IBMPlexSans-72" d="M 1056 0 
L 1056 2240 
C 1056 2554 1389 2790 1939 2790 
L 2240 2790 
L 2240 3302 
L 2042 3302 
C 1504 3302 1203 3008 1088 2694 
L 1056 2694 
L 1056 3302 
L 544 3302 
L 544 0 
L 1056 0 
z
" transform="scale(0.015625)"/>
       <path id="IBMPlexSans-61" d="M 3232 0 
L 3232 448 
L 2854 448 
L 2854 2266 
C 2854 2963 2381 3379 1587 3379 
C 992 3379 595 3085 416 2733 
L 723 2445 
C 902 2746 1165 2938 1562 2938 
C 2086 2938 2342 2682 2342 2214 
L 2342 1888 
L 1690 1888 
C 730 1888 282 1542 282 922 
C 282 307 691 -77 1389 -77 
C 1850 -77 2202 134 2342 538 
L 2374 538 
C 2413 230 2566 0 2944 0 
L 3232 0 
z
M 1472 358 
C 1075 358 819 544 819 870 
L 819 1005 
C 819 1325 1082 1504 1664 1504 
L 2342 1504 
L 2342 960 
C 2342 621 1978 358 1472 358 
z
" transform="scale(0.015625)"/>
       <path id="IBMPlexSans-74" d="M 1914 0 
L 1914 448 
L 1242 448 
L 1242 2854 
L 1965 2854 
L 1965 3302 
L 1242 3302 
L 1242 4218 
L 781 4218 
L 781 3603 
C 781 3379 710 3302 493 3302 
L 186 3302 
L 186 2854 
L 730 2854 
L 730 544 
C 730 224 922 0 1274 0 
L 1914 0 
z
" transform="scale(0.015625)"/>
       <path id="IBMPlexSans-75" d="M 2579 0 
L 3091 0 
L 3091 3302 
L 2579 3302 
L 2579 1018 
C 2579 582 2182 384 1779 384 
C 1286 384 1024 685 1024 1274 
L 1024 3302 
L 512 3302 
L 512 1184 
C 512 384 947 -77 1626 -77 
C 2176 -77 2426 224 2554 538 
L 2579 538 
L 2579 0 
z
" transform="scale(0.015625)"/>
       <path id="IBMPlexSans-20" transform="scale(0.015625)"/>
       <path id="IBMPlexSans-5b" d="M 1645 -883 
L 1645 -480 
L 1037 -480 
L 1037 4461 
L 1645 4461 
L 1645 4864 
L 595 4864 
L 595 -883 
L 1645 -883 
z
" transform="scale(0.015625)"/>
       <path id="IBMPlexSans-4b" d="M 3251 0 
L 3917 0 
L 2138 2554 
L 3802 4467 
L 3142 4467 
L 1792 2867 
L 1152 2093 
L 1133 2093 
L 1133 4467 
L 595 4467 
L 595 0 
L 1133 0 
L 1133 1491 
L 1766 2195 
L 3251 0 
z
" transform="scale(0.015625)"/>
       <path id="IBMPlexSans-5d" d="M 384 4864 
L 384 4461 
L 992 4461 
L 992 -480 
L 384 -480 
L 384 -883 
L 1434 -883 
L 1434 4864 
L 384 4864 
z
" transform="scale(0.015625)"/>
      </defs>
      <use xlink:href="#IBMPlexSans-54"/>
      <use xlink:href="#IBMPlexSans-65" transform="translate(57.199997 0)"/>
      <use xlink:href="#IBMPlexSans-6d" transform="translate(112.099991 0)"/>
      <use xlink:href="#IBMPlexSans-70" transform="translate(199.399979 0)"/>
      <use xlink:href="#IBMPlexSans-65" transform="translate(257.399963 0)"/>
      <use xlink:href="#IBMPlexSans-72" transform="translate(312.299957 0)"/>
      <use xlink:href="#IBMPlexSans-61" transform="translate(348.999954 0)"/>
      <use xlink:href="#IBMPlexSans-74" transform="translate(402.399948 0)"/>
      <use xlink:href="#IBMPlexSans-75" transform="translate(437.499939 0)"/>
      <use xlink:href="#IBMPlexSans-72" transform="translate(494.299927 0)"/>
      <use xlink:href="#IBMPlexSans-65" transform="translate(530.999924 0)"/>
      <use xlink:href="#IBMPlexSans-20" transform="translate(585.899918 0)"/>
      <use xlink:href="#IBMPlexSans-5b" transform="translate(609.499908 0)"/>
      <use xlink:href="#IBMPlexSans-4b" transform="translate(641.199905 0)"/>
      <use xlink:href="#IBMPlexSans-5d" transform="translate(704.599899 0)"/>
     </g>
    </g>
   </g>
   <g id="matplotlib.axis_2">
    <g id="ytick_1">
     <g id="line2d_10">
      <defs>
       <path id="m2e2053f132" d="M 0 0 
L -3.5 0 
" style="stroke: #000000; stroke-width: 0.8"/>
      </defs>
      <g>
       <use xlink:href="#m2e2053f132" x="42.320312" y="263.486465" style="stroke: #000000; stroke-width: 0.8"/>
      </g>
     </g>
     <g id="text_11">
      <!-- 0.0 -->
      <g transform="translate(20.6 267.186465) scale(0.1 -0.1)">
       <defs>
        <path id="IBMPlexSans-2e" d="M 870 -77 
C 1139 -77 1261 77 1261 294 
L 1261 378 
C 1261 595 1139 749 870 749 
C 602 749 480 595 480 378 
L 480 294 
C 480 77 602 -77 870 -77 
z
" transform="scale(0.015625)"/>
       </defs>
       <use xlink:href="#IBMPlexSans-30"/>
       <use xlink:href="#IBMPlexSans-2e" transform="translate(59.999985 0)"/>
       <use xlink:href="#IBMPlexSans-30" transform="translate(87.199982 0)"/>
      </g>
     </g>
    </g>
    <g id="ytick_2">
     <g id="line2d_11">
      <g>
       <use xlink:href="#m2e2053f132" x="42.320312" y="217.543657" style="stroke: #000000; stroke-width: 0.8"/>
      </g>
     </g>
     <g id="text_12">
      <!-- 0.2 -->
      <g transform="translate(20.6 221.243657) scale(0.1 -0.1)">
       <use xlink:href="#IBMPlexSans-30"/>
       <use xlink:href="#IBMPlexSans-2e" transform="translate(59.999985 0)"/>
       <use xlink:href="#IBMPlexSans-32" transform="translate(87.199982 0)"/>
      </g>
     </g>
    </g>
    <g id="ytick_3">
     <g id="line2d_12">
      <g>
       <use xlink:href="#m2e2053f132" x="42.320312" y="171.600849" style="stroke: #000000; stroke-width: 0.8"/>
      </g>
     </g>
     <g id="text_13">
      <!-- 0.4 -->
      <g transform="translate(20.6 175.300849) scale(0.1 -0.1)">
       <defs>
        <path id="IBMPlexSans-34" d="M 2912 0 
L 2912 877 
L 3558 877 
L 3558 1325 
L 2912 1325 
L 2912 4467 
L 2112 4467 
L 243 1350 
L 243 877 
L 2400 877 
L 2400 0 
L 2912 0 
z
M 2368 4051 
L 2400 4051 
L 2400 1325 
L 749 1325 
L 2368 4051 
z
" transform="scale(0.015625)"/>
       </defs>
       <use xlink:href="#IBMPlexSans-30"/>
       <use xlink:href="#IBMPlexSans-2e" transform="translate(59.999985 0)"/>
       <use xlink:href="#IBMPlexSans-34" transform="translate(87.199982 0)"/>
      </g>
     </g>
    </g>
    <g id="ytick_4">
     <g id="line2d_13">
      <g>
       <use xlink:href="#m2e2053f132" x="42.320312" y="125.658041" style="stroke: #000000; stroke-width: 0.8"/>
      </g>
     </g>
     <g id="text_14">
      <!-- 0.6 -->
      <g transform="translate(20.6 129.358041) scale(0.1 -0.1)">
       <defs>
        <path id="IBMPlexSans-36" d="M 1926 -77 
C 2822 -77 3411 525 3411 1402 
C 3411 2246 2861 2778 2093 2778 
C 1549 2778 1229 2502 1018 2138 
L 986 2150 
C 1229 3187 1760 3770 2714 4467 
L 2022 4467 
C 1306 4000 429 2963 429 1638 
C 429 576 998 -77 1926 -77 
z
M 1920 390 
C 1331 390 986 730 986 1331 
L 986 1382 
C 986 1984 1331 2323 1920 2323 
C 2509 2323 2854 1984 2854 1382 
L 2854 1331 
C 2854 730 2509 390 1920 390 
z
" transform="scale(0.015625)"/>
       </defs>
       <use xlink:href="#IBMPlexSans-30"/>
       <use xlink:href="#IBMPlexSans-2e" transform="translate(59.999985 0)"/>
       <use xlink:href="#IBMPlexSans-36" transform="translate(87.199982 0)"/>
      </g>
     </g>
    </g>
    <g id="ytick_5">
     <g id="line2d_14">
      <g>
       <use xlink:href="#m2e2053f132" x="42.320312" y="79.715233" style="stroke: #000000; stroke-width: 0.8"/>
      </g>
     </g>
     <g id="text_15">
      <!-- 0.8 -->
      <g transform="translate(20.6 83.415233) scale(0.1 -0.1)">
       <use xlink:href="#IBMPlexSans-30"/>
       <use xlink:href="#IBMPlexSans-2e" transform="translate(59.999985 0)"/>
       <use xlink:href="#IBMPlexSans-38" transform="translate(87.199982 0)"/>
      </g>
     </g>
    </g>
    <g id="ytick_6">
     <g id="line2d_15">
      <g>
       <use xlink:href="#m2e2053f132" x="42.320312" y="33.772425" style="stroke: #000000; stroke-width: 0.8"/>
      </g>
     </g>
     <g id="text_16">
      <!-- 1.0 -->
      <g transform="translate(20.6 37.472425) scale(0.1 -0.1)">
       <use xlink:href="#IBMPlexSans-31"/>
       <use xlink:href="#IBMPlexSans-2e" transform="translate(59.999985 0)"/>
       <use xlink:href="#IBMPlexSans-30" transform="translate(87.199982 0)"/>
      </g>
     </g>
    </g>
    <g id="text_17">
     <!-- Cumulative Probability -->
     <g transform="translate(14.6 199.449604) rotate(-90) scale(0.1 -0.1)">
      <defs>
       <path id="IBMPlexSans-43" d="M 2170 -77 
C 2912 -77 3456 314 3738 941 
L 3309 1210 
C 3130 723 2739 403 2170 403 
C 1402 403 947 960 947 1875 
L 947 2541 
C 947 3456 1402 4064 2170 4064 
C 2720 4064 3091 3763 3270 3302 
L 3706 3565 
C 3424 4186 2912 4544 2170 4544 
C 1043 4544 371 3699 371 2208 
C 371 717 1043 -77 2170 -77 
z
" transform="scale(0.015625)"/>
       <path id="IBMPlexSans-6c" d="M 1542 0 
L 1542 448 
L 1056 448 
L 1056 4736 
L 544 4736 
L 544 531 
C 544 224 736 0 1088 0 
L 1542 0 
z
" transform="scale(0.015625)"/>
       <path id="IBMPlexSans-69" d="M 800 4077 
C 1018 4077 1114 4192 1114 4365 
L 1114 4448 
C 1114 4621 1018 4736 800 4736 
C 582 4736 486 4621 486 4448 
L 486 4365 
C 486 4192 582 4077 800 4077 
z
M 544 0 
L 1056 0 
L 1056 3302 
L 544 3302 
L 544 0 
z
" transform="scale(0.015625)"/>
       <path id="IBMPlexSans-76" d="M 1869 0 
L 3034 3302 
L 2541 3302 
L 1952 1664 
L 1594 538 
L 1562 538 
L 1203 1664 
L 627 3302 
L 115 3302 
L 1274 0 
L 1869 0 
z
" transform="scale(0.015625)"/>
       <path id="IBMPlexSans-50" d="M 1133 0 
L 1133 1907 
L 2374 1907 
C 3174 1907 3622 2400 3622 3187 
C 3622 3974 3174 4467 2374 4467 
L 595 4467 
L 595 0 
L 1133 0 
z
M 1133 3994 
L 2374 3994 
C 2797 3994 3046 3763 3046 3354 
L 3046 3021 
C 3046 2611 2797 2381 2374 2381 
L 1133 2381 
L 1133 3994 
z
" transform="scale(0.015625)"/>
       <path id="IBMPlexSans-6f" d="M 1792 -77 
C 2675 -77 3283 602 3283 1651 
C 3283 2701 2675 3379 1792 3379 
C 909 3379 301 2701 301 1651 
C 301 602 909 -77 1792 -77 
z
M 1792 378 
C 1242 378 851 717 851 1414 
L 851 1888 
C 851 2586 1242 2925 1792 2925 
C 2342 2925 2733 2586 2733 1888 
L 2733 1414 
C 2733 717 2342 378 1792 378 
z
" transform="scale(0.015625)"/>
       <path id="IBMPlexSans-62" d="M 544 0 
L 1056 0 
L 1056 538 
L 1082 538 
C 1280 128 1594 -77 2048 -77 
C 2874 -77 3392 595 3392 1651 
C 3392 2707 2874 3379 2048 3379 
C 1594 3379 1254 3181 1082 2765 
L 1056 2765 
L 1056 4736 
L 544 4736 
L 544 0 
z
M 1907 384 
C 1440 384 1056 627 1056 1056 
L 1056 2285 
C 1056 2650 1440 2918 1907 2918 
C 2483 2918 2842 2522 2842 1933 
L 2842 1370 
C 2842 781 2483 384 1907 384 
z
" transform="scale(0.015625)"/>
       <path id="IBMPlexSans-79" d="M 1779 1056 
L 1600 518 
L 1568 518 
L 1414 1056 
L 621 3302 
L 109 3302 
L 1344 -128 
L 1094 -832 
L 576 -832 
L 576 -1280 
L 838 -1280 
C 1325 -1280 1459 -1165 1606 -768 
L 3085 3302 
L 2579 3302 
L 1779 1056 
z
" transform="scale(0.015625)"/>
      </defs>
      <use xlink:href="#IBMPlexSans-43"/>
      <use xlink:href="#IBMPlexSans-75" transform="translate(62.099991 0)"/>
      <use xlink:href="#IBMPlexSans-6d" transform="translate(118.899979 0)"/>
      <use xlink:href="#IBMPlexSans-75" transform="translate(206.199966 0)"/>
      <use xlink:href="#IBMPlexSans-6c" transform="translate(262.999954 0)"/>
      <use xlink:href="#IBMPlexSans-61" transform="translate(290.199951 0)"/>
      <use xlink:href="#IBMPlexSans-74" transform="translate(343.599945 0)"/>
      <use xlink:href="#IBMPlexSans-69" transform="translate(378.699936 0)"/>
      <use xlink:href="#IBMPlexSans-76" transform="translate(403.699921 0)"/>
      <use xlink:href="#IBMPlexSans-65" transform="translate(452.899918 0)"/>
      <use xlink:href="#IBMPlexSans-20" transform="translate(507.799911 0)"/>
      <use xlink:href="#IBMPlexSans-50" transform="translate(531.399902 0)"/>
      <use xlink:href="#IBMPlexSans-72" transform="translate(591.999893 0)"/>
      <use xlink:href="#IBMPlexSans-6f" transform="translate(628.69989 0)"/>
      <use xlink:href="#IBMPlexSans-62" transform="translate(684.699875 0)"/>
      <use xlink:href="#IBMPlexSans-61" transform="translate(742.69986 0)"/>
      <use xlink:href="#IBMPlexSans-62" transform="translate(796.099854 0)"/>
      <use xlink:href="#IBMPlexSans-69" transform="translate(854.099838 0)"/>
      <use xlink:href="#IBMPlexSans-6c" transform="translate(879.099823 0)"/>
      <use xlink:href="#IBMPlexSans-69" transform="translate(906.29982 0)"/>
      <use xlink:href="#IBMPlexSans-74" transform="translate(931.299805 0)"/>
      <use xlink:href="#IBMPlexSans-79" transform="translate(966.399796 0)"/>
     </g>
    </g>
   </g>
   <g id="line2d_16">
    <path d="M 208.060375 262.337895 
L 226.268675 260.040755 
L 238.122152 257.743614 
L 246.649443 255.446474 
L 251.703649 253.149333 
L 256.318864 250.852193 
L 262.438172 248.555053 
L 267.587471 246.257912 
L 270.417405 243.960772 
L 273.279717 241.663631 
L 276.851302 239.366491 
L 279.830519 237.069351 
L 283.252479 234.77221 
L 285.359506 232.47507 
L 286.947445 230.177929 
L 289.478809 227.880789 
L 291.005739 225.583649 
L 293.218424 223.286508 
L 294.700364 220.989368 
L 296.132543 218.692227 
L 298.451568 216.395087 
L 299.74605 214.097947 
L 301.441692 211.800806 
L 303.434882 209.503666 
L 305.300599 207.206525 
L 307.140414 204.909385 
L 308.390247 202.612245 
L 310.699047 200.315104 
L 311.695301 198.017964 
L 313.253587 195.720823 
L 314.755977 193.423683 
L 316.588975 191.126543 
L 317.984685 188.829402 
L 318.778484 186.532262 
L 319.880736 184.235121 
L 321.255996 181.937981 
L 322.470383 179.640841 
L 323.750891 177.3437 
L 325.189886 175.04656 
L 326.746128 172.749419 
L 328.176602 170.452279 
L 329.511984 168.155138 
L 331.263864 165.857998 
L 332.848735 163.560858 
L 333.764212 161.263717 
L 334.907364 158.966577 
L 335.653788 156.669436 
L 336.370559 154.372296 
L 337.394761 152.075156 
L 338.283311 149.778015 
L 339.564842 147.480875 
L 341.149032 145.183734 
L 342.22879 142.886594 
L 343.795256 140.589454 
L 345.09042 138.292313 
L 346.325938 135.995173 
L 347.34605 133.698032 
L 348.845373 131.400892 
L 349.995342 129.103752 
L 351.529771 126.806611 
L 352.350155 124.509471 
L 353.446272 122.21233 
L 355.289154 119.91519 
L 356.305517 117.61805 
L 357.719291 115.320909 
L 358.82018 113.023769 
L 360.106482 110.726628 
L 361.648068 108.429488 
L 363.427896 106.132348 
L 365.039353 103.835207 
L 366.754422 101.538067 
L 368.610597 99.240926 
L 370.065952 96.943786 
L 371.322261 94.646646 
L 372.696839 92.349505 
L 374.385323 90.052365 
L 375.438155 87.755224 
L 377.315802 85.458084 
L 378.851935 83.160943 
L 380.384318 80.863803 
L 382.970897 78.566663 
L 384.99851 76.269522 
L 387.723467 73.972382 
L 389.304248 71.675241 
L 392.016253 69.378101 
L 394.048638 67.080961 
L 396.502292 64.78382 
L 399.104208 62.48668 
L 401.762021 60.189539 
L 403.896655 57.892399 
L 406.070145 55.595259 
L 409.556522 53.298118 
L 413.835334 51.000978 
L 418.076996 48.703837 
L 422.202093 46.406697 
L 426.984656 44.109557 
L 432.480923 41.812416 
L 440.309166 39.515276 
L 455.794214 37.218135 
L 477.443901 34.920995 
" clip-path="url(#p1fe9fd4a9c)" style="fill: none; stroke: #1f77b4; stroke-opacity: 0.2; stroke-width: 1.5; stroke-linecap: square"/>
   </g>
   <g id="line2d_17">
    <path d="M 154.826071 262.337895 
L 181.281839 260.040755 
L 189.833329 257.743614 
L 196.443777 255.446474 
L 201.915163 253.149333 
L 207.808841 250.852193 
L 211.500058 248.555053 
L 215.290457 246.257912 
L 217.912482 243.960772 
L 220.506559 241.663631 
L 222.235603 239.366491 
L 225.101665 237.069351 
L 228.418307 234.77221 
L 231.0601 232.47507 
L 233.490577 230.177929 
L 235.554319 227.880789 
L 236.900608 225.583649 
L 239.303478 223.286508 
L 241.438794 220.989368 
L 243.904377 218.692227 
L 245.657961 216.395087 
L 247.154557 214.097947 
L 248.806572 211.800806 
L 249.718981 209.503666 
L 251.052318 207.206525 
L 252.118784 204.909385 
L 253.691726 202.612245 
L 255.653559 200.315104 
L 256.650835 198.017964 
L 258.287513 195.720823 
L 259.463726 193.423683 
L 261.076887 191.126543 
L 262.343762 188.829402 
L 263.8332 186.532262 
L 265.56463 184.235121 
L 266.805601 181.937981 
L 268.679499 179.640841 
L 269.933422 177.3437 
L 271.560898 175.04656 
L 272.42968 172.749419 
L 273.699282 170.452279 
L 274.819939 168.155138 
L 276.077612 165.857998 
L 276.829148 163.560858 
L 278.200658 161.263717 
L 280.03536 158.966577 
L 281.208506 156.669436 
L 282.198965 154.372296 
L 283.428689 152.075156 
L 284.795087 149.778015 
L 286.076277 147.480875 
L 287.394617 145.183734 
L 288.726591 142.886594 
L 289.885081 140.589454 
L 290.9979 138.292313 
L 293.125718 135.995173 
L 294.589253 133.698032 
L 295.857832 131.400892 
L 296.97065 129.103752 
L 298.264792 126.806611 
L 299.625736 124.509471 
L 300.463162 122.21233 
L 301.789683 119.91519 
L 303.241289 117.61805 
L 304.518388 115.320909 
L 306.146546 113.023769 
L 307.815944 110.726628 
L 309.379002 108.429488 
L 310.812885 106.132348 
L 311.76483 103.835207 
L 312.639407 101.538067 
L 314.737913 99.240926 
L 315.878339 96.943786 
L 317.664643 94.646646 
L 318.734176 92.349505 
L 320.589668 90.052365 
L 322.302011 87.755224 
L 323.916535 85.458084 
L 325.958463 83.160943 
L 327.887917 80.863803 
L 329.662973 78.566663 
L 331.375657 76.269522 
L 332.295905 73.972382 
L 333.891002 71.675241 
L 335.694006 69.378101 
L 338.824554 67.080961 
L 340.184816 64.78382 
L 342.579847 62.48668 
L 345.150407 60.189539 
L 347.276861 57.892399 
L 349.52363 55.595259 
L 352.542384 53.298118 
L 356.467072 51.000978 
L 360.288828 48.703837 
L 364.984479 46.406697 
L 369.383264 44.109557 
L 376.344088 41.812416 
L 383.355697 39.515276 
L 395.488315 37.218135 
L 416.788649 34.920995 
" clip-path="url(#p1fe9fd4a9c)" style="fill: none; stroke: #1f77b4; stroke-opacity: 0.2; stroke-width: 1.5; stroke-linecap: square"/>
   </g>
   <g id="line2d_18">
    <path d="M 175.858851 262.337895 
L 189.26073 260.040755 
L 201.053198 257.743614 
L 207.541969 255.446474 
L 214.046759 253.149333 
L 218.291147 250.852193 
L 223.034174 248.555053 
L 226.2789 246.257912 
L 230.899568 243.960772 
L 233.719276 241.663631 
L 236.183837 239.366491 
L 238.372664 237.069351 
L 240.626249 234.77221 
L 243.555705 232.47507 
L 245.418696 230.177929 
L 247.177052 227.880789 
L 248.83009 225.583649 
L 250.726482 223.286508 
L 252.811696 220.989368 
L 255.053011 218.692227 
L 256.16992 216.395087 
L 257.50019 214.097947 
L 258.881925 211.800806 
L 260.746961 209.503666 
L 262.213564 207.206525 
L 264.038722 204.909385 
L 265.756178 202.612245 
L 267.122235 200.315104 
L 268.473977 198.017964 
L 270.575551 195.720823 
L 271.901731 193.423683 
L 273.36288 191.126543 
L 274.269495 188.829402 
L 275.437869 186.532262 
L 276.798473 184.235121 
L 278.649875 181.937981 
L 280.346881 179.640841 
L 281.681581 177.3437 
L 283.154319 175.04656 
L 284.207151 172.749419 
L 285.989024 170.452279 
L 287.242606 168.155138 
L 288.376215 165.857998 
L 289.517323 163.560858 
L 291.086857 161.263717 
L 292.170705 158.966577 
L 293.561643 156.669436 
L 294.490752 154.372296 
L 295.865671 152.075156 
L 297.155722 149.778015 
L 298.184355 147.480875 
L 299.408967 145.183734 
L 300.559277 142.886594 
L 302.127448 140.589454 
L 303.216749 138.292313 
L 304.249471 135.995173 
L 305.451929 133.698032 
L 306.662226 131.400892 
L 307.710967 129.103752 
L 309.348668 126.806611 
L 311.421612 124.509471 
L 312.809142 122.21233 
L 314.248478 119.91519 
L 315.806764 117.61805 
L 317.088636 115.320909 
L 318.431175 113.023769 
L 320.169763 110.726628 
L 321.374606 108.429488 
L 322.279516 106.132348 
L 323.695335 103.835207 
L 325.502089 101.538067 
L 326.709999 99.240926 
L 327.801686 96.943786 
L 329.361336 94.646646 
L 330.197739 92.349505 
L 331.846006 90.052365 
L 332.937011 87.755224 
L 334.639129 85.458084 
L 337.013369 83.160943 
L 338.593128 80.863803 
L 340.278886 78.566663 
L 342.328994 76.269522 
L 344.531796 73.972382 
L 347.040664 71.675241 
L 349.430923 69.378101 
L 351.772103 67.080961 
L 354.754388 64.78382 
L 357.902659 62.48668 
L 359.640223 60.189539 
L 362.100694 57.892399 
L 364.497088 55.595259 
L 367.519251 53.298118 
L 371.437121 51.000978 
L 374.967125 48.703837 
L 379.146073 46.406697 
L 383.214933 44.109557 
L 389.707794 41.812416 
L 396.382319 39.515276 
L 406.449833 37.218135 
L 427.559982 34.920995 
" clip-path="url(#p1fe9fd4a9c)" style="fill: none; stroke: #1f77b4; stroke-opacity: 0.2; stroke-width: 1.5; stroke-linecap: square"/>
   </g>
   <g id="line2d_19">
    <path d="M 192.001706 262.337895 
L 212.818057 260.040755 
L 225.291167 257.743614 
L 231.909455 255.446474 
L 237.238714 253.149333 
L 241.343361 250.852193 
L 246.958237 248.555053 
L 250.961657 246.257912 
L 254.548238 243.960772 
L 257.587443 241.663631 
L 260.614036 239.366491 
L 262.623244 237.069351 
L 265.287874 234.77221 
L 268.016239 232.47507 
L 270.565326 230.177929 
L 273.818573 227.880789 
L 275.307671 225.583649 
L 277.024445 223.286508 
L 280.308367 220.989368 
L 281.734751 218.692227 
L 283.505717 216.395087 
L 285.30395 214.097947 
L 286.648194 211.800806 
L 287.966194 209.503666 
L 289.279763 207.206525 
L 290.197625 204.909385 
L 291.554139 202.612245 
L 293.182637 200.315104 
L 295.209909 198.017964 
L 297.879992 195.720823 
L 299.429076 193.423683 
L 300.669366 191.126543 
L 302.171415 188.829402 
L 304.097801 186.532262 
L 305.552475 184.235121 
L 306.825484 181.937981 
L 308.454323 179.640841 
L 309.611109 177.3437 
L 311.612137 175.04656 
L 313.125093 172.749419 
L 314.400148 170.452279 
L 316.296541 168.155138 
L 317.900499 165.857998 
L 319.16567 163.560858 
L 320.195325 161.263717 
L 321.140113 158.966577 
L 322.874951 156.669436 
L 323.973114 154.372296 
L 325.113199 152.075156 
L 326.019132 149.778015 
L 327.354855 147.480875 
L 328.248859 145.183734 
L 329.618324 142.886594 
L 331.197401 140.589454 
L 332.233533 138.292313 
L 333.169118 135.995173 
L 334.757398 133.698032 
L 335.906345 131.400892 
L 337.318755 129.103752 
L 338.515418 126.806611 
L 339.943848 124.509471 
L 341.011676 122.21233 
L 342.136424 119.91519 
L 344.095871 117.61805 
L 345.464995 115.320909 
L 346.807194 113.023769 
L 348.033851 110.726628 
L 349.251986 108.429488 
L 351.539996 106.132348 
L 353.26938 103.835207 
L 354.783018 101.538067 
L 356.283704 99.240926 
L 357.636809 96.943786 
L 359.388007 94.646646 
L 360.290873 92.349505 
L 361.912213 90.052365 
L 363.938463 87.755224 
L 365.839968 85.458084 
L 367.296005 83.160943 
L 370.064589 80.863803 
L 371.731942 78.566663 
L 373.415996 76.269522 
L 375.351584 73.972382 
L 376.747293 71.675241 
L 378.730598 69.378101 
L 380.656303 67.080961 
L 382.38262 64.78382 
L 384.659382 62.48668 
L 386.952844 60.189539 
L 388.547259 57.892399 
L 391.090893 55.595259 
L 395.931397 53.298118 
L 399.029907 51.000978 
L 402.455615 48.703837 
L 407.443019 46.406697 
L 411.080044 44.109557 
L 419.383748 41.812416 
L 425.353091 39.515276 
L 436.952647 37.218135 
L 453.555966 34.920995 
" clip-path="url(#p1fe9fd4a9c)" style="fill: none; stroke: #1f77b4; stroke-opacity: 0.2; stroke-width: 1.5; stroke-linecap: square"/>
   </g>
   <g id="line2d_20">
    <path d="M 166.892227 262.337895 
L 183.366371 260.040755 
L 195.007509 257.743614 
L 202.840524 255.446474 
L 208.495959 253.149333 
L 212.79863 250.852193 
L 215.206272 248.555053 
L 218.739342 246.257912 
L 223.510658 243.960772 
L 228.043732 241.663631 
L 230.341284 239.366491 
L 233.553291 237.069351 
L 236.166113 234.77221 
L 238.570687 232.47507 
L 240.88051 230.177929 
L 243.390742 227.880789 
L 246.119789 225.583649 
L 248.035609 223.286508 
L 249.484148 220.989368 
L 251.160703 218.692227 
L 252.996428 216.395087 
L 255.073461 214.097947 
L 256.288871 211.800806 
L 257.908166 209.503666 
L 259.164816 207.206525 
L 260.576886 204.909385 
L 262.652897 202.612245 
L 264.398301 200.315104 
L 265.927617 198.017964 
L 267.46409 195.720823 
L 269.196201 193.423683 
L 270.489661 191.126543 
L 272.444677 188.829402 
L 273.994784 186.532262 
L 275.249388 184.235121 
L 276.240189 181.937981 
L 277.539443 179.640841 
L 279.194526 177.3437 
L 280.62091 175.04656 
L 281.486966 172.749419 
L 282.614781 170.452279 
L 283.619215 168.155138 
L 284.942668 165.857998 
L 286.301567 163.560858 
L 287.612069 161.263717 
L 288.839066 158.966577 
L 290.130481 156.669436 
L 291.035732 154.372296 
L 292.264093 152.075156 
L 293.089589 149.778015 
L 294.441672 147.480875 
L 295.466897 145.183734 
L 296.965197 142.886594 
L 298.098806 140.589454 
L 299.726623 138.292313 
L 300.69561 135.995173 
L 301.782866 133.698032 
L 302.95533 131.400892 
L 303.953288 129.103752 
L 304.516684 126.806611 
L 305.493851 124.509471 
L 306.665634 122.21233 
L 308.329238 119.91519 
L 310.074301 117.61805 
L 311.137017 115.320909 
L 312.555562 113.023769 
L 313.790739 110.726628 
L 314.94105 108.429488 
L 316.479909 106.132348 
L 318.113519 103.835207 
L 319.101934 101.538067 
L 320.317002 99.240926 
L 321.390966 96.943786 
L 323.355525 94.646646 
L 324.921992 92.349505 
L 326.209998 90.052365 
L 328.30271 87.755224 
L 330.115258 85.458084 
L 331.817717 83.160943 
L 333.662985 80.863803 
L 335.189574 78.566663 
L 337.610167 76.269522 
L 339.416239 73.972382 
L 341.490887 71.675241 
L 343.750607 69.378101 
L 346.478631 67.080961 
L 348.264594 64.78382 
L 350.561806 62.48668 
L 352.901281 60.189539 
L 355.810628 57.892399 
L 358.198501 55.595259 
L 361.696126 53.298118 
L 365.630697 51.000978 
L 368.938818 48.703837 
L 374.520975 46.406697 
L 380.504973 44.109557 
L 387.279362 41.812416 
L 393.02989 39.515276 
L 402.2201 37.218135 
L 418.200377 34.920995 
" clip-path="url(#p1fe9fd4a9c)" style="fill: none; stroke: #1f77b4; stroke-opacity: 0.2; stroke-width: 1.5; stroke-linecap: square"/>
   </g>
   <g id="line2d_21">
    <path d="M 122.602734 262.337895 
L 154.263016 260.040755 
L 161.386417 257.743614 
L 172.115146 255.446474 
L 177.825796 253.149333 
L 181.097108 250.852193 
L 185.893304 248.555053 
L 189.124056 246.257912 
L 192.129177 243.960772 
L 195.098852 241.663631 
L 198.780867 239.366491 
L 202.269288 237.069351 
L 205.101607 234.77221 
L 207.157169 232.47507 
L 208.925408 230.177929 
L 210.830663 227.880789 
L 213.369865 225.583649 
L 215.334425 223.286508 
L 218.374311 220.989368 
L 219.680722 218.692227 
L 221.289111 216.395087 
L 223.081891 214.097947 
L 225.046791 211.800806 
L 226.514757 209.503666 
L 227.984427 207.206525 
L 229.568276 204.909385 
L 230.745171 202.612245 
L 232.41082 200.315104 
L 233.165082 198.017964 
L 234.335842 195.720823 
L 235.908444 193.423683 
L 237.244849 191.126543 
L 238.107837 188.829402 
L 239.407432 186.532262 
L 240.863809 184.235121 
L 242.617052 181.937981 
L 243.843368 179.640841 
L 244.998109 177.3437 
L 246.040716 175.04656 
L 247.801798 172.749419 
L 248.875761 170.452279 
L 250.060495 168.155138 
L 251.426893 165.857998 
L 252.333508 163.560858 
L 253.321923 161.263717 
L 254.874756 158.966577 
L 255.939517 156.669436 
L 257.102779 154.372296 
L 258.231616 152.075156 
L 259.523713 149.778015 
L 260.723444 147.480875 
L 261.934422 145.183734 
L 263.319225 142.886594 
L 264.86456 140.589454 
L 266.07247 138.292313 
L 267.567703 135.995173 
L 268.951483 133.698032 
L 269.975004 131.400892 
L 271.555785 129.103752 
L 273.056812 126.806611 
L 274.489332 124.509471 
L 275.542504 122.21233 
L 276.565343 119.91519 
L 277.345168 117.61805 
L 279.069781 115.320909 
L 280.322 113.023769 
L 281.360858 110.726628 
L 282.662498 108.429488 
L 283.941983 106.132348 
L 285.142396 103.835207 
L 287.175462 101.538067 
L 289.829185 99.240926 
L 291.125712 96.943786 
L 292.898723 94.646646 
L 294.94406 92.349505 
L 296.817276 90.052365 
L 299.524509 87.755224 
L 301.18675 85.458084 
L 303.202775 83.160943 
L 305.050428 80.863803 
L 306.878654 78.566663 
L 309.283569 76.269522 
L 310.87628 73.972382 
L 313.293124 71.675241 
L 316.662936 69.378101 
L 318.671803 67.080961 
L 321.54843 64.78382 
L 324.417218 62.48668 
L 326.345308 60.189539 
L 328.910415 57.892399 
L 331.861684 55.595259 
L 334.984052 53.298118 
L 338.154477 51.000978 
L 340.781955 48.703837 
L 346.653819 46.406697 
L 350.420701 44.109557 
L 357.230196 41.812416 
L 363.7735 39.515276 
L 369.968815 37.218135 
L 386.491357 34.920995 
" clip-path="url(#p1fe9fd4a9c)" style="fill: none; stroke: #1f77b4; stroke-opacity: 0.2; stroke-width: 1.5; stroke-linecap: square"/>
   </g>
   <g id="line2d_22">
    <path d="M 194.885832 262.337895 
L 218.44793 260.040755 
L 229.899906 257.743614 
L 236.956163 255.446474 
L 242.816098 253.149333 
L 247.853945 250.852193 
L 252.890769 248.555053 
L 255.514499 246.257912 
L 259.341026 243.960772 
L 261.641987 241.663631 
L 263.948402 239.366491 
L 266.571449 237.069351 
L 269.892863 234.77221 
L 271.892187 232.47507 
L 274.470586 230.177929 
L 276.65805 227.880789 
L 278.718383 225.583649 
L 280.994122 223.286508 
L 282.558544 220.989368 
L 284.210559 218.692227 
L 285.944375 216.395087 
L 287.644448 214.097947 
L 289.280444 211.800806 
L 290.622302 209.503666 
L 292.669002 207.206525 
L 294.542218 204.909385 
L 295.922931 202.612245 
L 297.652656 200.315104 
L 298.613464 198.017964 
L 300.212991 195.720823 
L 301.479525 193.423683 
L 302.618928 191.126543 
L 304.348654 188.829402 
L 306.481584 186.532262 
L 307.854117 184.235121 
L 309.294817 181.937981 
L 310.423995 179.640841 
L 311.767898 177.3437 
L 312.846633 175.04656 
L 314.619985 172.749419 
L 316.08318 170.452279 
L 317.65101 168.155138 
L 318.64999 165.857998 
L 319.543653 163.560858 
L 320.955722 161.263717 
L 322.660226 158.966577 
L 324.030714 156.669436 
L 325.228059 154.372296 
L 326.639447 152.075156 
L 328.178647 149.778015 
L 329.547431 147.480875 
L 330.976883 145.183734 
L 331.973477 142.886594 
L 333.180025 140.589454 
L 334.352489 138.292313 
L 335.824886 135.995173 
L 337.512348 133.698032 
L 338.45475 131.400892 
L 339.435666 129.103752 
L 340.388975 126.806611 
L 342.160623 124.509471 
L 343.004525 122.21233 
L 344.084964 119.91519 
L 345.658588 117.61805 
L 347.15348 115.320909 
L 348.542032 113.023769 
L 349.604066 110.726628 
L 350.708023 108.429488 
L 351.817433 106.132348 
L 353.506259 103.835207 
L 354.638505 101.538067 
L 356.570003 99.240926 
L 357.835855 96.943786 
L 358.877099 94.646646 
L 360.792237 92.349505 
L 362.036276 90.052365 
L 363.583657 87.755224 
L 365.041057 85.458084 
L 366.503569 83.160943 
L 368.764653 80.863803 
L 370.004943 78.566663 
L 371.609583 76.269522 
L 373.77796 73.972382 
L 375.712866 71.675241 
L 377.446 69.378101 
L 378.945323 67.080961 
L 381.671984 64.78382 
L 383.965446 62.48668 
L 385.666542 60.189539 
L 388.246304 57.892399 
L 390.448423 55.595259 
L 395.142029 53.298118 
L 397.634197 51.000978 
L 400.854043 48.703837 
L 404.671368 46.406697 
L 407.70546 44.109557 
L 414.636973 41.812416 
L 424.470675 39.515276 
L 435.852439 37.218135 
L 449.173881 34.920995 
" clip-path="url(#p1fe9fd4a9c)" style="fill: none; stroke: #1f77b4; stroke-opacity: 0.2; stroke-width: 1.5; stroke-linecap: square"/>
   </g>
   <g id="line2d_23">
    <path d="M 158.224854 262.337895 
L 190.269936 260.040755 
L 203.976519 257.743614 
L 215.750581 255.446474 
L 221.650734 253.149333 
L 225.931592 250.852193 
L 231.061464 248.555053 
L 234.679061 246.257912 
L 237.242463 243.960772 
L 241.640226 241.663631 
L 244.59729 239.366491 
L 248.025725 237.069351 
L 250.804192 234.77221 
L 252.934396 232.47507 
L 255.039719 230.177929 
L 256.907823 227.880789 
L 259.873748 225.583649 
L 261.925901 223.286508 
L 263.889778 220.989368 
L 265.955906 218.692227 
L 267.643368 216.395087 
L 269.080659 214.097947 
L 271.0459 211.800806 
L 272.542496 209.503666 
L 274.760975 207.206525 
L 276.526147 204.909385 
L 278.173732 202.612245 
L 279.795414 200.315104 
L 281.527525 198.017964 
L 283.032983 195.720823 
L 284.091268 193.423683 
L 285.138987 191.126543 
L 286.455283 188.829402 
L 288.301914 186.532262 
L 289.464494 184.235121 
L 290.842139 181.937981 
L 292.160821 179.640841 
L 293.200701 177.3437 
L 294.482913 175.04656 
L 296.070852 172.749419 
L 297.571879 170.452279 
L 298.867043 168.155138 
L 299.699015 165.857998 
L 301.090635 163.560858 
L 302.85717 161.263717 
L 304.061673 158.966577 
L 305.229024 156.669436 
L 306.195966 154.372296 
L 307.619283 152.075156 
L 309.036465 149.778015 
L 310.161895 147.480875 
L 311.390255 145.183734 
L 312.636339 142.886594 
L 313.842546 140.589454 
L 315.336756 138.292313 
L 316.387543 135.995173 
L 317.801317 133.698032 
L 319.015362 131.400892 
L 320.641816 129.103752 
L 321.803714 126.806611 
L 322.958796 124.509471 
L 324.188861 122.21233 
L 325.45369 119.91519 
L 326.799298 117.61805 
L 328.016411 115.320909 
L 328.900871 113.023769 
L 330.75057 110.726628 
L 332.189906 108.429488 
L 333.127537 106.132348 
L 334.223313 103.835207 
L 335.582213 101.538067 
L 336.857268 99.240926 
L 338.154136 96.943786 
L 339.697767 94.646646 
L 340.69368 92.349505 
L 342.166758 90.052365 
L 343.562127 87.755224 
L 345.284354 85.458084 
L 347.234939 83.160943 
L 348.691998 80.863803 
L 350.938085 78.566663 
L 353.361064 76.269522 
L 355.281656 73.972382 
L 357.053645 71.675241 
L 358.341992 69.378101 
L 361.076492 67.080961 
L 362.396537 64.78382 
L 365.053327 62.48668 
L 367.7851 60.189539 
L 370.722736 57.892399 
L 372.936103 55.595259 
L 377.051316 53.298118 
L 379.630056 51.000978 
L 382.778326 48.703837 
L 387.333895 46.406697 
L 391.17167 44.109557 
L 396.788592 41.812416 
L 408.244998 39.515276 
L 418.325463 37.218135 
L 446.902232 34.920995 
" clip-path="url(#p1fe9fd4a9c)" style="fill: none; stroke: #1f77b4; stroke-opacity: 0.2; stroke-width: 1.5; stroke-linecap: square"/>
   </g>
   <g id="line2d_24">
    <path d="M 158.321991 262.337895 
L 178.154359 260.040755 
L 194.065107 257.743614 
L 202.707258 255.446474 
L 208.873943 253.149333 
L 212.881793 250.852193 
L 217.630614 248.555053 
L 220.994291 246.257912 
L 223.575757 243.960772 
L 226.709031 241.663631 
L 229.918652 239.366491 
L 232.300731 237.069351 
L 234.298692 234.77221 
L 236.334144 232.47507 
L 238.094203 230.177929 
L 240.15999 227.880789 
L 242.303145 225.583649 
L 244.203628 223.286508 
L 246.737378 220.989368 
L 248.642632 218.692227 
L 250.156269 216.395087 
L 252.523693 214.097947 
L 253.723423 211.800806 
L 255.938154 209.503666 
L 257.716277 207.206525 
L 259.359772 204.909385 
L 261.521674 202.612245 
L 263.855354 200.315104 
L 265.120525 198.017964 
L 266.855363 195.720823 
L 268.037711 193.423683 
L 269.425922 191.126543 
L 270.552715 188.829402 
L 271.801867 186.532262 
L 273.019661 184.235121 
L 274.027503 181.937981 
L 275.665886 179.640841 
L 277.204063 177.3437 
L 278.777006 175.04656 
L 279.802912 172.749419 
L 281.133863 170.452279 
L 282.76986 168.155138 
L 284.558549 165.857998 
L 285.656712 163.560858 
L 286.935857 161.263717 
L 288.231021 158.966577 
L 289.48767 156.669436 
L 291.179223 154.372296 
L 291.957003 152.075156 
L 292.852029 149.778015 
L 294.22797 147.480875 
L 296.220819 145.183734 
L 297.455655 142.886594 
L 299.131188 140.589454 
L 300.348642 138.292313 
L 301.378638 135.995173 
L 302.448171 133.698032 
L 303.762081 131.400892 
L 305.050428 129.103752 
L 306.908988 126.806611 
L 308.234145 124.509471 
L 309.286296 122.21233 
L 310.088957 119.91519 
L 311.460126 117.61805 
L 313.038522 115.320909 
L 314.328573 113.023769 
L 315.581474 110.726628 
L 317.224287 108.429488 
L 318.643855 106.132348 
L 320.384828 103.835207 
L 321.546726 101.538067 
L 322.961522 99.240926 
L 324.988454 96.943786 
L 325.798954 94.646646 
L 326.746468 92.349505 
L 328.188872 90.052365 
L 329.856225 87.755224 
L 331.621056 85.458084 
L 333.919972 83.160943 
L 336.537226 80.863803 
L 338.181062 78.566663 
L 340.48509 76.269522 
L 342.279914 73.972382 
L 344.025659 71.675241 
L 345.605077 69.378101 
L 347.52192 67.080961 
L 349.170868 64.78382 
L 351.325612 62.48668 
L 353.000463 60.189539 
L 355.19338 57.892399 
L 358.29632 55.595259 
L 361.466064 53.298118 
L 366.411545 51.000978 
L 370.168202 48.703837 
L 374.955196 46.406697 
L 379.488269 44.109557 
L 385.350931 41.812416 
L 394.676793 39.515276 
L 402.258614 37.218135 
L 425.489083 34.920995 
" clip-path="url(#p1fe9fd4a9c)" style="fill: none; stroke: #1f77b4; stroke-opacity: 0.2; stroke-width: 1.5; stroke-linecap: square"/>
   </g>
   <g id="line2d_25">
    <path d="M 121.697142 262.337895 
L 138.056766 260.040755 
L 149.15189 257.743614 
L 154.222797 255.446474 
L 160.463783 253.149333 
L 164.283494 250.852193 
L 168.107977 248.555053 
L 171.919849 246.257912 
L 175.545626 243.960772 
L 179.390218 241.663631 
L 183.916134 239.366491 
L 187.6353 237.069351 
L 189.680977 234.77221 
L 191.773348 232.47507 
L 193.351744 230.177929 
L 195.306419 227.880789 
L 197.04671 225.583649 
L 199.073983 223.286508 
L 201.03786 220.989368 
L 202.305076 218.692227 
L 203.868475 216.395087 
L 205.36064 214.097947 
L 207.49732 211.800806 
L 208.950971 209.503666 
L 210.037545 207.206525 
L 211.33305 204.909385 
L 212.894404 202.612245 
L 214.687524 200.315104 
L 215.683778 198.017964 
L 217.64118 195.720823 
L 219.502807 193.423683 
L 221.062798 191.126543 
L 221.826604 188.829402 
L 223.391707 186.532262 
L 224.892393 184.235121 
L 226.200168 181.937981 
L 227.665748 179.640841 
L 228.792882 177.3437 
L 230.447624 175.04656 
L 231.542037 172.749419 
L 232.653833 170.452279 
L 233.761539 168.155138 
L 235.16577 165.857998 
L 236.338234 163.560858 
L 238.061824 161.263717 
L 239.559102 158.966577 
L 240.748267 156.669436 
L 242.325981 154.372296 
L 243.655228 152.075156 
L 244.671591 149.778015 
L 245.552984 147.480875 
L 246.98789 145.183734 
L 248.247607 142.886594 
L 249.770447 140.589454 
L 250.994377 138.292313 
L 252.002219 135.995173 
L 253.070729 133.698032 
L 254.26228 131.400892 
L 255.31443 129.103752 
L 256.335905 126.806611 
L 257.646748 124.509471 
L 258.977017 122.21233 
L 260.808993 119.91519 
L 262.190387 117.61805 
L 263.750719 115.320909 
L 264.989645 113.023769 
L 265.827071 110.726628 
L 266.921144 108.429488 
L 269.021013 106.132348 
L 270.7596 103.835207 
L 272.009434 101.538067 
L 273.790966 99.240926 
L 275.820965 96.943786 
L 276.776318 94.646646 
L 278.636583 92.349505 
L 280.384713 90.052365 
L 281.735433 87.755224 
L 283.420168 85.458084 
L 285.054802 83.160943 
L 286.202385 80.863803 
L 288.346222 78.566663 
L 290.451204 76.269522 
L 291.938598 73.972382 
L 293.773641 71.675241 
L 295.720136 69.378101 
L 297.740591 67.080961 
L 299.820352 64.78382 
L 301.178911 62.48668 
L 303.958741 60.189539 
L 306.240275 57.892399 
L 308.864686 55.595259 
L 313.031705 53.298118 
L 317.688842 51.000978 
L 320.676581 48.703837 
L 326.222268 46.406697 
L 330.734551 44.109557 
L 334.76626 41.812416 
L 344.956473 39.515276 
L 353.668495 37.218135 
L 373.486207 34.920995 
" clip-path="url(#p1fe9fd4a9c)" style="fill: none; stroke: #1f77b4; stroke-opacity: 0.2; stroke-width: 1.5; stroke-linecap: square"/>
   </g>
   <g id="line2d_26">
    <path d="M 149.364682 262.337895 
L 171.877395 260.040755 
L 184.727708 257.743614 
L 192.678398 255.446474 
L 199.432155 253.149333 
L 205.527314 250.852193 
L 209.979837 248.555053 
L 214.310836 246.257912 
L 218.300892 243.960772 
L 221.58056 241.663631 
L 225.138222 239.366491 
L 228.353572 237.069351 
L 231.379929 234.77221 
L 233.841661 232.47507 
L 236.263106 230.177929 
L 238.618126 227.880789 
L 241.188469 225.583649 
L 243.774929 223.286508 
L 245.940688 220.989368 
L 248.032673 218.692227 
L 250.034592 216.395087 
L 252.040816 214.097947 
L 253.815994 211.800806 
L 255.715747 209.503666 
L 257.447778 207.206525 
L 259.352083 204.909385 
L 261.372602 202.612245 
L 263.056238 200.315104 
L 265.005501 198.017964 
L 266.661264 195.720823 
L 268.47804 193.423683 
L 270.255593 191.126543 
L 271.929977 188.829402 
L 273.641081 186.532262 
L 275.154708 184.235121 
L 276.622651 181.937981 
L 278.285135 179.640841 
L 280.05581 177.3437 
L 281.4329 175.04656 
L 283.023202 172.749419 
L 284.473495 170.452279 
L 285.844426 168.155138 
L 287.37254 165.857998 
L 288.950926 163.560858 
L 290.322111 161.263717 
L 291.622905 158.966577 
L 293.16504 156.669436 
L 294.696743 154.372296 
L 296.228835 152.075156 
L 297.794104 149.778015 
L 299.410453 147.480875 
L 300.686273 145.183734 
L 302.061744 142.886594 
L 303.513754 140.589454 
L 304.890854 138.292313 
L 306.419871 135.995173 
L 308.034373 133.698032 
L 309.58328 131.400892 
L 311.139275 129.103752 
L 312.614209 126.806611 
L 314.240451 124.509471 
L 315.8705 122.21233 
L 317.658465 119.91519 
L 318.97388 117.61805 
L 320.495793 115.320909 
L 321.976625 113.023769 
L 323.596763 110.726628 
L 325.22811 108.429488 
L 326.653811 106.132348 
L 328.19581 103.835207 
L 329.925815 101.538067 
L 331.618049 99.240926 
L 333.073949 96.943786 
L 334.793105 94.646646 
L 336.483202 92.349505 
L 338.327262 90.052365 
L 339.952173 87.755224 
L 341.840079 85.458084 
L 343.790454 83.160943 
L 345.93894 80.863803 
L 347.743177 78.566663 
L 349.6736 76.269522 
L 351.992945 73.972382 
L 354.346679 71.675241 
L 356.850416 69.378101 
L 358.899444 67.080961 
L 361.409727 64.78382 
L 364.170187 62.48668 
L 366.854564 60.189539 
L 370.204367 57.892399 
L 373.365002 55.595259 
L 376.604069 53.298118 
L 380.17422 51.000978 
L 384.25942 48.703837 
L 388.879762 46.406697 
L 394.865171 44.109557 
L 401.289 41.812416 
L 409.101502 39.515276 
L 422.361296 37.218135 
L 446.800618 34.920995 
" clip-path="url(#p1fe9fd4a9c)" style="fill: none; stroke: #000000; stroke-width: 1.5; stroke-linecap: square"/>
   </g>
   <g id="line2d_27">
    <path d="M 64.798547 263.46636 
L 69.339459 263.459079 
L 73.880713 263.449385 
L 78.421626 263.436566 
L 82.96288 263.419716 
L 87.503792 263.397712 
L 92.045046 263.369154 
L 96.585959 263.332329 
L 101.126872 263.285136 
L 105.668125 263.225032 
L 110.209038 263.148969 
L 114.750292 263.053295 
L 119.291205 262.933716 
L 123.832458 262.785159 
L 128.373371 262.601766 
L 132.914284 262.376743 
L 137.455537 262.102304 
L 141.99645 261.769693 
L 146.537704 261.368971 
L 151.078617 260.889191 
L 155.61953 260.318194 
L 160.160783 259.64268 
L 164.701696 258.848449 
L 169.24295 257.920097 
L 173.783862 256.84163 
L 178.325116 255.596062 
L 182.866029 254.166275 
L 187.406942 252.534645 
L 191.948195 250.683544 
L 196.489108 248.596153 
L 201.030362 246.255805 
L 205.571275 243.647632 
L 210.112528 240.757554 
L 214.653441 237.574261 
L 219.194354 234.088152 
L 223.735607 230.292272 
L 228.27652 226.183622 
L 232.817774 221.761424 
L 237.358687 217.029845 
L 241.89994 211.995532 
L 246.440853 206.67056 
L 250.981766 201.069877 
L 255.52302 195.212276 
L 260.063932 189.121649 
L 264.605186 182.823619 
L 269.146099 176.348849 
L 273.687012 169.729351 
L 278.228265 162.999364 
L 282.769178 156.196364 
L 287.310432 149.35692 
L 291.851345 142.520143 
L 296.392598 135.722955 
L 300.933511 129.003553 
L 305.474424 122.397225 
L 310.015678 115.937356 
L 314.55659 109.656335 
L 319.097844 103.581748 
L 323.638757 97.73978 
L 328.18001 92.151293 
L 332.720923 86.835131 
L 337.261836 81.80504 
L 341.80309 77.070999 
L 346.344002 72.640265 
L 350.885256 68.515074 
L 355.426169 64.695521 
L 359.967423 61.177342 
L 364.508335 57.954521 
L 369.049248 55.017733 
L 373.590502 52.355596 
L 378.131415 49.95555 
L 382.672668 47.802886 
L 387.213581 45.882553 
L 391.754835 44.178211 
L 396.295748 42.673711 
L 400.83666 41.352448 
L 405.377914 40.198065 
L 409.918827 39.194874 
L 414.46008 38.327458 
L 419.000993 37.581428 
L 423.542247 36.943007 
L 428.08316 36.399563 
L 432.624073 35.9393 
L 437.165326 35.551451 
L 441.706239 35.22634 
L 446.247493 34.955164 
L 450.788405 34.730155 
L 455.329659 34.544371 
L 459.870572 34.39177 
L 464.411485 34.267047 
L 468.952738 34.165614 
L 473.493651 34.083546 
L 478.034905 34.017469 
L 482.575818 33.964539 
L 487.11673 33.922349 
L 491.657984 33.888883 
L 496.198897 33.862472 
L 500.74015 33.841729 
L 505.281063 33.82552 
L 509.821976 33.812915 
L 514.36323 33.80316 
" clip-path="url(#p1fe9fd4a9c)" style="fill: none; stroke-dasharray: 4,6.6; stroke-dashoffset: 0; stroke: #d62728; stroke-width: 4"/>
   </g>
   <g id="patch_3">
    <path d="M 42.320312 274.94952 
L 42.320312 22.32 
" style="fill: none; stroke: #000000; stroke-width: 0.8; stroke-linejoin: miter; stroke-linecap: square"/>
   </g>
   <g id="patch_4">
    <path d="M 42.320312 274.94952 
L 536.841464 274.94952 
" style="fill: none; stroke: #000000; stroke-width: 0.8; stroke-linejoin: miter; stroke-linecap: square"/>
   </g>
   <g id="text_18">
    <!-- Cumulative Temperature Distribution (1000 H$_2$O, NVE) -->
    <g transform="translate(142.520888 16.32) scale(0.12 -0.12)">
     <defs>
      <path id="IBMPlexSans-44" d="M 595 0 
L 2093 0 
C 3206 0 3923 742 3923 2234 
C 3923 3725 3206 4467 2093 4467 
L 595 4467 
L 595 0 
z
M 1133 474 
L 1133 3994 
L 2093 3994 
C 2829 3994 3347 3482 3347 2598 
L 3347 1869 
C 3347 986 2829 474 2093 474 
L 1133 474 
z
" transform="scale(0.015625)"/>
      <path id="IBMPlexSans-73" d="M 1536 -77 
C 2291 -77 2758 314 2758 954 
C 2758 1453 2477 1773 1747 1882 
L 1491 1920 
C 1082 1984 858 2112 858 2432 
C 858 2746 1082 2944 1504 2944 
C 1926 2944 2208 2746 2355 2541 
L 2694 2848 
C 2426 3181 2074 3379 1542 3379 
C 870 3379 365 3059 365 2406 
C 365 1792 819 1542 1427 1453 
L 1690 1414 
C 2125 1350 2266 1152 2266 896 
C 2266 557 2010 358 1574 358 
C 1158 358 851 544 595 864 
L 230 570 
C 525 179 928 -77 1536 -77 
z
" transform="scale(0.015625)"/>
      <path id="IBMPlexSans-6e" d="M 1056 0 
L 1056 2291 
C 1056 2714 1453 2918 1862 2918 
C 2355 2918 2611 2618 2611 2029 
L 2611 0 
L 3123 0 
L 3123 2118 
C 3123 2918 2694 3379 2016 3379 
C 1523 3379 1242 3136 1082 2765 
L 1056 2765 
L 1056 3302 
L 544 3302 
L 544 0 
L 1056 0 
z
" transform="scale(0.015625)"/>
      <path id="IBMPlexSans-28" d="M 531 1997 
C 531 749 1056 -339 1690 -877 
L 2176 -877 
C 1485 -262 1011 819 1011 1715 
L 1011 2266 
C 1011 3162 1466 4224 2176 4864 
L 1690 4864 
C 1037 4307 531 3232 531 1997 
z
" transform="scale(0.015625)"/>
      <path id="IBMPlexSans-48" d="M 3392 0 
L 3930 0 
L 3930 4467 
L 3392 4467 
L 3392 2496 
L 1133 2496 
L 1133 4467 
L 595 4467 
L 595 0 
L 1133 0 
L 1133 2022 
L 3392 2022 
L 3392 0 
z
" transform="scale(0.015625)"/>
      <path id="DejaVuSans-32" d="M 1228 531 
L 3431 531 
L 3431 0 
L 469 0 
L 469 531 
Q 828 903 1448 1529 
Q 2069 2156 2228 2338 
Q 2531 2678 2651 2914 
Q 2772 3150 2772 3378 
Q 2772 3750 2511 3984 
Q 2250 4219 1831 4219 
Q 1534 4219 1204 4116 
Q 875 4013 500 3803 
L 500 4441 
Q 881 4594 1212 4672 
Q 1544 4750 1819 4750 
Q 2544 4750 2975 4387 
Q 3406 4025 3406 3419 
Q 3406 3131 3298 2873 
Q 3191 2616 2906 2266 
Q 2828 2175 2409 1742 
Q 1991 1309 1228 531 
z
" transform="scale(0.015625)"/>
      <path id="IBMPlexSans-4f" d="M 2266 -77 
C 3418 -77 4160 736 4160 2234 
C 4160 3731 3418 4544 2266 4544 
C 1114 4544 371 3731 371 2234 
C 371 736 1114 -77 2266 -77 
z
M 2266 403 
C 1491 403 947 979 947 1862 
L 947 2605 
C 947 3488 1491 4064 2266 4064 
C 3040 4064 3584 3488 3584 2605 
L 3584 1862 
C 3584 979 3040 403 2266 403 
z
" transform="scale(0.015625)"/>
      <path id="IBMPlexSans-2c" d="M 870 749 
C 602 749 480 595 480 371 
L 480 282 
C 480 109 557 -19 730 -58 
C 659 -358 506 -582 250 -851 
L 678 -851 
C 1043 -538 1261 -64 1261 282 
L 1261 371 
C 1261 595 1139 749 870 749 
z
" transform="scale(0.015625)"/>
      <path id="IBMPlexSans-4e" d="M 3309 0 
L 3930 0 
L 3930 4467 
L 3405 4467 
L 3405 749 
L 3386 749 
L 2848 1741 
L 1216 4467 
L 595 4467 
L 595 0 
L 1120 0 
L 1120 3718 
L 1139 3718 
L 1677 2726 
L 3309 0 
z
" transform="scale(0.015625)"/>
      <path id="IBMPlexSans-56" d="M 2266 0 
L 3770 4467 
L 3213 4467 
L 2470 2214 
L 1965 538 
L 1933 538 
L 1440 2214 
L 704 4467 
L 128 4467 
L 1613 0 
L 2266 0 
z
" transform="scale(0.015625)"/>
      <path id="IBMPlexSans-45" d="M 3322 0 
L 3322 474 
L 1133 474 
L 1133 2022 
L 3194 2022 
L 3194 2496 
L 1133 2496 
L 1133 3994 
L 3322 3994 
L 3322 4467 
L 595 4467 
L 595 0 
L 3322 0 
z
" transform="scale(0.015625)"/>
      <path id="IBMPlexSans-29" d="M 1613 1997 
C 1613 3232 1107 4307 454 4864 
L -32 4864 
C 678 4224 1133 3162 1133 2266 
L 1133 1715 
C 1133 819 659 -262 -32 -877 
L 454 -877 
C 1088 -339 1613 749 1613 1997 
z
" transform="scale(0.015625)"/>
     </defs>
     <use xlink:href="#IBMPlexSans-43"/>
     <use xlink:href="#IBMPlexSans-75" transform="translate(62.099991 0)"/>
     <use xlink:href="#IBMPlexSans-6d" transform="translate(118.899979 0)"/>
     <use xlink:href="#IBMPlexSans-75" transform="translate(206.199966 0)"/>
     <use xlink:href="#IBMPlexSans-6c" transform="translate(262.999954 0)"/>
     <use xlink:href="#IBMPlexSans-61" transform="translate(290.199951 0)"/>
     <use xlink:href="#IBMPlexSans-74" transform="translate(343.599945 0)"/>
     <use xlink:href="#IBMPlexSans-69" transform="translate(378.699936 0)"/>
     <use xlink:href="#IBMPlexSans-76" transform="translate(403.699921 0)"/>
     <use xlink:href="#IBMPlexSans-65" transform="translate(452.899918 0)"/>
     <use xlink:href="#IBMPlexSans-20" transform="translate(507.799911 0)"/>
     <use xlink:href="#IBMPlexSans-54" transform="translate(531.399902 0)"/>
     <use xlink:href="#IBMPlexSans-65" transform="translate(588.599899 0)"/>
     <use xlink:href="#IBMPlexSans-6d" transform="translate(643.499893 0)"/>
     <use xlink:href="#IBMPlexSans-70" transform="translate(730.799881 0)"/>
     <use xlink:href="#IBMPlexSans-65" transform="translate(788.799866 0)"/>
     <use xlink:href="#IBMPlexSans-72" transform="translate(843.69986 0)"/>
     <use xlink:href="#IBMPlexSans-61" transform="translate(880.399857 0)"/>
     <use xlink:href="#IBMPlexSans-74" transform="translate(933.79985 0)"/>
     <use xlink:href="#IBMPlexSans-75" transform="translate(968.899841 0)"/>
     <use xlink:href="#IBMPlexSans-72" transform="translate(1025.699829 0)"/>
     <use xlink:href="#IBMPlexSans-65" transform="translate(1062.399826 0)"/>
     <use xlink:href="#IBMPlexSans-20" transform="translate(1117.29982 0)"/>
     <use xlink:href="#IBMPlexSans-44" transform="translate(1140.899811 0)"/>
     <use xlink:href="#IBMPlexSans-69" transform="translate(1207.999802 0)"/>
     <use xlink:href="#IBMPlexSans-73" transform="translate(1232.999786 0)"/>
     <use xlink:href="#IBMPlexSans-74" transform="translate(1281.699783 0)"/>
     <use xlink:href="#IBMPlexSans-72" transform="translate(1316.799774 0)"/>
     <use xlink:href="#IBMPlexSans-69" transform="translate(1353.499771 0)"/>
     <use xlink:href="#IBMPlexSans-62" transform="translate(1378.499756 0)"/>
     <use xlink:href="#IBMPlexSans-75" transform="translate(1436.499741 0)"/>
     <use xlink:href="#IBMPlexSans-74" transform="translate(1493.299728 0)"/>
     <use xlink:href="#IBMPlexSans-69" transform="translate(1528.399719 0)"/>
     <use xlink:href="#IBMPlexSans-6f" transform="translate(1553.399704 0)"/>
     <use xlink:href="#IBMPlexSans-6e" transform="translate(1609.399689 0)"/>
     <use xlink:href="#IBMPlexSans-20" transform="translate(1666.199677 0)"/>
     <use xlink:href="#IBMPlexSans-28" transform="translate(1689.799667 0)"/>
     <use xlink:href="#IBMPlexSans-31" transform="translate(1723.299652 0)"/>
     <use xlink:href="#IBMPlexSans-30" transform="translate(1783.299637 0)"/>
     <use xlink:href="#IBMPlexSans-30" transform="translate(1843.299622 0)"/>
     <use xlink:href="#IBMPlexSans-30" transform="translate(1903.299606 0)"/>
     <use xlink:href="#IBMPlexSans-20" transform="translate(1963.299591 0)"/>
     <use xlink:href="#IBMPlexSans-48" transform="translate(1986.899582 0)"/>
     <use xlink:href="#DejaVuSans-32" transform="translate(2058.556595 -16.40625) scale(0.7)"/>
     <use xlink:href="#IBMPlexSans-4f" transform="translate(2105.827103 0)"/>
     <use xlink:href="#IBMPlexSans-2c" transform="translate(2176.62709 0)"/>
     <use xlink:href="#IBMPlexSans-20" transform="translate(2203.827087 0)"/>
     <use xlink:href="#IBMPlexSans-4e" transform="translate(2227.427078 0)"/>
     <use xlink:href="#IBMPlexSans-56" transform="translate(2298.12706 0)"/>
     <use xlink:href="#IBMPlexSans-45" transform="translate(2359.027054 0)"/>
     <use xlink:href="#IBMPlexSans-29" transform="translate(2417.327042 0)"/>
    </g>
   </g>
   <g id="legend_1">
    <g id="patch_5">
     <path d="M 49.320312 73.52 
L 148.479688 73.52 
Q 150.479688 73.52 150.479688 71.52 
L 150.479688 29.32 
Q 150.479688 27.32 148.479688 27.32 
L 49.320312 27.32 
Q 47.320312 27.32 47.320312 29.32 
L 47.320312 71.52 
Q 47.320312 73.52 49.320312 73.52 
z
" style="fill: #ffffff; opacity: 0.8; stroke: #cccccc; stroke-linejoin: miter"/>
    </g>
    <g id="line2d_28">
     <path d="M 51.320312 35.22 
L 61.320312 35.22 
L 71.320312 35.22 
" style="fill: none; stroke: #1f77b4; stroke-opacity: 0.2; stroke-width: 1.5; stroke-linecap: square"/>
    </g>
    <g id="text_19">
     <!-- Individual NVE -->
     <g transform="translate(79.320312 38.72) scale(0.1 -0.1)">
      <defs>
       <path id="IBMPlexSans-49" d="M 2176 0 
L 2176 448 
L 1549 448 
L 1549 4019 
L 2176 4019 
L 2176 4467 
L 384 4467 
L 384 4019 
L 1011 4019 
L 1011 448 
L 384 448 
L 384 0 
L 2176 0 
z
" transform="scale(0.015625)"/>
       <path id="IBMPlexSans-64" d="M 2656 0 
L 3168 0 
L 3168 4736 
L 2656 4736 
L 2656 2765 
L 2630 2765 
C 2458 3181 2118 3379 1664 3379 
C 838 3379 320 2707 320 1651 
C 320 595 838 -77 1664 -77 
C 2118 -77 2432 128 2630 538 
L 2656 538 
L 2656 0 
z
M 1805 384 
C 1229 384 870 781 870 1370 
L 870 1933 
C 870 2522 1229 2918 1805 2918 
C 2272 2918 2656 2650 2656 2285 
L 2656 1056 
C 2656 627 2272 384 1805 384 
z
" transform="scale(0.015625)"/>
      </defs>
      <use xlink:href="#IBMPlexSans-49"/>
      <use xlink:href="#IBMPlexSans-6e" transform="translate(39.999985 0)"/>
      <use xlink:href="#IBMPlexSans-64" transform="translate(96.799973 0)"/>
      <use xlink:href="#IBMPlexSans-69" transform="translate(154.799957 0)"/>
      <use xlink:href="#IBMPlexSans-76" transform="translate(179.799942 0)"/>
      <use xlink:href="#IBMPlexSans-69" transform="translate(228.999939 0)"/>
      <use xlink:href="#IBMPlexSans-64" transform="translate(253.999924 0)"/>
      <use xlink:href="#IBMPlexSans-75" transform="translate(311.999908 0)"/>
      <use xlink:href="#IBMPlexSans-61" transform="translate(368.799896 0)"/>
      <use xlink:href="#IBMPlexSans-6c" transform="translate(422.19989 0)"/>
      <use xlink:href="#IBMPlexSans-20" transform="translate(449.399887 0)"/>
      <use xlink:href="#IBMPlexSans-4e" transform="translate(472.999878 0)"/>
      <use xlink:href="#IBMPlexSans-56" transform="translate(543.69986 0)"/>
      <use xlink:href="#IBMPlexSans-45" transform="translate(604.599854 0)"/>
     </g>
    </g>
    <g id="line2d_29">
     <path d="M 51.320312 49.62 
L 61.320312 49.62 
L 71.320312 49.62 
" style="fill: none; stroke: #000000; stroke-width: 1.5; stroke-linecap: square"/>
    </g>
    <g id="text_20">
     <!-- Combined NVE -->
     <g transform="translate(79.320312 53.12) scale(0.1 -0.1)">
      <use xlink:href="#IBMPlexSans-43"/>
      <use xlink:href="#IBMPlexSans-6f" transform="translate(62.099991 0)"/>
      <use xlink:href="#IBMPlexSans-6d" transform="translate(118.099976 0)"/>
      <use xlink:href="#IBMPlexSans-62" transform="translate(205.399963 0)"/>
      <use xlink:href="#IBMPlexSans-69" transform="translate(263.399948 0)"/>
      <use xlink:href="#IBMPlexSans-6e" transform="translate(288.399933 0)"/>
      <use xlink:href="#IBMPlexSans-65" transform="translate(345.199921 0)"/>
      <use xlink:href="#IBMPlexSans-64" transform="translate(400.099915 0)"/>
      <use xlink:href="#IBMPlexSans-20" transform="translate(458.099899 0)"/>
      <use xlink:href="#IBMPlexSans-4e" transform="translate(481.69989 0)"/>
      <use xlink:href="#IBMPlexSans-56" transform="translate(552.399872 0)"/>
      <use xlink:href="#IBMPlexSans-45" transform="translate(613.299866 0)"/>
     </g>
    </g>
    <g id="line2d_30">
     <path d="M 51.320312 64.02 
L 61.320312 64.02 
L 71.320312 64.02 
" style="fill: none; stroke-dasharray: 4,6.6; stroke-dashoffset: 0; stroke: #d62728; stroke-width: 4"/>
    </g>
    <g id="text_21">
     <!-- NVT exact -->
     <g transform="translate(79.320312 67.52) scale(0.1 -0.1)">
      <defs>
       <path id="IBMPlexSans-78" d="M 134 0 
L 704 0 
L 1632 1293 
L 1651 1293 
L 2509 0 
L 3110 0 
L 1920 1702 
L 3085 3302 
L 2515 3302 
L 1645 2074 
L 1626 2074 
L 787 3302 
L 186 3302 
L 1357 1664 
L 134 0 
z
" transform="scale(0.015625)"/>
       <path id="IBMPlexSans-63" d="M 1773 -77 
C 2400 -77 2829 230 3040 704 
L 2669 954 
C 2490 576 2189 378 1773 378 
C 1165 378 851 794 851 1370 
L 851 1933 
C 851 2509 1165 2925 1773 2925 
C 2176 2925 2458 2726 2579 2387 
L 3008 2605 
C 2816 3059 2426 3379 1773 3379 
C 845 3379 301 2707 301 1651 
C 301 595 845 -77 1773 -77 
z
" transform="scale(0.015625)"/>
      </defs>
      <use xlink:href="#IBMPlexSans-4e"/>
      <use xlink:href="#IBMPlexSans-56" transform="translate(70.699982 0)"/>
      <use xlink:href="#IBMPlexSans-54" transform="translate(131.599976 0)"/>
      <use xlink:href="#IBMPlexSans-20" transform="translate(188.799973 0)"/>
      <use xlink:href="#IBMPlexSans-65" transform="translate(212.399963 0)"/>
      <use xlink:href="#IBMPlexSans-78" transform="translate(267.299957 0)"/>
      <use xlink:href="#IBMPlexSans-61" transform="translate(317.999954 0)"/>
      <use xlink:href="#IBMPlexSans-63" transform="translate(371.399948 0)"/>
      <use xlink:href="#IBMPlexSans-74" transform="translate(421.699936 0)"/>
     </g>
    </g>
   </g>
  </g>
 </g>
 <defs>
  <clipPath id="p1fe9fd4a9c">
   <rect x="42.320312" y="22.32" width="494.521151" height="252.62952"/>
  </clipPath>
 </defs>
</svg>