<?xml version="1.0" encoding="utf-8" standalone="no"?>
<!DOCTYPE svg PUBLIC "-//W3C//DTD SVG 1.1//EN"
  "http://www.w3.org/Graphics/SVG/1.1/DTD/svg11.dtd">
<svg xmlns:xlink="http://www.w3.org/1999/xlink" width="548.39952pt" height="312.14952pt" viewBox="0 0 548.39952 312.14952" xmlns="http://www.w3.org/2000/svg" version="1.1">
 <metadata>
  <rdf:RDF xmlns:dc="http://purl.org/dc/elements/1.1/" xmlns:cc="http://creativecommons.org/ns#" xmlns:rdf="http://www.w3.org/1999/02/22-rdf-syntax-ns#">
   <cc:Work>
    <dc:type rdf:resource="http://purl.org/dc/dcmitype/StillImage"/>
    <dc:date>2026-01-27T08:27:06.555591</dc:date>
    <dc:format>image/svg+xml</dc:format>
    <dc:creator>
     <cc:Agent>
      <dc:title>Matplotlib v3.10.7, https://matplotlib.org/</dc:title>
     </cc:Agent>
    </dc:creator>
   </cc:Work>
  </rdf:RDF>
 </metadata>
 <defs>
  <style type="text/css">*{stroke-linejoin: round; stroke-linecap: butt}</style>
 </defs>
 <g id="figure_1">
  <g id="patch_1">
   <path d="M 0 312.14952 
L 548.39952 312.14952 
L 548.39952 0 
L 0 0 
z
" style="fill: #ffffff"/>
  </g>
  <g id="axes_1">
   <g id="patch_2">
    <path d="M 42.640625 128.12452 
L 268.259676 128.12452 
L 268.259676 7.2 
L 42.640625 7.2 
z
" style="fill: #ffffff"/>
   </g>
   <g id="matplotlib.axis_1">
    <g id="xtick_1">
     <g id="line2d_1">
      <defs>
       <path id="me47c8e8382" d="M 0 0 
L 0 3.5 
" style="stroke: #000000; stroke-width: 0.8"/>
      </defs>
      <g>
       <use xlink:href="#me47c8e8382" x="71.554831" y="128.12452" style="stroke: #000000; stroke-width: 0.8"/>
      </g>
     </g>
     <g id="text_1">
      <!-- $\mathdefault{10^{-3}}$ -->
      <g transform="translate(61.154831 142.52452) scale(0.1 -0.1)">
       <defs>
        <path id="IBMPlexSans-31" d="M 3501 0 
L 3501 474 
L 2349 474 
L 2349 4467 
L 1510 4467 
L 326 3360 
L 640 3021 
L 1766 4070 
L 1811 4070 
L 1811 474 
L 563 474 
L 563 0 
L 3501 0 
z
" transform="scale(0.015625)"/>
        <path id="IBMPlexSans-30" d="M 1920 -77 
C 2989 -77 3456 774 3456 2234 
C 3456 3693 2989 4544 1920 4544 
C 851 4544 384 3693 384 2234 
C 384 774 851 -77 1920 -77 
z
M 1920 390 
C 1222 390 947 1005 947 1869 
L 947 2598 
C 947 3462 1222 4077 1920 4077 
C 2618 4077 2893 3462 2893 2598 
L 2893 1869 
C 2893 1005 2618 390 1920 390 
z
" transform="scale(0.015625)"/>
        <path id="IBMPlexSans-2212" d="M 3411 1734 
L 3411 2170 
L 429 2170 
L 429 1734 
L 3411 1734 
z
" transform="scale(0.015625)"/>
        <path id="IBMPlexSans-33" d="M 1184 2573 
L 1184 2106 
L 1709 2106 
C 2336 2106 2669 1805 2669 1280 
L 2669 1229 
C 2669 704 2336 403 1709 403 
C 1165 403 902 640 672 992 
L 269 685 
C 544 301 941 -77 1715 -77 
C 2624 -77 3232 454 3232 1222 
C 3232 1894 2771 2253 2291 2349 
L 2291 2374 
C 2765 2496 3149 2842 3149 3418 
C 3149 4141 2547 4544 1792 4544 
C 1075 4544 685 4173 461 3814 
L 858 3507 
C 1043 3846 1318 4064 1779 4064 
C 2253 4064 2579 3827 2579 3360 
L 2579 3315 
C 2579 2886 2272 2573 1670 2573 
L 1184 2573 
z
" transform="scale(0.015625)"/>
       </defs>
       <use xlink:href="#IBMPlexSans-31" transform="translate(0 0.184375)"/>
       <use xlink:href="#IBMPlexSans-30" transform="translate(59.999985 0.184375)"/>
       <use xlink:href="#IBMPlexSans-2212" transform="translate(120.90286 36.3) scale(0.7)"/>
       <use xlink:href="#IBMPlexSans-33" transform="translate(162.902849 36.3) scale(0.7)"/>
      </g>
     </g>
    </g>
    <g id="xtick_2">
     <g id="line2d_2">
      <g>
       <use xlink:href="#me47c8e8382" x="197.495937" y="128.12452" style="stroke: #000000; stroke-width: 0.8"/>
      </g>
     </g>
     <g id="text_2">
      <!-- $\mathdefault{10^{-2}}$ -->
      <g transform="translate(187.095937 142.52452) scale(0.1 -0.1)">
       <defs>
        <path id="IBMPlexSans-32" d="M 3411 474 
L 1062 474 
L 2266 1555 
C 2835 2067 3245 2554 3245 3245 
C 3245 4006 2746 4544 1875 4544 
C 1011 4544 614 4019 442 3494 
L 922 3309 
C 1043 3731 1299 4064 1850 4064 
C 2400 4064 2675 3725 2675 3232 
L 2675 3155 
C 2675 2726 2355 2278 1939 1894 
L 480 550 
L 480 0 
L 3411 0 
L 3411 474 
z
" transform="scale(0.015625)"/>
       </defs>
       <use xlink:href="#IBMPlexSans-31" transform="translate(0 0.184375)"/>
       <use xlink:href="#IBMPlexSans-30" transform="translate(59.999985 0.184375)"/>
       <use xlink:href="#IBMPlexSans-2212" transform="translate(120.90286 36.3) scale(0.7)"/>
       <use xlink:href="#IBMPlexSans-32" transform="translate(162.902849 36.3) scale(0.7)"/>
      </g>
     </g>
    </g>
    <g id="xtick_3">
     <g id="line2d_3">
      <defs>
       <path id="m502254b738" d="M 0 0 
L 0 2 
" style="stroke: #000000; stroke-width: 0.6"/>
      </defs>
      <g>
       <use xlink:href="#m502254b738" x="43.614954" y="128.12452" style="stroke: #000000; stroke-width: 0.6"/>
      </g>
     </g>
    </g>
    <g id="xtick_4">
     <g id="line2d_4">
      <g>
       <use xlink:href="#m502254b738" x="52.046306" y="128.12452" style="stroke: #000000; stroke-width: 0.6"/>
      </g>
     </g>
    </g>
    <g id="xtick_5">
     <g id="line2d_5">
      <g>
       <use xlink:href="#m502254b738" x="59.349876" y="128.12452" style="stroke: #000000; stroke-width: 0.6"/>
      </g>
     </g>
    </g>
    <g id="xtick_6">
     <g id="line2d_6">
      <g>
       <use xlink:href="#m502254b738" x="65.792082" y="128.12452" style="stroke: #000000; stroke-width: 0.6"/>
      </g>
     </g>
    </g>
    <g id="xtick_7">
     <g id="line2d_7">
      <g>
       <use xlink:href="#m502254b738" x="109.466881" y="128.12452" style="stroke: #000000; stroke-width: 0.6"/>
      </g>
     </g>
    </g>
    <g id="xtick_8">
     <g id="line2d_8">
      <g>
       <use xlink:href="#m502254b738" x="131.644009" y="128.12452" style="stroke: #000000; stroke-width: 0.6"/>
      </g>
     </g>
    </g>
    <g id="xtick_9">
     <g id="line2d_9">
      <g>
       <use xlink:href="#m502254b738" x="147.378932" y="128.12452" style="stroke: #000000; stroke-width: 0.6"/>
      </g>
     </g>
    </g>
    <g id="xtick_10">
     <g id="line2d_10">
      <g>
       <use xlink:href="#m502254b738" x="159.583886" y="128.12452" style="stroke: #000000; stroke-width: 0.6"/>
      </g>
     </g>
    </g>
    <g id="xtick_11">
     <g id="line2d_11">
      <g>
       <use xlink:href="#m502254b738" x="169.55606" y="128.12452" style="stroke: #000000; stroke-width: 0.6"/>
      </g>
     </g>
    </g>
    <g id="xtick_12">
     <g id="line2d_12">
      <g>
       <use xlink:href="#m502254b738" x="177.987413" y="128.12452" style="stroke: #000000; stroke-width: 0.6"/>
      </g>
     </g>
    </g>
    <g id="xtick_13">
     <g id="line2d_13">
      <g>
       <use xlink:href="#m502254b738" x="185.290983" y="128.12452" style="stroke: #000000; stroke-width: 0.6"/>
      </g>
     </g>
    </g>
    <g id="xtick_14">
     <g id="line2d_14">
      <g>
       <use xlink:href="#m502254b738" x="191.733188" y="128.12452" style="stroke: #000000; stroke-width: 0.6"/>
      </g>
     </g>
    </g>
    <g id="xtick_15">
     <g id="line2d_15">
      <g>
       <use xlink:href="#m502254b738" x="235.407988" y="128.12452" style="stroke: #000000; stroke-width: 0.6"/>
      </g>
     </g>
    </g>
    <g id="xtick_16">
     <g id="line2d_16">
      <g>
       <use xlink:href="#m502254b738" x="257.585116" y="128.12452" style="stroke: #000000; stroke-width: 0.6"/>
      </g>
     </g>
    </g>
   </g>
   <g id="matplotlib.axis_2">
    <g id="ytick_1">
     <g id="line2d_17">
      <defs>
       <path id="m0ba8dfbb5d" d="M 0 0 
L -3.5 0 
" style="stroke: #000000; stroke-width: 0.8"/>
      </defs>
      <g>
       <use xlink:href="#m0ba8dfbb5d" x="42.640625" y="122.627951" style="stroke: #000000; stroke-width: 0.8"/>
      </g>
     </g>
     <g id="text_3">
      <!-- 0.0 -->
      <g transform="translate(20.920313 126.327951) scale(0.1 -0.1)">
       <defs>
        <path id="IBMPlexSans-2e" d="M 870 -77 
C 1139 -77 1261 77 1261 294 
L 1261 378 
C 1261 595 1139 749 870 749 
C 602 749 480 595 480 378 
L 480 294 
C 480 77 602 -77 870 -77 
z
" transform="scale(0.015625)"/>
       </defs>
       <use xlink:href="#IBMPlexSans-30"/>
       <use xlink:href="#IBMPlexSans-2e" transform="translate(59.999985 0)"/>
       <use xlink:href="#IBMPlexSans-30" transform="translate(87.199982 0)"/>
      </g>
     </g>
    </g>
    <g id="ytick_2">
     <g id="line2d_18">
      <g>
       <use xlink:href="#m0ba8dfbb5d" x="42.640625" y="85.767615" style="stroke: #000000; stroke-width: 0.8"/>
      </g>
     </g>
     <g id="text_4">
      <!-- 0.1 -->
      <g transform="translate(20.920313 89.467615) scale(0.1 -0.1)">
       <use xlink:href="#IBMPlexSans-30"/>
       <use xlink:href="#IBMPlexSans-2e" transform="translate(59.999985 0)"/>
       <use xlink:href="#IBMPlexSans-31" transform="translate(87.199982 0)"/>
      </g>
     </g>
    </g>
    <g id="ytick_3">
     <g id="line2d_19">
      <g>
       <use xlink:href="#m0ba8dfbb5d" x="42.640625" y="48.90728" style="stroke: #000000; stroke-width: 0.8"/>
      </g>
     </g>
     <g id="text_5">
      <!-- 0.2 -->
      <g transform="translate(20.920313 52.60728) scale(0.1 -0.1)">
       <use xlink:href="#IBMPlexSans-30"/>
       <use xlink:href="#IBMPlexSans-2e" transform="translate(59.999985 0)"/>
       <use xlink:href="#IBMPlexSans-32" transform="translate(87.199982 0)"/>
      </g>
     </g>
    </g>
    <g id="ytick_4">
     <g id="line2d_20">
      <g>
       <use xlink:href="#m0ba8dfbb5d" x="42.640625" y="12.046944" style="stroke: #000000; stroke-width: 0.8"/>
      </g>
     </g>
     <g id="text_6">
      <!-- 0.3 -->
      <g transform="translate(20.920313 15.746944) scale(0.1 -0.1)">
       <use xlink:href="#IBMPlexSans-30"/>
       <use xlink:href="#IBMPlexSans-2e" transform="translate(59.999985 0)"/>
       <use xlink:href="#IBMPlexSans-33" transform="translate(87.199982 0)"/>
      </g>
     </g>
    </g>
    <g id="text_7">
     <!-- cv2l(125%) weight -->
     <g transform="translate(14.8 110.231791) rotate(-90) scale(0.1 -0.1)">
      <defs>
       <path id="IBMPlexSans-63" d="M 1773 -77 
C 2400 -77 2829 230 3040 704 
L 2669 954 
C 2490 576 2189 378 1773 378 
C 1165 378 851 794 851 1370 
L 851 1933 
C 851 2509 1165 2925 1773 2925 
C 2176 2925 2458 2726 2579 2387 
L 3008 2605 
C 2816 3059 2426 3379 1773 3379 
C 845 3379 301 2707 301 1651 
C 301 595 845 -77 1773 -77 
z
" transform="scale(0.015625)"/>
       <path id="IBMPlexSans-76" d="M 1869 0 
L 3034 3302 
L 2541 3302 
L 1952 1664 
L 1594 538 
L 1562 538 
L 1203 1664 
L 627 3302 
L 115 3302 
L 1274 0 
L 1869 0 
z
" transform="scale(0.015625)"/>
       <path id="IBMPlexSans-6c" d="M 1542 0 
L 1542 448 
L 1056 448 
L 1056 4736 
L 544 4736 
L 544 531 
C 544 224 736 0 1088 0 
L 1542 0 
z
" transform="scale(0.015625)"/>
       <path id="IBMPlexSans-28" d="M 531 1997 
C 531 749 1056 -339 1690 -877 
L 2176 -877 
C 1485 -262 1011 819 1011 1715 
L 1011 2266 
C 1011 3162 1466 4224 2176 4864 
L 1690 4864 
C 1037 4307 531 3232 531 1997 
z
" transform="scale(0.015625)"/>
       <path id="IBMPlexSans-35" d="M 3187 4467 
L 794 4467 
L 634 2010 
L 1088 1946 
C 1274 2150 1478 2323 1888 2323 
C 2496 2323 2822 1984 2822 1395 
L 2822 1331 
C 2822 742 2496 403 1888 403 
C 1350 403 1126 640 896 992 
L 493 685 
C 762 301 1146 -77 1888 -77 
C 2829 -77 3392 531 3392 1402 
C 3392 2266 2829 2784 2061 2784 
C 1594 2784 1357 2592 1146 2291 
L 1101 2291 
L 1229 3994 
L 3187 3994 
L 3187 4467 
z
" transform="scale(0.015625)"/>
       <path id="IBMPlexSans-25" d="M 1664 0 
L 4762 4467 
L 4269 4467 
L 1171 0 
L 1664 0 
z
M 1427 2010 
C 2074 2010 2438 2458 2438 3277 
C 2438 4096 2074 4544 1427 4544 
C 781 4544 416 4096 416 3277 
C 416 2458 781 2010 1427 2010 
z
M 1427 2342 
C 1056 2342 877 2598 877 3085 
L 877 3469 
C 877 3955 1056 4211 1427 4211 
C 1798 4211 1978 3955 1978 3469 
L 1978 3085 
C 1978 2598 1798 2342 1427 2342 
z
M 4506 -77 
C 5152 -77 5517 371 5517 1190 
C 5517 2010 5152 2458 4506 2458 
C 3859 2458 3494 2010 3494 1190 
C 3494 371 3859 -77 4506 -77 
z
M 4506 256 
C 4134 256 3955 512 3955 998 
L 3955 1382 
C 3955 1869 4134 2125 4506 2125 
C 4877 2125 5056 1869 5056 1382 
L 5056 998 
C 5056 512 4877 256 4506 256 
z
" transform="scale(0.015625)"/>
       <path id="IBMPlexSans-29" d="M 1613 1997 
C 1613 3232 1107 4307 454 4864 
L -32 4864 
C 678 4224 1133 3162 1133 2266 
L 1133 1715 
C 1133 819 659 -262 -32 -877 
L 454 -877 
C 1088 -339 1613 749 1613 1997 
z
" transform="scale(0.015625)"/>
       <path id="IBMPlexSans-20" transform="scale(0.015625)"/>
       <path id="IBMPlexSans-77" d="M 1082 0 
L 1702 0 
L 2163 1587 
L 2445 2592 
L 2458 2592 
L 2746 1587 
L 3206 0 
L 3840 0 
L 4717 3302 
L 4237 3302 
L 3878 1875 
L 3539 429 
L 3526 429 
L 3117 1875 
L 2688 3302 
L 2234 3302 
L 1818 1875 
L 1414 429 
L 1402 429 
L 1050 1875 
L 698 3302 
L 198 3302 
L 1082 0 
z
" transform="scale(0.015625)"/>
       <path id="IBMPlexSans-65" d="M 1786 -77 
C 2406 -77 2880 230 3091 678 
L 2726 941 
C 2554 576 2234 371 1818 371 
C 1203 371 838 800 838 1370 
L 838 1523 
L 3213 1523 
L 3213 1766 
C 3213 2701 2669 3379 1786 3379 
C 890 3379 301 2701 301 1651 
C 301 602 890 -77 1786 -77 
z
M 1786 2950 
C 2310 2950 2662 2560 2662 1978 
L 2662 1907 
L 838 1907 
L 838 1952 
C 838 2528 1229 2950 1786 2950 
z
" transform="scale(0.015625)"/>
       <path id="IBMPlexSans-69" d="M 800 4077 
C 1018 4077 1114 4192 1114 4365 
L 1114 4448 
C 1114 4621 1018 4736 800 4736 
C 582 4736 486 4621 486 4448 
L 486 4365 
C 486 4192 582 4077 800 4077 
z
M 544 0 
L 1056 0 
L 1056 3302 
L 544 3302 
L 544 0 
z
" transform="scale(0.015625)"/>
       <path id="IBMPlexSans-67" d="M 3328 -365 
C 3328 179 2976 512 2157 512 
L 1453 512 
C 1152 512 947 563 947 762 
C 947 966 1165 1075 1382 1133 
C 1478 1114 1594 1101 1702 1101 
C 2458 1101 2950 1568 2950 2240 
C 2950 2592 2810 2886 2573 3091 
L 2573 3302 
L 3200 3302 
L 3200 3750 
L 2707 3750 
C 2432 3750 2323 3565 2323 3309 
L 2323 3251 
C 2144 3334 1933 3379 1696 3379 
C 947 3379 454 2912 454 2240 
C 454 1779 685 1414 1075 1229 
L 1075 1203 
C 742 1120 506 960 506 627 
C 506 403 614 256 800 166 
L 800 96 
C 474 6 275 -186 275 -544 
C 275 -1062 698 -1357 1728 -1357 
C 2790 -1357 3328 -1043 3328 -365 
z
M 2848 -403 
C 2848 -762 2515 -941 1946 -941 
L 1472 -941 
C 954 -941 755 -704 755 -416 
C 755 -211 851 -64 1062 32 
L 2163 32 
C 2675 32 2848 -141 2848 -403 
z
M 1702 1510 
C 1267 1510 992 1715 992 2150 
L 992 2330 
C 992 2765 1267 2970 1702 2970 
C 2138 2970 2413 2765 2413 2330 
L 2413 2150 
C 2413 1715 2138 1510 1702 1510 
z
" transform="scale(0.015625)"/>
       <path id="IBMPlexSans-68" d="M 544 0 
L 1056 0 
L 1056 2291 
C 1056 2714 1453 2918 1862 2918 
C 2355 2918 2611 2618 2611 2029 
L 2611 0 
L 3123 0 
L 3123 2118 
C 3123 2918 2694 3379 2016 3379 
C 1523 3379 1242 3136 1082 2765 
L 1056 2765 
L 1056 4736 
L 544 4736 
L 544 0 
z
" transform="scale(0.015625)"/>
       <path id="IBMPlexSans-74" d="M 1914 0 
L 1914 448 
L 1242 448 
L 1242 2854 
L 1965 2854 
L 1965 3302 
L 1242 3302 
L 1242 4218 
L 781 4218 
L 781 3603 
C 781 3379 710 3302 493 3302 
L 186 3302 
L 186 2854 
L 730 2854 
L 730 544 
C 730 224 922 0 1274 0 
L 1914 0 
z
" transform="scale(0.015625)"/>
      </defs>
      <use xlink:href="#IBMPlexSans-63"/>
      <use xlink:href="#IBMPlexSans-76" transform="translate(50.299988 0)"/>
      <use xlink:href="#IBMPlexSans-32" transform="translate(99.499985 0)"/>
      <use xlink:href="#IBMPlexSans-6c" transform="translate(159.499969 0)"/>
      <use xlink:href="#IBMPlexSans-28" transform="translate(186.699966 0)"/>
      <use xlink:href="#IBMPlexSans-31" transform="translate(220.199951 0)"/>
      <use xlink:href="#IBMPlexSans-32" transform="translate(280.199936 0)"/>
      <use xlink:href="#IBMPlexSans-35" transform="translate(340.199921 0)"/>
      <use xlink:href="#IBMPlexSans-25" transform="translate(400.199905 0)"/>
      <use xlink:href="#IBMPlexSans-29" transform="translate(492.899887 0)"/>
      <use xlink:href="#IBMPlexSans-20" transform="translate(526.399872 0)"/>
      <use xlink:href="#IBMPlexSans-77" transform="translate(549.999863 0)"/>
      <use xlink:href="#IBMPlexSans-65" transform="translate(626.79985 0)"/>
      <use xlink:href="#IBMPlexSans-69" transform="translate(681.699844 0)"/>
      <use xlink:href="#IBMPlexSans-67" transform="translate(706.699829 0)"/>
      <use xlink:href="#IBMPlexSans-68" transform="translate(759.499817 0)"/>
      <use xlink:href="#IBMPlexSans-74" transform="translate(816.299805 0)"/>
     </g>
    </g>
   </g>
   <g id="line2d_21">
    <path d="M 52.896036 122.627951 
L 56.314507 122.627951 
L 59.732977 122.627951 
L 63.151448 122.627951 
L 66.569918 122.627951 
L 69.988389 122.627951 
L 73.406859 122.627951 
L 76.82533 122.627951 
L 80.2438 122.627951 
L 83.662271 122.627951 
L 87.080741 122.627951 
L 90.499212 122.627951 
L 93.917682 122.627951 
L 100.754623 122.627951 
L 124.683916 122.627951 
L 128.102387 122.627951 
L 131.520857 122.627951 
L 134.939328 122.627951 
L 138.357798 122.627951 
L 141.776269 122.627951 
L 145.194739 122.627951 
L 148.61321 122.627951 
L 152.03168 122.627951 
L 155.450151 122.627951 
L 158.868621 122.627951 
L 162.287092 122.627951 
L 165.705562 122.627951 
L 169.124033 122.627951 
L 172.542503 122.627945 
L 175.960973 122.627886 
L 179.379444 122.627516 
L 182.797914 122.625858 
L 186.216385 122.620651 
L 189.634855 122.607851 
L 193.053326 122.581861 
L 196.471796 122.530308 
L 199.890267 122.437676 
L 203.308737 122.279874 
L 206.727208 122.042547 
L 210.145678 121.715775 
L 213.564149 121.27735 
L 216.982619 120.625964 
L 220.40109 119.64207 
L 223.81956 118.142325 
L 227.238031 115.938918 
L 230.656501 112.971233 
L 234.074972 109.441282 
L 237.493442 105.404311 
L 240.911912 100.640115 
L 244.330383 94.57984 
L 247.748853 87.210757 
L 251.167324 75.909511 
L 254.585794 55.917374 
L 258.004265 12.696569 
" clip-path="url(#p1334bb22ec)" style="fill: none; stroke: #ff7f0e; stroke-width: 1.5; stroke-linecap: square"/>
   </g>
   <g id="patch_3">
    <path d="M 42.640625 128.12452 
L 42.640625 7.2 
" style="fill: none; stroke: #000000; stroke-width: 0.8; stroke-linejoin: miter; stroke-linecap: square"/>
   </g>
   <g id="patch_4">
    <path d="M 42.640625 128.12452 
L 268.259676 128.12452 
" style="fill: none; stroke: #000000; stroke-width: 0.8; stroke-linejoin: miter; stroke-linecap: square"/>
   </g>
  </g>
  <g id="axes_2">
   <g id="patch_5">
    <path d="M 315.580469 128.12452 
L 541.19952 128.12452 
L 541.19952 7.2 
L 315.580469 7.2 
z
" style="fill: #ffffff"/>
   </g>
   <g id="FillBetweenPolyCollection_1">
    <defs>
     <path id="mf77ced19c9" d="M 325.83588 -298.762416 
L 325.83588 -199.365527 
L 329.254351 -199.107496 
L 332.672821 -198.566186 
L 336.091292 -197.8041 
L 339.509762 -196.842182 
L 342.928233 -195.772617 
L 346.346703 -194.624911 
L 349.765173 -193.484553 
L 353.183644 -192.391282 
L 356.602114 -191.440815 
L 360.020585 -190.673482 
L 363.439055 -190.103357 
L 366.857526 -189.711387 
L 373.694467 -189.521569 
L 397.62376 -206.271249 
L 401.042231 -206.79053 
L 404.460701 -207.214607 
L 407.879172 -207.499766 
L 411.297642 -207.590707 
L 414.716112 -207.4771 
L 418.134583 -207.137237 
L 421.553053 -206.630314 
L 424.971524 -206.264498 
L 428.389994 -206.199267 
L 431.808465 -206.281282 
L 435.226935 -206.472621 
L 438.645406 -206.853957 
L 442.063876 -207.244014 
L 445.482347 -207.703247 
L 448.900817 -208.231717 
L 452.319288 -208.847203 
L 455.737758 -209.49139 
L 459.156229 -210.234937 
L 462.574699 -211.095973 
L 465.99317 -211.989214 
L 469.41164 -212.937069 
L 472.830111 -213.952726 
L 476.248581 -214.93813 
L 479.667051 -215.842492 
L 483.085522 -216.632425 
L 486.503992 -217.354015 
L 489.922463 -217.921411 
L 493.340933 -218.381295 
L 496.759404 -218.744642 
L 500.177874 -219.068277 
L 503.596345 -219.319905 
L 507.014815 -219.509553 
L 510.433286 -219.619727 
L 513.851756 -219.71187 
L 517.270227 -219.832845 
L 520.688697 -219.942517 
L 524.107168 -220.100805 
L 527.525638 -220.311957 
L 530.944109 -220.575557 
L 530.944109 -245.13895 
L 530.944109 -245.13895 
L 527.525638 -245.11688 
L 524.107168 -245.166908 
L 520.688697 -245.289671 
L 517.270227 -245.480421 
L 513.851756 -245.676389 
L 510.433286 -245.914838 
L 507.014815 -246.14555 
L 503.596345 -246.304823 
L 500.177874 -246.410141 
L 496.759404 -246.452071 
L 493.340933 -246.461631 
L 489.922463 -246.379704 
L 486.503992 -246.191738 
L 483.085522 -245.852541 
L 479.667051 -245.454409 
L 476.248581 -244.955483 
L 472.830111 -244.406829 
L 469.41164 -243.866378 
L 465.99317 -243.445459 
L 462.574699 -243.138562 
L 459.156229 -242.923886 
L 455.737758 -242.906171 
L 452.319288 -243.06174 
L 448.900817 -243.331665 
L 445.482347 -243.805316 
L 442.063876 -244.475284 
L 438.645406 -245.38197 
L 435.226935 -246.535904 
L 431.808465 -248.257024 
L 428.389994 -250.546653 
L 424.971524 -253.312102 
L 421.553053 -256.035897 
L 418.134583 -258.02654 
L 414.716112 -259.18706 
L 411.297642 -259.789532 
L 407.879172 -260.051662 
L 404.460701 -260.092443 
L 401.042231 -259.998429 
L 397.62376 -259.793296 
L 373.694467 -294.395124 
L 366.857526 -295.085943 
L 363.439055 -295.538127 
L 360.020585 -296.059434 
L 356.602114 -296.647374 
L 353.183644 -297.276843 
L 349.765173 -297.902193 
L 346.346703 -298.474302 
L 342.928233 -298.947673 
L 339.509762 -299.288758 
L 336.091292 -299.452951 
L 332.672821 -299.427624 
L 329.254351 -299.190986 
L 325.83588 -298.762416 
z
"/>
    </defs>
    <g clip-path="url(#pac774d61e1)">
     <use xlink:href="#mf77ced19c9" x="0" y="312.14952" style="fill: #d62728; fill-opacity: 0.3"/>
    </g>
   </g>
   <g id="PathCollection_1">
    <defs>
     <path id="C0_0_ed4f7e52c5" d="M 0 2.738613 
C 0.726289 2.738613 1.422928 2.450055 1.936492 1.936492 
C 2.450055 1.422928 2.738613 0.726289 2.738613 -0 
C 2.738613 -0.726289 2.450055 -1.422928 1.936492 -1.936492 
C 1.422928 -2.450055 0.726289 -2.738613 0 -2.738613 
C -0.726289 -2.738613 -1.422928 -2.450055 -1.936492 -1.936492 
C -2.450055 -1.422928 -2.738613 -0.726289 -2.738613 0 
C -2.738613 0.726289 -2.450055 1.422928 -1.936492 1.936492 
C -1.422928 2.450055 -0.726289 2.738613 0 2.738613 
z
"/>
    </defs>
    <g clip-path="url(#pac774d61e1)">
     <use xlink:href="#C0_0_ed4f7e52c5" x="486.503992" y="80.376643" style="fill: #fefefe"/>
    </g>
    <g clip-path="url(#pac774d61e1)">
     <use xlink:href="#C0_0_ed4f7e52c5" x="489.922463" y="79.998962" style="fill: #fdfdfd"/>
    </g>
    <g clip-path="url(#pac774d61e1)">
     <use xlink:href="#C0_0_ed4f7e52c5" x="493.340933" y="79.728057" style="fill: #fcfcfc"/>
    </g>
    <g clip-path="url(#pac774d61e1)">
     <use xlink:href="#C0_0_ed4f7e52c5" x="496.759404" y="79.551163" style="fill: #fafafa"/>
    </g>
    <g clip-path="url(#pac774d61e1)">
     <use xlink:href="#C0_0_ed4f7e52c5" x="500.177874" y="79.410311" style="fill: #f8f8f8"/>
    </g>
    <g clip-path="url(#pac774d61e1)">
     <use xlink:href="#C0_0_ed4f7e52c5" x="503.596345" y="79.337156" style="fill: #f5f5f5"/>
    </g>
    <g clip-path="url(#pac774d61e1)">
     <use xlink:href="#C0_0_ed4f7e52c5" x="507.014815" y="79.321968" style="fill: #f1f1f1"/>
    </g>
    <g clip-path="url(#pac774d61e1)">
     <use xlink:href="#C0_0_ed4f7e52c5" x="510.433286" y="79.382238" style="fill: #eaeaea"/>
    </g>
    <g clip-path="url(#pac774d61e1)">
     <use xlink:href="#C0_0_ed4f7e52c5" x="513.851756" y="79.45539" style="fill: #e2e2e2"/>
    </g>
    <g clip-path="url(#pac774d61e1)">
     <use xlink:href="#C0_0_ed4f7e52c5" x="517.270227" y="79.492887" style="fill: #d8d8d8"/>
    </g>
    <g clip-path="url(#pac774d61e1)">
     <use xlink:href="#C0_0_ed4f7e52c5" x="520.688697" y="79.533426" style="fill: #c9c9c9"/>
    </g>
    <g clip-path="url(#pac774d61e1)">
     <use xlink:href="#C0_0_ed4f7e52c5" x="524.107168" y="79.515663" style="fill: #aeaeae"/>
    </g>
    <g clip-path="url(#pac774d61e1)">
     <use xlink:href="#C0_0_ed4f7e52c5" x="527.525638" y="79.435101" style="fill: #787878"/>
    </g>
    <g clip-path="url(#pac774d61e1)">
     <use xlink:href="#C0_0_ed4f7e52c5" x="530.944109" y="79.292266"/>
    </g>
   </g>
   <g id="matplotlib.axis_3">
    <g id="xtick_17">
     <g id="line2d_22">
      <g>
       <use xlink:href="#me47c8e8382" x="344.494674" y="128.12452" style="stroke: #000000; stroke-width: 0.8"/>
      </g>
     </g>
     <g id="text_8">
      <!-- $\mathdefault{10^{-3}}$ -->
      <g transform="translate(334.094674 142.52452) scale(0.1 -0.1)">
       <use xlink:href="#IBMPlexSans-31" transform="translate(0 0.184375)"/>
       <use xlink:href="#IBMPlexSans-30" transform="translate(59.999985 0.184375)"/>
       <use xlink:href="#IBMPlexSans-2212" transform="translate(120.90286 36.3) scale(0.7)"/>
       <use xlink:href="#IBMPlexSans-33" transform="translate(162.902849 36.3) scale(0.7)"/>
      </g>
     </g>
    </g>
    <g id="xtick_18">
     <g id="line2d_23">
      <g>
       <use xlink:href="#me47c8e8382" x="470.435781" y="128.12452" style="stroke: #000000; stroke-width: 0.8"/>
      </g>
     </g>
     <g id="text_9">
      <!-- $\mathdefault{10^{-2}}$ -->
      <g transform="translate(460.035781 142.52452) scale(0.1 -0.1)">
       <use xlink:href="#IBMPlexSans-31" transform="translate(0 0.184375)"/>
       <use xlink:href="#IBMPlexSans-30" transform="translate(59.999985 0.184375)"/>
       <use xlink:href="#IBMPlexSans-2212" transform="translate(120.90286 36.3) scale(0.7)"/>
       <use xlink:href="#IBMPlexSans-32" transform="translate(162.902849 36.3) scale(0.7)"/>
      </g>
     </g>
    </g>
    <g id="xtick_19">
     <g id="line2d_24">
      <g>
       <use xlink:href="#m502254b738" x="316.554797" y="128.12452" style="stroke: #000000; stroke-width: 0.6"/>
      </g>
     </g>
    </g>
    <g id="xtick_20">
     <g id="line2d_25">
      <g>
       <use xlink:href="#m502254b738" x="324.98615" y="128.12452" style="stroke: #000000; stroke-width: 0.6"/>
      </g>
     </g>
    </g>
    <g id="xtick_21">
     <g id="line2d_26">
      <g>
       <use xlink:href="#m502254b738" x="332.28972" y="128.12452" style="stroke: #000000; stroke-width: 0.6"/>
      </g>
     </g>
    </g>
    <g id="xtick_22">
     <g id="line2d_27">
      <g>
       <use xlink:href="#m502254b738" x="338.731925" y="128.12452" style="stroke: #000000; stroke-width: 0.6"/>
      </g>
     </g>
    </g>
    <g id="xtick_23">
     <g id="line2d_28">
      <g>
       <use xlink:href="#m502254b738" x="382.406725" y="128.12452" style="stroke: #000000; stroke-width: 0.6"/>
      </g>
     </g>
    </g>
    <g id="xtick_24">
     <g id="line2d_29">
      <g>
       <use xlink:href="#m502254b738" x="404.583853" y="128.12452" style="stroke: #000000; stroke-width: 0.6"/>
      </g>
     </g>
    </g>
    <g id="xtick_25">
     <g id="line2d_30">
      <g>
       <use xlink:href="#m502254b738" x="420.318776" y="128.12452" style="stroke: #000000; stroke-width: 0.6"/>
      </g>
     </g>
    </g>
    <g id="xtick_26">
     <g id="line2d_31">
      <g>
       <use xlink:href="#m502254b738" x="432.52373" y="128.12452" style="stroke: #000000; stroke-width: 0.6"/>
      </g>
     </g>
    </g>
    <g id="xtick_27">
     <g id="line2d_32">
      <g>
       <use xlink:href="#m502254b738" x="442.495904" y="128.12452" style="stroke: #000000; stroke-width: 0.6"/>
      </g>
     </g>
    </g>
    <g id="xtick_28">
     <g id="line2d_33">
      <g>
       <use xlink:href="#m502254b738" x="450.927257" y="128.12452" style="stroke: #000000; stroke-width: 0.6"/>
      </g>
     </g>
    </g>
    <g id="xtick_29">
     <g id="line2d_34">
      <g>
       <use xlink:href="#m502254b738" x="458.230827" y="128.12452" style="stroke: #000000; stroke-width: 0.6"/>
      </g>
     </g>
    </g>
    <g id="xtick_30">
     <g id="line2d_35">
      <g>
       <use xlink:href="#m502254b738" x="464.673032" y="128.12452" style="stroke: #000000; stroke-width: 0.6"/>
      </g>
     </g>
    </g>
    <g id="xtick_31">
     <g id="line2d_36">
      <g>
       <use xlink:href="#m502254b738" x="508.347832" y="128.12452" style="stroke: #000000; stroke-width: 0.6"/>
      </g>
     </g>
    </g>
    <g id="xtick_32">
     <g id="line2d_37">
      <g>
       <use xlink:href="#m502254b738" x="530.52496" y="128.12452" style="stroke: #000000; stroke-width: 0.6"/>
      </g>
     </g>
    </g>
   </g>
   <g id="matplotlib.axis_4">
    <g id="ytick_5">
     <g id="line2d_38">
      <g>
       <use xlink:href="#m0ba8dfbb5d" x="315.580469" y="117.143495" style="stroke: #000000; stroke-width: 0.8"/>
      </g>
     </g>
     <g id="text_10">
      <!-- 0.95 -->
      <g transform="translate(287.860156 120.843495) scale(0.1 -0.1)">
       <defs>
        <path id="IBMPlexSans-39" d="M 3411 2829 
C 3411 3891 2842 4544 1914 4544 
C 1018 4544 429 3942 429 3066 
C 429 2221 979 1690 1747 1690 
C 2291 1690 2611 1965 2822 2330 
L 2854 2317 
C 2611 1280 2080 698 1126 0 
L 1818 0 
C 2534 467 3411 1504 3411 2829 
z
M 1920 2144 
C 1331 2144 986 2483 986 3085 
L 986 3136 
C 986 3738 1331 4077 1920 4077 
C 2509 4077 2854 3738 2854 3136 
L 2854 3085 
C 2854 2483 2509 2144 1920 2144 
z
" transform="scale(0.015625)"/>
       </defs>
       <use xlink:href="#IBMPlexSans-30"/>
       <use xlink:href="#IBMPlexSans-2e" transform="translate(59.999985 0)"/>
       <use xlink:href="#IBMPlexSans-39" transform="translate(87.199982 0)"/>
       <use xlink:href="#IBMPlexSans-35" transform="translate(147.199966 0)"/>
      </g>
     </g>
    </g>
    <g id="ytick_6">
     <g id="line2d_39">
      <g>
       <use xlink:href="#m0ba8dfbb5d" x="315.580469" y="84.075749" style="stroke: #000000; stroke-width: 0.8"/>
      </g>
     </g>
     <g id="text_11">
      <!-- 1.00 -->
      <g transform="translate(287.860156 87.775749) scale(0.1 -0.1)">
       <use xlink:href="#IBMPlexSans-31"/>
       <use xlink:href="#IBMPlexSans-2e" transform="translate(59.999985 0)"/>
       <use xlink:href="#IBMPlexSans-30" transform="translate(87.199982 0)"/>
       <use xlink:href="#IBMPlexSans-30" transform="translate(147.199966 0)"/>
      </g>
     </g>
    </g>
    <g id="ytick_7">
     <g id="line2d_40">
      <g>
       <use xlink:href="#m0ba8dfbb5d" x="315.580469" y="51.008003" style="stroke: #000000; stroke-width: 0.8"/>
      </g>
     </g>
     <g id="text_12">
      <!-- 1.05 -->
      <g transform="translate(287.860156 54.708003) scale(0.1 -0.1)">
       <use xlink:href="#IBMPlexSans-31"/>
       <use xlink:href="#IBMPlexSans-2e" transform="translate(59.999985 0)"/>
       <use xlink:href="#IBMPlexSans-30" transform="translate(87.199982 0)"/>
       <use xlink:href="#IBMPlexSans-35" transform="translate(147.199966 0)"/>
      </g>
     </g>
    </g>
    <g id="ytick_8">
     <g id="line2d_41">
      <g>
       <use xlink:href="#m0ba8dfbb5d" x="315.580469" y="17.940257" style="stroke: #000000; stroke-width: 0.8"/>
      </g>
     </g>
     <g id="text_13">
      <!-- 1.10 -->
      <g transform="translate(287.860156 21.640257) scale(0.1 -0.1)">
       <use xlink:href="#IBMPlexSans-31"/>
       <use xlink:href="#IBMPlexSans-2e" transform="translate(59.999985 0)"/>
       <use xlink:href="#IBMPlexSans-31" transform="translate(87.199982 0)"/>
       <use xlink:href="#IBMPlexSans-30" transform="translate(147.199966 0)"/>
      </g>
     </g>
    </g>
    <g id="text_14">
     <!-- $\mathcal{I}$ (95% CI) -->
     <g transform="translate(281.860156 92.01226) rotate(-90) scale(0.1 -0.1)">
      <defs>
       <path id="STIXNonUnicode-Italic-e235" d="M 3782 4237 
L 3744 4083 
Q 3482 4083 3347 4067 
Q 3213 4051 3069 3977 
Q 2925 3904 2838 3753 
Q 2752 3603 2675 3334 
L 1920 710 
Q 1901 634 1901 557 
Q 1901 352 2208 352 
Q 2790 352 3283 819 
L 3398 698 
Q 3008 320 2566 160 
Q 2125 0 1549 0 
L 243 0 
L 282 154 
Q 467 154 556 160 
Q 646 166 777 201 
Q 909 237 982 310 
Q 1056 384 1139 521 
Q 1222 659 1280 870 
L 1946 3187 
Q 2061 3590 2061 3674 
Q 2061 3878 1754 3878 
Q 1523 3878 1203 3750 
Q 883 3622 678 3411 
L 570 3533 
Q 947 3904 1385 4070 
Q 1824 4237 2579 4237 
L 3782 4237 
z
" transform="scale(0.015625)"/>
       <path id="IBMPlexSans-43" d="M 2170 -77 
C 2912 -77 3456 314 3738 941 
L 3309 1210 
C 3130 723 2739 403 2170 403 
C 1402 403 947 960 947 1875 
L 947 2541 
C 947 3456 1402 4064 2170 4064 
C 2720 4064 3091 3763 3270 3302 
L 3706 3565 
C 3424 4186 2912 4544 2170 4544 
C 1043 4544 371 3699 371 2208 
C 371 717 1043 -77 2170 -77 
z
" transform="scale(0.015625)"/>
       <path id="IBMPlexSans-49" d="M 2176 0 
L 2176 448 
L 1549 448 
L 1549 4019 
L 2176 4019 
L 2176 4467 
L 384 4467 
L 384 4019 
L 1011 4019 
L 1011 448 
L 384 448 
L 384 0 
L 2176 0 
z
" transform="scale(0.015625)"/>
      </defs>
      <use xlink:href="#STIXNonUnicode-Italic-e235"/>
      <use xlink:href="#IBMPlexSans-20" transform="translate(57.499985 0)"/>
      <use xlink:href="#IBMPlexSans-28" transform="translate(81.099976 0)"/>
      <use xlink:href="#IBMPlexSans-39" transform="translate(114.59996 0)"/>
      <use xlink:href="#IBMPlexSans-35" transform="translate(174.599945 0)"/>
      <use xlink:href="#IBMPlexSans-25" transform="translate(234.59993 0)"/>
      <use xlink:href="#IBMPlexSans-20" transform="translate(327.299911 0)"/>
      <use xlink:href="#IBMPlexSans-43" transform="translate(350.899902 0)"/>
      <use xlink:href="#IBMPlexSans-49" transform="translate(412.999893 0)"/>
      <use xlink:href="#IBMPlexSans-29" transform="translate(452.999878 0)"/>
     </g>
    </g>
   </g>
   <g id="line2d_42">
    <path d="M 325.83588 63.085549 
L 329.254351 63.000279 
L 332.672821 63.152615 
L 336.091292 63.520994 
L 339.509762 64.08405 
L 342.928233 64.789375 
L 346.346703 65.599913 
L 349.765173 66.456147 
L 353.183644 67.315458 
L 356.602114 68.105425 
L 360.020585 68.783062 
L 363.439055 69.328778 
L 366.857526 69.750855 
L 373.694467 70.191173 
L 397.62376 79.117247 
L 401.042231 78.75504 
L 404.460701 78.495995 
L 407.879172 78.373806 
L 411.297642 78.459401 
L 414.716112 78.81744 
L 418.134583 79.567631 
L 421.553053 80.816415 
L 424.971524 82.36122 
L 428.389994 83.77656 
L 431.808465 84.880367 
L 435.226935 85.645258 
L 438.645406 86.031557 
L 442.063876 86.289871 
L 445.482347 86.395238 
L 448.900817 86.367829 
L 452.319288 86.195048 
L 455.737758 85.95074 
L 459.156229 85.570109 
L 462.574699 85.032253 
L 465.99317 84.432184 
L 469.41164 83.747797 
L 472.830111 82.969743 
L 476.248581 82.202713 
L 479.667051 81.501069 
L 483.085522 80.907037 
L 486.503992 80.376643 
L 489.922463 79.998962 
L 493.340933 79.728057 
L 496.759404 79.551163 
L 500.177874 79.410311 
L 503.596345 79.337156 
L 507.014815 79.321968 
L 510.433286 79.382238 
L 513.851756 79.45539 
L 517.270227 79.492887 
L 520.688697 79.533426 
L 524.107168 79.515663 
L 527.525638 79.435101 
L 530.944109 79.292266 
" clip-path="url(#pac774d61e1)" style="fill: none; stroke: #d62728; stroke-width: 1.5; stroke-linecap: square"/>
   </g>
   <g id="patch_6">
    <path d="M 315.580469 128.12452 
L 315.580469 7.2 
" style="fill: none; stroke: #000000; stroke-width: 0.8; stroke-linejoin: miter; stroke-linecap: square"/>
   </g>
   <g id="patch_7">
    <path d="M 315.580469 128.12452 
L 541.19952 128.12452 
" style="fill: none; stroke: #000000; stroke-width: 0.8; stroke-linejoin: miter; stroke-linecap: square"/>
   </g>
  </g>
  <g id="axes_3">
   <g id="patch_8">
    <path d="M 42.640625 275.14952 
L 268.259676 275.14952 
L 268.259676 154.225 
L 42.640625 154.225 
z
" style="fill: #ffffff"/>
   </g>
   <g id="matplotlib.axis_5">
    <g id="xtick_33">
     <g id="line2d_43">
      <g>
       <use xlink:href="#me47c8e8382" x="71.554831" y="275.14952" style="stroke: #000000; stroke-width: 0.8"/>
      </g>
     </g>
     <g id="text_15">
      <!-- $\mathdefault{10^{-3}}$ -->
      <g transform="translate(61.154831 289.54952) scale(0.1 -0.1)">
       <use xlink:href="#IBMPlexSans-31" transform="translate(0 0.184375)"/>
       <use xlink:href="#IBMPlexSans-30" transform="translate(59.999985 0.184375)"/>
       <use xlink:href="#IBMPlexSans-2212" transform="translate(120.90286 36.3) scale(0.7)"/>
       <use xlink:href="#IBMPlexSans-33" transform="translate(162.902849 36.3) scale(0.7)"/>
      </g>
     </g>
    </g>
    <g id="xtick_34">
     <g id="line2d_44">
      <g>
       <use xlink:href="#me47c8e8382" x="197.495937" y="275.14952" style="stroke: #000000; stroke-width: 0.8"/>
      </g>
     </g>
     <g id="text_16">
      <!-- $\mathdefault{10^{-2}}$ -->
      <g transform="translate(187.095937 289.54952) scale(0.1 -0.1)">
       <use xlink:href="#IBMPlexSans-31" transform="translate(0 0.184375)"/>
       <use xlink:href="#IBMPlexSans-30" transform="translate(59.999985 0.184375)"/>
       <use xlink:href="#IBMPlexSans-2212" transform="translate(120.90286 36.3) scale(0.7)"/>
       <use xlink:href="#IBMPlexSans-32" transform="translate(162.902849 36.3) scale(0.7)"/>
      </g>
     </g>
    </g>
    <g id="xtick_35">
     <g id="line2d_45">
      <g>
       <use xlink:href="#m502254b738" x="43.614954" y="275.14952" style="stroke: #000000; stroke-width: 0.6"/>
      </g>
     </g>
    </g>
    <g id="xtick_36">
     <g id="line2d_46">
      <g>
       <use xlink:href="#m502254b738" x="52.046306" y="275.14952" style="stroke: #000000; stroke-width: 0.6"/>
      </g>
     </g>
    </g>
    <g id="xtick_37">
     <g id="line2d_47">
      <g>
       <use xlink:href="#m502254b738" x="59.349876" y="275.14952" style="stroke: #000000; stroke-width: 0.6"/>
      </g>
     </g>
    </g>
    <g id="xtick_38">
     <g id="line2d_48">
      <g>
       <use xlink:href="#m502254b738" x="65.792082" y="275.14952" style="stroke: #000000; stroke-width: 0.6"/>
      </g>
     </g>
    </g>
    <g id="xtick_39">
     <g id="line2d_49">
      <g>
       <use xlink:href="#m502254b738" x="109.466881" y="275.14952" style="stroke: #000000; stroke-width: 0.6"/>
      </g>
     </g>
    </g>
    <g id="xtick_40">
     <g id="line2d_50">
      <g>
       <use xlink:href="#m502254b738" x="131.644009" y="275.14952" style="stroke: #000000; stroke-width: 0.6"/>
      </g>
     </g>
    </g>
    <g id="xtick_41">
     <g id="line2d_51">
      <g>
       <use xlink:href="#m502254b738" x="147.378932" y="275.14952" style="stroke: #000000; stroke-width: 0.6"/>
      </g>
     </g>
    </g>
    <g id="xtick_42">
     <g id="line2d_52">
      <g>
       <use xlink:href="#m502254b738" x="159.583886" y="275.14952" style="stroke: #000000; stroke-width: 0.6"/>
      </g>
     </g>
    </g>
    <g id="xtick_43">
     <g id="line2d_53">
      <g>
       <use xlink:href="#m502254b738" x="169.55606" y="275.14952" style="stroke: #000000; stroke-width: 0.6"/>
      </g>
     </g>
    </g>
    <g id="xtick_44">
     <g id="line2d_54">
      <g>
       <use xlink:href="#m502254b738" x="177.987413" y="275.14952" style="stroke: #000000; stroke-width: 0.6"/>
      </g>
     </g>
    </g>
    <g id="xtick_45">
     <g id="line2d_55">
      <g>
       <use xlink:href="#m502254b738" x="185.290983" y="275.14952" style="stroke: #000000; stroke-width: 0.6"/>
      </g>
     </g>
    </g>
    <g id="xtick_46">
     <g id="line2d_56">
      <g>
       <use xlink:href="#m502254b738" x="191.733188" y="275.14952" style="stroke: #000000; stroke-width: 0.6"/>
      </g>
     </g>
    </g>
    <g id="xtick_47">
     <g id="line2d_57">
      <g>
       <use xlink:href="#m502254b738" x="235.407988" y="275.14952" style="stroke: #000000; stroke-width: 0.6"/>
      </g>
     </g>
    </g>
    <g id="xtick_48">
     <g id="line2d_58">
      <g>
       <use xlink:href="#m502254b738" x="257.585116" y="275.14952" style="stroke: #000000; stroke-width: 0.6"/>
      </g>
     </g>
    </g>
    <g id="text_17">
     <!-- Cutoff frequency -->
     <g transform="translate(117.994682 302.94952) scale(0.1 -0.1)">
      <defs>
       <path id="IBMPlexSans-75" d="M 2579 0 
L 3091 0 
L 3091 3302 
L 2579 3302 
L 2579 1018 
C 2579 582 2182 384 1779 384 
C 1286 384 1024 685 1024 1274 
L 1024 3302 
L 512 3302 
L 512 1184 
C 512 384 947 -77 1626 -77 
C 2176 -77 2426 224 2554 538 
L 2579 538 
L 2579 0 
z
" transform="scale(0.015625)"/>
       <path id="IBMPlexSans-6f" d="M 1792 -77 
C 2675 -77 3283 602 3283 1651 
C 3283 2701 2675 3379 1792 3379 
C 909 3379 301 2701 301 1651 
C 301 602 909 -77 1792 -77 
z
M 1792 378 
C 1242 378 851 717 851 1414 
L 851 1888 
C 851 2586 1242 2925 1792 2925 
C 2342 2925 2733 2586 2733 1888 
L 2733 1414 
C 2733 717 2342 378 1792 378 
z
" transform="scale(0.015625)"/>
       <path id="IBMPlexSans-66" d="M 723 0 
L 1235 0 
L 1235 2854 
L 1946 2854 
L 1946 3302 
L 1235 3302 
L 1235 4288 
L 1946 4288 
L 1946 4736 
L 1446 4736 
C 960 4736 723 4422 723 3968 
L 723 3302 
L 186 3302 
L 186 2854 
L 723 2854 
L 723 0 
z
" transform="scale(0.015625)"/>
       <path id="IBMPlexSans-72" d="M 1056 0 
L 1056 2240 
C 1056 2554 1389 2790 1939 2790 
L 2240 2790 
L 2240 3302 
L 2042 3302 
C 1504 3302 1203 3008 1088 2694 
L 1056 2694 
L 1056 3302 
L 544 3302 
L 544 0 
L 1056 0 
z
" transform="scale(0.015625)"/>
       <path id="IBMPlexSans-71" d="M 2656 -1280 
L 3168 -1280 
L 3168 3302 
L 2656 3302 
L 2656 2765 
L 2630 2765 
C 2458 3181 2118 3379 1664 3379 
C 838 3379 320 2707 320 1651 
C 320 595 838 -77 1664 -77 
C 2118 -77 2432 128 2630 538 
L 2656 538 
L 2656 -1280 
z
M 1805 384 
C 1229 384 870 781 870 1370 
L 870 1933 
C 870 2522 1229 2918 1805 2918 
C 2272 2918 2656 2650 2656 2285 
L 2656 1056 
C 2656 627 2272 384 1805 384 
z
" transform="scale(0.015625)"/>
       <path id="IBMPlexSans-6e" d="M 1056 0 
L 1056 2291 
C 1056 2714 1453 2918 1862 2918 
C 2355 2918 2611 2618 2611 2029 
L 2611 0 
L 3123 0 
L 3123 2118 
C 3123 2918 2694 3379 2016 3379 
C 1523 3379 1242 3136 1082 2765 
L 1056 2765 
L 1056 3302 
L 544 3302 
L 544 0 
L 1056 0 
z
" transform="scale(0.015625)"/>
       <path id="IBMPlexSans-79" d="M 1779 1056 
L 1600 518 
L 1568 518 
L 1414 1056 
L 621 3302 
L 109 3302 
L 1344 -128 
L 1094 -832 
L 576 -832 
L 576 -1280 
L 838 -1280 
C 1325 -1280 1459 -1165 1606 -768 
L 3085 3302 
L 2579 3302 
L 1779 1056 
z
" transform="scale(0.015625)"/>
      </defs>
      <use xlink:href="#IBMPlexSans-43"/>
      <use xlink:href="#IBMPlexSans-75" transform="translate(62.099991 0)"/>
      <use xlink:href="#IBMPlexSans-74" transform="translate(118.899979 0)"/>
      <use xlink:href="#IBMPlexSans-6f" transform="translate(153.999969 0)"/>
      <use xlink:href="#IBMPlexSans-66" transform="translate(209.999954 0)"/>
      <use xlink:href="#IBMPlexSans-66" transform="translate(242.399948 0)"/>
      <use xlink:href="#IBMPlexSans-20" transform="translate(274.799942 0)"/>
      <use xlink:href="#IBMPlexSans-66" transform="translate(298.399933 0)"/>
      <use xlink:href="#IBMPlexSans-72" transform="translate(330.799927 0)"/>
      <use xlink:href="#IBMPlexSans-65" transform="translate(367.499924 0)"/>
      <use xlink:href="#IBMPlexSans-71" transform="translate(422.399918 0)"/>
      <use xlink:href="#IBMPlexSans-75" transform="translate(480.399902 0)"/>
      <use xlink:href="#IBMPlexSans-65" transform="translate(537.19989 0)"/>
      <use xlink:href="#IBMPlexSans-6e" transform="translate(592.099884 0)"/>
      <use xlink:href="#IBMPlexSans-63" transform="translate(648.899872 0)"/>
      <use xlink:href="#IBMPlexSans-79" transform="translate(699.19986 0)"/>
     </g>
    </g>
   </g>
   <g id="matplotlib.axis_6">
    <g id="ytick_9">
     <g id="line2d_59">
      <g>
       <use xlink:href="#m0ba8dfbb5d" x="42.640625" y="270.498577" style="stroke: #000000; stroke-width: 0.8"/>
      </g>
     </g>
     <g id="text_18">
      <!-- −1 -->
      <g transform="translate(23.640625 274.198577) scale(0.1 -0.1)">
       <use xlink:href="#IBMPlexSans-2212"/>
       <use xlink:href="#IBMPlexSans-31" transform="translate(59.999985 0)"/>
      </g>
     </g>
    </g>
    <g id="ytick_10">
     <g id="line2d_60">
      <g>
       <use xlink:href="#m0ba8dfbb5d" x="42.640625" y="247.243862" style="stroke: #000000; stroke-width: 0.8"/>
      </g>
     </g>
     <g id="text_19">
      <!-- 0 -->
      <g transform="translate(29.640625 250.943862) scale(0.1 -0.1)">
       <use xlink:href="#IBMPlexSans-30"/>
      </g>
     </g>
    </g>
    <g id="ytick_11">
     <g id="line2d_61">
      <g>
       <use xlink:href="#m0ba8dfbb5d" x="42.640625" y="223.989146" style="stroke: #000000; stroke-width: 0.8"/>
      </g>
     </g>
     <g id="text_20">
      <!-- 1 -->
      <g transform="translate(29.640625 227.689146) scale(0.1 -0.1)">
       <use xlink:href="#IBMPlexSans-31"/>
      </g>
     </g>
    </g>
    <g id="ytick_12">
     <g id="line2d_62">
      <g>
       <use xlink:href="#m0ba8dfbb5d" x="42.640625" y="200.734431" style="stroke: #000000; stroke-width: 0.8"/>
      </g>
     </g>
     <g id="text_21">
      <!-- 2 -->
      <g transform="translate(29.640625 204.434431) scale(0.1 -0.1)">
       <use xlink:href="#IBMPlexSans-32"/>
      </g>
     </g>
    </g>
    <g id="ytick_13">
     <g id="line2d_63">
      <g>
       <use xlink:href="#m0ba8dfbb5d" x="42.640625" y="177.479715" style="stroke: #000000; stroke-width: 0.8"/>
      </g>
     </g>
     <g id="text_22">
      <!-- 3 -->
      <g transform="translate(29.640625 181.179715) scale(0.1 -0.1)">
       <use xlink:href="#IBMPlexSans-33"/>
      </g>
     </g>
    </g>
    <g id="ytick_14">
     <g id="line2d_64">
      <g>
       <use xlink:href="#m0ba8dfbb5d" x="42.640625" y="154.225" style="stroke: #000000; stroke-width: 0.8"/>
      </g>
     </g>
     <g id="text_23">
      <!-- 4 -->
      <g transform="translate(29.640625 157.925) scale(0.1 -0.1)">
       <defs>
        <path id="IBMPlexSans-34" d="M 2912 0 
L 2912 877 
L 3558 877 
L 3558 1325 
L 2912 1325 
L 2912 4467 
L 2112 4467 
L 243 1350 
L 243 877 
L 2400 877 
L 2400 0 
L 2912 0 
z
M 2368 4051 
L 2400 4051 
L 2400 1325 
L 749 1325 
L 2368 4051 
z
" transform="scale(0.015625)"/>
       </defs>
       <use xlink:href="#IBMPlexSans-34"/>
      </g>
     </g>
    </g>
    <g id="text_24">
     <!-- Z-score -->
     <g transform="translate(17.640625 231.913041) rotate(-90) scale(0.1 -0.1)">
      <defs>
       <path id="IBMPlexSans-5a" d="M 3482 474 
L 806 474 
L 3392 3981 
L 3392 4467 
L 365 4467 
L 365 3994 
L 2810 3994 
L 230 486 
L 230 0 
L 3482 0 
L 3482 474 
z
" transform="scale(0.015625)"/>
       <path id="IBMPlexSans-2d" d="M 2112 1670 
L 2112 2221 
L 442 2221 
L 442 1670 
L 2112 1670 
z
" transform="scale(0.015625)"/>
       <path id="IBMPlexSans-73" d="M 1536 -77 
C 2291 -77 2758 314 2758 954 
C 2758 1453 2477 1773 1747 1882 
L 1491 1920 
C 1082 1984 858 2112 858 2432 
C 858 2746 1082 2944 1504 2944 
C 1926 2944 2208 2746 2355 2541 
L 2694 2848 
C 2426 3181 2074 3379 1542 3379 
C 870 3379 365 3059 365 2406 
C 365 1792 819 1542 1427 1453 
L 1690 1414 
C 2125 1350 2266 1152 2266 896 
C 2266 557 2010 358 1574 358 
C 1158 358 851 544 595 864 
L 230 570 
C 525 179 928 -77 1536 -77 
z
" transform="scale(0.015625)"/>
      </defs>
      <use xlink:href="#IBMPlexSans-5a"/>
      <use xlink:href="#IBMPlexSans-2d" transform="translate(57.999985 0)"/>
      <use xlink:href="#IBMPlexSans-73" transform="translate(97.899979 0)"/>
      <use xlink:href="#IBMPlexSans-63" transform="translate(146.599976 0)"/>
      <use xlink:href="#IBMPlexSans-6f" transform="translate(196.899963 0)"/>
      <use xlink:href="#IBMPlexSans-72" transform="translate(252.899948 0)"/>
      <use xlink:href="#IBMPlexSans-65" transform="translate(289.599945 0)"/>
     </g>
    </g>
   </g>
   <g id="line2d_65">
    <path d="M 52.896036 267.601748 
L 56.314507 267.754149 
L 59.732977 267.640682 
L 63.151448 267.204703 
L 66.569918 266.392492 
L 69.988389 265.271984 
L 73.406859 263.924098 
L 76.82533 262.421353 
L 80.2438 260.937519 
L 83.662271 259.613586 
L 87.080741 258.545757 
L 90.499212 257.712739 
L 93.917682 257.056511 
L 100.754623 255.610845 
L 124.683916 249.159439 
L 128.102387 249.090739 
L 131.520857 249.485253 
L 134.939328 250.184167 
L 138.357798 250.95346 
L 141.776269 251.645563 
L 145.194739 252.088039 
L 148.61321 252.147572 
L 152.03168 251.804426 
L 155.450151 251.126039 
L 158.868621 250.265181 
L 162.287092 249.416113 
L 165.705562 248.790886 
L 169.124033 248.475713 
L 172.542503 248.406634 
L 175.960973 248.366069 
L 179.379444 248.078117 
L 182.797914 247.369926 
L 186.216385 246.23674 
L 189.634855 244.750314 
L 193.053326 243.057641 
L 196.471796 241.065333 
L 199.890267 238.707352 
L 203.308737 236.085712 
L 206.727208 233.454995 
L 210.145678 231.204225 
L 213.564149 229.644214 
L 216.982619 228.91485 
L 220.40109 228.911609 
L 223.81956 229.41659 
L 227.238031 230.126078 
L 230.656501 230.829734 
L 234.074972 231.375853 
L 237.493442 231.752137 
L 240.911912 231.961867 
L 244.330383 232.131005 
L 247.748853 232.503334 
L 251.167324 233.248119 
L 254.585794 234.547624 
L 258.004265 236.434998 
" clip-path="url(#p9234e6c5ab)" style="fill: none; stroke: #1f77b4; stroke-width: 1.5; stroke-linecap: square"/>
   </g>
   <g id="line2d_66">
    <path d="M 52.896036 234.944694 
L 56.314507 234.232834 
L 59.732977 232.313843 
L 63.151448 229.519365 
L 66.569918 226.207221 
L 69.988389 223.019693 
L 73.406859 220.31582 
L 76.82533 218.256206 
L 80.2438 216.614484 
L 83.662271 215.272275 
L 87.080741 213.97287 
L 90.499212 212.389931 
L 93.917682 210.44028 
L 100.754623 204.668704 
L 124.683916 244.539237 
L 128.102387 242.613572 
L 131.520857 240.892892 
L 134.939328 238.70675 
L 138.357798 236.926459 
L 141.776269 235.613789 
L 145.194739 238.177293 
L 148.61321 244.039439 
L 152.03168 250.704971 
L 155.450151 253.809438 
L 158.868621 253.727921 
L 162.287092 253.149032 
L 165.705562 253.489239 
L 169.124033 254.466371 
L 172.542503 255.780466 
L 175.960973 255.740221 
L 179.379444 255.052032 
L 182.797914 254.346568 
L 186.216385 252.363034 
L 189.634855 250.150683 
L 193.053326 247.757955 
L 196.471796 246.596746 
L 199.890267 246.073032 
L 203.308737 246.060791 
L 206.727208 245.837355 
L 210.145678 245.156467 
L 213.564149 244.342598 
L 216.982619 244.145718 
L 220.40109 244.563981 
L 223.81956 245.565676 
L 227.238031 246.854997 
L 230.656501 247.895588 
L 234.074972 248.207825 
L 237.493442 247.953557 
L 240.911912 247.544851 
L 244.330383 247.407193 
L 247.748853 247.322151 
L 251.167324 248.335826 
L 254.585794 251.115239 
L 258.004265 256.865109 
" clip-path="url(#p9234e6c5ab)" style="fill: none; stroke: #2ca02c; stroke-width: 1.5; stroke-linecap: square"/>
   </g>
   <g id="line2d_67">
    <path d="M 42.640625 247.243862 
L 268.259676 247.243862 
" clip-path="url(#p9234e6c5ab)" style="fill: none; stroke-dasharray: 5.55,2.4; stroke-dashoffset: 0; stroke: #000000; stroke-width: 1.5"/>
   </g>
   <g id="line2d_68">
    <path d="M 42.640625 200.734431 
L 268.259676 200.734431 
" clip-path="url(#p9234e6c5ab)" style="fill: none; stroke-dasharray: 5.55,2.4; stroke-dashoffset: 0; stroke: #000000; stroke-width: 1.5"/>
   </g>
   <g id="patch_9">
    <path d="M 42.640625 275.14952 
L 42.640625 154.225 
" style="fill: none; stroke: #000000; stroke-width: 0.8; stroke-linejoin: miter; stroke-linecap: square"/>
   </g>
   <g id="patch_10">
    <path d="M 42.640625 275.14952 
L 268.259676 275.14952 
" style="fill: none; stroke: #000000; stroke-width: 0.8; stroke-linejoin: miter; stroke-linecap: square"/>
   </g>
   <g id="legend_1">
    <g id="patch_11">
     <path d="M 190.429989 191.025 
L 261.259676 191.025 
Q 263.259676 191.025 263.259676 189.025 
L 263.259676 161.225 
Q 263.259676 159.225 261.259676 159.225 
L 190.429989 159.225 
Q 188.429989 159.225 188.429989 161.225 
L 188.429989 189.025 
Q 188.429989 191.025 190.429989 191.025 
z
" style="fill: #ffffff; opacity: 0.8; stroke: #cccccc; stroke-linejoin: miter"/>
    </g>
    <g id="line2d_69">
     <path d="M 192.429989 167.125 
L 202.429989 167.125 
L 212.429989 167.125 
" style="fill: none; stroke: #1f77b4; stroke-width: 1.5; stroke-linecap: square"/>
    </g>
    <g id="text_25">
     <!-- Cost -->
     <g transform="translate(220.429989 170.625) scale(0.1 -0.1)">
      <use xlink:href="#IBMPlexSans-43"/>
      <use xlink:href="#IBMPlexSans-6f" transform="translate(62.099991 0)"/>
      <use xlink:href="#IBMPlexSans-73" transform="translate(118.099976 0)"/>
      <use xlink:href="#IBMPlexSans-74" transform="translate(166.799973 0)"/>
     </g>
    </g>
    <g id="line2d_70">
     <path d="M 192.429989 181.525 
L 202.429989 181.525 
L 212.429989 181.525 
" style="fill: none; stroke: #2ca02c; stroke-width: 1.5; stroke-linecap: square"/>
    </g>
    <g id="text_26">
     <!-- Criterion -->
     <g transform="translate(220.429989 185.025) scale(0.1 -0.1)">
      <use xlink:href="#IBMPlexSans-43"/>
      <use xlink:href="#IBMPlexSans-72" transform="translate(62.099991 0)"/>
      <use xlink:href="#IBMPlexSans-69" transform="translate(98.799988 0)"/>
      <use xlink:href="#IBMPlexSans-74" transform="translate(123.799973 0)"/>
      <use xlink:href="#IBMPlexSans-65" transform="translate(158.899963 0)"/>
      <use xlink:href="#IBMPlexSans-72" transform="translate(213.799957 0)"/>
      <use xlink:href="#IBMPlexSans-69" transform="translate(250.499954 0)"/>
      <use xlink:href="#IBMPlexSans-6f" transform="translate(275.499939 0)"/>
      <use xlink:href="#IBMPlexSans-6e" transform="translate(331.499924 0)"/>
     </g>
    </g>
   </g>
  </g>
  <g id="axes_4">
   <g id="patch_12">
    <path d="M 315.580469 275.14952 
L 541.19952 275.14952 
L 541.19952 154.225 
L 315.580469 154.225 
z
" style="fill: #ffffff"/>
   </g>
   <g id="PathCollection_2">
    <defs>
     <path id="C1_0_d04b7e8eec" d="M 0 2.738613 
C 0.726289 2.738613 1.422928 2.450055 1.936492 1.936492 
C 2.450055 1.422928 2.738613 0.726289 2.738613 -0 
C 2.738613 -0.726289 2.450055 -1.422928 1.936492 -1.936492 
C 1.422928 -2.450055 0.726289 -2.738613 0 -2.738613 
C -0.726289 -2.738613 -1.422928 -2.450055 -1.936492 -1.936492 
C -2.450055 -1.422928 -2.738613 -0.726289 -2.738613 0 
C -2.738613 0.726289 -2.450055 1.422928 -1.936492 1.936492 
C -1.422928 2.450055 -0.726289 2.738613 0 2.738613 
z
"/>
    </defs>
    <g clip-path="url(#pe62eca26f3)">
     <use xlink:href="#C1_0_d04b7e8eec" x="486.503992" y="200.580002" style="fill: #fefefe"/>
    </g>
    <g clip-path="url(#pe62eca26f3)">
     <use xlink:href="#C1_0_d04b7e8eec" x="489.922463" y="200.25344" style="fill: #fdfdfd"/>
    </g>
    <g clip-path="url(#pe62eca26f3)">
     <use xlink:href="#C1_0_d04b7e8eec" x="493.340933" y="199.941185" style="fill: #fcfcfc"/>
    </g>
    <g clip-path="url(#pe62eca26f3)">
     <use xlink:href="#C1_0_d04b7e8eec" x="496.759404" y="199.653887" style="fill: #fafafa"/>
    </g>
    <g clip-path="url(#pe62eca26f3)">
     <use xlink:href="#C1_0_d04b7e8eec" x="500.177874" y="199.386021" style="fill: #f8f8f8"/>
    </g>
    <g clip-path="url(#pe62eca26f3)">
     <use xlink:href="#C1_0_d04b7e8eec" x="503.596345" y="199.150593" style="fill: #f5f5f5"/>
    </g>
    <g clip-path="url(#pe62eca26f3)">
     <use xlink:href="#C1_0_d04b7e8eec" x="507.014815" y="198.943837" style="fill: #f1f1f1"/>
    </g>
    <g clip-path="url(#pe62eca26f3)">
     <use xlink:href="#C1_0_d04b7e8eec" x="510.433286" y="198.770714" style="fill: #eaeaea"/>
    </g>
    <g clip-path="url(#pe62eca26f3)">
     <use xlink:href="#C1_0_d04b7e8eec" x="513.851756" y="198.626366" style="fill: #e2e2e2"/>
    </g>
    <g clip-path="url(#pe62eca26f3)">
     <use xlink:href="#C1_0_d04b7e8eec" x="517.270227" y="198.513333" style="fill: #d8d8d8"/>
    </g>
    <g clip-path="url(#pe62eca26f3)">
     <use xlink:href="#C1_0_d04b7e8eec" x="520.688697" y="198.451288" style="fill: #c9c9c9"/>
    </g>
    <g clip-path="url(#pe62eca26f3)">
     <use xlink:href="#C1_0_d04b7e8eec" x="524.107168" y="198.438077" style="fill: #aeaeae"/>
    </g>
    <g clip-path="url(#pe62eca26f3)">
     <use xlink:href="#C1_0_d04b7e8eec" x="527.525638" y="198.474935" style="fill: #787878"/>
    </g>
    <g clip-path="url(#pe62eca26f3)">
     <use xlink:href="#C1_0_d04b7e8eec" x="530.944109" y="198.56147"/>
    </g>
   </g>
   <g id="PathCollection_3">
    <defs>
     <path id="C2_0_ea96a428c9" d="M 0 2.738613 
C 0.726289 2.738613 1.422928 2.450055 1.936492 1.936492 
C 2.450055 1.422928 2.738613 0.726289 2.738613 -0 
C 2.738613 -0.726289 2.450055 -1.422928 1.936492 -1.936492 
C 1.422928 -2.450055 0.726289 -2.738613 0 -2.738613 
C -0.726289 -2.738613 -1.422928 -2.450055 -1.936492 -1.936492 
C -2.450055 -1.422928 -2.738613 -0.726289 -2.738613 0 
C -2.738613 0.726289 -2.450055 1.422928 -1.936492 1.936492 
C -1.422928 2.450055 -0.726289 2.738613 0 2.738613 
z
"/>
    </defs>
    <g clip-path="url(#pe62eca26f3)">
     <use xlink:href="#C2_0_ea96a428c9" x="486.503992" y="180.377204" style="fill: #fefefe"/>
    </g>
    <g clip-path="url(#pe62eca26f3)">
     <use xlink:href="#C2_0_ea96a428c9" x="489.922463" y="180.451581" style="fill: #fdfdfd"/>
    </g>
    <g clip-path="url(#pe62eca26f3)">
     <use xlink:href="#C2_0_ea96a428c9" x="493.340933" y="180.519407" style="fill: #fcfcfc"/>
    </g>
    <g clip-path="url(#pe62eca26f3)">
     <use xlink:href="#C2_0_ea96a428c9" x="496.759404" y="180.581366" style="fill: #fafafa"/>
    </g>
    <g clip-path="url(#pe62eca26f3)">
     <use xlink:href="#C2_0_ea96a428c9" x="500.177874" y="180.631851" style="fill: #f8f8f8"/>
    </g>
    <g clip-path="url(#pe62eca26f3)">
     <use xlink:href="#C2_0_ea96a428c9" x="503.596345" y="180.673482" style="fill: #f5f5f5"/>
    </g>
    <g clip-path="url(#pe62eca26f3)">
     <use xlink:href="#C2_0_ea96a428c9" x="507.014815" y="180.703591" style="fill: #f1f1f1"/>
    </g>
    <g clip-path="url(#pe62eca26f3)">
     <use xlink:href="#C2_0_ea96a428c9" x="510.433286" y="180.723611" style="fill: #eaeaea"/>
    </g>
    <g clip-path="url(#pe62eca26f3)">
     <use xlink:href="#C2_0_ea96a428c9" x="513.851756" y="180.728245" style="fill: #e2e2e2"/>
    </g>
    <g clip-path="url(#pe62eca26f3)">
     <use xlink:href="#C2_0_ea96a428c9" x="517.270227" y="180.714577" style="fill: #d8d8d8"/>
    </g>
    <g clip-path="url(#pe62eca26f3)">
     <use xlink:href="#C2_0_ea96a428c9" x="520.688697" y="180.691955" style="fill: #c9c9c9"/>
    </g>
    <g clip-path="url(#pe62eca26f3)">
     <use xlink:href="#C2_0_ea96a428c9" x="524.107168" y="180.65758" style="fill: #aeaeae"/>
    </g>
    <g clip-path="url(#pe62eca26f3)">
     <use xlink:href="#C2_0_ea96a428c9" x="527.525638" y="180.613114" style="fill: #787878"/>
    </g>
    <g clip-path="url(#pe62eca26f3)">
     <use xlink:href="#C2_0_ea96a428c9" x="530.944109" y="180.560898"/>
    </g>
   </g>
   <g id="PathCollection_4">
    <defs>
     <path id="C3_0_4c701549be" d="M 0 2.738613 
C 0.726289 2.738613 1.422928 2.450055 1.936492 1.936492 
C 2.450055 1.422928 2.738613 0.726289 2.738613 -0 
C 2.738613 -0.726289 2.450055 -1.422928 1.936492 -1.936492 
C 1.422928 -2.450055 0.726289 -2.738613 0 -2.738613 
C -0.726289 -2.738613 -1.422928 -2.450055 -1.936492 -1.936492 
C -2.450055 -1.422928 -2.738613 -0.726289 -2.738613 0 
C -2.738613 0.726289 -2.450055 1.422928 -1.936492 1.936492 
C -1.422928 2.450055 -0.726289 2.738613 0 2.738613 
z
"/>
    </defs>
    <g clip-path="url(#pe62eca26f3)">
     <use xlink:href="#C3_0_4c701549be" x="486.503992" y="159.731731" style="fill: #fefefe"/>
    </g>
    <g clip-path="url(#pe62eca26f3)">
     <use xlink:href="#C3_0_4c701549be" x="489.922463" y="159.728052" style="fill: #fdfdfd"/>
    </g>
    <g clip-path="url(#pe62eca26f3)">
     <use xlink:href="#C3_0_4c701549be" x="493.340933" y="159.725235" style="fill: #fcfcfc"/>
    </g>
    <g clip-path="url(#pe62eca26f3)">
     <use xlink:href="#C3_0_4c701549be" x="496.759404" y="159.722925" style="fill: #fafafa"/>
    </g>
    <g clip-path="url(#pe62eca26f3)">
     <use xlink:href="#C3_0_4c701549be" x="500.177874" y="159.721931" style="fill: #f8f8f8"/>
    </g>
    <g clip-path="url(#pe62eca26f3)">
     <use xlink:href="#C3_0_4c701549be" x="503.596345" y="159.721569" style="fill: #f5f5f5"/>
    </g>
    <g clip-path="url(#pe62eca26f3)">
     <use xlink:href="#C3_0_4c701549be" x="507.014815" y="159.722214" style="fill: #f1f1f1"/>
    </g>
    <g clip-path="url(#pe62eca26f3)">
     <use xlink:href="#C3_0_4c701549be" x="510.433286" y="159.723515" style="fill: #eaeaea"/>
    </g>
    <g clip-path="url(#pe62eca26f3)">
     <use xlink:href="#C3_0_4c701549be" x="513.851756" y="159.726235" style="fill: #e2e2e2"/>
    </g>
    <g clip-path="url(#pe62eca26f3)">
     <use xlink:href="#C3_0_4c701549be" x="517.270227" y="159.730668" style="fill: #d8d8d8"/>
    </g>
    <g clip-path="url(#pe62eca26f3)">
     <use xlink:href="#C3_0_4c701549be" x="520.688697" y="159.735105" style="fill: #c9c9c9"/>
    </g>
    <g clip-path="url(#pe62eca26f3)">
     <use xlink:href="#C3_0_4c701549be" x="524.107168" y="159.739954" style="fill: #aeaeae"/>
    </g>
    <g clip-path="url(#pe62eca26f3)">
     <use xlink:href="#C3_0_4c701549be" x="527.525638" y="159.744975" style="fill: #787878"/>
    </g>
    <g clip-path="url(#pe62eca26f3)">
     <use xlink:href="#C3_0_4c701549be" x="530.944109" y="159.749896"/>
    </g>
   </g>
   <g id="matplotlib.axis_7">
    <g id="xtick_49">
     <g id="line2d_71">
      <g>
       <use xlink:href="#me47c8e8382" x="344.494674" y="275.14952" style="stroke: #000000; stroke-width: 0.8"/>
      </g>
     </g>
     <g id="text_27">
      <!-- $\mathdefault{10^{-3}}$ -->
      <g transform="translate(334.094674 289.54952) scale(0.1 -0.1)">
       <use xlink:href="#IBMPlexSans-31" transform="translate(0 0.184375)"/>
       <use xlink:href="#IBMPlexSans-30" transform="translate(59.999985 0.184375)"/>
       <use xlink:href="#IBMPlexSans-2212" transform="translate(120.90286 36.3) scale(0.7)"/>
       <use xlink:href="#IBMPlexSans-33" transform="translate(162.902849 36.3) scale(0.7)"/>
      </g>
     </g>
    </g>
    <g id="xtick_50">
     <g id="line2d_72">
      <g>
       <use xlink:href="#me47c8e8382" x="470.435781" y="275.14952" style="stroke: #000000; stroke-width: 0.8"/>
      </g>
     </g>
     <g id="text_28">
      <!-- $\mathdefault{10^{-2}}$ -->
      <g transform="translate(460.035781 289.54952) scale(0.1 -0.1)">
       <use xlink:href="#IBMPlexSans-31" transform="translate(0 0.184375)"/>
       <use xlink:href="#IBMPlexSans-30" transform="translate(59.999985 0.184375)"/>
       <use xlink:href="#IBMPlexSans-2212" transform="translate(120.90286 36.3) scale(0.7)"/>
       <use xlink:href="#IBMPlexSans-32" transform="translate(162.902849 36.3) scale(0.7)"/>
      </g>
     </g>
    </g>
    <g id="xtick_51">
     <g id="line2d_73">
      <g>
       <use xlink:href="#m502254b738" x="316.554797" y="275.14952" style="stroke: #000000; stroke-width: 0.6"/>
      </g>
     </g>
    </g>
    <g id="xtick_52">
     <g id="line2d_74">
      <g>
       <use xlink:href="#m502254b738" x="324.98615" y="275.14952" style="stroke: #000000; stroke-width: 0.6"/>
      </g>
     </g>
    </g>
    <g id="xtick_53">
     <g id="line2d_75">
      <g>
       <use xlink:href="#m502254b738" x="332.28972" y="275.14952" style="stroke: #000000; stroke-width: 0.6"/>
      </g>
     </g>
    </g>
    <g id="xtick_54">
     <g id="line2d_76">
      <g>
       <use xlink:href="#m502254b738" x="338.731925" y="275.14952" style="stroke: #000000; stroke-width: 0.6"/>
      </g>
     </g>
    </g>
    <g id="xtick_55">
     <g id="line2d_77">
      <g>
       <use xlink:href="#m502254b738" x="382.406725" y="275.14952" style="stroke: #000000; stroke-width: 0.6"/>
      </g>
     </g>
    </g>
    <g id="xtick_56">
     <g id="line2d_78">
      <g>
       <use xlink:href="#m502254b738" x="404.583853" y="275.14952" style="stroke: #000000; stroke-width: 0.6"/>
      </g>
     </g>
    </g>
    <g id="xtick_57">
     <g id="line2d_79">
      <g>
       <use xlink:href="#m502254b738" x="420.318776" y="275.14952" style="stroke: #000000; stroke-width: 0.6"/>
      </g>
     </g>
    </g>
    <g id="xtick_58">
     <g id="line2d_80">
      <g>
       <use xlink:href="#m502254b738" x="432.52373" y="275.14952" style="stroke: #000000; stroke-width: 0.6"/>
      </g>
     </g>
    </g>
    <g id="xtick_59">
     <g id="line2d_81">
      <g>
       <use xlink:href="#m502254b738" x="442.495904" y="275.14952" style="stroke: #000000; stroke-width: 0.6"/>
      </g>
     </g>
    </g>
    <g id="xtick_60">
     <g id="line2d_82">
      <g>
       <use xlink:href="#m502254b738" x="450.927257" y="275.14952" style="stroke: #000000; stroke-width: 0.6"/>
      </g>
     </g>
    </g>
    <g id="xtick_61">
     <g id="line2d_83">
      <g>
       <use xlink:href="#m502254b738" x="458.230827" y="275.14952" style="stroke: #000000; stroke-width: 0.6"/>
      </g>
     </g>
    </g>
    <g id="xtick_62">
     <g id="line2d_84">
      <g>
       <use xlink:href="#m502254b738" x="464.673032" y="275.14952" style="stroke: #000000; stroke-width: 0.6"/>
      </g>
     </g>
    </g>
    <g id="xtick_63">
     <g id="line2d_85">
      <g>
       <use xlink:href="#m502254b738" x="508.347832" y="275.14952" style="stroke: #000000; stroke-width: 0.6"/>
      </g>
     </g>
    </g>
    <g id="xtick_64">
     <g id="line2d_86">
      <g>
       <use xlink:href="#m502254b738" x="530.52496" y="275.14952" style="stroke: #000000; stroke-width: 0.6"/>
      </g>
     </g>
    </g>
    <g id="text_29">
     <!-- Cutoff frequency -->
     <g transform="translate(390.934526 302.94952) scale(0.1 -0.1)">
      <use xlink:href="#IBMPlexSans-43"/>
      <use xlink:href="#IBMPlexSans-75" transform="translate(62.099991 0)"/>
      <use xlink:href="#IBMPlexSans-74" transform="translate(118.899979 0)"/>
      <use xlink:href="#IBMPlexSans-6f" transform="translate(153.999969 0)"/>
      <use xlink:href="#IBMPlexSans-66" transform="translate(209.999954 0)"/>
      <use xlink:href="#IBMPlexSans-66" transform="translate(242.399948 0)"/>
      <use xlink:href="#IBMPlexSans-20" transform="translate(274.799942 0)"/>
      <use xlink:href="#IBMPlexSans-66" transform="translate(298.399933 0)"/>
      <use xlink:href="#IBMPlexSans-72" transform="translate(330.799927 0)"/>
      <use xlink:href="#IBMPlexSans-65" transform="translate(367.499924 0)"/>
      <use xlink:href="#IBMPlexSans-71" transform="translate(422.399918 0)"/>
      <use xlink:href="#IBMPlexSans-75" transform="translate(480.399902 0)"/>
      <use xlink:href="#IBMPlexSans-65" transform="translate(537.19989 0)"/>
      <use xlink:href="#IBMPlexSans-6e" transform="translate(592.099884 0)"/>
      <use xlink:href="#IBMPlexSans-63" transform="translate(648.899872 0)"/>
      <use xlink:href="#IBMPlexSans-79" transform="translate(699.19986 0)"/>
     </g>
    </g>
   </g>
   <g id="matplotlib.axis_8">
    <g id="ytick_15">
     <g id="line2d_87">
      <g>
       <use xlink:href="#m0ba8dfbb5d" x="315.580469" y="264.814256" style="stroke: #000000; stroke-width: 0.8"/>
      </g>
     </g>
     <g id="text_30">
      <!-- $\mathdefault{10^{-4}}$ -->
      <g transform="translate(287.780469 268.514256) scale(0.1 -0.1)">
       <use xlink:href="#IBMPlexSans-31" transform="translate(0 0.026563)"/>
       <use xlink:href="#IBMPlexSans-30" transform="translate(59.999985 0.026563)"/>
       <use xlink:href="#IBMPlexSans-2212" transform="translate(120.90286 36.142188) scale(0.7)"/>
       <use xlink:href="#IBMPlexSans-34" transform="translate(162.902849 36.142188) scale(0.7)"/>
      </g>
     </g>
    </g>
    <g id="ytick_16">
     <g id="line2d_88">
      <g>
       <use xlink:href="#m0ba8dfbb5d" x="315.580469" y="241.010604" style="stroke: #000000; stroke-width: 0.8"/>
      </g>
     </g>
     <g id="text_31">
      <!-- $\mathdefault{10^{-3}}$ -->
      <g transform="translate(287.780469 244.710604) scale(0.1 -0.1)">
       <use xlink:href="#IBMPlexSans-31" transform="translate(0 0.184375)"/>
       <use xlink:href="#IBMPlexSans-30" transform="translate(59.999985 0.184375)"/>
       <use xlink:href="#IBMPlexSans-2212" transform="translate(120.90286 36.3) scale(0.7)"/>
       <use xlink:href="#IBMPlexSans-33" transform="translate(162.902849 36.3) scale(0.7)"/>
      </g>
     </g>
    </g>
    <g id="ytick_17">
     <g id="line2d_89">
      <g>
       <use xlink:href="#m0ba8dfbb5d" x="315.580469" y="217.206952" style="stroke: #000000; stroke-width: 0.8"/>
      </g>
     </g>
     <g id="text_32">
      <!-- $\mathdefault{10^{-2}}$ -->
      <g transform="translate(287.780469 220.906952) scale(0.1 -0.1)">
       <use xlink:href="#IBMPlexSans-31" transform="translate(0 0.184375)"/>
       <use xlink:href="#IBMPlexSans-30" transform="translate(59.999985 0.184375)"/>
       <use xlink:href="#IBMPlexSans-2212" transform="translate(120.90286 36.3) scale(0.7)"/>
       <use xlink:href="#IBMPlexSans-32" transform="translate(162.902849 36.3) scale(0.7)"/>
      </g>
     </g>
    </g>
    <g id="ytick_18">
     <g id="line2d_90">
      <g>
       <use xlink:href="#m0ba8dfbb5d" x="315.580469" y="193.4033" style="stroke: #000000; stroke-width: 0.8"/>
      </g>
     </g>
     <g id="text_33">
      <!-- $\mathdefault{10^{-1}}$ -->
      <g transform="translate(287.780469 197.1033) scale(0.1 -0.1)">
       <use xlink:href="#IBMPlexSans-31" transform="translate(0 0.026563)"/>
       <use xlink:href="#IBMPlexSans-30" transform="translate(59.999985 0.026563)"/>
       <use xlink:href="#IBMPlexSans-2212" transform="translate(120.90286 36.142188) scale(0.7)"/>
       <use xlink:href="#IBMPlexSans-31" transform="translate(162.902849 36.142188) scale(0.7)"/>
      </g>
     </g>
    </g>
    <g id="ytick_19">
     <g id="line2d_91">
      <g>
       <use xlink:href="#m0ba8dfbb5d" x="315.580469" y="169.599648" style="stroke: #000000; stroke-width: 0.8"/>
      </g>
     </g>
     <g id="text_34">
      <!-- $\mathdefault{10^{0}}$ -->
      <g transform="translate(291.980469 173.299648) scale(0.1 -0.1)">
       <use xlink:href="#IBMPlexSans-31" transform="translate(0 0.184375)"/>
       <use xlink:href="#IBMPlexSans-30" transform="translate(59.999985 0.184375)"/>
       <use xlink:href="#IBMPlexSans-30" transform="translate(120.90286 36.3) scale(0.7)"/>
      </g>
     </g>
    </g>
    <g id="ytick_20">
     <g id="line2d_92">
      <defs>
       <path id="m7382ca1924" d="M 0 0 
L -2 0 
" style="stroke: #000000; stroke-width: 0.6"/>
      </defs>
      <g>
       <use xlink:href="#m7382ca1924" x="315.580469" y="274.286681" style="stroke: #000000; stroke-width: 0.6"/>
      </g>
     </g>
    </g>
    <g id="ytick_21">
     <g id="line2d_93">
      <g>
       <use xlink:href="#m7382ca1924" x="315.580469" y="271.979869" style="stroke: #000000; stroke-width: 0.6"/>
      </g>
     </g>
    </g>
    <g id="ytick_22">
     <g id="line2d_94">
      <g>
       <use xlink:href="#m7382ca1924" x="315.580469" y="270.095066" style="stroke: #000000; stroke-width: 0.6"/>
      </g>
     </g>
    </g>
    <g id="ytick_23">
     <g id="line2d_95">
      <g>
       <use xlink:href="#m7382ca1924" x="315.580469" y="268.501488" style="stroke: #000000; stroke-width: 0.6"/>
      </g>
     </g>
    </g>
    <g id="ytick_24">
     <g id="line2d_96">
      <g>
       <use xlink:href="#m7382ca1924" x="315.580469" y="267.121068" style="stroke: #000000; stroke-width: 0.6"/>
      </g>
     </g>
    </g>
    <g id="ytick_25">
     <g id="line2d_97">
      <g>
       <use xlink:href="#m7382ca1924" x="315.580469" y="265.903451" style="stroke: #000000; stroke-width: 0.6"/>
      </g>
     </g>
    </g>
    <g id="ytick_26">
     <g id="line2d_98">
      <g>
       <use xlink:href="#m7382ca1924" x="315.580469" y="257.648642" style="stroke: #000000; stroke-width: 0.6"/>
      </g>
     </g>
    </g>
    <g id="ytick_27">
     <g id="line2d_99">
      <g>
       <use xlink:href="#m7382ca1924" x="315.580469" y="253.457027" style="stroke: #000000; stroke-width: 0.6"/>
      </g>
     </g>
    </g>
    <g id="ytick_28">
     <g id="line2d_100">
      <g>
       <use xlink:href="#m7382ca1924" x="315.580469" y="250.483029" style="stroke: #000000; stroke-width: 0.6"/>
      </g>
     </g>
    </g>
    <g id="ytick_29">
     <g id="line2d_101">
      <g>
       <use xlink:href="#m7382ca1924" x="315.580469" y="248.176217" style="stroke: #000000; stroke-width: 0.6"/>
      </g>
     </g>
    </g>
    <g id="ytick_30">
     <g id="line2d_102">
      <g>
       <use xlink:href="#m7382ca1924" x="315.580469" y="246.291414" style="stroke: #000000; stroke-width: 0.6"/>
      </g>
     </g>
    </g>
    <g id="ytick_31">
     <g id="line2d_103">
      <g>
       <use xlink:href="#m7382ca1924" x="315.580469" y="244.697836" style="stroke: #000000; stroke-width: 0.6"/>
      </g>
     </g>
    </g>
    <g id="ytick_32">
     <g id="line2d_104">
      <g>
       <use xlink:href="#m7382ca1924" x="315.580469" y="243.317416" style="stroke: #000000; stroke-width: 0.6"/>
      </g>
     </g>
    </g>
    <g id="ytick_33">
     <g id="line2d_105">
      <g>
       <use xlink:href="#m7382ca1924" x="315.580469" y="242.099799" style="stroke: #000000; stroke-width: 0.6"/>
      </g>
     </g>
    </g>
    <g id="ytick_34">
     <g id="line2d_106">
      <g>
       <use xlink:href="#m7382ca1924" x="315.580469" y="233.84499" style="stroke: #000000; stroke-width: 0.6"/>
      </g>
     </g>
    </g>
    <g id="ytick_35">
     <g id="line2d_107">
      <g>
       <use xlink:href="#m7382ca1924" x="315.580469" y="229.653375" style="stroke: #000000; stroke-width: 0.6"/>
      </g>
     </g>
    </g>
    <g id="ytick_36">
     <g id="line2d_108">
      <g>
       <use xlink:href="#m7382ca1924" x="315.580469" y="226.679377" style="stroke: #000000; stroke-width: 0.6"/>
      </g>
     </g>
    </g>
    <g id="ytick_37">
     <g id="line2d_109">
      <g>
       <use xlink:href="#m7382ca1924" x="315.580469" y="224.372565" style="stroke: #000000; stroke-width: 0.6"/>
      </g>
     </g>
    </g>
    <g id="ytick_38">
     <g id="line2d_110">
      <g>
       <use xlink:href="#m7382ca1924" x="315.580469" y="222.487762" style="stroke: #000000; stroke-width: 0.6"/>
      </g>
     </g>
    </g>
    <g id="ytick_39">
     <g id="line2d_111">
      <g>
       <use xlink:href="#m7382ca1924" x="315.580469" y="220.894184" style="stroke: #000000; stroke-width: 0.6"/>
      </g>
     </g>
    </g>
    <g id="ytick_40">
     <g id="line2d_112">
      <g>
       <use xlink:href="#m7382ca1924" x="315.580469" y="219.513764" style="stroke: #000000; stroke-width: 0.6"/>
      </g>
     </g>
    </g>
    <g id="ytick_41">
     <g id="line2d_113">
      <g>
       <use xlink:href="#m7382ca1924" x="315.580469" y="218.296147" style="stroke: #000000; stroke-width: 0.6"/>
      </g>
     </g>
    </g>
    <g id="ytick_42">
     <g id="line2d_114">
      <g>
       <use xlink:href="#m7382ca1924" x="315.580469" y="210.041339" style="stroke: #000000; stroke-width: 0.6"/>
      </g>
     </g>
    </g>
    <g id="ytick_43">
     <g id="line2d_115">
      <g>
       <use xlink:href="#m7382ca1924" x="315.580469" y="205.849723" style="stroke: #000000; stroke-width: 0.6"/>
      </g>
     </g>
    </g>
    <g id="ytick_44">
     <g id="line2d_116">
      <g>
       <use xlink:href="#m7382ca1924" x="315.580469" y="202.875725" style="stroke: #000000; stroke-width: 0.6"/>
      </g>
     </g>
    </g>
    <g id="ytick_45">
     <g id="line2d_117">
      <g>
       <use xlink:href="#m7382ca1924" x="315.580469" y="200.568913" style="stroke: #000000; stroke-width: 0.6"/>
      </g>
     </g>
    </g>
    <g id="ytick_46">
     <g id="line2d_118">
      <g>
       <use xlink:href="#m7382ca1924" x="315.580469" y="198.68411" style="stroke: #000000; stroke-width: 0.6"/>
      </g>
     </g>
    </g>
    <g id="ytick_47">
     <g id="line2d_119">
      <g>
       <use xlink:href="#m7382ca1924" x="315.580469" y="197.090532" style="stroke: #000000; stroke-width: 0.6"/>
      </g>
     </g>
    </g>
    <g id="ytick_48">
     <g id="line2d_120">
      <g>
       <use xlink:href="#m7382ca1924" x="315.580469" y="195.710112" style="stroke: #000000; stroke-width: 0.6"/>
      </g>
     </g>
    </g>
    <g id="ytick_49">
     <g id="line2d_121">
      <g>
       <use xlink:href="#m7382ca1924" x="315.580469" y="194.492495" style="stroke: #000000; stroke-width: 0.6"/>
      </g>
     </g>
    </g>
    <g id="ytick_50">
     <g id="line2d_122">
      <g>
       <use xlink:href="#m7382ca1924" x="315.580469" y="186.237687" style="stroke: #000000; stroke-width: 0.6"/>
      </g>
     </g>
    </g>
    <g id="ytick_51">
     <g id="line2d_123">
      <g>
       <use xlink:href="#m7382ca1924" x="315.580469" y="182.046072" style="stroke: #000000; stroke-width: 0.6"/>
      </g>
     </g>
    </g>
    <g id="ytick_52">
     <g id="line2d_124">
      <g>
       <use xlink:href="#m7382ca1924" x="315.580469" y="179.072073" style="stroke: #000000; stroke-width: 0.6"/>
      </g>
     </g>
    </g>
    <g id="ytick_53">
     <g id="line2d_125">
      <g>
       <use xlink:href="#m7382ca1924" x="315.580469" y="176.765261" style="stroke: #000000; stroke-width: 0.6"/>
      </g>
     </g>
    </g>
    <g id="ytick_54">
     <g id="line2d_126">
      <g>
       <use xlink:href="#m7382ca1924" x="315.580469" y="174.880458" style="stroke: #000000; stroke-width: 0.6"/>
      </g>
     </g>
    </g>
    <g id="ytick_55">
     <g id="line2d_127">
      <g>
       <use xlink:href="#m7382ca1924" x="315.580469" y="173.28688" style="stroke: #000000; stroke-width: 0.6"/>
      </g>
     </g>
    </g>
    <g id="ytick_56">
     <g id="line2d_128">
      <g>
       <use xlink:href="#m7382ca1924" x="315.580469" y="171.90646" style="stroke: #000000; stroke-width: 0.6"/>
      </g>
     </g>
    </g>
    <g id="ytick_57">
     <g id="line2d_129">
      <g>
       <use xlink:href="#m7382ca1924" x="315.580469" y="170.688843" style="stroke: #000000; stroke-width: 0.6"/>
      </g>
     </g>
    </g>
    <g id="ytick_58">
     <g id="line2d_130">
      <g>
       <use xlink:href="#m7382ca1924" x="315.580469" y="162.434035" style="stroke: #000000; stroke-width: 0.6"/>
      </g>
     </g>
    </g>
    <g id="ytick_59">
     <g id="line2d_131">
      <g>
       <use xlink:href="#m7382ca1924" x="315.580469" y="158.24242" style="stroke: #000000; stroke-width: 0.6"/>
      </g>
     </g>
    </g>
    <g id="ytick_60">
     <g id="line2d_132">
      <g>
       <use xlink:href="#m7382ca1924" x="315.580469" y="155.268422" style="stroke: #000000; stroke-width: 0.6"/>
      </g>
     </g>
    </g>
    <g id="text_35">
     <!-- Hessian Eigenvalues -->
     <g transform="translate(281.660156 260.678666) rotate(-90) scale(0.1 -0.1)">
      <defs>
       <path id="IBMPlexSans-48" d="M 3392 0 
L 3930 0 
L 3930 4467 
L 3392 4467 
L 3392 2496 
L 1133 2496 
L 1133 4467 
L 595 4467 
L 595 0 
L 1133 0 
L 1133 2022 
L 3392 2022 
L 3392 0 
z
" transform="scale(0.015625)"/>
       <path id="IBMPlexSans-61" d="M 3232 0 
L 3232 448 
L 2854 448 
L 2854 2266 
C 2854 2963 2381 3379 1587 3379 
C 992 3379 595 3085 416 2733 
L 723 2445 
C 902 2746 1165 2938 1562 2938 
C 2086 2938 2342 2682 2342 2214 
L 2342 1888 
L 1690 1888 
C 730 1888 282 1542 282 922 
C 282 307 691 -77 1389 -77 
C 1850 -77 2202 134 2342 538 
L 2374 538 
C 2413 230 2566 0 2944 0 
L 3232 0 
z
M 1472 358 
C 1075 358 819 544 819 870 
L 819 1005 
C 819 1325 1082 1504 1664 1504 
L 2342 1504 
L 2342 960 
C 2342 621 1978 358 1472 358 
z
" transform="scale(0.015625)"/>
       <path id="IBMPlexSans-45" d="M 3322 0 
L 3322 474 
L 1133 474 
L 1133 2022 
L 3194 2022 
L 3194 2496 
L 1133 2496 
L 1133 3994 
L 3322 3994 
L 3322 4467 
L 595 4467 
L 595 0 
L 3322 0 
z
" transform="scale(0.015625)"/>
      </defs>
      <use xlink:href="#IBMPlexSans-48"/>
      <use xlink:href="#IBMPlexSans-65" transform="translate(70.699982 0)"/>
      <use xlink:href="#IBMPlexSans-73" transform="translate(125.599976 0)"/>
      <use xlink:href="#IBMPlexSans-73" transform="translate(174.299973 0)"/>
      <use xlink:href="#IBMPlexSans-69" transform="translate(222.999969 0)"/>
      <use xlink:href="#IBMPlexSans-61" transform="translate(247.999954 0)"/>
      <use xlink:href="#IBMPlexSans-6e" transform="translate(301.399948 0)"/>
      <use xlink:href="#IBMPlexSans-20" transform="translate(358.199936 0)"/>
      <use xlink:href="#IBMPlexSans-45" transform="translate(381.799927 0)"/>
      <use xlink:href="#IBMPlexSans-69" transform="translate(440.099915 0)"/>
      <use xlink:href="#IBMPlexSans-67" transform="translate(465.099899 0)"/>
      <use xlink:href="#IBMPlexSans-65" transform="translate(517.899887 0)"/>
      <use xlink:href="#IBMPlexSans-6e" transform="translate(572.799881 0)"/>
      <use xlink:href="#IBMPlexSans-76" transform="translate(629.599869 0)"/>
      <use xlink:href="#IBMPlexSans-61" transform="translate(678.799866 0)"/>
      <use xlink:href="#IBMPlexSans-6c" transform="translate(732.19986 0)"/>
      <use xlink:href="#IBMPlexSans-75" transform="translate(759.399857 0)"/>
      <use xlink:href="#IBMPlexSans-65" transform="translate(816.199844 0)"/>
      <use xlink:href="#IBMPlexSans-73" transform="translate(871.099838 0)"/>
     </g>
    </g>
   </g>
   <g id="line2d_133">
    <path d="M 325.83588 235.534288 
L 329.254351 238.307607 
L 332.672821 241.09729 
L 336.091292 243.918546 
L 339.509762 246.737155 
L 342.928233 249.543419 
L 346.346703 252.317441 
L 349.765173 255.041359 
L 353.183644 257.681409 
L 356.602114 260.177886 
L 360.020585 262.476883 
L 363.439055 264.557217 
L 366.857526 266.434828 
L 373.694467 269.652951 
L 397.62376 235.281035 
L 401.042231 235.740698 
L 404.460701 236.099512 
L 407.879172 236.416503 
L 411.297642 236.651548 
L 414.716112 236.646829 
L 418.134583 236.08866 
L 421.553053 234.447784 
L 424.971524 231.325651 
L 428.389994 227.300069 
L 431.808465 223.342739 
L 435.226935 219.882405 
L 438.645406 217.031951 
L 442.063876 214.568277 
L 445.482347 212.409002 
L 448.900817 210.488751 
L 452.319288 208.822133 
L 455.737758 207.331682 
L 459.156229 205.997115 
L 462.574699 204.860897 
L 465.99317 203.871008 
L 469.41164 203.04406 
L 472.830111 202.355525 
L 476.248581 201.786566 
L 479.667051 201.333721 
L 483.085522 200.938842 
L 486.503992 200.580002 
L 489.922463 200.25344 
L 493.340933 199.941185 
L 496.759404 199.653887 
L 500.177874 199.386021 
L 503.596345 199.150593 
L 507.014815 198.943837 
L 510.433286 198.770714 
L 513.851756 198.626366 
L 517.270227 198.513333 
L 520.688697 198.451288 
L 524.107168 198.438077 
L 527.525638 198.474935 
L 530.944109 198.56147 
" clip-path="url(#pe62eca26f3)" style="fill: none; stroke: #9467bd; stroke-width: 1.5; stroke-linecap: square"/>
   </g>
   <g id="line2d_134">
    <path d="M 325.83588 178.217007 
L 329.254351 178.093291 
L 332.672821 177.854627 
L 336.091292 177.539588 
L 339.509762 177.15714 
L 342.928233 176.743417 
L 346.346703 176.309558 
L 349.765173 175.882731 
L 353.183644 175.470043 
L 356.602114 175.092024 
L 360.020585 174.751086 
L 363.439055 174.449119 
L 366.857526 174.181746 
L 373.694467 173.767224 
L 397.62376 178.376861 
L 401.042231 178.372145 
L 404.460701 178.357663 
L 407.879172 178.340277 
L 411.297642 178.330246 
L 414.716112 178.338104 
L 418.134583 178.383766 
L 421.553053 178.48263 
L 424.971524 178.61081 
L 428.389994 178.7355 
L 431.808465 178.850852 
L 435.226935 178.957239 
L 438.645406 179.054669 
L 442.063876 179.154375 
L 445.482347 179.254203 
L 448.900817 179.355195 
L 452.319288 179.457873 
L 455.737758 179.562177 
L 459.156229 179.663202 
L 462.574699 179.761868 
L 465.99317 179.858899 
L 469.41164 179.954146 
L 472.830111 180.043492 
L 476.248581 180.130139 
L 479.667051 180.217195 
L 483.085522 180.300809 
L 486.503992 180.377204 
L 489.922463 180.451581 
L 493.340933 180.519407 
L 496.759404 180.581366 
L 500.177874 180.631851 
L 503.596345 180.673482 
L 507.014815 180.703591 
L 510.433286 180.723611 
L 513.851756 180.728245 
L 517.270227 180.714577 
L 520.688697 180.691955 
L 524.107168 180.65758 
L 527.525638 180.613114 
L 530.944109 180.560898 
" clip-path="url(#pe62eca26f3)" style="fill: none; stroke: #9467bd; stroke-width: 1.5; stroke-linecap: square"/>
   </g>
   <g id="line2d_135">
    <path d="M 325.83588 159.866673 
L 329.254351 159.886172 
L 332.672821 159.926498 
L 336.091292 159.982159 
L 339.509762 160.052957 
L 342.928233 160.133409 
L 346.346703 160.222222 
L 349.765173 160.314227 
L 353.183644 160.407791 
L 356.602114 160.497681 
L 360.020585 160.582371 
L 363.439055 160.660385 
L 366.857526 160.731921 
L 373.694467 160.847613 
L 397.62376 159.839995 
L 401.042231 159.840476 
L 404.460701 159.842661 
L 407.879172 159.845368 
L 411.297642 159.846905 
L 414.716112 159.845593 
L 418.134583 159.83832 
L 421.553053 159.823082 
L 424.971524 159.804817 
L 428.389994 159.789599 
L 431.808465 159.778285 
L 435.226935 159.77034 
L 438.645406 159.764977 
L 442.063876 159.76055 
L 445.482347 159.757297 
L 448.900817 159.755007 
L 452.319288 159.75303 
L 455.737758 159.75152 
L 459.156229 159.75101 
L 462.574699 159.750403 
L 465.99317 159.749691 
L 469.41164 159.7482 
L 472.830111 159.746405 
L 476.248581 159.743778 
L 479.667051 159.739643 
L 483.085522 159.735357 
L 486.503992 159.731731 
L 489.922463 159.728052 
L 493.340933 159.725235 
L 496.759404 159.722925 
L 500.177874 159.721931 
L 503.596345 159.721569 
L 507.014815 159.722214 
L 510.433286 159.723515 
L 513.851756 159.726235 
L 517.270227 159.730668 
L 520.688697 159.735105 
L 524.107168 159.739954 
L 527.525638 159.744975 
L 530.944109 159.749896 
" clip-path="url(#pe62eca26f3)" style="fill: none; stroke: #9467bd; stroke-width: 1.5; stroke-linecap: square"/>
   </g>
   <g id="patch_13">
    <path d="M 315.580469 275.14952 
L 315.580469 154.225 
" style="fill: none; stroke: #000000; stroke-width: 0.8; stroke-linejoin: miter; stroke-linecap: square"/>
   </g>
   <g id="patch_14">
    <path d="M 315.580469 275.14952 
L 541.19952 275.14952 
" style="fill: none; stroke: #000000; stroke-width: 0.8; stroke-linejoin: miter; stroke-linecap: square"/>
   </g>
  </g>
 </g>
 <defs>
  <clipPath id="p1334bb22ec">
   <rect x="42.640625" y="7.2" width="225.619051" height="120.92452"/>
  </clipPath>
  <clipPath id="pac774d61e1">
   <rect x="315.580469" y="7.2" width="225.619051" height="120.92452"/>
  </clipPath>
  <clipPath id="p9234e6c5ab">
   <rect x="42.640625" y="154.225" width="225.619051" height="120.92452"/>
  </clipPath>
  <clipPath id="pe62eca26f3">
   <rect x="315.580469" y="154.225" width="225.619051" height="120.92452"/>
  </clipPath>
 </defs>
</svg>