<?xml version="1.0" encoding="utf-8" standalone="no"?>
<!DOCTYPE svg PUBLIC "-//W3C//DTD SVG 1.1//EN"
  "http://www.w3.org/Graphics/SVG/1.1/DTD/svg11.dtd">
<svg xmlns:xlink="http://www.w3.org/1999/xlink" width="548.39952pt" height="312.14952pt" viewBox="0 0 548.39952 312.14952" xmlns="http://www.w3.org/2000/svg" version="1.1">
 <metadata>
  <rdf:RDF xmlns:dc="http://purl.org/dc/elements/1.1/" xmlns:cc="http://creativecommons.org/ns#" xmlns:rdf="http://www.w3.org/1999/02/22-rdf-syntax-ns#">
   <cc:Work>
    <dc:type rdf:resource="http://purl.org/dc/dcmitype/StillImage"/>
    <dc:date>2025-06-25T08:39:03.789466</dc:date>
    <dc:format>image/svg+xml</dc:format>
    <dc:creator>
     <cc:Agent>
      <dc:title>Matplotlib v3.10.1, https://matplotlib.org/</dc:title>
     </cc:Agent>
    </dc:creator>
   </cc:Work>
  </rdf:RDF>
 </metadata>
 <defs>
  <style type="text/css">*{stroke-linejoin: round; stroke-linecap: butt}</style>
 </defs>
 <g id="figure_1">
  <g id="patch_1">
   <path d="M 0 312.14952 
L 548.39952 312.14952 
L 548.39952 0 
L 0 0 
z
" style="fill: #ffffff"/>
  </g>
  <g id="axes_1">
   <g id="patch_2">
    <path d="M 45.8 274.94952 
L 541.19952 274.94952 
L 541.19952 22.32 
L 45.8 22.32 
z
" style="fill: #ffffff"/>
   </g>
   <g id="matplotlib.axis_1">
    <g id="xtick_1">
     <g id="line2d_1">
      <defs>
       <path id="m047bcf67bf" d="M 0 0 
L 0 3.5 
" style="stroke: #000000; stroke-width: 0.8"/>
      </defs>
      <g>
       <use xlink:href="#m047bcf67bf" x="68.31816" y="274.94952" style="stroke: #000000; stroke-width: 0.8"/>
      </g>
     </g>
     <g id="text_1">
      <!-- 0 -->
      <g transform="translate(65.31816 289.34952) scale(0.1 -0.1)">
       <defs>
        <path id="IBMPlexSans-30" d="M 1920 -77 
C 2989 -77 3456 774 3456 2234 
C 3456 3693 2989 4544 1920 4544 
C 851 4544 384 3693 384 2234 
C 384 774 851 -77 1920 -77 
z
M 1920 390 
C 1222 390 947 1005 947 1869 
L 947 2598 
C 947 3462 1222 4077 1920 4077 
C 2618 4077 2893 3462 2893 2598 
L 2893 1869 
C 2893 1005 2618 390 1920 390 
z
" transform="scale(0.015625)"/>
       </defs>
       <use xlink:href="#IBMPlexSans-30"/>
      </g>
     </g>
    </g>
    <g id="xtick_2">
     <g id="line2d_2">
      <g>
       <use xlink:href="#m047bcf67bf" x="158.3908" y="274.94952" style="stroke: #000000; stroke-width: 0.8"/>
      </g>
     </g>
     <g id="text_2">
      <!-- 20 -->
      <g transform="translate(152.3908 289.34952) scale(0.1 -0.1)">
       <defs>
        <path id="IBMPlexSans-32" d="M 3411 474 
L 1062 474 
L 2266 1555 
C 2835 2067 3245 2554 3245 3245 
C 3245 4006 2746 4544 1875 4544 
C 1011 4544 614 4019 442 3494 
L 922 3309 
C 1043 3731 1299 4064 1850 4064 
C 2400 4064 2675 3725 2675 3232 
L 2675 3155 
C 2675 2726 2355 2278 1939 1894 
L 480 550 
L 480 0 
L 3411 0 
L 3411 474 
z
" transform="scale(0.015625)"/>
       </defs>
       <use xlink:href="#IBMPlexSans-32"/>
       <use xlink:href="#IBMPlexSans-30" transform="translate(59.999985 0)"/>
      </g>
     </g>
    </g>
    <g id="xtick_3">
     <g id="line2d_3">
      <g>
       <use xlink:href="#m047bcf67bf" x="248.46344" y="274.94952" style="stroke: #000000; stroke-width: 0.8"/>
      </g>
     </g>
     <g id="text_3">
      <!-- 40 -->
      <g transform="translate(242.46344 289.34952) scale(0.1 -0.1)">
       <defs>
        <path id="IBMPlexSans-34" d="M 2912 0 
L 2912 877 
L 3558 877 
L 3558 1325 
L 2912 1325 
L 2912 4467 
L 2112 4467 
L 243 1350 
L 243 877 
L 2400 877 
L 2400 0 
L 2912 0 
z
M 2368 4051 
L 2400 4051 
L 2400 1325 
L 749 1325 
L 2368 4051 
z
" transform="scale(0.015625)"/>
       </defs>
       <use xlink:href="#IBMPlexSans-34"/>
       <use xlink:href="#IBMPlexSans-30" transform="translate(59.999985 0)"/>
      </g>
     </g>
    </g>
    <g id="xtick_4">
     <g id="line2d_4">
      <g>
       <use xlink:href="#m047bcf67bf" x="338.53608" y="274.94952" style="stroke: #000000; stroke-width: 0.8"/>
      </g>
     </g>
     <g id="text_4">
      <!-- 60 -->
      <g transform="translate(332.53608 289.34952) scale(0.1 -0.1)">
       <defs>
        <path id="IBMPlexSans-36" d="M 1926 -77 
C 2822 -77 3411 525 3411 1402 
C 3411 2246 2861 2778 2093 2778 
C 1549 2778 1229 2502 1018 2138 
L 986 2150 
C 1229 3187 1760 3770 2714 4467 
L 2022 4467 
C 1306 4000 429 2963 429 1638 
C 429 576 998 -77 1926 -77 
z
M 1920 390 
C 1331 390 986 730 986 1331 
L 986 1382 
C 986 1984 1331 2323 1920 2323 
C 2509 2323 2854 1984 2854 1382 
L 2854 1331 
C 2854 730 2509 390 1920 390 
z
" transform="scale(0.015625)"/>
       </defs>
       <use xlink:href="#IBMPlexSans-36"/>
       <use xlink:href="#IBMPlexSans-30" transform="translate(59.999985 0)"/>
      </g>
     </g>
    </g>
    <g id="xtick_5">
     <g id="line2d_5">
      <g>
       <use xlink:href="#m047bcf67bf" x="428.60872" y="274.94952" style="stroke: #000000; stroke-width: 0.8"/>
      </g>
     </g>
     <g id="text_5">
      <!-- 80 -->
      <g transform="translate(422.60872 289.34952) scale(0.1 -0.1)">
       <defs>
        <path id="IBMPlexSans-38" d="M 1920 -77 
C 2938 -77 3469 480 3469 1216 
C 3469 1824 3104 2176 2566 2323 
L 2566 2374 
C 3034 2534 3334 2912 3334 3424 
C 3334 4102 2810 4544 1920 4544 
C 1030 4544 506 4102 506 3424 
C 506 2912 806 2534 1274 2374 
L 1274 2323 
C 736 2176 371 1824 371 1216 
C 371 480 902 -77 1920 -77 
z
M 1920 390 
C 1299 390 941 685 941 1190 
L 941 1325 
C 941 1830 1299 2125 1920 2125 
C 2541 2125 2899 1830 2899 1325 
L 2899 1190 
C 2899 685 2541 390 1920 390 
z
M 1920 2573 
C 1363 2573 1062 2822 1062 3277 
L 1062 3373 
C 1062 3827 1363 4077 1920 4077 
C 2477 4077 2778 3827 2778 3373 
L 2778 3277 
C 2778 2822 2477 2573 1920 2573 
z
" transform="scale(0.015625)"/>
       </defs>
       <use xlink:href="#IBMPlexSans-38"/>
       <use xlink:href="#IBMPlexSans-30" transform="translate(59.999985 0)"/>
      </g>
     </g>
    </g>
    <g id="xtick_6">
     <g id="line2d_6">
      <g>
       <use xlink:href="#m047bcf67bf" x="518.68136" y="274.94952" style="stroke: #000000; stroke-width: 0.8"/>
      </g>
     </g>
     <g id="text_6">
      <!-- 100 -->
      <g transform="translate(509.68136 289.34952) scale(0.1 -0.1)">
       <defs>
        <path id="IBMPlexSans-31" d="M 3501 0 
L 3501 474 
L 2349 474 
L 2349 4467 
L 1510 4467 
L 326 3360 
L 640 3021 
L 1766 4070 
L 1811 4070 
L 1811 474 
L 563 474 
L 563 0 
L 3501 0 
z
" transform="scale(0.015625)"/>
       </defs>
       <use xlink:href="#IBMPlexSans-31"/>
       <use xlink:href="#IBMPlexSans-30" transform="translate(59.999985 0)"/>
       <use xlink:href="#IBMPlexSans-30" transform="translate(119.999969 0)"/>
      </g>
     </g>
    </g>
    <g id="text_7">
     <!-- Time [ps] -->
     <g transform="translate(272.594291 302.94952) scale(0.1 -0.1)">
      <defs>
       <path id="IBMPlexSans-54" d="M 3520 3994 
L 3520 4467 
L 141 4467 
L 141 3994 
L 1562 3994 
L 1562 0 
L 2099 0 
L 2099 3994 
L 3520 3994 
z
" transform="scale(0.015625)"/>
       <path id="IBMPlexSans-69" d="M 800 4077 
C 1018 4077 1114 4192 1114 4365 
L 1114 4448 
C 1114 4621 1018 4736 800 4736 
C 582 4736 486 4621 486 4448 
L 486 4365 
C 486 4192 582 4077 800 4077 
z
M 544 0 
L 1056 0 
L 1056 3302 
L 544 3302 
L 544 0 
z
" transform="scale(0.015625)"/>
       <path id="IBMPlexSans-6d" d="M 1056 0 
L 1056 2291 
C 1056 2714 1440 2918 1843 2918 
C 2330 2918 2554 2618 2554 2029 
L 2554 0 
L 3066 0 
L 3066 2291 
C 3066 2714 3437 2918 3840 2918 
C 4339 2918 4563 2611 4563 2029 
L 4563 0 
L 5075 0 
L 5075 2118 
C 5075 2918 4672 3379 4000 3379 
C 3437 3379 3117 3066 2995 2707 
L 2982 2707 
C 2803 3181 2406 3379 1971 3379 
C 1459 3379 1229 3104 1082 2765 
L 1056 2765 
L 1056 3302 
L 544 3302 
L 544 0 
L 1056 0 
z
" transform="scale(0.015625)"/>
       <path id="IBMPlexSans-65" d="M 1786 -77 
C 2406 -77 2880 230 3091 678 
L 2726 941 
C 2554 576 2234 371 1818 371 
C 1203 371 838 800 838 1370 
L 838 1523 
L 3213 1523 
L 3213 1766 
C 3213 2701 2669 3379 1786 3379 
C 890 3379 301 2701 301 1651 
C 301 602 890 -77 1786 -77 
z
M 1786 2950 
C 2310 2950 2662 2560 2662 1978 
L 2662 1907 
L 838 1907 
L 838 1952 
C 838 2528 1229 2950 1786 2950 
z
" transform="scale(0.015625)"/>
       <path id="IBMPlexSans-20" transform="scale(0.015625)"/>
       <path id="IBMPlexSans-5b" d="M 1645 -883 
L 1645 -480 
L 1037 -480 
L 1037 4461 
L 1645 4461 
L 1645 4864 
L 595 4864 
L 595 -883 
L 1645 -883 
z
" transform="scale(0.015625)"/>
       <path id="IBMPlexSans-70" d="M 544 -1280 
L 1056 -1280 
L 1056 538 
L 1082 538 
C 1280 128 1594 -77 2048 -77 
C 2874 -77 3392 595 3392 1651 
C 3392 2707 2874 3379 2048 3379 
C 1594 3379 1254 3181 1082 2765 
L 1056 2765 
L 1056 3302 
L 544 3302 
L 544 -1280 
z
M 1907 384 
C 1440 384 1056 627 1056 1056 
L 1056 2285 
C 1056 2650 1440 2918 1907 2918 
C 2483 2918 2842 2522 2842 1933 
L 2842 1370 
C 2842 781 2483 384 1907 384 
z
" transform="scale(0.015625)"/>
       <path id="IBMPlexSans-73" d="M 1536 -77 
C 2291 -77 2758 314 2758 954 
C 2758 1453 2477 1773 1747 1882 
L 1491 1920 
C 1082 1984 858 2112 858 2432 
C 858 2746 1082 2944 1504 2944 
C 1926 2944 2208 2746 2355 2541 
L 2694 2848 
C 2426 3181 2074 3379 1542 3379 
C 870 3379 365 3059 365 2406 
C 365 1792 819 1542 1427 1453 
L 1690 1414 
C 2125 1350 2266 1152 2266 896 
C 2266 557 2010 358 1574 358 
C 1158 358 851 544 595 864 
L 230 570 
C 525 179 928 -77 1536 -77 
z
" transform="scale(0.015625)"/>
       <path id="IBMPlexSans-5d" d="M 384 4864 
L 384 4461 
L 992 4461 
L 992 -480 
L 384 -480 
L 384 -883 
L 1434 -883 
L 1434 4864 
L 384 4864 
z
" transform="scale(0.015625)"/>
      </defs>
      <use xlink:href="#IBMPlexSans-54"/>
      <use xlink:href="#IBMPlexSans-69" transform="translate(57.199997 0)"/>
      <use xlink:href="#IBMPlexSans-6d" transform="translate(82.199982 0)"/>
      <use xlink:href="#IBMPlexSans-65" transform="translate(169.499969 0)"/>
      <use xlink:href="#IBMPlexSans-20" transform="translate(224.399963 0)"/>
      <use xlink:href="#IBMPlexSans-5b" transform="translate(247.999954 0)"/>
      <use xlink:href="#IBMPlexSans-70" transform="translate(279.699951 0)"/>
      <use xlink:href="#IBMPlexSans-73" transform="translate(337.699936 0)"/>
      <use xlink:href="#IBMPlexSans-5d" transform="translate(386.399933 0)"/>
     </g>
    </g>
   </g>
   <g id="matplotlib.axis_2">
    <g id="ytick_1">
     <g id="line2d_7">
      <defs>
       <path id="m53c322e178" d="M 0 0 
L -3.5 0 
" style="stroke: #000000; stroke-width: 0.8"/>
      </defs>
      <g>
       <use xlink:href="#m53c322e178" x="45.8" y="271.666339" style="stroke: #000000; stroke-width: 0.8"/>
      </g>
     </g>
     <g id="text_8">
      <!-- 285 -->
      <g transform="translate(20.8 275.366339) scale(0.1 -0.1)">
       <defs>
        <path id="IBMPlexSans-35" d="M 3187 4467 
L 794 4467 
L 634 2010 
L 1088 1946 
C 1274 2150 1478 2323 1888 2323 
C 2496 2323 2822 1984 2822 1395 
L 2822 1331 
C 2822 742 2496 403 1888 403 
C 1350 403 1126 640 896 992 
L 493 685 
C 762 301 1146 -77 1888 -77 
C 2829 -77 3392 531 3392 1402 
C 3392 2266 2829 2784 2061 2784 
C 1594 2784 1357 2592 1146 2291 
L 1101 2291 
L 1229 3994 
L 3187 3994 
L 3187 4467 
z
" transform="scale(0.015625)"/>
       </defs>
       <use xlink:href="#IBMPlexSans-32"/>
       <use xlink:href="#IBMPlexSans-38" transform="translate(59.999985 0)"/>
       <use xlink:href="#IBMPlexSans-35" transform="translate(119.999969 0)"/>
      </g>
     </g>
    </g>
    <g id="ytick_2">
     <g id="line2d_8">
      <g>
       <use xlink:href="#m53c322e178" x="45.8" y="221.636152" style="stroke: #000000; stroke-width: 0.8"/>
      </g>
     </g>
     <g id="text_9">
      <!-- 290 -->
      <g transform="translate(20.8 225.336152) scale(0.1 -0.1)">
       <defs>
        <path id="IBMPlexSans-39" d="M 3411 2829 
C 3411 3891 2842 4544 1914 4544 
C 1018 4544 429 3942 429 3066 
C 429 2221 979 1690 1747 1690 
C 2291 1690 2611 1965 2822 2330 
L 2854 2317 
C 2611 1280 2080 698 1126 0 
L 1818 0 
C 2534 467 3411 1504 3411 2829 
z
M 1920 2144 
C 1331 2144 986 2483 986 3085 
L 986 3136 
C 986 3738 1331 4077 1920 4077 
C 2509 4077 2854 3738 2854 3136 
L 2854 3085 
C 2854 2483 2509 2144 1920 2144 
z
" transform="scale(0.015625)"/>
       </defs>
       <use xlink:href="#IBMPlexSans-32"/>
       <use xlink:href="#IBMPlexSans-39" transform="translate(59.999985 0)"/>
       <use xlink:href="#IBMPlexSans-30" transform="translate(119.999969 0)"/>
      </g>
     </g>
    </g>
    <g id="ytick_3">
     <g id="line2d_9">
      <g>
       <use xlink:href="#m53c322e178" x="45.8" y="171.605965" style="stroke: #000000; stroke-width: 0.8"/>
      </g>
     </g>
     <g id="text_10">
      <!-- 295 -->
      <g transform="translate(20.8 175.305965) scale(0.1 -0.1)">
       <use xlink:href="#IBMPlexSans-32"/>
       <use xlink:href="#IBMPlexSans-39" transform="translate(59.999985 0)"/>
       <use xlink:href="#IBMPlexSans-35" transform="translate(119.999969 0)"/>
      </g>
     </g>
    </g>
    <g id="ytick_4">
     <g id="line2d_10">
      <g>
       <use xlink:href="#m53c322e178" x="45.8" y="121.575778" style="stroke: #000000; stroke-width: 0.8"/>
      </g>
     </g>
     <g id="text_11">
      <!-- 300 -->
      <g transform="translate(20.8 125.275778) scale(0.1 -0.1)">
       <defs>
        <path id="IBMPlexSans-33" d="M 1184 2573 
L 1184 2106 
L 1709 2106 
C 2336 2106 2669 1805 2669 1280 
L 2669 1229 
C 2669 704 2336 403 1709 403 
C 1165 403 902 640 672 992 
L 269 685 
C 544 301 941 -77 1715 -77 
C 2624 -77 3232 454 3232 1222 
C 3232 1894 2771 2253 2291 2349 
L 2291 2374 
C 2765 2496 3149 2842 3149 3418 
C 3149 4141 2547 4544 1792 4544 
C 1075 4544 685 4173 461 3814 
L 858 3507 
C 1043 3846 1318 4064 1779 4064 
C 2253 4064 2579 3827 2579 3360 
L 2579 3315 
C 2579 2886 2272 2573 1670 2573 
L 1184 2573 
z
" transform="scale(0.015625)"/>
       </defs>
       <use xlink:href="#IBMPlexSans-33"/>
       <use xlink:href="#IBMPlexSans-30" transform="translate(59.999985 0)"/>
       <use xlink:href="#IBMPlexSans-30" transform="translate(119.999969 0)"/>
      </g>
     </g>
    </g>
    <g id="ytick_5">
     <g id="line2d_11">
      <g>
       <use xlink:href="#m53c322e178" x="45.8" y="71.54559" style="stroke: #000000; stroke-width: 0.8"/>
      </g>
     </g>
     <g id="text_12">
      <!-- 305 -->
      <g transform="translate(20.8 75.24559) scale(0.1 -0.1)">
       <use xlink:href="#IBMPlexSans-33"/>
       <use xlink:href="#IBMPlexSans-30" transform="translate(59.999985 0)"/>
       <use xlink:href="#IBMPlexSans-35" transform="translate(119.999969 0)"/>
      </g>
     </g>
    </g>
    <g id="text_13">
     <!-- Temperature [K] -->
     <g transform="translate(14.8 185.451166) rotate(-90) scale(0.1 -0.1)">
      <defs>
       <path id="IBMPlexSans-72" d="M 1056 0 
L 1056 2240 
C 1056 2554 1389 2790 1939 2790 
L 2240 2790 
L 2240 3302 
L 2042 3302 
C 1504 3302 1203 3008 1088 2694 
L 1056 2694 
L 1056 3302 
L 544 3302 
L 544 0 
L 1056 0 
z
" transform="scale(0.015625)"/>
       <path id="IBMPlexSans-61" d="M 3232 0 
L 3232 448 
L 2854 448 
L 2854 2266 
C 2854 2963 2381 3379 1587 3379 
C 992 3379 595 3085 416 2733 
L 723 2445 
C 902 2746 1165 2938 1562 2938 
C 2086 2938 2342 2682 2342 2214 
L 2342 1888 
L 1690 1888 
C 730 1888 282 1542 282 922 
C 282 307 691 -77 1389 -77 
C 1850 -77 2202 134 2342 538 
L 2374 538 
C 2413 230 2566 0 2944 0 
L 3232 0 
z
M 1472 358 
C 1075 358 819 544 819 870 
L 819 1005 
C 819 1325 1082 1504 1664 1504 
L 2342 1504 
L 2342 960 
C 2342 621 1978 358 1472 358 
z
" transform="scale(0.015625)"/>
       <path id="IBMPlexSans-74" d="M 1914 0 
L 1914 448 
L 1242 448 
L 1242 2854 
L 1965 2854 
L 1965 3302 
L 1242 3302 
L 1242 4218 
L 781 4218 
L 781 3603 
C 781 3379 710 3302 493 3302 
L 186 3302 
L 186 2854 
L 730 2854 
L 730 544 
C 730 224 922 0 1274 0 
L 1914 0 
z
" transform="scale(0.015625)"/>
       <path id="IBMPlexSans-75" d="M 2579 0 
L 3091 0 
L 3091 3302 
L 2579 3302 
L 2579 1018 
C 2579 582 2182 384 1779 384 
C 1286 384 1024 685 1024 1274 
L 1024 3302 
L 512 3302 
L 512 1184 
C 512 384 947 -77 1626 -77 
C 2176 -77 2426 224 2554 538 
L 2579 538 
L 2579 0 
z
" transform="scale(0.015625)"/>
       <path id="IBMPlexSans-4b" d="M 3251 0 
L 3917 0 
L 2138 2554 
L 3802 4467 
L 3142 4467 
L 1792 2867 
L 1152 2093 
L 1133 2093 
L 1133 4467 
L 595 4467 
L 595 0 
L 1133 0 
L 1133 1491 
L 1766 2195 
L 3251 0 
z
" transform="scale(0.015625)"/>
      </defs>
      <use xlink:href="#IBMPlexSans-54"/>
      <use xlink:href="#IBMPlexSans-65" transform="translate(57.199997 0)"/>
      <use xlink:href="#IBMPlexSans-6d" transform="translate(112.099991 0)"/>
      <use xlink:href="#IBMPlexSans-70" transform="translate(199.399979 0)"/>
      <use xlink:href="#IBMPlexSans-65" transform="translate(257.399963 0)"/>
      <use xlink:href="#IBMPlexSans-72" transform="translate(312.299957 0)"/>
      <use xlink:href="#IBMPlexSans-61" transform="translate(348.999954 0)"/>
      <use xlink:href="#IBMPlexSans-74" transform="translate(402.399948 0)"/>
      <use xlink:href="#IBMPlexSans-75" transform="translate(437.499939 0)"/>
      <use xlink:href="#IBMPlexSans-72" transform="translate(494.299927 0)"/>
      <use xlink:href="#IBMPlexSans-65" transform="translate(530.999924 0)"/>
      <use xlink:href="#IBMPlexSans-20" transform="translate(585.899918 0)"/>
      <use xlink:href="#IBMPlexSans-5b" transform="translate(609.499908 0)"/>
      <use xlink:href="#IBMPlexSans-4b" transform="translate(641.199905 0)"/>
      <use xlink:href="#IBMPlexSans-5d" transform="translate(704.599899 0)"/>
     </g>
    </g>
   </g>
   <g id="line2d_12">
    <path d="M 68.31816 36.904999 
L 70.569976 87.845083 
L 72.821792 83.257247 
L 75.073608 68.26694 
L 77.325424 61.904046 
L 79.57724 63.098034 
L 81.829056 15.340443 
L 84.080872 21.551772 
L 86.332688 93.375428 
L 88.584504 107.380811 
L 90.64015 -1 
M 91.207743 -1 
L 93.088136 51.361903 
L 95.339952 79.535839 
L 97.591768 120.305541 
L 99.843584 50.452755 
L 102.0954 91.361701 
L 104.347216 60.94346 
L 106.599032 32.989658 
L 108.850848 59.882303 
L 111.102664 84.987493 
L 113.35448 80.559391 
L 115.606296 73.444899 
L 117.858112 68.168889 
L 120.109928 38.762061 
L 122.361744 132.90126 
L 124.61356 80.63028 
L 126.865376 59.004195 
L 129.117192 91.102679 
L 131.369008 105.885662 
L 133.620824 73.01312 
L 135.87264 80.966589 
L 138.124456 105.594196 
L 140.376272 10.55994 
L 142.628088 54.114663 
L 144.879904 67.289513 
L 147.13172 90.602835 
L 151.635352 49.451113 
L 153.887168 31.566436 
L 156.138984 33.024972 
L 158.3908 103.955908 
L 160.642616 58.904113 
L 162.894432 52.644431 
L 165.146248 106.066511 
L 167.398064 114.805946 
L 169.64988 38.572738 
L 171.901696 65.301955 
L 174.153512 70.333968 
L 176.405328 61.488558 
L 178.657144 18.603353 
L 180.90896 68.573292 
L 183.160776 52.796805 
L 185.412592 70.445607 
L 187.664408 104.074709 
L 189.916224 103.120123 
L 192.16804 38.115874 
L 194.419856 67.958938 
L 196.671672 80.958985 
L 198.923488 63.085652 
L 201.175304 71.518627 
L 203.42712 88.950608 
L 205.678936 11.147117 
L 207.930752 32.232258 
L 210.182568 38.283074 
L 212.434384 61.47071 
L 214.6862 66.49431 
L 216.938016 62.148365 
L 219.189832 89.732299 
L 221.441648 18.236264 
L 223.693464 61.624168 
L 225.94528 58.161508 
L 228.197096 50.457534 
L 230.448912 29.673188 
L 232.700728 110.507973 
L 234.952544 94.214359 
L 237.20436 45.689184 
L 239.456176 65.510684 
L 241.707992 77.320254 
L 243.959808 96.529186 
L 246.211624 99.158702 
L 248.46344 19.2598 
L 250.715256 37.67188 
L 252.967072 22.061418 
L 255.218888 18.439267 
L 257.470704 35.459837 
L 259.72252 68.952488 
L 261.974336 51.927934 
L 264.226152 61.553722 
L 266.477968 49.706959 
L 268.729784 81.755608 
L 270.9816 70.005919 
L 273.233416 63.942584 
L 275.485232 77.429222 
L 277.737048 107.727319 
L 279.988864 75.946363 
L 282.24068 56.44288 
L 284.492496 90.623676 
L 286.744312 76.169718 
L 288.996128 96.465839 
L 291.247944 52.669989 
L 293.49976 70.298928 
L 295.751576 98.306595 
L 298.003392 12.635503 
L 300.255208 68.394122 
L 302.507024 67.676755 
L 304.75884 11.560132 
L 307.010656 57.953329 
L 309.262472 87.60278 
L 311.514288 62.06094 
L 313.766104 80.852979 
L 316.01792 58.204808 
L 318.269736 84.13331 
L 320.521552 22.130185 
L 322.773368 49.932009 
L 325.025184 97.96563 
L 327.277 112.948441 
L 329.528816 59.711561 
L 331.780632 65.486194 
L 334.032448 21.871148 
L 336.284264 63.392676 
L 338.53608 56.230197 
L 340.787896 20.636898 
L 343.039712 61.358887 
L 345.291528 74.126264 
L 347.543344 67.534091 
L 349.79516 28.065971 
L 352.046976 84.325335 
L 354.298792 22.754722 
L 356.550608 66.114717 
L 358.802424 48.026379 
L 361.05424 51.869045 
L 363.306056 74.601863 
L 365.557872 91.19844 
L 367.809688 74.693547 
L 370.061504 8.820274 
L 372.31332 91.002246 
L 374.565136 77.792142 
L 376.816952 21.499845 
L 379.068768 49.560401 
L 381.320584 50.958782 
L 383.5724 97.524996 
L 385.824216 71.470426 
L 388.076032 80.405535 
L 390.327848 85.612794 
L 392.579664 65.599513 
L 394.83148 73.144517 
L 397.083296 105.163424 
L 399.335112 34.98233 
L 401.586928 76.49056 
L 403.838744 86.176031 
L 406.09056 67.423184 
L 408.342376 74.976051 
L 410.594192 31.188018 
L 412.846008 44.142139 
L 415.097824 51.683478 
L 417.34964 53.260159 
L 419.601456 53.845015 
L 421.853272 80.221495 
L 424.105088 82.716256 
L 426.356904 86.824631 
L 428.60872 65.716787 
L 430.860536 132.266768 
L 433.112352 59.12611 
L 435.364168 76.756849 
L 437.615984 51.599382 
L 439.8678 59.010134 
L 442.119616 88.255303 
L 444.371432 92.661633 
L 446.623248 56.508212 
L 448.875064 65.181582 
L 451.12688 95.909015 
L 453.378696 67.972405 
L 455.630512 73.406302 
L 457.882328 61.468725 
L 460.134144 33.952733 
L 462.38596 56.894111 
L 464.637776 72.367253 
L 466.889592 61.993364 
L 469.141408 66.900408 
L 471.393224 89.517402 
L 473.64504 120.90823 
L 475.896856 66.394854 
L 478.148672 93.552292 
L 480.400488 35.416659 
L 482.652304 64.528646 
L 484.90412 45.909822 
L 487.155936 63.364339 
L 489.407752 49.392927 
L 491.659568 68.026988 
L 493.911384 14.292936 
L 496.1632 95.485466 
L 498.415016 91.086983 
L 500.666832 50.639192 
L 505.170464 113.233907 
L 507.42228 58.077137 
L 509.674096 69.484929 
L 511.925912 68.944854 
L 514.177728 59.918733 
L 516.429544 98.808729 
L 518.68136 55.550512 
L 518.68136 55.550512 
" clip-path="url(#p235401af9a)" style="fill: none; stroke: #1f77b4; stroke-width: 1.5; stroke-linecap: square"/>
   </g>
   <g id="line2d_13">
    <path d="M 68.31816 59.009279 
L 70.569976 110.3825 
L 72.821792 116.978094 
L 75.073608 83.52175 
L 77.325424 119.099918 
L 79.57724 110.772018 
L 81.829056 28.755612 
L 84.080872 54.68135 
L 86.332688 111.501217 
L 88.584504 122.533448 
L 90.83632 37.918733 
L 93.088136 115.006201 
L 95.339952 113.214837 
L 97.591768 135.127228 
L 99.843584 70.476159 
L 102.0954 107.08565 
L 104.347216 101.249548 
L 106.599032 87.978235 
L 108.850848 97.23895 
L 111.102664 123.685388 
L 113.35448 93.030722 
L 115.606296 123.718794 
L 117.858112 80.63109 
L 120.109928 46.49709 
L 122.361744 139.628662 
L 124.61356 100.844213 
L 126.865376 75.545929 
L 129.117192 111.633744 
L 131.369008 122.321894 
L 133.620824 86.000907 
L 135.87264 122.707136 
L 138.124456 122.723015 
L 140.376272 47.209984 
L 142.628088 112.052209 
L 144.879904 89.625164 
L 147.13172 103.356533 
L 149.383536 91.215418 
L 151.635352 70.012622 
L 153.887168 71.089993 
L 156.138984 60.97482 
L 158.3908 126.129917 
L 160.642616 94.147302 
L 162.894432 89.453002 
L 165.146248 129.485518 
L 167.398064 139.944283 
L 169.64988 81.447073 
L 171.901696 71.836721 
L 174.153512 116.709255 
L 176.405328 98.706938 
L 178.657144 103.831734 
L 180.90896 82.842568 
L 183.160776 80.260871 
L 185.412592 97.365735 
L 187.664408 115.973581 
L 189.916224 110.566022 
L 192.16804 100.048079 
L 194.419856 116.744738 
L 196.671672 115.646358 
L 198.923488 94.520635 
L 201.175304 124.913118 
L 203.42712 119.197145 
L 205.678936 96.523003 
L 207.930752 59.310486 
L 210.182568 80.914097 
L 212.434384 111.522531 
L 214.6862 86.117921 
L 216.938016 66.680167 
L 219.189832 115.966802 
L 221.441648 56.15917 
L 223.693464 106.216412 
L 225.94528 117.076603 
L 228.197096 116.984995 
L 230.448912 67.366372 
L 232.700728 118.490298 
L 234.952544 106.252201 
L 237.20436 84.989799 
L 239.456176 122.135136 
L 241.707992 94.109742 
L 243.959808 136.173025 
L 246.211624 139.302355 
L 248.46344 56.135597 
L 250.715256 81.954459 
L 252.967072 100.052354 
L 255.218888 89.223432 
L 257.470704 64.80605 
L 259.72252 96.044015 
L 261.974336 104.649793 
L 264.226152 98.156801 
L 266.477968 84.122026 
L 268.729784 96.81969 
L 270.9816 97.007059 
L 273.233416 99.552846 
L 275.485232 92.024255 
L 277.737048 127.343235 
L 279.988864 79.9287 
L 282.24068 106.468029 
L 284.492496 125.603232 
L 286.744312 100.526883 
L 288.996128 106.165845 
L 291.247944 77.224066 
L 293.49976 111.818609 
L 295.751576 132.830432 
L 298.003392 88.466445 
L 300.255208 101.036896 
L 302.507024 79.662243 
L 304.75884 27.57906 
L 307.010656 91.333104 
L 309.262472 106.976942 
L 311.514288 94.275186 
L 313.766104 99.753284 
L 316.01792 100.428191 
L 318.269736 100.583558 
L 320.521552 77.889262 
L 322.773368 58.72963 
L 325.025184 138.789289 
L 327.277 129.059785 
L 329.528816 77.429817 
L 331.780632 103.303217 
L 334.032448 99.028909 
L 336.284264 99.092974 
L 338.53608 102.022109 
L 340.787896 62.48794 
L 343.039712 109.942415 
L 345.291528 79.775593 
L 347.543344 74.288823 
L 349.79516 90.178904 
L 352.046976 96.647284 
L 354.298792 49.754122 
L 356.550608 104.228335 
L 358.802424 80.231007 
L 361.05424 96.232483 
L 363.306056 81.099329 
L 365.557872 99.761468 
L 367.809688 112.413206 
L 370.061504 42.280007 
L 372.31332 136.444857 
L 374.565136 86.35488 
L 376.816952 39.956889 
L 379.068768 98.939622 
L 381.320584 70.118277 
L 383.5724 130.001027 
L 385.824216 110.195803 
L 388.076032 118.195625 
L 390.327848 118.503917 
L 392.579664 82.238138 
L 394.83148 96.384491 
L 397.083296 125.06476 
L 399.335112 73.311365 
L 401.586928 111.788928 
L 403.838744 139.181738 
L 406.09056 118.982049 
L 408.342376 94.456876 
L 410.594192 65.862107 
L 412.846008 66.552832 
L 415.097824 99.328467 
L 417.34964 80.351685 
L 419.601456 66.157085 
L 421.853272 102.289971 
L 424.105088 112.641248 
L 426.356904 115.320661 
L 428.60872 133.425029 
L 430.860536 149.264848 
L 433.112352 65.185796 
L 435.364168 120.804621 
L 437.615984 121.484047 
L 439.8678 88.958685 
L 442.119616 118.05406 
L 444.371432 112.040056 
L 446.623248 77.792341 
L 448.875064 87.742558 
L 451.12688 114.080044 
L 453.378696 70.791962 
L 455.630512 116.70443 
L 457.882328 77.818052 
L 460.134144 92.254497 
L 462.38596 82.937779 
L 464.637776 104.33344 
L 466.889592 83.437104 
L 469.141408 78.582857 
L 471.393224 114.408917 
L 473.64504 156.059108 
L 475.896856 116.908899 
L 478.148672 98.08211 
L 480.400488 77.056973 
L 482.652304 90.823152 
L 484.90412 88.539181 
L 487.155936 113.835573 
L 489.407752 69.068754 
L 491.659568 97.387171 
L 493.911384 54.719398 
L 496.1632 111.977945 
L 498.415016 132.890283 
L 500.666832 97.530996 
L 502.918648 116.097497 
L 505.170464 120.372842 
L 507.42228 107.643177 
L 509.674096 108.035686 
L 511.925912 103.255336 
L 514.177728 88.951295 
L 516.429544 119.035793 
L 518.68136 104.22003 
L 518.68136 104.22003 
" clip-path="url(#p235401af9a)" style="fill: none; stroke: #ff7f0e; stroke-width: 1.5; stroke-linecap: square"/>
   </g>
   <g id="line2d_14">
    <path d="M 68.31816 88.445894 
L 70.569976 125.939678 
L 72.821792 169.692884 
L 77.325424 135.662646 
L 79.57724 146.882643 
L 81.829056 115.671183 
L 84.080872 131.714494 
L 86.332688 134.329292 
L 88.584504 137.570994 
L 90.83632 105.357801 
L 93.088136 127.486174 
L 95.339952 134.019657 
L 97.591768 159.552488 
L 99.843584 108.368193 
L 102.0954 122.612475 
L 104.347216 141.116529 
L 106.599032 143.878663 
L 108.850848 121.381416 
L 111.102664 174.854385 
L 113.35448 131.844119 
L 115.606296 143.171908 
L 117.858112 112.869352 
L 120.109928 116.451836 
L 122.361744 161.140818 
L 124.61356 132.198184 
L 126.865376 116.431683 
L 131.369008 135.894567 
L 133.620824 160.704001 
L 135.87264 136.697817 
L 138.124456 131.019036 
L 140.376272 86.618314 
L 142.628088 158.291351 
L 144.879904 141.652741 
L 147.13172 137.089136 
L 149.383536 127.468921 
L 151.635352 132.296205 
L 153.887168 130.085246 
L 156.138984 176.063 
L 158.3908 150.405276 
L 160.642616 144.088751 
L 162.894432 128.325303 
L 165.146248 151.341357 
L 167.398064 171.370074 
L 169.64988 120.147151 
L 171.901696 162.252024 
L 174.153512 137.254794 
L 176.405328 146.556976 
L 178.657144 135.568748 
L 180.90896 130.067993 
L 183.160776 171.301979 
L 185.412592 178.808186 
L 187.664408 138.41562 
L 189.916224 127.632441 
L 192.16804 165.478763 
L 194.419856 142.568669 
L 196.671672 148.16149 
L 198.923488 131.240881 
L 201.175304 159.901209 
L 203.42712 155.163549 
L 205.678936 157.275877 
L 207.930752 142.278271 
L 210.182568 141.429065 
L 212.434384 149.780662 
L 214.6862 143.34352 
L 216.938016 109.284731 
L 219.189832 132.34262 
L 221.441648 119.429249 
L 223.693464 139.578278 
L 225.94528 157.941256 
L 228.197096 147.95522 
L 230.448912 103.561826 
L 232.700728 161.617638 
L 234.952544 133.330001 
L 237.20436 171.60795 
L 239.456176 164.713989 
L 241.707992 110.708014 
L 243.959808 150.758425 
L 246.211624 177.070077 
L 248.46344 133.601314 
L 250.715256 151.333418 
L 252.967072 145.405005 
L 255.218888 148.016292 
L 257.470704 154.643979 
L 259.72252 139.432469 
L 261.974336 122.797981 
L 264.226152 150.820566 
L 266.477968 154.330526 
L 268.729784 146.763094 
L 270.9816 123.945066 
L 273.233416 124.414557 
L 275.485232 157.967822 
L 277.737048 206.760996 
L 279.988864 130.96514 
L 282.24068 143.612847 
L 284.492496 147.114564 
L 286.744312 136.078394 
L 288.996128 155.502346 
L 291.247944 93.520672 
L 293.49976 147.53764 
L 295.751576 143.961569 
L 298.003392 134.682135 
L 300.255208 127.89841 
L 302.507024 157.201063 
L 304.75884 109.038458 
L 307.010656 110.479758 
L 309.262472 125.672946 
L 311.514288 128.943504 
L 313.766104 173.879065 
L 316.01792 127.420827 
L 318.269736 152.305837 
L 320.521552 148.214165 
L 322.773368 132.777147 
L 325.025184 189.160044 
L 327.277 159.103762 
L 329.528816 122.926385 
L 331.780632 136.053049 
L 334.032448 129.466281 
L 336.284264 151.951466 
L 338.53608 136.304971 
L 340.787896 138.113466 
L 343.039712 128.650511 
L 345.291528 150.814153 
L 347.543344 121.641888 
L 349.79516 179.715716 
L 352.046976 131.929162 
L 354.298792 151.991927 
L 356.550608 138.525549 
L 358.802424 137.992849 
L 361.05424 135.073912 
L 363.306056 114.491425 
L 365.557872 137.410222 
L 367.809688 149.61363 
L 370.061504 99.981022 
L 372.31332 156.302847 
L 374.565136 126.71117 
L 376.816952 117.790535 
L 379.068768 143.855761 
L 381.320584 138.450431 
L 383.5724 153.573081 
L 385.824216 158.036376 
L 388.076032 161.834444 
L 390.327848 166.240636 
L 392.579664 144.643285 
L 394.83148 118.488282 
L 397.083296 173.629128 
L 399.335112 141.784657 
L 401.586928 149.972123 
L 403.838744 170.70103 
L 406.09056 159.184224 
L 408.342376 145.875565 
L 410.594192 144.286319 
L 412.846008 110.016068 
L 415.097824 133.959043 
L 417.34964 116.946978 
L 419.601456 121.550891 
L 421.853272 150.371076 
L 424.105088 129.982034 
L 426.356904 130.936437 
L 428.60872 183.051011 
L 430.860536 160.824465 
L 433.112352 126.35909 
L 435.364168 183.594399 
L 437.615984 139.879974 
L 439.8678 130.622832 
L 442.119616 138.760982 
L 444.371432 139.106191 
L 446.623248 127.808481 
L 448.875064 129.053739 
L 451.12688 144.665118 
L 453.378696 121.418517 
L 455.630512 130.486947 
L 457.882328 152.997935 
L 460.134144 124.342339 
L 462.38596 169.523562 
L 464.637776 136.16359 
L 466.889592 126.913929 
L 469.141408 133.161748 
L 471.393224 141.566019 
L 473.64504 173.187272 
L 475.896856 141.281271 
L 478.148672 130.852463 
L 480.400488 119.778276 
L 482.652304 139.485601 
L 484.90412 168.45297 
L 487.155936 147.459468 
L 489.407752 124.95306 
L 491.659568 134.750536 
L 493.911384 99.913537 
L 496.1632 149.741423 
L 498.415016 171.906744 
L 500.666832 148.483493 
L 502.918648 155.642658 
L 505.170464 151.709774 
L 507.42228 149.686153 
L 509.674096 115.282307 
L 511.925912 164.471991 
L 514.177728 138.676245 
L 516.429544 172.413031 
L 518.68136 135.422939 
L 518.68136 135.422939 
" clip-path="url(#p235401af9a)" style="fill: none; stroke: #2ca02c; stroke-width: 1.5; stroke-linecap: square"/>
   </g>
   <g id="line2d_15">
    <path d="M 68.31816 115.933457 
L 70.569976 187.893808 
L 72.821792 201.993074 
L 75.073608 193.052316 
L 77.325424 169.983465 
L 79.57724 162.047158 
L 81.829056 129.290271 
L 84.080872 169.735757 
L 86.332688 162.829368 
L 88.584504 187.48719 
L 90.83632 186.860347 
L 93.088136 170.246868 
L 95.339952 199.1848 
L 97.591768 198.184257 
L 99.843584 170.768606 
L 102.0954 140.018424 
L 104.347216 181.074019 
L 106.599032 175.945253 
L 108.850848 169.039719 
L 111.102664 205.26348 
L 113.35448 162.352273 
L 115.606296 155.176679 
L 117.858112 181.267129 
L 120.109928 157.280426 
L 122.361744 190.559478 
L 124.61356 170.554671 
L 126.865376 154.93117 
L 129.117192 159.493981 
L 131.369008 203.786148 
L 133.620824 192.694434 
L 135.87264 159.485065 
L 138.124456 168.821203 
L 140.376272 119.12111 
L 142.628088 191.125188 
L 144.879904 175.205182 
L 147.13172 171.887385 
L 149.383536 162.36974 
L 151.635352 180.983632 
L 153.887168 171.199775 
L 156.138984 229.136771 
L 158.3908 182.198965 
L 160.642616 218.909775 
L 162.894432 174.447157 
L 165.146248 179.443152 
L 167.398064 186.519138 
L 169.64988 148.817434 
L 171.901696 192.238226 
L 174.153512 190.113347 
L 176.405328 196.156361 
L 178.657144 172.950465 
L 180.90896 197.162095 
L 183.160776 217.549091 
L 185.412592 203.135182 
L 187.664408 147.531075 
L 189.916224 179.455244 
L 192.16804 199.984599 
L 194.419856 180.975571 
L 196.671672 173.303034 
L 198.923488 156.194749 
L 201.175304 191.768704 
L 203.42712 180.660867 
L 205.678936 179.73758 
L 207.930752 191.057765 
L 210.182568 184.996063 
L 212.434384 174.985079 
L 214.6862 177.456846 
L 216.938016 158.512066 
L 219.189832 159.116862 
L 221.441648 182.898606 
L 223.693464 183.921623 
L 225.94528 189.292967 
L 228.197096 172.736591 
L 230.448912 151.829078 
L 232.700728 179.999396 
L 234.952544 211.917153 
L 237.20436 200.254904 
L 239.456176 217.956869 
L 241.707992 153.754862 
L 243.959808 189.657689 
L 246.211624 196.910479 
L 248.46344 182.700672 
L 250.715256 189.033167 
L 252.967072 212.26392 
L 255.218888 180.161176 
L 257.470704 195.978031 
L 259.72252 219.395664 
L 261.974336 146.405334 
L 264.226152 216.871009 
L 266.477968 180.856725 
L 268.729784 187.645428 
L 270.9816 155.548058 
L 273.233416 167.860052 
L 275.485232 178.577029 
L 277.737048 225.740007 
L 279.988864 201.370201 
L 282.24068 194.687458 
L 284.492496 174.81823 
L 286.744312 177.323282 
L 288.996128 211.454471 
L 291.247944 110.542387 
L 293.49976 189.656529 
L 295.751576 196.536351 
L 298.003392 146.753445 
L 300.255208 147.382242 
L 302.507024 209.089824 
L 304.75884 153.268545 
L 307.010656 143.117462 
L 309.262472 158.643859 
L 311.514288 160.567322 
L 313.766104 199.936352 
L 316.01792 140.289828 
L 318.269736 200.906603 
L 320.521552 204.697404 
L 322.773368 170.877925 
L 325.025184 210.17715 
L 327.277 191.431159 
L 329.528816 175.903846 
L 331.780632 209.293927 
L 334.032448 158.427847 
L 336.284264 187.956834 
L 338.53608 153.558393 
L 340.787896 182.258694 
L 343.039712 184.738217 
L 345.291528 190.243431 
L 347.543344 162.472891 
L 349.79516 229.313697 
L 352.046976 175.271629 
L 354.298792 164.260102 
L 356.550608 179.870473 
L 358.802424 161.756088 
L 361.05424 205.264701 
L 363.306056 154.17406 
L 365.557872 156.490949 
L 367.809688 203.128097 
L 370.061504 175.939512 
L 372.31332 189.778001 
L 374.565136 178.119966 
L 376.816952 138.527779 
L 379.068768 217.640699 
L 381.320584 185.938771 
L 383.5724 188.539278 
L 385.824216 268.938619 
L 388.076032 190.113836 
L 390.327848 190.133196 
L 392.579664 167.840814 
L 394.83148 204.950852 
L 397.083296 212.667911 
L 399.335112 180.962685 
L 401.586928 178.241255 
L 403.838744 208.040852 
L 406.09056 185.634388 
L 408.342376 193.140076 
L 410.594192 201.417287 
L 412.846008 144.44816 
L 415.097824 164.269079 
L 417.34964 170.512715 
L 419.601456 141.354741 
L 421.853272 202.863533 
L 424.105088 191.418823 
L 426.356904 167.274799 
L 428.60872 193.283595 
L 430.860536 177.632428 
L 433.112352 165.048725 
L 435.364168 197.270254 
L 437.615984 162.526756 
L 439.8678 186.673345 
L 442.119616 176.940788 
L 444.371432 187.916343 
L 446.623248 161.621119 
L 448.875064 178.618375 
L 451.12688 176.236322 
L 453.378696 168.797263 
L 455.630512 142.791398 
L 457.882328 180.54599 
L 460.134144 209.266445 
L 462.38596 174.952527 
L 464.637776 179.425014 
L 466.889592 165.184488 
L 469.141408 207.348845 
L 471.393224 171.05479 
L 473.64504 209.171478 
L 475.896856 164.754846 
L 478.148672 176.056587 
L 480.400488 134.204125 
L 482.652304 167.696746 
L 484.90412 192.699747 
L 487.155936 212.571051 
L 489.407752 165.261622 
L 491.659568 159.015971 
L 493.911384 168.256165 
L 496.1632 157.258746 
L 498.415016 199.291249 
L 500.666832 195.11942 
L 502.918648 173.211975 
L 505.170464 185.810458 
L 507.42228 168.14251 
L 509.674096 177.109285 
L 511.925912 200.247148 
L 514.177728 200.012875 
L 516.429544 194.868292 
L 518.68136 161.265131 
L 518.68136 161.265131 
" clip-path="url(#p235401af9a)" style="fill: none; stroke: #d62728; stroke-width: 1.5; stroke-linecap: square"/>
   </g>
   <g id="line2d_16">
    <path d="M 68.31816 164.381421 
L 70.569976 205.535266 
L 72.821792 204.75017 
L 75.073608 241.753759 
L 77.325424 198.550292 
L 79.57724 194.742209 
L 81.829056 216.267938 
L 84.080872 250.416548 
L 86.332688 210.99608 
L 88.584504 211.087138 
L 90.83632 208.153957 
L 93.088136 228.370257 
L 95.339952 215.060682 
L 97.591768 208.441362 
L 99.843584 261.528493 
L 102.0954 167.137097 
L 104.347216 198.600326 
L 106.599032 188.353374 
L 108.850848 205.743307 
L 111.102664 224.226872 
L 113.35448 191.03926 
L 115.606296 190.370415 
L 117.858112 211.655246 
L 120.109928 226.577182 
L 122.361744 204.9356 
L 124.61356 211.719677 
L 126.865376 163.464639 
L 129.117192 170.257449 
L 131.369008 258.037831 
L 135.87264 187.372482 
L 138.124456 216.96564 
L 140.376272 154.976149 
L 142.628088 213.989128 
L 144.879904 185.109153 
L 147.13172 198.316799 
L 149.383536 191.337078 
L 151.635352 239.871047 
L 153.887168 185.833177 
L 156.138984 264.388159 
L 158.3908 210.887387 
L 160.642616 228.314864 
L 162.894432 211.570264 
L 165.146248 192.777095 
L 167.398064 216.958647 
L 169.64988 191.797713 
L 171.901696 226.037107 
L 174.153512 232.026729 
L 176.405328 242.216089 
L 178.657144 205.543281 
L 180.90896 243.238282 
L 183.160776 235.78539 
L 185.412592 238.969166 
L 187.664408 174.912739 
L 189.916224 215.99461 
L 192.16804 212.358352 
L 194.419856 218.996223 
L 196.671672 235.062557 
L 198.923488 169.912194 
L 201.175304 221.633083 
L 203.42712 207.937151 
L 205.678936 199.91119 
L 207.930752 223.349374 
L 210.182568 189.132256 
L 212.434384 182.598727 
L 214.6862 243.310576 
L 216.938016 179.671195 
L 219.189832 188.927161 
L 221.441648 213.279914 
L 223.693464 206.893919 
L 225.94528 235.085597 
L 228.197096 241.182461 
L 230.448912 180.568602 
L 232.700728 228.694976 
L 234.952544 294.442976 
L 237.20436 229.395656 
L 239.456176 262.878871 
L 241.707992 191.601596 
L 243.959808 196.351593 
L 246.211624 256.842835 
L 248.46344 233.811559 
L 250.715256 215.863672 
L 252.967072 213.703341 
L 255.218888 187.776183 
L 257.470704 210.214649 
L 259.72252 229.97442 
L 261.974336 181.75998 
L 264.226152 289.241793 
L 266.477968 200.616313 
L 268.729784 195.541885 
L 270.9816 225.279631 
L 273.233416 211.013119 
L 275.485232 191.914559 
L 277.737048 252.409511 
L 279.988864 234.471793 
L 282.24068 234.257919 
L 284.492496 218.970084 
L 286.744312 207.908768 
L 288.996128 218.447643 
L 291.247944 188.00444 
L 293.49976 202.874939 
L 295.751576 229.867345 
L 298.003392 159.337576 
L 300.255208 165.609259 
L 302.507024 235.913642 
L 304.75884 164.852347 
L 307.010656 203.151976 
L 309.262472 162.69275 
L 311.514288 237.73058 
L 313.766104 235.79846 
L 316.01792 189.096575 
L 318.269736 233.642939 
L 320.521552 215.460688 
L 322.773368 201.109164 
L 325.025184 224.686256 
L 327.277 226.937095 
L 329.528816 192.458589 
L 331.780632 212.500192 
L 334.032448 193.597933 
L 336.284264 221.495793 
L 338.53608 158.46359 
L 340.787896 215.346346 
L 343.039712 215.49643 
L 345.291528 197.360976 
L 347.543344 197.857797 
L 349.79516 245.560316 
L 352.046976 203.76178 
L 354.298792 166.184038 
L 356.550608 208.993285 
L 358.802424 199.358229 
L 361.05424 242.375396 
L 363.306056 187.87599 
L 365.557872 189.703478 
L 367.809688 286.427519 
L 370.061504 231.791266 
L 372.31332 199.421332 
L 374.565136 222.285179 
L 376.816952 190.802179 
L 379.068768 223.705928 
L 381.320584 236.414707 
L 383.5724 203.730008 
L 385.824216 300.795518 
L 388.076032 213.831546 
L 390.327848 251.198224 
L 394.83148 219.008162 
L 397.083296 278.747608 
L 399.335112 260.992311 
L 401.586928 207.286444 
L 403.838744 229.763859 
L 406.09056 223.297875 
L 408.342376 222.768595 
L 410.594192 233.036066 
L 412.846008 193.202904 
L 415.097824 216.949883 
L 417.34964 186.419636 
L 419.601456 165.905168 
L 421.853272 240.271175 
L 424.105088 212.030243 
L 426.356904 208.140185 
L 428.60872 249.862289 
L 430.860536 206.655906 
L 433.112352 195.181347 
L 435.364168 226.513225 
L 437.615984 195.364716 
L 439.8678 208.744661 
L 442.119616 215.919797 
L 444.371432 210.159882 
L 446.623248 221.164706 
L 448.875064 214.621864 
L 451.12688 209.495175 
L 453.378696 182.786722 
L 455.630512 190.4892 
L 457.882328 184.719514 
L 460.134144 228.667723 
L 462.38596 207.609118 
L 464.637776 197.964933 
L 466.889592 210.866241 
L 469.141408 229.07315 
L 471.393224 200.188091 
L 473.64504 256.060441 
L 475.896856 191.243317 
L 478.148672 210.448692 
L 480.400488 152.77006 
L 482.652304 245.105406 
L 484.90412 220.173004 
L 487.155936 224.615794 
L 489.407752 234.533659 
L 491.659568 184.537275 
L 493.911384 199.66307 
L 496.1632 202.343627 
L 498.415016 225.93188 
L 500.666832 233.172257 
L 502.918648 219.26952 
L 505.170464 212.320488 
L 507.42228 228.922546 
L 509.674096 208.822711 
L 511.925912 226.085339 
L 514.177728 214.804805 
L 516.429544 220.426941 
L 518.68136 205.397854 
L 518.68136 205.397854 
" clip-path="url(#p235401af9a)" style="fill: none; stroke: #9467bd; stroke-width: 1.5; stroke-linecap: square"/>
   </g>
   <g id="line2d_17">
    <path d="M 68.31816 164.381421 
L 70.569976 205.535266 
L 72.821792 204.75017 
L 75.073608 241.753759 
L 77.325424 198.550292 
L 79.57724 194.742209 
L 81.829056 216.267938 
L 84.080872 250.416548 
L 86.332688 210.99608 
L 88.584504 211.087138 
L 90.83632 208.153957 
L 93.088136 228.370257 
L 95.339952 215.060682 
L 97.591768 208.441362 
L 99.843584 261.528493 
L 102.0954 167.137097 
L 104.347216 198.600326 
L 106.599032 188.353374 
L 108.850848 205.743307 
L 111.102664 224.226872 
L 113.35448 191.03926 
L 115.606296 190.370415 
L 117.858112 211.655246 
L 120.109928 226.577182 
L 122.361744 204.9356 
L 124.61356 211.719677 
L 126.865376 163.464639 
L 129.117192 170.257449 
L 131.369008 258.037831 
L 135.87264 187.372482 
L 138.124456 216.96564 
L 140.376272 154.976149 
L 142.628088 213.989128 
L 144.879904 185.109153 
L 147.13172 198.316799 
L 149.383536 191.337078 
L 151.635352 239.871047 
L 153.887168 185.833177 
L 156.138984 264.388159 
L 158.3908 210.887387 
L 160.642616 228.314864 
L 162.894432 211.570264 
L 165.146248 192.777095 
L 167.398064 216.958647 
L 169.64988 191.797713 
L 171.901696 226.037107 
L 174.153512 232.026729 
L 176.405328 242.216089 
L 178.657144 205.543281 
L 180.90896 243.238282 
L 183.160776 235.78539 
L 185.412592 238.969166 
L 187.664408 174.912739 
L 189.916224 215.99461 
L 192.16804 212.358352 
L 194.419856 218.996223 
L 196.671672 235.062557 
L 198.923488 169.912194 
L 201.175304 221.633083 
L 203.42712 207.937151 
L 205.678936 199.91119 
L 207.930752 223.349374 
L 210.182568 189.132256 
L 212.434384 182.598727 
L 214.6862 243.310576 
L 216.938016 179.671195 
L 219.189832 188.927161 
L 221.441648 213.279914 
L 223.693464 206.893919 
L 225.94528 235.085597 
L 228.197096 241.182461 
L 230.448912 180.568602 
L 232.700728 228.694976 
L 234.952544 294.442976 
L 237.20436 229.395656 
L 239.456176 262.878871 
L 241.707992 191.601596 
L 243.959808 196.351593 
L 246.211624 256.842835 
L 248.46344 233.811559 
L 250.715256 215.863672 
L 252.967072 213.703341 
L 255.218888 187.776183 
L 257.470704 210.214649 
L 259.72252 229.97442 
L 261.974336 181.75998 
L 264.226152 289.241793 
L 266.477968 200.616313 
L 268.729784 195.541885 
L 270.9816 225.279631 
L 273.233416 211.013119 
L 275.485232 191.914559 
L 277.737048 252.409511 
L 279.988864 234.471793 
L 282.24068 234.257919 
L 284.492496 218.970084 
L 286.744312 207.908768 
L 288.996128 218.447643 
L 291.247944 188.00444 
L 293.49976 202.874939 
L 295.751576 229.867345 
L 298.003392 159.337576 
L 300.255208 165.609259 
L 302.507024 235.913642 
L 304.75884 164.852347 
L 307.010656 203.151976 
L 309.262472 162.69275 
L 311.514288 237.73058 
L 313.766104 235.79846 
L 316.01792 189.096575 
L 318.269736 233.642939 
L 320.521552 215.460688 
L 322.773368 201.109164 
L 325.025184 224.686256 
L 327.277 226.937095 
L 329.528816 192.458589 
L 331.780632 212.500192 
L 334.032448 193.597933 
L 336.284264 221.495793 
L 338.53608 158.46359 
L 340.787896 215.346346 
L 343.039712 215.49643 
L 345.291528 197.360976 
L 347.543344 197.857797 
L 349.79516 245.560316 
L 352.046976 203.76178 
L 354.298792 166.184038 
L 356.550608 208.993285 
L 358.802424 199.358229 
L 361.05424 242.375396 
L 363.306056 187.87599 
L 365.557872 189.703478 
L 367.809688 286.427519 
L 370.061504 231.791266 
L 372.31332 199.421332 
L 374.565136 222.285179 
L 376.816952 190.802179 
L 379.068768 223.705928 
L 381.320584 236.414707 
L 383.5724 203.730008 
L 385.824216 300.795518 
L 388.076032 213.831546 
L 390.327848 251.198224 
L 394.83148 219.008162 
L 397.083296 278.747608 
L 399.335112 260.992311 
L 401.586928 207.286444 
L 403.838744 229.763859 
L 406.09056 223.297875 
L 408.342376 222.768595 
L 410.594192 233.036066 
L 412.846008 193.202904 
L 415.097824 216.949883 
L 417.34964 186.419636 
L 419.601456 165.905168 
L 421.853272 240.271175 
L 424.105088 212.030243 
L 426.356904 208.140185 
L 428.60872 249.862289 
L 430.860536 206.655906 
L 433.112352 195.181347 
L 435.364168 226.513225 
L 437.615984 195.364716 
L 439.8678 208.744661 
L 442.119616 215.919797 
L 444.371432 210.159882 
L 446.623248 221.164706 
L 448.875064 214.621864 
L 451.12688 209.495175 
L 453.378696 182.786722 
L 455.630512 190.4892 
L 457.882328 184.719514 
L 460.134144 228.667723 
L 462.38596 207.609118 
L 464.637776 197.964933 
L 466.889592 210.866241 
L 469.141408 229.07315 
L 471.393224 200.188091 
L 473.64504 256.060441 
L 475.896856 191.243317 
L 478.148672 210.448692 
L 480.400488 152.77006 
L 482.652304 245.105406 
L 484.90412 220.173004 
L 487.155936 224.615794 
L 489.407752 234.533659 
L 491.659568 184.537275 
L 493.911384 199.66307 
L 496.1632 202.343627 
L 498.415016 225.93188 
L 500.666832 233.172257 
L 502.918648 219.26952 
L 505.170464 212.320488 
L 507.42228 228.922546 
L 509.674096 208.822711 
L 511.925912 226.085339 
L 514.177728 214.804805 
L 516.429544 220.426941 
L 518.68136 205.397854 
L 518.68136 205.397854 
" clip-path="url(#p235401af9a)" style="fill: none; stroke: #8c564b; stroke-width: 1.5; stroke-linecap: square"/>
   </g>
   <g id="line2d_18">
    <path d="M 45.8 60.220139 
L 541.19952 60.220139 
" clip-path="url(#p235401af9a)" style="fill: none; stroke-dasharray: 1.5,2.475; stroke-dashoffset: 0; stroke: #000000; stroke-width: 1.5"/>
   </g>
   <g id="line2d_19">
    <path d="M 45.8 104.493491 
L 541.19952 104.493491 
" clip-path="url(#p235401af9a)" style="fill: none; stroke-dasharray: 1.5,2.475; stroke-dashoffset: 0; stroke: #000000; stroke-width: 1.5"/>
   </g>
   <g id="line2d_20">
    <path d="M 45.8 150.423509 
L 541.19952 150.423509 
" clip-path="url(#p235401af9a)" style="fill: none; stroke-dasharray: 1.5,2.475; stroke-dashoffset: 0; stroke: #000000; stroke-width: 1.5"/>
   </g>
   <g id="line2d_21">
    <path d="M 45.8 195.885284 
L 541.19952 195.885284 
" clip-path="url(#p235401af9a)" style="fill: none; stroke-dasharray: 1.5,2.475; stroke-dashoffset: 0; stroke: #000000; stroke-width: 1.5"/>
   </g>
   <g id="line2d_22">
    <path d="M 45.8 238.838379 
L 541.19952 238.838379 
" clip-path="url(#p235401af9a)" style="fill: none; stroke-dasharray: 1.5,2.475; stroke-dashoffset: 0; stroke: #000000; stroke-width: 1.5"/>
   </g>
   <g id="line2d_23">
    <path d="M 45.8 238.838379 
L 541.19952 238.838379 
" clip-path="url(#p235401af9a)" style="fill: none; stroke-dasharray: 1.5,2.475; stroke-dashoffset: 0; stroke: #000000; stroke-width: 1.5"/>
   </g>
   <g id="patch_3">
    <path d="M 45.8 274.94952 
L 45.8 22.32 
" style="fill: none; stroke: #000000; stroke-width: 0.8; stroke-linejoin: miter; stroke-linecap: square"/>
   </g>
   <g id="patch_4">
    <path d="M 45.8 274.94952 
L 541.19952 274.94952 
" style="fill: none; stroke: #000000; stroke-width: 0.8; stroke-linejoin: miter; stroke-linecap: square"/>
   </g>
   <g id="text_14">
    <!-- Temperature percentiles during the NPT run (1000 H$_2$O) -->
    <g transform="translate(142.11976 16.32) scale(0.12 -0.12)">
     <defs>
      <path id="IBMPlexSans-63" d="M 1773 -77 
C 2400 -77 2829 230 3040 704 
L 2669 954 
C 2490 576 2189 378 1773 378 
C 1165 378 851 794 851 1370 
L 851 1933 
C 851 2509 1165 2925 1773 2925 
C 2176 2925 2458 2726 2579 2387 
L 3008 2605 
C 2816 3059 2426 3379 1773 3379 
C 845 3379 301 2707 301 1651 
C 301 595 845 -77 1773 -77 
z
" transform="scale(0.015625)"/>
      <path id="IBMPlexSans-6e" d="M 1056 0 
L 1056 2291 
C 1056 2714 1453 2918 1862 2918 
C 2355 2918 2611 2618 2611 2029 
L 2611 0 
L 3123 0 
L 3123 2118 
C 3123 2918 2694 3379 2016 3379 
C 1523 3379 1242 3136 1082 2765 
L 1056 2765 
L 1056 3302 
L 544 3302 
L 544 0 
L 1056 0 
z
" transform="scale(0.015625)"/>
      <path id="IBMPlexSans-6c" d="M 1542 0 
L 1542 448 
L 1056 448 
L 1056 4736 
L 544 4736 
L 544 531 
C 544 224 736 0 1088 0 
L 1542 0 
z
" transform="scale(0.015625)"/>
      <path id="IBMPlexSans-64" d="M 2656 0 
L 3168 0 
L 3168 4736 
L 2656 4736 
L 2656 2765 
L 2630 2765 
C 2458 3181 2118 3379 1664 3379 
C 838 3379 320 2707 320 1651 
C 320 595 838 -77 1664 -77 
C 2118 -77 2432 128 2630 538 
L 2656 538 
L 2656 0 
z
M 1805 384 
C 1229 384 870 781 870 1370 
L 870 1933 
C 870 2522 1229 2918 1805 2918 
C 2272 2918 2656 2650 2656 2285 
L 2656 1056 
C 2656 627 2272 384 1805 384 
z
" transform="scale(0.015625)"/>
      <path id="IBMPlexSans-67" d="M 3328 -365 
C 3328 179 2976 512 2157 512 
L 1453 512 
C 1152 512 947 563 947 762 
C 947 966 1165 1075 1382 1133 
C 1478 1114 1594 1101 1702 1101 
C 2458 1101 2950 1568 2950 2240 
C 2950 2592 2810 2886 2573 3091 
L 2573 3302 
L 3200 3302 
L 3200 3750 
L 2707 3750 
C 2432 3750 2323 3565 2323 3309 
L 2323 3251 
C 2144 3334 1933 3379 1696 3379 
C 947 3379 454 2912 454 2240 
C 454 1779 685 1414 1075 1229 
L 1075 1203 
C 742 1120 506 960 506 627 
C 506 403 614 256 800 166 
L 800 96 
C 474 6 275 -186 275 -544 
C 275 -1062 698 -1357 1728 -1357 
C 2790 -1357 3328 -1043 3328 -365 
z
M 2848 -403 
C 2848 -762 2515 -941 1946 -941 
L 1472 -941 
C 954 -941 755 -704 755 -416 
C 755 -211 851 -64 1062 32 
L 2163 32 
C 2675 32 2848 -141 2848 -403 
z
M 1702 1510 
C 1267 1510 992 1715 992 2150 
L 992 2330 
C 992 2765 1267 2970 1702 2970 
C 2138 2970 2413 2765 2413 2330 
L 2413 2150 
C 2413 1715 2138 1510 1702 1510 
z
" transform="scale(0.015625)"/>
      <path id="IBMPlexSans-68" d="M 544 0 
L 1056 0 
L 1056 2291 
C 1056 2714 1453 2918 1862 2918 
C 2355 2918 2611 2618 2611 2029 
L 2611 0 
L 3123 0 
L 3123 2118 
C 3123 2918 2694 3379 2016 3379 
C 1523 3379 1242 3136 1082 2765 
L 1056 2765 
L 1056 4736 
L 544 4736 
L 544 0 
z
" transform="scale(0.015625)"/>
      <path id="IBMPlexSans-4e" d="M 3309 0 
L 3930 0 
L 3930 4467 
L 3405 4467 
L 3405 749 
L 3386 749 
L 2848 1741 
L 1216 4467 
L 595 4467 
L 595 0 
L 1120 0 
L 1120 3718 
L 1139 3718 
L 1677 2726 
L 3309 0 
z
" transform="scale(0.015625)"/>
      <path id="IBMPlexSans-50" d="M 1133 0 
L 1133 1907 
L 2374 1907 
C 3174 1907 3622 2400 3622 3187 
C 3622 3974 3174 4467 2374 4467 
L 595 4467 
L 595 0 
L 1133 0 
z
M 1133 3994 
L 2374 3994 
C 2797 3994 3046 3763 3046 3354 
L 3046 3021 
C 3046 2611 2797 2381 2374 2381 
L 1133 2381 
L 1133 3994 
z
" transform="scale(0.015625)"/>
      <path id="IBMPlexSans-28" d="M 531 1997 
C 531 749 1056 -339 1690 -877 
L 2176 -877 
C 1485 -262 1011 819 1011 1715 
L 1011 2266 
C 1011 3162 1466 4224 2176 4864 
L 1690 4864 
C 1037 4307 531 3232 531 1997 
z
" transform="scale(0.015625)"/>
      <path id="IBMPlexSans-48" d="M 3392 0 
L 3930 0 
L 3930 4467 
L 3392 4467 
L 3392 2496 
L 1133 2496 
L 1133 4467 
L 595 4467 
L 595 0 
L 1133 0 
L 1133 2022 
L 3392 2022 
L 3392 0 
z
" transform="scale(0.015625)"/>
      <path id="DejaVuSans-32" d="M 1228 531 
L 3431 531 
L 3431 0 
L 469 0 
L 469 531 
Q 828 903 1448 1529 
Q 2069 2156 2228 2338 
Q 2531 2678 2651 2914 
Q 2772 3150 2772 3378 
Q 2772 3750 2511 3984 
Q 2250 4219 1831 4219 
Q 1534 4219 1204 4116 
Q 875 4013 500 3803 
L 500 4441 
Q 881 4594 1212 4672 
Q 1544 4750 1819 4750 
Q 2544 4750 2975 4387 
Q 3406 4025 3406 3419 
Q 3406 3131 3298 2873 
Q 3191 2616 2906 2266 
Q 2828 2175 2409 1742 
Q 1991 1309 1228 531 
z
" transform="scale(0.015625)"/>
      <path id="IBMPlexSans-4f" d="M 2266 -77 
C 3418 -77 4160 736 4160 2234 
C 4160 3731 3418 4544 2266 4544 
C 1114 4544 371 3731 371 2234 
C 371 736 1114 -77 2266 -77 
z
M 2266 403 
C 1491 403 947 979 947 1862 
L 947 2605 
C 947 3488 1491 4064 2266 4064 
C 3040 4064 3584 3488 3584 2605 
L 3584 1862 
C 3584 979 3040 403 2266 403 
z
" transform="scale(0.015625)"/>
      <path id="IBMPlexSans-29" d="M 1613 1997 
C 1613 3232 1107 4307 454 4864 
L -32 4864 
C 678 4224 1133 3162 1133 2266 
L 1133 1715 
C 1133 819 659 -262 -32 -877 
L 454 -877 
C 1088 -339 1613 749 1613 1997 
z
" transform="scale(0.015625)"/>
     </defs>
     <use xlink:href="#IBMPlexSans-54"/>
     <use xlink:href="#IBMPlexSans-65" transform="translate(57.199997 0)"/>
     <use xlink:href="#IBMPlexSans-6d" transform="translate(112.099991 0)"/>
     <use xlink:href="#IBMPlexSans-70" transform="translate(199.399979 0)"/>
     <use xlink:href="#IBMPlexSans-65" transform="translate(257.399963 0)"/>
     <use xlink:href="#IBMPlexSans-72" transform="translate(312.299957 0)"/>
     <use xlink:href="#IBMPlexSans-61" transform="translate(348.999954 0)"/>
     <use xlink:href="#IBMPlexSans-74" transform="translate(402.399948 0)"/>
     <use xlink:href="#IBMPlexSans-75" transform="translate(437.499939 0)"/>
     <use xlink:href="#IBMPlexSans-72" transform="translate(494.299927 0)"/>
     <use xlink:href="#IBMPlexSans-65" transform="translate(530.999924 0)"/>
     <use xlink:href="#IBMPlexSans-20" transform="translate(585.899918 0)"/>
     <use xlink:href="#IBMPlexSans-70" transform="translate(609.499908 0)"/>
     <use xlink:href="#IBMPlexSans-65" transform="translate(667.499893 0)"/>
     <use xlink:href="#IBMPlexSans-72" transform="translate(722.399887 0)"/>
     <use xlink:href="#IBMPlexSans-63" transform="translate(759.099884 0)"/>
     <use xlink:href="#IBMPlexSans-65" transform="translate(809.399872 0)"/>
     <use xlink:href="#IBMPlexSans-6e" transform="translate(864.299866 0)"/>
     <use xlink:href="#IBMPlexSans-74" transform="translate(921.099854 0)"/>
     <use xlink:href="#IBMPlexSans-69" transform="translate(956.199844 0)"/>
     <use xlink:href="#IBMPlexSans-6c" transform="translate(981.199829 0)"/>
     <use xlink:href="#IBMPlexSans-65" transform="translate(1008.399826 0)"/>
     <use xlink:href="#IBMPlexSans-73" transform="translate(1063.29982 0)"/>
     <use xlink:href="#IBMPlexSans-20" transform="translate(1111.999817 0)"/>
     <use xlink:href="#IBMPlexSans-64" transform="translate(1135.599808 0)"/>
     <use xlink:href="#IBMPlexSans-75" transform="translate(1193.599792 0)"/>
     <use xlink:href="#IBMPlexSans-72" transform="translate(1250.39978 0)"/>
     <use xlink:href="#IBMPlexSans-69" transform="translate(1287.099777 0)"/>
     <use xlink:href="#IBMPlexSans-6e" transform="translate(1312.099762 0)"/>
     <use xlink:href="#IBMPlexSans-67" transform="translate(1368.89975 0)"/>
     <use xlink:href="#IBMPlexSans-20" transform="translate(1421.699738 0)"/>
     <use xlink:href="#IBMPlexSans-74" transform="translate(1445.299728 0)"/>
     <use xlink:href="#IBMPlexSans-68" transform="translate(1480.399719 0)"/>
     <use xlink:href="#IBMPlexSans-65" transform="translate(1537.199707 0)"/>
     <use xlink:href="#IBMPlexSans-20" transform="translate(1592.099701 0)"/>
     <use xlink:href="#IBMPlexSans-4e" transform="translate(1615.699692 0)"/>
     <use xlink:href="#IBMPlexSans-50" transform="translate(1686.399673 0)"/>
     <use xlink:href="#IBMPlexSans-54" transform="translate(1746.999664 0)"/>
     <use xlink:href="#IBMPlexSans-20" transform="translate(1804.199661 0)"/>
     <use xlink:href="#IBMPlexSans-72" transform="translate(1827.799652 0)"/>
     <use xlink:href="#IBMPlexSans-75" transform="translate(1864.499649 0)"/>
     <use xlink:href="#IBMPlexSans-6e" transform="translate(1921.299637 0)"/>
     <use xlink:href="#IBMPlexSans-20" transform="translate(1978.099625 0)"/>
     <use xlink:href="#IBMPlexSans-28" transform="translate(2001.699615 0)"/>
     <use xlink:href="#IBMPlexSans-31" transform="translate(2035.1996 0)"/>
     <use xlink:href="#IBMPlexSans-30" transform="translate(2095.199585 0)"/>
     <use xlink:href="#IBMPlexSans-30" transform="translate(2155.19957 0)"/>
     <use xlink:href="#IBMPlexSans-30" transform="translate(2215.199554 0)"/>
     <use xlink:href="#IBMPlexSans-20" transform="translate(2275.199539 0)"/>
     <use xlink:href="#IBMPlexSans-48" transform="translate(2298.79953 0)"/>
     <use xlink:href="#DejaVuSans-32" transform="translate(2370.456543 -16.40625) scale(0.7)"/>
     <use xlink:href="#IBMPlexSans-4f" transform="translate(2417.727051 0)"/>
     <use xlink:href="#IBMPlexSans-29" transform="translate(2488.527039 0)"/>
    </g>
   </g>
   <g id="legend_1">
    <g id="patch_5">
     <path d="M 478.569832 116.72 
L 534.19952 116.72 
Q 536.19952 116.72 536.19952 114.72 
L 536.19952 29.32 
Q 536.19952 27.32 534.19952 27.32 
L 478.569832 27.32 
Q 476.569832 27.32 476.569832 29.32 
L 476.569832 114.72 
Q 476.569832 116.72 478.569832 116.72 
z
" style="fill: #ffffff; opacity: 0.8; stroke: #cccccc; stroke-linejoin: miter"/>
    </g>
    <g id="line2d_24">
     <path d="M 480.569832 35.22 
L 490.569832 35.22 
L 500.569832 35.22 
" style="fill: none; stroke: #1f77b4; stroke-width: 1.5; stroke-linecap: square"/>
    </g>
    <g id="text_15">
     <!-- 95 % -->
     <g transform="translate(508.569832 38.72) scale(0.1 -0.1)">
      <defs>
       <path id="IBMPlexSans-25" d="M 1664 0 
L 4762 4467 
L 4269 4467 
L 1171 0 
L 1664 0 
z
M 1427 2010 
C 2074 2010 2438 2458 2438 3277 
C 2438 4096 2074 4544 1427 4544 
C 781 4544 416 4096 416 3277 
C 416 2458 781 2010 1427 2010 
z
M 1427 2342 
C 1056 2342 877 2598 877 3085 
L 877 3469 
C 877 3955 1056 4211 1427 4211 
C 1798 4211 1978 3955 1978 3469 
L 1978 3085 
C 1978 2598 1798 2342 1427 2342 
z
M 4506 -77 
C 5152 -77 5517 371 5517 1190 
C 5517 2010 5152 2458 4506 2458 
C 3859 2458 3494 2010 3494 1190 
C 3494 371 3859 -77 4506 -77 
z
M 4506 256 
C 4134 256 3955 512 3955 998 
L 3955 1382 
C 3955 1869 4134 2125 4506 2125 
C 4877 2125 5056 1869 5056 1382 
L 5056 998 
C 5056 512 4877 256 4506 256 
z
" transform="scale(0.015625)"/>
      </defs>
      <use xlink:href="#IBMPlexSans-39"/>
      <use xlink:href="#IBMPlexSans-35" transform="translate(59.999985 0)"/>
      <use xlink:href="#IBMPlexSans-20" transform="translate(119.999969 0)"/>
      <use xlink:href="#IBMPlexSans-25" transform="translate(143.59996 0)"/>
     </g>
    </g>
    <g id="line2d_25">
     <path d="M 480.569832 49.62 
L 490.569832 49.62 
L 500.569832 49.62 
" style="fill: none; stroke: #ff7f0e; stroke-width: 1.5; stroke-linecap: square"/>
    </g>
    <g id="text_16">
     <!-- 80 % -->
     <g transform="translate(508.569832 53.12) scale(0.1 -0.1)">
      <use xlink:href="#IBMPlexSans-38"/>
      <use xlink:href="#IBMPlexSans-30" transform="translate(59.999985 0)"/>
      <use xlink:href="#IBMPlexSans-20" transform="translate(119.999969 0)"/>
      <use xlink:href="#IBMPlexSans-25" transform="translate(143.59996 0)"/>
     </g>
    </g>
    <g id="line2d_26">
     <path d="M 480.569832 64.02 
L 490.569832 64.02 
L 500.569832 64.02 
" style="fill: none; stroke: #2ca02c; stroke-width: 1.5; stroke-linecap: square"/>
    </g>
    <g id="text_17">
     <!-- 50 % -->
     <g transform="translate(508.569832 67.52) scale(0.1 -0.1)">
      <use xlink:href="#IBMPlexSans-35"/>
      <use xlink:href="#IBMPlexSans-30" transform="translate(59.999985 0)"/>
      <use xlink:href="#IBMPlexSans-20" transform="translate(119.999969 0)"/>
      <use xlink:href="#IBMPlexSans-25" transform="translate(143.59996 0)"/>
     </g>
    </g>
    <g id="line2d_27">
     <path d="M 480.569832 78.42 
L 490.569832 78.42 
L 500.569832 78.42 
" style="fill: none; stroke: #d62728; stroke-width: 1.5; stroke-linecap: square"/>
    </g>
    <g id="text_18">
     <!-- 20 % -->
     <g transform="translate(508.569832 81.92) scale(0.1 -0.1)">
      <use xlink:href="#IBMPlexSans-32"/>
      <use xlink:href="#IBMPlexSans-30" transform="translate(59.999985 0)"/>
      <use xlink:href="#IBMPlexSans-20" transform="translate(119.999969 0)"/>
      <use xlink:href="#IBMPlexSans-25" transform="translate(143.59996 0)"/>
     </g>
    </g>
    <g id="line2d_28">
     <path d="M 480.569832 92.82 
L 490.569832 92.82 
L 500.569832 92.82 
" style="fill: none; stroke: #9467bd; stroke-width: 1.5; stroke-linecap: square"/>
    </g>
    <g id="text_19">
     <!-- 5 % -->
     <g transform="translate(508.569832 96.32) scale(0.1 -0.1)">
      <use xlink:href="#IBMPlexSans-35"/>
      <use xlink:href="#IBMPlexSans-20" transform="translate(59.999985 0)"/>
      <use xlink:href="#IBMPlexSans-25" transform="translate(83.599976 0)"/>
     </g>
    </g>
    <g id="line2d_29">
     <path d="M 480.569832 107.22 
L 490.569832 107.22 
L 500.569832 107.22 
" style="fill: none; stroke: #8c564b; stroke-width: 1.5; stroke-linecap: square"/>
    </g>
    <g id="text_20">
     <!-- 5 % -->
     <g transform="translate(508.569832 110.72) scale(0.1 -0.1)">
      <use xlink:href="#IBMPlexSans-35"/>
      <use xlink:href="#IBMPlexSans-20" transform="translate(59.999985 0)"/>
      <use xlink:href="#IBMPlexSans-25" transform="translate(83.599976 0)"/>
     </g>
    </g>
   </g>
  </g>
 </g>
 <defs>
  <clipPath id="p235401af9a">
   <rect x="45.8" y="22.32" width="495.39952" height="252.62952"/>
  </clipPath>
 </defs>
</svg>