<?xml version="1.0" encoding="utf-8" standalone="no"?>
<!DOCTYPE svg PUBLIC "-//W3C//DTD SVG 1.1//EN"
  "http://www.w3.org/Graphics/SVG/1.1/DTD/svg11.dtd">
<svg xmlns:xlink="http://www.w3.org/1999/xlink" width="335.962677pt" height="312.14952pt" viewBox="0 0 335.962677 312.14952" xmlns="http://www.w3.org/2000/svg" version="1.1">
 <metadata>
  <rdf:RDF xmlns:dc="http://purl.org/dc/elements/1.1/" xmlns:cc="http://creativecommons.org/ns#" xmlns:rdf="http://www.w3.org/1999/02/22-rdf-syntax-ns#">
   <cc:Work>
    <dc:type rdf:resource="http://purl.org/dc/dcmitype/StillImage"/>
    <dc:date>2025-06-24T10:10:35.742051</dc:date>
    <dc:format>image/svg+xml</dc:format>
    <dc:creator>
     <cc:Agent>
      <dc:title>Matplotlib v3.10.1, https://matplotlib.org/</dc:title>
     </cc:Agent>
    </dc:creator>
   </cc:Work>
  </rdf:RDF>
 </metadata>
 <defs>
  <style type="text/css">*{stroke-linejoin: round; stroke-linecap: butt}</style>
 </defs>
 <g id="figure_1">
  <g id="patch_1">
   <path d="M 0 312.14952 
L 335.962677 312.14952 
L 335.962677 0 
L 0 0 
z
" style="fill: #ffffff"/>
  </g>
  <g id="axes_1">
   <g id="patch_2">
    <path d="M 45.8 275.14952 
L 328.762677 275.14952 
L 328.762677 22.08 
L 45.8 22.08 
z
" style="fill: #ffffff"/>
   </g>
   <g id="matplotlib.axis_1">
    <g id="xtick_1">
     <g id="line2d_1">
      <defs>
       <path id="m88ca99308a" d="M 0 0 
L 0 3.5 
" style="stroke: #000000; stroke-width: 0.8"/>
      </defs>
      <g>
       <use xlink:href="#m88ca99308a" x="47.100196" y="275.14952" style="stroke: #000000; stroke-width: 0.8"/>
      </g>
     </g>
     <g id="text_1">
      <!-- −70 -->
      <g transform="translate(38.100196 289.54952) scale(0.1 -0.1)">
       <defs>
        <path id="IBMPlexSans-2212" d="M 3411 1734 
L 3411 2170 
L 429 2170 
L 429 1734 
L 3411 1734 
z
" transform="scale(0.015625)"/>
        <path id="IBMPlexSans-37" d="M 1696 0 
L 3373 3994 
L 3373 4467 
L 442 4467 
L 442 3174 
L 922 3174 
L 922 4006 
L 2829 4006 
L 1120 0 
L 1696 0 
z
" transform="scale(0.015625)"/>
        <path id="IBMPlexSans-30" d="M 1920 -77 
C 2989 -77 3456 774 3456 2234 
C 3456 3693 2989 4544 1920 4544 
C 851 4544 384 3693 384 2234 
C 384 774 851 -77 1920 -77 
z
M 1920 390 
C 1222 390 947 1005 947 1869 
L 947 2598 
C 947 3462 1222 4077 1920 4077 
C 2618 4077 2893 3462 2893 2598 
L 2893 1869 
C 2893 1005 2618 390 1920 390 
z
" transform="scale(0.015625)"/>
       </defs>
       <use xlink:href="#IBMPlexSans-2212"/>
       <use xlink:href="#IBMPlexSans-37" transform="translate(59.999985 0)"/>
       <use xlink:href="#IBMPlexSans-30" transform="translate(119.999969 0)"/>
      </g>
     </g>
    </g>
    <g id="xtick_2">
     <g id="line2d_2">
      <g>
       <use xlink:href="#m88ca99308a" x="82.367208" y="275.14952" style="stroke: #000000; stroke-width: 0.8"/>
      </g>
     </g>
     <g id="text_2">
      <!-- −60 -->
      <g transform="translate(73.367208 289.54952) scale(0.1 -0.1)">
       <defs>
        <path id="IBMPlexSans-36" d="M 1926 -77 
C 2822 -77 3411 525 3411 1402 
C 3411 2246 2861 2778 2093 2778 
C 1549 2778 1229 2502 1018 2138 
L 986 2150 
C 1229 3187 1760 3770 2714 4467 
L 2022 4467 
C 1306 4000 429 2963 429 1638 
C 429 576 998 -77 1926 -77 
z
M 1920 390 
C 1331 390 986 730 986 1331 
L 986 1382 
C 986 1984 1331 2323 1920 2323 
C 2509 2323 2854 1984 2854 1382 
L 2854 1331 
C 2854 730 2509 390 1920 390 
z
" transform="scale(0.015625)"/>
       </defs>
       <use xlink:href="#IBMPlexSans-2212"/>
       <use xlink:href="#IBMPlexSans-36" transform="translate(59.999985 0)"/>
       <use xlink:href="#IBMPlexSans-30" transform="translate(119.999969 0)"/>
      </g>
     </g>
    </g>
    <g id="xtick_3">
     <g id="line2d_3">
      <g>
       <use xlink:href="#m88ca99308a" x="117.63422" y="275.14952" style="stroke: #000000; stroke-width: 0.8"/>
      </g>
     </g>
     <g id="text_3">
      <!-- −50 -->
      <g transform="translate(108.63422 289.54952) scale(0.1 -0.1)">
       <defs>
        <path id="IBMPlexSans-35" d="M 3187 4467 
L 794 4467 
L 634 2010 
L 1088 1946 
C 1274 2150 1478 2323 1888 2323 
C 2496 2323 2822 1984 2822 1395 
L 2822 1331 
C 2822 742 2496 403 1888 403 
C 1350 403 1126 640 896 992 
L 493 685 
C 762 301 1146 -77 1888 -77 
C 2829 -77 3392 531 3392 1402 
C 3392 2266 2829 2784 2061 2784 
C 1594 2784 1357 2592 1146 2291 
L 1101 2291 
L 1229 3994 
L 3187 3994 
L 3187 4467 
z
" transform="scale(0.015625)"/>
       </defs>
       <use xlink:href="#IBMPlexSans-2212"/>
       <use xlink:href="#IBMPlexSans-35" transform="translate(59.999985 0)"/>
       <use xlink:href="#IBMPlexSans-30" transform="translate(119.999969 0)"/>
      </g>
     </g>
    </g>
    <g id="xtick_4">
     <g id="line2d_4">
      <g>
       <use xlink:href="#m88ca99308a" x="152.901232" y="275.14952" style="stroke: #000000; stroke-width: 0.8"/>
      </g>
     </g>
     <g id="text_4">
      <!-- −40 -->
      <g transform="translate(143.901232 289.54952) scale(0.1 -0.1)">
       <defs>
        <path id="IBMPlexSans-34" d="M 2912 0 
L 2912 877 
L 3558 877 
L 3558 1325 
L 2912 1325 
L 2912 4467 
L 2112 4467 
L 243 1350 
L 243 877 
L 2400 877 
L 2400 0 
L 2912 0 
z
M 2368 4051 
L 2400 4051 
L 2400 1325 
L 749 1325 
L 2368 4051 
z
" transform="scale(0.015625)"/>
       </defs>
       <use xlink:href="#IBMPlexSans-2212"/>
       <use xlink:href="#IBMPlexSans-34" transform="translate(59.999985 0)"/>
       <use xlink:href="#IBMPlexSans-30" transform="translate(119.999969 0)"/>
      </g>
     </g>
    </g>
    <g id="xtick_5">
     <g id="line2d_5">
      <g>
       <use xlink:href="#m88ca99308a" x="188.168244" y="275.14952" style="stroke: #000000; stroke-width: 0.8"/>
      </g>
     </g>
     <g id="text_5">
      <!-- −30 -->
      <g transform="translate(179.168244 289.54952) scale(0.1 -0.1)">
       <defs>
        <path id="IBMPlexSans-33" d="M 1184 2573 
L 1184 2106 
L 1709 2106 
C 2336 2106 2669 1805 2669 1280 
L 2669 1229 
C 2669 704 2336 403 1709 403 
C 1165 403 902 640 672 992 
L 269 685 
C 544 301 941 -77 1715 -77 
C 2624 -77 3232 454 3232 1222 
C 3232 1894 2771 2253 2291 2349 
L 2291 2374 
C 2765 2496 3149 2842 3149 3418 
C 3149 4141 2547 4544 1792 4544 
C 1075 4544 685 4173 461 3814 
L 858 3507 
C 1043 3846 1318 4064 1779 4064 
C 2253 4064 2579 3827 2579 3360 
L 2579 3315 
C 2579 2886 2272 2573 1670 2573 
L 1184 2573 
z
" transform="scale(0.015625)"/>
       </defs>
       <use xlink:href="#IBMPlexSans-2212"/>
       <use xlink:href="#IBMPlexSans-33" transform="translate(59.999985 0)"/>
       <use xlink:href="#IBMPlexSans-30" transform="translate(119.999969 0)"/>
      </g>
     </g>
    </g>
    <g id="xtick_6">
     <g id="line2d_6">
      <g>
       <use xlink:href="#m88ca99308a" x="223.435256" y="275.14952" style="stroke: #000000; stroke-width: 0.8"/>
      </g>
     </g>
     <g id="text_6">
      <!-- −20 -->
      <g transform="translate(214.435256 289.54952) scale(0.1 -0.1)">
       <defs>
        <path id="IBMPlexSans-32" d="M 3411 474 
L 1062 474 
L 2266 1555 
C 2835 2067 3245 2554 3245 3245 
C 3245 4006 2746 4544 1875 4544 
C 1011 4544 614 4019 442 3494 
L 922 3309 
C 1043 3731 1299 4064 1850 4064 
C 2400 4064 2675 3725 2675 3232 
L 2675 3155 
C 2675 2726 2355 2278 1939 1894 
L 480 550 
L 480 0 
L 3411 0 
L 3411 474 
z
" transform="scale(0.015625)"/>
       </defs>
       <use xlink:href="#IBMPlexSans-2212"/>
       <use xlink:href="#IBMPlexSans-32" transform="translate(59.999985 0)"/>
       <use xlink:href="#IBMPlexSans-30" transform="translate(119.999969 0)"/>
      </g>
     </g>
    </g>
    <g id="xtick_7">
     <g id="line2d_7">
      <g>
       <use xlink:href="#m88ca99308a" x="258.702268" y="275.14952" style="stroke: #000000; stroke-width: 0.8"/>
      </g>
     </g>
     <g id="text_7">
      <!-- −10 -->
      <g transform="translate(249.702268 289.54952) scale(0.1 -0.1)">
       <defs>
        <path id="IBMPlexSans-31" d="M 3501 0 
L 3501 474 
L 2349 474 
L 2349 4467 
L 1510 4467 
L 326 3360 
L 640 3021 
L 1766 4070 
L 1811 4070 
L 1811 474 
L 563 474 
L 563 0 
L 3501 0 
z
" transform="scale(0.015625)"/>
       </defs>
       <use xlink:href="#IBMPlexSans-2212"/>
       <use xlink:href="#IBMPlexSans-31" transform="translate(59.999985 0)"/>
       <use xlink:href="#IBMPlexSans-30" transform="translate(119.999969 0)"/>
      </g>
     </g>
    </g>
    <g id="xtick_8">
     <g id="line2d_8">
      <g>
       <use xlink:href="#m88ca99308a" x="293.969279" y="275.14952" style="stroke: #000000; stroke-width: 0.8"/>
      </g>
     </g>
     <g id="text_8">
      <!-- 0 -->
      <g transform="translate(290.969279 289.54952) scale(0.1 -0.1)">
       <use xlink:href="#IBMPlexSans-30"/>
      </g>
     </g>
    </g>
    <g id="text_9">
     <!-- x [a$_0$] -->
     <g transform="translate(175.281338 302.94952) scale(0.1 -0.1)">
      <defs>
       <path id="IBMPlexSans-78" d="M 134 0 
L 704 0 
L 1632 1293 
L 1651 1293 
L 2509 0 
L 3110 0 
L 1920 1702 
L 3085 3302 
L 2515 3302 
L 1645 2074 
L 1626 2074 
L 787 3302 
L 186 3302 
L 1357 1664 
L 134 0 
z
" transform="scale(0.015625)"/>
       <path id="IBMPlexSans-20" transform="scale(0.015625)"/>
       <path id="IBMPlexSans-5b" d="M 1645 -883 
L 1645 -480 
L 1037 -480 
L 1037 4461 
L 1645 4461 
L 1645 4864 
L 595 4864 
L 595 -883 
L 1645 -883 
z
" transform="scale(0.015625)"/>
       <path id="IBMPlexSans-61" d="M 3232 0 
L 3232 448 
L 2854 448 
L 2854 2266 
C 2854 2963 2381 3379 1587 3379 
C 992 3379 595 3085 416 2733 
L 723 2445 
C 902 2746 1165 2938 1562 2938 
C 2086 2938 2342 2682 2342 2214 
L 2342 1888 
L 1690 1888 
C 730 1888 282 1542 282 922 
C 282 307 691 -77 1389 -77 
C 1850 -77 2202 134 2342 538 
L 2374 538 
C 2413 230 2566 0 2944 0 
L 3232 0 
z
M 1472 358 
C 1075 358 819 544 819 870 
L 819 1005 
C 819 1325 1082 1504 1664 1504 
L 2342 1504 
L 2342 960 
C 2342 621 1978 358 1472 358 
z
" transform="scale(0.015625)"/>
       <path id="DejaVuSans-30" d="M 2034 4250 
Q 1547 4250 1301 3770 
Q 1056 3291 1056 2328 
Q 1056 1369 1301 889 
Q 1547 409 2034 409 
Q 2525 409 2770 889 
Q 3016 1369 3016 2328 
Q 3016 3291 2770 3770 
Q 2525 4250 2034 4250 
z
M 2034 4750 
Q 2819 4750 3233 4129 
Q 3647 3509 3647 2328 
Q 3647 1150 3233 529 
Q 2819 -91 2034 -91 
Q 1250 -91 836 529 
Q 422 1150 422 2328 
Q 422 3509 836 4129 
Q 1250 4750 2034 4750 
z
" transform="scale(0.015625)"/>
       <path id="IBMPlexSans-5d" d="M 384 4864 
L 384 4461 
L 992 4461 
L 992 -480 
L 384 -480 
L 384 -883 
L 1434 -883 
L 1434 4864 
L 384 4864 
z
" transform="scale(0.015625)"/>
      </defs>
      <use xlink:href="#IBMPlexSans-78"/>
      <use xlink:href="#IBMPlexSans-20" transform="translate(50.699997 0)"/>
      <use xlink:href="#IBMPlexSans-5b" transform="translate(74.299988 0)"/>
      <use xlink:href="#IBMPlexSans-61" transform="translate(105.999985 0)"/>
      <use xlink:href="#DejaVuSans-30" transform="translate(160.35701 -16.40625) scale(0.7)"/>
      <use xlink:href="#IBMPlexSans-5d" transform="translate(207.627518 0)"/>
     </g>
    </g>
   </g>
   <g id="matplotlib.axis_2">
    <g id="ytick_1">
     <g id="line2d_9">
      <defs>
       <path id="m72691649c8" d="M 0 0 
L -3.5 0 
" style="stroke: #000000; stroke-width: 0.8"/>
      </defs>
      <g>
       <use xlink:href="#m72691649c8" x="45.8" y="243.780064" style="stroke: #000000; stroke-width: 0.8"/>
      </g>
     </g>
     <g id="text_10">
      <!-- −30 -->
      <g transform="translate(20.8 247.480064) scale(0.1 -0.1)">
       <use xlink:href="#IBMPlexSans-2212"/>
       <use xlink:href="#IBMPlexSans-33" transform="translate(59.999985 0)"/>
       <use xlink:href="#IBMPlexSans-30" transform="translate(119.999969 0)"/>
      </g>
     </g>
    </g>
    <g id="ytick_2">
     <g id="line2d_10">
      <g>
       <use xlink:href="#m72691649c8" x="45.8" y="208.513052" style="stroke: #000000; stroke-width: 0.8"/>
      </g>
     </g>
     <g id="text_11">
      <!-- −20 -->
      <g transform="translate(20.8 212.213052) scale(0.1 -0.1)">
       <use xlink:href="#IBMPlexSans-2212"/>
       <use xlink:href="#IBMPlexSans-32" transform="translate(59.999985 0)"/>
       <use xlink:href="#IBMPlexSans-30" transform="translate(119.999969 0)"/>
      </g>
     </g>
    </g>
    <g id="ytick_3">
     <g id="line2d_11">
      <g>
       <use xlink:href="#m72691649c8" x="45.8" y="173.24604" style="stroke: #000000; stroke-width: 0.8"/>
      </g>
     </g>
     <g id="text_12">
      <!-- −10 -->
      <g transform="translate(20.8 176.94604) scale(0.1 -0.1)">
       <use xlink:href="#IBMPlexSans-2212"/>
       <use xlink:href="#IBMPlexSans-31" transform="translate(59.999985 0)"/>
       <use xlink:href="#IBMPlexSans-30" transform="translate(119.999969 0)"/>
      </g>
     </g>
    </g>
    <g id="ytick_4">
     <g id="line2d_12">
      <g>
       <use xlink:href="#m72691649c8" x="45.8" y="137.979029" style="stroke: #000000; stroke-width: 0.8"/>
      </g>
     </g>
     <g id="text_13">
      <!-- 0 -->
      <g transform="translate(32.8 141.679029) scale(0.1 -0.1)">
       <use xlink:href="#IBMPlexSans-30"/>
      </g>
     </g>
    </g>
    <g id="ytick_5">
     <g id="line2d_13">
      <g>
       <use xlink:href="#m72691649c8" x="45.8" y="102.712017" style="stroke: #000000; stroke-width: 0.8"/>
      </g>
     </g>
     <g id="text_14">
      <!-- 10 -->
      <g transform="translate(26.8 106.412017) scale(0.1 -0.1)">
       <use xlink:href="#IBMPlexSans-31"/>
       <use xlink:href="#IBMPlexSans-30" transform="translate(59.999985 0)"/>
      </g>
     </g>
    </g>
    <g id="ytick_6">
     <g id="line2d_14">
      <g>
       <use xlink:href="#m72691649c8" x="45.8" y="67.445005" style="stroke: #000000; stroke-width: 0.8"/>
      </g>
     </g>
     <g id="text_15">
      <!-- 20 -->
      <g transform="translate(26.8 71.145005) scale(0.1 -0.1)">
       <use xlink:href="#IBMPlexSans-32"/>
       <use xlink:href="#IBMPlexSans-30" transform="translate(59.999985 0)"/>
      </g>
     </g>
    </g>
    <g id="ytick_7">
     <g id="line2d_15">
      <g>
       <use xlink:href="#m72691649c8" x="45.8" y="32.177993" style="stroke: #000000; stroke-width: 0.8"/>
      </g>
     </g>
     <g id="text_16">
      <!-- 30 -->
      <g transform="translate(26.8 35.877993) scale(0.1 -0.1)">
       <use xlink:href="#IBMPlexSans-33"/>
       <use xlink:href="#IBMPlexSans-30" transform="translate(59.999985 0)"/>
      </g>
     </g>
    </g>
    <g id="text_17">
     <!-- y [a$_0$] -->
     <g transform="translate(14.8 160.56476) rotate(-90) scale(0.1 -0.1)">
      <defs>
       <path id="IBMPlexSans-79" d="M 1779 1056 
L 1600 518 
L 1568 518 
L 1414 1056 
L 621 3302 
L 109 3302 
L 1344 -128 
L 1094 -832 
L 576 -832 
L 576 -1280 
L 838 -1280 
C 1325 -1280 1459 -1165 1606 -768 
L 3085 3302 
L 2579 3302 
L 1779 1056 
z
" transform="scale(0.015625)"/>
      </defs>
      <use xlink:href="#IBMPlexSans-79"/>
      <use xlink:href="#IBMPlexSans-20" transform="translate(49.899994 0)"/>
      <use xlink:href="#IBMPlexSans-5b" transform="translate(73.499985 0)"/>
      <use xlink:href="#IBMPlexSans-61" transform="translate(105.199982 0)"/>
      <use xlink:href="#DejaVuSans-30" transform="translate(159.557007 -16.40625) scale(0.7)"/>
      <use xlink:href="#IBMPlexSans-5d" transform="translate(206.827515 0)"/>
     </g>
    </g>
   </g>
   <g id="line2d_16">
    <defs>
     <path id="mcbd071c7d5" d="M 0 3 
C 0.795609 3 1.55874 2.683901 2.12132 2.12132 
C 2.683901 1.55874 3 0.795609 3 0 
C 3 -0.795609 2.683901 -1.55874 2.12132 -2.12132 
C 1.55874 -2.683901 0.795609 -3 0 -3 
C -0.795609 -3 -1.55874 -2.683901 -2.12132 -2.12132 
C -2.683901 -1.55874 -3 -0.795609 -3 0 
C -3 0.795609 -2.683901 1.55874 -2.12132 2.12132 
C -1.55874 2.683901 -0.795609 3 0 3 
z
" style="stroke: #000000"/>
    </defs>
    <g clip-path="url(#p6c58d7e2da)">
     <use xlink:href="#mcbd071c7d5" x="293.969279" y="137.979029" style="stroke: #000000"/>
    </g>
   </g>
   <g id="line2d_17">
    <path d="M 294.698273 137.906129 
L 304.441435 136.825458 
L 305.922257 136.443397 
L 307.214919 135.908338 
L 308.708962 135.017131 
L 310.088919 133.904061 
L 311.211126 132.758811 
L 312.355381 131.321057 
L 313.442176 129.627704 
L 314.378976 127.786655 
L 315.09441 125.944799 
L 315.566357 124.229438 
L 315.863275 122.254449 
L 315.88229 120.652843 
L 315.654553 119.069082 
L 315.231465 117.752323 
L 314.342222 115.889974 
L 312.614576 112.301382 
L 311.409209 109.286167 
L 310.256322 105.866442 
L 309.27645 102.247433 
L 308.780548 99.641042 
L 308.627878 97.725711 
L 308.739282 95.959268 
L 309.135333 93.786945 
L 309.920784 90.701906 
L 311.147257 86.706052 
L 312.745457 82.276232 
L 315.311106 75.561722 
L 315.466204 73.938083 
L 315.388248 72.289377 
L 315.039295 70.240078 
L 314.542411 68.453175 
L 313.826402 66.539244 
L 312.925077 64.641072 
L 311.914105 62.911405 
L 310.54013 61.02809 
L 309.261455 59.645482 
L 307.875577 58.457993 
L 306.276319 57.373954 
L 304.140499 56.211216 
L 302.478823 55.513101 
L 300.553842 54.951768 
L 298.505142 54.60631 
L 295.985764 54.464568 
L 293.899257 54.545469 
L 291.156375 54.911618 
L 288.780049 55.497446 
L 286.913947 56.186932 
L 285.219566 57.076477 
L 284.008376 57.97249 
L 282.843643 59.159881 
L 280.828138 61.701933 
L 277.397094 65.936162 
L 273.332503 70.593704 
L 270.573651 73.467132 
L 269.208741 74.632646 
L 268.001805 75.414073 
L 266.447156 76.159549 
L 264.262952 76.931802 
L 261.935168 77.544167 
L 259.187671 78.066853 
L 256.36709 78.408398 
L 253.310858 78.542364 
L 250.628221 78.415933 
L 246.431959 78.105866 
L 245.098577 78.27244 
L 243.585227 78.700518 
L 242.235866 79.322012 
L 241.171091 80.014197 
L 240.102892 80.950015 
L 239.084451 82.162009 
L 238.181622 83.649032 
L 237.46709 85.357995 
L 237.003764 87.185876 
L 236.821529 89.00728 
L 236.906287 90.709932 
L 237.212365 92.217991 
L 237.686156 93.498564 
L 238.282582 94.556062 
L 239.212611 95.6735 
L 240.509707 96.755296 
L 243.133233 98.779301 
L 244.04085 99.874168 
L 244.619057 100.905614 
L 245.075991 102.152271 
L 245.368553 103.62114 
L 245.443808 105.285225 
L 245.254058 107.076975 
L 244.780368 108.891426 
L 244.047624 110.604983 
L 243.116982 112.109172 
L 242.063269 113.341537 
L 240.956413 114.292628 
L 239.8535 114.990005 
L 238.45834 115.59908 
L 237.192746 115.929863 
L 235.786633 116.061233 
L 234.488023 115.965506 
L 231.900407 115.45868 
L 229.940609 115.181842 
L 227.907308 115.11438 
L 225.429045 115.301775 
L 223.379742 115.65021 
L 220.685149 116.367133 
L 218.358334 117.259003 
L 216.551077 118.193076 
L 215.215399 119.101503 
L 214.001024 120.21186 
L 212.815925 121.647401 
L 210.482218 124.554849 
L 208.380347 126.765626 
L 205.743312 129.177358 
L 203.109727 131.272602 
L 200.930165 132.757994 
L 198.911925 133.864095 
L 197.131603 134.58359 
L 184.913022 138.918993 
L 180.289132 140.879101 
L 178.232842 141.958742 
L 176.125905 143.346939 
L 173.150043 145.586534 
L 168.757696 149.178119 
L 164.883366 152.619849 
L 162.014654 155.167984 
L 160.579755 156.151611 
L 158.596307 157.231974 
L 155.835181 158.441199 
L 152.476257 159.616326 
L 149.206683 160.493535 
L 146.576418 160.986386 
L 141.18293 161.802788 
L 139.834206 162.337024 
L 138.259201 163.214672 
L 136.437842 164.541616 
L 134.972684 165.851837 
L 133.53322 167.375371 
L 132.239862 168.995983 
L 130.885354 171.085954 
L 129.976299 172.92166 
L 129.302553 174.801524 
L 128.07571 178.747691 
L 127.426532 179.914309 
L 126.503089 181.125488 
L 125.521761 182.097451 
L 124.290276 182.990735 
L 123.183408 183.540543 
L 121.908313 183.927241 
L 120.468348 184.099071 
L 118.893391 184.012332 
L 117.248745 183.637498 
L 115.628781 182.968314 
L 114.135384 182.031759 
L 112.854646 180.889765 
L 111.84282 179.624703 
L 111.121789 178.314923 
L 110.681412 177.017558 
L 110.48717 175.767435 
L 110.526613 174.209574 
L 110.796364 172.806882 
L 111.309322 171.300782 
L 112.047478 169.83649 
L 113.046401 168.426839 
L 116.216639 164.474904 
L 117.364581 162.576544 
L 118.538835 160.188162 
L 119.575792 157.532733 
L 120.328249 154.989339 
L 120.765705 152.830038 
L 120.96501 150.733185 
L 120.902356 149.120173 
L 120.64743 147.70828 
L 119.981527 145.490667 
L 116.16091 133.709125 
L 114.844819 129.077855 
L 114.553063 127.335305 
L 114.510477 125.796106 
L 114.696103 123.85233 
L 115.214591 121.255774 
L 115.940826 118.707731 
L 116.916189 116.005894 
L 118.002614 113.540453 
L 119.293994 111.139059 
L 120.94031 108.644713 
L 122.095445 106.821823 
L 122.621314 105.597654 
L 122.985504 104.096074 
L 123.097761 102.607095 
L 123.013867 101.298194 
L 122.723562 99.828893 
L 122.173293 98.231542 
L 121.336136 96.576306 
L 120.23333 94.971224 
L 118.936718 93.536428 
L 117.546528 92.361508 
L 116.159778 91.480247 
L 114.847213 90.878565 
L 113.269602 90.444011 
L 111.884189 90.335855 
L 110.628353 90.460642 
L 108.458287 90.970072 
L 106.662246 91.304099 
L 104.915573 91.367593 
L 103.376663 91.207361 
L 101.653471 90.813923 
L 99.818919 90.163114 
L 97.999884 89.273418 
L 96.336991 88.210578 
L 94.933117 87.065536 
L 93.827234 85.918344 
L 92.780097 84.461612 
L 92.098414 83.108384 
L 90.209586 78.739685 
L 89.460032 77.77334 
L 88.454727 76.78476 
L 87.158134 75.803284 
L 85.573236 74.888153 
L 83.760912 74.117906 
L 81.841101 73.563087 
L 79.959382 73.258799 
L 78.233998 73.196112 
L 76.723698 73.333021 
L 75.046943 73.726455 
L 73.388186 74.371294 
L 70.125204 75.766057 
L 68.858466 76.034663 
L 67.124527 76.142968 
L 65.501937 76.041346 
L 63.816946 75.723414 
L 62.518781 75.264188 
L 61.332891 74.569187 
L 60.543068 73.863175 
L 59.855852 72.981983 
L 59.292442 71.92215 
L 58.885293 70.69503 
L 58.678188 69.327285 
L 58.718479 67.858848 
L 59.043164 66.342205 
L 59.664844 64.844782 
L 60.5649 63.448195 
L 61.697111 62.235701 
L 62.997128 61.271452 
L 64.391066 60.586968 
L 65.803299 60.183423 
L 67.167098 60.043501 
L 68.435466 60.142286 
L 69.585212 60.452145 
L 70.612045 60.942534 
L 71.798959 61.815539 
L 72.788955 62.850887 
L 73.752644 64.232896 
L 74.407836 65.602805 
L 74.764161 66.936572 
L 74.857738 68.284264 
L 74.724573 70.021409 
L 74.506375 72.655656 
L 74.610756 74.106784 
L 74.884354 75.245016 
L 75.3819 76.416562 
L 76.143664 77.600448 
L 77.190896 78.753626 
L 78.516086 79.808057 
L 80.074707 80.68294 
L 81.783245 81.308699 
L 83.531052 81.647452 
L 85.208336 81.698506 
L 86.735672 81.49144 
L 88.07515 81.075356 
L 89.22141 80.508682 
L 90.470571 79.618454 
L 91.44063 78.674183 
L 92.331753 77.508317 
L 92.954079 76.367296 
L 93.494202 74.928504 
L 94.720299 71.397742 
L 95.619451 69.606835 
L 96.948704 67.535986 
L 98.684833 65.363776 
L 100.618625 63.393208 
L 102.478944 61.854678 
L 104.106179 60.784163 
L 105.80416 59.966392 
L 107.288628 59.520888 
L 109.485963 59.157456 
L 113.087082 58.541497 
L 116.24266 57.778721 
L 119.696407 56.735092 
L 123.211683 55.429961 
L 125.628765 54.307924 
L 127.327363 53.284317 
L 128.86984 52.099408 
L 132.522677 48.896225 
L 143.520948 39.153864 
L 144.955046 38.271015 
L 146.908167 37.317244 
L 149.628905 36.24061 
L 152.995404 35.162696 
L 156.344731 34.324271 
L 159.524954 33.767984 
L 161.108183 33.58316 
L 161.108183 33.58316 
" clip-path="url(#p6c58d7e2da)" style="fill: none; stroke: #ff7f0e; stroke-width: 1.5; stroke-linecap: square"/>
   </g>
   <g id="line2d_18">
    <path d="M 294.698273 137.906129 
L 304.441454 136.825456 
L 305.922288 136.443393 
L 307.214963 135.908329 
L 308.709023 135.017114 
L 310.088992 133.904034 
L 311.211205 132.758774 
L 312.355461 131.321009 
L 313.442251 129.627649 
L 314.379041 127.786596 
L 315.094459 125.944742 
L 315.566392 124.229385 
L 315.86329 122.254402 
L 315.882288 120.652801 
L 315.654533 119.069042 
L 315.231429 117.75228 
L 314.342161 115.889909 
L 312.614485 112.301251 
L 311.409115 109.285995 
L 310.256246 105.866263 
L 309.276412 102.24729 
L 308.780544 99.640932 
L 308.627901 97.72561 
L 308.73933 95.959144 
L 309.13541 93.786761 
L 309.920895 90.701632 
L 311.147387 86.705727 
L 312.745558 82.275969 
L 315.31108 75.561518 
L 315.46614 73.937804 
L 315.388139 72.289011 
L 315.039124 70.239614 
L 314.542185 68.452648 
L 313.826125 66.538688 
L 312.924769 64.640532 
L 311.913795 62.910922 
L 310.53985 61.027705 
L 309.261225 59.645183 
L 307.875411 58.457756 
L 306.276218 57.373726 
L 304.140438 56.210883 
L 302.47877 55.512665 
L 300.553809 54.951254 
L 298.505145 54.605766 
L 295.985822 54.464045 
L 293.899359 54.545001 
L 291.156521 54.911277 
L 288.78022 55.497278 
L 286.914139 56.186957 
L 285.219802 57.076744 
L 284.008689 57.972994 
L 282.844072 59.160676 
L 280.828655 61.703185 
L 277.397327 65.937592 
L 273.332221 70.594415 
L 270.572781 73.466896 
L 269.207372 74.63191 
L 267.999856 75.413011 
L 266.444358 76.158269 
L 264.258976 76.930454 
L 261.930195 77.542895 
L 259.182133 78.065778 
L 256.361799 78.40767 
L 253.30667 78.542327 
L 250.625301 78.417044 
L 246.428951 78.111365 
L 245.094446 78.280703 
L 243.579512 78.713187 
L 242.228741 79.34007 
L 241.163023 80.037703 
L 240.094224 80.98017 
L 239.075872 82.199533 
L 238.174223 83.693535 
L 237.462166 85.40756 
L 237.002239 87.23734 
L 236.823372 89.057184 
L 236.910471 90.755535 
L 237.217395 92.257835 
L 237.690655 93.532517 
L 238.28556 94.58501 
L 239.212697 95.698173 
L 240.50571 96.779392 
L 242.877048 98.584309 
L 243.813343 99.628208 
L 244.42171 100.609479 
L 244.918608 101.801026 
L 245.264171 103.217477 
L 245.407052 104.841528 
L 245.296089 106.615606 
L 244.902932 108.442141 
L 244.24116 110.198572 
L 243.364559 111.768859 
L 242.346311 113.077543 
L 241.258071 114.103378 
L 240.159843 114.867414 
L 238.755721 115.550796 
L 237.473438 115.943205 
L 236.051145 116.142636 
L 234.755563 116.111617 
L 232.870803 115.816022 
L 230.387483 115.443665 
L 228.44622 115.34954 
L 226.039405 115.467311 
L 223.30079 115.868919 
L 220.583632 116.534193 
L 218.246386 117.351042 
L 216.430202 118.199905 
L 214.796575 119.226382 
L 213.612975 120.246923 
L 212.373024 121.630683 
L 209.421645 125.049427 
L 206.573766 127.958362 
L 203.474307 130.80388 
L 200.613534 133.120989 
L 198.820317 134.32779 
L 197.16207 135.183921 
L 194.674106 136.159902 
L 190.191406 137.652205 
L 184.144001 139.441209 
L 177.302988 141.416368 
L 175.768167 142.20225 
L 173.887391 143.463593 
L 172.055535 144.944348 
L 170.03625 146.834923 
L 168.095929 148.926199 
L 166.164785 151.372841 
L 164.666758 153.697757 
L 162.7464 156.860437 
L 161.94537 157.739031 
L 160.86857 158.610471 
L 159.40081 159.470249 
L 157.98664 160.070133 
L 156.293105 160.575731 
L 154.368858 160.926235 
L 152.331109 161.07334 
L 150.337952 161.002203 
L 148.527339 160.737363 
L 146.515206 160.172665 
L 144.963418 159.485188 
L 143.540716 158.584137 
L 142.502082 157.680888 
L 141.497627 156.51929 
L 139.829815 154.133585 
L 136.154233 148.916897 
L 132.096803 143.574814 
L 129.532821 140.521404 
L 128.158562 139.227627 
L 127.028954 138.441835 
L 125.524008 137.674568 
L 123.884344 137.073148 
L 121.748092 136.540245 
L 119.143154 136.176301 
L 116.326349 136.075041 
L 113.69304 136.25151 
L 111.510945 136.631497 
L 109.460874 137.23973 
L 107.731375 138.005516 
L 106.223618 138.922561 
L 104.778236 140.06536 
L 103.269078 141.54947 
L 101.677488 143.441401 
L 100.205685 145.499013 
L 98.711226 147.924031 
L 97.414097 150.38768 
L 96.265059 153.051414 
L 95.495464 155.434734 
L 95.075084 157.429972 
L 94.893979 159.382429 
L 94.944856 161.073924 
L 95.225101 162.890087 
L 95.738667 164.71864 
L 96.633601 166.889298 
L 97.585246 168.660824 
L 98.735002 170.419182 
L 99.990965 172.020661 
L 101.655809 173.749448 
L 103.164439 174.982595 
L 104.768411 175.965762 
L 106.1435 176.535413 
L 107.743258 176.915807 
L 110.905336 177.324465 
L 116.220469 178.09437 
L 121.741524 179.123793 
L 125.940672 180.114807 
L 127.97921 180.811326 
L 129.246023 181.4533 
L 130.63393 182.396333 
L 132.342664 183.849944 
L 133.996615 185.511291 
L 135.805995 187.598898 
L 137.530216 189.880503 
L 139.224318 192.515815 
L 140.503969 194.972691 
L 142.44689 199.040949 
L 143.253638 200.116905 
L 144.368928 201.223368 
L 145.560446 202.089643 
L 146.666617 202.671336 
L 147.976662 203.133896 
L 149.4944 203.415744 
L 151.191869 203.460521 
L 152.995452 203.22988 
L 154.791748 202.716393 
L 156.45857 201.951618 
L 157.900709 201.001157 
L 159.067277 199.944258 
L 159.949183 198.848924 
L 160.567905 197.75782 
L 160.963887 196.689395 
L 161.233678 195.30549 
L 161.366335 192.981366 
L 161.519521 191.380953 
L 161.852823 190.116644 
L 162.292975 189.16674 
L 162.93813 188.215344 
L 163.8194 187.278805 
L 164.957336 186.39573 
L 166.354098 185.626358 
L 167.981611 185.041205 
L 169.770098 184.701975 
L 171.610234 184.643589 
L 173.379516 184.86502 
L 174.979153 185.330979 
L 176.353785 185.982524 
L 177.486812 186.753071 
L 178.385911 187.584453 
L 179.256851 188.722735 
L 179.812841 189.865193 
L 180.1288 191.022106 
L 180.344233 192.851037 
L 180.649164 195.2334 
L 181.116037 196.744188 
L 181.719335 197.947161 
L 182.596914 199.189197 
L 183.772619 200.422428 
L 185.227109 201.56852 
L 186.88886 202.53596 
L 188.644086 203.251973 
L 190.368561 203.685835 
L 191.966008 203.849312 
L 193.388752 203.782464 
L 194.632762 203.538937 
L 196.052959 203.038437 
L 198.368315 201.889865 
L 199.949125 201.242159 
L 201.062102 201.009293 
L 202.287879 200.975801 
L 203.651492 201.182761 
L 205.132122 201.690441 
L 206.27711 202.316714 
L 207.400204 203.192481 
L 208.444109 204.339353 
L 209.344186 205.747917 
L 210.033131 207.365448 
L 210.454207 209.100689 
L 210.580416 210.845472 
L 210.4246 212.498964 
L 210.030255 213.984044 
L 209.450975 215.255603 
L 208.734286 216.301559 
L 207.917308 217.136694 
L 206.724799 217.978066 
L 205.167478 218.723041 
L 201.112527 220.430447 
L 200.059828 221.208195 
L 199.085841 222.207197 
L 197.967329 223.695853 
L 196.761468 225.662763 
L 195.800861 227.586702 
L 195.254174 229.094968 
L 194.95115 230.553707 
L 194.153706 235.97073 
L 193.632213 237.307884 
L 192.850294 238.758316 
L 191.780251 240.267766 
L 190.447702 241.740145 
L 188.937044 243.059251 
L 187.366658 244.132864 
L 185.847113 244.923206 
L 184.449476 245.442733 
L 182.810993 245.784807 
L 181.387785 245.832331 
L 179.439192 245.601611 
L 177.358142 245.356361 
L 175.696024 245.394044 
L 174.237446 245.622554 
L 172.592442 246.078762 
L 170.814764 246.791027 
L 169.017553 247.746319 
L 167.342379 248.880697 
L 165.905774 250.098335 
L 164.761958 251.310648 
L 163.670495 252.831151 
L 162.954487 254.216395 
L 161.20291 258.18091 
L 160.255101 259.392617 
L 159.26382 260.320616 
L 157.987383 261.239631 
L 156.420293 262.096193 
L 154.611523 262.816518 
L 152.67222 263.330866 
L 150.749357 263.601032 
L 148.972257 263.632066 
L 147.412795 263.46388 
L 145.68952 263.028793 
L 144.01437 262.330573 
L 139.36106 260.007203 
L 139.36106 260.007203 
" clip-path="url(#p6c58d7e2da)" style="fill: none; stroke-dasharray: 1.5,2.475; stroke-dashoffset: 0; stroke: #d62728; stroke-width: 1.5"/>
   </g>
   <g id="patch_3">
    <path d="M 45.8 275.14952 
L 45.8 22.08 
" style="fill: none; stroke: #000000; stroke-width: 0.8; stroke-linejoin: miter; stroke-linecap: square"/>
   </g>
   <g id="patch_4">
    <path d="M 45.8 275.14952 
L 328.762677 275.14952 
" style="fill: none; stroke: #000000; stroke-width: 0.8; stroke-linejoin: miter; stroke-linecap: square"/>
   </g>
   <g id="text_18">
    <!-- Two Trajectories -->
    <g transform="translate(142.430401 16.08) scale(0.12 -0.12)">
     <defs>
      <path id="IBMPlexSans-54" d="M 3520 3994 
L 3520 4467 
L 141 4467 
L 141 3994 
L 1562 3994 
L 1562 0 
L 2099 0 
L 2099 3994 
L 3520 3994 
z
" transform="scale(0.015625)"/>
      <path id="IBMPlexSans-77" d="M 1082 0 
L 1702 0 
L 2163 1587 
L 2445 2592 
L 2458 2592 
L 2746 1587 
L 3206 0 
L 3840 0 
L 4717 3302 
L 4237 3302 
L 3878 1875 
L 3539 429 
L 3526 429 
L 3117 1875 
L 2688 3302 
L 2234 3302 
L 1818 1875 
L 1414 429 
L 1402 429 
L 1050 1875 
L 698 3302 
L 198 3302 
L 1082 0 
z
" transform="scale(0.015625)"/>
      <path id="IBMPlexSans-6f" d="M 1792 -77 
C 2675 -77 3283 602 3283 1651 
C 3283 2701 2675 3379 1792 3379 
C 909 3379 301 2701 301 1651 
C 301 602 909 -77 1792 -77 
z
M 1792 378 
C 1242 378 851 717 851 1414 
L 851 1888 
C 851 2586 1242 2925 1792 2925 
C 2342 2925 2733 2586 2733 1888 
L 2733 1414 
C 2733 717 2342 378 1792 378 
z
" transform="scale(0.015625)"/>
      <path id="IBMPlexSans-72" d="M 1056 0 
L 1056 2240 
C 1056 2554 1389 2790 1939 2790 
L 2240 2790 
L 2240 3302 
L 2042 3302 
C 1504 3302 1203 3008 1088 2694 
L 1056 2694 
L 1056 3302 
L 544 3302 
L 544 0 
L 1056 0 
z
" transform="scale(0.015625)"/>
      <path id="IBMPlexSans-6a" d="M 544 -832 
L 6 -832 
L 6 -1280 
L 339 -1280 
C 832 -1280 1056 -966 1056 -512 
L 1056 3302 
L 544 3302 
L 544 -832 
z
M 800 4077 
C 1018 4077 1114 4192 1114 4365 
L 1114 4448 
C 1114 4621 1018 4736 800 4736 
C 582 4736 486 4621 486 4448 
L 486 4365 
C 486 4192 582 4077 800 4077 
z
" transform="scale(0.015625)"/>
      <path id="IBMPlexSans-65" d="M 1786 -77 
C 2406 -77 2880 230 3091 678 
L 2726 941 
C 2554 576 2234 371 1818 371 
C 1203 371 838 800 838 1370 
L 838 1523 
L 3213 1523 
L 3213 1766 
C 3213 2701 2669 3379 1786 3379 
C 890 3379 301 2701 301 1651 
C 301 602 890 -77 1786 -77 
z
M 1786 2950 
C 2310 2950 2662 2560 2662 1978 
L 2662 1907 
L 838 1907 
L 838 1952 
C 838 2528 1229 2950 1786 2950 
z
" transform="scale(0.015625)"/>
      <path id="IBMPlexSans-63" d="M 1773 -77 
C 2400 -77 2829 230 3040 704 
L 2669 954 
C 2490 576 2189 378 1773 378 
C 1165 378 851 794 851 1370 
L 851 1933 
C 851 2509 1165 2925 1773 2925 
C 2176 2925 2458 2726 2579 2387 
L 3008 2605 
C 2816 3059 2426 3379 1773 3379 
C 845 3379 301 2707 301 1651 
C 301 595 845 -77 1773 -77 
z
" transform="scale(0.015625)"/>
      <path id="IBMPlexSans-74" d="M 1914 0 
L 1914 448 
L 1242 448 
L 1242 2854 
L 1965 2854 
L 1965 3302 
L 1242 3302 
L 1242 4218 
L 781 4218 
L 781 3603 
C 781 3379 710 3302 493 3302 
L 186 3302 
L 186 2854 
L 730 2854 
L 730 544 
C 730 224 922 0 1274 0 
L 1914 0 
z
" transform="scale(0.015625)"/>
      <path id="IBMPlexSans-69" d="M 800 4077 
C 1018 4077 1114 4192 1114 4365 
L 1114 4448 
C 1114 4621 1018 4736 800 4736 
C 582 4736 486 4621 486 4448 
L 486 4365 
C 486 4192 582 4077 800 4077 
z
M 544 0 
L 1056 0 
L 1056 3302 
L 544 3302 
L 544 0 
z
" transform="scale(0.015625)"/>
      <path id="IBMPlexSans-73" d="M 1536 -77 
C 2291 -77 2758 314 2758 954 
C 2758 1453 2477 1773 1747 1882 
L 1491 1920 
C 1082 1984 858 2112 858 2432 
C 858 2746 1082 2944 1504 2944 
C 1926 2944 2208 2746 2355 2541 
L 2694 2848 
C 2426 3181 2074 3379 1542 3379 
C 870 3379 365 3059 365 2406 
C 365 1792 819 1542 1427 1453 
L 1690 1414 
C 2125 1350 2266 1152 2266 896 
C 2266 557 2010 358 1574 358 
C 1158 358 851 544 595 864 
L 230 570 
C 525 179 928 -77 1536 -77 
z
" transform="scale(0.015625)"/>
     </defs>
     <use xlink:href="#IBMPlexSans-54"/>
     <use xlink:href="#IBMPlexSans-77" transform="translate(57.199997 0)"/>
     <use xlink:href="#IBMPlexSans-6f" transform="translate(133.999985 0)"/>
     <use xlink:href="#IBMPlexSans-20" transform="translate(189.999969 0)"/>
     <use xlink:href="#IBMPlexSans-54" transform="translate(213.59996 0)"/>
     <use xlink:href="#IBMPlexSans-72" transform="translate(270.799957 0)"/>
     <use xlink:href="#IBMPlexSans-61" transform="translate(307.499954 0)"/>
     <use xlink:href="#IBMPlexSans-6a" transform="translate(360.899948 0)"/>
     <use xlink:href="#IBMPlexSans-65" transform="translate(385.899933 0)"/>
     <use xlink:href="#IBMPlexSans-63" transform="translate(440.799927 0)"/>
     <use xlink:href="#IBMPlexSans-74" transform="translate(491.099915 0)"/>
     <use xlink:href="#IBMPlexSans-6f" transform="translate(526.199905 0)"/>
     <use xlink:href="#IBMPlexSans-72" transform="translate(582.19989 0)"/>
     <use xlink:href="#IBMPlexSans-69" transform="translate(618.899887 0)"/>
     <use xlink:href="#IBMPlexSans-65" transform="translate(643.899872 0)"/>
     <use xlink:href="#IBMPlexSans-73" transform="translate(698.799866 0)"/>
    </g>
   </g>
   <g id="legend_1">
    <g id="patch_5">
     <path d="M 225.093927 270.14952 
L 321.762677 270.14952 
Q 323.762677 270.14952 323.762677 268.14952 
L 323.762677 225.94952 
Q 323.762677 223.94952 321.762677 223.94952 
L 225.093927 223.94952 
Q 223.093927 223.94952 223.093927 225.94952 
L 223.093927 268.14952 
Q 223.093927 270.14952 225.093927 270.14952 
z
" style="fill: #ffffff; opacity: 0.8; stroke: #cccccc; stroke-linejoin: miter"/>
    </g>
    <g id="line2d_19">
     <g>
      <use xlink:href="#mcbd071c7d5" x="237.093927" y="231.84952" style="stroke: #000000"/>
     </g>
    </g>
    <g id="text_19">
     <!-- Initial position -->
     <g transform="translate(255.093927 235.34952) scale(0.1 -0.1)">
      <defs>
       <path id="IBMPlexSans-49" d="M 2176 0 
L 2176 448 
L 1549 448 
L 1549 4019 
L 2176 4019 
L 2176 4467 
L 384 4467 
L 384 4019 
L 1011 4019 
L 1011 448 
L 384 448 
L 384 0 
L 2176 0 
z
" transform="scale(0.015625)"/>
       <path id="IBMPlexSans-6e" d="M 1056 0 
L 1056 2291 
C 1056 2714 1453 2918 1862 2918 
C 2355 2918 2611 2618 2611 2029 
L 2611 0 
L 3123 0 
L 3123 2118 
C 3123 2918 2694 3379 2016 3379 
C 1523 3379 1242 3136 1082 2765 
L 1056 2765 
L 1056 3302 
L 544 3302 
L 544 0 
L 1056 0 
z
" transform="scale(0.015625)"/>
       <path id="IBMPlexSans-6c" d="M 1542 0 
L 1542 448 
L 1056 448 
L 1056 4736 
L 544 4736 
L 544 531 
C 544 224 736 0 1088 0 
L 1542 0 
z
" transform="scale(0.015625)"/>
       <path id="IBMPlexSans-70" d="M 544 -1280 
L 1056 -1280 
L 1056 538 
L 1082 538 
C 1280 128 1594 -77 2048 -77 
C 2874 -77 3392 595 3392 1651 
C 3392 2707 2874 3379 2048 3379 
C 1594 3379 1254 3181 1082 2765 
L 1056 2765 
L 1056 3302 
L 544 3302 
L 544 -1280 
z
M 1907 384 
C 1440 384 1056 627 1056 1056 
L 1056 2285 
C 1056 2650 1440 2918 1907 2918 
C 2483 2918 2842 2522 2842 1933 
L 2842 1370 
C 2842 781 2483 384 1907 384 
z
" transform="scale(0.015625)"/>
      </defs>
      <use xlink:href="#IBMPlexSans-49"/>
      <use xlink:href="#IBMPlexSans-6e" transform="translate(39.999985 0)"/>
      <use xlink:href="#IBMPlexSans-69" transform="translate(96.799973 0)"/>
      <use xlink:href="#IBMPlexSans-74" transform="translate(121.799957 0)"/>
      <use xlink:href="#IBMPlexSans-69" transform="translate(156.899948 0)"/>
      <use xlink:href="#IBMPlexSans-61" transform="translate(181.899933 0)"/>
      <use xlink:href="#IBMPlexSans-6c" transform="translate(235.299927 0)"/>
      <use xlink:href="#IBMPlexSans-20" transform="translate(262.499924 0)"/>
      <use xlink:href="#IBMPlexSans-70" transform="translate(286.099915 0)"/>
      <use xlink:href="#IBMPlexSans-6f" transform="translate(344.099899 0)"/>
      <use xlink:href="#IBMPlexSans-73" transform="translate(400.099884 0)"/>
      <use xlink:href="#IBMPlexSans-69" transform="translate(448.799881 0)"/>
      <use xlink:href="#IBMPlexSans-74" transform="translate(473.799866 0)"/>
      <use xlink:href="#IBMPlexSans-69" transform="translate(508.899857 0)"/>
      <use xlink:href="#IBMPlexSans-6f" transform="translate(533.899841 0)"/>
      <use xlink:href="#IBMPlexSans-6e" transform="translate(589.899826 0)"/>
     </g>
    </g>
    <g id="line2d_20">
     <path d="M 227.093927 246.24952 
L 237.093927 246.24952 
L 247.093927 246.24952 
" style="fill: none; stroke: #ff7f0e; stroke-width: 1.5; stroke-linecap: square"/>
    </g>
    <g id="text_20">
     <!-- Trajectory 1 -->
     <g transform="translate(255.093927 249.74952) scale(0.1 -0.1)">
      <use xlink:href="#IBMPlexSans-54"/>
      <use xlink:href="#IBMPlexSans-72" transform="translate(57.199997 0)"/>
      <use xlink:href="#IBMPlexSans-61" transform="translate(93.899994 0)"/>
      <use xlink:href="#IBMPlexSans-6a" transform="translate(147.299988 0)"/>
      <use xlink:href="#IBMPlexSans-65" transform="translate(172.299973 0)"/>
      <use xlink:href="#IBMPlexSans-63" transform="translate(227.199966 0)"/>
      <use xlink:href="#IBMPlexSans-74" transform="translate(277.499954 0)"/>
      <use xlink:href="#IBMPlexSans-6f" transform="translate(312.599945 0)"/>
      <use xlink:href="#IBMPlexSans-72" transform="translate(368.59993 0)"/>
      <use xlink:href="#IBMPlexSans-79" transform="translate(405.299927 0)"/>
      <use xlink:href="#IBMPlexSans-20" transform="translate(455.199921 0)"/>
      <use xlink:href="#IBMPlexSans-31" transform="translate(478.799911 0)"/>
     </g>
    </g>
    <g id="line2d_21">
     <path d="M 227.093927 260.64952 
L 237.093927 260.64952 
L 247.093927 260.64952 
" style="fill: none; stroke-dasharray: 1.5,2.475; stroke-dashoffset: 0; stroke: #d62728; stroke-width: 1.5"/>
    </g>
    <g id="text_21">
     <!-- Trajectory 2 -->
     <g transform="translate(255.093927 264.14952) scale(0.1 -0.1)">
      <use xlink:href="#IBMPlexSans-54"/>
      <use xlink:href="#IBMPlexSans-72" transform="translate(57.199997 0)"/>
      <use xlink:href="#IBMPlexSans-61" transform="translate(93.899994 0)"/>
      <use xlink:href="#IBMPlexSans-6a" transform="translate(147.299988 0)"/>
      <use xlink:href="#IBMPlexSans-65" transform="translate(172.299973 0)"/>
      <use xlink:href="#IBMPlexSans-63" transform="translate(227.199966 0)"/>
      <use xlink:href="#IBMPlexSans-74" transform="translate(277.499954 0)"/>
      <use xlink:href="#IBMPlexSans-6f" transform="translate(312.599945 0)"/>
      <use xlink:href="#IBMPlexSans-72" transform="translate(368.59993 0)"/>
      <use xlink:href="#IBMPlexSans-79" transform="translate(405.299927 0)"/>
      <use xlink:href="#IBMPlexSans-20" transform="translate(455.199921 0)"/>
      <use xlink:href="#IBMPlexSans-32" transform="translate(478.799911 0)"/>
     </g>
    </g>
   </g>
  </g>
 </g>
 <defs>
  <clipPath id="p6c58d7e2da">
   <rect x="45.8" y="22.08" width="282.962677" height="253.06952"/>
  </clipPath>
 </defs>
</svg>