<?xml version="1.0" encoding="utf-8" standalone="no"?>
<!DOCTYPE svg PUBLIC "-//W3C//DTD SVG 1.1//EN"
  "http://www.w3.org/Graphics/SVG/1.1/DTD/svg11.dtd">
<svg xmlns:xlink="http://www.w3.org/1999/xlink" width="548.39952pt" height="312.14952pt" viewBox="0 0 548.39952 312.14952" xmlns="http://www.w3.org/2000/svg" version="1.1">
 <metadata>
  <rdf:RDF xmlns:dc="http://purl.org/dc/elements/1.1/" xmlns:cc="http://creativecommons.org/ns#" xmlns:rdf="http://www.w3.org/1999/02/22-rdf-syntax-ns#">
   <cc:Work>
    <dc:type rdf:resource="http://purl.org/dc/dcmitype/StillImage"/>
    <dc:date>2026-01-27T08:27:08.744224</dc:date>
    <dc:format>image/svg+xml</dc:format>
    <dc:creator>
     <cc:Agent>
      <dc:title>Matplotlib v3.10.7, https://matplotlib.org/</dc:title>
     </cc:Agent>
    </dc:creator>
   </cc:Work>
  </rdf:RDF>
 </metadata>
 <defs>
  <style type="text/css">*{stroke-linejoin: round; stroke-linecap: butt}</style>
 </defs>
 <g id="figure_1">
  <g id="patch_1">
   <path d="M 0 312.14952 
L 548.39952 312.14952 
L 548.39952 0 
L 0 0 
z
" style="fill: #ffffff"/>
  </g>
  <g id="axes_1">
   <g id="patch_2">
    <path d="M 51.8 274.94952 
L 541.19952 274.94952 
L 541.19952 22.08 
L 51.8 22.08 
z
" style="fill: #ffffff"/>
   </g>
   <g id="matplotlib.axis_1">
    <g id="xtick_1">
     <g id="line2d_1">
      <defs>
       <path id="m1a899329d1" d="M 0 0 
L 0 3.5 
" style="stroke: #000000; stroke-width: 0.8"/>
      </defs>
      <g>
       <use xlink:href="#m1a899329d1" x="74.045433" y="274.94952" style="stroke: #000000; stroke-width: 0.8"/>
      </g>
     </g>
     <g id="text_1">
      <!-- 0.0 -->
      <g transform="translate(66.685276 289.34952) scale(0.1 -0.1)">
       <defs>
        <path id="IBMPlexSans-30" d="M 1920 -77 
C 2989 -77 3456 774 3456 2234 
C 3456 3693 2989 4544 1920 4544 
C 851 4544 384 3693 384 2234 
C 384 774 851 -77 1920 -77 
z
M 1920 390 
C 1222 390 947 1005 947 1869 
L 947 2598 
C 947 3462 1222 4077 1920 4077 
C 2618 4077 2893 3462 2893 2598 
L 2893 1869 
C 2893 1005 2618 390 1920 390 
z
" transform="scale(0.015625)"/>
        <path id="IBMPlexSans-2e" d="M 870 -77 
C 1139 -77 1261 77 1261 294 
L 1261 378 
C 1261 595 1139 749 870 749 
C 602 749 480 595 480 378 
L 480 294 
C 480 77 602 -77 870 -77 
z
" transform="scale(0.015625)"/>
       </defs>
       <use xlink:href="#IBMPlexSans-30"/>
       <use xlink:href="#IBMPlexSans-2e" transform="translate(59.999985 0)"/>
       <use xlink:href="#IBMPlexSans-30" transform="translate(87.199982 0)"/>
      </g>
     </g>
    </g>
    <g id="xtick_2">
     <g id="line2d_2">
      <g>
       <use xlink:href="#m1a899329d1" x="129.659015" y="274.94952" style="stroke: #000000; stroke-width: 0.8"/>
      </g>
     </g>
     <g id="text_2">
      <!-- 2.5 -->
      <g transform="translate(122.298858 289.34952) scale(0.1 -0.1)">
       <defs>
        <path id="IBMPlexSans-32" d="M 3411 474 
L 1062 474 
L 2266 1555 
C 2835 2067 3245 2554 3245 3245 
C 3245 4006 2746 4544 1875 4544 
C 1011 4544 614 4019 442 3494 
L 922 3309 
C 1043 3731 1299 4064 1850 4064 
C 2400 4064 2675 3725 2675 3232 
L 2675 3155 
C 2675 2726 2355 2278 1939 1894 
L 480 550 
L 480 0 
L 3411 0 
L 3411 474 
z
" transform="scale(0.015625)"/>
        <path id="IBMPlexSans-35" d="M 3187 4467 
L 794 4467 
L 634 2010 
L 1088 1946 
C 1274 2150 1478 2323 1888 2323 
C 2496 2323 2822 1984 2822 1395 
L 2822 1331 
C 2822 742 2496 403 1888 403 
C 1350 403 1126 640 896 992 
L 493 685 
C 762 301 1146 -77 1888 -77 
C 2829 -77 3392 531 3392 1402 
C 3392 2266 2829 2784 2061 2784 
C 1594 2784 1357 2592 1146 2291 
L 1101 2291 
L 1229 3994 
L 3187 3994 
L 3187 4467 
z
" transform="scale(0.015625)"/>
       </defs>
       <use xlink:href="#IBMPlexSans-32"/>
       <use xlink:href="#IBMPlexSans-2e" transform="translate(59.999985 0)"/>
       <use xlink:href="#IBMPlexSans-35" transform="translate(87.199982 0)"/>
      </g>
     </g>
    </g>
    <g id="xtick_3">
     <g id="line2d_3">
      <g>
       <use xlink:href="#m1a899329d1" x="185.272596" y="274.94952" style="stroke: #000000; stroke-width: 0.8"/>
      </g>
     </g>
     <g id="text_3">
      <!-- 5.0 -->
      <g transform="translate(177.91244 289.34952) scale(0.1 -0.1)">
       <use xlink:href="#IBMPlexSans-35"/>
       <use xlink:href="#IBMPlexSans-2e" transform="translate(59.999985 0)"/>
       <use xlink:href="#IBMPlexSans-30" transform="translate(87.199982 0)"/>
      </g>
     </g>
    </g>
    <g id="xtick_4">
     <g id="line2d_4">
      <g>
       <use xlink:href="#m1a899329d1" x="240.886178" y="274.94952" style="stroke: #000000; stroke-width: 0.8"/>
      </g>
     </g>
     <g id="text_4">
      <!-- 7.5 -->
      <g transform="translate(233.526022 289.34952) scale(0.1 -0.1)">
       <defs>
        <path id="IBMPlexSans-37" d="M 1696 0 
L 3373 3994 
L 3373 4467 
L 442 4467 
L 442 3174 
L 922 3174 
L 922 4006 
L 2829 4006 
L 1120 0 
L 1696 0 
z
" transform="scale(0.015625)"/>
       </defs>
       <use xlink:href="#IBMPlexSans-37"/>
       <use xlink:href="#IBMPlexSans-2e" transform="translate(59.999985 0)"/>
       <use xlink:href="#IBMPlexSans-35" transform="translate(87.199982 0)"/>
      </g>
     </g>
    </g>
    <g id="xtick_5">
     <g id="line2d_5">
      <g>
       <use xlink:href="#m1a899329d1" x="296.49976" y="274.94952" style="stroke: #000000; stroke-width: 0.8"/>
      </g>
     </g>
     <g id="text_5">
      <!-- 10.0 -->
      <g transform="translate(286.139604 289.34952) scale(0.1 -0.1)">
       <defs>
        <path id="IBMPlexSans-31" d="M 3501 0 
L 3501 474 
L 2349 474 
L 2349 4467 
L 1510 4467 
L 326 3360 
L 640 3021 
L 1766 4070 
L 1811 4070 
L 1811 474 
L 563 474 
L 563 0 
L 3501 0 
z
" transform="scale(0.015625)"/>
       </defs>
       <use xlink:href="#IBMPlexSans-31"/>
       <use xlink:href="#IBMPlexSans-30" transform="translate(59.999985 0)"/>
       <use xlink:href="#IBMPlexSans-2e" transform="translate(119.999969 0)"/>
       <use xlink:href="#IBMPlexSans-30" transform="translate(147.199966 0)"/>
      </g>
     </g>
    </g>
    <g id="xtick_6">
     <g id="line2d_6">
      <g>
       <use xlink:href="#m1a899329d1" x="352.113342" y="274.94952" style="stroke: #000000; stroke-width: 0.8"/>
      </g>
     </g>
     <g id="text_6">
      <!-- 12.5 -->
      <g transform="translate(341.753186 289.34952) scale(0.1 -0.1)">
       <use xlink:href="#IBMPlexSans-31"/>
       <use xlink:href="#IBMPlexSans-32" transform="translate(59.999985 0)"/>
       <use xlink:href="#IBMPlexSans-2e" transform="translate(119.999969 0)"/>
       <use xlink:href="#IBMPlexSans-35" transform="translate(147.199966 0)"/>
      </g>
     </g>
    </g>
    <g id="xtick_7">
     <g id="line2d_7">
      <g>
       <use xlink:href="#m1a899329d1" x="407.726924" y="274.94952" style="stroke: #000000; stroke-width: 0.8"/>
      </g>
     </g>
     <g id="text_7">
      <!-- 15.0 -->
      <g transform="translate(397.366767 289.34952) scale(0.1 -0.1)">
       <use xlink:href="#IBMPlexSans-31"/>
       <use xlink:href="#IBMPlexSans-35" transform="translate(59.999985 0)"/>
       <use xlink:href="#IBMPlexSans-2e" transform="translate(119.999969 0)"/>
       <use xlink:href="#IBMPlexSans-30" transform="translate(147.199966 0)"/>
      </g>
     </g>
    </g>
    <g id="xtick_8">
     <g id="line2d_8">
      <g>
       <use xlink:href="#m1a899329d1" x="463.340505" y="274.94952" style="stroke: #000000; stroke-width: 0.8"/>
      </g>
     </g>
     <g id="text_8">
      <!-- 17.5 -->
      <g transform="translate(452.980349 289.34952) scale(0.1 -0.1)">
       <use xlink:href="#IBMPlexSans-31"/>
       <use xlink:href="#IBMPlexSans-37" transform="translate(59.999985 0)"/>
       <use xlink:href="#IBMPlexSans-2e" transform="translate(119.999969 0)"/>
       <use xlink:href="#IBMPlexSans-35" transform="translate(147.199966 0)"/>
      </g>
     </g>
    </g>
    <g id="xtick_9">
     <g id="line2d_9">
      <g>
       <use xlink:href="#m1a899329d1" x="518.954087" y="274.94952" style="stroke: #000000; stroke-width: 0.8"/>
      </g>
     </g>
     <g id="text_9">
      <!-- 20.0 -->
      <g transform="translate(508.593931 289.34952) scale(0.1 -0.1)">
       <use xlink:href="#IBMPlexSans-32"/>
       <use xlink:href="#IBMPlexSans-30" transform="translate(59.999985 0)"/>
       <use xlink:href="#IBMPlexSans-2e" transform="translate(119.999969 0)"/>
       <use xlink:href="#IBMPlexSans-30" transform="translate(147.199966 0)"/>
      </g>
     </g>
    </g>
    <g id="text_10">
     <!-- Time [ps] -->
     <g transform="translate(275.594291 302.94952) scale(0.1 -0.1)">
      <defs>
       <path id="IBMPlexSans-54" d="M 3520 3994 
L 3520 4467 
L 141 4467 
L 141 3994 
L 1562 3994 
L 1562 0 
L 2099 0 
L 2099 3994 
L 3520 3994 
z
" transform="scale(0.015625)"/>
       <path id="IBMPlexSans-69" d="M 800 4077 
C 1018 4077 1114 4192 1114 4365 
L 1114 4448 
C 1114 4621 1018 4736 800 4736 
C 582 4736 486 4621 486 4448 
L 486 4365 
C 486 4192 582 4077 800 4077 
z
M 544 0 
L 1056 0 
L 1056 3302 
L 544 3302 
L 544 0 
z
" transform="scale(0.015625)"/>
       <path id="IBMPlexSans-6d" d="M 1056 0 
L 1056 2291 
C 1056 2714 1440 2918 1843 2918 
C 2330 2918 2554 2618 2554 2029 
L 2554 0 
L 3066 0 
L 3066 2291 
C 3066 2714 3437 2918 3840 2918 
C 4339 2918 4563 2611 4563 2029 
L 4563 0 
L 5075 0 
L 5075 2118 
C 5075 2918 4672 3379 4000 3379 
C 3437 3379 3117 3066 2995 2707 
L 2982 2707 
C 2803 3181 2406 3379 1971 3379 
C 1459 3379 1229 3104 1082 2765 
L 1056 2765 
L 1056 3302 
L 544 3302 
L 544 0 
L 1056 0 
z
" transform="scale(0.015625)"/>
       <path id="IBMPlexSans-65" d="M 1786 -77 
C 2406 -77 2880 230 3091 678 
L 2726 941 
C 2554 576 2234 371 1818 371 
C 1203 371 838 800 838 1370 
L 838 1523 
L 3213 1523 
L 3213 1766 
C 3213 2701 2669 3379 1786 3379 
C 890 3379 301 2701 301 1651 
C 301 602 890 -77 1786 -77 
z
M 1786 2950 
C 2310 2950 2662 2560 2662 1978 
L 2662 1907 
L 838 1907 
L 838 1952 
C 838 2528 1229 2950 1786 2950 
z
" transform="scale(0.015625)"/>
       <path id="IBMPlexSans-20" transform="scale(0.015625)"/>
       <path id="IBMPlexSans-5b" d="M 1645 -883 
L 1645 -480 
L 1037 -480 
L 1037 4461 
L 1645 4461 
L 1645 4864 
L 595 4864 
L 595 -883 
L 1645 -883 
z
" transform="scale(0.015625)"/>
       <path id="IBMPlexSans-70" d="M 544 -1280 
L 1056 -1280 
L 1056 538 
L 1082 538 
C 1280 128 1594 -77 2048 -77 
C 2874 -77 3392 595 3392 1651 
C 3392 2707 2874 3379 2048 3379 
C 1594 3379 1254 3181 1082 2765 
L 1056 2765 
L 1056 3302 
L 544 3302 
L 544 -1280 
z
M 1907 384 
C 1440 384 1056 627 1056 1056 
L 1056 2285 
C 1056 2650 1440 2918 1907 2918 
C 2483 2918 2842 2522 2842 1933 
L 2842 1370 
C 2842 781 2483 384 1907 384 
z
" transform="scale(0.015625)"/>
       <path id="IBMPlexSans-73" d="M 1536 -77 
C 2291 -77 2758 314 2758 954 
C 2758 1453 2477 1773 1747 1882 
L 1491 1920 
C 1082 1984 858 2112 858 2432 
C 858 2746 1082 2944 1504 2944 
C 1926 2944 2208 2746 2355 2541 
L 2694 2848 
C 2426 3181 2074 3379 1542 3379 
C 870 3379 365 3059 365 2406 
C 365 1792 819 1542 1427 1453 
L 1690 1414 
C 2125 1350 2266 1152 2266 896 
C 2266 557 2010 358 1574 358 
C 1158 358 851 544 595 864 
L 230 570 
C 525 179 928 -77 1536 -77 
z
" transform="scale(0.015625)"/>
       <path id="IBMPlexSans-5d" d="M 384 4864 
L 384 4461 
L 992 4461 
L 992 -480 
L 384 -480 
L 384 -883 
L 1434 -883 
L 1434 4864 
L 384 4864 
z
" transform="scale(0.015625)"/>
      </defs>
      <use xlink:href="#IBMPlexSans-54"/>
      <use xlink:href="#IBMPlexSans-69" transform="translate(57.199997 0)"/>
      <use xlink:href="#IBMPlexSans-6d" transform="translate(82.199982 0)"/>
      <use xlink:href="#IBMPlexSans-65" transform="translate(169.499969 0)"/>
      <use xlink:href="#IBMPlexSans-20" transform="translate(224.399963 0)"/>
      <use xlink:href="#IBMPlexSans-5b" transform="translate(247.999954 0)"/>
      <use xlink:href="#IBMPlexSans-70" transform="translate(279.699951 0)"/>
      <use xlink:href="#IBMPlexSans-73" transform="translate(337.699936 0)"/>
      <use xlink:href="#IBMPlexSans-5d" transform="translate(386.399933 0)"/>
     </g>
    </g>
   </g>
   <g id="matplotlib.axis_2">
    <g id="ytick_1">
     <g id="line2d_10">
      <defs>
       <path id="mc44d0398b0" d="M 0 0 
L -3.5 0 
" style="stroke: #000000; stroke-width: 0.8"/>
      </defs>
      <g>
       <use xlink:href="#mc44d0398b0" x="51.8" y="250.675923" style="stroke: #000000; stroke-width: 0.8"/>
      </g>
     </g>
     <g id="text_11">
      <!-- 1060 -->
      <g transform="translate(20.8 254.375923) scale(0.1 -0.1)">
       <defs>
        <path id="IBMPlexSans-36" d="M 1926 -77 
C 2822 -77 3411 525 3411 1402 
C 3411 2246 2861 2778 2093 2778 
C 1549 2778 1229 2502 1018 2138 
L 986 2150 
C 1229 3187 1760 3770 2714 4467 
L 2022 4467 
C 1306 4000 429 2963 429 1638 
C 429 576 998 -77 1926 -77 
z
M 1920 390 
C 1331 390 986 730 986 1331 
L 986 1382 
C 986 1984 1331 2323 1920 2323 
C 2509 2323 2854 1984 2854 1382 
L 2854 1331 
C 2854 730 2509 390 1920 390 
z
" transform="scale(0.015625)"/>
       </defs>
       <use xlink:href="#IBMPlexSans-31"/>
       <use xlink:href="#IBMPlexSans-30" transform="translate(59.999985 0)"/>
       <use xlink:href="#IBMPlexSans-36" transform="translate(119.999969 0)"/>
       <use xlink:href="#IBMPlexSans-30" transform="translate(179.999954 0)"/>
      </g>
     </g>
    </g>
    <g id="ytick_2">
     <g id="line2d_11">
      <g>
       <use xlink:href="#mc44d0398b0" x="51.8" y="200.380515" style="stroke: #000000; stroke-width: 0.8"/>
      </g>
     </g>
     <g id="text_12">
      <!-- 1080 -->
      <g transform="translate(20.8 204.080515) scale(0.1 -0.1)">
       <defs>
        <path id="IBMPlexSans-38" d="M 1920 -77 
C 2938 -77 3469 480 3469 1216 
C 3469 1824 3104 2176 2566 2323 
L 2566 2374 
C 3034 2534 3334 2912 3334 3424 
C 3334 4102 2810 4544 1920 4544 
C 1030 4544 506 4102 506 3424 
C 506 2912 806 2534 1274 2374 
L 1274 2323 
C 736 2176 371 1824 371 1216 
C 371 480 902 -77 1920 -77 
z
M 1920 390 
C 1299 390 941 685 941 1190 
L 941 1325 
C 941 1830 1299 2125 1920 2125 
C 2541 2125 2899 1830 2899 1325 
L 2899 1190 
C 2899 685 2541 390 1920 390 
z
M 1920 2573 
C 1363 2573 1062 2822 1062 3277 
L 1062 3373 
C 1062 3827 1363 4077 1920 4077 
C 2477 4077 2778 3827 2778 3373 
L 2778 3277 
C 2778 2822 2477 2573 1920 2573 
z
" transform="scale(0.015625)"/>
       </defs>
       <use xlink:href="#IBMPlexSans-31"/>
       <use xlink:href="#IBMPlexSans-30" transform="translate(59.999985 0)"/>
       <use xlink:href="#IBMPlexSans-38" transform="translate(119.999969 0)"/>
       <use xlink:href="#IBMPlexSans-30" transform="translate(179.999954 0)"/>
      </g>
     </g>
    </g>
    <g id="ytick_3">
     <g id="line2d_12">
      <g>
       <use xlink:href="#mc44d0398b0" x="51.8" y="150.085108" style="stroke: #000000; stroke-width: 0.8"/>
      </g>
     </g>
     <g id="text_13">
      <!-- 1100 -->
      <g transform="translate(20.8 153.785108) scale(0.1 -0.1)">
       <use xlink:href="#IBMPlexSans-31"/>
       <use xlink:href="#IBMPlexSans-31" transform="translate(59.999985 0)"/>
       <use xlink:href="#IBMPlexSans-30" transform="translate(119.999969 0)"/>
       <use xlink:href="#IBMPlexSans-30" transform="translate(179.999954 0)"/>
      </g>
     </g>
    </g>
    <g id="ytick_4">
     <g id="line2d_13">
      <g>
       <use xlink:href="#mc44d0398b0" x="51.8" y="99.7897" style="stroke: #000000; stroke-width: 0.8"/>
      </g>
     </g>
     <g id="text_14">
      <!-- 1120 -->
      <g transform="translate(20.8 103.4897) scale(0.1 -0.1)">
       <use xlink:href="#IBMPlexSans-31"/>
       <use xlink:href="#IBMPlexSans-31" transform="translate(59.999985 0)"/>
       <use xlink:href="#IBMPlexSans-32" transform="translate(119.999969 0)"/>
       <use xlink:href="#IBMPlexSans-30" transform="translate(179.999954 0)"/>
      </g>
     </g>
    </g>
    <g id="ytick_5">
     <g id="line2d_14">
      <g>
       <use xlink:href="#mc44d0398b0" x="51.8" y="49.494292" style="stroke: #000000; stroke-width: 0.8"/>
      </g>
     </g>
     <g id="text_15">
      <!-- 1140 -->
      <g transform="translate(20.8 53.194292) scale(0.1 -0.1)">
       <defs>
        <path id="IBMPlexSans-34" d="M 2912 0 
L 2912 877 
L 3558 877 
L 3558 1325 
L 2912 1325 
L 2912 4467 
L 2112 4467 
L 243 1350 
L 243 877 
L 2400 877 
L 2400 0 
L 2912 0 
z
M 2368 4051 
L 2400 4051 
L 2400 1325 
L 749 1325 
L 2368 4051 
z
" transform="scale(0.015625)"/>
       </defs>
       <use xlink:href="#IBMPlexSans-31"/>
       <use xlink:href="#IBMPlexSans-31" transform="translate(59.999985 0)"/>
       <use xlink:href="#IBMPlexSans-34" transform="translate(119.999969 0)"/>
       <use xlink:href="#IBMPlexSans-30" transform="translate(179.999954 0)"/>
      </g>
     </g>
    </g>
    <g id="text_16">
     <!-- Temperature [K] -->
     <g transform="translate(14.8 185.331166) rotate(-90) scale(0.1 -0.1)">
      <defs>
       <path id="IBMPlexSans-72" d="M 1056 0 
L 1056 2240 
C 1056 2554 1389 2790 1939 2790 
L 2240 2790 
L 2240 3302 
L 2042 3302 
C 1504 3302 1203 3008 1088 2694 
L 1056 2694 
L 1056 3302 
L 544 3302 
L 544 0 
L 1056 0 
z
" transform="scale(0.015625)"/>
       <path id="IBMPlexSans-61" d="M 3232 0 
L 3232 448 
L 2854 448 
L 2854 2266 
C 2854 2963 2381 3379 1587 3379 
C 992 3379 595 3085 416 2733 
L 723 2445 
C 902 2746 1165 2938 1562 2938 
C 2086 2938 2342 2682 2342 2214 
L 2342 1888 
L 1690 1888 
C 730 1888 282 1542 282 922 
C 282 307 691 -77 1389 -77 
C 1850 -77 2202 134 2342 538 
L 2374 538 
C 2413 230 2566 0 2944 0 
L 3232 0 
z
M 1472 358 
C 1075 358 819 544 819 870 
L 819 1005 
C 819 1325 1082 1504 1664 1504 
L 2342 1504 
L 2342 960 
C 2342 621 1978 358 1472 358 
z
" transform="scale(0.015625)"/>
       <path id="IBMPlexSans-74" d="M 1914 0 
L 1914 448 
L 1242 448 
L 1242 2854 
L 1965 2854 
L 1965 3302 
L 1242 3302 
L 1242 4218 
L 781 4218 
L 781 3603 
C 781 3379 710 3302 493 3302 
L 186 3302 
L 186 2854 
L 730 2854 
L 730 544 
C 730 224 922 0 1274 0 
L 1914 0 
z
" transform="scale(0.015625)"/>
       <path id="IBMPlexSans-75" d="M 2579 0 
L 3091 0 
L 3091 3302 
L 2579 3302 
L 2579 1018 
C 2579 582 2182 384 1779 384 
C 1286 384 1024 685 1024 1274 
L 1024 3302 
L 512 3302 
L 512 1184 
C 512 384 947 -77 1626 -77 
C 2176 -77 2426 224 2554 538 
L 2579 538 
L 2579 0 
z
" transform="scale(0.015625)"/>
       <path id="IBMPlexSans-4b" d="M 3251 0 
L 3917 0 
L 2138 2554 
L 3802 4467 
L 3142 4467 
L 1792 2867 
L 1152 2093 
L 1133 2093 
L 1133 4467 
L 595 4467 
L 595 0 
L 1133 0 
L 1133 1491 
L 1766 2195 
L 3251 0 
z
" transform="scale(0.015625)"/>
      </defs>
      <use xlink:href="#IBMPlexSans-54"/>
      <use xlink:href="#IBMPlexSans-65" transform="translate(57.199997 0)"/>
      <use xlink:href="#IBMPlexSans-6d" transform="translate(112.099991 0)"/>
      <use xlink:href="#IBMPlexSans-70" transform="translate(199.399979 0)"/>
      <use xlink:href="#IBMPlexSans-65" transform="translate(257.399963 0)"/>
      <use xlink:href="#IBMPlexSans-72" transform="translate(312.299957 0)"/>
      <use xlink:href="#IBMPlexSans-61" transform="translate(348.999954 0)"/>
      <use xlink:href="#IBMPlexSans-74" transform="translate(402.399948 0)"/>
      <use xlink:href="#IBMPlexSans-75" transform="translate(437.499939 0)"/>
      <use xlink:href="#IBMPlexSans-72" transform="translate(494.299927 0)"/>
      <use xlink:href="#IBMPlexSans-65" transform="translate(530.999924 0)"/>
      <use xlink:href="#IBMPlexSans-20" transform="translate(585.899918 0)"/>
      <use xlink:href="#IBMPlexSans-5b" transform="translate(609.499908 0)"/>
      <use xlink:href="#IBMPlexSans-4b" transform="translate(641.199905 0)"/>
      <use xlink:href="#IBMPlexSans-5d" transform="translate(704.599899 0)"/>
     </g>
    </g>
   </g>
   <g id="line2d_15">
    <path d="M 74.045433 58.086892 
L 74.353606 313.14952 
M 100.172786 313.14952 
L 100.739952 297.264305 
L 101.852224 296.263872 
L 102.964495 279.638001 
L 104.076767 271.520043 
L 105.189039 265.147689 
L 106.30131 280.646662 
L 107.413582 265.652186 
L 108.525853 265.17547 
L 109.638125 241.214874 
L 110.750397 246.822782 
L 111.862668 238.908991 
L 112.97494 239.853457 
L 114.087212 225.857876 
L 115.199483 219.759544 
L 116.311755 235.050055 
L 117.424027 195.127906 
L 118.536298 205.362386 
L 119.64857 211.143662 
L 120.760841 193.229263 
L 121.873113 199.390803 
L 122.985385 189.879763 
L 124.097656 198.894197 
L 125.209928 181.997869 
L 126.3222 170.184355 
L 127.434471 173.147604 
L 128.546743 185.560603 
L 129.659015 185.123994 
L 130.771286 158.310246 
L 131.883558 173.163366 
L 132.995829 163.097598 
L 134.108101 143.556675 
L 135.220373 158.668493 
L 136.332644 121.19623 
L 137.444916 152.282103 
L 138.557188 150.580961 
L 139.669459 157.038654 
L 140.781731 128.657834 
L 141.894003 137.390429 
L 143.006274 132.72113 
L 144.118546 128.665427 
L 145.230817 119.855875 
L 146.343089 112.313929 
L 147.455361 133.058626 
L 148.567632 120.409604 
L 149.679904 119.243333 
L 150.792176 116.769578 
L 151.904447 117.476718 
L 153.016719 111.641426 
L 154.128991 120.029933 
L 155.241262 104.62611 
L 156.353534 94.193446 
L 157.465805 99.755871 
L 158.578077 102.878484 
L 159.690349 104.994964 
L 160.80262 106.148631 
L 161.914892 87.413446 
L 163.027164 86.515428 
L 164.139435 54.857256 
L 165.251707 105.77231 
L 166.363979 97.468029 
L 167.47625 106.271438 
L 168.588522 85.098208 
L 169.700793 112.824319 
L 170.813065 85.475125 
L 171.925337 73.431547 
L 173.037608 79.995019 
L 174.14988 76.404617 
L 175.262152 98.944518 
L 176.374423 87.553769 
L 177.486695 91.695633 
L 178.598967 88.414812 
L 179.711238 67.521585 
L 180.82351 103.977686 
L 181.935781 76.102012 
L 183.048053 92.723782 
L 184.160325 65.732276 
L 185.272596 74.623182 
L 186.384868 75.577204 
L 187.49714 68.301679 
L 188.609411 59.822205 
L 189.721683 68.432127 
L 190.833955 88.99655 
L 191.946226 80.578624 
L 193.058498 75.832849 
L 194.170769 88.06842 
L 196.395313 75.675804 
L 197.507584 63.188717 
L 198.619856 66.605909 
L 199.732128 73.824077 
L 200.844399 74.749715 
L 201.956671 72.420938 
L 204.181214 52.664524 
L 205.293486 58.82103 
L 206.405757 71.899652 
L 207.518029 80.315545 
L 208.630301 82.795603 
L 209.742572 60.448011 
L 210.854844 65.05021 
L 211.967116 45.627086 
L 213.079387 72.350669 
L 214.191659 62.402526 
L 215.303931 72.063293 
L 216.416202 78.009352 
L 217.528474 62.370719 
L 218.640745 65.958298 
L 219.753017 66.073798 
L 221.97756 82.190149 
L 223.089832 72.456312 
L 224.202104 60.406796 
L 225.314375 59.357733 
L 226.426647 63.98811 
L 227.538919 75.935815 
L 229.763462 62.299479 
L 230.875733 49.446986 
L 231.988005 57.764427 
L 233.100277 58.856891 
L 234.212548 52.80611 
L 235.32482 58.469698 
L 236.437092 74.107536 
L 237.549363 59.107871 
L 238.661635 71.803223 
L 239.773907 52.677139 
L 240.886178 73.432385 
L 241.99845 78.627624 
L 243.110721 70.059247 
L 244.222993 62.406851 
L 245.335265 75.213873 
L 246.447536 63.07679 
L 247.559808 68.054013 
L 248.67208 60.021124 
L 249.784351 61.942381 
L 250.896623 66.196198 
L 252.008895 63.582147 
L 253.121166 68.635146 
L 254.233438 44.26275 
L 255.345709 49.013692 
L 256.457981 79.027004 
L 257.570253 71.041796 
L 258.682524 72.966844 
L 259.794796 93.230438 
L 260.907068 68.843438 
L 262.019339 61.77945 
L 263.131611 66.93678 
L 264.243883 55.284948 
L 265.356154 59.795017 
L 266.468426 57.26553 
L 267.580697 53.604581 
L 268.692969 84.642202 
L 269.805241 52.418829 
L 270.917512 53.49862 
L 272.029784 58.531132 
L 273.142056 67.992451 
L 274.254327 64.280934 
L 275.366599 92.533513 
L 276.478871 43.25493 
L 277.591142 57.13479 
L 278.703414 76.670429 
L 279.815685 82.125472 
L 280.927957 56.875664 
L 282.040229 59.465386 
L 283.1525 64.396849 
L 284.264772 73.264402 
L 285.377044 77.263932 
L 286.489315 56.78788 
L 287.601587 68.466717 
L 288.713859 43.018702 
L 289.82613 59.895285 
L 290.938402 54.844654 
L 292.050673 76.464971 
L 293.162945 63.79259 
L 294.275217 73.116375 
L 295.387488 68.988537 
L 296.49976 54.108793 
L 297.612032 49.848798 
L 298.724303 53.745895 
L 299.836575 64.777838 
L 300.948847 65.709722 
L 302.061118 68.512423 
L 303.17339 56.344246 
L 304.285661 69.262529 
L 305.397933 58.96449 
L 306.510205 52.232408 
L 307.622476 64.496157 
L 308.734748 65.78781 
L 309.84702 62.278535 
L 310.959291 50.224468 
L 312.071563 61.913686 
L 313.183835 49.546607 
L 314.296106 72.049241 
L 315.408378 53.834568 
L 316.520649 58.097757 
L 317.632921 54.471393 
L 318.745193 73.85144 
L 319.857464 61.65868 
L 320.969736 65.813636 
L 322.082008 50.132226 
L 323.194279 68.621023 
L 324.306551 67.539185 
L 325.418823 73.87569 
L 326.531094 78.678543 
L 327.643366 62.051917 
L 329.867909 64.13532 
L 330.980181 78.986251 
L 332.092452 65.985363 
L 333.204724 69.398149 
L 334.316996 71.923952 
L 335.429267 73.694874 
L 336.541539 64.072385 
L 337.653811 81.669474 
L 338.766082 56.740458 
L 339.878354 56.386675 
L 340.990625 62.699351 
L 342.102897 65.700048 
L 343.215169 64.077883 
L 344.32744 59.913856 
L 345.439712 68.752179 
L 346.551984 56.785592 
L 347.664255 80.983225 
L 348.776527 61.044845 
L 349.888799 67.513344 
L 351.00107 72.45513 
L 352.113342 70.154089 
L 353.225613 75.098791 
L 354.337885 47.028888 
L 356.562428 75.706136 
L 357.6747 65.893089 
L 358.786972 74.849791 
L 359.899243 78.969321 
L 362.123787 68.717223 
L 363.236058 62.033808 
L 364.34833 81.250435 
L 365.460601 60.860059 
L 366.572873 78.470656 
L 367.685145 83.907114 
L 369.909688 64.56043 
L 371.02196 56.09382 
L 372.134231 59.09871 
L 373.246503 86.927356 
L 374.358775 61.875311 
L 375.471046 67.880496 
L 376.583318 66.005569 
L 377.695589 73.750608 
L 378.807861 63.200625 
L 379.920133 40.303257 
L 381.032404 61.689818 
L 382.144676 51.696698 
L 383.256948 59.303719 
L 384.369219 65.835616 
L 385.481491 37.970219 
L 386.593763 56.117228 
L 387.706034 52.925702 
L 388.818306 47.059132 
L 389.930577 54.298506 
L 391.042849 49.374823 
L 392.155121 54.683255 
L 393.267392 52.224949 
L 394.379664 43.262573 
L 395.491936 52.361178 
L 396.604207 70.747445 
L 397.716479 57.614792 
L 398.828751 50.965742 
L 399.941022 40.051041 
L 401.053294 65.017305 
L 402.165565 56.824274 
L 403.277837 64.733598 
L 404.390109 54.758453 
L 406.614652 68.882904 
L 407.726924 71.456991 
L 408.839195 58.987703 
L 409.951467 70.065992 
L 411.063739 60.451438 
L 412.17601 58.526022 
L 413.288282 64.915178 
L 414.400553 68.537867 
L 415.512825 61.76361 
L 416.625097 53.974973 
L 417.737368 54.762941 
L 418.84964 50.602071 
L 419.961912 68.175132 
L 421.074183 54.97869 
L 422.186455 53.938802 
L 423.298727 57.584958 
L 424.410998 37.321452 
L 425.52327 55.658863 
L 426.635541 47.673776 
L 427.747813 71.185112 
L 428.860085 66.483361 
L 429.972356 64.422319 
L 431.084628 58.559581 
L 432.1969 65.090483 
L 433.309171 61.795413 
L 434.421443 55.548188 
L 435.533715 71.271021 
L 436.645986 69.746013 
L 437.758258 61.431876 
L 438.870529 65.008562 
L 439.982801 66.189703 
L 441.095073 40.633815 
L 442.207344 70.626782 
L 443.319616 53.637707 
L 444.431888 91.192092 
L 445.544159 90.135721 
L 446.656431 82.690936 
L 447.768703 78.214703 
L 448.880974 68.007178 
L 449.993246 72.499224 
L 451.105517 78.663524 
L 452.217789 82.180132 
L 453.330061 76.984859 
L 454.442332 77.464203 
L 455.554604 68.606437 
L 456.666876 66.712261 
L 457.779147 68.437153 
L 458.891419 63.723072 
L 460.003691 71.324988 
L 461.115962 75.007787 
L 462.228234 68.998456 
L 463.340505 57.737039 
L 464.452777 56.676425 
L 465.565049 59.132442 
L 466.67732 70.862937 
L 467.789592 78.451368 
L 468.901864 74.419028 
L 470.014135 60.089242 
L 471.126407 58.854789 
L 472.238679 78.361219 
L 473.35095 75.119923 
L 474.463222 64.077892 
L 475.575493 78.805607 
L 476.687765 80.042569 
L 477.800037 58.390155 
L 478.912308 40.720952 
L 480.02458 57.615793 
L 481.136852 67.055134 
L 482.249123 75.366968 
L 483.361395 59.273654 
L 484.473667 79.010366 
L 485.585938 58.579635 
L 486.69821 55.908102 
L 487.810481 69.971971 
L 488.922753 58.654276 
L 490.035025 51.311484 
L 491.147296 62.871528 
L 492.259568 69.777389 
L 493.37184 59.338427 
L 494.484111 57.238568 
L 495.596383 68.378739 
L 496.708655 73.462875 
L 497.820926 56.355921 
L 498.933198 67.571393 
L 500.045469 60.361223 
L 501.157741 79.384309 
L 502.270013 88.397758 
L 503.382284 73.597601 
L 504.494556 77.645892 
L 505.606828 71.36362 
L 506.719099 73.769597 
L 507.831371 71.370594 
L 508.943643 69.594342 
L 510.055914 80.448121 
L 511.168186 64.671261 
L 512.280457 67.222354 
L 513.392729 68.635678 
L 514.505001 67.767155 
L 515.617272 68.09446 
L 516.729544 57.378486 
L 517.841816 67.767852 
L 518.954087 82.711705 
L 518.954087 82.711705 
" clip-path="url(#p4b2f357b1f)" style="fill: none; stroke: #1f77b4; stroke-width: 1.5; stroke-linecap: square"/>
   </g>
   <g id="line2d_16">
    <path d="M 74.045433 92.792968 
L 74.311944 313.14952 
M 104.497478 313.14952 
L 105.189039 308.591358 
L 105.518147 313.14952 
M 106.932684 313.14952 
L 107.413582 304.887822 
L 108.525853 292.357678 
L 109.638125 277.160832 
L 110.750397 279.881881 
L 111.862668 286.141565 
L 112.97494 275.356973 
L 114.087212 267.832561 
L 115.199483 258.274957 
L 116.311755 267.401534 
L 117.424027 243.427079 
L 118.536298 252.708277 
L 119.64857 239.046301 
L 120.760841 243.577773 
L 121.873113 221.089031 
L 122.985385 235.047869 
L 124.097656 227.774286 
L 125.209928 222.989077 
L 126.3222 219.671279 
L 128.546743 224.168321 
L 129.659015 209.023448 
L 130.771286 197.120563 
L 131.883558 208.970904 
L 132.995829 193.274039 
L 134.108101 191.978879 
L 136.332644 185.903117 
L 137.444916 187.73446 
L 138.557188 176.802628 
L 139.669459 194.091658 
L 140.781731 181.364133 
L 141.894003 182.995732 
L 143.006274 171.123614 
L 144.118546 166.52589 
L 145.230817 163.292059 
L 146.343089 161.436984 
L 147.455361 169.924391 
L 148.567632 158.714399 
L 149.679904 178.908295 
L 150.792176 166.793533 
L 151.904447 159.001527 
L 153.016719 175.967322 
L 154.128991 160.276514 
L 155.241262 160.559238 
L 156.353534 155.73367 
L 157.465805 140.124364 
L 158.578077 157.761587 
L 159.690349 154.015368 
L 160.80262 157.453349 
L 161.914892 147.935771 
L 163.027164 136.745679 
L 164.139435 127.95846 
L 165.251707 141.945992 
L 166.363979 140.465491 
L 167.47625 140.914633 
L 168.588522 121.985711 
L 169.700793 148.088351 
L 170.813065 134.969997 
L 171.925337 133.506794 
L 173.037608 138.315749 
L 174.14988 127.22427 
L 175.262152 137.073852 
L 176.374423 127.296456 
L 177.486695 128.17968 
L 178.598967 132.895969 
L 179.711238 134.206194 
L 180.82351 126.920605 
L 181.935781 124.034431 
L 183.048053 134.819211 
L 184.160325 118.905485 
L 186.384868 125.339407 
L 187.49714 118.380006 
L 188.609411 116.67715 
L 189.721683 108.09729 
L 190.833955 122.98804 
L 191.946226 115.627283 
L 193.058498 124.289001 
L 194.170769 120.615455 
L 195.283041 124.610383 
L 196.395313 109.572099 
L 197.507584 101.922302 
L 198.619856 111.241455 
L 199.732128 110.031376 
L 200.844399 113.137671 
L 201.956671 110.174792 
L 203.068943 115.351546 
L 204.181214 111.813183 
L 205.293486 113.203658 
L 206.405757 105.605274 
L 207.518029 122.08252 
L 208.630301 116.84263 
L 209.742572 104.826576 
L 210.854844 107.242188 
L 211.967116 105.440374 
L 213.079387 118.876003 
L 214.191659 113.827203 
L 215.303931 109.963508 
L 216.416202 118.279864 
L 217.528474 112.705043 
L 218.640745 106.374639 
L 219.753017 106.873392 
L 220.865289 97.872682 
L 221.97756 115.666635 
L 223.089832 105.110497 
L 224.202104 103.503857 
L 225.314375 111.814299 
L 226.426647 124.290323 
L 227.538919 116.13487 
L 228.65119 109.402365 
L 229.763462 117.021567 
L 230.875733 111.475067 
L 231.988005 103.581955 
L 233.100277 109.150333 
L 234.212548 104.384063 
L 235.32482 90.629785 
L 236.437092 117.438252 
L 237.549363 109.172045 
L 238.661635 103.759435 
L 239.773907 106.004317 
L 240.886178 114.361796 
L 241.99845 112.96484 
L 244.222993 103.350617 
L 245.335265 99.052825 
L 246.447536 103.75174 
L 247.559808 115.401692 
L 248.67208 111.341283 
L 249.784351 117.690683 
L 250.896623 107.2385 
L 252.008895 106.647201 
L 253.121166 111.862955 
L 254.233438 99.468656 
L 255.345709 115.826298 
L 256.457981 107.705345 
L 257.570253 114.153738 
L 258.682524 115.783284 
L 259.794796 116.326386 
L 260.907068 101.95618 
L 262.019339 97.396509 
L 263.131611 115.383559 
L 264.243883 101.839484 
L 265.356154 109.100748 
L 266.468426 112.249728 
L 267.580697 103.427343 
L 268.692969 116.593796 
L 269.805241 104.216582 
L 270.917512 105.319432 
L 272.029784 110.251554 
L 273.142056 112.897206 
L 274.254327 112.983615 
L 275.366599 122.39106 
L 276.478871 110.419522 
L 277.591142 105.237907 
L 278.703414 107.491193 
L 279.815685 113.091506 
L 280.927957 105.521158 
L 282.040229 115.757675 
L 283.1525 107.127009 
L 284.264772 110.971377 
L 285.377044 110.551872 
L 287.601587 106.777293 
L 288.713859 101.722141 
L 289.82613 101.787781 
L 290.938402 102.623394 
L 292.050673 110.435364 
L 293.162945 114.301503 
L 294.275217 103.188438 
L 295.387488 104.069462 
L 296.49976 97.046563 
L 297.612032 106.976884 
L 298.724303 103.333898 
L 299.836575 98.171886 
L 300.948847 103.001679 
L 302.061118 106.630131 
L 303.17339 93.754806 
L 304.285661 105.854575 
L 305.397933 113.678045 
L 306.510205 106.055052 
L 307.622476 112.905161 
L 308.734748 104.795942 
L 309.84702 106.129869 
L 310.959291 103.458578 
L 312.071563 103.786353 
L 313.183835 106.55609 
L 314.296106 110.060488 
L 315.408378 97.974168 
L 316.520649 107.741184 
L 317.632921 106.596283 
L 318.745193 108.277081 
L 319.857464 120.477876 
L 320.969736 98.158299 
L 322.082008 104.912946 
L 323.194279 119.388737 
L 324.306551 106.877533 
L 325.418823 96.746777 
L 326.531094 122.960651 
L 328.755637 108.006562 
L 329.867909 105.336595 
L 330.980181 110.004093 
L 332.092452 96.887249 
L 333.204724 105.576905 
L 334.316996 98.661233 
L 335.429267 110.891896 
L 336.541539 102.421992 
L 337.653811 109.366262 
L 338.766082 102.456854 
L 340.990625 114.505592 
L 342.102897 100.05629 
L 343.215169 105.351699 
L 344.32744 103.763156 
L 345.439712 106.696385 
L 346.551984 106.813735 
L 347.664255 114.990351 
L 348.776527 104.914535 
L 349.888799 103.245778 
L 351.00107 107.138792 
L 352.113342 109.355189 
L 353.225613 103.098889 
L 355.450157 106.669632 
L 356.562428 114.613991 
L 357.6747 102.111388 
L 358.786972 109.436894 
L 359.899243 113.233141 
L 361.011515 109.474704 
L 362.123787 107.810216 
L 363.236058 107.713325 
L 364.34833 112.542077 
L 365.460601 110.397626 
L 366.572873 123.710136 
L 367.685145 114.734343 
L 368.797416 118.438252 
L 371.02196 102.926099 
L 372.134231 111.613509 
L 373.246503 114.43909 
L 374.358775 124.602491 
L 375.471046 120.716473 
L 376.583318 98.606208 
L 377.695589 110.478327 
L 378.807861 118.743022 
L 379.920133 108.136956 
L 381.032404 99.047544 
L 382.144676 105.602591 
L 383.256948 101.119582 
L 384.369219 102.613004 
L 385.481491 95.983928 
L 386.593763 99.902425 
L 387.706034 106.647791 
L 388.818306 89.24805 
L 389.930577 97.356671 
L 391.042849 92.167062 
L 392.155121 97.154729 
L 393.267392 98.518213 
L 394.379664 99.266008 
L 395.491936 97.967138 
L 396.604207 107.203843 
L 397.716479 95.120583 
L 399.941022 107.631224 
L 401.053294 111.0486 
L 402.165565 115.513239 
L 403.277837 107.456818 
L 404.390109 97.036635 
L 405.50238 107.643698 
L 406.614652 110.608672 
L 407.726924 103.468651 
L 408.839195 108.463756 
L 409.951467 102.279709 
L 411.063739 107.288839 
L 412.17601 101.952606 
L 413.288282 113.452038 
L 414.400553 102.09156 
L 415.512825 101.026525 
L 416.625097 102.098957 
L 417.737368 95.888806 
L 418.84964 107.328594 
L 419.961912 98.006467 
L 421.074183 113.732296 
L 422.186455 95.272671 
L 423.298727 104.984759 
L 424.410998 101.459492 
L 425.52327 106.078342 
L 426.635541 99.757509 
L 427.747813 112.392623 
L 428.860085 106.679448 
L 429.972356 102.662327 
L 431.084628 110.763709 
L 432.1969 107.32256 
L 433.309171 98.433697 
L 434.421443 101.657801 
L 435.533715 109.187455 
L 436.645986 99.507067 
L 437.758258 107.737888 
L 438.870529 102.344526 
L 439.982801 104.031142 
L 441.095073 103.126727 
L 442.207344 120.380789 
L 443.319616 105.623121 
L 444.431888 119.6128 
L 445.544159 119.931949 
L 446.656431 111.463269 
L 447.768703 119.125154 
L 448.880974 106.044202 
L 449.993246 113.140794 
L 451.105517 112.148062 
L 452.217789 116.02192 
L 453.330061 110.385068 
L 454.442332 117.324789 
L 455.554604 105.410242 
L 456.666876 102.408615 
L 457.779147 100.541398 
L 458.891419 106.194681 
L 460.003691 102.197814 
L 461.115962 108.505119 
L 462.228234 111.177174 
L 463.340505 102.828119 
L 464.452777 99.409803 
L 465.565049 112.60235 
L 466.67732 106.506595 
L 467.789592 112.697694 
L 468.901864 106.765707 
L 470.014135 103.078236 
L 471.126407 106.591423 
L 472.238679 107.691694 
L 473.35095 109.764075 
L 474.463222 103.58308 
L 475.575493 117.077415 
L 476.687765 110.300349 
L 477.800037 108.276786 
L 478.912308 110.805807 
L 480.02458 103.539509 
L 481.136852 115.942831 
L 482.249123 99.650495 
L 483.361395 96.152299 
L 484.473667 106.306956 
L 485.585938 105.551649 
L 486.69821 115.224891 
L 487.810481 117.258135 
L 488.922753 112.787922 
L 490.035025 109.932409 
L 491.147296 102.769476 
L 492.259568 110.027496 
L 493.37184 105.337931 
L 494.484111 103.270154 
L 495.596383 116.772052 
L 496.708655 110.154231 
L 497.820926 108.093857 
L 498.933198 113.661732 
L 500.045469 109.602615 
L 501.157741 117.09101 
L 502.270013 120.498576 
L 503.382284 121.935584 
L 504.494556 119.764739 
L 505.606828 115.639618 
L 506.719099 101.497797 
L 507.831371 111.084035 
L 508.943643 106.775808 
L 510.055914 124.821661 
L 511.168186 113.189196 
L 512.280457 115.428276 
L 513.392729 110.067429 
L 514.505001 106.134584 
L 515.617272 120.124966 
L 516.729544 111.242805 
L 517.841816 110.699413 
L 518.954087 120.883649 
L 518.954087 120.883649 
" clip-path="url(#p4b2f357b1f)" style="fill: none; stroke: #ff7f0e; stroke-width: 1.5; stroke-linecap: square"/>
   </g>
   <g id="line2d_17">
    <path d="M 74.045433 138.211477 
L 74.259781 313.14952 
M 112.077782 313.14952 
L 112.97494 302.621455 
L 114.087212 307.070193 
L 115.199483 300.296371 
L 116.311755 309.219249 
L 117.424027 295.124641 
L 118.536298 302.17915 
L 119.64857 284.756106 
L 120.760841 284.452741 
L 121.873113 277.943449 
L 122.985385 267.738468 
L 124.097656 267.206942 
L 125.209928 263.370432 
L 126.3222 265.83225 
L 127.434471 270.264395 
L 129.659015 247.273214 
L 130.771286 245.377218 
L 131.883558 252.613438 
L 132.995829 234.986753 
L 134.108101 237.962764 
L 135.220373 235.393119 
L 136.332644 236.551571 
L 137.444916 219.184214 
L 138.557188 229.081425 
L 139.669459 231.319819 
L 140.781731 230.945161 
L 141.894003 220.783966 
L 143.006274 218.467538 
L 144.118546 218.748314 
L 145.230817 216.049735 
L 146.343089 215.770788 
L 147.455361 217.417063 
L 148.567632 208.462929 
L 150.792176 204.683294 
L 151.904447 206.6822 
L 153.016719 207.378679 
L 154.128991 206.844413 
L 155.241262 206.962375 
L 156.353534 198.572863 
L 157.465805 189.191765 
L 158.578077 196.286661 
L 159.690349 194.895189 
L 160.80262 188.604974 
L 161.914892 185.688603 
L 163.027164 185.413331 
L 164.139435 184.570566 
L 165.251707 175.94164 
L 166.363979 179.789912 
L 167.47625 186.65519 
L 168.588522 183.848849 
L 169.700793 191.384978 
L 170.813065 175.868679 
L 171.925337 178.412594 
L 173.037608 172.057233 
L 174.14988 179.735246 
L 175.262152 174.23812 
L 176.374423 175.460631 
L 177.486695 182.087894 
L 178.598967 173.171856 
L 179.711238 173.947104 
L 180.82351 181.479662 
L 181.935781 174.315475 
L 183.048053 171.570031 
L 184.160325 161.238621 
L 186.384868 168.84692 
L 187.49714 166.415762 
L 188.609411 169.340492 
L 189.721683 160.644772 
L 190.833955 164.860281 
L 191.946226 165.059851 
L 193.058498 172.690612 
L 194.170769 163.970056 
L 196.395313 144.37541 
L 197.507584 160.229368 
L 198.619856 153.517054 
L 199.732128 166.02669 
L 200.844399 162.923304 
L 201.956671 158.40219 
L 203.068943 151.010761 
L 204.181214 160.214961 
L 205.293486 152.457967 
L 206.405757 152.921541 
L 207.518029 155.760544 
L 208.630301 153.52854 
L 209.742572 147.621096 
L 210.854844 150.683114 
L 211.967116 144.486397 
L 213.079387 154.995629 
L 214.191659 155.249045 
L 215.303931 151.115969 
L 216.416202 157.744038 
L 217.528474 156.652341 
L 218.640745 150.321114 
L 219.753017 150.158718 
L 220.865289 154.829112 
L 221.97756 160.552581 
L 223.089832 156.769974 
L 224.202104 156.63523 
L 225.314375 155.669861 
L 226.426647 159.423007 
L 227.538919 153.863186 
L 228.65119 156.654514 
L 229.763462 150.817106 
L 230.875733 167.814582 
L 231.988005 152.093066 
L 233.100277 160.467572 
L 234.212548 159.693731 
L 235.32482 161.378626 
L 236.437092 161.587974 
L 237.549363 156.979247 
L 238.661635 151.081325 
L 239.773907 164.202829 
L 240.886178 157.639595 
L 241.99845 151.969962 
L 243.110721 157.583285 
L 244.222993 153.442562 
L 245.335265 147.201694 
L 246.447536 145.81901 
L 247.559808 154.774804 
L 248.67208 150.535902 
L 249.784351 158.348755 
L 250.896623 154.667651 
L 252.008895 144.571617 
L 253.121166 166.617608 
L 254.233438 158.901626 
L 256.457981 149.19804 
L 257.570253 148.118121 
L 258.682524 158.439641 
L 259.794796 157.156967 
L 260.907068 144.788669 
L 262.019339 151.956301 
L 263.131611 157.518915 
L 264.243883 145.311255 
L 265.356154 158.340992 
L 266.468426 156.748303 
L 267.580697 148.623985 
L 268.692969 154.581727 
L 269.805241 145.807512 
L 270.917512 159.357287 
L 272.029784 146.618199 
L 273.142056 153.003211 
L 274.254327 158.311683 
L 275.366599 157.540488 
L 276.478871 163.482921 
L 277.591142 159.014961 
L 278.703414 147.529401 
L 279.815685 161.610992 
L 280.927957 147.88512 
L 282.040229 154.149258 
L 283.1525 157.696237 
L 284.264772 157.21388 
L 285.377044 153.681979 
L 286.489315 157.010726 
L 287.601587 150.156216 
L 288.713859 148.319472 
L 289.82613 153.490946 
L 290.938402 146.741647 
L 292.050673 152.172208 
L 293.162945 142.559915 
L 294.275217 146.364708 
L 295.387488 155.712256 
L 296.49976 148.572277 
L 297.612032 155.128277 
L 298.724303 151.857254 
L 299.836575 142.267067 
L 302.061118 156.015686 
L 303.17339 154.081321 
L 304.285661 153.611297 
L 305.397933 148.32091 
L 306.510205 143.969848 
L 307.622476 153.142504 
L 308.734748 153.591681 
L 309.84702 151.210447 
L 310.959291 155.171884 
L 312.071563 153.873478 
L 313.183835 154.340677 
L 314.296106 159.573047 
L 315.408378 151.06674 
L 316.520649 156.773004 
L 317.632921 151.851647 
L 318.745193 153.87347 
L 319.857464 158.967155 
L 320.969736 159.595769 
L 322.082008 154.646165 
L 323.194279 156.557007 
L 324.306551 156.86672 
L 325.418823 155.796792 
L 326.531094 163.962342 
L 327.643366 162.748478 
L 328.755637 159.521778 
L 329.867909 148.397314 
L 330.980181 154.580255 
L 332.092452 144.369593 
L 333.204724 154.673936 
L 334.316996 141.651395 
L 335.429267 154.500195 
L 336.541539 140.906518 
L 337.653811 153.385693 
L 338.766082 151.494005 
L 339.878354 154.944604 
L 340.990625 153.811398 
L 342.102897 139.92402 
L 343.215169 140.34778 
L 344.32744 148.59454 
L 345.439712 144.786085 
L 346.551984 158.203464 
L 347.664255 154.428173 
L 348.776527 145.937295 
L 349.888799 141.893883 
L 351.00107 135.867889 
L 352.113342 149.627547 
L 353.225613 151.354791 
L 354.337885 147.711189 
L 355.450157 154.105445 
L 356.562428 141.785762 
L 357.6747 143.844356 
L 358.786972 148.814629 
L 359.899243 166.07888 
L 361.011515 158.489799 
L 362.123787 158.42744 
L 363.236058 151.919909 
L 364.34833 157.996843 
L 365.460601 156.475257 
L 366.572873 170.303576 
L 367.685145 154.436644 
L 368.797416 153.869081 
L 369.909688 159.705256 
L 371.02196 147.776091 
L 372.134231 161.036651 
L 373.246503 147.916055 
L 374.358775 162.701677 
L 375.471046 161.146168 
L 376.583318 147.984275 
L 377.695589 156.691883 
L 378.807861 164.476522 
L 379.920133 164.554033 
L 381.032404 148.474692 
L 382.144676 148.651961 
L 383.256948 145.885168 
L 384.369219 147.061809 
L 385.481491 141.473372 
L 386.593763 139.154009 
L 387.706034 147.726156 
L 388.818306 139.368854 
L 389.930577 156.590435 
L 391.042849 139.241247 
L 392.155121 147.225971 
L 393.267392 150.351011 
L 394.379664 157.431021 
L 395.491936 147.12124 
L 396.604207 152.406839 
L 397.716479 151.041472 
L 398.828751 146.996394 
L 399.941022 149.073317 
L 401.053294 152.658891 
L 402.165565 163.448888 
L 403.277837 155.034858 
L 404.390109 144.015551 
L 405.50238 152.404842 
L 406.614652 162.635774 
L 407.726924 155.069012 
L 408.839195 146.527704 
L 409.951467 150.803828 
L 411.063739 153.935651 
L 412.17601 149.476274 
L 413.288282 161.334476 
L 414.400553 146.942286 
L 415.512825 139.765261 
L 416.625097 155.058584 
L 417.737368 148.109907 
L 418.84964 146.929945 
L 419.961912 154.021314 
L 421.074183 156.936955 
L 422.186455 150.8216 
L 423.298727 141.532236 
L 424.410998 144.230235 
L 425.52327 153.560094 
L 426.635541 153.640685 
L 427.747813 151.378221 
L 429.972356 157.85464 
L 431.084628 156.86676 
L 432.1969 152.964735 
L 433.309171 154.92199 
L 434.421443 151.322331 
L 435.533715 146.286697 
L 436.645986 149.973993 
L 437.758258 147.361507 
L 438.870529 151.697072 
L 439.982801 148.511172 
L 441.095073 158.388435 
L 443.319616 139.880899 
L 444.431888 156.424268 
L 445.544159 160.867313 
L 446.656431 154.697954 
L 447.768703 163.102406 
L 448.880974 144.993634 
L 449.993246 162.445222 
L 451.105517 153.969636 
L 452.217789 153.274023 
L 453.330061 155.374714 
L 454.442332 153.389482 
L 455.554604 149.789535 
L 456.666876 154.873544 
L 457.779147 163.416325 
L 458.891419 150.886105 
L 460.003691 145.833888 
L 461.115962 149.865383 
L 462.228234 155.194568 
L 463.340505 143.786775 
L 464.452777 154.748104 
L 465.565049 149.067738 
L 466.67732 156.880087 
L 467.789592 150.460856 
L 468.901864 155.4081 
L 470.014135 155.526036 
L 471.126407 157.941897 
L 472.238679 146.876869 
L 473.35095 149.125656 
L 474.463222 150.066321 
L 475.575493 156.930846 
L 476.687765 146.65683 
L 477.800037 151.575019 
L 478.912308 152.920425 
L 480.02458 150.881049 
L 482.249123 147.775523 
L 483.361395 150.374264 
L 484.473667 151.763911 
L 485.585938 159.387976 
L 486.69821 150.136838 
L 487.810481 161.557788 
L 488.922753 147.762164 
L 490.035025 166.547093 
L 491.147296 146.34547 
L 492.259568 148.823717 
L 493.37184 156.726045 
L 494.484111 141.796748 
L 495.596383 161.464081 
L 496.708655 151.40863 
L 497.820926 159.74145 
L 498.933198 163.657139 
L 500.045469 159.718393 
L 501.157741 153.254168 
L 502.270013 166.224901 
L 503.382284 161.014895 
L 504.494556 161.339751 
L 505.606828 162.293361 
L 506.719099 148.947442 
L 507.831371 159.322876 
L 508.943643 155.799574 
L 510.055914 163.186584 
L 511.168186 155.782209 
L 512.280457 152.597532 
L 513.392729 154.903525 
L 514.505001 155.399546 
L 515.617272 154.758769 
L 516.729544 158.968988 
L 517.841816 156.93761 
L 518.954087 159.068473 
L 518.954087 159.068473 
" clip-path="url(#p4b2f357b1f)" style="fill: none; stroke: #2ca02c; stroke-width: 1.5; stroke-linecap: square"/>
   </g>
   <g id="line2d_18">
    <path d="M 74.045433 194.168877 
L 74.194984 313.14952 
M 122.761152 313.14952 
L 122.985385 309.796084 
L 123.380391 313.14952 
M 124.628866 313.14952 
L 125.209928 306.488792 
L 126.3222 302.695978 
L 127.434471 300.670219 
L 128.546743 297.11925 
L 129.659015 292.584945 
L 130.771286 281.552531 
L 131.883558 290.667392 
L 132.995829 278.729904 
L 134.108101 281.595134 
L 135.220373 285.825506 
L 136.332644 283.218084 
L 137.444916 269.831882 
L 138.557188 267.416245 
L 139.669459 265.898837 
L 140.781731 277.269092 
L 141.894003 266.606141 
L 143.006274 265.978018 
L 145.230817 258.82348 
L 146.343089 262.346499 
L 147.455361 272.081133 
L 148.567632 256.962675 
L 149.679904 248.108369 
L 150.792176 248.738593 
L 151.904447 253.107175 
L 153.016719 244.141435 
L 154.128991 245.936965 
L 155.241262 252.775722 
L 156.353534 248.537312 
L 157.465805 238.364167 
L 158.578077 240.573992 
L 159.690349 231.174022 
L 160.80262 226.716488 
L 161.914892 228.654424 
L 163.027164 223.686065 
L 164.139435 237.489197 
L 165.251707 219.320837 
L 166.363979 238.268331 
L 167.47625 235.692637 
L 168.588522 219.291769 
L 169.700793 228.581893 
L 170.813065 215.732523 
L 171.925337 223.083853 
L 173.037608 224.277015 
L 174.14988 213.359769 
L 175.262152 222.746967 
L 176.374423 214.968186 
L 177.486695 228.927393 
L 178.598967 222.731836 
L 179.711238 213.127619 
L 180.82351 213.640322 
L 181.935781 236.738276 
L 183.048053 208.47079 
L 184.160325 223.055946 
L 185.272596 216.163092 
L 186.384868 206.372015 
L 187.49714 211.246702 
L 188.609411 214.365176 
L 189.721683 222.033511 
L 190.833955 204.671044 
L 191.946226 204.473508 
L 193.058498 212.222408 
L 194.170769 204.50724 
L 195.283041 200.186607 
L 196.395313 206.774948 
L 197.507584 196.514738 
L 198.619856 205.124408 
L 199.732128 201.968722 
L 200.844399 202.449207 
L 201.956671 214.054998 
L 203.068943 194.547372 
L 204.181214 195.720857 
L 205.293486 192.260777 
L 206.405757 200.65703 
L 207.518029 196.908345 
L 208.630301 201.704044 
L 209.742572 186.125027 
L 210.854844 203.752632 
L 211.967116 200.519312 
L 213.079387 199.552218 
L 214.191659 199.906443 
L 215.303931 199.181509 
L 216.416202 209.528131 
L 217.528474 200.754396 
L 218.640745 190.508896 
L 219.753017 197.36698 
L 220.865289 198.040475 
L 221.97756 205.462401 
L 223.089832 202.80243 
L 224.202104 208.127518 
L 225.314375 196.10232 
L 226.426647 205.714954 
L 227.538919 191.426141 
L 228.65119 195.172162 
L 229.763462 199.747061 
L 230.875733 208.838243 
L 231.988005 198.418929 
L 233.100277 213.590779 
L 234.212548 198.288581 
L 235.32482 205.842146 
L 236.437092 208.963934 
L 237.549363 204.103183 
L 238.661635 194.12517 
L 239.773907 208.718307 
L 240.886178 200.812503 
L 241.99845 194.698283 
L 243.110721 197.160534 
L 244.222993 199.207132 
L 245.335265 184.790281 
L 246.447536 195.721504 
L 247.559808 200.45661 
L 248.67208 188.36281 
L 249.784351 193.779039 
L 250.896623 196.270604 
L 252.008895 203.26153 
L 253.121166 204.129611 
L 254.233438 206.929751 
L 255.345709 203.553669 
L 256.457981 195.956756 
L 257.570253 192.157743 
L 258.682524 198.094005 
L 259.794796 193.906712 
L 260.907068 198.930418 
L 262.019339 196.302323 
L 263.131611 194.985855 
L 264.243883 195.49034 
L 266.468426 206.445509 
L 267.580697 210.864508 
L 268.692969 207.424181 
L 269.805241 194.960994 
L 270.917512 202.440397 
L 272.029784 195.081677 
L 273.142056 201.581674 
L 274.254327 191.743954 
L 275.366599 207.804351 
L 276.478871 210.491494 
L 277.591142 199.930539 
L 278.703414 204.729653 
L 279.815685 205.460415 
L 280.927957 197.006833 
L 282.040229 200.117599 
L 283.1525 202.64372 
L 284.264772 197.750415 
L 285.377044 196.213622 
L 286.489315 191.105322 
L 287.601587 207.722794 
L 288.713859 193.342598 
L 289.82613 197.298769 
L 290.938402 195.541037 
L 292.050673 197.965077 
L 293.162945 198.336525 
L 294.275217 188.144504 
L 295.387488 202.490492 
L 296.49976 192.539936 
L 297.612032 195.675788 
L 298.724303 194.863705 
L 299.836575 196.829547 
L 300.948847 196.273732 
L 302.061118 207.143733 
L 303.17339 193.354459 
L 304.285661 197.17695 
L 305.397933 204.345109 
L 306.510205 203.319675 
L 307.622476 215.137616 
L 308.734748 195.495995 
L 309.84702 199.671669 
L 310.959291 200.837742 
L 312.071563 186.389566 
L 313.183835 196.309083 
L 314.296106 197.929819 
L 315.408378 194.526968 
L 316.520649 192.507136 
L 317.632921 188.972616 
L 318.745193 199.153988 
L 319.857464 202.759523 
L 320.969736 199.443022 
L 322.082008 201.078961 
L 323.194279 200.457494 
L 324.306551 197.925031 
L 326.531094 216.371631 
L 327.643366 217.842943 
L 328.755637 203.598034 
L 329.867909 198.005925 
L 330.980181 189.099044 
L 332.092452 189.542826 
L 333.204724 202.447698 
L 334.316996 185.242322 
L 335.429267 193.743359 
L 336.541539 190.364572 
L 337.653811 193.064897 
L 338.766082 184.251195 
L 339.878354 190.412488 
L 340.990625 193.483971 
L 342.102897 186.57783 
L 343.215169 186.831805 
L 344.32744 198.19709 
L 345.439712 184.330675 
L 346.551984 186.52023 
L 347.664255 184.939132 
L 348.776527 175.876923 
L 349.888799 184.527988 
L 351.00107 184.764781 
L 352.113342 206.816003 
L 353.225613 188.464944 
L 354.337885 190.105116 
L 355.450157 197.558615 
L 356.562428 184.297589 
L 357.6747 194.051604 
L 358.786972 191.011971 
L 359.899243 203.956039 
L 361.011515 193.463706 
L 362.123787 186.627154 
L 363.236058 195.216557 
L 364.34833 216.299068 
L 365.460601 197.91311 
L 366.572873 197.264358 
L 367.685145 185.754496 
L 368.797416 201.741239 
L 369.909688 194.977226 
L 371.02196 196.259862 
L 372.134231 198.531569 
L 373.246503 186.326674 
L 374.358775 202.770736 
L 375.471046 196.196594 
L 376.583318 199.389762 
L 377.695589 203.677225 
L 378.807861 205.675838 
L 379.920133 200.177101 
L 381.032404 186.657509 
L 382.144676 203.659923 
L 383.256948 194.963901 
L 384.369219 195.368883 
L 385.481491 177.148266 
L 386.593763 196.175922 
L 387.706034 181.700143 
L 388.818306 189.889208 
L 389.930577 193.513597 
L 391.042849 197.560999 
L 392.155121 192.013901 
L 393.267392 198.688584 
L 395.491936 190.027722 
L 396.604207 199.052529 
L 397.716479 200.158635 
L 398.828751 203.810803 
L 399.941022 205.365219 
L 401.053294 198.529807 
L 402.165565 202.939839 
L 403.277837 205.079329 
L 404.390109 195.957857 
L 405.50238 217.0158 
L 406.614652 209.099168 
L 407.726924 204.303133 
L 408.839195 204.697448 
L 409.951467 204.021553 
L 411.063739 201.439087 
L 412.17601 194.311257 
L 413.288282 197.217101 
L 414.400553 193.242806 
L 415.512825 195.999419 
L 416.625097 209.61291 
L 417.737368 199.347676 
L 418.84964 194.550507 
L 419.961912 197.469666 
L 421.074183 190.893256 
L 422.186455 192.908278 
L 423.298727 183.883802 
L 424.410998 190.565183 
L 425.52327 201.166757 
L 426.635541 188.25739 
L 427.747813 192.062556 
L 428.860085 208.769478 
L 429.972356 201.045493 
L 431.084628 200.399915 
L 432.1969 196.901855 
L 433.309171 202.860005 
L 434.421443 187.020357 
L 435.533715 193.849186 
L 436.645986 198.342246 
L 437.758258 187.245624 
L 438.870529 197.35167 
L 439.982801 196.39152 
L 441.095073 197.572103 
L 442.207344 191.100467 
L 443.319616 188.08361 
L 444.431888 187.448545 
L 445.544159 212.872448 
L 446.656431 193.476746 
L 447.768703 207.022172 
L 448.880974 192.962858 
L 449.993246 210.639901 
L 451.105517 189.779774 
L 452.217789 192.000507 
L 453.330061 192.85667 
L 454.442332 194.830966 
L 455.554604 186.403183 
L 456.666876 188.143319 
L 457.779147 201.431418 
L 458.891419 200.717252 
L 460.003691 202.253037 
L 461.115962 188.835647 
L 462.228234 196.329036 
L 463.340505 188.151829 
L 464.452777 194.15217 
L 465.565049 187.825161 
L 466.67732 190.01129 
L 467.789592 201.311464 
L 468.901864 195.030961 
L 471.126407 204.917866 
L 472.238679 184.086502 
L 473.35095 192.889329 
L 474.463222 188.570212 
L 475.575493 197.621834 
L 476.687765 192.063639 
L 477.800037 205.582306 
L 478.912308 195.819357 
L 480.02458 200.149436 
L 481.136852 181.615908 
L 482.249123 191.063702 
L 483.361395 199.430221 
L 484.473667 193.612327 
L 485.585938 204.416532 
L 486.69821 194.379161 
L 487.810481 197.110311 
L 488.922753 203.260834 
L 490.035025 199.208365 
L 491.147296 191.818511 
L 492.259568 205.659225 
L 493.37184 192.054859 
L 494.484111 198.165812 
L 495.596383 202.514328 
L 496.708655 193.365475 
L 497.820926 199.67059 
L 498.933198 214.704671 
L 500.045469 202.853635 
L 501.157741 198.052628 
L 502.270013 199.104741 
L 503.382284 200.806801 
L 504.494556 204.89842 
L 505.606828 215.336134 
L 506.719099 202.2947 
L 507.831371 200.915441 
L 508.943643 195.548413 
L 510.055914 202.158749 
L 511.168186 203.669703 
L 512.280457 211.539499 
L 513.392729 200.888636 
L 514.505001 195.391914 
L 515.617272 194.649078 
L 516.729544 196.704586 
L 517.841816 201.572769 
L 518.954087 196.996169 
L 518.954087 196.996169 
" clip-path="url(#p4b2f357b1f)" style="fill: none; stroke: #d62728; stroke-width: 1.5; stroke-linecap: square"/>
   </g>
   <g id="line2d_19">
    <path d="M 74.045433 221.618212 
L 74.15908 313.14952 
M 136.535983 313.14952 
L 137.444916 293.99763 
L 138.557188 312.098191 
L 139.669459 300.550076 
L 140.505522 313.14952 
M 142.097741 313.14952 
L 143.006274 299.687758 
L 143.596648 313.14952 
M 144.591213 313.14952 
L 145.230817 297.046155 
L 146.061848 313.14952 
M 146.702027 313.14952 
L 147.455361 301.711608 
L 148.567632 292.365187 
L 149.679904 305.178106 
L 150.792176 293.658129 
L 151.904447 308.864923 
L 153.016719 273.411749 
L 154.128991 301.53842 
L 155.241262 290.172348 
L 156.353534 298.849016 
L 157.465805 286.896162 
L 158.578077 283.591327 
L 159.690349 269.772418 
L 160.80262 260.336375 
L 161.914892 271.487145 
L 163.027164 256.645227 
L 164.139435 268.491253 
L 165.251707 262.999552 
L 166.363979 274.417273 
L 167.47625 277.945457 
L 168.588522 265.444885 
L 169.700793 255.294653 
L 170.813065 250.840726 
L 171.925337 241.378747 
L 173.037608 256.758859 
L 174.14988 262.955363 
L 175.262152 261.599385 
L 176.374423 266.757464 
L 177.486695 252.557136 
L 178.598967 271.552388 
L 179.711238 243.688713 
L 180.82351 242.253759 
L 181.935781 263.293496 
L 183.048053 239.17565 
L 184.160325 271.325287 
L 185.272596 264.05536 
L 186.384868 259.408087 
L 187.49714 241.344848 
L 188.609411 252.082493 
L 189.721683 254.392929 
L 190.833955 246.699723 
L 191.946226 257.342431 
L 193.058498 260.59713 
L 194.170769 250.109911 
L 195.283041 245.037783 
L 196.395313 246.873477 
L 197.507584 236.004434 
L 198.619856 247.863857 
L 200.844399 237.462959 
L 201.956671 255.050888 
L 203.068943 253.23982 
L 204.181214 227.462363 
L 205.293486 221.202819 
L 206.405757 244.258782 
L 207.518029 234.038533 
L 208.630301 236.829782 
L 209.742572 236.475044 
L 210.854844 235.450797 
L 211.967116 246.479669 
L 213.079387 239.373307 
L 214.191659 238.189669 
L 215.303931 243.833329 
L 216.416202 233.051963 
L 217.528474 245.798372 
L 218.640745 232.268631 
L 219.753017 241.858798 
L 220.865289 245.374017 
L 221.97756 259.609749 
L 223.089832 239.174865 
L 224.202104 226.232216 
L 225.314375 230.501831 
L 226.426647 247.365358 
L 228.65119 239.576655 
L 229.763462 240.514173 
L 230.875733 242.032333 
L 231.988005 246.437459 
L 233.100277 232.274687 
L 234.212548 244.20448 
L 235.32482 244.911035 
L 236.437092 239.371069 
L 237.549363 251.067202 
L 238.661635 244.484533 
L 239.773907 247.495756 
L 241.99845 229.918694 
L 243.110721 251.633345 
L 244.222993 253.241506 
L 245.335265 227.021407 
L 246.447536 223.343599 
L 247.559808 250.670996 
L 248.67208 216.782788 
L 249.784351 247.407769 
L 250.896623 227.209074 
L 252.008895 243.780929 
L 253.121166 234.760194 
L 254.233438 261.993051 
L 255.345709 238.512683 
L 256.457981 228.937142 
L 257.570253 240.763872 
L 258.682524 239.371379 
L 259.794796 233.567821 
L 260.907068 227.031799 
L 262.019339 239.936287 
L 263.131611 236.885372 
L 264.243883 236.812761 
L 265.356154 243.242927 
L 266.468426 239.732604 
L 267.580697 263.849059 
L 268.692969 236.953984 
L 269.805241 232.254178 
L 270.917512 245.474127 
L 272.029784 245.288697 
L 273.142056 248.600788 
L 274.254327 237.091985 
L 275.366599 236.677844 
L 276.478871 249.901492 
L 277.591142 229.446962 
L 278.703414 248.019373 
L 279.815685 238.22597 
L 280.927957 239.695594 
L 282.040229 246.671964 
L 283.1525 250.026384 
L 284.264772 237.647194 
L 285.377044 235.066995 
L 286.489315 256.643113 
L 287.601587 233.882955 
L 288.713859 228.046603 
L 289.82613 249.010938 
L 290.938402 239.938829 
L 292.050673 233.006249 
L 293.162945 220.410532 
L 294.275217 229.532834 
L 295.387488 250.788927 
L 296.49976 247.2416 
L 297.612032 232.070803 
L 298.724303 228.48527 
L 299.836575 233.97756 
L 300.948847 238.302937 
L 302.061118 246.822432 
L 303.17339 233.828691 
L 304.285661 223.58522 
L 305.397933 231.725076 
L 306.510205 233.927648 
L 307.622476 262.269294 
L 308.734748 242.253563 
L 309.84702 263.056475 
L 310.959291 242.213561 
L 312.071563 246.239515 
L 313.183835 245.004268 
L 314.296106 240.145372 
L 315.408378 248.283237 
L 316.520649 233.676019 
L 317.632921 237.740955 
L 318.745193 248.683845 
L 319.857464 232.372306 
L 320.969736 225.831331 
L 322.082008 232.476821 
L 323.194279 230.095647 
L 324.306551 238.119942 
L 325.418823 236.195096 
L 326.531094 251.558827 
L 327.643366 256.160599 
L 328.755637 238.48172 
L 329.867909 231.203195 
L 330.980181 222.088599 
L 332.092452 235.292824 
L 333.204724 225.581944 
L 334.316996 221.399335 
L 335.429267 241.860645 
L 336.541539 238.763528 
L 337.653811 223.691981 
L 338.766082 225.393626 
L 339.878354 223.539268 
L 340.990625 252.001267 
L 342.102897 227.46617 
L 343.215169 232.880633 
L 344.32744 237.196308 
L 345.439712 237.465176 
L 346.551984 221.977826 
L 347.664255 218.618197 
L 348.776527 226.995261 
L 349.888799 224.924473 
L 351.00107 238.832638 
L 352.113342 234.451228 
L 353.225613 227.397644 
L 354.337885 235.504644 
L 355.450157 232.364148 
L 356.562428 230.613014 
L 357.6747 238.954137 
L 358.786972 239.151266 
L 359.899243 242.689936 
L 361.011515 222.044922 
L 362.123787 225.889497 
L 363.236058 242.397407 
L 364.34833 233.211847 
L 365.460601 235.911195 
L 366.572873 249.849057 
L 367.685145 216.876784 
L 368.797416 240.579298 
L 369.909688 236.825862 
L 371.02196 254.944392 
L 372.134231 236.361057 
L 373.246503 228.147295 
L 374.358775 231.752985 
L 375.471046 238.859065 
L 376.583318 226.555297 
L 377.695589 232.714211 
L 378.807861 252.90155 
L 381.032404 231.507039 
L 382.144676 250.513452 
L 383.256948 224.658737 
L 384.369219 233.855939 
L 385.481491 215.895179 
L 386.593763 249.788975 
L 387.706034 223.189638 
L 388.818306 237.501763 
L 389.930577 241.891939 
L 391.042849 233.393631 
L 392.155121 223.399552 
L 393.267392 229.027349 
L 394.379664 229.37513 
L 395.491936 242.910462 
L 396.604207 246.042755 
L 397.716479 238.241308 
L 398.828751 241.379697 
L 399.941022 239.461133 
L 401.053294 254.297265 
L 402.165565 238.820757 
L 403.277837 240.51777 
L 404.390109 234.733422 
L 405.50238 243.958339 
L 406.614652 247.860247 
L 407.726924 247.128207 
L 408.839195 237.747724 
L 409.951467 248.123015 
L 411.063739 253.471736 
L 412.17601 218.370229 
L 413.288282 240.235621 
L 414.400553 238.527847 
L 415.512825 250.985217 
L 416.625097 244.184806 
L 417.737368 250.747929 
L 418.84964 236.588744 
L 419.961912 237.269511 
L 421.074183 236.511858 
L 422.186455 229.964184 
L 423.298727 228.902811 
L 424.410998 225.651547 
L 425.52327 227.125408 
L 426.635541 218.206931 
L 428.860085 243.066312 
L 429.972356 236.586573 
L 431.084628 233.81627 
L 432.1969 232.719287 
L 433.309171 232.993611 
L 434.421443 220.042027 
L 435.533715 223.672615 
L 436.645986 240.668626 
L 437.758258 216.192302 
L 438.870529 237.467873 
L 439.982801 220.408079 
L 441.095073 240.473121 
L 442.207344 244.855941 
L 443.319616 245.266439 
L 444.431888 237.655977 
L 445.544159 258.396221 
L 446.656431 219.118363 
L 447.768703 237.165322 
L 448.880974 238.566558 
L 449.993246 246.509566 
L 451.105517 219.95112 
L 452.217789 222.451 
L 453.330061 228.68441 
L 454.442332 236.244341 
L 455.554604 227.683634 
L 456.666876 229.684617 
L 457.779147 240.099953 
L 458.891419 230.34229 
L 460.003691 232.266033 
L 461.115962 230.505775 
L 462.228234 247.349817 
L 463.340505 245.874416 
L 464.452777 252.128034 
L 465.565049 217.278042 
L 466.67732 224.945351 
L 467.789592 243.779684 
L 468.901864 232.844193 
L 470.014135 248.598047 
L 471.126407 252.505725 
L 472.238679 232.769886 
L 473.35095 234.614158 
L 474.463222 244.275591 
L 475.575493 231.990501 
L 476.687765 252.78484 
L 477.800037 248.860829 
L 478.912308 232.768966 
L 480.02458 236.585979 
L 481.136852 224.225996 
L 482.249123 247.112838 
L 483.361395 229.615509 
L 484.473667 224.073905 
L 485.585938 230.672648 
L 486.69821 225.945187 
L 487.810481 224.480982 
L 488.922753 249.848035 
L 490.035025 247.660449 
L 491.147296 238.034233 
L 492.259568 250.432574 
L 493.37184 224.36664 
L 494.484111 240.822618 
L 495.596383 234.474163 
L 496.708655 242.600518 
L 497.820926 236.835552 
L 498.933198 242.445021 
L 500.045469 232.69491 
L 502.270013 243.951658 
L 503.382284 247.932115 
L 504.494556 235.100417 
L 505.606828 253.986979 
L 506.719099 260.680623 
L 507.831371 244.21325 
L 508.943643 249.233994 
L 510.055914 243.806819 
L 511.168186 241.323533 
L 512.280457 258.435073 
L 513.392729 241.598205 
L 514.505001 232.918303 
L 515.617272 239.767201 
L 516.729544 228.150676 
L 517.841816 245.096111 
L 518.954087 258.22324 
L 518.954087 258.22324 
" clip-path="url(#p4b2f357b1f)" style="fill: none; stroke: #9467bd; stroke-width: 1.5; stroke-linecap: square"/>
   </g>
   <g id="line2d_20">
    <path d="M 51.8 60.084425 
L 541.19952 60.084425 
" clip-path="url(#p4b2f357b1f)" style="fill: none; stroke-dasharray: 1.5,2.475; stroke-dashoffset: 0; stroke: #000000; stroke-width: 1.5"/>
   </g>
   <g id="line2d_21">
    <path d="M 51.8 104.44993 
L 541.19952 104.44993 
" clip-path="url(#p4b2f357b1f)" style="fill: none; stroke-dasharray: 1.5,2.475; stroke-dashoffset: 0; stroke: #000000; stroke-width: 1.5"/>
   </g>
   <g id="line2d_22">
    <path d="M 51.8 150.441047 
L 541.19952 150.441047 
" clip-path="url(#p4b2f357b1f)" style="fill: none; stroke-dasharray: 1.5,2.475; stroke-dashoffset: 0; stroke: #000000; stroke-width: 1.5"/>
   </g>
   <g id="line2d_23">
    <path d="M 51.8 195.927917 
L 541.19952 195.927917 
" clip-path="url(#p4b2f357b1f)" style="fill: none; stroke-dasharray: 1.5,2.475; stroke-dashoffset: 0; stroke: #000000; stroke-width: 1.5"/>
   </g>
   <g id="line2d_24">
    <path d="M 51.8 238.871647 
L 541.19952 238.871647 
" clip-path="url(#p4b2f357b1f)" style="fill: none; stroke-dasharray: 1.5,2.475; stroke-dashoffset: 0; stroke: #000000; stroke-width: 1.5"/>
   </g>
   <g id="patch_3">
    <path d="M 51.8 274.94952 
L 51.8 22.08 
" style="fill: none; stroke: #000000; stroke-width: 0.8; stroke-linejoin: miter; stroke-linecap: square"/>
   </g>
   <g id="patch_4">
    <path d="M 51.8 274.94952 
L 541.19952 274.94952 
" style="fill: none; stroke: #000000; stroke-width: 0.8; stroke-linejoin: miter; stroke-linecap: square"/>
   </g>
   <g id="text_17">
    <!-- Temperature percentiles during the NVT run -->
    <g transform="translate(177.795385 16.08) scale(0.12 -0.12)">
     <defs>
      <path id="IBMPlexSans-63" d="M 1773 -77 
C 2400 -77 2829 230 3040 704 
L 2669 954 
C 2490 576 2189 378 1773 378 
C 1165 378 851 794 851 1370 
L 851 1933 
C 851 2509 1165 2925 1773 2925 
C 2176 2925 2458 2726 2579 2387 
L 3008 2605 
C 2816 3059 2426 3379 1773 3379 
C 845 3379 301 2707 301 1651 
C 301 595 845 -77 1773 -77 
z
" transform="scale(0.015625)"/>
      <path id="IBMPlexSans-6e" d="M 1056 0 
L 1056 2291 
C 1056 2714 1453 2918 1862 2918 
C 2355 2918 2611 2618 2611 2029 
L 2611 0 
L 3123 0 
L 3123 2118 
C 3123 2918 2694 3379 2016 3379 
C 1523 3379 1242 3136 1082 2765 
L 1056 2765 
L 1056 3302 
L 544 3302 
L 544 0 
L 1056 0 
z
" transform="scale(0.015625)"/>
      <path id="IBMPlexSans-6c" d="M 1542 0 
L 1542 448 
L 1056 448 
L 1056 4736 
L 544 4736 
L 544 531 
C 544 224 736 0 1088 0 
L 1542 0 
z
" transform="scale(0.015625)"/>
      <path id="IBMPlexSans-64" d="M 2656 0 
L 3168 0 
L 3168 4736 
L 2656 4736 
L 2656 2765 
L 2630 2765 
C 2458 3181 2118 3379 1664 3379 
C 838 3379 320 2707 320 1651 
C 320 595 838 -77 1664 -77 
C 2118 -77 2432 128 2630 538 
L 2656 538 
L 2656 0 
z
M 1805 384 
C 1229 384 870 781 870 1370 
L 870 1933 
C 870 2522 1229 2918 1805 2918 
C 2272 2918 2656 2650 2656 2285 
L 2656 1056 
C 2656 627 2272 384 1805 384 
z
" transform="scale(0.015625)"/>
      <path id="IBMPlexSans-67" d="M 3328 -365 
C 3328 179 2976 512 2157 512 
L 1453 512 
C 1152 512 947 563 947 762 
C 947 966 1165 1075 1382 1133 
C 1478 1114 1594 1101 1702 1101 
C 2458 1101 2950 1568 2950 2240 
C 2950 2592 2810 2886 2573 3091 
L 2573 3302 
L 3200 3302 
L 3200 3750 
L 2707 3750 
C 2432 3750 2323 3565 2323 3309 
L 2323 3251 
C 2144 3334 1933 3379 1696 3379 
C 947 3379 454 2912 454 2240 
C 454 1779 685 1414 1075 1229 
L 1075 1203 
C 742 1120 506 960 506 627 
C 506 403 614 256 800 166 
L 800 96 
C 474 6 275 -186 275 -544 
C 275 -1062 698 -1357 1728 -1357 
C 2790 -1357 3328 -1043 3328 -365 
z
M 2848 -403 
C 2848 -762 2515 -941 1946 -941 
L 1472 -941 
C 954 -941 755 -704 755 -416 
C 755 -211 851 -64 1062 32 
L 2163 32 
C 2675 32 2848 -141 2848 -403 
z
M 1702 1510 
C 1267 1510 992 1715 992 2150 
L 992 2330 
C 992 2765 1267 2970 1702 2970 
C 2138 2970 2413 2765 2413 2330 
L 2413 2150 
C 2413 1715 2138 1510 1702 1510 
z
" transform="scale(0.015625)"/>
      <path id="IBMPlexSans-68" d="M 544 0 
L 1056 0 
L 1056 2291 
C 1056 2714 1453 2918 1862 2918 
C 2355 2918 2611 2618 2611 2029 
L 2611 0 
L 3123 0 
L 3123 2118 
C 3123 2918 2694 3379 2016 3379 
C 1523 3379 1242 3136 1082 2765 
L 1056 2765 
L 1056 4736 
L 544 4736 
L 544 0 
z
" transform="scale(0.015625)"/>
      <path id="IBMPlexSans-4e" d="M 3309 0 
L 3930 0 
L 3930 4467 
L 3405 4467 
L 3405 749 
L 3386 749 
L 2848 1741 
L 1216 4467 
L 595 4467 
L 595 0 
L 1120 0 
L 1120 3718 
L 1139 3718 
L 1677 2726 
L 3309 0 
z
" transform="scale(0.015625)"/>
      <path id="IBMPlexSans-56" d="M 2266 0 
L 3770 4467 
L 3213 4467 
L 2470 2214 
L 1965 538 
L 1933 538 
L 1440 2214 
L 704 4467 
L 128 4467 
L 1613 0 
L 2266 0 
z
" transform="scale(0.015625)"/>
     </defs>
     <use xlink:href="#IBMPlexSans-54"/>
     <use xlink:href="#IBMPlexSans-65" transform="translate(57.199997 0)"/>
     <use xlink:href="#IBMPlexSans-6d" transform="translate(112.099991 0)"/>
     <use xlink:href="#IBMPlexSans-70" transform="translate(199.399979 0)"/>
     <use xlink:href="#IBMPlexSans-65" transform="translate(257.399963 0)"/>
     <use xlink:href="#IBMPlexSans-72" transform="translate(312.299957 0)"/>
     <use xlink:href="#IBMPlexSans-61" transform="translate(348.999954 0)"/>
     <use xlink:href="#IBMPlexSans-74" transform="translate(402.399948 0)"/>
     <use xlink:href="#IBMPlexSans-75" transform="translate(437.499939 0)"/>
     <use xlink:href="#IBMPlexSans-72" transform="translate(494.299927 0)"/>
     <use xlink:href="#IBMPlexSans-65" transform="translate(530.999924 0)"/>
     <use xlink:href="#IBMPlexSans-20" transform="translate(585.899918 0)"/>
     <use xlink:href="#IBMPlexSans-70" transform="translate(609.499908 0)"/>
     <use xlink:href="#IBMPlexSans-65" transform="translate(667.499893 0)"/>
     <use xlink:href="#IBMPlexSans-72" transform="translate(722.399887 0)"/>
     <use xlink:href="#IBMPlexSans-63" transform="translate(759.099884 0)"/>
     <use xlink:href="#IBMPlexSans-65" transform="translate(809.399872 0)"/>
     <use xlink:href="#IBMPlexSans-6e" transform="translate(864.299866 0)"/>
     <use xlink:href="#IBMPlexSans-74" transform="translate(921.099854 0)"/>
     <use xlink:href="#IBMPlexSans-69" transform="translate(956.199844 0)"/>
     <use xlink:href="#IBMPlexSans-6c" transform="translate(981.199829 0)"/>
     <use xlink:href="#IBMPlexSans-65" transform="translate(1008.399826 0)"/>
     <use xlink:href="#IBMPlexSans-73" transform="translate(1063.29982 0)"/>
     <use xlink:href="#IBMPlexSans-20" transform="translate(1111.999817 0)"/>
     <use xlink:href="#IBMPlexSans-64" transform="translate(1135.599808 0)"/>
     <use xlink:href="#IBMPlexSans-75" transform="translate(1193.599792 0)"/>
     <use xlink:href="#IBMPlexSans-72" transform="translate(1250.39978 0)"/>
     <use xlink:href="#IBMPlexSans-69" transform="translate(1287.099777 0)"/>
     <use xlink:href="#IBMPlexSans-6e" transform="translate(1312.099762 0)"/>
     <use xlink:href="#IBMPlexSans-67" transform="translate(1368.89975 0)"/>
     <use xlink:href="#IBMPlexSans-20" transform="translate(1421.699738 0)"/>
     <use xlink:href="#IBMPlexSans-74" transform="translate(1445.299728 0)"/>
     <use xlink:href="#IBMPlexSans-68" transform="translate(1480.399719 0)"/>
     <use xlink:href="#IBMPlexSans-65" transform="translate(1537.199707 0)"/>
     <use xlink:href="#IBMPlexSans-20" transform="translate(1592.099701 0)"/>
     <use xlink:href="#IBMPlexSans-4e" transform="translate(1615.699692 0)"/>
     <use xlink:href="#IBMPlexSans-56" transform="translate(1686.399673 0)"/>
     <use xlink:href="#IBMPlexSans-54" transform="translate(1747.299667 0)"/>
     <use xlink:href="#IBMPlexSans-20" transform="translate(1804.499664 0)"/>
     <use xlink:href="#IBMPlexSans-72" transform="translate(1828.099655 0)"/>
     <use xlink:href="#IBMPlexSans-75" transform="translate(1864.799652 0)"/>
     <use xlink:href="#IBMPlexSans-6e" transform="translate(1921.59964 0)"/>
    </g>
   </g>
   <g id="legend_1">
    <g id="patch_5">
     <path d="M 58.8 102.08 
L 114.429688 102.08 
Q 116.429688 102.08 116.429688 100.08 
L 116.429688 29.08 
Q 116.429688 27.08 114.429688 27.08 
L 58.8 27.08 
Q 56.8 27.08 56.8 29.08 
L 56.8 100.08 
Q 56.8 102.08 58.8 102.08 
z
" style="fill: #ffffff; opacity: 0.8; stroke: #cccccc; stroke-linejoin: miter"/>
    </g>
    <g id="line2d_25">
     <path d="M 60.8 34.98 
L 70.8 34.98 
L 80.8 34.98 
" style="fill: none; stroke: #1f77b4; stroke-width: 1.5; stroke-linecap: square"/>
    </g>
    <g id="text_18">
     <!-- 95 % -->
     <g transform="translate(88.8 38.48) scale(0.1 -0.1)">
      <defs>
       <path id="IBMPlexSans-39" d="M 3411 2829 
C 3411 3891 2842 4544 1914 4544 
C 1018 4544 429 3942 429 3066 
C 429 2221 979 1690 1747 1690 
C 2291 1690 2611 1965 2822 2330 
L 2854 2317 
C 2611 1280 2080 698 1126 0 
L 1818 0 
C 2534 467 3411 1504 3411 2829 
z
M 1920 2144 
C 1331 2144 986 2483 986 3085 
L 986 3136 
C 986 3738 1331 4077 1920 4077 
C 2509 4077 2854 3738 2854 3136 
L 2854 3085 
C 2854 2483 2509 2144 1920 2144 
z
" transform="scale(0.015625)"/>
       <path id="IBMPlexSans-25" d="M 1664 0 
L 4762 4467 
L 4269 4467 
L 1171 0 
L 1664 0 
z
M 1427 2010 
C 2074 2010 2438 2458 2438 3277 
C 2438 4096 2074 4544 1427 4544 
C 781 4544 416 4096 416 3277 
C 416 2458 781 2010 1427 2010 
z
M 1427 2342 
C 1056 2342 877 2598 877 3085 
L 877 3469 
C 877 3955 1056 4211 1427 4211 
C 1798 4211 1978 3955 1978 3469 
L 1978 3085 
C 1978 2598 1798 2342 1427 2342 
z
M 4506 -77 
C 5152 -77 5517 371 5517 1190 
C 5517 2010 5152 2458 4506 2458 
C 3859 2458 3494 2010 3494 1190 
C 3494 371 3859 -77 4506 -77 
z
M 4506 256 
C 4134 256 3955 512 3955 998 
L 3955 1382 
C 3955 1869 4134 2125 4506 2125 
C 4877 2125 5056 1869 5056 1382 
L 5056 998 
C 5056 512 4877 256 4506 256 
z
" transform="scale(0.015625)"/>
      </defs>
      <use xlink:href="#IBMPlexSans-39"/>
      <use xlink:href="#IBMPlexSans-35" transform="translate(59.999985 0)"/>
      <use xlink:href="#IBMPlexSans-20" transform="translate(119.999969 0)"/>
      <use xlink:href="#IBMPlexSans-25" transform="translate(143.59996 0)"/>
     </g>
    </g>
    <g id="line2d_26">
     <path d="M 60.8 49.38 
L 70.8 49.38 
L 80.8 49.38 
" style="fill: none; stroke: #ff7f0e; stroke-width: 1.5; stroke-linecap: square"/>
    </g>
    <g id="text_19">
     <!-- 80 % -->
     <g transform="translate(88.8 52.88) scale(0.1 -0.1)">
      <use xlink:href="#IBMPlexSans-38"/>
      <use xlink:href="#IBMPlexSans-30" transform="translate(59.999985 0)"/>
      <use xlink:href="#IBMPlexSans-20" transform="translate(119.999969 0)"/>
      <use xlink:href="#IBMPlexSans-25" transform="translate(143.59996 0)"/>
     </g>
    </g>
    <g id="line2d_27">
     <path d="M 60.8 63.78 
L 70.8 63.78 
L 80.8 63.78 
" style="fill: none; stroke: #2ca02c; stroke-width: 1.5; stroke-linecap: square"/>
    </g>
    <g id="text_20">
     <!-- 50 % -->
     <g transform="translate(88.8 67.28) scale(0.1 -0.1)">
      <use xlink:href="#IBMPlexSans-35"/>
      <use xlink:href="#IBMPlexSans-30" transform="translate(59.999985 0)"/>
      <use xlink:href="#IBMPlexSans-20" transform="translate(119.999969 0)"/>
      <use xlink:href="#IBMPlexSans-25" transform="translate(143.59996 0)"/>
     </g>
    </g>
    <g id="line2d_28">
     <path d="M 60.8 78.18 
L 70.8 78.18 
L 80.8 78.18 
" style="fill: none; stroke: #d62728; stroke-width: 1.5; stroke-linecap: square"/>
    </g>
    <g id="text_21">
     <!-- 20 % -->
     <g transform="translate(88.8 81.68) scale(0.1 -0.1)">
      <use xlink:href="#IBMPlexSans-32"/>
      <use xlink:href="#IBMPlexSans-30" transform="translate(59.999985 0)"/>
      <use xlink:href="#IBMPlexSans-20" transform="translate(119.999969 0)"/>
      <use xlink:href="#IBMPlexSans-25" transform="translate(143.59996 0)"/>
     </g>
    </g>
    <g id="line2d_29">
     <path d="M 60.8 92.58 
L 70.8 92.58 
L 80.8 92.58 
" style="fill: none; stroke: #9467bd; stroke-width: 1.5; stroke-linecap: square"/>
    </g>
    <g id="text_22">
     <!-- 5 % -->
     <g transform="translate(88.8 96.08) scale(0.1 -0.1)">
      <use xlink:href="#IBMPlexSans-35"/>
      <use xlink:href="#IBMPlexSans-20" transform="translate(59.999985 0)"/>
      <use xlink:href="#IBMPlexSans-25" transform="translate(83.599976 0)"/>
     </g>
    </g>
   </g>
  </g>
 </g>
 <defs>
  <clipPath id="p4b2f357b1f">
   <rect x="51.8" y="22.08" width="489.39952" height="252.86952"/>
  </clipPath>
 </defs>
</svg>