<?xml version="1.0" encoding="utf-8" standalone="no"?>
<!DOCTYPE svg PUBLIC "-//W3C//DTD SVG 1.1//EN"
  "http://www.w3.org/Graphics/SVG/1.1/DTD/svg11.dtd">
<svg xmlns:xlink="http://www.w3.org/1999/xlink" width="548.39952pt" height="312.148961pt" viewBox="0 0 548.39952 312.148961" xmlns="http://www.w3.org/2000/svg" version="1.1">
 <metadata>
  <rdf:RDF xmlns:dc="http://purl.org/dc/elements/1.1/" xmlns:cc="http://creativecommons.org/ns#" xmlns:rdf="http://www.w3.org/1999/02/22-rdf-syntax-ns#">
   <cc:Work>
    <dc:type rdf:resource="http://purl.org/dc/dcmitype/StillImage"/>
    <dc:date>2026-01-27T08:27:16.208857</dc:date>
    <dc:format>image/svg+xml</dc:format>
    <dc:creator>
     <cc:Agent>
      <dc:title>Matplotlib v3.10.7, https://matplotlib.org/</dc:title>
     </cc:Agent>
    </dc:creator>
   </cc:Work>
  </rdf:RDF>
 </metadata>
 <defs>
  <style type="text/css">*{stroke-linejoin: round; stroke-linecap: butt}</style>
 </defs>
 <g id="figure_1">
  <g id="patch_1">
   <path d="M 0 312.148961 
L 548.39952 312.148961 
L 548.39952 0 
L 0 0 
z
" style="fill: #ffffff"/>
  </g>
  <g id="axes_1">
   <g id="patch_2">
    <path d="M 48.640625 128.557247 
L 272.719832 128.557247 
L 272.719832 8.266013 
L 48.640625 8.266013 
z
" style="fill: #ffffff"/>
   </g>
   <g id="matplotlib.axis_1">
    <g id="xtick_1">
     <g id="line2d_1">
      <defs>
       <path id="m12c7bc233d" d="M 0 0 
L 0 3.5 
" style="stroke: #000000; stroke-width: 0.8"/>
      </defs>
      <g>
       <use xlink:href="#m12c7bc233d" x="87.056532" y="128.557247" style="stroke: #000000; stroke-width: 0.8"/>
      </g>
     </g>
     <g id="text_1">
      <!-- $\mathdefault{10^{-2}}$ -->
      <g transform="translate(76.656532 142.957247) scale(0.1 -0.1)">
       <defs>
        <path id="IBMPlexSans-31" d="M 3501 0 
L 3501 474 
L 2349 474 
L 2349 4467 
L 1510 4467 
L 326 3360 
L 640 3021 
L 1766 4070 
L 1811 4070 
L 1811 474 
L 563 474 
L 563 0 
L 3501 0 
z
" transform="scale(0.015625)"/>
        <path id="IBMPlexSans-30" d="M 1920 -77 
C 2989 -77 3456 774 3456 2234 
C 3456 3693 2989 4544 1920 4544 
C 851 4544 384 3693 384 2234 
C 384 774 851 -77 1920 -77 
z
M 1920 390 
C 1222 390 947 1005 947 1869 
L 947 2598 
C 947 3462 1222 4077 1920 4077 
C 2618 4077 2893 3462 2893 2598 
L 2893 1869 
C 2893 1005 2618 390 1920 390 
z
" transform="scale(0.015625)"/>
        <path id="IBMPlexSans-2212" d="M 3411 1734 
L 3411 2170 
L 429 2170 
L 429 1734 
L 3411 1734 
z
" transform="scale(0.015625)"/>
        <path id="IBMPlexSans-32" d="M 3411 474 
L 1062 474 
L 2266 1555 
C 2835 2067 3245 2554 3245 3245 
C 3245 4006 2746 4544 1875 4544 
C 1011 4544 614 4019 442 3494 
L 922 3309 
C 1043 3731 1299 4064 1850 4064 
C 2400 4064 2675 3725 2675 3232 
L 2675 3155 
C 2675 2726 2355 2278 1939 1894 
L 480 550 
L 480 0 
L 3411 0 
L 3411 474 
z
" transform="scale(0.015625)"/>
       </defs>
       <use xlink:href="#IBMPlexSans-31" transform="translate(0 0.184375)"/>
       <use xlink:href="#IBMPlexSans-30" transform="translate(59.999985 0.184375)"/>
       <use xlink:href="#IBMPlexSans-2212" transform="translate(120.90286 36.3) scale(0.7)"/>
       <use xlink:href="#IBMPlexSans-32" transform="translate(162.902849 36.3) scale(0.7)"/>
      </g>
     </g>
    </g>
    <g id="xtick_2">
     <g id="line2d_2">
      <g>
       <use xlink:href="#m12c7bc233d" x="191.291167" y="128.557247" style="stroke: #000000; stroke-width: 0.8"/>
      </g>
     </g>
     <g id="text_2">
      <!-- $\mathdefault{10^{-1}}$ -->
      <g transform="translate(180.891167 142.957247) scale(0.1 -0.1)">
       <use xlink:href="#IBMPlexSans-31" transform="translate(0 0.026563)"/>
       <use xlink:href="#IBMPlexSans-30" transform="translate(59.999985 0.026563)"/>
       <use xlink:href="#IBMPlexSans-2212" transform="translate(120.90286 36.142188) scale(0.7)"/>
       <use xlink:href="#IBMPlexSans-31" transform="translate(162.902849 36.142188) scale(0.7)"/>
      </g>
     </g>
    </g>
    <g id="xtick_3">
     <g id="line2d_3">
      <defs>
       <path id="me10711e434" d="M 0 0 
L 0 2 
" style="stroke: #000000; stroke-width: 0.6"/>
      </defs>
      <g>
       <use xlink:href="#me10711e434" x="55.67878" y="128.557247" style="stroke: #000000; stroke-width: 0.6"/>
      </g>
     </g>
    </g>
    <g id="xtick_4">
     <g id="line2d_4">
      <g>
       <use xlink:href="#me10711e434" x="63.932209" y="128.557247" style="stroke: #000000; stroke-width: 0.6"/>
      </g>
     </g>
    </g>
    <g id="xtick_5">
     <g id="line2d_5">
      <g>
       <use xlink:href="#me10711e434" x="70.910383" y="128.557247" style="stroke: #000000; stroke-width: 0.6"/>
      </g>
     </g>
    </g>
    <g id="xtick_6">
     <g id="line2d_6">
      <g>
       <use xlink:href="#me10711e434" x="76.955152" y="128.557247" style="stroke: #000000; stroke-width: 0.6"/>
      </g>
     </g>
    </g>
    <g id="xtick_7">
     <g id="line2d_7">
      <g>
       <use xlink:href="#me10711e434" x="82.287017" y="128.557247" style="stroke: #000000; stroke-width: 0.6"/>
      </g>
     </g>
    </g>
    <g id="xtick_8">
     <g id="line2d_8">
      <g>
       <use xlink:href="#me10711e434" x="118.434284" y="128.557247" style="stroke: #000000; stroke-width: 0.6"/>
      </g>
     </g>
    </g>
    <g id="xtick_9">
     <g id="line2d_9">
      <g>
       <use xlink:href="#me10711e434" x="136.789092" y="128.557247" style="stroke: #000000; stroke-width: 0.6"/>
      </g>
     </g>
    </g>
    <g id="xtick_10">
     <g id="line2d_10">
      <g>
       <use xlink:href="#me10711e434" x="149.812035" y="128.557247" style="stroke: #000000; stroke-width: 0.6"/>
      </g>
     </g>
    </g>
    <g id="xtick_11">
     <g id="line2d_11">
      <g>
       <use xlink:href="#me10711e434" x="159.913415" y="128.557247" style="stroke: #000000; stroke-width: 0.6"/>
      </g>
     </g>
    </g>
    <g id="xtick_12">
     <g id="line2d_12">
      <g>
       <use xlink:href="#me10711e434" x="168.166844" y="128.557247" style="stroke: #000000; stroke-width: 0.6"/>
      </g>
     </g>
    </g>
    <g id="xtick_13">
     <g id="line2d_13">
      <g>
       <use xlink:href="#me10711e434" x="175.145018" y="128.557247" style="stroke: #000000; stroke-width: 0.6"/>
      </g>
     </g>
    </g>
    <g id="xtick_14">
     <g id="line2d_14">
      <g>
       <use xlink:href="#me10711e434" x="181.189787" y="128.557247" style="stroke: #000000; stroke-width: 0.6"/>
      </g>
     </g>
    </g>
    <g id="xtick_15">
     <g id="line2d_15">
      <g>
       <use xlink:href="#me10711e434" x="186.521652" y="128.557247" style="stroke: #000000; stroke-width: 0.6"/>
      </g>
     </g>
    </g>
    <g id="xtick_16">
     <g id="line2d_16">
      <g>
       <use xlink:href="#me10711e434" x="222.668919" y="128.557247" style="stroke: #000000; stroke-width: 0.6"/>
      </g>
     </g>
    </g>
    <g id="xtick_17">
     <g id="line2d_17">
      <g>
       <use xlink:href="#me10711e434" x="241.023727" y="128.557247" style="stroke: #000000; stroke-width: 0.6"/>
      </g>
     </g>
    </g>
    <g id="xtick_18">
     <g id="line2d_18">
      <g>
       <use xlink:href="#me10711e434" x="254.04667" y="128.557247" style="stroke: #000000; stroke-width: 0.6"/>
      </g>
     </g>
    </g>
    <g id="xtick_19">
     <g id="line2d_19">
      <g>
       <use xlink:href="#me10711e434" x="264.14805" y="128.557247" style="stroke: #000000; stroke-width: 0.6"/>
      </g>
     </g>
    </g>
    <g id="xtick_20">
     <g id="line2d_20">
      <g>
       <use xlink:href="#me10711e434" x="272.401478" y="128.557247" style="stroke: #000000; stroke-width: 0.6"/>
      </g>
     </g>
    </g>
   </g>
   <g id="matplotlib.axis_2">
    <g id="ytick_1">
     <g id="line2d_21">
      <defs>
       <path id="m94725ce02f" d="M 0 0 
L -3.5 0 
" style="stroke: #000000; stroke-width: 0.8"/>
      </defs>
      <g>
       <use xlink:href="#m94725ce02f" x="48.640625" y="123.089463" style="stroke: #000000; stroke-width: 0.8"/>
      </g>
     </g>
     <g id="text_3">
      <!-- 0.00 -->
      <g transform="translate(20.920313 126.789463) scale(0.1 -0.1)">
       <defs>
        <path id="IBMPlexSans-2e" d="M 870 -77 
C 1139 -77 1261 77 1261 294 
L 1261 378 
C 1261 595 1139 749 870 749 
C 602 749 480 595 480 378 
L 480 294 
C 480 77 602 -77 870 -77 
z
" transform="scale(0.015625)"/>
       </defs>
       <use xlink:href="#IBMPlexSans-30"/>
       <use xlink:href="#IBMPlexSans-2e" transform="translate(59.999985 0)"/>
       <use xlink:href="#IBMPlexSans-30" transform="translate(87.199982 0)"/>
       <use xlink:href="#IBMPlexSans-30" transform="translate(147.199966 0)"/>
      </g>
     </g>
    </g>
    <g id="ytick_2">
     <g id="line2d_22">
      <g>
       <use xlink:href="#m94725ce02f" x="48.640625" y="91.486129" style="stroke: #000000; stroke-width: 0.8"/>
      </g>
     </g>
     <g id="text_4">
      <!-- 0.01 -->
      <g transform="translate(20.920313 95.186129) scale(0.1 -0.1)">
       <use xlink:href="#IBMPlexSans-30"/>
       <use xlink:href="#IBMPlexSans-2e" transform="translate(59.999985 0)"/>
       <use xlink:href="#IBMPlexSans-30" transform="translate(87.199982 0)"/>
       <use xlink:href="#IBMPlexSans-31" transform="translate(147.199966 0)"/>
      </g>
     </g>
    </g>
    <g id="ytick_3">
     <g id="line2d_23">
      <g>
       <use xlink:href="#m94725ce02f" x="48.640625" y="59.882795" style="stroke: #000000; stroke-width: 0.8"/>
      </g>
     </g>
     <g id="text_5">
      <!-- 0.02 -->
      <g transform="translate(20.920313 63.582795) scale(0.1 -0.1)">
       <use xlink:href="#IBMPlexSans-30"/>
       <use xlink:href="#IBMPlexSans-2e" transform="translate(59.999985 0)"/>
       <use xlink:href="#IBMPlexSans-30" transform="translate(87.199982 0)"/>
       <use xlink:href="#IBMPlexSans-32" transform="translate(147.199966 0)"/>
      </g>
     </g>
    </g>
    <g id="ytick_4">
     <g id="line2d_24">
      <g>
       <use xlink:href="#m94725ce02f" x="48.640625" y="28.279461" style="stroke: #000000; stroke-width: 0.8"/>
      </g>
     </g>
     <g id="text_6">
      <!-- 0.03 -->
      <g transform="translate(20.920313 31.979461) scale(0.1 -0.1)">
       <defs>
        <path id="IBMPlexSans-33" d="M 1184 2573 
L 1184 2106 
L 1709 2106 
C 2336 2106 2669 1805 2669 1280 
L 2669 1229 
C 2669 704 2336 403 1709 403 
C 1165 403 902 640 672 992 
L 269 685 
C 544 301 941 -77 1715 -77 
C 2624 -77 3232 454 3232 1222 
C 3232 1894 2771 2253 2291 2349 
L 2291 2374 
C 2765 2496 3149 2842 3149 3418 
C 3149 4141 2547 4544 1792 4544 
C 1075 4544 685 4173 461 3814 
L 858 3507 
C 1043 3846 1318 4064 1779 4064 
C 2253 4064 2579 3827 2579 3360 
L 2579 3315 
C 2579 2886 2272 2573 1670 2573 
L 1184 2573 
z
" transform="scale(0.015625)"/>
       </defs>
       <use xlink:href="#IBMPlexSans-30"/>
       <use xlink:href="#IBMPlexSans-2e" transform="translate(59.999985 0)"/>
       <use xlink:href="#IBMPlexSans-30" transform="translate(87.199982 0)"/>
       <use xlink:href="#IBMPlexSans-33" transform="translate(147.199966 0)"/>
      </g>
     </g>
    </g>
    <g id="text_7">
     <!-- cv2l(125%) weight -->
     <g transform="translate(14.8 110.981161) rotate(-90) scale(0.1 -0.1)">
      <defs>
       <path id="IBMPlexSans-63" d="M 1773 -77 
C 2400 -77 2829 230 3040 704 
L 2669 954 
C 2490 576 2189 378 1773 378 
C 1165 378 851 794 851 1370 
L 851 1933 
C 851 2509 1165 2925 1773 2925 
C 2176 2925 2458 2726 2579 2387 
L 3008 2605 
C 2816 3059 2426 3379 1773 3379 
C 845 3379 301 2707 301 1651 
C 301 595 845 -77 1773 -77 
z
" transform="scale(0.015625)"/>
       <path id="IBMPlexSans-76" d="M 1869 0 
L 3034 3302 
L 2541 3302 
L 1952 1664 
L 1594 538 
L 1562 538 
L 1203 1664 
L 627 3302 
L 115 3302 
L 1274 0 
L 1869 0 
z
" transform="scale(0.015625)"/>
       <path id="IBMPlexSans-6c" d="M 1542 0 
L 1542 448 
L 1056 448 
L 1056 4736 
L 544 4736 
L 544 531 
C 544 224 736 0 1088 0 
L 1542 0 
z
" transform="scale(0.015625)"/>
       <path id="IBMPlexSans-28" d="M 531 1997 
C 531 749 1056 -339 1690 -877 
L 2176 -877 
C 1485 -262 1011 819 1011 1715 
L 1011 2266 
C 1011 3162 1466 4224 2176 4864 
L 1690 4864 
C 1037 4307 531 3232 531 1997 
z
" transform="scale(0.015625)"/>
       <path id="IBMPlexSans-35" d="M 3187 4467 
L 794 4467 
L 634 2010 
L 1088 1946 
C 1274 2150 1478 2323 1888 2323 
C 2496 2323 2822 1984 2822 1395 
L 2822 1331 
C 2822 742 2496 403 1888 403 
C 1350 403 1126 640 896 992 
L 493 685 
C 762 301 1146 -77 1888 -77 
C 2829 -77 3392 531 3392 1402 
C 3392 2266 2829 2784 2061 2784 
C 1594 2784 1357 2592 1146 2291 
L 1101 2291 
L 1229 3994 
L 3187 3994 
L 3187 4467 
z
" transform="scale(0.015625)"/>
       <path id="IBMPlexSans-25" d="M 1664 0 
L 4762 4467 
L 4269 4467 
L 1171 0 
L 1664 0 
z
M 1427 2010 
C 2074 2010 2438 2458 2438 3277 
C 2438 4096 2074 4544 1427 4544 
C 781 4544 416 4096 416 3277 
C 416 2458 781 2010 1427 2010 
z
M 1427 2342 
C 1056 2342 877 2598 877 3085 
L 877 3469 
C 877 3955 1056 4211 1427 4211 
C 1798 4211 1978 3955 1978 3469 
L 1978 3085 
C 1978 2598 1798 2342 1427 2342 
z
M 4506 -77 
C 5152 -77 5517 371 5517 1190 
C 5517 2010 5152 2458 4506 2458 
C 3859 2458 3494 2010 3494 1190 
C 3494 371 3859 -77 4506 -77 
z
M 4506 256 
C 4134 256 3955 512 3955 998 
L 3955 1382 
C 3955 1869 4134 2125 4506 2125 
C 4877 2125 5056 1869 5056 1382 
L 5056 998 
C 5056 512 4877 256 4506 256 
z
" transform="scale(0.015625)"/>
       <path id="IBMPlexSans-29" d="M 1613 1997 
C 1613 3232 1107 4307 454 4864 
L -32 4864 
C 678 4224 1133 3162 1133 2266 
L 1133 1715 
C 1133 819 659 -262 -32 -877 
L 454 -877 
C 1088 -339 1613 749 1613 1997 
z
" transform="scale(0.015625)"/>
       <path id="IBMPlexSans-20" transform="scale(0.015625)"/>
       <path id="IBMPlexSans-77" d="M 1082 0 
L 1702 0 
L 2163 1587 
L 2445 2592 
L 2458 2592 
L 2746 1587 
L 3206 0 
L 3840 0 
L 4717 3302 
L 4237 3302 
L 3878 1875 
L 3539 429 
L 3526 429 
L 3117 1875 
L 2688 3302 
L 2234 3302 
L 1818 1875 
L 1414 429 
L 1402 429 
L 1050 1875 
L 698 3302 
L 198 3302 
L 1082 0 
z
" transform="scale(0.015625)"/>
       <path id="IBMPlexSans-65" d="M 1786 -77 
C 2406 -77 2880 230 3091 678 
L 2726 941 
C 2554 576 2234 371 1818 371 
C 1203 371 838 800 838 1370 
L 838 1523 
L 3213 1523 
L 3213 1766 
C 3213 2701 2669 3379 1786 3379 
C 890 3379 301 2701 301 1651 
C 301 602 890 -77 1786 -77 
z
M 1786 2950 
C 2310 2950 2662 2560 2662 1978 
L 2662 1907 
L 838 1907 
L 838 1952 
C 838 2528 1229 2950 1786 2950 
z
" transform="scale(0.015625)"/>
       <path id="IBMPlexSans-69" d="M 800 4077 
C 1018 4077 1114 4192 1114 4365 
L 1114 4448 
C 1114 4621 1018 4736 800 4736 
C 582 4736 486 4621 486 4448 
L 486 4365 
C 486 4192 582 4077 800 4077 
z
M 544 0 
L 1056 0 
L 1056 3302 
L 544 3302 
L 544 0 
z
" transform="scale(0.015625)"/>
       <path id="IBMPlexSans-67" d="M 3328 -365 
C 3328 179 2976 512 2157 512 
L 1453 512 
C 1152 512 947 563 947 762 
C 947 966 1165 1075 1382 1133 
C 1478 1114 1594 1101 1702 1101 
C 2458 1101 2950 1568 2950 2240 
C 2950 2592 2810 2886 2573 3091 
L 2573 3302 
L 3200 3302 
L 3200 3750 
L 2707 3750 
C 2432 3750 2323 3565 2323 3309 
L 2323 3251 
C 2144 3334 1933 3379 1696 3379 
C 947 3379 454 2912 454 2240 
C 454 1779 685 1414 1075 1229 
L 1075 1203 
C 742 1120 506 960 506 627 
C 506 403 614 256 800 166 
L 800 96 
C 474 6 275 -186 275 -544 
C 275 -1062 698 -1357 1728 -1357 
C 2790 -1357 3328 -1043 3328 -365 
z
M 2848 -403 
C 2848 -762 2515 -941 1946 -941 
L 1472 -941 
C 954 -941 755 -704 755 -416 
C 755 -211 851 -64 1062 32 
L 2163 32 
C 2675 32 2848 -141 2848 -403 
z
M 1702 1510 
C 1267 1510 992 1715 992 2150 
L 992 2330 
C 992 2765 1267 2970 1702 2970 
C 2138 2970 2413 2765 2413 2330 
L 2413 2150 
C 2413 1715 2138 1510 1702 1510 
z
" transform="scale(0.015625)"/>
       <path id="IBMPlexSans-68" d="M 544 0 
L 1056 0 
L 1056 2291 
C 1056 2714 1453 2918 1862 2918 
C 2355 2918 2611 2618 2611 2029 
L 2611 0 
L 3123 0 
L 3123 2118 
C 3123 2918 2694 3379 2016 3379 
C 1523 3379 1242 3136 1082 2765 
L 1056 2765 
L 1056 4736 
L 544 4736 
L 544 0 
z
" transform="scale(0.015625)"/>
       <path id="IBMPlexSans-74" d="M 1914 0 
L 1914 448 
L 1242 448 
L 1242 2854 
L 1965 2854 
L 1965 3302 
L 1242 3302 
L 1242 4218 
L 781 4218 
L 781 3603 
C 781 3379 710 3302 493 3302 
L 186 3302 
L 186 2854 
L 730 2854 
L 730 544 
C 730 224 922 0 1274 0 
L 1914 0 
z
" transform="scale(0.015625)"/>
      </defs>
      <use xlink:href="#IBMPlexSans-63"/>
      <use xlink:href="#IBMPlexSans-76" transform="translate(50.299988 0)"/>
      <use xlink:href="#IBMPlexSans-32" transform="translate(99.499985 0)"/>
      <use xlink:href="#IBMPlexSans-6c" transform="translate(159.499969 0)"/>
      <use xlink:href="#IBMPlexSans-28" transform="translate(186.699966 0)"/>
      <use xlink:href="#IBMPlexSans-31" transform="translate(220.199951 0)"/>
      <use xlink:href="#IBMPlexSans-32" transform="translate(280.199936 0)"/>
      <use xlink:href="#IBMPlexSans-35" transform="translate(340.199921 0)"/>
      <use xlink:href="#IBMPlexSans-25" transform="translate(400.199905 0)"/>
      <use xlink:href="#IBMPlexSans-29" transform="translate(492.899887 0)"/>
      <use xlink:href="#IBMPlexSans-20" transform="translate(526.399872 0)"/>
      <use xlink:href="#IBMPlexSans-77" transform="translate(549.999863 0)"/>
      <use xlink:href="#IBMPlexSans-65" transform="translate(626.79985 0)"/>
      <use xlink:href="#IBMPlexSans-69" transform="translate(681.699844 0)"/>
      <use xlink:href="#IBMPlexSans-67" transform="translate(706.699829 0)"/>
      <use xlink:href="#IBMPlexSans-68" transform="translate(759.499817 0)"/>
      <use xlink:href="#IBMPlexSans-74" transform="translate(816.299805 0)"/>
     </g>
    </g>
   </g>
   <g id="line2d_25">
    <path d="M 58.826044 101.118829 
L 61.655326 101.962401 
L 64.484609 103.193039 
L 67.313892 104.617472 
L 70.143175 106.012684 
L 72.972458 107.018806 
L 75.801741 107.291071 
L 78.631024 106.583465 
L 81.460307 104.811705 
L 84.28959 102.300411 
L 87.118873 99.662515 
L 89.948156 97.404334 
L 92.777439 95.582096 
L 95.606722 94.080728 
L 98.436004 92.719051 
L 101.265287 91.49804 
L 104.09457 90.421893 
L 106.923853 89.395557 
L 109.753136 88.217286 
L 112.582419 86.613364 
L 115.411702 84.458619 
L 118.240985 82.053064 
L 121.070268 79.997809 
L 123.899551 78.778367 
L 126.728834 78.459687 
L 129.558117 78.940672 
L 132.3874 80.316056 
L 135.216682 82.746849 
L 138.045965 86.080894 
L 140.875248 89.710069 
L 143.704531 92.957106 
L 146.533814 95.321406 
L 149.363097 96.594072 
L 152.19238 96.829985 
L 155.021663 96.29846 
L 157.850946 95.284559 
L 160.680229 93.794981 
L 163.509512 91.606675 
L 166.338795 88.488418 
L 169.168078 84.090931 
L 171.99736 78.436214 
L 174.826643 71.50337 
L 177.655926 63.729156 
L 180.485209 55.908728 
L 183.314492 48.789516 
L 186.143775 42.74996 
L 188.973058 37.614498 
L 191.802341 33.025924 
L 194.631624 28.652632 
L 197.460907 24.432896 
L 200.29019 20.588692 
L 203.119473 17.577688 
L 205.948756 15.663544 
L 208.778038 14.635201 
L 211.607321 14.027327 
L 214.436604 13.733796 
L 217.265887 14.237944 
L 220.09517 16.669554 
L 222.924453 22.354834 
L 225.753736 32.887658 
L 228.583019 49.392543 
L 231.412302 71.380801 
L 234.241585 94.983852 
L 237.070868 113.058386 
L 239.900151 121.254541 
L 242.729434 122.970241 
L 245.558716 123.087707 
L 248.387999 123.08946 
L 251.217282 123.089463 
L 254.046565 123.089463 
L 256.875848 123.089463 
L 259.705131 123.089463 
L 262.534414 123.089463 
" clip-path="url(#pe9ca8146c0)" style="fill: none; stroke: #ff7f0e; stroke-width: 1.5; stroke-linecap: square"/>
   </g>
   <g id="patch_3">
    <path d="M 48.640625 128.557247 
L 48.640625 8.266013 
" style="fill: none; stroke: #000000; stroke-width: 0.8; stroke-linejoin: miter; stroke-linecap: square"/>
   </g>
   <g id="patch_4">
    <path d="M 48.640625 128.557247 
L 272.719832 128.557247 
" style="fill: none; stroke: #000000; stroke-width: 0.8; stroke-linejoin: miter; stroke-linecap: square"/>
   </g>
  </g>
  <g id="axes_2">
   <g id="patch_5">
    <path d="M 317.120313 128.557247 
L 541.19952 128.557247 
L 541.19952 8.266013 
L 317.120313 8.266013 
z
" style="fill: #ffffff"/>
   </g>
   <g id="FillBetweenPolyCollection_1">
    <defs>
     <path id="mdc878024d9" d="M 327.305731 -295.520959 
L 327.305731 -189.059497 
L 330.135014 -192.95209 
L 332.964297 -197.128881 
L 335.79358 -201.116075 
L 338.622863 -204.625607 
L 341.452146 -207.64149 
L 344.281429 -210.253312 
L 347.110711 -212.584811 
L 349.939994 -214.656859 
L 352.769277 -216.430726 
L 355.59856 -217.984558 
L 358.427843 -219.45005 
L 361.257126 -220.947707 
L 364.086409 -222.563645 
L 366.915692 -224.302529 
L 369.744975 -226.051246 
L 372.574258 -227.687826 
L 375.403541 -229.205206 
L 378.232824 -230.602747 
L 381.062107 -231.915045 
L 383.891389 -233.110592 
L 386.720672 -234.096568 
L 389.549955 -234.830889 
L 392.379238 -235.293303 
L 395.208521 -235.524821 
L 398.037804 -235.600873 
L 400.867087 -235.619211 
L 403.69637 -235.644466 
L 406.525653 -235.707334 
L 409.354936 -235.755942 
L 412.184219 -235.728276 
L 415.013502 -235.583224 
L 417.842785 -235.326864 
L 420.672067 -234.992812 
L 423.50135 -234.639207 
L 426.330633 -234.323482 
L 429.159916 -234.111459 
L 431.989199 -234.041682 
L 434.818482 -234.092189 
L 437.647765 -234.250666 
L 440.477048 -234.471016 
L 443.306331 -234.720483 
L 446.135614 -234.95646 
L 448.964897 -235.184702 
L 451.79418 -235.40335 
L 454.623463 -235.649874 
L 457.452745 -235.936956 
L 460.282028 -236.26798 
L 463.111311 -236.623304 
L 465.940594 -236.986685 
L 468.769877 -237.366921 
L 471.59916 -237.766837 
L 474.428443 -238.198607 
L 477.257726 -238.659301 
L 480.087009 -239.140593 
L 482.916292 -239.624914 
L 485.745575 -240.101382 
L 488.574858 -240.556907 
L 491.404141 -240.999591 
L 494.233423 -241.440808 
L 497.062706 -241.922144 
L 499.891989 -242.485132 
L 502.721272 -243.161158 
L 505.550555 -243.987723 
L 508.379838 -244.987967 
L 511.209121 -246.191706 
L 514.038404 -247.618989 
L 516.867687 -249.298645 
L 519.69697 -251.254857 
L 522.526253 -253.509692 
L 525.355536 -256.062162 
L 528.184819 -258.908382 
L 531.014101 -262.052058 
L 531.014101 -273.010993 
L 531.014101 -273.010993 
L 528.184819 -270.184207 
L 525.355536 -267.667269 
L 522.526253 -265.457003 
L 519.69697 -263.557955 
L 516.867687 -261.971739 
L 514.038404 -260.676678 
L 511.209121 -259.648986 
L 508.379838 -258.860112 
L 505.550555 -258.290401 
L 502.721272 -257.91029 
L 499.891989 -257.696994 
L 497.062706 -257.613116 
L 494.233423 -257.627427 
L 491.404141 -257.698351 
L 488.574858 -257.784199 
L 485.745575 -257.873937 
L 482.916292 -257.959855 
L 480.087009 -258.055872 
L 477.257726 -258.173665 
L 474.428443 -258.3317 
L 471.59916 -258.539211 
L 468.769877 -258.799828 
L 465.940594 -259.102043 
L 463.111311 -259.443551 
L 460.282028 -259.816338 
L 457.452745 -260.2376 
L 454.623463 -260.728552 
L 451.79418 -261.286549 
L 448.964897 -261.899552 
L 446.135614 -262.530073 
L 443.306331 -263.181138 
L 440.477048 -263.847617 
L 437.647765 -264.574322 
L 434.818482 -265.39639 
L 431.989199 -266.362389 
L 429.159916 -267.486814 
L 426.330633 -268.793644 
L 423.50135 -270.24512 
L 420.672067 -271.774871 
L 417.842785 -273.324519 
L 415.013502 -274.835103 
L 412.184219 -276.274063 
L 409.354936 -277.635233 
L 406.525653 -278.962547 
L 403.69637 -280.323539 
L 400.867087 -281.772734 
L 398.037804 -283.280907 
L 395.208521 -284.78253 
L 392.379238 -286.175848 
L 389.549955 -287.38418 
L 386.720672 -288.365601 
L 383.891389 -289.142524 
L 381.062107 -289.76062 
L 378.232824 -290.317706 
L 375.403541 -290.852798 
L 372.574258 -291.327687 
L 369.744975 -291.747267 
L 366.915692 -292.121518 
L 364.086409 -292.583367 
L 361.257126 -293.257622 
L 358.427843 -294.140158 
L 355.59856 -295.150674 
L 352.769277 -296.156142 
L 349.939994 -297.027169 
L 347.110711 -297.672356 
L 344.281429 -298.141511 
L 341.452146 -298.415165 
L 338.622863 -298.36147 
L 335.79358 -297.884676 
L 332.964297 -297.004119 
L 330.135014 -296.039419 
L 327.305731 -295.520959 
z
"/>
    </defs>
    <g clip-path="url(#pb1963b889a)">
     <use xlink:href="#mdc878024d9" x="0" y="312.148961" style="fill: #d62728; fill-opacity: 0.3"/>
    </g>
   </g>
   <g id="PathCollection_1">
    <defs>
     <path id="C0_0_984eb96f81" d="M 0 2.738613 
C 0.726289 2.738613 1.422928 2.450055 1.936492 1.936492 
C 2.450055 1.422928 2.738613 0.726289 2.738613 -0 
C 2.738613 -0.726289 2.450055 -1.422928 1.936492 -1.936492 
C 1.422928 -2.450055 0.726289 -2.738613 0 -2.738613 
C -0.726289 -2.738613 -1.422928 -2.450055 -1.936492 -1.936492 
C -2.450055 -1.422928 -2.738613 -0.726289 -2.738613 0 
C -2.738613 0.726289 -2.450055 1.422928 -1.936492 1.936492 
C -1.422928 2.450055 -0.726289 2.738613 0 2.738613 
z
"/>
    </defs>
    <g clip-path="url(#pb1963b889a)">
     <use xlink:href="#C0_0_984eb96f81" x="327.305731" y="69.858733" style="fill: #e2e2e2"/>
    </g>
    <g clip-path="url(#pb1963b889a)">
     <use xlink:href="#C0_0_984eb96f81" x="330.135014" y="67.653206" style="fill: #e4e4e4"/>
    </g>
    <g clip-path="url(#pb1963b889a)">
     <use xlink:href="#C0_0_984eb96f81" x="332.964297" y="65.082461" style="fill: #e6e6e6"/>
    </g>
    <g clip-path="url(#pb1963b889a)">
     <use xlink:href="#C0_0_984eb96f81" x="335.79358" y="62.648585" style="fill: #e8e8e8"/>
    </g>
    <g clip-path="url(#pb1963b889a)">
     <use xlink:href="#C0_0_984eb96f81" x="338.622863" y="60.655422" style="fill: #ebebeb"/>
    </g>
    <g clip-path="url(#pb1963b889a)">
     <use xlink:href="#C0_0_984eb96f81" x="341.452146" y="59.120633" style="fill: #ececec"/>
    </g>
    <g clip-path="url(#pb1963b889a)">
     <use xlink:href="#C0_0_984eb96f81" x="344.281429" y="57.951549" style="fill: #ededed"/>
    </g>
    <g clip-path="url(#pb1963b889a)">
     <use xlink:href="#C0_0_984eb96f81" x="347.110711" y="57.020377" style="fill: #ececec"/>
    </g>
    <g clip-path="url(#pb1963b889a)">
     <use xlink:href="#C0_0_984eb96f81" x="349.939994" y="56.306947" style="fill: #e9e9e9"/>
    </g>
    <g clip-path="url(#pb1963b889a)">
     <use xlink:href="#C0_0_984eb96f81" x="352.769277" y="55.855526" style="fill: #e4e4e4"/>
    </g>
    <g clip-path="url(#pb1963b889a)">
     <use xlink:href="#C0_0_984eb96f81" x="355.59856" y="55.581345" style="fill: #e0e0e0"/>
    </g>
    <g clip-path="url(#pb1963b889a)">
     <use xlink:href="#C0_0_984eb96f81" x="358.427843" y="55.353857" style="fill: #dcdcdc"/>
    </g>
    <g clip-path="url(#pb1963b889a)">
     <use xlink:href="#C0_0_984eb96f81" x="361.257126" y="55.046296" style="fill: #d9d9d9"/>
    </g>
    <g clip-path="url(#pb1963b889a)">
     <use xlink:href="#C0_0_984eb96f81" x="364.086409" y="54.575455" style="fill: #d6d6d6"/>
    </g>
    <g clip-path="url(#pb1963b889a)">
     <use xlink:href="#C0_0_984eb96f81" x="366.915692" y="53.936937" style="fill: #d3d3d3"/>
    </g>
    <g clip-path="url(#pb1963b889a)">
     <use xlink:href="#C0_0_984eb96f81" x="369.744975" y="53.249704" style="fill: #d1d1d1"/>
    </g>
    <g clip-path="url(#pb1963b889a)">
     <use xlink:href="#C0_0_984eb96f81" x="372.574258" y="52.641204" style="fill: #cecece"/>
    </g>
    <g clip-path="url(#pb1963b889a)">
     <use xlink:href="#C0_0_984eb96f81" x="375.403541" y="52.119959" style="fill: #cccccc"/>
    </g>
    <g clip-path="url(#pb1963b889a)">
     <use xlink:href="#C0_0_984eb96f81" x="378.232824" y="51.688734" style="fill: #cacaca"/>
    </g>
    <g clip-path="url(#pb1963b889a)">
     <use xlink:href="#C0_0_984eb96f81" x="381.062107" y="51.311128" style="fill: #c6c6c6"/>
    </g>
    <g clip-path="url(#pb1963b889a)">
     <use xlink:href="#C0_0_984eb96f81" x="383.891389" y="51.022403" style="fill: #c2c2c2"/>
    </g>
    <g clip-path="url(#pb1963b889a)">
     <use xlink:href="#C0_0_984eb96f81" x="386.720672" y="50.917876" style="fill: #bdbdbd"/>
    </g>
    <g clip-path="url(#pb1963b889a)">
     <use xlink:href="#C0_0_984eb96f81" x="389.549955" y="51.041426" style="fill: #b8b8b8"/>
    </g>
    <g clip-path="url(#pb1963b889a)">
     <use xlink:href="#C0_0_984eb96f81" x="392.379238" y="51.414385" style="fill: #b4b4b4"/>
    </g>
    <g clip-path="url(#pb1963b889a)">
     <use xlink:href="#C0_0_984eb96f81" x="395.208521" y="51.995285" style="fill: #b3b3b3"/>
    </g>
    <g clip-path="url(#pb1963b889a)">
     <use xlink:href="#C0_0_984eb96f81" x="398.037804" y="52.708071" style="fill: #b4b4b4"/>
    </g>
    <g clip-path="url(#pb1963b889a)">
     <use xlink:href="#C0_0_984eb96f81" x="400.867087" y="53.452989" style="fill: #b8b8b8"/>
    </g>
    <g clip-path="url(#pb1963b889a)">
     <use xlink:href="#C0_0_984eb96f81" x="403.69637" y="54.164959" style="fill: #bebebe"/>
    </g>
    <g clip-path="url(#pb1963b889a)">
     <use xlink:href="#C0_0_984eb96f81" x="406.525653" y="54.81402" style="fill: #c5c5c5"/>
    </g>
    <g clip-path="url(#pb1963b889a)">
     <use xlink:href="#C0_0_984eb96f81" x="409.354936" y="55.453373" style="fill: #cccccc"/>
    </g>
    <g clip-path="url(#pb1963b889a)">
     <use xlink:href="#C0_0_984eb96f81" x="412.184219" y="56.147791" style="fill: #d4d4d4"/>
    </g>
    <g clip-path="url(#pb1963b889a)">
     <use xlink:href="#C0_0_984eb96f81" x="415.013502" y="56.939797" style="fill: #d8d8d8"/>
    </g>
    <g clip-path="url(#pb1963b889a)">
     <use xlink:href="#C0_0_984eb96f81" x="417.842785" y="57.823269" style="fill: #dadada"/>
    </g>
    <g clip-path="url(#pb1963b889a)">
     <use xlink:href="#C0_0_984eb96f81" x="420.672067" y="58.765119" style="fill: #dbdbdb"/>
    </g>
    <g clip-path="url(#pb1963b889a)">
     <use xlink:href="#C0_0_984eb96f81" x="423.50135" y="59.706797" style="fill: #dadada"/>
    </g>
    <g clip-path="url(#pb1963b889a)">
     <use xlink:href="#C0_0_984eb96f81" x="426.330633" y="60.590397" style="fill: #d8d8d8"/>
    </g>
    <g clip-path="url(#pb1963b889a)">
     <use xlink:href="#C0_0_984eb96f81" x="429.159916" y="61.349824" style="fill: #d5d5d5"/>
    </g>
    <g clip-path="url(#pb1963b889a)">
     <use xlink:href="#C0_0_984eb96f81" x="431.989199" y="61.946925" style="fill: #d1d1d1"/>
    </g>
    <g clip-path="url(#pb1963b889a)">
     <use xlink:href="#C0_0_984eb96f81" x="434.818482" y="62.404671" style="fill: #cacaca"/>
    </g>
    <g clip-path="url(#pb1963b889a)">
     <use xlink:href="#C0_0_984eb96f81" x="437.647765" y="62.736466" style="fill: #c1c1c1"/>
    </g>
    <g clip-path="url(#pb1963b889a)">
     <use xlink:href="#C0_0_984eb96f81" x="440.477048" y="62.989644" style="fill: #b3b3b3"/>
    </g>
    <g clip-path="url(#pb1963b889a)">
     <use xlink:href="#C0_0_984eb96f81" x="443.306331" y="63.19815" style="fill: #9f9f9f"/>
    </g>
    <g clip-path="url(#pb1963b889a)">
     <use xlink:href="#C0_0_984eb96f81" x="446.135614" y="63.405694" style="fill: #8a8a8a"/>
    </g>
    <g clip-path="url(#pb1963b889a)">
     <use xlink:href="#C0_0_984eb96f81" x="448.964897" y="63.606834" style="fill: #767676"/>
    </g>
    <g clip-path="url(#pb1963b889a)">
     <use xlink:href="#C0_0_984eb96f81" x="451.79418" y="63.804011" style="fill: #656565"/>
    </g>
    <g clip-path="url(#pb1963b889a)">
     <use xlink:href="#C0_0_984eb96f81" x="454.623463" y="63.959747" style="fill: #555555"/>
    </g>
    <g clip-path="url(#pb1963b889a)">
     <use xlink:href="#C0_0_984eb96f81" x="457.452745" y="64.061683" style="fill: #464646"/>
    </g>
    <g clip-path="url(#pb1963b889a)">
     <use xlink:href="#C0_0_984eb96f81" x="460.282028" y="64.106802" style="fill: #383838"/>
    </g>
    <g clip-path="url(#pb1963b889a)">
     <use xlink:href="#C0_0_984eb96f81" x="463.111311" y="64.115533" style="fill: #282828"/>
    </g>
    <g clip-path="url(#pb1963b889a)">
     <use xlink:href="#C0_0_984eb96f81" x="465.940594" y="64.104597" style="fill: #1d1d1d"/>
    </g>
    <g clip-path="url(#pb1963b889a)">
     <use xlink:href="#C0_0_984eb96f81" x="468.769877" y="64.065586" style="fill: #131313"/>
    </g>
    <g clip-path="url(#pb1963b889a)">
     <use xlink:href="#C0_0_984eb96f81" x="471.59916" y="63.995937" style="fill: #090909"/>
    </g>
    <g clip-path="url(#pb1963b889a)">
     <use xlink:href="#C0_0_984eb96f81" x="474.428443" y="63.883807" style="fill: #050505"/>
    </g>
    <g clip-path="url(#pb1963b889a)">
     <use xlink:href="#C0_0_984eb96f81" x="477.257726" y="63.732478" style="fill: #020202"/>
    </g>
    <g clip-path="url(#pb1963b889a)">
     <use xlink:href="#C0_0_984eb96f81" x="480.087009" y="63.550728"/>
    </g>
    <g clip-path="url(#pb1963b889a)">
     <use xlink:href="#C0_0_984eb96f81" x="482.916292" y="63.356576"/>
    </g>
    <g clip-path="url(#pb1963b889a)">
     <use xlink:href="#C0_0_984eb96f81" x="485.745575" y="63.161301" style="fill: #010101"/>
    </g>
    <g clip-path="url(#pb1963b889a)">
     <use xlink:href="#C0_0_984eb96f81" x="488.574858" y="62.978408" style="fill: #070707"/>
    </g>
    <g clip-path="url(#pb1963b889a)">
     <use xlink:href="#C0_0_984eb96f81" x="491.404141" y="62.79999" style="fill: #171717"/>
    </g>
    <g clip-path="url(#pb1963b889a)">
     <use xlink:href="#C0_0_984eb96f81" x="494.233423" y="62.614843" style="fill: #363636"/>
    </g>
    <g clip-path="url(#pb1963b889a)">
     <use xlink:href="#C0_0_984eb96f81" x="497.062706" y="62.381331" style="fill: #666666"/>
    </g>
    <g clip-path="url(#pb1963b889a)">
     <use xlink:href="#C0_0_984eb96f81" x="499.891989" y="62.057898" style="fill: #9e9e9e"/>
    </g>
    <g clip-path="url(#pb1963b889a)">
     <use xlink:href="#C0_0_984eb96f81" x="502.721272" y="61.613236" style="fill: #d8d8d8"/>
    </g>
    <g clip-path="url(#pb1963b889a)">
     <use xlink:href="#C0_0_984eb96f81" x="505.550555" y="61.009899" style="fill: #f4f4f4"/>
    </g>
    <g clip-path="url(#pb1963b889a)">
     <use xlink:href="#C0_0_984eb96f81" x="508.379838" y="60.224921" style="fill: #fdfdfd"/>
    </g>
   </g>
   <g id="matplotlib.axis_3">
    <g id="xtick_21">
     <g id="line2d_26">
      <g>
       <use xlink:href="#m12c7bc233d" x="355.53622" y="128.557247" style="stroke: #000000; stroke-width: 0.8"/>
      </g>
     </g>
     <g id="text_8">
      <!-- $\mathdefault{10^{-2}}$ -->
      <g transform="translate(345.13622 142.957247) scale(0.1 -0.1)">
       <use xlink:href="#IBMPlexSans-31" transform="translate(0 0.184375)"/>
       <use xlink:href="#IBMPlexSans-30" transform="translate(59.999985 0.184375)"/>
       <use xlink:href="#IBMPlexSans-2212" transform="translate(120.90286 36.3) scale(0.7)"/>
       <use xlink:href="#IBMPlexSans-32" transform="translate(162.902849 36.3) scale(0.7)"/>
      </g>
     </g>
    </g>
    <g id="xtick_22">
     <g id="line2d_27">
      <g>
       <use xlink:href="#m12c7bc233d" x="459.770854" y="128.557247" style="stroke: #000000; stroke-width: 0.8"/>
      </g>
     </g>
     <g id="text_9">
      <!-- $\mathdefault{10^{-1}}$ -->
      <g transform="translate(449.370854 142.957247) scale(0.1 -0.1)">
       <use xlink:href="#IBMPlexSans-31" transform="translate(0 0.026563)"/>
       <use xlink:href="#IBMPlexSans-30" transform="translate(59.999985 0.026563)"/>
       <use xlink:href="#IBMPlexSans-2212" transform="translate(120.90286 36.142188) scale(0.7)"/>
       <use xlink:href="#IBMPlexSans-31" transform="translate(162.902849 36.142188) scale(0.7)"/>
      </g>
     </g>
    </g>
    <g id="xtick_23">
     <g id="line2d_28">
      <g>
       <use xlink:href="#me10711e434" x="324.158468" y="128.557247" style="stroke: #000000; stroke-width: 0.6"/>
      </g>
     </g>
    </g>
    <g id="xtick_24">
     <g id="line2d_29">
      <g>
       <use xlink:href="#me10711e434" x="332.411896" y="128.557247" style="stroke: #000000; stroke-width: 0.6"/>
      </g>
     </g>
    </g>
    <g id="xtick_25">
     <g id="line2d_30">
      <g>
       <use xlink:href="#me10711e434" x="339.39007" y="128.557247" style="stroke: #000000; stroke-width: 0.6"/>
      </g>
     </g>
    </g>
    <g id="xtick_26">
     <g id="line2d_31">
      <g>
       <use xlink:href="#me10711e434" x="345.43484" y="128.557247" style="stroke: #000000; stroke-width: 0.6"/>
      </g>
     </g>
    </g>
    <g id="xtick_27">
     <g id="line2d_32">
      <g>
       <use xlink:href="#me10711e434" x="350.766704" y="128.557247" style="stroke: #000000; stroke-width: 0.6"/>
      </g>
     </g>
    </g>
    <g id="xtick_28">
     <g id="line2d_33">
      <g>
       <use xlink:href="#me10711e434" x="386.913971" y="128.557247" style="stroke: #000000; stroke-width: 0.6"/>
      </g>
     </g>
    </g>
    <g id="xtick_29">
     <g id="line2d_34">
      <g>
       <use xlink:href="#me10711e434" x="405.268779" y="128.557247" style="stroke: #000000; stroke-width: 0.6"/>
      </g>
     </g>
    </g>
    <g id="xtick_30">
     <g id="line2d_35">
      <g>
       <use xlink:href="#me10711e434" x="418.291723" y="128.557247" style="stroke: #000000; stroke-width: 0.6"/>
      </g>
     </g>
    </g>
    <g id="xtick_31">
     <g id="line2d_36">
      <g>
       <use xlink:href="#me10711e434" x="428.393103" y="128.557247" style="stroke: #000000; stroke-width: 0.6"/>
      </g>
     </g>
    </g>
    <g id="xtick_32">
     <g id="line2d_37">
      <g>
       <use xlink:href="#me10711e434" x="436.646531" y="128.557247" style="stroke: #000000; stroke-width: 0.6"/>
      </g>
     </g>
    </g>
    <g id="xtick_33">
     <g id="line2d_38">
      <g>
       <use xlink:href="#me10711e434" x="443.624705" y="128.557247" style="stroke: #000000; stroke-width: 0.6"/>
      </g>
     </g>
    </g>
    <g id="xtick_34">
     <g id="line2d_39">
      <g>
       <use xlink:href="#me10711e434" x="449.669475" y="128.557247" style="stroke: #000000; stroke-width: 0.6"/>
      </g>
     </g>
    </g>
    <g id="xtick_35">
     <g id="line2d_40">
      <g>
       <use xlink:href="#me10711e434" x="455.001339" y="128.557247" style="stroke: #000000; stroke-width: 0.6"/>
      </g>
     </g>
    </g>
    <g id="xtick_36">
     <g id="line2d_41">
      <g>
       <use xlink:href="#me10711e434" x="491.148606" y="128.557247" style="stroke: #000000; stroke-width: 0.6"/>
      </g>
     </g>
    </g>
    <g id="xtick_37">
     <g id="line2d_42">
      <g>
       <use xlink:href="#me10711e434" x="509.503414" y="128.557247" style="stroke: #000000; stroke-width: 0.6"/>
      </g>
     </g>
    </g>
    <g id="xtick_38">
     <g id="line2d_43">
      <g>
       <use xlink:href="#me10711e434" x="522.526358" y="128.557247" style="stroke: #000000; stroke-width: 0.6"/>
      </g>
     </g>
    </g>
    <g id="xtick_39">
     <g id="line2d_44">
      <g>
       <use xlink:href="#me10711e434" x="532.627738" y="128.557247" style="stroke: #000000; stroke-width: 0.6"/>
      </g>
     </g>
    </g>
    <g id="xtick_40">
     <g id="line2d_45">
      <g>
       <use xlink:href="#me10711e434" x="540.881166" y="128.557247" style="stroke: #000000; stroke-width: 0.6"/>
      </g>
     </g>
    </g>
   </g>
   <g id="matplotlib.axis_4">
    <g id="ytick_5">
     <g id="line2d_46">
      <g>
       <use xlink:href="#m94725ce02f" x="317.120313" y="100.935427" style="stroke: #000000; stroke-width: 0.8"/>
      </g>
     </g>
     <g id="text_10">
      <!-- 340 -->
      <g transform="translate(292.120313 104.635427) scale(0.1 -0.1)">
       <defs>
        <path id="IBMPlexSans-34" d="M 2912 0 
L 2912 877 
L 3558 877 
L 3558 1325 
L 2912 1325 
L 2912 4467 
L 2112 4467 
L 243 1350 
L 243 877 
L 2400 877 
L 2400 0 
L 2912 0 
z
M 2368 4051 
L 2400 4051 
L 2400 1325 
L 749 1325 
L 2368 4051 
z
" transform="scale(0.015625)"/>
       </defs>
       <use xlink:href="#IBMPlexSans-33"/>
       <use xlink:href="#IBMPlexSans-34" transform="translate(59.999985 0)"/>
       <use xlink:href="#IBMPlexSans-30" transform="translate(119.999969 0)"/>
      </g>
     </g>
    </g>
    <g id="ytick_6">
     <g id="line2d_47">
      <g>
       <use xlink:href="#m94725ce02f" x="317.120313" y="70.923618" style="stroke: #000000; stroke-width: 0.8"/>
      </g>
     </g>
     <g id="text_11">
      <!-- 350 -->
      <g transform="translate(292.120313 74.623618) scale(0.1 -0.1)">
       <use xlink:href="#IBMPlexSans-33"/>
       <use xlink:href="#IBMPlexSans-35" transform="translate(59.999985 0)"/>
       <use xlink:href="#IBMPlexSans-30" transform="translate(119.999969 0)"/>
      </g>
     </g>
    </g>
    <g id="ytick_7">
     <g id="line2d_48">
      <g>
       <use xlink:href="#m94725ce02f" x="317.120313" y="40.911809" style="stroke: #000000; stroke-width: 0.8"/>
      </g>
     </g>
     <g id="text_12">
      <!-- 360 -->
      <g transform="translate(292.120313 44.611809) scale(0.1 -0.1)">
       <defs>
        <path id="IBMPlexSans-36" d="M 1926 -77 
C 2822 -77 3411 525 3411 1402 
C 3411 2246 2861 2778 2093 2778 
C 1549 2778 1229 2502 1018 2138 
L 986 2150 
C 1229 3187 1760 3770 2714 4467 
L 2022 4467 
C 1306 4000 429 2963 429 1638 
C 429 576 998 -77 1926 -77 
z
M 1920 390 
C 1331 390 986 730 986 1331 
L 986 1382 
C 986 1984 1331 2323 1920 2323 
C 2509 2323 2854 1984 2854 1382 
L 2854 1331 
C 2854 730 2509 390 1920 390 
z
" transform="scale(0.015625)"/>
       </defs>
       <use xlink:href="#IBMPlexSans-33"/>
       <use xlink:href="#IBMPlexSans-36" transform="translate(59.999985 0)"/>
       <use xlink:href="#IBMPlexSans-30" transform="translate(119.999969 0)"/>
      </g>
     </g>
    </g>
    <g id="ytick_8">
     <g id="line2d_49">
      <g>
       <use xlink:href="#m94725ce02f" x="317.120313" y="10.9" style="stroke: #000000; stroke-width: 0.8"/>
      </g>
     </g>
     <g id="text_13">
      <!-- 370 -->
      <g transform="translate(292.120313 14.6) scale(0.1 -0.1)">
       <defs>
        <path id="IBMPlexSans-37" d="M 1696 0 
L 3373 3994 
L 3373 4467 
L 442 4467 
L 442 3174 
L 922 3174 
L 922 4006 
L 2829 4006 
L 1120 0 
L 1696 0 
z
" transform="scale(0.015625)"/>
       </defs>
       <use xlink:href="#IBMPlexSans-33"/>
       <use xlink:href="#IBMPlexSans-37" transform="translate(59.999985 0)"/>
       <use xlink:href="#IBMPlexSans-30" transform="translate(119.999969 0)"/>
      </g>
     </g>
    </g>
    <g id="text_14">
     <!-- $\sigma$ (95% CI) [S/m] -->
     <g transform="translate(286.120313 106.61163) rotate(-90) scale(0.1 -0.1)">
      <defs>
       <path id="DejaVuSans-Oblique-3c3" d="M 2219 3044 
Q 1744 3044 1422 2700 
Q 1081 2341 969 1747 
Q 844 1119 1044 756 
Q 1241 397 1706 397 
Q 2166 397 2503 759 
Q 2844 1122 2966 1747 
Q 3075 2319 2881 2700 
Q 2700 3044 2219 3044 
z
M 2309 3503 
L 4219 3500 
L 4106 2925 
L 3463 2925 
Q 3706 2438 3575 1747 
Q 3406 888 2884 400 
Q 2359 -91 1609 -91 
Q 856 -91 525 400 
Q 194 888 363 1747 
Q 528 2609 1050 3097 
Q 1484 3503 2309 3503 
z
" transform="scale(0.015625)"/>
       <path id="IBMPlexSans-39" d="M 3411 2829 
C 3411 3891 2842 4544 1914 4544 
C 1018 4544 429 3942 429 3066 
C 429 2221 979 1690 1747 1690 
C 2291 1690 2611 1965 2822 2330 
L 2854 2317 
C 2611 1280 2080 698 1126 0 
L 1818 0 
C 2534 467 3411 1504 3411 2829 
z
M 1920 2144 
C 1331 2144 986 2483 986 3085 
L 986 3136 
C 986 3738 1331 4077 1920 4077 
C 2509 4077 2854 3738 2854 3136 
L 2854 3085 
C 2854 2483 2509 2144 1920 2144 
z
" transform="scale(0.015625)"/>
       <path id="IBMPlexSans-43" d="M 2170 -77 
C 2912 -77 3456 314 3738 941 
L 3309 1210 
C 3130 723 2739 403 2170 403 
C 1402 403 947 960 947 1875 
L 947 2541 
C 947 3456 1402 4064 2170 4064 
C 2720 4064 3091 3763 3270 3302 
L 3706 3565 
C 3424 4186 2912 4544 2170 4544 
C 1043 4544 371 3699 371 2208 
C 371 717 1043 -77 2170 -77 
z
" transform="scale(0.015625)"/>
       <path id="IBMPlexSans-49" d="M 2176 0 
L 2176 448 
L 1549 448 
L 1549 4019 
L 2176 4019 
L 2176 4467 
L 384 4467 
L 384 4019 
L 1011 4019 
L 1011 448 
L 384 448 
L 384 0 
L 2176 0 
z
" transform="scale(0.015625)"/>
       <path id="IBMPlexSans-5b" d="M 1645 -883 
L 1645 -480 
L 1037 -480 
L 1037 4461 
L 1645 4461 
L 1645 4864 
L 595 4864 
L 595 -883 
L 1645 -883 
z
" transform="scale(0.015625)"/>
       <path id="IBMPlexSans-53" d="M 1850 -77 
C 2810 -77 3386 448 3386 1267 
C 3386 1933 3008 2317 2138 2515 
L 1773 2598 
C 1210 2726 934 2918 934 3341 
C 934 3821 1286 4070 1856 4070 
C 2374 4070 2714 3859 2957 3520 
L 3360 3814 
C 3027 4288 2554 4544 1882 4544 
C 1005 4544 403 4115 403 3322 
C 403 2637 851 2278 1664 2093 
L 2029 2010 
C 2618 1875 2854 1664 2854 1242 
C 2854 730 2509 397 1869 397 
C 1350 397 979 621 666 1037 
L 269 704 
C 627 218 1133 -77 1850 -77 
z
" transform="scale(0.015625)"/>
       <path id="IBMPlexSans-2f" d="M 518 -966 
L 2189 4736 
L 1728 4736 
L 58 -966 
L 518 -966 
z
" transform="scale(0.015625)"/>
       <path id="IBMPlexSans-6d" d="M 1056 0 
L 1056 2291 
C 1056 2714 1440 2918 1843 2918 
C 2330 2918 2554 2618 2554 2029 
L 2554 0 
L 3066 0 
L 3066 2291 
C 3066 2714 3437 2918 3840 2918 
C 4339 2918 4563 2611 4563 2029 
L 4563 0 
L 5075 0 
L 5075 2118 
C 5075 2918 4672 3379 4000 3379 
C 3437 3379 3117 3066 2995 2707 
L 2982 2707 
C 2803 3181 2406 3379 1971 3379 
C 1459 3379 1229 3104 1082 2765 
L 1056 2765 
L 1056 3302 
L 544 3302 
L 544 0 
L 1056 0 
z
" transform="scale(0.015625)"/>
       <path id="IBMPlexSans-5d" d="M 384 4864 
L 384 4461 
L 992 4461 
L 992 -480 
L 384 -480 
L 384 -883 
L 1434 -883 
L 1434 4864 
L 384 4864 
z
" transform="scale(0.015625)"/>
      </defs>
      <use xlink:href="#DejaVuSans-Oblique-3c3"/>
      <use xlink:href="#IBMPlexSans-20" transform="translate(63.378906 0)"/>
      <use xlink:href="#IBMPlexSans-28" transform="translate(86.978897 0)"/>
      <use xlink:href="#IBMPlexSans-39" transform="translate(120.478882 0)"/>
      <use xlink:href="#IBMPlexSans-35" transform="translate(180.478867 0)"/>
      <use xlink:href="#IBMPlexSans-25" transform="translate(240.478851 0)"/>
      <use xlink:href="#IBMPlexSans-20" transform="translate(333.178833 0)"/>
      <use xlink:href="#IBMPlexSans-43" transform="translate(356.778824 0)"/>
      <use xlink:href="#IBMPlexSans-49" transform="translate(418.878815 0)"/>
      <use xlink:href="#IBMPlexSans-29" transform="translate(458.878799 0)"/>
      <use xlink:href="#IBMPlexSans-20" transform="translate(492.378784 0)"/>
      <use xlink:href="#IBMPlexSans-5b" transform="translate(515.978775 0)"/>
      <use xlink:href="#IBMPlexSans-53" transform="translate(547.678772 0)"/>
      <use xlink:href="#IBMPlexSans-2f" transform="translate(605.778763 0)"/>
      <use xlink:href="#IBMPlexSans-6d" transform="translate(644.078751 0)"/>
      <use xlink:href="#IBMPlexSans-5d" transform="translate(731.378738 0)"/>
     </g>
    </g>
   </g>
   <g id="line2d_50">
    <path d="M 327.305731 69.858733 
L 330.135014 67.653206 
L 332.964297 65.082461 
L 335.79358 62.648585 
L 338.622863 60.655422 
L 341.452146 59.120633 
L 344.281429 57.951549 
L 347.110711 57.020377 
L 349.939994 56.306947 
L 352.769277 55.855526 
L 355.59856 55.581345 
L 358.427843 55.353857 
L 361.257126 55.046296 
L 364.086409 54.575455 
L 366.915692 53.936937 
L 369.744975 53.249704 
L 372.574258 52.641204 
L 375.403541 52.119959 
L 378.232824 51.688734 
L 381.062107 51.311128 
L 383.891389 51.022403 
L 386.720672 50.917876 
L 389.549955 51.041426 
L 392.379238 51.414385 
L 395.208521 51.995285 
L 398.037804 52.708071 
L 400.867087 53.452989 
L 403.69637 54.164959 
L 406.525653 54.81402 
L 409.354936 55.453373 
L 412.184219 56.147791 
L 415.013502 56.939797 
L 417.842785 57.823269 
L 420.672067 58.765119 
L 423.50135 59.706797 
L 426.330633 60.590397 
L 429.159916 61.349824 
L 431.989199 61.946925 
L 434.818482 62.404671 
L 437.647765 62.736466 
L 440.477048 62.989644 
L 443.306331 63.19815 
L 446.135614 63.405694 
L 448.964897 63.606834 
L 451.79418 63.804011 
L 454.623463 63.959747 
L 457.452745 64.061683 
L 460.282028 64.106802 
L 463.111311 64.115533 
L 465.940594 64.104597 
L 468.769877 64.065586 
L 471.59916 63.995937 
L 474.428443 63.883807 
L 477.257726 63.732478 
L 480.087009 63.550728 
L 482.916292 63.356576 
L 485.745575 63.161301 
L 488.574858 62.978408 
L 491.404141 62.79999 
L 494.233423 62.614843 
L 497.062706 62.381331 
L 499.891989 62.057898 
L 502.721272 61.613236 
L 505.550555 61.009899 
L 508.379838 60.224921 
L 511.209121 59.228615 
L 514.038404 58.001127 
L 516.867687 56.513768 
L 519.69697 54.742554 
L 522.526253 52.665613 
L 525.355536 50.284245 
L 528.184819 47.602666 
L 531.014101 44.617435 
" clip-path="url(#pb1963b889a)" style="fill: none; stroke: #d62728; stroke-width: 1.5; stroke-linecap: square"/>
   </g>
   <g id="patch_6">
    <path d="M 317.120313 128.557247 
L 317.120313 8.266013 
" style="fill: none; stroke: #000000; stroke-width: 0.8; stroke-linejoin: miter; stroke-linecap: square"/>
   </g>
   <g id="patch_7">
    <path d="M 317.120313 128.557247 
L 541.19952 128.557247 
" style="fill: none; stroke: #000000; stroke-width: 0.8; stroke-linejoin: miter; stroke-linecap: square"/>
   </g>
  </g>
  <g id="axes_3">
   <g id="patch_8">
    <path d="M 48.640625 274.948961 
L 272.719832 274.948961 
L 272.719832 154.657727 
L 48.640625 154.657727 
z
" style="fill: #ffffff"/>
   </g>
   <g id="matplotlib.axis_5">
    <g id="xtick_41">
     <g id="line2d_51">
      <g>
       <use xlink:href="#m12c7bc233d" x="87.056532" y="274.948961" style="stroke: #000000; stroke-width: 0.8"/>
      </g>
     </g>
     <g id="text_15">
      <!-- $\mathdefault{10^{-2}}$ -->
      <g transform="translate(76.656532 289.348961) scale(0.1 -0.1)">
       <use xlink:href="#IBMPlexSans-31" transform="translate(0 0.184375)"/>
       <use xlink:href="#IBMPlexSans-30" transform="translate(59.999985 0.184375)"/>
       <use xlink:href="#IBMPlexSans-2212" transform="translate(120.90286 36.3) scale(0.7)"/>
       <use xlink:href="#IBMPlexSans-32" transform="translate(162.902849 36.3) scale(0.7)"/>
      </g>
     </g>
    </g>
    <g id="xtick_42">
     <g id="line2d_52">
      <g>
       <use xlink:href="#m12c7bc233d" x="191.291167" y="274.948961" style="stroke: #000000; stroke-width: 0.8"/>
      </g>
     </g>
     <g id="text_16">
      <!-- $\mathdefault{10^{-1}}$ -->
      <g transform="translate(180.891167 289.348961) scale(0.1 -0.1)">
       <use xlink:href="#IBMPlexSans-31" transform="translate(0 0.026563)"/>
       <use xlink:href="#IBMPlexSans-30" transform="translate(59.999985 0.026563)"/>
       <use xlink:href="#IBMPlexSans-2212" transform="translate(120.90286 36.142188) scale(0.7)"/>
       <use xlink:href="#IBMPlexSans-31" transform="translate(162.902849 36.142188) scale(0.7)"/>
      </g>
     </g>
    </g>
    <g id="xtick_43">
     <g id="line2d_53">
      <g>
       <use xlink:href="#me10711e434" x="55.67878" y="274.948961" style="stroke: #000000; stroke-width: 0.6"/>
      </g>
     </g>
    </g>
    <g id="xtick_44">
     <g id="line2d_54">
      <g>
       <use xlink:href="#me10711e434" x="63.932209" y="274.948961" style="stroke: #000000; stroke-width: 0.6"/>
      </g>
     </g>
    </g>
    <g id="xtick_45">
     <g id="line2d_55">
      <g>
       <use xlink:href="#me10711e434" x="70.910383" y="274.948961" style="stroke: #000000; stroke-width: 0.6"/>
      </g>
     </g>
    </g>
    <g id="xtick_46">
     <g id="line2d_56">
      <g>
       <use xlink:href="#me10711e434" x="76.955152" y="274.948961" style="stroke: #000000; stroke-width: 0.6"/>
      </g>
     </g>
    </g>
    <g id="xtick_47">
     <g id="line2d_57">
      <g>
       <use xlink:href="#me10711e434" x="82.287017" y="274.948961" style="stroke: #000000; stroke-width: 0.6"/>
      </g>
     </g>
    </g>
    <g id="xtick_48">
     <g id="line2d_58">
      <g>
       <use xlink:href="#me10711e434" x="118.434284" y="274.948961" style="stroke: #000000; stroke-width: 0.6"/>
      </g>
     </g>
    </g>
    <g id="xtick_49">
     <g id="line2d_59">
      <g>
       <use xlink:href="#me10711e434" x="136.789092" y="274.948961" style="stroke: #000000; stroke-width: 0.6"/>
      </g>
     </g>
    </g>
    <g id="xtick_50">
     <g id="line2d_60">
      <g>
       <use xlink:href="#me10711e434" x="149.812035" y="274.948961" style="stroke: #000000; stroke-width: 0.6"/>
      </g>
     </g>
    </g>
    <g id="xtick_51">
     <g id="line2d_61">
      <g>
       <use xlink:href="#me10711e434" x="159.913415" y="274.948961" style="stroke: #000000; stroke-width: 0.6"/>
      </g>
     </g>
    </g>
    <g id="xtick_52">
     <g id="line2d_62">
      <g>
       <use xlink:href="#me10711e434" x="168.166844" y="274.948961" style="stroke: #000000; stroke-width: 0.6"/>
      </g>
     </g>
    </g>
    <g id="xtick_53">
     <g id="line2d_63">
      <g>
       <use xlink:href="#me10711e434" x="175.145018" y="274.948961" style="stroke: #000000; stroke-width: 0.6"/>
      </g>
     </g>
    </g>
    <g id="xtick_54">
     <g id="line2d_64">
      <g>
       <use xlink:href="#me10711e434" x="181.189787" y="274.948961" style="stroke: #000000; stroke-width: 0.6"/>
      </g>
     </g>
    </g>
    <g id="xtick_55">
     <g id="line2d_65">
      <g>
       <use xlink:href="#me10711e434" x="186.521652" y="274.948961" style="stroke: #000000; stroke-width: 0.6"/>
      </g>
     </g>
    </g>
    <g id="xtick_56">
     <g id="line2d_66">
      <g>
       <use xlink:href="#me10711e434" x="222.668919" y="274.948961" style="stroke: #000000; stroke-width: 0.6"/>
      </g>
     </g>
    </g>
    <g id="xtick_57">
     <g id="line2d_67">
      <g>
       <use xlink:href="#me10711e434" x="241.023727" y="274.948961" style="stroke: #000000; stroke-width: 0.6"/>
      </g>
     </g>
    </g>
    <g id="xtick_58">
     <g id="line2d_68">
      <g>
       <use xlink:href="#me10711e434" x="254.04667" y="274.948961" style="stroke: #000000; stroke-width: 0.6"/>
      </g>
     </g>
    </g>
    <g id="xtick_59">
     <g id="line2d_69">
      <g>
       <use xlink:href="#me10711e434" x="264.14805" y="274.948961" style="stroke: #000000; stroke-width: 0.6"/>
      </g>
     </g>
    </g>
    <g id="xtick_60">
     <g id="line2d_70">
      <g>
       <use xlink:href="#me10711e434" x="272.401478" y="274.948961" style="stroke: #000000; stroke-width: 0.6"/>
      </g>
     </g>
    </g>
    <g id="text_17">
     <!-- Cutoff frequency [THz] -->
     <g transform="translate(110.159135 302.948961) scale(0.1 -0.1)">
      <defs>
       <path id="IBMPlexSans-75" d="M 2579 0 
L 3091 0 
L 3091 3302 
L 2579 3302 
L 2579 1018 
C 2579 582 2182 384 1779 384 
C 1286 384 1024 685 1024 1274 
L 1024 3302 
L 512 3302 
L 512 1184 
C 512 384 947 -77 1626 -77 
C 2176 -77 2426 224 2554 538 
L 2579 538 
L 2579 0 
z
" transform="scale(0.015625)"/>
       <path id="IBMPlexSans-6f" d="M 1792 -77 
C 2675 -77 3283 602 3283 1651 
C 3283 2701 2675 3379 1792 3379 
C 909 3379 301 2701 301 1651 
C 301 602 909 -77 1792 -77 
z
M 1792 378 
C 1242 378 851 717 851 1414 
L 851 1888 
C 851 2586 1242 2925 1792 2925 
C 2342 2925 2733 2586 2733 1888 
L 2733 1414 
C 2733 717 2342 378 1792 378 
z
" transform="scale(0.015625)"/>
       <path id="IBMPlexSans-66" d="M 723 0 
L 1235 0 
L 1235 2854 
L 1946 2854 
L 1946 3302 
L 1235 3302 
L 1235 4288 
L 1946 4288 
L 1946 4736 
L 1446 4736 
C 960 4736 723 4422 723 3968 
L 723 3302 
L 186 3302 
L 186 2854 
L 723 2854 
L 723 0 
z
" transform="scale(0.015625)"/>
       <path id="IBMPlexSans-72" d="M 1056 0 
L 1056 2240 
C 1056 2554 1389 2790 1939 2790 
L 2240 2790 
L 2240 3302 
L 2042 3302 
C 1504 3302 1203 3008 1088 2694 
L 1056 2694 
L 1056 3302 
L 544 3302 
L 544 0 
L 1056 0 
z
" transform="scale(0.015625)"/>
       <path id="IBMPlexSans-71" d="M 2656 -1280 
L 3168 -1280 
L 3168 3302 
L 2656 3302 
L 2656 2765 
L 2630 2765 
C 2458 3181 2118 3379 1664 3379 
C 838 3379 320 2707 320 1651 
C 320 595 838 -77 1664 -77 
C 2118 -77 2432 128 2630 538 
L 2656 538 
L 2656 -1280 
z
M 1805 384 
C 1229 384 870 781 870 1370 
L 870 1933 
C 870 2522 1229 2918 1805 2918 
C 2272 2918 2656 2650 2656 2285 
L 2656 1056 
C 2656 627 2272 384 1805 384 
z
" transform="scale(0.015625)"/>
       <path id="IBMPlexSans-6e" d="M 1056 0 
L 1056 2291 
C 1056 2714 1453 2918 1862 2918 
C 2355 2918 2611 2618 2611 2029 
L 2611 0 
L 3123 0 
L 3123 2118 
C 3123 2918 2694 3379 2016 3379 
C 1523 3379 1242 3136 1082 2765 
L 1056 2765 
L 1056 3302 
L 544 3302 
L 544 0 
L 1056 0 
z
" transform="scale(0.015625)"/>
       <path id="IBMPlexSans-79" d="M 1779 1056 
L 1600 518 
L 1568 518 
L 1414 1056 
L 621 3302 
L 109 3302 
L 1344 -128 
L 1094 -832 
L 576 -832 
L 576 -1280 
L 838 -1280 
C 1325 -1280 1459 -1165 1606 -768 
L 3085 3302 
L 2579 3302 
L 1779 1056 
z
" transform="scale(0.015625)"/>
       <path id="IBMPlexSans-54" d="M 3520 3994 
L 3520 4467 
L 141 4467 
L 141 3994 
L 1562 3994 
L 1562 0 
L 2099 0 
L 2099 3994 
L 3520 3994 
z
" transform="scale(0.015625)"/>
       <path id="IBMPlexSans-48" d="M 3392 0 
L 3930 0 
L 3930 4467 
L 3392 4467 
L 3392 2496 
L 1133 2496 
L 1133 4467 
L 595 4467 
L 595 0 
L 1133 0 
L 1133 2022 
L 3392 2022 
L 3392 0 
z
" transform="scale(0.015625)"/>
       <path id="IBMPlexSans-7a" d="M 2758 0 
L 2758 448 
L 794 448 
L 2707 2918 
L 2707 3302 
L 269 3302 
L 269 2854 
L 2086 2854 
L 211 429 
L 211 0 
L 2758 0 
z
" transform="scale(0.015625)"/>
      </defs>
      <use xlink:href="#IBMPlexSans-43"/>
      <use xlink:href="#IBMPlexSans-75" transform="translate(62.099991 0)"/>
      <use xlink:href="#IBMPlexSans-74" transform="translate(118.899979 0)"/>
      <use xlink:href="#IBMPlexSans-6f" transform="translate(153.999969 0)"/>
      <use xlink:href="#IBMPlexSans-66" transform="translate(209.999954 0)"/>
      <use xlink:href="#IBMPlexSans-66" transform="translate(242.399948 0)"/>
      <use xlink:href="#IBMPlexSans-20" transform="translate(274.799942 0)"/>
      <use xlink:href="#IBMPlexSans-66" transform="translate(298.399933 0)"/>
      <use xlink:href="#IBMPlexSans-72" transform="translate(330.799927 0)"/>
      <use xlink:href="#IBMPlexSans-65" transform="translate(367.499924 0)"/>
      <use xlink:href="#IBMPlexSans-71" transform="translate(422.399918 0)"/>
      <use xlink:href="#IBMPlexSans-75" transform="translate(480.399902 0)"/>
      <use xlink:href="#IBMPlexSans-65" transform="translate(537.19989 0)"/>
      <use xlink:href="#IBMPlexSans-6e" transform="translate(592.099884 0)"/>
      <use xlink:href="#IBMPlexSans-63" transform="translate(648.899872 0)"/>
      <use xlink:href="#IBMPlexSans-79" transform="translate(699.19986 0)"/>
      <use xlink:href="#IBMPlexSans-20" transform="translate(749.099854 0)"/>
      <use xlink:href="#IBMPlexSans-5b" transform="translate(772.699844 0)"/>
      <use xlink:href="#IBMPlexSans-54" transform="translate(804.399841 0)"/>
      <use xlink:href="#IBMPlexSans-48" transform="translate(861.599838 0)"/>
      <use xlink:href="#IBMPlexSans-7a" transform="translate(932.29982 0)"/>
      <use xlink:href="#IBMPlexSans-5d" transform="translate(978.699814 0)"/>
     </g>
    </g>
   </g>
   <g id="matplotlib.axis_6">
    <g id="ytick_9">
     <g id="line2d_71">
      <g>
       <use xlink:href="#m94725ce02f" x="48.640625" y="270.322375" style="stroke: #000000; stroke-width: 0.8"/>
      </g>
     </g>
     <g id="text_18">
      <!-- 1 -->
      <g transform="translate(29.640625 274.022375) scale(0.1 -0.1)">
       <use xlink:href="#IBMPlexSans-2212"/>
       <use xlink:href="#IBMPlexSans-31" transform="translate(59.999985 0)"/>
      </g>
     </g>
    </g>
    <g id="ytick_10">
     <g id="line2d_72">
      <g>
       <use xlink:href="#m94725ce02f" x="48.640625" y="247.189445" style="stroke: #000000; stroke-width: 0.8"/>
      </g>
     </g>
     <g id="text_19">
      <!-- 0 -->
      <g transform="translate(35.640625 250.889445) scale(0.1 -0.1)">
       <use xlink:href="#IBMPlexSans-30"/>
      </g>
     </g>
    </g>
    <g id="ytick_11">
     <g id="line2d_73">
      <g>
       <use xlink:href="#m94725ce02f" x="48.640625" y="224.056515" style="stroke: #000000; stroke-width: 0.8"/>
      </g>
     </g>
     <g id="text_20">
      <!-- 1 -->
      <g transform="translate(35.640625 227.756515) scale(0.1 -0.1)">
       <use xlink:href="#IBMPlexSans-31"/>
      </g>
     </g>
    </g>
    <g id="ytick_12">
     <g id="line2d_74">
      <g>
       <use xlink:href="#m94725ce02f" x="48.640625" y="200.923586" style="stroke: #000000; stroke-width: 0.8"/>
      </g>
     </g>
     <g id="text_21">
      <!-- 2 -->
      <g transform="translate(35.640625 204.623586) scale(0.1 -0.1)">
       <use xlink:href="#IBMPlexSans-32"/>
      </g>
     </g>
    </g>
    <g id="ytick_13">
     <g id="line2d_75">
      <g>
       <use xlink:href="#m94725ce02f" x="48.640625" y="177.790656" style="stroke: #000000; stroke-width: 0.8"/>
      </g>
     </g>
     <g id="text_22">
      <!-- 3 -->
      <g transform="translate(35.640625 181.490656) scale(0.1 -0.1)">
       <use xlink:href="#IBMPlexSans-33"/>
      </g>
     </g>
    </g>
    <g id="ytick_14">
     <g id="line2d_76">
      <g>
       <use xlink:href="#m94725ce02f" x="48.640625" y="154.657727" style="stroke: #000000; stroke-width: 0.8"/>
      </g>
     </g>
     <g id="text_23">
      <!-- 4 -->
      <g transform="translate(35.640625 158.357727) scale(0.1 -0.1)">
       <use xlink:href="#IBMPlexSans-34"/>
      </g>
     </g>
    </g>
    <g id="text_24">
     <!-- Z-score -->
     <g transform="translate(23.640625 232.029125) rotate(-90) scale(0.1 -0.1)">
      <defs>
       <path id="IBMPlexSans-5a" d="M 3482 474 
L 806 474 
L 3392 3981 
L 3392 4467 
L 365 4467 
L 365 3994 
L 2810 3994 
L 230 486 
L 230 0 
L 3482 0 
L 3482 474 
z
" transform="scale(0.015625)"/>
       <path id="IBMPlexSans-2d" d="M 2112 1670 
L 2112 2221 
L 442 2221 
L 442 1670 
L 2112 1670 
z
" transform="scale(0.015625)"/>
       <path id="IBMPlexSans-73" d="M 1536 -77 
C 2291 -77 2758 314 2758 954 
C 2758 1453 2477 1773 1747 1882 
L 1491 1920 
C 1082 1984 858 2112 858 2432 
C 858 2746 1082 2944 1504 2944 
C 1926 2944 2208 2746 2355 2541 
L 2694 2848 
C 2426 3181 2074 3379 1542 3379 
C 870 3379 365 3059 365 2406 
C 365 1792 819 1542 1427 1453 
L 1690 1414 
C 2125 1350 2266 1152 2266 896 
C 2266 557 2010 358 1574 358 
C 1158 358 851 544 595 864 
L 230 570 
C 525 179 928 -77 1536 -77 
z
" transform="scale(0.015625)"/>
      </defs>
      <use xlink:href="#IBMPlexSans-5a"/>
      <use xlink:href="#IBMPlexSans-2d" transform="translate(57.999985 0)"/>
      <use xlink:href="#IBMPlexSans-73" transform="translate(97.899979 0)"/>
      <use xlink:href="#IBMPlexSans-63" transform="translate(146.599976 0)"/>
      <use xlink:href="#IBMPlexSans-6f" transform="translate(196.899963 0)"/>
      <use xlink:href="#IBMPlexSans-72" transform="translate(252.899948 0)"/>
      <use xlink:href="#IBMPlexSans-65" transform="translate(289.599945 0)"/>
     </g>
    </g>
   </g>
   <g id="line2d_77">
    <path d="M 58.826044 231.298656 
L 61.655326 224.600238 
L 64.484609 217.870942 
L 67.313892 212.012535 
L 70.143175 207.66092 
L 72.972458 204.998114 
L 75.801741 203.887504 
L 78.631024 203.979863 
L 81.460307 204.892655 
L 84.28959 206.320688 
L 87.118873 207.996488 
L 89.948156 209.701333 
L 92.777439 211.285207 
L 95.606722 212.61552 
L 98.436004 213.718738 
L 101.265287 214.642036 
L 104.09457 215.447936 
L 106.923853 216.232212 
L 109.753136 216.96647 
L 112.582419 217.629447 
L 115.411702 218.170876 
L 118.240985 218.529134 
L 121.070268 218.749423 
L 123.899551 218.78448 
L 126.728834 218.654941 
L 129.558117 218.354822 
L 132.3874 217.918287 
L 135.216682 217.389154 
L 138.045965 216.867307 
L 140.875248 216.434023 
L 143.704531 216.229882 
L 146.533814 216.335223 
L 149.363097 216.759629 
L 152.19238 217.442438 
L 155.021663 218.340472 
L 157.850946 219.440669 
L 160.680229 220.787368 
L 163.509512 222.36223 
L 166.338795 224.098453 
L 169.168078 225.914686 
L 171.99736 227.701439 
L 174.826643 229.388195 
L 177.655926 231.006604 
L 180.485209 232.683582 
L 183.314492 234.489632 
L 186.143775 236.387871 
L 188.973058 238.207758 
L 191.802341 239.902887 
L 194.631624 241.379495 
L 197.460907 242.687683 
L 200.29019 243.870021 
L 203.119473 244.979102 
L 205.948756 246.077704 
L 208.778038 247.163348 
L 211.607321 248.170616 
L 214.436604 248.998656 
L 217.265887 249.543873 
L 220.09517 249.866909 
L 222.924453 249.945041 
L 225.753736 249.922156 
L 228.583019 249.893358 
L 231.412302 250.021727 
L 234.241585 250.430902 
L 237.070868 250.938522 
L 239.900151 251.314743 
L 242.729434 250.982345 
L 245.558716 249.438434 
L 248.387999 246.041203 
L 251.217282 240.264337 
L 254.046565 231.607559 
L 256.875848 219.971793 
L 259.705131 205.219092 
L 262.534414 187.02872 
" clip-path="url(#p1985b58593)" style="fill: none; stroke: #1f77b4; stroke-width: 1.5; stroke-linecap: square"/>
   </g>
   <g id="line2d_78">
    <path d="M 58.826044 262.550408 
L 61.655326 260.433032 
L 64.484609 257.546077 
L 67.313892 254.173221 
L 70.143175 250.682807 
L 72.972458 247.776501 
L 75.801741 246.277133 
L 78.631024 246.763909 
L 81.460307 249.149012 
L 84.28959 252.40646 
L 87.118873 255.352779 
L 89.948156 257.39777 
L 92.777439 258.670494 
L 95.606722 259.435862 
L 98.436004 259.958591 
L 101.265287 260.268615 
L 104.09457 260.380887 
L 106.923853 260.408101 
L 109.753136 260.544191 
L 112.582419 261.023709 
L 115.411702 261.908946 
L 118.240985 262.890032 
L 121.070268 263.492958 
L 123.899551 263.4076 
L 126.728834 262.641541 
L 129.558117 261.286141 
L 132.3874 259.247896 
L 135.216682 256.32991 
L 138.045965 252.502425 
L 140.875248 248.119515 
L 143.704531 243.76431 
L 146.533814 240.082582 
L 149.363097 237.538599 
L 152.19238 236.236239 
L 155.021663 235.880555 
L 157.850946 236.084492 
L 160.680229 236.779593 
L 163.509512 238.123452 
L 166.338795 240.199801 
L 169.168078 243.099792 
L 171.99736 246.514856 
L 174.826643 250.221255 
L 177.655926 253.798166 
L 180.485209 256.831116 
L 183.314492 259.109986 
L 186.143775 260.650016 
L 188.973058 261.660077 
L 191.802341 262.353469 
L 194.631624 262.886869 
L 197.460907 263.299106 
L 200.29019 263.531403 
L 203.119473 263.460141 
L 205.948756 263.02957 
L 208.778038 262.322222 
L 211.607321 261.485942 
L 214.436604 260.554521 
L 217.265887 259.383809 
L 220.09517 257.625114 
L 222.924453 254.809008 
L 225.753736 250.175998 
L 228.583019 242.54453 
L 231.412302 229.932145 
L 234.241585 208.966922 
L 237.070868 174.240864 
L 239.900151 117.647853 
L 242.729434 27.192058 
L 243.303273 -1 
" clip-path="url(#p1985b58593)" style="fill: none; stroke: #2ca02c; stroke-width: 1.5; stroke-linecap: square"/>
   </g>
   <g id="line2d_79">
    <path d="M 48.640625 247.189445 
L 272.719832 247.189445 
" clip-path="url(#p1985b58593)" style="fill: none; stroke-dasharray: 5.55,2.4; stroke-dashoffset: 0; stroke: #000000; stroke-width: 1.5"/>
   </g>
   <g id="line2d_80">
    <path d="M 48.640625 200.923586 
L 272.719832 200.923586 
" clip-path="url(#p1985b58593)" style="fill: none; stroke-dasharray: 5.55,2.4; stroke-dashoffset: 0; stroke: #000000; stroke-width: 1.5"/>
   </g>
   <g id="patch_9">
    <path d="M 48.640625 274.948961 
L 48.640625 154.657727 
" style="fill: none; stroke: #000000; stroke-width: 0.8; stroke-linejoin: miter; stroke-linecap: square"/>
   </g>
   <g id="patch_10">
    <path d="M 48.640625 274.948961 
L 272.719832 274.948961 
" style="fill: none; stroke: #000000; stroke-width: 0.8; stroke-linejoin: miter; stroke-linecap: square"/>
   </g>
   <g id="legend_1">
    <g id="patch_11">
     <path d="M 55.640625 191.457727 
L 126.470313 191.457727 
Q 128.470313 191.457727 128.470313 189.457727 
L 128.470313 161.657727 
Q 128.470313 159.657727 126.470313 159.657727 
L 55.640625 159.657727 
Q 53.640625 159.657727 53.640625 161.657727 
L 53.640625 189.457727 
Q 53.640625 191.457727 55.640625 191.457727 
z
" style="fill: #ffffff; opacity: 0.8; stroke: #cccccc; stroke-linejoin: miter"/>
    </g>
    <g id="line2d_81">
     <path d="M 57.640625 167.557727 
L 67.640625 167.557727 
L 77.640625 167.557727 
" style="fill: none; stroke: #1f77b4; stroke-width: 1.5; stroke-linecap: square"/>
    </g>
    <g id="text_25">
     <!-- Cost -->
     <g transform="translate(85.640625 171.057727) scale(0.1 -0.1)">
      <use xlink:href="#IBMPlexSans-43"/>
      <use xlink:href="#IBMPlexSans-6f" transform="translate(62.099991 0)"/>
      <use xlink:href="#IBMPlexSans-73" transform="translate(118.099976 0)"/>
      <use xlink:href="#IBMPlexSans-74" transform="translate(166.799973 0)"/>
     </g>
    </g>
    <g id="line2d_82">
     <path d="M 57.640625 181.957727 
L 67.640625 181.957727 
L 77.640625 181.957727 
" style="fill: none; stroke: #2ca02c; stroke-width: 1.5; stroke-linecap: square"/>
    </g>
    <g id="text_26">
     <!-- Criterion -->
     <g transform="translate(85.640625 185.457727) scale(0.1 -0.1)">
      <use xlink:href="#IBMPlexSans-43"/>
      <use xlink:href="#IBMPlexSans-72" transform="translate(62.099991 0)"/>
      <use xlink:href="#IBMPlexSans-69" transform="translate(98.799988 0)"/>
      <use xlink:href="#IBMPlexSans-74" transform="translate(123.799973 0)"/>
      <use xlink:href="#IBMPlexSans-65" transform="translate(158.899963 0)"/>
      <use xlink:href="#IBMPlexSans-72" transform="translate(213.799957 0)"/>
      <use xlink:href="#IBMPlexSans-69" transform="translate(250.499954 0)"/>
      <use xlink:href="#IBMPlexSans-6f" transform="translate(275.499939 0)"/>
      <use xlink:href="#IBMPlexSans-6e" transform="translate(331.499924 0)"/>
     </g>
    </g>
   </g>
  </g>
  <g id="axes_4">
   <g id="patch_12">
    <path d="M 317.120313 274.948961 
L 541.19952 274.948961 
L 541.19952 154.657727 
L 317.120313 154.657727 
z
" style="fill: #ffffff"/>
   </g>
   <g id="PathCollection_2">
    <defs>
     <path id="C1_0_a6d20ee433" d="M 0 2.738613 
C 0.726289 2.738613 1.422928 2.450055 1.936492 1.936492 
C 2.450055 1.422928 2.738613 0.726289 2.738613 -0 
C 2.738613 -0.726289 2.450055 -1.422928 1.936492 -1.936492 
C 1.422928 -2.450055 0.726289 -2.738613 0 -2.738613 
C -0.726289 -2.738613 -1.422928 -2.450055 -1.936492 -1.936492 
C -2.450055 -1.422928 -2.738613 -0.726289 -2.738613 0 
C -2.738613 0.726289 -2.450055 1.422928 -1.936492 1.936492 
C -1.422928 2.450055 -0.726289 2.738613 0 2.738613 
z
"/>
    </defs>
    <g clip-path="url(#p42ee60b201)">
     <use xlink:href="#C1_0_a6d20ee433" x="327.305731" y="214.803344" style="fill: #e2e2e2"/>
    </g>
    <g clip-path="url(#p42ee60b201)">
     <use xlink:href="#C1_0_a6d20ee433" x="330.135014" y="154.657727" style="fill: #e4e4e4"/>
    </g>
    <g clip-path="url(#p42ee60b201)">
     <use xlink:href="#C1_0_a6d20ee433" x="332.964297" y="154.657727" style="fill: #e6e6e6"/>
    </g>
    <g clip-path="url(#p42ee60b201)">
     <use xlink:href="#C1_0_a6d20ee433" x="335.79358" y="154.657727" style="fill: #e8e8e8"/>
    </g>
    <g clip-path="url(#p42ee60b201)">
     <use xlink:href="#C1_0_a6d20ee433" x="338.622863" y="244.876152" style="fill: #ebebeb"/>
    </g>
    <g clip-path="url(#p42ee60b201)">
     <use xlink:href="#C1_0_a6d20ee433" x="341.452146" y="214.803344" style="fill: #ececec"/>
    </g>
    <g clip-path="url(#p42ee60b201)">
     <use xlink:href="#C1_0_a6d20ee433" x="344.281429" y="154.657727" style="fill: #ededed"/>
    </g>
    <g clip-path="url(#p42ee60b201)">
     <use xlink:href="#C1_0_a6d20ee433" x="347.110711" y="214.803344" style="fill: #ececec"/>
    </g>
    <g clip-path="url(#p42ee60b201)">
     <use xlink:href="#C1_0_a6d20ee433" x="349.939994" y="244.876152" style="fill: #e9e9e9"/>
    </g>
    <g clip-path="url(#p42ee60b201)">
     <use xlink:href="#C1_0_a6d20ee433" x="352.769277" y="214.803344" style="fill: #e4e4e4"/>
    </g>
    <g clip-path="url(#p42ee60b201)">
     <use xlink:href="#C1_0_a6d20ee433" x="355.59856" y="154.657727" style="fill: #e0e0e0"/>
    </g>
    <g clip-path="url(#p42ee60b201)">
     <use xlink:href="#C1_0_a6d20ee433" x="358.427843" y="214.803344" style="fill: #dcdcdc"/>
    </g>
    <g clip-path="url(#p42ee60b201)">
     <use xlink:href="#C1_0_a6d20ee433" x="361.257126" y="214.803344" style="fill: #d9d9d9"/>
    </g>
    <g clip-path="url(#p42ee60b201)">
     <use xlink:href="#C1_0_a6d20ee433" x="364.086409" y="214.803344" style="fill: #d6d6d6"/>
    </g>
    <g clip-path="url(#p42ee60b201)">
     <use xlink:href="#C1_0_a6d20ee433" x="366.915692" y="214.803344" style="fill: #d3d3d3"/>
    </g>
    <g clip-path="url(#p42ee60b201)">
     <use xlink:href="#C1_0_a6d20ee433" x="369.744975" y="214.803344" style="fill: #d1d1d1"/>
    </g>
    <g clip-path="url(#p42ee60b201)">
     <use xlink:href="#C1_0_a6d20ee433" x="372.574258" y="214.803344" style="fill: #cecece"/>
    </g>
    <g clip-path="url(#p42ee60b201)">
     <use xlink:href="#C1_0_a6d20ee433" x="375.403541" y="214.803344" style="fill: #cccccc"/>
    </g>
    <g clip-path="url(#p42ee60b201)">
     <use xlink:href="#C1_0_a6d20ee433" x="378.232824" y="214.803344" style="fill: #cacaca"/>
    </g>
    <g clip-path="url(#p42ee60b201)">
     <use xlink:href="#C1_0_a6d20ee433" x="381.062107" y="214.803344" style="fill: #c6c6c6"/>
    </g>
    <g clip-path="url(#p42ee60b201)">
     <use xlink:href="#C1_0_a6d20ee433" x="383.891389" y="154.657727" style="fill: #c2c2c2"/>
    </g>
    <g clip-path="url(#p42ee60b201)">
     <use xlink:href="#C1_0_a6d20ee433" x="386.720672" y="154.657727" style="fill: #bdbdbd"/>
    </g>
    <g clip-path="url(#p42ee60b201)">
     <use xlink:href="#C1_0_a6d20ee433" x="389.549955" y="154.657727" style="fill: #b8b8b8"/>
    </g>
    <g clip-path="url(#p42ee60b201)">
     <use xlink:href="#C1_0_a6d20ee433" x="392.379238" y="154.657727" style="fill: #b4b4b4"/>
    </g>
    <g clip-path="url(#p42ee60b201)">
     <use xlink:href="#C1_0_a6d20ee433" x="395.208521" y="214.803344" style="fill: #b3b3b3"/>
    </g>
    <g clip-path="url(#p42ee60b201)">
     <use xlink:href="#C1_0_a6d20ee433" x="398.037804" y="214.803344" style="fill: #b4b4b4"/>
    </g>
    <g clip-path="url(#p42ee60b201)">
     <use xlink:href="#C1_0_a6d20ee433" x="400.867087" y="214.803344" style="fill: #b8b8b8"/>
    </g>
    <g clip-path="url(#p42ee60b201)">
     <use xlink:href="#C1_0_a6d20ee433" x="403.69637" y="214.803344" style="fill: #bebebe"/>
    </g>
    <g clip-path="url(#p42ee60b201)">
     <use xlink:href="#C1_0_a6d20ee433" x="406.525653" y="214.803344" style="fill: #c5c5c5"/>
    </g>
    <g clip-path="url(#p42ee60b201)">
     <use xlink:href="#C1_0_a6d20ee433" x="409.354936" y="244.876152" style="fill: #cccccc"/>
    </g>
    <g clip-path="url(#p42ee60b201)">
     <use xlink:href="#C1_0_a6d20ee433" x="412.184219" y="244.876152" style="fill: #d4d4d4"/>
    </g>
    <g clip-path="url(#p42ee60b201)">
     <use xlink:href="#C1_0_a6d20ee433" x="415.013502" y="214.803344" style="fill: #d8d8d8"/>
    </g>
    <g clip-path="url(#p42ee60b201)">
     <use xlink:href="#C1_0_a6d20ee433" x="417.842785" y="214.803344" style="fill: #dadada"/>
    </g>
    <g clip-path="url(#p42ee60b201)">
     <use xlink:href="#C1_0_a6d20ee433" x="420.672067" y="244.876152" style="fill: #dbdbdb"/>
    </g>
    <g clip-path="url(#p42ee60b201)">
     <use xlink:href="#C1_0_a6d20ee433" x="423.50135" y="214.803344" style="fill: #dadada"/>
    </g>
    <g clip-path="url(#p42ee60b201)">
     <use xlink:href="#C1_0_a6d20ee433" x="426.330633" y="154.657727" style="fill: #d8d8d8"/>
    </g>
    <g clip-path="url(#p42ee60b201)">
     <use xlink:href="#C1_0_a6d20ee433" x="429.159916" y="244.876152" style="fill: #d5d5d5"/>
    </g>
    <g clip-path="url(#p42ee60b201)">
     <use xlink:href="#C1_0_a6d20ee433" x="431.989199" y="274.948961" style="fill: #d1d1d1"/>
    </g>
    <g clip-path="url(#p42ee60b201)">
     <use xlink:href="#C1_0_a6d20ee433" x="434.818482" y="154.657727" style="fill: #cacaca"/>
    </g>
    <g clip-path="url(#p42ee60b201)">
     <use xlink:href="#C1_0_a6d20ee433" x="437.647765" y="154.657727" style="fill: #c1c1c1"/>
    </g>
    <g clip-path="url(#p42ee60b201)">
     <use xlink:href="#C1_0_a6d20ee433" x="440.477048" y="274.948961" style="fill: #b3b3b3"/>
    </g>
    <g clip-path="url(#p42ee60b201)">
     <use xlink:href="#C1_0_a6d20ee433" x="443.306331" y="154.657727" style="fill: #9f9f9f"/>
    </g>
    <g clip-path="url(#p42ee60b201)">
     <use xlink:href="#C1_0_a6d20ee433" x="446.135614" y="154.657727" style="fill: #8a8a8a"/>
    </g>
    <g clip-path="url(#p42ee60b201)">
     <use xlink:href="#C1_0_a6d20ee433" x="448.964897" y="154.657727" style="fill: #767676"/>
    </g>
    <g clip-path="url(#p42ee60b201)">
     <use xlink:href="#C1_0_a6d20ee433" x="451.79418" y="154.657727" style="fill: #656565"/>
    </g>
    <g clip-path="url(#p42ee60b201)">
     <use xlink:href="#C1_0_a6d20ee433" x="454.623463" y="154.657727" style="fill: #555555"/>
    </g>
    <g clip-path="url(#p42ee60b201)">
     <use xlink:href="#C1_0_a6d20ee433" x="457.452745" y="214.803344" style="fill: #464646"/>
    </g>
    <g clip-path="url(#p42ee60b201)">
     <use xlink:href="#C1_0_a6d20ee433" x="460.282028" y="214.803344" style="fill: #383838"/>
    </g>
    <g clip-path="url(#p42ee60b201)">
     <use xlink:href="#C1_0_a6d20ee433" x="463.111311" y="214.803344" style="fill: #282828"/>
    </g>
    <g clip-path="url(#p42ee60b201)">
     <use xlink:href="#C1_0_a6d20ee433" x="465.940594" y="214.803344" style="fill: #1d1d1d"/>
    </g>
    <g clip-path="url(#p42ee60b201)">
     <use xlink:href="#C1_0_a6d20ee433" x="468.769877" y="154.657727" style="fill: #131313"/>
    </g>
    <g clip-path="url(#p42ee60b201)">
     <use xlink:href="#C1_0_a6d20ee433" x="471.59916" y="214.803344" style="fill: #090909"/>
    </g>
    <g clip-path="url(#p42ee60b201)">
     <use xlink:href="#C1_0_a6d20ee433" x="474.428443" y="154.657727" style="fill: #050505"/>
    </g>
    <g clip-path="url(#p42ee60b201)">
     <use xlink:href="#C1_0_a6d20ee433" x="477.257726" y="244.876152" style="fill: #020202"/>
    </g>
    <g clip-path="url(#p42ee60b201)">
     <use xlink:href="#C1_0_a6d20ee433" x="480.087009" y="244.876152"/>
    </g>
    <g clip-path="url(#p42ee60b201)">
     <use xlink:href="#C1_0_a6d20ee433" x="482.916292" y="154.657727"/>
    </g>
    <g clip-path="url(#p42ee60b201)">
     <use xlink:href="#C1_0_a6d20ee433" x="485.745575" y="214.803344" style="fill: #010101"/>
    </g>
    <g clip-path="url(#p42ee60b201)">
     <use xlink:href="#C1_0_a6d20ee433" x="488.574858" y="244.876152" style="fill: #070707"/>
    </g>
    <g clip-path="url(#p42ee60b201)">
     <use xlink:href="#C1_0_a6d20ee433" x="491.404141" y="154.657727" style="fill: #171717"/>
    </g>
    <g clip-path="url(#p42ee60b201)">
     <use xlink:href="#C1_0_a6d20ee433" x="494.233423" y="214.803344" style="fill: #363636"/>
    </g>
    <g clip-path="url(#p42ee60b201)">
     <use xlink:href="#C1_0_a6d20ee433" x="497.062706" y="274.948961" style="fill: #666666"/>
    </g>
    <g clip-path="url(#p42ee60b201)">
     <use xlink:href="#C1_0_a6d20ee433" x="499.891989" y="274.948961" style="fill: #9e9e9e"/>
    </g>
    <g clip-path="url(#p42ee60b201)">
     <use xlink:href="#C1_0_a6d20ee433" x="502.721272" y="214.803344" style="fill: #d8d8d8"/>
    </g>
    <g clip-path="url(#p42ee60b201)">
     <use xlink:href="#C1_0_a6d20ee433" x="505.550555" y="214.803344" style="fill: #f4f4f4"/>
    </g>
    <g clip-path="url(#p42ee60b201)">
     <use xlink:href="#C1_0_a6d20ee433" x="508.379838" y="274.948961" style="fill: #fdfdfd"/>
    </g>
   </g>
   <g id="matplotlib.axis_7">
    <g id="xtick_61">
     <g id="line2d_83">
      <g>
       <use xlink:href="#m12c7bc233d" x="355.53622" y="274.948961" style="stroke: #000000; stroke-width: 0.8"/>
      </g>
     </g>
     <g id="text_27">
      <!-- $\mathdefault{10^{-2}}$ -->
      <g transform="translate(345.13622 289.348961) scale(0.1 -0.1)">
       <use xlink:href="#IBMPlexSans-31" transform="translate(0 0.184375)"/>
       <use xlink:href="#IBMPlexSans-30" transform="translate(59.999985 0.184375)"/>
       <use xlink:href="#IBMPlexSans-2212" transform="translate(120.90286 36.3) scale(0.7)"/>
       <use xlink:href="#IBMPlexSans-32" transform="translate(162.902849 36.3) scale(0.7)"/>
      </g>
     </g>
    </g>
    <g id="xtick_62">
     <g id="line2d_84">
      <g>
       <use xlink:href="#m12c7bc233d" x="459.770854" y="274.948961" style="stroke: #000000; stroke-width: 0.8"/>
      </g>
     </g>
     <g id="text_28">
      <!-- $\mathdefault{10^{-1}}$ -->
      <g transform="translate(449.370854 289.348961) scale(0.1 -0.1)">
       <use xlink:href="#IBMPlexSans-31" transform="translate(0 0.026563)"/>
       <use xlink:href="#IBMPlexSans-30" transform="translate(59.999985 0.026563)"/>
       <use xlink:href="#IBMPlexSans-2212" transform="translate(120.90286 36.142188) scale(0.7)"/>
       <use xlink:href="#IBMPlexSans-31" transform="translate(162.902849 36.142188) scale(0.7)"/>
      </g>
     </g>
    </g>
    <g id="xtick_63">
     <g id="line2d_85">
      <g>
       <use xlink:href="#me10711e434" x="324.158468" y="274.948961" style="stroke: #000000; stroke-width: 0.6"/>
      </g>
     </g>
    </g>
    <g id="xtick_64">
     <g id="line2d_86">
      <g>
       <use xlink:href="#me10711e434" x="332.411896" y="274.948961" style="stroke: #000000; stroke-width: 0.6"/>
      </g>
     </g>
    </g>
    <g id="xtick_65">
     <g id="line2d_87">
      <g>
       <use xlink:href="#me10711e434" x="339.39007" y="274.948961" style="stroke: #000000; stroke-width: 0.6"/>
      </g>
     </g>
    </g>
    <g id="xtick_66">
     <g id="line2d_88">
      <g>
       <use xlink:href="#me10711e434" x="345.43484" y="274.948961" style="stroke: #000000; stroke-width: 0.6"/>
      </g>
     </g>
    </g>
    <g id="xtick_67">
     <g id="line2d_89">
      <g>
       <use xlink:href="#me10711e434" x="350.766704" y="274.948961" style="stroke: #000000; stroke-width: 0.6"/>
      </g>
     </g>
    </g>
    <g id="xtick_68">
     <g id="line2d_90">
      <g>
       <use xlink:href="#me10711e434" x="386.913971" y="274.948961" style="stroke: #000000; stroke-width: 0.6"/>
      </g>
     </g>
    </g>
    <g id="xtick_69">
     <g id="line2d_91">
      <g>
       <use xlink:href="#me10711e434" x="405.268779" y="274.948961" style="stroke: #000000; stroke-width: 0.6"/>
      </g>
     </g>
    </g>
    <g id="xtick_70">
     <g id="line2d_92">
      <g>
       <use xlink:href="#me10711e434" x="418.291723" y="274.948961" style="stroke: #000000; stroke-width: 0.6"/>
      </g>
     </g>
    </g>
    <g id="xtick_71">
     <g id="line2d_93">
      <g>
       <use xlink:href="#me10711e434" x="428.393103" y="274.948961" style="stroke: #000000; stroke-width: 0.6"/>
      </g>
     </g>
    </g>
    <g id="xtick_72">
     <g id="line2d_94">
      <g>
       <use xlink:href="#me10711e434" x="436.646531" y="274.948961" style="stroke: #000000; stroke-width: 0.6"/>
      </g>
     </g>
    </g>
    <g id="xtick_73">
     <g id="line2d_95">
      <g>
       <use xlink:href="#me10711e434" x="443.624705" y="274.948961" style="stroke: #000000; stroke-width: 0.6"/>
      </g>
     </g>
    </g>
    <g id="xtick_74">
     <g id="line2d_96">
      <g>
       <use xlink:href="#me10711e434" x="449.669475" y="274.948961" style="stroke: #000000; stroke-width: 0.6"/>
      </g>
     </g>
    </g>
    <g id="xtick_75">
     <g id="line2d_97">
      <g>
       <use xlink:href="#me10711e434" x="455.001339" y="274.948961" style="stroke: #000000; stroke-width: 0.6"/>
      </g>
     </g>
    </g>
    <g id="xtick_76">
     <g id="line2d_98">
      <g>
       <use xlink:href="#me10711e434" x="491.148606" y="274.948961" style="stroke: #000000; stroke-width: 0.6"/>
      </g>
     </g>
    </g>
    <g id="xtick_77">
     <g id="line2d_99">
      <g>
       <use xlink:href="#me10711e434" x="509.503414" y="274.948961" style="stroke: #000000; stroke-width: 0.6"/>
      </g>
     </g>
    </g>
    <g id="xtick_78">
     <g id="line2d_100">
      <g>
       <use xlink:href="#me10711e434" x="522.526358" y="274.948961" style="stroke: #000000; stroke-width: 0.6"/>
      </g>
     </g>
    </g>
    <g id="xtick_79">
     <g id="line2d_101">
      <g>
       <use xlink:href="#me10711e434" x="532.627738" y="274.948961" style="stroke: #000000; stroke-width: 0.6"/>
      </g>
     </g>
    </g>
    <g id="xtick_80">
     <g id="line2d_102">
      <g>
       <use xlink:href="#me10711e434" x="540.881166" y="274.948961" style="stroke: #000000; stroke-width: 0.6"/>
      </g>
     </g>
    </g>
    <g id="text_29">
     <!-- Cutoff frequency [THz] -->
     <g transform="translate(378.638822 302.948961) scale(0.1 -0.1)">
      <use xlink:href="#IBMPlexSans-43"/>
      <use xlink:href="#IBMPlexSans-75" transform="translate(62.099991 0)"/>
      <use xlink:href="#IBMPlexSans-74" transform="translate(118.899979 0)"/>
      <use xlink:href="#IBMPlexSans-6f" transform="translate(153.999969 0)"/>
      <use xlink:href="#IBMPlexSans-66" transform="translate(209.999954 0)"/>
      <use xlink:href="#IBMPlexSans-66" transform="translate(242.399948 0)"/>
      <use xlink:href="#IBMPlexSans-20" transform="translate(274.799942 0)"/>
      <use xlink:href="#IBMPlexSans-66" transform="translate(298.399933 0)"/>
      <use xlink:href="#IBMPlexSans-72" transform="translate(330.799927 0)"/>
      <use xlink:href="#IBMPlexSans-65" transform="translate(367.499924 0)"/>
      <use xlink:href="#IBMPlexSans-71" transform="translate(422.399918 0)"/>
      <use xlink:href="#IBMPlexSans-75" transform="translate(480.399902 0)"/>
      <use xlink:href="#IBMPlexSans-65" transform="translate(537.19989 0)"/>
      <use xlink:href="#IBMPlexSans-6e" transform="translate(592.099884 0)"/>
      <use xlink:href="#IBMPlexSans-63" transform="translate(648.899872 0)"/>
      <use xlink:href="#IBMPlexSans-79" transform="translate(699.19986 0)"/>
      <use xlink:href="#IBMPlexSans-20" transform="translate(749.099854 0)"/>
      <use xlink:href="#IBMPlexSans-5b" transform="translate(772.699844 0)"/>
      <use xlink:href="#IBMPlexSans-54" transform="translate(804.399841 0)"/>
      <use xlink:href="#IBMPlexSans-48" transform="translate(861.599838 0)"/>
      <use xlink:href="#IBMPlexSans-7a" transform="translate(932.29982 0)"/>
      <use xlink:href="#IBMPlexSans-5d" transform="translate(978.699814 0)"/>
     </g>
    </g>
   </g>
   <g id="matplotlib.axis_8">
    <g id="ytick_15">
     <g id="line2d_103">
      <g>
       <use xlink:href="#m94725ce02f" x="317.120313" y="214.803344" style="stroke: #000000; stroke-width: 0.8"/>
      </g>
     </g>
     <g id="text_30">
      <!-- $\mathdefault{10^{0}}$ -->
      <g transform="translate(293.520312 218.503344) scale(0.1 -0.1)">
       <use xlink:href="#IBMPlexSans-31" transform="translate(0 0.184375)"/>
       <use xlink:href="#IBMPlexSans-30" transform="translate(59.999985 0.184375)"/>
       <use xlink:href="#IBMPlexSans-30" transform="translate(120.90286 36.3) scale(0.7)"/>
      </g>
     </g>
    </g>
    <g id="text_31">
     <!-- Hessian Eigenvalues -->
     <g transform="translate(287.4 260.79475) rotate(-90) scale(0.1 -0.1)">
      <defs>
       <path id="IBMPlexSans-61" d="M 3232 0 
L 3232 448 
L 2854 448 
L 2854 2266 
C 2854 2963 2381 3379 1587 3379 
C 992 3379 595 3085 416 2733 
L 723 2445 
C 902 2746 1165 2938 1562 2938 
C 2086 2938 2342 2682 2342 2214 
L 2342 1888 
L 1690 1888 
C 730 1888 282 1542 282 922 
C 282 307 691 -77 1389 -77 
C 1850 -77 2202 134 2342 538 
L 2374 538 
C 2413 230 2566 0 2944 0 
L 3232 0 
z
M 1472 358 
C 1075 358 819 544 819 870 
L 819 1005 
C 819 1325 1082 1504 1664 1504 
L 2342 1504 
L 2342 960 
C 2342 621 1978 358 1472 358 
z
" transform="scale(0.015625)"/>
       <path id="IBMPlexSans-45" d="M 3322 0 
L 3322 474 
L 1133 474 
L 1133 2022 
L 3194 2022 
L 3194 2496 
L 1133 2496 
L 1133 3994 
L 3322 3994 
L 3322 4467 
L 595 4467 
L 595 0 
L 3322 0 
z
" transform="scale(0.015625)"/>
      </defs>
      <use xlink:href="#IBMPlexSans-48"/>
      <use xlink:href="#IBMPlexSans-65" transform="translate(70.699982 0)"/>
      <use xlink:href="#IBMPlexSans-73" transform="translate(125.599976 0)"/>
      <use xlink:href="#IBMPlexSans-73" transform="translate(174.299973 0)"/>
      <use xlink:href="#IBMPlexSans-69" transform="translate(222.999969 0)"/>
      <use xlink:href="#IBMPlexSans-61" transform="translate(247.999954 0)"/>
      <use xlink:href="#IBMPlexSans-6e" transform="translate(301.399948 0)"/>
      <use xlink:href="#IBMPlexSans-20" transform="translate(358.199936 0)"/>
      <use xlink:href="#IBMPlexSans-45" transform="translate(381.799927 0)"/>
      <use xlink:href="#IBMPlexSans-69" transform="translate(440.099915 0)"/>
      <use xlink:href="#IBMPlexSans-67" transform="translate(465.099899 0)"/>
      <use xlink:href="#IBMPlexSans-65" transform="translate(517.899887 0)"/>
      <use xlink:href="#IBMPlexSans-6e" transform="translate(572.799881 0)"/>
      <use xlink:href="#IBMPlexSans-76" transform="translate(629.599869 0)"/>
      <use xlink:href="#IBMPlexSans-61" transform="translate(678.799866 0)"/>
      <use xlink:href="#IBMPlexSans-6c" transform="translate(732.19986 0)"/>
      <use xlink:href="#IBMPlexSans-75" transform="translate(759.399857 0)"/>
      <use xlink:href="#IBMPlexSans-65" transform="translate(816.199844 0)"/>
      <use xlink:href="#IBMPlexSans-73" transform="translate(871.099838 0)"/>
     </g>
    </g>
   </g>
   <g id="line2d_104">
    <path d="M 327.305731 214.803344 
L 330.135014 154.657727 
L 332.964297 154.657727 
L 335.79358 154.657727 
L 338.622863 244.876152 
L 341.452146 214.803344 
L 344.281429 154.657727 
L 347.110711 214.803344 
L 349.939994 244.876152 
L 352.769277 214.803344 
L 355.59856 154.657727 
L 358.427843 214.803344 
L 361.257126 214.803344 
L 364.086409 214.803344 
L 366.915692 214.803344 
L 369.744975 214.803344 
L 372.574258 214.803344 
L 375.403541 214.803344 
L 378.232824 214.803344 
L 381.062107 214.803344 
L 383.891389 154.657727 
L 386.720672 154.657727 
L 389.549955 154.657727 
L 392.379238 154.657727 
L 395.208521 214.803344 
L 398.037804 214.803344 
L 400.867087 214.803344 
L 403.69637 214.803344 
L 406.525653 214.803344 
L 409.354936 244.876152 
L 412.184219 244.876152 
L 415.013502 214.803344 
L 417.842785 214.803344 
L 420.672067 244.876152 
L 423.50135 214.803344 
L 426.330633 154.657727 
L 429.159916 244.876152 
L 431.989199 274.948961 
L 434.818482 154.657727 
L 437.647765 154.657727 
L 440.477048 274.948961 
L 443.306331 154.657727 
L 446.135614 154.657727 
L 448.964897 154.657727 
L 451.79418 154.657727 
L 454.623463 154.657727 
L 457.452745 214.803344 
L 460.282028 214.803344 
L 463.111311 214.803344 
L 465.940594 214.803344 
L 468.769877 154.657727 
L 471.59916 214.803344 
L 474.428443 154.657727 
L 477.257726 244.876152 
L 480.087009 244.876152 
L 482.916292 154.657727 
L 485.745575 214.803344 
L 488.574858 244.876152 
L 491.404141 154.657727 
L 494.233423 214.803344 
L 497.062706 274.948961 
L 499.891989 274.948961 
L 502.721272 214.803344 
L 505.550555 214.803344 
L 508.379838 274.948961 
L 511.209121 214.803344 
L 514.038404 154.657727 
L 516.867687 274.948961 
L 519.69697 214.803344 
L 522.526253 154.657727 
L 525.355536 244.876152 
L 528.184819 214.803344 
L 531.014101 214.803344 
" clip-path="url(#p42ee60b201)" style="fill: none; stroke: #9467bd; stroke-width: 1.5; stroke-linecap: square"/>
   </g>
   <g id="patch_13">
    <path d="M 317.120313 274.948961 
L 317.120313 154.657727 
" style="fill: none; stroke: #000000; stroke-width: 0.8; stroke-linejoin: miter; stroke-linecap: square"/>
   </g>
   <g id="patch_14">
    <path d="M 317.120313 274.948961 
L 541.19952 274.948961 
" style="fill: none; stroke: #000000; stroke-width: 0.8; stroke-linejoin: miter; stroke-linecap: square"/>
   </g>
  </g>
 </g>
 <defs>
  <clipPath id="pe9ca8146c0">
   <rect x="48.640625" y="8.266013" width="224.079207" height="120.291234"/>
  </clipPath>
  <clipPath id="pb1963b889a">
   <rect x="317.120313" y="8.266013" width="224.079207" height="120.291234"/>
  </clipPath>
  <clipPath id="p1985b58593">
   <rect x="48.640625" y="154.657727" width="224.079207" height="120.291234"/>
  </clipPath>
  <clipPath id="p42ee60b201">
   <rect x="317.120313" y="154.657727" width="224.079207" height="120.291234"/>
  </clipPath>
 </defs>
</svg>