<?xml version="1.0" encoding="utf-8" standalone="no"?>
<!DOCTYPE svg PUBLIC "-//W3C//DTD SVG 1.1//EN"
  "http://www.w3.org/Graphics/SVG/1.1/DTD/svg11.dtd">
<svg xmlns:xlink="http://www.w3.org/1999/xlink" width="548.39952pt" height="312.14952pt" viewBox="0 0 548.39952 312.14952" xmlns="http://www.w3.org/2000/svg" version="1.1">
 <metadata>
  <rdf:RDF xmlns:dc="http://purl.org/dc/elements/1.1/" xmlns:cc="http://creativecommons.org/ns#" xmlns:rdf="http://www.w3.org/1999/02/22-rdf-syntax-ns#">
   <cc:Work>
    <dc:type rdf:resource="http://purl.org/dc/dcmitype/StillImage"/>
    <dc:date>2025-06-25T08:39:05.866781</dc:date>
    <dc:format>image/svg+xml</dc:format>
    <dc:creator>
     <cc:Agent>
      <dc:title>Matplotlib v3.10.1, https://matplotlib.org/</dc:title>
     </cc:Agent>
    </dc:creator>
   </cc:Work>
  </rdf:RDF>
 </metadata>
 <defs>
  <style type="text/css">*{stroke-linejoin: round; stroke-linecap: butt}</style>
 </defs>
 <g id="figure_1">
  <g id="patch_1">
   <path d="M 0 312.14952 
L 548.39952 312.14952 
L 548.39952 0 
L 0 0 
z
" style="fill: #ffffff"/>
  </g>
  <g id="axes_1">
   <g id="patch_2">
    <path d="M 42.320312 274.94952 
L 541.19952 274.94952 
L 541.19952 22.32 
L 42.320312 22.32 
z
" style="fill: #ffffff"/>
   </g>
   <g id="matplotlib.axis_1">
    <g id="xtick_1">
     <g id="line2d_1">
      <defs>
       <path id="m01b400a4e2" d="M 0 0 
L 0 3.5 
" style="stroke: #000000; stroke-width: 0.8"/>
      </defs>
      <g>
       <use xlink:href="#m01b400a4e2" x="104.314814" y="274.94952" style="stroke: #000000; stroke-width: 0.8"/>
      </g>
     </g>
     <g id="text_1">
      <!-- 292.5 -->
      <g transform="translate(90.954658 289.34952) scale(0.1 -0.1)">
       <defs>
        <path id="IBMPlexSans-32" d="M 3411 474 
L 1062 474 
L 2266 1555 
C 2835 2067 3245 2554 3245 3245 
C 3245 4006 2746 4544 1875 4544 
C 1011 4544 614 4019 442 3494 
L 922 3309 
C 1043 3731 1299 4064 1850 4064 
C 2400 4064 2675 3725 2675 3232 
L 2675 3155 
C 2675 2726 2355 2278 1939 1894 
L 480 550 
L 480 0 
L 3411 0 
L 3411 474 
z
" transform="scale(0.015625)"/>
        <path id="IBMPlexSans-39" d="M 3411 2829 
C 3411 3891 2842 4544 1914 4544 
C 1018 4544 429 3942 429 3066 
C 429 2221 979 1690 1747 1690 
C 2291 1690 2611 1965 2822 2330 
L 2854 2317 
C 2611 1280 2080 698 1126 0 
L 1818 0 
C 2534 467 3411 1504 3411 2829 
z
M 1920 2144 
C 1331 2144 986 2483 986 3085 
L 986 3136 
C 986 3738 1331 4077 1920 4077 
C 2509 4077 2854 3738 2854 3136 
L 2854 3085 
C 2854 2483 2509 2144 1920 2144 
z
" transform="scale(0.015625)"/>
        <path id="IBMPlexSans-2e" d="M 870 -77 
C 1139 -77 1261 77 1261 294 
L 1261 378 
C 1261 595 1139 749 870 749 
C 602 749 480 595 480 378 
L 480 294 
C 480 77 602 -77 870 -77 
z
" transform="scale(0.015625)"/>
        <path id="IBMPlexSans-35" d="M 3187 4467 
L 794 4467 
L 634 2010 
L 1088 1946 
C 1274 2150 1478 2323 1888 2323 
C 2496 2323 2822 1984 2822 1395 
L 2822 1331 
C 2822 742 2496 403 1888 403 
C 1350 403 1126 640 896 992 
L 493 685 
C 762 301 1146 -77 1888 -77 
C 2829 -77 3392 531 3392 1402 
C 3392 2266 2829 2784 2061 2784 
C 1594 2784 1357 2592 1146 2291 
L 1101 2291 
L 1229 3994 
L 3187 3994 
L 3187 4467 
z
" transform="scale(0.015625)"/>
       </defs>
       <use xlink:href="#IBMPlexSans-32"/>
       <use xlink:href="#IBMPlexSans-39" transform="translate(59.999985 0)"/>
       <use xlink:href="#IBMPlexSans-32" transform="translate(119.999969 0)"/>
       <use xlink:href="#IBMPlexSans-2e" transform="translate(179.999954 0)"/>
       <use xlink:href="#IBMPlexSans-35" transform="translate(207.199951 0)"/>
      </g>
     </g>
    </g>
    <g id="xtick_2">
     <g id="line2d_2">
      <g>
       <use xlink:href="#m01b400a4e2" x="167.129425" y="274.94952" style="stroke: #000000; stroke-width: 0.8"/>
      </g>
     </g>
     <g id="text_2">
      <!-- 295.0 -->
      <g transform="translate(153.769269 289.34952) scale(0.1 -0.1)">
       <defs>
        <path id="IBMPlexSans-30" d="M 1920 -77 
C 2989 -77 3456 774 3456 2234 
C 3456 3693 2989 4544 1920 4544 
C 851 4544 384 3693 384 2234 
C 384 774 851 -77 1920 -77 
z
M 1920 390 
C 1222 390 947 1005 947 1869 
L 947 2598 
C 947 3462 1222 4077 1920 4077 
C 2618 4077 2893 3462 2893 2598 
L 2893 1869 
C 2893 1005 2618 390 1920 390 
z
" transform="scale(0.015625)"/>
       </defs>
       <use xlink:href="#IBMPlexSans-32"/>
       <use xlink:href="#IBMPlexSans-39" transform="translate(59.999985 0)"/>
       <use xlink:href="#IBMPlexSans-35" transform="translate(119.999969 0)"/>
       <use xlink:href="#IBMPlexSans-2e" transform="translate(179.999954 0)"/>
       <use xlink:href="#IBMPlexSans-30" transform="translate(207.199951 0)"/>
      </g>
     </g>
    </g>
    <g id="xtick_3">
     <g id="line2d_3">
      <g>
       <use xlink:href="#m01b400a4e2" x="229.944036" y="274.94952" style="stroke: #000000; stroke-width: 0.8"/>
      </g>
     </g>
     <g id="text_3">
      <!-- 297.5 -->
      <g transform="translate(216.58388 289.34952) scale(0.1 -0.1)">
       <defs>
        <path id="IBMPlexSans-37" d="M 1696 0 
L 3373 3994 
L 3373 4467 
L 442 4467 
L 442 3174 
L 922 3174 
L 922 4006 
L 2829 4006 
L 1120 0 
L 1696 0 
z
" transform="scale(0.015625)"/>
       </defs>
       <use xlink:href="#IBMPlexSans-32"/>
       <use xlink:href="#IBMPlexSans-39" transform="translate(59.999985 0)"/>
       <use xlink:href="#IBMPlexSans-37" transform="translate(119.999969 0)"/>
       <use xlink:href="#IBMPlexSans-2e" transform="translate(179.999954 0)"/>
       <use xlink:href="#IBMPlexSans-35" transform="translate(207.199951 0)"/>
      </g>
     </g>
    </g>
    <g id="xtick_4">
     <g id="line2d_4">
      <g>
       <use xlink:href="#m01b400a4e2" x="292.758647" y="274.94952" style="stroke: #000000; stroke-width: 0.8"/>
      </g>
     </g>
     <g id="text_4">
      <!-- 300.0 -->
      <g transform="translate(279.398491 289.34952) scale(0.1 -0.1)">
       <defs>
        <path id="IBMPlexSans-33" d="M 1184 2573 
L 1184 2106 
L 1709 2106 
C 2336 2106 2669 1805 2669 1280 
L 2669 1229 
C 2669 704 2336 403 1709 403 
C 1165 403 902 640 672 992 
L 269 685 
C 544 301 941 -77 1715 -77 
C 2624 -77 3232 454 3232 1222 
C 3232 1894 2771 2253 2291 2349 
L 2291 2374 
C 2765 2496 3149 2842 3149 3418 
C 3149 4141 2547 4544 1792 4544 
C 1075 4544 685 4173 461 3814 
L 858 3507 
C 1043 3846 1318 4064 1779 4064 
C 2253 4064 2579 3827 2579 3360 
L 2579 3315 
C 2579 2886 2272 2573 1670 2573 
L 1184 2573 
z
" transform="scale(0.015625)"/>
       </defs>
       <use xlink:href="#IBMPlexSans-33"/>
       <use xlink:href="#IBMPlexSans-30" transform="translate(59.999985 0)"/>
       <use xlink:href="#IBMPlexSans-30" transform="translate(119.999969 0)"/>
       <use xlink:href="#IBMPlexSans-2e" transform="translate(179.999954 0)"/>
       <use xlink:href="#IBMPlexSans-30" transform="translate(207.199951 0)"/>
      </g>
     </g>
    </g>
    <g id="xtick_5">
     <g id="line2d_5">
      <g>
       <use xlink:href="#m01b400a4e2" x="355.573258" y="274.94952" style="stroke: #000000; stroke-width: 0.8"/>
      </g>
     </g>
     <g id="text_5">
      <!-- 302.5 -->
      <g transform="translate(342.213102 289.34952) scale(0.1 -0.1)">
       <use xlink:href="#IBMPlexSans-33"/>
       <use xlink:href="#IBMPlexSans-30" transform="translate(59.999985 0)"/>
       <use xlink:href="#IBMPlexSans-32" transform="translate(119.999969 0)"/>
       <use xlink:href="#IBMPlexSans-2e" transform="translate(179.999954 0)"/>
       <use xlink:href="#IBMPlexSans-35" transform="translate(207.199951 0)"/>
      </g>
     </g>
    </g>
    <g id="xtick_6">
     <g id="line2d_6">
      <g>
       <use xlink:href="#m01b400a4e2" x="418.387869" y="274.94952" style="stroke: #000000; stroke-width: 0.8"/>
      </g>
     </g>
     <g id="text_6">
      <!-- 305.0 -->
      <g transform="translate(405.027713 289.34952) scale(0.1 -0.1)">
       <use xlink:href="#IBMPlexSans-33"/>
       <use xlink:href="#IBMPlexSans-30" transform="translate(59.999985 0)"/>
       <use xlink:href="#IBMPlexSans-35" transform="translate(119.999969 0)"/>
       <use xlink:href="#IBMPlexSans-2e" transform="translate(179.999954 0)"/>
       <use xlink:href="#IBMPlexSans-30" transform="translate(207.199951 0)"/>
      </g>
     </g>
    </g>
    <g id="xtick_7">
     <g id="line2d_7">
      <g>
       <use xlink:href="#m01b400a4e2" x="481.20248" y="274.94952" style="stroke: #000000; stroke-width: 0.8"/>
      </g>
     </g>
     <g id="text_7">
      <!-- 307.5 -->
      <g transform="translate(467.842324 289.34952) scale(0.1 -0.1)">
       <use xlink:href="#IBMPlexSans-33"/>
       <use xlink:href="#IBMPlexSans-30" transform="translate(59.999985 0)"/>
       <use xlink:href="#IBMPlexSans-37" transform="translate(119.999969 0)"/>
       <use xlink:href="#IBMPlexSans-2e" transform="translate(179.999954 0)"/>
       <use xlink:href="#IBMPlexSans-35" transform="translate(207.199951 0)"/>
      </g>
     </g>
    </g>
    <g id="text_8">
     <!-- Temperature [K] -->
     <g transform="translate(254.94351 302.94952) scale(0.1 -0.1)">
      <defs>
       <path id="IBMPlexSans-54" d="M 3520 3994 
L 3520 4467 
L 141 4467 
L 141 3994 
L 1562 3994 
L 1562 0 
L 2099 0 
L 2099 3994 
L 3520 3994 
z
" transform="scale(0.015625)"/>
       <path id="IBMPlexSans-65" d="M 1786 -77 
C 2406 -77 2880 230 3091 678 
L 2726 941 
C 2554 576 2234 371 1818 371 
C 1203 371 838 800 838 1370 
L 838 1523 
L 3213 1523 
L 3213 1766 
C 3213 2701 2669 3379 1786 3379 
C 890 3379 301 2701 301 1651 
C 301 602 890 -77 1786 -77 
z
M 1786 2950 
C 2310 2950 2662 2560 2662 1978 
L 2662 1907 
L 838 1907 
L 838 1952 
C 838 2528 1229 2950 1786 2950 
z
" transform="scale(0.015625)"/>
       <path id="IBMPlexSans-6d" d="M 1056 0 
L 1056 2291 
C 1056 2714 1440 2918 1843 2918 
C 2330 2918 2554 2618 2554 2029 
L 2554 0 
L 3066 0 
L 3066 2291 
C 3066 2714 3437 2918 3840 2918 
C 4339 2918 4563 2611 4563 2029 
L 4563 0 
L 5075 0 
L 5075 2118 
C 5075 2918 4672 3379 4000 3379 
C 3437 3379 3117 3066 2995 2707 
L 2982 2707 
C 2803 3181 2406 3379 1971 3379 
C 1459 3379 1229 3104 1082 2765 
L 1056 2765 
L 1056 3302 
L 544 3302 
L 544 0 
L 1056 0 
z
" transform="scale(0.015625)"/>
       <path id="IBMPlexSans-70" d="M 544 -1280 
L 1056 -1280 
L 1056 538 
L 1082 538 
C 1280 128 1594 -77 2048 -77 
C 2874 -77 3392 595 3392 1651 
C 3392 2707 2874 3379 2048 3379 
C 1594 3379 1254 3181 1082 2765 
L 1056 2765 
L 1056 3302 
L 544 3302 
L 544 -1280 
z
M 1907 384 
C 1440 384 1056 627 1056 1056 
L 1056 2285 
C 1056 2650 1440 2918 1907 2918 
C 2483 2918 2842 2522 2842 1933 
L 2842 1370 
C 2842 781 2483 384 1907 384 
z
" transform="scale(0.015625)"/>
       <path id="IBMPlexSans-72" d="M 1056 0 
L 1056 2240 
C 1056 2554 1389 2790 1939 2790 
L 2240 2790 
L 2240 3302 
L 2042 3302 
C 1504 3302 1203 3008 1088 2694 
L 1056 2694 
L 1056 3302 
L 544 3302 
L 544 0 
L 1056 0 
z
" transform="scale(0.015625)"/>
       <path id="IBMPlexSans-61" d="M 3232 0 
L 3232 448 
L 2854 448 
L 2854 2266 
C 2854 2963 2381 3379 1587 3379 
C 992 3379 595 3085 416 2733 
L 723 2445 
C 902 2746 1165 2938 1562 2938 
C 2086 2938 2342 2682 2342 2214 
L 2342 1888 
L 1690 1888 
C 730 1888 282 1542 282 922 
C 282 307 691 -77 1389 -77 
C 1850 -77 2202 134 2342 538 
L 2374 538 
C 2413 230 2566 0 2944 0 
L 3232 0 
z
M 1472 358 
C 1075 358 819 544 819 870 
L 819 1005 
C 819 1325 1082 1504 1664 1504 
L 2342 1504 
L 2342 960 
C 2342 621 1978 358 1472 358 
z
" transform="scale(0.015625)"/>
       <path id="IBMPlexSans-74" d="M 1914 0 
L 1914 448 
L 1242 448 
L 1242 2854 
L 1965 2854 
L 1965 3302 
L 1242 3302 
L 1242 4218 
L 781 4218 
L 781 3603 
C 781 3379 710 3302 493 3302 
L 186 3302 
L 186 2854 
L 730 2854 
L 730 544 
C 730 224 922 0 1274 0 
L 1914 0 
z
" transform="scale(0.015625)"/>
       <path id="IBMPlexSans-75" d="M 2579 0 
L 3091 0 
L 3091 3302 
L 2579 3302 
L 2579 1018 
C 2579 582 2182 384 1779 384 
C 1286 384 1024 685 1024 1274 
L 1024 3302 
L 512 3302 
L 512 1184 
C 512 384 947 -77 1626 -77 
C 2176 -77 2426 224 2554 538 
L 2579 538 
L 2579 0 
z
" transform="scale(0.015625)"/>
       <path id="IBMPlexSans-20" transform="scale(0.015625)"/>
       <path id="IBMPlexSans-5b" d="M 1645 -883 
L 1645 -480 
L 1037 -480 
L 1037 4461 
L 1645 4461 
L 1645 4864 
L 595 4864 
L 595 -883 
L 1645 -883 
z
" transform="scale(0.015625)"/>
       <path id="IBMPlexSans-4b" d="M 3251 0 
L 3917 0 
L 2138 2554 
L 3802 4467 
L 3142 4467 
L 1792 2867 
L 1152 2093 
L 1133 2093 
L 1133 4467 
L 595 4467 
L 595 0 
L 1133 0 
L 1133 1491 
L 1766 2195 
L 3251 0 
z
" transform="scale(0.015625)"/>
       <path id="IBMPlexSans-5d" d="M 384 4864 
L 384 4461 
L 992 4461 
L 992 -480 
L 384 -480 
L 384 -883 
L 1434 -883 
L 1434 4864 
L 384 4864 
z
" transform="scale(0.015625)"/>
      </defs>
      <use xlink:href="#IBMPlexSans-54"/>
      <use xlink:href="#IBMPlexSans-65" transform="translate(57.199997 0)"/>
      <use xlink:href="#IBMPlexSans-6d" transform="translate(112.099991 0)"/>
      <use xlink:href="#IBMPlexSans-70" transform="translate(199.399979 0)"/>
      <use xlink:href="#IBMPlexSans-65" transform="translate(257.399963 0)"/>
      <use xlink:href="#IBMPlexSans-72" transform="translate(312.299957 0)"/>
      <use xlink:href="#IBMPlexSans-61" transform="translate(348.999954 0)"/>
      <use xlink:href="#IBMPlexSans-74" transform="translate(402.399948 0)"/>
      <use xlink:href="#IBMPlexSans-75" transform="translate(437.499939 0)"/>
      <use xlink:href="#IBMPlexSans-72" transform="translate(494.299927 0)"/>
      <use xlink:href="#IBMPlexSans-65" transform="translate(530.999924 0)"/>
      <use xlink:href="#IBMPlexSans-20" transform="translate(585.899918 0)"/>
      <use xlink:href="#IBMPlexSans-5b" transform="translate(609.499908 0)"/>
      <use xlink:href="#IBMPlexSans-4b" transform="translate(641.199905 0)"/>
      <use xlink:href="#IBMPlexSans-5d" transform="translate(704.599899 0)"/>
     </g>
    </g>
   </g>
   <g id="matplotlib.axis_2">
    <g id="ytick_1">
     <g id="line2d_8">
      <defs>
       <path id="mb9a0fa4eba" d="M 0 0 
L -3.5 0 
" style="stroke: #000000; stroke-width: 0.8"/>
      </defs>
      <g>
       <use xlink:href="#mb9a0fa4eba" x="42.320312" y="264.342528" style="stroke: #000000; stroke-width: 0.8"/>
      </g>
     </g>
     <g id="text_9">
      <!-- 0.0 -->
      <g transform="translate(20.6 268.042528) scale(0.1 -0.1)">
       <use xlink:href="#IBMPlexSans-30"/>
       <use xlink:href="#IBMPlexSans-2e" transform="translate(59.999985 0)"/>
       <use xlink:href="#IBMPlexSans-30" transform="translate(87.199982 0)"/>
      </g>
     </g>
    </g>
    <g id="ytick_2">
     <g id="line2d_9">
      <g>
       <use xlink:href="#mb9a0fa4eba" x="42.320312" y="218.232749" style="stroke: #000000; stroke-width: 0.8"/>
      </g>
     </g>
     <g id="text_10">
      <!-- 0.2 -->
      <g transform="translate(20.6 221.932749) scale(0.1 -0.1)">
       <use xlink:href="#IBMPlexSans-30"/>
       <use xlink:href="#IBMPlexSans-2e" transform="translate(59.999985 0)"/>
       <use xlink:href="#IBMPlexSans-32" transform="translate(87.199982 0)"/>
      </g>
     </g>
    </g>
    <g id="ytick_3">
     <g id="line2d_10">
      <g>
       <use xlink:href="#mb9a0fa4eba" x="42.320312" y="172.122971" style="stroke: #000000; stroke-width: 0.8"/>
      </g>
     </g>
     <g id="text_11">
      <!-- 0.4 -->
      <g transform="translate(20.6 175.822971) scale(0.1 -0.1)">
       <defs>
        <path id="IBMPlexSans-34" d="M 2912 0 
L 2912 877 
L 3558 877 
L 3558 1325 
L 2912 1325 
L 2912 4467 
L 2112 4467 
L 243 1350 
L 243 877 
L 2400 877 
L 2400 0 
L 2912 0 
z
M 2368 4051 
L 2400 4051 
L 2400 1325 
L 749 1325 
L 2368 4051 
z
" transform="scale(0.015625)"/>
       </defs>
       <use xlink:href="#IBMPlexSans-30"/>
       <use xlink:href="#IBMPlexSans-2e" transform="translate(59.999985 0)"/>
       <use xlink:href="#IBMPlexSans-34" transform="translate(87.199982 0)"/>
      </g>
     </g>
    </g>
    <g id="ytick_4">
     <g id="line2d_11">
      <g>
       <use xlink:href="#mb9a0fa4eba" x="42.320312" y="126.013192" style="stroke: #000000; stroke-width: 0.8"/>
      </g>
     </g>
     <g id="text_12">
      <!-- 0.6 -->
      <g transform="translate(20.6 129.713192) scale(0.1 -0.1)">
       <defs>
        <path id="IBMPlexSans-36" d="M 1926 -77 
C 2822 -77 3411 525 3411 1402 
C 3411 2246 2861 2778 2093 2778 
C 1549 2778 1229 2502 1018 2138 
L 986 2150 
C 1229 3187 1760 3770 2714 4467 
L 2022 4467 
C 1306 4000 429 2963 429 1638 
C 429 576 998 -77 1926 -77 
z
M 1920 390 
C 1331 390 986 730 986 1331 
L 986 1382 
C 986 1984 1331 2323 1920 2323 
C 2509 2323 2854 1984 2854 1382 
L 2854 1331 
C 2854 730 2509 390 1920 390 
z
" transform="scale(0.015625)"/>
       </defs>
       <use xlink:href="#IBMPlexSans-30"/>
       <use xlink:href="#IBMPlexSans-2e" transform="translate(59.999985 0)"/>
       <use xlink:href="#IBMPlexSans-36" transform="translate(87.199982 0)"/>
      </g>
     </g>
    </g>
    <g id="ytick_5">
     <g id="line2d_12">
      <g>
       <use xlink:href="#mb9a0fa4eba" x="42.320312" y="79.903413" style="stroke: #000000; stroke-width: 0.8"/>
      </g>
     </g>
     <g id="text_13">
      <!-- 0.8 -->
      <g transform="translate(20.6 83.603413) scale(0.1 -0.1)">
       <defs>
        <path id="IBMPlexSans-38" d="M 1920 -77 
C 2938 -77 3469 480 3469 1216 
C 3469 1824 3104 2176 2566 2323 
L 2566 2374 
C 3034 2534 3334 2912 3334 3424 
C 3334 4102 2810 4544 1920 4544 
C 1030 4544 506 4102 506 3424 
C 506 2912 806 2534 1274 2374 
L 1274 2323 
C 736 2176 371 1824 371 1216 
C 371 480 902 -77 1920 -77 
z
M 1920 390 
C 1299 390 941 685 941 1190 
L 941 1325 
C 941 1830 1299 2125 1920 2125 
C 2541 2125 2899 1830 2899 1325 
L 2899 1190 
C 2899 685 2541 390 1920 390 
z
M 1920 2573 
C 1363 2573 1062 2822 1062 3277 
L 1062 3373 
C 1062 3827 1363 4077 1920 4077 
C 2477 4077 2778 3827 2778 3373 
L 2778 3277 
C 2778 2822 2477 2573 1920 2573 
z
" transform="scale(0.015625)"/>
       </defs>
       <use xlink:href="#IBMPlexSans-30"/>
       <use xlink:href="#IBMPlexSans-2e" transform="translate(59.999985 0)"/>
       <use xlink:href="#IBMPlexSans-38" transform="translate(87.199982 0)"/>
      </g>
     </g>
    </g>
    <g id="ytick_6">
     <g id="line2d_13">
      <g>
       <use xlink:href="#mb9a0fa4eba" x="42.320312" y="33.793634" style="stroke: #000000; stroke-width: 0.8"/>
      </g>
     </g>
     <g id="text_14">
      <!-- 1.0 -->
      <g transform="translate(20.6 37.493634) scale(0.1 -0.1)">
       <defs>
        <path id="IBMPlexSans-31" d="M 3501 0 
L 3501 474 
L 2349 474 
L 2349 4467 
L 1510 4467 
L 326 3360 
L 640 3021 
L 1766 4070 
L 1811 4070 
L 1811 474 
L 563 474 
L 563 0 
L 3501 0 
z
" transform="scale(0.015625)"/>
       </defs>
       <use xlink:href="#IBMPlexSans-31"/>
       <use xlink:href="#IBMPlexSans-2e" transform="translate(59.999985 0)"/>
       <use xlink:href="#IBMPlexSans-30" transform="translate(87.199982 0)"/>
      </g>
     </g>
    </g>
    <g id="text_15">
     <!-- Cumulative Probability -->
     <g transform="translate(14.6 199.449604) rotate(-90) scale(0.1 -0.1)">
      <defs>
       <path id="IBMPlexSans-43" d="M 2170 -77 
C 2912 -77 3456 314 3738 941 
L 3309 1210 
C 3130 723 2739 403 2170 403 
C 1402 403 947 960 947 1875 
L 947 2541 
C 947 3456 1402 4064 2170 4064 
C 2720 4064 3091 3763 3270 3302 
L 3706 3565 
C 3424 4186 2912 4544 2170 4544 
C 1043 4544 371 3699 371 2208 
C 371 717 1043 -77 2170 -77 
z
" transform="scale(0.015625)"/>
       <path id="IBMPlexSans-6c" d="M 1542 0 
L 1542 448 
L 1056 448 
L 1056 4736 
L 544 4736 
L 544 531 
C 544 224 736 0 1088 0 
L 1542 0 
z
" transform="scale(0.015625)"/>
       <path id="IBMPlexSans-69" d="M 800 4077 
C 1018 4077 1114 4192 1114 4365 
L 1114 4448 
C 1114 4621 1018 4736 800 4736 
C 582 4736 486 4621 486 4448 
L 486 4365 
C 486 4192 582 4077 800 4077 
z
M 544 0 
L 1056 0 
L 1056 3302 
L 544 3302 
L 544 0 
z
" transform="scale(0.015625)"/>
       <path id="IBMPlexSans-76" d="M 1869 0 
L 3034 3302 
L 2541 3302 
L 1952 1664 
L 1594 538 
L 1562 538 
L 1203 1664 
L 627 3302 
L 115 3302 
L 1274 0 
L 1869 0 
z
" transform="scale(0.015625)"/>
       <path id="IBMPlexSans-50" d="M 1133 0 
L 1133 1907 
L 2374 1907 
C 3174 1907 3622 2400 3622 3187 
C 3622 3974 3174 4467 2374 4467 
L 595 4467 
L 595 0 
L 1133 0 
z
M 1133 3994 
L 2374 3994 
C 2797 3994 3046 3763 3046 3354 
L 3046 3021 
C 3046 2611 2797 2381 2374 2381 
L 1133 2381 
L 1133 3994 
z
" transform="scale(0.015625)"/>
       <path id="IBMPlexSans-6f" d="M 1792 -77 
C 2675 -77 3283 602 3283 1651 
C 3283 2701 2675 3379 1792 3379 
C 909 3379 301 2701 301 1651 
C 301 602 909 -77 1792 -77 
z
M 1792 378 
C 1242 378 851 717 851 1414 
L 851 1888 
C 851 2586 1242 2925 1792 2925 
C 2342 2925 2733 2586 2733 1888 
L 2733 1414 
C 2733 717 2342 378 1792 378 
z
" transform="scale(0.015625)"/>
       <path id="IBMPlexSans-62" d="M 544 0 
L 1056 0 
L 1056 538 
L 1082 538 
C 1280 128 1594 -77 2048 -77 
C 2874 -77 3392 595 3392 1651 
C 3392 2707 2874 3379 2048 3379 
C 1594 3379 1254 3181 1082 2765 
L 1056 2765 
L 1056 4736 
L 544 4736 
L 544 0 
z
M 1907 384 
C 1440 384 1056 627 1056 1056 
L 1056 2285 
C 1056 2650 1440 2918 1907 2918 
C 2483 2918 2842 2522 2842 1933 
L 2842 1370 
C 2842 781 2483 384 1907 384 
z
" transform="scale(0.015625)"/>
       <path id="IBMPlexSans-79" d="M 1779 1056 
L 1600 518 
L 1568 518 
L 1414 1056 
L 621 3302 
L 109 3302 
L 1344 -128 
L 1094 -832 
L 576 -832 
L 576 -1280 
L 838 -1280 
C 1325 -1280 1459 -1165 1606 -768 
L 3085 3302 
L 2579 3302 
L 1779 1056 
z
" transform="scale(0.015625)"/>
      </defs>
      <use xlink:href="#IBMPlexSans-43"/>
      <use xlink:href="#IBMPlexSans-75" transform="translate(62.099991 0)"/>
      <use xlink:href="#IBMPlexSans-6d" transform="translate(118.899979 0)"/>
      <use xlink:href="#IBMPlexSans-75" transform="translate(206.199966 0)"/>
      <use xlink:href="#IBMPlexSans-6c" transform="translate(262.999954 0)"/>
      <use xlink:href="#IBMPlexSans-61" transform="translate(290.199951 0)"/>
      <use xlink:href="#IBMPlexSans-74" transform="translate(343.599945 0)"/>
      <use xlink:href="#IBMPlexSans-69" transform="translate(378.699936 0)"/>
      <use xlink:href="#IBMPlexSans-76" transform="translate(403.699921 0)"/>
      <use xlink:href="#IBMPlexSans-65" transform="translate(452.899918 0)"/>
      <use xlink:href="#IBMPlexSans-20" transform="translate(507.799911 0)"/>
      <use xlink:href="#IBMPlexSans-50" transform="translate(531.399902 0)"/>
      <use xlink:href="#IBMPlexSans-72" transform="translate(591.999893 0)"/>
      <use xlink:href="#IBMPlexSans-6f" transform="translate(628.69989 0)"/>
      <use xlink:href="#IBMPlexSans-62" transform="translate(684.699875 0)"/>
      <use xlink:href="#IBMPlexSans-61" transform="translate(742.69986 0)"/>
      <use xlink:href="#IBMPlexSans-62" transform="translate(796.099854 0)"/>
      <use xlink:href="#IBMPlexSans-69" transform="translate(854.099838 0)"/>
      <use xlink:href="#IBMPlexSans-6c" transform="translate(879.099823 0)"/>
      <use xlink:href="#IBMPlexSans-69" transform="translate(906.29982 0)"/>
      <use xlink:href="#IBMPlexSans-74" transform="translate(931.299805 0)"/>
      <use xlink:href="#IBMPlexSans-79" transform="translate(966.399796 0)"/>
     </g>
    </g>
   </g>
   <g id="line2d_14">
    <path d="M 169.190529 263.189784 
L 189.668921 260.884295 
L 205.042858 258.578806 
L 212.377875 256.273317 
L 220.945874 253.967828 
L 225.942212 251.662339 
L 230.519121 249.35685 
L 234.918137 247.051361 
L 237.684679 244.745872 
L 240.721895 242.440383 
L 245.81408 240.134894 
L 248.546117 237.829405 
L 250.429328 235.523916 
L 253.491847 233.218428 
L 256.128804 230.912939 
L 258.801032 228.60745 
L 261.913391 226.301961 
L 264.171558 223.996472 
L 265.798665 221.690983 
L 268.079069 219.385494 
L 270.249823 217.080005 
L 272.797065 214.774516 
L 274.159633 212.469027 
L 276.134092 210.163538 
L 277.869315 207.858049 
L 279.395973 205.55256 
L 280.614387 203.247071 
L 282.674724 200.941582 
L 284.089433 198.636093 
L 285.608424 196.330604 
L 287.208694 194.025116 
L 288.683212 191.719627 
L 289.950699 189.414138 
L 292.109185 187.108649 
L 293.414244 184.80316 
L 294.796748 182.497671 
L 295.765191 180.192182 
L 296.860153 177.886693 
L 298.017991 175.581204 
L 299.03244 173.275715 
L 300.565233 170.970226 
L 302.048186 168.664737 
L 304.022644 166.359248 
L 305.879785 164.053759 
L 307.628043 161.74827 
L 309.295023 159.442781 
L 311.113825 157.137292 
L 312.592943 154.831803 
L 314.568935 152.526315 
L 316.11323 150.220826 
L 317.552476 147.915337 
L 318.568459 145.609848 
L 320.058313 143.304359 
L 321.834175 140.99887 
L 322.932204 138.693381 
L 324.519438 136.387892 
L 326.168782 134.082403 
L 327.10272 131.776914 
L 328.36944 129.471425 
L 330.245751 127.165936 
L 331.670428 124.860447 
L 332.940215 122.554958 
L 334.162462 120.249469 
L 335.769633 117.94398 
L 337.32543 115.638491 
L 338.893495 113.333003 
L 341.042779 111.027514 
L 342.478191 108.722025 
L 343.630661 106.416536 
L 344.644344 104.111047 
L 346.540591 101.805558 
L 347.455359 99.500069 
L 348.99812 97.19458 
L 350.050142 94.889091 
L 351.536929 92.583602 
L 354.018995 90.278113 
L 356.560104 87.972624 
L 358.074494 85.667135 
L 360.975989 83.361646 
L 363.307767 81.056157 
L 364.79532 78.750668 
L 367.307291 76.445179 
L 368.480464 74.139691 
L 370.932627 71.834202 
L 373.683066 69.528713 
L 376.321556 67.223224 
L 379.048992 64.917735 
L 382.447361 62.612246 
L 385.958446 60.306757 
L 388.978792 58.001268 
L 391.320538 55.695779 
L 396.000963 53.39029 
L 399.174665 51.084801 
L 403.990043 48.779312 
L 408.59609 46.473823 
L 414.791671 44.168334 
L 418.884743 41.862845 
L 429.017739 39.557356 
L 439.260385 37.251867 
L 460.90965 34.946378 
" clip-path="url(#p96a057c97d)" style="fill: none; stroke: #1f77b4; stroke-opacity: 0.2; stroke-width: 1.5; stroke-linecap: square"/>
   </g>
   <g id="line2d_15">
    <path d="M 146.220103 263.189784 
L 169.784017 260.884295 
L 180.734401 258.578806 
L 190.890401 256.273317 
L 196.699526 253.967828 
L 200.397705 251.662339 
L 205.572703 249.35685 
L 209.160466 247.051361 
L 214.06019 244.745872 
L 216.664175 242.440383 
L 219.060362 240.134894 
L 222.670362 237.829405 
L 224.82808 235.523916 
L 226.493526 233.218428 
L 229.207927 230.912939 
L 231.659323 228.60745 
L 233.233522 226.301961 
L 235.890414 223.996472 
L 237.509087 221.690983 
L 240.25876 219.385494 
L 242.276158 217.080005 
L 244.084991 214.774516 
L 246.077852 212.469027 
L 247.084634 210.163538 
L 248.849762 207.858049 
L 250.82422 205.55256 
L 252.579379 203.247071 
L 254.513198 200.941582 
L 255.753081 198.636093 
L 257.160889 196.330604 
L 258.97279 194.025116 
L 260.601431 191.719627 
L 262.319785 189.414138 
L 265.004281 187.108649 
L 266.771709 184.80316 
L 268.294534 182.497671 
L 269.471541 180.192182 
L 270.825674 177.886693 
L 272.360768 175.581204 
L 273.742505 173.275715 
L 275.184818 170.970226 
L 276.584191 168.664737 
L 278.126953 166.359248 
L 279.595336 164.053759 
L 281.421039 161.74827 
L 282.512934 159.442781 
L 284.210585 157.137292 
L 286.212647 154.831803 
L 287.875026 152.526315 
L 289.018295 150.220826 
L 290.484378 147.915337 
L 291.541767 145.609848 
L 292.642097 143.304359 
L 293.99623 140.99887 
L 295.373367 138.693381 
L 296.728267 136.387892 
L 298.257226 134.082403 
L 299.198832 131.776914 
L 301.020701 129.471425 
L 302.486784 127.165936 
L 303.695229 124.860447 
L 305.277096 122.554958 
L 306.95021 120.249469 
L 308.521342 117.94398 
L 310.15535 115.638491 
L 311.887506 113.333003 
L 313.878833 111.027514 
L 315.766645 108.722025 
L 317.267234 106.416536 
L 318.517085 104.111047 
L 320.74228 101.805558 
L 322.753544 99.500069 
L 324.241864 97.19458 
L 326.304502 94.889091 
L 327.329687 92.583602 
L 329.689068 90.278113 
L 331.921165 87.972624 
L 333.787507 85.667135 
L 335.90842 83.361646 
L 338.097577 81.056157 
L 340.086604 78.750668 
L 342.264259 76.445179 
L 345.115914 74.139691 
L 347.152481 71.834202 
L 349.561704 69.528713 
L 351.241718 67.223224 
L 353.681612 64.917735 
L 357.536981 62.612246 
L 359.910932 60.306757 
L 363.951862 58.001268 
L 366.897064 55.695779 
L 370.053897 53.39029 
L 373.505173 51.084801 
L 376.568459 48.779312 
L 384.008525 46.473823 
L 390.54609 44.168334 
L 396.290805 41.862845 
L 403.310676 39.557356 
L 416.764596 37.251867 
L 441.460277 34.946378 
" clip-path="url(#p96a057c97d)" style="fill: none; stroke: #1f77b4; stroke-opacity: 0.2; stroke-width: 1.5; stroke-linecap: square"/>
   </g>
   <g id="line2d_16">
    <path d="M 97.865428 263.189784 
L 117.472757 260.884295 
L 122.246729 258.578806 
L 132.825992 256.273317 
L 139.503111 253.967828 
L 144.622901 251.662339 
L 148.536546 249.35685 
L 153.977616 247.051361 
L 158.411137 244.745872 
L 161.180746 242.440383 
L 165.272284 240.134894 
L 167.984385 237.829405 
L 170.25252 235.523916 
L 173.047432 233.218428 
L 175.721961 230.912939 
L 177.922619 228.60745 
L 180.840217 226.301961 
L 183.36369 223.996472 
L 185.741474 221.690983 
L 187.625452 219.385494 
L 190.842861 217.080005 
L 193.133999 214.774516 
L 194.378483 212.469027 
L 195.908209 210.163538 
L 198.574303 207.858049 
L 201.297138 205.55256 
L 202.816896 203.247071 
L 204.812057 200.941582 
L 206.557249 198.636093 
L 208.466531 196.330604 
L 209.955617 194.025116 
L 211.134158 191.719627 
L 212.723693 189.414138 
L 215.00563 187.108649 
L 216.971653 184.80316 
L 218.440037 182.497671 
L 219.86088 180.192182 
L 221.366836 177.886693 
L 222.678796 175.581204 
L 224.216957 173.275715 
L 225.548087 170.970226 
L 226.682921 168.664737 
L 227.907469 166.359248 
L 229.081409 164.053759 
L 230.068254 161.74827 
L 230.812798 159.442781 
L 232.807959 157.137292 
L 233.963496 154.831803 
L 235.040055 152.526315 
L 236.207094 150.220826 
L 237.746022 147.915337 
L 239.091721 145.609848 
L 240.598443 143.304359 
L 241.533148 140.99887 
L 243.209329 138.693381 
L 244.992859 136.387892 
L 246.196703 134.082403 
L 247.931926 131.776914 
L 249.635711 129.471425 
L 251.130165 127.165936 
L 252.237395 124.860447 
L 253.232676 122.554958 
L 254.673455 120.249469 
L 256.400244 117.94398 
L 257.607155 115.638491 
L 259.478865 113.333003 
L 261.614347 111.027514 
L 263.174744 108.722025 
L 264.890798 106.416536 
L 266.369149 104.111047 
L 267.570694 101.805558 
L 269.496078 99.500069 
L 270.824141 97.19458 
L 271.933671 94.889091 
L 273.602951 92.583602 
L 275.325139 90.278113 
L 277.012055 87.972624 
L 279.207346 85.667135 
L 281.312156 83.361646 
L 282.943864 81.056157 
L 285.364588 78.750668 
L 287.997711 76.445179 
L 290.091787 74.139691 
L 292.328484 71.834202 
L 294.412591 69.528713 
L 296.917661 67.223224 
L 299.888167 64.917735 
L 303.203723 62.612246 
L 306.112886 60.306757 
L 308.173224 58.001268 
L 309.90768 55.695779 
L 313.520747 53.39029 
L 317.339311 51.084801 
L 320.570522 48.779312 
L 327.17173 46.473823 
L 333.40105 44.168334 
L 340.26373 41.862845 
L 347.708396 39.557356 
L 358.289959 37.251867 
L 376.546222 34.946378 
" clip-path="url(#p96a057c97d)" style="fill: none; stroke: #1f77b4; stroke-opacity: 0.2; stroke-width: 1.5; stroke-linecap: square"/>
   </g>
   <g id="line2d_17">
    <path d="M 143.077839 263.189784 
L 168.049561 260.884295 
L 178.907931 258.578806 
L 188.113124 256.273317 
L 195.299386 253.967828 
L 200.611637 251.662339 
L 204.682472 249.35685 
L 210.5146 247.051361 
L 213.65073 244.745872 
L 217.87492 242.440383 
L 220.064077 240.134894 
L 223.65414 237.829405 
L 225.846364 235.523916 
L 227.963444 233.218428 
L 229.664928 230.912939 
L 232.867768 228.60745 
L 235.303061 226.301961 
L 236.913299 223.996472 
L 240.108471 221.690983 
L 242.493923 219.385494 
L 244.45688 217.080005 
L 245.890758 214.774516 
L 248.051544 212.469027 
L 249.914052 210.163538 
L 252.302572 207.858049 
L 253.728016 205.55256 
L 255.780685 203.247071 
L 257.755144 200.941582 
L 259.437459 198.636093 
L 261.638117 196.330604 
L 263.415513 194.025116 
L 265.108563 191.719627 
L 266.629088 189.414138 
L 268.325205 187.108649 
L 270.043559 184.80316 
L 271.978911 182.497671 
L 273.228763 180.192182 
L 274.845135 177.886693 
L 276.233773 175.581204 
L 278.485039 173.275715 
L 279.783197 170.970226 
L 280.700266 168.664737 
L 281.877273 166.359248 
L 283.343356 164.053759 
L 284.153076 161.74827 
L 285.366122 159.442781 
L 286.876678 157.137292 
L 288.098159 154.831803 
L 289.375614 152.526315 
L 291.040293 150.220826 
L 292.794686 147.915337 
L 293.840574 145.609848 
L 294.731572 143.304359 
L 295.942317 140.99887 
L 297.216706 138.693381 
L 298.469624 136.387892 
L 299.852895 134.082403 
L 302.176238 131.776914 
L 304.041047 129.471425 
L 305.670454 127.165936 
L 307.976161 124.860447 
L 309.632406 122.554958 
L 310.670626 120.249469 
L 312.701059 117.94398 
L 314.779033 115.638491 
L 315.985178 113.333003 
L 318.207306 111.027514 
L 319.532302 108.722025 
L 321.633279 106.416536 
L 323.64991 104.111047 
L 325.109859 101.805558 
L 327.181698 99.500069 
L 328.410079 97.19458 
L 330.065557 94.889091 
L 331.39132 92.583602 
L 333.219323 90.278113 
L 334.885536 87.972624 
L 336.998015 85.667135 
L 338.340646 83.361646 
L 340.496065 81.056157 
L 341.977483 78.750668 
L 343.805487 76.445179 
L 346.607301 74.139691 
L 348.919909 71.834202 
L 350.927339 69.528713 
L 354.177719 67.223224 
L 356.389112 64.917735 
L 358.97316 62.612246 
L 361.396185 60.306757 
L 365.117368 58.001268 
L 368.99344 55.695779 
L 372.700054 53.39029 
L 375.551709 51.084801 
L 378.976915 48.779312 
L 383.083788 46.473823 
L 389.071572 44.168334 
L 395.924285 41.862845 
L 403.674129 39.557356 
L 410.644925 37.251867 
L 430.584271 34.946378 
" clip-path="url(#p96a057c97d)" style="fill: none; stroke: #1f77b4; stroke-opacity: 0.2; stroke-width: 1.5; stroke-linecap: square"/>
   </g>
   <g id="line2d_18">
    <path d="M 171.014699 263.189784 
L 194.215159 260.884295 
L 207.347799 258.578806 
L 214.440513 256.273317 
L 220.101649 253.967828 
L 226.166878 251.662339 
L 230.039884 249.35685 
L 233.163745 247.051361 
L 236.249267 244.745872 
L 239.810193 242.440383 
L 243.420193 240.134894 
L 247.004123 237.829405 
L 248.923373 235.523916 
L 251.568763 233.218428 
L 254.488661 230.912939 
L 257.811119 228.60745 
L 260.133695 226.301961 
L 261.739332 223.996472 
L 263.617176 221.690983 
L 265.545628 219.385494 
L 267.448776 217.080005 
L 269.491477 214.774516 
L 271.467469 212.469027 
L 273.363716 210.163538 
L 275.186352 207.858049 
L 277.482091 205.55256 
L 279.497955 203.247071 
L 281.310623 200.941582 
L 283.091853 198.636093 
L 284.425283 196.330604 
L 286.451115 194.025116 
L 287.860457 191.719627 
L 289.805011 189.414138 
L 291.767967 187.108649 
L 293.171941 184.80316 
L 294.365051 182.497671 
L 295.812732 180.192182 
L 297.24431 177.886693 
L 298.388345 175.581204 
L 299.592957 173.275715 
L 301.2423 170.970226 
L 302.266718 168.664737 
L 303.985839 166.359248 
L 305.711093 164.053759 
L 307.369638 161.74827 
L 308.64326 159.442781 
L 310.163784 157.137292 
L 311.325456 154.831803 
L 313.201 152.526315 
L 314.746061 150.220826 
L 316.797964 147.915337 
L 317.69203 145.609848 
L 318.739451 143.304359 
L 320.02074 140.99887 
L 321.003752 138.693381 
L 323.356233 136.387892 
L 325.092223 134.082403 
L 327.143359 131.776914 
L 328.382475 129.471425 
L 330.146069 127.165936 
L 331.571513 124.860447 
L 333.566674 122.554958 
L 335.282728 120.249469 
L 337.324663 117.94398 
L 338.75164 115.638491 
L 340.033696 113.333003 
L 341.604062 111.027514 
L 343.534047 108.722025 
L 345.118981 106.416536 
L 346.46928 104.111047 
L 348.377795 101.805558 
L 349.529499 99.500069 
L 351.459484 97.19458 
L 352.94627 94.889091 
L 355.04418 92.583602 
L 357.203432 90.278113 
L 358.74236 87.972624 
L 361.298037 85.667135 
L 363.471858 83.361646 
L 365.625743 81.056157 
L 367.489018 78.750668 
L 369.878304 76.445179 
L 372.498391 74.139691 
L 375.883725 71.834202 
L 377.096004 69.528713 
L 379.459986 67.223224 
L 382.231896 64.917735 
L 385.053646 62.612246 
L 388.287157 60.306757 
L 391.668656 58.001268 
L 394.656031 55.695779 
L 399.119457 53.39029 
L 404.157201 51.084801 
L 407.321701 48.779312 
L 410.814384 46.473823 
L 417.013033 44.168334 
L 421.305467 41.862845 
L 430.698521 39.557356 
L 442.964699 37.251867 
L 460.341466 34.946378 
" clip-path="url(#p96a057c97d)" style="fill: none; stroke: #1f77b4; stroke-opacity: 0.2; stroke-width: 1.5; stroke-linecap: square"/>
   </g>
   <g id="line2d_19">
    <path d="M 151.970186 263.189784 
L 169.131487 260.884295 
L 175.957362 258.578806 
L 182.649817 256.273317 
L 190.051544 253.967828 
L 195.516384 251.662339 
L 199.414694 249.35685 
L 204.91634 247.051361 
L 208.072406 244.745872 
L 210.756902 242.440383 
L 213.275007 240.134894 
L 216.510052 237.829405 
L 219.662284 235.523916 
L 223.100525 233.218428 
L 226.098635 230.912939 
L 228.216481 228.60745 
L 230.407171 226.301961 
L 233.171413 223.996472 
L 235.288492 221.690983 
L 237.288254 219.385494 
L 239.422203 217.080005 
L 241.348354 214.774516 
L 242.546064 212.469027 
L 244.491385 210.163538 
L 246.054849 207.858049 
L 248.290779 205.55256 
L 249.844275 203.247071 
L 251.340263 200.941582 
L 253.067051 198.636093 
L 254.464891 196.330604 
L 255.416465 194.025116 
L 256.91782 191.719627 
L 259.167552 189.414138 
L 260.873638 187.108649 
L 262.499978 184.80316 
L 264.215265 182.497671 
L 265.677514 180.192182 
L 267.154332 177.886693 
L 268.784506 175.581204 
L 269.93851 173.275715 
L 271.151556 170.970226 
L 272.625307 168.664737 
L 273.896628 166.359248 
L 275.828146 164.053759 
L 277.210651 161.74827 
L 278.881464 159.442781 
L 280.351381 157.137292 
L 282.052099 154.831803 
L 283.058881 152.526315 
L 284.720493 150.220826 
L 286.074627 147.915337 
L 287.416491 145.609848 
L 289.004493 143.304359 
L 289.855618 140.99887 
L 291.609244 138.693381 
L 293.055391 136.387892 
L 294.170289 134.082403 
L 295.332727 131.776914 
L 296.61555 129.471425 
L 297.981952 127.165936 
L 299.790019 124.860447 
L 300.662615 122.554958 
L 302.144033 120.249469 
L 303.636187 117.94398 
L 305.061631 115.638491 
L 306.552251 113.333003 
L 307.849643 111.027514 
L 309.435344 108.722025 
L 311.216573 106.416536 
L 312.442654 104.111047 
L 313.788353 101.805558 
L 316.301858 99.500069 
L 318.501749 97.19458 
L 320.059079 94.889091 
L 322.208363 92.583602 
L 323.931318 90.278113 
L 325.680343 87.972624 
L 326.88112 85.667135 
L 329.156156 83.361646 
L 331.554644 81.056157 
L 333.840415 78.750668 
L 336.388425 76.445179 
L 338.503204 74.139691 
L 341.062715 71.834202 
L 343.162158 69.528713 
L 345.667995 67.223224 
L 347.778173 64.917735 
L 350.77935 62.612246 
L 354.093373 60.306757 
L 356.238056 58.001268 
L 358.326765 55.695779 
L 362.517984 53.39029 
L 366.484536 51.084801 
L 371.368924 48.779312 
L 376.14673 46.473823 
L 381.710485 44.168334 
L 388.830037 41.862845 
L 396.355982 39.557356 
L 405.834915 37.251867 
L 432.207544 34.946378 
" clip-path="url(#p96a057c97d)" style="fill: none; stroke: #1f77b4; stroke-opacity: 0.2; stroke-width: 1.5; stroke-linecap: square"/>
   </g>
   <g id="line2d_20">
    <path d="M 141.02747 263.189784 
L 163.45885 260.884295 
L 174.048847 258.578806 
L 181.511149 256.273317 
L 191.395709 253.967828 
L 197.04381 251.662339 
L 202.943415 249.35685 
L 206.601722 247.051361 
L 210.927894 244.745872 
L 214.832337 242.440383 
L 218.27748 240.134894 
L 221.693484 237.829405 
L 224.819646 235.523916 
L 226.015056 233.218428 
L 227.910536 230.912939 
L 231.25753 228.60745 
L 234.033273 226.301961 
L 236.223197 223.996472 
L 238.915361 221.690983 
L 240.605344 219.385494 
L 242.277691 217.080005 
L 244.07809 214.774516 
L 246.076319 212.469027 
L 247.869817 210.163538 
L 250.608755 207.858049 
L 252.885324 205.55256 
L 253.851467 203.247071 
L 255.239339 200.941582 
L 257.226066 198.636093 
L 259.217393 196.330604 
L 260.693444 194.025116 
L 262.344322 191.719627 
L 263.953026 189.414138 
L 265.935919 187.108649 
L 267.096057 184.80316 
L 268.532236 182.497671 
L 270.249056 180.192182 
L 271.620058 177.886693 
L 273.103011 175.581204 
L 274.868138 173.275715 
L 276.404765 170.970226 
L 277.817174 168.664737 
L 278.941273 166.359248 
L 280.774644 164.053759 
L 282.661689 161.74827 
L 284.209051 159.442781 
L 286.25942 157.137292 
L 287.277704 154.831803 
L 288.692413 152.526315 
L 290.45064 150.220826 
L 291.576272 147.915337 
L 293.00555 145.609848 
L 294.474701 143.304359 
L 295.897077 140.99887 
L 296.990505 138.693381 
L 298.033326 136.387892 
L 299.590656 134.082403 
L 301.232332 131.776914 
L 302.486017 129.471425 
L 304.508016 127.165936 
L 306.313016 124.860447 
L 307.574369 122.554958 
L 309.624738 120.249469 
L 310.724301 117.94398 
L 311.948081 115.638491 
L 313.799088 113.333003 
L 314.880248 111.027514 
L 316.33713 108.722025 
L 318.040915 106.416536 
L 319.461758 104.111047 
L 320.855764 101.805558 
L 322.512775 99.500069 
L 323.708185 97.19458 
L 325.507817 94.889091 
L 327.362658 92.583602 
L 328.79577 90.278113 
L 330.366135 87.972624 
L 331.789279 85.667135 
L 334.012174 83.361646 
L 336.030338 81.056157 
L 338.45413 78.750668 
L 340.299002 76.445179 
L 342.018889 74.139691 
L 344.1214 71.834202 
L 346.925514 69.528713 
L 349.061763 67.223224 
L 351.848241 64.917735 
L 355.377729 62.612246 
L 358.237818 60.306757 
L 361.882323 58.001268 
L 365.034556 55.695779 
L 368.100142 53.39029 
L 373.107215 51.084801 
L 376.554657 48.779312 
L 381.317127 46.473823 
L 386.308098 44.168334 
L 391.702394 41.862845 
L 401.909002 39.557356 
L 412.742069 37.251867 
L 436.18023 34.946378 
" clip-path="url(#p96a057c97d)" style="fill: none; stroke: #1f77b4; stroke-opacity: 0.2; stroke-width: 1.5; stroke-linecap: square"/>
   </g>
   <g id="line2d_21">
    <path d="M 139.938642 263.189784 
L 168.582473 260.884295 
L 178.237766 258.578806 
L 186.337262 256.273317 
L 192.480703 253.967828 
L 198.730726 251.662339 
L 203.546871 249.35685 
L 207.662945 247.051361 
L 212.630912 244.745872 
L 215.724102 242.440383 
L 217.932429 240.134894 
L 220.94204 237.829405 
L 223.815164 235.523916 
L 226.797938 233.218428 
L 228.65968 230.912939 
L 231.170884 228.60745 
L 233.33627 226.301961 
L 235.837507 223.996472 
L 237.886342 221.690983 
L 239.72278 219.385494 
L 242.615074 217.080005 
L 243.831954 214.774516 
L 245.011262 212.469027 
L 247.307001 210.163538 
L 249.666382 207.858049 
L 251.108695 205.55256 
L 252.58398 203.247071 
L 254.761635 200.941582 
L 256.629511 198.636093 
L 258.253551 196.330604 
L 260.1682 194.025116 
L 261.658054 191.719627 
L 263.305097 189.414138 
L 264.449899 187.108649 
L 266.038667 184.80316 
L 268.080602 182.497671 
L 269.486877 180.192182 
L 271.38389 177.886693 
L 272.889846 175.581204 
L 274.281551 173.275715 
L 275.660988 170.970226 
L 277.50126 168.664737 
L 278.924404 166.359248 
L 280.451829 164.053759 
L 281.741553 161.74827 
L 283.226039 159.442781 
L 284.995 157.137292 
L 286.083061 154.831803 
L 287.568314 152.526315 
L 288.506852 150.220826 
L 289.808078 147.915337 
L 291.22432 145.609848 
L 292.382158 143.304359 
L 294.059106 140.99887 
L 296.032031 138.693381 
L 297.090954 136.387892 
L 298.785537 134.082403 
L 300.493923 131.776914 
L 302.107995 129.471425 
L 303.646922 127.165936 
L 304.884505 124.860447 
L 306.02854 122.554958 
L 307.47162 120.249469 
L 308.995979 117.94398 
L 310.817081 115.638491 
L 312.063098 113.333003 
L 313.81519 111.027514 
L 315.107215 108.722025 
L 316.5894 106.416536 
L 318.321556 104.111047 
L 319.786106 101.805558 
L 321.846443 99.500069 
L 324.274069 97.19458 
L 326.078302 94.889091 
L 327.635632 92.583602 
L 329.389257 90.278113 
L 331.461864 87.972624 
L 332.934081 85.667135 
L 334.61793 83.361646 
L 336.726574 81.056157 
L 339.198673 78.750668 
L 341.423101 76.445179 
L 345.298407 74.139691 
L 347.083471 71.834202 
L 349.161444 69.528713 
L 351.633543 67.223224 
L 353.910112 64.917735 
L 355.47051 62.612246 
L 358.99233 60.306757 
L 361.560276 58.001268 
L 364.446435 55.695779 
L 367.556495 53.39029 
L 370.3008 51.084801 
L 373.774313 48.779312 
L 378.167962 46.473823 
L 384.560606 44.168334 
L 394.485805 41.862845 
L 402.559998 39.557356 
L 411.328126 37.251867 
L 432.958221 34.946378 
" clip-path="url(#p96a057c97d)" style="fill: none; stroke: #1f77b4; stroke-opacity: 0.2; stroke-width: 1.5; stroke-linecap: square"/>
   </g>
   <g id="line2d_22">
    <path d="M 154.242155 263.189784 
L 180.127878 260.884295 
L 194.680594 258.578806 
L 201.853054 256.273317 
L 206.492072 253.967828 
L 211.876401 251.662339 
L 216.260082 249.35685 
L 220.363888 247.051361 
L 225.094153 244.745872 
L 230.399503 242.440383 
L 232.869301 240.134894 
L 235.365937 237.829405 
L 239.459775 235.523916 
L 243.251502 233.218428 
L 246.271081 230.912939 
L 248.956344 228.60745 
L 251.173872 226.301961 
L 252.657591 223.996472 
L 254.911924 221.690983 
L 257.003699 219.385494 
L 259.339311 217.080005 
L 261.938695 214.774516 
L 263.763631 212.469027 
L 265.327862 210.163538 
L 267.832165 207.858049 
L 269.729946 205.55256 
L 271.598588 203.247071 
L 273.293939 200.941582 
L 275.210889 198.636093 
L 276.636333 196.330604 
L 277.775767 194.025116 
L 279.436613 191.719627 
L 281.660275 189.414138 
L 282.973769 187.108649 
L 284.498127 184.80316 
L 285.865296 182.497671 
L 287.388121 180.192182 
L 288.711583 177.886693 
L 290.278114 175.581204 
L 291.250391 173.275715 
L 292.809255 170.970226 
L 294.490036 168.664737 
L 296.092606 166.359248 
L 297.416835 164.053759 
L 298.740297 161.74827 
L 300.072961 159.442781 
L 301.6901 157.137292 
L 303.076438 154.831803 
L 304.292551 152.526315 
L 305.88822 150.220826 
L 307.403377 147.915337 
L 308.652461 145.609848 
L 310.191389 143.304359 
L 310.919829 140.99887 
L 312.644318 138.693381 
L 314.085864 136.387892 
L 315.400891 134.082403 
L 316.538026 131.776914 
L 318.447308 129.471425 
L 320.612694 127.165936 
L 322.126318 124.860447 
L 323.538727 122.554958 
L 324.722635 120.249469 
L 325.979387 117.94398 
L 327.226171 115.638491 
L 328.475256 113.333003 
L 329.957441 111.027514 
L 332.705581 108.722025 
L 334.062014 106.416536 
L 335.36784 104.111047 
L 336.577819 101.805558 
L 338.162753 99.500069 
L 339.680977 97.19458 
L 341.303484 94.889091 
L 342.995 92.583602 
L 344.749393 90.278113 
L 346.24308 87.972624 
L 348.357092 85.667135 
L 350.131421 83.361646 
L 352.697833 81.056157 
L 354.70833 78.750668 
L 357.068479 76.445179 
L 359.114248 74.139691 
L 361.530371 71.834202 
L 364.714042 69.528713 
L 367.252083 67.223224 
L 371.164194 64.917735 
L 373.457633 62.612246 
L 375.922064 60.306757 
L 379.651681 58.001268 
L 383.023979 55.695779 
L 386.785035 53.39029 
L 390.658807 51.084801 
L 394.332449 48.779312 
L 398.400217 46.473823 
L 405.391716 44.168334 
L 413.585526 41.862845 
L 418.468381 39.557356 
L 430.842675 37.251867 
L 450.581891 34.946378 
" clip-path="url(#p96a057c97d)" style="fill: none; stroke: #1f77b4; stroke-opacity: 0.2; stroke-width: 1.5; stroke-linecap: square"/>
   </g>
   <g id="line2d_23">
    <path d="M 105.08006 263.189784 
L 123.302585 260.884295 
L 133.846576 258.578806 
L 140.954626 256.273317 
L 148.941405 253.967828 
L 153.765218 251.662339 
L 157.839886 249.35685 
L 164.07304 247.051361 
L 167.790389 244.745872 
L 172.392602 242.440383 
L 176.589189 240.134894 
L 179.743722 237.829405 
L 182.293265 235.523916 
L 184.934822 233.218428 
L 187.931398 230.912939 
L 189.818443 228.60745 
L 192.244535 226.301961 
L 194.599316 223.996472 
L 196.165847 221.690983 
L 198.3297 219.385494 
L 200.573298 217.080005 
L 201.974972 214.774516 
L 203.375112 212.469027 
L 204.988417 210.163538 
L 206.989712 207.858049 
L 209.031647 205.55256 
L 210.585143 203.247071 
L 212.328034 200.941582 
L 214.027985 198.636093 
L 215.9319 196.330604 
L 217.963867 194.025116 
L 219.142407 191.719627 
L 220.347785 189.414138 
L 221.792399 187.108649 
L 223.42794 184.80316 
L 224.786674 182.497671 
L 226.094801 180.192182 
L 228.198078 177.886693 
L 229.996177 175.581204 
L 231.07427 173.275715 
L 232.81486 170.970226 
L 233.965797 168.664737 
L 235.830606 166.359248 
L 237.084291 164.053759 
L 238.707564 161.74827 
L 240.329303 159.442781 
L 242.056858 157.137292 
L 243.463133 154.831803 
L 244.673112 152.526315 
L 246.055616 150.220826 
L 247.268662 147.915337 
L 249.285293 145.609848 
L 250.372587 143.304359 
L 251.75049 140.99887 
L 253.862202 138.693381 
L 255.388861 136.387892 
L 256.71309 134.082403 
L 257.962941 131.776914 
L 259.148383 129.471425 
L 260.872104 127.165936 
L 262.138058 124.860447 
L 263.5497 122.554958 
L 265.282622 120.249469 
L 266.870623 117.94398 
L 268.080602 115.638491 
L 269.17403 113.333003 
L 271.148489 111.027514 
L 272.206645 108.722025 
L 274.213308 106.416536 
L 275.862652 104.111047 
L 276.919274 101.805558 
L 278.052575 99.500069 
L 280.272403 97.19458 
L 281.656441 94.889091 
L 283.349491 92.583602 
L 285.150657 90.278113 
L 287.474767 87.972624 
L 289.624051 85.667135 
L 290.653069 83.361646 
L 292.125287 81.056157 
L 294.447863 78.750668 
L 296.306538 76.445179 
L 299.061578 74.139691 
L 301.086644 71.834202 
L 304.04028 69.528713 
L 306.073014 67.223224 
L 309.1432 64.917735 
L 312.759335 62.612246 
L 314.883315 60.306757 
L 317.336244 58.001268 
L 321.789702 55.695779 
L 323.808633 53.39029 
L 326.891855 51.084801 
L 331.693431 48.779312 
L 335.72286 46.473823 
L 341.874735 44.168334 
L 346.994524 41.862845 
L 356.014157 39.557356 
L 368.608517 37.251867 
L 402.678849 34.946378 
" clip-path="url(#p96a057c97d)" style="fill: none; stroke: #1f77b4; stroke-opacity: 0.2; stroke-width: 1.5; stroke-linecap: square"/>
   </g>
   <g id="line2d_24">
    <path d="M 122.187415 263.189784 
L 148.943579 260.884295 
L 163.040686 258.578806 
L 172.346707 256.273317 
L 179.463594 253.967828 
L 186.510332 251.662339 
L 192.24358 249.35685 
L 197.130034 247.051361 
L 201.500883 244.745872 
L 205.194458 242.440383 
L 208.586325 240.134894 
L 212.087614 237.829405 
L 215.352789 235.523916 
L 218.360514 233.218428 
L 221.260721 230.912939 
L 223.915678 228.60745 
L 226.174316 226.301961 
L 228.554267 223.996472 
L 230.750386 221.690983 
L 233.090134 219.385494 
L 235.369177 217.080005 
L 237.383304 214.774516 
L 239.765988 212.469027 
L 241.920655 210.163538 
L 243.916219 207.858049 
L 245.876868 205.55256 
L 247.780756 203.247071 
L 249.719099 200.941582 
L 251.564029 198.636093 
L 253.309856 196.330604 
L 255.198098 194.025116 
L 256.853805 191.719627 
L 258.7856 189.414138 
L 260.786259 187.108649 
L 262.456432 184.80316 
L 264.200228 182.497671 
L 265.917827 180.192182 
L 267.588138 177.886693 
L 269.256877 175.581204 
L 270.885138 173.275715 
L 272.410459 170.970226 
L 273.95447 168.664737 
L 275.73759 166.359248 
L 277.242319 164.053759 
L 278.934376 161.74827 
L 280.531574 159.442781 
L 282.08203 157.137292 
L 283.471179 154.831803 
L 285.202188 152.526315 
L 286.852908 150.220826 
L 288.391694 147.915337 
L 289.849266 145.609848 
L 291.307037 143.304359 
L 292.837683 140.99887 
L 294.275158 138.693381 
L 295.696146 136.387892 
L 297.062583 134.082403 
L 298.539938 131.776914 
L 300.140261 129.471425 
L 301.910545 127.165936 
L 303.656135 124.860447 
L 305.279147 122.554958 
L 306.954044 120.249469 
L 308.638234 117.94398 
L 310.271322 115.638491 
L 311.964832 113.333003 
L 313.825879 111.027514 
L 315.61373 108.722025 
L 317.279629 106.416536 
L 319.040029 104.111047 
L 320.859203 101.805558 
L 322.887297 99.500069 
L 324.63641 97.19458 
L 326.557831 94.889091 
L 328.240836 92.583602 
L 330.34976 90.278113 
L 332.522822 87.972624 
L 334.510465 85.667135 
L 336.462334 83.361646 
L 338.782388 81.056157 
L 340.946141 78.750668 
L 343.167039 76.445179 
L 345.540518 74.139691 
L 347.68864 71.834202 
L 350.038338 69.528713 
L 352.809707 67.223224 
L 355.730713 64.917735 
L 358.633764 62.612246 
L 361.882028 60.306757 
L 365.256745 58.001268 
L 368.626655 55.695779 
L 372.709605 53.39029 
L 376.49966 51.084801 
L 381.37023 48.779312 
L 386.85791 46.473823 
L 393.095392 44.168334 
L 400.081225 41.862845 
L 408.587118 39.557356 
L 420.079949 37.251867 
L 443.909311 34.946378 
" clip-path="url(#p96a057c97d)" style="fill: none; stroke: #000000; stroke-width: 1.5; stroke-linecap: square"/>
   </g>
   <g id="line2d_25">
    <path d="M 64.99664 263.46636 
L 69.577383 263.271777 
L 74.158893 263.039581 
L 78.739637 262.763893 
L 83.321147 262.437991 
L 87.90189 262.054661 
L 92.4834 261.605738 
L 97.064143 261.082628 
L 101.644886 260.475819 
L 106.226396 259.775068 
L 110.80714 258.969864 
L 115.38865 258.048625 
L 119.969393 256.999871 
L 124.550903 255.811083 
L 129.131646 254.470246 
L 133.713156 252.964397 
L 138.293899 251.281597 
L 142.874643 249.409423 
L 147.456153 247.335785 
L 152.036896 245.050332 
L 156.618406 242.542154 
L 161.199149 239.803087 
L 165.780659 236.824584 
L 170.361402 233.60161 
L 174.942146 230.129477 
L 179.523656 226.405348 
L 184.104399 222.430471 
L 188.685909 218.205866 
L 193.266652 213.737755 
L 197.848162 209.031989 
L 202.428905 204.10006 
L 207.009649 198.953672 
L 211.591159 193.606883 
L 216.171902 188.078846 
L 220.753412 182.38731 
L 225.334155 176.555809 
L 229.915665 170.605814 
L 234.496408 164.564241 
L 239.077918 158.455193 
L 243.658662 152.307686 
L 248.239405 146.148166 
L 252.820915 140.0032 
L 257.401658 133.902197 
L 261.983168 127.869868 
L 266.563911 121.934022 
L 271.145422 116.117182 
L 275.726165 110.444216 
L 280.306908 104.935211 
L 284.888418 99.608287 
L 289.469161 94.481971 
L 294.050671 89.568902 
L 298.631414 84.882595 
L 303.212925 80.430835 
L 307.793668 76.221943 
L 312.374411 72.259515 
L 316.955921 68.544929 
L 321.536664 65.079147 
L 326.118174 61.858618 
L 330.698918 58.880104 
L 335.280428 56.136563 
L 339.861171 53.621351 
L 344.442681 51.32477 
L 349.023424 49.237664 
L 353.604167 47.348858 
L 358.185677 45.646682 
L 362.766421 44.119873 
L 367.347931 42.755855 
L 371.928674 41.542961 
L 376.510184 40.468759 
L 381.090927 39.521825 
L 385.67167 38.690538 
L 390.25318 37.963809 
L 394.833924 37.33144 
L 399.415434 36.783363 
L 403.996177 36.310544 
L 408.577687 35.904264 
L 413.15843 35.556775 
L 417.739173 35.260789 
L 422.320683 35.009713 
L 426.901427 34.797714 
L 431.482937 34.619414 
L 436.06368 34.470147 
L 440.64519 34.345676 
L 445.225933 34.242358 
L 449.807443 34.156933 
L 454.388186 34.086627 
L 458.96893 34.028998 
L 463.55044 33.981954 
L 468.131183 33.943725 
L 472.712693 33.91278 
L 477.293436 33.887846 
L 481.874946 33.867834 
L 486.455689 33.851843 
L 491.036433 33.839119 
L 495.617943 33.829034 
L 500.198686 33.821077 
L 504.780196 33.814824 
L 509.360939 33.809931 
L 513.942449 33.806118 
L 518.523192 33.80316 
" clip-path="url(#p96a057c97d)" style="fill: none; stroke-dasharray: 4,6.6; stroke-dashoffset: 0; stroke: #d62728; stroke-width: 4"/>
   </g>
   <g id="patch_3">
    <path d="M 42.320312 274.94952 
L 42.320312 22.32 
" style="fill: none; stroke: #000000; stroke-width: 0.8; stroke-linejoin: miter; stroke-linecap: square"/>
   </g>
   <g id="patch_4">
    <path d="M 42.320312 274.94952 
L 541.19952 274.94952 
" style="fill: none; stroke: #000000; stroke-width: 0.8; stroke-linejoin: miter; stroke-linecap: square"/>
   </g>
   <g id="text_16">
    <!-- Cumulative Temperature Distribution (4000 H$_2$O, NVE) -->
    <g transform="translate(144.699916 16.32) scale(0.12 -0.12)">
     <defs>
      <path id="IBMPlexSans-44" d="M 595 0 
L 2093 0 
C 3206 0 3923 742 3923 2234 
C 3923 3725 3206 4467 2093 4467 
L 595 4467 
L 595 0 
z
M 1133 474 
L 1133 3994 
L 2093 3994 
C 2829 3994 3347 3482 3347 2598 
L 3347 1869 
C 3347 986 2829 474 2093 474 
L 1133 474 
z
" transform="scale(0.015625)"/>
      <path id="IBMPlexSans-73" d="M 1536 -77 
C 2291 -77 2758 314 2758 954 
C 2758 1453 2477 1773 1747 1882 
L 1491 1920 
C 1082 1984 858 2112 858 2432 
C 858 2746 1082 2944 1504 2944 
C 1926 2944 2208 2746 2355 2541 
L 2694 2848 
C 2426 3181 2074 3379 1542 3379 
C 870 3379 365 3059 365 2406 
C 365 1792 819 1542 1427 1453 
L 1690 1414 
C 2125 1350 2266 1152 2266 896 
C 2266 557 2010 358 1574 358 
C 1158 358 851 544 595 864 
L 230 570 
C 525 179 928 -77 1536 -77 
z
" transform="scale(0.015625)"/>
      <path id="IBMPlexSans-6e" d="M 1056 0 
L 1056 2291 
C 1056 2714 1453 2918 1862 2918 
C 2355 2918 2611 2618 2611 2029 
L 2611 0 
L 3123 0 
L 3123 2118 
C 3123 2918 2694 3379 2016 3379 
C 1523 3379 1242 3136 1082 2765 
L 1056 2765 
L 1056 3302 
L 544 3302 
L 544 0 
L 1056 0 
z
" transform="scale(0.015625)"/>
      <path id="IBMPlexSans-28" d="M 531 1997 
C 531 749 1056 -339 1690 -877 
L 2176 -877 
C 1485 -262 1011 819 1011 1715 
L 1011 2266 
C 1011 3162 1466 4224 2176 4864 
L 1690 4864 
C 1037 4307 531 3232 531 1997 
z
" transform="scale(0.015625)"/>
      <path id="IBMPlexSans-48" d="M 3392 0 
L 3930 0 
L 3930 4467 
L 3392 4467 
L 3392 2496 
L 1133 2496 
L 1133 4467 
L 595 4467 
L 595 0 
L 1133 0 
L 1133 2022 
L 3392 2022 
L 3392 0 
z
" transform="scale(0.015625)"/>
      <path id="DejaVuSans-32" d="M 1228 531 
L 3431 531 
L 3431 0 
L 469 0 
L 469 531 
Q 828 903 1448 1529 
Q 2069 2156 2228 2338 
Q 2531 2678 2651 2914 
Q 2772 3150 2772 3378 
Q 2772 3750 2511 3984 
Q 2250 4219 1831 4219 
Q 1534 4219 1204 4116 
Q 875 4013 500 3803 
L 500 4441 
Q 881 4594 1212 4672 
Q 1544 4750 1819 4750 
Q 2544 4750 2975 4387 
Q 3406 4025 3406 3419 
Q 3406 3131 3298 2873 
Q 3191 2616 2906 2266 
Q 2828 2175 2409 1742 
Q 1991 1309 1228 531 
z
" transform="scale(0.015625)"/>
      <path id="IBMPlexSans-4f" d="M 2266 -77 
C 3418 -77 4160 736 4160 2234 
C 4160 3731 3418 4544 2266 4544 
C 1114 4544 371 3731 371 2234 
C 371 736 1114 -77 2266 -77 
z
M 2266 403 
C 1491 403 947 979 947 1862 
L 947 2605 
C 947 3488 1491 4064 2266 4064 
C 3040 4064 3584 3488 3584 2605 
L 3584 1862 
C 3584 979 3040 403 2266 403 
z
" transform="scale(0.015625)"/>
      <path id="IBMPlexSans-2c" d="M 870 749 
C 602 749 480 595 480 371 
L 480 282 
C 480 109 557 -19 730 -58 
C 659 -358 506 -582 250 -851 
L 678 -851 
C 1043 -538 1261 -64 1261 282 
L 1261 371 
C 1261 595 1139 749 870 749 
z
" transform="scale(0.015625)"/>
      <path id="IBMPlexSans-4e" d="M 3309 0 
L 3930 0 
L 3930 4467 
L 3405 4467 
L 3405 749 
L 3386 749 
L 2848 1741 
L 1216 4467 
L 595 4467 
L 595 0 
L 1120 0 
L 1120 3718 
L 1139 3718 
L 1677 2726 
L 3309 0 
z
" transform="scale(0.015625)"/>
      <path id="IBMPlexSans-56" d="M 2266 0 
L 3770 4467 
L 3213 4467 
L 2470 2214 
L 1965 538 
L 1933 538 
L 1440 2214 
L 704 4467 
L 128 4467 
L 1613 0 
L 2266 0 
z
" transform="scale(0.015625)"/>
      <path id="IBMPlexSans-45" d="M 3322 0 
L 3322 474 
L 1133 474 
L 1133 2022 
L 3194 2022 
L 3194 2496 
L 1133 2496 
L 1133 3994 
L 3322 3994 
L 3322 4467 
L 595 4467 
L 595 0 
L 3322 0 
z
" transform="scale(0.015625)"/>
      <path id="IBMPlexSans-29" d="M 1613 1997 
C 1613 3232 1107 4307 454 4864 
L -32 4864 
C 678 4224 1133 3162 1133 2266 
L 1133 1715 
C 1133 819 659 -262 -32 -877 
L 454 -877 
C 1088 -339 1613 749 1613 1997 
z
" transform="scale(0.015625)"/>
     </defs>
     <use xlink:href="#IBMPlexSans-43"/>
     <use xlink:href="#IBMPlexSans-75" transform="translate(62.099991 0)"/>
     <use xlink:href="#IBMPlexSans-6d" transform="translate(118.899979 0)"/>
     <use xlink:href="#IBMPlexSans-75" transform="translate(206.199966 0)"/>
     <use xlink:href="#IBMPlexSans-6c" transform="translate(262.999954 0)"/>
     <use xlink:href="#IBMPlexSans-61" transform="translate(290.199951 0)"/>
     <use xlink:href="#IBMPlexSans-74" transform="translate(343.599945 0)"/>
     <use xlink:href="#IBMPlexSans-69" transform="translate(378.699936 0)"/>
     <use xlink:href="#IBMPlexSans-76" transform="translate(403.699921 0)"/>
     <use xlink:href="#IBMPlexSans-65" transform="translate(452.899918 0)"/>
     <use xlink:href="#IBMPlexSans-20" transform="translate(507.799911 0)"/>
     <use xlink:href="#IBMPlexSans-54" transform="translate(531.399902 0)"/>
     <use xlink:href="#IBMPlexSans-65" transform="translate(588.599899 0)"/>
     <use xlink:href="#IBMPlexSans-6d" transform="translate(643.499893 0)"/>
     <use xlink:href="#IBMPlexSans-70" transform="translate(730.799881 0)"/>
     <use xlink:href="#IBMPlexSans-65" transform="translate(788.799866 0)"/>
     <use xlink:href="#IBMPlexSans-72" transform="translate(843.69986 0)"/>
     <use xlink:href="#IBMPlexSans-61" transform="translate(880.399857 0)"/>
     <use xlink:href="#IBMPlexSans-74" transform="translate(933.79985 0)"/>
     <use xlink:href="#IBMPlexSans-75" transform="translate(968.899841 0)"/>
     <use xlink:href="#IBMPlexSans-72" transform="translate(1025.699829 0)"/>
     <use xlink:href="#IBMPlexSans-65" transform="translate(1062.399826 0)"/>
     <use xlink:href="#IBMPlexSans-20" transform="translate(1117.29982 0)"/>
     <use xlink:href="#IBMPlexSans-44" transform="translate(1140.899811 0)"/>
     <use xlink:href="#IBMPlexSans-69" transform="translate(1207.999802 0)"/>
     <use xlink:href="#IBMPlexSans-73" transform="translate(1232.999786 0)"/>
     <use xlink:href="#IBMPlexSans-74" transform="translate(1281.699783 0)"/>
     <use xlink:href="#IBMPlexSans-72" transform="translate(1316.799774 0)"/>
     <use xlink:href="#IBMPlexSans-69" transform="translate(1353.499771 0)"/>
     <use xlink:href="#IBMPlexSans-62" transform="translate(1378.499756 0)"/>
     <use xlink:href="#IBMPlexSans-75" transform="translate(1436.499741 0)"/>
     <use xlink:href="#IBMPlexSans-74" transform="translate(1493.299728 0)"/>
     <use xlink:href="#IBMPlexSans-69" transform="translate(1528.399719 0)"/>
     <use xlink:href="#IBMPlexSans-6f" transform="translate(1553.399704 0)"/>
     <use xlink:href="#IBMPlexSans-6e" transform="translate(1609.399689 0)"/>
     <use xlink:href="#IBMPlexSans-20" transform="translate(1666.199677 0)"/>
     <use xlink:href="#IBMPlexSans-28" transform="translate(1689.799667 0)"/>
     <use xlink:href="#IBMPlexSans-34" transform="translate(1723.299652 0)"/>
     <use xlink:href="#IBMPlexSans-30" transform="translate(1783.299637 0)"/>
     <use xlink:href="#IBMPlexSans-30" transform="translate(1843.299622 0)"/>
     <use xlink:href="#IBMPlexSans-30" transform="translate(1903.299606 0)"/>
     <use xlink:href="#IBMPlexSans-20" transform="translate(1963.299591 0)"/>
     <use xlink:href="#IBMPlexSans-48" transform="translate(1986.899582 0)"/>
     <use xlink:href="#DejaVuSans-32" transform="translate(2058.556595 -16.40625) scale(0.7)"/>
     <use xlink:href="#IBMPlexSans-4f" transform="translate(2105.827103 0)"/>
     <use xlink:href="#IBMPlexSans-2c" transform="translate(2176.62709 0)"/>
     <use xlink:href="#IBMPlexSans-20" transform="translate(2203.827087 0)"/>
     <use xlink:href="#IBMPlexSans-4e" transform="translate(2227.427078 0)"/>
     <use xlink:href="#IBMPlexSans-56" transform="translate(2298.12706 0)"/>
     <use xlink:href="#IBMPlexSans-45" transform="translate(2359.027054 0)"/>
     <use xlink:href="#IBMPlexSans-29" transform="translate(2417.327042 0)"/>
    </g>
   </g>
   <g id="legend_1">
    <g id="patch_5">
     <path d="M 49.320312 73.52 
L 148.479688 73.52 
Q 150.479688 73.52 150.479688 71.52 
L 150.479688 29.32 
Q 150.479688 27.32 148.479688 27.32 
L 49.320312 27.32 
Q 47.320312 27.32 47.320312 29.32 
L 47.320312 71.52 
Q 47.320312 73.52 49.320312 73.52 
z
" style="fill: #ffffff; opacity: 0.8; stroke: #cccccc; stroke-linejoin: miter"/>
    </g>
    <g id="line2d_26">
     <path d="M 51.320312 35.22 
L 61.320312 35.22 
L 71.320312 35.22 
" style="fill: none; stroke: #1f77b4; stroke-opacity: 0.2; stroke-width: 1.5; stroke-linecap: square"/>
    </g>
    <g id="text_17">
     <!-- Individual NVE -->
     <g transform="translate(79.320312 38.72) scale(0.1 -0.1)">
      <defs>
       <path id="IBMPlexSans-49" d="M 2176 0 
L 2176 448 
L 1549 448 
L 1549 4019 
L 2176 4019 
L 2176 4467 
L 384 4467 
L 384 4019 
L 1011 4019 
L 1011 448 
L 384 448 
L 384 0 
L 2176 0 
z
" transform="scale(0.015625)"/>
       <path id="IBMPlexSans-64" d="M 2656 0 
L 3168 0 
L 3168 4736 
L 2656 4736 
L 2656 2765 
L 2630 2765 
C 2458 3181 2118 3379 1664 3379 
C 838 3379 320 2707 320 1651 
C 320 595 838 -77 1664 -77 
C 2118 -77 2432 128 2630 538 
L 2656 538 
L 2656 0 
z
M 1805 384 
C 1229 384 870 781 870 1370 
L 870 1933 
C 870 2522 1229 2918 1805 2918 
C 2272 2918 2656 2650 2656 2285 
L 2656 1056 
C 2656 627 2272 384 1805 384 
z
" transform="scale(0.015625)"/>
      </defs>
      <use xlink:href="#IBMPlexSans-49"/>
      <use xlink:href="#IBMPlexSans-6e" transform="translate(39.999985 0)"/>
      <use xlink:href="#IBMPlexSans-64" transform="translate(96.799973 0)"/>
      <use xlink:href="#IBMPlexSans-69" transform="translate(154.799957 0)"/>
      <use xlink:href="#IBMPlexSans-76" transform="translate(179.799942 0)"/>
      <use xlink:href="#IBMPlexSans-69" transform="translate(228.999939 0)"/>
      <use xlink:href="#IBMPlexSans-64" transform="translate(253.999924 0)"/>
      <use xlink:href="#IBMPlexSans-75" transform="translate(311.999908 0)"/>
      <use xlink:href="#IBMPlexSans-61" transform="translate(368.799896 0)"/>
      <use xlink:href="#IBMPlexSans-6c" transform="translate(422.19989 0)"/>
      <use xlink:href="#IBMPlexSans-20" transform="translate(449.399887 0)"/>
      <use xlink:href="#IBMPlexSans-4e" transform="translate(472.999878 0)"/>
      <use xlink:href="#IBMPlexSans-56" transform="translate(543.69986 0)"/>
      <use xlink:href="#IBMPlexSans-45" transform="translate(604.599854 0)"/>
     </g>
    </g>
    <g id="line2d_27">
     <path d="M 51.320312 49.62 
L 61.320312 49.62 
L 71.320312 49.62 
" style="fill: none; stroke: #000000; stroke-width: 1.5; stroke-linecap: square"/>
    </g>
    <g id="text_18">
     <!-- Combined NVE -->
     <g transform="translate(79.320312 53.12) scale(0.1 -0.1)">
      <use xlink:href="#IBMPlexSans-43"/>
      <use xlink:href="#IBMPlexSans-6f" transform="translate(62.099991 0)"/>
      <use xlink:href="#IBMPlexSans-6d" transform="translate(118.099976 0)"/>
      <use xlink:href="#IBMPlexSans-62" transform="translate(205.399963 0)"/>
      <use xlink:href="#IBMPlexSans-69" transform="translate(263.399948 0)"/>
      <use xlink:href="#IBMPlexSans-6e" transform="translate(288.399933 0)"/>
      <use xlink:href="#IBMPlexSans-65" transform="translate(345.199921 0)"/>
      <use xlink:href="#IBMPlexSans-64" transform="translate(400.099915 0)"/>
      <use xlink:href="#IBMPlexSans-20" transform="translate(458.099899 0)"/>
      <use xlink:href="#IBMPlexSans-4e" transform="translate(481.69989 0)"/>
      <use xlink:href="#IBMPlexSans-56" transform="translate(552.399872 0)"/>
      <use xlink:href="#IBMPlexSans-45" transform="translate(613.299866 0)"/>
     </g>
    </g>
    <g id="line2d_28">
     <path d="M 51.320312 64.02 
L 61.320312 64.02 
L 71.320312 64.02 
" style="fill: none; stroke-dasharray: 4,6.6; stroke-dashoffset: 0; stroke: #d62728; stroke-width: 4"/>
    </g>
    <g id="text_19">
     <!-- NVT exact -->
     <g transform="translate(79.320312 67.52) scale(0.1 -0.1)">
      <defs>
       <path id="IBMPlexSans-78" d="M 134 0 
L 704 0 
L 1632 1293 
L 1651 1293 
L 2509 0 
L 3110 0 
L 1920 1702 
L 3085 3302 
L 2515 3302 
L 1645 2074 
L 1626 2074 
L 787 3302 
L 186 3302 
L 1357 1664 
L 134 0 
z
" transform="scale(0.015625)"/>
       <path id="IBMPlexSans-63" d="M 1773 -77 
C 2400 -77 2829 230 3040 704 
L 2669 954 
C 2490 576 2189 378 1773 378 
C 1165 378 851 794 851 1370 
L 851 1933 
C 851 2509 1165 2925 1773 2925 
C 2176 2925 2458 2726 2579 2387 
L 3008 2605 
C 2816 3059 2426 3379 1773 3379 
C 845 3379 301 2707 301 1651 
C 301 595 845 -77 1773 -77 
z
" transform="scale(0.015625)"/>
      </defs>
      <use xlink:href="#IBMPlexSans-4e"/>
      <use xlink:href="#IBMPlexSans-56" transform="translate(70.699982 0)"/>
      <use xlink:href="#IBMPlexSans-54" transform="translate(131.599976 0)"/>
      <use xlink:href="#IBMPlexSans-20" transform="translate(188.799973 0)"/>
      <use xlink:href="#IBMPlexSans-65" transform="translate(212.399963 0)"/>
      <use xlink:href="#IBMPlexSans-78" transform="translate(267.299957 0)"/>
      <use xlink:href="#IBMPlexSans-61" transform="translate(317.999954 0)"/>
      <use xlink:href="#IBMPlexSans-63" transform="translate(371.399948 0)"/>
      <use xlink:href="#IBMPlexSans-74" transform="translate(421.699936 0)"/>
     </g>
    </g>
   </g>
  </g>
 </g>
 <defs>
  <clipPath id="p96a057c97d">
   <rect x="42.320312" y="22.32" width="498.879207" height="252.62952"/>
  </clipPath>
 </defs>
</svg>