<?xml version="1.0" encoding="utf-8" standalone="no"?>
<!DOCTYPE svg PUBLIC "-//W3C//DTD SVG 1.1//EN"
  "http://www.w3.org/Graphics/SVG/1.1/DTD/svg11.dtd">
<svg xmlns:xlink="http://www.w3.org/1999/xlink" width="548.39952pt" height="312.14952pt" viewBox="0 0 548.39952 312.14952" xmlns="http://www.w3.org/2000/svg" version="1.1">
 <metadata>
  <rdf:RDF xmlns:dc="http://purl.org/dc/elements/1.1/" xmlns:cc="http://creativecommons.org/ns#" xmlns:rdf="http://www.w3.org/1999/02/22-rdf-syntax-ns#">
   <cc:Work>
    <dc:type rdf:resource="http://purl.org/dc/dcmitype/StillImage"/>
    <dc:date>2025-06-25T08:39:05.184992</dc:date>
    <dc:format>image/svg+xml</dc:format>
    <dc:creator>
     <cc:Agent>
      <dc:title>Matplotlib v3.10.1, https://matplotlib.org/</dc:title>
     </cc:Agent>
    </dc:creator>
   </cc:Work>
  </rdf:RDF>
 </metadata>
 <defs>
  <style type="text/css">*{stroke-linejoin: round; stroke-linecap: butt}</style>
 </defs>
 <g id="figure_1">
  <g id="patch_1">
   <path d="M 0 312.14952 
L 548.39952 312.14952 
L 548.39952 0 
L 0 0 
z
" style="fill: #ffffff"/>
  </g>
  <g id="axes_1">
   <g id="patch_2">
    <path d="M 53.5 274.94952 
L 541.19952 274.94952 
L 541.19952 22.32 
L 53.5 22.32 
z
" style="fill: #ffffff"/>
   </g>
   <g id="matplotlib.axis_1">
    <g id="xtick_1">
     <g id="line2d_1">
      <defs>
       <path id="m415e6ee155" d="M 0 0 
L 0 3.5 
" style="stroke: #000000; stroke-width: 0.8"/>
      </defs>
      <g>
       <use xlink:href="#m415e6ee155" x="75.66816" y="274.94952" style="stroke: #000000; stroke-width: 0.8"/>
      </g>
     </g>
     <g id="text_1">
      <!-- 0 -->
      <g transform="translate(72.66816 289.34952) scale(0.1 -0.1)">
       <defs>
        <path id="IBMPlexSans-30" d="M 1920 -77 
C 2989 -77 3456 774 3456 2234 
C 3456 3693 2989 4544 1920 4544 
C 851 4544 384 3693 384 2234 
C 384 774 851 -77 1920 -77 
z
M 1920 390 
C 1222 390 947 1005 947 1869 
L 947 2598 
C 947 3462 1222 4077 1920 4077 
C 2618 4077 2893 3462 2893 2598 
L 2893 1869 
C 2893 1005 2618 390 1920 390 
z
" transform="scale(0.015625)"/>
       </defs>
       <use xlink:href="#IBMPlexSans-30"/>
      </g>
     </g>
    </g>
    <g id="xtick_2">
     <g id="line2d_2">
      <g>
       <use xlink:href="#m415e6ee155" x="164.3408" y="274.94952" style="stroke: #000000; stroke-width: 0.8"/>
      </g>
     </g>
     <g id="text_2">
      <!-- 20 -->
      <g transform="translate(158.3408 289.34952) scale(0.1 -0.1)">
       <defs>
        <path id="IBMPlexSans-32" d="M 3411 474 
L 1062 474 
L 2266 1555 
C 2835 2067 3245 2554 3245 3245 
C 3245 4006 2746 4544 1875 4544 
C 1011 4544 614 4019 442 3494 
L 922 3309 
C 1043 3731 1299 4064 1850 4064 
C 2400 4064 2675 3725 2675 3232 
L 2675 3155 
C 2675 2726 2355 2278 1939 1894 
L 480 550 
L 480 0 
L 3411 0 
L 3411 474 
z
" transform="scale(0.015625)"/>
       </defs>
       <use xlink:href="#IBMPlexSans-32"/>
       <use xlink:href="#IBMPlexSans-30" transform="translate(59.999985 0)"/>
      </g>
     </g>
    </g>
    <g id="xtick_3">
     <g id="line2d_3">
      <g>
       <use xlink:href="#m415e6ee155" x="253.01344" y="274.94952" style="stroke: #000000; stroke-width: 0.8"/>
      </g>
     </g>
     <g id="text_3">
      <!-- 40 -->
      <g transform="translate(247.01344 289.34952) scale(0.1 -0.1)">
       <defs>
        <path id="IBMPlexSans-34" d="M 2912 0 
L 2912 877 
L 3558 877 
L 3558 1325 
L 2912 1325 
L 2912 4467 
L 2112 4467 
L 243 1350 
L 243 877 
L 2400 877 
L 2400 0 
L 2912 0 
z
M 2368 4051 
L 2400 4051 
L 2400 1325 
L 749 1325 
L 2368 4051 
z
" transform="scale(0.015625)"/>
       </defs>
       <use xlink:href="#IBMPlexSans-34"/>
       <use xlink:href="#IBMPlexSans-30" transform="translate(59.999985 0)"/>
      </g>
     </g>
    </g>
    <g id="xtick_4">
     <g id="line2d_4">
      <g>
       <use xlink:href="#m415e6ee155" x="341.68608" y="274.94952" style="stroke: #000000; stroke-width: 0.8"/>
      </g>
     </g>
     <g id="text_4">
      <!-- 60 -->
      <g transform="translate(335.68608 289.34952) scale(0.1 -0.1)">
       <defs>
        <path id="IBMPlexSans-36" d="M 1926 -77 
C 2822 -77 3411 525 3411 1402 
C 3411 2246 2861 2778 2093 2778 
C 1549 2778 1229 2502 1018 2138 
L 986 2150 
C 1229 3187 1760 3770 2714 4467 
L 2022 4467 
C 1306 4000 429 2963 429 1638 
C 429 576 998 -77 1926 -77 
z
M 1920 390 
C 1331 390 986 730 986 1331 
L 986 1382 
C 986 1984 1331 2323 1920 2323 
C 2509 2323 2854 1984 2854 1382 
L 2854 1331 
C 2854 730 2509 390 1920 390 
z
" transform="scale(0.015625)"/>
       </defs>
       <use xlink:href="#IBMPlexSans-36"/>
       <use xlink:href="#IBMPlexSans-30" transform="translate(59.999985 0)"/>
      </g>
     </g>
    </g>
    <g id="xtick_5">
     <g id="line2d_5">
      <g>
       <use xlink:href="#m415e6ee155" x="430.35872" y="274.94952" style="stroke: #000000; stroke-width: 0.8"/>
      </g>
     </g>
     <g id="text_5">
      <!-- 80 -->
      <g transform="translate(424.35872 289.34952) scale(0.1 -0.1)">
       <defs>
        <path id="IBMPlexSans-38" d="M 1920 -77 
C 2938 -77 3469 480 3469 1216 
C 3469 1824 3104 2176 2566 2323 
L 2566 2374 
C 3034 2534 3334 2912 3334 3424 
C 3334 4102 2810 4544 1920 4544 
C 1030 4544 506 4102 506 3424 
C 506 2912 806 2534 1274 2374 
L 1274 2323 
C 736 2176 371 1824 371 1216 
C 371 480 902 -77 1920 -77 
z
M 1920 390 
C 1299 390 941 685 941 1190 
L 941 1325 
C 941 1830 1299 2125 1920 2125 
C 2541 2125 2899 1830 2899 1325 
L 2899 1190 
C 2899 685 2541 390 1920 390 
z
M 1920 2573 
C 1363 2573 1062 2822 1062 3277 
L 1062 3373 
C 1062 3827 1363 4077 1920 4077 
C 2477 4077 2778 3827 2778 3373 
L 2778 3277 
C 2778 2822 2477 2573 1920 2573 
z
" transform="scale(0.015625)"/>
       </defs>
       <use xlink:href="#IBMPlexSans-38"/>
       <use xlink:href="#IBMPlexSans-30" transform="translate(59.999985 0)"/>
      </g>
     </g>
    </g>
    <g id="xtick_6">
     <g id="line2d_6">
      <g>
       <use xlink:href="#m415e6ee155" x="519.03136" y="274.94952" style="stroke: #000000; stroke-width: 0.8"/>
      </g>
     </g>
     <g id="text_6">
      <!-- 100 -->
      <g transform="translate(510.03136 289.34952) scale(0.1 -0.1)">
       <defs>
        <path id="IBMPlexSans-31" d="M 3501 0 
L 3501 474 
L 2349 474 
L 2349 4467 
L 1510 4467 
L 326 3360 
L 640 3021 
L 1766 4070 
L 1811 4070 
L 1811 474 
L 563 474 
L 563 0 
L 3501 0 
z
" transform="scale(0.015625)"/>
       </defs>
       <use xlink:href="#IBMPlexSans-31"/>
       <use xlink:href="#IBMPlexSans-30" transform="translate(59.999985 0)"/>
       <use xlink:href="#IBMPlexSans-30" transform="translate(119.999969 0)"/>
      </g>
     </g>
    </g>
    <g id="text_7">
     <!-- Time [ps] -->
     <g transform="translate(276.444291 302.94952) scale(0.1 -0.1)">
      <defs>
       <path id="IBMPlexSans-54" d="M 3520 3994 
L 3520 4467 
L 141 4467 
L 141 3994 
L 1562 3994 
L 1562 0 
L 2099 0 
L 2099 3994 
L 3520 3994 
z
" transform="scale(0.015625)"/>
       <path id="IBMPlexSans-69" d="M 800 4077 
C 1018 4077 1114 4192 1114 4365 
L 1114 4448 
C 1114 4621 1018 4736 800 4736 
C 582 4736 486 4621 486 4448 
L 486 4365 
C 486 4192 582 4077 800 4077 
z
M 544 0 
L 1056 0 
L 1056 3302 
L 544 3302 
L 544 0 
z
" transform="scale(0.015625)"/>
       <path id="IBMPlexSans-6d" d="M 1056 0 
L 1056 2291 
C 1056 2714 1440 2918 1843 2918 
C 2330 2918 2554 2618 2554 2029 
L 2554 0 
L 3066 0 
L 3066 2291 
C 3066 2714 3437 2918 3840 2918 
C 4339 2918 4563 2611 4563 2029 
L 4563 0 
L 5075 0 
L 5075 2118 
C 5075 2918 4672 3379 4000 3379 
C 3437 3379 3117 3066 2995 2707 
L 2982 2707 
C 2803 3181 2406 3379 1971 3379 
C 1459 3379 1229 3104 1082 2765 
L 1056 2765 
L 1056 3302 
L 544 3302 
L 544 0 
L 1056 0 
z
" transform="scale(0.015625)"/>
       <path id="IBMPlexSans-65" d="M 1786 -77 
C 2406 -77 2880 230 3091 678 
L 2726 941 
C 2554 576 2234 371 1818 371 
C 1203 371 838 800 838 1370 
L 838 1523 
L 3213 1523 
L 3213 1766 
C 3213 2701 2669 3379 1786 3379 
C 890 3379 301 2701 301 1651 
C 301 602 890 -77 1786 -77 
z
M 1786 2950 
C 2310 2950 2662 2560 2662 1978 
L 2662 1907 
L 838 1907 
L 838 1952 
C 838 2528 1229 2950 1786 2950 
z
" transform="scale(0.015625)"/>
       <path id="IBMPlexSans-20" transform="scale(0.015625)"/>
       <path id="IBMPlexSans-5b" d="M 1645 -883 
L 1645 -480 
L 1037 -480 
L 1037 4461 
L 1645 4461 
L 1645 4864 
L 595 4864 
L 595 -883 
L 1645 -883 
z
" transform="scale(0.015625)"/>
       <path id="IBMPlexSans-70" d="M 544 -1280 
L 1056 -1280 
L 1056 538 
L 1082 538 
C 1280 128 1594 -77 2048 -77 
C 2874 -77 3392 595 3392 1651 
C 3392 2707 2874 3379 2048 3379 
C 1594 3379 1254 3181 1082 2765 
L 1056 2765 
L 1056 3302 
L 544 3302 
L 544 -1280 
z
M 1907 384 
C 1440 384 1056 627 1056 1056 
L 1056 2285 
C 1056 2650 1440 2918 1907 2918 
C 2483 2918 2842 2522 2842 1933 
L 2842 1370 
C 2842 781 2483 384 1907 384 
z
" transform="scale(0.015625)"/>
       <path id="IBMPlexSans-73" d="M 1536 -77 
C 2291 -77 2758 314 2758 954 
C 2758 1453 2477 1773 1747 1882 
L 1491 1920 
C 1082 1984 858 2112 858 2432 
C 858 2746 1082 2944 1504 2944 
C 1926 2944 2208 2746 2355 2541 
L 2694 2848 
C 2426 3181 2074 3379 1542 3379 
C 870 3379 365 3059 365 2406 
C 365 1792 819 1542 1427 1453 
L 1690 1414 
C 2125 1350 2266 1152 2266 896 
C 2266 557 2010 358 1574 358 
C 1158 358 851 544 595 864 
L 230 570 
C 525 179 928 -77 1536 -77 
z
" transform="scale(0.015625)"/>
       <path id="IBMPlexSans-5d" d="M 384 4864 
L 384 4461 
L 992 4461 
L 992 -480 
L 384 -480 
L 384 -883 
L 1434 -883 
L 1434 4864 
L 384 4864 
z
" transform="scale(0.015625)"/>
      </defs>
      <use xlink:href="#IBMPlexSans-54"/>
      <use xlink:href="#IBMPlexSans-69" transform="translate(57.199997 0)"/>
      <use xlink:href="#IBMPlexSans-6d" transform="translate(82.199982 0)"/>
      <use xlink:href="#IBMPlexSans-65" transform="translate(169.499969 0)"/>
      <use xlink:href="#IBMPlexSans-20" transform="translate(224.399963 0)"/>
      <use xlink:href="#IBMPlexSans-5b" transform="translate(247.999954 0)"/>
      <use xlink:href="#IBMPlexSans-70" transform="translate(279.699951 0)"/>
      <use xlink:href="#IBMPlexSans-73" transform="translate(337.699936 0)"/>
      <use xlink:href="#IBMPlexSans-5d" transform="translate(386.399933 0)"/>
     </g>
    </g>
   </g>
   <g id="matplotlib.axis_2">
    <g id="ytick_1">
     <g id="line2d_7">
      <defs>
       <path id="m082607e789" d="M 0 0 
L -3.5 0 
" style="stroke: #000000; stroke-width: 0.8"/>
      </defs>
      <g>
       <use xlink:href="#m082607e789" x="53.5" y="251.146783" style="stroke: #000000; stroke-width: 0.8"/>
      </g>
     </g>
     <g id="text_8">
      <!-- 980 -->
      <g transform="translate(28.5 254.846783) scale(0.1 -0.1)">
       <defs>
        <path id="IBMPlexSans-39" d="M 3411 2829 
C 3411 3891 2842 4544 1914 4544 
C 1018 4544 429 3942 429 3066 
C 429 2221 979 1690 1747 1690 
C 2291 1690 2611 1965 2822 2330 
L 2854 2317 
C 2611 1280 2080 698 1126 0 
L 1818 0 
C 2534 467 3411 1504 3411 2829 
z
M 1920 2144 
C 1331 2144 986 2483 986 3085 
L 986 3136 
C 986 3738 1331 4077 1920 4077 
C 2509 4077 2854 3738 2854 3136 
L 2854 3085 
C 2854 2483 2509 2144 1920 2144 
z
" transform="scale(0.015625)"/>
       </defs>
       <use xlink:href="#IBMPlexSans-39"/>
       <use xlink:href="#IBMPlexSans-38" transform="translate(59.999985 0)"/>
       <use xlink:href="#IBMPlexSans-30" transform="translate(119.999969 0)"/>
      </g>
     </g>
    </g>
    <g id="ytick_2">
     <g id="line2d_8">
      <g>
       <use xlink:href="#m082607e789" x="53.5" y="212.193706" style="stroke: #000000; stroke-width: 0.8"/>
      </g>
     </g>
     <g id="text_9">
      <!-- 985 -->
      <g transform="translate(28.5 215.893706) scale(0.1 -0.1)">
       <defs>
        <path id="IBMPlexSans-35" d="M 3187 4467 
L 794 4467 
L 634 2010 
L 1088 1946 
C 1274 2150 1478 2323 1888 2323 
C 2496 2323 2822 1984 2822 1395 
L 2822 1331 
C 2822 742 2496 403 1888 403 
C 1350 403 1126 640 896 992 
L 493 685 
C 762 301 1146 -77 1888 -77 
C 2829 -77 3392 531 3392 1402 
C 3392 2266 2829 2784 2061 2784 
C 1594 2784 1357 2592 1146 2291 
L 1101 2291 
L 1229 3994 
L 3187 3994 
L 3187 4467 
z
" transform="scale(0.015625)"/>
       </defs>
       <use xlink:href="#IBMPlexSans-39"/>
       <use xlink:href="#IBMPlexSans-38" transform="translate(59.999985 0)"/>
       <use xlink:href="#IBMPlexSans-35" transform="translate(119.999969 0)"/>
      </g>
     </g>
    </g>
    <g id="ytick_3">
     <g id="line2d_9">
      <g>
       <use xlink:href="#m082607e789" x="53.5" y="173.240628" style="stroke: #000000; stroke-width: 0.8"/>
      </g>
     </g>
     <g id="text_10">
      <!-- 990 -->
      <g transform="translate(28.5 176.940628) scale(0.1 -0.1)">
       <use xlink:href="#IBMPlexSans-39"/>
       <use xlink:href="#IBMPlexSans-39" transform="translate(59.999985 0)"/>
       <use xlink:href="#IBMPlexSans-30" transform="translate(119.999969 0)"/>
      </g>
     </g>
    </g>
    <g id="ytick_4">
     <g id="line2d_10">
      <g>
       <use xlink:href="#m082607e789" x="53.5" y="134.28755" style="stroke: #000000; stroke-width: 0.8"/>
      </g>
     </g>
     <g id="text_11">
      <!-- 995 -->
      <g transform="translate(28.5 137.98755) scale(0.1 -0.1)">
       <use xlink:href="#IBMPlexSans-39"/>
       <use xlink:href="#IBMPlexSans-39" transform="translate(59.999985 0)"/>
       <use xlink:href="#IBMPlexSans-35" transform="translate(119.999969 0)"/>
      </g>
     </g>
    </g>
    <g id="ytick_5">
     <g id="line2d_11">
      <g>
       <use xlink:href="#m082607e789" x="53.5" y="95.334472" style="stroke: #000000; stroke-width: 0.8"/>
      </g>
     </g>
     <g id="text_12">
      <!-- 1000 -->
      <g transform="translate(22.5 99.034472) scale(0.1 -0.1)">
       <use xlink:href="#IBMPlexSans-31"/>
       <use xlink:href="#IBMPlexSans-30" transform="translate(59.999985 0)"/>
       <use xlink:href="#IBMPlexSans-30" transform="translate(119.999969 0)"/>
       <use xlink:href="#IBMPlexSans-30" transform="translate(179.999954 0)"/>
      </g>
     </g>
    </g>
    <g id="ytick_6">
     <g id="line2d_12">
      <g>
       <use xlink:href="#m082607e789" x="53.5" y="56.381395" style="stroke: #000000; stroke-width: 0.8"/>
      </g>
     </g>
     <g id="text_13">
      <!-- 1005 -->
      <g transform="translate(22.5 60.081395) scale(0.1 -0.1)">
       <use xlink:href="#IBMPlexSans-31"/>
       <use xlink:href="#IBMPlexSans-30" transform="translate(59.999985 0)"/>
       <use xlink:href="#IBMPlexSans-30" transform="translate(119.999969 0)"/>
       <use xlink:href="#IBMPlexSans-35" transform="translate(179.999954 0)"/>
      </g>
     </g>
    </g>
    <g id="text_14">
     <!-- Density [kg m$^{-3}$] -->
     <g transform="translate(16.3 186.03476) rotate(-90) scale(0.1 -0.1)">
      <defs>
       <path id="IBMPlexSans-44" d="M 595 0 
L 2093 0 
C 3206 0 3923 742 3923 2234 
C 3923 3725 3206 4467 2093 4467 
L 595 4467 
L 595 0 
z
M 1133 474 
L 1133 3994 
L 2093 3994 
C 2829 3994 3347 3482 3347 2598 
L 3347 1869 
C 3347 986 2829 474 2093 474 
L 1133 474 
z
" transform="scale(0.015625)"/>
       <path id="IBMPlexSans-6e" d="M 1056 0 
L 1056 2291 
C 1056 2714 1453 2918 1862 2918 
C 2355 2918 2611 2618 2611 2029 
L 2611 0 
L 3123 0 
L 3123 2118 
C 3123 2918 2694 3379 2016 3379 
C 1523 3379 1242 3136 1082 2765 
L 1056 2765 
L 1056 3302 
L 544 3302 
L 544 0 
L 1056 0 
z
" transform="scale(0.015625)"/>
       <path id="IBMPlexSans-74" d="M 1914 0 
L 1914 448 
L 1242 448 
L 1242 2854 
L 1965 2854 
L 1965 3302 
L 1242 3302 
L 1242 4218 
L 781 4218 
L 781 3603 
C 781 3379 710 3302 493 3302 
L 186 3302 
L 186 2854 
L 730 2854 
L 730 544 
C 730 224 922 0 1274 0 
L 1914 0 
z
" transform="scale(0.015625)"/>
       <path id="IBMPlexSans-79" d="M 1779 1056 
L 1600 518 
L 1568 518 
L 1414 1056 
L 621 3302 
L 109 3302 
L 1344 -128 
L 1094 -832 
L 576 -832 
L 576 -1280 
L 838 -1280 
C 1325 -1280 1459 -1165 1606 -768 
L 3085 3302 
L 2579 3302 
L 1779 1056 
z
" transform="scale(0.015625)"/>
       <path id="IBMPlexSans-6b" d="M 544 0 
L 1056 0 
L 1056 1178 
L 1549 1683 
L 2643 0 
L 3264 0 
L 1920 1997 
L 3142 3302 
L 2522 3302 
L 1587 2298 
L 1082 1734 
L 1056 1734 
L 1056 4736 
L 544 4736 
L 544 0 
z
" transform="scale(0.015625)"/>
       <path id="IBMPlexSans-67" d="M 3328 -365 
C 3328 179 2976 512 2157 512 
L 1453 512 
C 1152 512 947 563 947 762 
C 947 966 1165 1075 1382 1133 
C 1478 1114 1594 1101 1702 1101 
C 2458 1101 2950 1568 2950 2240 
C 2950 2592 2810 2886 2573 3091 
L 2573 3302 
L 3200 3302 
L 3200 3750 
L 2707 3750 
C 2432 3750 2323 3565 2323 3309 
L 2323 3251 
C 2144 3334 1933 3379 1696 3379 
C 947 3379 454 2912 454 2240 
C 454 1779 685 1414 1075 1229 
L 1075 1203 
C 742 1120 506 960 506 627 
C 506 403 614 256 800 166 
L 800 96 
C 474 6 275 -186 275 -544 
C 275 -1062 698 -1357 1728 -1357 
C 2790 -1357 3328 -1043 3328 -365 
z
M 2848 -403 
C 2848 -762 2515 -941 1946 -941 
L 1472 -941 
C 954 -941 755 -704 755 -416 
C 755 -211 851 -64 1062 32 
L 2163 32 
C 2675 32 2848 -141 2848 -403 
z
M 1702 1510 
C 1267 1510 992 1715 992 2150 
L 992 2330 
C 992 2765 1267 2970 1702 2970 
C 2138 2970 2413 2765 2413 2330 
L 2413 2150 
C 2413 1715 2138 1510 1702 1510 
z
" transform="scale(0.015625)"/>
       <path id="DejaVuSans-2212" d="M 678 2272 
L 4684 2272 
L 4684 1741 
L 678 1741 
L 678 2272 
z
" transform="scale(0.015625)"/>
       <path id="DejaVuSans-33" d="M 2597 2516 
Q 3050 2419 3304 2112 
Q 3559 1806 3559 1356 
Q 3559 666 3084 287 
Q 2609 -91 1734 -91 
Q 1441 -91 1130 -33 
Q 819 25 488 141 
L 488 750 
Q 750 597 1062 519 
Q 1375 441 1716 441 
Q 2309 441 2620 675 
Q 2931 909 2931 1356 
Q 2931 1769 2642 2001 
Q 2353 2234 1838 2234 
L 1294 2234 
L 1294 2753 
L 1863 2753 
Q 2328 2753 2575 2939 
Q 2822 3125 2822 3475 
Q 2822 3834 2567 4026 
Q 2313 4219 1838 4219 
Q 1578 4219 1281 4162 
Q 984 4106 628 3988 
L 628 4550 
Q 988 4650 1302 4700 
Q 1616 4750 1894 4750 
Q 2613 4750 3031 4423 
Q 3450 4097 3450 3541 
Q 3450 3153 3228 2886 
Q 3006 2619 2597 2516 
z
" transform="scale(0.015625)"/>
      </defs>
      <use xlink:href="#IBMPlexSans-44" transform="translate(0 0.765625)"/>
      <use xlink:href="#IBMPlexSans-65" transform="translate(67.099991 0.765625)"/>
      <use xlink:href="#IBMPlexSans-6e" transform="translate(121.999985 0.765625)"/>
      <use xlink:href="#IBMPlexSans-73" transform="translate(178.799973 0.765625)"/>
      <use xlink:href="#IBMPlexSans-69" transform="translate(227.499969 0.765625)"/>
      <use xlink:href="#IBMPlexSans-74" transform="translate(252.499954 0.765625)"/>
      <use xlink:href="#IBMPlexSans-79" transform="translate(287.599945 0.765625)"/>
      <use xlink:href="#IBMPlexSans-20" transform="translate(337.499939 0.765625)"/>
      <use xlink:href="#IBMPlexSans-5b" transform="translate(361.09993 0.765625)"/>
      <use xlink:href="#IBMPlexSans-6b" transform="translate(392.799927 0.765625)"/>
      <use xlink:href="#IBMPlexSans-67" transform="translate(445.499924 0.765625)"/>
      <use xlink:href="#IBMPlexSans-20" transform="translate(498.299911 0.765625)"/>
      <use xlink:href="#IBMPlexSans-6d" transform="translate(521.899902 0.765625)"/>
      <use xlink:href="#DejaVuSans-2212" transform="translate(610.156921 39.046875) scale(0.7)"/>
      <use xlink:href="#DejaVuSans-33" transform="translate(668.809265 39.046875) scale(0.7)"/>
      <use xlink:href="#IBMPlexSans-5d" transform="translate(716.079773 0.765625)"/>
     </g>
    </g>
   </g>
   <g id="line2d_13">
    <path d="M 75.66816 115.332161 
L 77.884976 84.162376 
L 80.101792 68.063514 
L 82.318608 75.979258 
L 84.535424 77.748718 
L 86.75224 92.495063 
L 88.969056 50.744611 
L 91.185872 80.307462 
L 93.402688 93.390789 
L 95.619504 92.620049 
L 97.83632 88.550256 
L 100.053136 114.309738 
L 102.269952 110.687843 
L 104.486768 97.486996 
L 106.703584 96.61778 
L 108.9204 112.643367 
L 111.137216 65.814749 
L 113.354032 62.509158 
L 115.570848 108.285111 
L 117.787664 42.253201 
L 120.00448 114.841729 
L 122.221296 69.089408 
L 124.438112 92.548819 
L 126.654928 78.22769 
L 128.871744 101.626593 
L 131.08856 117.133527 
L 133.305376 111.152266 
L 135.522192 97.581145 
L 137.739008 93.63232 
L 139.955824 80.53537 
L 142.17264 89.299622 
L 144.389456 108.104111 
L 146.606272 107.457691 
L 148.823088 47.826815 
L 151.039904 81.900463 
L 153.25672 88.081435 
L 155.473536 96.131841 
L 157.690352 81.391391 
L 159.907168 117.028179 
L 162.123984 83.337595 
L 164.3408 111.350288 
L 166.557616 91.871491 
L 168.774432 60.587562 
L 170.991248 65.24177 
L 173.208064 103.494434 
L 175.42488 93.853832 
L 177.641696 80.349068 
L 179.858512 103.617161 
L 182.075328 123.050643 
L 184.292144 111.210039 
L 186.50896 85.244712 
L 188.725776 41.219223 
L 190.942592 85.716457 
L 193.159408 104.00265 
L 195.376224 63.62573 
L 197.59304 105.691179 
L 199.809856 102.103021 
L 202.026672 105.260018 
L 204.243488 123.5634 
L 206.460304 62.174143 
L 208.67712 123.382876 
L 210.893936 87.188966 
L 213.110752 84.870207 
L 215.327568 100.53729 
L 217.544384 78.603289 
L 219.7612 95.246005 
L 221.978016 126.18434 
L 224.194832 106.807894 
L 226.411648 97.824674 
L 228.628464 99.148089 
L 230.84528 82.420614 
L 233.062096 77.788446 
L 235.278912 91.209735 
L 237.495728 80.316853 
L 239.712544 94.889047 
L 241.92936 144.774972 
L 244.146176 96.918796 
L 246.362992 84.664173 
L 248.579808 97.315697 
L 253.01344 68.910097 
L 255.230256 117.30989 
L 257.447072 131.48271 
L 259.663888 94.659784 
L 261.880704 49.506215 
L 264.09752 81.000339 
L 266.314336 83.863785 
L 268.531152 76.263869 
L 270.747968 88.617064 
L 272.964784 63.631056 
L 275.1816 134.838133 
L 277.398416 73.920123 
L 279.615232 100.879485 
L 281.832048 74.535731 
L 284.048864 101.373388 
L 286.26568 125.878307 
L 288.482496 116.706598 
L 290.699312 108.871927 
L 292.916128 113.275094 
L 295.132944 72.034807 
L 297.34976 116.326934 
L 299.566576 87.829253 
L 301.783392 108.816602 
L 304.000208 74.712118 
L 306.217024 61.583024 
L 308.43384 79.538838 
L 310.650656 33.80316 
L 312.867472 102.557815 
L 315.084288 59.435469 
L 317.301104 86.517796 
L 319.51792 94.06253 
L 321.734736 81.724861 
L 323.951552 53.841813 
L 326.168368 51.341912 
L 328.385184 88.391581 
L 330.602 85.159217 
L 332.818816 76.729266 
L 335.035632 71.158149 
L 337.252448 104.805867 
L 339.469264 95.730232 
L 341.68608 106.145568 
L 343.902896 81.640269 
L 346.119712 83.199581 
L 348.336528 91.588211 
L 350.553344 100.679489 
L 352.77016 70.44328 
L 354.986976 103.998965 
L 357.203792 114.872589 
L 359.420608 97.163703 
L 361.637424 105.306166 
L 363.85424 75.396317 
L 366.071056 108.762538 
L 368.287872 86.563088 
L 370.504688 79.367372 
L 372.721504 81.739696 
L 374.93832 90.485475 
L 377.155136 83.594936 
L 379.371952 98.630268 
L 381.588768 103.570728 
L 383.805584 134.806774 
L 386.0224 102.231431 
L 388.239216 103.017292 
L 390.456032 125.976807 
L 392.672848 91.551549 
L 394.889664 75.440586 
L 397.10648 89.929804 
L 399.323296 115.566179 
L 401.540112 99.377352 
L 403.756928 85.523118 
L 405.973744 121.616982 
L 408.19056 81.121449 
L 410.407376 95.043204 
L 412.624192 90.741699 
L 414.841008 114.806732 
L 417.057824 97.810408 
L 419.27464 106.381702 
L 421.491456 104.861619 
L 423.708272 107.811678 
L 425.925088 112.008144 
L 428.141904 86.878464 
L 430.35872 67.225538 
L 432.575536 129.635934 
L 434.792352 96.582735 
L 437.009168 113.960672 
L 439.225984 93.264971 
L 441.4428 84.096614 
L 443.659616 53.870391 
L 445.876432 104.667044 
L 448.093248 92.728915 
L 450.310064 72.910966 
L 452.52688 94.859351 
L 454.743696 82.440038 
L 456.960512 113.158596 
L 459.177328 99.42243 
L 461.394144 46.079704 
L 463.61096 55.324355 
L 465.827776 97.811526 
L 468.044592 119.593343 
L 470.261408 91.983495 
L 472.478224 108.33102 
L 474.69504 99.715553 
L 476.911856 112.893671 
L 479.128672 96.102669 
L 481.345488 93.746535 
L 483.562304 92.541306 
L 485.77912 79.993655 
L 487.995936 70.41998 
L 490.212752 81.461243 
L 492.429568 98.55269 
L 494.646384 80.183261 
L 496.8632 98.429606 
L 499.080016 81.095154 
L 503.513648 112.185649 
L 505.730464 98.264203 
L 507.94728 98.106361 
L 510.164096 111.358181 
L 512.380912 89.159492 
L 514.597728 75.003672 
L 516.814544 80.223964 
L 519.03136 74.038974 
L 519.03136 74.038974 
" clip-path="url(#p86c1d7c8e0)" style="fill: none; stroke: #1f77b4; stroke-width: 1.5; stroke-linecap: square"/>
   </g>
   <g id="line2d_14">
    <path d="M 75.66816 115.332161 
L 77.884976 99.048804 
L 80.101792 100.02168 
L 82.318608 124.308487 
L 84.535424 104.834516 
L 86.75224 126.214677 
L 88.969056 87.56088 
L 91.185872 92.732338 
L 93.402688 105.65856 
L 95.619504 126.655942 
L 97.83632 98.346394 
L 100.053136 138.165074 
L 102.269952 123.161673 
L 104.486768 98.752852 
L 106.703584 113.66686 
L 108.9204 120.175428 
L 111.137216 105.058667 
L 113.354032 77.792844 
L 115.570848 135.687712 
L 117.787664 123.252303 
L 120.00448 129.293264 
L 122.221296 98.464984 
L 124.438112 117.964347 
L 126.654928 84.556852 
L 128.871744 114.345115 
L 131.08856 130.404415 
L 133.305376 131.914703 
L 135.522192 117.414857 
L 137.739008 98.088387 
L 139.955824 121.516723 
L 142.17264 98.888751 
L 144.389456 127.530009 
L 146.606272 115.003114 
L 148.823088 82.847805 
L 151.039904 102.893138 
L 153.25672 118.596098 
L 155.473536 109.151403 
L 157.690352 98.584144 
L 159.907168 122.497968 
L 162.123984 103.00878 
L 164.3408 130.042749 
L 168.774432 84.997832 
L 170.991248 129.018043 
L 173.208064 121.088581 
L 175.42488 113.827674 
L 177.641696 86.971258 
L 179.858512 116.846158 
L 182.075328 151.22862 
L 184.292144 146.192585 
L 186.50896 129.44124 
L 188.725776 88.086975 
L 190.942592 105.642298 
L 193.159408 113.594774 
L 195.376224 71.078574 
L 197.59304 123.447924 
L 199.809856 121.694655 
L 202.026672 110.782373 
L 204.243488 137.526191 
L 206.460304 107.506073 
L 208.67712 131.7459 
L 210.893936 116.795089 
L 213.110752 114.789328 
L 215.327568 123.124203 
L 217.544384 106.261591 
L 219.7612 108.221132 
L 221.978016 144.644352 
L 224.194832 122.688644 
L 226.411648 103.818845 
L 228.628464 116.568845 
L 230.84528 99.944459 
L 233.062096 106.2226 
L 235.278912 104.221214 
L 237.495728 114.949763 
L 239.712544 108.408575 
L 241.92936 162.341755 
L 244.146176 140.618186 
L 246.362992 104.585638 
L 248.579808 107.347256 
L 250.796624 109.445358 
L 253.01344 103.110538 
L 255.230256 130.613826 
L 257.447072 152.118949 
L 259.663888 121.144405 
L 261.880704 88.141848 
L 264.09752 120.205195 
L 266.314336 115.628303 
L 268.531152 104.538373 
L 270.747968 96.527125 
L 272.964784 91.038222 
L 275.1816 149.752283 
L 277.398416 103.042921 
L 279.615232 109.09672 
L 281.832048 100.161668 
L 284.048864 142.941771 
L 286.26568 130.881724 
L 288.482496 145.194888 
L 290.699312 137.178979 
L 292.916128 131.507579 
L 295.132944 106.745651 
L 297.34976 132.74179 
L 299.566576 110.616613 
L 301.783392 115.209101 
L 304.000208 105.475111 
L 306.217024 82.859978 
L 308.43384 106.861578 
L 310.650656 78.750219 
L 312.867472 134.074621 
L 315.084288 74.317024 
L 317.301104 126.076782 
L 319.51792 106.513036 
L 321.734736 92.0887 
L 323.951552 82.455041 
L 326.168368 91.191143 
L 330.602 110.958309 
L 332.818816 112.217627 
L 335.035632 85.387553 
L 337.252448 116.843114 
L 339.469264 130.148215 
L 341.68608 112.544581 
L 343.902896 100.079406 
L 346.119712 118.928854 
L 348.336528 117.030747 
L 350.553344 126.929451 
L 352.77016 98.298844 
L 354.986976 118.312699 
L 357.203792 129.298494 
L 359.420608 111.07338 
L 361.637424 132.425392 
L 363.85424 98.320526 
L 366.071056 127.894719 
L 368.287872 128.148827 
L 370.504688 98.62751 
L 372.721504 107.437601 
L 374.93832 96.392083 
L 377.155136 92.26435 
L 379.371952 103.13184 
L 381.588768 116.485062 
L 383.805584 164.073626 
L 386.0224 109.196576 
L 388.239216 123.424244 
L 390.456032 142.941581 
L 392.672848 116.44046 
L 394.889664 97.527866 
L 397.10648 102.69514 
L 399.323296 127.174239 
L 401.540112 125.192729 
L 403.756928 108.719933 
L 405.973744 122.163024 
L 408.19056 93.373695 
L 410.407376 123.611782 
L 412.624192 131.602203 
L 414.841008 131.48057 
L 417.057824 121.261949 
L 419.27464 138.788171 
L 421.491456 121.310355 
L 423.708272 134.714265 
L 425.925088 141.603425 
L 428.141904 105.637162 
L 430.35872 90.959289 
L 432.575536 139.437897 
L 434.792352 118.412079 
L 437.009168 125.598047 
L 439.225984 112.128803 
L 441.4428 110.528265 
L 443.659616 72.257437 
L 445.876432 124.3257 
L 448.093248 109.184593 
L 450.310064 98.497603 
L 452.52688 123.644116 
L 454.743696 113.34 
L 456.960512 116.165525 
L 459.177328 121.269747 
L 461.394144 98.569784 
L 463.61096 104.434809 
L 465.827776 104.372138 
L 468.044592 138.346145 
L 470.261408 100.600366 
L 472.478224 113.613128 
L 474.69504 121.422288 
L 476.911856 132.412933 
L 479.128672 117.150954 
L 481.345488 105.628508 
L 483.562304 95.042324 
L 485.77912 87.614992 
L 487.995936 99.473903 
L 490.212752 97.769991 
L 492.429568 118.499096 
L 494.646384 144.003947 
L 496.8632 114.215969 
L 499.080016 101.173155 
L 503.513648 126.815996 
L 505.730464 129.270439 
L 507.94728 131.243961 
L 510.164096 119.652377 
L 512.380912 107.08107 
L 514.597728 83.62135 
L 516.814544 114.112119 
L 519.03136 99.995242 
L 519.03136 99.995242 
" clip-path="url(#p86c1d7c8e0)" style="fill: none; stroke: #ff7f0e; stroke-width: 1.5; stroke-linecap: square"/>
   </g>
   <g id="line2d_15">
    <path d="M 75.66816 115.332161 
L 77.884976 120.182513 
L 80.101792 132.123068 
L 82.318608 133.744052 
L 84.535424 146.509126 
L 86.75224 142.493992 
L 88.969056 131.243628 
L 91.185872 135.144879 
L 93.402688 135.629415 
L 95.619504 153.738888 
L 97.83632 109.312313 
L 100.053136 152.296454 
L 102.269952 143.731722 
L 104.486768 126.839058 
L 106.703584 140.52494 
L 108.9204 144.764987 
L 111.137216 114.793418 
L 113.354032 120.964475 
L 115.570848 155.130918 
L 117.787664 167.515591 
L 120.00448 137.275364 
L 122.221296 168.200788 
L 124.438112 160.450828 
L 126.654928 118.908883 
L 128.871744 137.651961 
L 131.08856 140.635019 
L 133.305376 165.964505 
L 135.522192 144.478973 
L 137.739008 140.86635 
L 139.955824 144.466372 
L 142.17264 123.695993 
L 144.389456 139.976687 
L 146.606272 151.932458 
L 148.823088 130.383683 
L 151.039904 131.027275 
L 153.25672 131.967816 
L 155.473536 131.917413 
L 157.690352 119.764548 
L 159.907168 157.224313 
L 162.123984 128.434365 
L 164.3408 141.86847 
L 166.557616 131.69892 
L 168.774432 109.278077 
L 170.991248 142.4424 
L 173.208064 145.280668 
L 175.42488 134.141334 
L 177.641696 122.416181 
L 179.858512 150.496681 
L 182.075328 196.528311 
L 184.292144 168.729308 
L 186.50896 171.038343 
L 188.725776 125.35906 
L 190.942592 118.873696 
L 193.159408 137.201899 
L 195.376224 114.9898 
L 197.59304 151.833316 
L 199.809856 146.048603 
L 202.026672 139.728951 
L 204.243488 179.89741 
L 206.460304 128.925083 
L 208.67712 146.756624 
L 210.893936 169.316315 
L 213.110752 130.958802 
L 215.327568 170.363844 
L 217.544384 131.862255 
L 219.7612 143.177287 
L 221.978016 172.639356 
L 224.194832 133.741675 
L 226.411648 138.919885 
L 228.628464 140.197082 
L 230.84528 119.477582 
L 233.062096 122.57381 
L 235.278912 150.909178 
L 237.495728 135.363848 
L 239.712544 165.050116 
L 241.92936 185.522592 
L 244.146176 156.324664 
L 246.362992 148.226637 
L 248.579808 137.510974 
L 250.796624 128.726561 
L 253.01344 124.578286 
L 255.230256 145.720269 
L 257.447072 164.63952 
L 259.663888 166.638291 
L 261.880704 138.777235 
L 264.09752 157.974654 
L 266.314336 139.242513 
L 268.531152 132.410033 
L 270.747968 117.566304 
L 272.964784 132.865088 
L 275.1816 159.343623 
L 277.398416 134.319409 
L 279.615232 140.921509 
L 281.832048 157.63895 
L 284.048864 158.929699 
L 286.26568 157.352461 
L 288.482496 171.151512 
L 290.699312 162.975027 
L 292.916128 174.666895 
L 295.132944 137.159579 
L 297.34976 161.229462 
L 299.566576 128.89156 
L 301.783392 140.667829 
L 304.000208 161.249433 
L 306.217024 131.638769 
L 308.43384 118.152835 
L 310.650656 132.837509 
L 312.867472 153.62548 
L 315.084288 140.12861 
L 317.301104 157.504146 
L 319.51792 152.705385 
L 321.734736 134.532433 
L 323.951552 139.297671 
L 326.168368 117.966914 
L 328.385184 152.184949 
L 330.602 141.305238 
L 332.818816 131.549851 
L 335.035632 99.284225 
L 337.252448 151.13837 
L 339.469264 162.368525 
L 341.68608 130.552962 
L 343.902896 135.686951 
L 346.119712 136.903284 
L 348.336528 140.507585 
L 350.553344 144.788286 
L 352.77016 123.884768 
L 354.986976 141.352313 
L 357.203792 141.161875 
L 359.420608 143.127835 
L 361.637424 150.034494 
L 363.85424 117.595072 
L 366.071056 136.544042 
L 368.287872 145.790168 
L 370.504688 115.520697 
L 372.721504 123.435181 
L 374.93832 122.294215 
L 377.155136 131.510622 
L 379.371952 137.569937 
L 381.588768 139.847589 
L 383.805584 184.377585 
L 386.0224 122.111385 
L 388.239216 161.402069 
L 390.456032 164.627633 
L 392.672848 151.677351 
L 394.889664 122.152991 
L 397.10648 134.243091 
L 399.323296 140.917942 
L 401.540112 165.916242 
L 403.756928 176.196583 
L 405.973744 136.644135 
L 408.19056 148.923722 
L 410.407376 142.627608 
L 412.624192 171.562346 
L 414.841008 146.4019 
L 417.057824 167.609027 
L 419.27464 157.565961 
L 421.491456 144.08288 
L 423.708272 163.875152 
L 425.925088 154.712239 
L 428.141904 155.595958 
L 430.35872 127.463391 
L 432.575536 184.677626 
L 434.792352 135.641541 
L 437.009168 154.454993 
L 439.225984 158.962509 
L 441.4428 135.584718 
L 443.659616 131.352518 
L 445.876432 144.895274 
L 448.093248 150.977651 
L 450.310064 133.784707 
L 452.52688 162.812406 
L 454.743696 133.883374 
L 456.960512 132.841075 
L 459.177328 138.972904 
L 461.394144 139.371849 
L 463.61096 149.05401 
L 465.827776 137.057108 
L 468.044592 147.880948 
L 470.261408 149.305312 
L 472.478224 150.32027 
L 474.69504 141.778838 
L 476.911856 163.636925 
L 479.128672 137.690476 
L 481.345488 136.739711 
L 483.562304 109.899082 
L 485.77912 146.595905 
L 487.995936 158.5279 
L 490.212752 127.313608 
L 492.429568 141.784068 
L 494.646384 160.365951 
L 496.8632 138.608907 
L 499.080016 140.477152 
L 501.296832 159.625358 
L 503.513648 147.689083 
L 505.730464 144.844633 
L 507.94728 164.905326 
L 510.164096 133.05933 
L 512.380912 162.936512 
L 514.597728 158.556668 
L 516.814544 150.229925 
L 519.03136 145.480854 
L 519.03136 145.480854 
" clip-path="url(#p86c1d7c8e0)" style="fill: none; stroke: #2ca02c; stroke-width: 1.5; stroke-linecap: square"/>
   </g>
   <g id="line2d_16">
    <path d="M 75.66816 115.332161 
L 77.884976 148.50647 
L 80.101792 158.73346 
L 82.318608 151.433086 
L 84.535424 173.283043 
L 86.75224 189.519325 
L 88.969056 160.425199 
L 91.185872 181.212124 
L 93.402688 155.496246 
L 95.619504 203.632017 
L 97.83632 131.763494 
L 100.053136 172.294761 
L 102.269952 167.768748 
L 104.486768 193.832788 
L 106.703584 165.619386 
L 108.9204 183.506229 
L 111.137216 148.951729 
L 113.354032 161.592364 
L 115.570848 211.773648 
L 117.787664 185.631054 
L 120.00448 153.558102 
L 122.221296 196.110535 
L 124.438112 197.864945 
L 126.654928 147.001222 
L 128.871744 175.458937 
L 131.08856 166.873474 
L 133.305376 195.113504 
L 135.522192 170.613673 
L 137.739008 177.160186 
L 139.955824 168.423513 
L 142.17264 180.85293 
L 144.389456 158.875825 
L 146.606272 171.076716 
L 148.823088 145.76644 
L 153.25672 147.280152 
L 155.473536 190.361533 
L 157.690352 136.106058 
L 159.907168 171.21756 
L 162.123984 147.436877 
L 164.3408 158.993939 
L 166.557616 168.774148 
L 168.774432 142.227283 
L 170.991248 179.501746 
L 173.208064 179.377925 
L 175.42488 157.886687 
L 177.641696 163.458137 
L 179.858512 185.798241 
L 182.075328 213.53462 
L 184.292144 215.345234 
L 186.50896 211.779164 
L 188.725776 144.2727 
L 190.942592 178.559967 
L 193.159408 151.206177 
L 195.376224 131.904242 
L 197.59304 171.029927 
L 199.809856 175.198362 
L 202.026672 167.825332 
L 204.243488 200.693608 
L 206.460304 155.79857 
L 210.893936 189.969244 
L 213.110752 164.815408 
L 215.327568 198.832686 
L 217.544384 175.278627 
L 219.7612 175.553657 
L 221.978016 207.359758 
L 224.194832 140.9634 
L 226.411648 166.828871 
L 228.628464 183.240709 
L 230.84528 171.589211 
L 233.062096 147.180582 
L 235.278912 174.057635 
L 237.495728 148.595769 
L 239.712544 190.155926 
L 241.92936 194.424788 
L 244.146176 173.225983 
L 246.362992 175.145962 
L 248.579808 215.723733 
L 250.796624 154.503494 
L 253.01344 154.302927 
L 255.230256 180.279 
L 257.447072 169.533238 
L 259.663888 175.334356 
L 261.880704 161.229557 
L 264.09752 180.28851 
L 266.314336 184.103744 
L 268.531152 151.40874 
L 270.747968 174.662377 
L 272.964784 168.034363 
L 275.1816 172.776348 
L 277.398416 143.8321 
L 279.615232 161.199505 
L 281.832048 189.909426 
L 284.048864 187.526213 
L 286.26568 189.137877 
L 288.482496 176.24865 
L 290.699312 208.462351 
L 292.916128 213.934231 
L 295.132944 180.902002 
L 297.34976 185.680126 
L 299.566576 147.843526 
L 304.000208 175.724172 
L 306.217024 170.519333 
L 308.43384 142.255338 
L 310.650656 187.790211 
L 312.867472 178.403337 
L 315.084288 195.811064 
L 317.301104 174.312503 
L 319.51792 186.709777 
L 323.951552 165.849243 
L 326.168368 162.799663 
L 328.385184 212.49156 
L 330.602 153.615162 
L 332.818816 186.344687 
L 335.035632 187.153515 
L 337.252448 167.910732 
L 339.469264 194.31295 
L 341.68608 146.172518 
L 343.902896 185.161259 
L 346.119712 179.082639 
L 348.336528 186.124054 
L 350.553344 163.002416 
L 352.77016 145.550753 
L 354.986976 154.027422 
L 357.203792 166.671766 
L 359.420608 174.392388 
L 361.637424 162.758674 
L 363.85424 161.202643 
L 366.071056 173.016191 
L 368.287872 189.597022 
L 370.504688 155.146847 
L 372.721504 174.398664 
L 374.93832 164.18185 
L 377.155136 181.539745 
L 379.371952 164.155793 
L 381.588768 164.58051 
L 383.805584 204.25112 
L 386.0224 166.673383 
L 388.239216 199.541563 
L 390.456032 182.740196 
L 392.672848 171.881264 
L 394.889664 167.445121 
L 397.10648 157.670333 
L 399.323296 202.457528 
L 401.540112 186.778154 
L 403.756928 184.817471 
L 405.973744 152.339201 
L 408.19056 180.915316 
L 410.407376 148.992622 
L 412.624192 198.195419 
L 414.841008 173.22332 
L 417.057824 193.890609 
L 419.27464 169.643935 
L 421.491456 180.374196 
L 423.708272 182.290657 
L 425.925088 180.635246 
L 428.141904 189.556604 
L 430.35872 153.975497 
L 432.575536 190.692387 
L 434.792352 157.456263 
L 437.009168 203.989499 
L 439.225984 184.269218 
L 441.4428 169.087884 
L 443.659616 172.210502 
L 445.876432 172.057771 
L 448.093248 173.521459 
L 450.310064 171.615554 
L 452.52688 202.857806 
L 454.743696 143.818977 
L 456.960512 149.414963 
L 459.177328 162.633427 
L 461.394144 185.438666 
L 463.61096 164.15351 
L 465.827776 153.336043 
L 468.044592 177.745338 
L 470.261408 177.489233 
L 472.478224 192.192118 
L 474.69504 168.644621 
L 476.911856 192.148657 
L 479.128672 158.280402 
L 481.345488 173.049286 
L 483.562304 161.198459 
L 485.77912 169.178039 
L 487.995936 176.054931 
L 490.212752 172.20394 
L 492.429568 170.66322 
L 494.646384 192.114041 
L 496.8632 160.608837 
L 499.080016 165.886333 
L 501.296832 181.891235 
L 503.513648 177.598028 
L 505.730464 154.630548 
L 507.94728 181.418682 
L 510.164096 205.781474 
L 512.380912 174.38088 
L 514.597728 205.511199 
L 516.814544 184.093283 
L 519.03136 190.604514 
L 519.03136 190.604514 
" clip-path="url(#p86c1d7c8e0)" style="fill: none; stroke: #d62728; stroke-width: 1.5; stroke-linecap: square"/>
   </g>
   <g id="line2d_17">
    <path d="M 75.66816 115.332161 
L 77.884976 166.360003 
L 80.101792 176.551592 
L 82.318608 187.91396 
L 84.535424 208.824897 
L 86.75224 204.470231 
L 88.969056 176.552709 
L 91.185872 200.28268 
L 93.402688 209.086494 
L 95.619504 213.768614 
L 97.83632 164.247992 
L 100.053136 182.647045 
L 102.269952 184.507349 
L 104.486768 206.799332 
L 106.703584 175.872457 
L 108.9204 200.117895 
L 111.137216 155.088384 
L 113.354032 183.167077 
L 115.570848 228.491589 
L 117.787664 223.460736 
L 120.00448 191.916779 
L 122.221296 209.847439 
L 124.438112 221.235175 
L 126.654928 163.491398 
L 128.871744 208.695751 
L 131.08856 217.720102 
L 133.305376 250.024529 
L 135.522192 185.212589 
L 137.739008 188.593286 
L 139.955824 183.136645 
L 142.17264 198.816329 
L 144.389456 180.426311 
L 146.606272 190.728834 
L 148.823088 184.768613 
L 151.039904 175.175895 
L 153.25672 161.157067 
L 155.473536 205.917966 
L 157.690352 145.418373 
L 159.907168 196.356203 
L 162.123984 160.6052 
L 164.3408 178.994956 
L 166.557616 215.881956 
L 168.774432 157.123673 
L 170.991248 208.882337 
L 173.208064 212.992738 
L 175.42488 192.501028 
L 177.641696 189.009658 
L 179.858512 213.863595 
L 182.075328 217.067548 
L 184.292144 222.414371 
L 186.50896 217.299783 
L 188.725776 160.963324 
L 190.942592 200.849406 
L 193.159408 168.778879 
L 195.376224 186.378994 
L 197.59304 215.565106 
L 199.809856 186.331943 
L 202.026672 182.883393 
L 204.243488 231.909731 
L 206.460304 166.529472 
L 208.67712 185.172766 
L 210.893936 208.682389 
L 213.110752 181.920669 
L 215.327568 199.680148 
L 217.544384 201.845558 
L 219.7612 195.386584 
L 221.978016 233.732946 
L 224.194832 160.822623 
L 226.411648 204.520777 
L 228.628464 218.45984 
L 230.84528 172.880673 
L 233.062096 157.224313 
L 235.278912 184.164322 
L 237.495728 184.897403 
L 239.712544 206.608418 
L 241.92936 213.646339 
L 244.146176 199.221076 
L 246.362992 242.544463 
L 248.579808 241.077874 
L 250.796624 174.871194 
L 253.01344 202.572742 
L 255.230256 192.425684 
L 257.447072 178.862814 
L 259.663888 190.106117 
L 261.880704 196.389036 
L 264.09752 210.377195 
L 266.314336 205.201196 
L 268.531152 173.64333 
L 270.747968 191.679361 
L 272.964784 173.457005 
L 275.1816 193.221389 
L 277.398416 159.232284 
L 279.615232 192.080518 
L 281.832048 201.37329 
L 284.048864 205.546481 
L 286.26568 216.68282 
L 288.482496 186.751882 
L 290.699312 212.099319 
L 292.916128 263.46636 
L 295.132944 204.481524 
L 297.34976 221.936968 
L 299.566576 162.167246 
L 301.783392 181.558028 
L 304.000208 179.101017 
L 306.217024 214.566101 
L 308.43384 165.026959 
L 310.650656 201.13214 
L 312.867472 194.46958 
L 315.084288 220.577723 
L 317.301104 187.934835 
L 319.51792 214.57214 
L 321.734736 218.790218 
L 323.951552 197.63195 
L 326.168368 188.106729 
L 328.385184 229.973156 
L 330.602 174.730921 
L 332.818816 187.936903 
L 335.035632 204.470897 
L 337.252448 205.933729 
L 339.469264 221.379276 
L 341.68608 154.659482 
L 343.902896 193.632222 
L 346.119712 196.535134 
L 348.336528 210.50463 
L 350.553344 219.991216 
L 352.77016 157.567768 
L 354.986976 160.584468 
L 357.203792 171.322336 
L 359.420608 216.794206 
L 361.637424 202.866959 
L 363.85424 176.452878 
L 366.071056 208.441286 
L 368.287872 196.985838 
L 370.504688 190.788319 
L 372.721504 205.981993 
L 374.93832 179.733077 
L 377.155136 212.732853 
L 379.371952 185.025717 
L 381.588768 191.22735 
L 383.805584 223.263855 
L 386.0224 199.432626 
L 388.239216 202.040918 
L 390.456032 205.796 
L 392.672848 195.707334 
L 394.889664 180.943989 
L 397.10648 180.800602 
L 399.323296 204.86844 
L 401.540112 207.480631 
L 403.756928 197.844927 
L 405.973744 159.146599 
L 408.19056 197.366477 
L 410.407376 166.658761 
L 412.624192 237.238818 
L 414.841008 204.796473 
L 417.057824 229.879958 
L 419.27464 178.406 
L 421.491456 210.074776 
L 423.708272 214.676846 
L 425.925088 187.908706 
L 428.141904 241.259563 
L 430.35872 181.737482 
L 432.575536 201.597584 
L 434.792352 199.188955 
L 437.009168 220.59672 
L 439.225984 200.735167 
L 441.4428 172.874064 
L 443.659616 198.773129 
L 445.876432 213.858056 
L 448.093248 192.634311 
L 450.310064 179.15608 
L 452.52688 211.912399 
L 454.743696 157.837757 
L 456.960512 157.94912 
L 459.177328 213.820777 
L 461.394144 222.702311 
L 463.61096 181.716108 
L 465.827776 176.008807 
L 468.044592 187.10682 
L 470.261408 220.762693 
L 472.478224 217.275461 
L 474.69504 209.589456 
L 476.911856 200.288695 
L 479.128672 178.043216 
L 481.345488 184.023479 
L 483.562304 177.935444 
L 485.77912 178.874369 
L 487.995936 194.321984 
L 490.212752 204.178986 
L 492.429568 228.413821 
L 494.646384 222.079452 
L 496.8632 175.573747 
L 499.080016 191.412724 
L 501.296832 194.616034 
L 503.513648 198.260586 
L 505.730464 191.173974 
L 507.94728 229.205768 
L 510.164096 225.90643 
L 512.380912 190.87108 
L 514.597728 214.353671 
L 516.814544 195.60075 
L 519.03136 194.478828 
L 519.03136 194.478828 
" clip-path="url(#p86c1d7c8e0)" style="fill: none; stroke: #9467bd; stroke-width: 1.5; stroke-linecap: square"/>
   </g>
   <g id="line2d_18">
    <path d="M 75.66816 115.332161 
L 77.884976 166.360003 
L 80.101792 176.551592 
L 82.318608 187.91396 
L 84.535424 208.824897 
L 86.75224 204.470231 
L 88.969056 176.552709 
L 91.185872 200.28268 
L 93.402688 209.086494 
L 95.619504 213.768614 
L 97.83632 164.247992 
L 100.053136 182.647045 
L 102.269952 184.507349 
L 104.486768 206.799332 
L 106.703584 175.872457 
L 108.9204 200.117895 
L 111.137216 155.088384 
L 113.354032 183.167077 
L 115.570848 228.491589 
L 117.787664 223.460736 
L 120.00448 191.916779 
L 122.221296 209.847439 
L 124.438112 221.235175 
L 126.654928 163.491398 
L 128.871744 208.695751 
L 131.08856 217.720102 
L 133.305376 250.024529 
L 135.522192 185.212589 
L 137.739008 188.593286 
L 139.955824 183.136645 
L 142.17264 198.816329 
L 144.389456 180.426311 
L 146.606272 190.728834 
L 148.823088 184.768613 
L 151.039904 175.175895 
L 153.25672 161.157067 
L 155.473536 205.917966 
L 157.690352 145.418373 
L 159.907168 196.356203 
L 162.123984 160.6052 
L 164.3408 178.994956 
L 166.557616 215.881956 
L 168.774432 157.123673 
L 170.991248 208.882337 
L 173.208064 212.992738 
L 175.42488 192.501028 
L 177.641696 189.009658 
L 179.858512 213.863595 
L 182.075328 217.067548 
L 184.292144 222.414371 
L 186.50896 217.299783 
L 188.725776 160.963324 
L 190.942592 200.849406 
L 193.159408 168.778879 
L 195.376224 186.378994 
L 197.59304 215.565106 
L 199.809856 186.331943 
L 202.026672 182.883393 
L 204.243488 231.909731 
L 206.460304 166.529472 
L 208.67712 185.172766 
L 210.893936 208.682389 
L 213.110752 181.920669 
L 215.327568 199.680148 
L 217.544384 201.845558 
L 219.7612 195.386584 
L 221.978016 233.732946 
L 224.194832 160.822623 
L 226.411648 204.520777 
L 228.628464 218.45984 
L 230.84528 172.880673 
L 233.062096 157.224313 
L 235.278912 184.164322 
L 237.495728 184.897403 
L 239.712544 206.608418 
L 241.92936 213.646339 
L 244.146176 199.221076 
L 246.362992 242.544463 
L 248.579808 241.077874 
L 250.796624 174.871194 
L 253.01344 202.572742 
L 255.230256 192.425684 
L 257.447072 178.862814 
L 259.663888 190.106117 
L 261.880704 196.389036 
L 264.09752 210.377195 
L 266.314336 205.201196 
L 268.531152 173.64333 
L 270.747968 191.679361 
L 272.964784 173.457005 
L 275.1816 193.221389 
L 277.398416 159.232284 
L 279.615232 192.080518 
L 281.832048 201.37329 
L 284.048864 205.546481 
L 286.26568 216.68282 
L 288.482496 186.751882 
L 290.699312 212.099319 
L 292.916128 263.46636 
L 295.132944 204.481524 
L 297.34976 221.936968 
L 299.566576 162.167246 
L 301.783392 181.558028 
L 304.000208 179.101017 
L 306.217024 214.566101 
L 308.43384 165.026959 
L 310.650656 201.13214 
L 312.867472 194.46958 
L 315.084288 220.577723 
L 317.301104 187.934835 
L 319.51792 214.57214 
L 321.734736 218.790218 
L 323.951552 197.63195 
L 326.168368 188.106729 
L 328.385184 229.973156 
L 330.602 174.730921 
L 332.818816 187.936903 
L 335.035632 204.470897 
L 337.252448 205.933729 
L 339.469264 221.379276 
L 341.68608 154.659482 
L 343.902896 193.632222 
L 346.119712 196.535134 
L 348.336528 210.50463 
L 350.553344 219.991216 
L 352.77016 157.567768 
L 354.986976 160.584468 
L 357.203792 171.322336 
L 359.420608 216.794206 
L 361.637424 202.866959 
L 363.85424 176.452878 
L 366.071056 208.441286 
L 368.287872 196.985838 
L 370.504688 190.788319 
L 372.721504 205.981993 
L 374.93832 179.733077 
L 377.155136 212.732853 
L 379.371952 185.025717 
L 381.588768 191.22735 
L 383.805584 223.263855 
L 386.0224 199.432626 
L 388.239216 202.040918 
L 390.456032 205.796 
L 392.672848 195.707334 
L 394.889664 180.943989 
L 397.10648 180.800602 
L 399.323296 204.86844 
L 401.540112 207.480631 
L 403.756928 197.844927 
L 405.973744 159.146599 
L 408.19056 197.366477 
L 410.407376 166.658761 
L 412.624192 237.238818 
L 414.841008 204.796473 
L 417.057824 229.879958 
L 419.27464 178.406 
L 421.491456 210.074776 
L 423.708272 214.676846 
L 425.925088 187.908706 
L 428.141904 241.259563 
L 430.35872 181.737482 
L 432.575536 201.597584 
L 434.792352 199.188955 
L 437.009168 220.59672 
L 439.225984 200.735167 
L 441.4428 172.874064 
L 443.659616 198.773129 
L 445.876432 213.858056 
L 448.093248 192.634311 
L 450.310064 179.15608 
L 452.52688 211.912399 
L 454.743696 157.837757 
L 456.960512 157.94912 
L 459.177328 213.820777 
L 461.394144 222.702311 
L 463.61096 181.716108 
L 465.827776 176.008807 
L 468.044592 187.10682 
L 470.261408 220.762693 
L 472.478224 217.275461 
L 474.69504 209.589456 
L 476.911856 200.288695 
L 479.128672 178.043216 
L 481.345488 184.023479 
L 483.562304 177.935444 
L 485.77912 178.874369 
L 487.995936 194.321984 
L 490.212752 204.178986 
L 492.429568 228.413821 
L 494.646384 222.079452 
L 496.8632 175.573747 
L 499.080016 191.412724 
L 501.296832 194.616034 
L 503.513648 198.260586 
L 505.730464 191.173974 
L 507.94728 229.205768 
L 510.164096 225.90643 
L 512.380912 190.87108 
L 514.597728 214.353671 
L 516.814544 195.60075 
L 519.03136 194.478828 
L 519.03136 194.478828 
" clip-path="url(#p86c1d7c8e0)" style="fill: none; stroke: #8c564b; stroke-width: 1.5; stroke-linecap: square"/>
   </g>
   <g id="patch_3">
    <path d="M 53.5 274.94952 
L 53.5 22.32 
" style="fill: none; stroke: #000000; stroke-width: 0.8; stroke-linejoin: miter; stroke-linecap: square"/>
   </g>
   <g id="patch_4">
    <path d="M 53.5 274.94952 
L 541.19952 274.94952 
" style="fill: none; stroke: #000000; stroke-width: 0.8; stroke-linejoin: miter; stroke-linecap: square"/>
   </g>
   <g id="text_15">
    <!-- Density percentiles during the NPT run (4000 H$_2$O) -->
    <g transform="translate(160.90976 16.32) scale(0.12 -0.12)">
     <defs>
      <path id="IBMPlexSans-72" d="M 1056 0 
L 1056 2240 
C 1056 2554 1389 2790 1939 2790 
L 2240 2790 
L 2240 3302 
L 2042 3302 
C 1504 3302 1203 3008 1088 2694 
L 1056 2694 
L 1056 3302 
L 544 3302 
L 544 0 
L 1056 0 
z
" transform="scale(0.015625)"/>
      <path id="IBMPlexSans-63" d="M 1773 -77 
C 2400 -77 2829 230 3040 704 
L 2669 954 
C 2490 576 2189 378 1773 378 
C 1165 378 851 794 851 1370 
L 851 1933 
C 851 2509 1165 2925 1773 2925 
C 2176 2925 2458 2726 2579 2387 
L 3008 2605 
C 2816 3059 2426 3379 1773 3379 
C 845 3379 301 2707 301 1651 
C 301 595 845 -77 1773 -77 
z
" transform="scale(0.015625)"/>
      <path id="IBMPlexSans-6c" d="M 1542 0 
L 1542 448 
L 1056 448 
L 1056 4736 
L 544 4736 
L 544 531 
C 544 224 736 0 1088 0 
L 1542 0 
z
" transform="scale(0.015625)"/>
      <path id="IBMPlexSans-64" d="M 2656 0 
L 3168 0 
L 3168 4736 
L 2656 4736 
L 2656 2765 
L 2630 2765 
C 2458 3181 2118 3379 1664 3379 
C 838 3379 320 2707 320 1651 
C 320 595 838 -77 1664 -77 
C 2118 -77 2432 128 2630 538 
L 2656 538 
L 2656 0 
z
M 1805 384 
C 1229 384 870 781 870 1370 
L 870 1933 
C 870 2522 1229 2918 1805 2918 
C 2272 2918 2656 2650 2656 2285 
L 2656 1056 
C 2656 627 2272 384 1805 384 
z
" transform="scale(0.015625)"/>
      <path id="IBMPlexSans-75" d="M 2579 0 
L 3091 0 
L 3091 3302 
L 2579 3302 
L 2579 1018 
C 2579 582 2182 384 1779 384 
C 1286 384 1024 685 1024 1274 
L 1024 3302 
L 512 3302 
L 512 1184 
C 512 384 947 -77 1626 -77 
C 2176 -77 2426 224 2554 538 
L 2579 538 
L 2579 0 
z
" transform="scale(0.015625)"/>
      <path id="IBMPlexSans-68" d="M 544 0 
L 1056 0 
L 1056 2291 
C 1056 2714 1453 2918 1862 2918 
C 2355 2918 2611 2618 2611 2029 
L 2611 0 
L 3123 0 
L 3123 2118 
C 3123 2918 2694 3379 2016 3379 
C 1523 3379 1242 3136 1082 2765 
L 1056 2765 
L 1056 4736 
L 544 4736 
L 544 0 
z
" transform="scale(0.015625)"/>
      <path id="IBMPlexSans-4e" d="M 3309 0 
L 3930 0 
L 3930 4467 
L 3405 4467 
L 3405 749 
L 3386 749 
L 2848 1741 
L 1216 4467 
L 595 4467 
L 595 0 
L 1120 0 
L 1120 3718 
L 1139 3718 
L 1677 2726 
L 3309 0 
z
" transform="scale(0.015625)"/>
      <path id="IBMPlexSans-50" d="M 1133 0 
L 1133 1907 
L 2374 1907 
C 3174 1907 3622 2400 3622 3187 
C 3622 3974 3174 4467 2374 4467 
L 595 4467 
L 595 0 
L 1133 0 
z
M 1133 3994 
L 2374 3994 
C 2797 3994 3046 3763 3046 3354 
L 3046 3021 
C 3046 2611 2797 2381 2374 2381 
L 1133 2381 
L 1133 3994 
z
" transform="scale(0.015625)"/>
      <path id="IBMPlexSans-28" d="M 531 1997 
C 531 749 1056 -339 1690 -877 
L 2176 -877 
C 1485 -262 1011 819 1011 1715 
L 1011 2266 
C 1011 3162 1466 4224 2176 4864 
L 1690 4864 
C 1037 4307 531 3232 531 1997 
z
" transform="scale(0.015625)"/>
      <path id="IBMPlexSans-48" d="M 3392 0 
L 3930 0 
L 3930 4467 
L 3392 4467 
L 3392 2496 
L 1133 2496 
L 1133 4467 
L 595 4467 
L 595 0 
L 1133 0 
L 1133 2022 
L 3392 2022 
L 3392 0 
z
" transform="scale(0.015625)"/>
      <path id="DejaVuSans-32" d="M 1228 531 
L 3431 531 
L 3431 0 
L 469 0 
L 469 531 
Q 828 903 1448 1529 
Q 2069 2156 2228 2338 
Q 2531 2678 2651 2914 
Q 2772 3150 2772 3378 
Q 2772 3750 2511 3984 
Q 2250 4219 1831 4219 
Q 1534 4219 1204 4116 
Q 875 4013 500 3803 
L 500 4441 
Q 881 4594 1212 4672 
Q 1544 4750 1819 4750 
Q 2544 4750 2975 4387 
Q 3406 4025 3406 3419 
Q 3406 3131 3298 2873 
Q 3191 2616 2906 2266 
Q 2828 2175 2409 1742 
Q 1991 1309 1228 531 
z
" transform="scale(0.015625)"/>
      <path id="IBMPlexSans-4f" d="M 2266 -77 
C 3418 -77 4160 736 4160 2234 
C 4160 3731 3418 4544 2266 4544 
C 1114 4544 371 3731 371 2234 
C 371 736 1114 -77 2266 -77 
z
M 2266 403 
C 1491 403 947 979 947 1862 
L 947 2605 
C 947 3488 1491 4064 2266 4064 
C 3040 4064 3584 3488 3584 2605 
L 3584 1862 
C 3584 979 3040 403 2266 403 
z
" transform="scale(0.015625)"/>
      <path id="IBMPlexSans-29" d="M 1613 1997 
C 1613 3232 1107 4307 454 4864 
L -32 4864 
C 678 4224 1133 3162 1133 2266 
L 1133 1715 
C 1133 819 659 -262 -32 -877 
L 454 -877 
C 1088 -339 1613 749 1613 1997 
z
" transform="scale(0.015625)"/>
     </defs>
     <use xlink:href="#IBMPlexSans-44"/>
     <use xlink:href="#IBMPlexSans-65" transform="translate(67.099991 0)"/>
     <use xlink:href="#IBMPlexSans-6e" transform="translate(121.999985 0)"/>
     <use xlink:href="#IBMPlexSans-73" transform="translate(178.799973 0)"/>
     <use xlink:href="#IBMPlexSans-69" transform="translate(227.499969 0)"/>
     <use xlink:href="#IBMPlexSans-74" transform="translate(252.499954 0)"/>
     <use xlink:href="#IBMPlexSans-79" transform="translate(287.599945 0)"/>
     <use xlink:href="#IBMPlexSans-20" transform="translate(337.499939 0)"/>
     <use xlink:href="#IBMPlexSans-70" transform="translate(361.09993 0)"/>
     <use xlink:href="#IBMPlexSans-65" transform="translate(419.099915 0)"/>
     <use xlink:href="#IBMPlexSans-72" transform="translate(473.999908 0)"/>
     <use xlink:href="#IBMPlexSans-63" transform="translate(510.699905 0)"/>
     <use xlink:href="#IBMPlexSans-65" transform="translate(560.999893 0)"/>
     <use xlink:href="#IBMPlexSans-6e" transform="translate(615.899887 0)"/>
     <use xlink:href="#IBMPlexSans-74" transform="translate(672.699875 0)"/>
     <use xlink:href="#IBMPlexSans-69" transform="translate(707.799866 0)"/>
     <use xlink:href="#IBMPlexSans-6c" transform="translate(732.79985 0)"/>
     <use xlink:href="#IBMPlexSans-65" transform="translate(759.999847 0)"/>
     <use xlink:href="#IBMPlexSans-73" transform="translate(814.899841 0)"/>
     <use xlink:href="#IBMPlexSans-20" transform="translate(863.599838 0)"/>
     <use xlink:href="#IBMPlexSans-64" transform="translate(887.199829 0)"/>
     <use xlink:href="#IBMPlexSans-75" transform="translate(945.199814 0)"/>
     <use xlink:href="#IBMPlexSans-72" transform="translate(1001.999802 0)"/>
     <use xlink:href="#IBMPlexSans-69" transform="translate(1038.699799 0)"/>
     <use xlink:href="#IBMPlexSans-6e" transform="translate(1063.699783 0)"/>
     <use xlink:href="#IBMPlexSans-67" transform="translate(1120.499771 0)"/>
     <use xlink:href="#IBMPlexSans-20" transform="translate(1173.299759 0)"/>
     <use xlink:href="#IBMPlexSans-74" transform="translate(1196.89975 0)"/>
     <use xlink:href="#IBMPlexSans-68" transform="translate(1231.999741 0)"/>
     <use xlink:href="#IBMPlexSans-65" transform="translate(1288.799728 0)"/>
     <use xlink:href="#IBMPlexSans-20" transform="translate(1343.699722 0)"/>
     <use xlink:href="#IBMPlexSans-4e" transform="translate(1367.299713 0)"/>
     <use xlink:href="#IBMPlexSans-50" transform="translate(1437.999695 0)"/>
     <use xlink:href="#IBMPlexSans-54" transform="translate(1498.599686 0)"/>
     <use xlink:href="#IBMPlexSans-20" transform="translate(1555.799683 0)"/>
     <use xlink:href="#IBMPlexSans-72" transform="translate(1579.399673 0)"/>
     <use xlink:href="#IBMPlexSans-75" transform="translate(1616.09967 0)"/>
     <use xlink:href="#IBMPlexSans-6e" transform="translate(1672.899658 0)"/>
     <use xlink:href="#IBMPlexSans-20" transform="translate(1729.699646 0)"/>
     <use xlink:href="#IBMPlexSans-28" transform="translate(1753.299637 0)"/>
     <use xlink:href="#IBMPlexSans-34" transform="translate(1786.799622 0)"/>
     <use xlink:href="#IBMPlexSans-30" transform="translate(1846.799606 0)"/>
     <use xlink:href="#IBMPlexSans-30" transform="translate(1906.799591 0)"/>
     <use xlink:href="#IBMPlexSans-30" transform="translate(1966.799576 0)"/>
     <use xlink:href="#IBMPlexSans-20" transform="translate(2026.799561 0)"/>
     <use xlink:href="#IBMPlexSans-48" transform="translate(2050.399551 0)"/>
     <use xlink:href="#DejaVuSans-32" transform="translate(2122.056564 -16.40625) scale(0.7)"/>
     <use xlink:href="#IBMPlexSans-4f" transform="translate(2169.327072 0)"/>
     <use xlink:href="#IBMPlexSans-29" transform="translate(2240.12706 0)"/>
    </g>
   </g>
   <g id="legend_1">
    <g id="patch_5">
     <path d="M 478.569832 116.72 
L 534.19952 116.72 
Q 536.19952 116.72 536.19952 114.72 
L 536.19952 29.32 
Q 536.19952 27.32 534.19952 27.32 
L 478.569832 27.32 
Q 476.569832 27.32 476.569832 29.32 
L 476.569832 114.72 
Q 476.569832 116.72 478.569832 116.72 
z
" style="fill: #ffffff; opacity: 0.8; stroke: #cccccc; stroke-linejoin: miter"/>
    </g>
    <g id="line2d_19">
     <path d="M 480.569832 35.22 
L 490.569832 35.22 
L 500.569832 35.22 
" style="fill: none; stroke: #1f77b4; stroke-width: 1.5; stroke-linecap: square"/>
    </g>
    <g id="text_16">
     <!-- 95 % -->
     <g transform="translate(508.569832 38.72) scale(0.1 -0.1)">
      <defs>
       <path id="IBMPlexSans-25" d="M 1664 0 
L 4762 4467 
L 4269 4467 
L 1171 0 
L 1664 0 
z
M 1427 2010 
C 2074 2010 2438 2458 2438 3277 
C 2438 4096 2074 4544 1427 4544 
C 781 4544 416 4096 416 3277 
C 416 2458 781 2010 1427 2010 
z
M 1427 2342 
C 1056 2342 877 2598 877 3085 
L 877 3469 
C 877 3955 1056 4211 1427 4211 
C 1798 4211 1978 3955 1978 3469 
L 1978 3085 
C 1978 2598 1798 2342 1427 2342 
z
M 4506 -77 
C 5152 -77 5517 371 5517 1190 
C 5517 2010 5152 2458 4506 2458 
C 3859 2458 3494 2010 3494 1190 
C 3494 371 3859 -77 4506 -77 
z
M 4506 256 
C 4134 256 3955 512 3955 998 
L 3955 1382 
C 3955 1869 4134 2125 4506 2125 
C 4877 2125 5056 1869 5056 1382 
L 5056 998 
C 5056 512 4877 256 4506 256 
z
" transform="scale(0.015625)"/>
      </defs>
      <use xlink:href="#IBMPlexSans-39"/>
      <use xlink:href="#IBMPlexSans-35" transform="translate(59.999985 0)"/>
      <use xlink:href="#IBMPlexSans-20" transform="translate(119.999969 0)"/>
      <use xlink:href="#IBMPlexSans-25" transform="translate(143.59996 0)"/>
     </g>
    </g>
    <g id="line2d_20">
     <path d="M 480.569832 49.62 
L 490.569832 49.62 
L 500.569832 49.62 
" style="fill: none; stroke: #ff7f0e; stroke-width: 1.5; stroke-linecap: square"/>
    </g>
    <g id="text_17">
     <!-- 80 % -->
     <g transform="translate(508.569832 53.12) scale(0.1 -0.1)">
      <use xlink:href="#IBMPlexSans-38"/>
      <use xlink:href="#IBMPlexSans-30" transform="translate(59.999985 0)"/>
      <use xlink:href="#IBMPlexSans-20" transform="translate(119.999969 0)"/>
      <use xlink:href="#IBMPlexSans-25" transform="translate(143.59996 0)"/>
     </g>
    </g>
    <g id="line2d_21">
     <path d="M 480.569832 64.02 
L 490.569832 64.02 
L 500.569832 64.02 
" style="fill: none; stroke: #2ca02c; stroke-width: 1.5; stroke-linecap: square"/>
    </g>
    <g id="text_18">
     <!-- 50 % -->
     <g transform="translate(508.569832 67.52) scale(0.1 -0.1)">
      <use xlink:href="#IBMPlexSans-35"/>
      <use xlink:href="#IBMPlexSans-30" transform="translate(59.999985 0)"/>
      <use xlink:href="#IBMPlexSans-20" transform="translate(119.999969 0)"/>
      <use xlink:href="#IBMPlexSans-25" transform="translate(143.59996 0)"/>
     </g>
    </g>
    <g id="line2d_22">
     <path d="M 480.569832 78.42 
L 490.569832 78.42 
L 500.569832 78.42 
" style="fill: none; stroke: #d62728; stroke-width: 1.5; stroke-linecap: square"/>
    </g>
    <g id="text_19">
     <!-- 20 % -->
     <g transform="translate(508.569832 81.92) scale(0.1 -0.1)">
      <use xlink:href="#IBMPlexSans-32"/>
      <use xlink:href="#IBMPlexSans-30" transform="translate(59.999985 0)"/>
      <use xlink:href="#IBMPlexSans-20" transform="translate(119.999969 0)"/>
      <use xlink:href="#IBMPlexSans-25" transform="translate(143.59996 0)"/>
     </g>
    </g>
    <g id="line2d_23">
     <path d="M 480.569832 92.82 
L 490.569832 92.82 
L 500.569832 92.82 
" style="fill: none; stroke: #9467bd; stroke-width: 1.5; stroke-linecap: square"/>
    </g>
    <g id="text_20">
     <!-- 5 % -->
     <g transform="translate(508.569832 96.32) scale(0.1 -0.1)">
      <use xlink:href="#IBMPlexSans-35"/>
      <use xlink:href="#IBMPlexSans-20" transform="translate(59.999985 0)"/>
      <use xlink:href="#IBMPlexSans-25" transform="translate(83.599976 0)"/>
     </g>
    </g>
    <g id="line2d_24">
     <path d="M 480.569832 107.22 
L 490.569832 107.22 
L 500.569832 107.22 
" style="fill: none; stroke: #8c564b; stroke-width: 1.5; stroke-linecap: square"/>
    </g>
    <g id="text_21">
     <!-- 5 % -->
     <g transform="translate(508.569832 110.72) scale(0.1 -0.1)">
      <use xlink:href="#IBMPlexSans-35"/>
      <use xlink:href="#IBMPlexSans-20" transform="translate(59.999985 0)"/>
      <use xlink:href="#IBMPlexSans-25" transform="translate(83.599976 0)"/>
     </g>
    </g>
   </g>
  </g>
 </g>
 <defs>
  <clipPath id="p86c1d7c8e0">
   <rect x="53.5" y="22.32" width="487.69952" height="252.62952"/>
  </clipPath>
 </defs>
</svg>