<?xml version="1.0" encoding="utf-8" standalone="no"?>
<!DOCTYPE svg PUBLIC "-//W3C//DTD SVG 1.1//EN"
  "http://www.w3.org/Graphics/SVG/1.1/DTD/svg11.dtd">
<svg xmlns:xlink="http://www.w3.org/1999/xlink" width="548.39952pt" height="312.14952pt" viewBox="0 0 548.39952 312.14952" xmlns="http://www.w3.org/2000/svg" version="1.1">
 <metadata>
  <rdf:RDF xmlns:dc="http://purl.org/dc/elements/1.1/" xmlns:cc="http://creativecommons.org/ns#" xmlns:rdf="http://www.w3.org/1999/02/22-rdf-syntax-ns#">
   <cc:Work>
    <dc:type rdf:resource="http://purl.org/dc/dcmitype/StillImage"/>
    <dc:date>2025-06-25T08:39:05.552070</dc:date>
    <dc:format>image/svg+xml</dc:format>
    <dc:creator>
     <cc:Agent>
      <dc:title>Matplotlib v3.10.1, https://matplotlib.org/</dc:title>
     </cc:Agent>
    </dc:creator>
   </cc:Work>
  </rdf:RDF>
 </metadata>
 <defs>
  <style type="text/css">*{stroke-linejoin: round; stroke-linecap: butt}</style>
 </defs>
 <g id="figure_1">
  <g id="patch_1">
   <path d="M 0 312.14952 
L 548.39952 312.14952 
L 548.39952 0 
L 0 0 
z
" style="fill: #ffffff"/>
  </g>
  <g id="axes_1">
   <g id="patch_2">
    <path d="M 42.320312 274.94952 
L 541.19952 274.94952 
L 541.19952 22.32 
L 42.320312 22.32 
z
" style="fill: #ffffff"/>
   </g>
   <g id="matplotlib.axis_1">
    <g id="xtick_1">
     <g id="line2d_1">
      <defs>
       <path id="m979716365a" d="M 0 0 
L 0 3.5 
" style="stroke: #000000; stroke-width: 0.8"/>
      </defs>
      <g>
       <use xlink:href="#m979716365a" x="79.810959" y="274.94952" style="stroke: #000000; stroke-width: 0.8"/>
      </g>
     </g>
     <g id="text_1">
      <!-- 285 -->
      <g transform="translate(70.810959 289.34952) scale(0.1 -0.1)">
       <defs>
        <path id="IBMPlexSans-32" d="M 3411 474 
L 1062 474 
L 2266 1555 
C 2835 2067 3245 2554 3245 3245 
C 3245 4006 2746 4544 1875 4544 
C 1011 4544 614 4019 442 3494 
L 922 3309 
C 1043 3731 1299 4064 1850 4064 
C 2400 4064 2675 3725 2675 3232 
L 2675 3155 
C 2675 2726 2355 2278 1939 1894 
L 480 550 
L 480 0 
L 3411 0 
L 3411 474 
z
" transform="scale(0.015625)"/>
        <path id="IBMPlexSans-38" d="M 1920 -77 
C 2938 -77 3469 480 3469 1216 
C 3469 1824 3104 2176 2566 2323 
L 2566 2374 
C 3034 2534 3334 2912 3334 3424 
C 3334 4102 2810 4544 1920 4544 
C 1030 4544 506 4102 506 3424 
C 506 2912 806 2534 1274 2374 
L 1274 2323 
C 736 2176 371 1824 371 1216 
C 371 480 902 -77 1920 -77 
z
M 1920 390 
C 1299 390 941 685 941 1190 
L 941 1325 
C 941 1830 1299 2125 1920 2125 
C 2541 2125 2899 1830 2899 1325 
L 2899 1190 
C 2899 685 2541 390 1920 390 
z
M 1920 2573 
C 1363 2573 1062 2822 1062 3277 
L 1062 3373 
C 1062 3827 1363 4077 1920 4077 
C 2477 4077 2778 3827 2778 3373 
L 2778 3277 
C 2778 2822 2477 2573 1920 2573 
z
" transform="scale(0.015625)"/>
        <path id="IBMPlexSans-35" d="M 3187 4467 
L 794 4467 
L 634 2010 
L 1088 1946 
C 1274 2150 1478 2323 1888 2323 
C 2496 2323 2822 1984 2822 1395 
L 2822 1331 
C 2822 742 2496 403 1888 403 
C 1350 403 1126 640 896 992 
L 493 685 
C 762 301 1146 -77 1888 -77 
C 2829 -77 3392 531 3392 1402 
C 3392 2266 2829 2784 2061 2784 
C 1594 2784 1357 2592 1146 2291 
L 1101 2291 
L 1229 3994 
L 3187 3994 
L 3187 4467 
z
" transform="scale(0.015625)"/>
       </defs>
       <use xlink:href="#IBMPlexSans-32"/>
       <use xlink:href="#IBMPlexSans-38" transform="translate(59.999985 0)"/>
       <use xlink:href="#IBMPlexSans-35" transform="translate(119.999969 0)"/>
      </g>
     </g>
    </g>
    <g id="xtick_2">
     <g id="line2d_2">
      <g>
       <use xlink:href="#m979716365a" x="157.832691" y="274.94952" style="stroke: #000000; stroke-width: 0.8"/>
      </g>
     </g>
     <g id="text_2">
      <!-- 290 -->
      <g transform="translate(148.832691 289.34952) scale(0.1 -0.1)">
       <defs>
        <path id="IBMPlexSans-39" d="M 3411 2829 
C 3411 3891 2842 4544 1914 4544 
C 1018 4544 429 3942 429 3066 
C 429 2221 979 1690 1747 1690 
C 2291 1690 2611 1965 2822 2330 
L 2854 2317 
C 2611 1280 2080 698 1126 0 
L 1818 0 
C 2534 467 3411 1504 3411 2829 
z
M 1920 2144 
C 1331 2144 986 2483 986 3085 
L 986 3136 
C 986 3738 1331 4077 1920 4077 
C 2509 4077 2854 3738 2854 3136 
L 2854 3085 
C 2854 2483 2509 2144 1920 2144 
z
" transform="scale(0.015625)"/>
        <path id="IBMPlexSans-30" d="M 1920 -77 
C 2989 -77 3456 774 3456 2234 
C 3456 3693 2989 4544 1920 4544 
C 851 4544 384 3693 384 2234 
C 384 774 851 -77 1920 -77 
z
M 1920 390 
C 1222 390 947 1005 947 1869 
L 947 2598 
C 947 3462 1222 4077 1920 4077 
C 2618 4077 2893 3462 2893 2598 
L 2893 1869 
C 2893 1005 2618 390 1920 390 
z
" transform="scale(0.015625)"/>
       </defs>
       <use xlink:href="#IBMPlexSans-32"/>
       <use xlink:href="#IBMPlexSans-39" transform="translate(59.999985 0)"/>
       <use xlink:href="#IBMPlexSans-30" transform="translate(119.999969 0)"/>
      </g>
     </g>
    </g>
    <g id="xtick_3">
     <g id="line2d_3">
      <g>
       <use xlink:href="#m979716365a" x="235.854422" y="274.94952" style="stroke: #000000; stroke-width: 0.8"/>
      </g>
     </g>
     <g id="text_3">
      <!-- 295 -->
      <g transform="translate(226.854422 289.34952) scale(0.1 -0.1)">
       <use xlink:href="#IBMPlexSans-32"/>
       <use xlink:href="#IBMPlexSans-39" transform="translate(59.999985 0)"/>
       <use xlink:href="#IBMPlexSans-35" transform="translate(119.999969 0)"/>
      </g>
     </g>
    </g>
    <g id="xtick_4">
     <g id="line2d_4">
      <g>
       <use xlink:href="#m979716365a" x="313.876153" y="274.94952" style="stroke: #000000; stroke-width: 0.8"/>
      </g>
     </g>
     <g id="text_4">
      <!-- 300 -->
      <g transform="translate(304.876153 289.34952) scale(0.1 -0.1)">
       <defs>
        <path id="IBMPlexSans-33" d="M 1184 2573 
L 1184 2106 
L 1709 2106 
C 2336 2106 2669 1805 2669 1280 
L 2669 1229 
C 2669 704 2336 403 1709 403 
C 1165 403 902 640 672 992 
L 269 685 
C 544 301 941 -77 1715 -77 
C 2624 -77 3232 454 3232 1222 
C 3232 1894 2771 2253 2291 2349 
L 2291 2374 
C 2765 2496 3149 2842 3149 3418 
C 3149 4141 2547 4544 1792 4544 
C 1075 4544 685 4173 461 3814 
L 858 3507 
C 1043 3846 1318 4064 1779 4064 
C 2253 4064 2579 3827 2579 3360 
L 2579 3315 
C 2579 2886 2272 2573 1670 2573 
L 1184 2573 
z
" transform="scale(0.015625)"/>
       </defs>
       <use xlink:href="#IBMPlexSans-33"/>
       <use xlink:href="#IBMPlexSans-30" transform="translate(59.999985 0)"/>
       <use xlink:href="#IBMPlexSans-30" transform="translate(119.999969 0)"/>
      </g>
     </g>
    </g>
    <g id="xtick_5">
     <g id="line2d_5">
      <g>
       <use xlink:href="#m979716365a" x="391.897884" y="274.94952" style="stroke: #000000; stroke-width: 0.8"/>
      </g>
     </g>
     <g id="text_5">
      <!-- 305 -->
      <g transform="translate(382.897884 289.34952) scale(0.1 -0.1)">
       <use xlink:href="#IBMPlexSans-33"/>
       <use xlink:href="#IBMPlexSans-30" transform="translate(59.999985 0)"/>
       <use xlink:href="#IBMPlexSans-35" transform="translate(119.999969 0)"/>
      </g>
     </g>
    </g>
    <g id="xtick_6">
     <g id="line2d_6">
      <g>
       <use xlink:href="#m979716365a" x="469.919616" y="274.94952" style="stroke: #000000; stroke-width: 0.8"/>
      </g>
     </g>
     <g id="text_6">
      <!-- 310 -->
      <g transform="translate(460.919616 289.34952) scale(0.1 -0.1)">
       <defs>
        <path id="IBMPlexSans-31" d="M 3501 0 
L 3501 474 
L 2349 474 
L 2349 4467 
L 1510 4467 
L 326 3360 
L 640 3021 
L 1766 4070 
L 1811 4070 
L 1811 474 
L 563 474 
L 563 0 
L 3501 0 
z
" transform="scale(0.015625)"/>
       </defs>
       <use xlink:href="#IBMPlexSans-33"/>
       <use xlink:href="#IBMPlexSans-31" transform="translate(59.999985 0)"/>
       <use xlink:href="#IBMPlexSans-30" transform="translate(119.999969 0)"/>
      </g>
     </g>
    </g>
    <g id="text_7">
     <!-- Temperature [K] -->
     <g transform="translate(254.94351 302.94952) scale(0.1 -0.1)">
      <defs>
       <path id="IBMPlexSans-54" d="M 3520 3994 
L 3520 4467 
L 141 4467 
L 141 3994 
L 1562 3994 
L 1562 0 
L 2099 0 
L 2099 3994 
L 3520 3994 
z
" transform="scale(0.015625)"/>
       <path id="IBMPlexSans-65" d="M 1786 -77 
C 2406 -77 2880 230 3091 678 
L 2726 941 
C 2554 576 2234 371 1818 371 
C 1203 371 838 800 838 1370 
L 838 1523 
L 3213 1523 
L 3213 1766 
C 3213 2701 2669 3379 1786 3379 
C 890 3379 301 2701 301 1651 
C 301 602 890 -77 1786 -77 
z
M 1786 2950 
C 2310 2950 2662 2560 2662 1978 
L 2662 1907 
L 838 1907 
L 838 1952 
C 838 2528 1229 2950 1786 2950 
z
" transform="scale(0.015625)"/>
       <path id="IBMPlexSans-6d" d="M 1056 0 
L 1056 2291 
C 1056 2714 1440 2918 1843 2918 
C 2330 2918 2554 2618 2554 2029 
L 2554 0 
L 3066 0 
L 3066 2291 
C 3066 2714 3437 2918 3840 2918 
C 4339 2918 4563 2611 4563 2029 
L 4563 0 
L 5075 0 
L 5075 2118 
C 5075 2918 4672 3379 4000 3379 
C 3437 3379 3117 3066 2995 2707 
L 2982 2707 
C 2803 3181 2406 3379 1971 3379 
C 1459 3379 1229 3104 1082 2765 
L 1056 2765 
L 1056 3302 
L 544 3302 
L 544 0 
L 1056 0 
z
" transform="scale(0.015625)"/>
       <path id="IBMPlexSans-70" d="M 544 -1280 
L 1056 -1280 
L 1056 538 
L 1082 538 
C 1280 128 1594 -77 2048 -77 
C 2874 -77 3392 595 3392 1651 
C 3392 2707 2874 3379 2048 3379 
C 1594 3379 1254 3181 1082 2765 
L 1056 2765 
L 1056 3302 
L 544 3302 
L 544 -1280 
z
M 1907 384 
C 1440 384 1056 627 1056 1056 
L 1056 2285 
C 1056 2650 1440 2918 1907 2918 
C 2483 2918 2842 2522 2842 1933 
L 2842 1370 
C 2842 781 2483 384 1907 384 
z
" transform="scale(0.015625)"/>
       <path id="IBMPlexSans-72" d="M 1056 0 
L 1056 2240 
C 1056 2554 1389 2790 1939 2790 
L 2240 2790 
L 2240 3302 
L 2042 3302 
C 1504 3302 1203 3008 1088 2694 
L 1056 2694 
L 1056 3302 
L 544 3302 
L 544 0 
L 1056 0 
z
" transform="scale(0.015625)"/>
       <path id="IBMPlexSans-61" d="M 3232 0 
L 3232 448 
L 2854 448 
L 2854 2266 
C 2854 2963 2381 3379 1587 3379 
C 992 3379 595 3085 416 2733 
L 723 2445 
C 902 2746 1165 2938 1562 2938 
C 2086 2938 2342 2682 2342 2214 
L 2342 1888 
L 1690 1888 
C 730 1888 282 1542 282 922 
C 282 307 691 -77 1389 -77 
C 1850 -77 2202 134 2342 538 
L 2374 538 
C 2413 230 2566 0 2944 0 
L 3232 0 
z
M 1472 358 
C 1075 358 819 544 819 870 
L 819 1005 
C 819 1325 1082 1504 1664 1504 
L 2342 1504 
L 2342 960 
C 2342 621 1978 358 1472 358 
z
" transform="scale(0.015625)"/>
       <path id="IBMPlexSans-74" d="M 1914 0 
L 1914 448 
L 1242 448 
L 1242 2854 
L 1965 2854 
L 1965 3302 
L 1242 3302 
L 1242 4218 
L 781 4218 
L 781 3603 
C 781 3379 710 3302 493 3302 
L 186 3302 
L 186 2854 
L 730 2854 
L 730 544 
C 730 224 922 0 1274 0 
L 1914 0 
z
" transform="scale(0.015625)"/>
       <path id="IBMPlexSans-75" d="M 2579 0 
L 3091 0 
L 3091 3302 
L 2579 3302 
L 2579 1018 
C 2579 582 2182 384 1779 384 
C 1286 384 1024 685 1024 1274 
L 1024 3302 
L 512 3302 
L 512 1184 
C 512 384 947 -77 1626 -77 
C 2176 -77 2426 224 2554 538 
L 2579 538 
L 2579 0 
z
" transform="scale(0.015625)"/>
       <path id="IBMPlexSans-20" transform="scale(0.015625)"/>
       <path id="IBMPlexSans-5b" d="M 1645 -883 
L 1645 -480 
L 1037 -480 
L 1037 4461 
L 1645 4461 
L 1645 4864 
L 595 4864 
L 595 -883 
L 1645 -883 
z
" transform="scale(0.015625)"/>
       <path id="IBMPlexSans-4b" d="M 3251 0 
L 3917 0 
L 2138 2554 
L 3802 4467 
L 3142 4467 
L 1792 2867 
L 1152 2093 
L 1133 2093 
L 1133 4467 
L 595 4467 
L 595 0 
L 1133 0 
L 1133 1491 
L 1766 2195 
L 3251 0 
z
" transform="scale(0.015625)"/>
       <path id="IBMPlexSans-5d" d="M 384 4864 
L 384 4461 
L 992 4461 
L 992 -480 
L 384 -480 
L 384 -883 
L 1434 -883 
L 1434 4864 
L 384 4864 
z
" transform="scale(0.015625)"/>
      </defs>
      <use xlink:href="#IBMPlexSans-54"/>
      <use xlink:href="#IBMPlexSans-65" transform="translate(57.199997 0)"/>
      <use xlink:href="#IBMPlexSans-6d" transform="translate(112.099991 0)"/>
      <use xlink:href="#IBMPlexSans-70" transform="translate(199.399979 0)"/>
      <use xlink:href="#IBMPlexSans-65" transform="translate(257.399963 0)"/>
      <use xlink:href="#IBMPlexSans-72" transform="translate(312.299957 0)"/>
      <use xlink:href="#IBMPlexSans-61" transform="translate(348.999954 0)"/>
      <use xlink:href="#IBMPlexSans-74" transform="translate(402.399948 0)"/>
      <use xlink:href="#IBMPlexSans-75" transform="translate(437.499939 0)"/>
      <use xlink:href="#IBMPlexSans-72" transform="translate(494.299927 0)"/>
      <use xlink:href="#IBMPlexSans-65" transform="translate(530.999924 0)"/>
      <use xlink:href="#IBMPlexSans-20" transform="translate(585.899918 0)"/>
      <use xlink:href="#IBMPlexSans-5b" transform="translate(609.499908 0)"/>
      <use xlink:href="#IBMPlexSans-4b" transform="translate(641.199905 0)"/>
      <use xlink:href="#IBMPlexSans-5d" transform="translate(704.599899 0)"/>
     </g>
    </g>
   </g>
   <g id="matplotlib.axis_2">
    <g id="ytick_1">
     <g id="line2d_7">
      <defs>
       <path id="mb724694400" d="M 0 0 
L -3.5 0 
" style="stroke: #000000; stroke-width: 0.8"/>
      </defs>
      <g>
       <use xlink:href="#mb724694400" x="42.320312" y="263.489456" style="stroke: #000000; stroke-width: 0.8"/>
      </g>
     </g>
     <g id="text_8">
      <!-- 0.0 -->
      <g transform="translate(20.6 267.189456) scale(0.1 -0.1)">
       <defs>
        <path id="IBMPlexSans-2e" d="M 870 -77 
C 1139 -77 1261 77 1261 294 
L 1261 378 
C 1261 595 1139 749 870 749 
C 602 749 480 595 480 378 
L 480 294 
C 480 77 602 -77 870 -77 
z
" transform="scale(0.015625)"/>
       </defs>
       <use xlink:href="#IBMPlexSans-30"/>
       <use xlink:href="#IBMPlexSans-2e" transform="translate(59.999985 0)"/>
       <use xlink:href="#IBMPlexSans-30" transform="translate(87.199982 0)"/>
      </g>
     </g>
    </g>
    <g id="ytick_2">
     <g id="line2d_8">
      <g>
       <use xlink:href="#mb724694400" x="42.320312" y="217.549235" style="stroke: #000000; stroke-width: 0.8"/>
      </g>
     </g>
     <g id="text_9">
      <!-- 0.2 -->
      <g transform="translate(20.6 221.249235) scale(0.1 -0.1)">
       <use xlink:href="#IBMPlexSans-30"/>
       <use xlink:href="#IBMPlexSans-2e" transform="translate(59.999985 0)"/>
       <use xlink:href="#IBMPlexSans-32" transform="translate(87.199982 0)"/>
      </g>
     </g>
    </g>
    <g id="ytick_3">
     <g id="line2d_9">
      <g>
       <use xlink:href="#mb724694400" x="42.320312" y="171.609014" style="stroke: #000000; stroke-width: 0.8"/>
      </g>
     </g>
     <g id="text_10">
      <!-- 0.4 -->
      <g transform="translate(20.6 175.309014) scale(0.1 -0.1)">
       <defs>
        <path id="IBMPlexSans-34" d="M 2912 0 
L 2912 877 
L 3558 877 
L 3558 1325 
L 2912 1325 
L 2912 4467 
L 2112 4467 
L 243 1350 
L 243 877 
L 2400 877 
L 2400 0 
L 2912 0 
z
M 2368 4051 
L 2400 4051 
L 2400 1325 
L 749 1325 
L 2368 4051 
z
" transform="scale(0.015625)"/>
       </defs>
       <use xlink:href="#IBMPlexSans-30"/>
       <use xlink:href="#IBMPlexSans-2e" transform="translate(59.999985 0)"/>
       <use xlink:href="#IBMPlexSans-34" transform="translate(87.199982 0)"/>
      </g>
     </g>
    </g>
    <g id="ytick_4">
     <g id="line2d_10">
      <g>
       <use xlink:href="#mb724694400" x="42.320312" y="125.668793" style="stroke: #000000; stroke-width: 0.8"/>
      </g>
     </g>
     <g id="text_11">
      <!-- 0.6 -->
      <g transform="translate(20.6 129.368793) scale(0.1 -0.1)">
       <defs>
        <path id="IBMPlexSans-36" d="M 1926 -77 
C 2822 -77 3411 525 3411 1402 
C 3411 2246 2861 2778 2093 2778 
C 1549 2778 1229 2502 1018 2138 
L 986 2150 
C 1229 3187 1760 3770 2714 4467 
L 2022 4467 
C 1306 4000 429 2963 429 1638 
C 429 576 998 -77 1926 -77 
z
M 1920 390 
C 1331 390 986 730 986 1331 
L 986 1382 
C 986 1984 1331 2323 1920 2323 
C 2509 2323 2854 1984 2854 1382 
L 2854 1331 
C 2854 730 2509 390 1920 390 
z
" transform="scale(0.015625)"/>
       </defs>
       <use xlink:href="#IBMPlexSans-30"/>
       <use xlink:href="#IBMPlexSans-2e" transform="translate(59.999985 0)"/>
       <use xlink:href="#IBMPlexSans-36" transform="translate(87.199982 0)"/>
      </g>
     </g>
    </g>
    <g id="ytick_5">
     <g id="line2d_11">
      <g>
       <use xlink:href="#mb724694400" x="42.320312" y="79.728571" style="stroke: #000000; stroke-width: 0.8"/>
      </g>
     </g>
     <g id="text_12">
      <!-- 0.8 -->
      <g transform="translate(20.6 83.428571) scale(0.1 -0.1)">
       <use xlink:href="#IBMPlexSans-30"/>
       <use xlink:href="#IBMPlexSans-2e" transform="translate(59.999985 0)"/>
       <use xlink:href="#IBMPlexSans-38" transform="translate(87.199982 0)"/>
      </g>
     </g>
    </g>
    <g id="ytick_6">
     <g id="line2d_12">
      <g>
       <use xlink:href="#mb724694400" x="42.320312" y="33.78835" style="stroke: #000000; stroke-width: 0.8"/>
      </g>
     </g>
     <g id="text_13">
      <!-- 1.0 -->
      <g transform="translate(20.6 37.48835) scale(0.1 -0.1)">
       <use xlink:href="#IBMPlexSans-31"/>
       <use xlink:href="#IBMPlexSans-2e" transform="translate(59.999985 0)"/>
       <use xlink:href="#IBMPlexSans-30" transform="translate(87.199982 0)"/>
      </g>
     </g>
    </g>
    <g id="text_14">
     <!-- Cumulative Probability -->
     <g transform="translate(14.6 199.449604) rotate(-90) scale(0.1 -0.1)">
      <defs>
       <path id="IBMPlexSans-43" d="M 2170 -77 
C 2912 -77 3456 314 3738 941 
L 3309 1210 
C 3130 723 2739 403 2170 403 
C 1402 403 947 960 947 1875 
L 947 2541 
C 947 3456 1402 4064 2170 4064 
C 2720 4064 3091 3763 3270 3302 
L 3706 3565 
C 3424 4186 2912 4544 2170 4544 
C 1043 4544 371 3699 371 2208 
C 371 717 1043 -77 2170 -77 
z
" transform="scale(0.015625)"/>
       <path id="IBMPlexSans-6c" d="M 1542 0 
L 1542 448 
L 1056 448 
L 1056 4736 
L 544 4736 
L 544 531 
C 544 224 736 0 1088 0 
L 1542 0 
z
" transform="scale(0.015625)"/>
       <path id="IBMPlexSans-69" d="M 800 4077 
C 1018 4077 1114 4192 1114 4365 
L 1114 4448 
C 1114 4621 1018 4736 800 4736 
C 582 4736 486 4621 486 4448 
L 486 4365 
C 486 4192 582 4077 800 4077 
z
M 544 0 
L 1056 0 
L 1056 3302 
L 544 3302 
L 544 0 
z
" transform="scale(0.015625)"/>
       <path id="IBMPlexSans-76" d="M 1869 0 
L 3034 3302 
L 2541 3302 
L 1952 1664 
L 1594 538 
L 1562 538 
L 1203 1664 
L 627 3302 
L 115 3302 
L 1274 0 
L 1869 0 
z
" transform="scale(0.015625)"/>
       <path id="IBMPlexSans-50" d="M 1133 0 
L 1133 1907 
L 2374 1907 
C 3174 1907 3622 2400 3622 3187 
C 3622 3974 3174 4467 2374 4467 
L 595 4467 
L 595 0 
L 1133 0 
z
M 1133 3994 
L 2374 3994 
C 2797 3994 3046 3763 3046 3354 
L 3046 3021 
C 3046 2611 2797 2381 2374 2381 
L 1133 2381 
L 1133 3994 
z
" transform="scale(0.015625)"/>
       <path id="IBMPlexSans-6f" d="M 1792 -77 
C 2675 -77 3283 602 3283 1651 
C 3283 2701 2675 3379 1792 3379 
C 909 3379 301 2701 301 1651 
C 301 602 909 -77 1792 -77 
z
M 1792 378 
C 1242 378 851 717 851 1414 
L 851 1888 
C 851 2586 1242 2925 1792 2925 
C 2342 2925 2733 2586 2733 1888 
L 2733 1414 
C 2733 717 2342 378 1792 378 
z
" transform="scale(0.015625)"/>
       <path id="IBMPlexSans-62" d="M 544 0 
L 1056 0 
L 1056 538 
L 1082 538 
C 1280 128 1594 -77 2048 -77 
C 2874 -77 3392 595 3392 1651 
C 3392 2707 2874 3379 2048 3379 
C 1594 3379 1254 3181 1082 2765 
L 1056 2765 
L 1056 4736 
L 544 4736 
L 544 0 
z
M 1907 384 
C 1440 384 1056 627 1056 1056 
L 1056 2285 
C 1056 2650 1440 2918 1907 2918 
C 2483 2918 2842 2522 2842 1933 
L 2842 1370 
C 2842 781 2483 384 1907 384 
z
" transform="scale(0.015625)"/>
       <path id="IBMPlexSans-79" d="M 1779 1056 
L 1600 518 
L 1568 518 
L 1414 1056 
L 621 3302 
L 109 3302 
L 1344 -128 
L 1094 -832 
L 576 -832 
L 576 -1280 
L 838 -1280 
C 1325 -1280 1459 -1165 1606 -768 
L 3085 3302 
L 2579 3302 
L 1779 1056 
z
" transform="scale(0.015625)"/>
      </defs>
      <use xlink:href="#IBMPlexSans-43"/>
      <use xlink:href="#IBMPlexSans-75" transform="translate(62.099991 0)"/>
      <use xlink:href="#IBMPlexSans-6d" transform="translate(118.899979 0)"/>
      <use xlink:href="#IBMPlexSans-75" transform="translate(206.199966 0)"/>
      <use xlink:href="#IBMPlexSans-6c" transform="translate(262.999954 0)"/>
      <use xlink:href="#IBMPlexSans-61" transform="translate(290.199951 0)"/>
      <use xlink:href="#IBMPlexSans-74" transform="translate(343.599945 0)"/>
      <use xlink:href="#IBMPlexSans-69" transform="translate(378.699936 0)"/>
      <use xlink:href="#IBMPlexSans-76" transform="translate(403.699921 0)"/>
      <use xlink:href="#IBMPlexSans-65" transform="translate(452.899918 0)"/>
      <use xlink:href="#IBMPlexSans-20" transform="translate(507.799911 0)"/>
      <use xlink:href="#IBMPlexSans-50" transform="translate(531.399902 0)"/>
      <use xlink:href="#IBMPlexSans-72" transform="translate(591.999893 0)"/>
      <use xlink:href="#IBMPlexSans-6f" transform="translate(628.69989 0)"/>
      <use xlink:href="#IBMPlexSans-62" transform="translate(684.699875 0)"/>
      <use xlink:href="#IBMPlexSans-61" transform="translate(742.69986 0)"/>
      <use xlink:href="#IBMPlexSans-62" transform="translate(796.099854 0)"/>
      <use xlink:href="#IBMPlexSans-69" transform="translate(854.099838 0)"/>
      <use xlink:href="#IBMPlexSans-6c" transform="translate(879.099823 0)"/>
      <use xlink:href="#IBMPlexSans-69" transform="translate(906.29982 0)"/>
      <use xlink:href="#IBMPlexSans-74" transform="translate(931.299805 0)"/>
      <use xlink:href="#IBMPlexSans-79" transform="translate(966.399796 0)"/>
     </g>
    </g>
   </g>
   <g id="line2d_13">
    <path d="M 129.340282 262.340951 
L 141.640229 260.04394 
L 166.172977 257.746929 
L 169.47452 255.449918 
L 174.133727 253.152907 
L 179.572486 250.855895 
L 185.3884 248.558884 
L 188.849948 246.261873 
L 192.770559 243.964862 
L 195.817807 241.667851 
L 201.346092 239.37084 
L 208.242043 237.073829 
L 208.969211 234.776818 
L 213.394125 232.479807 
L 216.709478 230.182796 
L 219.046701 227.885785 
L 219.977209 225.588774 
L 223.129222 223.291763 
L 226.886971 220.994752 
L 228.86561 218.697741 
L 229.785642 216.40073 
L 230.899966 214.103718 
L 231.985241 211.806707 
L 233.822447 209.509696 
L 234.502947 207.212685 
L 236.772549 204.915674 
L 237.13399 202.618663 
L 241.268894 200.321652 
L 241.883201 198.024641 
L 243.28563 195.72763 
L 245.307128 193.430619 
L 247.961981 191.133608 
L 248.61248 188.836597 
L 249.852999 186.539586 
L 252.593093 184.242575 
L 255.972733 181.945564 
L 256.800857 179.648553 
L 258.940454 177.351541 
L 260.209545 175.05453 
L 261.925795 172.757519 
L 264.318734 170.460508 
L 265.74164 168.163497 
L 266.151654 165.866486 
L 269.358908 163.569475 
L 271.177542 161.272464 
L 272.689022 158.975453 
L 273.676199 156.678442 
L 274.96291 154.381431 
L 275.54674 152.08442 
L 276.887262 149.787409 
L 277.548713 147.490398 
L 279.316393 145.193387 
L 280.165946 142.896376 
L 285.215644 140.599365 
L 286.745696 138.302353 
L 287.281429 136.005342 
L 290.100573 133.708331 
L 294.461676 131.41132 
L 295.115508 129.114309 
L 298.431812 126.817298 
L 301.135715 124.520287 
L 302.587193 122.223276 
L 304.936322 119.926265 
L 307.609747 117.629254 
L 308.546446 115.332243 
L 309.818395 113.035232 
L 311.264635 110.738221 
L 314.207117 108.44121 
L 319.578254 106.144199 
L 320.800201 103.847188 
L 324.377467 101.550176 
L 326.89803 99.253165 
L 328.33046 96.956154 
L 330.175285 94.659143 
L 331.335325 92.362132 
L 331.969633 90.065121 
L 332.526318 87.76811 
L 335.470705 85.471099 
L 339.416079 83.174088 
L 340.188011 80.877077 
L 342.047598 78.580066 
L 345.019605 76.283055 
L 345.683914 73.986044 
L 348.08352 71.689033 
L 348.868309 69.392022 
L 349.853581 67.095011 
L 353.610853 64.798 
L 354.250875 62.500988 
L 357.017637 60.203977 
L 368.401838 57.906966 
L 370.88859 55.609955 
L 375.85019 53.312944 
L 382.573278 51.015933 
L 386.158639 48.718922 
L 396.158983 46.421911 
L 400.655805 44.1249 
L 403.240656 41.827889 
L 415.937759 39.530878 
L 420.246002 37.233867 
L 425.985247 34.936856 
" clip-path="url(#p3741003c4c)" style="fill: none; stroke: #1f77b4; stroke-opacity: 0.2; stroke-width: 1.5; stroke-linecap: square"/>
   </g>
   <g id="line2d_14">
    <path d="M 172.469861 262.340951 
L 178.443876 260.04394 
L 190.313332 257.746929 
L 194.380614 255.449918 
L 199.106491 253.152907 
L 201.302281 250.855895 
L 204.570012 248.558884 
L 206.493888 246.261873 
L 209.730666 243.964862 
L 216.150887 241.667851 
L 221.721555 239.37084 
L 223.478758 237.073829 
L 225.588831 234.776818 
L 227.835098 232.479807 
L 228.714652 230.182796 
L 230.689482 227.885785 
L 234.171031 225.588774 
L 237.539718 223.291763 
L 243.403729 220.994752 
L 243.723264 218.697741 
L 243.921366 216.40073 
L 245.82286 214.103718 
L 247.89055 211.806707 
L 250.392065 209.509696 
L 252.192127 207.212685 
L 255.947494 204.915674 
L 256.711806 202.618663 
L 257.758509 200.321652 
L 261.457683 198.024641 
L 264.061583 195.72763 
L 264.470644 193.430619 
L 264.80256 191.133608 
L 265.318769 188.836597 
L 265.636875 186.539586 
L 267.563608 184.242575 
L 268.718409 181.945564 
L 269.94988 179.648553 
L 271.393263 177.351541 
L 272.486158 175.05453 
L 273.692866 172.757519 
L 274.028592 170.460508 
L 275.480547 168.163497 
L 276.288194 165.866486 
L 277.965394 163.569475 
L 278.694943 161.272464 
L 280.078324 158.975453 
L 280.775015 156.678442 
L 283.887979 154.381431 
L 285.79233 152.08442 
L 286.85951 149.787409 
L 289.923901 147.490398 
L 293.271159 145.193387 
L 295.982204 142.896376 
L 298.333714 140.599365 
L 302.536716 138.302353 
L 305.510627 136.005342 
L 306.066361 133.708331 
L 308.536446 131.41132 
L 310.163168 129.114309 
L 313.69329 126.817298 
L 314.488079 124.520287 
L 316.486243 122.223276 
L 317.354368 119.926265 
L 320.200656 117.629254 
L 321.042114 115.332243 
L 322.586929 113.035232 
L 323.301239 110.738221 
L 323.442673 108.44121 
L 323.854592 106.144199 
L 326.185148 103.847188 
L 328.406653 101.550176 
L 329.340018 99.253165 
L 329.557169 96.956154 
L 330.577204 94.659143 
L 332.513937 92.362132 
L 332.964429 90.065121 
L 333.940177 87.76811 
L 334.674964 85.471099 
L 337.729831 83.174088 
L 341.380433 80.877077 
L 344.844361 78.580066 
L 346.739188 76.283055 
L 350.03454 73.986044 
L 353.133694 71.689033 
L 356.725246 69.392022 
L 360.815863 67.095011 
L 363.961209 64.798 
L 370.475719 62.500988 
L 372.647222 60.203977 
L 375.297313 57.906966 
L 380.517969 55.609955 
L 381.151801 53.312944 
L 383.083772 51.015933 
L 384.86669 48.718922 
L 390.896421 46.421911 
L 394.544166 44.1249 
L 401.740604 41.827889 
L 407.147933 39.530878 
L 423.779457 37.233867 
L 439.865725 34.936856 
" clip-path="url(#p3741003c4c)" style="fill: none; stroke: #1f77b4; stroke-opacity: 0.2; stroke-width: 1.5; stroke-linecap: square"/>
   </g>
   <g id="line2d_15">
    <path d="M 139.614921 262.340951 
L 153.331107 260.04394 
L 165.257232 257.746929 
L 176.299992 255.449918 
L 183.094512 253.152907 
L 193.162001 250.855895 
L 199.669844 248.558884 
L 205.040505 246.261873 
L 207.038193 243.964862 
L 209.992104 241.667851 
L 214.795602 239.37084 
L 217.042822 237.073829 
L 224.518794 234.776818 
L 225.957415 232.479807 
L 228.704652 230.182796 
L 230.078033 227.885785 
L 233.383384 225.588774 
L 234.628189 223.291763 
L 239.638838 220.994752 
L 244.47329 218.697741 
L 244.809016 216.40073 
L 247.604826 214.103718 
L 248.446284 211.806707 
L 249.872999 209.509696 
L 250.720647 207.212685 
L 254.672688 204.915674 
L 258.15757 202.618663 
L 258.665683 200.321652 
L 262.263425 198.024641 
L 263.917768 195.72763 
L 265.274958 193.430619 
L 265.418772 191.133608 
L 266.355471 188.836597 
L 269.562724 186.539586 
L 270.672762 184.242575 
L 272.122336 181.945564 
L 274.445749 179.648553 
L 274.549562 177.351541 
L 275.237681 175.05453 
L 275.803891 172.757519 
L 276.439627 170.460508 
L 277.438233 168.163497 
L 278.787327 165.866486 
L 282.461739 163.569475 
L 284.372757 161.272464 
L 286.635216 158.975453 
L 287.422862 156.678442 
L 288.981964 154.381431 
L 290.619163 152.08442 
L 292.738759 149.787409 
L 293.634505 147.490398 
L 294.530726 145.193387 
L 295.789817 142.896376 
L 297.171769 140.599365 
L 302.132416 138.302353 
L 302.476237 136.005342 
L 303.018637 133.708331 
L 307.720227 131.41132 
L 311.104629 129.114309 
L 313.1647 126.817298 
L 315.130482 124.520287 
L 316.282426 122.223276 
L 317.908197 119.926265 
L 318.959661 117.629254 
L 321.36022 115.332243 
L 324.509376 113.035232 
L 326.391346 110.738221 
L 326.897077 108.44121 
L 328.898098 106.144199 
L 331.378184 103.847188 
L 332.128686 101.550176 
L 334.386382 99.253165 
L 337.998411 96.956154 
L 339.4637 94.659143 
L 341.689015 92.362132 
L 343.475743 90.065121 
L 346.619184 87.76811 
L 346.977292 85.471099 
L 347.422545 83.174088 
L 350.59694 80.877077 
L 351.92651 78.580066 
L 353.397513 76.283055 
L 354.479931 73.986044 
L 357.314314 71.689033 
L 358.006719 69.392022 
L 358.332444 67.095011 
L 359.848211 64.798 
L 365.169822 62.500988 
L 366.797497 60.203977 
L 369.713788 57.906966 
L 377.907403 55.609955 
L 379.172209 53.312944 
L 382.089928 51.015933 
L 388.028704 48.718922 
L 390.484026 46.421911 
L 400.276744 44.1249 
L 403.971157 41.827889 
L 415.49441 39.530878 
L 416.984938 37.233867 
L 496.116231 34.936856 
" clip-path="url(#p3741003c4c)" style="fill: none; stroke: #1f77b4; stroke-opacity: 0.2; stroke-width: 1.5; stroke-linecap: square"/>
   </g>
   <g id="line2d_16">
    <path d="M 144.214603 262.340951 
L 154.664486 260.04394 
L 169.420232 257.746929 
L 177.379077 255.449918 
L 193.588682 253.152907 
L 203.40902 250.855895 
L 207.371061 248.558884 
L 210.0102 246.261873 
L 215.66468 243.964862 
L 218.873838 241.667851 
L 225.170721 239.37084 
L 228.497502 237.073829 
L 229.585635 234.776818 
L 230.998064 232.479807 
L 232.703361 230.182796 
L 236.683022 227.885785 
L 239.317874 225.588774 
L 241.478425 223.291763 
L 242.549414 220.994752 
L 244.490909 218.697741 
L 246.6967 216.40073 
L 248.827725 214.103718 
L 250.8697 211.806707 
L 252.527853 209.509696 
L 253.827421 207.212685 
L 255.910826 204.915674 
L 258.84426 202.618663 
L 259.293323 200.321652 
L 260.096208 198.024641 
L 261.036717 195.72763 
L 263.512516 193.430619 
L 264.083964 191.133608 
L 265.537824 188.836597 
L 268.55507 186.539586 
L 269.765588 184.242575 
L 273.660008 181.945564 
L 274.20336 179.648553 
L 275.803891 177.351541 
L 277.335372 175.05453 
L 277.778245 172.757519 
L 278.680181 170.460508 
L 279.298773 168.163497 
L 280.123564 165.866486 
L 281.644092 163.569475 
L 282.666508 161.272464 
L 285.404221 158.975453 
L 285.852332 156.678442 
L 288.821482 154.381431 
L 290.445347 152.08442 
L 292.571135 149.787409 
L 295.168843 147.490398 
L 296.864616 145.193387 
L 297.396539 142.896376 
L 298.916591 140.599365 
L 300.108061 138.302353 
L 302.025746 136.005342 
L 304.575833 133.708331 
L 305.8354 131.41132 
L 307.992617 129.114309 
L 308.93884 126.817298 
L 309.376475 124.520287 
L 312.307052 122.223276 
L 313.926631 119.926265 
L 315.314774 117.629254 
L 316.600056 115.332243 
L 316.97626 113.035232 
L 319.667305 110.738221 
L 320.193037 108.44121 
L 321.523083 106.144199 
L 324.515091 103.847188 
L 325.781801 101.550176 
L 326.814693 99.253165 
L 328.736188 96.956154 
L 332.047731 94.659143 
L 334.480195 92.362132 
L 336.303115 90.065121 
L 337.845549 87.76811 
L 339.957526 85.471099 
L 340.709457 83.174088 
L 341.763779 80.877077 
L 343.418598 78.580066 
L 344.136242 76.283055 
L 345.822966 73.986044 
L 347.563979 71.689033 
L 348.991647 69.392022 
L 350.720278 67.095011 
L 354.389928 64.798 
L 357.462891 62.500988 
L 358.132437 60.203977 
L 360.21108 57.906966 
L 366.405103 55.609955 
L 369.28044 53.312944 
L 370.51953 51.015933 
L 372.744369 48.718922 
L 379.178876 46.421911 
L 381.661342 44.1249 
L 384.313338 41.827889 
L 389.947341 39.530878 
L 403.810675 37.233867 
L 427.33196 34.936856 
" clip-path="url(#p3741003c4c)" style="fill: none; stroke: #1f77b4; stroke-opacity: 0.2; stroke-width: 1.5; stroke-linecap: square"/>
   </g>
   <g id="line2d_17">
    <path d="M 147.411856 262.340951 
L 161.729015 260.04394 
L 169.233083 257.746929 
L 178.755315 255.449918 
L 186.389863 253.152907 
L 189.621403 250.855895 
L 204.28286 248.558884 
L 206.467221 246.261873 
L 207.684405 243.964862 
L 208.903019 241.667851 
L 211.496441 239.37084 
L 212.721245 237.073829 
L 214.60131 234.776818 
L 216.761384 232.479807 
L 218.253816 230.182796 
L 223.453519 227.885785 
L 226.896018 225.588774 
L 231.195214 223.291763 
L 231.735233 220.994752 
L 233.629107 218.697741 
L 239.344066 216.40073 
L 241.198415 214.103718 
L 243.160387 211.806707 
L 244.249949 209.509696 
L 244.614723 207.212685 
L 246.962423 204.915674 
L 248.416283 202.618663 
L 248.716293 200.321652 
L 250.067768 198.024641 
L 252.781195 195.72763 
L 254.91603 193.430619 
L 255.807013 191.133608 
L 256.9461 188.836597 
L 260.564796 186.539586 
L 261.790552 184.242575 
L 263.841575 181.945564 
L 267.660278 179.648553 
L 269.539866 177.351541 
L 270.120839 175.05453 
L 271.806611 172.757519 
L 272.72569 170.460508 
L 273.781917 168.163497 
L 275.116249 165.866486 
L 277.219654 163.569475 
L 279.472589 161.272464 
L 281.33551 158.975453 
L 281.567899 156.678442 
L 282.24697 154.381431 
L 284.565621 152.08442 
L 285.137069 149.787409 
L 287.265238 147.490398 
L 289.076729 145.193387 
L 289.7658 142.896376 
L 291.133942 140.599365 
L 293.571645 138.302353 
L 294.14357 136.005342 
L 294.515963 133.708331 
L 294.945026 131.41132 
L 297.470351 129.114309 
L 299.053262 126.817298 
L 300.494264 124.520287 
L 301.328579 122.223276 
L 303.654373 119.926265 
L 305.686348 117.629254 
L 308.227864 115.332243 
L 310.743188 113.035232 
L 312.54706 110.738221 
L 313.25756 108.44121 
L 314.509984 106.144199 
L 314.844758 103.847188 
L 316.861494 101.550176 
L 317.389607 99.253165 
L 317.891529 96.956154 
L 318.752035 94.659143 
L 321.028304 92.362132 
L 323.465054 90.065121 
L 325.339881 87.76811 
L 328.324269 85.471099 
L 329.150012 83.174088 
L 329.48669 80.877077 
L 330.340053 78.580066 
L 330.735305 76.283055 
L 332.920618 73.986044 
L 337.283625 71.689033 
L 337.676019 69.392022 
L 338.451284 67.095011 
L 340.512784 64.798 
L 341.504723 62.500988 
L 343.250021 60.203977 
L 344.194339 57.906966 
L 348.801164 55.609955 
L 353.187505 53.312944 
L 353.651807 51.015933 
L 358.731506 48.718922 
L 360.290607 46.421911 
L 366.258431 44.1249 
L 376.228298 41.827889 
L 388.542055 39.530878 
L 424.133279 37.233867 
L 454.202409 34.936856 
" clip-path="url(#p3741003c4c)" style="fill: none; stroke: #1f77b4; stroke-opacity: 0.2; stroke-width: 1.5; stroke-linecap: square"/>
   </g>
   <g id="line2d_18">
    <path d="M 109.825325 262.340951 
L 167.903037 260.04394 
L 171.658404 257.746929 
L 178.650549 255.449918 
L 182.333533 253.152907 
L 189.875697 250.855895 
L 193.162953 248.558884 
L 193.726782 246.261873 
L 200.631306 243.964862 
L 204.103806 241.667851 
L 205.512902 239.37084 
L 206.908664 237.073829 
L 208.479671 234.776818 
L 208.850636 232.479807 
L 209.906863 230.182796 
L 212.891727 227.885785 
L 215.033229 225.588774 
L 215.954214 223.291763 
L 219.678151 220.994752 
L 223.008742 218.697741 
L 225.906937 216.40073 
L 230.02946 214.103718 
L 232.074768 211.806707 
L 234.201032 209.509696 
L 237.021129 207.212685 
L 243.191817 204.915674 
L 244.622819 202.618663 
L 245.336177 200.321652 
L 247.508156 198.024641 
L 249.106782 195.72763 
L 251.190187 193.430619 
L 253.125968 191.133608 
L 254.875076 188.836597 
L 255.673675 186.539586 
L 258.389959 184.242575 
L 259.913345 181.945564 
L 261.600069 179.648553 
L 266.502143 177.351541 
L 270.452279 175.05453 
L 271.535173 172.757519 
L 272.012332 170.460508 
L 275.754366 168.163497 
L 277.703004 165.866486 
L 279.483065 163.569475 
L 281.342177 161.272464 
L 283.295577 158.975453 
L 284.070842 156.678442 
L 285.033256 154.381431 
L 285.64042 152.08442 
L 286.50664 149.787409 
L 288.448136 147.490398 
L 288.80291 145.193387 
L 289.751038 142.896376 
L 289.951045 140.599365 
L 290.962508 138.302353 
L 291.17823 136.005342 
L 291.856824 133.708331 
L 293.841655 131.41132 
L 294.727399 129.114309 
L 296.080303 126.817298 
L 297.474637 124.520287 
L 300.864753 122.223276 
L 301.956219 119.926265 
L 303.156737 117.629254 
L 305.066326 115.332243 
L 305.846353 113.035232 
L 311.510358 110.738221 
L 314.481888 108.44121 
L 316.089563 106.144199 
L 318.139633 103.847188 
L 322.246917 101.550176 
L 327.195183 99.253165 
L 330.796735 96.956154 
L 333.645881 94.659143 
L 333.847316 92.362132 
L 336.334069 90.065121 
L 338.69034 87.76811 
L 340.405637 85.471099 
L 342.64619 83.174088 
L 343.031918 80.877077 
L 345.320092 78.580066 
L 348.207334 76.283055 
L 350.715039 73.986044 
L 353.273223 71.689033 
L 354.770417 69.392022 
L 356.557621 67.095011 
L 359.60344 64.798 
L 364.159311 62.500988 
L 366.527964 60.203977 
L 372.503884 57.906966 
L 374.86206 55.609955 
L 378.796958 53.312944 
L 385.800532 51.015933 
L 394.632264 48.718922 
L 396.01755 46.421911 
L 402.173952 44.1249 
L 408.030344 41.827889 
L 429.206787 39.530878 
L 429.750615 37.233867 
L 430.376351 34.936856 
" clip-path="url(#p3741003c4c)" style="fill: none; stroke: #1f77b4; stroke-opacity: 0.2; stroke-width: 1.5; stroke-linecap: square"/>
   </g>
   <g id="line2d_19">
    <path d="M 146.681831 262.340951 
L 162.029978 260.04394 
L 174.723748 257.746929 
L 179.270095 255.449918 
L 186.965121 253.152907 
L 192.401975 250.855895 
L 200.358915 248.558884 
L 202.257076 246.261873 
L 205.553856 243.964862 
L 209.45018 241.667851 
L 214.774173 239.37084 
L 215.780398 237.073829 
L 216.220889 234.776818 
L 216.750908 232.479807 
L 220.041973 230.182796 
L 224.624988 227.885785 
L 225.568354 225.588774 
L 227.587947 223.291763 
L 228.602268 220.994752 
L 229.510394 218.697741 
L 229.569444 216.40073 
L 231.313789 214.103718 
L 234.199603 211.806707 
L 235.95633 209.509696 
L 238.527847 207.212685 
L 239.199775 204.915674 
L 242.934665 202.618663 
L 245.143313 200.321652 
L 247.032902 198.024641 
L 251.097803 195.72763 
L 251.396861 193.430619 
L 251.449244 191.133608 
L 252.5369 188.836597 
L 255.386046 186.539586 
L 257.006578 184.242575 
L 258.477105 181.945564 
L 259.519045 179.648553 
L 259.756196 177.351541 
L 259.992871 175.05453 
L 262.546769 172.757519 
L 264.183492 170.460508 
L 266.00784 168.163497 
L 268.542689 165.866486 
L 271.341357 163.569475 
L 273.176658 161.272464 
L 274.166692 158.975453 
L 275.731032 156.678442 
L 277.843961 154.381431 
L 279.161626 152.08442 
L 279.622118 149.787409 
L 281.162647 147.490398 
L 282.163634 145.193387 
L 285.481367 142.896376 
L 286.536165 140.599365 
L 288.959106 138.302353 
L 289.6177 136.005342 
L 292.458274 133.708331 
L 294.804069 131.41132 
L 295.224559 129.114309 
L 298.333714 126.817298 
L 299.066596 124.520287 
L 299.407084 122.223276 
L 300.647127 119.926265 
L 301.846216 117.629254 
L 302.98054 115.332243 
L 304.354397 113.035232 
L 306.418754 110.738221 
L 307.062585 108.44121 
L 307.185923 106.144199 
L 310.663186 103.847188 
L 312.314195 101.550176 
L 313.406137 99.253165 
L 314.28331 96.956154 
L 314.72904 94.659143 
L 315.930986 92.362132 
L 318.618697 90.065121 
L 321.776901 87.76811 
L 327.486621 85.471099 
L 329.319065 83.174088 
L 332.421553 80.877077 
L 336.746464 78.580066 
L 341.181378 76.283055 
L 345.732011 73.986044 
L 346.395843 71.689033 
L 347.192061 69.392022 
L 350.488841 67.095011 
L 351.383634 64.798 
L 357.483367 62.500988 
L 362.808789 60.203977 
L 365.656506 57.906966 
L 368.331836 55.609955 
L 374.725865 53.312944 
L 375.904953 51.015933 
L 379.823183 48.718922 
L 384.006184 46.421911 
L 390.9669 44.1249 
L 398.149052 41.827889 
L 398.748596 39.530878 
L 417.26971 37.233867 
L 436.104643 34.936856 
" clip-path="url(#p3741003c4c)" style="fill: none; stroke: #1f77b4; stroke-opacity: 0.2; stroke-width: 1.5; stroke-linecap: square"/>
   </g>
   <g id="line2d_20">
    <path d="M 128.975984 262.340951 
L 164.570065 260.04394 
L 167.71684 257.746929 
L 182.97546 255.449918 
L 187.392279 253.152907 
L 193.692019 250.855895 
L 196.462591 248.558884 
L 199.686987 246.261873 
L 202.780903 243.964862 
L 205.380993 241.667851 
L 207.789171 239.37084 
L 209.504468 237.073829 
L 211.276434 234.776818 
L 214.922749 232.479807 
L 215.896116 230.182796 
L 220.77676 227.885785 
L 225.321679 225.588774 
L 228.935136 223.291763 
L 230.33947 220.994752 
L 234.130077 218.697741 
L 234.740574 216.40073 
L 236.101573 214.103718 
L 237.478763 211.806707 
L 240.313147 209.509696 
L 241.096507 207.212685 
L 242.338931 204.915674 
L 243.015144 202.618663 
L 245.315223 200.321652 
L 246.881468 198.024641 
L 248.572955 195.72763 
L 250.833985 193.430619 
L 253.478838 191.133608 
L 255.020319 188.836597 
L 256.532752 186.539586 
L 257.952325 184.242575 
L 258.61711 181.945564 
L 260.341931 179.648553 
L 262.435336 177.351541 
L 262.828207 175.05453 
L 264.775893 172.757519 
L 265.954505 170.460508 
L 268.008385 168.163497 
L 269.406528 165.866486 
L 273.538099 163.569475 
L 277.035362 161.272464 
L 277.843961 158.975453 
L 278.168258 156.678442 
L 281.652664 154.381431 
L 282.336973 152.08442 
L 283.329864 149.787409 
L 284.652767 147.490398 
L 284.93992 145.193387 
L 285.625181 142.896376 
L 288.446707 140.599365 
L 289.051014 138.302353 
L 290.648211 136.005342 
L 292.143977 133.708331 
L 293.055437 131.41132 
L 294.723113 129.114309 
L 295.021695 126.817298 
L 295.716005 124.520287 
L 297.019383 122.223276 
L 297.257963 119.926265 
L 301.481441 117.629254 
L 302.272421 115.332243 
L 302.859108 113.035232 
L 303.344839 110.738221 
L 304.640597 108.44121 
L 307.504029 106.144199 
L 308.349773 103.847188 
L 308.685498 101.550176 
L 312.952788 99.253165 
L 316.891971 96.956154 
L 318.528694 94.659143 
L 321.017351 92.362132 
L 321.853094 90.065121 
L 323.320288 87.76811 
L 326.37944 85.471099 
L 328.102833 83.174088 
L 329.615266 80.877077 
L 330.291956 78.580066 
L 336.007391 76.283055 
L 340.67517 73.986044 
L 341.406624 71.689033 
L 343.77242 69.392022 
L 345.181992 67.095011 
L 347.119678 64.798 
L 348.607348 62.500988 
L 351.361252 60.203977 
L 358.154343 57.906966 
L 369.905699 55.609955 
L 375.554465 53.312944 
L 380.821789 51.015933 
L 382.690425 48.718922 
L 385.201464 46.421911 
L 386.446268 44.1249 
L 392.486952 41.827889 
L 399.574815 39.530878 
L 414.625809 37.233867 
L 477.025575 34.936856 
" clip-path="url(#p3741003c4c)" style="fill: none; stroke: #1f77b4; stroke-opacity: 0.2; stroke-width: 1.5; stroke-linecap: square"/>
   </g>
   <g id="line2d_21">
    <path d="M 115.903629 262.340951 
L 143.948403 260.04394 
L 152.084874 257.746929 
L 160.438971 255.449918 
L 188.914236 253.152907 
L 196.613548 250.855895 
L 202.399462 248.558884 
L 208.106325 246.261873 
L 211.46644 243.964862 
L 215.774207 241.667851 
L 216.764241 239.37084 
L 219.921969 237.073829 
L 224.178782 234.776818 
L 228.978947 232.479807 
L 229.618493 230.182796 
L 232.961941 227.885785 
L 235.699655 225.588774 
L 236.459681 223.291763 
L 237.911159 220.994752 
L 239.403115 218.697741 
L 241.740339 216.40073 
L 242.206545 214.103718 
L 242.648465 211.806707 
L 245.693332 209.509696 
L 246.801941 207.212685 
L 250.182534 204.915674 
L 251.048278 202.618663 
L 252.40261 200.321652 
L 253.716465 198.024641 
L 255.142228 195.72763 
L 256.523704 193.430619 
L 260.484317 191.133608 
L 261.779599 188.836597 
L 262.722965 186.539586 
L 264.661603 184.242575 
L 264.733987 181.945564 
L 267.889809 179.648553 
L 268.738886 177.351541 
L 269.836067 175.05453 
L 270.817529 172.757519 
L 271.936615 170.460508 
L 274.673376 168.163497 
L 275.872465 165.866486 
L 276.437723 163.569475 
L 278.141114 161.272464 
L 278.750659 158.975453 
L 280.141659 156.678442 
L 281.578852 154.381431 
L 282.263637 152.08442 
L 283.878931 149.787409 
L 284.309422 147.490398 
L 285.206119 145.193387 
L 286.461877 142.896376 
L 287.959071 140.599365 
L 288.211461 138.302353 
L 288.541472 136.005342 
L 289.364358 133.708331 
L 290.683451 131.41132 
L 294.091187 129.114309 
L 298.783729 126.817298 
L 299.39756 124.520287 
L 301.042378 122.223276 
L 302.298136 119.926265 
L 304.07153 117.629254 
L 306.307321 115.332243 
L 309.130276 113.035232 
L 310.616041 110.738221 
L 312.506582 108.44121 
L 313.242798 106.144199 
L 315.083814 103.847188 
L 316.363858 101.550176 
L 316.666725 99.253165 
L 320.116844 96.956154 
L 321.935478 94.659143 
L 324.759861 92.362132 
L 327.422333 90.065121 
L 327.887111 87.76811 
L 330.842927 85.471099 
L 335.585471 83.174088 
L 337.730783 80.877077 
L 338.941301 78.580066 
L 342.900485 76.283055 
L 343.127159 73.986044 
L 343.821945 71.689033 
L 349.180701 69.392022 
L 352.277474 67.095011 
L 354.899469 64.798 
L 360.066313 62.500988 
L 363.088798 60.203977 
L 366.548917 57.906966 
L 371.548137 55.609955 
L 374.442046 53.312944 
L 382.374224 51.015933 
L 384.374292 48.718922 
L 386.24769 46.421911 
L 395.537057 44.1249 
L 398.75812 41.827889 
L 404.194974 39.530878 
L 426.598126 37.233867 
L 446.113559 34.936856 
" clip-path="url(#p3741003c4c)" style="fill: none; stroke: #1f77b4; stroke-opacity: 0.2; stroke-width: 1.5; stroke-linecap: square"/>
   </g>
   <g id="line2d_22">
    <path d="M 141.581655 262.340951 
L 167.070151 260.04394 
L 170.296929 257.746929 
L 182.245435 255.449918 
L 186.843212 253.152907 
L 189.027573 250.855895 
L 191.552898 248.558884 
L 193.773451 246.261873 
L 196.796412 243.964862 
L 198.630284 241.667851 
L 200.821788 239.37084 
L 205.638144 237.073829 
L 209.016832 234.776818 
L 216.260891 232.479807 
L 220.102928 230.182796 
L 220.410557 227.885785 
L 222.918739 225.588774 
L 224.995477 223.291763 
L 228.583219 220.994752 
L 233.061469 218.697741 
L 236.89922 216.40073 
L 237.674484 214.103718 
L 240.858403 211.806707 
L 244.083276 209.509696 
L 245.910006 207.212685 
L 248.972492 204.915674 
L 250.785888 202.618663 
L 252.283558 200.321652 
L 257.965182 198.024641 
L 259.325705 195.72763 
L 261.134815 193.430619 
L 264.657794 191.133608 
L 266.042127 188.836597 
L 268.09315 186.539586 
L 269.233665 184.242575 
L 271.941377 181.945564 
L 273.20904 179.648553 
L 275.50531 177.351541 
L 277.472996 175.05453 
L 278.607797 172.757519 
L 281.658855 170.460508 
L 283.266053 168.163497 
L 284.923253 165.866486 
L 285.073258 163.569475 
L 285.632801 161.272464 
L 288.510043 158.975453 
L 288.569568 156.678442 
L 289.694845 154.381431 
L 291.163943 152.08442 
L 291.894445 149.787409 
L 293.249253 147.490398 
L 295.266465 145.193387 
L 297.934176 142.896376 
L 298.794206 140.599365 
L 299.150409 138.302353 
L 302.31766 136.005342 
L 302.514334 133.708331 
L 303.995337 131.41132 
L 304.946798 129.114309 
L 307.513077 126.817298 
L 310.142215 124.520287 
L 311.347971 122.223276 
L 311.847988 119.926265 
L 312.798497 117.629254 
L 313.958061 115.332243 
L 314.252357 113.035232 
L 316.119087 110.738221 
L 317.520088 108.44121 
L 317.999152 106.144199 
L 320.309708 103.847188 
L 321.580228 101.550176 
L 322.495497 99.253165 
L 323.163139 96.956154 
L 324.261272 94.659143 
L 324.973202 92.362132 
L 325.448932 90.065121 
L 325.840374 87.76811 
L 328.913337 85.471099 
L 330.155761 83.174088 
L 332.569653 80.877077 
L 334.172089 78.580066 
L 337.08838 76.283055 
L 340.474687 73.986044 
L 341.292334 71.689033 
L 342.643809 69.392022 
L 347.642077 67.095011 
L 348.945455 64.798 
L 350.951714 62.500988 
L 353.590376 60.203977 
L 359.799161 57.906966 
L 367.318944 55.609955 
L 369.918557 53.312944 
L 372.506741 51.015933 
L 375.391602 48.718922 
L 384.317624 46.421911 
L 392.577908 44.1249 
L 398.954318 41.827889 
L 409.804215 39.530878 
L 416.7035 37.233867 
L 449.45796 34.936856 
" clip-path="url(#p3741003c4c)" style="fill: none; stroke: #1f77b4; stroke-opacity: 0.2; stroke-width: 1.5; stroke-linecap: square"/>
   </g>
   <g id="line2d_23">
    <path d="M 128.992377 262.340951 
L 154.669244 260.04394 
L 167.758734 257.746929 
L 177.431129 255.449918 
L 184.657744 253.152907 
L 190.664322 250.855895 
L 195.111678 248.558884 
L 200.57203 246.261873 
L 204.529166 243.964862 
L 207.369542 241.667851 
L 209.501482 239.37084 
L 212.860479 237.073829 
L 215.972547 234.776818 
L 218.486558 232.479807 
L 221.914809 230.182796 
L 225.298997 227.885785 
L 228.447472 225.588774 
L 229.72939 223.291763 
L 231.715929 220.994752 
L 234.169047 218.697741 
L 236.618627 216.40073 
L 239.158252 214.103718 
L 241.73291 211.806707 
L 243.294337 209.509696 
L 244.77835 207.212685 
L 246.727746 204.915674 
L 248.588172 202.618663 
L 250.322062 200.321652 
L 252.147589 198.024641 
L 254.243204 195.72763 
L 255.990826 193.430619 
L 258.160751 191.133608 
L 259.691801 188.836597 
L 261.120274 186.539586 
L 263.237614 184.242575 
L 264.742158 181.945564 
L 265.969705 179.648553 
L 268.24506 177.351541 
L 269.923129 175.05453 
L 271.797922 172.757519 
L 273.329306 170.460508 
L 274.66694 168.163497 
L 275.805856 165.866486 
L 277.542277 163.569475 
L 278.677338 161.272464 
L 279.704921 158.975453 
L 281.590921 156.678442 
L 283.35802 154.381431 
L 284.929336 152.08442 
L 285.669173 149.787409 
L 287.50176 147.490398 
L 288.901918 145.193387 
L 289.90871 142.896376 
L 291.275502 140.599365 
L 293.548897 138.302353 
L 294.846239 136.005342 
L 296.645151 133.708331 
L 298.707631 131.41132 
L 300.250908 129.114309 
L 302.049751 126.817298 
L 303.128986 124.520287 
L 305.010746 122.223276 
L 307.180387 119.926265 
L 308.91984 117.629254 
L 311.101472 115.332243 
L 313.026948 113.035232 
L 314.282846 110.738221 
L 315.888699 108.44121 
L 317.356175 106.144199 
L 319.343748 103.847188 
L 321.21836 101.550176 
L 323.07731 99.253165 
L 324.804362 96.956154 
L 326.729624 94.659143 
L 328.890793 92.362132 
L 330.268038 90.065121 
L 332.119376 87.76811 
L 333.843852 85.471099 
L 336.616895 83.174088 
L 338.896635 80.877077 
L 341.066327 78.580066 
L 342.919947 76.283055 
L 345.015224 73.986044 
L 347.039584 71.689033 
L 348.920625 69.392022 
L 351.302719 67.095011 
L 353.778678 64.798 
L 357.480808 62.500988 
L 360.150869 60.203977 
L 365.195554 57.906966 
L 369.741615 55.609955 
L 374.387401 53.312944 
L 378.802375 51.015933 
L 382.456831 48.718922 
L 385.840693 46.421911 
L 394.219962 44.1249 
L 399.522013 41.827889 
L 412.10383 39.530878 
L 425.880715 37.233867 
L 449.307462 34.936856 
" clip-path="url(#p3741003c4c)" style="fill: none; stroke: #000000; stroke-width: 1.5; stroke-linecap: square"/>
   </g>
   <g id="line2d_24">
    <path d="M 64.99664 263.46636 
L 69.57775 263.458008 
L 74.15886 263.446896 
L 78.73997 263.432204 
L 83.32108 263.412904 
L 87.90219 263.38771 
L 92.4833 263.35503 
L 97.06441 263.312908 
L 101.645044 263.258964 
L 106.226154 263.1903 
L 110.807263 263.103455 
L 115.388373 262.994303 
L 119.969483 262.85797 
L 124.550593 262.68875 
L 129.131703 262.480017 
L 133.712813 262.224142 
L 138.293923 261.912423 
L 142.875033 261.535018 
L 147.456143 261.080909 
L 152.037253 260.537868 
L 156.618363 259.892472 
L 161.199473 259.130133 
L 165.780107 258.235275 
L 170.361217 257.191059 
L 174.942327 255.980103 
L 179.523437 254.584326 
L 184.104547 252.985288 
L 188.685657 251.164493 
L 193.266766 249.103725 
L 197.847876 246.785436 
L 202.428986 244.193154 
L 207.010096 241.311924 
L 211.591206 238.128751 
L 216.172316 234.633051 
L 220.753426 230.817081 
L 225.334536 226.676342 
L 229.91517 222.21042 
L 234.49628 217.421391 
L 239.07739 212.316837 
L 243.6585 206.908162 
L 248.23961 201.211089 
L 252.82072 195.245607 
L 257.40183 189.035811 
L 261.98294 182.609641 
L 266.56405 175.998519 
L 271.14516 169.236891 
L 275.72627 162.361686 
L 280.307379 155.411712 
L 284.888489 148.426994 
L 289.469599 141.448081 
L 294.050709 134.515343 
L 298.631343 127.668976 
L 303.212453 120.945496 
L 307.793563 114.381392 
L 312.374673 108.009701 
L 316.955783 101.860244 
L 321.536893 95.959234 
L 326.118003 90.328973 
L 330.699113 84.987659 
L 335.280223 79.949293 
L 339.861333 75.223677 
L 344.442443 70.816515 
L 349.023553 66.729595 
L 353.604663 62.961042 
L 358.185296 59.505976 
L 362.766406 56.355478 
L 367.347516 53.499131 
L 371.928626 50.92398 
L 376.509736 48.61532 
L 381.090846 46.557125 
L 385.671956 44.732439 
L 390.253066 43.123764 
L 394.834176 41.713396 
L 399.415286 40.483735 
L 403.996396 39.417553 
L 408.577506 38.498217 
L 413.158616 37.709864 
L 417.739726 37.037549 
L 422.320836 36.467336 
L 426.901469 35.986412 
L 431.482579 35.582928 
L 436.063689 35.246298 
L 440.644799 34.966974 
L 445.225909 34.73646 
L 449.807019 34.547257 
L 454.388129 34.392804 
L 458.969239 34.267398 
L 463.550349 34.166126 
L 468.131459 34.084783 
L 472.712569 34.019799 
L 477.293679 33.968162 
L 481.874789 33.92735 
L 486.455423 33.89527 
L 491.036533 33.870181 
L 495.617643 33.850668 
L 500.198753 33.835571 
L 504.779863 33.823954 
L 509.360972 33.815061 
L 513.942082 33.808289 
L 518.523192 33.80316 
" clip-path="url(#p3741003c4c)" style="fill: none; stroke-dasharray: 4,6.6; stroke-dashoffset: 0; stroke: #d62728; stroke-width: 4"/>
   </g>
   <g id="patch_3">
    <path d="M 42.320312 274.94952 
L 42.320312 22.32 
" style="fill: none; stroke: #000000; stroke-width: 0.8; stroke-linejoin: miter; stroke-linecap: square"/>
   </g>
   <g id="patch_4">
    <path d="M 42.320312 274.94952 
L 541.19952 274.94952 
" style="fill: none; stroke: #000000; stroke-width: 0.8; stroke-linejoin: miter; stroke-linecap: square"/>
   </g>
   <g id="text_15">
    <!-- Cumulative Temperature Distribution (2000 H$_2$O, NPT) -->
    <g transform="translate(144.759916 16.32) scale(0.12 -0.12)">
     <defs>
      <path id="IBMPlexSans-44" d="M 595 0 
L 2093 0 
C 3206 0 3923 742 3923 2234 
C 3923 3725 3206 4467 2093 4467 
L 595 4467 
L 595 0 
z
M 1133 474 
L 1133 3994 
L 2093 3994 
C 2829 3994 3347 3482 3347 2598 
L 3347 1869 
C 3347 986 2829 474 2093 474 
L 1133 474 
z
" transform="scale(0.015625)"/>
      <path id="IBMPlexSans-73" d="M 1536 -77 
C 2291 -77 2758 314 2758 954 
C 2758 1453 2477 1773 1747 1882 
L 1491 1920 
C 1082 1984 858 2112 858 2432 
C 858 2746 1082 2944 1504 2944 
C 1926 2944 2208 2746 2355 2541 
L 2694 2848 
C 2426 3181 2074 3379 1542 3379 
C 870 3379 365 3059 365 2406 
C 365 1792 819 1542 1427 1453 
L 1690 1414 
C 2125 1350 2266 1152 2266 896 
C 2266 557 2010 358 1574 358 
C 1158 358 851 544 595 864 
L 230 570 
C 525 179 928 -77 1536 -77 
z
" transform="scale(0.015625)"/>
      <path id="IBMPlexSans-6e" d="M 1056 0 
L 1056 2291 
C 1056 2714 1453 2918 1862 2918 
C 2355 2918 2611 2618 2611 2029 
L 2611 0 
L 3123 0 
L 3123 2118 
C 3123 2918 2694 3379 2016 3379 
C 1523 3379 1242 3136 1082 2765 
L 1056 2765 
L 1056 3302 
L 544 3302 
L 544 0 
L 1056 0 
z
" transform="scale(0.015625)"/>
      <path id="IBMPlexSans-28" d="M 531 1997 
C 531 749 1056 -339 1690 -877 
L 2176 -877 
C 1485 -262 1011 819 1011 1715 
L 1011 2266 
C 1011 3162 1466 4224 2176 4864 
L 1690 4864 
C 1037 4307 531 3232 531 1997 
z
" transform="scale(0.015625)"/>
      <path id="IBMPlexSans-48" d="M 3392 0 
L 3930 0 
L 3930 4467 
L 3392 4467 
L 3392 2496 
L 1133 2496 
L 1133 4467 
L 595 4467 
L 595 0 
L 1133 0 
L 1133 2022 
L 3392 2022 
L 3392 0 
z
" transform="scale(0.015625)"/>
      <path id="DejaVuSans-32" d="M 1228 531 
L 3431 531 
L 3431 0 
L 469 0 
L 469 531 
Q 828 903 1448 1529 
Q 2069 2156 2228 2338 
Q 2531 2678 2651 2914 
Q 2772 3150 2772 3378 
Q 2772 3750 2511 3984 
Q 2250 4219 1831 4219 
Q 1534 4219 1204 4116 
Q 875 4013 500 3803 
L 500 4441 
Q 881 4594 1212 4672 
Q 1544 4750 1819 4750 
Q 2544 4750 2975 4387 
Q 3406 4025 3406 3419 
Q 3406 3131 3298 2873 
Q 3191 2616 2906 2266 
Q 2828 2175 2409 1742 
Q 1991 1309 1228 531 
z
" transform="scale(0.015625)"/>
      <path id="IBMPlexSans-4f" d="M 2266 -77 
C 3418 -77 4160 736 4160 2234 
C 4160 3731 3418 4544 2266 4544 
C 1114 4544 371 3731 371 2234 
C 371 736 1114 -77 2266 -77 
z
M 2266 403 
C 1491 403 947 979 947 1862 
L 947 2605 
C 947 3488 1491 4064 2266 4064 
C 3040 4064 3584 3488 3584 2605 
L 3584 1862 
C 3584 979 3040 403 2266 403 
z
" transform="scale(0.015625)"/>
      <path id="IBMPlexSans-2c" d="M 870 749 
C 602 749 480 595 480 371 
L 480 282 
C 480 109 557 -19 730 -58 
C 659 -358 506 -582 250 -851 
L 678 -851 
C 1043 -538 1261 -64 1261 282 
L 1261 371 
C 1261 595 1139 749 870 749 
z
" transform="scale(0.015625)"/>
      <path id="IBMPlexSans-4e" d="M 3309 0 
L 3930 0 
L 3930 4467 
L 3405 4467 
L 3405 749 
L 3386 749 
L 2848 1741 
L 1216 4467 
L 595 4467 
L 595 0 
L 1120 0 
L 1120 3718 
L 1139 3718 
L 1677 2726 
L 3309 0 
z
" transform="scale(0.015625)"/>
      <path id="IBMPlexSans-29" d="M 1613 1997 
C 1613 3232 1107 4307 454 4864 
L -32 4864 
C 678 4224 1133 3162 1133 2266 
L 1133 1715 
C 1133 819 659 -262 -32 -877 
L 454 -877 
C 1088 -339 1613 749 1613 1997 
z
" transform="scale(0.015625)"/>
     </defs>
     <use xlink:href="#IBMPlexSans-43"/>
     <use xlink:href="#IBMPlexSans-75" transform="translate(62.099991 0)"/>
     <use xlink:href="#IBMPlexSans-6d" transform="translate(118.899979 0)"/>
     <use xlink:href="#IBMPlexSans-75" transform="translate(206.199966 0)"/>
     <use xlink:href="#IBMPlexSans-6c" transform="translate(262.999954 0)"/>
     <use xlink:href="#IBMPlexSans-61" transform="translate(290.199951 0)"/>
     <use xlink:href="#IBMPlexSans-74" transform="translate(343.599945 0)"/>
     <use xlink:href="#IBMPlexSans-69" transform="translate(378.699936 0)"/>
     <use xlink:href="#IBMPlexSans-76" transform="translate(403.699921 0)"/>
     <use xlink:href="#IBMPlexSans-65" transform="translate(452.899918 0)"/>
     <use xlink:href="#IBMPlexSans-20" transform="translate(507.799911 0)"/>
     <use xlink:href="#IBMPlexSans-54" transform="translate(531.399902 0)"/>
     <use xlink:href="#IBMPlexSans-65" transform="translate(588.599899 0)"/>
     <use xlink:href="#IBMPlexSans-6d" transform="translate(643.499893 0)"/>
     <use xlink:href="#IBMPlexSans-70" transform="translate(730.799881 0)"/>
     <use xlink:href="#IBMPlexSans-65" transform="translate(788.799866 0)"/>
     <use xlink:href="#IBMPlexSans-72" transform="translate(843.69986 0)"/>
     <use xlink:href="#IBMPlexSans-61" transform="translate(880.399857 0)"/>
     <use xlink:href="#IBMPlexSans-74" transform="translate(933.79985 0)"/>
     <use xlink:href="#IBMPlexSans-75" transform="translate(968.899841 0)"/>
     <use xlink:href="#IBMPlexSans-72" transform="translate(1025.699829 0)"/>
     <use xlink:href="#IBMPlexSans-65" transform="translate(1062.399826 0)"/>
     <use xlink:href="#IBMPlexSans-20" transform="translate(1117.29982 0)"/>
     <use xlink:href="#IBMPlexSans-44" transform="translate(1140.899811 0)"/>
     <use xlink:href="#IBMPlexSans-69" transform="translate(1207.999802 0)"/>
     <use xlink:href="#IBMPlexSans-73" transform="translate(1232.999786 0)"/>
     <use xlink:href="#IBMPlexSans-74" transform="translate(1281.699783 0)"/>
     <use xlink:href="#IBMPlexSans-72" transform="translate(1316.799774 0)"/>
     <use xlink:href="#IBMPlexSans-69" transform="translate(1353.499771 0)"/>
     <use xlink:href="#IBMPlexSans-62" transform="translate(1378.499756 0)"/>
     <use xlink:href="#IBMPlexSans-75" transform="translate(1436.499741 0)"/>
     <use xlink:href="#IBMPlexSans-74" transform="translate(1493.299728 0)"/>
     <use xlink:href="#IBMPlexSans-69" transform="translate(1528.399719 0)"/>
     <use xlink:href="#IBMPlexSans-6f" transform="translate(1553.399704 0)"/>
     <use xlink:href="#IBMPlexSans-6e" transform="translate(1609.399689 0)"/>
     <use xlink:href="#IBMPlexSans-20" transform="translate(1666.199677 0)"/>
     <use xlink:href="#IBMPlexSans-28" transform="translate(1689.799667 0)"/>
     <use xlink:href="#IBMPlexSans-32" transform="translate(1723.299652 0)"/>
     <use xlink:href="#IBMPlexSans-30" transform="translate(1783.299637 0)"/>
     <use xlink:href="#IBMPlexSans-30" transform="translate(1843.299622 0)"/>
     <use xlink:href="#IBMPlexSans-30" transform="translate(1903.299606 0)"/>
     <use xlink:href="#IBMPlexSans-20" transform="translate(1963.299591 0)"/>
     <use xlink:href="#IBMPlexSans-48" transform="translate(1986.899582 0)"/>
     <use xlink:href="#DejaVuSans-32" transform="translate(2058.556595 -16.40625) scale(0.7)"/>
     <use xlink:href="#IBMPlexSans-4f" transform="translate(2105.827103 0)"/>
     <use xlink:href="#IBMPlexSans-2c" transform="translate(2176.62709 0)"/>
     <use xlink:href="#IBMPlexSans-20" transform="translate(2203.827087 0)"/>
     <use xlink:href="#IBMPlexSans-4e" transform="translate(2227.427078 0)"/>
     <use xlink:href="#IBMPlexSans-50" transform="translate(2298.12706 0)"/>
     <use xlink:href="#IBMPlexSans-54" transform="translate(2358.727051 0)"/>
     <use xlink:href="#IBMPlexSans-29" transform="translate(2415.927048 0)"/>
    </g>
   </g>
   <g id="legend_1">
    <g id="patch_5">
     <path d="M 49.320312 73.52 
L 148.479688 73.52 
Q 150.479688 73.52 150.479688 71.52 
L 150.479688 29.32 
Q 150.479688 27.32 148.479688 27.32 
L 49.320312 27.32 
Q 47.320312 27.32 47.320312 29.32 
L 47.320312 71.52 
Q 47.320312 73.52 49.320312 73.52 
z
" style="fill: #ffffff; opacity: 0.8; stroke: #cccccc; stroke-linejoin: miter"/>
    </g>
    <g id="line2d_25">
     <path d="M 51.320312 35.22 
L 61.320312 35.22 
L 71.320312 35.22 
" style="fill: none; stroke: #1f77b4; stroke-opacity: 0.2; stroke-width: 1.5; stroke-linecap: square"/>
    </g>
    <g id="text_16">
     <!-- Individual NVE -->
     <g transform="translate(79.320312 38.72) scale(0.1 -0.1)">
      <defs>
       <path id="IBMPlexSans-49" d="M 2176 0 
L 2176 448 
L 1549 448 
L 1549 4019 
L 2176 4019 
L 2176 4467 
L 384 4467 
L 384 4019 
L 1011 4019 
L 1011 448 
L 384 448 
L 384 0 
L 2176 0 
z
" transform="scale(0.015625)"/>
       <path id="IBMPlexSans-64" d="M 2656 0 
L 3168 0 
L 3168 4736 
L 2656 4736 
L 2656 2765 
L 2630 2765 
C 2458 3181 2118 3379 1664 3379 
C 838 3379 320 2707 320 1651 
C 320 595 838 -77 1664 -77 
C 2118 -77 2432 128 2630 538 
L 2656 538 
L 2656 0 
z
M 1805 384 
C 1229 384 870 781 870 1370 
L 870 1933 
C 870 2522 1229 2918 1805 2918 
C 2272 2918 2656 2650 2656 2285 
L 2656 1056 
C 2656 627 2272 384 1805 384 
z
" transform="scale(0.015625)"/>
       <path id="IBMPlexSans-56" d="M 2266 0 
L 3770 4467 
L 3213 4467 
L 2470 2214 
L 1965 538 
L 1933 538 
L 1440 2214 
L 704 4467 
L 128 4467 
L 1613 0 
L 2266 0 
z
" transform="scale(0.015625)"/>
       <path id="IBMPlexSans-45" d="M 3322 0 
L 3322 474 
L 1133 474 
L 1133 2022 
L 3194 2022 
L 3194 2496 
L 1133 2496 
L 1133 3994 
L 3322 3994 
L 3322 4467 
L 595 4467 
L 595 0 
L 3322 0 
z
" transform="scale(0.015625)"/>
      </defs>
      <use xlink:href="#IBMPlexSans-49"/>
      <use xlink:href="#IBMPlexSans-6e" transform="translate(39.999985 0)"/>
      <use xlink:href="#IBMPlexSans-64" transform="translate(96.799973 0)"/>
      <use xlink:href="#IBMPlexSans-69" transform="translate(154.799957 0)"/>
      <use xlink:href="#IBMPlexSans-76" transform="translate(179.799942 0)"/>
      <use xlink:href="#IBMPlexSans-69" transform="translate(228.999939 0)"/>
      <use xlink:href="#IBMPlexSans-64" transform="translate(253.999924 0)"/>
      <use xlink:href="#IBMPlexSans-75" transform="translate(311.999908 0)"/>
      <use xlink:href="#IBMPlexSans-61" transform="translate(368.799896 0)"/>
      <use xlink:href="#IBMPlexSans-6c" transform="translate(422.19989 0)"/>
      <use xlink:href="#IBMPlexSans-20" transform="translate(449.399887 0)"/>
      <use xlink:href="#IBMPlexSans-4e" transform="translate(472.999878 0)"/>
      <use xlink:href="#IBMPlexSans-56" transform="translate(543.69986 0)"/>
      <use xlink:href="#IBMPlexSans-45" transform="translate(604.599854 0)"/>
     </g>
    </g>
    <g id="line2d_26">
     <path d="M 51.320312 49.62 
L 61.320312 49.62 
L 71.320312 49.62 
" style="fill: none; stroke: #000000; stroke-width: 1.5; stroke-linecap: square"/>
    </g>
    <g id="text_17">
     <!-- Combined NVE -->
     <g transform="translate(79.320312 53.12) scale(0.1 -0.1)">
      <use xlink:href="#IBMPlexSans-43"/>
      <use xlink:href="#IBMPlexSans-6f" transform="translate(62.099991 0)"/>
      <use xlink:href="#IBMPlexSans-6d" transform="translate(118.099976 0)"/>
      <use xlink:href="#IBMPlexSans-62" transform="translate(205.399963 0)"/>
      <use xlink:href="#IBMPlexSans-69" transform="translate(263.399948 0)"/>
      <use xlink:href="#IBMPlexSans-6e" transform="translate(288.399933 0)"/>
      <use xlink:href="#IBMPlexSans-65" transform="translate(345.199921 0)"/>
      <use xlink:href="#IBMPlexSans-64" transform="translate(400.099915 0)"/>
      <use xlink:href="#IBMPlexSans-20" transform="translate(458.099899 0)"/>
      <use xlink:href="#IBMPlexSans-4e" transform="translate(481.69989 0)"/>
      <use xlink:href="#IBMPlexSans-56" transform="translate(552.399872 0)"/>
      <use xlink:href="#IBMPlexSans-45" transform="translate(613.299866 0)"/>
     </g>
    </g>
    <g id="line2d_27">
     <path d="M 51.320312 64.02 
L 61.320312 64.02 
L 71.320312 64.02 
" style="fill: none; stroke-dasharray: 4,6.6; stroke-dashoffset: 0; stroke: #d62728; stroke-width: 4"/>
    </g>
    <g id="text_18">
     <!-- NVT exact -->
     <g transform="translate(79.320312 67.52) scale(0.1 -0.1)">
      <defs>
       <path id="IBMPlexSans-78" d="M 134 0 
L 704 0 
L 1632 1293 
L 1651 1293 
L 2509 0 
L 3110 0 
L 1920 1702 
L 3085 3302 
L 2515 3302 
L 1645 2074 
L 1626 2074 
L 787 3302 
L 186 3302 
L 1357 1664 
L 134 0 
z
" transform="scale(0.015625)"/>
       <path id="IBMPlexSans-63" d="M 1773 -77 
C 2400 -77 2829 230 3040 704 
L 2669 954 
C 2490 576 2189 378 1773 378 
C 1165 378 851 794 851 1370 
L 851 1933 
C 851 2509 1165 2925 1773 2925 
C 2176 2925 2458 2726 2579 2387 
L 3008 2605 
C 2816 3059 2426 3379 1773 3379 
C 845 3379 301 2707 301 1651 
C 301 595 845 -77 1773 -77 
z
" transform="scale(0.015625)"/>
      </defs>
      <use xlink:href="#IBMPlexSans-4e"/>
      <use xlink:href="#IBMPlexSans-56" transform="translate(70.699982 0)"/>
      <use xlink:href="#IBMPlexSans-54" transform="translate(131.599976 0)"/>
      <use xlink:href="#IBMPlexSans-20" transform="translate(188.799973 0)"/>
      <use xlink:href="#IBMPlexSans-65" transform="translate(212.399963 0)"/>
      <use xlink:href="#IBMPlexSans-78" transform="translate(267.299957 0)"/>
      <use xlink:href="#IBMPlexSans-61" transform="translate(317.999954 0)"/>
      <use xlink:href="#IBMPlexSans-63" transform="translate(371.399948 0)"/>
      <use xlink:href="#IBMPlexSans-74" transform="translate(421.699936 0)"/>
     </g>
    </g>
   </g>
  </g>
 </g>
 <defs>
  <clipPath id="p3741003c4c">
   <rect x="42.320312" y="22.32" width="498.879207" height="252.62952"/>
  </clipPath>
 </defs>
</svg>