<?xml version="1.0" encoding="utf-8" standalone="no"?>
<!DOCTYPE svg PUBLIC "-//W3C//DTD SVG 1.1//EN"
  "http://www.w3.org/Graphics/SVG/1.1/DTD/svg11.dtd">
<svg xmlns:xlink="http://www.w3.org/1999/xlink" width="548.39952pt" height="312.14952pt" viewBox="0 0 548.39952 312.14952" xmlns="http://www.w3.org/2000/svg" version="1.1">
 <metadata>
  <rdf:RDF xmlns:dc="http://purl.org/dc/elements/1.1/" xmlns:cc="http://creativecommons.org/ns#" xmlns:rdf="http://www.w3.org/1999/02/22-rdf-syntax-ns#">
   <cc:Work>
    <dc:type rdf:resource="http://purl.org/dc/dcmitype/StillImage"/>
    <dc:date>2026-01-27T08:26:31.210984</dc:date>
    <dc:format>image/svg+xml</dc:format>
    <dc:creator>
     <cc:Agent>
      <dc:title>Matplotlib v3.10.7, https://matplotlib.org/</dc:title>
     </cc:Agent>
    </dc:creator>
   </cc:Work>
  </rdf:RDF>
 </metadata>
 <defs>
  <style type="text/css">*{stroke-linejoin: round; stroke-linecap: butt}</style>
 </defs>
 <g id="figure_1">
  <g id="patch_1">
   <path d="M 0 312.14952 
L 548.39952 312.14952 
L 548.39952 0 
L 0 0 
z
" style="fill: #ffffff"/>
  </g>
  <g id="axes_1">
   <g id="patch_2">
    <path d="M 48.640625 128.02452 
L 271.259676 128.02452 
L 271.259676 7.2 
L 48.640625 7.2 
z
" style="fill: #ffffff"/>
   </g>
   <g id="matplotlib.axis_1">
    <g id="xtick_1">
     <g id="line2d_1">
      <defs>
       <path id="m2cb72091a4" d="M 0 0 
L 0 3.5 
" style="stroke: #000000; stroke-width: 0.8"/>
      </defs>
      <g>
       <use xlink:href="#m2cb72091a4" x="190.424261" y="128.02452" style="stroke: #000000; stroke-width: 0.8"/>
      </g>
     </g>
     <g id="text_1">
      <!-- $\mathdefault{10^{0}}$ -->
      <g transform="translate(182.124261 142.42452) scale(0.1 -0.1)">
       <defs>
        <path id="IBMPlexSans-31" d="M 3501 0 
L 3501 474 
L 2349 474 
L 2349 4467 
L 1510 4467 
L 326 3360 
L 640 3021 
L 1766 4070 
L 1811 4070 
L 1811 474 
L 563 474 
L 563 0 
L 3501 0 
z
" transform="scale(0.015625)"/>
        <path id="IBMPlexSans-30" d="M 1920 -77 
C 2989 -77 3456 774 3456 2234 
C 3456 3693 2989 4544 1920 4544 
C 851 4544 384 3693 384 2234 
C 384 774 851 -77 1920 -77 
z
M 1920 390 
C 1222 390 947 1005 947 1869 
L 947 2598 
C 947 3462 1222 4077 1920 4077 
C 2618 4077 2893 3462 2893 2598 
L 2893 1869 
C 2893 1005 2618 390 1920 390 
z
" transform="scale(0.015625)"/>
       </defs>
       <use xlink:href="#IBMPlexSans-31" transform="translate(0 0.184375)"/>
       <use xlink:href="#IBMPlexSans-30" transform="translate(59.999985 0.184375)"/>
       <use xlink:href="#IBMPlexSans-30" transform="translate(120.90286 36.3) scale(0.7)"/>
      </g>
     </g>
    </g>
    <g id="xtick_2">
     <g id="line2d_2">
      <defs>
       <path id="mba9af42c7e" d="M 0 0 
L 0 2 
" style="stroke: #000000; stroke-width: 0.6"/>
      </defs>
      <g>
       <use xlink:href="#mba9af42c7e" x="61.422665" y="128.02452" style="stroke: #000000; stroke-width: 0.6"/>
      </g>
     </g>
     <g id="text_2">
      <!-- $\mathdefault{4\times10^{-1}}$ -->
      <g transform="translate(43.072665 140.82452) scale(0.1 -0.1)">
       <defs>
        <path id="IBMPlexSans-34" d="M 2912 0 
L 2912 877 
L 3558 877 
L 3558 1325 
L 2912 1325 
L 2912 4467 
L 2112 4467 
L 243 1350 
L 243 877 
L 2400 877 
L 2400 0 
L 2912 0 
z
M 2368 4051 
L 2400 4051 
L 2400 1325 
L 749 1325 
L 2368 4051 
z
" transform="scale(0.015625)"/>
        <path id="IBMPlexSans-d7" d="M 2938 595 
L 3251 909 
L 2234 1952 
L 3251 2995 
L 2938 3309 
L 1920 2266 
L 902 3309 
L 589 2995 
L 1606 1952 
L 589 909 
L 902 595 
L 1920 1638 
L 2938 595 
z
" transform="scale(0.015625)"/>
        <path id="IBMPlexSans-2212" d="M 3411 1734 
L 3411 2170 
L 429 2170 
L 429 1734 
L 3411 1734 
z
" transform="scale(0.015625)"/>
       </defs>
       <use xlink:href="#IBMPlexSans-34" transform="translate(0 0.026563)"/>
       <use xlink:href="#IBMPlexSans-d7" transform="translate(79.482407 0.026563)"/>
       <use xlink:href="#IBMPlexSans-31" transform="translate(158.964813 0.026563)"/>
       <use xlink:href="#IBMPlexSans-30" transform="translate(218.964798 0.026563)"/>
       <use xlink:href="#IBMPlexSans-2212" transform="translate(279.867673 36.142188) scale(0.7)"/>
       <use xlink:href="#IBMPlexSans-31" transform="translate(321.867663 36.142188) scale(0.7)"/>
      </g>
     </g>
    </g>
    <g id="xtick_3">
     <g id="line2d_3">
      <g>
       <use xlink:href="#mba9af42c7e" x="92.838321" y="128.02452" style="stroke: #000000; stroke-width: 0.6"/>
      </g>
     </g>
    </g>
    <g id="xtick_4">
     <g id="line2d_4">
      <g>
       <use xlink:href="#mba9af42c7e" x="118.506781" y="128.02452" style="stroke: #000000; stroke-width: 0.6"/>
      </g>
     </g>
     <g id="text_3">
      <!-- $\mathdefault{6\times10^{-1}}$ -->
      <g transform="translate(100.156781 140.82452) scale(0.1 -0.1)">
       <defs>
        <path id="IBMPlexSans-36" d="M 1926 -77 
C 2822 -77 3411 525 3411 1402 
C 3411 2246 2861 2778 2093 2778 
C 1549 2778 1229 2502 1018 2138 
L 986 2150 
C 1229 3187 1760 3770 2714 4467 
L 2022 4467 
C 1306 4000 429 2963 429 1638 
C 429 576 998 -77 1926 -77 
z
M 1920 390 
C 1331 390 986 730 986 1331 
L 986 1382 
C 986 1984 1331 2323 1920 2323 
C 2509 2323 2854 1984 2854 1382 
L 2854 1331 
C 2854 730 2509 390 1920 390 
z
" transform="scale(0.015625)"/>
       </defs>
       <use xlink:href="#IBMPlexSans-36" transform="translate(0 0.026563)"/>
       <use xlink:href="#IBMPlexSans-d7" transform="translate(79.482407 0.026563)"/>
       <use xlink:href="#IBMPlexSans-31" transform="translate(158.964813 0.026563)"/>
       <use xlink:href="#IBMPlexSans-30" transform="translate(218.964798 0.026563)"/>
       <use xlink:href="#IBMPlexSans-2212" transform="translate(279.867673 36.142188) scale(0.7)"/>
       <use xlink:href="#IBMPlexSans-31" transform="translate(321.867663 36.142188) scale(0.7)"/>
      </g>
     </g>
    </g>
    <g id="xtick_5">
     <g id="line2d_5">
      <g>
       <use xlink:href="#mba9af42c7e" x="140.209155" y="128.02452" style="stroke: #000000; stroke-width: 0.6"/>
      </g>
     </g>
    </g>
    <g id="xtick_6">
     <g id="line2d_6">
      <g>
       <use xlink:href="#mba9af42c7e" x="159.008606" y="128.02452" style="stroke: #000000; stroke-width: 0.6"/>
      </g>
     </g>
    </g>
    <g id="xtick_7">
     <g id="line2d_7">
      <g>
       <use xlink:href="#mba9af42c7e" x="175.590897" y="128.02452" style="stroke: #000000; stroke-width: 0.6"/>
      </g>
     </g>
    </g>
   </g>
   <g id="matplotlib.axis_2">
    <g id="ytick_1">
     <g id="line2d_8">
      <defs>
       <path id="md188d8790b" d="M 0 0 
L -3.5 0 
" style="stroke: #000000; stroke-width: 0.8"/>
      </defs>
      <g>
       <use xlink:href="#md188d8790b" x="48.640625" y="122.532496" style="stroke: #000000; stroke-width: 0.8"/>
      </g>
     </g>
     <g id="text_4">
      <!-- 0.00 -->
      <g transform="translate(20.920313 126.232496) scale(0.1 -0.1)">
       <defs>
        <path id="IBMPlexSans-2e" d="M 870 -77 
C 1139 -77 1261 77 1261 294 
L 1261 378 
C 1261 595 1139 749 870 749 
C 602 749 480 595 480 378 
L 480 294 
C 480 77 602 -77 870 -77 
z
" transform="scale(0.015625)"/>
       </defs>
       <use xlink:href="#IBMPlexSans-30"/>
       <use xlink:href="#IBMPlexSans-2e" transform="translate(59.999985 0)"/>
       <use xlink:href="#IBMPlexSans-30" transform="translate(87.199982 0)"/>
       <use xlink:href="#IBMPlexSans-30" transform="translate(147.199966 0)"/>
      </g>
     </g>
    </g>
    <g id="ytick_2">
     <g id="line2d_9">
      <g>
       <use xlink:href="#md188d8790b" x="48.640625" y="99.065508" style="stroke: #000000; stroke-width: 0.8"/>
      </g>
     </g>
     <g id="text_5">
      <!-- 0.05 -->
      <g transform="translate(20.920313 102.765508) scale(0.1 -0.1)">
       <defs>
        <path id="IBMPlexSans-35" d="M 3187 4467 
L 794 4467 
L 634 2010 
L 1088 1946 
C 1274 2150 1478 2323 1888 2323 
C 2496 2323 2822 1984 2822 1395 
L 2822 1331 
C 2822 742 2496 403 1888 403 
C 1350 403 1126 640 896 992 
L 493 685 
C 762 301 1146 -77 1888 -77 
C 2829 -77 3392 531 3392 1402 
C 3392 2266 2829 2784 2061 2784 
C 1594 2784 1357 2592 1146 2291 
L 1101 2291 
L 1229 3994 
L 3187 3994 
L 3187 4467 
z
" transform="scale(0.015625)"/>
       </defs>
       <use xlink:href="#IBMPlexSans-30"/>
       <use xlink:href="#IBMPlexSans-2e" transform="translate(59.999985 0)"/>
       <use xlink:href="#IBMPlexSans-30" transform="translate(87.199982 0)"/>
       <use xlink:href="#IBMPlexSans-35" transform="translate(147.199966 0)"/>
      </g>
     </g>
    </g>
    <g id="ytick_3">
     <g id="line2d_10">
      <g>
       <use xlink:href="#md188d8790b" x="48.640625" y="75.59852" style="stroke: #000000; stroke-width: 0.8"/>
      </g>
     </g>
     <g id="text_6">
      <!-- 0.10 -->
      <g transform="translate(20.920313 79.29852) scale(0.1 -0.1)">
       <use xlink:href="#IBMPlexSans-30"/>
       <use xlink:href="#IBMPlexSans-2e" transform="translate(59.999985 0)"/>
       <use xlink:href="#IBMPlexSans-31" transform="translate(87.199982 0)"/>
       <use xlink:href="#IBMPlexSans-30" transform="translate(147.199966 0)"/>
      </g>
     </g>
    </g>
    <g id="ytick_4">
     <g id="line2d_11">
      <g>
       <use xlink:href="#md188d8790b" x="48.640625" y="52.131532" style="stroke: #000000; stroke-width: 0.8"/>
      </g>
     </g>
     <g id="text_7">
      <!-- 0.15 -->
      <g transform="translate(20.920313 55.831532) scale(0.1 -0.1)">
       <use xlink:href="#IBMPlexSans-30"/>
       <use xlink:href="#IBMPlexSans-2e" transform="translate(59.999985 0)"/>
       <use xlink:href="#IBMPlexSans-31" transform="translate(87.199982 0)"/>
       <use xlink:href="#IBMPlexSans-35" transform="translate(147.199966 0)"/>
      </g>
     </g>
    </g>
    <g id="ytick_5">
     <g id="line2d_12">
      <g>
       <use xlink:href="#md188d8790b" x="48.640625" y="28.664544" style="stroke: #000000; stroke-width: 0.8"/>
      </g>
     </g>
     <g id="text_8">
      <!-- 0.20 -->
      <g transform="translate(20.920313 32.364544) scale(0.1 -0.1)">
       <defs>
        <path id="IBMPlexSans-32" d="M 3411 474 
L 1062 474 
L 2266 1555 
C 2835 2067 3245 2554 3245 3245 
C 3245 4006 2746 4544 1875 4544 
C 1011 4544 614 4019 442 3494 
L 922 3309 
C 1043 3731 1299 4064 1850 4064 
C 2400 4064 2675 3725 2675 3232 
L 2675 3155 
C 2675 2726 2355 2278 1939 1894 
L 480 550 
L 480 0 
L 3411 0 
L 3411 474 
z
" transform="scale(0.015625)"/>
       </defs>
       <use xlink:href="#IBMPlexSans-30"/>
       <use xlink:href="#IBMPlexSans-2e" transform="translate(59.999985 0)"/>
       <use xlink:href="#IBMPlexSans-32" transform="translate(87.199982 0)"/>
       <use xlink:href="#IBMPlexSans-30" transform="translate(147.199966 0)"/>
      </g>
     </g>
    </g>
    <g id="text_9">
     <!-- cv2l(125%) weight -->
     <g transform="translate(14.8 110.181791) rotate(-90) scale(0.1 -0.1)">
      <defs>
       <path id="IBMPlexSans-63" d="M 1773 -77 
C 2400 -77 2829 230 3040 704 
L 2669 954 
C 2490 576 2189 378 1773 378 
C 1165 378 851 794 851 1370 
L 851 1933 
C 851 2509 1165 2925 1773 2925 
C 2176 2925 2458 2726 2579 2387 
L 3008 2605 
C 2816 3059 2426 3379 1773 3379 
C 845 3379 301 2707 301 1651 
C 301 595 845 -77 1773 -77 
z
" transform="scale(0.015625)"/>
       <path id="IBMPlexSans-76" d="M 1869 0 
L 3034 3302 
L 2541 3302 
L 1952 1664 
L 1594 538 
L 1562 538 
L 1203 1664 
L 627 3302 
L 115 3302 
L 1274 0 
L 1869 0 
z
" transform="scale(0.015625)"/>
       <path id="IBMPlexSans-6c" d="M 1542 0 
L 1542 448 
L 1056 448 
L 1056 4736 
L 544 4736 
L 544 531 
C 544 224 736 0 1088 0 
L 1542 0 
z
" transform="scale(0.015625)"/>
       <path id="IBMPlexSans-28" d="M 531 1997 
C 531 749 1056 -339 1690 -877 
L 2176 -877 
C 1485 -262 1011 819 1011 1715 
L 1011 2266 
C 1011 3162 1466 4224 2176 4864 
L 1690 4864 
C 1037 4307 531 3232 531 1997 
z
" transform="scale(0.015625)"/>
       <path id="IBMPlexSans-25" d="M 1664 0 
L 4762 4467 
L 4269 4467 
L 1171 0 
L 1664 0 
z
M 1427 2010 
C 2074 2010 2438 2458 2438 3277 
C 2438 4096 2074 4544 1427 4544 
C 781 4544 416 4096 416 3277 
C 416 2458 781 2010 1427 2010 
z
M 1427 2342 
C 1056 2342 877 2598 877 3085 
L 877 3469 
C 877 3955 1056 4211 1427 4211 
C 1798 4211 1978 3955 1978 3469 
L 1978 3085 
C 1978 2598 1798 2342 1427 2342 
z
M 4506 -77 
C 5152 -77 5517 371 5517 1190 
C 5517 2010 5152 2458 4506 2458 
C 3859 2458 3494 2010 3494 1190 
C 3494 371 3859 -77 4506 -77 
z
M 4506 256 
C 4134 256 3955 512 3955 998 
L 3955 1382 
C 3955 1869 4134 2125 4506 2125 
C 4877 2125 5056 1869 5056 1382 
L 5056 998 
C 5056 512 4877 256 4506 256 
z
" transform="scale(0.015625)"/>
       <path id="IBMPlexSans-29" d="M 1613 1997 
C 1613 3232 1107 4307 454 4864 
L -32 4864 
C 678 4224 1133 3162 1133 2266 
L 1133 1715 
C 1133 819 659 -262 -32 -877 
L 454 -877 
C 1088 -339 1613 749 1613 1997 
z
" transform="scale(0.015625)"/>
       <path id="IBMPlexSans-20" transform="scale(0.015625)"/>
       <path id="IBMPlexSans-77" d="M 1082 0 
L 1702 0 
L 2163 1587 
L 2445 2592 
L 2458 2592 
L 2746 1587 
L 3206 0 
L 3840 0 
L 4717 3302 
L 4237 3302 
L 3878 1875 
L 3539 429 
L 3526 429 
L 3117 1875 
L 2688 3302 
L 2234 3302 
L 1818 1875 
L 1414 429 
L 1402 429 
L 1050 1875 
L 698 3302 
L 198 3302 
L 1082 0 
z
" transform="scale(0.015625)"/>
       <path id="IBMPlexSans-65" d="M 1786 -77 
C 2406 -77 2880 230 3091 678 
L 2726 941 
C 2554 576 2234 371 1818 371 
C 1203 371 838 800 838 1370 
L 838 1523 
L 3213 1523 
L 3213 1766 
C 3213 2701 2669 3379 1786 3379 
C 890 3379 301 2701 301 1651 
C 301 602 890 -77 1786 -77 
z
M 1786 2950 
C 2310 2950 2662 2560 2662 1978 
L 2662 1907 
L 838 1907 
L 838 1952 
C 838 2528 1229 2950 1786 2950 
z
" transform="scale(0.015625)"/>
       <path id="IBMPlexSans-69" d="M 800 4077 
C 1018 4077 1114 4192 1114 4365 
L 1114 4448 
C 1114 4621 1018 4736 800 4736 
C 582 4736 486 4621 486 4448 
L 486 4365 
C 486 4192 582 4077 800 4077 
z
M 544 0 
L 1056 0 
L 1056 3302 
L 544 3302 
L 544 0 
z
" transform="scale(0.015625)"/>
       <path id="IBMPlexSans-67" d="M 3328 -365 
C 3328 179 2976 512 2157 512 
L 1453 512 
C 1152 512 947 563 947 762 
C 947 966 1165 1075 1382 1133 
C 1478 1114 1594 1101 1702 1101 
C 2458 1101 2950 1568 2950 2240 
C 2950 2592 2810 2886 2573 3091 
L 2573 3302 
L 3200 3302 
L 3200 3750 
L 2707 3750 
C 2432 3750 2323 3565 2323 3309 
L 2323 3251 
C 2144 3334 1933 3379 1696 3379 
C 947 3379 454 2912 454 2240 
C 454 1779 685 1414 1075 1229 
L 1075 1203 
C 742 1120 506 960 506 627 
C 506 403 614 256 800 166 
L 800 96 
C 474 6 275 -186 275 -544 
C 275 -1062 698 -1357 1728 -1357 
C 2790 -1357 3328 -1043 3328 -365 
z
M 2848 -403 
C 2848 -762 2515 -941 1946 -941 
L 1472 -941 
C 954 -941 755 -704 755 -416 
C 755 -211 851 -64 1062 32 
L 2163 32 
C 2675 32 2848 -141 2848 -403 
z
M 1702 1510 
C 1267 1510 992 1715 992 2150 
L 992 2330 
C 992 2765 1267 2970 1702 2970 
C 2138 2970 2413 2765 2413 2330 
L 2413 2150 
C 2413 1715 2138 1510 1702 1510 
z
" transform="scale(0.015625)"/>
       <path id="IBMPlexSans-68" d="M 544 0 
L 1056 0 
L 1056 2291 
C 1056 2714 1453 2918 1862 2918 
C 2355 2918 2611 2618 2611 2029 
L 2611 0 
L 3123 0 
L 3123 2118 
C 3123 2918 2694 3379 2016 3379 
C 1523 3379 1242 3136 1082 2765 
L 1056 2765 
L 1056 4736 
L 544 4736 
L 544 0 
z
" transform="scale(0.015625)"/>
       <path id="IBMPlexSans-74" d="M 1914 0 
L 1914 448 
L 1242 448 
L 1242 2854 
L 1965 2854 
L 1965 3302 
L 1242 3302 
L 1242 4218 
L 781 4218 
L 781 3603 
C 781 3379 710 3302 493 3302 
L 186 3302 
L 186 2854 
L 730 2854 
L 730 544 
C 730 224 922 0 1274 0 
L 1914 0 
z
" transform="scale(0.015625)"/>
      </defs>
      <use xlink:href="#IBMPlexSans-63"/>
      <use xlink:href="#IBMPlexSans-76" transform="translate(50.299988 0)"/>
      <use xlink:href="#IBMPlexSans-32" transform="translate(99.499985 0)"/>
      <use xlink:href="#IBMPlexSans-6c" transform="translate(159.499969 0)"/>
      <use xlink:href="#IBMPlexSans-28" transform="translate(186.699966 0)"/>
      <use xlink:href="#IBMPlexSans-31" transform="translate(220.199951 0)"/>
      <use xlink:href="#IBMPlexSans-32" transform="translate(280.199936 0)"/>
      <use xlink:href="#IBMPlexSans-35" transform="translate(340.199921 0)"/>
      <use xlink:href="#IBMPlexSans-25" transform="translate(400.199905 0)"/>
      <use xlink:href="#IBMPlexSans-29" transform="translate(492.899887 0)"/>
      <use xlink:href="#IBMPlexSans-20" transform="translate(526.399872 0)"/>
      <use xlink:href="#IBMPlexSans-77" transform="translate(549.999863 0)"/>
      <use xlink:href="#IBMPlexSans-65" transform="translate(626.79985 0)"/>
      <use xlink:href="#IBMPlexSans-69" transform="translate(681.699844 0)"/>
      <use xlink:href="#IBMPlexSans-67" transform="translate(706.699829 0)"/>
      <use xlink:href="#IBMPlexSans-68" transform="translate(759.499817 0)"/>
      <use xlink:href="#IBMPlexSans-74" transform="translate(816.299805 0)"/>
     </g>
    </g>
   </g>
   <g id="line2d_13">
    <path d="M 58.759673 121.480814 
L 67.558845 119.305226 
L 76.358017 114.201532 
L 85.157189 103.242083 
L 93.956361 83.550369 
L 102.755533 54.754686 
L 111.554705 23.26736 
L 120.353877 12.692024 
L 129.153049 43.666778 
L 137.952221 88.227969 
L 146.751393 114.91138 
L 155.550565 121.779909 
L 164.349737 122.502913 
L 173.148909 122.532149 
L 181.948081 122.532495 
L 190.747253 122.532496 
L 199.546425 122.532496 
L 208.345597 122.532496 
L 217.144769 122.532496 
L 225.943941 122.532496 
L 234.743113 122.532496 
L 243.542284 122.532496 
L 252.341456 122.532496 
L 261.140628 122.532496 
" clip-path="url(#p3be9a7a285)" style="fill: none; stroke: #ff7f0e; stroke-width: 1.5; stroke-linecap: square"/>
   </g>
   <g id="patch_3">
    <path d="M 48.640625 128.02452 
L 48.640625 7.2 
" style="fill: none; stroke: #000000; stroke-width: 0.8; stroke-linejoin: miter; stroke-linecap: square"/>
   </g>
   <g id="patch_4">
    <path d="M 48.640625 128.02452 
L 271.259676 128.02452 
" style="fill: none; stroke: #000000; stroke-width: 0.8; stroke-linejoin: miter; stroke-linecap: square"/>
   </g>
  </g>
  <g id="axes_2">
   <g id="patch_5">
    <path d="M 318.580469 128.02452 
L 541.19952 128.02452 
L 541.19952 7.2 
L 318.580469 7.2 
z
" style="fill: #ffffff"/>
   </g>
   <g id="FillBetweenPolyCollection_1">
    <defs>
     <path id="m8ee9bc5be4" d="M 328.699517 -299.457496 
L 328.699517 -237.230215 
L 337.498689 -237.30543 
L 346.297861 -237.334146 
L 355.097032 -237.286537 
L 363.896204 -237.191633 
L 372.695376 -237.011712 
L 381.494548 -236.751613 
L 390.29372 -236.443281 
L 399.092892 -236.045258 
L 407.892064 -235.604803 
L 416.691236 -234.962332 
L 425.490408 -234.092675 
L 434.28958 -232.888106 
L 443.088752 -231.291482 
L 451.887924 -229.319059 
L 460.687096 -226.952836 
L 469.486268 -224.120546 
L 478.28544 -220.783711 
L 487.084612 -216.746827 
L 495.883784 -212.098477 
L 504.682956 -206.8652 
L 513.482128 -201.258531 
L 522.2813 -195.509573 
L 531.080472 -189.617024 
L 531.080472 -224.20307 
L 531.080472 -224.20307 
L 522.2813 -231.799127 
L 513.482128 -239.276434 
L 504.682956 -246.582535 
L 495.883784 -253.418009 
L 487.084612 -259.535885 
L 478.28544 -264.920088 
L 469.486268 -269.489496 
L 460.687096 -273.479366 
L 451.887924 -276.931735 
L 443.088752 -279.923761 
L 434.28958 -282.471556 
L 425.490408 -284.559613 
L 416.691236 -286.275852 
L 407.892064 -287.77006 
L 399.092892 -289.090656 
L 390.29372 -290.443466 
L 381.494548 -291.75435 
L 372.695376 -293.065523 
L 363.896204 -294.31605 
L 355.097032 -295.544202 
L 346.297861 -296.807763 
L 337.498689 -298.081424 
L 328.699517 -299.457496 
z
"/>
    </defs>
    <g clip-path="url(#pd58da49447)">
     <use xlink:href="#m8ee9bc5be4" x="0" y="312.14952" style="fill: #d62728; fill-opacity: 0.3"/>
    </g>
   </g>
   <g id="PathCollection_1">
    <defs>
     <path id="C0_0_171bacf02d" d="M 0 2.738613 
C 0.726289 2.738613 1.422928 2.450055 1.936492 1.936492 
C 2.450055 1.422928 2.738613 0.726289 2.738613 -0 
C 2.738613 -0.726289 2.450055 -1.422928 1.936492 -1.936492 
C 1.422928 -2.450055 0.726289 -2.738613 0 -2.738613 
C -0.726289 -2.738613 -1.422928 -2.450055 -1.936492 -1.936492 
C -2.450055 -1.422928 -2.738613 -0.726289 -2.738613 0 
C -2.738613 0.726289 -2.450055 1.422928 -1.936492 1.936492 
C -1.422928 2.450055 -0.726289 2.738613 0 2.738613 
z
"/>
    </defs>
    <g clip-path="url(#pd58da49447)">
     <use xlink:href="#C0_0_171bacf02d" x="337.498689" y="44.456093" style="fill: #fcfcfc"/>
    </g>
    <g clip-path="url(#pd58da49447)">
     <use xlink:href="#C0_0_171bacf02d" x="346.297861" y="45.078565" style="fill: #f6f6f6"/>
    </g>
    <g clip-path="url(#pd58da49447)">
     <use xlink:href="#C0_0_171bacf02d" x="355.097032" y="45.73415" style="fill: #e7e7e7"/>
    </g>
    <g clip-path="url(#pd58da49447)">
     <use xlink:href="#C0_0_171bacf02d" x="363.896204" y="46.395678" style="fill: #c2c2c2"/>
    </g>
    <g clip-path="url(#pd58da49447)">
     <use xlink:href="#C0_0_171bacf02d" x="372.695376" y="47.110902" style="fill: #767676"/>
    </g>
    <g clip-path="url(#pd58da49447)">
     <use xlink:href="#C0_0_171bacf02d" x="381.494548" y="47.896538" style="fill: #1c1c1c"/>
    </g>
    <g clip-path="url(#pd58da49447)">
     <use xlink:href="#C0_0_171bacf02d" x="390.29372" y="48.706147"/>
    </g>
    <g clip-path="url(#pd58da49447)">
     <use xlink:href="#C0_0_171bacf02d" x="399.092892" y="49.581563" style="fill: #5b5b5b"/>
    </g>
    <g clip-path="url(#pd58da49447)">
     <use xlink:href="#C0_0_171bacf02d" x="407.892064" y="50.462088" style="fill: #cccccc"/>
    </g>
    <g clip-path="url(#pd58da49447)">
     <use xlink:href="#C0_0_171bacf02d" x="416.691236" y="51.530428" style="fill: #f7f7f7"/>
    </g>
   </g>
   <g id="matplotlib.axis_3">
    <g id="xtick_8">
     <g id="line2d_14">
      <g>
       <use xlink:href="#m2cb72091a4" x="460.364105" y="128.02452" style="stroke: #000000; stroke-width: 0.8"/>
      </g>
     </g>
     <g id="text_10">
      <!-- $\mathdefault{10^{0}}$ -->
      <g transform="translate(452.064105 142.42452) scale(0.1 -0.1)">
       <use xlink:href="#IBMPlexSans-31" transform="translate(0 0.184375)"/>
       <use xlink:href="#IBMPlexSans-30" transform="translate(59.999985 0.184375)"/>
       <use xlink:href="#IBMPlexSans-30" transform="translate(120.90286 36.3) scale(0.7)"/>
      </g>
     </g>
    </g>
    <g id="xtick_9">
     <g id="line2d_15">
      <g>
       <use xlink:href="#mba9af42c7e" x="331.362509" y="128.02452" style="stroke: #000000; stroke-width: 0.6"/>
      </g>
     </g>
     <g id="text_11">
      <!-- $\mathdefault{4\times10^{-1}}$ -->
      <g transform="translate(313.012509 140.82452) scale(0.1 -0.1)">
       <use xlink:href="#IBMPlexSans-34" transform="translate(0 0.026563)"/>
       <use xlink:href="#IBMPlexSans-d7" transform="translate(79.482407 0.026563)"/>
       <use xlink:href="#IBMPlexSans-31" transform="translate(158.964813 0.026563)"/>
       <use xlink:href="#IBMPlexSans-30" transform="translate(218.964798 0.026563)"/>
       <use xlink:href="#IBMPlexSans-2212" transform="translate(279.867673 36.142188) scale(0.7)"/>
       <use xlink:href="#IBMPlexSans-31" transform="translate(321.867663 36.142188) scale(0.7)"/>
      </g>
     </g>
    </g>
    <g id="xtick_10">
     <g id="line2d_16">
      <g>
       <use xlink:href="#mba9af42c7e" x="362.778165" y="128.02452" style="stroke: #000000; stroke-width: 0.6"/>
      </g>
     </g>
    </g>
    <g id="xtick_11">
     <g id="line2d_17">
      <g>
       <use xlink:href="#mba9af42c7e" x="388.446625" y="128.02452" style="stroke: #000000; stroke-width: 0.6"/>
      </g>
     </g>
     <g id="text_12">
      <!-- $\mathdefault{6\times10^{-1}}$ -->
      <g transform="translate(370.096625 140.82452) scale(0.1 -0.1)">
       <use xlink:href="#IBMPlexSans-36" transform="translate(0 0.026563)"/>
       <use xlink:href="#IBMPlexSans-d7" transform="translate(79.482407 0.026563)"/>
       <use xlink:href="#IBMPlexSans-31" transform="translate(158.964813 0.026563)"/>
       <use xlink:href="#IBMPlexSans-30" transform="translate(218.964798 0.026563)"/>
       <use xlink:href="#IBMPlexSans-2212" transform="translate(279.867673 36.142188) scale(0.7)"/>
       <use xlink:href="#IBMPlexSans-31" transform="translate(321.867663 36.142188) scale(0.7)"/>
      </g>
     </g>
    </g>
    <g id="xtick_12">
     <g id="line2d_18">
      <g>
       <use xlink:href="#mba9af42c7e" x="410.148998" y="128.02452" style="stroke: #000000; stroke-width: 0.6"/>
      </g>
     </g>
    </g>
    <g id="xtick_13">
     <g id="line2d_19">
      <g>
       <use xlink:href="#mba9af42c7e" x="428.948449" y="128.02452" style="stroke: #000000; stroke-width: 0.6"/>
      </g>
     </g>
    </g>
    <g id="xtick_14">
     <g id="line2d_20">
      <g>
       <use xlink:href="#mba9af42c7e" x="445.53074" y="128.02452" style="stroke: #000000; stroke-width: 0.6"/>
      </g>
     </g>
    </g>
   </g>
   <g id="matplotlib.axis_4">
    <g id="ytick_6">
     <g id="line2d_21">
      <g>
       <use xlink:href="#md188d8790b" x="318.580469" y="114.820299" style="stroke: #000000; stroke-width: 0.8"/>
      </g>
     </g>
     <g id="text_13">
      <!-- 2.9 -->
      <g transform="translate(296.860156 118.520299) scale(0.1 -0.1)">
       <defs>
        <path id="IBMPlexSans-39" d="M 3411 2829 
C 3411 3891 2842 4544 1914 4544 
C 1018 4544 429 3942 429 3066 
C 429 2221 979 1690 1747 1690 
C 2291 1690 2611 1965 2822 2330 
L 2854 2317 
C 2611 1280 2080 698 1126 0 
L 1818 0 
C 2534 467 3411 1504 3411 2829 
z
M 1920 2144 
C 1331 2144 986 2483 986 3085 
L 986 3136 
C 986 3738 1331 4077 1920 4077 
C 2509 4077 2854 3738 2854 3136 
L 2854 3085 
C 2854 2483 2509 2144 1920 2144 
z
" transform="scale(0.015625)"/>
       </defs>
       <use xlink:href="#IBMPlexSans-32"/>
       <use xlink:href="#IBMPlexSans-2e" transform="translate(59.999985 0)"/>
       <use xlink:href="#IBMPlexSans-39" transform="translate(87.199982 0)"/>
      </g>
     </g>
    </g>
    <g id="ytick_7">
     <g id="line2d_22">
      <g>
       <use xlink:href="#md188d8790b" x="318.580469" y="94.541352" style="stroke: #000000; stroke-width: 0.8"/>
      </g>
     </g>
     <g id="text_14">
      <!-- 3.0 -->
      <g transform="translate(296.860156 98.241352) scale(0.1 -0.1)">
       <defs>
        <path id="IBMPlexSans-33" d="M 1184 2573 
L 1184 2106 
L 1709 2106 
C 2336 2106 2669 1805 2669 1280 
L 2669 1229 
C 2669 704 2336 403 1709 403 
C 1165 403 902 640 672 992 
L 269 685 
C 544 301 941 -77 1715 -77 
C 2624 -77 3232 454 3232 1222 
C 3232 1894 2771 2253 2291 2349 
L 2291 2374 
C 2765 2496 3149 2842 3149 3418 
C 3149 4141 2547 4544 1792 4544 
C 1075 4544 685 4173 461 3814 
L 858 3507 
C 1043 3846 1318 4064 1779 4064 
C 2253 4064 2579 3827 2579 3360 
L 2579 3315 
C 2579 2886 2272 2573 1670 2573 
L 1184 2573 
z
" transform="scale(0.015625)"/>
       </defs>
       <use xlink:href="#IBMPlexSans-33"/>
       <use xlink:href="#IBMPlexSans-2e" transform="translate(59.999985 0)"/>
       <use xlink:href="#IBMPlexSans-30" transform="translate(87.199982 0)"/>
      </g>
     </g>
    </g>
    <g id="ytick_8">
     <g id="line2d_23">
      <g>
       <use xlink:href="#md188d8790b" x="318.580469" y="74.262404" style="stroke: #000000; stroke-width: 0.8"/>
      </g>
     </g>
     <g id="text_15">
      <!-- 3.1 -->
      <g transform="translate(296.860156 77.962404) scale(0.1 -0.1)">
       <use xlink:href="#IBMPlexSans-33"/>
       <use xlink:href="#IBMPlexSans-2e" transform="translate(59.999985 0)"/>
       <use xlink:href="#IBMPlexSans-31" transform="translate(87.199982 0)"/>
      </g>
     </g>
    </g>
    <g id="ytick_9">
     <g id="line2d_24">
      <g>
       <use xlink:href="#md188d8790b" x="318.580469" y="53.983457" style="stroke: #000000; stroke-width: 0.8"/>
      </g>
     </g>
     <g id="text_16">
      <!-- 3.2 -->
      <g transform="translate(296.860156 57.683457) scale(0.1 -0.1)">
       <use xlink:href="#IBMPlexSans-33"/>
       <use xlink:href="#IBMPlexSans-2e" transform="translate(59.999985 0)"/>
       <use xlink:href="#IBMPlexSans-32" transform="translate(87.199982 0)"/>
      </g>
     </g>
    </g>
    <g id="ytick_10">
     <g id="line2d_25">
      <g>
       <use xlink:href="#md188d8790b" x="318.580469" y="33.70451" style="stroke: #000000; stroke-width: 0.8"/>
      </g>
     </g>
     <g id="text_17">
      <!-- 3.3 -->
      <g transform="translate(296.860156 37.40451) scale(0.1 -0.1)">
       <use xlink:href="#IBMPlexSans-33"/>
       <use xlink:href="#IBMPlexSans-2e" transform="translate(59.999985 0)"/>
       <use xlink:href="#IBMPlexSans-33" transform="translate(87.199982 0)"/>
      </g>
     </g>
    </g>
    <g id="ytick_11">
     <g id="line2d_26">
      <g>
       <use xlink:href="#md188d8790b" x="318.580469" y="13.425563" style="stroke: #000000; stroke-width: 0.8"/>
      </g>
     </g>
     <g id="text_18">
      <!-- 3.4 -->
      <g transform="translate(296.860156 17.125563) scale(0.1 -0.1)">
       <use xlink:href="#IBMPlexSans-33"/>
       <use xlink:href="#IBMPlexSans-2e" transform="translate(59.999985 0)"/>
       <use xlink:href="#IBMPlexSans-34" transform="translate(87.199982 0)"/>
      </g>
     </g>
    </g>
    <g id="text_19">
     <!-- $η$ (95% CI) [η*] -->
     <g transform="translate(290.760156 101.71226) rotate(-90) scale(0.1 -0.1)">
      <defs>
       <path id="DejaVuSans-Oblique-3b7" d="M 3703 2113 
L 3034 -1331 
L 2459 -1331 
L 3125 2094 
Q 3222 2591 3075 2838 
Q 2931 3084 2544 3084 
Q 2078 3084 1750 2788 
Q 1425 2491 1325 1978 
L 941 0 
L 363 0 
L 1044 3500 
L 1622 3500 
L 1516 2956 
Q 1781 3272 2094 3428 
Q 2403 3584 2769 3584 
Q 3372 3584 3609 3213 
Q 3844 2838 3703 2113 
z
" transform="scale(0.015625)"/>
       <path id="IBMPlexSans-43" d="M 2170 -77 
C 2912 -77 3456 314 3738 941 
L 3309 1210 
C 3130 723 2739 403 2170 403 
C 1402 403 947 960 947 1875 
L 947 2541 
C 947 3456 1402 4064 2170 4064 
C 2720 4064 3091 3763 3270 3302 
L 3706 3565 
C 3424 4186 2912 4544 2170 4544 
C 1043 4544 371 3699 371 2208 
C 371 717 1043 -77 2170 -77 
z
" transform="scale(0.015625)"/>
       <path id="IBMPlexSans-49" d="M 2176 0 
L 2176 448 
L 1549 448 
L 1549 4019 
L 2176 4019 
L 2176 4467 
L 384 4467 
L 384 4019 
L 1011 4019 
L 1011 448 
L 384 448 
L 384 0 
L 2176 0 
z
" transform="scale(0.015625)"/>
       <path id="IBMPlexSans-5b" d="M 1645 -883 
L 1645 -480 
L 1037 -480 
L 1037 4461 
L 1645 4461 
L 1645 4864 
L 595 4864 
L 595 -883 
L 1645 -883 
z
" transform="scale(0.015625)"/>
       <path id="IBMPlexSans-3b7" d="M 1088 0 
L 1088 2291 
C 1088 2714 1485 2918 1894 2918 
C 2387 2918 2643 2618 2643 2029 
L 2643 -1280 
L 3155 -1280 
L 3155 2118 
C 3155 2918 2726 3379 2048 3379 
C 1555 3379 1274 3136 1114 2765 
L 1088 2765 
C 1088 3078 896 3302 544 3302 
L 198 3302 
L 198 2854 
L 576 2854 
L 576 0 
L 1088 0 
z
" transform="scale(0.015625)"/>
       <path id="IBMPlexSans-2a" d="M 1440 3270 
L 1965 2483 
L 2323 2746 
L 1741 3488 
L 2650 3738 
L 2509 4166 
L 1626 3840 
L 1664 4781 
L 1216 4781 
L 1254 3840 
L 371 4166 
L 230 3738 
L 1139 3488 
L 557 2746 
L 915 2483 
L 1440 3270 
z
" transform="scale(0.015625)"/>
       <path id="IBMPlexSans-5d" d="M 384 4864 
L 384 4461 
L 992 4461 
L 992 -480 
L 384 -480 
L 384 -883 
L 1434 -883 
L 1434 4864 
L 384 4864 
z
" transform="scale(0.015625)"/>
      </defs>
      <use xlink:href="#DejaVuSans-Oblique-3b7"/>
      <use xlink:href="#IBMPlexSans-20" transform="translate(63.378906 0)"/>
      <use xlink:href="#IBMPlexSans-28" transform="translate(86.978897 0)"/>
      <use xlink:href="#IBMPlexSans-39" transform="translate(120.478882 0)"/>
      <use xlink:href="#IBMPlexSans-35" transform="translate(180.478867 0)"/>
      <use xlink:href="#IBMPlexSans-25" transform="translate(240.478851 0)"/>
      <use xlink:href="#IBMPlexSans-20" transform="translate(333.178833 0)"/>
      <use xlink:href="#IBMPlexSans-43" transform="translate(356.778824 0)"/>
      <use xlink:href="#IBMPlexSans-49" transform="translate(418.878815 0)"/>
      <use xlink:href="#IBMPlexSans-29" transform="translate(458.878799 0)"/>
      <use xlink:href="#IBMPlexSans-20" transform="translate(492.378784 0)"/>
      <use xlink:href="#IBMPlexSans-5b" transform="translate(515.978775 0)"/>
      <use xlink:href="#IBMPlexSans-3b7" transform="translate(547.678772 0)"/>
      <use xlink:href="#IBMPlexSans-2a" transform="translate(604.97876 0)"/>
      <use xlink:href="#IBMPlexSans-5d" transform="translate(649.978745 0)"/>
     </g>
    </g>
   </g>
   <g id="line2d_27">
    <path d="M 328.699517 43.805664 
L 337.498689 44.456093 
L 346.297861 45.078565 
L 355.097032 45.73415 
L 363.896204 46.395678 
L 372.695376 47.110902 
L 381.494548 47.896538 
L 390.29372 48.706147 
L 399.092892 49.581563 
L 407.892064 50.462088 
L 416.691236 51.530428 
L 425.490408 52.823376 
L 434.28958 54.469689 
L 443.088752 56.541899 
L 451.887924 59.024123 
L 460.687096 61.933419 
L 469.486268 65.344499 
L 478.28544 69.297621 
L 487.084612 74.008164 
L 495.883784 79.391277 
L 504.682956 85.425653 
L 513.482128 91.882038 
L 522.2813 98.49517 
L 531.080472 105.239473 
" clip-path="url(#pd58da49447)" style="fill: none; stroke: #d62728; stroke-width: 1.5; stroke-linecap: square"/>
   </g>
   <g id="patch_6">
    <path d="M 318.580469 128.02452 
L 318.580469 7.2 
" style="fill: none; stroke: #000000; stroke-width: 0.8; stroke-linejoin: miter; stroke-linecap: square"/>
   </g>
   <g id="patch_7">
    <path d="M 318.580469 128.02452 
L 541.19952 128.02452 
" style="fill: none; stroke: #000000; stroke-width: 0.8; stroke-linejoin: miter; stroke-linecap: square"/>
   </g>
  </g>
  <g id="axes_3">
   <g id="patch_8">
    <path d="M 48.640625 274.94952 
L 271.259676 274.94952 
L 271.259676 154.125 
L 48.640625 154.125 
z
" style="fill: #ffffff"/>
   </g>
   <g id="matplotlib.axis_5">
    <g id="xtick_15">
     <g id="line2d_28">
      <g>
       <use xlink:href="#m2cb72091a4" x="190.424261" y="274.94952" style="stroke: #000000; stroke-width: 0.8"/>
      </g>
     </g>
     <g id="text_20">
      <!-- $\mathdefault{10^{0}}$ -->
      <g transform="translate(182.124261 289.34952) scale(0.1 -0.1)">
       <use xlink:href="#IBMPlexSans-31" transform="translate(0 0.184375)"/>
       <use xlink:href="#IBMPlexSans-30" transform="translate(59.999985 0.184375)"/>
       <use xlink:href="#IBMPlexSans-30" transform="translate(120.90286 36.3) scale(0.7)"/>
      </g>
     </g>
    </g>
    <g id="xtick_16">
     <g id="line2d_29">
      <g>
       <use xlink:href="#mba9af42c7e" x="61.422665" y="274.94952" style="stroke: #000000; stroke-width: 0.6"/>
      </g>
     </g>
     <g id="text_21">
      <!-- $\mathdefault{4\times10^{-1}}$ -->
      <g transform="translate(43.072665 287.74952) scale(0.1 -0.1)">
       <use xlink:href="#IBMPlexSans-34" transform="translate(0 0.026563)"/>
       <use xlink:href="#IBMPlexSans-d7" transform="translate(79.482407 0.026563)"/>
       <use xlink:href="#IBMPlexSans-31" transform="translate(158.964813 0.026563)"/>
       <use xlink:href="#IBMPlexSans-30" transform="translate(218.964798 0.026563)"/>
       <use xlink:href="#IBMPlexSans-2212" transform="translate(279.867673 36.142188) scale(0.7)"/>
       <use xlink:href="#IBMPlexSans-31" transform="translate(321.867663 36.142188) scale(0.7)"/>
      </g>
     </g>
    </g>
    <g id="xtick_17">
     <g id="line2d_30">
      <g>
       <use xlink:href="#mba9af42c7e" x="92.838321" y="274.94952" style="stroke: #000000; stroke-width: 0.6"/>
      </g>
     </g>
    </g>
    <g id="xtick_18">
     <g id="line2d_31">
      <g>
       <use xlink:href="#mba9af42c7e" x="118.506781" y="274.94952" style="stroke: #000000; stroke-width: 0.6"/>
      </g>
     </g>
     <g id="text_22">
      <!-- $\mathdefault{6\times10^{-1}}$ -->
      <g transform="translate(100.156781 287.74952) scale(0.1 -0.1)">
       <use xlink:href="#IBMPlexSans-36" transform="translate(0 0.026563)"/>
       <use xlink:href="#IBMPlexSans-d7" transform="translate(79.482407 0.026563)"/>
       <use xlink:href="#IBMPlexSans-31" transform="translate(158.964813 0.026563)"/>
       <use xlink:href="#IBMPlexSans-30" transform="translate(218.964798 0.026563)"/>
       <use xlink:href="#IBMPlexSans-2212" transform="translate(279.867673 36.142188) scale(0.7)"/>
       <use xlink:href="#IBMPlexSans-31" transform="translate(321.867663 36.142188) scale(0.7)"/>
      </g>
     </g>
    </g>
    <g id="xtick_19">
     <g id="line2d_32">
      <g>
       <use xlink:href="#mba9af42c7e" x="140.209155" y="274.94952" style="stroke: #000000; stroke-width: 0.6"/>
      </g>
     </g>
    </g>
    <g id="xtick_20">
     <g id="line2d_33">
      <g>
       <use xlink:href="#mba9af42c7e" x="159.008606" y="274.94952" style="stroke: #000000; stroke-width: 0.6"/>
      </g>
     </g>
    </g>
    <g id="xtick_21">
     <g id="line2d_34">
      <g>
       <use xlink:href="#mba9af42c7e" x="175.590897" y="274.94952" style="stroke: #000000; stroke-width: 0.6"/>
      </g>
     </g>
    </g>
    <g id="text_23">
     <!-- Cutoff frequency [1/τ*] -->
     <g transform="translate(108.594682 302.94952) scale(0.1 -0.1)">
      <defs>
       <path id="IBMPlexSans-75" d="M 2579 0 
L 3091 0 
L 3091 3302 
L 2579 3302 
L 2579 1018 
C 2579 582 2182 384 1779 384 
C 1286 384 1024 685 1024 1274 
L 1024 3302 
L 512 3302 
L 512 1184 
C 512 384 947 -77 1626 -77 
C 2176 -77 2426 224 2554 538 
L 2579 538 
L 2579 0 
z
" transform="scale(0.015625)"/>
       <path id="IBMPlexSans-6f" d="M 1792 -77 
C 2675 -77 3283 602 3283 1651 
C 3283 2701 2675 3379 1792 3379 
C 909 3379 301 2701 301 1651 
C 301 602 909 -77 1792 -77 
z
M 1792 378 
C 1242 378 851 717 851 1414 
L 851 1888 
C 851 2586 1242 2925 1792 2925 
C 2342 2925 2733 2586 2733 1888 
L 2733 1414 
C 2733 717 2342 378 1792 378 
z
" transform="scale(0.015625)"/>
       <path id="IBMPlexSans-66" d="M 723 0 
L 1235 0 
L 1235 2854 
L 1946 2854 
L 1946 3302 
L 1235 3302 
L 1235 4288 
L 1946 4288 
L 1946 4736 
L 1446 4736 
C 960 4736 723 4422 723 3968 
L 723 3302 
L 186 3302 
L 186 2854 
L 723 2854 
L 723 0 
z
" transform="scale(0.015625)"/>
       <path id="IBMPlexSans-72" d="M 1056 0 
L 1056 2240 
C 1056 2554 1389 2790 1939 2790 
L 2240 2790 
L 2240 3302 
L 2042 3302 
C 1504 3302 1203 3008 1088 2694 
L 1056 2694 
L 1056 3302 
L 544 3302 
L 544 0 
L 1056 0 
z
" transform="scale(0.015625)"/>
       <path id="IBMPlexSans-71" d="M 2656 -1280 
L 3168 -1280 
L 3168 3302 
L 2656 3302 
L 2656 2765 
L 2630 2765 
C 2458 3181 2118 3379 1664 3379 
C 838 3379 320 2707 320 1651 
C 320 595 838 -77 1664 -77 
C 2118 -77 2432 128 2630 538 
L 2656 538 
L 2656 -1280 
z
M 1805 384 
C 1229 384 870 781 870 1370 
L 870 1933 
C 870 2522 1229 2918 1805 2918 
C 2272 2918 2656 2650 2656 2285 
L 2656 1056 
C 2656 627 2272 384 1805 384 
z
" transform="scale(0.015625)"/>
       <path id="IBMPlexSans-6e" d="M 1056 0 
L 1056 2291 
C 1056 2714 1453 2918 1862 2918 
C 2355 2918 2611 2618 2611 2029 
L 2611 0 
L 3123 0 
L 3123 2118 
C 3123 2918 2694 3379 2016 3379 
C 1523 3379 1242 3136 1082 2765 
L 1056 2765 
L 1056 3302 
L 544 3302 
L 544 0 
L 1056 0 
z
" transform="scale(0.015625)"/>
       <path id="IBMPlexSans-79" d="M 1779 1056 
L 1600 518 
L 1568 518 
L 1414 1056 
L 621 3302 
L 109 3302 
L 1344 -128 
L 1094 -832 
L 576 -832 
L 576 -1280 
L 838 -1280 
C 1325 -1280 1459 -1165 1606 -768 
L 3085 3302 
L 2579 3302 
L 1779 1056 
z
" transform="scale(0.015625)"/>
       <path id="IBMPlexSans-2f" d="M 518 -966 
L 2189 4736 
L 1728 4736 
L 58 -966 
L 518 -966 
z
" transform="scale(0.015625)"/>
       <path id="IBMPlexSans-3c4" d="M 2451 0 
L 2451 448 
L 1715 448 
L 1715 2854 
L 2848 2854 
L 2848 3302 
L 128 3302 
L 128 2854 
L 1203 2854 
L 1203 544 
C 1203 224 1395 0 1747 0 
L 2451 0 
z
" transform="scale(0.015625)"/>
      </defs>
      <use xlink:href="#IBMPlexSans-43"/>
      <use xlink:href="#IBMPlexSans-75" transform="translate(62.099991 0)"/>
      <use xlink:href="#IBMPlexSans-74" transform="translate(118.899979 0)"/>
      <use xlink:href="#IBMPlexSans-6f" transform="translate(153.999969 0)"/>
      <use xlink:href="#IBMPlexSans-66" transform="translate(209.999954 0)"/>
      <use xlink:href="#IBMPlexSans-66" transform="translate(242.399948 0)"/>
      <use xlink:href="#IBMPlexSans-20" transform="translate(274.799942 0)"/>
      <use xlink:href="#IBMPlexSans-66" transform="translate(298.399933 0)"/>
      <use xlink:href="#IBMPlexSans-72" transform="translate(330.799927 0)"/>
      <use xlink:href="#IBMPlexSans-65" transform="translate(367.499924 0)"/>
      <use xlink:href="#IBMPlexSans-71" transform="translate(422.399918 0)"/>
      <use xlink:href="#IBMPlexSans-75" transform="translate(480.399902 0)"/>
      <use xlink:href="#IBMPlexSans-65" transform="translate(537.19989 0)"/>
      <use xlink:href="#IBMPlexSans-6e" transform="translate(592.099884 0)"/>
      <use xlink:href="#IBMPlexSans-63" transform="translate(648.899872 0)"/>
      <use xlink:href="#IBMPlexSans-79" transform="translate(699.19986 0)"/>
      <use xlink:href="#IBMPlexSans-20" transform="translate(749.099854 0)"/>
      <use xlink:href="#IBMPlexSans-5b" transform="translate(772.699844 0)"/>
      <use xlink:href="#IBMPlexSans-31" transform="translate(804.399841 0)"/>
      <use xlink:href="#IBMPlexSans-2f" transform="translate(864.399826 0)"/>
      <use xlink:href="#IBMPlexSans-3c4" transform="translate(902.699814 0)"/>
      <use xlink:href="#IBMPlexSans-2a" transform="translate(950.399811 0)"/>
      <use xlink:href="#IBMPlexSans-5d" transform="translate(995.399796 0)"/>
     </g>
    </g>
   </g>
   <g id="matplotlib.axis_6">
    <g id="ytick_12">
     <g id="line2d_35">
      <g>
       <use xlink:href="#md188d8790b" x="48.640625" y="269.889585" style="stroke: #000000; stroke-width: 0.8"/>
      </g>
     </g>
     <g id="text_24">
      <!-- −1 -->
      <g transform="translate(29.640625 273.589585) scale(0.1 -0.1)">
       <use xlink:href="#IBMPlexSans-2212"/>
       <use xlink:href="#IBMPlexSans-31" transform="translate(59.999985 0)"/>
      </g>
     </g>
    </g>
    <g id="ytick_13">
     <g id="line2d_36">
      <g>
       <use xlink:href="#md188d8790b" x="48.640625" y="246.736668" style="stroke: #000000; stroke-width: 0.8"/>
      </g>
     </g>
     <g id="text_25">
      <!-- 0 -->
      <g transform="translate(35.640625 250.436668) scale(0.1 -0.1)">
       <use xlink:href="#IBMPlexSans-30"/>
      </g>
     </g>
    </g>
    <g id="ytick_14">
     <g id="line2d_37">
      <g>
       <use xlink:href="#md188d8790b" x="48.640625" y="223.583751" style="stroke: #000000; stroke-width: 0.8"/>
      </g>
     </g>
     <g id="text_26">
      <!-- 1 -->
      <g transform="translate(35.640625 227.283751) scale(0.1 -0.1)">
       <use xlink:href="#IBMPlexSans-31"/>
      </g>
     </g>
    </g>
    <g id="ytick_15">
     <g id="line2d_38">
      <g>
       <use xlink:href="#md188d8790b" x="48.640625" y="200.430834" style="stroke: #000000; stroke-width: 0.8"/>
      </g>
     </g>
     <g id="text_27">
      <!-- 2 -->
      <g transform="translate(35.640625 204.130834) scale(0.1 -0.1)">
       <use xlink:href="#IBMPlexSans-32"/>
      </g>
     </g>
    </g>
    <g id="ytick_16">
     <g id="line2d_39">
      <g>
       <use xlink:href="#md188d8790b" x="48.640625" y="177.277917" style="stroke: #000000; stroke-width: 0.8"/>
      </g>
     </g>
     <g id="text_28">
      <!-- 3 -->
      <g transform="translate(35.640625 180.977917) scale(0.1 -0.1)">
       <use xlink:href="#IBMPlexSans-33"/>
      </g>
     </g>
    </g>
    <g id="ytick_17">
     <g id="line2d_40">
      <g>
       <use xlink:href="#md188d8790b" x="48.640625" y="154.125" style="stroke: #000000; stroke-width: 0.8"/>
      </g>
     </g>
     <g id="text_29">
      <!-- 4 -->
      <g transform="translate(35.640625 157.825) scale(0.1 -0.1)">
       <use xlink:href="#IBMPlexSans-34"/>
      </g>
     </g>
    </g>
    <g id="text_30">
     <!-- Z-score -->
     <g transform="translate(23.640625 231.763041) rotate(-90) scale(0.1 -0.1)">
      <defs>
       <path id="IBMPlexSans-5a" d="M 3482 474 
L 806 474 
L 3392 3981 
L 3392 4467 
L 365 4467 
L 365 3994 
L 2810 3994 
L 230 486 
L 230 0 
L 3482 0 
L 3482 474 
z
" transform="scale(0.015625)"/>
       <path id="IBMPlexSans-2d" d="M 2112 1670 
L 2112 2221 
L 442 2221 
L 442 1670 
L 2112 1670 
z
" transform="scale(0.015625)"/>
       <path id="IBMPlexSans-73" d="M 1536 -77 
C 2291 -77 2758 314 2758 954 
C 2758 1453 2477 1773 1747 1882 
L 1491 1920 
C 1082 1984 858 2112 858 2432 
C 858 2746 1082 2944 1504 2944 
C 1926 2944 2208 2746 2355 2541 
L 2694 2848 
C 2426 3181 2074 3379 1542 3379 
C 870 3379 365 3059 365 2406 
C 365 1792 819 1542 1427 1453 
L 1690 1414 
C 2125 1350 2266 1152 2266 896 
C 2266 557 2010 358 1574 358 
C 1158 358 851 544 595 864 
L 230 570 
C 525 179 928 -77 1536 -77 
z
" transform="scale(0.015625)"/>
      </defs>
      <use xlink:href="#IBMPlexSans-5a"/>
      <use xlink:href="#IBMPlexSans-2d" transform="translate(57.999985 0)"/>
      <use xlink:href="#IBMPlexSans-73" transform="translate(97.899979 0)"/>
      <use xlink:href="#IBMPlexSans-63" transform="translate(146.599976 0)"/>
      <use xlink:href="#IBMPlexSans-6f" transform="translate(196.899963 0)"/>
      <use xlink:href="#IBMPlexSans-72" transform="translate(252.899948 0)"/>
      <use xlink:href="#IBMPlexSans-65" transform="translate(289.599945 0)"/>
     </g>
    </g>
   </g>
   <g id="line2d_41">
    <path d="M 58.759673 266.339559 
L 67.558845 267.575487 
L 76.358017 268.697232 
L 85.157189 269.574469 
L 93.956361 270.15902 
L 102.755533 270.318937 
L 111.554705 269.985639 
L 120.353877 269.199014 
L 129.153049 267.80105 
L 137.952221 266.050455 
L 146.751393 263.541842 
L 155.550565 260.509917 
L 164.349737 256.512924 
L 173.148909 251.232457 
L 181.948081 244.350236 
L 190.747253 235.213614 
L 199.546425 223.132188 
L 208.345597 207.781865 
L 217.144769 188.205552 
L 225.943941 165.729411 
L 234.743113 140.44419 
L 243.542284 113.259853 
L 252.341456 84.572457 
L 261.140628 52.445998 
" clip-path="url(#p047a4d2176)" style="fill: none; stroke: #1f77b4; stroke-width: 1.5; stroke-linecap: square"/>
   </g>
   <g id="line2d_42">
    <path d="M 58.759673 256.61937 
L 67.558845 256.959312 
L 76.358017 256.199828 
L 85.157189 255.148379 
L 93.956361 253.203692 
L 102.755533 249.94482 
L 111.554705 244.485616 
L 120.353877 234.786993 
L 129.153049 217.874889 
L 137.952221 192.545752 
L 146.751393 155.284966 
L 155.550565 103.289024 
L 164.349737 34.167353 
L 167.716 -1 
" clip-path="url(#p047a4d2176)" style="fill: none; stroke: #2ca02c; stroke-width: 1.5; stroke-linecap: square"/>
   </g>
   <g id="line2d_43">
    <path d="M 48.640625 246.736668 
L 271.259676 246.736668 
" clip-path="url(#p047a4d2176)" style="fill: none; stroke-dasharray: 5.55,2.4; stroke-dashoffset: 0; stroke: #000000; stroke-width: 1.5"/>
   </g>
   <g id="line2d_44">
    <path d="M 48.640625 200.430834 
L 271.259676 200.430834 
" clip-path="url(#p047a4d2176)" style="fill: none; stroke-dasharray: 5.55,2.4; stroke-dashoffset: 0; stroke: #000000; stroke-width: 1.5"/>
   </g>
   <g id="patch_9">
    <path d="M 48.640625 274.94952 
L 48.640625 154.125 
" style="fill: none; stroke: #000000; stroke-width: 0.8; stroke-linejoin: miter; stroke-linecap: square"/>
   </g>
   <g id="patch_10">
    <path d="M 48.640625 274.94952 
L 271.259676 274.94952 
" style="fill: none; stroke: #000000; stroke-width: 0.8; stroke-linejoin: miter; stroke-linecap: square"/>
   </g>
   <g id="legend_1">
    <g id="patch_11">
     <path d="M 55.640625 190.925 
L 126.470313 190.925 
Q 128.470313 190.925 128.470313 188.925 
L 128.470313 161.125 
Q 128.470313 159.125 126.470313 159.125 
L 55.640625 159.125 
Q 53.640625 159.125 53.640625 161.125 
L 53.640625 188.925 
Q 53.640625 190.925 55.640625 190.925 
z
" style="fill: #ffffff; opacity: 0.8; stroke: #cccccc; stroke-linejoin: miter"/>
    </g>
    <g id="line2d_45">
     <path d="M 57.640625 167.025 
L 67.640625 167.025 
L 77.640625 167.025 
" style="fill: none; stroke: #1f77b4; stroke-width: 1.5; stroke-linecap: square"/>
    </g>
    <g id="text_31">
     <!-- Cost -->
     <g transform="translate(85.640625 170.525) scale(0.1 -0.1)">
      <use xlink:href="#IBMPlexSans-43"/>
      <use xlink:href="#IBMPlexSans-6f" transform="translate(62.099991 0)"/>
      <use xlink:href="#IBMPlexSans-73" transform="translate(118.099976 0)"/>
      <use xlink:href="#IBMPlexSans-74" transform="translate(166.799973 0)"/>
     </g>
    </g>
    <g id="line2d_46">
     <path d="M 57.640625 181.425 
L 67.640625 181.425 
L 77.640625 181.425 
" style="fill: none; stroke: #2ca02c; stroke-width: 1.5; stroke-linecap: square"/>
    </g>
    <g id="text_32">
     <!-- Criterion -->
     <g transform="translate(85.640625 184.925) scale(0.1 -0.1)">
      <use xlink:href="#IBMPlexSans-43"/>
      <use xlink:href="#IBMPlexSans-72" transform="translate(62.099991 0)"/>
      <use xlink:href="#IBMPlexSans-69" transform="translate(98.799988 0)"/>
      <use xlink:href="#IBMPlexSans-74" transform="translate(123.799973 0)"/>
      <use xlink:href="#IBMPlexSans-65" transform="translate(158.899963 0)"/>
      <use xlink:href="#IBMPlexSans-72" transform="translate(213.799957 0)"/>
      <use xlink:href="#IBMPlexSans-69" transform="translate(250.499954 0)"/>
      <use xlink:href="#IBMPlexSans-6f" transform="translate(275.499939 0)"/>
      <use xlink:href="#IBMPlexSans-6e" transform="translate(331.499924 0)"/>
     </g>
    </g>
   </g>
  </g>
  <g id="axes_4">
   <g id="patch_12">
    <path d="M 318.580469 274.94952 
L 541.19952 274.94952 
L 541.19952 154.125 
L 318.580469 154.125 
z
" style="fill: #ffffff"/>
   </g>
   <g id="PathCollection_2">
    <defs>
     <path id="C1_0_d5a178567d" d="M 0 2.738613 
C 0.726289 2.738613 1.422928 2.450055 1.936492 1.936492 
C 2.450055 1.422928 2.738613 0.726289 2.738613 -0 
C 2.738613 -0.726289 2.450055 -1.422928 1.936492 -1.936492 
C 1.422928 -2.450055 0.726289 -2.738613 0 -2.738613 
C -0.726289 -2.738613 -1.422928 -2.450055 -1.936492 -1.936492 
C -2.450055 -1.422928 -2.738613 -0.726289 -2.738613 0 
C -2.738613 0.726289 -2.450055 1.422928 -1.936492 1.936492 
C -1.422928 2.450055 -0.726289 2.738613 0 2.738613 
z
"/>
    </defs>
    <g clip-path="url(#pd803ca8337)">
     <use xlink:href="#C1_0_d5a178567d" x="337.498689" y="268.235968" style="fill: #fcfcfc"/>
    </g>
    <g clip-path="url(#pd803ca8337)">
     <use xlink:href="#C1_0_d5a178567d" x="346.297861" y="267.219699" style="fill: #f6f6f6"/>
    </g>
    <g clip-path="url(#pd803ca8337)">
     <use xlink:href="#C1_0_d5a178567d" x="355.097032" y="266.318575" style="fill: #e7e7e7"/>
    </g>
    <g clip-path="url(#pd803ca8337)">
     <use xlink:href="#C1_0_d5a178567d" x="363.896204" y="265.549367" style="fill: #c2c2c2"/>
    </g>
    <g clip-path="url(#pd803ca8337)">
     <use xlink:href="#C1_0_d5a178567d" x="372.695376" y="264.898915" style="fill: #767676"/>
    </g>
    <g clip-path="url(#pd803ca8337)">
     <use xlink:href="#C1_0_d5a178567d" x="381.494548" y="264.273475" style="fill: #1c1c1c"/>
    </g>
    <g clip-path="url(#pd803ca8337)">
     <use xlink:href="#C1_0_d5a178567d" x="390.29372" y="263.722971"/>
    </g>
    <g clip-path="url(#pd803ca8337)">
     <use xlink:href="#C1_0_d5a178567d" x="399.092892" y="263.254196" style="fill: #5b5b5b"/>
    </g>
    <g clip-path="url(#pd803ca8337)">
     <use xlink:href="#C1_0_d5a178567d" x="407.892064" y="262.917842" style="fill: #cccccc"/>
    </g>
    <g clip-path="url(#pd803ca8337)">
     <use xlink:href="#C1_0_d5a178567d" x="416.691236" y="262.674445" style="fill: #f7f7f7"/>
    </g>
   </g>
   <g id="PathCollection_3">
    <defs>
     <path id="C2_0_d09e5959dd" d="M 0 2.738613 
C 0.726289 2.738613 1.422928 2.450055 1.936492 1.936492 
C 2.450055 1.422928 2.738613 0.726289 2.738613 -0 
C 2.738613 -0.726289 2.450055 -1.422928 1.936492 -1.936492 
C 1.422928 -2.450055 0.726289 -2.738613 0 -2.738613 
C -0.726289 -2.738613 -1.422928 -2.450055 -1.936492 -1.936492 
C -2.450055 -1.422928 -2.738613 -0.726289 -2.738613 0 
C -2.738613 0.726289 -2.450055 1.422928 -1.936492 1.936492 
C -1.422928 2.450055 -0.726289 2.738613 0 2.738613 
z
"/>
    </defs>
    <g clip-path="url(#pd803ca8337)">
     <use xlink:href="#C2_0_d09e5959dd" x="337.498689" y="186.993232" style="fill: #fcfcfc"/>
    </g>
    <g clip-path="url(#pd803ca8337)">
     <use xlink:href="#C2_0_d09e5959dd" x="346.297861" y="186.92553" style="fill: #f6f6f6"/>
    </g>
    <g clip-path="url(#pd803ca8337)">
     <use xlink:href="#C2_0_d09e5959dd" x="355.097032" y="186.842471" style="fill: #e7e7e7"/>
    </g>
    <g clip-path="url(#pd803ca8337)">
     <use xlink:href="#C2_0_d09e5959dd" x="363.896204" y="186.74591" style="fill: #c2c2c2"/>
    </g>
    <g clip-path="url(#pd803ca8337)">
     <use xlink:href="#C2_0_d09e5959dd" x="372.695376" y="186.64725" style="fill: #767676"/>
    </g>
    <g clip-path="url(#pd803ca8337)">
     <use xlink:href="#C2_0_d09e5959dd" x="381.494548" y="186.542412" style="fill: #1c1c1c"/>
    </g>
    <g clip-path="url(#pd803ca8337)">
     <use xlink:href="#C2_0_d09e5959dd" x="390.29372" y="186.428441"/>
    </g>
    <g clip-path="url(#pd803ca8337)">
     <use xlink:href="#C2_0_d09e5959dd" x="399.092892" y="186.306221" style="fill: #5b5b5b"/>
    </g>
    <g clip-path="url(#pd803ca8337)">
     <use xlink:href="#C2_0_d09e5959dd" x="407.892064" y="186.170623" style="fill: #cccccc"/>
    </g>
    <g clip-path="url(#pd803ca8337)">
     <use xlink:href="#C2_0_d09e5959dd" x="416.691236" y="186.037491" style="fill: #f7f7f7"/>
    </g>
   </g>
   <g id="PathCollection_4">
    <defs>
     <path id="C3_0_201520a54c" d="M 0 2.738613 
C 0.726289 2.738613 1.422928 2.450055 1.936492 1.936492 
C 2.450055 1.422928 2.738613 0.726289 2.738613 -0 
C 2.738613 -0.726289 2.450055 -1.422928 1.936492 -1.936492 
C 1.422928 -2.450055 0.726289 -2.738613 0 -2.738613 
C -0.726289 -2.738613 -1.422928 -2.450055 -1.936492 -1.936492 
C -2.450055 -1.422928 -2.738613 -0.726289 -2.738613 0 
C -2.738613 0.726289 -2.450055 1.422928 -1.936492 1.936492 
C -1.422928 2.450055 -0.726289 2.738613 0 2.738613 
z
"/>
    </defs>
    <g clip-path="url(#pd803ca8337)">
     <use xlink:href="#C3_0_201520a54c" x="337.498689" y="159.627031" style="fill: #fcfcfc"/>
    </g>
    <g clip-path="url(#pd803ca8337)">
     <use xlink:href="#C3_0_201520a54c" x="346.297861" y="159.640173" style="fill: #f6f6f6"/>
    </g>
    <g clip-path="url(#pd803ca8337)">
     <use xlink:href="#C3_0_201520a54c" x="355.097032" y="159.656068" style="fill: #e7e7e7"/>
    </g>
    <g clip-path="url(#pd803ca8337)">
     <use xlink:href="#C3_0_201520a54c" x="363.896204" y="159.674394" style="fill: #c2c2c2"/>
    </g>
    <g clip-path="url(#pd803ca8337)">
     <use xlink:href="#C3_0_201520a54c" x="372.695376" y="159.693121" style="fill: #767676"/>
    </g>
    <g clip-path="url(#pd803ca8337)">
     <use xlink:href="#C3_0_201520a54c" x="381.494548" y="159.713118" style="fill: #1c1c1c"/>
    </g>
    <g clip-path="url(#pd803ca8337)">
     <use xlink:href="#C3_0_201520a54c" x="390.29372" y="159.734886"/>
    </g>
    <g clip-path="url(#pd803ca8337)">
     <use xlink:href="#C3_0_201520a54c" x="399.092892" y="159.758285" style="fill: #5b5b5b"/>
    </g>
    <g clip-path="url(#pd803ca8337)">
     <use xlink:href="#C3_0_201520a54c" x="407.892064" y="159.784243" style="fill: #cccccc"/>
    </g>
    <g clip-path="url(#pd803ca8337)">
     <use xlink:href="#C3_0_201520a54c" x="416.691236" y="159.809864" style="fill: #f7f7f7"/>
    </g>
   </g>
   <g id="matplotlib.axis_7">
    <g id="xtick_22">
     <g id="line2d_47">
      <g>
       <use xlink:href="#m2cb72091a4" x="460.364105" y="274.94952" style="stroke: #000000; stroke-width: 0.8"/>
      </g>
     </g>
     <g id="text_33">
      <!-- $\mathdefault{10^{0}}$ -->
      <g transform="translate(452.064105 289.34952) scale(0.1 -0.1)">
       <use xlink:href="#IBMPlexSans-31" transform="translate(0 0.184375)"/>
       <use xlink:href="#IBMPlexSans-30" transform="translate(59.999985 0.184375)"/>
       <use xlink:href="#IBMPlexSans-30" transform="translate(120.90286 36.3) scale(0.7)"/>
      </g>
     </g>
    </g>
    <g id="xtick_23">
     <g id="line2d_48">
      <g>
       <use xlink:href="#mba9af42c7e" x="331.362509" y="274.94952" style="stroke: #000000; stroke-width: 0.6"/>
      </g>
     </g>
     <g id="text_34">
      <!-- $\mathdefault{4\times10^{-1}}$ -->
      <g transform="translate(313.012509 287.74952) scale(0.1 -0.1)">
       <use xlink:href="#IBMPlexSans-34" transform="translate(0 0.026563)"/>
       <use xlink:href="#IBMPlexSans-d7" transform="translate(79.482407 0.026563)"/>
       <use xlink:href="#IBMPlexSans-31" transform="translate(158.964813 0.026563)"/>
       <use xlink:href="#IBMPlexSans-30" transform="translate(218.964798 0.026563)"/>
       <use xlink:href="#IBMPlexSans-2212" transform="translate(279.867673 36.142188) scale(0.7)"/>
       <use xlink:href="#IBMPlexSans-31" transform="translate(321.867663 36.142188) scale(0.7)"/>
      </g>
     </g>
    </g>
    <g id="xtick_24">
     <g id="line2d_49">
      <g>
       <use xlink:href="#mba9af42c7e" x="362.778165" y="274.94952" style="stroke: #000000; stroke-width: 0.6"/>
      </g>
     </g>
    </g>
    <g id="xtick_25">
     <g id="line2d_50">
      <g>
       <use xlink:href="#mba9af42c7e" x="388.446625" y="274.94952" style="stroke: #000000; stroke-width: 0.6"/>
      </g>
     </g>
     <g id="text_35">
      <!-- $\mathdefault{6\times10^{-1}}$ -->
      <g transform="translate(370.096625 287.74952) scale(0.1 -0.1)">
       <use xlink:href="#IBMPlexSans-36" transform="translate(0 0.026563)"/>
       <use xlink:href="#IBMPlexSans-d7" transform="translate(79.482407 0.026563)"/>
       <use xlink:href="#IBMPlexSans-31" transform="translate(158.964813 0.026563)"/>
       <use xlink:href="#IBMPlexSans-30" transform="translate(218.964798 0.026563)"/>
       <use xlink:href="#IBMPlexSans-2212" transform="translate(279.867673 36.142188) scale(0.7)"/>
       <use xlink:href="#IBMPlexSans-31" transform="translate(321.867663 36.142188) scale(0.7)"/>
      </g>
     </g>
    </g>
    <g id="xtick_26">
     <g id="line2d_51">
      <g>
       <use xlink:href="#mba9af42c7e" x="410.148998" y="274.94952" style="stroke: #000000; stroke-width: 0.6"/>
      </g>
     </g>
    </g>
    <g id="xtick_27">
     <g id="line2d_52">
      <g>
       <use xlink:href="#mba9af42c7e" x="428.948449" y="274.94952" style="stroke: #000000; stroke-width: 0.6"/>
      </g>
     </g>
    </g>
    <g id="xtick_28">
     <g id="line2d_53">
      <g>
       <use xlink:href="#mba9af42c7e" x="445.53074" y="274.94952" style="stroke: #000000; stroke-width: 0.6"/>
      </g>
     </g>
    </g>
    <g id="text_36">
     <!-- Cutoff frequency [1/τ*] -->
     <g transform="translate(378.534526 302.94952) scale(0.1 -0.1)">
      <use xlink:href="#IBMPlexSans-43"/>
      <use xlink:href="#IBMPlexSans-75" transform="translate(62.099991 0)"/>
      <use xlink:href="#IBMPlexSans-74" transform="translate(118.899979 0)"/>
      <use xlink:href="#IBMPlexSans-6f" transform="translate(153.999969 0)"/>
      <use xlink:href="#IBMPlexSans-66" transform="translate(209.999954 0)"/>
      <use xlink:href="#IBMPlexSans-66" transform="translate(242.399948 0)"/>
      <use xlink:href="#IBMPlexSans-20" transform="translate(274.799942 0)"/>
      <use xlink:href="#IBMPlexSans-66" transform="translate(298.399933 0)"/>
      <use xlink:href="#IBMPlexSans-72" transform="translate(330.799927 0)"/>
      <use xlink:href="#IBMPlexSans-65" transform="translate(367.499924 0)"/>
      <use xlink:href="#IBMPlexSans-71" transform="translate(422.399918 0)"/>
      <use xlink:href="#IBMPlexSans-75" transform="translate(480.399902 0)"/>
      <use xlink:href="#IBMPlexSans-65" transform="translate(537.19989 0)"/>
      <use xlink:href="#IBMPlexSans-6e" transform="translate(592.099884 0)"/>
      <use xlink:href="#IBMPlexSans-63" transform="translate(648.899872 0)"/>
      <use xlink:href="#IBMPlexSans-79" transform="translate(699.19986 0)"/>
      <use xlink:href="#IBMPlexSans-20" transform="translate(749.099854 0)"/>
      <use xlink:href="#IBMPlexSans-5b" transform="translate(772.699844 0)"/>
      <use xlink:href="#IBMPlexSans-31" transform="translate(804.399841 0)"/>
      <use xlink:href="#IBMPlexSans-2f" transform="translate(864.399826 0)"/>
      <use xlink:href="#IBMPlexSans-3c4" transform="translate(902.699814 0)"/>
      <use xlink:href="#IBMPlexSans-2a" transform="translate(950.399811 0)"/>
      <use xlink:href="#IBMPlexSans-5d" transform="translate(995.399796 0)"/>
     </g>
    </g>
   </g>
   <g id="matplotlib.axis_8">
    <g id="ytick_18">
     <g id="line2d_54">
      <g>
       <use xlink:href="#md188d8790b" x="318.580469" y="247.298562" style="stroke: #000000; stroke-width: 0.8"/>
      </g>
     </g>
     <g id="text_37">
      <!-- $\mathdefault{10^{-2}}$ -->
      <g transform="translate(290.780469 250.998562) scale(0.1 -0.1)">
       <use xlink:href="#IBMPlexSans-31" transform="translate(0 0.184375)"/>
       <use xlink:href="#IBMPlexSans-30" transform="translate(59.999985 0.184375)"/>
       <use xlink:href="#IBMPlexSans-2212" transform="translate(120.90286 36.3) scale(0.7)"/>
       <use xlink:href="#IBMPlexSans-32" transform="translate(162.902849 36.3) scale(0.7)"/>
      </g>
     </g>
    </g>
    <g id="ytick_19">
     <g id="line2d_55">
      <g>
       <use xlink:href="#md188d8790b" x="318.580469" y="210.856795" style="stroke: #000000; stroke-width: 0.8"/>
      </g>
     </g>
     <g id="text_38">
      <!-- $\mathdefault{10^{-1}}$ -->
      <g transform="translate(290.780469 214.556795) scale(0.1 -0.1)">
       <use xlink:href="#IBMPlexSans-31" transform="translate(0 0.026563)"/>
       <use xlink:href="#IBMPlexSans-30" transform="translate(59.999985 0.026563)"/>
       <use xlink:href="#IBMPlexSans-2212" transform="translate(120.90286 36.142188) scale(0.7)"/>
       <use xlink:href="#IBMPlexSans-31" transform="translate(162.902849 36.142188) scale(0.7)"/>
      </g>
     </g>
    </g>
    <g id="ytick_20">
     <g id="line2d_56">
      <g>
       <use xlink:href="#md188d8790b" x="318.580469" y="174.415027" style="stroke: #000000; stroke-width: 0.8"/>
      </g>
     </g>
     <g id="text_39">
      <!-- $\mathdefault{10^{0}}$ -->
      <g transform="translate(294.980469 178.115027) scale(0.1 -0.1)">
       <use xlink:href="#IBMPlexSans-31" transform="translate(0 0.184375)"/>
       <use xlink:href="#IBMPlexSans-30" transform="translate(59.999985 0.184375)"/>
       <use xlink:href="#IBMPlexSans-30" transform="translate(120.90286 36.3) scale(0.7)"/>
      </g>
     </g>
    </g>
    <g id="ytick_21">
     <g id="line2d_57">
      <defs>
       <path id="m3f06230296" d="M 0 0 
L -2 0 
" style="stroke: #000000; stroke-width: 0.6"/>
      </defs>
      <g>
       <use xlink:href="#m3f06230296" x="318.580469" y="272.770265" style="stroke: #000000; stroke-width: 0.6"/>
      </g>
     </g>
    </g>
    <g id="ytick_22">
     <g id="line2d_58">
      <g>
       <use xlink:href="#m3f06230296" x="318.580469" y="266.353188" style="stroke: #000000; stroke-width: 0.6"/>
      </g>
     </g>
    </g>
    <g id="ytick_23">
     <g id="line2d_59">
      <g>
       <use xlink:href="#m3f06230296" x="318.580469" y="261.8002" style="stroke: #000000; stroke-width: 0.6"/>
      </g>
     </g>
    </g>
    <g id="ytick_24">
     <g id="line2d_60">
      <g>
       <use xlink:href="#m3f06230296" x="318.580469" y="258.268628" style="stroke: #000000; stroke-width: 0.6"/>
      </g>
     </g>
    </g>
    <g id="ytick_25">
     <g id="line2d_61">
      <g>
       <use xlink:href="#m3f06230296" x="318.580469" y="255.383123" style="stroke: #000000; stroke-width: 0.6"/>
      </g>
     </g>
    </g>
    <g id="ytick_26">
     <g id="line2d_62">
      <g>
       <use xlink:href="#m3f06230296" x="318.580469" y="252.943464" style="stroke: #000000; stroke-width: 0.6"/>
      </g>
     </g>
    </g>
    <g id="ytick_27">
     <g id="line2d_63">
      <g>
       <use xlink:href="#m3f06230296" x="318.580469" y="250.830135" style="stroke: #000000; stroke-width: 0.6"/>
      </g>
     </g>
    </g>
    <g id="ytick_28">
     <g id="line2d_64">
      <g>
       <use xlink:href="#m3f06230296" x="318.580469" y="248.966046" style="stroke: #000000; stroke-width: 0.6"/>
      </g>
     </g>
    </g>
    <g id="ytick_29">
     <g id="line2d_65">
      <g>
       <use xlink:href="#m3f06230296" x="318.580469" y="236.328497" style="stroke: #000000; stroke-width: 0.6"/>
      </g>
     </g>
    </g>
    <g id="ytick_30">
     <g id="line2d_66">
      <g>
       <use xlink:href="#m3f06230296" x="318.580469" y="229.911421" style="stroke: #000000; stroke-width: 0.6"/>
      </g>
     </g>
    </g>
    <g id="ytick_31">
     <g id="line2d_67">
      <g>
       <use xlink:href="#m3f06230296" x="318.580469" y="225.358432" style="stroke: #000000; stroke-width: 0.6"/>
      </g>
     </g>
    </g>
    <g id="ytick_32">
     <g id="line2d_68">
      <g>
       <use xlink:href="#m3f06230296" x="318.580469" y="221.82686" style="stroke: #000000; stroke-width: 0.6"/>
      </g>
     </g>
    </g>
    <g id="ytick_33">
     <g id="line2d_69">
      <g>
       <use xlink:href="#m3f06230296" x="318.580469" y="218.941355" style="stroke: #000000; stroke-width: 0.6"/>
      </g>
     </g>
    </g>
    <g id="ytick_34">
     <g id="line2d_70">
      <g>
       <use xlink:href="#m3f06230296" x="318.580469" y="216.501696" style="stroke: #000000; stroke-width: 0.6"/>
      </g>
     </g>
    </g>
    <g id="ytick_35">
     <g id="line2d_71">
      <g>
       <use xlink:href="#m3f06230296" x="318.580469" y="214.388367" style="stroke: #000000; stroke-width: 0.6"/>
      </g>
     </g>
    </g>
    <g id="ytick_36">
     <g id="line2d_72">
      <g>
       <use xlink:href="#m3f06230296" x="318.580469" y="212.524279" style="stroke: #000000; stroke-width: 0.6"/>
      </g>
     </g>
    </g>
    <g id="ytick_37">
     <g id="line2d_73">
      <g>
       <use xlink:href="#m3f06230296" x="318.580469" y="199.88673" style="stroke: #000000; stroke-width: 0.6"/>
      </g>
     </g>
    </g>
    <g id="ytick_38">
     <g id="line2d_74">
      <g>
       <use xlink:href="#m3f06230296" x="318.580469" y="193.469653" style="stroke: #000000; stroke-width: 0.6"/>
      </g>
     </g>
    </g>
    <g id="ytick_39">
     <g id="line2d_75">
      <g>
       <use xlink:href="#m3f06230296" x="318.580469" y="188.916665" style="stroke: #000000; stroke-width: 0.6"/>
      </g>
     </g>
    </g>
    <g id="ytick_40">
     <g id="line2d_76">
      <g>
       <use xlink:href="#m3f06230296" x="318.580469" y="185.385092" style="stroke: #000000; stroke-width: 0.6"/>
      </g>
     </g>
    </g>
    <g id="ytick_41">
     <g id="line2d_77">
      <g>
       <use xlink:href="#m3f06230296" x="318.580469" y="182.499588" style="stroke: #000000; stroke-width: 0.6"/>
      </g>
     </g>
    </g>
    <g id="ytick_42">
     <g id="line2d_78">
      <g>
       <use xlink:href="#m3f06230296" x="318.580469" y="180.059928" style="stroke: #000000; stroke-width: 0.6"/>
      </g>
     </g>
    </g>
    <g id="ytick_43">
     <g id="line2d_79">
      <g>
       <use xlink:href="#m3f06230296" x="318.580469" y="177.946599" style="stroke: #000000; stroke-width: 0.6"/>
      </g>
     </g>
    </g>
    <g id="ytick_44">
     <g id="line2d_80">
      <g>
       <use xlink:href="#m3f06230296" x="318.580469" y="176.082511" style="stroke: #000000; stroke-width: 0.6"/>
      </g>
     </g>
    </g>
    <g id="ytick_45">
     <g id="line2d_81">
      <g>
       <use xlink:href="#m3f06230296" x="318.580469" y="163.444962" style="stroke: #000000; stroke-width: 0.6"/>
      </g>
     </g>
    </g>
    <g id="ytick_46">
     <g id="line2d_82">
      <g>
       <use xlink:href="#m3f06230296" x="318.580469" y="157.027885" style="stroke: #000000; stroke-width: 0.6"/>
      </g>
     </g>
    </g>
    <g id="text_40">
     <!-- Hessian Eigenvalues -->
     <g transform="translate(284.660156 260.528666) rotate(-90) scale(0.1 -0.1)">
      <defs>
       <path id="IBMPlexSans-48" d="M 3392 0 
L 3930 0 
L 3930 4467 
L 3392 4467 
L 3392 2496 
L 1133 2496 
L 1133 4467 
L 595 4467 
L 595 0 
L 1133 0 
L 1133 2022 
L 3392 2022 
L 3392 0 
z
" transform="scale(0.015625)"/>
       <path id="IBMPlexSans-61" d="M 3232 0 
L 3232 448 
L 2854 448 
L 2854 2266 
C 2854 2963 2381 3379 1587 3379 
C 992 3379 595 3085 416 2733 
L 723 2445 
C 902 2746 1165 2938 1562 2938 
C 2086 2938 2342 2682 2342 2214 
L 2342 1888 
L 1690 1888 
C 730 1888 282 1542 282 922 
C 282 307 691 -77 1389 -77 
C 1850 -77 2202 134 2342 538 
L 2374 538 
C 2413 230 2566 0 2944 0 
L 3232 0 
z
M 1472 358 
C 1075 358 819 544 819 870 
L 819 1005 
C 819 1325 1082 1504 1664 1504 
L 2342 1504 
L 2342 960 
C 2342 621 1978 358 1472 358 
z
" transform="scale(0.015625)"/>
       <path id="IBMPlexSans-45" d="M 3322 0 
L 3322 474 
L 1133 474 
L 1133 2022 
L 3194 2022 
L 3194 2496 
L 1133 2496 
L 1133 3994 
L 3322 3994 
L 3322 4467 
L 595 4467 
L 595 0 
L 3322 0 
z
" transform="scale(0.015625)"/>
      </defs>
      <use xlink:href="#IBMPlexSans-48"/>
      <use xlink:href="#IBMPlexSans-65" transform="translate(70.699982 0)"/>
      <use xlink:href="#IBMPlexSans-73" transform="translate(125.599976 0)"/>
      <use xlink:href="#IBMPlexSans-73" transform="translate(174.299973 0)"/>
      <use xlink:href="#IBMPlexSans-69" transform="translate(222.999969 0)"/>
      <use xlink:href="#IBMPlexSans-61" transform="translate(247.999954 0)"/>
      <use xlink:href="#IBMPlexSans-6e" transform="translate(301.399948 0)"/>
      <use xlink:href="#IBMPlexSans-20" transform="translate(358.199936 0)"/>
      <use xlink:href="#IBMPlexSans-45" transform="translate(381.799927 0)"/>
      <use xlink:href="#IBMPlexSans-69" transform="translate(440.099915 0)"/>
      <use xlink:href="#IBMPlexSans-67" transform="translate(465.099899 0)"/>
      <use xlink:href="#IBMPlexSans-65" transform="translate(517.899887 0)"/>
      <use xlink:href="#IBMPlexSans-6e" transform="translate(572.799881 0)"/>
      <use xlink:href="#IBMPlexSans-76" transform="translate(629.599869 0)"/>
      <use xlink:href="#IBMPlexSans-61" transform="translate(678.799866 0)"/>
      <use xlink:href="#IBMPlexSans-6c" transform="translate(732.19986 0)"/>
      <use xlink:href="#IBMPlexSans-75" transform="translate(759.399857 0)"/>
      <use xlink:href="#IBMPlexSans-65" transform="translate(816.199844 0)"/>
      <use xlink:href="#IBMPlexSans-73" transform="translate(871.099838 0)"/>
     </g>
    </g>
   </g>
   <g id="line2d_83">
    <path d="M 328.699517 269.457496 
L 337.498689 268.235968 
L 346.297861 267.219699 
L 355.097032 266.318575 
L 363.896204 265.549367 
L 372.695376 264.898915 
L 381.494548 264.273475 
L 390.29372 263.722971 
L 399.092892 263.254196 
L 407.892064 262.917842 
L 416.691236 262.674445 
L 425.490408 262.498209 
L 434.28958 262.341736 
L 443.088752 262.155253 
L 451.887924 261.923544 
L 460.687096 261.642072 
L 469.486268 261.306281 
L 478.28544 260.907586 
L 487.084612 260.395183 
L 495.883784 259.709331 
L 504.682956 258.785184 
L 513.482128 257.603385 
L 522.2813 256.216052 
L 531.080472 254.71155 
" clip-path="url(#pd803ca8337)" style="fill: none; stroke: #9467bd; stroke-width: 1.5; stroke-linecap: square"/>
   </g>
   <g id="line2d_84">
    <path d="M 328.699517 187.042794 
L 337.498689 186.993232 
L 346.297861 186.92553 
L 355.097032 186.842471 
L 363.896204 186.74591 
L 372.695376 186.64725 
L 381.494548 186.542412 
L 390.29372 186.428441 
L 399.092892 186.306221 
L 407.892064 186.170623 
L 416.691236 186.037491 
L 425.490408 185.912923 
L 434.28958 185.812307 
L 443.088752 185.742615 
L 451.887924 185.703218 
L 460.687096 185.694104 
L 469.486268 185.719095 
L 478.28544 185.78242 
L 487.084612 185.90019 
L 495.883784 186.069124 
L 504.682956 186.288033 
L 513.482128 186.540118 
L 522.2813 186.805937 
L 531.080472 187.082993 
" clip-path="url(#pd803ca8337)" style="fill: none; stroke: #9467bd; stroke-width: 1.5; stroke-linecap: square"/>
   </g>
   <g id="line2d_85">
    <path d="M 328.699517 159.617024 
L 337.498689 159.627031 
L 346.297861 159.640173 
L 355.097032 159.656068 
L 363.896204 159.674394 
L 372.695376 159.693121 
L 381.494548 159.713118 
L 390.29372 159.734886 
L 399.092892 159.758285 
L 407.892064 159.784243 
L 416.691236 159.809864 
L 425.490408 159.833994 
L 434.28958 159.853673 
L 443.088752 159.867514 
L 451.887924 159.875571 
L 460.687096 159.877804 
L 469.486268 159.873465 
L 478.28544 159.861789 
L 487.084612 159.839873 
L 495.883784 159.808743 
L 504.682956 159.769153 
L 513.482128 159.724753 
L 522.2813 159.679378 
L 531.080472 159.63351 
" clip-path="url(#pd803ca8337)" style="fill: none; stroke: #9467bd; stroke-width: 1.5; stroke-linecap: square"/>
   </g>
   <g id="patch_13">
    <path d="M 318.580469 274.94952 
L 318.580469 154.125 
" style="fill: none; stroke: #000000; stroke-width: 0.8; stroke-linejoin: miter; stroke-linecap: square"/>
   </g>
   <g id="patch_14">
    <path d="M 318.580469 274.94952 
L 541.19952 274.94952 
" style="fill: none; stroke: #000000; stroke-width: 0.8; stroke-linejoin: miter; stroke-linecap: square"/>
   </g>
  </g>
 </g>
 <defs>
  <clipPath id="p3be9a7a285">
   <rect x="48.640625" y="7.2" width="222.619051" height="120.82452"/>
  </clipPath>
  <clipPath id="pd58da49447">
   <rect x="318.580469" y="7.2" width="222.619051" height="120.82452"/>
  </clipPath>
  <clipPath id="p047a4d2176">
   <rect x="48.640625" y="154.125" width="222.619051" height="120.82452"/>
  </clipPath>
  <clipPath id="pd803ca8337">
   <rect x="318.580469" y="154.125" width="222.619051" height="120.82452"/>
  </clipPath>
 </defs>
</svg>