<?xml version="1.0" encoding="utf-8" standalone="no"?>
<!DOCTYPE svg PUBLIC "-//W3C//DTD SVG 1.1//EN"
  "http://www.w3.org/Graphics/SVG/1.1/DTD/svg11.dtd">
<svg xmlns:xlink="http://www.w3.org/1999/xlink" width="548.39952pt" height="312.14952pt" viewBox="0 0 548.39952 312.14952" xmlns="http://www.w3.org/2000/svg" version="1.1">
 <metadata>
  <rdf:RDF xmlns:dc="http://purl.org/dc/elements/1.1/" xmlns:cc="http://creativecommons.org/ns#" xmlns:rdf="http://www.w3.org/1999/02/22-rdf-syntax-ns#">
   <cc:Work>
    <dc:type rdf:resource="http://purl.org/dc/dcmitype/StillImage"/>
    <dc:date>2026-01-27T08:27:10.307830</dc:date>
    <dc:format>image/svg+xml</dc:format>
    <dc:creator>
     <cc:Agent>
      <dc:title>Matplotlib v3.10.7, https://matplotlib.org/</dc:title>
     </cc:Agent>
    </dc:creator>
   </cc:Work>
  </rdf:RDF>
 </metadata>
 <defs>
  <style type="text/css">*{stroke-linejoin: round; stroke-linecap: butt}</style>
 </defs>
 <g id="figure_1">
  <g id="patch_1">
   <path d="M 0 312.14952 
L 548.39952 312.14952 
L 548.39952 0 
L 0 0 
z
" style="fill: #ffffff"/>
  </g>
  <g id="axes_1">
   <g id="patch_2">
    <path d="M 45.8 274.94952 
L 505.958895 274.94952 
L 505.958895 35.376 
L 45.8 35.376 
z
" style="fill: #ffffff"/>
   </g>
   <g id="FillBetweenPolyCollection_1">
    <defs>
     <path id="m9b660e68bb" d="M 57.472253 -117.18484 
L 57.472253 -46.405663 
L 64.633145 -46.78204 
L 71.794037 -47.158926 
L 78.954928 -47.536321 
L 86.11582 -47.914226 
L 93.276711 -48.292643 
L 100.437603 -48.67157 
L 107.598495 -49.05101 
L 114.759386 -49.430963 
L 121.920278 -49.811429 
L 129.081169 -50.19241 
L 136.242061 -50.573906 
L 143.402953 -50.955917 
L 150.563844 -51.338445 
L 157.724736 -51.72149 
L 164.885628 -52.105052 
L 164.885628 -124.333046 
L 164.885628 -124.333046 
L 157.724736 -123.851979 
L 150.563844 -123.371562 
L 143.402953 -122.891794 
L 136.242061 -122.412673 
L 129.081169 -121.934199 
L 121.920278 -121.456371 
L 114.759386 -120.979187 
L 107.598495 -120.502648 
L 100.437603 -120.026753 
L 93.276711 -119.5515 
L 86.11582 -119.076888 
L 78.954928 -118.602917 
L 71.794037 -118.129586 
L 64.633145 -117.656894 
L 57.472253 -117.18484 
z
"/>
    </defs>
    <g clip-path="url(#p7c22355edf)">
     <use xlink:href="#m9b660e68bb" x="0" y="312.14952" style="fill: #2ca02c; fill-opacity: 0.3"/>
    </g>
   </g>
   <g id="matplotlib.axis_1">
    <g id="xtick_1">
     <g id="line2d_1">
      <defs>
       <path id="m8a7424dc5a" d="M 0 0 
L 0 3.5 
" style="stroke: #000000; stroke-width: 0.8"/>
      </defs>
      <g>
       <use xlink:href="#m8a7424dc5a" x="50.311362" y="274.94952" style="stroke: #000000; stroke-width: 0.8"/>
      </g>
     </g>
     <g id="text_1">
      <!-- 0.0 -->
      <g transform="translate(42.951205 289.34952) scale(0.1 -0.1)">
       <defs>
        <path id="IBMPlexSans-30" d="M 1920 -77 
C 2989 -77 3456 774 3456 2234 
C 3456 3693 2989 4544 1920 4544 
C 851 4544 384 3693 384 2234 
C 384 774 851 -77 1920 -77 
z
M 1920 390 
C 1222 390 947 1005 947 1869 
L 947 2598 
C 947 3462 1222 4077 1920 4077 
C 2618 4077 2893 3462 2893 2598 
L 2893 1869 
C 2893 1005 2618 390 1920 390 
z
" transform="scale(0.015625)"/>
        <path id="IBMPlexSans-2e" d="M 870 -77 
C 1139 -77 1261 77 1261 294 
L 1261 378 
C 1261 595 1139 749 870 749 
C 602 749 480 595 480 378 
L 480 294 
C 480 77 602 -77 870 -77 
z
" transform="scale(0.015625)"/>
       </defs>
       <use xlink:href="#IBMPlexSans-30"/>
       <use xlink:href="#IBMPlexSans-2e" transform="translate(59.999985 0)"/>
       <use xlink:href="#IBMPlexSans-30" transform="translate(87.199982 0)"/>
      </g>
     </g>
    </g>
    <g id="xtick_2">
     <g id="line2d_2">
      <g>
       <use xlink:href="#m8a7424dc5a" x="107.526886" y="274.94952" style="stroke: #000000; stroke-width: 0.8"/>
      </g>
     </g>
     <g id="text_2">
      <!-- 0.2 -->
      <g transform="translate(100.166729 289.34952) scale(0.1 -0.1)">
       <defs>
        <path id="IBMPlexSans-32" d="M 3411 474 
L 1062 474 
L 2266 1555 
C 2835 2067 3245 2554 3245 3245 
C 3245 4006 2746 4544 1875 4544 
C 1011 4544 614 4019 442 3494 
L 922 3309 
C 1043 3731 1299 4064 1850 4064 
C 2400 4064 2675 3725 2675 3232 
L 2675 3155 
C 2675 2726 2355 2278 1939 1894 
L 480 550 
L 480 0 
L 3411 0 
L 3411 474 
z
" transform="scale(0.015625)"/>
       </defs>
       <use xlink:href="#IBMPlexSans-30"/>
       <use xlink:href="#IBMPlexSans-2e" transform="translate(59.999985 0)"/>
       <use xlink:href="#IBMPlexSans-32" transform="translate(87.199982 0)"/>
      </g>
     </g>
    </g>
    <g id="xtick_3">
     <g id="line2d_3">
      <g>
       <use xlink:href="#m8a7424dc5a" x="164.74241" y="274.94952" style="stroke: #000000; stroke-width: 0.8"/>
      </g>
     </g>
     <g id="text_3">
      <!-- 0.4 -->
      <g transform="translate(157.382253 289.34952) scale(0.1 -0.1)">
       <defs>
        <path id="IBMPlexSans-34" d="M 2912 0 
L 2912 877 
L 3558 877 
L 3558 1325 
L 2912 1325 
L 2912 4467 
L 2112 4467 
L 243 1350 
L 243 877 
L 2400 877 
L 2400 0 
L 2912 0 
z
M 2368 4051 
L 2400 4051 
L 2400 1325 
L 749 1325 
L 2368 4051 
z
" transform="scale(0.015625)"/>
       </defs>
       <use xlink:href="#IBMPlexSans-30"/>
       <use xlink:href="#IBMPlexSans-2e" transform="translate(59.999985 0)"/>
       <use xlink:href="#IBMPlexSans-34" transform="translate(87.199982 0)"/>
      </g>
     </g>
    </g>
    <g id="xtick_4">
     <g id="line2d_4">
      <g>
       <use xlink:href="#m8a7424dc5a" x="221.957934" y="274.94952" style="stroke: #000000; stroke-width: 0.8"/>
      </g>
     </g>
     <g id="text_4">
      <!-- 0.6 -->
      <g transform="translate(214.597777 289.34952) scale(0.1 -0.1)">
       <defs>
        <path id="IBMPlexSans-36" d="M 1926 -77 
C 2822 -77 3411 525 3411 1402 
C 3411 2246 2861 2778 2093 2778 
C 1549 2778 1229 2502 1018 2138 
L 986 2150 
C 1229 3187 1760 3770 2714 4467 
L 2022 4467 
C 1306 4000 429 2963 429 1638 
C 429 576 998 -77 1926 -77 
z
M 1920 390 
C 1331 390 986 730 986 1331 
L 986 1382 
C 986 1984 1331 2323 1920 2323 
C 2509 2323 2854 1984 2854 1382 
L 2854 1331 
C 2854 730 2509 390 1920 390 
z
" transform="scale(0.015625)"/>
       </defs>
       <use xlink:href="#IBMPlexSans-30"/>
       <use xlink:href="#IBMPlexSans-2e" transform="translate(59.999985 0)"/>
       <use xlink:href="#IBMPlexSans-36" transform="translate(87.199982 0)"/>
      </g>
     </g>
    </g>
    <g id="xtick_5">
     <g id="line2d_5">
      <g>
       <use xlink:href="#m8a7424dc5a" x="279.173458" y="274.94952" style="stroke: #000000; stroke-width: 0.8"/>
      </g>
     </g>
     <g id="text_5">
      <!-- 0.8 -->
      <g transform="translate(271.813301 289.34952) scale(0.1 -0.1)">
       <defs>
        <path id="IBMPlexSans-38" d="M 1920 -77 
C 2938 -77 3469 480 3469 1216 
C 3469 1824 3104 2176 2566 2323 
L 2566 2374 
C 3034 2534 3334 2912 3334 3424 
C 3334 4102 2810 4544 1920 4544 
C 1030 4544 506 4102 506 3424 
C 506 2912 806 2534 1274 2374 
L 1274 2323 
C 736 2176 371 1824 371 1216 
C 371 480 902 -77 1920 -77 
z
M 1920 390 
C 1299 390 941 685 941 1190 
L 941 1325 
C 941 1830 1299 2125 1920 2125 
C 2541 2125 2899 1830 2899 1325 
L 2899 1190 
C 2899 685 2541 390 1920 390 
z
M 1920 2573 
C 1363 2573 1062 2822 1062 3277 
L 1062 3373 
C 1062 3827 1363 4077 1920 4077 
C 2477 4077 2778 3827 2778 3373 
L 2778 3277 
C 2778 2822 2477 2573 1920 2573 
z
" transform="scale(0.015625)"/>
       </defs>
       <use xlink:href="#IBMPlexSans-30"/>
       <use xlink:href="#IBMPlexSans-2e" transform="translate(59.999985 0)"/>
       <use xlink:href="#IBMPlexSans-38" transform="translate(87.199982 0)"/>
      </g>
     </g>
    </g>
    <g id="xtick_6">
     <g id="line2d_6">
      <g>
       <use xlink:href="#m8a7424dc5a" x="336.388982" y="274.94952" style="stroke: #000000; stroke-width: 0.8"/>
      </g>
     </g>
     <g id="text_6">
      <!-- 1.0 -->
      <g transform="translate(329.028825 289.34952) scale(0.1 -0.1)">
       <defs>
        <path id="IBMPlexSans-31" d="M 3501 0 
L 3501 474 
L 2349 474 
L 2349 4467 
L 1510 4467 
L 326 3360 
L 640 3021 
L 1766 4070 
L 1811 4070 
L 1811 474 
L 563 474 
L 563 0 
L 3501 0 
z
" transform="scale(0.015625)"/>
       </defs>
       <use xlink:href="#IBMPlexSans-31"/>
       <use xlink:href="#IBMPlexSans-2e" transform="translate(59.999985 0)"/>
       <use xlink:href="#IBMPlexSans-30" transform="translate(87.199982 0)"/>
      </g>
     </g>
    </g>
    <g id="xtick_7">
     <g id="line2d_7">
      <g>
       <use xlink:href="#m8a7424dc5a" x="393.604506" y="274.94952" style="stroke: #000000; stroke-width: 0.8"/>
      </g>
     </g>
     <g id="text_7">
      <!-- 1.2 -->
      <g transform="translate(386.244349 289.34952) scale(0.1 -0.1)">
       <use xlink:href="#IBMPlexSans-31"/>
       <use xlink:href="#IBMPlexSans-2e" transform="translate(59.999985 0)"/>
       <use xlink:href="#IBMPlexSans-32" transform="translate(87.199982 0)"/>
      </g>
     </g>
    </g>
    <g id="xtick_8">
     <g id="line2d_8">
      <g>
       <use xlink:href="#m8a7424dc5a" x="450.82003" y="274.94952" style="stroke: #000000; stroke-width: 0.8"/>
      </g>
     </g>
     <g id="text_8">
      <!-- 1.4 -->
      <g transform="translate(443.459873 289.34952) scale(0.1 -0.1)">
       <use xlink:href="#IBMPlexSans-31"/>
       <use xlink:href="#IBMPlexSans-2e" transform="translate(59.999985 0)"/>
       <use xlink:href="#IBMPlexSans-34" transform="translate(87.199982 0)"/>
      </g>
     </g>
    </g>
    <g id="text_9">
     <!-- Frequency [THz] -->
     <g transform="translate(239.102885 302.94952) scale(0.1 -0.1)">
      <defs>
       <path id="IBMPlexSans-46" d="M 1133 0 
L 1133 2022 
L 3072 2022 
L 3072 2496 
L 1133 2496 
L 1133 3994 
L 3258 3994 
L 3258 4467 
L 595 4467 
L 595 0 
L 1133 0 
z
" transform="scale(0.015625)"/>
       <path id="IBMPlexSans-72" d="M 1056 0 
L 1056 2240 
C 1056 2554 1389 2790 1939 2790 
L 2240 2790 
L 2240 3302 
L 2042 3302 
C 1504 3302 1203 3008 1088 2694 
L 1056 2694 
L 1056 3302 
L 544 3302 
L 544 0 
L 1056 0 
z
" transform="scale(0.015625)"/>
       <path id="IBMPlexSans-65" d="M 1786 -77 
C 2406 -77 2880 230 3091 678 
L 2726 941 
C 2554 576 2234 371 1818 371 
C 1203 371 838 800 838 1370 
L 838 1523 
L 3213 1523 
L 3213 1766 
C 3213 2701 2669 3379 1786 3379 
C 890 3379 301 2701 301 1651 
C 301 602 890 -77 1786 -77 
z
M 1786 2950 
C 2310 2950 2662 2560 2662 1978 
L 2662 1907 
L 838 1907 
L 838 1952 
C 838 2528 1229 2950 1786 2950 
z
" transform="scale(0.015625)"/>
       <path id="IBMPlexSans-71" d="M 2656 -1280 
L 3168 -1280 
L 3168 3302 
L 2656 3302 
L 2656 2765 
L 2630 2765 
C 2458 3181 2118 3379 1664 3379 
C 838 3379 320 2707 320 1651 
C 320 595 838 -77 1664 -77 
C 2118 -77 2432 128 2630 538 
L 2656 538 
L 2656 -1280 
z
M 1805 384 
C 1229 384 870 781 870 1370 
L 870 1933 
C 870 2522 1229 2918 1805 2918 
C 2272 2918 2656 2650 2656 2285 
L 2656 1056 
C 2656 627 2272 384 1805 384 
z
" transform="scale(0.015625)"/>
       <path id="IBMPlexSans-75" d="M 2579 0 
L 3091 0 
L 3091 3302 
L 2579 3302 
L 2579 1018 
C 2579 582 2182 384 1779 384 
C 1286 384 1024 685 1024 1274 
L 1024 3302 
L 512 3302 
L 512 1184 
C 512 384 947 -77 1626 -77 
C 2176 -77 2426 224 2554 538 
L 2579 538 
L 2579 0 
z
" transform="scale(0.015625)"/>
       <path id="IBMPlexSans-6e" d="M 1056 0 
L 1056 2291 
C 1056 2714 1453 2918 1862 2918 
C 2355 2918 2611 2618 2611 2029 
L 2611 0 
L 3123 0 
L 3123 2118 
C 3123 2918 2694 3379 2016 3379 
C 1523 3379 1242 3136 1082 2765 
L 1056 2765 
L 1056 3302 
L 544 3302 
L 544 0 
L 1056 0 
z
" transform="scale(0.015625)"/>
       <path id="IBMPlexSans-63" d="M 1773 -77 
C 2400 -77 2829 230 3040 704 
L 2669 954 
C 2490 576 2189 378 1773 378 
C 1165 378 851 794 851 1370 
L 851 1933 
C 851 2509 1165 2925 1773 2925 
C 2176 2925 2458 2726 2579 2387 
L 3008 2605 
C 2816 3059 2426 3379 1773 3379 
C 845 3379 301 2707 301 1651 
C 301 595 845 -77 1773 -77 
z
" transform="scale(0.015625)"/>
       <path id="IBMPlexSans-79" d="M 1779 1056 
L 1600 518 
L 1568 518 
L 1414 1056 
L 621 3302 
L 109 3302 
L 1344 -128 
L 1094 -832 
L 576 -832 
L 576 -1280 
L 838 -1280 
C 1325 -1280 1459 -1165 1606 -768 
L 3085 3302 
L 2579 3302 
L 1779 1056 
z
" transform="scale(0.015625)"/>
       <path id="IBMPlexSans-20" transform="scale(0.015625)"/>
       <path id="IBMPlexSans-5b" d="M 1645 -883 
L 1645 -480 
L 1037 -480 
L 1037 4461 
L 1645 4461 
L 1645 4864 
L 595 4864 
L 595 -883 
L 1645 -883 
z
" transform="scale(0.015625)"/>
       <path id="IBMPlexSans-54" d="M 3520 3994 
L 3520 4467 
L 141 4467 
L 141 3994 
L 1562 3994 
L 1562 0 
L 2099 0 
L 2099 3994 
L 3520 3994 
z
" transform="scale(0.015625)"/>
       <path id="IBMPlexSans-48" d="M 3392 0 
L 3930 0 
L 3930 4467 
L 3392 4467 
L 3392 2496 
L 1133 2496 
L 1133 4467 
L 595 4467 
L 595 0 
L 1133 0 
L 1133 2022 
L 3392 2022 
L 3392 0 
z
" transform="scale(0.015625)"/>
       <path id="IBMPlexSans-7a" d="M 2758 0 
L 2758 448 
L 794 448 
L 2707 2918 
L 2707 3302 
L 269 3302 
L 269 2854 
L 2086 2854 
L 211 429 
L 211 0 
L 2758 0 
z
" transform="scale(0.015625)"/>
       <path id="IBMPlexSans-5d" d="M 384 4864 
L 384 4461 
L 992 4461 
L 992 -480 
L 384 -480 
L 384 -883 
L 1434 -883 
L 1434 4864 
L 384 4864 
z
" transform="scale(0.015625)"/>
      </defs>
      <use xlink:href="#IBMPlexSans-46"/>
      <use xlink:href="#IBMPlexSans-72" transform="translate(55.899994 0)"/>
      <use xlink:href="#IBMPlexSans-65" transform="translate(92.599991 0)"/>
      <use xlink:href="#IBMPlexSans-71" transform="translate(147.499985 0)"/>
      <use xlink:href="#IBMPlexSans-75" transform="translate(205.499969 0)"/>
      <use xlink:href="#IBMPlexSans-65" transform="translate(262.299957 0)"/>
      <use xlink:href="#IBMPlexSans-6e" transform="translate(317.199951 0)"/>
      <use xlink:href="#IBMPlexSans-63" transform="translate(373.999939 0)"/>
      <use xlink:href="#IBMPlexSans-79" transform="translate(424.299927 0)"/>
      <use xlink:href="#IBMPlexSans-20" transform="translate(474.199921 0)"/>
      <use xlink:href="#IBMPlexSans-5b" transform="translate(497.799911 0)"/>
      <use xlink:href="#IBMPlexSans-54" transform="translate(529.499908 0)"/>
      <use xlink:href="#IBMPlexSans-48" transform="translate(586.699905 0)"/>
      <use xlink:href="#IBMPlexSans-7a" transform="translate(657.399887 0)"/>
      <use xlink:href="#IBMPlexSans-5d" transform="translate(703.799881 0)"/>
     </g>
    </g>
   </g>
   <g id="matplotlib.axis_2">
    <g id="ytick_1">
     <g id="line2d_9">
      <defs>
       <path id="m713fe27401" d="M 0 0 
L -3.5 0 
" style="stroke: #000000; stroke-width: 0.8"/>
      </defs>
      <g>
       <use xlink:href="#m713fe27401" x="45.8" y="273.956634" style="stroke: #000000; stroke-width: 0.8"/>
      </g>
     </g>
     <g id="text_10">
      <!-- 300 -->
      <g transform="translate(20.8 277.656634) scale(0.1 -0.1)">
       <defs>
        <path id="IBMPlexSans-33" d="M 1184 2573 
L 1184 2106 
L 1709 2106 
C 2336 2106 2669 1805 2669 1280 
L 2669 1229 
C 2669 704 2336 403 1709 403 
C 1165 403 902 640 672 992 
L 269 685 
C 544 301 941 -77 1715 -77 
C 2624 -77 3232 454 3232 1222 
C 3232 1894 2771 2253 2291 2349 
L 2291 2374 
C 2765 2496 3149 2842 3149 3418 
C 3149 4141 2547 4544 1792 4544 
C 1075 4544 685 4173 461 3814 
L 858 3507 
C 1043 3846 1318 4064 1779 4064 
C 2253 4064 2579 3827 2579 3360 
L 2579 3315 
C 2579 2886 2272 2573 1670 2573 
L 1184 2573 
z
" transform="scale(0.015625)"/>
       </defs>
       <use xlink:href="#IBMPlexSans-33"/>
       <use xlink:href="#IBMPlexSans-30" transform="translate(59.999985 0)"/>
       <use xlink:href="#IBMPlexSans-30" transform="translate(119.999969 0)"/>
      </g>
     </g>
    </g>
    <g id="ytick_2">
     <g id="line2d_10">
      <g>
       <use xlink:href="#m713fe27401" x="45.8" y="228.919997" style="stroke: #000000; stroke-width: 0.8"/>
      </g>
     </g>
     <g id="text_11">
      <!-- 350 -->
      <g transform="translate(20.8 232.619997) scale(0.1 -0.1)">
       <defs>
        <path id="IBMPlexSans-35" d="M 3187 4467 
L 794 4467 
L 634 2010 
L 1088 1946 
C 1274 2150 1478 2323 1888 2323 
C 2496 2323 2822 1984 2822 1395 
L 2822 1331 
C 2822 742 2496 403 1888 403 
C 1350 403 1126 640 896 992 
L 493 685 
C 762 301 1146 -77 1888 -77 
C 2829 -77 3392 531 3392 1402 
C 3392 2266 2829 2784 2061 2784 
C 1594 2784 1357 2592 1146 2291 
L 1101 2291 
L 1229 3994 
L 3187 3994 
L 3187 4467 
z
" transform="scale(0.015625)"/>
       </defs>
       <use xlink:href="#IBMPlexSans-33"/>
       <use xlink:href="#IBMPlexSans-35" transform="translate(59.999985 0)"/>
       <use xlink:href="#IBMPlexSans-30" transform="translate(119.999969 0)"/>
      </g>
     </g>
    </g>
    <g id="ytick_3">
     <g id="line2d_11">
      <g>
       <use xlink:href="#m713fe27401" x="45.8" y="183.883359" style="stroke: #000000; stroke-width: 0.8"/>
      </g>
     </g>
     <g id="text_12">
      <!-- 400 -->
      <g transform="translate(20.8 187.583359) scale(0.1 -0.1)">
       <use xlink:href="#IBMPlexSans-34"/>
       <use xlink:href="#IBMPlexSans-30" transform="translate(59.999985 0)"/>
       <use xlink:href="#IBMPlexSans-30" transform="translate(119.999969 0)"/>
      </g>
     </g>
    </g>
    <g id="ytick_4">
     <g id="line2d_12">
      <g>
       <use xlink:href="#m713fe27401" x="45.8" y="138.846722" style="stroke: #000000; stroke-width: 0.8"/>
      </g>
     </g>
     <g id="text_13">
      <!-- 450 -->
      <g transform="translate(20.8 142.546722) scale(0.1 -0.1)">
       <use xlink:href="#IBMPlexSans-34"/>
       <use xlink:href="#IBMPlexSans-35" transform="translate(59.999985 0)"/>
       <use xlink:href="#IBMPlexSans-30" transform="translate(119.999969 0)"/>
      </g>
     </g>
    </g>
    <g id="ytick_5">
     <g id="line2d_13">
      <g>
       <use xlink:href="#m713fe27401" x="45.8" y="93.810085" style="stroke: #000000; stroke-width: 0.8"/>
      </g>
     </g>
     <g id="text_14">
      <!-- 500 -->
      <g transform="translate(20.8 97.510085) scale(0.1 -0.1)">
       <use xlink:href="#IBMPlexSans-35"/>
       <use xlink:href="#IBMPlexSans-30" transform="translate(59.999985 0)"/>
       <use xlink:href="#IBMPlexSans-30" transform="translate(119.999969 0)"/>
      </g>
     </g>
    </g>
    <g id="ytick_6">
     <g id="line2d_14">
      <g>
       <use xlink:href="#m713fe27401" x="45.8" y="48.773448" style="stroke: #000000; stroke-width: 0.8"/>
      </g>
     </g>
     <g id="text_15">
      <!-- 550 -->
      <g transform="translate(20.8 52.473448) scale(0.1 -0.1)">
       <use xlink:href="#IBMPlexSans-35"/>
       <use xlink:href="#IBMPlexSans-35" transform="translate(59.999985 0)"/>
       <use xlink:href="#IBMPlexSans-30" transform="translate(119.999969 0)"/>
      </g>
     </g>
    </g>
    <g id="text_16">
     <!-- Amplitude [S/m] -->
     <g transform="translate(14.8 192.016666) rotate(-90) scale(0.1 -0.1)">
      <defs>
       <path id="IBMPlexSans-41" d="M 3955 0 
L 2394 4467 
L 1709 4467 
L 147 0 
L 691 0 
L 1139 1318 
L 2944 1318 
L 3392 0 
L 3955 0 
z
M 2810 1792 
L 1267 1792 
L 2022 3968 
L 2054 3968 
L 2810 1792 
z
" transform="scale(0.015625)"/>
       <path id="IBMPlexSans-6d" d="M 1056 0 
L 1056 2291 
C 1056 2714 1440 2918 1843 2918 
C 2330 2918 2554 2618 2554 2029 
L 2554 0 
L 3066 0 
L 3066 2291 
C 3066 2714 3437 2918 3840 2918 
C 4339 2918 4563 2611 4563 2029 
L 4563 0 
L 5075 0 
L 5075 2118 
C 5075 2918 4672 3379 4000 3379 
C 3437 3379 3117 3066 2995 2707 
L 2982 2707 
C 2803 3181 2406 3379 1971 3379 
C 1459 3379 1229 3104 1082 2765 
L 1056 2765 
L 1056 3302 
L 544 3302 
L 544 0 
L 1056 0 
z
" transform="scale(0.015625)"/>
       <path id="IBMPlexSans-70" d="M 544 -1280 
L 1056 -1280 
L 1056 538 
L 1082 538 
C 1280 128 1594 -77 2048 -77 
C 2874 -77 3392 595 3392 1651 
C 3392 2707 2874 3379 2048 3379 
C 1594 3379 1254 3181 1082 2765 
L 1056 2765 
L 1056 3302 
L 544 3302 
L 544 -1280 
z
M 1907 384 
C 1440 384 1056 627 1056 1056 
L 1056 2285 
C 1056 2650 1440 2918 1907 2918 
C 2483 2918 2842 2522 2842 1933 
L 2842 1370 
C 2842 781 2483 384 1907 384 
z
" transform="scale(0.015625)"/>
       <path id="IBMPlexSans-6c" d="M 1542 0 
L 1542 448 
L 1056 448 
L 1056 4736 
L 544 4736 
L 544 531 
C 544 224 736 0 1088 0 
L 1542 0 
z
" transform="scale(0.015625)"/>
       <path id="IBMPlexSans-69" d="M 800 4077 
C 1018 4077 1114 4192 1114 4365 
L 1114 4448 
C 1114 4621 1018 4736 800 4736 
C 582 4736 486 4621 486 4448 
L 486 4365 
C 486 4192 582 4077 800 4077 
z
M 544 0 
L 1056 0 
L 1056 3302 
L 544 3302 
L 544 0 
z
" transform="scale(0.015625)"/>
       <path id="IBMPlexSans-74" d="M 1914 0 
L 1914 448 
L 1242 448 
L 1242 2854 
L 1965 2854 
L 1965 3302 
L 1242 3302 
L 1242 4218 
L 781 4218 
L 781 3603 
C 781 3379 710 3302 493 3302 
L 186 3302 
L 186 2854 
L 730 2854 
L 730 544 
C 730 224 922 0 1274 0 
L 1914 0 
z
" transform="scale(0.015625)"/>
       <path id="IBMPlexSans-64" d="M 2656 0 
L 3168 0 
L 3168 4736 
L 2656 4736 
L 2656 2765 
L 2630 2765 
C 2458 3181 2118 3379 1664 3379 
C 838 3379 320 2707 320 1651 
C 320 595 838 -77 1664 -77 
C 2118 -77 2432 128 2630 538 
L 2656 538 
L 2656 0 
z
M 1805 384 
C 1229 384 870 781 870 1370 
L 870 1933 
C 870 2522 1229 2918 1805 2918 
C 2272 2918 2656 2650 2656 2285 
L 2656 1056 
C 2656 627 2272 384 1805 384 
z
" transform="scale(0.015625)"/>
       <path id="IBMPlexSans-53" d="M 1850 -77 
C 2810 -77 3386 448 3386 1267 
C 3386 1933 3008 2317 2138 2515 
L 1773 2598 
C 1210 2726 934 2918 934 3341 
C 934 3821 1286 4070 1856 4070 
C 2374 4070 2714 3859 2957 3520 
L 3360 3814 
C 3027 4288 2554 4544 1882 4544 
C 1005 4544 403 4115 403 3322 
C 403 2637 851 2278 1664 2093 
L 2029 2010 
C 2618 1875 2854 1664 2854 1242 
C 2854 730 2509 397 1869 397 
C 1350 397 979 621 666 1037 
L 269 704 
C 627 218 1133 -77 1850 -77 
z
" transform="scale(0.015625)"/>
       <path id="IBMPlexSans-2f" d="M 518 -966 
L 2189 4736 
L 1728 4736 
L 58 -966 
L 518 -966 
z
" transform="scale(0.015625)"/>
      </defs>
      <use xlink:href="#IBMPlexSans-41"/>
      <use xlink:href="#IBMPlexSans-6d" transform="translate(64.099991 0)"/>
      <use xlink:href="#IBMPlexSans-70" transform="translate(151.399979 0)"/>
      <use xlink:href="#IBMPlexSans-6c" transform="translate(209.399963 0)"/>
      <use xlink:href="#IBMPlexSans-69" transform="translate(236.59996 0)"/>
      <use xlink:href="#IBMPlexSans-74" transform="translate(261.599945 0)"/>
      <use xlink:href="#IBMPlexSans-75" transform="translate(296.699936 0)"/>
      <use xlink:href="#IBMPlexSans-64" transform="translate(353.499924 0)"/>
      <use xlink:href="#IBMPlexSans-65" transform="translate(411.499908 0)"/>
      <use xlink:href="#IBMPlexSans-20" transform="translate(466.399902 0)"/>
      <use xlink:href="#IBMPlexSans-5b" transform="translate(489.999893 0)"/>
      <use xlink:href="#IBMPlexSans-53" transform="translate(521.69989 0)"/>
      <use xlink:href="#IBMPlexSans-2f" transform="translate(579.799881 0)"/>
      <use xlink:href="#IBMPlexSans-6d" transform="translate(618.099869 0)"/>
      <use xlink:href="#IBMPlexSans-5d" transform="translate(705.399857 0)"/>
     </g>
    </g>
   </g>
   <g id="line2d_15">
    <defs>
     <path id="mc649d235bb" d="M 0 1.5 
C 0.397805 1.5 0.77937 1.341951 1.06066 1.06066 
C 1.341951 0.77937 1.5 0.397805 1.5 0 
C 1.5 -0.397805 1.341951 -0.77937 1.06066 -1.06066 
C 0.77937 -1.341951 0.397805 -1.5 0 -1.5 
C -0.397805 -1.5 -0.77937 -1.341951 -1.06066 -1.06066 
C -1.341951 -0.77937 -1.5 -0.397805 -1.5 0 
C -1.5 0.397805 -1.341951 0.77937 -1.06066 1.06066 
C -0.77937 1.341951 -0.397805 1.5 0 1.5 
z
"/>
    </defs>
    <g clip-path="url(#p7c22355edf)">
     <use xlink:href="#mc649d235bb" x="57.472253" y="257.574106" style="fill: #1f77b4"/>
     <use xlink:href="#mc649d235bb" x="64.633145" y="214.211335" style="fill: #1f77b4"/>
     <use xlink:href="#mc649d235bb" x="71.794037" y="194.483648" style="fill: #1f77b4"/>
     <use xlink:href="#mc649d235bb" x="78.954928" y="244.1325" style="fill: #1f77b4"/>
     <use xlink:href="#mc649d235bb" x="86.11582" y="233.140326" style="fill: #1f77b4"/>
     <use xlink:href="#mc649d235bb" x="93.276711" y="247.026505" style="fill: #1f77b4"/>
     <use xlink:href="#mc649d235bb" x="100.437603" y="208.815118" style="fill: #1f77b4"/>
     <use xlink:href="#mc649d235bb" x="107.598495" y="233.820721" style="fill: #1f77b4"/>
     <use xlink:href="#mc649d235bb" x="114.759386" y="214.641622" style="fill: #1f77b4"/>
     <use xlink:href="#mc649d235bb" x="121.920278" y="213.025366" style="fill: #1f77b4"/>
     <use xlink:href="#mc649d235bb" x="129.081169" y="256.766277" style="fill: #1f77b4"/>
     <use xlink:href="#mc649d235bb" x="136.242061" y="246.756008" style="fill: #1f77b4"/>
     <use xlink:href="#mc649d235bb" x="143.402953" y="215.151523" style="fill: #1f77b4"/>
     <use xlink:href="#mc649d235bb" x="150.563844" y="222.253589" style="fill: #1f77b4"/>
     <use xlink:href="#mc649d235bb" x="157.724736" y="227.020973" style="fill: #1f77b4"/>
     <use xlink:href="#mc649d235bb" x="164.885628" y="226.179494" style="fill: #1f77b4"/>
     <use xlink:href="#mc649d235bb" x="172.046519" y="230.301843" style="fill: #1f77b4"/>
     <use xlink:href="#mc649d235bb" x="179.207411" y="211.747688" style="fill: #1f77b4"/>
     <use xlink:href="#mc649d235bb" x="186.368302" y="202.386445" style="fill: #1f77b4"/>
     <use xlink:href="#mc649d235bb" x="193.529194" y="226.051081" style="fill: #1f77b4"/>
     <use xlink:href="#mc649d235bb" x="200.690086" y="239.720077" style="fill: #1f77b4"/>
     <use xlink:href="#mc649d235bb" x="207.850977" y="220.506597" style="fill: #1f77b4"/>
     <use xlink:href="#mc649d235bb" x="215.011869" y="233.977901" style="fill: #1f77b4"/>
     <use xlink:href="#mc649d235bb" x="222.17276" y="205.389914" style="fill: #1f77b4"/>
     <use xlink:href="#mc649d235bb" x="229.333652" y="210.885973" style="fill: #1f77b4"/>
     <use xlink:href="#mc649d235bb" x="236.494544" y="224.532534" style="fill: #1f77b4"/>
     <use xlink:href="#mc649d235bb" x="243.655435" y="229.87042" style="fill: #1f77b4"/>
     <use xlink:href="#mc649d235bb" x="250.816327" y="174.830006" style="fill: #1f77b4"/>
     <use xlink:href="#mc649d235bb" x="257.977218" y="186.474091" style="fill: #1f77b4"/>
     <use xlink:href="#mc649d235bb" x="265.13811" y="201.887748" style="fill: #1f77b4"/>
     <use xlink:href="#mc649d235bb" x="272.299002" y="189.703246" style="fill: #1f77b4"/>
     <use xlink:href="#mc649d235bb" x="279.459893" y="196.459593" style="fill: #1f77b4"/>
     <use xlink:href="#mc649d235bb" x="286.620785" y="184.329412" style="fill: #1f77b4"/>
     <use xlink:href="#mc649d235bb" x="293.781677" y="162.82377" style="fill: #1f77b4"/>
     <use xlink:href="#mc649d235bb" x="300.942568" y="168.520624" style="fill: #1f77b4"/>
     <use xlink:href="#mc649d235bb" x="308.10346" y="162.31211" style="fill: #1f77b4"/>
     <use xlink:href="#mc649d235bb" x="315.264351" y="167.883976" style="fill: #1f77b4"/>
     <use xlink:href="#mc649d235bb" x="322.425243" y="181.033962" style="fill: #1f77b4"/>
     <use xlink:href="#mc649d235bb" x="329.586135" y="163.877498" style="fill: #1f77b4"/>
     <use xlink:href="#mc649d235bb" x="336.747026" y="114.070628" style="fill: #1f77b4"/>
     <use xlink:href="#mc649d235bb" x="343.907918" y="202.218148" style="fill: #1f77b4"/>
     <use xlink:href="#mc649d235bb" x="351.068809" y="182.994592" style="fill: #1f77b4"/>
     <use xlink:href="#mc649d235bb" x="358.229701" y="162.213879" style="fill: #1f77b4"/>
     <use xlink:href="#mc649d235bb" x="365.390593" y="168.681821" style="fill: #1f77b4"/>
     <use xlink:href="#mc649d235bb" x="372.551484" y="145.881314" style="fill: #1f77b4"/>
     <use xlink:href="#mc649d235bb" x="379.712376" y="161.446365" style="fill: #1f77b4"/>
     <use xlink:href="#mc649d235bb" x="386.873267" y="138.634165" style="fill: #1f77b4"/>
     <use xlink:href="#mc649d235bb" x="394.034159" y="134.331379" style="fill: #1f77b4"/>
     <use xlink:href="#mc649d235bb" x="401.195051" y="111.423284" style="fill: #1f77b4"/>
     <use xlink:href="#mc649d235bb" x="408.355942" y="149.081822" style="fill: #1f77b4"/>
     <use xlink:href="#mc649d235bb" x="415.516834" y="116.809025" style="fill: #1f77b4"/>
     <use xlink:href="#mc649d235bb" x="422.677726" y="101.229419" style="fill: #1f77b4"/>
     <use xlink:href="#mc649d235bb" x="429.838617" y="138.738956" style="fill: #1f77b4"/>
     <use xlink:href="#mc649d235bb" x="436.999509" y="160.264799" style="fill: #1f77b4"/>
     <use xlink:href="#mc649d235bb" x="444.1604" y="110.221914" style="fill: #1f77b4"/>
     <use xlink:href="#mc649d235bb" x="451.321292" y="162.331419" style="fill: #1f77b4"/>
     <use xlink:href="#mc649d235bb" x="458.482184" y="133.644529" style="fill: #1f77b4"/>
     <use xlink:href="#mc649d235bb" x="465.643075" y="145.29508" style="fill: #1f77b4"/>
     <use xlink:href="#mc649d235bb" x="472.803967" y="108.987681" style="fill: #1f77b4"/>
     <use xlink:href="#mc649d235bb" x="479.964858" y="122.8301" style="fill: #1f77b4"/>
     <use xlink:href="#mc649d235bb" x="487.12575" y="133.645024" style="fill: #1f77b4"/>
     <use xlink:href="#mc649d235bb" x="494.286642" y="81.630587" style="fill: #1f77b4"/>
     <use xlink:href="#mc649d235bb" x="501.447533" y="121.335485" style="fill: #1f77b4"/>
    </g>
   </g>
   <g id="line2d_16">
    <path d="M 57.472253 231.341706 
L 64.633145 230.918825 
L 71.794037 230.495373 
L 78.954928 230.071348 
L 86.11582 229.64675 
L 93.276711 229.221578 
L 100.437603 228.795832 
L 107.598495 228.36951 
L 114.759386 227.942611 
L 121.920278 227.515136 
L 129.081169 227.087083 
L 136.242061 226.658451 
L 143.402953 226.229239 
L 150.563844 225.799448 
L 157.724736 225.369075 
L 164.885628 224.938121 
" clip-path="url(#p7c22355edf)" style="fill: none; stroke: #2ca02c; stroke-width: 1.5; stroke-linecap: square"/>
   </g>
   <g id="line2d_17">
    <path d="M 57.472253 248.738968 
L 64.633145 246.594734 
L 71.794037 244.57548 
L 78.954928 242.731858 
L 86.11582 241.132818 
L 93.276711 239.863566 
L 100.437603 239.010243 
L 107.598495 238.628955 
L 114.759386 238.717492 
L 121.920278 239.21728 
L 129.081169 240.043298 
L 136.242061 241.113534 
L 143.402953 242.362428 
L 150.563844 243.742043 
L 157.724736 245.218584 
L 164.885628 246.768415 
" clip-path="url(#p7c22355edf)" style="fill: none; stroke-dasharray: 5.55,2.4; stroke-dashoffset: 0; stroke: #2ca02c; stroke-width: 1.5"/>
   </g>
   <g id="line2d_18">
    <path d="M 57.472253 213.944444 
L 64.633145 215.242917 
L 71.794037 216.415266 
L 78.954928 217.410839 
L 86.11582 218.160683 
L 93.276711 218.579591 
L 100.437603 218.581421 
L 107.598495 218.110065 
L 114.759386 217.167731 
L 121.920278 215.812992 
L 129.081169 214.130867 
L 136.242061 212.203367 
L 143.402953 210.096051 
L 150.563844 207.856852 
L 157.724736 205.519566 
L 164.885628 203.107826 
" clip-path="url(#p7c22355edf)" style="fill: none; stroke-dasharray: 5.55,2.4; stroke-dashoffset: 0; stroke: #2ca02c; stroke-width: 1.5"/>
   </g>
   <g id="line2d_19">
    <path d="M 162.920699 274.94952 
L 162.920699 250.992168 
" clip-path="url(#p7c22355edf)" style="fill: none; stroke: #000000; stroke-width: 1.5; stroke-linecap: square"/>
   </g>
   <g id="patch_3">
    <path d="M 45.8 274.94952 
L 45.8 35.376 
" style="fill: none; stroke: #000000; stroke-width: 0.8; stroke-linejoin: miter; stroke-linecap: square"/>
   </g>
   <g id="patch_4">
    <path d="M 45.8 274.94952 
L 505.958895 274.94952 
" style="fill: none; stroke: #000000; stroke-width: 0.8; stroke-linejoin: miter; stroke-linecap: square"/>
   </g>
   <g id="text_17">
    <!-- Model exppoly(0, 1)  -->
    <g transform="translate(45.8 16.32) scale(0.12 -0.12)">
     <defs>
      <path id="IBMPlexSans-4d" d="M 595 0 
L 1120 0 
L 1120 3763 
L 1152 3763 
L 1530 3014 
L 2598 1069 
L 3667 3014 
L 4045 3763 
L 4077 3763 
L 4077 0 
L 4602 0 
L 4602 4467 
L 3910 4467 
L 2624 2061 
L 2592 2061 
L 1312 4467 
L 595 4467 
L 595 0 
z
" transform="scale(0.015625)"/>
      <path id="IBMPlexSans-6f" d="M 1792 -77 
C 2675 -77 3283 602 3283 1651 
C 3283 2701 2675 3379 1792 3379 
C 909 3379 301 2701 301 1651 
C 301 602 909 -77 1792 -77 
z
M 1792 378 
C 1242 378 851 717 851 1414 
L 851 1888 
C 851 2586 1242 2925 1792 2925 
C 2342 2925 2733 2586 2733 1888 
L 2733 1414 
C 2733 717 2342 378 1792 378 
z
" transform="scale(0.015625)"/>
      <path id="IBMPlexSans-78" d="M 134 0 
L 704 0 
L 1632 1293 
L 1651 1293 
L 2509 0 
L 3110 0 
L 1920 1702 
L 3085 3302 
L 2515 3302 
L 1645 2074 
L 1626 2074 
L 787 3302 
L 186 3302 
L 1357 1664 
L 134 0 
z
" transform="scale(0.015625)"/>
      <path id="IBMPlexSans-28" d="M 531 1997 
C 531 749 1056 -339 1690 -877 
L 2176 -877 
C 1485 -262 1011 819 1011 1715 
L 1011 2266 
C 1011 3162 1466 4224 2176 4864 
L 1690 4864 
C 1037 4307 531 3232 531 1997 
z
" transform="scale(0.015625)"/>
      <path id="IBMPlexSans-2c" d="M 870 749 
C 602 749 480 595 480 371 
L 480 282 
C 480 109 557 -19 730 -58 
C 659 -358 506 -582 250 -851 
L 678 -851 
C 1043 -538 1261 -64 1261 282 
L 1261 371 
C 1261 595 1139 749 870 749 
z
" transform="scale(0.015625)"/>
      <path id="IBMPlexSans-29" d="M 1613 1997 
C 1613 3232 1107 4307 454 4864 
L -32 4864 
C 678 4224 1133 3162 1133 2266 
L 1133 1715 
C 1133 819 659 -262 -32 -877 
L 454 -877 
C 1088 -339 1613 749 1613 1997 
z
" transform="scale(0.015625)"/>
     </defs>
     <use xlink:href="#IBMPlexSans-4d"/>
     <use xlink:href="#IBMPlexSans-6f" transform="translate(81.199982 0)"/>
     <use xlink:href="#IBMPlexSans-64" transform="translate(137.199966 0)"/>
     <use xlink:href="#IBMPlexSans-65" transform="translate(195.199951 0)"/>
     <use xlink:href="#IBMPlexSans-6c" transform="translate(250.099945 0)"/>
     <use xlink:href="#IBMPlexSans-20" transform="translate(277.299942 0)"/>
     <use xlink:href="#IBMPlexSans-65" transform="translate(300.899933 0)"/>
     <use xlink:href="#IBMPlexSans-78" transform="translate(355.799927 0)"/>
     <use xlink:href="#IBMPlexSans-70" transform="translate(406.499924 0)"/>
     <use xlink:href="#IBMPlexSans-70" transform="translate(464.499908 0)"/>
     <use xlink:href="#IBMPlexSans-6f" transform="translate(522.499893 0)"/>
     <use xlink:href="#IBMPlexSans-6c" transform="translate(578.499878 0)"/>
     <use xlink:href="#IBMPlexSans-79" transform="translate(605.699875 0)"/>
     <use xlink:href="#IBMPlexSans-28" transform="translate(655.599869 0)"/>
     <use xlink:href="#IBMPlexSans-30" transform="translate(689.099854 0)"/>
     <use xlink:href="#IBMPlexSans-2c" transform="translate(749.099838 0)"/>
     <use xlink:href="#IBMPlexSans-20" transform="translate(776.299835 0)"/>
     <use xlink:href="#IBMPlexSans-31" transform="translate(799.899826 0)"/>
     <use xlink:href="#IBMPlexSans-29" transform="translate(859.899811 0)"/>
     <use xlink:href="#IBMPlexSans-20" transform="translate(893.399796 0)"/>
    </g>
    <!-- $\sigma$ = 347.0 ± 10.9 S/m -->
    <g transform="translate(45.8 29.376) scale(0.12 -0.12)">
     <defs>
      <path id="DejaVuSans-Oblique-3c3" d="M 2219 3044 
Q 1744 3044 1422 2700 
Q 1081 2341 969 1747 
Q 844 1119 1044 756 
Q 1241 397 1706 397 
Q 2166 397 2503 759 
Q 2844 1122 2966 1747 
Q 3075 2319 2881 2700 
Q 2700 3044 2219 3044 
z
M 2309 3503 
L 4219 3500 
L 4106 2925 
L 3463 2925 
Q 3706 2438 3575 1747 
Q 3406 888 2884 400 
Q 2359 -91 1609 -91 
Q 856 -91 525 400 
Q 194 888 363 1747 
Q 528 2609 1050 3097 
Q 1484 3503 2309 3503 
z
" transform="scale(0.015625)"/>
      <path id="IBMPlexSans-3d" d="M 3411 2381 
L 3411 2816 
L 429 2816 
L 429 2381 
L 3411 2381 
z
M 3411 1101 
L 3411 1536 
L 429 1536 
L 429 1101 
L 3411 1101 
z
" transform="scale(0.015625)"/>
      <path id="IBMPlexSans-37" d="M 1696 0 
L 3373 3994 
L 3373 4467 
L 442 4467 
L 442 3174 
L 922 3174 
L 922 4006 
L 2829 4006 
L 1120 0 
L 1696 0 
z
" transform="scale(0.015625)"/>
      <path id="IBMPlexSans-b1" d="M 2163 973 
L 2163 2246 
L 3411 2246 
L 3411 2682 
L 2163 2682 
L 2163 3955 
L 1677 3955 
L 1677 2682 
L 429 2682 
L 429 2246 
L 1677 2246 
L 1677 973 
L 2163 973 
z
M 3411 0 
L 3411 435 
L 429 435 
L 429 0 
L 3411 0 
z
" transform="scale(0.015625)"/>
      <path id="IBMPlexSans-39" d="M 3411 2829 
C 3411 3891 2842 4544 1914 4544 
C 1018 4544 429 3942 429 3066 
C 429 2221 979 1690 1747 1690 
C 2291 1690 2611 1965 2822 2330 
L 2854 2317 
C 2611 1280 2080 698 1126 0 
L 1818 0 
C 2534 467 3411 1504 3411 2829 
z
M 1920 2144 
C 1331 2144 986 2483 986 3085 
L 986 3136 
C 986 3738 1331 4077 1920 4077 
C 2509 4077 2854 3738 2854 3136 
L 2854 3085 
C 2854 2483 2509 2144 1920 2144 
z
" transform="scale(0.015625)"/>
     </defs>
     <use xlink:href="#DejaVuSans-Oblique-3c3"/>
     <use xlink:href="#IBMPlexSans-20" transform="translate(63.378906 0)"/>
     <use xlink:href="#IBMPlexSans-3d" transform="translate(86.978897 0)"/>
     <use xlink:href="#IBMPlexSans-20" transform="translate(146.978882 0)"/>
     <use xlink:href="#IBMPlexSans-33" transform="translate(170.578873 0)"/>
     <use xlink:href="#IBMPlexSans-34" transform="translate(230.578857 0)"/>
     <use xlink:href="#IBMPlexSans-37" transform="translate(290.578842 0)"/>
     <use xlink:href="#IBMPlexSans-2e" transform="translate(350.578827 0)"/>
     <use xlink:href="#IBMPlexSans-30" transform="translate(377.778824 0)"/>
     <use xlink:href="#IBMPlexSans-20" transform="translate(437.778809 0)"/>
     <use xlink:href="#IBMPlexSans-b1" transform="translate(461.378799 0)"/>
     <use xlink:href="#IBMPlexSans-20" transform="translate(521.378784 0)"/>
     <use xlink:href="#IBMPlexSans-31" transform="translate(544.978775 0)"/>
     <use xlink:href="#IBMPlexSans-30" transform="translate(604.97876 0)"/>
     <use xlink:href="#IBMPlexSans-2e" transform="translate(664.978745 0)"/>
     <use xlink:href="#IBMPlexSans-39" transform="translate(692.178741 0)"/>
     <use xlink:href="#IBMPlexSans-20" transform="translate(752.178726 0)"/>
     <use xlink:href="#IBMPlexSans-53" transform="translate(775.778717 0)"/>
     <use xlink:href="#IBMPlexSans-2f" transform="translate(833.878708 0)"/>
     <use xlink:href="#IBMPlexSans-6d" transform="translate(872.178696 0)"/>
    </g>
   </g>
   <g id="text_18">
    <!--  -->
    <g transform="translate(505.958895 16.32) scale(0.12 -0.12)"/>
    <!-- $\tau_\text{int}$ = 25.116 ± 0.788 fs -->
    <g transform="translate(377.798895 29.376) scale(0.12 -0.12)">
     <defs>
      <path id="DejaVuSans-Oblique-3c4" d="M 2103 638 
Q 2188 488 2525 488 
L 2800 488 
L 2706 0 
L 2363 0 
Q 1800 0 1600 300 
Q 1403 606 1534 1269 
L 1856 2925 
L 541 2925 
L 653 3500 
L 3881 3500 
L 3769 2925 
L 2444 2925 
L 2113 1234 
Q 2025 781 2103 638 
z
" transform="scale(0.015625)"/>
      <path id="DejaVuSans-69" d="M 603 3500 
L 1178 3500 
L 1178 0 
L 603 0 
L 603 3500 
z
M 603 4863 
L 1178 4863 
L 1178 4134 
L 603 4134 
L 603 4863 
z
" transform="scale(0.015625)"/>
      <path id="DejaVuSans-6e" d="M 3513 2113 
L 3513 0 
L 2938 0 
L 2938 2094 
Q 2938 2591 2744 2837 
Q 2550 3084 2163 3084 
Q 1697 3084 1428 2787 
Q 1159 2491 1159 1978 
L 1159 0 
L 581 0 
L 581 3500 
L 1159 3500 
L 1159 2956 
Q 1366 3272 1645 3428 
Q 1925 3584 2291 3584 
Q 2894 3584 3203 3211 
Q 3513 2838 3513 2113 
z
" transform="scale(0.015625)"/>
      <path id="DejaVuSans-74" d="M 1172 4494 
L 1172 3500 
L 2356 3500 
L 2356 3053 
L 1172 3053 
L 1172 1153 
Q 1172 725 1289 603 
Q 1406 481 1766 481 
L 2356 481 
L 2356 0 
L 1766 0 
Q 1100 0 847 248 
Q 594 497 594 1153 
L 594 3053 
L 172 3053 
L 172 3500 
L 594 3500 
L 594 4494 
L 1172 4494 
z
" transform="scale(0.015625)"/>
      <path id="IBMPlexSans-66" d="M 723 0 
L 1235 0 
L 1235 2854 
L 1946 2854 
L 1946 3302 
L 1235 3302 
L 1235 4288 
L 1946 4288 
L 1946 4736 
L 1446 4736 
C 960 4736 723 4422 723 3968 
L 723 3302 
L 186 3302 
L 186 2854 
L 723 2854 
L 723 0 
z
" transform="scale(0.015625)"/>
      <path id="IBMPlexSans-73" d="M 1536 -77 
C 2291 -77 2758 314 2758 954 
C 2758 1453 2477 1773 1747 1882 
L 1491 1920 
C 1082 1984 858 2112 858 2432 
C 858 2746 1082 2944 1504 2944 
C 1926 2944 2208 2746 2355 2541 
L 2694 2848 
C 2426 3181 2074 3379 1542 3379 
C 870 3379 365 3059 365 2406 
C 365 1792 819 1542 1427 1453 
L 1690 1414 
C 2125 1350 2266 1152 2266 896 
C 2266 557 2010 358 1574 358 
C 1158 358 851 544 595 864 
L 230 570 
C 525 179 928 -77 1536 -77 
z
" transform="scale(0.015625)"/>
     </defs>
     <use xlink:href="#DejaVuSans-Oblique-3c4"/>
     <use xlink:href="#DejaVuSans-69" transform="translate(60.205078 -16.40625) scale(0.7)"/>
     <use xlink:href="#DejaVuSans-6e" transform="translate(79.65332 -16.40625) scale(0.7)"/>
     <use xlink:href="#DejaVuSans-74" transform="translate(124.018555 -16.40625) scale(0.7)"/>
     <use xlink:href="#IBMPlexSans-20" transform="translate(154.199219 0)"/>
     <use xlink:href="#IBMPlexSans-3d" transform="translate(177.79921 0)"/>
     <use xlink:href="#IBMPlexSans-20" transform="translate(237.799194 0)"/>
     <use xlink:href="#IBMPlexSans-32" transform="translate(261.399185 0)"/>
     <use xlink:href="#IBMPlexSans-35" transform="translate(321.39917 0)"/>
     <use xlink:href="#IBMPlexSans-2e" transform="translate(381.399155 0)"/>
     <use xlink:href="#IBMPlexSans-31" transform="translate(408.599152 0)"/>
     <use xlink:href="#IBMPlexSans-31" transform="translate(468.599136 0)"/>
     <use xlink:href="#IBMPlexSans-36" transform="translate(528.599121 0)"/>
     <use xlink:href="#IBMPlexSans-20" transform="translate(588.599106 0)"/>
     <use xlink:href="#IBMPlexSans-b1" transform="translate(612.199097 0)"/>
     <use xlink:href="#IBMPlexSans-20" transform="translate(672.199081 0)"/>
     <use xlink:href="#IBMPlexSans-30" transform="translate(695.799072 0)"/>
     <use xlink:href="#IBMPlexSans-2e" transform="translate(755.799057 0)"/>
     <use xlink:href="#IBMPlexSans-37" transform="translate(782.999054 0)"/>
     <use xlink:href="#IBMPlexSans-38" transform="translate(842.999039 0)"/>
     <use xlink:href="#IBMPlexSans-38" transform="translate(902.999023 0)"/>
     <use xlink:href="#IBMPlexSans-20" transform="translate(962.999008 0)"/>
     <use xlink:href="#IBMPlexSans-66" transform="translate(986.598999 0)"/>
     <use xlink:href="#IBMPlexSans-73" transform="translate(1018.998993 0)"/>
    </g>
   </g>
   <g id="legend_1">
    <g id="patch_5">
     <path d="M 368.902645 72.296312 
L 498.958895 72.296312 
Q 500.958895 72.296312 500.958895 70.296312 
L 500.958895 42.376 
Q 500.958895 40.376 498.958895 40.376 
L 368.902645 40.376 
Q 366.902645 40.376 366.902645 42.376 
L 366.902645 70.296312 
Q 366.902645 72.296312 368.902645 72.296312 
z
" style="fill: #ffffff; opacity: 0.8; stroke: #cccccc; stroke-linejoin: miter"/>
    </g>
    <g id="line2d_20">
     <path d="M 370.902645 48.276 
L 380.902645 48.276 
L 390.902645 48.276 
" style="fill: none; stroke-dasharray: 5.55,2.4; stroke-dashoffset: 0; stroke: #2ca02c; stroke-width: 1.5"/>
    </g>
    <g id="text_19">
     <!-- 95% CI fitted model -->
     <g transform="translate(398.902645 51.776) scale(0.1 -0.1)">
      <defs>
       <path id="IBMPlexSans-25" d="M 1664 0 
L 4762 4467 
L 4269 4467 
L 1171 0 
L 1664 0 
z
M 1427 2010 
C 2074 2010 2438 2458 2438 3277 
C 2438 4096 2074 4544 1427 4544 
C 781 4544 416 4096 416 3277 
C 416 2458 781 2010 1427 2010 
z
M 1427 2342 
C 1056 2342 877 2598 877 3085 
L 877 3469 
C 877 3955 1056 4211 1427 4211 
C 1798 4211 1978 3955 1978 3469 
L 1978 3085 
C 1978 2598 1798 2342 1427 2342 
z
M 4506 -77 
C 5152 -77 5517 371 5517 1190 
C 5517 2010 5152 2458 4506 2458 
C 3859 2458 3494 2010 3494 1190 
C 3494 371 3859 -77 4506 -77 
z
M 4506 256 
C 4134 256 3955 512 3955 998 
L 3955 1382 
C 3955 1869 4134 2125 4506 2125 
C 4877 2125 5056 1869 5056 1382 
L 5056 998 
C 5056 512 4877 256 4506 256 
z
" transform="scale(0.015625)"/>
       <path id="IBMPlexSans-43" d="M 2170 -77 
C 2912 -77 3456 314 3738 941 
L 3309 1210 
C 3130 723 2739 403 2170 403 
C 1402 403 947 960 947 1875 
L 947 2541 
C 947 3456 1402 4064 2170 4064 
C 2720 4064 3091 3763 3270 3302 
L 3706 3565 
C 3424 4186 2912 4544 2170 4544 
C 1043 4544 371 3699 371 2208 
C 371 717 1043 -77 2170 -77 
z
" transform="scale(0.015625)"/>
       <path id="IBMPlexSans-49" d="M 2176 0 
L 2176 448 
L 1549 448 
L 1549 4019 
L 2176 4019 
L 2176 4467 
L 384 4467 
L 384 4019 
L 1011 4019 
L 1011 448 
L 384 448 
L 384 0 
L 2176 0 
z
" transform="scale(0.015625)"/>
      </defs>
      <use xlink:href="#IBMPlexSans-39"/>
      <use xlink:href="#IBMPlexSans-35" transform="translate(59.999985 0)"/>
      <use xlink:href="#IBMPlexSans-25" transform="translate(119.999969 0)"/>
      <use xlink:href="#IBMPlexSans-20" transform="translate(212.699951 0)"/>
      <use xlink:href="#IBMPlexSans-43" transform="translate(236.299942 0)"/>
      <use xlink:href="#IBMPlexSans-49" transform="translate(298.399933 0)"/>
      <use xlink:href="#IBMPlexSans-20" transform="translate(338.399918 0)"/>
      <use xlink:href="#IBMPlexSans-66" transform="translate(361.999908 0)"/>
      <use xlink:href="#IBMPlexSans-69" transform="translate(394.399902 0)"/>
      <use xlink:href="#IBMPlexSans-74" transform="translate(419.399887 0)"/>
      <use xlink:href="#IBMPlexSans-74" transform="translate(454.499878 0)"/>
      <use xlink:href="#IBMPlexSans-65" transform="translate(489.599869 0)"/>
      <use xlink:href="#IBMPlexSans-64" transform="translate(544.499863 0)"/>
      <use xlink:href="#IBMPlexSans-20" transform="translate(602.499847 0)"/>
      <use xlink:href="#IBMPlexSans-6d" transform="translate(626.099838 0)"/>
      <use xlink:href="#IBMPlexSans-6f" transform="translate(713.399826 0)"/>
      <use xlink:href="#IBMPlexSans-64" transform="translate(769.399811 0)"/>
      <use xlink:href="#IBMPlexSans-65" transform="translate(827.399796 0)"/>
      <use xlink:href="#IBMPlexSans-6c" transform="translate(882.299789 0)"/>
     </g>
    </g>
    <g id="patch_6">
     <path d="M 370.902645 66.176 
L 390.902645 66.176 
L 390.902645 59.176 
L 370.902645 59.176 
z
" style="fill: #2ca02c; fill-opacity: 0.3"/>
    </g>
    <g id="text_20">
     <!-- 95% CI sampling PSD -->
     <g transform="translate(398.902645 66.176) scale(0.1 -0.1)">
      <defs>
       <path id="IBMPlexSans-61" d="M 3232 0 
L 3232 448 
L 2854 448 
L 2854 2266 
C 2854 2963 2381 3379 1587 3379 
C 992 3379 595 3085 416 2733 
L 723 2445 
C 902 2746 1165 2938 1562 2938 
C 2086 2938 2342 2682 2342 2214 
L 2342 1888 
L 1690 1888 
C 730 1888 282 1542 282 922 
C 282 307 691 -77 1389 -77 
C 1850 -77 2202 134 2342 538 
L 2374 538 
C 2413 230 2566 0 2944 0 
L 3232 0 
z
M 1472 358 
C 1075 358 819 544 819 870 
L 819 1005 
C 819 1325 1082 1504 1664 1504 
L 2342 1504 
L 2342 960 
C 2342 621 1978 358 1472 358 
z
" transform="scale(0.015625)"/>
       <path id="IBMPlexSans-67" d="M 3328 -365 
C 3328 179 2976 512 2157 512 
L 1453 512 
C 1152 512 947 563 947 762 
C 947 966 1165 1075 1382 1133 
C 1478 1114 1594 1101 1702 1101 
C 2458 1101 2950 1568 2950 2240 
C 2950 2592 2810 2886 2573 3091 
L 2573 3302 
L 3200 3302 
L 3200 3750 
L 2707 3750 
C 2432 3750 2323 3565 2323 3309 
L 2323 3251 
C 2144 3334 1933 3379 1696 3379 
C 947 3379 454 2912 454 2240 
C 454 1779 685 1414 1075 1229 
L 1075 1203 
C 742 1120 506 960 506 627 
C 506 403 614 256 800 166 
L 800 96 
C 474 6 275 -186 275 -544 
C 275 -1062 698 -1357 1728 -1357 
C 2790 -1357 3328 -1043 3328 -365 
z
M 2848 -403 
C 2848 -762 2515 -941 1946 -941 
L 1472 -941 
C 954 -941 755 -704 755 -416 
C 755 -211 851 -64 1062 32 
L 2163 32 
C 2675 32 2848 -141 2848 -403 
z
M 1702 1510 
C 1267 1510 992 1715 992 2150 
L 992 2330 
C 992 2765 1267 2970 1702 2970 
C 2138 2970 2413 2765 2413 2330 
L 2413 2150 
C 2413 1715 2138 1510 1702 1510 
z
" transform="scale(0.015625)"/>
       <path id="IBMPlexSans-50" d="M 1133 0 
L 1133 1907 
L 2374 1907 
C 3174 1907 3622 2400 3622 3187 
C 3622 3974 3174 4467 2374 4467 
L 595 4467 
L 595 0 
L 1133 0 
z
M 1133 3994 
L 2374 3994 
C 2797 3994 3046 3763 3046 3354 
L 3046 3021 
C 3046 2611 2797 2381 2374 2381 
L 1133 2381 
L 1133 3994 
z
" transform="scale(0.015625)"/>
       <path id="IBMPlexSans-44" d="M 595 0 
L 2093 0 
C 3206 0 3923 742 3923 2234 
C 3923 3725 3206 4467 2093 4467 
L 595 4467 
L 595 0 
z
M 1133 474 
L 1133 3994 
L 2093 3994 
C 2829 3994 3347 3482 3347 2598 
L 3347 1869 
C 3347 986 2829 474 2093 474 
L 1133 474 
z
" transform="scale(0.015625)"/>
      </defs>
      <use xlink:href="#IBMPlexSans-39"/>
      <use xlink:href="#IBMPlexSans-35" transform="translate(59.999985 0)"/>
      <use xlink:href="#IBMPlexSans-25" transform="translate(119.999969 0)"/>
      <use xlink:href="#IBMPlexSans-20" transform="translate(212.699951 0)"/>
      <use xlink:href="#IBMPlexSans-43" transform="translate(236.299942 0)"/>
      <use xlink:href="#IBMPlexSans-49" transform="translate(298.399933 0)"/>
      <use xlink:href="#IBMPlexSans-20" transform="translate(338.399918 0)"/>
      <use xlink:href="#IBMPlexSans-73" transform="translate(361.999908 0)"/>
      <use xlink:href="#IBMPlexSans-61" transform="translate(410.699905 0)"/>
      <use xlink:href="#IBMPlexSans-6d" transform="translate(464.099899 0)"/>
      <use xlink:href="#IBMPlexSans-70" transform="translate(551.399887 0)"/>
      <use xlink:href="#IBMPlexSans-6c" transform="translate(609.399872 0)"/>
      <use xlink:href="#IBMPlexSans-69" transform="translate(636.599869 0)"/>
      <use xlink:href="#IBMPlexSans-6e" transform="translate(661.599854 0)"/>
      <use xlink:href="#IBMPlexSans-67" transform="translate(718.399841 0)"/>
      <use xlink:href="#IBMPlexSans-20" transform="translate(771.199829 0)"/>
      <use xlink:href="#IBMPlexSans-50" transform="translate(794.79982 0)"/>
      <use xlink:href="#IBMPlexSans-53" transform="translate(855.399811 0)"/>
      <use xlink:href="#IBMPlexSans-44" transform="translate(913.499802 0)"/>
     </g>
    </g>
   </g>
  </g>
  <g id="axes_2">
   <g id="matplotlib.axis_3">
    <g id="ytick_7">
     <g id="line2d_21">
      <defs>
       <path id="m4c05f65799" d="M 0 0 
L 3.5 0 
" style="stroke: #ff0000; stroke-width: 0.8"/>
      </defs>
      <g>
       <use xlink:href="#m4c05f65799" x="505.958895" y="270.342337" style="fill: #ff0000; stroke: #ff0000; stroke-width: 0.8"/>
      </g>
     </g>
     <g id="text_21">
      <!-- 0.0 -->
      <g style="fill: #ff0000" transform="translate(512.958895 274.042337) scale(0.1 -0.1)">
       <use xlink:href="#IBMPlexSans-30"/>
       <use xlink:href="#IBMPlexSans-2e" transform="translate(59.999985 0)"/>
       <use xlink:href="#IBMPlexSans-30" transform="translate(87.199982 0)"/>
      </g>
     </g>
    </g>
    <g id="ytick_8">
     <g id="line2d_22">
      <g>
       <use xlink:href="#m4c05f65799" x="505.958895" y="224.270506" style="fill: #ff0000; stroke: #ff0000; stroke-width: 0.8"/>
      </g>
     </g>
     <g id="text_22">
      <!-- 0.2 -->
      <g style="fill: #ff0000" transform="translate(512.958895 227.970506) scale(0.1 -0.1)">
       <use xlink:href="#IBMPlexSans-30"/>
       <use xlink:href="#IBMPlexSans-2e" transform="translate(59.999985 0)"/>
       <use xlink:href="#IBMPlexSans-32" transform="translate(87.199982 0)"/>
      </g>
     </g>
    </g>
    <g id="ytick_9">
     <g id="line2d_23">
      <g>
       <use xlink:href="#m4c05f65799" x="505.958895" y="178.198675" style="fill: #ff0000; stroke: #ff0000; stroke-width: 0.8"/>
      </g>
     </g>
     <g id="text_23">
      <!-- 0.4 -->
      <g style="fill: #ff0000" transform="translate(512.958895 181.898675) scale(0.1 -0.1)">
       <use xlink:href="#IBMPlexSans-30"/>
       <use xlink:href="#IBMPlexSans-2e" transform="translate(59.999985 0)"/>
       <use xlink:href="#IBMPlexSans-34" transform="translate(87.199982 0)"/>
      </g>
     </g>
    </g>
    <g id="ytick_10">
     <g id="line2d_24">
      <g>
       <use xlink:href="#m4c05f65799" x="505.958895" y="132.126845" style="fill: #ff0000; stroke: #ff0000; stroke-width: 0.8"/>
      </g>
     </g>
     <g id="text_24">
      <!-- 0.6 -->
      <g style="fill: #ff0000" transform="translate(512.958895 135.826845) scale(0.1 -0.1)">
       <use xlink:href="#IBMPlexSans-30"/>
       <use xlink:href="#IBMPlexSans-2e" transform="translate(59.999985 0)"/>
       <use xlink:href="#IBMPlexSans-36" transform="translate(87.199982 0)"/>
      </g>
     </g>
    </g>
    <g id="ytick_11">
     <g id="line2d_25">
      <g>
       <use xlink:href="#m4c05f65799" x="505.958895" y="86.055014" style="fill: #ff0000; stroke: #ff0000; stroke-width: 0.8"/>
      </g>
     </g>
     <g id="text_25">
      <!-- 0.8 -->
      <g style="fill: #ff0000" transform="translate(512.958895 89.755014) scale(0.1 -0.1)">
       <use xlink:href="#IBMPlexSans-30"/>
       <use xlink:href="#IBMPlexSans-2e" transform="translate(59.999985 0)"/>
       <use xlink:href="#IBMPlexSans-38" transform="translate(87.199982 0)"/>
      </g>
     </g>
    </g>
    <g id="ytick_12">
     <g id="line2d_26">
      <g>
       <use xlink:href="#m4c05f65799" x="505.958895" y="39.983183" style="fill: #ff0000; stroke: #ff0000; stroke-width: 0.8"/>
      </g>
     </g>
     <g id="text_26">
      <!-- 1.0 -->
      <g style="fill: #ff0000" transform="translate(512.958895 43.683183) scale(0.1 -0.1)">
       <use xlink:href="#IBMPlexSans-31"/>
       <use xlink:href="#IBMPlexSans-2e" transform="translate(59.999985 0)"/>
       <use xlink:href="#IBMPlexSans-30" transform="translate(87.199982 0)"/>
      </g>
     </g>
    </g>
    <g id="text_27">
     <!-- Fitting weight -->
     <g style="fill: #d62728" transform="translate(539.079207 185.696354) rotate(-90) scale(0.1 -0.1)">
      <defs>
       <path id="IBMPlexSans-77" d="M 1082 0 
L 1702 0 
L 2163 1587 
L 2445 2592 
L 2458 2592 
L 2746 1587 
L 3206 0 
L 3840 0 
L 4717 3302 
L 4237 3302 
L 3878 1875 
L 3539 429 
L 3526 429 
L 3117 1875 
L 2688 3302 
L 2234 3302 
L 1818 1875 
L 1414 429 
L 1402 429 
L 1050 1875 
L 698 3302 
L 198 3302 
L 1082 0 
z
" transform="scale(0.015625)"/>
       <path id="IBMPlexSans-68" d="M 544 0 
L 1056 0 
L 1056 2291 
C 1056 2714 1453 2918 1862 2918 
C 2355 2918 2611 2618 2611 2029 
L 2611 0 
L 3123 0 
L 3123 2118 
C 3123 2918 2694 3379 2016 3379 
C 1523 3379 1242 3136 1082 2765 
L 1056 2765 
L 1056 4736 
L 544 4736 
L 544 0 
z
" transform="scale(0.015625)"/>
      </defs>
      <use xlink:href="#IBMPlexSans-46"/>
      <use xlink:href="#IBMPlexSans-69" transform="translate(55.899994 0)"/>
      <use xlink:href="#IBMPlexSans-74" transform="translate(80.899979 0)"/>
      <use xlink:href="#IBMPlexSans-74" transform="translate(115.999969 0)"/>
      <use xlink:href="#IBMPlexSans-69" transform="translate(151.09996 0)"/>
      <use xlink:href="#IBMPlexSans-6e" transform="translate(176.099945 0)"/>
      <use xlink:href="#IBMPlexSans-67" transform="translate(232.899933 0)"/>
      <use xlink:href="#IBMPlexSans-20" transform="translate(285.699921 0)"/>
      <use xlink:href="#IBMPlexSans-77" transform="translate(309.299911 0)"/>
      <use xlink:href="#IBMPlexSans-65" transform="translate(386.099899 0)"/>
      <use xlink:href="#IBMPlexSans-69" transform="translate(440.999893 0)"/>
      <use xlink:href="#IBMPlexSans-67" transform="translate(465.999878 0)"/>
      <use xlink:href="#IBMPlexSans-68" transform="translate(518.799866 0)"/>
      <use xlink:href="#IBMPlexSans-74" transform="translate(575.599854 0)"/>
     </g>
    </g>
   </g>
   <g id="line2d_27">
    <path d="M 57.472253 39.983183 
L 64.633145 39.983283 
L 71.794037 39.985743 
L 78.954928 40.00875 
L 86.11582 40.135327 
L 93.276711 40.633231 
L 100.437603 42.170746 
L 107.598495 46.03815 
L 114.759386 53.964521 
L 121.920278 67.060734 
L 129.081169 84.70563 
L 136.242061 104.942321 
L 143.402953 125.757236 
L 150.563844 145.760222 
L 157.724736 164.186416 
L 164.885628 180.685862 
L 172.046519 195.142868 
L 179.207411 207.572378 
L 186.368302 218.071424 
L 193.529194 226.795366 
L 200.690086 233.940087 
L 207.850977 239.723602 
L 215.011869 244.36781 
L 222.17276 248.083182 
L 229.333652 251.058306 
L 236.494544 253.454583 
L 243.655435 255.405098 
L 250.816327 257.016279 
L 257.977218 258.371062 
L 265.13811 259.532578 
L 272.299002 260.547827 
L 279.459893 261.451003 
L 286.620785 262.266388 
L 293.781677 263.010773 
L 300.942568 263.69546 
L 308.10346 264.327861 
L 315.264351 264.912762 
L 322.425243 265.45329 
L 329.586135 265.951614 
L 336.747026 266.409448 
L 343.907918 266.828367 
L 351.068809 267.210004 
L 358.229701 267.556138 
L 365.390593 267.868719 
L 372.551484 268.149849 
L 379.712376 268.40174 
L 386.873267 268.626664 
L 394.034159 268.826897 
L 401.195051 269.004673 
L 408.355942 269.162147 
L 415.516834 269.301365 
L 422.677726 269.424243 
L 429.838617 269.532553 
L 436.999509 269.627925 
L 444.1604 269.711835 
L 451.321292 269.785621 
L 458.482184 269.85048 
L 465.643075 269.907485 
L 472.803967 269.957585 
L 479.964858 270.001624 
L 487.12575 270.040348 
L 494.286642 270.074411 
L 501.447533 270.10439 
" clip-path="url(#p7c22355edf)" style="fill: none; stroke-dasharray: 1.5,2.475; stroke-dashoffset: 0; stroke: #d62728; stroke-width: 1.5"/>
   </g>
   <g id="patch_7">
    <path d="M 45.8 274.94952 
L 45.8 35.376 
" style="fill: none; stroke: #000000; stroke-width: 0.8; stroke-linejoin: miter; stroke-linecap: square"/>
   </g>
   <g id="patch_8">
    <path d="M 505.958895 274.94952 
L 505.958895 35.376 
" style="fill: none; stroke: #ff0000; stroke-width: 0.8; stroke-linejoin: miter; stroke-linecap: square"/>
   </g>
   <g id="patch_9">
    <path d="M 45.8 274.94952 
L 505.958895 274.94952 
" style="fill: none; stroke: #000000; stroke-width: 0.8; stroke-linejoin: miter; stroke-linecap: square"/>
   </g>
  </g>
 </g>
 <defs>
  <clipPath id="p7c22355edf">
   <rect x="45.8" y="35.376" width="460.158895" height="239.57352"/>
  </clipPath>
 </defs>
</svg>