<?xml version="1.0" encoding="utf-8" standalone="no"?>
<!DOCTYPE svg PUBLIC "-//W3C//DTD SVG 1.1//EN"
  "http://www.w3.org/Graphics/SVG/1.1/DTD/svg11.dtd">
<svg xmlns:xlink="http://www.w3.org/1999/xlink" width="548.39952pt" height="312.149519pt" viewBox="0 0 548.39952 312.149519" xmlns="http://www.w3.org/2000/svg" version="1.1">
 <metadata>
  <rdf:RDF xmlns:dc="http://purl.org/dc/elements/1.1/" xmlns:cc="http://creativecommons.org/ns#" xmlns:rdf="http://www.w3.org/1999/02/22-rdf-syntax-ns#">
   <cc:Work>
    <dc:type rdf:resource="http://purl.org/dc/dcmitype/StillImage"/>
    <dc:date>2026-01-27T08:27:14.049276</dc:date>
    <dc:format>image/svg+xml</dc:format>
    <dc:creator>
     <cc:Agent>
      <dc:title>Matplotlib v3.10.7, https://matplotlib.org/</dc:title>
     </cc:Agent>
    </dc:creator>
   </cc:Work>
  </rdf:RDF>
 </metadata>
 <defs>
  <style type="text/css">*{stroke-linejoin: round; stroke-linecap: butt}</style>
 </defs>
 <g id="figure_1">
  <g id="patch_1">
   <path d="M 0 312.149519 
L 548.39952 312.149519 
L 548.39952 0 
L 0 0 
z
" style="fill: #ffffff"/>
  </g>
  <g id="axes_1">
   <g id="patch_2">
    <path d="M 54.640625 129.816419 
L 275.719832 129.816419 
L 275.719832 10.7838 
L 54.640625 10.7838 
z
" style="fill: #ffffff"/>
   </g>
   <g id="matplotlib.axis_1">
    <g id="xtick_1">
     <g id="line2d_1">
      <defs>
       <path id="m487055f843" d="M 0 0 
L 0 3.5 
" style="stroke: #000000; stroke-width: 0.8"/>
      </defs>
      <g>
       <use xlink:href="#m487055f843" x="63.67631" y="129.816419" style="stroke: #000000; stroke-width: 0.8"/>
      </g>
     </g>
     <g id="text_1">
      <!-- $\mathdefault{10^{-2}}$ -->
      <g transform="translate(53.27631 144.216419) scale(0.1 -0.1)">
       <defs>
        <path id="IBMPlexSans-31" d="M 3501 0 
L 3501 474 
L 2349 474 
L 2349 4467 
L 1510 4467 
L 326 3360 
L 640 3021 
L 1766 4070 
L 1811 4070 
L 1811 474 
L 563 474 
L 563 0 
L 3501 0 
z
" transform="scale(0.015625)"/>
        <path id="IBMPlexSans-30" d="M 1920 -77 
C 2989 -77 3456 774 3456 2234 
C 3456 3693 2989 4544 1920 4544 
C 851 4544 384 3693 384 2234 
C 384 774 851 -77 1920 -77 
z
M 1920 390 
C 1222 390 947 1005 947 1869 
L 947 2598 
C 947 3462 1222 4077 1920 4077 
C 2618 4077 2893 3462 2893 2598 
L 2893 1869 
C 2893 1005 2618 390 1920 390 
z
" transform="scale(0.015625)"/>
        <path id="IBMPlexSans-2212" d="M 3411 1734 
L 3411 2170 
L 429 2170 
L 429 1734 
L 3411 1734 
z
" transform="scale(0.015625)"/>
        <path id="IBMPlexSans-32" d="M 3411 474 
L 1062 474 
L 2266 1555 
C 2835 2067 3245 2554 3245 3245 
C 3245 4006 2746 4544 1875 4544 
C 1011 4544 614 4019 442 3494 
L 922 3309 
C 1043 3731 1299 4064 1850 4064 
C 2400 4064 2675 3725 2675 3232 
L 2675 3155 
C 2675 2726 2355 2278 1939 1894 
L 480 550 
L 480 0 
L 3411 0 
L 3411 474 
z
" transform="scale(0.015625)"/>
       </defs>
       <use xlink:href="#IBMPlexSans-31" transform="translate(0 0.184375)"/>
       <use xlink:href="#IBMPlexSans-30" transform="translate(59.999985 0.184375)"/>
       <use xlink:href="#IBMPlexSans-2212" transform="translate(120.90286 36.3) scale(0.7)"/>
       <use xlink:href="#IBMPlexSans-32" transform="translate(162.902849 36.3) scale(0.7)"/>
      </g>
     </g>
    </g>
    <g id="xtick_2">
     <g id="line2d_2">
      <g>
       <use xlink:href="#m487055f843" x="165.106684" y="129.816419" style="stroke: #000000; stroke-width: 0.8"/>
      </g>
     </g>
     <g id="text_2">
      <!-- $\mathdefault{10^{-1}}$ -->
      <g transform="translate(154.706684 144.216419) scale(0.1 -0.1)">
       <use xlink:href="#IBMPlexSans-31" transform="translate(0 0.026563)"/>
       <use xlink:href="#IBMPlexSans-30" transform="translate(59.999985 0.026563)"/>
       <use xlink:href="#IBMPlexSans-2212" transform="translate(120.90286 36.142188) scale(0.7)"/>
       <use xlink:href="#IBMPlexSans-31" transform="translate(162.902849 36.142188) scale(0.7)"/>
      </g>
     </g>
    </g>
    <g id="xtick_3">
     <g id="line2d_3">
      <g>
       <use xlink:href="#m487055f843" x="266.537058" y="129.816419" style="stroke: #000000; stroke-width: 0.8"/>
      </g>
     </g>
     <g id="text_3">
      <!-- $\mathdefault{10^{0}}$ -->
      <g transform="translate(258.237058 144.216419) scale(0.1 -0.1)">
       <use xlink:href="#IBMPlexSans-31" transform="translate(0 0.184375)"/>
       <use xlink:href="#IBMPlexSans-30" transform="translate(59.999985 0.184375)"/>
       <use xlink:href="#IBMPlexSans-30" transform="translate(120.90286 36.3) scale(0.7)"/>
      </g>
     </g>
    </g>
    <g id="xtick_4">
     <g id="line2d_4">
      <defs>
       <path id="m73e0556dc8" d="M 0 0 
L 0 2 
" style="stroke: #000000; stroke-width: 0.6"/>
      </defs>
      <g>
       <use xlink:href="#m73e0556dc8" x="59.035111" y="129.816419" style="stroke: #000000; stroke-width: 0.6"/>
      </g>
     </g>
    </g>
    <g id="xtick_5">
     <g id="line2d_5">
      <g>
       <use xlink:href="#m73e0556dc8" x="94.209895" y="129.816419" style="stroke: #000000; stroke-width: 0.6"/>
      </g>
     </g>
    </g>
    <g id="xtick_6">
     <g id="line2d_6">
      <g>
       <use xlink:href="#m73e0556dc8" x="112.070898" y="129.816419" style="stroke: #000000; stroke-width: 0.6"/>
      </g>
     </g>
    </g>
    <g id="xtick_7">
     <g id="line2d_7">
      <g>
       <use xlink:href="#m73e0556dc8" x="124.74348" y="129.816419" style="stroke: #000000; stroke-width: 0.6"/>
      </g>
     </g>
    </g>
    <g id="xtick_8">
     <g id="line2d_8">
      <g>
       <use xlink:href="#m73e0556dc8" x="134.573099" y="129.816419" style="stroke: #000000; stroke-width: 0.6"/>
      </g>
     </g>
    </g>
    <g id="xtick_9">
     <g id="line2d_9">
      <g>
       <use xlink:href="#m73e0556dc8" x="142.604482" y="129.816419" style="stroke: #000000; stroke-width: 0.6"/>
      </g>
     </g>
    </g>
    <g id="xtick_10">
     <g id="line2d_10">
      <g>
       <use xlink:href="#m73e0556dc8" x="149.39492" y="129.816419" style="stroke: #000000; stroke-width: 0.6"/>
      </g>
     </g>
    </g>
    <g id="xtick_11">
     <g id="line2d_11">
      <g>
       <use xlink:href="#m73e0556dc8" x="155.277065" y="129.816419" style="stroke: #000000; stroke-width: 0.6"/>
      </g>
     </g>
    </g>
    <g id="xtick_12">
     <g id="line2d_12">
      <g>
       <use xlink:href="#m73e0556dc8" x="160.465485" y="129.816419" style="stroke: #000000; stroke-width: 0.6"/>
      </g>
     </g>
    </g>
    <g id="xtick_13">
     <g id="line2d_13">
      <g>
       <use xlink:href="#m73e0556dc8" x="195.640269" y="129.816419" style="stroke: #000000; stroke-width: 0.6"/>
      </g>
     </g>
    </g>
    <g id="xtick_14">
     <g id="line2d_14">
      <g>
       <use xlink:href="#m73e0556dc8" x="213.501271" y="129.816419" style="stroke: #000000; stroke-width: 0.6"/>
      </g>
     </g>
    </g>
    <g id="xtick_15">
     <g id="line2d_15">
      <g>
       <use xlink:href="#m73e0556dc8" x="226.173854" y="129.816419" style="stroke: #000000; stroke-width: 0.6"/>
      </g>
     </g>
    </g>
    <g id="xtick_16">
     <g id="line2d_16">
      <g>
       <use xlink:href="#m73e0556dc8" x="236.003473" y="129.816419" style="stroke: #000000; stroke-width: 0.6"/>
      </g>
     </g>
    </g>
    <g id="xtick_17">
     <g id="line2d_17">
      <g>
       <use xlink:href="#m73e0556dc8" x="244.034856" y="129.816419" style="stroke: #000000; stroke-width: 0.6"/>
      </g>
     </g>
    </g>
    <g id="xtick_18">
     <g id="line2d_18">
      <g>
       <use xlink:href="#m73e0556dc8" x="250.825294" y="129.816419" style="stroke: #000000; stroke-width: 0.6"/>
      </g>
     </g>
    </g>
    <g id="xtick_19">
     <g id="line2d_19">
      <g>
       <use xlink:href="#m73e0556dc8" x="256.707439" y="129.816419" style="stroke: #000000; stroke-width: 0.6"/>
      </g>
     </g>
    </g>
    <g id="xtick_20">
     <g id="line2d_20">
      <g>
       <use xlink:href="#m73e0556dc8" x="261.895858" y="129.816419" style="stroke: #000000; stroke-width: 0.6"/>
      </g>
     </g>
    </g>
   </g>
   <g id="matplotlib.axis_2">
    <g id="ytick_1">
     <g id="line2d_21">
      <defs>
       <path id="m7f77e65294" d="M 0 0 
L -3.5 0 
" style="stroke: #000000; stroke-width: 0.8"/>
      </defs>
      <g>
       <use xlink:href="#m7f77e65294" x="54.640625" y="124.405846" style="stroke: #000000; stroke-width: 0.8"/>
      </g>
     </g>
     <g id="text_4">
      <!-- 0.000 -->
      <g transform="translate(20.920313 128.105846) scale(0.1 -0.1)">
       <defs>
        <path id="IBMPlexSans-2e" d="M 870 -77 
C 1139 -77 1261 77 1261 294 
L 1261 378 
C 1261 595 1139 749 870 749 
C 602 749 480 595 480 378 
L 480 294 
C 480 77 602 -77 870 -77 
z
" transform="scale(0.015625)"/>
       </defs>
       <use xlink:href="#IBMPlexSans-30"/>
       <use xlink:href="#IBMPlexSans-2e" transform="translate(59.999985 0)"/>
       <use xlink:href="#IBMPlexSans-30" transform="translate(87.199982 0)"/>
       <use xlink:href="#IBMPlexSans-30" transform="translate(147.199966 0)"/>
       <use xlink:href="#IBMPlexSans-30" transform="translate(207.199951 0)"/>
      </g>
     </g>
    </g>
    <g id="ytick_2">
     <g id="line2d_22">
      <g>
       <use xlink:href="#m7f77e65294" x="54.640625" y="96.029384" style="stroke: #000000; stroke-width: 0.8"/>
      </g>
     </g>
     <g id="text_5">
      <!-- 0.025 -->
      <g transform="translate(20.920313 99.729384) scale(0.1 -0.1)">
       <defs>
        <path id="IBMPlexSans-35" d="M 3187 4467 
L 794 4467 
L 634 2010 
L 1088 1946 
C 1274 2150 1478 2323 1888 2323 
C 2496 2323 2822 1984 2822 1395 
L 2822 1331 
C 2822 742 2496 403 1888 403 
C 1350 403 1126 640 896 992 
L 493 685 
C 762 301 1146 -77 1888 -77 
C 2829 -77 3392 531 3392 1402 
C 3392 2266 2829 2784 2061 2784 
C 1594 2784 1357 2592 1146 2291 
L 1101 2291 
L 1229 3994 
L 3187 3994 
L 3187 4467 
z
" transform="scale(0.015625)"/>
       </defs>
       <use xlink:href="#IBMPlexSans-30"/>
       <use xlink:href="#IBMPlexSans-2e" transform="translate(59.999985 0)"/>
       <use xlink:href="#IBMPlexSans-30" transform="translate(87.199982 0)"/>
       <use xlink:href="#IBMPlexSans-32" transform="translate(147.199966 0)"/>
       <use xlink:href="#IBMPlexSans-35" transform="translate(207.199951 0)"/>
      </g>
     </g>
    </g>
    <g id="ytick_3">
     <g id="line2d_23">
      <g>
       <use xlink:href="#m7f77e65294" x="54.640625" y="67.652923" style="stroke: #000000; stroke-width: 0.8"/>
      </g>
     </g>
     <g id="text_6">
      <!-- 0.050 -->
      <g transform="translate(20.920313 71.352923) scale(0.1 -0.1)">
       <use xlink:href="#IBMPlexSans-30"/>
       <use xlink:href="#IBMPlexSans-2e" transform="translate(59.999985 0)"/>
       <use xlink:href="#IBMPlexSans-30" transform="translate(87.199982 0)"/>
       <use xlink:href="#IBMPlexSans-35" transform="translate(147.199966 0)"/>
       <use xlink:href="#IBMPlexSans-30" transform="translate(207.199951 0)"/>
      </g>
     </g>
    </g>
    <g id="ytick_4">
     <g id="line2d_24">
      <g>
       <use xlink:href="#m7f77e65294" x="54.640625" y="39.276461" style="stroke: #000000; stroke-width: 0.8"/>
      </g>
     </g>
     <g id="text_7">
      <!-- 0.075 -->
      <g transform="translate(20.920313 42.976461) scale(0.1 -0.1)">
       <defs>
        <path id="IBMPlexSans-37" d="M 1696 0 
L 3373 3994 
L 3373 4467 
L 442 4467 
L 442 3174 
L 922 3174 
L 922 4006 
L 2829 4006 
L 1120 0 
L 1696 0 
z
" transform="scale(0.015625)"/>
       </defs>
       <use xlink:href="#IBMPlexSans-30"/>
       <use xlink:href="#IBMPlexSans-2e" transform="translate(59.999985 0)"/>
       <use xlink:href="#IBMPlexSans-30" transform="translate(87.199982 0)"/>
       <use xlink:href="#IBMPlexSans-37" transform="translate(147.199966 0)"/>
       <use xlink:href="#IBMPlexSans-35" transform="translate(207.199951 0)"/>
      </g>
     </g>
    </g>
    <g id="ytick_5">
     <g id="line2d_25">
      <g>
       <use xlink:href="#m7f77e65294" x="54.640625" y="10.9" style="stroke: #000000; stroke-width: 0.8"/>
      </g>
     </g>
     <g id="text_8">
      <!-- 0.100 -->
      <g transform="translate(20.920313 14.6) scale(0.1 -0.1)">
       <use xlink:href="#IBMPlexSans-30"/>
       <use xlink:href="#IBMPlexSans-2e" transform="translate(59.999985 0)"/>
       <use xlink:href="#IBMPlexSans-31" transform="translate(87.199982 0)"/>
       <use xlink:href="#IBMPlexSans-30" transform="translate(147.199966 0)"/>
       <use xlink:href="#IBMPlexSans-30" transform="translate(207.199951 0)"/>
      </g>
     </g>
    </g>
    <g id="text_9">
     <!-- cv2l(125%) weight -->
     <g transform="translate(14.8 112.869641) rotate(-90) scale(0.1 -0.1)">
      <defs>
       <path id="IBMPlexSans-63" d="M 1773 -77 
C 2400 -77 2829 230 3040 704 
L 2669 954 
C 2490 576 2189 378 1773 378 
C 1165 378 851 794 851 1370 
L 851 1933 
C 851 2509 1165 2925 1773 2925 
C 2176 2925 2458 2726 2579 2387 
L 3008 2605 
C 2816 3059 2426 3379 1773 3379 
C 845 3379 301 2707 301 1651 
C 301 595 845 -77 1773 -77 
z
" transform="scale(0.015625)"/>
       <path id="IBMPlexSans-76" d="M 1869 0 
L 3034 3302 
L 2541 3302 
L 1952 1664 
L 1594 538 
L 1562 538 
L 1203 1664 
L 627 3302 
L 115 3302 
L 1274 0 
L 1869 0 
z
" transform="scale(0.015625)"/>
       <path id="IBMPlexSans-6c" d="M 1542 0 
L 1542 448 
L 1056 448 
L 1056 4736 
L 544 4736 
L 544 531 
C 544 224 736 0 1088 0 
L 1542 0 
z
" transform="scale(0.015625)"/>
       <path id="IBMPlexSans-28" d="M 531 1997 
C 531 749 1056 -339 1690 -877 
L 2176 -877 
C 1485 -262 1011 819 1011 1715 
L 1011 2266 
C 1011 3162 1466 4224 2176 4864 
L 1690 4864 
C 1037 4307 531 3232 531 1997 
z
" transform="scale(0.015625)"/>
       <path id="IBMPlexSans-25" d="M 1664 0 
L 4762 4467 
L 4269 4467 
L 1171 0 
L 1664 0 
z
M 1427 2010 
C 2074 2010 2438 2458 2438 3277 
C 2438 4096 2074 4544 1427 4544 
C 781 4544 416 4096 416 3277 
C 416 2458 781 2010 1427 2010 
z
M 1427 2342 
C 1056 2342 877 2598 877 3085 
L 877 3469 
C 877 3955 1056 4211 1427 4211 
C 1798 4211 1978 3955 1978 3469 
L 1978 3085 
C 1978 2598 1798 2342 1427 2342 
z
M 4506 -77 
C 5152 -77 5517 371 5517 1190 
C 5517 2010 5152 2458 4506 2458 
C 3859 2458 3494 2010 3494 1190 
C 3494 371 3859 -77 4506 -77 
z
M 4506 256 
C 4134 256 3955 512 3955 998 
L 3955 1382 
C 3955 1869 4134 2125 4506 2125 
C 4877 2125 5056 1869 5056 1382 
L 5056 998 
C 5056 512 4877 256 4506 256 
z
" transform="scale(0.015625)"/>
       <path id="IBMPlexSans-29" d="M 1613 1997 
C 1613 3232 1107 4307 454 4864 
L -32 4864 
C 678 4224 1133 3162 1133 2266 
L 1133 1715 
C 1133 819 659 -262 -32 -877 
L 454 -877 
C 1088 -339 1613 749 1613 1997 
z
" transform="scale(0.015625)"/>
       <path id="IBMPlexSans-20" transform="scale(0.015625)"/>
       <path id="IBMPlexSans-77" d="M 1082 0 
L 1702 0 
L 2163 1587 
L 2445 2592 
L 2458 2592 
L 2746 1587 
L 3206 0 
L 3840 0 
L 4717 3302 
L 4237 3302 
L 3878 1875 
L 3539 429 
L 3526 429 
L 3117 1875 
L 2688 3302 
L 2234 3302 
L 1818 1875 
L 1414 429 
L 1402 429 
L 1050 1875 
L 698 3302 
L 198 3302 
L 1082 0 
z
" transform="scale(0.015625)"/>
       <path id="IBMPlexSans-65" d="M 1786 -77 
C 2406 -77 2880 230 3091 678 
L 2726 941 
C 2554 576 2234 371 1818 371 
C 1203 371 838 800 838 1370 
L 838 1523 
L 3213 1523 
L 3213 1766 
C 3213 2701 2669 3379 1786 3379 
C 890 3379 301 2701 301 1651 
C 301 602 890 -77 1786 -77 
z
M 1786 2950 
C 2310 2950 2662 2560 2662 1978 
L 2662 1907 
L 838 1907 
L 838 1952 
C 838 2528 1229 2950 1786 2950 
z
" transform="scale(0.015625)"/>
       <path id="IBMPlexSans-69" d="M 800 4077 
C 1018 4077 1114 4192 1114 4365 
L 1114 4448 
C 1114 4621 1018 4736 800 4736 
C 582 4736 486 4621 486 4448 
L 486 4365 
C 486 4192 582 4077 800 4077 
z
M 544 0 
L 1056 0 
L 1056 3302 
L 544 3302 
L 544 0 
z
" transform="scale(0.015625)"/>
       <path id="IBMPlexSans-67" d="M 3328 -365 
C 3328 179 2976 512 2157 512 
L 1453 512 
C 1152 512 947 563 947 762 
C 947 966 1165 1075 1382 1133 
C 1478 1114 1594 1101 1702 1101 
C 2458 1101 2950 1568 2950 2240 
C 2950 2592 2810 2886 2573 3091 
L 2573 3302 
L 3200 3302 
L 3200 3750 
L 2707 3750 
C 2432 3750 2323 3565 2323 3309 
L 2323 3251 
C 2144 3334 1933 3379 1696 3379 
C 947 3379 454 2912 454 2240 
C 454 1779 685 1414 1075 1229 
L 1075 1203 
C 742 1120 506 960 506 627 
C 506 403 614 256 800 166 
L 800 96 
C 474 6 275 -186 275 -544 
C 275 -1062 698 -1357 1728 -1357 
C 2790 -1357 3328 -1043 3328 -365 
z
M 2848 -403 
C 2848 -762 2515 -941 1946 -941 
L 1472 -941 
C 954 -941 755 -704 755 -416 
C 755 -211 851 -64 1062 32 
L 2163 32 
C 2675 32 2848 -141 2848 -403 
z
M 1702 1510 
C 1267 1510 992 1715 992 2150 
L 992 2330 
C 992 2765 1267 2970 1702 2970 
C 2138 2970 2413 2765 2413 2330 
L 2413 2150 
C 2413 1715 2138 1510 1702 1510 
z
" transform="scale(0.015625)"/>
       <path id="IBMPlexSans-68" d="M 544 0 
L 1056 0 
L 1056 2291 
C 1056 2714 1453 2918 1862 2918 
C 2355 2918 2611 2618 2611 2029 
L 2611 0 
L 3123 0 
L 3123 2118 
C 3123 2918 2694 3379 2016 3379 
C 1523 3379 1242 3136 1082 2765 
L 1056 2765 
L 1056 4736 
L 544 4736 
L 544 0 
z
" transform="scale(0.015625)"/>
       <path id="IBMPlexSans-74" d="M 1914 0 
L 1914 448 
L 1242 448 
L 1242 2854 
L 1965 2854 
L 1965 3302 
L 1242 3302 
L 1242 4218 
L 781 4218 
L 781 3603 
C 781 3379 710 3302 493 3302 
L 186 3302 
L 186 2854 
L 730 2854 
L 730 544 
C 730 224 922 0 1274 0 
L 1914 0 
z
" transform="scale(0.015625)"/>
      </defs>
      <use xlink:href="#IBMPlexSans-63"/>
      <use xlink:href="#IBMPlexSans-76" transform="translate(50.299988 0)"/>
      <use xlink:href="#IBMPlexSans-32" transform="translate(99.499985 0)"/>
      <use xlink:href="#IBMPlexSans-6c" transform="translate(159.499969 0)"/>
      <use xlink:href="#IBMPlexSans-28" transform="translate(186.699966 0)"/>
      <use xlink:href="#IBMPlexSans-31" transform="translate(220.199951 0)"/>
      <use xlink:href="#IBMPlexSans-32" transform="translate(280.199936 0)"/>
      <use xlink:href="#IBMPlexSans-35" transform="translate(340.199921 0)"/>
      <use xlink:href="#IBMPlexSans-25" transform="translate(400.199905 0)"/>
      <use xlink:href="#IBMPlexSans-29" transform="translate(492.899887 0)"/>
      <use xlink:href="#IBMPlexSans-20" transform="translate(526.399872 0)"/>
      <use xlink:href="#IBMPlexSans-77" transform="translate(549.999863 0)"/>
      <use xlink:href="#IBMPlexSans-65" transform="translate(626.79985 0)"/>
      <use xlink:href="#IBMPlexSans-69" transform="translate(681.699844 0)"/>
      <use xlink:href="#IBMPlexSans-67" transform="translate(706.699829 0)"/>
      <use xlink:href="#IBMPlexSans-68" transform="translate(759.499817 0)"/>
      <use xlink:href="#IBMPlexSans-74" transform="translate(816.299805 0)"/>
     </g>
    </g>
   </g>
   <g id="line2d_26">
    <path d="M 64.68968 124.034076 
L 67.442846 123.978101 
L 70.196011 123.92707 
L 72.949177 123.866966 
L 75.702343 123.793736 
L 78.455508 123.701011 
L 81.208674 123.591971 
L 83.96184 123.492498 
L 86.715006 123.428089 
L 89.468171 123.400984 
L 92.221337 123.368383 
L 94.974503 123.289487 
L 97.727669 123.148084 
L 100.480834 122.96351 
L 103.234 122.7508 
L 105.987166 122.534257 
L 108.740331 122.32694 
L 111.493497 122.115747 
L 114.246663 121.866306 
L 116.999829 121.540987 
L 119.752994 121.121045 
L 122.50616 120.596796 
L 125.259326 120.034998 
L 128.012491 119.568872 
L 130.765657 119.20718 
L 133.518823 118.9967 
L 136.271989 118.787012 
L 139.025154 118.397491 
L 141.77832 117.499261 
L 144.531486 116.33478 
L 147.284652 114.737816 
L 150.037817 113.161147 
L 152.790983 111.599118 
L 155.544149 109.995162 
L 158.297314 108.096913 
L 161.05048 105.677405 
L 163.803646 102.725986 
L 166.556812 99.23501 
L 169.309977 95.423432 
L 172.063143 91.354018 
L 174.816309 86.869469 
L 177.569475 81.683081 
L 180.32264 75.384915 
L 183.075806 67.2844 
L 185.828972 56.93747 
L 188.582137 44.450165 
L 191.335303 30.961221 
L 194.088469 19.809092 
L 196.841635 16.194374 
L 199.5948 27.643204 
L 202.347966 54.244107 
L 205.101132 86.773899 
L 207.854297 109.857499 
L 210.607463 120.326286 
L 213.360629 123.45036 
L 216.113795 124.19845 
L 218.86696 124.357103 
L 221.620126 124.392301 
L 224.373292 124.401615 
L 227.126458 124.404572 
L 229.879623 124.405505 
L 232.632789 124.40577 
L 235.385955 124.405831 
L 238.13912 124.405843 
L 240.892286 124.405845 
L 243.645452 124.405846 
L 246.398618 124.405846 
L 249.151783 124.405846 
L 251.904949 124.405846 
L 254.658115 124.405846 
L 257.41128 124.405846 
L 260.164446 124.405846 
L 262.917612 124.405846 
L 265.670778 124.405846 
" clip-path="url(#p2568bafd6e)" style="fill: none; stroke: #ff7f0e; stroke-width: 1.5; stroke-linecap: square"/>
   </g>
   <g id="patch_3">
    <path d="M 54.640625 129.816419 
L 54.640625 10.7838 
" style="fill: none; stroke: #000000; stroke-width: 0.8; stroke-linejoin: miter; stroke-linecap: square"/>
   </g>
   <g id="patch_4">
    <path d="M 54.640625 129.816419 
L 275.719832 129.816419 
" style="fill: none; stroke: #000000; stroke-width: 0.8; stroke-linejoin: miter; stroke-linecap: square"/>
   </g>
  </g>
  <g id="axes_2">
   <g id="patch_5">
    <path d="M 320.120312 129.816419 
L 541.19952 129.816419 
L 541.19952 10.7838 
L 320.120312 10.7838 
z
" style="fill: #ffffff"/>
   </g>
   <g id="FillBetweenPolyCollection_1">
    <defs>
     <path id="md51cae9220" d="M 330.169367 -295.955145 
L 330.169367 -187.743673 
L 332.922533 -190.652947 
L 335.675699 -193.279738 
L 338.428865 -195.60024 
L 341.18203 -197.793629 
L 343.935196 -200.139313 
L 346.688362 -202.482152 
L 349.441527 -204.881126 
L 352.194693 -207.300092 
L 354.947859 -209.666158 
L 357.701025 -212.188233 
L 360.45419 -214.820406 
L 363.207356 -217.489341 
L 365.960522 -220.087944 
L 368.713687 -222.456339 
L 371.466853 -224.565618 
L 374.220019 -226.348988 
L 376.973185 -227.882061 
L 379.72635 -229.259539 
L 382.479516 -230.582768 
L 385.232682 -231.899928 
L 387.985848 -233.164375 
L 390.739013 -234.260968 
L 393.492179 -235.13034 
L 396.245345 -235.727353 
L 398.99851 -236.070609 
L 401.751676 -236.170428 
L 404.504842 -236.099695 
L 407.258008 -235.99894 
L 410.011173 -235.86978 
L 412.764339 -235.777002 
L 415.517505 -235.7673 
L 418.27067 -235.775025 
L 421.023836 -235.813613 
L 423.777002 -235.812393 
L 426.530168 -235.772841 
L 429.283333 -235.739242 
L 432.036499 -235.706166 
L 434.789665 -235.69329 
L 437.542831 -235.715509 
L 440.295996 -235.739529 
L 443.049162 -235.747922 
L 445.802328 -235.780242 
L 448.555493 -235.827248 
L 451.308659 -235.917475 
L 454.061825 -236.046046 
L 456.814991 -236.197962 
L 459.568156 -236.349847 
L 462.321322 -236.464365 
L 465.074488 -236.513938 
L 467.827654 -236.425176 
L 470.580819 -236.192029 
L 473.333985 -235.821029 
L 476.087151 -235.313747 
L 478.840316 -234.673789 
L 481.593482 -233.892116 
L 484.346648 -232.998404 
L 487.099814 -232.028141 
L 489.852979 -230.972701 
L 492.606145 -229.88972 
L 495.359311 -228.795005 
L 498.112476 -227.707328 
L 500.865642 -226.618778 
L 503.618808 -225.499903 
L 506.371974 -224.326855 
L 509.125139 -223.101965 
L 511.878305 -221.823395 
L 514.631471 -220.529457 
L 517.384637 -219.28689 
L 520.137802 -218.13747 
L 522.890968 -217.123307 
L 525.644134 -216.257008 
L 528.397299 -215.545345 
L 531.150465 -214.994401 
L 531.150465 -224.787474 
L 531.150465 -224.787474 
L 528.397299 -225.654957 
L 525.644134 -226.696378 
L 522.890968 -227.906259 
L 520.137802 -229.278497 
L 517.384637 -230.801155 
L 514.631471 -232.432101 
L 511.878305 -234.12978 
L 509.125139 -235.826227 
L 506.371974 -237.482978 
L 503.618808 -239.101996 
L 500.865642 -240.681273 
L 498.112476 -242.245063 
L 495.359311 -243.824765 
L 492.606145 -245.42869 
L 489.852979 -247.038875 
L 487.099814 -248.639953 
L 484.346648 -250.173165 
L 481.593482 -251.648566 
L 478.840316 -253.029037 
L 476.087151 -254.284584 
L 473.333985 -255.425164 
L 470.580819 -256.446828 
L 467.827654 -257.347983 
L 465.074488 -258.122852 
L 462.321322 -258.775542 
L 459.568156 -259.384619 
L 456.814991 -259.976726 
L 454.061825 -260.594171 
L 451.308659 -261.258925 
L 448.555493 -261.990158 
L 445.802328 -262.794849 
L 443.049162 -263.642614 
L 440.295996 -264.546639 
L 437.542831 -265.465375 
L 434.789665 -266.418477 
L 432.036499 -267.44047 
L 429.283333 -268.521044 
L 426.530168 -269.638702 
L 423.777002 -270.802269 
L 421.023836 -271.968452 
L 418.27067 -273.128624 
L 415.517505 -274.367978 
L 412.764339 -275.667899 
L 410.011173 -277.109092 
L 407.258008 -278.639 
L 404.504842 -280.190082 
L 401.751676 -281.774097 
L 398.99851 -283.240635 
L 396.245345 -284.504157 
L 393.492179 -285.553083 
L 390.739013 -286.38376 
L 387.985848 -287.011484 
L 385.232682 -287.53324 
L 382.479516 -288.055514 
L 379.72635 -288.64829 
L 376.973185 -289.246571 
L 374.220019 -289.779228 
L 371.466853 -290.107509 
L 368.713687 -290.138356 
L 365.960522 -289.994426 
L 363.207356 -289.64767 
L 360.45419 -289.306352 
L 357.701025 -289.095457 
L 354.947859 -289.109974 
L 352.194693 -289.379783 
L 349.441527 -289.748055 
L 346.688362 -290.224819 
L 343.935196 -290.907237 
L 341.18203 -291.721577 
L 338.428865 -292.890352 
L 335.675699 -294.089374 
L 332.922533 -295.127741 
L 330.169367 -295.955145 
z
"/>
    </defs>
    <g clip-path="url(#peedfa5a4de)">
     <use xlink:href="#md51cae9220" x="0" y="312.149519" style="fill: #d62728; fill-opacity: 0.3"/>
    </g>
   </g>
   <g id="PathCollection_1">
    <defs>
     <path id="C0_0_70683579bf" d="M 0 2.738613 
C 0.726289 2.738613 1.422928 2.450055 1.936492 1.936492 
C 2.450055 1.422928 2.738613 0.726289 2.738613 -0 
C 2.738613 -0.726289 2.450055 -1.422928 1.936492 -1.936492 
C 1.422928 -2.450055 0.726289 -2.738613 0 -2.738613 
C -0.726289 -2.738613 -1.422928 -2.450055 -1.936492 -1.936492 
C -2.450055 -1.422928 -2.738613 -0.726289 -2.738613 0 
C -2.738613 0.726289 -2.450055 1.422928 -1.936492 1.936492 
C -1.422928 2.450055 -0.726289 2.738613 0 2.738613 
z
"/>
    </defs>
    <g clip-path="url(#peedfa5a4de)">
     <use xlink:href="#C0_0_70683579bf" x="360.45419" y="60.08614" style="fill: #fefefe"/>
    </g>
    <g clip-path="url(#peedfa5a4de)">
     <use xlink:href="#C0_0_70683579bf" x="363.207356" y="58.581014" style="fill: #fefefe"/>
    </g>
    <g clip-path="url(#peedfa5a4de)">
     <use xlink:href="#C0_0_70683579bf" x="365.960522" y="57.108333" style="fill: #fefefe"/>
    </g>
    <g clip-path="url(#peedfa5a4de)">
     <use xlink:href="#C0_0_70683579bf" x="368.713687" y="55.852171" style="fill: #fefefe"/>
    </g>
    <g clip-path="url(#peedfa5a4de)">
     <use xlink:href="#C0_0_70683579bf" x="371.466853" y="54.812956" style="fill: #fdfdfd"/>
    </g>
    <g clip-path="url(#peedfa5a4de)">
     <use xlink:href="#C0_0_70683579bf" x="374.220019" y="54.085411" style="fill: #fdfdfd"/>
    </g>
    <g clip-path="url(#peedfa5a4de)">
     <use xlink:href="#C0_0_70683579bf" x="376.973185" y="53.585203" style="fill: #fdfdfd"/>
    </g>
    <g clip-path="url(#peedfa5a4de)">
     <use xlink:href="#C0_0_70683579bf" x="379.72635" y="53.195604" style="fill: #fcfcfc"/>
    </g>
    <g clip-path="url(#peedfa5a4de)">
     <use xlink:href="#C0_0_70683579bf" x="382.479516" y="52.830378" style="fill: #fcfcfc"/>
    </g>
    <g clip-path="url(#peedfa5a4de)">
     <use xlink:href="#C0_0_70683579bf" x="385.232682" y="52.432935" style="fill: #fcfcfc"/>
    </g>
    <g clip-path="url(#peedfa5a4de)">
     <use xlink:href="#C0_0_70683579bf" x="387.985848" y="52.06159" style="fill: #fbfbfb"/>
    </g>
    <g clip-path="url(#peedfa5a4de)">
     <use xlink:href="#C0_0_70683579bf" x="390.739013" y="51.827155" style="fill: #fafafa"/>
    </g>
    <g clip-path="url(#peedfa5a4de)">
     <use xlink:href="#C0_0_70683579bf" x="393.492179" y="51.807808" style="fill: #fafafa"/>
    </g>
    <g clip-path="url(#peedfa5a4de)">
     <use xlink:href="#C0_0_70683579bf" x="396.245345" y="52.033764" style="fill: #f9f9f9"/>
    </g>
    <g clip-path="url(#peedfa5a4de)">
     <use xlink:href="#C0_0_70683579bf" x="398.99851" y="52.493897" style="fill: #f9f9f9"/>
    </g>
    <g clip-path="url(#peedfa5a4de)">
     <use xlink:href="#C0_0_70683579bf" x="401.751676" y="53.177256" style="fill: #f9f9f9"/>
    </g>
    <g clip-path="url(#peedfa5a4de)">
     <use xlink:href="#C0_0_70683579bf" x="404.504842" y="54.00463" style="fill: #f8f8f8"/>
    </g>
    <g clip-path="url(#peedfa5a4de)">
     <use xlink:href="#C0_0_70683579bf" x="407.258008" y="54.830549" style="fill: #f7f7f7"/>
    </g>
    <g clip-path="url(#peedfa5a4de)">
     <use xlink:href="#C0_0_70683579bf" x="410.011173" y="55.660083" style="fill: #f6f6f6"/>
    </g>
    <g clip-path="url(#peedfa5a4de)">
     <use xlink:href="#C0_0_70683579bf" x="412.764339" y="56.427069" style="fill: #f5f5f5"/>
    </g>
    <g clip-path="url(#peedfa5a4de)">
     <use xlink:href="#C0_0_70683579bf" x="415.517505" y="57.081879" style="fill: #f3f3f3"/>
    </g>
    <g clip-path="url(#peedfa5a4de)">
     <use xlink:href="#C0_0_70683579bf" x="418.27067" y="57.697694" style="fill: #f1f1f1"/>
    </g>
    <g clip-path="url(#peedfa5a4de)">
     <use xlink:href="#C0_0_70683579bf" x="421.023836" y="58.258486" style="fill: #eeeeee"/>
    </g>
    <g clip-path="url(#peedfa5a4de)">
     <use xlink:href="#C0_0_70683579bf" x="423.777002" y="58.842188" style="fill: #ececec"/>
    </g>
    <g clip-path="url(#peedfa5a4de)">
     <use xlink:href="#C0_0_70683579bf" x="426.530168" y="59.443747" style="fill: #e7e7e7"/>
    </g>
    <g clip-path="url(#peedfa5a4de)">
     <use xlink:href="#C0_0_70683579bf" x="429.283333" y="60.019376" style="fill: #e2e2e2"/>
    </g>
    <g clip-path="url(#peedfa5a4de)">
     <use xlink:href="#C0_0_70683579bf" x="432.036499" y="60.576201" style="fill: #dcdcdc"/>
    </g>
    <g clip-path="url(#peedfa5a4de)">
     <use xlink:href="#C0_0_70683579bf" x="434.789665" y="61.093635" style="fill: #d5d5d5"/>
    </g>
    <g clip-path="url(#peedfa5a4de)">
     <use xlink:href="#C0_0_70683579bf" x="437.542831" y="61.559077" style="fill: #cccccc"/>
    </g>
    <g clip-path="url(#peedfa5a4de)">
     <use xlink:href="#C0_0_70683579bf" x="440.295996" y="62.006435" style="fill: #c4c4c4"/>
    </g>
    <g clip-path="url(#peedfa5a4de)">
     <use xlink:href="#C0_0_70683579bf" x="443.049162" y="62.454251" style="fill: #b6b6b6"/>
    </g>
    <g clip-path="url(#peedfa5a4de)">
     <use xlink:href="#C0_0_70683579bf" x="445.802328" y="62.861974" style="fill: #a5a5a5"/>
    </g>
    <g clip-path="url(#peedfa5a4de)">
     <use xlink:href="#C0_0_70683579bf" x="448.555493" y="63.240816" style="fill: #8e8e8e"/>
    </g>
    <g clip-path="url(#peedfa5a4de)">
     <use xlink:href="#C0_0_70683579bf" x="451.308659" y="63.561319" style="fill: #737373"/>
    </g>
    <g clip-path="url(#peedfa5a4de)">
     <use xlink:href="#C0_0_70683579bf" x="454.061825" y="63.82941" style="fill: #545454"/>
    </g>
    <g clip-path="url(#peedfa5a4de)">
     <use xlink:href="#C0_0_70683579bf" x="456.814991" y="64.062174" style="fill: #282828"/>
    </g>
    <g clip-path="url(#peedfa5a4de)">
     <use xlink:href="#C0_0_70683579bf" x="459.568156" y="64.282286" style="fill: #090909"/>
    </g>
    <g clip-path="url(#peedfa5a4de)">
     <use xlink:href="#C0_0_70683579bf" x="462.321322" y="64.529565"/>
    </g>
    <g clip-path="url(#peedfa5a4de)">
     <use xlink:href="#C0_0_70683579bf" x="465.074488" y="64.831124" style="fill: #1f1f1f"/>
    </g>
    <g clip-path="url(#peedfa5a4de)">
     <use xlink:href="#C0_0_70683579bf" x="467.827654" y="65.262939" style="fill: #6d6d6d"/>
    </g>
    <g clip-path="url(#peedfa5a4de)">
     <use xlink:href="#C0_0_70683579bf" x="470.580819" y="65.830091" style="fill: #c3c3c3"/>
    </g>
    <g clip-path="url(#peedfa5a4de)">
     <use xlink:href="#C0_0_70683579bf" x="473.333985" y="66.526423" style="fill: #eeeeee"/>
    </g>
    <g clip-path="url(#peedfa5a4de)">
     <use xlink:href="#C0_0_70683579bf" x="476.087151" y="67.350353" style="fill: #fbfbfb"/>
    </g>
   </g>
   <g id="matplotlib.axis_3">
    <g id="xtick_21">
     <g id="line2d_27">
      <g>
       <use xlink:href="#m487055f843" x="329.155998" y="129.816419" style="stroke: #000000; stroke-width: 0.8"/>
      </g>
     </g>
     <g id="text_10">
      <!-- $\mathdefault{10^{-2}}$ -->
      <g transform="translate(318.755998 144.216419) scale(0.1 -0.1)">
       <use xlink:href="#IBMPlexSans-31" transform="translate(0 0.184375)"/>
       <use xlink:href="#IBMPlexSans-30" transform="translate(59.999985 0.184375)"/>
       <use xlink:href="#IBMPlexSans-2212" transform="translate(120.90286 36.3) scale(0.7)"/>
       <use xlink:href="#IBMPlexSans-32" transform="translate(162.902849 36.3) scale(0.7)"/>
      </g>
     </g>
    </g>
    <g id="xtick_22">
     <g id="line2d_28">
      <g>
       <use xlink:href="#m487055f843" x="430.586372" y="129.816419" style="stroke: #000000; stroke-width: 0.8"/>
      </g>
     </g>
     <g id="text_11">
      <!-- $\mathdefault{10^{-1}}$ -->
      <g transform="translate(420.186372 144.216419) scale(0.1 -0.1)">
       <use xlink:href="#IBMPlexSans-31" transform="translate(0 0.026563)"/>
       <use xlink:href="#IBMPlexSans-30" transform="translate(59.999985 0.026563)"/>
       <use xlink:href="#IBMPlexSans-2212" transform="translate(120.90286 36.142188) scale(0.7)"/>
       <use xlink:href="#IBMPlexSans-31" transform="translate(162.902849 36.142188) scale(0.7)"/>
      </g>
     </g>
    </g>
    <g id="xtick_23">
     <g id="line2d_29">
      <g>
       <use xlink:href="#m487055f843" x="532.016745" y="129.816419" style="stroke: #000000; stroke-width: 0.8"/>
      </g>
     </g>
     <g id="text_12">
      <!-- $\mathdefault{10^{0}}$ -->
      <g transform="translate(523.716745 144.216419) scale(0.1 -0.1)">
       <use xlink:href="#IBMPlexSans-31" transform="translate(0 0.184375)"/>
       <use xlink:href="#IBMPlexSans-30" transform="translate(59.999985 0.184375)"/>
       <use xlink:href="#IBMPlexSans-30" transform="translate(120.90286 36.3) scale(0.7)"/>
      </g>
     </g>
    </g>
    <g id="xtick_24">
     <g id="line2d_30">
      <g>
       <use xlink:href="#m73e0556dc8" x="324.514799" y="129.816419" style="stroke: #000000; stroke-width: 0.6"/>
      </g>
     </g>
    </g>
    <g id="xtick_25">
     <g id="line2d_31">
      <g>
       <use xlink:href="#m73e0556dc8" x="359.689583" y="129.816419" style="stroke: #000000; stroke-width: 0.6"/>
      </g>
     </g>
    </g>
    <g id="xtick_26">
     <g id="line2d_32">
      <g>
       <use xlink:href="#m73e0556dc8" x="377.550585" y="129.816419" style="stroke: #000000; stroke-width: 0.6"/>
      </g>
     </g>
    </g>
    <g id="xtick_27">
     <g id="line2d_33">
      <g>
       <use xlink:href="#m73e0556dc8" x="390.223168" y="129.816419" style="stroke: #000000; stroke-width: 0.6"/>
      </g>
     </g>
    </g>
    <g id="xtick_28">
     <g id="line2d_34">
      <g>
       <use xlink:href="#m73e0556dc8" x="400.052787" y="129.816419" style="stroke: #000000; stroke-width: 0.6"/>
      </g>
     </g>
    </g>
    <g id="xtick_29">
     <g id="line2d_35">
      <g>
       <use xlink:href="#m73e0556dc8" x="408.08417" y="129.816419" style="stroke: #000000; stroke-width: 0.6"/>
      </g>
     </g>
    </g>
    <g id="xtick_30">
     <g id="line2d_36">
      <g>
       <use xlink:href="#m73e0556dc8" x="414.874608" y="129.816419" style="stroke: #000000; stroke-width: 0.6"/>
      </g>
     </g>
    </g>
    <g id="xtick_31">
     <g id="line2d_37">
      <g>
       <use xlink:href="#m73e0556dc8" x="420.756753" y="129.816419" style="stroke: #000000; stroke-width: 0.6"/>
      </g>
     </g>
    </g>
    <g id="xtick_32">
     <g id="line2d_38">
      <g>
       <use xlink:href="#m73e0556dc8" x="425.945172" y="129.816419" style="stroke: #000000; stroke-width: 0.6"/>
      </g>
     </g>
    </g>
    <g id="xtick_33">
     <g id="line2d_39">
      <g>
       <use xlink:href="#m73e0556dc8" x="461.119956" y="129.816419" style="stroke: #000000; stroke-width: 0.6"/>
      </g>
     </g>
    </g>
    <g id="xtick_34">
     <g id="line2d_40">
      <g>
       <use xlink:href="#m73e0556dc8" x="478.980959" y="129.816419" style="stroke: #000000; stroke-width: 0.6"/>
      </g>
     </g>
    </g>
    <g id="xtick_35">
     <g id="line2d_41">
      <g>
       <use xlink:href="#m73e0556dc8" x="491.653541" y="129.816419" style="stroke: #000000; stroke-width: 0.6"/>
      </g>
     </g>
    </g>
    <g id="xtick_36">
     <g id="line2d_42">
      <g>
       <use xlink:href="#m73e0556dc8" x="501.48316" y="129.816419" style="stroke: #000000; stroke-width: 0.6"/>
      </g>
     </g>
    </g>
    <g id="xtick_37">
     <g id="line2d_43">
      <g>
       <use xlink:href="#m73e0556dc8" x="509.514544" y="129.816419" style="stroke: #000000; stroke-width: 0.6"/>
      </g>
     </g>
    </g>
    <g id="xtick_38">
     <g id="line2d_44">
      <g>
       <use xlink:href="#m73e0556dc8" x="516.304981" y="129.816419" style="stroke: #000000; stroke-width: 0.6"/>
      </g>
     </g>
    </g>
    <g id="xtick_39">
     <g id="line2d_45">
      <g>
       <use xlink:href="#m73e0556dc8" x="522.187126" y="129.816419" style="stroke: #000000; stroke-width: 0.6"/>
      </g>
     </g>
    </g>
    <g id="xtick_40">
     <g id="line2d_46">
      <g>
       <use xlink:href="#m73e0556dc8" x="527.375546" y="129.816419" style="stroke: #000000; stroke-width: 0.6"/>
      </g>
     </g>
    </g>
   </g>
   <g id="matplotlib.axis_4">
    <g id="ytick_6">
     <g id="line2d_47">
      <g>
       <use xlink:href="#m7f77e65294" x="320.120312" y="90.994654" style="stroke: #000000; stroke-width: 0.8"/>
      </g>
     </g>
     <g id="text_13">
      <!-- 340 -->
      <g transform="translate(295.120312 94.694654) scale(0.1 -0.1)">
       <defs>
        <path id="IBMPlexSans-33" d="M 1184 2573 
L 1184 2106 
L 1709 2106 
C 2336 2106 2669 1805 2669 1280 
L 2669 1229 
C 2669 704 2336 403 1709 403 
C 1165 403 902 640 672 992 
L 269 685 
C 544 301 941 -77 1715 -77 
C 2624 -77 3232 454 3232 1222 
C 3232 1894 2771 2253 2291 2349 
L 2291 2374 
C 2765 2496 3149 2842 3149 3418 
C 3149 4141 2547 4544 1792 4544 
C 1075 4544 685 4173 461 3814 
L 858 3507 
C 1043 3846 1318 4064 1779 4064 
C 2253 4064 2579 3827 2579 3360 
L 2579 3315 
C 2579 2886 2272 2573 1670 2573 
L 1184 2573 
z
" transform="scale(0.015625)"/>
        <path id="IBMPlexSans-34" d="M 2912 0 
L 2912 877 
L 3558 877 
L 3558 1325 
L 2912 1325 
L 2912 4467 
L 2112 4467 
L 243 1350 
L 243 877 
L 2400 877 
L 2400 0 
L 2912 0 
z
M 2368 4051 
L 2400 4051 
L 2400 1325 
L 749 1325 
L 2368 4051 
z
" transform="scale(0.015625)"/>
       </defs>
       <use xlink:href="#IBMPlexSans-33"/>
       <use xlink:href="#IBMPlexSans-34" transform="translate(59.999985 0)"/>
       <use xlink:href="#IBMPlexSans-30" transform="translate(119.999969 0)"/>
      </g>
     </g>
    </g>
    <g id="ytick_7">
     <g id="line2d_48">
      <g>
       <use xlink:href="#m7f77e65294" x="320.120312" y="47.286754" style="stroke: #000000; stroke-width: 0.8"/>
      </g>
     </g>
     <g id="text_14">
      <!-- 360 -->
      <g transform="translate(295.120312 50.986754) scale(0.1 -0.1)">
       <defs>
        <path id="IBMPlexSans-36" d="M 1926 -77 
C 2822 -77 3411 525 3411 1402 
C 3411 2246 2861 2778 2093 2778 
C 1549 2778 1229 2502 1018 2138 
L 986 2150 
C 1229 3187 1760 3770 2714 4467 
L 2022 4467 
C 1306 4000 429 2963 429 1638 
C 429 576 998 -77 1926 -77 
z
M 1920 390 
C 1331 390 986 730 986 1331 
L 986 1382 
C 986 1984 1331 2323 1920 2323 
C 2509 2323 2854 1984 2854 1382 
L 2854 1331 
C 2854 730 2509 390 1920 390 
z
" transform="scale(0.015625)"/>
       </defs>
       <use xlink:href="#IBMPlexSans-33"/>
       <use xlink:href="#IBMPlexSans-36" transform="translate(59.999985 0)"/>
       <use xlink:href="#IBMPlexSans-30" transform="translate(119.999969 0)"/>
      </g>
     </g>
    </g>
    <g id="text_15">
     <!-- $\sigma$ (95% CI) [S/m] -->
     <g transform="translate(289.120312 108.50011) rotate(-90) scale(0.1 -0.1)">
      <defs>
       <path id="DejaVuSans-Oblique-3c3" d="M 2219 3044 
Q 1744 3044 1422 2700 
Q 1081 2341 969 1747 
Q 844 1119 1044 756 
Q 1241 397 1706 397 
Q 2166 397 2503 759 
Q 2844 1122 2966 1747 
Q 3075 2319 2881 2700 
Q 2700 3044 2219 3044 
z
M 2309 3503 
L 4219 3500 
L 4106 2925 
L 3463 2925 
Q 3706 2438 3575 1747 
Q 3406 888 2884 400 
Q 2359 -91 1609 -91 
Q 856 -91 525 400 
Q 194 888 363 1747 
Q 528 2609 1050 3097 
Q 1484 3503 2309 3503 
z
" transform="scale(0.015625)"/>
       <path id="IBMPlexSans-39" d="M 3411 2829 
C 3411 3891 2842 4544 1914 4544 
C 1018 4544 429 3942 429 3066 
C 429 2221 979 1690 1747 1690 
C 2291 1690 2611 1965 2822 2330 
L 2854 2317 
C 2611 1280 2080 698 1126 0 
L 1818 0 
C 2534 467 3411 1504 3411 2829 
z
M 1920 2144 
C 1331 2144 986 2483 986 3085 
L 986 3136 
C 986 3738 1331 4077 1920 4077 
C 2509 4077 2854 3738 2854 3136 
L 2854 3085 
C 2854 2483 2509 2144 1920 2144 
z
" transform="scale(0.015625)"/>
       <path id="IBMPlexSans-43" d="M 2170 -77 
C 2912 -77 3456 314 3738 941 
L 3309 1210 
C 3130 723 2739 403 2170 403 
C 1402 403 947 960 947 1875 
L 947 2541 
C 947 3456 1402 4064 2170 4064 
C 2720 4064 3091 3763 3270 3302 
L 3706 3565 
C 3424 4186 2912 4544 2170 4544 
C 1043 4544 371 3699 371 2208 
C 371 717 1043 -77 2170 -77 
z
" transform="scale(0.015625)"/>
       <path id="IBMPlexSans-49" d="M 2176 0 
L 2176 448 
L 1549 448 
L 1549 4019 
L 2176 4019 
L 2176 4467 
L 384 4467 
L 384 4019 
L 1011 4019 
L 1011 448 
L 384 448 
L 384 0 
L 2176 0 
z
" transform="scale(0.015625)"/>
       <path id="IBMPlexSans-5b" d="M 1645 -883 
L 1645 -480 
L 1037 -480 
L 1037 4461 
L 1645 4461 
L 1645 4864 
L 595 4864 
L 595 -883 
L 1645 -883 
z
" transform="scale(0.015625)"/>
       <path id="IBMPlexSans-53" d="M 1850 -77 
C 2810 -77 3386 448 3386 1267 
C 3386 1933 3008 2317 2138 2515 
L 1773 2598 
C 1210 2726 934 2918 934 3341 
C 934 3821 1286 4070 1856 4070 
C 2374 4070 2714 3859 2957 3520 
L 3360 3814 
C 3027 4288 2554 4544 1882 4544 
C 1005 4544 403 4115 403 3322 
C 403 2637 851 2278 1664 2093 
L 2029 2010 
C 2618 1875 2854 1664 2854 1242 
C 2854 730 2509 397 1869 397 
C 1350 397 979 621 666 1037 
L 269 704 
C 627 218 1133 -77 1850 -77 
z
" transform="scale(0.015625)"/>
       <path id="IBMPlexSans-2f" d="M 518 -966 
L 2189 4736 
L 1728 4736 
L 58 -966 
L 518 -966 
z
" transform="scale(0.015625)"/>
       <path id="IBMPlexSans-6d" d="M 1056 0 
L 1056 2291 
C 1056 2714 1440 2918 1843 2918 
C 2330 2918 2554 2618 2554 2029 
L 2554 0 
L 3066 0 
L 3066 2291 
C 3066 2714 3437 2918 3840 2918 
C 4339 2918 4563 2611 4563 2029 
L 4563 0 
L 5075 0 
L 5075 2118 
C 5075 2918 4672 3379 4000 3379 
C 3437 3379 3117 3066 2995 2707 
L 2982 2707 
C 2803 3181 2406 3379 1971 3379 
C 1459 3379 1229 3104 1082 2765 
L 1056 2765 
L 1056 3302 
L 544 3302 
L 544 0 
L 1056 0 
z
" transform="scale(0.015625)"/>
       <path id="IBMPlexSans-5d" d="M 384 4864 
L 384 4461 
L 992 4461 
L 992 -480 
L 384 -480 
L 384 -883 
L 1434 -883 
L 1434 4864 
L 384 4864 
z
" transform="scale(0.015625)"/>
      </defs>
      <use xlink:href="#DejaVuSans-Oblique-3c3"/>
      <use xlink:href="#IBMPlexSans-20" transform="translate(63.378906 0)"/>
      <use xlink:href="#IBMPlexSans-28" transform="translate(86.978897 0)"/>
      <use xlink:href="#IBMPlexSans-39" transform="translate(120.478882 0)"/>
      <use xlink:href="#IBMPlexSans-35" transform="translate(180.478867 0)"/>
      <use xlink:href="#IBMPlexSans-25" transform="translate(240.478851 0)"/>
      <use xlink:href="#IBMPlexSans-20" transform="translate(333.178833 0)"/>
      <use xlink:href="#IBMPlexSans-43" transform="translate(356.778824 0)"/>
      <use xlink:href="#IBMPlexSans-49" transform="translate(418.878815 0)"/>
      <use xlink:href="#IBMPlexSans-29" transform="translate(458.878799 0)"/>
      <use xlink:href="#IBMPlexSans-20" transform="translate(492.378784 0)"/>
      <use xlink:href="#IBMPlexSans-5b" transform="translate(515.978775 0)"/>
      <use xlink:href="#IBMPlexSans-53" transform="translate(547.678772 0)"/>
      <use xlink:href="#IBMPlexSans-2f" transform="translate(605.778763 0)"/>
      <use xlink:href="#IBMPlexSans-6d" transform="translate(644.078751 0)"/>
      <use xlink:href="#IBMPlexSans-5d" transform="translate(731.378738 0)"/>
     </g>
    </g>
   </g>
   <g id="line2d_49">
    <path d="M 330.169367 70.30011 
L 332.922533 69.259175 
L 335.675699 68.464963 
L 338.428865 67.904223 
L 341.18203 67.391916 
L 343.935196 66.626244 
L 346.688362 65.796033 
L 349.441527 64.834928 
L 352.194693 63.809582 
L 354.947859 62.761453 
L 357.701025 61.507674 
L 360.45419 60.08614 
L 363.207356 58.581014 
L 365.960522 57.108333 
L 368.713687 55.852171 
L 371.466853 54.812956 
L 374.220019 54.085411 
L 376.973185 53.585203 
L 379.72635 53.195604 
L 382.479516 52.830378 
L 385.232682 52.432935 
L 387.985848 52.06159 
L 390.739013 51.827155 
L 393.492179 51.807808 
L 396.245345 52.033764 
L 398.99851 52.493897 
L 401.751676 53.177256 
L 404.504842 54.00463 
L 407.258008 54.830549 
L 410.011173 55.660083 
L 412.764339 56.427069 
L 415.517505 57.081879 
L 418.27067 57.697694 
L 421.023836 58.258486 
L 423.777002 58.842188 
L 426.530168 59.443747 
L 429.283333 60.019376 
L 432.036499 60.576201 
L 434.789665 61.093635 
L 437.542831 61.559077 
L 440.295996 62.006435 
L 443.049162 62.454251 
L 445.802328 62.861974 
L 448.555493 63.240816 
L 451.308659 63.561319 
L 454.061825 63.82941 
L 456.814991 64.062174 
L 459.568156 64.282286 
L 462.321322 64.529565 
L 465.074488 64.831124 
L 467.827654 65.262939 
L 470.580819 65.830091 
L 473.333985 66.526423 
L 476.087151 67.350353 
L 478.840316 68.298106 
L 481.593482 69.379178 
L 484.346648 70.563735 
L 487.099814 71.815472 
L 489.852979 73.143731 
L 492.606145 74.490314 
L 495.359311 75.839634 
L 498.112476 77.173323 
L 500.865642 78.499493 
L 503.618808 79.848569 
L 506.371974 81.244602 
L 509.125139 82.685423 
L 511.878305 84.172931 
L 514.631471 85.66874 
L 517.384637 87.105496 
L 520.137802 88.441535 
L 522.890968 89.634736 
L 525.644134 90.672826 
L 528.397299 91.549368 
L 531.150465 92.258581 
" clip-path="url(#peedfa5a4de)" style="fill: none; stroke: #d62728; stroke-width: 1.5; stroke-linecap: square"/>
   </g>
   <g id="patch_6">
    <path d="M 320.120312 129.816419 
L 320.120312 10.7838 
" style="fill: none; stroke: #000000; stroke-width: 0.8; stroke-linejoin: miter; stroke-linecap: square"/>
   </g>
   <g id="patch_7">
    <path d="M 320.120312 129.816419 
L 541.19952 129.816419 
" style="fill: none; stroke: #000000; stroke-width: 0.8; stroke-linejoin: miter; stroke-linecap: square"/>
   </g>
  </g>
  <g id="axes_3">
   <g id="patch_8">
    <path d="M 54.640625 274.949519 
L 275.719832 274.949519 
L 275.719832 155.916899 
L 54.640625 155.916899 
z
" style="fill: #ffffff"/>
   </g>
   <g id="matplotlib.axis_5">
    <g id="xtick_41">
     <g id="line2d_50">
      <g>
       <use xlink:href="#m487055f843" x="63.67631" y="274.949519" style="stroke: #000000; stroke-width: 0.8"/>
      </g>
     </g>
     <g id="text_16">
      <!-- $\mathdefault{10^{-2}}$ -->
      <g transform="translate(53.27631 289.349519) scale(0.1 -0.1)">
       <use xlink:href="#IBMPlexSans-31" transform="translate(0 0.184375)"/>
       <use xlink:href="#IBMPlexSans-30" transform="translate(59.999985 0.184375)"/>
       <use xlink:href="#IBMPlexSans-2212" transform="translate(120.90286 36.3) scale(0.7)"/>
       <use xlink:href="#IBMPlexSans-32" transform="translate(162.902849 36.3) scale(0.7)"/>
      </g>
     </g>
    </g>
    <g id="xtick_42">
     <g id="line2d_51">
      <g>
       <use xlink:href="#m487055f843" x="165.106684" y="274.949519" style="stroke: #000000; stroke-width: 0.8"/>
      </g>
     </g>
     <g id="text_17">
      <!-- $\mathdefault{10^{-1}}$ -->
      <g transform="translate(154.706684 289.349519) scale(0.1 -0.1)">
       <use xlink:href="#IBMPlexSans-31" transform="translate(0 0.026563)"/>
       <use xlink:href="#IBMPlexSans-30" transform="translate(59.999985 0.026563)"/>
       <use xlink:href="#IBMPlexSans-2212" transform="translate(120.90286 36.142188) scale(0.7)"/>
       <use xlink:href="#IBMPlexSans-31" transform="translate(162.902849 36.142188) scale(0.7)"/>
      </g>
     </g>
    </g>
    <g id="xtick_43">
     <g id="line2d_52">
      <g>
       <use xlink:href="#m487055f843" x="266.537058" y="274.949519" style="stroke: #000000; stroke-width: 0.8"/>
      </g>
     </g>
     <g id="text_18">
      <!-- $\mathdefault{10^{0}}$ -->
      <g transform="translate(258.237058 289.349519) scale(0.1 -0.1)">
       <use xlink:href="#IBMPlexSans-31" transform="translate(0 0.184375)"/>
       <use xlink:href="#IBMPlexSans-30" transform="translate(59.999985 0.184375)"/>
       <use xlink:href="#IBMPlexSans-30" transform="translate(120.90286 36.3) scale(0.7)"/>
      </g>
     </g>
    </g>
    <g id="xtick_44">
     <g id="line2d_53">
      <g>
       <use xlink:href="#m73e0556dc8" x="59.035111" y="274.949519" style="stroke: #000000; stroke-width: 0.6"/>
      </g>
     </g>
    </g>
    <g id="xtick_45">
     <g id="line2d_54">
      <g>
       <use xlink:href="#m73e0556dc8" x="94.209895" y="274.949519" style="stroke: #000000; stroke-width: 0.6"/>
      </g>
     </g>
    </g>
    <g id="xtick_46">
     <g id="line2d_55">
      <g>
       <use xlink:href="#m73e0556dc8" x="112.070898" y="274.949519" style="stroke: #000000; stroke-width: 0.6"/>
      </g>
     </g>
    </g>
    <g id="xtick_47">
     <g id="line2d_56">
      <g>
       <use xlink:href="#m73e0556dc8" x="124.74348" y="274.949519" style="stroke: #000000; stroke-width: 0.6"/>
      </g>
     </g>
    </g>
    <g id="xtick_48">
     <g id="line2d_57">
      <g>
       <use xlink:href="#m73e0556dc8" x="134.573099" y="274.949519" style="stroke: #000000; stroke-width: 0.6"/>
      </g>
     </g>
    </g>
    <g id="xtick_49">
     <g id="line2d_58">
      <g>
       <use xlink:href="#m73e0556dc8" x="142.604482" y="274.949519" style="stroke: #000000; stroke-width: 0.6"/>
      </g>
     </g>
    </g>
    <g id="xtick_50">
     <g id="line2d_59">
      <g>
       <use xlink:href="#m73e0556dc8" x="149.39492" y="274.949519" style="stroke: #000000; stroke-width: 0.6"/>
      </g>
     </g>
    </g>
    <g id="xtick_51">
     <g id="line2d_60">
      <g>
       <use xlink:href="#m73e0556dc8" x="155.277065" y="274.949519" style="stroke: #000000; stroke-width: 0.6"/>
      </g>
     </g>
    </g>
    <g id="xtick_52">
     <g id="line2d_61">
      <g>
       <use xlink:href="#m73e0556dc8" x="160.465485" y="274.949519" style="stroke: #000000; stroke-width: 0.6"/>
      </g>
     </g>
    </g>
    <g id="xtick_53">
     <g id="line2d_62">
      <g>
       <use xlink:href="#m73e0556dc8" x="195.640269" y="274.949519" style="stroke: #000000; stroke-width: 0.6"/>
      </g>
     </g>
    </g>
    <g id="xtick_54">
     <g id="line2d_63">
      <g>
       <use xlink:href="#m73e0556dc8" x="213.501271" y="274.949519" style="stroke: #000000; stroke-width: 0.6"/>
      </g>
     </g>
    </g>
    <g id="xtick_55">
     <g id="line2d_64">
      <g>
       <use xlink:href="#m73e0556dc8" x="226.173854" y="274.949519" style="stroke: #000000; stroke-width: 0.6"/>
      </g>
     </g>
    </g>
    <g id="xtick_56">
     <g id="line2d_65">
      <g>
       <use xlink:href="#m73e0556dc8" x="236.003473" y="274.949519" style="stroke: #000000; stroke-width: 0.6"/>
      </g>
     </g>
    </g>
    <g id="xtick_57">
     <g id="line2d_66">
      <g>
       <use xlink:href="#m73e0556dc8" x="244.034856" y="274.949519" style="stroke: #000000; stroke-width: 0.6"/>
      </g>
     </g>
    </g>
    <g id="xtick_58">
     <g id="line2d_67">
      <g>
       <use xlink:href="#m73e0556dc8" x="250.825294" y="274.949519" style="stroke: #000000; stroke-width: 0.6"/>
      </g>
     </g>
    </g>
    <g id="xtick_59">
     <g id="line2d_68">
      <g>
       <use xlink:href="#m73e0556dc8" x="256.707439" y="274.949519" style="stroke: #000000; stroke-width: 0.6"/>
      </g>
     </g>
    </g>
    <g id="xtick_60">
     <g id="line2d_69">
      <g>
       <use xlink:href="#m73e0556dc8" x="261.895858" y="274.949519" style="stroke: #000000; stroke-width: 0.6"/>
      </g>
     </g>
    </g>
    <g id="text_19">
     <!-- Cutoff frequency [THz] -->
     <g transform="translate(114.659135 302.949519) scale(0.1 -0.1)">
      <defs>
       <path id="IBMPlexSans-75" d="M 2579 0 
L 3091 0 
L 3091 3302 
L 2579 3302 
L 2579 1018 
C 2579 582 2182 384 1779 384 
C 1286 384 1024 685 1024 1274 
L 1024 3302 
L 512 3302 
L 512 1184 
C 512 384 947 -77 1626 -77 
C 2176 -77 2426 224 2554 538 
L 2579 538 
L 2579 0 
z
" transform="scale(0.015625)"/>
       <path id="IBMPlexSans-6f" d="M 1792 -77 
C 2675 -77 3283 602 3283 1651 
C 3283 2701 2675 3379 1792 3379 
C 909 3379 301 2701 301 1651 
C 301 602 909 -77 1792 -77 
z
M 1792 378 
C 1242 378 851 717 851 1414 
L 851 1888 
C 851 2586 1242 2925 1792 2925 
C 2342 2925 2733 2586 2733 1888 
L 2733 1414 
C 2733 717 2342 378 1792 378 
z
" transform="scale(0.015625)"/>
       <path id="IBMPlexSans-66" d="M 723 0 
L 1235 0 
L 1235 2854 
L 1946 2854 
L 1946 3302 
L 1235 3302 
L 1235 4288 
L 1946 4288 
L 1946 4736 
L 1446 4736 
C 960 4736 723 4422 723 3968 
L 723 3302 
L 186 3302 
L 186 2854 
L 723 2854 
L 723 0 
z
" transform="scale(0.015625)"/>
       <path id="IBMPlexSans-72" d="M 1056 0 
L 1056 2240 
C 1056 2554 1389 2790 1939 2790 
L 2240 2790 
L 2240 3302 
L 2042 3302 
C 1504 3302 1203 3008 1088 2694 
L 1056 2694 
L 1056 3302 
L 544 3302 
L 544 0 
L 1056 0 
z
" transform="scale(0.015625)"/>
       <path id="IBMPlexSans-71" d="M 2656 -1280 
L 3168 -1280 
L 3168 3302 
L 2656 3302 
L 2656 2765 
L 2630 2765 
C 2458 3181 2118 3379 1664 3379 
C 838 3379 320 2707 320 1651 
C 320 595 838 -77 1664 -77 
C 2118 -77 2432 128 2630 538 
L 2656 538 
L 2656 -1280 
z
M 1805 384 
C 1229 384 870 781 870 1370 
L 870 1933 
C 870 2522 1229 2918 1805 2918 
C 2272 2918 2656 2650 2656 2285 
L 2656 1056 
C 2656 627 2272 384 1805 384 
z
" transform="scale(0.015625)"/>
       <path id="IBMPlexSans-6e" d="M 1056 0 
L 1056 2291 
C 1056 2714 1453 2918 1862 2918 
C 2355 2918 2611 2618 2611 2029 
L 2611 0 
L 3123 0 
L 3123 2118 
C 3123 2918 2694 3379 2016 3379 
C 1523 3379 1242 3136 1082 2765 
L 1056 2765 
L 1056 3302 
L 544 3302 
L 544 0 
L 1056 0 
z
" transform="scale(0.015625)"/>
       <path id="IBMPlexSans-79" d="M 1779 1056 
L 1600 518 
L 1568 518 
L 1414 1056 
L 621 3302 
L 109 3302 
L 1344 -128 
L 1094 -832 
L 576 -832 
L 576 -1280 
L 838 -1280 
C 1325 -1280 1459 -1165 1606 -768 
L 3085 3302 
L 2579 3302 
L 1779 1056 
z
" transform="scale(0.015625)"/>
       <path id="IBMPlexSans-54" d="M 3520 3994 
L 3520 4467 
L 141 4467 
L 141 3994 
L 1562 3994 
L 1562 0 
L 2099 0 
L 2099 3994 
L 3520 3994 
z
" transform="scale(0.015625)"/>
       <path id="IBMPlexSans-48" d="M 3392 0 
L 3930 0 
L 3930 4467 
L 3392 4467 
L 3392 2496 
L 1133 2496 
L 1133 4467 
L 595 4467 
L 595 0 
L 1133 0 
L 1133 2022 
L 3392 2022 
L 3392 0 
z
" transform="scale(0.015625)"/>
       <path id="IBMPlexSans-7a" d="M 2758 0 
L 2758 448 
L 794 448 
L 2707 2918 
L 2707 3302 
L 269 3302 
L 269 2854 
L 2086 2854 
L 211 429 
L 211 0 
L 2758 0 
z
" transform="scale(0.015625)"/>
      </defs>
      <use xlink:href="#IBMPlexSans-43"/>
      <use xlink:href="#IBMPlexSans-75" transform="translate(62.099991 0)"/>
      <use xlink:href="#IBMPlexSans-74" transform="translate(118.899979 0)"/>
      <use xlink:href="#IBMPlexSans-6f" transform="translate(153.999969 0)"/>
      <use xlink:href="#IBMPlexSans-66" transform="translate(209.999954 0)"/>
      <use xlink:href="#IBMPlexSans-66" transform="translate(242.399948 0)"/>
      <use xlink:href="#IBMPlexSans-20" transform="translate(274.799942 0)"/>
      <use xlink:href="#IBMPlexSans-66" transform="translate(298.399933 0)"/>
      <use xlink:href="#IBMPlexSans-72" transform="translate(330.799927 0)"/>
      <use xlink:href="#IBMPlexSans-65" transform="translate(367.499924 0)"/>
      <use xlink:href="#IBMPlexSans-71" transform="translate(422.399918 0)"/>
      <use xlink:href="#IBMPlexSans-75" transform="translate(480.399902 0)"/>
      <use xlink:href="#IBMPlexSans-65" transform="translate(537.19989 0)"/>
      <use xlink:href="#IBMPlexSans-6e" transform="translate(592.099884 0)"/>
      <use xlink:href="#IBMPlexSans-63" transform="translate(648.899872 0)"/>
      <use xlink:href="#IBMPlexSans-79" transform="translate(699.19986 0)"/>
      <use xlink:href="#IBMPlexSans-20" transform="translate(749.099854 0)"/>
      <use xlink:href="#IBMPlexSans-5b" transform="translate(772.699844 0)"/>
      <use xlink:href="#IBMPlexSans-54" transform="translate(804.399841 0)"/>
      <use xlink:href="#IBMPlexSans-48" transform="translate(861.599838 0)"/>
      <use xlink:href="#IBMPlexSans-7a" transform="translate(932.29982 0)"/>
      <use xlink:href="#IBMPlexSans-5d" transform="translate(978.699814 0)"/>
     </g>
    </g>
   </g>
   <g id="matplotlib.axis_6">
    <g id="ytick_8">
     <g id="line2d_70">
      <g>
       <use xlink:href="#m7f77e65294" x="54.640625" y="247.480453" style="stroke: #000000; stroke-width: 0.8"/>
      </g>
     </g>
     <g id="text_20">
      <!-- 0 -->
      <g transform="translate(41.640625 251.180453) scale(0.1 -0.1)">
       <use xlink:href="#IBMPlexSans-30"/>
      </g>
     </g>
    </g>
    <g id="ytick_9">
     <g id="line2d_71">
      <g>
       <use xlink:href="#m7f77e65294" x="54.640625" y="201.698676" style="stroke: #000000; stroke-width: 0.8"/>
      </g>
     </g>
     <g id="text_21">
      <!-- 2 -->
      <g transform="translate(41.640625 205.398676) scale(0.1 -0.1)">
       <use xlink:href="#IBMPlexSans-32"/>
      </g>
     </g>
    </g>
    <g id="ytick_10">
     <g id="line2d_72">
      <g>
       <use xlink:href="#m7f77e65294" x="54.640625" y="155.916899" style="stroke: #000000; stroke-width: 0.8"/>
      </g>
     </g>
     <g id="text_22">
      <!-- 4 -->
      <g transform="translate(41.640625 159.616899) scale(0.1 -0.1)">
       <use xlink:href="#IBMPlexSans-34"/>
      </g>
     </g>
    </g>
    <g id="text_23">
     <!-- Z-score -->
     <g transform="translate(35.640625 232.65899) rotate(-90) scale(0.1 -0.1)">
      <defs>
       <path id="IBMPlexSans-5a" d="M 3482 474 
L 806 474 
L 3392 3981 
L 3392 4467 
L 365 4467 
L 365 3994 
L 2810 3994 
L 230 486 
L 230 0 
L 3482 0 
L 3482 474 
z
" transform="scale(0.015625)"/>
       <path id="IBMPlexSans-2d" d="M 2112 1670 
L 2112 2221 
L 442 2221 
L 442 1670 
L 2112 1670 
z
" transform="scale(0.015625)"/>
       <path id="IBMPlexSans-73" d="M 1536 -77 
C 2291 -77 2758 314 2758 954 
C 2758 1453 2477 1773 1747 1882 
L 1491 1920 
C 1082 1984 858 2112 858 2432 
C 858 2746 1082 2944 1504 2944 
C 1926 2944 2208 2746 2355 2541 
L 2694 2848 
C 2426 3181 2074 3379 1542 3379 
C 870 3379 365 3059 365 2406 
C 365 1792 819 1542 1427 1453 
L 1690 1414 
C 2125 1350 2266 1152 2266 896 
C 2266 557 2010 358 1574 358 
C 1158 358 851 544 595 864 
L 230 570 
C 525 179 928 -77 1536 -77 
z
" transform="scale(0.015625)"/>
      </defs>
      <use xlink:href="#IBMPlexSans-5a"/>
      <use xlink:href="#IBMPlexSans-2d" transform="translate(57.999985 0)"/>
      <use xlink:href="#IBMPlexSans-73" transform="translate(97.899979 0)"/>
      <use xlink:href="#IBMPlexSans-63" transform="translate(146.599976 0)"/>
      <use xlink:href="#IBMPlexSans-6f" transform="translate(196.899963 0)"/>
      <use xlink:href="#IBMPlexSans-72" transform="translate(252.899948 0)"/>
      <use xlink:href="#IBMPlexSans-65" transform="translate(289.599945 0)"/>
     </g>
    </g>
   </g>
   <g id="line2d_73">
    <path d="M 64.68968 210.82227 
L 67.442846 212.335547 
L 70.196011 213.737344 
L 72.949177 214.99819 
L 75.702343 216.055936 
L 78.455508 216.886861 
L 81.208674 217.629598 
L 83.96184 218.284278 
L 86.715006 218.856988 
L 89.468171 219.330824 
L 92.221337 219.598812 
L 94.974503 219.678343 
L 97.727669 219.615381 
L 100.480834 219.419159 
L 103.234 219.168429 
L 105.987166 218.832144 
L 108.740331 218.441929 
L 111.493497 218.019708 
L 114.246663 217.64705 
L 116.999829 217.447241 
L 119.752994 217.577039 
L 122.50616 218.084735 
L 125.259326 218.927201 
L 128.012491 219.997901 
L 130.765657 221.194147 
L 133.518823 222.508532 
L 136.271989 223.929098 
L 139.025154 225.435371 
L 141.77832 227.019907 
L 144.531486 228.620587 
L 147.284652 230.162161 
L 150.037817 231.646337 
L 152.790983 233.119639 
L 155.544149 234.714772 
L 158.297314 236.419319 
L 161.05048 238.160549 
L 163.803646 239.788818 
L 166.556812 241.26602 
L 169.309977 242.55081 
L 172.063143 243.692521 
L 174.816309 244.75701 
L 177.569475 245.773303 
L 180.32264 246.809904 
L 183.075806 247.836462 
L 185.828972 248.767205 
L 188.582137 249.492248 
L 191.335303 249.966746 
L 194.088469 250.224022 
L 196.841635 250.300143 
L 199.5948 250.347686 
L 202.347966 250.500498 
L 205.101132 251.006976 
L 207.854297 251.951579 
L 210.607463 253.28467 
L 213.360629 254.804741 
L 216.113795 256.174999 
L 218.86696 257.127241 
L 221.620126 257.423708 
L 224.373292 256.852398 
L 227.126458 255.55905 
L 229.879623 253.737866 
L 232.632789 251.745756 
L 235.385955 249.785497 
L 238.13912 247.968438 
L 240.892286 246.342545 
L 243.645452 244.841254 
L 246.398618 243.260634 
L 249.151783 241.533203 
L 251.904949 239.697685 
L 254.658115 237.784601 
L 257.41128 235.860421 
L 260.164446 234.009684 
L 262.917612 232.412331 
L 265.670778 231.308831 
" clip-path="url(#p231fc0acde)" style="fill: none; stroke: #1f77b4; stroke-width: 1.5; stroke-linecap: square"/>
   </g>
   <g id="line2d_74">
    <path d="M 64.68968 263.410866 
L 67.442846 263.993195 
L 70.196011 263.930558 
L 72.949177 263.983036 
L 75.702343 264.234256 
L 78.455508 264.753606 
L 81.208674 265.331658 
L 83.96184 265.28022 
L 86.715006 264.085568 
L 89.468171 261.981136 
L 92.221337 259.977268 
L 94.974503 258.893015 
L 97.727669 258.859535 
L 100.480834 259.228861 
L 103.234 259.611168 
L 105.987166 259.639256 
L 108.740331 259.257874 
L 111.493497 258.68663 
L 114.246663 258.251966 
L 116.999829 258.211327 
L 119.752994 258.543827 
L 122.50616 259.12283 
L 125.259326 259.463635 
L 128.012491 258.965136 
L 130.765657 257.800425 
L 133.518823 255.88573 
L 136.271989 253.926818 
L 139.025154 252.643835 
L 141.77832 253.001376 
L 144.531486 253.739887 
L 147.284652 255.040248 
L 150.037817 255.662701 
L 152.790983 255.80184 
L 155.544149 255.66854 
L 158.297314 255.664509 
L 161.05048 255.987333 
L 163.803646 256.497893 
L 166.556812 257.070632 
L 169.309977 257.453368 
L 172.063143 257.61617 
L 174.816309 257.684234 
L 177.569475 257.799204 
L 180.32264 258.100489 
L 183.075806 258.752509 
L 185.828972 259.713067 
L 188.582137 260.751757 
L 191.335303 261.468213 
L 194.088469 261.196617 
L 196.841635 259.121996 
L 199.5948 253.710159 
L 202.347966 243.498085 
L 205.101132 226.385515 
L 207.854297 201.775186 
L 210.607463 169.815847 
L 213.360629 133.7336 
L 216.113795 95.910459 
L 218.86696 59.906942 
L 221.620126 27.73714 
L 224.302831 -1 
" clip-path="url(#p231fc0acde)" style="fill: none; stroke: #2ca02c; stroke-width: 1.5; stroke-linecap: square"/>
   </g>
   <g id="line2d_75">
    <path d="M 54.640625 247.480453 
L 275.719832 247.480453 
" clip-path="url(#p231fc0acde)" style="fill: none; stroke-dasharray: 5.55,2.4; stroke-dashoffset: 0; stroke: #000000; stroke-width: 1.5"/>
   </g>
   <g id="line2d_76">
    <path d="M 54.640625 201.698676 
L 275.719832 201.698676 
" clip-path="url(#p231fc0acde)" style="fill: none; stroke-dasharray: 5.55,2.4; stroke-dashoffset: 0; stroke: #000000; stroke-width: 1.5"/>
   </g>
   <g id="patch_9">
    <path d="M 54.640625 274.949519 
L 54.640625 155.916899 
" style="fill: none; stroke: #000000; stroke-width: 0.8; stroke-linejoin: miter; stroke-linecap: square"/>
   </g>
   <g id="patch_10">
    <path d="M 54.640625 274.949519 
L 275.719832 274.949519 
" style="fill: none; stroke: #000000; stroke-width: 0.8; stroke-linejoin: miter; stroke-linecap: square"/>
   </g>
   <g id="legend_1">
    <g id="patch_11">
     <path d="M 61.640625 192.716899 
L 132.470313 192.716899 
Q 134.470313 192.716899 134.470313 190.716899 
L 134.470313 162.916899 
Q 134.470313 160.916899 132.470313 160.916899 
L 61.640625 160.916899 
Q 59.640625 160.916899 59.640625 162.916899 
L 59.640625 190.716899 
Q 59.640625 192.716899 61.640625 192.716899 
z
" style="fill: #ffffff; opacity: 0.8; stroke: #cccccc; stroke-linejoin: miter"/>
    </g>
    <g id="line2d_77">
     <path d="M 63.640625 168.816899 
L 73.640625 168.816899 
L 83.640625 168.816899 
" style="fill: none; stroke: #1f77b4; stroke-width: 1.5; stroke-linecap: square"/>
    </g>
    <g id="text_24">
     <!-- Cost -->
     <g transform="translate(91.640625 172.316899) scale(0.1 -0.1)">
      <use xlink:href="#IBMPlexSans-43"/>
      <use xlink:href="#IBMPlexSans-6f" transform="translate(62.099991 0)"/>
      <use xlink:href="#IBMPlexSans-73" transform="translate(118.099976 0)"/>
      <use xlink:href="#IBMPlexSans-74" transform="translate(166.799973 0)"/>
     </g>
    </g>
    <g id="line2d_78">
     <path d="M 63.640625 183.216899 
L 73.640625 183.216899 
L 83.640625 183.216899 
" style="fill: none; stroke: #2ca02c; stroke-width: 1.5; stroke-linecap: square"/>
    </g>
    <g id="text_25">
     <!-- Criterion -->
     <g transform="translate(91.640625 186.716899) scale(0.1 -0.1)">
      <use xlink:href="#IBMPlexSans-43"/>
      <use xlink:href="#IBMPlexSans-72" transform="translate(62.099991 0)"/>
      <use xlink:href="#IBMPlexSans-69" transform="translate(98.799988 0)"/>
      <use xlink:href="#IBMPlexSans-74" transform="translate(123.799973 0)"/>
      <use xlink:href="#IBMPlexSans-65" transform="translate(158.899963 0)"/>
      <use xlink:href="#IBMPlexSans-72" transform="translate(213.799957 0)"/>
      <use xlink:href="#IBMPlexSans-69" transform="translate(250.499954 0)"/>
      <use xlink:href="#IBMPlexSans-6f" transform="translate(275.499939 0)"/>
      <use xlink:href="#IBMPlexSans-6e" transform="translate(331.499924 0)"/>
     </g>
    </g>
   </g>
  </g>
  <g id="axes_4">
   <g id="patch_12">
    <path d="M 320.120312 274.949519 
L 541.19952 274.949519 
L 541.19952 155.916899 
L 320.120312 155.916899 
z
" style="fill: #ffffff"/>
   </g>
   <g id="PathCollection_2">
    <defs>
     <path id="C1_0_d9e91ec2a7" d="M 0 2.738613 
C 0.726289 2.738613 1.422928 2.450055 1.936492 1.936492 
C 2.450055 1.422928 2.738613 0.726289 2.738613 -0 
C 2.738613 -0.726289 2.450055 -1.422928 1.936492 -1.936492 
C 1.422928 -2.450055 0.726289 -2.738613 0 -2.738613 
C -0.726289 -2.738613 -1.422928 -2.450055 -1.936492 -1.936492 
C -2.450055 -1.422928 -2.738613 -0.726289 -2.738613 0 
C -2.738613 0.726289 -2.450055 1.422928 -1.936492 1.936492 
C -1.422928 2.450055 -0.726289 2.738613 0 2.738613 
z
"/>
    </defs>
    <g clip-path="url(#p9d0bdc85b7)">
     <use xlink:href="#C1_0_d9e91ec2a7" x="360.45419" y="266.79483" style="fill: #fefefe"/>
    </g>
    <g clip-path="url(#p9d0bdc85b7)">
     <use xlink:href="#C1_0_d9e91ec2a7" x="363.207356" y="266.642529" style="fill: #fefefe"/>
    </g>
    <g clip-path="url(#p9d0bdc85b7)">
     <use xlink:href="#C1_0_d9e91ec2a7" x="365.960522" y="266.493615" style="fill: #fefefe"/>
    </g>
    <g clip-path="url(#p9d0bdc85b7)">
     <use xlink:href="#C1_0_d9e91ec2a7" x="368.713687" y="266.310515" style="fill: #fefefe"/>
    </g>
    <g clip-path="url(#p9d0bdc85b7)">
     <use xlink:href="#C1_0_d9e91ec2a7" x="371.466853" y="266.165419" style="fill: #fdfdfd"/>
    </g>
    <g clip-path="url(#p9d0bdc85b7)">
     <use xlink:href="#C1_0_d9e91ec2a7" x="374.220019" y="265.998683" style="fill: #fdfdfd"/>
    </g>
    <g clip-path="url(#p9d0bdc85b7)">
     <use xlink:href="#C1_0_d9e91ec2a7" x="376.973185" y="265.823614" style="fill: #fdfdfd"/>
    </g>
    <g clip-path="url(#p9d0bdc85b7)">
     <use xlink:href="#C1_0_d9e91ec2a7" x="379.72635" y="265.690804" style="fill: #fcfcfc"/>
    </g>
    <g clip-path="url(#p9d0bdc85b7)">
     <use xlink:href="#C1_0_d9e91ec2a7" x="382.479516" y="265.552912" style="fill: #fcfcfc"/>
    </g>
    <g clip-path="url(#p9d0bdc85b7)">
     <use xlink:href="#C1_0_d9e91ec2a7" x="385.232682" y="265.432136" style="fill: #fcfcfc"/>
    </g>
    <g clip-path="url(#p9d0bdc85b7)">
     <use xlink:href="#C1_0_d9e91ec2a7" x="387.985848" y="265.303193" style="fill: #fbfbfb"/>
    </g>
    <g clip-path="url(#p9d0bdc85b7)">
     <use xlink:href="#C1_0_d9e91ec2a7" x="390.739013" y="265.193996" style="fill: #fafafa"/>
    </g>
    <g clip-path="url(#p9d0bdc85b7)">
     <use xlink:href="#C1_0_d9e91ec2a7" x="393.492179" y="265.053752" style="fill: #fafafa"/>
    </g>
    <g clip-path="url(#p9d0bdc85b7)">
     <use xlink:href="#C1_0_d9e91ec2a7" x="396.245345" y="264.935809" style="fill: #f9f9f9"/>
    </g>
    <g clip-path="url(#p9d0bdc85b7)">
     <use xlink:href="#C1_0_d9e91ec2a7" x="398.99851" y="264.815657" style="fill: #f9f9f9"/>
    </g>
    <g clip-path="url(#p9d0bdc85b7)">
     <use xlink:href="#C1_0_d9e91ec2a7" x="401.751676" y="264.695195" style="fill: #f9f9f9"/>
    </g>
    <g clip-path="url(#p9d0bdc85b7)">
     <use xlink:href="#C1_0_d9e91ec2a7" x="404.504842" y="264.591502" style="fill: #f8f8f8"/>
    </g>
    <g clip-path="url(#p9d0bdc85b7)">
     <use xlink:href="#C1_0_d9e91ec2a7" x="407.258008" y="264.51277" style="fill: #f7f7f7"/>
    </g>
    <g clip-path="url(#p9d0bdc85b7)">
     <use xlink:href="#C1_0_d9e91ec2a7" x="410.011173" y="264.437511" style="fill: #f6f6f6"/>
    </g>
    <g clip-path="url(#p9d0bdc85b7)">
     <use xlink:href="#C1_0_d9e91ec2a7" x="412.764339" y="264.368264" style="fill: #f5f5f5"/>
    </g>
    <g clip-path="url(#p9d0bdc85b7)">
     <use xlink:href="#C1_0_d9e91ec2a7" x="415.517505" y="264.317375" style="fill: #f3f3f3"/>
    </g>
    <g clip-path="url(#p9d0bdc85b7)">
     <use xlink:href="#C1_0_d9e91ec2a7" x="418.27067" y="264.26438" style="fill: #f1f1f1"/>
    </g>
    <g clip-path="url(#p9d0bdc85b7)">
     <use xlink:href="#C1_0_d9e91ec2a7" x="421.023836" y="264.223567" style="fill: #eeeeee"/>
    </g>
    <g clip-path="url(#p9d0bdc85b7)">
     <use xlink:href="#C1_0_d9e91ec2a7" x="423.777002" y="264.172962" style="fill: #ececec"/>
    </g>
    <g clip-path="url(#p9d0bdc85b7)">
     <use xlink:href="#C1_0_d9e91ec2a7" x="426.530168" y="264.132156" style="fill: #e7e7e7"/>
    </g>
    <g clip-path="url(#p9d0bdc85b7)">
     <use xlink:href="#C1_0_d9e91ec2a7" x="429.283333" y="264.098113" style="fill: #e2e2e2"/>
    </g>
    <g clip-path="url(#p9d0bdc85b7)">
     <use xlink:href="#C1_0_d9e91ec2a7" x="432.036499" y="264.066358" style="fill: #dcdcdc"/>
    </g>
    <g clip-path="url(#p9d0bdc85b7)">
     <use xlink:href="#C1_0_d9e91ec2a7" x="434.789665" y="264.043268" style="fill: #d5d5d5"/>
    </g>
    <g clip-path="url(#p9d0bdc85b7)">
     <use xlink:href="#C1_0_d9e91ec2a7" x="437.542831" y="264.018928" style="fill: #cccccc"/>
    </g>
    <g clip-path="url(#p9d0bdc85b7)">
     <use xlink:href="#C1_0_d9e91ec2a7" x="440.295996" y="263.996755" style="fill: #c4c4c4"/>
    </g>
    <g clip-path="url(#p9d0bdc85b7)">
     <use xlink:href="#C1_0_d9e91ec2a7" x="443.049162" y="263.975405" style="fill: #b6b6b6"/>
    </g>
    <g clip-path="url(#p9d0bdc85b7)">
     <use xlink:href="#C1_0_d9e91ec2a7" x="445.802328" y="263.960161" style="fill: #a5a5a5"/>
    </g>
    <g clip-path="url(#p9d0bdc85b7)">
     <use xlink:href="#C1_0_d9e91ec2a7" x="448.555493" y="263.943289" style="fill: #8e8e8e"/>
    </g>
    <g clip-path="url(#p9d0bdc85b7)">
     <use xlink:href="#C1_0_d9e91ec2a7" x="451.308659" y="263.930978" style="fill: #737373"/>
    </g>
    <g clip-path="url(#p9d0bdc85b7)">
     <use xlink:href="#C1_0_d9e91ec2a7" x="454.061825" y="263.920492" style="fill: #545454"/>
    </g>
    <g clip-path="url(#p9d0bdc85b7)">
     <use xlink:href="#C1_0_d9e91ec2a7" x="456.814991" y="263.902379" style="fill: #282828"/>
    </g>
    <g clip-path="url(#p9d0bdc85b7)">
     <use xlink:href="#C1_0_d9e91ec2a7" x="459.568156" y="263.886832" style="fill: #090909"/>
    </g>
    <g clip-path="url(#p9d0bdc85b7)">
     <use xlink:href="#C1_0_d9e91ec2a7" x="462.321322" y="263.862611"/>
    </g>
    <g clip-path="url(#p9d0bdc85b7)">
     <use xlink:href="#C1_0_d9e91ec2a7" x="465.074488" y="263.83831" style="fill: #1f1f1f"/>
    </g>
    <g clip-path="url(#p9d0bdc85b7)">
     <use xlink:href="#C1_0_d9e91ec2a7" x="467.827654" y="263.803394" style="fill: #6d6d6d"/>
    </g>
    <g clip-path="url(#p9d0bdc85b7)">
     <use xlink:href="#C1_0_d9e91ec2a7" x="470.580819" y="263.767386" style="fill: #c3c3c3"/>
    </g>
    <g clip-path="url(#p9d0bdc85b7)">
     <use xlink:href="#C1_0_d9e91ec2a7" x="473.333985" y="263.728037" style="fill: #eeeeee"/>
    </g>
    <g clip-path="url(#p9d0bdc85b7)">
     <use xlink:href="#C1_0_d9e91ec2a7" x="476.087151" y="263.686709" style="fill: #fbfbfb"/>
    </g>
   </g>
   <g id="PathCollection_3">
    <defs>
     <path id="C2_0_c68cf56801" d="M 0 2.738613 
C 0.726289 2.738613 1.422928 2.450055 1.936492 1.936492 
C 2.450055 1.422928 2.738613 0.726289 2.738613 -0 
C 2.738613 -0.726289 2.450055 -1.422928 1.936492 -1.936492 
C 1.422928 -2.450055 0.726289 -2.738613 0 -2.738613 
C -0.726289 -2.738613 -1.422928 -2.450055 -1.936492 -1.936492 
C -2.450055 -1.422928 -2.738613 -0.726289 -2.738613 0 
C -2.738613 0.726289 -2.450055 1.422928 -1.936492 1.936492 
C -1.422928 2.450055 -0.726289 2.738613 0 2.738613 
z
"/>
    </defs>
    <g clip-path="url(#p9d0bdc85b7)">
     <use xlink:href="#C2_0_c68cf56801" x="360.45419" y="161.536764" style="fill: #fefefe"/>
    </g>
    <g clip-path="url(#p9d0bdc85b7)">
     <use xlink:href="#C2_0_c68cf56801" x="363.207356" y="161.548823" style="fill: #fefefe"/>
    </g>
    <g clip-path="url(#p9d0bdc85b7)">
     <use xlink:href="#C2_0_c68cf56801" x="365.960522" y="161.560659" style="fill: #fefefe"/>
    </g>
    <g clip-path="url(#p9d0bdc85b7)">
     <use xlink:href="#C2_0_c68cf56801" x="368.713687" y="161.575277" style="fill: #fefefe"/>
    </g>
    <g clip-path="url(#p9d0bdc85b7)">
     <use xlink:href="#C2_0_c68cf56801" x="371.466853" y="161.586909" style="fill: #fdfdfd"/>
    </g>
    <g clip-path="url(#p9d0bdc85b7)">
     <use xlink:href="#C2_0_c68cf56801" x="374.220019" y="161.600332" style="fill: #fdfdfd"/>
    </g>
    <g clip-path="url(#p9d0bdc85b7)">
     <use xlink:href="#C2_0_c68cf56801" x="376.973185" y="161.614487" style="fill: #fdfdfd"/>
    </g>
    <g clip-path="url(#p9d0bdc85b7)">
     <use xlink:href="#C2_0_c68cf56801" x="379.72635" y="161.62527" style="fill: #fcfcfc"/>
    </g>
    <g clip-path="url(#p9d0bdc85b7)">
     <use xlink:href="#C2_0_c68cf56801" x="382.479516" y="161.636504" style="fill: #fcfcfc"/>
    </g>
    <g clip-path="url(#p9d0bdc85b7)">
     <use xlink:href="#C2_0_c68cf56801" x="385.232682" y="161.646377" style="fill: #fcfcfc"/>
    </g>
    <g clip-path="url(#p9d0bdc85b7)">
     <use xlink:href="#C2_0_c68cf56801" x="387.985848" y="161.656952" style="fill: #fbfbfb"/>
    </g>
    <g clip-path="url(#p9d0bdc85b7)">
     <use xlink:href="#C2_0_c68cf56801" x="390.739013" y="161.665935" style="fill: #fafafa"/>
    </g>
    <g clip-path="url(#p9d0bdc85b7)">
     <use xlink:href="#C2_0_c68cf56801" x="393.492179" y="161.67751" style="fill: #fafafa"/>
    </g>
    <g clip-path="url(#p9d0bdc85b7)">
     <use xlink:href="#C2_0_c68cf56801" x="396.245345" y="161.687278" style="fill: #f9f9f9"/>
    </g>
    <g clip-path="url(#p9d0bdc85b7)">
     <use xlink:href="#C2_0_c68cf56801" x="398.99851" y="161.697259" style="fill: #f9f9f9"/>
    </g>
    <g clip-path="url(#p9d0bdc85b7)">
     <use xlink:href="#C2_0_c68cf56801" x="401.751676" y="161.707298" style="fill: #f9f9f9"/>
    </g>
    <g clip-path="url(#p9d0bdc85b7)">
     <use xlink:href="#C2_0_c68cf56801" x="404.504842" y="161.715964" style="fill: #f8f8f8"/>
    </g>
    <g clip-path="url(#p9d0bdc85b7)">
     <use xlink:href="#C2_0_c68cf56801" x="407.258008" y="161.72256" style="fill: #f7f7f7"/>
    </g>
    <g clip-path="url(#p9d0bdc85b7)">
     <use xlink:href="#C2_0_c68cf56801" x="410.011173" y="161.728878" style="fill: #f6f6f6"/>
    </g>
    <g clip-path="url(#p9d0bdc85b7)">
     <use xlink:href="#C2_0_c68cf56801" x="412.764339" y="161.734702" style="fill: #f5f5f5"/>
    </g>
    <g clip-path="url(#p9d0bdc85b7)">
     <use xlink:href="#C2_0_c68cf56801" x="415.517505" y="161.738989" style="fill: #f3f3f3"/>
    </g>
    <g clip-path="url(#p9d0bdc85b7)">
     <use xlink:href="#C2_0_c68cf56801" x="418.27067" y="161.743459" style="fill: #f1f1f1"/>
    </g>
    <g clip-path="url(#p9d0bdc85b7)">
     <use xlink:href="#C2_0_c68cf56801" x="421.023836" y="161.746906" style="fill: #eeeeee"/>
    </g>
    <g clip-path="url(#p9d0bdc85b7)">
     <use xlink:href="#C2_0_c68cf56801" x="423.777002" y="161.751185" style="fill: #ececec"/>
    </g>
    <g clip-path="url(#p9d0bdc85b7)">
     <use xlink:href="#C2_0_c68cf56801" x="426.530168" y="161.75464" style="fill: #e7e7e7"/>
    </g>
    <g clip-path="url(#p9d0bdc85b7)">
     <use xlink:href="#C2_0_c68cf56801" x="429.283333" y="161.757524" style="fill: #e2e2e2"/>
    </g>
    <g clip-path="url(#p9d0bdc85b7)">
     <use xlink:href="#C2_0_c68cf56801" x="432.036499" y="161.760218" style="fill: #dcdcdc"/>
    </g>
    <g clip-path="url(#p9d0bdc85b7)">
     <use xlink:href="#C2_0_c68cf56801" x="434.789665" y="161.762177" style="fill: #d5d5d5"/>
    </g>
    <g clip-path="url(#p9d0bdc85b7)">
     <use xlink:href="#C2_0_c68cf56801" x="437.542831" y="161.764245" style="fill: #cccccc"/>
    </g>
    <g clip-path="url(#p9d0bdc85b7)">
     <use xlink:href="#C2_0_c68cf56801" x="440.295996" y="161.766129" style="fill: #c4c4c4"/>
    </g>
    <g clip-path="url(#p9d0bdc85b7)">
     <use xlink:href="#C2_0_c68cf56801" x="443.049162" y="161.767944" style="fill: #b6b6b6"/>
    </g>
    <g clip-path="url(#p9d0bdc85b7)">
     <use xlink:href="#C2_0_c68cf56801" x="445.802328" y="161.769241" style="fill: #a5a5a5"/>
    </g>
    <g clip-path="url(#p9d0bdc85b7)">
     <use xlink:href="#C2_0_c68cf56801" x="448.555493" y="161.770677" style="fill: #8e8e8e"/>
    </g>
    <g clip-path="url(#p9d0bdc85b7)">
     <use xlink:href="#C2_0_c68cf56801" x="451.308659" y="161.771725" style="fill: #737373"/>
    </g>
    <g clip-path="url(#p9d0bdc85b7)">
     <use xlink:href="#C2_0_c68cf56801" x="454.061825" y="161.772618" style="fill: #545454"/>
    </g>
    <g clip-path="url(#p9d0bdc85b7)">
     <use xlink:href="#C2_0_c68cf56801" x="456.814991" y="161.774161" style="fill: #282828"/>
    </g>
    <g clip-path="url(#p9d0bdc85b7)">
     <use xlink:href="#C2_0_c68cf56801" x="459.568156" y="161.775486" style="fill: #090909"/>
    </g>
    <g clip-path="url(#p9d0bdc85b7)">
     <use xlink:href="#C2_0_c68cf56801" x="462.321322" y="161.777552"/>
    </g>
    <g clip-path="url(#p9d0bdc85b7)">
     <use xlink:href="#C2_0_c68cf56801" x="465.074488" y="161.779625" style="fill: #1f1f1f"/>
    </g>
    <g clip-path="url(#p9d0bdc85b7)">
     <use xlink:href="#C2_0_c68cf56801" x="467.827654" y="161.782607" style="fill: #6d6d6d"/>
    </g>
    <g clip-path="url(#p9d0bdc85b7)">
     <use xlink:href="#C2_0_c68cf56801" x="470.580819" y="161.785685" style="fill: #c3c3c3"/>
    </g>
    <g clip-path="url(#p9d0bdc85b7)">
     <use xlink:href="#C2_0_c68cf56801" x="473.333985" y="161.789051" style="fill: #eeeeee"/>
    </g>
    <g clip-path="url(#p9d0bdc85b7)">
     <use xlink:href="#C2_0_c68cf56801" x="476.087151" y="161.792591" style="fill: #fbfbfb"/>
    </g>
   </g>
   <g id="matplotlib.axis_7">
    <g id="xtick_61">
     <g id="line2d_79">
      <g>
       <use xlink:href="#m487055f843" x="329.155998" y="274.949519" style="stroke: #000000; stroke-width: 0.8"/>
      </g>
     </g>
     <g id="text_26">
      <!-- $\mathdefault{10^{-2}}$ -->
      <g transform="translate(318.755998 289.349519) scale(0.1 -0.1)">
       <use xlink:href="#IBMPlexSans-31" transform="translate(0 0.184375)"/>
       <use xlink:href="#IBMPlexSans-30" transform="translate(59.999985 0.184375)"/>
       <use xlink:href="#IBMPlexSans-2212" transform="translate(120.90286 36.3) scale(0.7)"/>
       <use xlink:href="#IBMPlexSans-32" transform="translate(162.902849 36.3) scale(0.7)"/>
      </g>
     </g>
    </g>
    <g id="xtick_62">
     <g id="line2d_80">
      <g>
       <use xlink:href="#m487055f843" x="430.586372" y="274.949519" style="stroke: #000000; stroke-width: 0.8"/>
      </g>
     </g>
     <g id="text_27">
      <!-- $\mathdefault{10^{-1}}$ -->
      <g transform="translate(420.186372 289.349519) scale(0.1 -0.1)">
       <use xlink:href="#IBMPlexSans-31" transform="translate(0 0.026563)"/>
       <use xlink:href="#IBMPlexSans-30" transform="translate(59.999985 0.026563)"/>
       <use xlink:href="#IBMPlexSans-2212" transform="translate(120.90286 36.142188) scale(0.7)"/>
       <use xlink:href="#IBMPlexSans-31" transform="translate(162.902849 36.142188) scale(0.7)"/>
      </g>
     </g>
    </g>
    <g id="xtick_63">
     <g id="line2d_81">
      <g>
       <use xlink:href="#m487055f843" x="532.016745" y="274.949519" style="stroke: #000000; stroke-width: 0.8"/>
      </g>
     </g>
     <g id="text_28">
      <!-- $\mathdefault{10^{0}}$ -->
      <g transform="translate(523.716745 289.349519) scale(0.1 -0.1)">
       <use xlink:href="#IBMPlexSans-31" transform="translate(0 0.184375)"/>
       <use xlink:href="#IBMPlexSans-30" transform="translate(59.999985 0.184375)"/>
       <use xlink:href="#IBMPlexSans-30" transform="translate(120.90286 36.3) scale(0.7)"/>
      </g>
     </g>
    </g>
    <g id="xtick_64">
     <g id="line2d_82">
      <g>
       <use xlink:href="#m73e0556dc8" x="324.514799" y="274.949519" style="stroke: #000000; stroke-width: 0.6"/>
      </g>
     </g>
    </g>
    <g id="xtick_65">
     <g id="line2d_83">
      <g>
       <use xlink:href="#m73e0556dc8" x="359.689583" y="274.949519" style="stroke: #000000; stroke-width: 0.6"/>
      </g>
     </g>
    </g>
    <g id="xtick_66">
     <g id="line2d_84">
      <g>
       <use xlink:href="#m73e0556dc8" x="377.550585" y="274.949519" style="stroke: #000000; stroke-width: 0.6"/>
      </g>
     </g>
    </g>
    <g id="xtick_67">
     <g id="line2d_85">
      <g>
       <use xlink:href="#m73e0556dc8" x="390.223168" y="274.949519" style="stroke: #000000; stroke-width: 0.6"/>
      </g>
     </g>
    </g>
    <g id="xtick_68">
     <g id="line2d_86">
      <g>
       <use xlink:href="#m73e0556dc8" x="400.052787" y="274.949519" style="stroke: #000000; stroke-width: 0.6"/>
      </g>
     </g>
    </g>
    <g id="xtick_69">
     <g id="line2d_87">
      <g>
       <use xlink:href="#m73e0556dc8" x="408.08417" y="274.949519" style="stroke: #000000; stroke-width: 0.6"/>
      </g>
     </g>
    </g>
    <g id="xtick_70">
     <g id="line2d_88">
      <g>
       <use xlink:href="#m73e0556dc8" x="414.874608" y="274.949519" style="stroke: #000000; stroke-width: 0.6"/>
      </g>
     </g>
    </g>
    <g id="xtick_71">
     <g id="line2d_89">
      <g>
       <use xlink:href="#m73e0556dc8" x="420.756753" y="274.949519" style="stroke: #000000; stroke-width: 0.6"/>
      </g>
     </g>
    </g>
    <g id="xtick_72">
     <g id="line2d_90">
      <g>
       <use xlink:href="#m73e0556dc8" x="425.945172" y="274.949519" style="stroke: #000000; stroke-width: 0.6"/>
      </g>
     </g>
    </g>
    <g id="xtick_73">
     <g id="line2d_91">
      <g>
       <use xlink:href="#m73e0556dc8" x="461.119956" y="274.949519" style="stroke: #000000; stroke-width: 0.6"/>
      </g>
     </g>
    </g>
    <g id="xtick_74">
     <g id="line2d_92">
      <g>
       <use xlink:href="#m73e0556dc8" x="478.980959" y="274.949519" style="stroke: #000000; stroke-width: 0.6"/>
      </g>
     </g>
    </g>
    <g id="xtick_75">
     <g id="line2d_93">
      <g>
       <use xlink:href="#m73e0556dc8" x="491.653541" y="274.949519" style="stroke: #000000; stroke-width: 0.6"/>
      </g>
     </g>
    </g>
    <g id="xtick_76">
     <g id="line2d_94">
      <g>
       <use xlink:href="#m73e0556dc8" x="501.48316" y="274.949519" style="stroke: #000000; stroke-width: 0.6"/>
      </g>
     </g>
    </g>
    <g id="xtick_77">
     <g id="line2d_95">
      <g>
       <use xlink:href="#m73e0556dc8" x="509.514544" y="274.949519" style="stroke: #000000; stroke-width: 0.6"/>
      </g>
     </g>
    </g>
    <g id="xtick_78">
     <g id="line2d_96">
      <g>
       <use xlink:href="#m73e0556dc8" x="516.304981" y="274.949519" style="stroke: #000000; stroke-width: 0.6"/>
      </g>
     </g>
    </g>
    <g id="xtick_79">
     <g id="line2d_97">
      <g>
       <use xlink:href="#m73e0556dc8" x="522.187126" y="274.949519" style="stroke: #000000; stroke-width: 0.6"/>
      </g>
     </g>
    </g>
    <g id="xtick_80">
     <g id="line2d_98">
      <g>
       <use xlink:href="#m73e0556dc8" x="527.375546" y="274.949519" style="stroke: #000000; stroke-width: 0.6"/>
      </g>
     </g>
    </g>
    <g id="text_29">
     <!-- Cutoff frequency [THz] -->
     <g transform="translate(380.138822 302.949519) scale(0.1 -0.1)">
      <use xlink:href="#IBMPlexSans-43"/>
      <use xlink:href="#IBMPlexSans-75" transform="translate(62.099991 0)"/>
      <use xlink:href="#IBMPlexSans-74" transform="translate(118.899979 0)"/>
      <use xlink:href="#IBMPlexSans-6f" transform="translate(153.999969 0)"/>
      <use xlink:href="#IBMPlexSans-66" transform="translate(209.999954 0)"/>
      <use xlink:href="#IBMPlexSans-66" transform="translate(242.399948 0)"/>
      <use xlink:href="#IBMPlexSans-20" transform="translate(274.799942 0)"/>
      <use xlink:href="#IBMPlexSans-66" transform="translate(298.399933 0)"/>
      <use xlink:href="#IBMPlexSans-72" transform="translate(330.799927 0)"/>
      <use xlink:href="#IBMPlexSans-65" transform="translate(367.499924 0)"/>
      <use xlink:href="#IBMPlexSans-71" transform="translate(422.399918 0)"/>
      <use xlink:href="#IBMPlexSans-75" transform="translate(480.399902 0)"/>
      <use xlink:href="#IBMPlexSans-65" transform="translate(537.19989 0)"/>
      <use xlink:href="#IBMPlexSans-6e" transform="translate(592.099884 0)"/>
      <use xlink:href="#IBMPlexSans-63" transform="translate(648.899872 0)"/>
      <use xlink:href="#IBMPlexSans-79" transform="translate(699.19986 0)"/>
      <use xlink:href="#IBMPlexSans-20" transform="translate(749.099854 0)"/>
      <use xlink:href="#IBMPlexSans-5b" transform="translate(772.699844 0)"/>
      <use xlink:href="#IBMPlexSans-54" transform="translate(804.399841 0)"/>
      <use xlink:href="#IBMPlexSans-48" transform="translate(861.599838 0)"/>
      <use xlink:href="#IBMPlexSans-7a" transform="translate(932.29982 0)"/>
      <use xlink:href="#IBMPlexSans-5d" transform="translate(978.699814 0)"/>
     </g>
    </g>
   </g>
   <g id="matplotlib.axis_8">
    <g id="ytick_11">
     <g id="line2d_99">
      <g>
       <use xlink:href="#m7f77e65294" x="320.120312" y="187.1288" style="stroke: #000000; stroke-width: 0.8"/>
      </g>
     </g>
     <g id="text_30">
      <!-- $\mathdefault{10^{0}}$ -->
      <g transform="translate(296.520312 190.8288) scale(0.1 -0.1)">
       <use xlink:href="#IBMPlexSans-31" transform="translate(0 0.184375)"/>
       <use xlink:href="#IBMPlexSans-30" transform="translate(59.999985 0.184375)"/>
       <use xlink:href="#IBMPlexSans-30" transform="translate(120.90286 36.3) scale(0.7)"/>
      </g>
     </g>
    </g>
    <g id="ytick_12">
     <g id="line2d_100">
      <defs>
       <path id="maa69f8d03b" d="M 0 0 
L -2 0 
" style="stroke: #000000; stroke-width: 0.6"/>
      </defs>
      <g>
       <use xlink:href="#maa69f8d03b" x="320.120312" y="253.875125" style="stroke: #000000; stroke-width: 0.6"/>
      </g>
     </g>
    </g>
    <g id="ytick_13">
     <g id="line2d_101">
      <g>
       <use xlink:href="#maa69f8d03b" x="320.120312" y="237.059748" style="stroke: #000000; stroke-width: 0.6"/>
      </g>
     </g>
    </g>
    <g id="ytick_14">
     <g id="line2d_102">
      <g>
       <use xlink:href="#maa69f8d03b" x="320.120312" y="225.129048" style="stroke: #000000; stroke-width: 0.6"/>
      </g>
     </g>
    </g>
    <g id="ytick_15">
     <g id="line2d_103">
      <g>
       <use xlink:href="#maa69f8d03b" x="320.120312" y="215.874878" style="stroke: #000000; stroke-width: 0.6"/>
      </g>
     </g>
    </g>
    <g id="ytick_16">
     <g id="line2d_104">
      <g>
       <use xlink:href="#maa69f8d03b" x="320.120312" y="208.31367" style="stroke: #000000; stroke-width: 0.6"/>
      </g>
     </g>
    </g>
    <g id="ytick_17">
     <g id="line2d_105">
      <g>
       <use xlink:href="#maa69f8d03b" x="320.120312" y="201.92076" style="stroke: #000000; stroke-width: 0.6"/>
      </g>
     </g>
    </g>
    <g id="ytick_18">
     <g id="line2d_106">
      <g>
       <use xlink:href="#maa69f8d03b" x="320.120312" y="196.38297" style="stroke: #000000; stroke-width: 0.6"/>
      </g>
     </g>
    </g>
    <g id="ytick_19">
     <g id="line2d_107">
      <g>
       <use xlink:href="#maa69f8d03b" x="320.120312" y="191.498293" style="stroke: #000000; stroke-width: 0.6"/>
      </g>
     </g>
    </g>
    <g id="ytick_20">
     <g id="line2d_108">
      <g>
       <use xlink:href="#maa69f8d03b" x="320.120312" y="158.382722" style="stroke: #000000; stroke-width: 0.6"/>
      </g>
     </g>
    </g>
    <g id="text_31">
     <!-- Hessian Eigenvalues -->
     <g transform="translate(290.4 261.424615) rotate(-90) scale(0.1 -0.1)">
      <defs>
       <path id="IBMPlexSans-61" d="M 3232 0 
L 3232 448 
L 2854 448 
L 2854 2266 
C 2854 2963 2381 3379 1587 3379 
C 992 3379 595 3085 416 2733 
L 723 2445 
C 902 2746 1165 2938 1562 2938 
C 2086 2938 2342 2682 2342 2214 
L 2342 1888 
L 1690 1888 
C 730 1888 282 1542 282 922 
C 282 307 691 -77 1389 -77 
C 1850 -77 2202 134 2342 538 
L 2374 538 
C 2413 230 2566 0 2944 0 
L 3232 0 
z
M 1472 358 
C 1075 358 819 544 819 870 
L 819 1005 
C 819 1325 1082 1504 1664 1504 
L 2342 1504 
L 2342 960 
C 2342 621 1978 358 1472 358 
z
" transform="scale(0.015625)"/>
       <path id="IBMPlexSans-45" d="M 3322 0 
L 3322 474 
L 1133 474 
L 1133 2022 
L 3194 2022 
L 3194 2496 
L 1133 2496 
L 1133 3994 
L 3322 3994 
L 3322 4467 
L 595 4467 
L 595 0 
L 3322 0 
z
" transform="scale(0.015625)"/>
      </defs>
      <use xlink:href="#IBMPlexSans-48"/>
      <use xlink:href="#IBMPlexSans-65" transform="translate(70.699982 0)"/>
      <use xlink:href="#IBMPlexSans-73" transform="translate(125.599976 0)"/>
      <use xlink:href="#IBMPlexSans-73" transform="translate(174.299973 0)"/>
      <use xlink:href="#IBMPlexSans-69" transform="translate(222.999969 0)"/>
      <use xlink:href="#IBMPlexSans-61" transform="translate(247.999954 0)"/>
      <use xlink:href="#IBMPlexSans-6e" transform="translate(301.399948 0)"/>
      <use xlink:href="#IBMPlexSans-20" transform="translate(358.199936 0)"/>
      <use xlink:href="#IBMPlexSans-45" transform="translate(381.799927 0)"/>
      <use xlink:href="#IBMPlexSans-69" transform="translate(440.099915 0)"/>
      <use xlink:href="#IBMPlexSans-67" transform="translate(465.099899 0)"/>
      <use xlink:href="#IBMPlexSans-65" transform="translate(517.899887 0)"/>
      <use xlink:href="#IBMPlexSans-6e" transform="translate(572.799881 0)"/>
      <use xlink:href="#IBMPlexSans-76" transform="translate(629.599869 0)"/>
      <use xlink:href="#IBMPlexSans-61" transform="translate(678.799866 0)"/>
      <use xlink:href="#IBMPlexSans-6c" transform="translate(732.19986 0)"/>
      <use xlink:href="#IBMPlexSans-75" transform="translate(759.399857 0)"/>
      <use xlink:href="#IBMPlexSans-65" transform="translate(816.199844 0)"/>
      <use xlink:href="#IBMPlexSans-73" transform="translate(871.099838 0)"/>
     </g>
    </g>
   </g>
   <g id="line2d_109">
    <path d="M 330.169367 269.538945 
L 332.922533 269.203512 
L 335.675699 268.840969 
L 338.428865 268.512463 
L 341.18203 268.214269 
L 343.935196 267.963801 
L 346.688362 267.727844 
L 349.441527 267.52156 
L 352.194693 267.297988 
L 354.947859 267.131149 
L 357.701025 266.954546 
L 360.45419 266.79483 
L 363.207356 266.642529 
L 365.960522 266.493615 
L 368.713687 266.310515 
L 371.466853 266.165419 
L 374.220019 265.998683 
L 376.973185 265.823614 
L 379.72635 265.690804 
L 382.479516 265.552912 
L 385.232682 265.432136 
L 387.985848 265.303193 
L 390.739013 265.193996 
L 393.492179 265.053752 
L 396.245345 264.935809 
L 398.99851 264.815657 
L 401.751676 264.695195 
L 404.504842 264.591502 
L 407.258008 264.51277 
L 410.011173 264.437511 
L 412.764339 264.368264 
L 415.517505 264.317375 
L 418.27067 264.26438 
L 421.023836 264.223567 
L 423.777002 264.172962 
L 426.530168 264.132156 
L 429.283333 264.098113 
L 432.036499 264.066358 
L 434.789665 264.043268 
L 437.542831 264.018928 
L 440.295996 263.996755 
L 443.049162 263.975405 
L 445.802328 263.960161 
L 448.555493 263.943289 
L 451.308659 263.930978 
L 454.061825 263.920492 
L 456.814991 263.902379 
L 459.568156 263.886832 
L 462.321322 263.862611 
L 465.074488 263.83831 
L 467.827654 263.803394 
L 470.580819 263.767386 
L 473.333985 263.728037 
L 476.087151 263.686709 
L 478.840316 263.646143 
L 481.593482 263.604853 
L 484.346648 263.563109 
L 487.099814 263.527565 
L 489.852979 263.494666 
L 492.606145 263.46703 
L 495.359311 263.44391 
L 498.112476 263.422206 
L 500.865642 263.403943 
L 503.618808 263.384015 
L 506.371974 263.365373 
L 509.125139 263.348701 
L 511.878305 263.336333 
L 514.631471 263.328418 
L 517.384637 263.33024 
L 520.137802 263.340148 
L 522.890968 263.358603 
L 525.644134 263.384168 
L 528.397299 263.415882 
L 531.150465 263.453152 
" clip-path="url(#p9d0bdc85b7)" style="fill: none; stroke: #9467bd; stroke-width: 1.5; stroke-linecap: square"/>
   </g>
   <g id="line2d_110">
    <path d="M 330.169367 161.327473 
L 332.922533 161.352264 
L 335.675699 161.379303 
L 338.428865 161.404023 
L 341.18203 161.426645 
L 343.935196 161.445782 
L 346.688362 161.463925 
L 349.441527 161.479878 
L 352.194693 161.497264 
L 354.947859 161.510304 
L 357.701025 161.52417 
L 360.45419 161.536764 
L 363.207356 161.548823 
L 365.960522 161.560659 
L 368.713687 161.575277 
L 371.466853 161.586909 
L 374.220019 161.600332 
L 376.973185 161.614487 
L 379.72635 161.62527 
L 382.479516 161.636504 
L 385.232682 161.646377 
L 387.985848 161.656952 
L 390.739013 161.665935 
L 393.492179 161.67751 
L 396.245345 161.687278 
L 398.99851 161.697259 
L 401.751676 161.707298 
L 404.504842 161.715964 
L 407.258008 161.72256 
L 410.011173 161.728878 
L 412.764339 161.734702 
L 415.517505 161.738989 
L 418.27067 161.743459 
L 421.023836 161.746906 
L 423.777002 161.751185 
L 426.530168 161.75464 
L 429.283333 161.757524 
L 432.036499 161.760218 
L 434.789665 161.762177 
L 437.542831 161.764245 
L 440.295996 161.766129 
L 443.049162 161.767944 
L 445.802328 161.769241 
L 448.555493 161.770677 
L 451.308659 161.771725 
L 454.061825 161.772618 
L 456.814991 161.774161 
L 459.568156 161.775486 
L 462.321322 161.777552 
L 465.074488 161.779625 
L 467.827654 161.782607 
L 470.580819 161.785685 
L 473.333985 161.789051 
L 476.087151 161.792591 
L 478.840316 161.796069 
L 481.593482 161.799613 
L 484.346648 161.8032 
L 487.099814 161.806258 
L 489.852979 161.80909 
L 492.606145 161.811471 
L 495.359311 161.813464 
L 498.112476 161.815337 
L 500.865642 161.816913 
L 503.618808 161.818634 
L 506.371974 161.820244 
L 509.125139 161.821686 
L 511.878305 161.822755 
L 514.631471 161.82344 
L 517.384637 161.823282 
L 520.137802 161.822425 
L 522.890968 161.82083 
L 525.644134 161.818621 
L 528.397299 161.815882 
L 531.150465 161.812667 
" clip-path="url(#p9d0bdc85b7)" style="fill: none; stroke: #9467bd; stroke-width: 1.5; stroke-linecap: square"/>
   </g>
   <g id="patch_13">
    <path d="M 320.120312 274.949519 
L 320.120312 155.916899 
" style="fill: none; stroke: #000000; stroke-width: 0.8; stroke-linejoin: miter; stroke-linecap: square"/>
   </g>
   <g id="patch_14">
    <path d="M 320.120312 274.949519 
L 541.19952 274.949519 
" style="fill: none; stroke: #000000; stroke-width: 0.8; stroke-linejoin: miter; stroke-linecap: square"/>
   </g>
  </g>
 </g>
 <defs>
  <clipPath id="p2568bafd6e">
   <rect x="54.640625" y="10.7838" width="221.079207" height="119.032619"/>
  </clipPath>
  <clipPath id="peedfa5a4de">
   <rect x="320.120312" y="10.7838" width="221.079207" height="119.032619"/>
  </clipPath>
  <clipPath id="p231fc0acde">
   <rect x="54.640625" y="155.916899" width="221.079207" height="119.032619"/>
  </clipPath>
  <clipPath id="p9d0bdc85b7">
   <rect x="320.120312" y="155.916899" width="221.079207" height="119.032619"/>
  </clipPath>
 </defs>
</svg>