<?xml version="1.0" encoding="utf-8" standalone="no"?>
<!DOCTYPE svg PUBLIC "-//W3C//DTD SVG 1.1//EN"
  "http://www.w3.org/Graphics/SVG/1.1/DTD/svg11.dtd">
<svg xmlns:xlink="http://www.w3.org/1999/xlink" width="548.39952pt" height="312.14952pt" viewBox="0 0 548.39952 312.14952" xmlns="http://www.w3.org/2000/svg" version="1.1">
 <metadata>
  <rdf:RDF xmlns:dc="http://purl.org/dc/elements/1.1/" xmlns:cc="http://creativecommons.org/ns#" xmlns:rdf="http://www.w3.org/1999/02/22-rdf-syntax-ns#">
   <cc:Work>
    <dc:type rdf:resource="http://purl.org/dc/dcmitype/StillImage"/>
    <dc:date>2025-06-25T08:45:29.199388</dc:date>
    <dc:format>image/svg+xml</dc:format>
    <dc:creator>
     <cc:Agent>
      <dc:title>Matplotlib v3.10.1, https://matplotlib.org/</dc:title>
     </cc:Agent>
    </dc:creator>
   </cc:Work>
  </rdf:RDF>
 </metadata>
 <defs>
  <style type="text/css">*{stroke-linejoin: round; stroke-linecap: butt}</style>
 </defs>
 <g id="figure_1">
  <g id="patch_1">
   <path d="M 0 312.14952 
L 548.39952 312.14952 
L 548.39952 0 
L 0 0 
z
" style="fill: #ffffff"/>
  </g>
  <g id="axes_1">
   <g id="patch_2">
    <path d="M 45.8 274.94952 
L 541.19952 274.94952 
L 541.19952 22.32 
L 45.8 22.32 
z
" style="fill: #ffffff"/>
   </g>
   <g id="matplotlib.axis_1">
    <g id="xtick_1">
     <g id="line2d_1">
      <defs>
       <path id="m64fb4cb6b7" d="M 0 0 
L 0 3.5 
" style="stroke: #000000; stroke-width: 0.8"/>
      </defs>
      <g>
       <use xlink:href="#m64fb4cb6b7" x="68.31816" y="274.94952" style="stroke: #000000; stroke-width: 0.8"/>
      </g>
     </g>
     <g id="text_1">
      <!-- 0 -->
      <g transform="translate(65.31816 289.34952) scale(0.1 -0.1)">
       <defs>
        <path id="IBMPlexSans-30" d="M 1920 -77 
C 2989 -77 3456 774 3456 2234 
C 3456 3693 2989 4544 1920 4544 
C 851 4544 384 3693 384 2234 
C 384 774 851 -77 1920 -77 
z
M 1920 390 
C 1222 390 947 1005 947 1869 
L 947 2598 
C 947 3462 1222 4077 1920 4077 
C 2618 4077 2893 3462 2893 2598 
L 2893 1869 
C 2893 1005 2618 390 1920 390 
z
" transform="scale(0.015625)"/>
       </defs>
       <use xlink:href="#IBMPlexSans-30"/>
      </g>
     </g>
    </g>
    <g id="xtick_2">
     <g id="line2d_2">
      <g>
       <use xlink:href="#m64fb4cb6b7" x="158.3908" y="274.94952" style="stroke: #000000; stroke-width: 0.8"/>
      </g>
     </g>
     <g id="text_2">
      <!-- 20 -->
      <g transform="translate(152.3908 289.34952) scale(0.1 -0.1)">
       <defs>
        <path id="IBMPlexSans-32" d="M 3411 474 
L 1062 474 
L 2266 1555 
C 2835 2067 3245 2554 3245 3245 
C 3245 4006 2746 4544 1875 4544 
C 1011 4544 614 4019 442 3494 
L 922 3309 
C 1043 3731 1299 4064 1850 4064 
C 2400 4064 2675 3725 2675 3232 
L 2675 3155 
C 2675 2726 2355 2278 1939 1894 
L 480 550 
L 480 0 
L 3411 0 
L 3411 474 
z
" transform="scale(0.015625)"/>
       </defs>
       <use xlink:href="#IBMPlexSans-32"/>
       <use xlink:href="#IBMPlexSans-30" transform="translate(59.999985 0)"/>
      </g>
     </g>
    </g>
    <g id="xtick_3">
     <g id="line2d_3">
      <g>
       <use xlink:href="#m64fb4cb6b7" x="248.46344" y="274.94952" style="stroke: #000000; stroke-width: 0.8"/>
      </g>
     </g>
     <g id="text_3">
      <!-- 40 -->
      <g transform="translate(242.46344 289.34952) scale(0.1 -0.1)">
       <defs>
        <path id="IBMPlexSans-34" d="M 2912 0 
L 2912 877 
L 3558 877 
L 3558 1325 
L 2912 1325 
L 2912 4467 
L 2112 4467 
L 243 1350 
L 243 877 
L 2400 877 
L 2400 0 
L 2912 0 
z
M 2368 4051 
L 2400 4051 
L 2400 1325 
L 749 1325 
L 2368 4051 
z
" transform="scale(0.015625)"/>
       </defs>
       <use xlink:href="#IBMPlexSans-34"/>
       <use xlink:href="#IBMPlexSans-30" transform="translate(59.999985 0)"/>
      </g>
     </g>
    </g>
    <g id="xtick_4">
     <g id="line2d_4">
      <g>
       <use xlink:href="#m64fb4cb6b7" x="338.53608" y="274.94952" style="stroke: #000000; stroke-width: 0.8"/>
      </g>
     </g>
     <g id="text_4">
      <!-- 60 -->
      <g transform="translate(332.53608 289.34952) scale(0.1 -0.1)">
       <defs>
        <path id="IBMPlexSans-36" d="M 1926 -77 
C 2822 -77 3411 525 3411 1402 
C 3411 2246 2861 2778 2093 2778 
C 1549 2778 1229 2502 1018 2138 
L 986 2150 
C 1229 3187 1760 3770 2714 4467 
L 2022 4467 
C 1306 4000 429 2963 429 1638 
C 429 576 998 -77 1926 -77 
z
M 1920 390 
C 1331 390 986 730 986 1331 
L 986 1382 
C 986 1984 1331 2323 1920 2323 
C 2509 2323 2854 1984 2854 1382 
L 2854 1331 
C 2854 730 2509 390 1920 390 
z
" transform="scale(0.015625)"/>
       </defs>
       <use xlink:href="#IBMPlexSans-36"/>
       <use xlink:href="#IBMPlexSans-30" transform="translate(59.999985 0)"/>
      </g>
     </g>
    </g>
    <g id="xtick_5">
     <g id="line2d_5">
      <g>
       <use xlink:href="#m64fb4cb6b7" x="428.60872" y="274.94952" style="stroke: #000000; stroke-width: 0.8"/>
      </g>
     </g>
     <g id="text_5">
      <!-- 80 -->
      <g transform="translate(422.60872 289.34952) scale(0.1 -0.1)">
       <defs>
        <path id="IBMPlexSans-38" d="M 1920 -77 
C 2938 -77 3469 480 3469 1216 
C 3469 1824 3104 2176 2566 2323 
L 2566 2374 
C 3034 2534 3334 2912 3334 3424 
C 3334 4102 2810 4544 1920 4544 
C 1030 4544 506 4102 506 3424 
C 506 2912 806 2534 1274 2374 
L 1274 2323 
C 736 2176 371 1824 371 1216 
C 371 480 902 -77 1920 -77 
z
M 1920 390 
C 1299 390 941 685 941 1190 
L 941 1325 
C 941 1830 1299 2125 1920 2125 
C 2541 2125 2899 1830 2899 1325 
L 2899 1190 
C 2899 685 2541 390 1920 390 
z
M 1920 2573 
C 1363 2573 1062 2822 1062 3277 
L 1062 3373 
C 1062 3827 1363 4077 1920 4077 
C 2477 4077 2778 3827 2778 3373 
L 2778 3277 
C 2778 2822 2477 2573 1920 2573 
z
" transform="scale(0.015625)"/>
       </defs>
       <use xlink:href="#IBMPlexSans-38"/>
       <use xlink:href="#IBMPlexSans-30" transform="translate(59.999985 0)"/>
      </g>
     </g>
    </g>
    <g id="xtick_6">
     <g id="line2d_6">
      <g>
       <use xlink:href="#m64fb4cb6b7" x="518.68136" y="274.94952" style="stroke: #000000; stroke-width: 0.8"/>
      </g>
     </g>
     <g id="text_6">
      <!-- 100 -->
      <g transform="translate(509.68136 289.34952) scale(0.1 -0.1)">
       <defs>
        <path id="IBMPlexSans-31" d="M 3501 0 
L 3501 474 
L 2349 474 
L 2349 4467 
L 1510 4467 
L 326 3360 
L 640 3021 
L 1766 4070 
L 1811 4070 
L 1811 474 
L 563 474 
L 563 0 
L 3501 0 
z
" transform="scale(0.015625)"/>
       </defs>
       <use xlink:href="#IBMPlexSans-31"/>
       <use xlink:href="#IBMPlexSans-30" transform="translate(59.999985 0)"/>
       <use xlink:href="#IBMPlexSans-30" transform="translate(119.999969 0)"/>
      </g>
     </g>
    </g>
    <g id="text_7">
     <!-- Time [ps] -->
     <g transform="translate(272.594291 302.94952) scale(0.1 -0.1)">
      <defs>
       <path id="IBMPlexSans-54" d="M 3520 3994 
L 3520 4467 
L 141 4467 
L 141 3994 
L 1562 3994 
L 1562 0 
L 2099 0 
L 2099 3994 
L 3520 3994 
z
" transform="scale(0.015625)"/>
       <path id="IBMPlexSans-69" d="M 800 4077 
C 1018 4077 1114 4192 1114 4365 
L 1114 4448 
C 1114 4621 1018 4736 800 4736 
C 582 4736 486 4621 486 4448 
L 486 4365 
C 486 4192 582 4077 800 4077 
z
M 544 0 
L 1056 0 
L 1056 3302 
L 544 3302 
L 544 0 
z
" transform="scale(0.015625)"/>
       <path id="IBMPlexSans-6d" d="M 1056 0 
L 1056 2291 
C 1056 2714 1440 2918 1843 2918 
C 2330 2918 2554 2618 2554 2029 
L 2554 0 
L 3066 0 
L 3066 2291 
C 3066 2714 3437 2918 3840 2918 
C 4339 2918 4563 2611 4563 2029 
L 4563 0 
L 5075 0 
L 5075 2118 
C 5075 2918 4672 3379 4000 3379 
C 3437 3379 3117 3066 2995 2707 
L 2982 2707 
C 2803 3181 2406 3379 1971 3379 
C 1459 3379 1229 3104 1082 2765 
L 1056 2765 
L 1056 3302 
L 544 3302 
L 544 0 
L 1056 0 
z
" transform="scale(0.015625)"/>
       <path id="IBMPlexSans-65" d="M 1786 -77 
C 2406 -77 2880 230 3091 678 
L 2726 941 
C 2554 576 2234 371 1818 371 
C 1203 371 838 800 838 1370 
L 838 1523 
L 3213 1523 
L 3213 1766 
C 3213 2701 2669 3379 1786 3379 
C 890 3379 301 2701 301 1651 
C 301 602 890 -77 1786 -77 
z
M 1786 2950 
C 2310 2950 2662 2560 2662 1978 
L 2662 1907 
L 838 1907 
L 838 1952 
C 838 2528 1229 2950 1786 2950 
z
" transform="scale(0.015625)"/>
       <path id="IBMPlexSans-20" transform="scale(0.015625)"/>
       <path id="IBMPlexSans-5b" d="M 1645 -883 
L 1645 -480 
L 1037 -480 
L 1037 4461 
L 1645 4461 
L 1645 4864 
L 595 4864 
L 595 -883 
L 1645 -883 
z
" transform="scale(0.015625)"/>
       <path id="IBMPlexSans-70" d="M 544 -1280 
L 1056 -1280 
L 1056 538 
L 1082 538 
C 1280 128 1594 -77 2048 -77 
C 2874 -77 3392 595 3392 1651 
C 3392 2707 2874 3379 2048 3379 
C 1594 3379 1254 3181 1082 2765 
L 1056 2765 
L 1056 3302 
L 544 3302 
L 544 -1280 
z
M 1907 384 
C 1440 384 1056 627 1056 1056 
L 1056 2285 
C 1056 2650 1440 2918 1907 2918 
C 2483 2918 2842 2522 2842 1933 
L 2842 1370 
C 2842 781 2483 384 1907 384 
z
" transform="scale(0.015625)"/>
       <path id="IBMPlexSans-73" d="M 1536 -77 
C 2291 -77 2758 314 2758 954 
C 2758 1453 2477 1773 1747 1882 
L 1491 1920 
C 1082 1984 858 2112 858 2432 
C 858 2746 1082 2944 1504 2944 
C 1926 2944 2208 2746 2355 2541 
L 2694 2848 
C 2426 3181 2074 3379 1542 3379 
C 870 3379 365 3059 365 2406 
C 365 1792 819 1542 1427 1453 
L 1690 1414 
C 2125 1350 2266 1152 2266 896 
C 2266 557 2010 358 1574 358 
C 1158 358 851 544 595 864 
L 230 570 
C 525 179 928 -77 1536 -77 
z
" transform="scale(0.015625)"/>
       <path id="IBMPlexSans-5d" d="M 384 4864 
L 384 4461 
L 992 4461 
L 992 -480 
L 384 -480 
L 384 -883 
L 1434 -883 
L 1434 4864 
L 384 4864 
z
" transform="scale(0.015625)"/>
      </defs>
      <use xlink:href="#IBMPlexSans-54"/>
      <use xlink:href="#IBMPlexSans-69" transform="translate(57.199997 0)"/>
      <use xlink:href="#IBMPlexSans-6d" transform="translate(82.199982 0)"/>
      <use xlink:href="#IBMPlexSans-65" transform="translate(169.499969 0)"/>
      <use xlink:href="#IBMPlexSans-20" transform="translate(224.399963 0)"/>
      <use xlink:href="#IBMPlexSans-5b" transform="translate(247.999954 0)"/>
      <use xlink:href="#IBMPlexSans-70" transform="translate(279.699951 0)"/>
      <use xlink:href="#IBMPlexSans-73" transform="translate(337.699936 0)"/>
      <use xlink:href="#IBMPlexSans-5d" transform="translate(386.399933 0)"/>
     </g>
    </g>
   </g>
   <g id="matplotlib.axis_2">
    <g id="ytick_1">
     <g id="line2d_7">
      <defs>
       <path id="m26777de3e8" d="M 0 0 
L -3.5 0 
" style="stroke: #000000; stroke-width: 0.8"/>
      </defs>
      <g>
       <use xlink:href="#m26777de3e8" x="45.8" y="231.368672" style="stroke: #000000; stroke-width: 0.8"/>
      </g>
     </g>
     <g id="text_8">
      <!-- 290 -->
      <g transform="translate(20.8 235.068672) scale(0.1 -0.1)">
       <defs>
        <path id="IBMPlexSans-39" d="M 3411 2829 
C 3411 3891 2842 4544 1914 4544 
C 1018 4544 429 3942 429 3066 
C 429 2221 979 1690 1747 1690 
C 2291 1690 2611 1965 2822 2330 
L 2854 2317 
C 2611 1280 2080 698 1126 0 
L 1818 0 
C 2534 467 3411 1504 3411 2829 
z
M 1920 2144 
C 1331 2144 986 2483 986 3085 
L 986 3136 
C 986 3738 1331 4077 1920 4077 
C 2509 4077 2854 3738 2854 3136 
L 2854 3085 
C 2854 2483 2509 2144 1920 2144 
z
" transform="scale(0.015625)"/>
       </defs>
       <use xlink:href="#IBMPlexSans-32"/>
       <use xlink:href="#IBMPlexSans-39" transform="translate(59.999985 0)"/>
       <use xlink:href="#IBMPlexSans-30" transform="translate(119.999969 0)"/>
      </g>
     </g>
    </g>
    <g id="ytick_2">
     <g id="line2d_8">
      <g>
       <use xlink:href="#m26777de3e8" x="45.8" y="181.506287" style="stroke: #000000; stroke-width: 0.8"/>
      </g>
     </g>
     <g id="text_9">
      <!-- 295 -->
      <g transform="translate(20.8 185.206287) scale(0.1 -0.1)">
       <defs>
        <path id="IBMPlexSans-35" d="M 3187 4467 
L 794 4467 
L 634 2010 
L 1088 1946 
C 1274 2150 1478 2323 1888 2323 
C 2496 2323 2822 1984 2822 1395 
L 2822 1331 
C 2822 742 2496 403 1888 403 
C 1350 403 1126 640 896 992 
L 493 685 
C 762 301 1146 -77 1888 -77 
C 2829 -77 3392 531 3392 1402 
C 3392 2266 2829 2784 2061 2784 
C 1594 2784 1357 2592 1146 2291 
L 1101 2291 
L 1229 3994 
L 3187 3994 
L 3187 4467 
z
" transform="scale(0.015625)"/>
       </defs>
       <use xlink:href="#IBMPlexSans-32"/>
       <use xlink:href="#IBMPlexSans-39" transform="translate(59.999985 0)"/>
       <use xlink:href="#IBMPlexSans-35" transform="translate(119.999969 0)"/>
      </g>
     </g>
    </g>
    <g id="ytick_3">
     <g id="line2d_9">
      <g>
       <use xlink:href="#m26777de3e8" x="45.8" y="131.643902" style="stroke: #000000; stroke-width: 0.8"/>
      </g>
     </g>
     <g id="text_10">
      <!-- 300 -->
      <g transform="translate(20.8 135.343902) scale(0.1 -0.1)">
       <defs>
        <path id="IBMPlexSans-33" d="M 1184 2573 
L 1184 2106 
L 1709 2106 
C 2336 2106 2669 1805 2669 1280 
L 2669 1229 
C 2669 704 2336 403 1709 403 
C 1165 403 902 640 672 992 
L 269 685 
C 544 301 941 -77 1715 -77 
C 2624 -77 3232 454 3232 1222 
C 3232 1894 2771 2253 2291 2349 
L 2291 2374 
C 2765 2496 3149 2842 3149 3418 
C 3149 4141 2547 4544 1792 4544 
C 1075 4544 685 4173 461 3814 
L 858 3507 
C 1043 3846 1318 4064 1779 4064 
C 2253 4064 2579 3827 2579 3360 
L 2579 3315 
C 2579 2886 2272 2573 1670 2573 
L 1184 2573 
z
" transform="scale(0.015625)"/>
       </defs>
       <use xlink:href="#IBMPlexSans-33"/>
       <use xlink:href="#IBMPlexSans-30" transform="translate(59.999985 0)"/>
       <use xlink:href="#IBMPlexSans-30" transform="translate(119.999969 0)"/>
      </g>
     </g>
    </g>
    <g id="ytick_4">
     <g id="line2d_10">
      <g>
       <use xlink:href="#m26777de3e8" x="45.8" y="81.781517" style="stroke: #000000; stroke-width: 0.8"/>
      </g>
     </g>
     <g id="text_11">
      <!-- 305 -->
      <g transform="translate(20.8 85.481517) scale(0.1 -0.1)">
       <use xlink:href="#IBMPlexSans-33"/>
       <use xlink:href="#IBMPlexSans-30" transform="translate(59.999985 0)"/>
       <use xlink:href="#IBMPlexSans-35" transform="translate(119.999969 0)"/>
      </g>
     </g>
    </g>
    <g id="ytick_5">
     <g id="line2d_11">
      <g>
       <use xlink:href="#m26777de3e8" x="45.8" y="31.919132" style="stroke: #000000; stroke-width: 0.8"/>
      </g>
     </g>
     <g id="text_12">
      <!-- 310 -->
      <g transform="translate(20.8 35.619132) scale(0.1 -0.1)">
       <use xlink:href="#IBMPlexSans-33"/>
       <use xlink:href="#IBMPlexSans-31" transform="translate(59.999985 0)"/>
       <use xlink:href="#IBMPlexSans-30" transform="translate(119.999969 0)"/>
      </g>
     </g>
    </g>
    <g id="text_13">
     <!-- Temperature [K] -->
     <g transform="translate(14.8 185.451166) rotate(-90) scale(0.1 -0.1)">
      <defs>
       <path id="IBMPlexSans-72" d="M 1056 0 
L 1056 2240 
C 1056 2554 1389 2790 1939 2790 
L 2240 2790 
L 2240 3302 
L 2042 3302 
C 1504 3302 1203 3008 1088 2694 
L 1056 2694 
L 1056 3302 
L 544 3302 
L 544 0 
L 1056 0 
z
" transform="scale(0.015625)"/>
       <path id="IBMPlexSans-61" d="M 3232 0 
L 3232 448 
L 2854 448 
L 2854 2266 
C 2854 2963 2381 3379 1587 3379 
C 992 3379 595 3085 416 2733 
L 723 2445 
C 902 2746 1165 2938 1562 2938 
C 2086 2938 2342 2682 2342 2214 
L 2342 1888 
L 1690 1888 
C 730 1888 282 1542 282 922 
C 282 307 691 -77 1389 -77 
C 1850 -77 2202 134 2342 538 
L 2374 538 
C 2413 230 2566 0 2944 0 
L 3232 0 
z
M 1472 358 
C 1075 358 819 544 819 870 
L 819 1005 
C 819 1325 1082 1504 1664 1504 
L 2342 1504 
L 2342 960 
C 2342 621 1978 358 1472 358 
z
" transform="scale(0.015625)"/>
       <path id="IBMPlexSans-74" d="M 1914 0 
L 1914 448 
L 1242 448 
L 1242 2854 
L 1965 2854 
L 1965 3302 
L 1242 3302 
L 1242 4218 
L 781 4218 
L 781 3603 
C 781 3379 710 3302 493 3302 
L 186 3302 
L 186 2854 
L 730 2854 
L 730 544 
C 730 224 922 0 1274 0 
L 1914 0 
z
" transform="scale(0.015625)"/>
       <path id="IBMPlexSans-75" d="M 2579 0 
L 3091 0 
L 3091 3302 
L 2579 3302 
L 2579 1018 
C 2579 582 2182 384 1779 384 
C 1286 384 1024 685 1024 1274 
L 1024 3302 
L 512 3302 
L 512 1184 
C 512 384 947 -77 1626 -77 
C 2176 -77 2426 224 2554 538 
L 2579 538 
L 2579 0 
z
" transform="scale(0.015625)"/>
       <path id="IBMPlexSans-4b" d="M 3251 0 
L 3917 0 
L 2138 2554 
L 3802 4467 
L 3142 4467 
L 1792 2867 
L 1152 2093 
L 1133 2093 
L 1133 4467 
L 595 4467 
L 595 0 
L 1133 0 
L 1133 1491 
L 1766 2195 
L 3251 0 
z
" transform="scale(0.015625)"/>
      </defs>
      <use xlink:href="#IBMPlexSans-54"/>
      <use xlink:href="#IBMPlexSans-65" transform="translate(57.199997 0)"/>
      <use xlink:href="#IBMPlexSans-6d" transform="translate(112.099991 0)"/>
      <use xlink:href="#IBMPlexSans-70" transform="translate(199.399979 0)"/>
      <use xlink:href="#IBMPlexSans-65" transform="translate(257.399963 0)"/>
      <use xlink:href="#IBMPlexSans-72" transform="translate(312.299957 0)"/>
      <use xlink:href="#IBMPlexSans-61" transform="translate(348.999954 0)"/>
      <use xlink:href="#IBMPlexSans-74" transform="translate(402.399948 0)"/>
      <use xlink:href="#IBMPlexSans-75" transform="translate(437.499939 0)"/>
      <use xlink:href="#IBMPlexSans-72" transform="translate(494.299927 0)"/>
      <use xlink:href="#IBMPlexSans-65" transform="translate(530.999924 0)"/>
      <use xlink:href="#IBMPlexSans-20" transform="translate(585.899918 0)"/>
      <use xlink:href="#IBMPlexSans-5b" transform="translate(609.499908 0)"/>
      <use xlink:href="#IBMPlexSans-4b" transform="translate(641.199905 0)"/>
      <use xlink:href="#IBMPlexSans-5d" transform="translate(704.599899 0)"/>
     </g>
    </g>
   </g>
   <g id="line2d_12">
    <path d="M 68.31816 47.257111 
L 70.569976 98.02634 
L 72.821792 93.453892 
L 75.073608 78.513863 
L 77.325424 72.17231 
L 79.57724 73.362294 
L 81.829056 25.764883 
L 84.080872 31.955378 
L 86.332688 103.538136 
L 88.584504 117.496546 
L 90.83632 -0.828821 
L 93.088136 61.665526 
L 95.339952 89.744966 
L 97.591768 130.377926 
L 99.843584 60.759427 
L 102.0954 101.531163 
L 104.347216 71.214946 
L 106.599032 43.354901 
L 108.850848 70.157348 
L 111.102664 95.178335 
L 113.35448 90.765085 
L 115.606296 83.674455 
L 117.858112 78.41614 
L 120.109928 49.107944 
L 122.361744 142.931399 
L 124.61356 90.835736 
L 126.865376 69.282185 
L 129.117192 101.27301 
L 131.369008 116.006411 
L 133.620824 83.244124 
L 135.87264 91.170917 
L 138.124456 115.715922 
L 140.376272 21.000414 
L 142.628088 64.409053 
L 144.879904 77.539714 
L 147.13172 100.774843 
L 151.635352 59.761144 
L 153.887168 41.936453 
L 156.138984 43.390098 
L 158.3908 114.08313 
L 160.642616 69.182439 
L 162.894432 62.943752 
L 165.146248 116.186654 
L 167.398064 124.896776 
L 169.64988 48.919256 
L 171.901696 75.558823 
L 174.153512 80.573958 
L 176.405328 71.758216 
L 178.657144 29.016848 
L 180.90896 78.819188 
L 183.160776 63.095615 
L 185.412592 80.685223 
L 187.664408 114.201532 
L 189.916224 113.250148 
L 192.16804 48.463924 
L 194.419856 78.206894 
L 196.671672 91.163339 
L 198.923488 73.349953 
L 201.175304 81.754644 
L 203.42712 99.128158 
L 205.678936 21.585621 
L 207.930752 42.600042 
L 210.182568 48.630563 
L 212.434384 71.740427 
L 214.6862 76.747178 
L 216.938016 72.415809 
L 219.189832 99.907227 
L 221.441648 28.650991 
L 223.693464 71.893371 
L 225.94528 68.442324 
L 228.197096 60.76419 
L 230.448912 40.049555 
L 232.700728 120.613219 
L 234.952544 104.374253 
L 237.20436 56.011833 
L 239.456176 75.766851 
L 241.707992 87.536812 
L 243.959808 106.681317 
L 246.211624 109.302014 
L 248.46344 29.671094 
L 250.715256 48.02142 
L 252.967072 32.463315 
L 255.218888 28.853313 
L 257.470704 45.816795 
L 259.72252 79.197112 
L 261.974336 62.229658 
L 264.226152 71.823161 
L 266.477968 60.016132 
L 268.729784 91.95729 
L 270.9816 80.24701 
L 273.233416 74.204011 
L 275.485232 87.645414 
L 277.737048 117.841891 
L 279.988864 86.167529 
L 282.24068 66.729461 
L 284.492496 100.795614 
L 286.744312 86.390135 
L 288.996128 106.618183 
L 291.247944 62.969225 
L 293.49976 80.539035 
L 295.751576 108.452765 
L 298.003392 23.069015 
L 300.255208 78.640619 
L 302.507024 77.925658 
L 304.75884 21.99725 
L 307.010656 68.234843 
L 309.262472 97.78485 
L 311.514288 72.328678 
L 313.766104 91.057689 
L 316.01792 68.485479 
L 318.269736 94.327016 
L 320.521552 32.531851 
L 322.773368 60.240428 
L 325.025184 108.112943 
L 327.277 123.045501 
L 329.528816 69.987179 
L 331.780632 75.742444 
L 334.032448 32.273683 
L 336.284264 73.655947 
L 338.53608 66.517491 
L 340.787896 31.043573 
L 343.039712 71.628979 
L 345.291528 84.353535 
L 347.543344 77.783472 
L 349.79516 38.447729 
L 352.046976 94.518398 
L 354.298792 33.154294 
L 356.550608 76.368858 
L 358.802424 58.341189 
L 361.05424 62.170967 
L 363.306056 84.827538 
L 365.557872 101.36845 
L 367.809688 84.918915 
L 370.061504 19.266582 
L 372.31332 101.172914 
L 374.565136 88.007117 
L 376.816952 31.903626 
L 379.068768 59.870066 
L 381.320584 61.263757 
L 383.5724 107.673787 
L 385.824216 81.706604 
L 388.076032 90.611745 
L 390.327848 95.801539 
L 392.579664 75.855383 
L 394.83148 83.37508 
L 397.083296 115.286596 
L 399.335112 45.34089 
L 401.586928 86.709901 
L 403.838744 96.362886 
L 406.09056 77.672937 
L 408.342376 85.200471 
L 410.594192 41.559304 
L 412.846008 54.469977 
L 415.097824 61.986022 
L 417.34964 63.557415 
L 419.601456 64.140309 
L 421.853272 90.428322 
L 424.105088 92.914715 
L 426.356904 97.009311 
L 428.60872 75.972263 
L 430.860536 142.299035 
L 433.112352 69.403691 
L 435.364168 86.975297 
L 437.615984 61.902208 
L 439.8678 69.288104 
L 442.119616 98.435185 
L 444.371432 102.826736 
L 446.623248 66.794574 
L 448.875064 75.438853 
L 451.12688 106.063226 
L 453.378696 78.220316 
L 455.630512 83.635987 
L 457.882328 71.738449 
L 460.134144 44.314746 
L 462.38596 67.179178 
L 464.637776 82.600424 
L 466.889592 72.261328 
L 469.141408 77.151914 
L 471.393224 99.693051 
L 473.64504 130.978593 
L 475.896856 76.648056 
L 478.148672 103.714408 
L 480.400488 45.773762 
L 482.652304 74.788107 
L 484.90412 56.231731 
L 487.155936 73.627705 
L 489.407752 59.703153 
L 491.659568 78.274716 
L 493.911384 24.720889 
L 496.1632 105.641097 
L 498.415016 101.257367 
L 500.666832 60.945239 
L 505.170464 123.330009 
L 507.42228 68.358236 
L 509.674096 79.727767 
L 511.925912 79.189504 
L 514.177728 70.193655 
L 516.429544 108.953215 
L 518.68136 65.840086 
L 518.68136 65.840086 
" clip-path="url(#paddcdd1b66)" style="fill: none; stroke: #1f77b4; stroke-width: 1.5; stroke-linecap: square"/>
   </g>
   <g id="line2d_13">
    <path d="M 68.31816 69.287252 
L 70.569976 120.488167 
L 72.821792 127.061639 
L 75.073608 93.717508 
L 77.325424 129.176347 
L 79.57724 120.876378 
L 81.829056 39.135056 
L 84.080872 64.973839 
L 86.332688 121.603132 
L 88.584504 132.59836 
L 90.83632 48.267445 
L 93.088136 125.09636 
L 95.339952 123.311004 
L 97.591768 145.149901 
L 99.843584 80.715672 
L 102.0954 117.202375 
L 104.347216 111.385847 
L 106.599032 98.159046 
L 108.850848 107.3887 
L 111.102664 133.746436 
L 113.35448 103.194587 
L 115.606296 133.779731 
L 117.858112 90.836543 
L 120.109928 56.81703 
L 122.361744 149.636237 
L 124.61356 110.981872 
L 126.865376 85.768438 
L 129.117192 121.735214 
L 131.369008 132.387516 
L 133.620824 96.18835 
L 135.87264 132.771466 
L 138.124456 132.787292 
L 140.376272 57.527532 
L 142.628088 122.152275 
L 144.879904 99.800451 
L 147.13172 113.485764 
L 149.383536 101.385371 
L 151.635352 80.25369 
L 153.887168 81.327448 
L 156.138984 71.246201 
L 158.3908 136.182767 
L 160.642616 104.307421 
L 162.894432 99.628866 
L 165.146248 139.527113 
L 167.398064 149.950799 
L 169.64988 91.649789 
L 171.901696 82.071671 
L 174.153512 126.793701 
L 176.405328 108.851764 
L 178.657144 113.959372 
L 180.90896 93.040604 
L 183.160776 90.467566 
L 185.412592 107.51506 
L 187.664408 126.060495 
L 189.916224 120.671073 
L 192.16804 110.188407 
L 194.419856 126.829065 
L 196.671672 125.734369 
L 198.923488 104.679502 
L 201.175304 134.970049 
L 203.42712 129.273247 
L 205.678936 106.675154 
L 207.930752 69.587449 
L 210.182568 91.118601 
L 212.434384 121.624374 
L 214.6862 96.304971 
L 216.938016 76.932412 
L 219.189832 126.053739 
L 221.441648 66.446703 
L 223.693464 116.336052 
L 225.94528 127.159817 
L 228.197096 127.068517 
L 230.448912 77.616315 
L 232.700728 128.568771 
L 234.952544 116.37172 
L 237.20436 95.180633 
L 239.456176 132.201384 
L 241.707992 104.269988 
L 243.959808 146.19219 
L 246.211624 149.311024 
L 248.46344 66.423208 
L 250.715256 92.155474 
L 252.967072 110.192668 
L 255.218888 99.400067 
L 257.470704 75.064581 
L 259.72252 106.197773 
L 261.974336 114.774688 
L 264.226152 108.303473 
L 266.477968 94.315771 
L 268.729784 106.970847 
L 270.9816 107.157587 
L 273.233416 109.694835 
L 275.485232 102.191496 
L 277.737048 137.392015 
L 279.988864 90.13651 
L 282.24068 116.586825 
L 284.492496 135.657848 
L 286.744312 110.665606 
L 288.996128 116.285654 
L 291.247944 87.440946 
L 293.49976 121.919458 
L 295.751576 142.860808 
L 298.003392 98.645618 
L 300.255208 111.173908 
L 302.507024 89.870946 
L 304.75884 37.96245 
L 307.010656 101.502662 
L 309.262472 117.094031 
L 311.514288 104.434877 
L 313.766104 109.894601 
L 316.01792 110.567244 
L 318.269736 110.722091 
L 320.521552 88.103911 
L 322.773368 69.008541 
L 325.025184 148.799679 
L 327.277 139.102808 
L 329.528816 87.646008 
L 331.780632 113.432627 
L 334.032448 109.172656 
L 336.284264 109.236506 
L 338.53608 112.155817 
L 340.787896 72.754246 
L 343.039712 120.049558 
L 345.291528 89.983916 
L 347.543344 84.515548 
L 349.79516 100.352334 
L 352.046976 106.799019 
L 354.298792 60.063137 
L 356.550608 114.354643 
L 358.802424 90.437802 
L 361.05424 106.385609 
L 363.306056 91.303211 
L 365.557872 109.902758 
L 367.809688 122.512061 
L 370.061504 52.614091 
L 372.31332 146.46311 
L 374.565136 96.541136 
L 376.816952 50.298765 
L 379.068768 109.083668 
L 381.320584 80.35899 
L 383.5724 140.040893 
L 385.824216 120.302096 
L 388.076032 128.275087 
L 390.327848 128.582344 
L 392.579664 92.438202 
L 394.83148 106.537107 
L 397.083296 135.121182 
L 399.335112 83.541369 
L 401.586928 121.889877 
L 403.838744 149.190811 
L 406.09056 129.058873 
L 408.342376 104.615957 
L 410.594192 76.117096 
L 412.846008 76.805504 
L 415.097824 109.471209 
L 417.34964 90.558076 
L 419.601456 76.411085 
L 421.853272 112.42278 
L 424.105088 122.739339 
L 426.356904 125.409765 
L 428.60872 143.453411 
L 430.860536 159.240102 
L 433.112352 75.443053 
L 435.364168 130.875332 
L 437.615984 131.552479 
L 439.8678 99.136207 
L 442.119616 128.133996 
L 444.371432 122.140163 
L 446.623248 88.007315 
L 448.875064 97.92416 
L 451.12688 124.173309 
L 453.378696 81.030416 
L 455.630512 126.788893 
L 457.882328 88.03294 
L 460.134144 102.420965 
L 462.38596 93.135496 
L 464.637776 114.459396 
L 466.889592 93.633146 
L 469.141408 88.79518 
L 471.393224 124.501079 
L 473.64504 166.011575 
L 475.896856 126.992676 
L 478.148672 108.229032 
L 480.400488 87.274414 
L 482.652304 100.994421 
L 484.90412 98.718111 
L 487.155936 123.929658 
L 489.407752 79.312988 
L 491.659568 107.536425 
L 493.911384 65.011759 
L 496.1632 122.078261 
L 498.415016 142.920458 
L 500.666832 107.679767 
L 502.918648 126.183995 
L 505.170464 130.445001 
L 507.42228 117.758031 
L 509.674096 118.149224 
L 511.925912 113.384907 
L 514.177728 99.128843 
L 516.429544 129.112436 
L 518.68136 114.346365 
L 518.68136 114.346365 
" clip-path="url(#paddcdd1b66)" style="fill: none; stroke: #ff7f0e; stroke-width: 1.5; stroke-linecap: square"/>
   </g>
   <g id="line2d_14">
    <path d="M 68.31816 98.625136 
L 70.569976 135.993165 
L 72.821792 179.599623 
L 77.325424 145.683523 
L 79.57724 156.865887 
L 81.829056 125.759112 
L 84.080872 141.748613 
L 86.332688 144.354641 
L 88.584504 147.58547 
L 90.83632 115.480321 
L 93.088136 137.534474 
L 95.339952 144.046044 
L 97.591768 169.493238 
L 99.843584 118.480616 
L 102.0954 132.677122 
L 104.347216 151.119113 
L 106.599032 153.871983 
L 108.850848 131.450192 
L 111.102664 184.743812 
L 113.35448 141.877803 
L 115.606296 153.167598 
L 117.858112 122.966678 
L 120.109928 126.537146 
L 122.361744 171.076241 
L 124.61356 142.230681 
L 126.865376 126.51706 
L 131.369008 145.914666 
L 133.620824 170.640888 
L 135.87264 146.715222 
L 138.124456 141.055488 
L 140.376272 96.803686 
L 142.628088 168.236331 
L 144.879904 151.653527 
L 147.13172 147.105228 
L 149.383536 137.517279 
L 151.635352 142.328373 
L 153.887168 140.124829 
L 156.138984 185.948373 
L 158.3908 160.376706 
L 160.642616 154.081366 
L 162.894432 138.370789 
L 165.146248 161.309647 
L 167.398064 181.271187 
L 169.64988 130.220067 
L 171.901696 172.183719 
L 174.153512 147.27033 
L 176.405328 156.541313 
L 178.657144 145.58994 
L 180.90896 140.107634 
L 183.160776 181.203321 
L 185.412592 188.684352 
L 187.664408 148.427263 
L 189.916224 137.680251 
L 192.16804 175.399636 
L 194.419856 152.566383 
L 196.671672 158.140446 
L 198.923488 141.276588 
L 201.175304 169.84079 
L 203.42712 165.119019 
L 205.678936 167.224262 
L 207.930752 152.276959 
L 210.182568 151.430601 
L 212.434384 159.754187 
L 214.6862 153.338635 
L 216.938016 119.39408 
L 219.189832 142.374632 
L 221.441648 129.504573 
L 223.693464 149.586022 
L 225.94528 167.88741 
L 228.197096 157.934867 
L 230.448912 113.690369 
L 232.700728 171.551461 
L 234.952544 143.358702 
L 237.20436 181.508265 
L 239.456176 174.637427 
L 241.707992 120.812589 
L 243.959808 160.72867 
L 246.211624 186.952072 
L 248.46344 143.629104 
L 250.715256 161.301734 
L 252.967072 155.393206 
L 255.218888 157.995734 
L 257.470704 164.601191 
L 259.72252 149.440701 
L 261.974336 132.862006 
L 264.226152 160.790602 
L 266.477968 164.288791 
L 268.729784 156.74674 
L 270.9816 134.005244 
L 273.233416 134.47316 
L 275.485232 167.913887 
L 277.737048 216.543408 
L 279.988864 141.001773 
L 282.24068 153.607059 
L 284.492496 157.09703 
L 286.744312 146.097876 
L 288.996128 165.456679 
L 291.247944 103.682894 
L 293.49976 157.518688 
L 295.751576 153.954611 
L 298.003392 144.706301 
L 300.255208 137.945328 
L 302.507024 167.1497 
L 304.75884 119.148633 
L 307.010656 120.585098 
L 309.262472 135.727328 
L 311.514288 138.986917 
L 313.766104 183.771763 
L 316.01792 137.469346 
L 318.269736 162.270892 
L 320.521552 158.192944 
L 322.773368 142.807701 
L 325.025184 199.001489 
L 327.277 169.046016 
L 329.528816 132.989979 
L 331.780632 146.072616 
L 334.032448 139.50794 
L 336.284264 161.91771 
L 338.53608 146.323693 
L 340.787896 148.126123 
L 343.039712 138.694907 
L 345.291528 160.784211 
L 347.543344 131.70979 
L 349.79516 189.588838 
L 352.046976 141.962561 
L 354.298792 161.958035 
L 356.550608 148.536824 
L 358.802424 148.00591 
L 361.05424 145.096764 
L 363.306056 124.58331 
L 365.557872 147.425237 
L 367.809688 159.587715 
L 370.061504 110.121575 
L 372.31332 166.254496 
L 374.565136 136.76207 
L 376.816952 127.871355 
L 379.068768 153.849158 
L 381.320584 148.461957 
L 383.5724 163.533886 
L 385.824216 167.98221 
L 388.076032 171.76754 
L 390.327848 176.158954 
L 392.579664 154.63404 
L 394.83148 128.566762 
L 397.083296 183.522664 
L 399.335112 151.785 
L 401.586928 159.945005 
L 403.838744 180.604388 
L 406.09056 169.126209 
L 408.342376 155.862188 
L 410.594192 154.278272 
L 412.846008 120.122964 
L 415.097824 143.985633 
L 417.34964 127.030627 
L 419.601456 131.619098 
L 421.853272 160.34262 
L 424.105088 140.021963 
L 426.356904 140.973165 
L 428.60872 192.912947 
L 430.860536 170.760949 
L 433.112352 136.411171 
L 435.364168 193.454512 
L 437.615984 149.886705 
L 439.8678 140.660612 
L 442.119616 148.771467 
L 444.371432 149.115518 
L 446.623248 137.855701 
L 448.875064 139.096782 
L 451.12688 154.6558 
L 453.378696 131.487169 
L 455.630512 140.525183 
L 457.882328 162.960669 
L 460.134144 134.401185 
L 462.38596 179.430869 
L 464.637776 146.182786 
L 466.889592 136.964149 
L 469.141408 143.191012 
L 471.393224 151.567096 
L 473.64504 183.08229 
L 475.896856 151.283303 
L 478.148672 140.889473 
L 480.400488 129.852429 
L 482.652304 149.493656 
L 484.90412 178.363867 
L 487.155936 157.440778 
L 489.407752 135.009856 
L 491.659568 144.774472 
L 493.911384 110.054317 
L 496.1632 159.715079 
L 498.415016 181.806058 
L 500.666832 158.461368 
L 502.918648 165.596522 
L 505.170464 161.676828 
L 507.42228 159.659995 
L 509.674096 125.37154 
L 511.925912 174.396241 
L 514.177728 148.687014 
L 516.429544 182.310646 
L 518.68136 145.444619 
L 518.68136 145.444619 
" clip-path="url(#paddcdd1b66)" style="fill: none; stroke: #2ca02c; stroke-width: 1.5; stroke-linecap: square"/>
   </g>
   <g id="line2d_15">
    <path d="M 68.31816 126.020506 
L 70.569976 197.7395 
L 72.821792 211.791477 
L 75.073608 202.880706 
L 77.325424 179.889229 
L 79.57724 171.97954 
L 81.829056 139.332521 
L 84.080872 179.642352 
L 86.332688 172.759127 
L 88.584504 197.334246 
L 90.83632 196.709506 
L 93.088136 180.151749 
L 95.339952 208.992622 
L 97.591768 207.995435 
L 99.843584 180.671737 
L 102.0954 150.024691 
L 104.347216 190.942585 
L 106.599032 185.831021 
L 108.850848 178.948648 
L 111.102664 215.050914 
L 113.35448 172.283632 
L 115.606296 165.132105 
L 117.858112 191.135047 
L 120.109928 167.228797 
L 122.361744 200.39623 
L 124.61356 180.458519 
L 126.865376 164.887419 
L 129.117192 169.434927 
L 131.369008 213.578537 
L 133.620824 202.524025 
L 135.87264 169.426041 
L 138.124456 178.730866 
L 140.376272 129.197468 
L 142.628088 200.960043 
L 144.879904 185.093433 
L 147.13172 181.786763 
L 149.383536 172.30104 
L 151.635352 190.852502 
L 153.887168 181.101459 
L 156.138984 238.844134 
L 158.3908 192.063758 
L 160.642616 228.65144 
L 162.894432 184.337949 
L 165.146248 189.317188 
L 167.398064 196.369441 
L 169.64988 158.79419 
L 171.901696 202.069347 
L 174.153512 199.951596 
L 176.405328 205.974341 
L 178.657144 182.846278 
L 180.90896 206.976702 
L 183.160776 227.295319 
L 185.412592 212.929754 
L 187.664408 157.512144 
L 189.916224 189.32924 
L 192.16804 209.789739 
L 194.419856 190.844467 
L 196.671672 183.197664 
L 198.923488 166.146761 
L 201.175304 201.6014 
L 203.42712 190.530819 
L 205.678936 189.610629 
L 207.930752 200.892845 
L 210.182568 194.851475 
L 212.434384 184.874067 
L 214.6862 187.337544 
L 216.938016 168.456305 
L 219.189832 169.059072 
L 221.441648 192.761053 
L 223.693464 193.780638 
L 225.94528 199.133967 
L 228.197096 182.633121 
L 230.448912 161.795732 
L 232.700728 189.871566 
L 234.952544 221.682271 
L 237.20436 210.059137 
L 239.456176 227.701729 
L 241.707992 163.715057 
L 243.959808 199.497466 
L 246.211624 206.725929 
L 248.46344 192.563782 
L 250.715256 198.875038 
L 252.967072 222.027874 
L 255.218888 190.032803 
L 257.470704 205.796609 
L 259.72252 229.135699 
L 261.974336 156.39018 
L 264.226152 226.619511 
L 266.477968 190.72602 
L 268.729784 197.491953 
L 270.9816 165.502239 
L 273.233416 177.772938 
L 275.485232 188.45397 
L 277.737048 235.458763 
L 279.988864 211.170693 
L 282.24068 204.510364 
L 284.492496 184.707778 
L 286.744312 187.204428 
L 288.996128 221.221141 
L 291.247944 120.647517 
L 293.49976 199.496309 
L 295.751576 206.353057 
L 298.003392 156.737123 
L 300.255208 157.363811 
L 302.507024 218.864425 
L 304.75884 163.230371 
L 307.010656 153.113335 
L 309.262472 168.587656 
L 311.514288 170.504668 
L 313.766104 209.741654 
L 316.01792 150.295185 
L 318.269736 210.70865 
L 320.521552 214.486736 
L 322.773368 180.780689 
L 325.025184 219.948104 
L 327.277 201.264987 
L 329.528816 185.789753 
L 331.780632 219.067843 
L 334.032448 168.372369 
L 336.284264 197.802315 
L 338.53608 163.519247 
L 340.787896 192.123286 
L 343.039712 194.594493 
L 345.291528 200.081243 
L 347.543344 172.403845 
L 349.79516 239.020466 
L 352.046976 185.159656 
L 354.298792 174.185062 
L 356.550608 189.743076 
L 358.802424 171.689447 
L 361.05424 215.052132 
L 363.306056 164.132849 
L 365.557872 166.441967 
L 367.809688 212.922694 
L 370.061504 185.825299 
L 372.31332 199.617374 
L 374.565136 187.99844 
L 376.816952 148.539045 
L 379.068768 227.38662 
L 381.320584 195.79102 
L 383.5724 198.382805 
L 385.824216 278.512486 
L 388.076032 199.952082 
L 390.327848 199.971377 
L 392.579664 177.753765 
L 394.83148 214.739335 
L 397.083296 222.430511 
L 399.335112 190.831624 
L 401.586928 188.119322 
L 403.838744 217.81897 
L 406.09056 195.487658 
L 408.342376 202.968172 
L 410.594192 211.217622 
L 412.846008 154.43957 
L 415.097824 174.194009 
L 417.34964 180.416704 
L 419.601456 151.356526 
L 421.853272 212.659017 
L 424.105088 201.252692 
L 426.356904 177.189648 
L 428.60872 203.11121 
L 430.860536 187.512537 
L 433.112352 174.97104 
L 435.364168 207.084497 
L 437.615984 172.45753 
L 439.8678 196.523131 
L 442.119616 186.823217 
L 444.371432 197.76196 
L 446.623248 171.554931 
L 448.875064 188.495177 
L 451.12688 186.121114 
L 453.378696 178.707006 
L 455.630512 152.788365 
L 457.882328 190.416327 
L 460.134144 219.040453 
L 462.38596 184.841625 
L 464.637776 189.299111 
L 466.889592 175.106347 
L 469.141408 217.129285 
L 471.393224 180.956961 
L 473.64504 218.945804 
L 475.896856 174.678147 
L 478.148672 185.941982 
L 480.400488 144.229893 
L 482.652304 177.610179 
L 484.90412 202.52932 
L 487.155936 222.333975 
L 489.407752 175.183223 
L 491.659568 168.95852 
L 493.911384 178.167723 
L 496.1632 167.207189 
L 498.415016 209.098714 
L 500.666832 204.940877 
L 502.918648 183.106911 
L 505.170464 195.663138 
L 507.42228 178.054449 
L 509.674096 186.991149 
L 511.925912 210.051407 
L 514.177728 209.81792 
L 516.429544 204.690592 
L 518.68136 171.200136 
L 518.68136 171.200136 
" clip-path="url(#paddcdd1b66)" style="fill: none; stroke: #d62728; stroke-width: 1.5; stroke-linecap: square"/>
   </g>
   <g id="line2d_16">
    <path d="M 68.31816 174.305975 
L 70.569976 215.321788 
L 72.821792 214.539326 
L 75.073608 251.418804 
L 77.325424 208.360243 
L 79.57724 204.564931 
L 81.829056 226.018463 
L 84.080872 260.052538 
L 86.332688 220.764287 
L 88.584504 220.85504 
L 90.83632 217.931696 
L 93.088136 238.08019 
L 95.339952 224.815256 
L 97.591768 218.218137 
L 99.843584 271.127213 
L 102.0954 177.052408 
L 104.347216 208.410108 
L 106.599032 198.197525 
L 108.850848 215.529132 
L 111.102664 233.950703 
L 113.35448 200.874403 
L 115.606296 200.207801 
L 117.858112 221.421242 
L 120.109928 236.29313 
L 122.361744 214.724134 
L 124.61356 221.485457 
L 126.865376 173.392267 
L 129.117192 180.162294 
L 131.369008 267.648259 
L 135.87264 197.219923 
L 138.124456 226.713825 
L 140.376272 164.932248 
L 142.628088 223.747296 
L 144.879904 194.964185 
L 147.13172 208.127532 
L 149.383536 201.171221 
L 151.635352 249.542407 
L 153.887168 195.685781 
L 156.138984 273.977288 
L 158.3908 220.655959 
L 160.642616 238.024984 
L 162.894432 221.336545 
L 165.146248 202.606408 
L 167.398064 226.706855 
L 169.64988 201.630312 
L 171.901696 235.754867 
L 174.153512 241.724399 
L 176.405328 251.879584 
L 178.657144 215.329777 
L 180.90896 252.898348 
L 183.160776 245.470454 
L 185.412592 248.643551 
L 187.664408 184.80197 
L 189.916224 225.746052 
L 192.16804 222.12199 
L 194.419856 228.737597 
L 196.671672 244.750045 
L 198.923488 179.818197 
L 201.175304 231.365613 
L 203.42712 217.715618 
L 205.678936 209.716576 
L 207.930752 233.076148 
L 210.182568 198.973795 
L 212.434384 192.462179 
L 214.6862 252.9704 
L 216.938016 189.544466 
L 219.189832 198.769388 
L 221.441648 223.040461 
L 223.693464 216.675885 
L 225.94528 244.773007 
L 228.197096 250.849422 
L 230.448912 190.438863 
L 232.700728 238.403821 
L 234.952544 303.9313 
L 237.20436 239.10215 
L 239.456176 272.473063 
L 241.707992 201.434852 
L 243.959808 206.168918 
L 246.211624 266.457271 
L 248.46344 243.503242 
L 250.715256 225.615553 
L 252.967072 223.462468 
L 255.218888 197.62227 
L 257.470704 219.985477 
L 259.72252 239.678973 
L 261.974336 191.626245 
L 264.226152 298.747563 
L 266.477968 210.419333 
L 268.729784 205.361926 
L 270.9816 234.999931 
L 273.233416 220.781269 
L 275.485232 201.746766 
L 277.737048 262.038817 
L 279.988864 244.161262 
L 282.24068 243.948105 
L 284.492496 228.711546 
L 286.744312 217.68733 
L 288.996128 228.190858 
L 291.247944 197.849761 
L 293.49976 212.670384 
L 295.751576 239.572258 
L 298.003392 169.279046 
L 300.255208 175.529694 
L 302.507024 245.598275 
L 304.75884 174.775321 
L 307.010656 212.946493 
L 309.262472 172.622967 
L 311.514288 247.409119 
L 313.766104 245.483479 
L 316.01792 198.938233 
L 318.269736 243.335188 
L 320.521552 225.213921 
L 322.773368 210.910532 
L 325.025184 234.408546 
L 327.277 236.651836 
L 329.528816 202.288971 
L 331.780632 222.263354 
L 334.032448 203.424494 
L 336.284264 231.228784 
L 338.53608 168.407992 
L 340.787896 225.099962 
L 343.039712 225.249543 
L 345.291528 207.174916 
L 347.543344 207.67007 
L 349.79516 255.212594 
L 352.046976 213.554251 
L 354.298792 176.102545 
L 356.550608 218.768209 
L 358.802424 209.16547 
L 361.05424 252.038356 
L 363.306056 197.721742 
L 365.557872 199.543101 
L 367.809688 295.942728 
L 370.061504 241.489726 
L 372.31332 209.228361 
L 374.565136 232.015523 
L 376.816952 200.638116 
L 379.068768 233.431506 
L 381.320584 246.09766 
L 383.5724 213.522585 
L 385.824216 310.262536 
L 388.076032 223.590243 
L 390.327848 260.831593 
L 394.83148 228.749497 
L 397.083296 288.288575 
L 399.335112 270.59283 
L 401.586928 217.067094 
L 403.838744 239.469118 
L 406.09056 233.024822 
L 408.342376 232.497317 
L 410.594192 242.730351 
L 412.846008 203.03079 
L 415.097824 226.698121 
L 417.34964 196.270273 
L 419.601456 175.82461 
L 421.853272 249.941193 
L 424.105088 221.794981 
L 426.356904 217.917971 
L 428.60872 259.500138 
L 430.860536 216.43867 
L 433.112352 205.002597 
L 435.364168 236.229387 
L 437.615984 205.18535 
L 439.8678 218.520419 
L 442.119616 225.67149 
L 444.371432 219.930894 
L 446.623248 230.898808 
L 448.875064 224.37791 
L 451.12688 219.268416 
L 453.378696 192.649544 
L 455.630512 200.326187 
L 457.882328 194.575853 
L 460.134144 238.376659 
L 462.38596 217.388685 
L 464.637776 207.776846 
L 466.889592 220.634884 
L 469.141408 238.780726 
L 471.393224 209.992548 
L 473.64504 265.677502 
L 475.896856 201.077775 
L 478.148672 220.218735 
L 480.400488 162.733558 
L 482.652304 254.75921 
L 484.90412 229.910431 
L 487.155936 234.33832 
L 489.407752 244.22292 
L 491.659568 194.394225 
L 493.911384 209.469288 
L 496.1632 212.140855 
L 498.415016 235.649993 
L 500.666832 242.866085 
L 502.918648 229.009978 
L 505.170464 222.084253 
L 507.42228 238.630627 
L 509.674096 218.598207 
L 511.925912 235.802936 
L 514.177728 224.560238 
L 516.429544 230.163517 
L 518.68136 215.184837 
L 518.68136 215.184837 
" clip-path="url(#paddcdd1b66)" style="fill: none; stroke: #9467bd; stroke-width: 1.5; stroke-linecap: square"/>
   </g>
   <g id="line2d_17">
    <path d="M 68.31816 174.305975 
L 70.569976 215.321788 
L 72.821792 214.539326 
L 75.073608 251.418804 
L 77.325424 208.360243 
L 79.57724 204.564931 
L 81.829056 226.018463 
L 84.080872 260.052538 
L 86.332688 220.764287 
L 88.584504 220.85504 
L 90.83632 217.931696 
L 93.088136 238.08019 
L 95.339952 224.815256 
L 97.591768 218.218137 
L 99.843584 271.127213 
L 102.0954 177.052408 
L 104.347216 208.410108 
L 106.599032 198.197525 
L 108.850848 215.529132 
L 111.102664 233.950703 
L 113.35448 200.874403 
L 115.606296 200.207801 
L 117.858112 221.421242 
L 120.109928 236.29313 
L 122.361744 214.724134 
L 124.61356 221.485457 
L 126.865376 173.392267 
L 129.117192 180.162294 
L 131.369008 267.648259 
L 135.87264 197.219923 
L 138.124456 226.713825 
L 140.376272 164.932248 
L 142.628088 223.747296 
L 144.879904 194.964185 
L 147.13172 208.127532 
L 149.383536 201.171221 
L 151.635352 249.542407 
L 153.887168 195.685781 
L 156.138984 273.977288 
L 158.3908 220.655959 
L 160.642616 238.024984 
L 162.894432 221.336545 
L 165.146248 202.606408 
L 167.398064 226.706855 
L 169.64988 201.630312 
L 171.901696 235.754867 
L 174.153512 241.724399 
L 176.405328 251.879584 
L 178.657144 215.329777 
L 180.90896 252.898348 
L 183.160776 245.470454 
L 185.412592 248.643551 
L 187.664408 184.80197 
L 189.916224 225.746052 
L 192.16804 222.12199 
L 194.419856 228.737597 
L 196.671672 244.750045 
L 198.923488 179.818197 
L 201.175304 231.365613 
L 203.42712 217.715618 
L 205.678936 209.716576 
L 207.930752 233.076148 
L 210.182568 198.973795 
L 212.434384 192.462179 
L 214.6862 252.9704 
L 216.938016 189.544466 
L 219.189832 198.769388 
L 221.441648 223.040461 
L 223.693464 216.675885 
L 225.94528 244.773007 
L 228.197096 250.849422 
L 230.448912 190.438863 
L 232.700728 238.403821 
L 234.952544 303.9313 
L 237.20436 239.10215 
L 239.456176 272.473063 
L 241.707992 201.434852 
L 243.959808 206.168918 
L 246.211624 266.457271 
L 248.46344 243.503242 
L 250.715256 225.615553 
L 252.967072 223.462468 
L 255.218888 197.62227 
L 257.470704 219.985477 
L 259.72252 239.678973 
L 261.974336 191.626245 
L 264.226152 298.747563 
L 266.477968 210.419333 
L 268.729784 205.361926 
L 270.9816 234.999931 
L 273.233416 220.781269 
L 275.485232 201.746766 
L 277.737048 262.038817 
L 279.988864 244.161262 
L 282.24068 243.948105 
L 284.492496 228.711546 
L 286.744312 217.68733 
L 288.996128 228.190858 
L 291.247944 197.849761 
L 293.49976 212.670384 
L 295.751576 239.572258 
L 298.003392 169.279046 
L 300.255208 175.529694 
L 302.507024 245.598275 
L 304.75884 174.775321 
L 307.010656 212.946493 
L 309.262472 172.622967 
L 311.514288 247.409119 
L 313.766104 245.483479 
L 316.01792 198.938233 
L 318.269736 243.335188 
L 320.521552 225.213921 
L 322.773368 210.910532 
L 325.025184 234.408546 
L 327.277 236.651836 
L 329.528816 202.288971 
L 331.780632 222.263354 
L 334.032448 203.424494 
L 336.284264 231.228784 
L 338.53608 168.407992 
L 340.787896 225.099962 
L 343.039712 225.249543 
L 345.291528 207.174916 
L 347.543344 207.67007 
L 349.79516 255.212594 
L 352.046976 213.554251 
L 354.298792 176.102545 
L 356.550608 218.768209 
L 358.802424 209.16547 
L 361.05424 252.038356 
L 363.306056 197.721742 
L 365.557872 199.543101 
L 367.809688 295.942728 
L 370.061504 241.489726 
L 372.31332 209.228361 
L 374.565136 232.015523 
L 376.816952 200.638116 
L 379.068768 233.431506 
L 381.320584 246.09766 
L 383.5724 213.522585 
L 385.824216 310.262536 
L 388.076032 223.590243 
L 390.327848 260.831593 
L 394.83148 228.749497 
L 397.083296 288.288575 
L 399.335112 270.59283 
L 401.586928 217.067094 
L 403.838744 239.469118 
L 406.09056 233.024822 
L 408.342376 232.497317 
L 410.594192 242.730351 
L 412.846008 203.03079 
L 415.097824 226.698121 
L 417.34964 196.270273 
L 419.601456 175.82461 
L 421.853272 249.941193 
L 424.105088 221.794981 
L 426.356904 217.917971 
L 428.60872 259.500138 
L 430.860536 216.43867 
L 433.112352 205.002597 
L 435.364168 236.229387 
L 437.615984 205.18535 
L 439.8678 218.520419 
L 442.119616 225.67149 
L 444.371432 219.930894 
L 446.623248 230.898808 
L 448.875064 224.37791 
L 451.12688 219.268416 
L 453.378696 192.649544 
L 455.630512 200.326187 
L 457.882328 194.575853 
L 460.134144 238.376659 
L 462.38596 217.388685 
L 464.637776 207.776846 
L 466.889592 220.634884 
L 469.141408 238.780726 
L 471.393224 209.992548 
L 473.64504 265.677502 
L 475.896856 201.077775 
L 478.148672 220.218735 
L 480.400488 162.733558 
L 482.652304 254.75921 
L 484.90412 229.910431 
L 487.155936 234.33832 
L 489.407752 244.22292 
L 491.659568 194.394225 
L 493.911384 209.469288 
L 496.1632 212.140855 
L 498.415016 235.649993 
L 500.666832 242.866085 
L 502.918648 229.009978 
L 505.170464 222.084253 
L 507.42228 238.630627 
L 509.674096 218.598207 
L 511.925912 235.802936 
L 514.177728 224.560238 
L 516.429544 230.163517 
L 518.68136 215.184837 
L 518.68136 215.184837 
" clip-path="url(#paddcdd1b66)" style="fill: none; stroke: #8c564b; stroke-width: 1.5; stroke-linecap: square"/>
   </g>
   <g id="line2d_18">
    <path d="M 45.8 60.220139 
L 541.19952 60.220139 
" clip-path="url(#paddcdd1b66)" style="fill: none; stroke-dasharray: 1.5,2.475; stroke-dashoffset: 0; stroke: #000000; stroke-width: 1.5"/>
   </g>
   <g id="line2d_19">
    <path d="M 45.8 104.493491 
L 541.19952 104.493491 
" clip-path="url(#paddcdd1b66)" style="fill: none; stroke-dasharray: 1.5,2.475; stroke-dashoffset: 0; stroke: #000000; stroke-width: 1.5"/>
   </g>
   <g id="line2d_20">
    <path d="M 45.8 150.423509 
L 541.19952 150.423509 
" clip-path="url(#paddcdd1b66)" style="fill: none; stroke-dasharray: 1.5,2.475; stroke-dashoffset: 0; stroke: #000000; stroke-width: 1.5"/>
   </g>
   <g id="line2d_21">
    <path d="M 45.8 195.885284 
L 541.19952 195.885284 
" clip-path="url(#paddcdd1b66)" style="fill: none; stroke-dasharray: 1.5,2.475; stroke-dashoffset: 0; stroke: #000000; stroke-width: 1.5"/>
   </g>
   <g id="line2d_22">
    <path d="M 45.8 238.838379 
L 541.19952 238.838379 
" clip-path="url(#paddcdd1b66)" style="fill: none; stroke-dasharray: 1.5,2.475; stroke-dashoffset: 0; stroke: #000000; stroke-width: 1.5"/>
   </g>
   <g id="line2d_23">
    <path d="M 45.8 238.838379 
L 541.19952 238.838379 
" clip-path="url(#paddcdd1b66)" style="fill: none; stroke-dasharray: 1.5,2.475; stroke-dashoffset: 0; stroke: #000000; stroke-width: 1.5"/>
   </g>
   <g id="patch_3">
    <path d="M 45.8 274.94952 
L 45.8 22.32 
" style="fill: none; stroke: #000000; stroke-width: 0.8; stroke-linejoin: miter; stroke-linecap: square"/>
   </g>
   <g id="patch_4">
    <path d="M 45.8 274.94952 
L 541.19952 274.94952 
" style="fill: none; stroke: #000000; stroke-width: 0.8; stroke-linejoin: miter; stroke-linecap: square"/>
   </g>
   <g id="text_14">
    <!-- Temperature percentiles during the NPT run (1000 H$_2$O) -->
    <g transform="translate(142.11976 16.32) scale(0.12 -0.12)">
     <defs>
      <path id="IBMPlexSans-63" d="M 1773 -77 
C 2400 -77 2829 230 3040 704 
L 2669 954 
C 2490 576 2189 378 1773 378 
C 1165 378 851 794 851 1370 
L 851 1933 
C 851 2509 1165 2925 1773 2925 
C 2176 2925 2458 2726 2579 2387 
L 3008 2605 
C 2816 3059 2426 3379 1773 3379 
C 845 3379 301 2707 301 1651 
C 301 595 845 -77 1773 -77 
z
" transform="scale(0.015625)"/>
      <path id="IBMPlexSans-6e" d="M 1056 0 
L 1056 2291 
C 1056 2714 1453 2918 1862 2918 
C 2355 2918 2611 2618 2611 2029 
L 2611 0 
L 3123 0 
L 3123 2118 
C 3123 2918 2694 3379 2016 3379 
C 1523 3379 1242 3136 1082 2765 
L 1056 2765 
L 1056 3302 
L 544 3302 
L 544 0 
L 1056 0 
z
" transform="scale(0.015625)"/>
      <path id="IBMPlexSans-6c" d="M 1542 0 
L 1542 448 
L 1056 448 
L 1056 4736 
L 544 4736 
L 544 531 
C 544 224 736 0 1088 0 
L 1542 0 
z
" transform="scale(0.015625)"/>
      <path id="IBMPlexSans-64" d="M 2656 0 
L 3168 0 
L 3168 4736 
L 2656 4736 
L 2656 2765 
L 2630 2765 
C 2458 3181 2118 3379 1664 3379 
C 838 3379 320 2707 320 1651 
C 320 595 838 -77 1664 -77 
C 2118 -77 2432 128 2630 538 
L 2656 538 
L 2656 0 
z
M 1805 384 
C 1229 384 870 781 870 1370 
L 870 1933 
C 870 2522 1229 2918 1805 2918 
C 2272 2918 2656 2650 2656 2285 
L 2656 1056 
C 2656 627 2272 384 1805 384 
z
" transform="scale(0.015625)"/>
      <path id="IBMPlexSans-67" d="M 3328 -365 
C 3328 179 2976 512 2157 512 
L 1453 512 
C 1152 512 947 563 947 762 
C 947 966 1165 1075 1382 1133 
C 1478 1114 1594 1101 1702 1101 
C 2458 1101 2950 1568 2950 2240 
C 2950 2592 2810 2886 2573 3091 
L 2573 3302 
L 3200 3302 
L 3200 3750 
L 2707 3750 
C 2432 3750 2323 3565 2323 3309 
L 2323 3251 
C 2144 3334 1933 3379 1696 3379 
C 947 3379 454 2912 454 2240 
C 454 1779 685 1414 1075 1229 
L 1075 1203 
C 742 1120 506 960 506 627 
C 506 403 614 256 800 166 
L 800 96 
C 474 6 275 -186 275 -544 
C 275 -1062 698 -1357 1728 -1357 
C 2790 -1357 3328 -1043 3328 -365 
z
M 2848 -403 
C 2848 -762 2515 -941 1946 -941 
L 1472 -941 
C 954 -941 755 -704 755 -416 
C 755 -211 851 -64 1062 32 
L 2163 32 
C 2675 32 2848 -141 2848 -403 
z
M 1702 1510 
C 1267 1510 992 1715 992 2150 
L 992 2330 
C 992 2765 1267 2970 1702 2970 
C 2138 2970 2413 2765 2413 2330 
L 2413 2150 
C 2413 1715 2138 1510 1702 1510 
z
" transform="scale(0.015625)"/>
      <path id="IBMPlexSans-68" d="M 544 0 
L 1056 0 
L 1056 2291 
C 1056 2714 1453 2918 1862 2918 
C 2355 2918 2611 2618 2611 2029 
L 2611 0 
L 3123 0 
L 3123 2118 
C 3123 2918 2694 3379 2016 3379 
C 1523 3379 1242 3136 1082 2765 
L 1056 2765 
L 1056 4736 
L 544 4736 
L 544 0 
z
" transform="scale(0.015625)"/>
      <path id="IBMPlexSans-4e" d="M 3309 0 
L 3930 0 
L 3930 4467 
L 3405 4467 
L 3405 749 
L 3386 749 
L 2848 1741 
L 1216 4467 
L 595 4467 
L 595 0 
L 1120 0 
L 1120 3718 
L 1139 3718 
L 1677 2726 
L 3309 0 
z
" transform="scale(0.015625)"/>
      <path id="IBMPlexSans-50" d="M 1133 0 
L 1133 1907 
L 2374 1907 
C 3174 1907 3622 2400 3622 3187 
C 3622 3974 3174 4467 2374 4467 
L 595 4467 
L 595 0 
L 1133 0 
z
M 1133 3994 
L 2374 3994 
C 2797 3994 3046 3763 3046 3354 
L 3046 3021 
C 3046 2611 2797 2381 2374 2381 
L 1133 2381 
L 1133 3994 
z
" transform="scale(0.015625)"/>
      <path id="IBMPlexSans-28" d="M 531 1997 
C 531 749 1056 -339 1690 -877 
L 2176 -877 
C 1485 -262 1011 819 1011 1715 
L 1011 2266 
C 1011 3162 1466 4224 2176 4864 
L 1690 4864 
C 1037 4307 531 3232 531 1997 
z
" transform="scale(0.015625)"/>
      <path id="IBMPlexSans-48" d="M 3392 0 
L 3930 0 
L 3930 4467 
L 3392 4467 
L 3392 2496 
L 1133 2496 
L 1133 4467 
L 595 4467 
L 595 0 
L 1133 0 
L 1133 2022 
L 3392 2022 
L 3392 0 
z
" transform="scale(0.015625)"/>
      <path id="DejaVuSans-32" d="M 1228 531 
L 3431 531 
L 3431 0 
L 469 0 
L 469 531 
Q 828 903 1448 1529 
Q 2069 2156 2228 2338 
Q 2531 2678 2651 2914 
Q 2772 3150 2772 3378 
Q 2772 3750 2511 3984 
Q 2250 4219 1831 4219 
Q 1534 4219 1204 4116 
Q 875 4013 500 3803 
L 500 4441 
Q 881 4594 1212 4672 
Q 1544 4750 1819 4750 
Q 2544 4750 2975 4387 
Q 3406 4025 3406 3419 
Q 3406 3131 3298 2873 
Q 3191 2616 2906 2266 
Q 2828 2175 2409 1742 
Q 1991 1309 1228 531 
z
" transform="scale(0.015625)"/>
      <path id="IBMPlexSans-4f" d="M 2266 -77 
C 3418 -77 4160 736 4160 2234 
C 4160 3731 3418 4544 2266 4544 
C 1114 4544 371 3731 371 2234 
C 371 736 1114 -77 2266 -77 
z
M 2266 403 
C 1491 403 947 979 947 1862 
L 947 2605 
C 947 3488 1491 4064 2266 4064 
C 3040 4064 3584 3488 3584 2605 
L 3584 1862 
C 3584 979 3040 403 2266 403 
z
" transform="scale(0.015625)"/>
      <path id="IBMPlexSans-29" d="M 1613 1997 
C 1613 3232 1107 4307 454 4864 
L -32 4864 
C 678 4224 1133 3162 1133 2266 
L 1133 1715 
C 1133 819 659 -262 -32 -877 
L 454 -877 
C 1088 -339 1613 749 1613 1997 
z
" transform="scale(0.015625)"/>
     </defs>
     <use xlink:href="#IBMPlexSans-54"/>
     <use xlink:href="#IBMPlexSans-65" transform="translate(57.199997 0)"/>
     <use xlink:href="#IBMPlexSans-6d" transform="translate(112.099991 0)"/>
     <use xlink:href="#IBMPlexSans-70" transform="translate(199.399979 0)"/>
     <use xlink:href="#IBMPlexSans-65" transform="translate(257.399963 0)"/>
     <use xlink:href="#IBMPlexSans-72" transform="translate(312.299957 0)"/>
     <use xlink:href="#IBMPlexSans-61" transform="translate(348.999954 0)"/>
     <use xlink:href="#IBMPlexSans-74" transform="translate(402.399948 0)"/>
     <use xlink:href="#IBMPlexSans-75" transform="translate(437.499939 0)"/>
     <use xlink:href="#IBMPlexSans-72" transform="translate(494.299927 0)"/>
     <use xlink:href="#IBMPlexSans-65" transform="translate(530.999924 0)"/>
     <use xlink:href="#IBMPlexSans-20" transform="translate(585.899918 0)"/>
     <use xlink:href="#IBMPlexSans-70" transform="translate(609.499908 0)"/>
     <use xlink:href="#IBMPlexSans-65" transform="translate(667.499893 0)"/>
     <use xlink:href="#IBMPlexSans-72" transform="translate(722.399887 0)"/>
     <use xlink:href="#IBMPlexSans-63" transform="translate(759.099884 0)"/>
     <use xlink:href="#IBMPlexSans-65" transform="translate(809.399872 0)"/>
     <use xlink:href="#IBMPlexSans-6e" transform="translate(864.299866 0)"/>
     <use xlink:href="#IBMPlexSans-74" transform="translate(921.099854 0)"/>
     <use xlink:href="#IBMPlexSans-69" transform="translate(956.199844 0)"/>
     <use xlink:href="#IBMPlexSans-6c" transform="translate(981.199829 0)"/>
     <use xlink:href="#IBMPlexSans-65" transform="translate(1008.399826 0)"/>
     <use xlink:href="#IBMPlexSans-73" transform="translate(1063.29982 0)"/>
     <use xlink:href="#IBMPlexSans-20" transform="translate(1111.999817 0)"/>
     <use xlink:href="#IBMPlexSans-64" transform="translate(1135.599808 0)"/>
     <use xlink:href="#IBMPlexSans-75" transform="translate(1193.599792 0)"/>
     <use xlink:href="#IBMPlexSans-72" transform="translate(1250.39978 0)"/>
     <use xlink:href="#IBMPlexSans-69" transform="translate(1287.099777 0)"/>
     <use xlink:href="#IBMPlexSans-6e" transform="translate(1312.099762 0)"/>
     <use xlink:href="#IBMPlexSans-67" transform="translate(1368.89975 0)"/>
     <use xlink:href="#IBMPlexSans-20" transform="translate(1421.699738 0)"/>
     <use xlink:href="#IBMPlexSans-74" transform="translate(1445.299728 0)"/>
     <use xlink:href="#IBMPlexSans-68" transform="translate(1480.399719 0)"/>
     <use xlink:href="#IBMPlexSans-65" transform="translate(1537.199707 0)"/>
     <use xlink:href="#IBMPlexSans-20" transform="translate(1592.099701 0)"/>
     <use xlink:href="#IBMPlexSans-4e" transform="translate(1615.699692 0)"/>
     <use xlink:href="#IBMPlexSans-50" transform="translate(1686.399673 0)"/>
     <use xlink:href="#IBMPlexSans-54" transform="translate(1746.999664 0)"/>
     <use xlink:href="#IBMPlexSans-20" transform="translate(1804.199661 0)"/>
     <use xlink:href="#IBMPlexSans-72" transform="translate(1827.799652 0)"/>
     <use xlink:href="#IBMPlexSans-75" transform="translate(1864.499649 0)"/>
     <use xlink:href="#IBMPlexSans-6e" transform="translate(1921.299637 0)"/>
     <use xlink:href="#IBMPlexSans-20" transform="translate(1978.099625 0)"/>
     <use xlink:href="#IBMPlexSans-28" transform="translate(2001.699615 0)"/>
     <use xlink:href="#IBMPlexSans-31" transform="translate(2035.1996 0)"/>
     <use xlink:href="#IBMPlexSans-30" transform="translate(2095.199585 0)"/>
     <use xlink:href="#IBMPlexSans-30" transform="translate(2155.19957 0)"/>
     <use xlink:href="#IBMPlexSans-30" transform="translate(2215.199554 0)"/>
     <use xlink:href="#IBMPlexSans-20" transform="translate(2275.199539 0)"/>
     <use xlink:href="#IBMPlexSans-48" transform="translate(2298.79953 0)"/>
     <use xlink:href="#DejaVuSans-32" transform="translate(2370.456543 -16.40625) scale(0.7)"/>
     <use xlink:href="#IBMPlexSans-4f" transform="translate(2417.727051 0)"/>
     <use xlink:href="#IBMPlexSans-29" transform="translate(2488.527039 0)"/>
    </g>
   </g>
   <g id="legend_1">
    <g id="patch_5">
     <path d="M 52.8 116.72 
L 108.429688 116.72 
Q 110.429688 116.72 110.429688 114.72 
L 110.429688 29.32 
Q 110.429688 27.32 108.429688 27.32 
L 52.8 27.32 
Q 50.8 27.32 50.8 29.32 
L 50.8 114.72 
Q 50.8 116.72 52.8 116.72 
z
" style="fill: #ffffff; opacity: 0.8; stroke: #cccccc; stroke-linejoin: miter"/>
    </g>
    <g id="line2d_24">
     <path d="M 54.8 35.22 
L 64.8 35.22 
L 74.8 35.22 
" style="fill: none; stroke: #1f77b4; stroke-width: 1.5; stroke-linecap: square"/>
    </g>
    <g id="text_15">
     <!-- 95 % -->
     <g transform="translate(82.8 38.72) scale(0.1 -0.1)">
      <defs>
       <path id="IBMPlexSans-25" d="M 1664 0 
L 4762 4467 
L 4269 4467 
L 1171 0 
L 1664 0 
z
M 1427 2010 
C 2074 2010 2438 2458 2438 3277 
C 2438 4096 2074 4544 1427 4544 
C 781 4544 416 4096 416 3277 
C 416 2458 781 2010 1427 2010 
z
M 1427 2342 
C 1056 2342 877 2598 877 3085 
L 877 3469 
C 877 3955 1056 4211 1427 4211 
C 1798 4211 1978 3955 1978 3469 
L 1978 3085 
C 1978 2598 1798 2342 1427 2342 
z
M 4506 -77 
C 5152 -77 5517 371 5517 1190 
C 5517 2010 5152 2458 4506 2458 
C 3859 2458 3494 2010 3494 1190 
C 3494 371 3859 -77 4506 -77 
z
M 4506 256 
C 4134 256 3955 512 3955 998 
L 3955 1382 
C 3955 1869 4134 2125 4506 2125 
C 4877 2125 5056 1869 5056 1382 
L 5056 998 
C 5056 512 4877 256 4506 256 
z
" transform="scale(0.015625)"/>
      </defs>
      <use xlink:href="#IBMPlexSans-39"/>
      <use xlink:href="#IBMPlexSans-35" transform="translate(59.999985 0)"/>
      <use xlink:href="#IBMPlexSans-20" transform="translate(119.999969 0)"/>
      <use xlink:href="#IBMPlexSans-25" transform="translate(143.59996 0)"/>
     </g>
    </g>
    <g id="line2d_25">
     <path d="M 54.8 49.62 
L 64.8 49.62 
L 74.8 49.62 
" style="fill: none; stroke: #ff7f0e; stroke-width: 1.5; stroke-linecap: square"/>
    </g>
    <g id="text_16">
     <!-- 80 % -->
     <g transform="translate(82.8 53.12) scale(0.1 -0.1)">
      <use xlink:href="#IBMPlexSans-38"/>
      <use xlink:href="#IBMPlexSans-30" transform="translate(59.999985 0)"/>
      <use xlink:href="#IBMPlexSans-20" transform="translate(119.999969 0)"/>
      <use xlink:href="#IBMPlexSans-25" transform="translate(143.59996 0)"/>
     </g>
    </g>
    <g id="line2d_26">
     <path d="M 54.8 64.02 
L 64.8 64.02 
L 74.8 64.02 
" style="fill: none; stroke: #2ca02c; stroke-width: 1.5; stroke-linecap: square"/>
    </g>
    <g id="text_17">
     <!-- 50 % -->
     <g transform="translate(82.8 67.52) scale(0.1 -0.1)">
      <use xlink:href="#IBMPlexSans-35"/>
      <use xlink:href="#IBMPlexSans-30" transform="translate(59.999985 0)"/>
      <use xlink:href="#IBMPlexSans-20" transform="translate(119.999969 0)"/>
      <use xlink:href="#IBMPlexSans-25" transform="translate(143.59996 0)"/>
     </g>
    </g>
    <g id="line2d_27">
     <path d="M 54.8 78.42 
L 64.8 78.42 
L 74.8 78.42 
" style="fill: none; stroke: #d62728; stroke-width: 1.5; stroke-linecap: square"/>
    </g>
    <g id="text_18">
     <!-- 20 % -->
     <g transform="translate(82.8 81.92) scale(0.1 -0.1)">
      <use xlink:href="#IBMPlexSans-32"/>
      <use xlink:href="#IBMPlexSans-30" transform="translate(59.999985 0)"/>
      <use xlink:href="#IBMPlexSans-20" transform="translate(119.999969 0)"/>
      <use xlink:href="#IBMPlexSans-25" transform="translate(143.59996 0)"/>
     </g>
    </g>
    <g id="line2d_28">
     <path d="M 54.8 92.82 
L 64.8 92.82 
L 74.8 92.82 
" style="fill: none; stroke: #9467bd; stroke-width: 1.5; stroke-linecap: square"/>
    </g>
    <g id="text_19">
     <!-- 5 % -->
     <g transform="translate(82.8 96.32) scale(0.1 -0.1)">
      <use xlink:href="#IBMPlexSans-35"/>
      <use xlink:href="#IBMPlexSans-20" transform="translate(59.999985 0)"/>
      <use xlink:href="#IBMPlexSans-25" transform="translate(83.599976 0)"/>
     </g>
    </g>
    <g id="line2d_29">
     <path d="M 54.8 107.22 
L 64.8 107.22 
L 74.8 107.22 
" style="fill: none; stroke: #8c564b; stroke-width: 1.5; stroke-linecap: square"/>
    </g>
    <g id="text_20">
     <!-- 5 % -->
     <g transform="translate(82.8 110.72) scale(0.1 -0.1)">
      <use xlink:href="#IBMPlexSans-35"/>
      <use xlink:href="#IBMPlexSans-20" transform="translate(59.999985 0)"/>
      <use xlink:href="#IBMPlexSans-25" transform="translate(83.599976 0)"/>
     </g>
    </g>
   </g>
  </g>
 </g>
 <defs>
  <clipPath id="paddcdd1b66">
   <rect x="45.8" y="22.32" width="495.39952" height="252.62952"/>
  </clipPath>
 </defs>
</svg>