<?xml version="1.0" encoding="utf-8" standalone="no"?>
<!DOCTYPE svg PUBLIC "-//W3C//DTD SVG 1.1//EN"
  "http://www.w3.org/Graphics/SVG/1.1/DTD/svg11.dtd">
<svg xmlns:xlink="http://www.w3.org/1999/xlink" width="548.39952pt" height="312.14952pt" viewBox="0 0 548.39952 312.14952" xmlns="http://www.w3.org/2000/svg" version="1.1">
 <metadata>
  <rdf:RDF xmlns:dc="http://purl.org/dc/elements/1.1/" xmlns:cc="http://creativecommons.org/ns#" xmlns:rdf="http://www.w3.org/1999/02/22-rdf-syntax-ns#">
   <cc:Work>
    <dc:type rdf:resource="http://purl.org/dc/dcmitype/StillImage"/>
    <dc:date>2025-06-25T08:45:39.820697</dc:date>
    <dc:format>image/svg+xml</dc:format>
    <dc:creator>
     <cc:Agent>
      <dc:title>Matplotlib v3.10.1, https://matplotlib.org/</dc:title>
     </cc:Agent>
    </dc:creator>
   </cc:Work>
  </rdf:RDF>
 </metadata>
 <defs>
  <style type="text/css">*{stroke-linejoin: round; stroke-linecap: butt}</style>
 </defs>
 <g id="figure_1">
  <g id="patch_1">
   <path d="M 0 312.14952 
L 548.39952 312.14952 
L 548.39952 0 
L 0 0 
z
" style="fill: #ffffff"/>
  </g>
  <g id="axes_1">
   <g id="patch_2">
    <path d="M 48.520313 274.94952 
L 541.19952 274.94952 
L 541.19952 22.32 
L 48.520313 22.32 
z
" style="fill: #ffffff"/>
   </g>
   <g id="matplotlib.axis_1">
    <g id="xtick_1">
     <g id="line2d_1">
      <defs>
       <path id="me99aaba767" d="M 0 0 
L 0 3.5 
" style="stroke: #000000; stroke-width: 0.8"/>
      </defs>
      <g>
       <use xlink:href="#me99aaba767" x="70.466483" y="274.94952" style="stroke: #000000; stroke-width: 0.8"/>
      </g>
     </g>
     <g id="text_1">
      <!-- 0.0 -->
      <g transform="translate(63.106327 289.34952) scale(0.1 -0.1)">
       <defs>
        <path id="IBMPlexSans-30" d="M 1920 -77 
C 2989 -77 3456 774 3456 2234 
C 3456 3693 2989 4544 1920 4544 
C 851 4544 384 3693 384 2234 
C 384 774 851 -77 1920 -77 
z
M 1920 390 
C 1222 390 947 1005 947 1869 
L 947 2598 
C 947 3462 1222 4077 1920 4077 
C 2618 4077 2893 3462 2893 2598 
L 2893 1869 
C 2893 1005 2618 390 1920 390 
z
" transform="scale(0.015625)"/>
        <path id="IBMPlexSans-2e" d="M 870 -77 
C 1139 -77 1261 77 1261 294 
L 1261 378 
C 1261 595 1139 749 870 749 
C 602 749 480 595 480 378 
L 480 294 
C 480 77 602 -77 870 -77 
z
" transform="scale(0.015625)"/>
       </defs>
       <use xlink:href="#IBMPlexSans-30"/>
       <use xlink:href="#IBMPlexSans-2e" transform="translate(59.999985 0)"/>
       <use xlink:href="#IBMPlexSans-30" transform="translate(87.199982 0)"/>
      </g>
     </g>
    </g>
    <g id="xtick_2">
     <g id="line2d_2">
      <g>
       <use xlink:href="#me99aaba767" x="160.134185" y="274.94952" style="stroke: #000000; stroke-width: 0.8"/>
      </g>
     </g>
     <g id="text_2">
      <!-- 0.2 -->
      <g transform="translate(152.774028 289.34952) scale(0.1 -0.1)">
       <defs>
        <path id="IBMPlexSans-32" d="M 3411 474 
L 1062 474 
L 2266 1555 
C 2835 2067 3245 2554 3245 3245 
C 3245 4006 2746 4544 1875 4544 
C 1011 4544 614 4019 442 3494 
L 922 3309 
C 1043 3731 1299 4064 1850 4064 
C 2400 4064 2675 3725 2675 3232 
L 2675 3155 
C 2675 2726 2355 2278 1939 1894 
L 480 550 
L 480 0 
L 3411 0 
L 3411 474 
z
" transform="scale(0.015625)"/>
       </defs>
       <use xlink:href="#IBMPlexSans-30"/>
       <use xlink:href="#IBMPlexSans-2e" transform="translate(59.999985 0)"/>
       <use xlink:href="#IBMPlexSans-32" transform="translate(87.199982 0)"/>
      </g>
     </g>
    </g>
    <g id="xtick_3">
     <g id="line2d_3">
      <g>
       <use xlink:href="#me99aaba767" x="249.801886" y="274.94952" style="stroke: #000000; stroke-width: 0.8"/>
      </g>
     </g>
     <g id="text_3">
      <!-- 0.4 -->
      <g transform="translate(242.44173 289.34952) scale(0.1 -0.1)">
       <defs>
        <path id="IBMPlexSans-34" d="M 2912 0 
L 2912 877 
L 3558 877 
L 3558 1325 
L 2912 1325 
L 2912 4467 
L 2112 4467 
L 243 1350 
L 243 877 
L 2400 877 
L 2400 0 
L 2912 0 
z
M 2368 4051 
L 2400 4051 
L 2400 1325 
L 749 1325 
L 2368 4051 
z
" transform="scale(0.015625)"/>
       </defs>
       <use xlink:href="#IBMPlexSans-30"/>
       <use xlink:href="#IBMPlexSans-2e" transform="translate(59.999985 0)"/>
       <use xlink:href="#IBMPlexSans-34" transform="translate(87.199982 0)"/>
      </g>
     </g>
    </g>
    <g id="xtick_4">
     <g id="line2d_4">
      <g>
       <use xlink:href="#me99aaba767" x="339.469587" y="274.94952" style="stroke: #000000; stroke-width: 0.8"/>
      </g>
     </g>
     <g id="text_4">
      <!-- 0.6 -->
      <g transform="translate(332.109431 289.34952) scale(0.1 -0.1)">
       <defs>
        <path id="IBMPlexSans-36" d="M 1926 -77 
C 2822 -77 3411 525 3411 1402 
C 3411 2246 2861 2778 2093 2778 
C 1549 2778 1229 2502 1018 2138 
L 986 2150 
C 1229 3187 1760 3770 2714 4467 
L 2022 4467 
C 1306 4000 429 2963 429 1638 
C 429 576 998 -77 1926 -77 
z
M 1920 390 
C 1331 390 986 730 986 1331 
L 986 1382 
C 986 1984 1331 2323 1920 2323 
C 2509 2323 2854 1984 2854 1382 
L 2854 1331 
C 2854 730 2509 390 1920 390 
z
" transform="scale(0.015625)"/>
       </defs>
       <use xlink:href="#IBMPlexSans-30"/>
       <use xlink:href="#IBMPlexSans-2e" transform="translate(59.999985 0)"/>
       <use xlink:href="#IBMPlexSans-36" transform="translate(87.199982 0)"/>
      </g>
     </g>
    </g>
    <g id="xtick_5">
     <g id="line2d_5">
      <g>
       <use xlink:href="#me99aaba767" x="429.137288" y="274.94952" style="stroke: #000000; stroke-width: 0.8"/>
      </g>
     </g>
     <g id="text_5">
      <!-- 0.8 -->
      <g transform="translate(421.777132 289.34952) scale(0.1 -0.1)">
       <defs>
        <path id="IBMPlexSans-38" d="M 1920 -77 
C 2938 -77 3469 480 3469 1216 
C 3469 1824 3104 2176 2566 2323 
L 2566 2374 
C 3034 2534 3334 2912 3334 3424 
C 3334 4102 2810 4544 1920 4544 
C 1030 4544 506 4102 506 3424 
C 506 2912 806 2534 1274 2374 
L 1274 2323 
C 736 2176 371 1824 371 1216 
C 371 480 902 -77 1920 -77 
z
M 1920 390 
C 1299 390 941 685 941 1190 
L 941 1325 
C 941 1830 1299 2125 1920 2125 
C 2541 2125 2899 1830 2899 1325 
L 2899 1190 
C 2899 685 2541 390 1920 390 
z
M 1920 2573 
C 1363 2573 1062 2822 1062 3277 
L 1062 3373 
C 1062 3827 1363 4077 1920 4077 
C 2477 4077 2778 3827 2778 3373 
L 2778 3277 
C 2778 2822 2477 2573 1920 2573 
z
" transform="scale(0.015625)"/>
       </defs>
       <use xlink:href="#IBMPlexSans-30"/>
       <use xlink:href="#IBMPlexSans-2e" transform="translate(59.999985 0)"/>
       <use xlink:href="#IBMPlexSans-38" transform="translate(87.199982 0)"/>
      </g>
     </g>
    </g>
    <g id="xtick_6">
     <g id="line2d_6">
      <g>
       <use xlink:href="#me99aaba767" x="518.804989" y="274.94952" style="stroke: #000000; stroke-width: 0.8"/>
      </g>
     </g>
     <g id="text_6">
      <!-- 1.0 -->
      <g transform="translate(511.444833 289.34952) scale(0.1 -0.1)">
       <defs>
        <path id="IBMPlexSans-31" d="M 3501 0 
L 3501 474 
L 2349 474 
L 2349 4467 
L 1510 4467 
L 326 3360 
L 640 3021 
L 1766 4070 
L 1811 4070 
L 1811 474 
L 563 474 
L 563 0 
L 3501 0 
z
" transform="scale(0.015625)"/>
       </defs>
       <use xlink:href="#IBMPlexSans-31"/>
       <use xlink:href="#IBMPlexSans-2e" transform="translate(59.999985 0)"/>
       <use xlink:href="#IBMPlexSans-30" transform="translate(87.199982 0)"/>
      </g>
     </g>
    </g>
    <g id="text_7">
     <!-- Frequency [THz] -->
     <g transform="translate(258.083354 302.94952) scale(0.1 -0.1)">
      <defs>
       <path id="IBMPlexSans-46" d="M 1133 0 
L 1133 2022 
L 3072 2022 
L 3072 2496 
L 1133 2496 
L 1133 3994 
L 3258 3994 
L 3258 4467 
L 595 4467 
L 595 0 
L 1133 0 
z
" transform="scale(0.015625)"/>
       <path id="IBMPlexSans-72" d="M 1056 0 
L 1056 2240 
C 1056 2554 1389 2790 1939 2790 
L 2240 2790 
L 2240 3302 
L 2042 3302 
C 1504 3302 1203 3008 1088 2694 
L 1056 2694 
L 1056 3302 
L 544 3302 
L 544 0 
L 1056 0 
z
" transform="scale(0.015625)"/>
       <path id="IBMPlexSans-65" d="M 1786 -77 
C 2406 -77 2880 230 3091 678 
L 2726 941 
C 2554 576 2234 371 1818 371 
C 1203 371 838 800 838 1370 
L 838 1523 
L 3213 1523 
L 3213 1766 
C 3213 2701 2669 3379 1786 3379 
C 890 3379 301 2701 301 1651 
C 301 602 890 -77 1786 -77 
z
M 1786 2950 
C 2310 2950 2662 2560 2662 1978 
L 2662 1907 
L 838 1907 
L 838 1952 
C 838 2528 1229 2950 1786 2950 
z
" transform="scale(0.015625)"/>
       <path id="IBMPlexSans-71" d="M 2656 -1280 
L 3168 -1280 
L 3168 3302 
L 2656 3302 
L 2656 2765 
L 2630 2765 
C 2458 3181 2118 3379 1664 3379 
C 838 3379 320 2707 320 1651 
C 320 595 838 -77 1664 -77 
C 2118 -77 2432 128 2630 538 
L 2656 538 
L 2656 -1280 
z
M 1805 384 
C 1229 384 870 781 870 1370 
L 870 1933 
C 870 2522 1229 2918 1805 2918 
C 2272 2918 2656 2650 2656 2285 
L 2656 1056 
C 2656 627 2272 384 1805 384 
z
" transform="scale(0.015625)"/>
       <path id="IBMPlexSans-75" d="M 2579 0 
L 3091 0 
L 3091 3302 
L 2579 3302 
L 2579 1018 
C 2579 582 2182 384 1779 384 
C 1286 384 1024 685 1024 1274 
L 1024 3302 
L 512 3302 
L 512 1184 
C 512 384 947 -77 1626 -77 
C 2176 -77 2426 224 2554 538 
L 2579 538 
L 2579 0 
z
" transform="scale(0.015625)"/>
       <path id="IBMPlexSans-6e" d="M 1056 0 
L 1056 2291 
C 1056 2714 1453 2918 1862 2918 
C 2355 2918 2611 2618 2611 2029 
L 2611 0 
L 3123 0 
L 3123 2118 
C 3123 2918 2694 3379 2016 3379 
C 1523 3379 1242 3136 1082 2765 
L 1056 2765 
L 1056 3302 
L 544 3302 
L 544 0 
L 1056 0 
z
" transform="scale(0.015625)"/>
       <path id="IBMPlexSans-63" d="M 1773 -77 
C 2400 -77 2829 230 3040 704 
L 2669 954 
C 2490 576 2189 378 1773 378 
C 1165 378 851 794 851 1370 
L 851 1933 
C 851 2509 1165 2925 1773 2925 
C 2176 2925 2458 2726 2579 2387 
L 3008 2605 
C 2816 3059 2426 3379 1773 3379 
C 845 3379 301 2707 301 1651 
C 301 595 845 -77 1773 -77 
z
" transform="scale(0.015625)"/>
       <path id="IBMPlexSans-79" d="M 1779 1056 
L 1600 518 
L 1568 518 
L 1414 1056 
L 621 3302 
L 109 3302 
L 1344 -128 
L 1094 -832 
L 576 -832 
L 576 -1280 
L 838 -1280 
C 1325 -1280 1459 -1165 1606 -768 
L 3085 3302 
L 2579 3302 
L 1779 1056 
z
" transform="scale(0.015625)"/>
       <path id="IBMPlexSans-20" transform="scale(0.015625)"/>
       <path id="IBMPlexSans-5b" d="M 1645 -883 
L 1645 -480 
L 1037 -480 
L 1037 4461 
L 1645 4461 
L 1645 4864 
L 595 4864 
L 595 -883 
L 1645 -883 
z
" transform="scale(0.015625)"/>
       <path id="IBMPlexSans-54" d="M 3520 3994 
L 3520 4467 
L 141 4467 
L 141 3994 
L 1562 3994 
L 1562 0 
L 2099 0 
L 2099 3994 
L 3520 3994 
z
" transform="scale(0.015625)"/>
       <path id="IBMPlexSans-48" d="M 3392 0 
L 3930 0 
L 3930 4467 
L 3392 4467 
L 3392 2496 
L 1133 2496 
L 1133 4467 
L 595 4467 
L 595 0 
L 1133 0 
L 1133 2022 
L 3392 2022 
L 3392 0 
z
" transform="scale(0.015625)"/>
       <path id="IBMPlexSans-7a" d="M 2758 0 
L 2758 448 
L 794 448 
L 2707 2918 
L 2707 3302 
L 269 3302 
L 269 2854 
L 2086 2854 
L 211 429 
L 211 0 
L 2758 0 
z
" transform="scale(0.015625)"/>
       <path id="IBMPlexSans-5d" d="M 384 4864 
L 384 4461 
L 992 4461 
L 992 -480 
L 384 -480 
L 384 -883 
L 1434 -883 
L 1434 4864 
L 384 4864 
z
" transform="scale(0.015625)"/>
      </defs>
      <use xlink:href="#IBMPlexSans-46"/>
      <use xlink:href="#IBMPlexSans-72" transform="translate(55.899994 0)"/>
      <use xlink:href="#IBMPlexSans-65" transform="translate(92.599991 0)"/>
      <use xlink:href="#IBMPlexSans-71" transform="translate(147.499985 0)"/>
      <use xlink:href="#IBMPlexSans-75" transform="translate(205.499969 0)"/>
      <use xlink:href="#IBMPlexSans-65" transform="translate(262.299957 0)"/>
      <use xlink:href="#IBMPlexSans-6e" transform="translate(317.199951 0)"/>
      <use xlink:href="#IBMPlexSans-63" transform="translate(373.999939 0)"/>
      <use xlink:href="#IBMPlexSans-79" transform="translate(424.299927 0)"/>
      <use xlink:href="#IBMPlexSans-20" transform="translate(474.199921 0)"/>
      <use xlink:href="#IBMPlexSans-5b" transform="translate(497.799911 0)"/>
      <use xlink:href="#IBMPlexSans-54" transform="translate(529.499908 0)"/>
      <use xlink:href="#IBMPlexSans-48" transform="translate(586.699905 0)"/>
      <use xlink:href="#IBMPlexSans-7a" transform="translate(657.399887 0)"/>
      <use xlink:href="#IBMPlexSans-5d" transform="translate(703.799881 0)"/>
     </g>
    </g>
   </g>
   <g id="matplotlib.axis_2">
    <g id="ytick_1">
     <g id="line2d_7">
      <defs>
       <path id="mdaf561d0e9" d="M 0 0 
L -3.5 0 
" style="stroke: #000000; stroke-width: 0.8"/>
      </defs>
      <g>
       <use xlink:href="#mdaf561d0e9" x="48.520313" y="239.803547" style="stroke: #000000; stroke-width: 0.8"/>
      </g>
     </g>
     <g id="text_8">
      <!-- $\mathdefault{10^{-1}}$ -->
      <g transform="translate(20.720313 243.503547) scale(0.1 -0.1)">
       <defs>
        <path id="IBMPlexSans-2212" d="M 3411 1734 
L 3411 2170 
L 429 2170 
L 429 1734 
L 3411 1734 
z
" transform="scale(0.015625)"/>
       </defs>
       <use xlink:href="#IBMPlexSans-31" transform="translate(0 0.026563)"/>
       <use xlink:href="#IBMPlexSans-30" transform="translate(59.999985 0.026563)"/>
       <use xlink:href="#IBMPlexSans-2212" transform="translate(120.90286 36.142188) scale(0.7)"/>
       <use xlink:href="#IBMPlexSans-31" transform="translate(162.902849 36.142188) scale(0.7)"/>
      </g>
     </g>
    </g>
    <g id="ytick_2">
     <g id="line2d_8">
      <g>
       <use xlink:href="#mdaf561d0e9" x="48.520313" y="107.342551" style="stroke: #000000; stroke-width: 0.8"/>
      </g>
     </g>
     <g id="text_9">
      <!-- $\mathdefault{10^{0}}$ -->
      <g transform="translate(24.920313 111.042551) scale(0.1 -0.1)">
       <use xlink:href="#IBMPlexSans-31" transform="translate(0 0.184375)"/>
       <use xlink:href="#IBMPlexSans-30" transform="translate(59.999985 0.184375)"/>
       <use xlink:href="#IBMPlexSans-30" transform="translate(120.90286 36.3) scale(0.7)"/>
      </g>
     </g>
    </g>
    <g id="ytick_3">
     <g id="line2d_9">
      <defs>
       <path id="m2903f43659" d="M 0 0 
L -2 0 
" style="stroke: #000000; stroke-width: 0.6"/>
      </defs>
      <g>
       <use xlink:href="#m2903f43659" x="48.520313" y="269.189853" style="stroke: #000000; stroke-width: 0.6"/>
      </g>
     </g>
    </g>
    <g id="ytick_4">
     <g id="line2d_10">
      <g>
       <use xlink:href="#m2903f43659" x="48.520313" y="260.322014" style="stroke: #000000; stroke-width: 0.6"/>
      </g>
     </g>
    </g>
    <g id="ytick_5">
     <g id="line2d_11">
      <g>
       <use xlink:href="#m2903f43659" x="48.520313" y="252.640343" style="stroke: #000000; stroke-width: 0.6"/>
      </g>
     </g>
    </g>
    <g id="ytick_6">
     <g id="line2d_12">
      <g>
       <use xlink:href="#m2903f43659" x="48.520313" y="245.864629" style="stroke: #000000; stroke-width: 0.6"/>
      </g>
     </g>
    </g>
    <g id="ytick_7">
     <g id="line2d_13">
      <g>
       <use xlink:href="#m2903f43659" x="48.520313" y="199.928814" style="stroke: #000000; stroke-width: 0.6"/>
      </g>
     </g>
    </g>
    <g id="ytick_8">
     <g id="line2d_14">
      <g>
       <use xlink:href="#m2903f43659" x="48.520313" y="176.60359" style="stroke: #000000; stroke-width: 0.6"/>
      </g>
     </g>
    </g>
    <g id="ytick_9">
     <g id="line2d_15">
      <g>
       <use xlink:href="#m2903f43659" x="48.520313" y="160.054081" style="stroke: #000000; stroke-width: 0.6"/>
      </g>
     </g>
    </g>
    <g id="ytick_10">
     <g id="line2d_16">
      <g>
       <use xlink:href="#m2903f43659" x="48.520313" y="147.217284" style="stroke: #000000; stroke-width: 0.6"/>
      </g>
     </g>
    </g>
    <g id="ytick_11">
     <g id="line2d_17">
      <g>
       <use xlink:href="#m2903f43659" x="48.520313" y="136.728857" style="stroke: #000000; stroke-width: 0.6"/>
      </g>
     </g>
    </g>
    <g id="ytick_12">
     <g id="line2d_18">
      <g>
       <use xlink:href="#m2903f43659" x="48.520313" y="127.861019" style="stroke: #000000; stroke-width: 0.6"/>
      </g>
     </g>
    </g>
    <g id="ytick_13">
     <g id="line2d_19">
      <g>
       <use xlink:href="#m2903f43659" x="48.520313" y="120.179348" style="stroke: #000000; stroke-width: 0.6"/>
      </g>
     </g>
    </g>
    <g id="ytick_14">
     <g id="line2d_20">
      <g>
       <use xlink:href="#m2903f43659" x="48.520313" y="113.403634" style="stroke: #000000; stroke-width: 0.6"/>
      </g>
     </g>
    </g>
    <g id="ytick_15">
     <g id="line2d_21">
      <g>
       <use xlink:href="#m2903f43659" x="48.520313" y="67.467818" style="stroke: #000000; stroke-width: 0.6"/>
      </g>
     </g>
    </g>
    <g id="ytick_16">
     <g id="line2d_22">
      <g>
       <use xlink:href="#m2903f43659" x="48.520313" y="44.142595" style="stroke: #000000; stroke-width: 0.6"/>
      </g>
     </g>
    </g>
    <g id="ytick_17">
     <g id="line2d_23">
      <g>
       <use xlink:href="#m2903f43659" x="48.520313" y="27.593085" style="stroke: #000000; stroke-width: 0.6"/>
      </g>
     </g>
    </g>
    <g id="text_10">
     <!-- Relative Degrees of Freedom -->
     <g transform="translate(14.6 213.466791) rotate(-90) scale(0.1 -0.1)">
      <defs>
       <path id="IBMPlexSans-52" d="M 1133 1920 
L 2176 1920 
L 3142 0 
L 3750 0 
L 2726 1971 
C 3309 2106 3622 2547 3622 3200 
C 3622 4013 3155 4467 2374 4467 
L 595 4467 
L 595 0 
L 1133 0 
L 1133 1920 
z
M 1133 2381 
L 1133 3994 
L 2374 3994 
C 2797 3994 3046 3763 3046 3354 
L 3046 3021 
C 3046 2611 2797 2381 2374 2381 
L 1133 2381 
z
" transform="scale(0.015625)"/>
       <path id="IBMPlexSans-6c" d="M 1542 0 
L 1542 448 
L 1056 448 
L 1056 4736 
L 544 4736 
L 544 531 
C 544 224 736 0 1088 0 
L 1542 0 
z
" transform="scale(0.015625)"/>
       <path id="IBMPlexSans-61" d="M 3232 0 
L 3232 448 
L 2854 448 
L 2854 2266 
C 2854 2963 2381 3379 1587 3379 
C 992 3379 595 3085 416 2733 
L 723 2445 
C 902 2746 1165 2938 1562 2938 
C 2086 2938 2342 2682 2342 2214 
L 2342 1888 
L 1690 1888 
C 730 1888 282 1542 282 922 
C 282 307 691 -77 1389 -77 
C 1850 -77 2202 134 2342 538 
L 2374 538 
C 2413 230 2566 0 2944 0 
L 3232 0 
z
M 1472 358 
C 1075 358 819 544 819 870 
L 819 1005 
C 819 1325 1082 1504 1664 1504 
L 2342 1504 
L 2342 960 
C 2342 621 1978 358 1472 358 
z
" transform="scale(0.015625)"/>
       <path id="IBMPlexSans-74" d="M 1914 0 
L 1914 448 
L 1242 448 
L 1242 2854 
L 1965 2854 
L 1965 3302 
L 1242 3302 
L 1242 4218 
L 781 4218 
L 781 3603 
C 781 3379 710 3302 493 3302 
L 186 3302 
L 186 2854 
L 730 2854 
L 730 544 
C 730 224 922 0 1274 0 
L 1914 0 
z
" transform="scale(0.015625)"/>
       <path id="IBMPlexSans-69" d="M 800 4077 
C 1018 4077 1114 4192 1114 4365 
L 1114 4448 
C 1114 4621 1018 4736 800 4736 
C 582 4736 486 4621 486 4448 
L 486 4365 
C 486 4192 582 4077 800 4077 
z
M 544 0 
L 1056 0 
L 1056 3302 
L 544 3302 
L 544 0 
z
" transform="scale(0.015625)"/>
       <path id="IBMPlexSans-76" d="M 1869 0 
L 3034 3302 
L 2541 3302 
L 1952 1664 
L 1594 538 
L 1562 538 
L 1203 1664 
L 627 3302 
L 115 3302 
L 1274 0 
L 1869 0 
z
" transform="scale(0.015625)"/>
       <path id="IBMPlexSans-44" d="M 595 0 
L 2093 0 
C 3206 0 3923 742 3923 2234 
C 3923 3725 3206 4467 2093 4467 
L 595 4467 
L 595 0 
z
M 1133 474 
L 1133 3994 
L 2093 3994 
C 2829 3994 3347 3482 3347 2598 
L 3347 1869 
C 3347 986 2829 474 2093 474 
L 1133 474 
z
" transform="scale(0.015625)"/>
       <path id="IBMPlexSans-67" d="M 3328 -365 
C 3328 179 2976 512 2157 512 
L 1453 512 
C 1152 512 947 563 947 762 
C 947 966 1165 1075 1382 1133 
C 1478 1114 1594 1101 1702 1101 
C 2458 1101 2950 1568 2950 2240 
C 2950 2592 2810 2886 2573 3091 
L 2573 3302 
L 3200 3302 
L 3200 3750 
L 2707 3750 
C 2432 3750 2323 3565 2323 3309 
L 2323 3251 
C 2144 3334 1933 3379 1696 3379 
C 947 3379 454 2912 454 2240 
C 454 1779 685 1414 1075 1229 
L 1075 1203 
C 742 1120 506 960 506 627 
C 506 403 614 256 800 166 
L 800 96 
C 474 6 275 -186 275 -544 
C 275 -1062 698 -1357 1728 -1357 
C 2790 -1357 3328 -1043 3328 -365 
z
M 2848 -403 
C 2848 -762 2515 -941 1946 -941 
L 1472 -941 
C 954 -941 755 -704 755 -416 
C 755 -211 851 -64 1062 32 
L 2163 32 
C 2675 32 2848 -141 2848 -403 
z
M 1702 1510 
C 1267 1510 992 1715 992 2150 
L 992 2330 
C 992 2765 1267 2970 1702 2970 
C 2138 2970 2413 2765 2413 2330 
L 2413 2150 
C 2413 1715 2138 1510 1702 1510 
z
" transform="scale(0.015625)"/>
       <path id="IBMPlexSans-73" d="M 1536 -77 
C 2291 -77 2758 314 2758 954 
C 2758 1453 2477 1773 1747 1882 
L 1491 1920 
C 1082 1984 858 2112 858 2432 
C 858 2746 1082 2944 1504 2944 
C 1926 2944 2208 2746 2355 2541 
L 2694 2848 
C 2426 3181 2074 3379 1542 3379 
C 870 3379 365 3059 365 2406 
C 365 1792 819 1542 1427 1453 
L 1690 1414 
C 2125 1350 2266 1152 2266 896 
C 2266 557 2010 358 1574 358 
C 1158 358 851 544 595 864 
L 230 570 
C 525 179 928 -77 1536 -77 
z
" transform="scale(0.015625)"/>
       <path id="IBMPlexSans-6f" d="M 1792 -77 
C 2675 -77 3283 602 3283 1651 
C 3283 2701 2675 3379 1792 3379 
C 909 3379 301 2701 301 1651 
C 301 602 909 -77 1792 -77 
z
M 1792 378 
C 1242 378 851 717 851 1414 
L 851 1888 
C 851 2586 1242 2925 1792 2925 
C 2342 2925 2733 2586 2733 1888 
L 2733 1414 
C 2733 717 2342 378 1792 378 
z
" transform="scale(0.015625)"/>
       <path id="IBMPlexSans-66" d="M 723 0 
L 1235 0 
L 1235 2854 
L 1946 2854 
L 1946 3302 
L 1235 3302 
L 1235 4288 
L 1946 4288 
L 1946 4736 
L 1446 4736 
C 960 4736 723 4422 723 3968 
L 723 3302 
L 186 3302 
L 186 2854 
L 723 2854 
L 723 0 
z
" transform="scale(0.015625)"/>
       <path id="IBMPlexSans-64" d="M 2656 0 
L 3168 0 
L 3168 4736 
L 2656 4736 
L 2656 2765 
L 2630 2765 
C 2458 3181 2118 3379 1664 3379 
C 838 3379 320 2707 320 1651 
C 320 595 838 -77 1664 -77 
C 2118 -77 2432 128 2630 538 
L 2656 538 
L 2656 0 
z
M 1805 384 
C 1229 384 870 781 870 1370 
L 870 1933 
C 870 2522 1229 2918 1805 2918 
C 2272 2918 2656 2650 2656 2285 
L 2656 1056 
C 2656 627 2272 384 1805 384 
z
" transform="scale(0.015625)"/>
       <path id="IBMPlexSans-6d" d="M 1056 0 
L 1056 2291 
C 1056 2714 1440 2918 1843 2918 
C 2330 2918 2554 2618 2554 2029 
L 2554 0 
L 3066 0 
L 3066 2291 
C 3066 2714 3437 2918 3840 2918 
C 4339 2918 4563 2611 4563 2029 
L 4563 0 
L 5075 0 
L 5075 2118 
C 5075 2918 4672 3379 4000 3379 
C 3437 3379 3117 3066 2995 2707 
L 2982 2707 
C 2803 3181 2406 3379 1971 3379 
C 1459 3379 1229 3104 1082 2765 
L 1056 2765 
L 1056 3302 
L 544 3302 
L 544 0 
L 1056 0 
z
" transform="scale(0.015625)"/>
      </defs>
      <use xlink:href="#IBMPlexSans-52"/>
      <use xlink:href="#IBMPlexSans-65" transform="translate(63.999985 0)"/>
      <use xlink:href="#IBMPlexSans-6c" transform="translate(118.899979 0)"/>
      <use xlink:href="#IBMPlexSans-61" transform="translate(146.099976 0)"/>
      <use xlink:href="#IBMPlexSans-74" transform="translate(199.499969 0)"/>
      <use xlink:href="#IBMPlexSans-69" transform="translate(234.59996 0)"/>
      <use xlink:href="#IBMPlexSans-76" transform="translate(259.599945 0)"/>
      <use xlink:href="#IBMPlexSans-65" transform="translate(308.799942 0)"/>
      <use xlink:href="#IBMPlexSans-20" transform="translate(363.699936 0)"/>
      <use xlink:href="#IBMPlexSans-44" transform="translate(387.299927 0)"/>
      <use xlink:href="#IBMPlexSans-65" transform="translate(454.399918 0)"/>
      <use xlink:href="#IBMPlexSans-67" transform="translate(509.299911 0)"/>
      <use xlink:href="#IBMPlexSans-72" transform="translate(562.099899 0)"/>
      <use xlink:href="#IBMPlexSans-65" transform="translate(598.799896 0)"/>
      <use xlink:href="#IBMPlexSans-65" transform="translate(653.69989 0)"/>
      <use xlink:href="#IBMPlexSans-73" transform="translate(708.599884 0)"/>
      <use xlink:href="#IBMPlexSans-20" transform="translate(757.299881 0)"/>
      <use xlink:href="#IBMPlexSans-6f" transform="translate(780.899872 0)"/>
      <use xlink:href="#IBMPlexSans-66" transform="translate(836.899857 0)"/>
      <use xlink:href="#IBMPlexSans-20" transform="translate(869.29985 0)"/>
      <use xlink:href="#IBMPlexSans-46" transform="translate(892.899841 0)"/>
      <use xlink:href="#IBMPlexSans-72" transform="translate(948.799835 0)"/>
      <use xlink:href="#IBMPlexSans-65" transform="translate(985.499832 0)"/>
      <use xlink:href="#IBMPlexSans-65" transform="translate(1040.399826 0)"/>
      <use xlink:href="#IBMPlexSans-64" transform="translate(1095.29982 0)"/>
      <use xlink:href="#IBMPlexSans-6f" transform="translate(1153.299805 0)"/>
      <use xlink:href="#IBMPlexSans-6d" transform="translate(1209.299789 0)"/>
     </g>
    </g>
   </g>
   <g id="line2d_24">
    <path d="M 70.914822 244.567861 
L 71.36316 221.058678 
L 71.811499 242.319652 
L 72.259838 230.120204 
L 72.708176 238.366251 
L 73.156515 215.725983 
L 73.604853 261.337734 
L 74.053192 226.656426 
L 74.50153 242.081488 
L 74.949869 251.165624 
L 75.398207 243.033958 
L 75.846546 241.880985 
L 76.294884 223.002117 
L 77.191561 254.582095 
L 77.6399 215.058206 
L 78.088238 236.419804 
L 78.536577 216.715137 
L 78.984915 232.492468 
L 79.433254 212.539217 
L 79.881592 236.103824 
L 80.329931 234.315346 
L 80.77827 238.502255 
L 81.226608 227.748763 
L 81.674947 232.83153 
L 82.123285 227.640808 
L 82.571624 215.252637 
L 83.019962 260.78682 
L 83.468301 236.99493 
L 83.916639 233.828941 
L 84.364978 237.432537 
L 84.813316 200.595813 
L 85.261655 221.369977 
L 85.709993 231.158475 
L 86.158332 207.730952 
L 86.60667 230.116662 
L 87.055009 233.437688 
L 87.503347 225.699482 
L 87.951686 223.276383 
L 88.400024 222.242593 
L 88.848363 183.950394 
L 89.74504 237.228283 
L 90.193379 224.396949 
L 90.641717 190.279261 
L 91.090056 232.308092 
L 91.538394 205.772368 
L 91.986733 215.689069 
L 92.435071 205.07475 
L 92.88341 211.908655 
L 93.331748 215.575045 
L 93.780087 236.243483 
L 94.228425 215.477606 
L 94.676764 220.924237 
L 95.125102 221.682234 
L 95.573441 231.143076 
L 96.021779 243.058288 
L 96.470118 223.287858 
L 96.918457 220.84293 
L 97.366795 220.371003 
L 97.815134 244.516643 
L 98.263472 215.017531 
L 98.711811 210.743248 
L 99.160149 233.636916 
L 99.608488 245.437091 
L 100.056826 237.279355 
L 100.505165 216.336356 
L 100.953503 229.760159 
L 101.401842 229.899904 
L 101.85018 211.184817 
L 102.298519 202.747584 
L 102.746857 188.246938 
L 103.195196 233.236382 
L 103.643534 257.40817 
L 104.091873 226.414666 
L 104.540211 212.159571 
L 104.98855 211.615629 
L 105.436889 222.785129 
L 105.885227 247.682815 
L 106.333566 202.055952 
L 107.230243 235.70344 
L 107.678581 203.757292 
L 108.12692 226.621471 
L 108.575258 224.683817 
L 109.023597 224.595607 
L 109.471935 236.165021 
L 109.920274 215.35288 
L 110.368612 225.001117 
L 110.816951 221.905425 
L 111.265289 230.218271 
L 111.713628 227.465947 
L 112.161966 217.440516 
L 113.058643 231.00539 
L 113.506982 225.555914 
L 113.955321 190.518223 
L 114.403659 263.46636 
L 114.851998 197.829111 
L 115.300336 232.66108 
L 115.748675 209.033095 
L 116.197013 205.906123 
L 116.645352 226.579089 
L 117.09369 225.062466 
L 117.542029 236.563734 
L 117.990367 243.231638 
L 118.438706 223.647316 
L 118.887044 220.649346 
L 119.335383 231.850145 
L 119.783721 238.843069 
L 120.23206 192.307421 
L 120.680398 242.198778 
L 121.128737 215.539084 
L 121.577076 201.518343 
L 122.025414 222.593781 
L 122.473753 216.060101 
L 122.922091 228.139982 
L 123.37043 225.644039 
L 123.818768 215.972945 
L 124.267107 201.150581 
L 124.715445 204.061979 
L 125.163784 214.106249 
L 125.612122 226.74081 
L 126.060461 209.747385 
L 126.508799 206.02521 
L 126.957138 234.615803 
L 127.405476 187.259044 
L 128.750492 226.325198 
L 129.19883 215.960216 
L 129.647169 210.034161 
L 130.095508 213.157587 
L 130.543846 231.706818 
L 130.992185 197.558782 
L 131.440523 209.729075 
L 131.888862 262.379763 
L 132.3372 233.34242 
L 132.785539 212.447162 
L 133.233877 207.926564 
L 133.682216 219.511751 
L 134.130554 168.164419 
L 134.578893 217.531528 
L 135.027231 201.466685 
L 135.47557 217.833051 
L 135.923908 216.322181 
L 136.372247 216.17165 
L 136.820585 227.803826 
L 137.268924 204.978597 
L 137.717262 198.564421 
L 138.165601 179.685686 
L 138.61394 222.93746 
L 139.062278 235.114283 
L 139.510617 209.400017 
L 139.958955 219.675997 
L 140.407294 192.718325 
L 140.855632 234.509425 
L 141.303971 221.564652 
L 141.752309 227.790671 
L 142.200648 219.716395 
L 142.648986 201.074412 
L 143.097325 214.087203 
L 143.545663 223.279514 
L 143.994002 193.706216 
L 144.44234 220.73495 
L 144.890679 195.517463 
L 145.339017 224.205828 
L 145.787356 165.384672 
L 146.235694 195.424853 
L 146.684033 206.982509 
L 147.132372 202.565805 
L 147.58071 202.755738 
L 148.477387 222.422879 
L 148.925726 226.764374 
L 149.374064 187.064113 
L 149.822403 227.380078 
L 150.270741 212.22718 
L 150.71908 209.861779 
L 151.167418 176.978149 
L 151.615757 225.382228 
L 152.064095 165.287069 
L 152.512434 207.607089 
L 152.960772 196.500019 
L 153.409111 209.866018 
L 153.857449 229.500339 
L 154.305788 221.167831 
L 154.754127 198.434165 
L 155.202465 210.86792 
L 155.650804 211.861225 
L 156.099142 213.845644 
L 156.547481 194.802245 
L 156.995819 162.295445 
L 157.444158 210.651097 
L 157.892496 192.831852 
L 158.340835 205.070539 
L 158.789173 224.310682 
L 159.237512 228.638071 
L 159.68585 215.362421 
L 160.134189 228.013524 
L 160.582527 211.57116 
L 161.030866 207.61771 
L 161.479204 189.786535 
L 161.927543 224.073953 
L 162.375881 233.631108 
L 162.82422 223.78256 
L 163.272559 174.335708 
L 163.720897 217.691647 
L 164.169236 209.419145 
L 164.617574 203.48731 
L 165.065913 186.526739 
L 165.514251 182.815178 
L 165.96259 212.764531 
L 166.410928 194.463597 
L 166.859267 225.678897 
L 167.307605 197.958101 
L 167.755944 184.632848 
L 168.204282 190.268894 
L 168.652621 216.272591 
L 169.100959 154.210179 
L 169.549298 184.513971 
L 169.997636 201.418642 
L 170.445975 211.256551 
L 170.894313 192.251007 
L 171.342652 184.729815 
L 171.790991 205.003433 
L 172.239329 206.094217 
L 172.687668 181.556671 
L 173.136006 183.911454 
L 173.584345 216.958474 
L 174.032683 185.331812 
L 174.481022 179.440358 
L 174.92936 163.052408 
L 175.377699 241.291153 
L 175.826037 202.371922 
L 176.274376 195.901653 
L 176.722714 170.618785 
L 177.171053 165.039968 
L 177.619391 202.390004 
L 178.06773 205.210836 
L 178.516068 201.877929 
L 178.964407 209.256587 
L 179.412746 199.352387 
L 179.861084 194.963231 
L 180.309423 221.283516 
L 180.757761 212.210452 
L 181.654438 177.927213 
L 182.102777 190.489223 
L 182.551115 180.714187 
L 182.999454 218.220722 
L 183.447792 199.825389 
L 183.896131 168.13038 
L 184.344469 176.673186 
L 184.792808 203.69622 
L 185.241146 208.85546 
L 185.689485 212.343714 
L 186.137823 196.78201 
L 186.586162 193.863288 
L 187.0345 208.176013 
L 187.482839 186.300242 
L 187.931178 207.484482 
L 188.379516 222.697919 
L 188.827855 206.114937 
L 189.276193 213.09124 
L 189.724532 214.045814 
L 190.17287 183.407857 
L 190.621209 226.448117 
L 191.069547 190.685281 
L 191.517886 180.381368 
L 191.966224 200.542406 
L 192.414563 196.057808 
L 192.862901 205.376471 
L 193.31124 201.026138 
L 193.759578 198.628742 
L 194.207917 190.507086 
L 194.656255 136.527415 
L 195.104594 239.140908 
L 195.552932 209.614357 
L 196.001271 201.288241 
L 196.44961 188.050646 
L 196.897948 200.398336 
L 197.346287 198.546811 
L 197.794625 197.741044 
L 198.242964 202.560972 
L 198.691302 197.664236 
L 199.139641 191.008529 
L 199.587979 192.282579 
L 200.036318 198.937177 
L 200.484656 199.147512 
L 200.932995 176.780739 
L 201.381333 201.941979 
L 201.829672 209.274804 
L 202.27801 174.492887 
L 202.726349 163.250741 
L 203.174687 205.741921 
L 203.623026 149.163149 
L 204.071364 166.462736 
L 204.519703 175.227514 
L 204.968042 207.298462 
L 205.41638 204.770984 
L 205.864719 179.221989 
L 206.313057 201.206119 
L 206.761396 208.919757 
L 207.209734 184.553692 
L 207.658073 175.473845 
L 208.106411 187.789367 
L 209.003088 198.72973 
L 209.451427 196.187213 
L 209.899765 150.079023 
L 210.348104 206.071935 
L 211.693119 181.01885 
L 212.141458 200.76275 
L 212.589797 181.739932 
L 213.038135 171.578228 
L 213.486474 188.072184 
L 213.934812 160.321768 
L 214.383151 203.915207 
L 214.831489 171.731112 
L 215.279828 189.608281 
L 215.728166 200.303098 
L 216.176505 207.539193 
L 216.624843 207.693901 
L 217.073182 191.311956 
L 217.52152 156.219886 
L 217.969859 189.568932 
L 218.418197 196.54275 
L 218.866536 207.694842 
L 219.314874 199.59105 
L 219.763213 160.708766 
L 220.211551 193.664308 
L 220.65989 184.52739 
L 221.108229 165.05433 
L 221.556567 183.273295 
L 222.004906 167.664002 
L 222.901583 206.112289 
L 223.349921 205.210382 
L 223.79826 217.241017 
L 224.246598 171.82036 
L 224.694937 210.427999 
L 225.143275 200.429585 
L 225.591614 212.007858 
L 226.039952 203.667594 
L 226.488291 198.110607 
L 226.936629 205.679619 
L 227.384968 202.710544 
L 227.833306 170.398277 
L 228.281645 200.545046 
L 228.729983 207.900128 
L 229.178322 174.431435 
L 229.626661 167.936105 
L 230.074999 200.971772 
L 230.523338 161.955276 
L 230.971676 207.117495 
L 231.420015 187.87567 
L 231.868353 194.424742 
L 232.316692 159.560493 
L 233.213369 183.929664 
L 233.661707 157.720271 
L 234.110046 163.729725 
L 234.558384 192.726222 
L 235.006723 184.606015 
L 235.455061 188.885887 
L 235.9034 182.01714 
L 236.351738 180.38095 
L 236.800077 165.425897 
L 237.248416 164.142748 
L 237.696754 211.590877 
L 238.145093 198.754229 
L 238.593431 177.115608 
L 239.04177 185.31724 
L 239.490108 199.919777 
L 239.938447 197.560467 
L 240.386785 184.735253 
L 240.835124 190.52043 
L 241.283462 166.717343 
L 241.731801 195.726151 
L 242.180139 147.802681 
L 242.628478 160.623939 
L 243.076816 182.534838 
L 243.525155 160.954713 
L 243.973493 158.378648 
L 244.421832 205.565081 
L 245.318509 145.467965 
L 245.766848 158.865163 
L 246.215186 176.766995 
L 246.663525 136.874171 
L 247.111863 156.691343 
L 247.560202 170.112741 
L 248.00854 149.28439 
L 248.456879 161.108779 
L 248.905217 153.603642 
L 249.353556 167.253899 
L 249.801894 188.781823 
L 250.250233 175.636549 
L 250.698571 201.055464 
L 251.14691 211.031663 
L 251.595248 179.317846 
L 252.043587 190.089628 
L 252.491925 188.463542 
L 252.940264 171.325884 
L 253.388602 172.295346 
L 254.28528 179.978385 
L 254.733618 169.58269 
L 255.181957 211.917314 
L 255.630295 158.943665 
L 256.078634 200.680288 
L 256.526972 182.188793 
L 256.975311 144.747732 
L 257.871988 182.951319 
L 258.320326 179.832908 
L 258.768665 167.640828 
L 259.217003 143.718584 
L 259.665342 184.17202 
L 260.11368 183.213506 
L 260.562019 190.048237 
L 261.010357 180.405525 
L 261.458696 165.923779 
L 261.907035 191.160801 
L 262.355373 198.365071 
L 262.803712 200.680582 
L 263.25205 175.764003 
L 263.700389 129.706145 
L 264.597066 202.30113 
L 265.045404 203.572154 
L 265.493743 146.612846 
L 265.942081 178.807792 
L 266.39042 156.333777 
L 266.838758 192.744699 
L 267.287097 181.144336 
L 267.735435 174.740453 
L 268.183774 131.166293 
L 268.632112 183.634702 
L 269.080451 109.072093 
L 269.528789 171.465347 
L 269.977128 174.445107 
L 270.425467 157.495911 
L 270.873805 191.747255 
L 271.322144 207.727045 
L 271.770482 187.793703 
L 272.218821 215.704638 
L 272.667159 133.182775 
L 273.115498 136.230041 
L 273.563836 179.878904 
L 274.012175 165.060508 
L 274.460513 123.992224 
L 274.908852 161.379589 
L 275.35719 153.225617 
L 275.805529 165.423558 
L 276.253867 190.297215 
L 276.702206 164.438326 
L 277.150544 222.334905 
L 277.598883 136.274289 
L 278.047221 159.211037 
L 278.49556 150.300178 
L 278.943899 181.592994 
L 279.392237 180.031209 
L 279.840576 166.713581 
L 280.288914 172.95211 
L 280.737253 193.290602 
L 281.185591 158.16589 
L 281.63393 203.080503 
L 282.082268 153.347726 
L 282.530607 143.004535 
L 282.978945 160.446702 
L 283.427284 162.48206 
L 283.875622 171.285235 
L 284.323961 157.249444 
L 284.772299 182.465787 
L 285.220638 188.763 
L 285.668976 109.37171 
L 286.117315 159.979023 
L 286.565653 180.619731 
L 287.013992 154.483888 
L 287.462331 154.283083 
L 287.910669 165.558764 
L 288.807346 194.62959 
L 289.255685 142.688759 
L 289.704023 190.791834 
L 290.152362 202.073222 
L 291.049039 116.237676 
L 291.497377 182.134256 
L 291.945716 119.017965 
L 292.394054 179.90361 
L 292.842393 159.292569 
L 293.290731 161.695233 
L 293.73907 162.778463 
L 294.187408 149.021677 
L 294.635747 182.252058 
L 295.084086 166.390832 
L 295.532424 157.762636 
L 295.980763 153.661218 
L 296.429101 185.118025 
L 296.87744 180.955895 
L 297.325778 151.237305 
L 297.774117 164.868864 
L 298.222455 58.550688 
L 298.670794 173.013478 
L 299.119132 139.879601 
L 299.567471 166.679526 
L 300.015809 170.541351 
L 300.912486 175.28906 
L 301.360825 184.154791 
L 301.809163 157.906561 
L 302.257502 99.879594 
L 302.70584 152.8668 
L 303.154179 159.451928 
L 303.602518 135.479462 
L 304.050856 131.568566 
L 304.499195 198.474049 
L 304.947533 205.806421 
L 305.395872 169.488182 
L 305.84421 114.020362 
L 306.292549 157.260794 
L 306.740887 144.118487 
L 307.189226 183.709674 
L 307.637564 178.73218 
L 308.085903 153.057081 
L 308.534241 182.136969 
L 308.98258 156.435399 
L 309.430918 157.893881 
L 309.879257 130.259741 
L 310.327595 176.966044 
L 310.775934 131.908885 
L 311.672611 165.911761 
L 312.12095 135.758287 
L 312.569288 149.499971 
L 313.017627 134.165295 
L 313.465965 193.092974 
L 313.914304 183.221793 
L 314.810981 149.383656 
L 315.259319 171.386478 
L 315.707658 150.900145 
L 316.155996 168.015069 
L 316.604335 155.314511 
L 317.052673 165.329832 
L 317.501012 149.628422 
L 317.94935 143.202838 
L 318.397689 173.886711 
L 318.846027 155.380149 
L 319.294366 107.39761 
L 319.742705 182.051403 
L 320.191043 148.346115 
L 320.639382 139.291238 
L 321.536059 164.385663 
L 321.984397 141.187168 
L 322.432736 151.738095 
L 322.881074 153.388396 
L 323.329413 105.354761 
L 323.777751 153.632082 
L 324.22609 144.418313 
L 324.674428 152.621715 
L 325.122767 173.604215 
L 325.571105 166.657236 
L 326.019444 155.316257 
L 326.467782 160.528798 
L 326.916121 201.275972 
L 327.364459 164.817526 
L 327.812798 103.953787 
L 328.261137 153.0749 
L 328.709475 171.006342 
L 329.157814 146.528274 
L 329.606152 150.035059 
L 330.054491 146.283675 
L 330.502829 137.407768 
L 330.951168 146.13456 
L 331.399506 135.107792 
L 331.847845 136.649742 
L 332.296183 146.997108 
L 332.744522 145.315607 
L 333.19286 181.078124 
L 333.641199 135.946347 
L 334.089537 155.160364 
L 334.537876 143.022573 
L 334.986214 161.306264 
L 335.434553 137.894575 
L 335.882891 129.257343 
L 336.33123 134.053581 
L 336.779569 167.980338 
L 337.227907 126.929188 
L 337.676246 173.876381 
L 338.124584 69.69059 
L 338.572923 167.857519 
L 339.021261 139.503341 
L 339.4696 155.296118 
L 339.917938 192.61705 
L 340.366277 128.54495 
L 340.814615 162.737963 
L 341.711292 131.392069 
L 342.159631 184.941356 
L 342.607969 140.431012 
L 343.056308 206.675703 
L 343.504646 159.04832 
L 343.952985 138.730738 
L 344.401324 154.887902 
L 344.849662 131.503505 
L 345.298001 180.038874 
L 345.746339 135.728626 
L 346.194678 170.102793 
L 346.643016 152.069431 
L 347.091355 173.70385 
L 347.539693 165.41341 
L 347.988032 160.350875 
L 348.43637 133.065302 
L 348.884709 171.622943 
L 349.333047 157.104479 
L 349.781386 166.444918 
L 350.229724 152.106619 
L 350.678063 123.989265 
L 351.126401 166.315833 
L 351.57474 163.993983 
L 352.023078 181.670347 
L 352.471417 145.299999 
L 352.919756 173.171489 
L 353.368094 165.580375 
L 353.816433 133.918426 
L 354.264771 169.863486 
L 354.71311 148.138837 
L 355.161448 179.898574 
L 355.609787 126.283123 
L 356.058125 184.154654 
L 356.506464 161.017526 
L 356.954802 174.928656 
L 357.403141 118.796321 
L 358.299818 139.321399 
L 358.748156 182.659853 
L 359.196495 170.82797 
L 359.644833 143.571632 
L 360.093172 136.913594 
L 360.54151 132.243933 
L 360.989849 143.912435 
L 361.438188 141.731409 
L 361.886526 191.099216 
L 362.334865 122.058207 
L 362.783203 197.676021 
L 363.231542 169.06728 
L 363.67988 155.78726 
L 364.128219 162.826895 
L 364.576557 143.898417 
L 365.024896 81.203263 
L 365.473234 152.139308 
L 365.921573 146.87109 
L 366.369911 83.375078 
L 366.81825 148.06767 
L 367.266588 174.038408 
L 367.714927 170.129351 
L 368.163265 93.504511 
L 368.611604 132.032885 
L 369.059942 157.940328 
L 369.508281 98.285828 
L 369.95662 161.822378 
L 370.404958 103.980467 
L 370.853297 178.368121 
L 371.301635 169.314645 
L 371.749974 147.213381 
L 372.198312 169.365378 
L 372.646651 123.40564 
L 373.094989 153.58211 
L 373.543328 139.016276 
L 373.991666 71.34517 
L 374.888343 173.827798 
L 375.336682 148.246976 
L 375.78502 162.986143 
L 376.233359 168.390775 
L 376.681697 154.614152 
L 377.130036 133.223434 
L 377.578375 159.270048 
L 378.026713 109.951987 
L 378.475052 173.930146 
L 378.92339 113.403841 
L 379.371729 156.15809 
L 379.820067 145.518572 
L 380.268406 156.53669 
L 380.716744 171.168119 
L 381.165083 135.235398 
L 381.613421 172.761334 
L 382.510098 121.98204 
L 382.958437 162.979385 
L 383.406775 158.850754 
L 383.855114 99.928446 
L 384.303452 138.614725 
L 384.751791 138.638213 
L 385.200129 124.689163 
L 385.648468 162.10149 
L 386.096807 97.549836 
L 386.545145 155.302603 
L 386.993484 135.364153 
L 387.441822 156.64598 
L 387.890161 139.003499 
L 388.338499 146.369792 
L 388.786838 164.343028 
L 389.235176 105.85228 
L 389.683515 165.029741 
L 390.131853 134.880447 
L 390.580192 133.667354 
L 391.02853 119.22064 
L 391.476869 159.078496 
L 391.925207 167.158514 
L 392.373546 147.855278 
L 392.821884 141.085598 
L 393.270223 87.646374 
L 393.718561 111.0209 
L 394.1669 158.130728 
L 394.615239 164.838241 
L 395.063577 168.600484 
L 395.511916 166.951327 
L 395.960254 165.835775 
L 396.856931 145.260934 
L 397.30527 157.695398 
L 397.753608 155.402157 
L 398.201947 145.162182 
L 398.650285 107.285696 
L 399.098624 153.957891 
L 399.546962 160.169128 
L 399.995301 158.176291 
L 400.443639 125.853008 
L 400.891978 127.584728 
L 401.340316 123.479811 
L 401.788655 168.507767 
L 402.236994 91.109808 
L 402.685332 144.125463 
L 403.133671 176.546903 
L 403.582009 160.061276 
L 404.030348 151.979566 
L 404.478686 105.799374 
L 404.927025 154.517728 
L 405.375363 180.179379 
L 405.823702 144.743501 
L 406.27204 138.284142 
L 406.720379 153.279024 
L 407.168717 173.330257 
L 407.617056 112.470437 
L 408.065394 113.617295 
L 408.513733 130.29919 
L 408.962071 127.120369 
L 409.41041 165.007899 
L 409.858748 112.823858 
L 410.307087 130.321635 
L 410.755426 166.361855 
L 411.203764 137.689137 
L 411.652103 161.842717 
L 412.100441 33.80316 
L 412.54878 185.97513 
L 412.997118 109.06873 
L 413.445457 118.008376 
L 413.893795 113.363677 
L 414.342134 127.896845 
L 414.790472 179.112687 
L 415.238811 109.099557 
L 415.687149 135.758596 
L 416.135488 173.986057 
L 416.583826 112.710044 
L 417.032165 88.38967 
L 417.480503 180.18472 
L 417.928842 142.803664 
L 418.37718 124.415803 
L 418.825519 151.062904 
L 419.273858 133.673463 
L 419.722196 147.340808 
L 420.170535 138.765907 
L 420.618873 135.218652 
L 421.067212 139.642219 
L 421.51555 160.734973 
L 421.963889 156.979482 
L 422.412227 128.192223 
L 422.860566 166.13564 
L 423.308904 194.47273 
L 423.757243 153.645955 
L 424.205581 136.48981 
L 424.65392 143.946757 
L 425.102258 155.356216 
L 425.550597 121.239846 
L 425.998935 125.223671 
L 426.447274 153.837638 
L 426.895612 127.531246 
L 427.343951 149.27346 
L 427.79229 119.4245 
L 428.240628 160.939629 
L 428.688967 152.123677 
L 429.137305 178.21004 
L 429.585644 103.872601 
L 430.033982 169.91432 
L 430.482321 137.162044 
L 430.930659 146.425201 
L 431.378998 95.377717 
L 431.827336 155.517795 
L 432.275675 101.554986 
L 432.724013 166.197332 
L 433.172352 133.646242 
L 433.62069 88.018168 
L 434.069029 148.168899 
L 434.517367 132.966754 
L 434.965706 132.521143 
L 435.414045 163.654954 
L 435.862383 110.106821 
L 436.310722 109.056386 
L 436.75906 167.676633 
L 437.207399 122.850017 
L 437.655737 120.355816 
L 438.104076 77.492762 
L 438.552414 110.668616 
L 439.000753 90.406087 
L 439.449091 94.361394 
L 439.89743 75.056264 
L 440.345768 166.459263 
L 441.242445 87.9278 
L 441.690784 131.994296 
L 442.139122 81.804676 
L 442.587461 146.641525 
L 443.035799 135.108573 
L 443.484138 145.548454 
L 443.932477 112.260931 
L 444.380815 128.262705 
L 444.829154 136.426782 
L 445.277492 111.240813 
L 445.725831 159.212794 
L 446.174169 130.521693 
L 446.622508 133.543094 
L 447.070846 147.440045 
L 447.519185 86.213201 
L 447.967523 125.225701 
L 448.8642 148.172793 
L 449.312539 96.720494 
L 449.760877 121.458004 
L 450.209216 95.064615 
L 450.657554 160.538111 
L 451.105893 100.148773 
L 451.554231 169.960556 
L 452.00257 131.521553 
L 452.450909 133.33121 
L 452.899247 153.595135 
L 453.347586 118.091121 
L 453.795924 120.904012 
L 454.244263 113.682891 
L 454.692601 153.022508 
L 455.14094 128.832364 
L 455.589278 122.828436 
L 456.037617 161.91672 
L 456.485955 151.46552 
L 456.934294 137.482593 
L 457.382632 112.388705 
L 457.830971 131.859243 
L 458.279309 141.37211 
L 458.727648 139.255974 
L 459.175986 114.465917 
L 459.624325 158.35679 
L 460.072664 106.86258 
L 460.521002 106.556268 
L 460.969341 132.404149 
L 461.417679 111.692103 
L 461.866018 140.582318 
L 462.314356 148.656763 
L 462.762695 176.344492 
L 463.211033 122.036644 
L 463.659372 122.628317 
L 464.10771 171.694976 
L 464.556049 155.293145 
L 465.004387 148.356948 
L 465.452726 164.644815 
L 465.901064 146.264584 
L 466.349403 143.758356 
L 466.797741 153.162373 
L 467.24608 122.32697 
L 467.694418 131.503622 
L 468.142757 94.529443 
L 468.591096 90.27754 
L 469.039434 88.669657 
L 469.487773 160.669586 
L 469.936111 111.022614 
L 470.38445 168.308298 
L 470.832788 117.515541 
L 471.281127 165.365245 
L 471.729465 131.723697 
L 472.177804 118.002462 
L 472.626142 89.184349 
L 473.074481 150.834646 
L 473.522819 91.839597 
L 473.971158 177.702917 
L 474.419496 157.001933 
L 474.867835 105.944998 
L 475.316173 106.594685 
L 476.21285 152.562498 
L 477.109528 51.995316 
L 477.557866 125.911269 
L 478.006205 151.916333 
L 478.902882 168.956815 
L 479.35122 119.704705 
L 479.799559 156.145581 
L 480.247897 115.526374 
L 480.696236 96.318283 
L 481.144574 129.980587 
L 481.592913 137.908175 
L 482.041251 135.979431 
L 482.48959 120.644705 
L 482.937928 147.994485 
L 483.386267 126.23983 
L 483.834605 110.406788 
L 484.282944 123.064626 
L 484.731283 94.261159 
L 485.179621 142.190048 
L 485.62796 145.274749 
L 486.076298 117.422747 
L 486.524637 130.195828 
L 486.972975 158.235432 
L 487.421314 104.041671 
L 487.869652 137.080631 
L 488.766329 130.00486 
L 489.214668 157.476276 
L 489.663006 110.320596 
L 490.111345 163.751884 
L 490.559683 120.78294 
L 491.008022 114.646749 
L 491.45636 126.654584 
L 491.904699 128.451937 
L 492.801376 96.683441 
L 493.249715 114.676971 
L 493.698053 142.515089 
L 494.146392 131.610807 
L 494.59473 95.248756 
L 495.043069 138.809226 
L 495.491407 155.442019 
L 495.939746 132.958963 
L 496.388084 157.046359 
L 496.836423 138.105369 
L 497.284761 142.204078 
L 497.7331 126.41224 
L 498.181438 119.774537 
L 498.629777 141.219254 
L 499.078115 149.283465 
L 499.526454 150.032832 
L 499.974792 140.493107 
L 500.423131 113.167647 
L 500.871469 115.334059 
L 501.319808 84.873797 
L 501.768147 135.237578 
L 502.216485 131.31153 
L 502.664824 113.924012 
L 503.113162 154.914805 
L 503.561501 152.998345 
L 504.009839 163.218908 
L 504.458178 113.82327 
L 504.906516 121.769848 
L 505.803193 55.902495 
L 506.251532 151.396069 
L 506.69987 147.644987 
L 507.596547 81.338445 
L 508.493224 153.277998 
L 508.941563 163.217798 
L 509.389901 108.885846 
L 509.83824 151.900878 
L 510.286579 140.253601 
L 510.734917 146.323458 
L 511.183256 125.215911 
L 511.631594 145.757487 
L 512.079933 146.157398 
L 512.528271 152.181027 
L 512.97661 163.783878 
L 513.424948 147.964997 
L 513.873287 73.358417 
L 514.321625 123.368624 
L 515.218302 118.362142 
L 515.666641 166.010918 
L 516.114979 142.55928 
L 516.563318 68.340454 
L 517.011656 171.696415 
L 517.459995 183.855258 
L 517.908334 102.931522 
L 518.805011 167.223911 
L 518.805011 167.223911 
" clip-path="url(#p899eedf595)" style="fill: none; stroke: #1f77b4; stroke-width: 1.5; stroke-linecap: square"/>
   </g>
   <g id="line2d_25">
    <path d="M 70.914822 231.750322 
L 77.191561 231.625329 
L 83.468301 231.283354 
L 89.74504 230.729237 
L 96.470118 229.908915 
L 103.195196 228.866595 
L 110.368612 227.527535 
L 117.990367 225.871263 
L 126.060461 223.885776 
L 135.027231 221.441261 
L 144.890679 218.516905 
L 156.547481 214.822392 
L 171.790991 209.74219 
L 226.936629 191.149979 
L 243.076816 186.059619 
L 258.320326 181.486513 
L 273.115498 177.281817 
L 287.910669 173.313282 
L 302.70584 169.580048 
L 317.501012 166.076798 
L 332.744522 162.699185 
L 348.43637 159.456369 
L 364.576557 156.354753 
L 381.165083 153.398298 
L 398.201947 150.58884 
L 416.135488 147.860914 
L 434.517367 145.288977 
L 453.795924 142.814125 
L 474.419496 140.395439 
L 495.939746 138.09892 
L 518.805011 135.886658 
L 518.805011 135.886658 
" clip-path="url(#p899eedf595)" style="fill: none; stroke-dasharray: 5.55,2.4; stroke-dashoffset: 0; stroke: #ff0000; stroke-width: 1.5"/>
   </g>
   <g id="patch_3">
    <path d="M 48.520313 274.94952 
L 48.520313 22.32 
" style="fill: none; stroke: #000000; stroke-width: 0.8; stroke-linejoin: miter; stroke-linecap: square"/>
   </g>
   <g id="patch_4">
    <path d="M 48.520313 274.94952 
L 541.19952 274.94952 
" style="fill: none; stroke: #000000; stroke-width: 0.8; stroke-linejoin: miter; stroke-linecap: square"/>
   </g>
   <g id="text_11">
    <!-- Degrees of freedom: All Atoms (2000 H$_2$O, ndof = 12000) -->
    <g transform="translate(140.179916 16.32) scale(0.12 -0.12)">
     <defs>
      <path id="IBMPlexSans-3a" d="M 934 -77 
C 1203 -77 1325 77 1325 294 
L 1325 378 
C 1325 595 1203 749 934 749 
C 666 749 544 595 544 378 
L 544 294 
C 544 77 666 -77 934 -77 
z
M 934 2554 
C 1203 2554 1325 2707 1325 2925 
L 1325 3008 
C 1325 3226 1203 3379 934 3379 
C 666 3379 544 3226 544 3008 
L 544 2925 
C 544 2707 666 2554 934 2554 
z
" transform="scale(0.015625)"/>
      <path id="IBMPlexSans-41" d="M 3955 0 
L 2394 4467 
L 1709 4467 
L 147 0 
L 691 0 
L 1139 1318 
L 2944 1318 
L 3392 0 
L 3955 0 
z
M 2810 1792 
L 1267 1792 
L 2022 3968 
L 2054 3968 
L 2810 1792 
z
" transform="scale(0.015625)"/>
      <path id="IBMPlexSans-28" d="M 531 1997 
C 531 749 1056 -339 1690 -877 
L 2176 -877 
C 1485 -262 1011 819 1011 1715 
L 1011 2266 
C 1011 3162 1466 4224 2176 4864 
L 1690 4864 
C 1037 4307 531 3232 531 1997 
z
" transform="scale(0.015625)"/>
      <path id="DejaVuSans-32" d="M 1228 531 
L 3431 531 
L 3431 0 
L 469 0 
L 469 531 
Q 828 903 1448 1529 
Q 2069 2156 2228 2338 
Q 2531 2678 2651 2914 
Q 2772 3150 2772 3378 
Q 2772 3750 2511 3984 
Q 2250 4219 1831 4219 
Q 1534 4219 1204 4116 
Q 875 4013 500 3803 
L 500 4441 
Q 881 4594 1212 4672 
Q 1544 4750 1819 4750 
Q 2544 4750 2975 4387 
Q 3406 4025 3406 3419 
Q 3406 3131 3298 2873 
Q 3191 2616 2906 2266 
Q 2828 2175 2409 1742 
Q 1991 1309 1228 531 
z
" transform="scale(0.015625)"/>
      <path id="IBMPlexSans-4f" d="M 2266 -77 
C 3418 -77 4160 736 4160 2234 
C 4160 3731 3418 4544 2266 4544 
C 1114 4544 371 3731 371 2234 
C 371 736 1114 -77 2266 -77 
z
M 2266 403 
C 1491 403 947 979 947 1862 
L 947 2605 
C 947 3488 1491 4064 2266 4064 
C 3040 4064 3584 3488 3584 2605 
L 3584 1862 
C 3584 979 3040 403 2266 403 
z
" transform="scale(0.015625)"/>
      <path id="IBMPlexSans-2c" d="M 870 749 
C 602 749 480 595 480 371 
L 480 282 
C 480 109 557 -19 730 -58 
C 659 -358 506 -582 250 -851 
L 678 -851 
C 1043 -538 1261 -64 1261 282 
L 1261 371 
C 1261 595 1139 749 870 749 
z
" transform="scale(0.015625)"/>
      <path id="IBMPlexSans-3d" d="M 3411 2381 
L 3411 2816 
L 429 2816 
L 429 2381 
L 3411 2381 
z
M 3411 1101 
L 3411 1536 
L 429 1536 
L 429 1101 
L 3411 1101 
z
" transform="scale(0.015625)"/>
      <path id="IBMPlexSans-29" d="M 1613 1997 
C 1613 3232 1107 4307 454 4864 
L -32 4864 
C 678 4224 1133 3162 1133 2266 
L 1133 1715 
C 1133 819 659 -262 -32 -877 
L 454 -877 
C 1088 -339 1613 749 1613 1997 
z
" transform="scale(0.015625)"/>
     </defs>
     <use xlink:href="#IBMPlexSans-44"/>
     <use xlink:href="#IBMPlexSans-65" transform="translate(67.099991 0)"/>
     <use xlink:href="#IBMPlexSans-67" transform="translate(121.999985 0)"/>
     <use xlink:href="#IBMPlexSans-72" transform="translate(174.799973 0)"/>
     <use xlink:href="#IBMPlexSans-65" transform="translate(211.499969 0)"/>
     <use xlink:href="#IBMPlexSans-65" transform="translate(266.399963 0)"/>
     <use xlink:href="#IBMPlexSans-73" transform="translate(321.299957 0)"/>
     <use xlink:href="#IBMPlexSans-20" transform="translate(369.999954 0)"/>
     <use xlink:href="#IBMPlexSans-6f" transform="translate(393.599945 0)"/>
     <use xlink:href="#IBMPlexSans-66" transform="translate(449.59993 0)"/>
     <use xlink:href="#IBMPlexSans-20" transform="translate(481.999924 0)"/>
     <use xlink:href="#IBMPlexSans-66" transform="translate(505.599915 0)"/>
     <use xlink:href="#IBMPlexSans-72" transform="translate(537.999908 0)"/>
     <use xlink:href="#IBMPlexSans-65" transform="translate(574.699905 0)"/>
     <use xlink:href="#IBMPlexSans-65" transform="translate(629.599899 0)"/>
     <use xlink:href="#IBMPlexSans-64" transform="translate(684.499893 0)"/>
     <use xlink:href="#IBMPlexSans-6f" transform="translate(742.499878 0)"/>
     <use xlink:href="#IBMPlexSans-6d" transform="translate(798.499863 0)"/>
     <use xlink:href="#IBMPlexSans-3a" transform="translate(885.79985 0)"/>
     <use xlink:href="#IBMPlexSans-20" transform="translate(914.999847 0)"/>
     <use xlink:href="#IBMPlexSans-41" transform="translate(938.599838 0)"/>
     <use xlink:href="#IBMPlexSans-6c" transform="translate(1002.699829 0)"/>
     <use xlink:href="#IBMPlexSans-6c" transform="translate(1029.899826 0)"/>
     <use xlink:href="#IBMPlexSans-20" transform="translate(1057.099823 0)"/>
     <use xlink:href="#IBMPlexSans-41" transform="translate(1080.699814 0)"/>
     <use xlink:href="#IBMPlexSans-74" transform="translate(1144.799805 0)"/>
     <use xlink:href="#IBMPlexSans-6f" transform="translate(1179.899796 0)"/>
     <use xlink:href="#IBMPlexSans-6d" transform="translate(1235.89978 0)"/>
     <use xlink:href="#IBMPlexSans-73" transform="translate(1323.199768 0)"/>
     <use xlink:href="#IBMPlexSans-20" transform="translate(1371.899765 0)"/>
     <use xlink:href="#IBMPlexSans-28" transform="translate(1395.499756 0)"/>
     <use xlink:href="#IBMPlexSans-32" transform="translate(1428.999741 0)"/>
     <use xlink:href="#IBMPlexSans-30" transform="translate(1488.999725 0)"/>
     <use xlink:href="#IBMPlexSans-30" transform="translate(1548.99971 0)"/>
     <use xlink:href="#IBMPlexSans-30" transform="translate(1608.999695 0)"/>
     <use xlink:href="#IBMPlexSans-20" transform="translate(1668.99968 0)"/>
     <use xlink:href="#IBMPlexSans-48" transform="translate(1692.59967 0)"/>
     <use xlink:href="#DejaVuSans-32" transform="translate(1764.256683 -16.40625) scale(0.7)"/>
     <use xlink:href="#IBMPlexSans-4f" transform="translate(1811.527191 0)"/>
     <use xlink:href="#IBMPlexSans-2c" transform="translate(1882.327179 0)"/>
     <use xlink:href="#IBMPlexSans-20" transform="translate(1909.527176 0)"/>
     <use xlink:href="#IBMPlexSans-6e" transform="translate(1933.127167 0)"/>
     <use xlink:href="#IBMPlexSans-64" transform="translate(1989.927155 0)"/>
     <use xlink:href="#IBMPlexSans-6f" transform="translate(2047.927139 0)"/>
     <use xlink:href="#IBMPlexSans-66" transform="translate(2103.927124 0)"/>
     <use xlink:href="#IBMPlexSans-20" transform="translate(2136.327118 0)"/>
     <use xlink:href="#IBMPlexSans-3d" transform="translate(2159.927109 0)"/>
     <use xlink:href="#IBMPlexSans-20" transform="translate(2219.927094 0)"/>
     <use xlink:href="#IBMPlexSans-31" transform="translate(2243.527084 0)"/>
     <use xlink:href="#IBMPlexSans-32" transform="translate(2303.527069 0)"/>
     <use xlink:href="#IBMPlexSans-30" transform="translate(2363.527054 0)"/>
     <use xlink:href="#IBMPlexSans-30" transform="translate(2423.527039 0)"/>
     <use xlink:href="#IBMPlexSans-30" transform="translate(2483.527023 0)"/>
     <use xlink:href="#IBMPlexSans-29" transform="translate(2543.527008 0)"/>
    </g>
   </g>
  </g>
 </g>
 <defs>
  <clipPath id="p899eedf595">
   <rect x="48.520313" y="22.32" width="492.679207" height="252.62952"/>
  </clipPath>
 </defs>
</svg>