<?xml version="1.0" encoding="utf-8" standalone="no"?>
<!DOCTYPE svg PUBLIC "-//W3C//DTD SVG 1.1//EN"
  "http://www.w3.org/Graphics/SVG/1.1/DTD/svg11.dtd">
<svg xmlns:xlink="http://www.w3.org/1999/xlink" width="548.39952pt" height="312.14952pt" viewBox="0 0 548.39952 312.14952" xmlns="http://www.w3.org/2000/svg" version="1.1">
 <metadata>
  <rdf:RDF xmlns:dc="http://purl.org/dc/elements/1.1/" xmlns:cc="http://creativecommons.org/ns#" xmlns:rdf="http://www.w3.org/1999/02/22-rdf-syntax-ns#">
   <cc:Work>
    <dc:type rdf:resource="http://purl.org/dc/dcmitype/StillImage"/>
    <dc:date>2025-06-25T08:39:54.170992</dc:date>
    <dc:format>image/svg+xml</dc:format>
    <dc:creator>
     <cc:Agent>
      <dc:title>Matplotlib v3.10.1, https://matplotlib.org/</dc:title>
     </cc:Agent>
    </dc:creator>
   </cc:Work>
  </rdf:RDF>
 </metadata>
 <defs>
  <style type="text/css">*{stroke-linejoin: round; stroke-linecap: butt}</style>
 </defs>
 <g id="figure_1">
  <g id="patch_1">
   <path d="M 0 312.14952 
L 548.39952 312.14952 
L 548.39952 0 
L 0 0 
z
" style="fill: #ffffff"/>
  </g>
  <g id="axes_1">
   <g id="patch_2">
    <path d="M 48.520313 274.94952 
L 505.958895 274.94952 
L 505.958895 47.648 
L 48.520313 47.648 
z
" style="fill: #ffffff"/>
   </g>
   <g id="FillBetweenPolyCollection_1">
    <defs>
     <path id="m31881843e2" d="M 57.827254 -93.791529 
L 57.827254 -42.464012 
L 62.649503 -42.518385 
L 67.471753 -42.609011 
L 72.294002 -42.735902 
L 77.116252 -42.899069 
L 81.938501 -43.098529 
L 86.760751 -43.334302 
L 91.583 -43.606413 
L 96.40525 -43.914888 
L 101.227499 -44.259761 
L 106.049748 -44.641064 
L 110.871998 -45.058839 
L 115.694247 -45.513125 
L 120.516497 -46.003972 
L 125.338746 -46.531427 
L 130.160996 -47.095545 
L 134.983245 -47.696384 
L 139.805495 -48.334004 
L 144.627744 -49.008471 
L 149.449993 -49.719854 
L 154.272243 -50.468225 
L 159.094492 -51.253661 
L 163.916742 -52.076241 
L 168.738991 -52.936051 
L 173.561241 -53.833178 
L 178.38349 -54.767713 
L 183.20574 -55.739753 
L 188.027989 -56.749398 
L 192.850238 -57.79675 
L 197.672488 -58.881917 
L 197.672488 -110.771518 
L 197.672488 -110.771518 
L 192.850238 -109.649199 
L 188.027989 -108.565989 
L 183.20574 -107.521778 
L 178.38349 -106.516459 
L 173.561241 -105.549929 
L 168.738991 -104.622088 
L 163.916742 -103.732841 
L 159.094492 -102.882099 
L 154.272243 -102.069773 
L 149.449993 -101.295781 
L 144.627744 -100.560043 
L 139.805495 -99.862485 
L 134.983245 -99.203035 
L 130.160996 -98.581626 
L 125.338746 -97.998195 
L 120.516497 -97.452681 
L 115.694247 -96.945031 
L 110.871998 -96.475191 
L 106.049748 -96.043114 
L 101.227499 -95.648756 
L 96.40525 -95.292077 
L 91.583 -94.97304 
L 86.760751 -94.691614 
L 81.938501 -94.447769 
L 77.116252 -94.24148 
L 72.294002 -94.072727 
L 67.471753 -93.941492 
L 62.649503 -93.847763 
L 57.827254 -93.791529 
z
"/>
    </defs>
    <g clip-path="url(#p70a06cf321)">
     <use xlink:href="#m31881843e2" x="0" y="312.14952" style="fill: #2ca02c; fill-opacity: 0.3"/>
    </g>
   </g>
   <g id="matplotlib.axis_1">
    <g id="xtick_1">
     <g id="line2d_1">
      <defs>
       <path id="m8d421433ba" d="M 0 0 
L 0 3.5 
" style="stroke: #000000; stroke-width: 0.8"/>
      </defs>
      <g>
       <use xlink:href="#m8d421433ba" x="53.005004" y="274.94952" style="stroke: #000000; stroke-width: 0.8"/>
      </g>
     </g>
     <g id="text_1">
      <!-- 0.00 -->
      <g transform="translate(42.644848 289.34952) scale(0.1 -0.1)">
       <defs>
        <path id="IBMPlexSans-30" d="M 1920 -77 
C 2989 -77 3456 774 3456 2234 
C 3456 3693 2989 4544 1920 4544 
C 851 4544 384 3693 384 2234 
C 384 774 851 -77 1920 -77 
z
M 1920 390 
C 1222 390 947 1005 947 1869 
L 947 2598 
C 947 3462 1222 4077 1920 4077 
C 2618 4077 2893 3462 2893 2598 
L 2893 1869 
C 2893 1005 2618 390 1920 390 
z
" transform="scale(0.015625)"/>
        <path id="IBMPlexSans-2e" d="M 870 -77 
C 1139 -77 1261 77 1261 294 
L 1261 378 
C 1261 595 1139 749 870 749 
C 602 749 480 595 480 378 
L 480 294 
C 480 77 602 -77 870 -77 
z
" transform="scale(0.015625)"/>
       </defs>
       <use xlink:href="#IBMPlexSans-30"/>
       <use xlink:href="#IBMPlexSans-2e" transform="translate(59.999985 0)"/>
       <use xlink:href="#IBMPlexSans-30" transform="translate(87.199982 0)"/>
       <use xlink:href="#IBMPlexSans-30" transform="translate(147.199966 0)"/>
      </g>
     </g>
    </g>
    <g id="xtick_2">
     <g id="line2d_2">
      <g>
       <use xlink:href="#m8d421433ba" x="149.449989" y="274.94952" style="stroke: #000000; stroke-width: 0.8"/>
      </g>
     </g>
     <g id="text_2">
      <!-- 0.02 -->
      <g transform="translate(139.089833 289.34952) scale(0.1 -0.1)">
       <defs>
        <path id="IBMPlexSans-32" d="M 3411 474 
L 1062 474 
L 2266 1555 
C 2835 2067 3245 2554 3245 3245 
C 3245 4006 2746 4544 1875 4544 
C 1011 4544 614 4019 442 3494 
L 922 3309 
C 1043 3731 1299 4064 1850 4064 
C 2400 4064 2675 3725 2675 3232 
L 2675 3155 
C 2675 2726 2355 2278 1939 1894 
L 480 550 
L 480 0 
L 3411 0 
L 3411 474 
z
" transform="scale(0.015625)"/>
       </defs>
       <use xlink:href="#IBMPlexSans-30"/>
       <use xlink:href="#IBMPlexSans-2e" transform="translate(59.999985 0)"/>
       <use xlink:href="#IBMPlexSans-30" transform="translate(87.199982 0)"/>
       <use xlink:href="#IBMPlexSans-32" transform="translate(147.199966 0)"/>
      </g>
     </g>
    </g>
    <g id="xtick_3">
     <g id="line2d_3">
      <g>
       <use xlink:href="#m8d421433ba" x="245.894973" y="274.94952" style="stroke: #000000; stroke-width: 0.8"/>
      </g>
     </g>
     <g id="text_3">
      <!-- 0.04 -->
      <g transform="translate(235.534817 289.34952) scale(0.1 -0.1)">
       <defs>
        <path id="IBMPlexSans-34" d="M 2912 0 
L 2912 877 
L 3558 877 
L 3558 1325 
L 2912 1325 
L 2912 4467 
L 2112 4467 
L 243 1350 
L 243 877 
L 2400 877 
L 2400 0 
L 2912 0 
z
M 2368 4051 
L 2400 4051 
L 2400 1325 
L 749 1325 
L 2368 4051 
z
" transform="scale(0.015625)"/>
       </defs>
       <use xlink:href="#IBMPlexSans-30"/>
       <use xlink:href="#IBMPlexSans-2e" transform="translate(59.999985 0)"/>
       <use xlink:href="#IBMPlexSans-30" transform="translate(87.199982 0)"/>
       <use xlink:href="#IBMPlexSans-34" transform="translate(147.199966 0)"/>
      </g>
     </g>
    </g>
    <g id="xtick_4">
     <g id="line2d_4">
      <g>
       <use xlink:href="#m8d421433ba" x="342.339958" y="274.94952" style="stroke: #000000; stroke-width: 0.8"/>
      </g>
     </g>
     <g id="text_4">
      <!-- 0.06 -->
      <g transform="translate(331.979801 289.34952) scale(0.1 -0.1)">
       <defs>
        <path id="IBMPlexSans-36" d="M 1926 -77 
C 2822 -77 3411 525 3411 1402 
C 3411 2246 2861 2778 2093 2778 
C 1549 2778 1229 2502 1018 2138 
L 986 2150 
C 1229 3187 1760 3770 2714 4467 
L 2022 4467 
C 1306 4000 429 2963 429 1638 
C 429 576 998 -77 1926 -77 
z
M 1920 390 
C 1331 390 986 730 986 1331 
L 986 1382 
C 986 1984 1331 2323 1920 2323 
C 2509 2323 2854 1984 2854 1382 
L 2854 1331 
C 2854 730 2509 390 1920 390 
z
" transform="scale(0.015625)"/>
       </defs>
       <use xlink:href="#IBMPlexSans-30"/>
       <use xlink:href="#IBMPlexSans-2e" transform="translate(59.999985 0)"/>
       <use xlink:href="#IBMPlexSans-30" transform="translate(87.199982 0)"/>
       <use xlink:href="#IBMPlexSans-36" transform="translate(147.199966 0)"/>
      </g>
     </g>
    </g>
    <g id="xtick_5">
     <g id="line2d_5">
      <g>
       <use xlink:href="#m8d421433ba" x="438.784942" y="274.94952" style="stroke: #000000; stroke-width: 0.8"/>
      </g>
     </g>
     <g id="text_5">
      <!-- 0.08 -->
      <g transform="translate(428.424786 289.34952) scale(0.1 -0.1)">
       <defs>
        <path id="IBMPlexSans-38" d="M 1920 -77 
C 2938 -77 3469 480 3469 1216 
C 3469 1824 3104 2176 2566 2323 
L 2566 2374 
C 3034 2534 3334 2912 3334 3424 
C 3334 4102 2810 4544 1920 4544 
C 1030 4544 506 4102 506 3424 
C 506 2912 806 2534 1274 2374 
L 1274 2323 
C 736 2176 371 1824 371 1216 
C 371 480 902 -77 1920 -77 
z
M 1920 390 
C 1299 390 941 685 941 1190 
L 941 1325 
C 941 1830 1299 2125 1920 2125 
C 2541 2125 2899 1830 2899 1325 
L 2899 1190 
C 2899 685 2541 390 1920 390 
z
M 1920 2573 
C 1363 2573 1062 2822 1062 3277 
L 1062 3373 
C 1062 3827 1363 4077 1920 4077 
C 2477 4077 2778 3827 2778 3373 
L 2778 3277 
C 2778 2822 2477 2573 1920 2573 
z
" transform="scale(0.015625)"/>
       </defs>
       <use xlink:href="#IBMPlexSans-30"/>
       <use xlink:href="#IBMPlexSans-2e" transform="translate(59.999985 0)"/>
       <use xlink:href="#IBMPlexSans-30" transform="translate(87.199982 0)"/>
       <use xlink:href="#IBMPlexSans-38" transform="translate(147.199966 0)"/>
      </g>
     </g>
    </g>
    <g id="text_6">
     <!-- Frequency [THz] -->
     <g transform="translate(240.463041 302.94952) scale(0.1 -0.1)">
      <defs>
       <path id="IBMPlexSans-46" d="M 1133 0 
L 1133 2022 
L 3072 2022 
L 3072 2496 
L 1133 2496 
L 1133 3994 
L 3258 3994 
L 3258 4467 
L 595 4467 
L 595 0 
L 1133 0 
z
" transform="scale(0.015625)"/>
       <path id="IBMPlexSans-72" d="M 1056 0 
L 1056 2240 
C 1056 2554 1389 2790 1939 2790 
L 2240 2790 
L 2240 3302 
L 2042 3302 
C 1504 3302 1203 3008 1088 2694 
L 1056 2694 
L 1056 3302 
L 544 3302 
L 544 0 
L 1056 0 
z
" transform="scale(0.015625)"/>
       <path id="IBMPlexSans-65" d="M 1786 -77 
C 2406 -77 2880 230 3091 678 
L 2726 941 
C 2554 576 2234 371 1818 371 
C 1203 371 838 800 838 1370 
L 838 1523 
L 3213 1523 
L 3213 1766 
C 3213 2701 2669 3379 1786 3379 
C 890 3379 301 2701 301 1651 
C 301 602 890 -77 1786 -77 
z
M 1786 2950 
C 2310 2950 2662 2560 2662 1978 
L 2662 1907 
L 838 1907 
L 838 1952 
C 838 2528 1229 2950 1786 2950 
z
" transform="scale(0.015625)"/>
       <path id="IBMPlexSans-71" d="M 2656 -1280 
L 3168 -1280 
L 3168 3302 
L 2656 3302 
L 2656 2765 
L 2630 2765 
C 2458 3181 2118 3379 1664 3379 
C 838 3379 320 2707 320 1651 
C 320 595 838 -77 1664 -77 
C 2118 -77 2432 128 2630 538 
L 2656 538 
L 2656 -1280 
z
M 1805 384 
C 1229 384 870 781 870 1370 
L 870 1933 
C 870 2522 1229 2918 1805 2918 
C 2272 2918 2656 2650 2656 2285 
L 2656 1056 
C 2656 627 2272 384 1805 384 
z
" transform="scale(0.015625)"/>
       <path id="IBMPlexSans-75" d="M 2579 0 
L 3091 0 
L 3091 3302 
L 2579 3302 
L 2579 1018 
C 2579 582 2182 384 1779 384 
C 1286 384 1024 685 1024 1274 
L 1024 3302 
L 512 3302 
L 512 1184 
C 512 384 947 -77 1626 -77 
C 2176 -77 2426 224 2554 538 
L 2579 538 
L 2579 0 
z
" transform="scale(0.015625)"/>
       <path id="IBMPlexSans-6e" d="M 1056 0 
L 1056 2291 
C 1056 2714 1453 2918 1862 2918 
C 2355 2918 2611 2618 2611 2029 
L 2611 0 
L 3123 0 
L 3123 2118 
C 3123 2918 2694 3379 2016 3379 
C 1523 3379 1242 3136 1082 2765 
L 1056 2765 
L 1056 3302 
L 544 3302 
L 544 0 
L 1056 0 
z
" transform="scale(0.015625)"/>
       <path id="IBMPlexSans-63" d="M 1773 -77 
C 2400 -77 2829 230 3040 704 
L 2669 954 
C 2490 576 2189 378 1773 378 
C 1165 378 851 794 851 1370 
L 851 1933 
C 851 2509 1165 2925 1773 2925 
C 2176 2925 2458 2726 2579 2387 
L 3008 2605 
C 2816 3059 2426 3379 1773 3379 
C 845 3379 301 2707 301 1651 
C 301 595 845 -77 1773 -77 
z
" transform="scale(0.015625)"/>
       <path id="IBMPlexSans-79" d="M 1779 1056 
L 1600 518 
L 1568 518 
L 1414 1056 
L 621 3302 
L 109 3302 
L 1344 -128 
L 1094 -832 
L 576 -832 
L 576 -1280 
L 838 -1280 
C 1325 -1280 1459 -1165 1606 -768 
L 3085 3302 
L 2579 3302 
L 1779 1056 
z
" transform="scale(0.015625)"/>
       <path id="IBMPlexSans-20" transform="scale(0.015625)"/>
       <path id="IBMPlexSans-5b" d="M 1645 -883 
L 1645 -480 
L 1037 -480 
L 1037 4461 
L 1645 4461 
L 1645 4864 
L 595 4864 
L 595 -883 
L 1645 -883 
z
" transform="scale(0.015625)"/>
       <path id="IBMPlexSans-54" d="M 3520 3994 
L 3520 4467 
L 141 4467 
L 141 3994 
L 1562 3994 
L 1562 0 
L 2099 0 
L 2099 3994 
L 3520 3994 
z
" transform="scale(0.015625)"/>
       <path id="IBMPlexSans-48" d="M 3392 0 
L 3930 0 
L 3930 4467 
L 3392 4467 
L 3392 2496 
L 1133 2496 
L 1133 4467 
L 595 4467 
L 595 0 
L 1133 0 
L 1133 2022 
L 3392 2022 
L 3392 0 
z
" transform="scale(0.015625)"/>
       <path id="IBMPlexSans-7a" d="M 2758 0 
L 2758 448 
L 794 448 
L 2707 2918 
L 2707 3302 
L 269 3302 
L 269 2854 
L 2086 2854 
L 211 429 
L 211 0 
L 2758 0 
z
" transform="scale(0.015625)"/>
       <path id="IBMPlexSans-5d" d="M 384 4864 
L 384 4461 
L 992 4461 
L 992 -480 
L 384 -480 
L 384 -883 
L 1434 -883 
L 1434 4864 
L 384 4864 
z
" transform="scale(0.015625)"/>
      </defs>
      <use xlink:href="#IBMPlexSans-46"/>
      <use xlink:href="#IBMPlexSans-72" transform="translate(55.899994 0)"/>
      <use xlink:href="#IBMPlexSans-65" transform="translate(92.599991 0)"/>
      <use xlink:href="#IBMPlexSans-71" transform="translate(147.499985 0)"/>
      <use xlink:href="#IBMPlexSans-75" transform="translate(205.499969 0)"/>
      <use xlink:href="#IBMPlexSans-65" transform="translate(262.299957 0)"/>
      <use xlink:href="#IBMPlexSans-6e" transform="translate(317.199951 0)"/>
      <use xlink:href="#IBMPlexSans-63" transform="translate(373.999939 0)"/>
      <use xlink:href="#IBMPlexSans-79" transform="translate(424.299927 0)"/>
      <use xlink:href="#IBMPlexSans-20" transform="translate(474.199921 0)"/>
      <use xlink:href="#IBMPlexSans-5b" transform="translate(497.799911 0)"/>
      <use xlink:href="#IBMPlexSans-54" transform="translate(529.499908 0)"/>
      <use xlink:href="#IBMPlexSans-48" transform="translate(586.699905 0)"/>
      <use xlink:href="#IBMPlexSans-7a" transform="translate(657.399887 0)"/>
      <use xlink:href="#IBMPlexSans-5d" transform="translate(703.799881 0)"/>
     </g>
    </g>
   </g>
   <g id="matplotlib.axis_2">
    <g id="ytick_1">
     <g id="line2d_6">
      <defs>
       <path id="m3a86935ee4" d="M 0 0 
L -3.5 0 
" style="stroke: #000000; stroke-width: 0.8"/>
      </defs>
      <g>
       <use xlink:href="#m3a86935ee4" x="48.520313" y="241.265458" style="stroke: #000000; stroke-width: 0.8"/>
      </g>
     </g>
     <g id="text_7">
      <!-- 1.45 -->
      <g transform="translate(20.8 244.965458) scale(0.1 -0.1)">
       <defs>
        <path id="IBMPlexSans-31" d="M 3501 0 
L 3501 474 
L 2349 474 
L 2349 4467 
L 1510 4467 
L 326 3360 
L 640 3021 
L 1766 4070 
L 1811 4070 
L 1811 474 
L 563 474 
L 563 0 
L 3501 0 
z
" transform="scale(0.015625)"/>
        <path id="IBMPlexSans-35" d="M 3187 4467 
L 794 4467 
L 634 2010 
L 1088 1946 
C 1274 2150 1478 2323 1888 2323 
C 2496 2323 2822 1984 2822 1395 
L 2822 1331 
C 2822 742 2496 403 1888 403 
C 1350 403 1126 640 896 992 
L 493 685 
C 762 301 1146 -77 1888 -77 
C 2829 -77 3392 531 3392 1402 
C 3392 2266 2829 2784 2061 2784 
C 1594 2784 1357 2592 1146 2291 
L 1101 2291 
L 1229 3994 
L 3187 3994 
L 3187 4467 
z
" transform="scale(0.015625)"/>
       </defs>
       <use xlink:href="#IBMPlexSans-31"/>
       <use xlink:href="#IBMPlexSans-2e" transform="translate(59.999985 0)"/>
       <use xlink:href="#IBMPlexSans-34" transform="translate(87.199982 0)"/>
       <use xlink:href="#IBMPlexSans-35" transform="translate(147.199966 0)"/>
      </g>
     </g>
    </g>
    <g id="ytick_2">
     <g id="line2d_7">
      <g>
       <use xlink:href="#m3a86935ee4" x="48.520313" y="203.654685" style="stroke: #000000; stroke-width: 0.8"/>
      </g>
     </g>
     <g id="text_8">
      <!-- 1.50 -->
      <g transform="translate(20.8 207.354685) scale(0.1 -0.1)">
       <use xlink:href="#IBMPlexSans-31"/>
       <use xlink:href="#IBMPlexSans-2e" transform="translate(59.999985 0)"/>
       <use xlink:href="#IBMPlexSans-35" transform="translate(87.199982 0)"/>
       <use xlink:href="#IBMPlexSans-30" transform="translate(147.199966 0)"/>
      </g>
     </g>
    </g>
    <g id="ytick_3">
     <g id="line2d_8">
      <g>
       <use xlink:href="#m3a86935ee4" x="48.520313" y="166.043912" style="stroke: #000000; stroke-width: 0.8"/>
      </g>
     </g>
     <g id="text_9">
      <!-- 1.55 -->
      <g transform="translate(20.8 169.743912) scale(0.1 -0.1)">
       <use xlink:href="#IBMPlexSans-31"/>
       <use xlink:href="#IBMPlexSans-2e" transform="translate(59.999985 0)"/>
       <use xlink:href="#IBMPlexSans-35" transform="translate(87.199982 0)"/>
       <use xlink:href="#IBMPlexSans-35" transform="translate(147.199966 0)"/>
      </g>
     </g>
    </g>
    <g id="ytick_4">
     <g id="line2d_9">
      <g>
       <use xlink:href="#m3a86935ee4" x="48.520313" y="128.433138" style="stroke: #000000; stroke-width: 0.8"/>
      </g>
     </g>
     <g id="text_10">
      <!-- 1.60 -->
      <g transform="translate(20.8 132.133138) scale(0.1 -0.1)">
       <use xlink:href="#IBMPlexSans-31"/>
       <use xlink:href="#IBMPlexSans-2e" transform="translate(59.999985 0)"/>
       <use xlink:href="#IBMPlexSans-36" transform="translate(87.199982 0)"/>
       <use xlink:href="#IBMPlexSans-30" transform="translate(147.199966 0)"/>
      </g>
     </g>
    </g>
    <g id="ytick_5">
     <g id="line2d_10">
      <g>
       <use xlink:href="#m3a86935ee4" x="48.520313" y="90.822365" style="stroke: #000000; stroke-width: 0.8"/>
      </g>
     </g>
     <g id="text_11">
      <!-- 1.65 -->
      <g transform="translate(20.8 94.522365) scale(0.1 -0.1)">
       <use xlink:href="#IBMPlexSans-31"/>
       <use xlink:href="#IBMPlexSans-2e" transform="translate(59.999985 0)"/>
       <use xlink:href="#IBMPlexSans-36" transform="translate(87.199982 0)"/>
       <use xlink:href="#IBMPlexSans-35" transform="translate(147.199966 0)"/>
      </g>
     </g>
    </g>
    <g id="ytick_6">
     <g id="line2d_11">
      <g>
       <use xlink:href="#m3a86935ee4" x="48.520313" y="53.211592" style="stroke: #000000; stroke-width: 0.8"/>
      </g>
     </g>
     <g id="text_12">
      <!-- 1.70 -->
      <g transform="translate(20.8 56.911592) scale(0.1 -0.1)">
       <defs>
        <path id="IBMPlexSans-37" d="M 1696 0 
L 3373 3994 
L 3373 4467 
L 442 4467 
L 442 3174 
L 922 3174 
L 922 4006 
L 2829 4006 
L 1120 0 
L 1696 0 
z
" transform="scale(0.015625)"/>
       </defs>
       <use xlink:href="#IBMPlexSans-31"/>
       <use xlink:href="#IBMPlexSans-2e" transform="translate(59.999985 0)"/>
       <use xlink:href="#IBMPlexSans-37" transform="translate(87.199982 0)"/>
       <use xlink:href="#IBMPlexSans-30" transform="translate(147.199966 0)"/>
      </g>
     </g>
    </g>
    <g id="text_13">
     <!-- Amplitude [m²/s] -->
     <g transform="translate(14.8 199.412822) rotate(-90) scale(0.1 -0.1)">
      <defs>
       <path id="IBMPlexSans-41" d="M 3955 0 
L 2394 4467 
L 1709 4467 
L 147 0 
L 691 0 
L 1139 1318 
L 2944 1318 
L 3392 0 
L 3955 0 
z
M 2810 1792 
L 1267 1792 
L 2022 3968 
L 2054 3968 
L 2810 1792 
z
" transform="scale(0.015625)"/>
       <path id="IBMPlexSans-6d" d="M 1056 0 
L 1056 2291 
C 1056 2714 1440 2918 1843 2918 
C 2330 2918 2554 2618 2554 2029 
L 2554 0 
L 3066 0 
L 3066 2291 
C 3066 2714 3437 2918 3840 2918 
C 4339 2918 4563 2611 4563 2029 
L 4563 0 
L 5075 0 
L 5075 2118 
C 5075 2918 4672 3379 4000 3379 
C 3437 3379 3117 3066 2995 2707 
L 2982 2707 
C 2803 3181 2406 3379 1971 3379 
C 1459 3379 1229 3104 1082 2765 
L 1056 2765 
L 1056 3302 
L 544 3302 
L 544 0 
L 1056 0 
z
" transform="scale(0.015625)"/>
       <path id="IBMPlexSans-70" d="M 544 -1280 
L 1056 -1280 
L 1056 538 
L 1082 538 
C 1280 128 1594 -77 2048 -77 
C 2874 -77 3392 595 3392 1651 
C 3392 2707 2874 3379 2048 3379 
C 1594 3379 1254 3181 1082 2765 
L 1056 2765 
L 1056 3302 
L 544 3302 
L 544 -1280 
z
M 1907 384 
C 1440 384 1056 627 1056 1056 
L 1056 2285 
C 1056 2650 1440 2918 1907 2918 
C 2483 2918 2842 2522 2842 1933 
L 2842 1370 
C 2842 781 2483 384 1907 384 
z
" transform="scale(0.015625)"/>
       <path id="IBMPlexSans-6c" d="M 1542 0 
L 1542 448 
L 1056 448 
L 1056 4736 
L 544 4736 
L 544 531 
C 544 224 736 0 1088 0 
L 1542 0 
z
" transform="scale(0.015625)"/>
       <path id="IBMPlexSans-69" d="M 800 4077 
C 1018 4077 1114 4192 1114 4365 
L 1114 4448 
C 1114 4621 1018 4736 800 4736 
C 582 4736 486 4621 486 4448 
L 486 4365 
C 486 4192 582 4077 800 4077 
z
M 544 0 
L 1056 0 
L 1056 3302 
L 544 3302 
L 544 0 
z
" transform="scale(0.015625)"/>
       <path id="IBMPlexSans-74" d="M 1914 0 
L 1914 448 
L 1242 448 
L 1242 2854 
L 1965 2854 
L 1965 3302 
L 1242 3302 
L 1242 4218 
L 781 4218 
L 781 3603 
C 781 3379 710 3302 493 3302 
L 186 3302 
L 186 2854 
L 730 2854 
L 730 544 
C 730 224 922 0 1274 0 
L 1914 0 
z
" transform="scale(0.015625)"/>
       <path id="IBMPlexSans-64" d="M 2656 0 
L 3168 0 
L 3168 4736 
L 2656 4736 
L 2656 2765 
L 2630 2765 
C 2458 3181 2118 3379 1664 3379 
C 838 3379 320 2707 320 1651 
C 320 595 838 -77 1664 -77 
C 2118 -77 2432 128 2630 538 
L 2656 538 
L 2656 0 
z
M 1805 384 
C 1229 384 870 781 870 1370 
L 870 1933 
C 870 2522 1229 2918 1805 2918 
C 2272 2918 2656 2650 2656 2285 
L 2656 1056 
C 2656 627 2272 384 1805 384 
z
" transform="scale(0.015625)"/>
       <path id="IBMPlexSans-b2" d="M 1990 2426 
L 678 2426 
L 1299 2906 
C 1658 3181 1907 3437 1907 3808 
C 1907 4218 1613 4506 1088 4506 
C 576 4506 320 4230 218 3930 
L 563 3802 
C 634 4006 768 4173 1062 4173 
C 1331 4173 1478 4026 1478 3808 
L 1478 3770 
C 1478 3539 1331 3347 1082 3142 
L 250 2470 
L 250 2106 
L 1990 2106 
L 1990 2426 
z
" transform="scale(0.015625)"/>
       <path id="IBMPlexSans-2f" d="M 518 -966 
L 2189 4736 
L 1728 4736 
L 58 -966 
L 518 -966 
z
" transform="scale(0.015625)"/>
       <path id="IBMPlexSans-73" d="M 1536 -77 
C 2291 -77 2758 314 2758 954 
C 2758 1453 2477 1773 1747 1882 
L 1491 1920 
C 1082 1984 858 2112 858 2432 
C 858 2746 1082 2944 1504 2944 
C 1926 2944 2208 2746 2355 2541 
L 2694 2848 
C 2426 3181 2074 3379 1542 3379 
C 870 3379 365 3059 365 2406 
C 365 1792 819 1542 1427 1453 
L 1690 1414 
C 2125 1350 2266 1152 2266 896 
C 2266 557 2010 358 1574 358 
C 1158 358 851 544 595 864 
L 230 570 
C 525 179 928 -77 1536 -77 
z
" transform="scale(0.015625)"/>
      </defs>
      <use xlink:href="#IBMPlexSans-41"/>
      <use xlink:href="#IBMPlexSans-6d" transform="translate(64.099991 0)"/>
      <use xlink:href="#IBMPlexSans-70" transform="translate(151.399979 0)"/>
      <use xlink:href="#IBMPlexSans-6c" transform="translate(209.399963 0)"/>
      <use xlink:href="#IBMPlexSans-69" transform="translate(236.59996 0)"/>
      <use xlink:href="#IBMPlexSans-74" transform="translate(261.599945 0)"/>
      <use xlink:href="#IBMPlexSans-75" transform="translate(296.699936 0)"/>
      <use xlink:href="#IBMPlexSans-64" transform="translate(353.499924 0)"/>
      <use xlink:href="#IBMPlexSans-65" transform="translate(411.499908 0)"/>
      <use xlink:href="#IBMPlexSans-20" transform="translate(466.399902 0)"/>
      <use xlink:href="#IBMPlexSans-5b" transform="translate(489.999893 0)"/>
      <use xlink:href="#IBMPlexSans-6d" transform="translate(521.69989 0)"/>
      <use xlink:href="#IBMPlexSans-b2" transform="translate(608.999878 0)"/>
      <use xlink:href="#IBMPlexSans-2f" transform="translate(643.599869 0)"/>
      <use xlink:href="#IBMPlexSans-73" transform="translate(681.899857 0)"/>
      <use xlink:href="#IBMPlexSans-5d" transform="translate(730.599854 0)"/>
     </g>
    </g>
    <g id="text_14">
     <!-- 1e−8 -->
     <g transform="translate(48.520313 44.648) scale(0.1 -0.1)">
      <defs>
       <path id="IBMPlexSans-2212" d="M 3411 1734 
L 3411 2170 
L 429 2170 
L 429 1734 
L 3411 1734 
z
" transform="scale(0.015625)"/>
      </defs>
      <use xlink:href="#IBMPlexSans-31"/>
      <use xlink:href="#IBMPlexSans-65" transform="translate(59.999985 0)"/>
      <use xlink:href="#IBMPlexSans-2212" transform="translate(114.899979 0)"/>
      <use xlink:href="#IBMPlexSans-38" transform="translate(174.899963 0)"/>
     </g>
    </g>
   </g>
   <g id="line2d_12">
    <defs>
     <path id="mc1eea87fe3" d="M 0 1.5 
C 0.397805 1.5 0.77937 1.341951 1.06066 1.06066 
C 1.341951 0.77937 1.5 0.397805 1.5 0 
C 1.5 -0.397805 1.341951 -0.77937 1.06066 -1.06066 
C 0.77937 -1.341951 0.397805 -1.5 0 -1.5 
C -0.397805 -1.5 -0.77937 -1.341951 -1.06066 -1.06066 
C -1.341951 -0.77937 -1.5 -0.397805 -1.5 0 
C -1.5 0.397805 -1.341951 0.77937 -1.06066 1.06066 
C -0.77937 1.341951 -0.397805 1.5 0 1.5 
z
"/>
    </defs>
    <g clip-path="url(#p70a06cf321)">
     <use xlink:href="#mc1eea87fe3" x="57.827254" y="235.695858" style="fill: #1f77b4"/>
     <use xlink:href="#mc1eea87fe3" x="62.649503" y="251.32766" style="fill: #1f77b4"/>
     <use xlink:href="#mc1eea87fe3" x="67.471753" y="248.315696" style="fill: #1f77b4"/>
     <use xlink:href="#mc1eea87fe3" x="72.294002" y="242.778117" style="fill: #1f77b4"/>
     <use xlink:href="#mc1eea87fe3" x="77.116252" y="245.71425" style="fill: #1f77b4"/>
     <use xlink:href="#mc1eea87fe3" x="81.938501" y="247.736201" style="fill: #1f77b4"/>
     <use xlink:href="#mc1eea87fe3" x="86.760751" y="253.94071" style="fill: #1f77b4"/>
     <use xlink:href="#mc1eea87fe3" x="91.583" y="253.101047" style="fill: #1f77b4"/>
     <use xlink:href="#mc1eea87fe3" x="96.40525" y="238.841718" style="fill: #1f77b4"/>
     <use xlink:href="#mc1eea87fe3" x="101.227499" y="253.019832" style="fill: #1f77b4"/>
     <use xlink:href="#mc1eea87fe3" x="106.049748" y="238.516461" style="fill: #1f77b4"/>
     <use xlink:href="#mc1eea87fe3" x="110.871998" y="238.319581" style="fill: #1f77b4"/>
     <use xlink:href="#mc1eea87fe3" x="115.694247" y="243.265537" style="fill: #1f77b4"/>
     <use xlink:href="#mc1eea87fe3" x="120.516497" y="237.94196" style="fill: #1f77b4"/>
     <use xlink:href="#mc1eea87fe3" x="125.338746" y="234.260022" style="fill: #1f77b4"/>
     <use xlink:href="#mc1eea87fe3" x="130.160996" y="235.001074" style="fill: #1f77b4"/>
     <use xlink:href="#mc1eea87fe3" x="134.983245" y="240.749272" style="fill: #1f77b4"/>
     <use xlink:href="#mc1eea87fe3" x="139.805495" y="232.705956" style="fill: #1f77b4"/>
     <use xlink:href="#mc1eea87fe3" x="144.627744" y="230.189374" style="fill: #1f77b4"/>
     <use xlink:href="#mc1eea87fe3" x="149.449993" y="236.048921" style="fill: #1f77b4"/>
     <use xlink:href="#mc1eea87fe3" x="154.272243" y="238.490424" style="fill: #1f77b4"/>
     <use xlink:href="#mc1eea87fe3" x="159.094492" y="234.120783" style="fill: #1f77b4"/>
     <use xlink:href="#mc1eea87fe3" x="163.916742" y="238.075771" style="fill: #1f77b4"/>
     <use xlink:href="#mc1eea87fe3" x="168.738991" y="230.405974" style="fill: #1f77b4"/>
     <use xlink:href="#mc1eea87fe3" x="173.561241" y="235.439525" style="fill: #1f77b4"/>
     <use xlink:href="#mc1eea87fe3" x="178.38349" y="233.093316" style="fill: #1f77b4"/>
     <use xlink:href="#mc1eea87fe3" x="183.20574" y="232.395604" style="fill: #1f77b4"/>
     <use xlink:href="#mc1eea87fe3" x="188.027989" y="221.229456" style="fill: #1f77b4"/>
     <use xlink:href="#mc1eea87fe3" x="192.850238" y="224.615912" style="fill: #1f77b4"/>
     <use xlink:href="#mc1eea87fe3" x="197.672488" y="223.773629" style="fill: #1f77b4"/>
     <use xlink:href="#mc1eea87fe3" x="202.494737" y="231.050549" style="fill: #1f77b4"/>
     <use xlink:href="#mc1eea87fe3" x="207.316987" y="236.105814" style="fill: #1f77b4"/>
     <use xlink:href="#mc1eea87fe3" x="212.139236" y="227.644473" style="fill: #1f77b4"/>
     <use xlink:href="#mc1eea87fe3" x="216.961486" y="226.218174" style="fill: #1f77b4"/>
     <use xlink:href="#mc1eea87fe3" x="221.783735" y="219.433886" style="fill: #1f77b4"/>
     <use xlink:href="#mc1eea87fe3" x="226.605985" y="225.11556" style="fill: #1f77b4"/>
     <use xlink:href="#mc1eea87fe3" x="231.428234" y="221.761962" style="fill: #1f77b4"/>
     <use xlink:href="#mc1eea87fe3" x="236.250483" y="215.304203" style="fill: #1f77b4"/>
     <use xlink:href="#mc1eea87fe3" x="241.072733" y="221.032164" style="fill: #1f77b4"/>
     <use xlink:href="#mc1eea87fe3" x="245.894982" y="211.653995" style="fill: #1f77b4"/>
     <use xlink:href="#mc1eea87fe3" x="250.717232" y="217.34729" style="fill: #1f77b4"/>
     <use xlink:href="#mc1eea87fe3" x="255.539481" y="231.466281" style="fill: #1f77b4"/>
     <use xlink:href="#mc1eea87fe3" x="260.361731" y="221.453814" style="fill: #1f77b4"/>
     <use xlink:href="#mc1eea87fe3" x="265.18398" y="223.80029" style="fill: #1f77b4"/>
     <use xlink:href="#mc1eea87fe3" x="270.00623" y="221.45641" style="fill: #1f77b4"/>
     <use xlink:href="#mc1eea87fe3" x="274.828479" y="219.816427" style="fill: #1f77b4"/>
     <use xlink:href="#mc1eea87fe3" x="279.650728" y="213.748278" style="fill: #1f77b4"/>
     <use xlink:href="#mc1eea87fe3" x="284.472978" y="218.127448" style="fill: #1f77b4"/>
     <use xlink:href="#mc1eea87fe3" x="289.295227" y="211.524888" style="fill: #1f77b4"/>
     <use xlink:href="#mc1eea87fe3" x="294.117477" y="216.171034" style="fill: #1f77b4"/>
     <use xlink:href="#mc1eea87fe3" x="298.939726" y="210.819686" style="fill: #1f77b4"/>
     <use xlink:href="#mc1eea87fe3" x="303.761976" y="209.018063" style="fill: #1f77b4"/>
     <use xlink:href="#mc1eea87fe3" x="308.584225" y="221.744779" style="fill: #1f77b4"/>
     <use xlink:href="#mc1eea87fe3" x="313.406475" y="213.765126" style="fill: #1f77b4"/>
     <use xlink:href="#mc1eea87fe3" x="318.228724" y="219.53362" style="fill: #1f77b4"/>
     <use xlink:href="#mc1eea87fe3" x="323.050973" y="213.330258" style="fill: #1f77b4"/>
     <use xlink:href="#mc1eea87fe3" x="327.873223" y="211.738316" style="fill: #1f77b4"/>
     <use xlink:href="#mc1eea87fe3" x="332.695472" y="210.215533" style="fill: #1f77b4"/>
     <use xlink:href="#mc1eea87fe3" x="337.517722" y="210.215322" style="fill: #1f77b4"/>
     <use xlink:href="#mc1eea87fe3" x="342.339971" y="204.370944" style="fill: #1f77b4"/>
     <use xlink:href="#mc1eea87fe3" x="347.162221" y="205.726514" style="fill: #1f77b4"/>
     <use xlink:href="#mc1eea87fe3" x="351.98447" y="196.764551" style="fill: #1f77b4"/>
     <use xlink:href="#mc1eea87fe3" x="356.80672" y="197.869527" style="fill: #1f77b4"/>
     <use xlink:href="#mc1eea87fe3" x="361.628969" y="206.883455" style="fill: #1f77b4"/>
     <use xlink:href="#mc1eea87fe3" x="366.451219" y="196.975751" style="fill: #1f77b4"/>
     <use xlink:href="#mc1eea87fe3" x="371.273468" y="201.209567" style="fill: #1f77b4"/>
     <use xlink:href="#mc1eea87fe3" x="376.095717" y="194.664987" style="fill: #1f77b4"/>
     <use xlink:href="#mc1eea87fe3" x="380.917967" y="201.706246" style="fill: #1f77b4"/>
     <use xlink:href="#mc1eea87fe3" x="385.740216" y="193.192064" style="fill: #1f77b4"/>
     <use xlink:href="#mc1eea87fe3" x="390.562466" y="189.992519" style="fill: #1f77b4"/>
     <use xlink:href="#mc1eea87fe3" x="395.384715" y="183.084708" style="fill: #1f77b4"/>
     <use xlink:href="#mc1eea87fe3" x="400.206965" y="191.578139" style="fill: #1f77b4"/>
     <use xlink:href="#mc1eea87fe3" x="405.029214" y="192.917716" style="fill: #1f77b4"/>
     <use xlink:href="#mc1eea87fe3" x="409.851464" y="199.53278" style="fill: #1f77b4"/>
     <use xlink:href="#mc1eea87fe3" x="414.673713" y="192.101861" style="fill: #1f77b4"/>
     <use xlink:href="#mc1eea87fe3" x="419.495962" y="194.903283" style="fill: #1f77b4"/>
     <use xlink:href="#mc1eea87fe3" x="424.318212" y="180.267961" style="fill: #1f77b4"/>
     <use xlink:href="#mc1eea87fe3" x="429.140461" y="181.569893" style="fill: #1f77b4"/>
     <use xlink:href="#mc1eea87fe3" x="433.962711" y="183.952775" style="fill: #1f77b4"/>
     <use xlink:href="#mc1eea87fe3" x="438.78496" y="188.184008" style="fill: #1f77b4"/>
     <use xlink:href="#mc1eea87fe3" x="443.60721" y="187.745972" style="fill: #1f77b4"/>
     <use xlink:href="#mc1eea87fe3" x="448.429459" y="180.670293" style="fill: #1f77b4"/>
     <use xlink:href="#mc1eea87fe3" x="453.251709" y="187.437697" style="fill: #1f77b4"/>
     <use xlink:href="#mc1eea87fe3" x="458.073958" y="179.299638" style="fill: #1f77b4"/>
     <use xlink:href="#mc1eea87fe3" x="462.896207" y="182.173639" style="fill: #1f77b4"/>
     <use xlink:href="#mc1eea87fe3" x="467.718457" y="179.268226" style="fill: #1f77b4"/>
     <use xlink:href="#mc1eea87fe3" x="472.540706" y="185.721255" style="fill: #1f77b4"/>
     <use xlink:href="#mc1eea87fe3" x="477.362956" y="164.405262" style="fill: #1f77b4"/>
     <use xlink:href="#mc1eea87fe3" x="482.185205" y="166.372502" style="fill: #1f77b4"/>
     <use xlink:href="#mc1eea87fe3" x="487.007455" y="174.424294" style="fill: #1f77b4"/>
     <use xlink:href="#mc1eea87fe3" x="491.829704" y="165.719014" style="fill: #1f77b4"/>
     <use xlink:href="#mc1eea87fe3" x="496.651954" y="173.193661" style="fill: #1f77b4"/>
     <use xlink:href="#mc1eea87fe3" x="501.474203" y="173.154962" style="fill: #1f77b4"/>
    </g>
   </g>
   <g id="line2d_13">
    <path d="M 57.827254 244.171035 
L 62.649503 244.115735 
L 67.471753 244.023563 
L 72.294002 243.894508 
L 77.116252 243.728558 
L 81.938501 243.525695 
L 86.760751 243.2859 
L 91.583 243.009148 
L 96.40525 242.69541 
L 101.227499 242.344655 
L 106.049748 241.956847 
L 110.871998 241.531946 
L 115.694247 241.06991 
L 120.516497 240.570691 
L 125.338746 240.034238 
L 130.160996 239.460497 
L 134.983245 238.849409 
L 139.805495 238.200912 
L 144.627744 237.514939 
L 149.449993 236.791422 
L 154.272243 236.030285 
L 159.094492 235.231451 
L 163.916742 234.394838 
L 168.738991 233.520362 
L 173.561241 232.607932 
L 178.38349 231.657454 
L 183.20574 230.668833 
L 188.027989 229.641966 
L 192.850238 228.576748 
L 197.672488 227.473069 
" clip-path="url(#p70a06cf321)" style="fill: none; stroke: #2ca02c; stroke-width: 1.5; stroke-linecap: square"/>
   </g>
   <g id="line2d_14">
    <path d="M 57.827254 251.904487 
L 62.649503 251.785593 
L 67.471753 251.590016 
L 72.294002 251.321858 
L 77.116252 250.987333 
L 81.938501 250.59526 
L 86.760751 250.157708 
L 91.583 249.690694 
L 96.40525 249.214776 
L 101.227499 248.755093 
L 106.049748 248.340288 
L 110.871998 247.999744 
L 115.694247 247.759371 
L 120.516497 247.637335 
L 125.338746 247.641805 
L 130.160996 247.771719 
L 134.983245 248.019712 
L 139.805495 248.375438 
L 144.627744 248.828082 
L 149.449993 249.367765 
L 154.272243 249.986095 
L 159.094492 250.676237 
L 163.916742 251.432752 
L 168.738991 252.251371 
L 173.561241 253.12877 
L 178.38349 254.06237 
L 183.20574 255.050185 
L 188.027989 256.09069 
L 192.850238 257.182727 
L 197.672488 258.325429 
" clip-path="url(#p70a06cf321)" style="fill: none; stroke-dasharray: 5.55,2.4; stroke-dashoffset: 0; stroke: #2ca02c; stroke-width: 1.5"/>
   </g>
   <g id="line2d_15">
    <path d="M 57.827254 236.437583 
L 62.649503 236.445878 
L 67.471753 236.457109 
L 72.294002 236.467157 
L 77.116252 236.469783 
L 81.938501 236.45613 
L 86.760751 236.414092 
L 91.583 236.327601 
L 96.40525 236.176044 
L 101.227499 235.934216 
L 106.049748 235.573406 
L 110.871998 235.064148 
L 115.694247 234.380448 
L 120.516497 233.504046 
L 125.338746 232.426671 
L 130.160996 231.149274 
L 134.983245 229.679105 
L 139.805495 228.026385 
L 144.627744 226.201796 
L 149.449993 224.215078 
L 154.272243 222.074474 
L 159.094492 219.786665 
L 163.916742 217.356925 
L 168.738991 214.789352 
L 173.561241 212.087094 
L 178.38349 209.252539 
L 183.20574 206.287481 
L 188.027989 203.193242 
L 192.850238 199.970768 
L 197.672488 196.620709 
" clip-path="url(#p70a06cf321)" style="fill: none; stroke-dasharray: 5.55,2.4; stroke-dashoffset: 0; stroke: #2ca02c; stroke-width: 1.5"/>
   </g>
   <g id="line2d_16">
    <path d="M 195.862753 274.94952 
L 195.862753 252.219368 
" clip-path="url(#p70a06cf321)" style="fill: none; stroke: #000000; stroke-width: 1.5; stroke-linecap: square"/>
   </g>
   <g id="patch_3">
    <path d="M 48.520313 274.94952 
L 48.520313 47.648 
" style="fill: none; stroke: #000000; stroke-width: 0.8; stroke-linejoin: miter; stroke-linecap: square"/>
   </g>
   <g id="patch_4">
    <path d="M 48.520313 274.94952 
L 505.958895 274.94952 
" style="fill: none; stroke: #000000; stroke-width: 0.8; stroke-linejoin: miter; stroke-linecap: square"/>
   </g>
   <g id="text_15">
    <!-- Model exppoly(0, 2)  -->
    <g transform="translate(48.520313 16.32) scale(0.12 -0.12)">
     <defs>
      <path id="IBMPlexSans-4d" d="M 595 0 
L 1120 0 
L 1120 3763 
L 1152 3763 
L 1530 3014 
L 2598 1069 
L 3667 3014 
L 4045 3763 
L 4077 3763 
L 4077 0 
L 4602 0 
L 4602 4467 
L 3910 4467 
L 2624 2061 
L 2592 2061 
L 1312 4467 
L 595 4467 
L 595 0 
z
" transform="scale(0.015625)"/>
      <path id="IBMPlexSans-6f" d="M 1792 -77 
C 2675 -77 3283 602 3283 1651 
C 3283 2701 2675 3379 1792 3379 
C 909 3379 301 2701 301 1651 
C 301 602 909 -77 1792 -77 
z
M 1792 378 
C 1242 378 851 717 851 1414 
L 851 1888 
C 851 2586 1242 2925 1792 2925 
C 2342 2925 2733 2586 2733 1888 
L 2733 1414 
C 2733 717 2342 378 1792 378 
z
" transform="scale(0.015625)"/>
      <path id="IBMPlexSans-78" d="M 134 0 
L 704 0 
L 1632 1293 
L 1651 1293 
L 2509 0 
L 3110 0 
L 1920 1702 
L 3085 3302 
L 2515 3302 
L 1645 2074 
L 1626 2074 
L 787 3302 
L 186 3302 
L 1357 1664 
L 134 0 
z
" transform="scale(0.015625)"/>
      <path id="IBMPlexSans-28" d="M 531 1997 
C 531 749 1056 -339 1690 -877 
L 2176 -877 
C 1485 -262 1011 819 1011 1715 
L 1011 2266 
C 1011 3162 1466 4224 2176 4864 
L 1690 4864 
C 1037 4307 531 3232 531 1997 
z
" transform="scale(0.015625)"/>
      <path id="IBMPlexSans-2c" d="M 870 749 
C 602 749 480 595 480 371 
L 480 282 
C 480 109 557 -19 730 -58 
C 659 -358 506 -582 250 -851 
L 678 -851 
C 1043 -538 1261 -64 1261 282 
L 1261 371 
C 1261 595 1139 749 870 749 
z
" transform="scale(0.015625)"/>
      <path id="IBMPlexSans-29" d="M 1613 1997 
C 1613 3232 1107 4307 454 4864 
L -32 4864 
C 678 4224 1133 3162 1133 2266 
L 1133 1715 
C 1133 819 659 -262 -32 -877 
L 454 -877 
C 1088 -339 1613 749 1613 1997 
z
" transform="scale(0.015625)"/>
     </defs>
     <use xlink:href="#IBMPlexSans-4d"/>
     <use xlink:href="#IBMPlexSans-6f" transform="translate(81.199982 0)"/>
     <use xlink:href="#IBMPlexSans-64" transform="translate(137.199966 0)"/>
     <use xlink:href="#IBMPlexSans-65" transform="translate(195.199951 0)"/>
     <use xlink:href="#IBMPlexSans-6c" transform="translate(250.099945 0)"/>
     <use xlink:href="#IBMPlexSans-20" transform="translate(277.299942 0)"/>
     <use xlink:href="#IBMPlexSans-65" transform="translate(300.899933 0)"/>
     <use xlink:href="#IBMPlexSans-78" transform="translate(355.799927 0)"/>
     <use xlink:href="#IBMPlexSans-70" transform="translate(406.499924 0)"/>
     <use xlink:href="#IBMPlexSans-70" transform="translate(464.499908 0)"/>
     <use xlink:href="#IBMPlexSans-6f" transform="translate(522.499893 0)"/>
     <use xlink:href="#IBMPlexSans-6c" transform="translate(578.499878 0)"/>
     <use xlink:href="#IBMPlexSans-79" transform="translate(605.699875 0)"/>
     <use xlink:href="#IBMPlexSans-28" transform="translate(655.599869 0)"/>
     <use xlink:href="#IBMPlexSans-30" transform="translate(689.099854 0)"/>
     <use xlink:href="#IBMPlexSans-2c" transform="translate(749.099838 0)"/>
     <use xlink:href="#IBMPlexSans-20" transform="translate(776.299835 0)"/>
     <use xlink:href="#IBMPlexSans-32" transform="translate(799.899826 0)"/>
     <use xlink:href="#IBMPlexSans-29" transform="translate(859.899811 0)"/>
     <use xlink:href="#IBMPlexSans-20" transform="translate(893.399796 0)"/>
    </g>
    <!-- $D$ = $1.45\times 10^{-8}$ ± $5.26\times 10^{-11}$ m²/s -->
    <g transform="translate(48.520313 31.248) scale(0.12 -0.12)">
     <defs>
      <path id="DejaVuSans-Oblique-44" d="M 1081 4666 
L 2438 4666 
Q 3519 4666 4070 4208 
Q 4622 3750 4622 2847 
Q 4622 2250 4412 1698 
Q 4203 1147 3834 769 
Q 3463 381 2891 190 
Q 2319 0 1538 0 
L 172 0 
L 1081 4666 
z
M 1613 4147 
L 909 519 
L 1734 519 
Q 2794 519 3375 1128 
Q 3956 1738 3956 2847 
Q 3956 3519 3581 3833 
Q 3206 4147 2406 4147 
L 1613 4147 
z
" transform="scale(0.015625)"/>
      <path id="IBMPlexSans-3d" d="M 3411 2381 
L 3411 2816 
L 429 2816 
L 429 2381 
L 3411 2381 
z
M 3411 1101 
L 3411 1536 
L 429 1536 
L 429 1101 
L 3411 1101 
z
" transform="scale(0.015625)"/>
      <path id="DejaVuSans-31" d="M 794 531 
L 1825 531 
L 1825 4091 
L 703 3866 
L 703 4441 
L 1819 4666 
L 2450 4666 
L 2450 531 
L 3481 531 
L 3481 0 
L 794 0 
L 794 531 
z
" transform="scale(0.015625)"/>
      <path id="DejaVuSans-2e" d="M 684 794 
L 1344 794 
L 1344 0 
L 684 0 
L 684 794 
z
" transform="scale(0.015625)"/>
      <path id="DejaVuSans-34" d="M 2419 4116 
L 825 1625 
L 2419 1625 
L 2419 4116 
z
M 2253 4666 
L 3047 4666 
L 3047 1625 
L 3713 1625 
L 3713 1100 
L 3047 1100 
L 3047 0 
L 2419 0 
L 2419 1100 
L 313 1100 
L 313 1709 
L 2253 4666 
z
" transform="scale(0.015625)"/>
      <path id="DejaVuSans-35" d="M 691 4666 
L 3169 4666 
L 3169 4134 
L 1269 4134 
L 1269 2991 
Q 1406 3038 1543 3061 
Q 1681 3084 1819 3084 
Q 2600 3084 3056 2656 
Q 3513 2228 3513 1497 
Q 3513 744 3044 326 
Q 2575 -91 1722 -91 
Q 1428 -91 1123 -41 
Q 819 9 494 109 
L 494 744 
Q 775 591 1075 516 
Q 1375 441 1709 441 
Q 2250 441 2565 725 
Q 2881 1009 2881 1497 
Q 2881 1984 2565 2268 
Q 2250 2553 1709 2553 
Q 1456 2553 1204 2497 
Q 953 2441 691 2322 
L 691 4666 
z
" transform="scale(0.015625)"/>
      <path id="DejaVuSans-d7" d="M 4488 3438 
L 3059 2003 
L 4488 575 
L 4116 197 
L 2681 1631 
L 1247 197 
L 878 575 
L 2303 2003 
L 878 3438 
L 1247 3816 
L 2681 2381 
L 4116 3816 
L 4488 3438 
z
" transform="scale(0.015625)"/>
      <path id="DejaVuSans-30" d="M 2034 4250 
Q 1547 4250 1301 3770 
Q 1056 3291 1056 2328 
Q 1056 1369 1301 889 
Q 1547 409 2034 409 
Q 2525 409 2770 889 
Q 3016 1369 3016 2328 
Q 3016 3291 2770 3770 
Q 2525 4250 2034 4250 
z
M 2034 4750 
Q 2819 4750 3233 4129 
Q 3647 3509 3647 2328 
Q 3647 1150 3233 529 
Q 2819 -91 2034 -91 
Q 1250 -91 836 529 
Q 422 1150 422 2328 
Q 422 3509 836 4129 
Q 1250 4750 2034 4750 
z
" transform="scale(0.015625)"/>
      <path id="DejaVuSans-2212" d="M 678 2272 
L 4684 2272 
L 4684 1741 
L 678 1741 
L 678 2272 
z
" transform="scale(0.015625)"/>
      <path id="DejaVuSans-38" d="M 2034 2216 
Q 1584 2216 1326 1975 
Q 1069 1734 1069 1313 
Q 1069 891 1326 650 
Q 1584 409 2034 409 
Q 2484 409 2743 651 
Q 3003 894 3003 1313 
Q 3003 1734 2745 1975 
Q 2488 2216 2034 2216 
z
M 1403 2484 
Q 997 2584 770 2862 
Q 544 3141 544 3541 
Q 544 4100 942 4425 
Q 1341 4750 2034 4750 
Q 2731 4750 3128 4425 
Q 3525 4100 3525 3541 
Q 3525 3141 3298 2862 
Q 3072 2584 2669 2484 
Q 3125 2378 3379 2068 
Q 3634 1759 3634 1313 
Q 3634 634 3220 271 
Q 2806 -91 2034 -91 
Q 1263 -91 848 271 
Q 434 634 434 1313 
Q 434 1759 690 2068 
Q 947 2378 1403 2484 
z
M 1172 3481 
Q 1172 3119 1398 2916 
Q 1625 2713 2034 2713 
Q 2441 2713 2670 2916 
Q 2900 3119 2900 3481 
Q 2900 3844 2670 4047 
Q 2441 4250 2034 4250 
Q 1625 4250 1398 4047 
Q 1172 3844 1172 3481 
z
" transform="scale(0.015625)"/>
      <path id="IBMPlexSans-b1" d="M 2163 973 
L 2163 2246 
L 3411 2246 
L 3411 2682 
L 2163 2682 
L 2163 3955 
L 1677 3955 
L 1677 2682 
L 429 2682 
L 429 2246 
L 1677 2246 
L 1677 973 
L 2163 973 
z
M 3411 0 
L 3411 435 
L 429 435 
L 429 0 
L 3411 0 
z
" transform="scale(0.015625)"/>
      <path id="DejaVuSans-32" d="M 1228 531 
L 3431 531 
L 3431 0 
L 469 0 
L 469 531 
Q 828 903 1448 1529 
Q 2069 2156 2228 2338 
Q 2531 2678 2651 2914 
Q 2772 3150 2772 3378 
Q 2772 3750 2511 3984 
Q 2250 4219 1831 4219 
Q 1534 4219 1204 4116 
Q 875 4013 500 3803 
L 500 4441 
Q 881 4594 1212 4672 
Q 1544 4750 1819 4750 
Q 2544 4750 2975 4387 
Q 3406 4025 3406 3419 
Q 3406 3131 3298 2873 
Q 3191 2616 2906 2266 
Q 2828 2175 2409 1742 
Q 1991 1309 1228 531 
z
" transform="scale(0.015625)"/>
      <path id="DejaVuSans-36" d="M 2113 2584 
Q 1688 2584 1439 2293 
Q 1191 2003 1191 1497 
Q 1191 994 1439 701 
Q 1688 409 2113 409 
Q 2538 409 2786 701 
Q 3034 994 3034 1497 
Q 3034 2003 2786 2293 
Q 2538 2584 2113 2584 
z
M 3366 4563 
L 3366 3988 
Q 3128 4100 2886 4159 
Q 2644 4219 2406 4219 
Q 1781 4219 1451 3797 
Q 1122 3375 1075 2522 
Q 1259 2794 1537 2939 
Q 1816 3084 2150 3084 
Q 2853 3084 3261 2657 
Q 3669 2231 3669 1497 
Q 3669 778 3244 343 
Q 2819 -91 2113 -91 
Q 1303 -91 875 529 
Q 447 1150 447 2328 
Q 447 3434 972 4092 
Q 1497 4750 2381 4750 
Q 2619 4750 2861 4703 
Q 3103 4656 3366 4563 
z
" transform="scale(0.015625)"/>
     </defs>
     <use xlink:href="#DejaVuSans-Oblique-44" transform="translate(0 0.765625)"/>
     <use xlink:href="#IBMPlexSans-20" transform="translate(77.001953 0.765625)"/>
     <use xlink:href="#IBMPlexSans-3d" transform="translate(100.601944 0.765625)"/>
     <use xlink:href="#IBMPlexSans-20" transform="translate(160.601929 0.765625)"/>
     <use xlink:href="#DejaVuSans-31" transform="translate(184.20192 0.765625)"/>
     <use xlink:href="#DejaVuSans-2e" transform="translate(247.824966 0.765625)"/>
     <use xlink:href="#DejaVuSans-34" transform="translate(279.612076 0.765625)"/>
     <use xlink:href="#DejaVuSans-35" transform="translate(343.235123 0.765625)"/>
     <use xlink:href="#DejaVuSans-d7" transform="translate(426.340591 0.765625)"/>
     <use xlink:href="#DejaVuSans-31" transform="translate(529.612076 0.765625)"/>
     <use xlink:href="#DejaVuSans-30" transform="translate(593.235123 0.765625)"/>
     <use xlink:href="#DejaVuSans-2212" transform="translate(657.815201 39.046875) scale(0.7)"/>
     <use xlink:href="#DejaVuSans-38" transform="translate(716.467545 39.046875) scale(0.7)"/>
     <use xlink:href="#IBMPlexSans-20" transform="translate(763.738052 0.765625)"/>
     <use xlink:href="#IBMPlexSans-b1" transform="translate(787.338043 0.765625)"/>
     <use xlink:href="#IBMPlexSans-20" transform="translate(847.338028 0.765625)"/>
     <use xlink:href="#DejaVuSans-35" transform="translate(870.938019 0.765625)"/>
     <use xlink:href="#DejaVuSans-2e" transform="translate(934.561066 0.765625)"/>
     <use xlink:href="#DejaVuSans-32" transform="translate(960.848175 0.765625)"/>
     <use xlink:href="#DejaVuSans-36" transform="translate(1024.471222 0.765625)"/>
     <use xlink:href="#DejaVuSans-d7" transform="translate(1107.576691 0.765625)"/>
     <use xlink:href="#DejaVuSans-31" transform="translate(1210.848175 0.765625)"/>
     <use xlink:href="#DejaVuSans-30" transform="translate(1274.471222 0.765625)"/>
     <use xlink:href="#DejaVuSans-2212" transform="translate(1339.0513 39.046875) scale(0.7)"/>
     <use xlink:href="#DejaVuSans-31" transform="translate(1397.703644 39.046875) scale(0.7)"/>
     <use xlink:href="#DejaVuSans-31" transform="translate(1442.239777 39.046875) scale(0.7)"/>
     <use xlink:href="#IBMPlexSans-20" transform="translate(1489.510284 0.765625)"/>
     <use xlink:href="#IBMPlexSans-6d" transform="translate(1513.110275 0.765625)"/>
     <use xlink:href="#IBMPlexSans-b2" transform="translate(1600.410263 0.765625)"/>
     <use xlink:href="#IBMPlexSans-2f" transform="translate(1635.010254 0.765625)"/>
     <use xlink:href="#IBMPlexSans-73" transform="translate(1673.310242 0.765625)"/>
    </g>
   </g>
   <g id="text_16">
    <!--  -->
    <g transform="translate(505.958895 18.192) scale(0.12 -0.12)"/>
    <!-- $\tau_\text{int}$ = 0.179 ± 0.001 ps -->
    <g transform="translate(381.878895 31.248) scale(0.12 -0.12)">
     <defs>
      <path id="DejaVuSans-Oblique-3c4" d="M 2103 638 
Q 2188 488 2525 488 
L 2800 488 
L 2706 0 
L 2363 0 
Q 1800 0 1600 300 
Q 1403 606 1534 1269 
L 1856 2925 
L 541 2925 
L 653 3500 
L 3881 3500 
L 3769 2925 
L 2444 2925 
L 2113 1234 
Q 2025 781 2103 638 
z
" transform="scale(0.015625)"/>
      <path id="DejaVuSans-69" d="M 603 3500 
L 1178 3500 
L 1178 0 
L 603 0 
L 603 3500 
z
M 603 4863 
L 1178 4863 
L 1178 4134 
L 603 4134 
L 603 4863 
z
" transform="scale(0.015625)"/>
      <path id="DejaVuSans-6e" d="M 3513 2113 
L 3513 0 
L 2938 0 
L 2938 2094 
Q 2938 2591 2744 2837 
Q 2550 3084 2163 3084 
Q 1697 3084 1428 2787 
Q 1159 2491 1159 1978 
L 1159 0 
L 581 0 
L 581 3500 
L 1159 3500 
L 1159 2956 
Q 1366 3272 1645 3428 
Q 1925 3584 2291 3584 
Q 2894 3584 3203 3211 
Q 3513 2838 3513 2113 
z
" transform="scale(0.015625)"/>
      <path id="DejaVuSans-74" d="M 1172 4494 
L 1172 3500 
L 2356 3500 
L 2356 3053 
L 1172 3053 
L 1172 1153 
Q 1172 725 1289 603 
Q 1406 481 1766 481 
L 2356 481 
L 2356 0 
L 1766 0 
Q 1100 0 847 248 
Q 594 497 594 1153 
L 594 3053 
L 172 3053 
L 172 3500 
L 594 3500 
L 594 4494 
L 1172 4494 
z
" transform="scale(0.015625)"/>
      <path id="IBMPlexSans-39" d="M 3411 2829 
C 3411 3891 2842 4544 1914 4544 
C 1018 4544 429 3942 429 3066 
C 429 2221 979 1690 1747 1690 
C 2291 1690 2611 1965 2822 2330 
L 2854 2317 
C 2611 1280 2080 698 1126 0 
L 1818 0 
C 2534 467 3411 1504 3411 2829 
z
M 1920 2144 
C 1331 2144 986 2483 986 3085 
L 986 3136 
C 986 3738 1331 4077 1920 4077 
C 2509 4077 2854 3738 2854 3136 
L 2854 3085 
C 2854 2483 2509 2144 1920 2144 
z
" transform="scale(0.015625)"/>
     </defs>
     <use xlink:href="#DejaVuSans-Oblique-3c4"/>
     <use xlink:href="#DejaVuSans-69" transform="translate(60.205078 -16.40625) scale(0.7)"/>
     <use xlink:href="#DejaVuSans-6e" transform="translate(79.65332 -16.40625) scale(0.7)"/>
     <use xlink:href="#DejaVuSans-74" transform="translate(124.018555 -16.40625) scale(0.7)"/>
     <use xlink:href="#IBMPlexSans-20" transform="translate(154.199219 0)"/>
     <use xlink:href="#IBMPlexSans-3d" transform="translate(177.79921 0)"/>
     <use xlink:href="#IBMPlexSans-20" transform="translate(237.799194 0)"/>
     <use xlink:href="#IBMPlexSans-30" transform="translate(261.399185 0)"/>
     <use xlink:href="#IBMPlexSans-2e" transform="translate(321.39917 0)"/>
     <use xlink:href="#IBMPlexSans-31" transform="translate(348.599167 0)"/>
     <use xlink:href="#IBMPlexSans-37" transform="translate(408.599152 0)"/>
     <use xlink:href="#IBMPlexSans-39" transform="translate(468.599136 0)"/>
     <use xlink:href="#IBMPlexSans-20" transform="translate(528.599121 0)"/>
     <use xlink:href="#IBMPlexSans-b1" transform="translate(552.199112 0)"/>
     <use xlink:href="#IBMPlexSans-20" transform="translate(612.199097 0)"/>
     <use xlink:href="#IBMPlexSans-30" transform="translate(635.799088 0)"/>
     <use xlink:href="#IBMPlexSans-2e" transform="translate(695.799072 0)"/>
     <use xlink:href="#IBMPlexSans-30" transform="translate(722.999069 0)"/>
     <use xlink:href="#IBMPlexSans-30" transform="translate(782.999054 0)"/>
     <use xlink:href="#IBMPlexSans-31" transform="translate(842.999039 0)"/>
     <use xlink:href="#IBMPlexSans-20" transform="translate(902.999023 0)"/>
     <use xlink:href="#IBMPlexSans-70" transform="translate(926.599014 0)"/>
     <use xlink:href="#IBMPlexSans-73" transform="translate(984.598999 0)"/>
    </g>
   </g>
   <g id="legend_1">
    <g id="patch_5">
     <path d="M 368.902645 84.568312 
L 498.958895 84.568312 
Q 500.958895 84.568312 500.958895 82.568312 
L 500.958895 54.648 
Q 500.958895 52.648 498.958895 52.648 
L 368.902645 52.648 
Q 366.902645 52.648 366.902645 54.648 
L 366.902645 82.568312 
Q 366.902645 84.568312 368.902645 84.568312 
z
" style="fill: #ffffff; opacity: 0.8; stroke: #cccccc; stroke-linejoin: miter"/>
    </g>
    <g id="line2d_17">
     <path d="M 370.902645 60.548 
L 380.902645 60.548 
L 390.902645 60.548 
" style="fill: none; stroke-dasharray: 5.55,2.4; stroke-dashoffset: 0; stroke: #2ca02c; stroke-width: 1.5"/>
    </g>
    <g id="text_17">
     <!-- 95% CI fitted model -->
     <g transform="translate(398.902645 64.048) scale(0.1 -0.1)">
      <defs>
       <path id="IBMPlexSans-25" d="M 1664 0 
L 4762 4467 
L 4269 4467 
L 1171 0 
L 1664 0 
z
M 1427 2010 
C 2074 2010 2438 2458 2438 3277 
C 2438 4096 2074 4544 1427 4544 
C 781 4544 416 4096 416 3277 
C 416 2458 781 2010 1427 2010 
z
M 1427 2342 
C 1056 2342 877 2598 877 3085 
L 877 3469 
C 877 3955 1056 4211 1427 4211 
C 1798 4211 1978 3955 1978 3469 
L 1978 3085 
C 1978 2598 1798 2342 1427 2342 
z
M 4506 -77 
C 5152 -77 5517 371 5517 1190 
C 5517 2010 5152 2458 4506 2458 
C 3859 2458 3494 2010 3494 1190 
C 3494 371 3859 -77 4506 -77 
z
M 4506 256 
C 4134 256 3955 512 3955 998 
L 3955 1382 
C 3955 1869 4134 2125 4506 2125 
C 4877 2125 5056 1869 5056 1382 
L 5056 998 
C 5056 512 4877 256 4506 256 
z
" transform="scale(0.015625)"/>
       <path id="IBMPlexSans-43" d="M 2170 -77 
C 2912 -77 3456 314 3738 941 
L 3309 1210 
C 3130 723 2739 403 2170 403 
C 1402 403 947 960 947 1875 
L 947 2541 
C 947 3456 1402 4064 2170 4064 
C 2720 4064 3091 3763 3270 3302 
L 3706 3565 
C 3424 4186 2912 4544 2170 4544 
C 1043 4544 371 3699 371 2208 
C 371 717 1043 -77 2170 -77 
z
" transform="scale(0.015625)"/>
       <path id="IBMPlexSans-49" d="M 2176 0 
L 2176 448 
L 1549 448 
L 1549 4019 
L 2176 4019 
L 2176 4467 
L 384 4467 
L 384 4019 
L 1011 4019 
L 1011 448 
L 384 448 
L 384 0 
L 2176 0 
z
" transform="scale(0.015625)"/>
       <path id="IBMPlexSans-66" d="M 723 0 
L 1235 0 
L 1235 2854 
L 1946 2854 
L 1946 3302 
L 1235 3302 
L 1235 4288 
L 1946 4288 
L 1946 4736 
L 1446 4736 
C 960 4736 723 4422 723 3968 
L 723 3302 
L 186 3302 
L 186 2854 
L 723 2854 
L 723 0 
z
" transform="scale(0.015625)"/>
      </defs>
      <use xlink:href="#IBMPlexSans-39"/>
      <use xlink:href="#IBMPlexSans-35" transform="translate(59.999985 0)"/>
      <use xlink:href="#IBMPlexSans-25" transform="translate(119.999969 0)"/>
      <use xlink:href="#IBMPlexSans-20" transform="translate(212.699951 0)"/>
      <use xlink:href="#IBMPlexSans-43" transform="translate(236.299942 0)"/>
      <use xlink:href="#IBMPlexSans-49" transform="translate(298.399933 0)"/>
      <use xlink:href="#IBMPlexSans-20" transform="translate(338.399918 0)"/>
      <use xlink:href="#IBMPlexSans-66" transform="translate(361.999908 0)"/>
      <use xlink:href="#IBMPlexSans-69" transform="translate(394.399902 0)"/>
      <use xlink:href="#IBMPlexSans-74" transform="translate(419.399887 0)"/>
      <use xlink:href="#IBMPlexSans-74" transform="translate(454.499878 0)"/>
      <use xlink:href="#IBMPlexSans-65" transform="translate(489.599869 0)"/>
      <use xlink:href="#IBMPlexSans-64" transform="translate(544.499863 0)"/>
      <use xlink:href="#IBMPlexSans-20" transform="translate(602.499847 0)"/>
      <use xlink:href="#IBMPlexSans-6d" transform="translate(626.099838 0)"/>
      <use xlink:href="#IBMPlexSans-6f" transform="translate(713.399826 0)"/>
      <use xlink:href="#IBMPlexSans-64" transform="translate(769.399811 0)"/>
      <use xlink:href="#IBMPlexSans-65" transform="translate(827.399796 0)"/>
      <use xlink:href="#IBMPlexSans-6c" transform="translate(882.299789 0)"/>
     </g>
    </g>
    <g id="patch_6">
     <path d="M 370.902645 78.448 
L 390.902645 78.448 
L 390.902645 71.448 
L 370.902645 71.448 
z
" style="fill: #2ca02c; fill-opacity: 0.3"/>
    </g>
    <g id="text_18">
     <!-- 95% CI sampling PSD -->
     <g transform="translate(398.902645 78.448) scale(0.1 -0.1)">
      <defs>
       <path id="IBMPlexSans-61" d="M 3232 0 
L 3232 448 
L 2854 448 
L 2854 2266 
C 2854 2963 2381 3379 1587 3379 
C 992 3379 595 3085 416 2733 
L 723 2445 
C 902 2746 1165 2938 1562 2938 
C 2086 2938 2342 2682 2342 2214 
L 2342 1888 
L 1690 1888 
C 730 1888 282 1542 282 922 
C 282 307 691 -77 1389 -77 
C 1850 -77 2202 134 2342 538 
L 2374 538 
C 2413 230 2566 0 2944 0 
L 3232 0 
z
M 1472 358 
C 1075 358 819 544 819 870 
L 819 1005 
C 819 1325 1082 1504 1664 1504 
L 2342 1504 
L 2342 960 
C 2342 621 1978 358 1472 358 
z
" transform="scale(0.015625)"/>
       <path id="IBMPlexSans-67" d="M 3328 -365 
C 3328 179 2976 512 2157 512 
L 1453 512 
C 1152 512 947 563 947 762 
C 947 966 1165 1075 1382 1133 
C 1478 1114 1594 1101 1702 1101 
C 2458 1101 2950 1568 2950 2240 
C 2950 2592 2810 2886 2573 3091 
L 2573 3302 
L 3200 3302 
L 3200 3750 
L 2707 3750 
C 2432 3750 2323 3565 2323 3309 
L 2323 3251 
C 2144 3334 1933 3379 1696 3379 
C 947 3379 454 2912 454 2240 
C 454 1779 685 1414 1075 1229 
L 1075 1203 
C 742 1120 506 960 506 627 
C 506 403 614 256 800 166 
L 800 96 
C 474 6 275 -186 275 -544 
C 275 -1062 698 -1357 1728 -1357 
C 2790 -1357 3328 -1043 3328 -365 
z
M 2848 -403 
C 2848 -762 2515 -941 1946 -941 
L 1472 -941 
C 954 -941 755 -704 755 -416 
C 755 -211 851 -64 1062 32 
L 2163 32 
C 2675 32 2848 -141 2848 -403 
z
M 1702 1510 
C 1267 1510 992 1715 992 2150 
L 992 2330 
C 992 2765 1267 2970 1702 2970 
C 2138 2970 2413 2765 2413 2330 
L 2413 2150 
C 2413 1715 2138 1510 1702 1510 
z
" transform="scale(0.015625)"/>
       <path id="IBMPlexSans-50" d="M 1133 0 
L 1133 1907 
L 2374 1907 
C 3174 1907 3622 2400 3622 3187 
C 3622 3974 3174 4467 2374 4467 
L 595 4467 
L 595 0 
L 1133 0 
z
M 1133 3994 
L 2374 3994 
C 2797 3994 3046 3763 3046 3354 
L 3046 3021 
C 3046 2611 2797 2381 2374 2381 
L 1133 2381 
L 1133 3994 
z
" transform="scale(0.015625)"/>
       <path id="IBMPlexSans-53" d="M 1850 -77 
C 2810 -77 3386 448 3386 1267 
C 3386 1933 3008 2317 2138 2515 
L 1773 2598 
C 1210 2726 934 2918 934 3341 
C 934 3821 1286 4070 1856 4070 
C 2374 4070 2714 3859 2957 3520 
L 3360 3814 
C 3027 4288 2554 4544 1882 4544 
C 1005 4544 403 4115 403 3322 
C 403 2637 851 2278 1664 2093 
L 2029 2010 
C 2618 1875 2854 1664 2854 1242 
C 2854 730 2509 397 1869 397 
C 1350 397 979 621 666 1037 
L 269 704 
C 627 218 1133 -77 1850 -77 
z
" transform="scale(0.015625)"/>
       <path id="IBMPlexSans-44" d="M 595 0 
L 2093 0 
C 3206 0 3923 742 3923 2234 
C 3923 3725 3206 4467 2093 4467 
L 595 4467 
L 595 0 
z
M 1133 474 
L 1133 3994 
L 2093 3994 
C 2829 3994 3347 3482 3347 2598 
L 3347 1869 
C 3347 986 2829 474 2093 474 
L 1133 474 
z
" transform="scale(0.015625)"/>
      </defs>
      <use xlink:href="#IBMPlexSans-39"/>
      <use xlink:href="#IBMPlexSans-35" transform="translate(59.999985 0)"/>
      <use xlink:href="#IBMPlexSans-25" transform="translate(119.999969 0)"/>
      <use xlink:href="#IBMPlexSans-20" transform="translate(212.699951 0)"/>
      <use xlink:href="#IBMPlexSans-43" transform="translate(236.299942 0)"/>
      <use xlink:href="#IBMPlexSans-49" transform="translate(298.399933 0)"/>
      <use xlink:href="#IBMPlexSans-20" transform="translate(338.399918 0)"/>
      <use xlink:href="#IBMPlexSans-73" transform="translate(361.999908 0)"/>
      <use xlink:href="#IBMPlexSans-61" transform="translate(410.699905 0)"/>
      <use xlink:href="#IBMPlexSans-6d" transform="translate(464.099899 0)"/>
      <use xlink:href="#IBMPlexSans-70" transform="translate(551.399887 0)"/>
      <use xlink:href="#IBMPlexSans-6c" transform="translate(609.399872 0)"/>
      <use xlink:href="#IBMPlexSans-69" transform="translate(636.599869 0)"/>
      <use xlink:href="#IBMPlexSans-6e" transform="translate(661.599854 0)"/>
      <use xlink:href="#IBMPlexSans-67" transform="translate(718.399841 0)"/>
      <use xlink:href="#IBMPlexSans-20" transform="translate(771.199829 0)"/>
      <use xlink:href="#IBMPlexSans-50" transform="translate(794.79982 0)"/>
      <use xlink:href="#IBMPlexSans-53" transform="translate(855.399811 0)"/>
      <use xlink:href="#IBMPlexSans-44" transform="translate(913.499802 0)"/>
     </g>
    </g>
   </g>
  </g>
  <g id="axes_2">
   <g id="matplotlib.axis_3">
    <g id="ytick_7">
     <g id="line2d_18">
      <defs>
       <path id="m7578029d22" d="M 0 0 
L 3.5 0 
" style="stroke: #ff0000; stroke-width: 0.8"/>
      </defs>
      <g>
       <use xlink:href="#m7578029d22" x="505.958895" y="270.578337" style="fill: #ff0000; stroke: #ff0000; stroke-width: 0.8"/>
      </g>
     </g>
     <g id="text_19">
      <!-- 0.0 -->
      <g style="fill: #ff0000" transform="translate(512.958895 274.278337) scale(0.1 -0.1)">
       <use xlink:href="#IBMPlexSans-30"/>
       <use xlink:href="#IBMPlexSans-2e" transform="translate(59.999985 0)"/>
       <use xlink:href="#IBMPlexSans-30" transform="translate(87.199982 0)"/>
      </g>
     </g>
    </g>
    <g id="ytick_8">
     <g id="line2d_19">
      <g>
       <use xlink:href="#m7578029d22" x="505.958895" y="226.866506" style="fill: #ff0000; stroke: #ff0000; stroke-width: 0.8"/>
      </g>
     </g>
     <g id="text_20">
      <!-- 0.2 -->
      <g style="fill: #ff0000" transform="translate(512.958895 230.566506) scale(0.1 -0.1)">
       <use xlink:href="#IBMPlexSans-30"/>
       <use xlink:href="#IBMPlexSans-2e" transform="translate(59.999985 0)"/>
       <use xlink:href="#IBMPlexSans-32" transform="translate(87.199982 0)"/>
      </g>
     </g>
    </g>
    <g id="ytick_9">
     <g id="line2d_20">
      <g>
       <use xlink:href="#m7578029d22" x="505.958895" y="183.154675" style="fill: #ff0000; stroke: #ff0000; stroke-width: 0.8"/>
      </g>
     </g>
     <g id="text_21">
      <!-- 0.4 -->
      <g style="fill: #ff0000" transform="translate(512.958895 186.854675) scale(0.1 -0.1)">
       <use xlink:href="#IBMPlexSans-30"/>
       <use xlink:href="#IBMPlexSans-2e" transform="translate(59.999985 0)"/>
       <use xlink:href="#IBMPlexSans-34" transform="translate(87.199982 0)"/>
      </g>
     </g>
    </g>
    <g id="ytick_10">
     <g id="line2d_21">
      <g>
       <use xlink:href="#m7578029d22" x="505.958895" y="139.442845" style="fill: #ff0000; stroke: #ff0000; stroke-width: 0.8"/>
      </g>
     </g>
     <g id="text_22">
      <!-- 0.6 -->
      <g style="fill: #ff0000" transform="translate(512.958895 143.142845) scale(0.1 -0.1)">
       <use xlink:href="#IBMPlexSans-30"/>
       <use xlink:href="#IBMPlexSans-2e" transform="translate(59.999985 0)"/>
       <use xlink:href="#IBMPlexSans-36" transform="translate(87.199982 0)"/>
      </g>
     </g>
    </g>
    <g id="ytick_11">
     <g id="line2d_22">
      <g>
       <use xlink:href="#m7578029d22" x="505.958895" y="95.731014" style="fill: #ff0000; stroke: #ff0000; stroke-width: 0.8"/>
      </g>
     </g>
     <g id="text_23">
      <!-- 0.8 -->
      <g style="fill: #ff0000" transform="translate(512.958895 99.431014) scale(0.1 -0.1)">
       <use xlink:href="#IBMPlexSans-30"/>
       <use xlink:href="#IBMPlexSans-2e" transform="translate(59.999985 0)"/>
       <use xlink:href="#IBMPlexSans-38" transform="translate(87.199982 0)"/>
      </g>
     </g>
    </g>
    <g id="ytick_12">
     <g id="line2d_23">
      <g>
       <use xlink:href="#m7578029d22" x="505.958895" y="52.019183" style="fill: #ff0000; stroke: #ff0000; stroke-width: 0.8"/>
      </g>
     </g>
     <g id="text_24">
      <!-- 1.0 -->
      <g style="fill: #ff0000" transform="translate(512.958895 55.719183) scale(0.1 -0.1)">
       <use xlink:href="#IBMPlexSans-31"/>
       <use xlink:href="#IBMPlexSans-2e" transform="translate(59.999985 0)"/>
       <use xlink:href="#IBMPlexSans-30" transform="translate(87.199982 0)"/>
      </g>
     </g>
    </g>
    <g id="text_25">
     <!-- Fitting weight -->
     <g style="fill: #d62728" transform="translate(539.079207 191.832354) rotate(-90) scale(0.1 -0.1)">
      <defs>
       <path id="IBMPlexSans-77" d="M 1082 0 
L 1702 0 
L 2163 1587 
L 2445 2592 
L 2458 2592 
L 2746 1587 
L 3206 0 
L 3840 0 
L 4717 3302 
L 4237 3302 
L 3878 1875 
L 3539 429 
L 3526 429 
L 3117 1875 
L 2688 3302 
L 2234 3302 
L 1818 1875 
L 1414 429 
L 1402 429 
L 1050 1875 
L 698 3302 
L 198 3302 
L 1082 0 
z
" transform="scale(0.015625)"/>
       <path id="IBMPlexSans-68" d="M 544 0 
L 1056 0 
L 1056 2291 
C 1056 2714 1453 2918 1862 2918 
C 2355 2918 2611 2618 2611 2029 
L 2611 0 
L 3123 0 
L 3123 2118 
C 3123 2918 2694 3379 2016 3379 
C 1523 3379 1242 3136 1082 2765 
L 1056 2765 
L 1056 4736 
L 544 4736 
L 544 0 
z
" transform="scale(0.015625)"/>
      </defs>
      <use xlink:href="#IBMPlexSans-46"/>
      <use xlink:href="#IBMPlexSans-69" transform="translate(55.899994 0)"/>
      <use xlink:href="#IBMPlexSans-74" transform="translate(80.899979 0)"/>
      <use xlink:href="#IBMPlexSans-74" transform="translate(115.999969 0)"/>
      <use xlink:href="#IBMPlexSans-69" transform="translate(151.09996 0)"/>
      <use xlink:href="#IBMPlexSans-6e" transform="translate(176.099945 0)"/>
      <use xlink:href="#IBMPlexSans-67" transform="translate(232.899933 0)"/>
      <use xlink:href="#IBMPlexSans-20" transform="translate(285.699921 0)"/>
      <use xlink:href="#IBMPlexSans-77" transform="translate(309.299911 0)"/>
      <use xlink:href="#IBMPlexSans-65" transform="translate(386.099899 0)"/>
      <use xlink:href="#IBMPlexSans-69" transform="translate(440.999893 0)"/>
      <use xlink:href="#IBMPlexSans-67" transform="translate(465.999878 0)"/>
      <use xlink:href="#IBMPlexSans-68" transform="translate(518.799866 0)"/>
      <use xlink:href="#IBMPlexSans-74" transform="translate(575.599854 0)"/>
     </g>
    </g>
   </g>
   <g id="line2d_24">
    <path d="M 57.827254 52.019183 
L 62.649503 52.019195 
L 67.471753 52.019498 
L 72.294002 52.022328 
L 77.116252 52.0379 
L 81.938501 52.099204 
L 86.760751 52.28902 
L 91.583 52.769991 
L 96.40525 53.772673 
L 101.227499 55.486363 
L 106.049748 57.933698 
L 110.871998 60.998827 
L 115.694247 64.552236 
L 120.516497 68.517958 
L 125.338746 72.87226 
L 130.160996 77.620185 
L 134.983245 82.773684 
L 139.805495 88.336916 
L 144.627744 94.298584 
L 149.449993 100.629847 
L 154.272243 107.28599 
L 159.094492 114.210164 
L 163.916742 121.337852 
L 168.738991 128.601174 
L 173.561241 135.932563 
L 178.38349 143.267607 
L 183.20574 150.547068 
L 188.027989 157.718169 
L 192.850238 164.73528 
L 197.672488 171.560142 
L 202.494737 178.161728 
L 207.316987 184.515858 
L 212.139236 190.604618 
L 216.961486 196.415678 
L 221.783735 201.941541 
L 226.605985 207.17879 
L 231.428234 212.127369 
L 236.250483 216.789922 
L 241.072733 221.171223 
L 245.894982 225.277685 
L 250.717232 229.116973 
L 255.539481 232.697694 
L 260.361731 236.029157 
L 265.18398 239.121198 
L 270.00623 241.984045 
L 274.828479 244.628219 
L 279.650728 247.064447 
L 284.472978 249.303599 
L 289.295227 251.356618 
L 294.117477 253.234457 
L 298.939726 254.948019 
L 303.761976 256.508088 
L 308.584225 257.925265 
L 313.406475 259.209905 
L 318.228724 260.372059 
L 323.050973 261.421415 
L 327.873223 262.367254 
L 332.695472 263.218409 
L 337.517722 263.983233 
L 342.339971 264.66958 
L 347.162221 265.284789 
L 351.98447 265.835684 
L 356.80672 266.328571 
L 361.628969 266.769256 
L 366.451219 267.163055 
L 371.273468 267.514819 
L 376.095717 267.828954 
L 380.917967 268.109451 
L 385.740216 268.35991 
L 390.562466 268.583574 
L 395.384715 268.783352 
L 400.206965 268.96185 
L 405.029214 269.121399 
L 409.851464 269.264079 
L 414.673713 269.391743 
L 419.495962 269.506041 
L 424.318212 269.608441 
L 429.140461 269.700246 
L 433.962711 269.782616 
L 438.78496 269.856577 
L 443.60721 269.923044 
L 448.429459 269.982825 
L 453.251709 270.036641 
L 458.073958 270.085128 
L 462.896207 270.128854 
L 467.718457 270.168322 
L 472.540706 270.203978 
L 477.362956 270.236221 
L 482.185205 270.265403 
L 487.007455 270.29184 
L 491.829704 270.315812 
L 496.651954 270.337567 
L 501.474203 270.35733 
" clip-path="url(#p70a06cf321)" style="fill: none; stroke-dasharray: 1.5,2.475; stroke-dashoffset: 0; stroke: #d62728; stroke-width: 1.5"/>
   </g>
   <g id="patch_7">
    <path d="M 48.520313 274.94952 
L 48.520313 47.648 
" style="fill: none; stroke: #000000; stroke-width: 0.8; stroke-linejoin: miter; stroke-linecap: square"/>
   </g>
   <g id="patch_8">
    <path d="M 505.958895 274.94952 
L 505.958895 47.648 
" style="fill: none; stroke: #ff0000; stroke-width: 0.8; stroke-linejoin: miter; stroke-linecap: square"/>
   </g>
   <g id="patch_9">
    <path d="M 48.520313 274.94952 
L 505.958895 274.94952 
" style="fill: none; stroke: #000000; stroke-width: 0.8; stroke-linejoin: miter; stroke-linecap: square"/>
   </g>
  </g>
 </g>
 <defs>
  <clipPath id="p70a06cf321">
   <rect x="48.520313" y="47.648" width="457.438582" height="227.30152"/>
  </clipPath>
 </defs>
</svg>