<?xml version="1.0" encoding="utf-8" standalone="no"?>
<!DOCTYPE svg PUBLIC "-//W3C//DTD SVG 1.1//EN"
  "http://www.w3.org/Graphics/SVG/1.1/DTD/svg11.dtd">
<svg xmlns:xlink="http://www.w3.org/1999/xlink" width="548.39952pt" height="312.14952pt" viewBox="0 0 548.39952 312.14952" xmlns="http://www.w3.org/2000/svg" version="1.1">
 <metadata>
  <rdf:RDF xmlns:dc="http://purl.org/dc/elements/1.1/" xmlns:cc="http://creativecommons.org/ns#" xmlns:rdf="http://www.w3.org/1999/02/22-rdf-syntax-ns#">
   <cc:Work>
    <dc:type rdf:resource="http://purl.org/dc/dcmitype/StillImage"/>
    <dc:date>2025-06-25T08:45:29.524797</dc:date>
    <dc:format>image/svg+xml</dc:format>
    <dc:creator>
     <cc:Agent>
      <dc:title>Matplotlib v3.10.1, https://matplotlib.org/</dc:title>
     </cc:Agent>
    </dc:creator>
   </cc:Work>
  </rdf:RDF>
 </metadata>
 <defs>
  <style type="text/css">*{stroke-linejoin: round; stroke-linecap: butt}</style>
 </defs>
 <g id="figure_1">
  <g id="patch_1">
   <path d="M 0 312.14952 
L 548.39952 312.14952 
L 548.39952 0 
L 0 0 
z
" style="fill: #ffffff"/>
  </g>
  <g id="axes_1">
   <g id="patch_2">
    <path d="M 45.8 274.94952 
L 541.19952 274.94952 
L 541.19952 22.32 
L 45.8 22.32 
z
" style="fill: #ffffff"/>
   </g>
   <g id="matplotlib.axis_1">
    <g id="xtick_1">
     <g id="line2d_1">
      <defs>
       <path id="mb9567e41cd" d="M 0 0 
L 0 3.5 
" style="stroke: #000000; stroke-width: 0.8"/>
      </defs>
      <g>
       <use xlink:href="#mb9567e41cd" x="68.31816" y="274.94952" style="stroke: #000000; stroke-width: 0.8"/>
      </g>
     </g>
     <g id="text_1">
      <!-- 0 -->
      <g transform="translate(65.31816 289.34952) scale(0.1 -0.1)">
       <defs>
        <path id="IBMPlexSans-30" d="M 1920 -77 
C 2989 -77 3456 774 3456 2234 
C 3456 3693 2989 4544 1920 4544 
C 851 4544 384 3693 384 2234 
C 384 774 851 -77 1920 -77 
z
M 1920 390 
C 1222 390 947 1005 947 1869 
L 947 2598 
C 947 3462 1222 4077 1920 4077 
C 2618 4077 2893 3462 2893 2598 
L 2893 1869 
C 2893 1005 2618 390 1920 390 
z
" transform="scale(0.015625)"/>
       </defs>
       <use xlink:href="#IBMPlexSans-30"/>
      </g>
     </g>
    </g>
    <g id="xtick_2">
     <g id="line2d_2">
      <g>
       <use xlink:href="#mb9567e41cd" x="158.3908" y="274.94952" style="stroke: #000000; stroke-width: 0.8"/>
      </g>
     </g>
     <g id="text_2">
      <!-- 20 -->
      <g transform="translate(152.3908 289.34952) scale(0.1 -0.1)">
       <defs>
        <path id="IBMPlexSans-32" d="M 3411 474 
L 1062 474 
L 2266 1555 
C 2835 2067 3245 2554 3245 3245 
C 3245 4006 2746 4544 1875 4544 
C 1011 4544 614 4019 442 3494 
L 922 3309 
C 1043 3731 1299 4064 1850 4064 
C 2400 4064 2675 3725 2675 3232 
L 2675 3155 
C 2675 2726 2355 2278 1939 1894 
L 480 550 
L 480 0 
L 3411 0 
L 3411 474 
z
" transform="scale(0.015625)"/>
       </defs>
       <use xlink:href="#IBMPlexSans-32"/>
       <use xlink:href="#IBMPlexSans-30" transform="translate(59.999985 0)"/>
      </g>
     </g>
    </g>
    <g id="xtick_3">
     <g id="line2d_3">
      <g>
       <use xlink:href="#mb9567e41cd" x="248.46344" y="274.94952" style="stroke: #000000; stroke-width: 0.8"/>
      </g>
     </g>
     <g id="text_3">
      <!-- 40 -->
      <g transform="translate(242.46344 289.34952) scale(0.1 -0.1)">
       <defs>
        <path id="IBMPlexSans-34" d="M 2912 0 
L 2912 877 
L 3558 877 
L 3558 1325 
L 2912 1325 
L 2912 4467 
L 2112 4467 
L 243 1350 
L 243 877 
L 2400 877 
L 2400 0 
L 2912 0 
z
M 2368 4051 
L 2400 4051 
L 2400 1325 
L 749 1325 
L 2368 4051 
z
" transform="scale(0.015625)"/>
       </defs>
       <use xlink:href="#IBMPlexSans-34"/>
       <use xlink:href="#IBMPlexSans-30" transform="translate(59.999985 0)"/>
      </g>
     </g>
    </g>
    <g id="xtick_4">
     <g id="line2d_4">
      <g>
       <use xlink:href="#mb9567e41cd" x="338.53608" y="274.94952" style="stroke: #000000; stroke-width: 0.8"/>
      </g>
     </g>
     <g id="text_4">
      <!-- 60 -->
      <g transform="translate(332.53608 289.34952) scale(0.1 -0.1)">
       <defs>
        <path id="IBMPlexSans-36" d="M 1926 -77 
C 2822 -77 3411 525 3411 1402 
C 3411 2246 2861 2778 2093 2778 
C 1549 2778 1229 2502 1018 2138 
L 986 2150 
C 1229 3187 1760 3770 2714 4467 
L 2022 4467 
C 1306 4000 429 2963 429 1638 
C 429 576 998 -77 1926 -77 
z
M 1920 390 
C 1331 390 986 730 986 1331 
L 986 1382 
C 986 1984 1331 2323 1920 2323 
C 2509 2323 2854 1984 2854 1382 
L 2854 1331 
C 2854 730 2509 390 1920 390 
z
" transform="scale(0.015625)"/>
       </defs>
       <use xlink:href="#IBMPlexSans-36"/>
       <use xlink:href="#IBMPlexSans-30" transform="translate(59.999985 0)"/>
      </g>
     </g>
    </g>
    <g id="xtick_5">
     <g id="line2d_5">
      <g>
       <use xlink:href="#mb9567e41cd" x="428.60872" y="274.94952" style="stroke: #000000; stroke-width: 0.8"/>
      </g>
     </g>
     <g id="text_5">
      <!-- 80 -->
      <g transform="translate(422.60872 289.34952) scale(0.1 -0.1)">
       <defs>
        <path id="IBMPlexSans-38" d="M 1920 -77 
C 2938 -77 3469 480 3469 1216 
C 3469 1824 3104 2176 2566 2323 
L 2566 2374 
C 3034 2534 3334 2912 3334 3424 
C 3334 4102 2810 4544 1920 4544 
C 1030 4544 506 4102 506 3424 
C 506 2912 806 2534 1274 2374 
L 1274 2323 
C 736 2176 371 1824 371 1216 
C 371 480 902 -77 1920 -77 
z
M 1920 390 
C 1299 390 941 685 941 1190 
L 941 1325 
C 941 1830 1299 2125 1920 2125 
C 2541 2125 2899 1830 2899 1325 
L 2899 1190 
C 2899 685 2541 390 1920 390 
z
M 1920 2573 
C 1363 2573 1062 2822 1062 3277 
L 1062 3373 
C 1062 3827 1363 4077 1920 4077 
C 2477 4077 2778 3827 2778 3373 
L 2778 3277 
C 2778 2822 2477 2573 1920 2573 
z
" transform="scale(0.015625)"/>
       </defs>
       <use xlink:href="#IBMPlexSans-38"/>
       <use xlink:href="#IBMPlexSans-30" transform="translate(59.999985 0)"/>
      </g>
     </g>
    </g>
    <g id="xtick_6">
     <g id="line2d_6">
      <g>
       <use xlink:href="#mb9567e41cd" x="518.68136" y="274.94952" style="stroke: #000000; stroke-width: 0.8"/>
      </g>
     </g>
     <g id="text_6">
      <!-- 100 -->
      <g transform="translate(509.68136 289.34952) scale(0.1 -0.1)">
       <defs>
        <path id="IBMPlexSans-31" d="M 3501 0 
L 3501 474 
L 2349 474 
L 2349 4467 
L 1510 4467 
L 326 3360 
L 640 3021 
L 1766 4070 
L 1811 4070 
L 1811 474 
L 563 474 
L 563 0 
L 3501 0 
z
" transform="scale(0.015625)"/>
       </defs>
       <use xlink:href="#IBMPlexSans-31"/>
       <use xlink:href="#IBMPlexSans-30" transform="translate(59.999985 0)"/>
       <use xlink:href="#IBMPlexSans-30" transform="translate(119.999969 0)"/>
      </g>
     </g>
    </g>
    <g id="text_7">
     <!-- Time [ps] -->
     <g transform="translate(272.594291 302.94952) scale(0.1 -0.1)">
      <defs>
       <path id="IBMPlexSans-54" d="M 3520 3994 
L 3520 4467 
L 141 4467 
L 141 3994 
L 1562 3994 
L 1562 0 
L 2099 0 
L 2099 3994 
L 3520 3994 
z
" transform="scale(0.015625)"/>
       <path id="IBMPlexSans-69" d="M 800 4077 
C 1018 4077 1114 4192 1114 4365 
L 1114 4448 
C 1114 4621 1018 4736 800 4736 
C 582 4736 486 4621 486 4448 
L 486 4365 
C 486 4192 582 4077 800 4077 
z
M 544 0 
L 1056 0 
L 1056 3302 
L 544 3302 
L 544 0 
z
" transform="scale(0.015625)"/>
       <path id="IBMPlexSans-6d" d="M 1056 0 
L 1056 2291 
C 1056 2714 1440 2918 1843 2918 
C 2330 2918 2554 2618 2554 2029 
L 2554 0 
L 3066 0 
L 3066 2291 
C 3066 2714 3437 2918 3840 2918 
C 4339 2918 4563 2611 4563 2029 
L 4563 0 
L 5075 0 
L 5075 2118 
C 5075 2918 4672 3379 4000 3379 
C 3437 3379 3117 3066 2995 2707 
L 2982 2707 
C 2803 3181 2406 3379 1971 3379 
C 1459 3379 1229 3104 1082 2765 
L 1056 2765 
L 1056 3302 
L 544 3302 
L 544 0 
L 1056 0 
z
" transform="scale(0.015625)"/>
       <path id="IBMPlexSans-65" d="M 1786 -77 
C 2406 -77 2880 230 3091 678 
L 2726 941 
C 2554 576 2234 371 1818 371 
C 1203 371 838 800 838 1370 
L 838 1523 
L 3213 1523 
L 3213 1766 
C 3213 2701 2669 3379 1786 3379 
C 890 3379 301 2701 301 1651 
C 301 602 890 -77 1786 -77 
z
M 1786 2950 
C 2310 2950 2662 2560 2662 1978 
L 2662 1907 
L 838 1907 
L 838 1952 
C 838 2528 1229 2950 1786 2950 
z
" transform="scale(0.015625)"/>
       <path id="IBMPlexSans-20" transform="scale(0.015625)"/>
       <path id="IBMPlexSans-5b" d="M 1645 -883 
L 1645 -480 
L 1037 -480 
L 1037 4461 
L 1645 4461 
L 1645 4864 
L 595 4864 
L 595 -883 
L 1645 -883 
z
" transform="scale(0.015625)"/>
       <path id="IBMPlexSans-70" d="M 544 -1280 
L 1056 -1280 
L 1056 538 
L 1082 538 
C 1280 128 1594 -77 2048 -77 
C 2874 -77 3392 595 3392 1651 
C 3392 2707 2874 3379 2048 3379 
C 1594 3379 1254 3181 1082 2765 
L 1056 2765 
L 1056 3302 
L 544 3302 
L 544 -1280 
z
M 1907 384 
C 1440 384 1056 627 1056 1056 
L 1056 2285 
C 1056 2650 1440 2918 1907 2918 
C 2483 2918 2842 2522 2842 1933 
L 2842 1370 
C 2842 781 2483 384 1907 384 
z
" transform="scale(0.015625)"/>
       <path id="IBMPlexSans-73" d="M 1536 -77 
C 2291 -77 2758 314 2758 954 
C 2758 1453 2477 1773 1747 1882 
L 1491 1920 
C 1082 1984 858 2112 858 2432 
C 858 2746 1082 2944 1504 2944 
C 1926 2944 2208 2746 2355 2541 
L 2694 2848 
C 2426 3181 2074 3379 1542 3379 
C 870 3379 365 3059 365 2406 
C 365 1792 819 1542 1427 1453 
L 1690 1414 
C 2125 1350 2266 1152 2266 896 
C 2266 557 2010 358 1574 358 
C 1158 358 851 544 595 864 
L 230 570 
C 525 179 928 -77 1536 -77 
z
" transform="scale(0.015625)"/>
       <path id="IBMPlexSans-5d" d="M 384 4864 
L 384 4461 
L 992 4461 
L 992 -480 
L 384 -480 
L 384 -883 
L 1434 -883 
L 1434 4864 
L 384 4864 
z
" transform="scale(0.015625)"/>
      </defs>
      <use xlink:href="#IBMPlexSans-54"/>
      <use xlink:href="#IBMPlexSans-69" transform="translate(57.199997 0)"/>
      <use xlink:href="#IBMPlexSans-6d" transform="translate(82.199982 0)"/>
      <use xlink:href="#IBMPlexSans-65" transform="translate(169.499969 0)"/>
      <use xlink:href="#IBMPlexSans-20" transform="translate(224.399963 0)"/>
      <use xlink:href="#IBMPlexSans-5b" transform="translate(247.999954 0)"/>
      <use xlink:href="#IBMPlexSans-70" transform="translate(279.699951 0)"/>
      <use xlink:href="#IBMPlexSans-73" transform="translate(337.699936 0)"/>
      <use xlink:href="#IBMPlexSans-5d" transform="translate(386.399933 0)"/>
     </g>
    </g>
   </g>
   <g id="matplotlib.axis_2">
    <g id="ytick_1">
     <g id="line2d_7">
      <defs>
       <path id="mb0ef5ae424" d="M 0 0 
L -3.5 0 
" style="stroke: #000000; stroke-width: 0.8"/>
      </defs>
      <g>
       <use xlink:href="#mb0ef5ae424" x="45.8" y="264.620468" style="stroke: #000000; stroke-width: 0.8"/>
      </g>
     </g>
     <g id="text_8">
      <!-- 290 -->
      <g transform="translate(20.8 268.320468) scale(0.1 -0.1)">
       <defs>
        <path id="IBMPlexSans-39" d="M 3411 2829 
C 3411 3891 2842 4544 1914 4544 
C 1018 4544 429 3942 429 3066 
C 429 2221 979 1690 1747 1690 
C 2291 1690 2611 1965 2822 2330 
L 2854 2317 
C 2611 1280 2080 698 1126 0 
L 1818 0 
C 2534 467 3411 1504 3411 2829 
z
M 1920 2144 
C 1331 2144 986 2483 986 3085 
L 986 3136 
C 986 3738 1331 4077 1920 4077 
C 2509 4077 2854 3738 2854 3136 
L 2854 3085 
C 2854 2483 2509 2144 1920 2144 
z
" transform="scale(0.015625)"/>
       </defs>
       <use xlink:href="#IBMPlexSans-32"/>
       <use xlink:href="#IBMPlexSans-39" transform="translate(59.999985 0)"/>
       <use xlink:href="#IBMPlexSans-30" transform="translate(119.999969 0)"/>
      </g>
     </g>
    </g>
    <g id="ytick_2">
     <g id="line2d_8">
      <g>
       <use xlink:href="#mb0ef5ae424" x="45.8" y="236.410723" style="stroke: #000000; stroke-width: 0.8"/>
      </g>
     </g>
     <g id="text_9">
      <!-- 292 -->
      <g transform="translate(20.8 240.110723) scale(0.1 -0.1)">
       <use xlink:href="#IBMPlexSans-32"/>
       <use xlink:href="#IBMPlexSans-39" transform="translate(59.999985 0)"/>
       <use xlink:href="#IBMPlexSans-32" transform="translate(119.999969 0)"/>
      </g>
     </g>
    </g>
    <g id="ytick_3">
     <g id="line2d_9">
      <g>
       <use xlink:href="#mb0ef5ae424" x="45.8" y="208.200979" style="stroke: #000000; stroke-width: 0.8"/>
      </g>
     </g>
     <g id="text_10">
      <!-- 294 -->
      <g transform="translate(20.8 211.900979) scale(0.1 -0.1)">
       <use xlink:href="#IBMPlexSans-32"/>
       <use xlink:href="#IBMPlexSans-39" transform="translate(59.999985 0)"/>
       <use xlink:href="#IBMPlexSans-34" transform="translate(119.999969 0)"/>
      </g>
     </g>
    </g>
    <g id="ytick_4">
     <g id="line2d_10">
      <g>
       <use xlink:href="#mb0ef5ae424" x="45.8" y="179.991235" style="stroke: #000000; stroke-width: 0.8"/>
      </g>
     </g>
     <g id="text_11">
      <!-- 296 -->
      <g transform="translate(20.8 183.691235) scale(0.1 -0.1)">
       <use xlink:href="#IBMPlexSans-32"/>
       <use xlink:href="#IBMPlexSans-39" transform="translate(59.999985 0)"/>
       <use xlink:href="#IBMPlexSans-36" transform="translate(119.999969 0)"/>
      </g>
     </g>
    </g>
    <g id="ytick_5">
     <g id="line2d_11">
      <g>
       <use xlink:href="#mb0ef5ae424" x="45.8" y="151.78149" style="stroke: #000000; stroke-width: 0.8"/>
      </g>
     </g>
     <g id="text_12">
      <!-- 298 -->
      <g transform="translate(20.8 155.48149) scale(0.1 -0.1)">
       <use xlink:href="#IBMPlexSans-32"/>
       <use xlink:href="#IBMPlexSans-39" transform="translate(59.999985 0)"/>
       <use xlink:href="#IBMPlexSans-38" transform="translate(119.999969 0)"/>
      </g>
     </g>
    </g>
    <g id="ytick_6">
     <g id="line2d_12">
      <g>
       <use xlink:href="#mb0ef5ae424" x="45.8" y="123.571746" style="stroke: #000000; stroke-width: 0.8"/>
      </g>
     </g>
     <g id="text_13">
      <!-- 300 -->
      <g transform="translate(20.8 127.271746) scale(0.1 -0.1)">
       <defs>
        <path id="IBMPlexSans-33" d="M 1184 2573 
L 1184 2106 
L 1709 2106 
C 2336 2106 2669 1805 2669 1280 
L 2669 1229 
C 2669 704 2336 403 1709 403 
C 1165 403 902 640 672 992 
L 269 685 
C 544 301 941 -77 1715 -77 
C 2624 -77 3232 454 3232 1222 
C 3232 1894 2771 2253 2291 2349 
L 2291 2374 
C 2765 2496 3149 2842 3149 3418 
C 3149 4141 2547 4544 1792 4544 
C 1075 4544 685 4173 461 3814 
L 858 3507 
C 1043 3846 1318 4064 1779 4064 
C 2253 4064 2579 3827 2579 3360 
L 2579 3315 
C 2579 2886 2272 2573 1670 2573 
L 1184 2573 
z
" transform="scale(0.015625)"/>
       </defs>
       <use xlink:href="#IBMPlexSans-33"/>
       <use xlink:href="#IBMPlexSans-30" transform="translate(59.999985 0)"/>
       <use xlink:href="#IBMPlexSans-30" transform="translate(119.999969 0)"/>
      </g>
     </g>
    </g>
    <g id="ytick_7">
     <g id="line2d_13">
      <g>
       <use xlink:href="#mb0ef5ae424" x="45.8" y="95.362002" style="stroke: #000000; stroke-width: 0.8"/>
      </g>
     </g>
     <g id="text_14">
      <!-- 302 -->
      <g transform="translate(20.8 99.062002) scale(0.1 -0.1)">
       <use xlink:href="#IBMPlexSans-33"/>
       <use xlink:href="#IBMPlexSans-30" transform="translate(59.999985 0)"/>
       <use xlink:href="#IBMPlexSans-32" transform="translate(119.999969 0)"/>
      </g>
     </g>
    </g>
    <g id="ytick_8">
     <g id="line2d_14">
      <g>
       <use xlink:href="#mb0ef5ae424" x="45.8" y="67.152257" style="stroke: #000000; stroke-width: 0.8"/>
      </g>
     </g>
     <g id="text_15">
      <!-- 304 -->
      <g transform="translate(20.8 70.852257) scale(0.1 -0.1)">
       <use xlink:href="#IBMPlexSans-33"/>
       <use xlink:href="#IBMPlexSans-30" transform="translate(59.999985 0)"/>
       <use xlink:href="#IBMPlexSans-34" transform="translate(119.999969 0)"/>
      </g>
     </g>
    </g>
    <g id="ytick_9">
     <g id="line2d_15">
      <g>
       <use xlink:href="#mb0ef5ae424" x="45.8" y="38.942513" style="stroke: #000000; stroke-width: 0.8"/>
      </g>
     </g>
     <g id="text_16">
      <!-- 306 -->
      <g transform="translate(20.8 42.642513) scale(0.1 -0.1)">
       <use xlink:href="#IBMPlexSans-33"/>
       <use xlink:href="#IBMPlexSans-30" transform="translate(59.999985 0)"/>
       <use xlink:href="#IBMPlexSans-36" transform="translate(119.999969 0)"/>
      </g>
     </g>
    </g>
    <g id="text_17">
     <!-- Temperature [K] -->
     <g transform="translate(14.8 185.451166) rotate(-90) scale(0.1 -0.1)">
      <defs>
       <path id="IBMPlexSans-72" d="M 1056 0 
L 1056 2240 
C 1056 2554 1389 2790 1939 2790 
L 2240 2790 
L 2240 3302 
L 2042 3302 
C 1504 3302 1203 3008 1088 2694 
L 1056 2694 
L 1056 3302 
L 544 3302 
L 544 0 
L 1056 0 
z
" transform="scale(0.015625)"/>
       <path id="IBMPlexSans-61" d="M 3232 0 
L 3232 448 
L 2854 448 
L 2854 2266 
C 2854 2963 2381 3379 1587 3379 
C 992 3379 595 3085 416 2733 
L 723 2445 
C 902 2746 1165 2938 1562 2938 
C 2086 2938 2342 2682 2342 2214 
L 2342 1888 
L 1690 1888 
C 730 1888 282 1542 282 922 
C 282 307 691 -77 1389 -77 
C 1850 -77 2202 134 2342 538 
L 2374 538 
C 2413 230 2566 0 2944 0 
L 3232 0 
z
M 1472 358 
C 1075 358 819 544 819 870 
L 819 1005 
C 819 1325 1082 1504 1664 1504 
L 2342 1504 
L 2342 960 
C 2342 621 1978 358 1472 358 
z
" transform="scale(0.015625)"/>
       <path id="IBMPlexSans-74" d="M 1914 0 
L 1914 448 
L 1242 448 
L 1242 2854 
L 1965 2854 
L 1965 3302 
L 1242 3302 
L 1242 4218 
L 781 4218 
L 781 3603 
C 781 3379 710 3302 493 3302 
L 186 3302 
L 186 2854 
L 730 2854 
L 730 544 
C 730 224 922 0 1274 0 
L 1914 0 
z
" transform="scale(0.015625)"/>
       <path id="IBMPlexSans-75" d="M 2579 0 
L 3091 0 
L 3091 3302 
L 2579 3302 
L 2579 1018 
C 2579 582 2182 384 1779 384 
C 1286 384 1024 685 1024 1274 
L 1024 3302 
L 512 3302 
L 512 1184 
C 512 384 947 -77 1626 -77 
C 2176 -77 2426 224 2554 538 
L 2579 538 
L 2579 0 
z
" transform="scale(0.015625)"/>
       <path id="IBMPlexSans-4b" d="M 3251 0 
L 3917 0 
L 2138 2554 
L 3802 4467 
L 3142 4467 
L 1792 2867 
L 1152 2093 
L 1133 2093 
L 1133 4467 
L 595 4467 
L 595 0 
L 1133 0 
L 1133 1491 
L 1766 2195 
L 3251 0 
z
" transform="scale(0.015625)"/>
      </defs>
      <use xlink:href="#IBMPlexSans-54"/>
      <use xlink:href="#IBMPlexSans-65" transform="translate(57.199997 0)"/>
      <use xlink:href="#IBMPlexSans-6d" transform="translate(112.099991 0)"/>
      <use xlink:href="#IBMPlexSans-70" transform="translate(199.399979 0)"/>
      <use xlink:href="#IBMPlexSans-65" transform="translate(257.399963 0)"/>
      <use xlink:href="#IBMPlexSans-72" transform="translate(312.299957 0)"/>
      <use xlink:href="#IBMPlexSans-61" transform="translate(348.999954 0)"/>
      <use xlink:href="#IBMPlexSans-74" transform="translate(402.399948 0)"/>
      <use xlink:href="#IBMPlexSans-75" transform="translate(437.499939 0)"/>
      <use xlink:href="#IBMPlexSans-72" transform="translate(494.299927 0)"/>
      <use xlink:href="#IBMPlexSans-65" transform="translate(530.999924 0)"/>
      <use xlink:href="#IBMPlexSans-20" transform="translate(585.899918 0)"/>
      <use xlink:href="#IBMPlexSans-5b" transform="translate(609.499908 0)"/>
      <use xlink:href="#IBMPlexSans-4b" transform="translate(641.199905 0)"/>
      <use xlink:href="#IBMPlexSans-5d" transform="translate(704.599899 0)"/>
     </g>
    </g>
   </g>
   <g id="line2d_16">
    <path d="M 68.31816 51.616861 
L 70.569976 66.194751 
L 72.821792 43.470703 
L 75.073608 38.218416 
L 77.325424 107.738545 
L 79.57724 73.202463 
L 81.829056 97.485933 
L 84.080872 65.113749 
L 86.332688 72.519818 
L 88.584504 91.869014 
L 90.83632 49.948536 
L 93.088136 98.070027 
L 95.339952 55.270017 
L 97.591768 119.7816 
L 99.843584 79.152461 
L 102.0954 86.496396 
L 104.347216 43.077404 
L 106.599032 73.555838 
L 108.850848 68.336416 
L 111.102664 75.737062 
L 113.35448 132.227251 
L 115.606296 34.662497 
L 117.858112 97.363363 
L 120.109928 54.063261 
L 122.361744 91.685601 
L 124.61356 60.728854 
L 126.865376 69.798686 
L 129.117192 75.484863 
L 131.369008 77.027088 
L 133.620824 64.322782 
L 135.87264 59.479978 
L 138.124456 70.914748 
L 140.376272 60.35697 
L 142.628088 26.56414 
L 144.879904 77.366409 
L 147.13172 100.811261 
L 149.383536 86.071588 
L 151.635352 59.362552 
L 153.887168 48.739326 
L 156.138984 63.670634 
L 158.3908 113.67479 
L 160.335153 -1 
M 161.047613 -1 
L 162.894432 81.691149 
L 165.146248 95.760294 
L 167.398064 76.88446 
L 169.64988 94.183009 
L 171.901696 109.737905 
L 174.153512 136.250334 
L 176.405328 101.786653 
L 178.657144 37.559639 
L 180.90896 71.029332 
L 183.160776 64.769973 
L 185.412592 93.045231 
L 187.664408 85.925408 
L 189.916224 98.852708 
L 192.16804 33.105141 
L 194.419856 78.440481 
L 196.671672 6.471413 
L 198.923488 68.761073 
L 201.175304 41.116978 
L 203.42712 50.500476 
L 205.678936 64.799932 
L 207.930752 89.540471 
L 210.182568 50.97881 
L 212.434384 118.37178 
L 214.6862 87.280928 
L 216.938016 72.721009 
L 219.189832 57.230572 
L 221.441648 71.574385 
L 223.693464 62.693348 
L 225.94528 11.218786 
L 228.197096 142.291091 
L 230.448912 0.585702 
L 232.700728 131.201131 
L 234.952544 53.391032 
L 237.20436 86.992098 
L 239.456176 76.562938 
L 241.707992 91.563268 
L 243.959808 71.710062 
L 246.211624 98.669639 
L 248.46344 84.798628 
L 250.715256 105.378234 
L 252.967072 80.829997 
L 255.218888 90.40513 
L 257.470704 79.4106 
L 259.72252 58.348442 
L 261.974336 65.955874 
L 264.226152 56.836542 
L 266.477968 111.205706 
L 268.729784 23.20881 
L 270.9816 125.56594 
L 273.233416 109.374801 
L 275.485232 106.409735 
L 277.737048 61.202841 
L 279.988864 90.902941 
L 282.24068 122.167802 
L 284.492496 69.17428 
L 286.744312 86.232618 
L 288.996128 21.955694 
L 293.49976 110.239784 
L 295.751576 70.860554 
L 298.003392 70.921226 
L 300.255208 97.252006 
L 302.507024 23.227943 
L 304.75884 56.714661 
L 307.010656 24.09794 
L 309.262472 84.224391 
L 311.514288 87.490792 
L 313.766104 41.354822 
L 316.01792 74.542895 
L 318.269736 71.15922 
L 320.521552 47.841048 
L 322.773368 102.942251 
L 325.025184 60.906758 
L 327.277 61.773613 
L 329.528816 40.012883 
L 331.780632 74.261577 
L 334.032448 106.165414 
L 336.284264 87.543715 
L 338.53608 73.377892 
L 340.787896 81.437723 
L 343.039712 35.755186 
L 345.291528 54.514196 
L 347.543344 84.68314 
L 349.79516 76.394375 
L 352.046976 68.7739 
L 354.298792 101.797823 
L 356.550608 79.737955 
L 358.802424 25.593118 
L 361.05424 108.410924 
L 363.306056 91.451804 
L 365.557872 113.534637 
L 367.809688 57.214603 
L 370.061504 53.139006 
L 372.31332 79.212573 
L 374.565136 96.954675 
L 376.816952 79.177513 
L 379.068768 52.857192 
L 381.320584 59.952501 
L 383.5724 63.087551 
L 385.824216 79.227359 
L 388.076032 91.946839 
L 390.327848 71.165031 
L 392.579664 87.634927 
L 394.83148 43.54913 
L 397.083296 72.002572 
L 399.335112 93.326033 
L 401.586928 72.278101 
L 403.838744 102.598561 
L 406.09056 50.642115 
L 408.342376 50.256671 
L 410.594192 45.537987 
L 412.846008 18.06917 
L 415.097824 77.588154 
L 417.34964 86.625487 
L 419.601456 68.471318 
L 421.853272 66.645364 
L 424.105088 83.637499 
L 426.356904 51.526639 
L 428.60872 64.14703 
L 430.860536 53.47611 
L 433.112352 13.177038 
L 435.364168 64.612773 
L 437.615984 68.64143 
L 439.8678 73.169792 
L 442.119616 90.214141 
L 444.371432 16.148496 
L 446.623248 104.536303 
L 448.875064 36.243226 
L 451.12688 125.283481 
L 453.378696 111.922636 
L 455.630512 47.16684 
L 457.882328 55.96196 
L 460.134144 100.611125 
L 462.38596 53.328747 
L 464.637776 97.403674 
L 466.889592 96.536626 
L 469.141408 65.73032 
L 471.393224 111.024359 
L 473.64504 97.468091 
L 475.896856 139.083963 
L 478.148672 50.29582 
L 480.400488 60.860958 
L 482.652304 67.001687 
L 484.90412 78.528185 
L 487.155936 115.388355 
L 489.407752 100.174416 
L 491.659568 29.580817 
L 493.911384 96.053837 
L 496.1632 83.130713 
L 498.415016 101.025172 
L 500.666832 57.127588 
L 502.918648 59.214974 
L 505.170464 86.218908 
L 507.42228 79.953006 
L 509.674096 89.694506 
L 511.925912 93.265383 
L 514.177728 52.319823 
L 516.429544 101.791539 
L 518.68136 112.561483 
L 518.68136 112.561483 
" clip-path="url(#p1193352770)" style="fill: none; stroke: #1f77b4; stroke-width: 1.5; stroke-linecap: square"/>
   </g>
   <g id="line2d_17">
    <path d="M 68.31816 79.427818 
L 70.569976 126.19945 
L 72.821792 84.157306 
L 75.073608 62.123264 
L 77.325424 126.894019 
L 79.57724 112.096386 
L 81.829056 129.206291 
L 84.080872 103.458271 
L 86.332688 114.193521 
L 88.584504 121.464796 
L 90.83632 114.455405 
L 93.088136 122.970584 
L 95.339952 65.189249 
L 97.591768 134.577145 
L 99.843584 119.787604 
L 102.0954 133.929925 
L 104.347216 97.041174 
L 106.599032 78.912746 
L 108.850848 99.81721 
L 111.102664 88.813102 
L 113.35448 163.191337 
L 115.606296 90.851783 
L 117.858112 106.968132 
L 120.109928 86.517358 
L 122.361744 101.085563 
L 124.61356 64.539705 
L 126.865376 119.867065 
L 129.117192 106.95143 
L 131.369008 136.334916 
L 133.620824 95.019538 
L 135.87264 89.654281 
L 138.124456 118.753758 
L 140.376272 111.191243 
L 142.628088 57.234769 
L 144.879904 99.116098 
L 147.13172 136.338188 
L 149.383536 109.214977 
L 151.635352 99.170679 
L 153.887168 129.154293 
L 156.138984 107.432153 
L 158.3908 121.22719 
L 160.642616 61.687653 
L 162.894432 98.086901 
L 165.146248 121.33704 
L 167.398064 102.492521 
L 169.64988 116.679694 
L 171.901696 132.246707 
L 174.153512 156.465007 
L 176.405328 143.039896 
L 178.657144 92.39898 
L 180.90896 116.044958 
L 183.160776 130.175915 
L 185.412592 119.51143 
L 187.664408 113.204355 
L 189.916224 117.457081 
L 192.16804 92.439184 
L 194.419856 104.54928 
L 196.671672 88.35967 
L 198.923488 91.129249 
L 201.175304 82.569992 
L 203.42712 71.986775 
L 205.678936 90.794792 
L 207.930752 119.330212 
L 210.182568 101.175527 
L 212.434384 152.615696 
L 214.6862 118.462862 
L 216.938016 115.561653 
L 219.189832 120.746639 
L 221.441648 94.922946 
L 223.693464 67.765127 
L 225.94528 51.713776 
L 228.197096 159.933803 
L 230.448912 102.183718 
L 232.700728 159.449982 
L 234.952544 95.668049 
L 237.20436 103.964906 
L 239.456176 115.573619 
L 243.959808 86.753588 
L 246.211624 122.588434 
L 248.46344 128.619248 
L 250.715256 121.906951 
L 252.967072 109.892499 
L 255.218888 121.221508 
L 257.470704 116.964994 
L 259.72252 102.821554 
L 261.974336 125.296545 
L 264.226152 110.904135 
L 266.477968 119.913811 
L 268.729784 72.178926 
L 270.9816 149.879692 
L 273.233416 126.915283 
L 275.485232 121.446718 
L 277.737048 96.412033 
L 279.988864 131.906655 
L 282.24068 133.101058 
L 284.492496 93.206498 
L 286.744312 139.604502 
L 288.996128 90.366153 
L 291.247944 90.89543 
L 293.49976 111.695468 
L 295.751576 101.175785 
L 298.003392 98.666368 
L 300.255208 113.844515 
L 302.507024 83.776017 
L 304.75884 79.058064 
L 307.010656 80.855437 
L 309.262472 121.883621 
L 311.514288 102.961019 
L 313.766104 69.957908 
L 316.01792 85.665591 
L 318.269736 105.537414 
L 320.521552 74.414665 
L 322.773368 108.694308 
L 325.025184 117.360919 
L 327.277 130.078634 
L 329.528816 91.943912 
L 331.780632 120.662358 
L 334.032448 142.577338 
L 336.284264 102.943973 
L 338.53608 112.42628 
L 340.787896 141.68244 
L 343.039712 68.566619 
L 345.291528 102.018857 
L 347.543344 124.263301 
L 349.79516 95.773767 
L 352.046976 123.460174 
L 354.298792 114.493198 
L 356.550608 85.498147 
L 358.802424 91.683664 
L 361.05424 145.073153 
L 363.306056 101.575928 
L 365.557872 125.736634 
L 367.809688 69.765154 
L 370.061504 83.432865 
L 372.31332 115.321291 
L 374.565136 105.070379 
L 376.816952 102.235458 
L 379.068768 97.545915 
L 381.320584 88.871471 
L 383.5724 137.231795 
L 385.824216 124.054793 
L 388.076032 95.663831 
L 390.327848 131.893741 
L 392.579664 94.851664 
L 394.83148 99.169129 
L 397.083296 102.874671 
L 399.335112 99.04034 
L 401.586928 120.069461 
L 403.838744 127.151684 
L 406.09056 78.870992 
L 408.342376 88.126282 
L 410.594192 48.582191 
L 412.846008 51.240801 
L 415.097824 111.066672 
L 417.34964 100.581166 
L 419.601456 89.223662 
L 421.853272 140.692241 
L 424.105088 114.911506 
L 426.356904 123.983167 
L 428.60872 98.284045 
L 430.860536 78.457505 
L 433.112352 91.422383 
L 435.364168 83.550118 
L 437.615984 108.422525 
L 439.8678 137.189353 
L 442.119616 109.853071 
L 444.371432 101.800191 
L 446.623248 114.288133 
L 448.875064 94.91451 
L 451.12688 133.152109 
L 453.378696 152.481396 
L 455.630512 87.52753 
L 457.882328 99.337606 
L 460.134144 113.892725 
L 462.38596 93.363955 
L 464.637776 118.488689 
L 466.889592 107.192308 
L 469.141408 73.291544 
L 471.393224 127.905654 
L 473.64504 114.376117 
L 475.896856 141.566047 
L 478.148672 85.463023 
L 480.400488 79.890892 
L 482.652304 92.390199 
L 484.90412 95.736662 
L 487.155936 133.902033 
L 489.407752 112.331065 
L 491.659568 72.326569 
L 493.911384 173.005862 
L 496.1632 120.893852 
L 498.415016 166.639472 
L 500.666832 107.46194 
L 502.918648 136.30556 
L 505.170464 128.404972 
L 507.42228 92.116263 
L 509.674096 102.74769 
L 511.925912 134.171148 
L 514.177728 79.646915 
L 516.429544 130.132182 
L 518.68136 131.046536 
L 518.68136 131.046536 
" clip-path="url(#p1193352770)" style="fill: none; stroke: #ff7f0e; stroke-width: 1.5; stroke-linecap: square"/>
   </g>
   <g id="line2d_18">
    <path d="M 68.31816 94.74345 
L 70.569976 195.433289 
L 72.821792 126.194242 
L 75.073608 119.890998 
L 77.325424 153.257276 
L 79.57724 146.973833 
L 81.829056 172.055522 
L 84.080872 144.4116 
L 86.332688 135.531057 
L 88.584504 157.366319 
L 90.83632 148.450695 
L 93.088136 165.408567 
L 95.339952 97.245205 
L 97.591768 151.658383 
L 99.843584 160.002158 
L 102.0954 169.690864 
L 104.347216 141.971399 
L 106.599032 136.523667 
L 108.850848 140.732358 
L 111.102664 114.011744 
L 113.35448 201.425105 
L 115.606296 110.58173 
L 117.858112 183.038581 
L 120.109928 140.108426 
L 122.361744 140.720736 
L 124.61356 135.365551 
L 126.865376 136.227735 
L 129.117192 175.146129 
L 131.369008 158.423711 
L 133.620824 128.671677 
L 135.87264 149.086465 
L 138.124456 136.122061 
L 140.376272 142.920318 
L 142.628088 109.488827 
L 144.879904 124.620529 
L 147.13172 154.283246 
L 149.383536 148.66226 
L 151.635352 117.383001 
L 153.887168 147.163445 
L 156.138984 128.461404 
L 158.3908 168.413299 
L 160.642616 91.441279 
L 162.894432 127.436295 
L 165.146248 193.609918 
L 167.398064 139.94335 
L 169.64988 122.218853 
L 171.901696 175.090816 
L 174.153512 202.242092 
L 176.405328 188.182632 
L 178.657144 133.323943 
L 180.90896 142.969174 
L 183.160776 165.232945 
L 185.412592 149.831568 
L 187.664408 150.727112 
L 189.916224 142.259798 
L 192.16804 135.310454 
L 194.419856 140.46376 
L 196.671672 107.319376 
L 198.923488 140.805534 
L 201.175304 115.669393 
L 203.42712 125.310104 
L 205.678936 153.37156 
L 207.930752 140.262311 
L 210.182568 166.869718 
L 212.434384 159.489281 
L 214.6862 167.31028 
L 216.938016 145.795486 
L 219.189832 158.438992 
L 221.441648 117.748665 
L 223.693464 86.954305 
L 225.94528 115.766889 
L 228.197096 184.614446 
L 230.448912 151.363957 
L 232.700728 163.603705 
L 234.952544 130.341594 
L 237.20436 151.890824 
L 239.456176 140.596768 
L 241.707992 144.003752 
L 243.959808 164.3275 
L 246.211624 180.419314 
L 248.46344 147.985813 
L 250.715256 169.90329 
L 252.967072 134.789829 
L 255.218888 144.71571 
L 257.470704 169.287105 
L 259.72252 139.343307 
L 261.974336 162.246076 
L 264.226152 171.482598 
L 266.477968 141.649855 
L 268.729784 123.860576 
L 270.9816 174.561152 
L 273.233416 156.396308 
L 275.485232 152.251538 
L 277.737048 134.688458 
L 279.988864 159.996778 
L 282.24068 154.608233 
L 284.492496 132.356084 
L 286.744312 158.564467 
L 288.996128 102.364936 
L 291.247944 145.086971 
L 293.49976 127.618159 
L 295.751576 166.616615 
L 298.003392 165.26695 
L 300.255208 143.788959 
L 302.507024 120.182195 
L 304.75884 143.343877 
L 307.010656 127.138641 
L 309.262472 140.712558 
L 311.514288 137.351416 
L 313.766104 123.153782 
L 316.01792 160.101592 
L 318.269736 163.55571 
L 320.521552 129.093729 
L 322.773368 151.074912 
L 325.025184 140.980941 
L 327.277 150.246303 
L 329.528816 155.200312 
L 331.780632 156.245867 
L 334.032448 180.552322 
L 336.284264 130.487946 
L 340.787896 166.07705 
L 343.039712 101.363503 
L 345.291528 143.301478 
L 347.543344 176.54508 
L 349.79516 146.584279 
L 352.046976 161.01586 
L 354.298792 176.624067 
L 356.550608 157.041547 
L 358.802424 119.153858 
L 361.05424 167.90322 
L 363.306056 176.001426 
L 365.557872 158.63506 
L 367.809688 128.128023 
L 370.061504 156.633914 
L 372.31332 146.698347 
L 374.565136 126.550006 
L 376.816952 129.096097 
L 379.068768 134.772826 
L 381.320584 117.987133 
L 383.5724 161.477944 
L 385.824216 147.07714 
L 388.076032 115.283713 
L 390.327848 149.137257 
L 392.579664 172.981843 
L 394.83148 142.592102 
L 397.083296 135.362322 
L 399.335112 158.054818 
L 401.586928 156.473358 
L 403.838744 143.182245 
L 406.09056 149.637221 
L 408.342376 154.315099 
L 410.594192 120.796657 
L 412.846008 124.81466 
L 415.097824 182.293693 
L 417.34964 126.882956 
L 419.601456 132.377391 
L 421.853272 166.032069 
L 424.105088 141.603797 
L 426.356904 152.153827 
L 428.60872 137.109935 
L 430.860536 111.775789 
L 433.112352 115.532296 
L 435.364168 142.145084 
L 437.615984 158.054388 
L 439.8678 208.013304 
L 442.119616 184.134067 
L 444.371432 122.63079 
L 446.623248 163.78729 
L 448.875064 123.02142 
L 451.12688 151.239128 
L 453.378696 203.195101 
L 455.630512 166.366956 
L 457.882328 146.203549 
L 460.134144 146.580835 
L 462.38596 119.411696 
L 464.637776 150.60508 
L 466.889592 144.415904 
L 469.141408 119.617234 
L 471.393224 156.180224 
L 473.64504 154.871451 
L 475.896856 168.299661 
L 478.148672 151.652572 
L 480.400488 124.855338 
L 482.652304 162.303756 
L 484.90412 170.039096 
L 487.155936 178.361995 
L 489.407752 161.630107 
L 491.659568 128.12996 
L 493.911384 216.458881 
L 496.1632 181.212412 
L 498.415016 189.118638 
L 500.666832 133.24926 
L 502.918648 169.918786 
L 505.170464 157.74296 
L 507.42228 152.856746 
L 509.674096 140.168043 
L 511.925912 165.997418 
L 514.177728 140.716216 
L 516.429544 146.09809 
L 518.68136 173.964983 
L 518.68136 173.964983 
" clip-path="url(#p1193352770)" style="fill: none; stroke: #2ca02c; stroke-width: 1.5; stroke-linecap: square"/>
   </g>
   <g id="line2d_19">
    <path d="M 68.31816 147.849189 
L 70.569976 235.889022 
L 72.821792 148.010951 
L 75.073608 183.356724 
L 77.325424 184.571358 
L 79.57724 177.350273 
L 81.829056 204.160205 
L 84.080872 169.260461 
L 86.332688 204.792789 
L 88.584504 210.756368 
L 90.83632 177.738708 
L 93.088136 216.115513 
L 95.339952 151.031136 
L 97.591768 169.85947 
L 99.843584 180.484354 
L 102.0954 196.587015 
L 104.347216 184.62878 
L 106.599032 175.85559 
L 108.850848 186.694579 
L 111.102664 168.250978 
L 113.35448 226.697009 
L 115.606296 186.919272 
L 117.858112 193.578624 
L 120.109928 196.929736 
L 122.361744 187.070961 
L 124.61356 180.230735 
L 126.865376 162.716726 
L 129.117192 193.737975 
L 131.369008 185.246815 
L 133.620824 148.050724 
L 135.87264 197.95308 
L 138.124456 166.28487 
L 140.376272 204.135584 
L 142.628088 169.702185 
L 144.879904 152.256962 
L 147.13172 186.510348 
L 149.383536 197.099419 
L 151.635352 170.189106 
L 153.887168 172.42519 
L 156.138984 175.986532 
L 158.3908 217.713934 
L 160.642616 139.397113 
L 162.894432 168.132949 
L 165.146248 216.97038 
L 167.398064 183.948244 
L 169.64988 181.593098 
L 171.901696 203.620511 
L 174.153512 238.633463 
L 176.405328 200.495728 
L 178.657144 152.059559 
L 180.90896 158.879726 
L 183.160776 211.160299 
L 185.412592 171.840213 
L 187.664408 169.445122 
L 189.916224 155.46749 
L 192.16804 160.293915 
L 194.419856 154.143953 
L 196.671672 159.025217 
L 198.923488 211.561992 
L 201.175304 173.149287 
L 203.42712 177.041557 
L 205.678936 189.622132 
L 207.930752 161.159974 
L 210.182568 187.420225 
L 212.434384 201.786293 
L 214.6862 208.898389 
L 216.938016 163.660351 
L 219.189832 182.816169 
L 221.441648 176.549212 
L 223.693464 154.960596 
L 225.94528 173.150062 
L 228.197096 216.371629 
L 230.448912 187.409895 
L 232.700728 168.754084 
L 234.952544 188.594311 
L 237.20436 225.168837 
L 239.456176 162.62375 
L 241.707992 189.483356 
L 243.959808 205.453697 
L 246.211624 189.248246 
L 248.46344 166.368721 
L 250.715256 219.054775 
L 252.967072 163.132452 
L 255.218888 197.828509 
L 257.470704 189.203824 
L 259.72252 178.26325 
L 261.974336 222.187478 
L 264.226152 201.378057 
L 266.477968 172.635248 
L 268.729784 161.529899 
L 270.9816 206.972915 
L 273.233416 269.382928 
L 275.485232 178.042345 
L 277.737048 186.930377 
L 279.988864 218.024458 
L 282.24068 176.543875 
L 284.492496 163.619889 
L 286.744312 209.740772 
L 288.996128 147.943113 
L 291.247944 192.126728 
L 293.49976 137.681009 
L 295.751576 242.149523 
L 298.003392 216.841763 
L 300.255208 172.181988 
L 302.507024 164.693595 
L 304.75884 165.973657 
L 307.010656 181.837162 
L 309.262472 202.112399 
L 311.514288 181.022499 
L 313.766104 169.776911 
L 316.01792 191.935696 
L 318.269736 202.467345 
L 320.521552 157.993953 
L 322.773368 161.716541 
L 325.025184 188.010884 
L 327.277 184.361731 
L 329.528816 213.477307 
L 331.780632 216.840988 
L 334.032448 198.975391 
L 336.284264 170.385734 
L 338.53608 163.553342 
L 340.787896 196.838568 
L 343.039712 148.419789 
L 345.291528 156.722586 
L 347.543344 232.92514 
L 349.79516 189.241789 
L 352.046976 176.27717 
L 354.298792 215.702457 
L 356.550608 170.065138 
L 358.802424 180.003718 
L 361.05424 215.103878 
L 363.306056 224.159526 
L 365.557872 190.96788 
L 367.809688 178.027107 
L 370.061504 160.912725 
L 372.31332 183.211491 
L 374.565136 190.162342 
L 376.816952 150.918187 
L 379.068768 175.651214 
L 381.320584 179.755522 
L 383.5724 189.034658 
L 385.824216 193.984966 
L 388.076032 197.323939 
L 390.327848 187.53636 
L 392.579664 214.68161 
L 394.83148 168.858165 
L 397.083296 176.967262 
L 399.335112 210.722879 
L 401.586928 196.254022 
L 403.838744 170.095183 
L 406.09056 212.372781 
L 408.342376 219.174008 
L 410.594192 155.710951 
L 412.846008 177.878689 
L 415.097824 207.208197 
L 417.34964 192.649462 
L 419.601456 182.848969 
L 421.853272 219.878391 
L 424.105088 211.856073 
L 426.356904 192.060181 
L 428.60872 189.626178 
L 430.860536 169.894422 
L 433.112352 180.952508 
L 435.364168 181.123567 
L 437.615984 191.443351 
L 439.8678 240.74334 
L 442.119616 218.20602 
L 444.371432 148.730227 
L 446.623248 190.698678 
L 448.875064 187.921782 
L 451.12688 164.103797 
L 453.378696 244.331715 
L 455.630512 232.048836 
L 457.882328 196.616199 
L 460.134144 184.723736 
L 462.38596 191.193262 
L 464.637776 168.690636 
L 466.889592 191.988727 
L 469.141408 167.758202 
L 471.393224 201.760638 
L 473.64504 179.91539 
L 475.896856 189.937907 
L 478.148672 195.956841 
L 480.400488 143.825031 
L 482.652304 191.815085 
L 484.90412 194.271815 
L 487.155936 225.678572 
L 489.407752 202.074261 
L 491.659568 147.473581 
L 493.911384 230.245782 
L 496.1632 201.217587 
L 498.415016 221.934892 
L 500.666832 169.258395 
L 502.918648 189.436351 
L 505.170464 174.108236 
L 509.674096 192.351421 
L 511.925912 203.283213 
L 514.177728 217.195762 
L 516.429544 188.930662 
L 518.68136 182.570298 
L 518.68136 182.570298 
" clip-path="url(#p1193352770)" style="fill: none; stroke: #d62728; stroke-width: 1.5; stroke-linecap: square"/>
   </g>
   <g id="line2d_20">
    <path d="M 68.31816 150.116954 
L 70.569976 287.512389 
L 72.821792 197.304957 
L 75.073608 194.370323 
L 77.325424 200.617243 
L 79.57724 235.32051 
L 81.829056 266.739405 
L 84.080872 204.723875 
L 86.332688 234.319851 
L 88.584504 221.357836 
L 90.83632 204.984812 
L 93.088136 287.036768 
L 95.339952 219.044465 
L 97.591768 178.271321 
L 99.843584 184.669113 
L 102.0954 221.869206 
L 104.347216 224.094636 
L 106.599032 195.699176 
L 108.850848 248.584914 
L 111.102664 230.95802 
L 113.35448 246.183754 
L 115.606296 222.492041 
L 117.858112 230.623779 
L 120.109928 225.922162 
L 122.361744 196.416429 
L 124.61356 217.262481 
L 126.865376 172.240528 
L 129.117192 201.101926 
L 131.369008 196.920568 
L 133.620824 168.777478 
L 135.87264 217.854281 
L 138.124456 176.02919 
L 140.376272 212.264717 
L 142.628088 186.928333 
L 144.879904 200.894128 
L 147.13172 206.931162 
L 149.383536 228.371295 
L 151.635352 180.308043 
L 153.887168 222.091166 
L 156.138984 210.974411 
L 158.3908 242.168505 
L 160.642616 168.100106 
L 162.894432 222.749986 
L 165.146248 244.657369 
L 167.398064 223.213512 
L 169.64988 203.895459 
L 171.901696 245.227366 
L 174.153512 267.075929 
L 176.405328 200.882613 
L 178.657144 179.421603 
L 180.90896 182.904691 
L 183.160776 238.585189 
L 185.412592 187.002133 
L 187.664408 179.766154 
L 189.916224 171.506983 
L 192.16804 214.662197 
L 194.419856 185.09123 
L 196.671672 232.965989 
L 198.923488 216.91778 
L 201.175304 204.170235 
L 203.42712 211.54118 
L 205.678936 199.876057 
L 207.930752 192.99567 
L 210.182568 221.494825 
L 212.434384 223.757317 
L 214.6862 220.654744 
L 216.938016 173.825734 
L 219.189832 223.57244 
L 221.441648 188.352465 
L 223.693464 191.948502 
L 225.94528 207.466788 
L 228.197096 223.789342 
L 230.448912 238.063186 
L 232.700728 197.680242 
L 234.952544 230.042159 
L 237.20436 251.064501 
L 239.456176 186.644862 
L 241.707992 242.065521 
L 243.959808 231.819581 
L 246.211624 205.056266 
L 248.46344 203.566964 
L 250.715256 226.395567 
L 252.967072 215.665137 
L 255.218888 213.113343 
L 257.470704 213.236967 
L 259.72252 206.96719 
L 261.974336 230.422782 
L 264.226152 222.175017 
L 266.477968 185.371429 
L 268.729784 216.566105 
L 270.9816 258.639564 
L 272.99033 313.14952 
M 273.364804 313.14952 
L 275.485232 206.690736 
L 277.737048 199.149463 
L 279.988864 259.375864 
L 282.24068 210.193516 
L 284.492496 239.686529 
L 286.744312 225.286155 
L 288.996128 196.984618 
L 291.247944 306.775173 
L 293.49976 151.633481 
L 295.751576 274.870347 
L 298.003392 254.241907 
L 300.255208 209.489327 
L 302.507024 220.669229 
L 304.75884 209.221374 
L 307.010656 215.303433 
L 309.262472 222.31799 
L 311.514288 191.487622 
L 313.766104 201.777598 
L 316.01792 225.410296 
L 318.269736 219.680321 
L 320.521552 178.958077 
L 322.773368 221.682156 
L 325.025184 191.436356 
L 329.528816 245.594472 
L 331.780632 218.836108 
L 334.032448 219.24529 
L 336.284264 237.3695 
L 338.53608 190.636759 
L 340.787896 208.057124 
L 343.039712 202.96606 
L 345.291528 176.958976 
L 347.543344 256.398035 
L 349.79516 239.399163 
L 352.046976 213.291978 
L 354.298792 234.044344 
L 356.550608 179.390245 
L 358.802424 210.068837 
L 361.05424 228.026335 
L 363.306056 257.546509 
L 365.557872 195.835541 
L 367.809688 257.612303 
L 370.061504 190.195271 
L 372.31332 231.920649 
L 374.565136 197.472788 
L 376.816952 179.626969 
L 379.068768 194.89663 
L 381.320584 225.399729 
L 383.5724 197.057988 
L 385.824216 200.293848 
L 388.076032 222.790469 
L 390.327848 227.585407 
L 392.579664 226.514779 
L 394.83148 224.68932 
L 397.083296 218.138591 
L 399.335112 282.310206 
L 401.586928 227.951394 
L 403.838744 245.358459 
L 406.09056 235.902904 
L 408.342376 255.208496 
L 410.594192 184.075677 
L 412.846008 190.911211 
L 415.097824 221.45785 
L 417.34964 220.088858 
L 419.601456 224.838513 
L 421.853272 241.583787 
L 424.105088 278.220146 
L 426.356904 216.078969 
L 428.60872 214.324791 
L 430.860536 264.499555 
L 433.112352 189.163491 
L 435.364168 221.364637 
L 437.615984 227.282846 
L 439.8678 270.696888 
L 442.119616 229.748724 
L 444.371432 184.39296 
L 446.623248 211.756016 
L 448.875064 224.695454 
L 451.12688 170.541125 
L 453.378696 251.519375 
L 455.630512 252.045596 
L 457.882328 232.554891 
L 460.134144 248.476699 
L 462.38596 233.755708 
L 464.637776 208.754555 
L 466.889592 239.17475 
L 469.141408 207.384637 
L 471.393224 238.192363 
L 473.64504 231.659971 
L 475.896856 227.315948 
L 478.148672 235.354687 
L 480.400488 200.042123 
L 482.652304 234.821709 
L 484.90412 243.462105 
L 487.155936 300.731747 
L 489.407752 216.371694 
L 491.659568 184.506511 
L 493.911384 255.963478 
L 496.1632 213.847125 
L 498.415016 247.172038 
L 500.666832 231.080934 
L 502.918648 213.632354 
L 505.170464 192.254829 
L 507.42228 214.9269 
L 509.674096 214.48029 
L 511.925912 238.409158 
L 514.177728 256.268729 
L 516.429544 202.507463 
L 518.68136 201.683115 
L 518.68136 201.683115 
" clip-path="url(#p1193352770)" style="fill: none; stroke: #9467bd; stroke-width: 1.5; stroke-linecap: square"/>
   </g>
   <g id="line2d_21">
    <path d="M 68.31816 150.116954 
L 70.569976 287.512389 
L 72.821792 197.304957 
L 75.073608 194.370323 
L 77.325424 200.617243 
L 79.57724 235.32051 
L 81.829056 266.739405 
L 84.080872 204.723875 
L 86.332688 234.319851 
L 88.584504 221.357836 
L 90.83632 204.984812 
L 93.088136 287.036768 
L 95.339952 219.044465 
L 97.591768 178.271321 
L 99.843584 184.669113 
L 102.0954 221.869206 
L 104.347216 224.094636 
L 106.599032 195.699176 
L 108.850848 248.584914 
L 111.102664 230.95802 
L 113.35448 246.183754 
L 115.606296 222.492041 
L 117.858112 230.623779 
L 120.109928 225.922162 
L 122.361744 196.416429 
L 124.61356 217.262481 
L 126.865376 172.240528 
L 129.117192 201.101926 
L 131.369008 196.920568 
L 133.620824 168.777478 
L 135.87264 217.854281 
L 138.124456 176.02919 
L 140.376272 212.264717 
L 142.628088 186.928333 
L 144.879904 200.894128 
L 147.13172 206.931162 
L 149.383536 228.371295 
L 151.635352 180.308043 
L 153.887168 222.091166 
L 156.138984 210.974411 
L 158.3908 242.168505 
L 160.642616 168.100106 
L 162.894432 222.749986 
L 165.146248 244.657369 
L 167.398064 223.213512 
L 169.64988 203.895459 
L 171.901696 245.227366 
L 174.153512 267.075929 
L 176.405328 200.882613 
L 178.657144 179.421603 
L 180.90896 182.904691 
L 183.160776 238.585189 
L 185.412592 187.002133 
L 187.664408 179.766154 
L 189.916224 171.506983 
L 192.16804 214.662197 
L 194.419856 185.09123 
L 196.671672 232.965989 
L 198.923488 216.91778 
L 201.175304 204.170235 
L 203.42712 211.54118 
L 205.678936 199.876057 
L 207.930752 192.99567 
L 210.182568 221.494825 
L 212.434384 223.757317 
L 214.6862 220.654744 
L 216.938016 173.825734 
L 219.189832 223.57244 
L 221.441648 188.352465 
L 223.693464 191.948502 
L 225.94528 207.466788 
L 228.197096 223.789342 
L 230.448912 238.063186 
L 232.700728 197.680242 
L 234.952544 230.042159 
L 237.20436 251.064501 
L 239.456176 186.644862 
L 241.707992 242.065521 
L 243.959808 231.819581 
L 246.211624 205.056266 
L 248.46344 203.566964 
L 250.715256 226.395567 
L 252.967072 215.665137 
L 255.218888 213.113343 
L 257.470704 213.236967 
L 259.72252 206.96719 
L 261.974336 230.422782 
L 264.226152 222.175017 
L 266.477968 185.371429 
L 268.729784 216.566105 
L 270.9816 258.639564 
L 272.99033 313.14952 
M 273.364804 313.14952 
L 275.485232 206.690736 
L 277.737048 199.149463 
L 279.988864 259.375864 
L 282.24068 210.193516 
L 284.492496 239.686529 
L 286.744312 225.286155 
L 288.996128 196.984618 
L 291.247944 306.775173 
L 293.49976 151.633481 
L 295.751576 274.870347 
L 298.003392 254.241907 
L 300.255208 209.489327 
L 302.507024 220.669229 
L 304.75884 209.221374 
L 307.010656 215.303433 
L 309.262472 222.31799 
L 311.514288 191.487622 
L 313.766104 201.777598 
L 316.01792 225.410296 
L 318.269736 219.680321 
L 320.521552 178.958077 
L 322.773368 221.682156 
L 325.025184 191.436356 
L 329.528816 245.594472 
L 331.780632 218.836108 
L 334.032448 219.24529 
L 336.284264 237.3695 
L 338.53608 190.636759 
L 340.787896 208.057124 
L 343.039712 202.96606 
L 345.291528 176.958976 
L 347.543344 256.398035 
L 349.79516 239.399163 
L 352.046976 213.291978 
L 354.298792 234.044344 
L 356.550608 179.390245 
L 358.802424 210.068837 
L 361.05424 228.026335 
L 363.306056 257.546509 
L 365.557872 195.835541 
L 367.809688 257.612303 
L 370.061504 190.195271 
L 372.31332 231.920649 
L 374.565136 197.472788 
L 376.816952 179.626969 
L 379.068768 194.89663 
L 381.320584 225.399729 
L 383.5724 197.057988 
L 385.824216 200.293848 
L 388.076032 222.790469 
L 390.327848 227.585407 
L 392.579664 226.514779 
L 394.83148 224.68932 
L 397.083296 218.138591 
L 399.335112 282.310206 
L 401.586928 227.951394 
L 403.838744 245.358459 
L 406.09056 235.902904 
L 408.342376 255.208496 
L 410.594192 184.075677 
L 412.846008 190.911211 
L 415.097824 221.45785 
L 417.34964 220.088858 
L 419.601456 224.838513 
L 421.853272 241.583787 
L 424.105088 278.220146 
L 426.356904 216.078969 
L 428.60872 214.324791 
L 430.860536 264.499555 
L 433.112352 189.163491 
L 435.364168 221.364637 
L 437.615984 227.282846 
L 439.8678 270.696888 
L 442.119616 229.748724 
L 444.371432 184.39296 
L 446.623248 211.756016 
L 448.875064 224.695454 
L 451.12688 170.541125 
L 453.378696 251.519375 
L 455.630512 252.045596 
L 457.882328 232.554891 
L 460.134144 248.476699 
L 462.38596 233.755708 
L 464.637776 208.754555 
L 466.889592 239.17475 
L 469.141408 207.384637 
L 471.393224 238.192363 
L 473.64504 231.659971 
L 475.896856 227.315948 
L 478.148672 235.354687 
L 480.400488 200.042123 
L 482.652304 234.821709 
L 484.90412 243.462105 
L 487.155936 300.731747 
L 489.407752 216.371694 
L 491.659568 184.506511 
L 493.911384 255.963478 
L 496.1632 213.847125 
L 498.415016 247.172038 
L 500.666832 231.080934 
L 502.918648 213.632354 
L 505.170464 192.254829 
L 507.42228 214.9269 
L 509.674096 214.48029 
L 511.925912 238.409158 
L 514.177728 256.268729 
L 516.429544 202.507463 
L 518.68136 201.683115 
L 518.68136 201.683115 
" clip-path="url(#p1193352770)" style="fill: none; stroke: #8c564b; stroke-width: 1.5; stroke-linecap: square"/>
   </g>
   <g id="line2d_22">
    <path d="M 45.8 59.956955 
L 541.19952 59.956955 
" clip-path="url(#p1193352770)" style="fill: none; stroke-dasharray: 1.5,2.475; stroke-dashoffset: 0; stroke: #000000; stroke-width: 1.5"/>
   </g>
   <g id="line2d_23">
    <path d="M 45.8 104.037027 
L 541.19952 104.037027 
" clip-path="url(#p1193352770)" style="fill: none; stroke-dasharray: 1.5,2.475; stroke-dashoffset: 0; stroke: #000000; stroke-width: 1.5"/>
   </g>
   <g id="line2d_24">
    <path d="M 45.8 149.899447 
L 541.19952 149.899447 
" clip-path="url(#p1193352770)" style="fill: none; stroke-dasharray: 1.5,2.475; stroke-dashoffset: 0; stroke: #000000; stroke-width: 1.5"/>
   </g>
   <g id="line2d_25">
    <path d="M 45.8 195.430812 
L 541.19952 195.430812 
" clip-path="url(#p1193352770)" style="fill: none; stroke-dasharray: 1.5,2.475; stroke-dashoffset: 0; stroke: #000000; stroke-width: 1.5"/>
   </g>
   <g id="line2d_26">
    <path d="M 45.8 238.577435 
L 541.19952 238.577435 
" clip-path="url(#p1193352770)" style="fill: none; stroke-dasharray: 1.5,2.475; stroke-dashoffset: 0; stroke: #000000; stroke-width: 1.5"/>
   </g>
   <g id="line2d_27">
    <path d="M 45.8 238.577435 
L 541.19952 238.577435 
" clip-path="url(#p1193352770)" style="fill: none; stroke-dasharray: 1.5,2.475; stroke-dashoffset: 0; stroke: #000000; stroke-width: 1.5"/>
   </g>
   <g id="patch_3">
    <path d="M 45.8 274.94952 
L 45.8 22.32 
" style="fill: none; stroke: #000000; stroke-width: 0.8; stroke-linejoin: miter; stroke-linecap: square"/>
   </g>
   <g id="patch_4">
    <path d="M 45.8 274.94952 
L 541.19952 274.94952 
" style="fill: none; stroke: #000000; stroke-width: 0.8; stroke-linejoin: miter; stroke-linecap: square"/>
   </g>
   <g id="text_18">
    <!-- Temperature percentiles during the NPT run (2000 H$_2$O) -->
    <g transform="translate(142.11976 16.32) scale(0.12 -0.12)">
     <defs>
      <path id="IBMPlexSans-63" d="M 1773 -77 
C 2400 -77 2829 230 3040 704 
L 2669 954 
C 2490 576 2189 378 1773 378 
C 1165 378 851 794 851 1370 
L 851 1933 
C 851 2509 1165 2925 1773 2925 
C 2176 2925 2458 2726 2579 2387 
L 3008 2605 
C 2816 3059 2426 3379 1773 3379 
C 845 3379 301 2707 301 1651 
C 301 595 845 -77 1773 -77 
z
" transform="scale(0.015625)"/>
      <path id="IBMPlexSans-6e" d="M 1056 0 
L 1056 2291 
C 1056 2714 1453 2918 1862 2918 
C 2355 2918 2611 2618 2611 2029 
L 2611 0 
L 3123 0 
L 3123 2118 
C 3123 2918 2694 3379 2016 3379 
C 1523 3379 1242 3136 1082 2765 
L 1056 2765 
L 1056 3302 
L 544 3302 
L 544 0 
L 1056 0 
z
" transform="scale(0.015625)"/>
      <path id="IBMPlexSans-6c" d="M 1542 0 
L 1542 448 
L 1056 448 
L 1056 4736 
L 544 4736 
L 544 531 
C 544 224 736 0 1088 0 
L 1542 0 
z
" transform="scale(0.015625)"/>
      <path id="IBMPlexSans-64" d="M 2656 0 
L 3168 0 
L 3168 4736 
L 2656 4736 
L 2656 2765 
L 2630 2765 
C 2458 3181 2118 3379 1664 3379 
C 838 3379 320 2707 320 1651 
C 320 595 838 -77 1664 -77 
C 2118 -77 2432 128 2630 538 
L 2656 538 
L 2656 0 
z
M 1805 384 
C 1229 384 870 781 870 1370 
L 870 1933 
C 870 2522 1229 2918 1805 2918 
C 2272 2918 2656 2650 2656 2285 
L 2656 1056 
C 2656 627 2272 384 1805 384 
z
" transform="scale(0.015625)"/>
      <path id="IBMPlexSans-67" d="M 3328 -365 
C 3328 179 2976 512 2157 512 
L 1453 512 
C 1152 512 947 563 947 762 
C 947 966 1165 1075 1382 1133 
C 1478 1114 1594 1101 1702 1101 
C 2458 1101 2950 1568 2950 2240 
C 2950 2592 2810 2886 2573 3091 
L 2573 3302 
L 3200 3302 
L 3200 3750 
L 2707 3750 
C 2432 3750 2323 3565 2323 3309 
L 2323 3251 
C 2144 3334 1933 3379 1696 3379 
C 947 3379 454 2912 454 2240 
C 454 1779 685 1414 1075 1229 
L 1075 1203 
C 742 1120 506 960 506 627 
C 506 403 614 256 800 166 
L 800 96 
C 474 6 275 -186 275 -544 
C 275 -1062 698 -1357 1728 -1357 
C 2790 -1357 3328 -1043 3328 -365 
z
M 2848 -403 
C 2848 -762 2515 -941 1946 -941 
L 1472 -941 
C 954 -941 755 -704 755 -416 
C 755 -211 851 -64 1062 32 
L 2163 32 
C 2675 32 2848 -141 2848 -403 
z
M 1702 1510 
C 1267 1510 992 1715 992 2150 
L 992 2330 
C 992 2765 1267 2970 1702 2970 
C 2138 2970 2413 2765 2413 2330 
L 2413 2150 
C 2413 1715 2138 1510 1702 1510 
z
" transform="scale(0.015625)"/>
      <path id="IBMPlexSans-68" d="M 544 0 
L 1056 0 
L 1056 2291 
C 1056 2714 1453 2918 1862 2918 
C 2355 2918 2611 2618 2611 2029 
L 2611 0 
L 3123 0 
L 3123 2118 
C 3123 2918 2694 3379 2016 3379 
C 1523 3379 1242 3136 1082 2765 
L 1056 2765 
L 1056 4736 
L 544 4736 
L 544 0 
z
" transform="scale(0.015625)"/>
      <path id="IBMPlexSans-4e" d="M 3309 0 
L 3930 0 
L 3930 4467 
L 3405 4467 
L 3405 749 
L 3386 749 
L 2848 1741 
L 1216 4467 
L 595 4467 
L 595 0 
L 1120 0 
L 1120 3718 
L 1139 3718 
L 1677 2726 
L 3309 0 
z
" transform="scale(0.015625)"/>
      <path id="IBMPlexSans-50" d="M 1133 0 
L 1133 1907 
L 2374 1907 
C 3174 1907 3622 2400 3622 3187 
C 3622 3974 3174 4467 2374 4467 
L 595 4467 
L 595 0 
L 1133 0 
z
M 1133 3994 
L 2374 3994 
C 2797 3994 3046 3763 3046 3354 
L 3046 3021 
C 3046 2611 2797 2381 2374 2381 
L 1133 2381 
L 1133 3994 
z
" transform="scale(0.015625)"/>
      <path id="IBMPlexSans-28" d="M 531 1997 
C 531 749 1056 -339 1690 -877 
L 2176 -877 
C 1485 -262 1011 819 1011 1715 
L 1011 2266 
C 1011 3162 1466 4224 2176 4864 
L 1690 4864 
C 1037 4307 531 3232 531 1997 
z
" transform="scale(0.015625)"/>
      <path id="IBMPlexSans-48" d="M 3392 0 
L 3930 0 
L 3930 4467 
L 3392 4467 
L 3392 2496 
L 1133 2496 
L 1133 4467 
L 595 4467 
L 595 0 
L 1133 0 
L 1133 2022 
L 3392 2022 
L 3392 0 
z
" transform="scale(0.015625)"/>
      <path id="DejaVuSans-32" d="M 1228 531 
L 3431 531 
L 3431 0 
L 469 0 
L 469 531 
Q 828 903 1448 1529 
Q 2069 2156 2228 2338 
Q 2531 2678 2651 2914 
Q 2772 3150 2772 3378 
Q 2772 3750 2511 3984 
Q 2250 4219 1831 4219 
Q 1534 4219 1204 4116 
Q 875 4013 500 3803 
L 500 4441 
Q 881 4594 1212 4672 
Q 1544 4750 1819 4750 
Q 2544 4750 2975 4387 
Q 3406 4025 3406 3419 
Q 3406 3131 3298 2873 
Q 3191 2616 2906 2266 
Q 2828 2175 2409 1742 
Q 1991 1309 1228 531 
z
" transform="scale(0.015625)"/>
      <path id="IBMPlexSans-4f" d="M 2266 -77 
C 3418 -77 4160 736 4160 2234 
C 4160 3731 3418 4544 2266 4544 
C 1114 4544 371 3731 371 2234 
C 371 736 1114 -77 2266 -77 
z
M 2266 403 
C 1491 403 947 979 947 1862 
L 947 2605 
C 947 3488 1491 4064 2266 4064 
C 3040 4064 3584 3488 3584 2605 
L 3584 1862 
C 3584 979 3040 403 2266 403 
z
" transform="scale(0.015625)"/>
      <path id="IBMPlexSans-29" d="M 1613 1997 
C 1613 3232 1107 4307 454 4864 
L -32 4864 
C 678 4224 1133 3162 1133 2266 
L 1133 1715 
C 1133 819 659 -262 -32 -877 
L 454 -877 
C 1088 -339 1613 749 1613 1997 
z
" transform="scale(0.015625)"/>
     </defs>
     <use xlink:href="#IBMPlexSans-54"/>
     <use xlink:href="#IBMPlexSans-65" transform="translate(57.199997 0)"/>
     <use xlink:href="#IBMPlexSans-6d" transform="translate(112.099991 0)"/>
     <use xlink:href="#IBMPlexSans-70" transform="translate(199.399979 0)"/>
     <use xlink:href="#IBMPlexSans-65" transform="translate(257.399963 0)"/>
     <use xlink:href="#IBMPlexSans-72" transform="translate(312.299957 0)"/>
     <use xlink:href="#IBMPlexSans-61" transform="translate(348.999954 0)"/>
     <use xlink:href="#IBMPlexSans-74" transform="translate(402.399948 0)"/>
     <use xlink:href="#IBMPlexSans-75" transform="translate(437.499939 0)"/>
     <use xlink:href="#IBMPlexSans-72" transform="translate(494.299927 0)"/>
     <use xlink:href="#IBMPlexSans-65" transform="translate(530.999924 0)"/>
     <use xlink:href="#IBMPlexSans-20" transform="translate(585.899918 0)"/>
     <use xlink:href="#IBMPlexSans-70" transform="translate(609.499908 0)"/>
     <use xlink:href="#IBMPlexSans-65" transform="translate(667.499893 0)"/>
     <use xlink:href="#IBMPlexSans-72" transform="translate(722.399887 0)"/>
     <use xlink:href="#IBMPlexSans-63" transform="translate(759.099884 0)"/>
     <use xlink:href="#IBMPlexSans-65" transform="translate(809.399872 0)"/>
     <use xlink:href="#IBMPlexSans-6e" transform="translate(864.299866 0)"/>
     <use xlink:href="#IBMPlexSans-74" transform="translate(921.099854 0)"/>
     <use xlink:href="#IBMPlexSans-69" transform="translate(956.199844 0)"/>
     <use xlink:href="#IBMPlexSans-6c" transform="translate(981.199829 0)"/>
     <use xlink:href="#IBMPlexSans-65" transform="translate(1008.399826 0)"/>
     <use xlink:href="#IBMPlexSans-73" transform="translate(1063.29982 0)"/>
     <use xlink:href="#IBMPlexSans-20" transform="translate(1111.999817 0)"/>
     <use xlink:href="#IBMPlexSans-64" transform="translate(1135.599808 0)"/>
     <use xlink:href="#IBMPlexSans-75" transform="translate(1193.599792 0)"/>
     <use xlink:href="#IBMPlexSans-72" transform="translate(1250.39978 0)"/>
     <use xlink:href="#IBMPlexSans-69" transform="translate(1287.099777 0)"/>
     <use xlink:href="#IBMPlexSans-6e" transform="translate(1312.099762 0)"/>
     <use xlink:href="#IBMPlexSans-67" transform="translate(1368.89975 0)"/>
     <use xlink:href="#IBMPlexSans-20" transform="translate(1421.699738 0)"/>
     <use xlink:href="#IBMPlexSans-74" transform="translate(1445.299728 0)"/>
     <use xlink:href="#IBMPlexSans-68" transform="translate(1480.399719 0)"/>
     <use xlink:href="#IBMPlexSans-65" transform="translate(1537.199707 0)"/>
     <use xlink:href="#IBMPlexSans-20" transform="translate(1592.099701 0)"/>
     <use xlink:href="#IBMPlexSans-4e" transform="translate(1615.699692 0)"/>
     <use xlink:href="#IBMPlexSans-50" transform="translate(1686.399673 0)"/>
     <use xlink:href="#IBMPlexSans-54" transform="translate(1746.999664 0)"/>
     <use xlink:href="#IBMPlexSans-20" transform="translate(1804.199661 0)"/>
     <use xlink:href="#IBMPlexSans-72" transform="translate(1827.799652 0)"/>
     <use xlink:href="#IBMPlexSans-75" transform="translate(1864.499649 0)"/>
     <use xlink:href="#IBMPlexSans-6e" transform="translate(1921.299637 0)"/>
     <use xlink:href="#IBMPlexSans-20" transform="translate(1978.099625 0)"/>
     <use xlink:href="#IBMPlexSans-28" transform="translate(2001.699615 0)"/>
     <use xlink:href="#IBMPlexSans-32" transform="translate(2035.1996 0)"/>
     <use xlink:href="#IBMPlexSans-30" transform="translate(2095.199585 0)"/>
     <use xlink:href="#IBMPlexSans-30" transform="translate(2155.19957 0)"/>
     <use xlink:href="#IBMPlexSans-30" transform="translate(2215.199554 0)"/>
     <use xlink:href="#IBMPlexSans-20" transform="translate(2275.199539 0)"/>
     <use xlink:href="#IBMPlexSans-48" transform="translate(2298.79953 0)"/>
     <use xlink:href="#DejaVuSans-32" transform="translate(2370.456543 -16.40625) scale(0.7)"/>
     <use xlink:href="#IBMPlexSans-4f" transform="translate(2417.727051 0)"/>
     <use xlink:href="#IBMPlexSans-29" transform="translate(2488.527039 0)"/>
    </g>
   </g>
   <g id="legend_1">
    <g id="patch_5">
     <path d="M 478.569832 116.72 
L 534.19952 116.72 
Q 536.19952 116.72 536.19952 114.72 
L 536.19952 29.32 
Q 536.19952 27.32 534.19952 27.32 
L 478.569832 27.32 
Q 476.569832 27.32 476.569832 29.32 
L 476.569832 114.72 
Q 476.569832 116.72 478.569832 116.72 
z
" style="fill: #ffffff; opacity: 0.8; stroke: #cccccc; stroke-linejoin: miter"/>
    </g>
    <g id="line2d_28">
     <path d="M 480.569832 35.22 
L 490.569832 35.22 
L 500.569832 35.22 
" style="fill: none; stroke: #1f77b4; stroke-width: 1.5; stroke-linecap: square"/>
    </g>
    <g id="text_19">
     <!-- 95 % -->
     <g transform="translate(508.569832 38.72) scale(0.1 -0.1)">
      <defs>
       <path id="IBMPlexSans-35" d="M 3187 4467 
L 794 4467 
L 634 2010 
L 1088 1946 
C 1274 2150 1478 2323 1888 2323 
C 2496 2323 2822 1984 2822 1395 
L 2822 1331 
C 2822 742 2496 403 1888 403 
C 1350 403 1126 640 896 992 
L 493 685 
C 762 301 1146 -77 1888 -77 
C 2829 -77 3392 531 3392 1402 
C 3392 2266 2829 2784 2061 2784 
C 1594 2784 1357 2592 1146 2291 
L 1101 2291 
L 1229 3994 
L 3187 3994 
L 3187 4467 
z
" transform="scale(0.015625)"/>
       <path id="IBMPlexSans-25" d="M 1664 0 
L 4762 4467 
L 4269 4467 
L 1171 0 
L 1664 0 
z
M 1427 2010 
C 2074 2010 2438 2458 2438 3277 
C 2438 4096 2074 4544 1427 4544 
C 781 4544 416 4096 416 3277 
C 416 2458 781 2010 1427 2010 
z
M 1427 2342 
C 1056 2342 877 2598 877 3085 
L 877 3469 
C 877 3955 1056 4211 1427 4211 
C 1798 4211 1978 3955 1978 3469 
L 1978 3085 
C 1978 2598 1798 2342 1427 2342 
z
M 4506 -77 
C 5152 -77 5517 371 5517 1190 
C 5517 2010 5152 2458 4506 2458 
C 3859 2458 3494 2010 3494 1190 
C 3494 371 3859 -77 4506 -77 
z
M 4506 256 
C 4134 256 3955 512 3955 998 
L 3955 1382 
C 3955 1869 4134 2125 4506 2125 
C 4877 2125 5056 1869 5056 1382 
L 5056 998 
C 5056 512 4877 256 4506 256 
z
" transform="scale(0.015625)"/>
      </defs>
      <use xlink:href="#IBMPlexSans-39"/>
      <use xlink:href="#IBMPlexSans-35" transform="translate(59.999985 0)"/>
      <use xlink:href="#IBMPlexSans-20" transform="translate(119.999969 0)"/>
      <use xlink:href="#IBMPlexSans-25" transform="translate(143.59996 0)"/>
     </g>
    </g>
    <g id="line2d_29">
     <path d="M 480.569832 49.62 
L 490.569832 49.62 
L 500.569832 49.62 
" style="fill: none; stroke: #ff7f0e; stroke-width: 1.5; stroke-linecap: square"/>
    </g>
    <g id="text_20">
     <!-- 80 % -->
     <g transform="translate(508.569832 53.12) scale(0.1 -0.1)">
      <use xlink:href="#IBMPlexSans-38"/>
      <use xlink:href="#IBMPlexSans-30" transform="translate(59.999985 0)"/>
      <use xlink:href="#IBMPlexSans-20" transform="translate(119.999969 0)"/>
      <use xlink:href="#IBMPlexSans-25" transform="translate(143.59996 0)"/>
     </g>
    </g>
    <g id="line2d_30">
     <path d="M 480.569832 64.02 
L 490.569832 64.02 
L 500.569832 64.02 
" style="fill: none; stroke: #2ca02c; stroke-width: 1.5; stroke-linecap: square"/>
    </g>
    <g id="text_21">
     <!-- 50 % -->
     <g transform="translate(508.569832 67.52) scale(0.1 -0.1)">
      <use xlink:href="#IBMPlexSans-35"/>
      <use xlink:href="#IBMPlexSans-30" transform="translate(59.999985 0)"/>
      <use xlink:href="#IBMPlexSans-20" transform="translate(119.999969 0)"/>
      <use xlink:href="#IBMPlexSans-25" transform="translate(143.59996 0)"/>
     </g>
    </g>
    <g id="line2d_31">
     <path d="M 480.569832 78.42 
L 490.569832 78.42 
L 500.569832 78.42 
" style="fill: none; stroke: #d62728; stroke-width: 1.5; stroke-linecap: square"/>
    </g>
    <g id="text_22">
     <!-- 20 % -->
     <g transform="translate(508.569832 81.92) scale(0.1 -0.1)">
      <use xlink:href="#IBMPlexSans-32"/>
      <use xlink:href="#IBMPlexSans-30" transform="translate(59.999985 0)"/>
      <use xlink:href="#IBMPlexSans-20" transform="translate(119.999969 0)"/>
      <use xlink:href="#IBMPlexSans-25" transform="translate(143.59996 0)"/>
     </g>
    </g>
    <g id="line2d_32">
     <path d="M 480.569832 92.82 
L 490.569832 92.82 
L 500.569832 92.82 
" style="fill: none; stroke: #9467bd; stroke-width: 1.5; stroke-linecap: square"/>
    </g>
    <g id="text_23">
     <!-- 5 % -->
     <g transform="translate(508.569832 96.32) scale(0.1 -0.1)">
      <use xlink:href="#IBMPlexSans-35"/>
      <use xlink:href="#IBMPlexSans-20" transform="translate(59.999985 0)"/>
      <use xlink:href="#IBMPlexSans-25" transform="translate(83.599976 0)"/>
     </g>
    </g>
    <g id="line2d_33">
     <path d="M 480.569832 107.22 
L 490.569832 107.22 
L 500.569832 107.22 
" style="fill: none; stroke: #8c564b; stroke-width: 1.5; stroke-linecap: square"/>
    </g>
    <g id="text_24">
     <!-- 5 % -->
     <g transform="translate(508.569832 110.72) scale(0.1 -0.1)">
      <use xlink:href="#IBMPlexSans-35"/>
      <use xlink:href="#IBMPlexSans-20" transform="translate(59.999985 0)"/>
      <use xlink:href="#IBMPlexSans-25" transform="translate(83.599976 0)"/>
     </g>
    </g>
   </g>
  </g>
 </g>
 <defs>
  <clipPath id="p1193352770">
   <rect x="45.8" y="22.32" width="495.39952" height="252.62952"/>
  </clipPath>
 </defs>
</svg>