<?xml version="1.0" encoding="utf-8" standalone="no"?>
<!DOCTYPE svg PUBLIC "-//W3C//DTD SVG 1.1//EN"
  "http://www.w3.org/Graphics/SVG/1.1/DTD/svg11.dtd">
<svg xmlns:xlink="http://www.w3.org/1999/xlink" width="548.39952pt" height="312.14952pt" viewBox="0 0 548.39952 312.14952" xmlns="http://www.w3.org/2000/svg" version="1.1">
 <metadata>
  <rdf:RDF xmlns:dc="http://purl.org/dc/elements/1.1/" xmlns:cc="http://creativecommons.org/ns#" xmlns:rdf="http://www.w3.org/1999/02/22-rdf-syntax-ns#">
   <cc:Work>
    <dc:type rdf:resource="http://purl.org/dc/dcmitype/StillImage"/>
    <dc:date>2026-01-27T08:26:18.474002</dc:date>
    <dc:format>image/svg+xml</dc:format>
    <dc:creator>
     <cc:Agent>
      <dc:title>Matplotlib v3.10.7, https://matplotlib.org/</dc:title>
     </cc:Agent>
    </dc:creator>
   </cc:Work>
  </rdf:RDF>
 </metadata>
 <defs>
  <style type="text/css">*{stroke-linejoin: round; stroke-linecap: butt}</style>
 </defs>
 <g id="figure_1">
  <g id="patch_1">
   <path d="M 0 312.14952 
L 548.39952 312.14952 
L 548.39952 0 
L 0 0 
z
" style="fill: #ffffff"/>
  </g>
  <g id="axes_1">
   <g id="patch_2">
    <path d="M 42.720313 275.14952 
L 541.19952 275.14952 
L 541.19952 22.08 
L 42.720313 22.08 
z
" style="fill: #ffffff"/>
   </g>
   <g id="matplotlib.axis_1">
    <g id="xtick_1">
     <g id="line2d_1">
      <defs>
       <path id="m5e5200f82b" d="M 0 0 
L 0 3.5 
" style="stroke: #000000; stroke-width: 0.8"/>
      </defs>
      <g>
       <use xlink:href="#m5e5200f82b" x="65.378458" y="275.14952" style="stroke: #000000; stroke-width: 0.8"/>
      </g>
     </g>
     <g id="text_1">
      <!-- 0 -->
      <g transform="translate(62.378458 289.54952) scale(0.1 -0.1)">
       <defs>
        <path id="IBMPlexSans-30" d="M 1920 -77 
C 2989 -77 3456 774 3456 2234 
C 3456 3693 2989 4544 1920 4544 
C 851 4544 384 3693 384 2234 
C 384 774 851 -77 1920 -77 
z
M 1920 390 
C 1222 390 947 1005 947 1869 
L 947 2598 
C 947 3462 1222 4077 1920 4077 
C 2618 4077 2893 3462 2893 2598 
L 2893 1869 
C 2893 1005 2618 390 1920 390 
z
" transform="scale(0.015625)"/>
       </defs>
       <use xlink:href="#IBMPlexSans-30"/>
      </g>
     </g>
    </g>
    <g id="xtick_2">
     <g id="line2d_2">
      <g>
       <use xlink:href="#m5e5200f82b" x="156.19267" y="275.14952" style="stroke: #000000; stroke-width: 0.8"/>
      </g>
     </g>
     <g id="text_2">
      <!-- 100 -->
      <g transform="translate(147.19267 289.54952) scale(0.1 -0.1)">
       <defs>
        <path id="IBMPlexSans-31" d="M 3501 0 
L 3501 474 
L 2349 474 
L 2349 4467 
L 1510 4467 
L 326 3360 
L 640 3021 
L 1766 4070 
L 1811 4070 
L 1811 474 
L 563 474 
L 563 0 
L 3501 0 
z
" transform="scale(0.015625)"/>
       </defs>
       <use xlink:href="#IBMPlexSans-31"/>
       <use xlink:href="#IBMPlexSans-30" transform="translate(59.999985 0)"/>
       <use xlink:href="#IBMPlexSans-30" transform="translate(119.999969 0)"/>
      </g>
     </g>
    </g>
    <g id="xtick_3">
     <g id="line2d_3">
      <g>
       <use xlink:href="#m5e5200f82b" x="247.006882" y="275.14952" style="stroke: #000000; stroke-width: 0.8"/>
      </g>
     </g>
     <g id="text_3">
      <!-- 200 -->
      <g transform="translate(238.006882 289.54952) scale(0.1 -0.1)">
       <defs>
        <path id="IBMPlexSans-32" d="M 3411 474 
L 1062 474 
L 2266 1555 
C 2835 2067 3245 2554 3245 3245 
C 3245 4006 2746 4544 1875 4544 
C 1011 4544 614 4019 442 3494 
L 922 3309 
C 1043 3731 1299 4064 1850 4064 
C 2400 4064 2675 3725 2675 3232 
L 2675 3155 
C 2675 2726 2355 2278 1939 1894 
L 480 550 
L 480 0 
L 3411 0 
L 3411 474 
z
" transform="scale(0.015625)"/>
       </defs>
       <use xlink:href="#IBMPlexSans-32"/>
       <use xlink:href="#IBMPlexSans-30" transform="translate(59.999985 0)"/>
       <use xlink:href="#IBMPlexSans-30" transform="translate(119.999969 0)"/>
      </g>
     </g>
    </g>
    <g id="xtick_4">
     <g id="line2d_4">
      <g>
       <use xlink:href="#m5e5200f82b" x="337.821093" y="275.14952" style="stroke: #000000; stroke-width: 0.8"/>
      </g>
     </g>
     <g id="text_4">
      <!-- 300 -->
      <g transform="translate(328.821093 289.54952) scale(0.1 -0.1)">
       <defs>
        <path id="IBMPlexSans-33" d="M 1184 2573 
L 1184 2106 
L 1709 2106 
C 2336 2106 2669 1805 2669 1280 
L 2669 1229 
C 2669 704 2336 403 1709 403 
C 1165 403 902 640 672 992 
L 269 685 
C 544 301 941 -77 1715 -77 
C 2624 -77 3232 454 3232 1222 
C 3232 1894 2771 2253 2291 2349 
L 2291 2374 
C 2765 2496 3149 2842 3149 3418 
C 3149 4141 2547 4544 1792 4544 
C 1075 4544 685 4173 461 3814 
L 858 3507 
C 1043 3846 1318 4064 1779 4064 
C 2253 4064 2579 3827 2579 3360 
L 2579 3315 
C 2579 2886 2272 2573 1670 2573 
L 1184 2573 
z
" transform="scale(0.015625)"/>
       </defs>
       <use xlink:href="#IBMPlexSans-33"/>
       <use xlink:href="#IBMPlexSans-30" transform="translate(59.999985 0)"/>
       <use xlink:href="#IBMPlexSans-30" transform="translate(119.999969 0)"/>
      </g>
     </g>
    </g>
    <g id="xtick_5">
     <g id="line2d_5">
      <g>
       <use xlink:href="#m5e5200f82b" x="428.635305" y="275.14952" style="stroke: #000000; stroke-width: 0.8"/>
      </g>
     </g>
     <g id="text_5">
      <!-- 400 -->
      <g transform="translate(419.635305 289.54952) scale(0.1 -0.1)">
       <defs>
        <path id="IBMPlexSans-34" d="M 2912 0 
L 2912 877 
L 3558 877 
L 3558 1325 
L 2912 1325 
L 2912 4467 
L 2112 4467 
L 243 1350 
L 243 877 
L 2400 877 
L 2400 0 
L 2912 0 
z
M 2368 4051 
L 2400 4051 
L 2400 1325 
L 749 1325 
L 2368 4051 
z
" transform="scale(0.015625)"/>
       </defs>
       <use xlink:href="#IBMPlexSans-34"/>
       <use xlink:href="#IBMPlexSans-30" transform="translate(59.999985 0)"/>
       <use xlink:href="#IBMPlexSans-30" transform="translate(119.999969 0)"/>
      </g>
     </g>
    </g>
    <g id="xtick_6">
     <g id="line2d_6">
      <g>
       <use xlink:href="#m5e5200f82b" x="519.449516" y="275.14952" style="stroke: #000000; stroke-width: 0.8"/>
      </g>
     </g>
     <g id="text_6">
      <!-- 500 -->
      <g transform="translate(510.449516 289.54952) scale(0.1 -0.1)">
       <defs>
        <path id="IBMPlexSans-35" d="M 3187 4467 
L 794 4467 
L 634 2010 
L 1088 1946 
C 1274 2150 1478 2323 1888 2323 
C 2496 2323 2822 1984 2822 1395 
L 2822 1331 
C 2822 742 2496 403 1888 403 
C 1350 403 1126 640 896 992 
L 493 685 
C 762 301 1146 -77 1888 -77 
C 2829 -77 3392 531 3392 1402 
C 3392 2266 2829 2784 2061 2784 
C 1594 2784 1357 2592 1146 2291 
L 1101 2291 
L 1229 3994 
L 3187 3994 
L 3187 4467 
z
" transform="scale(0.015625)"/>
       </defs>
       <use xlink:href="#IBMPlexSans-35"/>
       <use xlink:href="#IBMPlexSans-30" transform="translate(59.999985 0)"/>
       <use xlink:href="#IBMPlexSans-30" transform="translate(119.999969 0)"/>
      </g>
     </g>
    </g>
    <g id="text_7">
     <!-- Step -->
     <g transform="translate(281.655229 302.94952) scale(0.1 -0.1)">
      <defs>
       <path id="IBMPlexSans-53" d="M 1850 -77 
C 2810 -77 3386 448 3386 1267 
C 3386 1933 3008 2317 2138 2515 
L 1773 2598 
C 1210 2726 934 2918 934 3341 
C 934 3821 1286 4070 1856 4070 
C 2374 4070 2714 3859 2957 3520 
L 3360 3814 
C 3027 4288 2554 4544 1882 4544 
C 1005 4544 403 4115 403 3322 
C 403 2637 851 2278 1664 2093 
L 2029 2010 
C 2618 1875 2854 1664 2854 1242 
C 2854 730 2509 397 1869 397 
C 1350 397 979 621 666 1037 
L 269 704 
C 627 218 1133 -77 1850 -77 
z
" transform="scale(0.015625)"/>
       <path id="IBMPlexSans-74" d="M 1914 0 
L 1914 448 
L 1242 448 
L 1242 2854 
L 1965 2854 
L 1965 3302 
L 1242 3302 
L 1242 4218 
L 781 4218 
L 781 3603 
C 781 3379 710 3302 493 3302 
L 186 3302 
L 186 2854 
L 730 2854 
L 730 544 
C 730 224 922 0 1274 0 
L 1914 0 
z
" transform="scale(0.015625)"/>
       <path id="IBMPlexSans-65" d="M 1786 -77 
C 2406 -77 2880 230 3091 678 
L 2726 941 
C 2554 576 2234 371 1818 371 
C 1203 371 838 800 838 1370 
L 838 1523 
L 3213 1523 
L 3213 1766 
C 3213 2701 2669 3379 1786 3379 
C 890 3379 301 2701 301 1651 
C 301 602 890 -77 1786 -77 
z
M 1786 2950 
C 2310 2950 2662 2560 2662 1978 
L 2662 1907 
L 838 1907 
L 838 1952 
C 838 2528 1229 2950 1786 2950 
z
" transform="scale(0.015625)"/>
       <path id="IBMPlexSans-70" d="M 544 -1280 
L 1056 -1280 
L 1056 538 
L 1082 538 
C 1280 128 1594 -77 2048 -77 
C 2874 -77 3392 595 3392 1651 
C 3392 2707 2874 3379 2048 3379 
C 1594 3379 1254 3181 1082 2765 
L 1056 2765 
L 1056 3302 
L 544 3302 
L 544 -1280 
z
M 1907 384 
C 1440 384 1056 627 1056 1056 
L 1056 2285 
C 1056 2650 1440 2918 1907 2918 
C 2483 2918 2842 2522 2842 1933 
L 2842 1370 
C 2842 781 2483 384 1907 384 
z
" transform="scale(0.015625)"/>
      </defs>
      <use xlink:href="#IBMPlexSans-53"/>
      <use xlink:href="#IBMPlexSans-74" transform="translate(58.099991 0)"/>
      <use xlink:href="#IBMPlexSans-65" transform="translate(93.199982 0)"/>
      <use xlink:href="#IBMPlexSans-70" transform="translate(148.099976 0)"/>
     </g>
    </g>
   </g>
   <g id="matplotlib.axis_2">
    <g id="ytick_1">
     <g id="line2d_7">
      <defs>
       <path id="m3c6beb74ec" d="M 0 0 
L -3.5 0 
" style="stroke: #000000; stroke-width: 0.8"/>
      </defs>
      <g>
       <use xlink:href="#m3c6beb74ec" x="42.720313" y="262.344373" style="stroke: #000000; stroke-width: 0.8"/>
      </g>
     </g>
     <g id="text_8">
      <!-- 4.0 -->
      <g transform="translate(21 266.044373) scale(0.1 -0.1)">
       <defs>
        <path id="IBMPlexSans-2e" d="M 870 -77 
C 1139 -77 1261 77 1261 294 
L 1261 378 
C 1261 595 1139 749 870 749 
C 602 749 480 595 480 378 
L 480 294 
C 480 77 602 -77 870 -77 
z
" transform="scale(0.015625)"/>
       </defs>
       <use xlink:href="#IBMPlexSans-34"/>
       <use xlink:href="#IBMPlexSans-2e" transform="translate(59.999985 0)"/>
       <use xlink:href="#IBMPlexSans-30" transform="translate(87.199982 0)"/>
      </g>
     </g>
    </g>
    <g id="ytick_2">
     <g id="line2d_8">
      <g>
       <use xlink:href="#m3c6beb74ec" x="42.720313" y="226.388118" style="stroke: #000000; stroke-width: 0.8"/>
      </g>
     </g>
     <g id="text_9">
      <!-- 4.5 -->
      <g transform="translate(21 230.088118) scale(0.1 -0.1)">
       <use xlink:href="#IBMPlexSans-34"/>
       <use xlink:href="#IBMPlexSans-2e" transform="translate(59.999985 0)"/>
       <use xlink:href="#IBMPlexSans-35" transform="translate(87.199982 0)"/>
      </g>
     </g>
    </g>
    <g id="ytick_3">
     <g id="line2d_9">
      <g>
       <use xlink:href="#m3c6beb74ec" x="42.720313" y="190.431863" style="stroke: #000000; stroke-width: 0.8"/>
      </g>
     </g>
     <g id="text_10">
      <!-- 5.0 -->
      <g transform="translate(21 194.131863) scale(0.1 -0.1)">
       <use xlink:href="#IBMPlexSans-35"/>
       <use xlink:href="#IBMPlexSans-2e" transform="translate(59.999985 0)"/>
       <use xlink:href="#IBMPlexSans-30" transform="translate(87.199982 0)"/>
      </g>
     </g>
    </g>
    <g id="ytick_4">
     <g id="line2d_10">
      <g>
       <use xlink:href="#m3c6beb74ec" x="42.720313" y="154.475608" style="stroke: #000000; stroke-width: 0.8"/>
      </g>
     </g>
     <g id="text_11">
      <!-- 5.5 -->
      <g transform="translate(21 158.175608) scale(0.1 -0.1)">
       <use xlink:href="#IBMPlexSans-35"/>
       <use xlink:href="#IBMPlexSans-2e" transform="translate(59.999985 0)"/>
       <use xlink:href="#IBMPlexSans-35" transform="translate(87.199982 0)"/>
      </g>
     </g>
    </g>
    <g id="ytick_5">
     <g id="line2d_11">
      <g>
       <use xlink:href="#m3c6beb74ec" x="42.720313" y="118.519352" style="stroke: #000000; stroke-width: 0.8"/>
      </g>
     </g>
     <g id="text_12">
      <!-- 6.0 -->
      <g transform="translate(21 122.219352) scale(0.1 -0.1)">
       <defs>
        <path id="IBMPlexSans-36" d="M 1926 -77 
C 2822 -77 3411 525 3411 1402 
C 3411 2246 2861 2778 2093 2778 
C 1549 2778 1229 2502 1018 2138 
L 986 2150 
C 1229 3187 1760 3770 2714 4467 
L 2022 4467 
C 1306 4000 429 2963 429 1638 
C 429 576 998 -77 1926 -77 
z
M 1920 390 
C 1331 390 986 730 986 1331 
L 986 1382 
C 986 1984 1331 2323 1920 2323 
C 2509 2323 2854 1984 2854 1382 
L 2854 1331 
C 2854 730 2509 390 1920 390 
z
" transform="scale(0.015625)"/>
       </defs>
       <use xlink:href="#IBMPlexSans-36"/>
       <use xlink:href="#IBMPlexSans-2e" transform="translate(59.999985 0)"/>
       <use xlink:href="#IBMPlexSans-30" transform="translate(87.199982 0)"/>
      </g>
     </g>
    </g>
    <g id="ytick_6">
     <g id="line2d_12">
      <g>
       <use xlink:href="#m3c6beb74ec" x="42.720313" y="82.563097" style="stroke: #000000; stroke-width: 0.8"/>
      </g>
     </g>
     <g id="text_13">
      <!-- 6.5 -->
      <g transform="translate(21 86.263097) scale(0.1 -0.1)">
       <use xlink:href="#IBMPlexSans-36"/>
       <use xlink:href="#IBMPlexSans-2e" transform="translate(59.999985 0)"/>
       <use xlink:href="#IBMPlexSans-35" transform="translate(87.199982 0)"/>
      </g>
     </g>
    </g>
    <g id="ytick_7">
     <g id="line2d_13">
      <g>
       <use xlink:href="#m3c6beb74ec" x="42.720313" y="46.606842" style="stroke: #000000; stroke-width: 0.8"/>
      </g>
     </g>
     <g id="text_14">
      <!-- 7.0 -->
      <g transform="translate(21 50.306842) scale(0.1 -0.1)">
       <defs>
        <path id="IBMPlexSans-37" d="M 1696 0 
L 3373 3994 
L 3373 4467 
L 442 4467 
L 442 3174 
L 922 3174 
L 922 4006 
L 2829 4006 
L 1120 0 
L 1696 0 
z
" transform="scale(0.015625)"/>
       </defs>
       <use xlink:href="#IBMPlexSans-37"/>
       <use xlink:href="#IBMPlexSans-2e" transform="translate(59.999985 0)"/>
       <use xlink:href="#IBMPlexSans-30" transform="translate(87.199982 0)"/>
      </g>
     </g>
    </g>
    <g id="text_15">
     <!-- Bond length [a$_0$] -->
     <g transform="translate(14.8 185.21476) rotate(-90) scale(0.1 -0.1)">
      <defs>
       <path id="IBMPlexSans-42" d="M 595 0 
L 2624 0 
C 3283 0 3776 557 3776 1293 
C 3776 2035 3219 2310 2899 2330 
L 2899 2368 
C 3194 2413 3622 2650 3622 3315 
C 3622 4013 3168 4467 2432 4467 
L 595 4467 
L 595 0 
z
M 1133 2074 
L 2458 2074 
C 2918 2074 3200 1830 3200 1382 
L 3200 1165 
C 3200 717 2918 474 2458 474 
L 1133 474 
L 1133 2074 
z
M 1133 3994 
L 2368 3994 
C 2790 3994 3046 3770 3046 3373 
L 3046 3155 
C 3046 2758 2790 2534 2368 2534 
L 1133 2534 
L 1133 3994 
z
" transform="scale(0.015625)"/>
       <path id="IBMPlexSans-6f" d="M 1792 -77 
C 2675 -77 3283 602 3283 1651 
C 3283 2701 2675 3379 1792 3379 
C 909 3379 301 2701 301 1651 
C 301 602 909 -77 1792 -77 
z
M 1792 378 
C 1242 378 851 717 851 1414 
L 851 1888 
C 851 2586 1242 2925 1792 2925 
C 2342 2925 2733 2586 2733 1888 
L 2733 1414 
C 2733 717 2342 378 1792 378 
z
" transform="scale(0.015625)"/>
       <path id="IBMPlexSans-6e" d="M 1056 0 
L 1056 2291 
C 1056 2714 1453 2918 1862 2918 
C 2355 2918 2611 2618 2611 2029 
L 2611 0 
L 3123 0 
L 3123 2118 
C 3123 2918 2694 3379 2016 3379 
C 1523 3379 1242 3136 1082 2765 
L 1056 2765 
L 1056 3302 
L 544 3302 
L 544 0 
L 1056 0 
z
" transform="scale(0.015625)"/>
       <path id="IBMPlexSans-64" d="M 2656 0 
L 3168 0 
L 3168 4736 
L 2656 4736 
L 2656 2765 
L 2630 2765 
C 2458 3181 2118 3379 1664 3379 
C 838 3379 320 2707 320 1651 
C 320 595 838 -77 1664 -77 
C 2118 -77 2432 128 2630 538 
L 2656 538 
L 2656 0 
z
M 1805 384 
C 1229 384 870 781 870 1370 
L 870 1933 
C 870 2522 1229 2918 1805 2918 
C 2272 2918 2656 2650 2656 2285 
L 2656 1056 
C 2656 627 2272 384 1805 384 
z
" transform="scale(0.015625)"/>
       <path id="IBMPlexSans-20" transform="scale(0.015625)"/>
       <path id="IBMPlexSans-6c" d="M 1542 0 
L 1542 448 
L 1056 448 
L 1056 4736 
L 544 4736 
L 544 531 
C 544 224 736 0 1088 0 
L 1542 0 
z
" transform="scale(0.015625)"/>
       <path id="IBMPlexSans-67" d="M 3328 -365 
C 3328 179 2976 512 2157 512 
L 1453 512 
C 1152 512 947 563 947 762 
C 947 966 1165 1075 1382 1133 
C 1478 1114 1594 1101 1702 1101 
C 2458 1101 2950 1568 2950 2240 
C 2950 2592 2810 2886 2573 3091 
L 2573 3302 
L 3200 3302 
L 3200 3750 
L 2707 3750 
C 2432 3750 2323 3565 2323 3309 
L 2323 3251 
C 2144 3334 1933 3379 1696 3379 
C 947 3379 454 2912 454 2240 
C 454 1779 685 1414 1075 1229 
L 1075 1203 
C 742 1120 506 960 506 627 
C 506 403 614 256 800 166 
L 800 96 
C 474 6 275 -186 275 -544 
C 275 -1062 698 -1357 1728 -1357 
C 2790 -1357 3328 -1043 3328 -365 
z
M 2848 -403 
C 2848 -762 2515 -941 1946 -941 
L 1472 -941 
C 954 -941 755 -704 755 -416 
C 755 -211 851 -64 1062 32 
L 2163 32 
C 2675 32 2848 -141 2848 -403 
z
M 1702 1510 
C 1267 1510 992 1715 992 2150 
L 992 2330 
C 992 2765 1267 2970 1702 2970 
C 2138 2970 2413 2765 2413 2330 
L 2413 2150 
C 2413 1715 2138 1510 1702 1510 
z
" transform="scale(0.015625)"/>
       <path id="IBMPlexSans-68" d="M 544 0 
L 1056 0 
L 1056 2291 
C 1056 2714 1453 2918 1862 2918 
C 2355 2918 2611 2618 2611 2029 
L 2611 0 
L 3123 0 
L 3123 2118 
C 3123 2918 2694 3379 2016 3379 
C 1523 3379 1242 3136 1082 2765 
L 1056 2765 
L 1056 4736 
L 544 4736 
L 544 0 
z
" transform="scale(0.015625)"/>
       <path id="IBMPlexSans-5b" d="M 1645 -883 
L 1645 -480 
L 1037 -480 
L 1037 4461 
L 1645 4461 
L 1645 4864 
L 595 4864 
L 595 -883 
L 1645 -883 
z
" transform="scale(0.015625)"/>
       <path id="IBMPlexSans-61" d="M 3232 0 
L 3232 448 
L 2854 448 
L 2854 2266 
C 2854 2963 2381 3379 1587 3379 
C 992 3379 595 3085 416 2733 
L 723 2445 
C 902 2746 1165 2938 1562 2938 
C 2086 2938 2342 2682 2342 2214 
L 2342 1888 
L 1690 1888 
C 730 1888 282 1542 282 922 
C 282 307 691 -77 1389 -77 
C 1850 -77 2202 134 2342 538 
L 2374 538 
C 2413 230 2566 0 2944 0 
L 3232 0 
z
M 1472 358 
C 1075 358 819 544 819 870 
L 819 1005 
C 819 1325 1082 1504 1664 1504 
L 2342 1504 
L 2342 960 
C 2342 621 1978 358 1472 358 
z
" transform="scale(0.015625)"/>
       <path id="DejaVuSans-30" d="M 2034 4250 
Q 1547 4250 1301 3770 
Q 1056 3291 1056 2328 
Q 1056 1369 1301 889 
Q 1547 409 2034 409 
Q 2525 409 2770 889 
Q 3016 1369 3016 2328 
Q 3016 3291 2770 3770 
Q 2525 4250 2034 4250 
z
M 2034 4750 
Q 2819 4750 3233 4129 
Q 3647 3509 3647 2328 
Q 3647 1150 3233 529 
Q 2819 -91 2034 -91 
Q 1250 -91 836 529 
Q 422 1150 422 2328 
Q 422 3509 836 4129 
Q 1250 4750 2034 4750 
z
" transform="scale(0.015625)"/>
       <path id="IBMPlexSans-5d" d="M 384 4864 
L 384 4461 
L 992 4461 
L 992 -480 
L 384 -480 
L 384 -883 
L 1434 -883 
L 1434 4864 
L 384 4864 
z
" transform="scale(0.015625)"/>
      </defs>
      <use xlink:href="#IBMPlexSans-42"/>
      <use xlink:href="#IBMPlexSans-6f" transform="translate(65.299988 0)"/>
      <use xlink:href="#IBMPlexSans-6e" transform="translate(121.299973 0)"/>
      <use xlink:href="#IBMPlexSans-64" transform="translate(178.09996 0)"/>
      <use xlink:href="#IBMPlexSans-20" transform="translate(236.099945 0)"/>
      <use xlink:href="#IBMPlexSans-6c" transform="translate(259.699936 0)"/>
      <use xlink:href="#IBMPlexSans-65" transform="translate(286.899933 0)"/>
      <use xlink:href="#IBMPlexSans-6e" transform="translate(341.799927 0)"/>
      <use xlink:href="#IBMPlexSans-67" transform="translate(398.599915 0)"/>
      <use xlink:href="#IBMPlexSans-74" transform="translate(451.399902 0)"/>
      <use xlink:href="#IBMPlexSans-68" transform="translate(486.499893 0)"/>
      <use xlink:href="#IBMPlexSans-20" transform="translate(543.299881 0)"/>
      <use xlink:href="#IBMPlexSans-5b" transform="translate(566.899872 0)"/>
      <use xlink:href="#IBMPlexSans-61" transform="translate(598.599869 0)"/>
      <use xlink:href="#DejaVuSans-30" transform="translate(652.956894 -16.40625) scale(0.7)"/>
      <use xlink:href="#IBMPlexSans-5d" transform="translate(700.227402 0)"/>
     </g>
    </g>
   </g>
   <g id="line2d_14">
    <path d="M 65.378458 150.619688 
L 66.2866 146.198324 
L 67.194743 131.766424 
L 68.102885 122.867367 
L 69.011027 105.76681 
L 69.919169 100.703216 
L 70.827311 106.364702 
L 71.735453 136.462289 
L 72.643595 153.789954 
L 73.551737 121.835237 
L 74.459879 123.943084 
L 75.368022 147.477336 
L 76.276164 140.424495 
L 77.184306 153.044572 
L 78.092448 151.275273 
L 79.00059 144.339735 
L 79.908732 139.495856 
L 80.816874 150.462135 
L 81.725016 119.796432 
L 82.633159 128.59607 
L 83.541301 133.801067 
L 84.449443 126.24311 
L 85.357585 140.163879 
L 86.265727 137.172873 
L 87.173869 138.915381 
L 88.082011 140.030366 
L 88.990153 137.014823 
L 89.898295 125.525412 
L 90.806438 97.709146 
L 92.622722 76.37419 
L 93.530864 79.000141 
L 94.439006 85.728955 
L 95.347148 89.819036 
L 96.25529 87.07155 
L 97.163432 120.874426 
L 98.071574 105.556101 
L 98.979717 100.660746 
L 99.887859 77.667122 
L 100.796001 75.632412 
L 101.704143 74.940431 
L 102.612285 91.478404 
L 103.520427 103.922205 
L 104.428569 112.969881 
L 105.336711 128.975453 
L 106.244854 123.619285 
L 107.152996 148.149242 
L 108.061138 141.195613 
L 108.96928 139.959281 
L 109.877422 145.976079 
L 111.693706 128.320674 
L 112.601848 147.70386 
L 113.50999 121.619444 
L 114.418133 117.666227 
L 115.326275 147.690927 
L 116.234417 149.124027 
L 117.142559 137.943522 
L 118.050701 133.475643 
L 118.958843 140.400618 
L 119.866985 153.57996 
L 120.775127 177.504903 
L 121.683269 161.922618 
L 122.591412 192.051169 
L 123.499554 183.006757 
L 124.407696 186.991771 
L 125.315838 190.017258 
L 126.22398 192.32301 
L 127.132122 174.688214 
L 128.040264 185.168641 
L 128.948406 215.237667 
L 129.856549 187.443075 
L 130.764691 179.544768 
L 131.672833 164.151367 
L 132.580975 165.433385 
L 133.489117 178.127188 
L 134.397259 184.707453 
L 135.305401 196.133029 
L 136.213543 190.608059 
L 137.121685 184.378215 
L 138.029828 175.19466 
L 138.93797 168.862256 
L 139.846112 151.635693 
L 140.754254 152.180506 
L 141.662396 130.132426 
L 142.570538 171.842353 
L 143.47868 194.512289 
L 144.386822 195.840668 
L 145.294965 169.791153 
L 146.203107 176.648244 
L 147.111249 151.075881 
L 148.019391 151.309678 
L 149.835675 142.148702 
L 150.743817 152.353531 
L 151.651959 160.684166 
L 152.560101 177.651793 
L 153.468244 177.29329 
L 154.376386 166.298895 
L 155.284528 200.152925 
L 156.19267 195.99884 
L 157.100812 208.871089 
L 158.008954 211.53188 
L 158.917096 214.842217 
L 159.825238 206.95921 
L 160.73338 219.540048 
L 161.641523 213.211205 
L 162.549665 217.793875 
L 163.457807 211.055753 
L 164.365949 182.395465 
L 166.182233 178.197845 
L 167.090375 188.617174 
L 167.998517 184.410204 
L 168.90666 163.586927 
L 169.814802 152.597024 
L 170.722944 170.923111 
L 171.631086 138.881779 
L 172.539228 138.072808 
L 173.44737 127.2982 
L 174.355512 142.329295 
L 176.171796 150.0803 
L 177.079939 146.118926 
L 177.988081 187.003874 
L 178.896223 194.424176 
L 179.804365 182.05146 
L 180.712507 153.862142 
L 181.620649 159.903009 
L 182.528791 175.029193 
L 183.436933 170.256637 
L 184.345075 149.166514 
L 185.253218 180.865817 
L 186.16136 180.077974 
L 187.069502 151.025122 
L 187.977644 132.908025 
L 188.885786 144.972171 
L 189.793928 171.90516 
L 190.70207 180.837644 
L 191.610212 198.388967 
L 192.518355 220.740337 
L 193.426497 215.685371 
L 194.334639 242.178448 
L 195.242781 223.314368 
L 196.150923 201.077704 
L 197.059065 202.161351 
L 197.967207 242.978693 
L 198.875349 199.552666 
L 199.783491 198.242804 
L 200.691634 209.190152 
L 201.599776 223.438827 
L 202.507918 218.34707 
L 203.41606 230.326251 
L 204.324202 231.932188 
L 205.232344 198.168975 
L 206.140486 193.991289 
L 207.048628 184.525215 
L 207.956771 194.156505 
L 208.864913 207.271736 
L 209.773055 215.71602 
L 210.681197 194.670307 
L 211.589339 185.966778 
L 212.497481 179.741719 
L 213.405623 183.857432 
L 214.313765 192.173909 
L 215.221907 215.239772 
L 216.13005 210.382954 
L 217.038192 216.324996 
L 217.946334 212.489692 
L 218.854476 191.191873 
L 219.762618 188.143713 
L 220.67076 195.807488 
L 221.578902 194.218954 
L 222.487044 212.147194 
L 223.395186 161.097834 
L 224.303329 174.44694 
L 225.211471 177.526763 
L 226.119613 174.041168 
L 227.027755 183.816866 
L 227.935897 197.619036 
L 228.844039 171.697106 
L 229.752181 182.688153 
L 230.660323 148.71759 
L 231.568466 160.395886 
L 232.476608 162.327512 
L 233.38475 165.157335 
L 234.292892 159.676258 
L 235.201034 169.073232 
L 236.109176 176.720091 
L 237.017318 171.330238 
L 237.92546 189.597255 
L 238.833602 193.922772 
L 239.741745 217.323234 
L 240.649887 198.492282 
L 241.558029 203.053666 
L 242.466171 189.832246 
L 243.374313 194.123936 
L 244.282455 226.369049 
L 245.190597 198.332175 
L 246.098739 175.910408 
L 247.006882 162.312363 
L 247.915024 137.568394 
L 248.823166 122.821268 
L 249.731308 128.626202 
L 250.63945 147.984867 
L 251.547592 139.340059 
L 252.455734 140.810332 
L 253.363876 146.567894 
L 255.180161 169.294698 
L 256.088303 182.60471 
L 256.996445 189.927949 
L 257.904587 196.154309 
L 258.812729 190.130503 
L 259.720871 200.567672 
L 260.629013 218.508115 
L 261.537155 231.517007 
L 262.445297 228.756085 
L 263.35344 218.918898 
L 264.261582 191.10649 
L 265.169724 206.701712 
L 266.077866 209.81567 
L 266.986008 204.747132 
L 267.89415 184.059193 
L 268.802292 199.050972 
L 269.710434 182.024243 
L 270.618577 203.623187 
L 271.526719 216.424156 
L 272.434861 225.914926 
L 273.343003 250.952157 
L 274.251145 214.300038 
L 275.159287 205.842684 
L 276.067429 219.365703 
L 276.975571 227.051771 
L 277.883713 215.192645 
L 278.791856 239.44181 
L 279.699998 235.677695 
L 280.60814 212.922631 
L 281.516282 221.539318 
L 282.424424 192.817943 
L 283.332566 199.551355 
L 284.240708 198.832592 
L 285.14885 171.304411 
L 286.056992 191.55781 
L 286.965135 185.917999 
L 287.873277 161.364425 
L 288.781419 146.87563 
L 289.689561 128.273265 
L 290.597703 105.758182 
L 291.505845 113.073852 
L 292.413987 92.457642 
L 293.322129 103.4122 
L 294.230272 96.258653 
L 295.138414 93.090419 
L 296.046556 95.207618 
L 296.954698 93.898029 
L 297.86284 86.960664 
L 298.770982 91.518881 
L 299.679124 78.715331 
L 300.587266 105.270099 
L 301.495408 117.464958 
L 302.403551 111.916071 
L 303.311693 96.203111 
L 304.219835 118.062788 
L 305.127977 135.167295 
L 306.036119 158.151663 
L 306.944261 177.77653 
L 307.852403 202.913212 
L 308.760545 211.737751 
L 309.668688 177.331742 
L 310.57683 212.235148 
L 311.484972 223.437145 
L 312.393114 196.729517 
L 313.301256 190.097734 
L 314.209398 186.006724 
L 315.11754 178.252405 
L 316.025682 191.047086 
L 316.933824 169.083067 
L 317.841967 159.900133 
L 318.750109 166.825459 
L 319.658251 161.422583 
L 320.566393 182.337192 
L 321.474535 199.790315 
L 322.382677 186.357069 
L 323.290819 165.867667 
L 324.198961 175.800237 
L 325.107103 150.943887 
L 326.015246 143.142414 
L 326.923388 137.605487 
L 327.83153 105.307869 
L 328.739672 99.714473 
L 329.647814 113.639902 
L 330.555956 112.790348 
L 331.464098 80.996943 
L 332.37224 87.914285 
L 333.280383 92.494402 
L 334.188525 84.036371 
L 335.096667 107.571335 
L 336.004809 122.269872 
L 336.912951 128.790604 
L 337.821093 158.911485 
L 338.729235 155.934994 
L 339.637377 158.463362 
L 340.545519 155.897852 
L 341.453662 147.837314 
L 342.361804 156.539509 
L 343.269946 193.038403 
L 344.178088 202.059976 
L 345.08623 218.159023 
L 345.994372 229.191388 
L 346.902514 231.358939 
L 347.810656 215.916251 
L 348.718799 184.269129 
L 349.626941 171.296677 
L 350.535083 181.825788 
L 351.443225 179.356375 
L 352.351367 153.857684 
L 353.259509 180.749953 
L 354.167651 175.944003 
L 355.075793 210.575196 
L 355.983935 179.237691 
L 356.892078 195.663815 
L 357.80022 165.881937 
L 358.708362 205.401066 
L 359.616504 200.933545 
L 360.524646 193.268706 
L 361.432788 178.081686 
L 362.34093 188.636504 
L 363.249072 190.38703 
L 364.157214 183.935956 
L 365.973499 128.674841 
L 366.881641 146.720318 
L 367.789783 156.517766 
L 368.697925 160.692429 
L 369.606067 174.249585 
L 370.514209 155.744435 
L 371.422351 134.376281 
L 372.330494 125.59983 
L 373.238636 134.160649 
L 374.146778 135.466142 
L 375.05492 109.236709 
L 375.963062 144.901375 
L 376.871204 126.721715 
L 377.779346 134.365778 
L 378.687488 133.045537 
L 379.59563 148.588924 
L 380.503773 144.004045 
L 381.411915 152.455392 
L 382.320057 152.521692 
L 383.228199 145.56566 
L 384.136341 144.520508 
L 385.044483 152.691997 
L 385.952625 197.464137 
L 386.860767 196.219671 
L 387.768909 194.095162 
L 388.677052 182.103482 
L 389.585194 181.406342 
L 390.493336 146.553178 
L 391.401478 164.60167 
L 393.217762 182.508251 
L 394.125904 201.160447 
L 395.034046 209.802774 
L 395.942189 183.293869 
L 396.850331 181.867381 
L 397.758473 197.27948 
L 398.666615 205.144623 
L 399.574757 205.911932 
L 400.482899 226.851591 
L 401.391041 207.442853 
L 402.299183 229.026001 
L 404.115468 224.890758 
L 405.02361 233.224876 
L 405.931752 250.887264 
L 406.839894 251.784841 
L 407.748036 234.729044 
L 408.656178 238.346408 
L 409.56432 247.007935 
L 410.472462 251.835174 
L 411.380605 243.865717 
L 412.288747 263.64636 
L 413.196889 236.713506 
L 414.105031 230.260634 
L 415.013173 209.650719 
L 415.921315 207.85263 
L 416.829457 209.129128 
L 417.737599 211.504047 
L 418.645741 184.578489 
L 419.553884 181.575747 
L 420.462026 204.249285 
L 421.370168 200.469399 
L 422.27831 233.584306 
L 423.186452 217.145093 
L 424.094594 212.663618 
L 425.002736 227.557885 
L 425.910878 216.498229 
L 426.81902 213.733478 
L 427.727163 222.456963 
L 428.635305 235.18033 
L 429.543447 192.098473 
L 430.451589 201.291954 
L 432.267873 177.212689 
L 433.176015 161.189504 
L 434.084157 161.398866 
L 434.9923 162.15569 
L 435.900442 125.774137 
L 436.808584 135.897345 
L 437.716726 127.5623 
L 438.624868 134.808716 
L 439.53301 122.007762 
L 440.441152 128.619369 
L 441.349294 131.957451 
L 442.257436 128.245536 
L 443.165579 104.482047 
L 444.073721 107.728179 
L 444.981863 116.730591 
L 445.890005 110.912811 
L 446.798147 119.482296 
L 447.706289 100.319616 
L 448.614431 62.464635 
L 449.522573 37.401555 
L 450.430716 46.092867 
L 451.338858 89.645279 
L 452.247 115.462362 
L 453.155142 122.396698 
L 454.063284 132.157566 
L 454.971426 143.548451 
L 455.879568 146.961495 
L 456.78771 156.057275 
L 457.695852 157.633985 
L 458.603995 164.62016 
L 459.512137 164.690424 
L 460.420279 178.028923 
L 461.328421 162.857026 
L 462.236563 125.182486 
L 463.144705 139.863507 
L 464.052847 145.327202 
L 464.960989 152.205599 
L 465.869131 177.092909 
L 466.777274 179.090724 
L 467.685416 189.152205 
L 468.593558 171.938172 
L 469.5017 171.091241 
L 470.409842 181.940713 
L 471.317984 168.849245 
L 472.226126 148.715425 
L 473.134268 157.119511 
L 474.042411 203.218954 
L 474.950553 201.021005 
L 475.858695 187.184501 
L 476.766837 209.27292 
L 477.674979 225.940092 
L 478.583121 223.545507 
L 479.491263 230.757951 
L 480.399405 209.747946 
L 481.307547 198.946553 
L 482.21569 192.092813 
L 483.123832 209.008768 
L 484.031974 177.072418 
L 484.940116 197.281756 
L 485.848258 211.811478 
L 486.7564 206.955979 
L 487.664542 189.519551 
L 488.572684 201.41271 
L 489.480826 191.858749 
L 490.388969 178.435115 
L 491.297111 183.556266 
L 492.205253 163.103775 
L 493.113395 177.019961 
L 494.021537 155.030336 
L 494.929679 171.802865 
L 495.837821 169.477148 
L 496.745963 180.387158 
L 497.654106 178.858568 
L 498.562248 177.942991 
L 499.47039 191.514705 
L 500.378532 154.949457 
L 501.286674 141.220075 
L 502.194816 163.019661 
L 503.102958 161.009797 
L 504.0111 157.3136 
L 504.919242 151.425629 
L 505.827385 156.512733 
L 507.643669 194.520684 
L 508.551811 204.578651 
L 509.459953 216.640473 
L 510.368095 192.877846 
L 511.276237 180.488241 
L 512.184379 166.546618 
L 513.092522 156.323227 
L 514.000664 168.23476 
L 514.908806 160.381239 
L 515.816948 156.168441 
L 516.72509 138.599949 
L 517.633232 135.382552 
L 518.541374 141.79002 
L 518.541374 141.79002 
" clip-path="url(#p08e1bbfcb1)" style="fill: none; stroke: #1f77b4; stroke-width: 1.5; stroke-linecap: square"/>
   </g>
   <g id="line2d_15">
    <path d="M 65.378458 154.395987 
L 66.2866 155.21659 
L 67.194743 161.735911 
L 68.102885 134.634698 
L 69.011027 130.432241 
L 69.919169 84.701516 
L 70.827311 87.716246 
L 71.735453 58.661918 
L 72.643595 58.580456 
L 73.551737 59.125451 
L 74.459879 69.971059 
L 75.368022 61.938413 
L 76.276164 62.835263 
L 77.184306 80.748321 
L 78.092448 94.455532 
L 79.00059 101.287754 
L 79.908732 113.302379 
L 80.816874 119.642864 
L 81.725016 115.921721 
L 82.633159 113.171443 
L 83.541301 126.152588 
L 84.449443 114.651641 
L 85.357585 113.125364 
L 86.265727 108.394069 
L 87.173869 97.617496 
L 88.082011 91.625174 
L 88.990153 107.221454 
L 89.898295 84.277946 
L 90.806438 112.462011 
L 92.622722 139.267906 
L 93.530864 111.515259 
L 94.439006 120.783026 
L 95.347148 174.688786 
L 96.25529 175.595828 
L 97.163432 181.607605 
L 98.071574 197.876713 
L 98.979717 204.306554 
L 99.887859 191.612787 
L 100.796001 204.871564 
L 101.704143 199.895839 
L 102.612285 176.40496 
L 103.520427 164.549839 
L 104.428569 157.48833 
L 105.336711 171.585365 
L 106.244854 189.391138 
L 107.152996 183.174419 
L 108.061138 181.812471 
L 108.96928 171.402192 
L 109.877422 179.878326 
L 110.785564 162.461217 
L 111.693706 136.867604 
L 112.601848 151.979217 
L 113.50999 160.988599 
L 114.418133 137.006957 
L 115.326275 168.177369 
L 116.234417 154.073614 
L 118.050701 136.868683 
L 118.958843 130.176401 
L 119.866985 144.794456 
L 120.775127 125.223665 
L 121.683269 158.791688 
L 122.591412 136.624369 
L 123.499554 122.826896 
L 124.407696 113.342896 
L 125.315838 96.17363 
L 126.22398 82.70365 
L 127.132122 92.53148 
L 128.040264 95.232244 
L 128.948406 110.307376 
L 129.856549 118.935365 
L 130.764691 118.563708 
L 131.672833 118.312264 
L 132.580975 140.381183 
L 133.489117 130.682482 
L 134.397259 146.516109 
L 135.305401 139.819086 
L 136.213543 123.502843 
L 137.121685 121.186398 
L 138.029828 101.110791 
L 138.93797 107.123053 
L 139.846112 103.081624 
L 140.754254 74.06489 
L 141.662396 96.12127 
L 142.570538 98.186373 
L 143.47868 96.132352 
L 145.294965 106.921822 
L 146.203107 121.709884 
L 147.111249 109.328363 
L 148.019391 124.390589 
L 148.927533 115.082141 
L 149.835675 111.234692 
L 150.743817 120.738786 
L 151.651959 114.839816 
L 152.560101 155.76445 
L 153.468244 154.338159 
L 154.376386 138.641191 
L 155.284528 155.897094 
L 156.19267 163.718045 
L 157.100812 163.066958 
L 158.008954 157.384576 
L 158.917096 139.51907 
L 159.825238 118.290317 
L 160.73338 120.106018 
L 162.549665 95.181948 
L 163.457807 84.785352 
L 164.365949 85.092067 
L 165.274091 85.126038 
L 166.182233 73.996076 
L 167.090375 76.831718 
L 167.998517 63.478758 
L 168.90666 43.980884 
L 169.814802 33.58316 
L 170.722944 33.754183 
L 171.631086 59.384829 
L 172.539228 47.465776 
L 173.44737 77.098877 
L 174.355512 99.513326 
L 175.263654 127.769556 
L 176.171796 125.379558 
L 177.079939 130.258928 
L 177.988081 125.634727 
L 178.896223 123.084492 
L 179.804365 125.432695 
L 180.712507 121.223509 
L 181.620649 114.936599 
L 182.528791 95.206068 
L 183.436933 83.185261 
L 184.345075 81.42488 
L 185.253218 88.160612 
L 186.16136 93.25995 
L 187.069502 127.402648 
L 187.977644 119.167955 
L 188.885786 122.895613 
L 189.793928 104.352869 
L 190.70207 100.083242 
L 191.610212 138.950442 
L 192.518355 164.709343 
L 193.426497 182.063116 
L 194.334639 159.542057 
L 195.242781 195.000259 
L 196.150923 152.819644 
L 197.059065 167.936032 
L 197.967207 154.454978 
L 198.875349 175.093713 
L 199.783491 164.658294 
L 201.599776 125.753924 
L 202.507918 133.02199 
L 203.41606 138.627612 
L 204.324202 156.059021 
L 205.232344 162.064184 
L 206.140486 174.01898 
L 207.048628 172.956539 
L 207.956771 174.73053 
L 208.864913 184.232971 
L 209.773055 215.922531 
L 210.681197 216.561698 
L 211.589339 213.588397 
L 212.497481 212.684069 
L 213.405623 212.557236 
L 214.313765 208.673349 
L 215.221907 218.896443 
L 216.13005 213.313417 
L 217.038192 199.081667 
L 217.946334 194.441847 
L 218.854476 183.690311 
L 219.762618 165.886499 
L 220.67076 130.764227 
L 221.578902 138.943031 
L 222.487044 130.130868 
L 223.395186 142.372254 
L 224.303329 148.392015 
L 225.211471 123.20735 
L 226.119613 125.252028 
L 227.027755 136.965396 
L 227.935897 134.875352 
L 228.844039 95.436239 
L 229.752181 97.42648 
L 230.660323 125.698953 
L 231.568466 139.6059 
L 232.476608 150.125119 
L 233.38475 156.847229 
L 234.292892 147.864631 
L 235.201034 149.24269 
L 236.109176 149.659765 
L 237.017318 134.504008 
L 237.92546 148.143909 
L 238.833602 160.05969 
L 239.741745 176.92785 
L 240.649887 183.666234 
L 241.558029 176.952657 
L 242.466171 175.31287 
L 243.374313 171.113327 
L 244.282455 152.289296 
L 245.190597 148.287131 
L 246.098739 150.068028 
L 247.006882 175.831171 
L 247.915024 176.846193 
L 248.823166 191.434469 
L 249.731308 177.862421 
L 250.63945 180.208019 
L 251.547592 203.750721 
L 252.455734 232.159179 
L 253.363876 234.804317 
L 254.272018 230.406873 
L 255.180161 232.794808 
L 256.088303 230.769199 
L 256.996445 226.653869 
L 258.812729 171.669638 
L 259.720871 175.800038 
L 260.629013 158.636724 
L 262.445297 176.205809 
L 263.35344 179.661894 
L 264.261582 166.90431 
L 265.169724 170.557628 
L 266.077866 174.692131 
L 267.89415 211.358723 
L 268.802292 183.3715 
L 269.710434 187.908739 
L 270.618577 167.136457 
L 271.526719 163.191692 
L 272.434861 188.088723 
L 273.343003 191.557397 
L 274.251145 215.859578 
L 275.159287 191.843172 
L 276.975571 215.453542 
L 277.883713 219.290176 
L 278.791856 211.689426 
L 279.699998 201.274205 
L 280.60814 207.134273 
L 281.516282 171.987804 
L 282.424424 184.836994 
L 283.332566 192.833055 
L 284.240708 203.55697 
L 285.14885 217.415957 
L 286.056992 215.730533 
L 287.873277 182.922862 
L 288.781419 157.729992 
L 289.689561 154.626608 
L 290.597703 182.159359 
L 292.413987 164.355075 
L 293.322129 150.056063 
L 294.230272 148.7385 
L 295.138414 141.174789 
L 296.046556 118.245035 
L 297.86284 88.518518 
L 298.770982 125.89336 
L 299.679124 114.074744 
L 300.587266 121.869577 
L 301.495408 147.689482 
L 302.403551 152.955859 
L 303.311693 154.917547 
L 304.219835 150.223633 
L 305.127977 153.81593 
L 306.036119 162.198347 
L 306.944261 184.38944 
L 307.852403 176.229601 
L 308.760545 195.810409 
L 309.668688 185.13772 
L 310.57683 164.519648 
L 311.484972 160.503344 
L 313.301256 136.238834 
L 314.209398 114.444831 
L 315.11754 105.219986 
L 316.025682 103.711877 
L 316.933824 113.797537 
L 317.841967 81.522227 
L 319.658251 110.582693 
L 320.566393 103.768133 
L 321.474535 103.967179 
L 322.382677 105.218492 
L 323.290819 115.233869 
L 324.198961 106.914748 
L 325.107103 111.906262 
L 326.015246 98.831495 
L 326.923388 133.517876 
L 327.83153 135.976026 
L 328.739672 120.397279 
L 329.647814 143.645427 
L 330.555956 131.8097 
L 331.464098 128.485978 
L 332.37224 155.865322 
L 333.280383 177.585692 
L 334.188525 167.80352 
L 335.096667 171.259534 
L 336.004809 147.126871 
L 336.912951 146.088076 
L 337.821093 155.017511 
L 338.729235 131.994398 
L 339.637377 144.613655 
L 340.545519 142.336001 
L 341.453662 124.966854 
L 342.361804 122.62315 
L 343.269946 146.069613 
L 344.178088 123.022021 
L 345.08623 117.897292 
L 345.994372 130.22344 
L 346.902514 119.986234 
L 347.810656 135.808126 
L 348.718799 147.282882 
L 349.626941 147.300398 
L 350.535083 142.97288 
L 351.443225 142.620974 
L 352.351367 145.977018 
L 353.259509 146.1655 
L 354.167651 136.839131 
L 355.983935 155.437057 
L 356.892078 156.731498 
L 357.80022 162.734927 
L 358.708362 174.034358 
L 359.616504 180.920161 
L 360.524646 185.445662 
L 361.432788 169.482437 
L 363.249072 178.738386 
L 364.157214 152.889 
L 365.065357 141.219584 
L 365.973499 148.482619 
L 367.789783 157.892265 
L 368.697925 157.274115 
L 369.606067 183.244794 
L 370.514209 161.436813 
L 372.330494 185.606364 
L 373.238636 193.737113 
L 374.146778 181.368304 
L 375.963062 201.748592 
L 376.871204 200.719174 
L 377.779346 208.398962 
L 378.687488 193.027312 
L 379.59563 197.710729 
L 380.503773 178.797988 
L 381.411915 182.089513 
L 382.320057 215.648509 
L 383.228199 224.614072 
L 384.136341 226.429541 
L 385.044483 234.419362 
L 385.952625 215.290345 
L 386.860767 221.2441 
L 387.768909 222.257092 
L 388.677052 219.500599 
L 389.585194 217.293077 
L 390.493336 220.771862 
L 391.401478 198.125033 
L 392.30962 199.817363 
L 393.217762 206.893416 
L 394.125904 194.86141 
L 395.034046 167.004441 
L 395.942189 195.550234 
L 396.850331 190.021476 
L 397.758473 196.191516 
L 398.666615 198.216319 
L 399.574757 194.719749 
L 400.482899 188.471047 
L 401.391041 183.197067 
L 402.299183 199.05717 
L 403.207325 197.843199 
L 404.115468 202.489882 
L 405.02361 201.052419 
L 406.839894 239.178584 
L 407.748036 227.213117 
L 408.656178 203.750563 
L 409.56432 218.216273 
L 410.472462 185.098933 
L 411.380605 173.813844 
L 412.288747 182.534732 
L 413.196889 177.060477 
L 414.105031 165.635859 
L 415.013173 160.474564 
L 415.921315 158.214193 
L 416.829457 147.664617 
L 418.645741 152.415808 
L 419.553884 176.451962 
L 420.462026 176.509532 
L 422.27831 195.723434 
L 423.186452 156.942067 
L 424.094594 164.991519 
L 425.002736 143.359449 
L 425.910878 134.92931 
L 426.81902 120.791189 
L 427.727163 131.537825 
L 428.635305 129.559421 
L 429.543447 115.781217 
L 430.451589 133.643938 
L 431.359731 141.521574 
L 432.267873 158.104963 
L 433.176015 152.579665 
L 434.084157 159.772061 
L 434.9923 174.440916 
L 435.900442 169.334325 
L 436.808584 185.731927 
L 437.716726 162.628055 
L 438.624868 165.692128 
L 439.53301 173.822999 
L 440.441152 209.520542 
L 441.349294 187.828239 
L 442.257436 178.769705 
L 444.073721 197.017152 
L 444.981863 202.877343 
L 445.890005 195.968441 
L 446.798147 201.80318 
L 447.706289 209.053104 
L 448.614431 214.45495 
L 449.522573 209.966779 
L 450.430716 209.158304 
L 451.338858 193.610229 
L 452.247 193.212079 
L 453.155142 211.145487 
L 454.063284 200.120046 
L 455.879568 219.442916 
L 456.78771 232.438557 
L 457.695852 224.001436 
L 458.603995 230.503721 
L 459.512137 228.619865 
L 460.420279 239.041782 
L 461.328421 243.37132 
L 462.236563 226.192411 
L 463.144705 217.892672 
L 464.052847 188.008817 
L 464.960989 186.605731 
L 465.869131 200.140937 
L 466.777274 188.481093 
L 467.685416 216.207959 
L 468.593558 210.502996 
L 469.5017 222.192917 
L 470.409842 218.208209 
L 471.317984 208.535019 
L 472.226126 201.805749 
L 473.134268 183.271726 
L 474.042411 178.78153 
L 474.950553 183.725564 
L 475.858695 178.118711 
L 476.766837 196.542433 
L 477.674979 182.175716 
L 478.583121 213.256181 
L 479.491263 215.524807 
L 480.399405 199.168033 
L 481.307547 197.951114 
L 482.21569 193.422258 
L 483.123832 180.547512 
L 484.031974 161.256987 
L 484.940116 171.319734 
L 485.848258 142.803808 
L 486.7564 128.360515 
L 487.664542 118.27604 
L 488.572684 105.437769 
L 489.480826 105.361785 
L 490.388969 92.584339 
L 491.297111 97.802044 
L 492.205253 99.124288 
L 493.113395 110.244272 
L 494.021537 128.188359 
L 494.929679 128.818279 
L 496.745963 158.608662 
L 497.654106 156.135355 
L 498.562248 155.883898 
L 499.47039 154.600095 
L 500.378532 181.845885 
L 501.286674 170.493287 
L 502.194816 183.673039 
L 503.102958 183.579115 
L 504.0111 187.290856 
L 504.919242 206.005288 
L 505.827385 201.760057 
L 506.735527 190.18264 
L 508.551811 129.278662 
L 509.459953 132.752311 
L 510.368095 127.923464 
L 511.276237 142.863327 
L 512.184379 151.688392 
L 513.092522 151.064043 
L 514.000664 127.947121 
L 514.908806 132.598073 
L 515.816948 153.00263 
L 516.72509 158.240257 
L 517.633232 166.032411 
L 518.541374 170.37371 
L 518.541374 170.37371 
" clip-path="url(#p08e1bbfcb1)" style="fill: none; stroke: #ff7f0e; stroke-width: 1.5; stroke-linecap: square"/>
   </g>
   <g id="line2d_16">
    <path d="M 65.378458 166.15454 
L 66.2866 181.26457 
L 67.194743 179.98363 
L 68.102885 180.082994 
L 69.011027 169.444567 
L 69.919169 153.186511 
L 70.827311 162.341217 
L 71.735453 173.553323 
L 72.643595 175.042266 
L 73.551737 164.198385 
L 74.459879 191.204899 
L 75.368022 159.987728 
L 76.276164 168.393266 
L 77.184306 150.564977 
L 78.092448 158.569135 
L 79.00059 145.920254 
L 79.908732 155.259322 
L 80.816874 159.086556 
L 81.725016 157.191792 
L 82.633159 151.181212 
L 83.541301 138.186782 
L 84.449443 152.894763 
L 85.357585 146.974972 
L 86.265727 132.523663 
L 87.173869 137.140494 
L 88.082011 128.028943 
L 88.990153 151.490722 
L 89.898295 150.548164 
L 90.806438 136.91703 
L 91.71458 110.244186 
L 92.622722 121.041631 
L 93.530864 122.357284 
L 94.439006 123.203308 
L 95.347148 142.979217 
L 96.25529 141.927736 
L 97.163432 136.540933 
L 98.071574 137.672675 
L 98.979717 119.772042 
L 99.887859 144.110795 
L 100.796001 141.973922 
L 101.704143 130.644857 
L 103.520427 123.97412 
L 104.428569 102.76406 
L 105.336711 63.241412 
L 106.244854 83.510501 
L 107.152996 70.964139 
L 108.061138 62.726665 
L 108.96928 63.798165 
L 109.877422 80.167215 
L 110.785564 82.977604 
L 111.693706 79.159647 
L 112.601848 91.391163 
L 113.50999 83.368683 
L 114.418133 67.485648 
L 115.326275 79.731342 
L 116.234417 79.21844 
L 117.142559 59.725034 
L 118.050701 82.620508 
L 118.958843 85.677416 
L 119.866985 71.076594 
L 120.775127 88.859446 
L 121.683269 96.429935 
L 122.591412 96.274267 
L 123.499554 91.726694 
L 124.407696 89.310888 
L 125.315838 93.050795 
L 126.22398 96.213027 
L 127.132122 98.971536 
L 128.040264 84.320204 
L 128.948406 93.796699 
L 129.856549 108.058585 
L 130.764691 125.111052 
L 131.672833 125.590324 
L 132.580975 116.347142 
L 133.489117 93.434685 
L 134.397259 99.916307 
L 135.305401 123.576609 
L 136.213543 123.912262 
L 137.121685 133.756393 
L 138.029828 122.657389 
L 138.93797 129.864534 
L 139.846112 114.822821 
L 140.754254 117.775144 
L 141.662396 116.6492 
L 142.570538 97.696079 
L 143.47868 65.006653 
L 144.386822 56.511278 
L 145.294965 58.233787 
L 146.203107 71.004826 
L 147.111249 69.982277 
L 148.019391 64.748509 
L 148.927533 53.949541 
L 149.835675 54.412073 
L 150.743817 57.060103 
L 151.651959 58.799984 
L 152.560101 58.693553 
L 153.468244 57.790384 
L 154.376386 50.330309 
L 155.284528 41.37059 
L 156.19267 49.903465 
L 157.100812 51.307568 
L 158.008954 63.875488 
L 158.917096 73.17488 
L 159.825238 79.548517 
L 160.73338 104.794301 
L 161.641523 92.00044 
L 162.549665 94.127342 
L 163.457807 97.187111 
L 164.365949 97.356868 
L 165.274091 79.475811 
L 166.182233 88.83188 
L 167.090375 120.357858 
L 167.998517 147.779338 
L 168.90666 128.276917 
L 169.814802 138.14742 
L 170.722944 162.799965 
L 171.631086 158.533022 
L 172.539228 137.772822 
L 173.44737 137.218128 
L 174.355512 138.294282 
L 175.263654 136.06355 
L 176.171796 149.622064 
L 177.079939 145.101666 
L 177.988081 147.263976 
L 179.804365 169.707143 
L 180.712507 172.403367 
L 181.620649 156.256665 
L 182.528791 187.398215 
L 183.436933 162.39198 
L 186.16136 133.279716 
L 187.069502 160.734562 
L 187.977644 164.773014 
L 188.885786 160.103612 
L 189.793928 144.558285 
L 190.70207 158.609655 
L 191.610212 161.881854 
L 192.518355 145.974713 
L 193.426497 156.70062 
L 194.334639 158.981438 
L 195.242781 142.565938 
L 196.150923 152.704893 
L 197.059065 161.53965 
L 197.967207 150.709922 
L 198.875349 171.649712 
L 199.783491 177.79907 
L 200.691634 163.830097 
L 201.599776 170.082347 
L 202.507918 175.358877 
L 203.41606 169.806317 
L 204.324202 192.007629 
L 205.232344 186.724753 
L 206.140486 186.000536 
L 207.048628 160.105629 
L 207.956771 182.751175 
L 208.864913 180.972289 
L 209.773055 176.478614 
L 210.681197 198.250182 
L 211.589339 212.349555 
L 212.497481 207.660652 
L 213.405623 198.428414 
L 214.313765 181.149299 
L 215.221907 191.62822 
L 216.13005 212.046276 
L 217.038192 214.797951 
L 217.946334 183.677815 
L 218.854476 205.317223 
L 219.762618 212.851823 
L 220.67076 207.90351 
L 221.578902 205.346121 
L 222.487044 200.348993 
L 223.395186 208.171992 
L 224.303329 201.794734 
L 226.119613 223.644458 
L 227.027755 208.244619 
L 227.935897 179.761586 
L 228.844039 186.933845 
L 229.752181 185.049881 
L 230.660323 165.065191 
L 231.568466 165.614558 
L 232.476608 180.200296 
L 233.38475 178.10897 
L 234.292892 168.015498 
L 235.201034 179.860342 
L 236.109176 209.089618 
L 237.017318 245.841263 
L 237.92546 211.756131 
L 238.833602 209.931825 
L 239.741745 202.620979 
L 240.649887 190.693394 
L 241.558029 190.215466 
L 244.282455 219.648461 
L 245.190597 207.175346 
L 246.098739 215.292561 
L 247.006882 210.512846 
L 247.915024 208.141884 
L 248.823166 199.349893 
L 249.731308 203.264406 
L 250.63945 198.572225 
L 251.547592 206.45351 
L 252.455734 190.259477 
L 253.363876 178.710063 
L 254.272018 148.862493 
L 255.180161 166.165204 
L 256.088303 153.176977 
L 256.996445 149.491805 
L 257.904587 144.620976 
L 258.812729 169.776039 
L 259.720871 178.141904 
L 260.629013 178.892906 
L 261.537155 176.947867 
L 263.35344 160.023571 
L 264.261582 161.062457 
L 265.169724 178.415108 
L 266.077866 190.341801 
L 266.986008 180.778714 
L 267.89415 181.418653 
L 268.802292 183.609519 
L 269.710434 167.118294 
L 270.618577 176.787451 
L 271.526719 149.646751 
L 272.434861 167.738966 
L 273.343003 158.004741 
L 274.251145 156.532267 
L 275.159287 167.34647 
L 276.067429 157.978437 
L 276.975571 177.440582 
L 277.883713 170.256457 
L 278.791856 185.316746 
L 279.699998 172.049299 
L 280.60814 200.581152 
L 281.516282 174.009482 
L 282.424424 174.030179 
L 283.332566 174.309578 
L 284.240708 173.814093 
L 285.14885 168.810435 
L 286.056992 162.193535 
L 286.965135 164.097416 
L 287.873277 145.699191 
L 288.781419 120.336711 
L 289.689561 111.16803 
L 290.597703 119.245528 
L 291.505845 130.002027 
L 293.322129 163.066987 
L 294.230272 149.53529 
L 295.138414 146.982956 
L 296.046556 154.050757 
L 296.954698 140.600671 
L 297.86284 192.887624 
L 298.770982 187.614362 
L 299.679124 194.85053 
L 300.587266 182.260461 
L 301.495408 178.536914 
L 302.403551 179.032196 
L 303.311693 178.746213 
L 304.219835 175.877382 
L 305.127977 177.496258 
L 306.036119 202.095506 
L 306.944261 194.70533 
L 307.852403 159.741943 
L 308.760545 187.572823 
L 309.668688 163.797437 
L 310.57683 170.778283 
L 311.484972 141.19523 
L 312.393114 132.452992 
L 313.301256 133.329097 
L 314.209398 136.403489 
L 315.11754 159.858673 
L 316.025682 143.076478 
L 317.841967 173.289813 
L 318.750109 180.988859 
L 319.658251 176.058582 
L 320.566393 162.064557 
L 321.474535 143.455702 
L 322.382677 135.104826 
L 323.290819 133.096816 
L 324.198961 128.41839 
L 325.107103 147.99475 
L 326.015246 146.42293 
L 326.923388 150.696004 
L 327.83153 159.081544 
L 328.739672 185.922298 
L 329.647814 163.962397 
L 330.555956 157.5578 
L 331.464098 160.173799 
L 332.37224 154.595751 
L 333.280383 160.144566 
L 334.188525 152.478542 
L 335.096667 148.019863 
L 336.004809 155.726167 
L 336.912951 137.443273 
L 337.821093 175.305556 
L 338.729235 166.207341 
L 339.637377 165.732872 
L 340.545519 188.758199 
L 341.453662 197.502193 
L 342.361804 212.050108 
L 343.269946 206.845982 
L 344.178088 188.882945 
L 345.08623 145.827903 
L 345.994372 170.372357 
L 346.902514 173.034619 
L 347.810656 168.171675 
L 348.718799 170.080781 
L 349.626941 177.224248 
L 350.535083 187.737094 
L 352.351367 161.155025 
L 354.167651 181.152067 
L 355.075793 180.772477 
L 355.983935 193.263651 
L 356.892078 202.762502 
L 357.80022 187.628938 
L 358.708362 162.46495 
L 359.616504 158.474932 
L 360.524646 143.107373 
L 361.432788 124.513774 
L 362.34093 158.536072 
L 363.249072 145.295712 
L 364.157214 148.054855 
L 365.065357 169.327796 
L 365.973499 181.058406 
L 366.881641 205.036636 
L 367.789783 184.940888 
L 368.697925 200.234425 
L 369.606067 202.087181 
L 370.514209 190.406827 
L 371.422351 221.779451 
L 372.330494 215.584819 
L 373.238636 215.43694 
L 374.146778 186.173351 
L 375.05492 183.30269 
L 375.963062 195.834386 
L 376.871204 150.44833 
L 377.779346 154.214639 
L 378.687488 142.823728 
L 379.59563 160.921028 
L 380.503773 173.364079 
L 381.411915 200.710979 
L 382.320057 170.997043 
L 383.228199 177.822943 
L 384.136341 178.371386 
L 385.044483 183.738395 
L 385.952625 217.245173 
L 386.860767 226.421777 
L 387.768909 218.740235 
L 388.677052 200.86225 
L 389.585194 205.916556 
L 390.493336 212.887145 
L 391.401478 205.12288 
L 392.30962 175.464536 
L 393.217762 214.453956 
L 394.125904 177.923916 
L 395.034046 180.301593 
L 395.942189 198.480653 
L 396.850331 196.817504 
L 397.758473 179.388275 
L 398.666615 174.771021 
L 399.574757 163.368967 
L 400.482899 163.867158 
L 401.391041 185.164353 
L 402.299183 178.617056 
L 403.207325 185.22927 
L 404.115468 198.677994 
L 405.02361 194.694356 
L 405.931752 174.454511 
L 406.839894 178.380712 
L 407.748036 181.143537 
L 408.656178 189.732087 
L 409.56432 168.47744 
L 410.472462 167.923246 
L 411.380605 169.095389 
L 412.288747 149.12941 
L 413.196889 152.584041 
L 414.105031 156.789885 
L 415.013173 174.494044 
L 415.921315 168.510845 
L 417.737599 187.361441 
L 418.645741 170.98097 
L 419.553884 187.956055 
L 420.462026 183.428881 
L 421.370168 193.906898 
L 422.27831 190.477119 
L 423.186452 179.633955 
L 424.094594 172.577637 
L 425.002736 159.073043 
L 425.910878 134.491056 
L 426.81902 126.575596 
L 427.727163 129.523048 
L 428.635305 141.362871 
L 429.543447 122.580657 
L 430.451589 136.099205 
L 431.359731 124.306821 
L 432.267873 108.066063 
L 433.176015 145.249027 
L 434.084157 146.806404 
L 434.9923 150.283195 
L 435.900442 158.526893 
L 436.808584 175.937371 
L 437.716726 172.6956 
L 438.624868 171.750039 
L 439.53301 193.346311 
L 440.441152 187.859447 
L 441.349294 164.645028 
L 442.257436 157.668963 
L 443.165579 194.496262 
L 444.073721 211.979161 
L 444.981863 198.039581 
L 445.890005 189.017846 
L 446.798147 194.302519 
L 447.706289 178.064143 
L 449.522573 157.430256 
L 451.338858 163.46427 
L 452.247 191.523079 
L 453.155142 199.942984 
L 454.063284 180.425716 
L 454.971426 188.030856 
L 455.879568 208.309218 
L 456.78771 185.711621 
L 457.695852 181.018551 
L 458.603995 166.455367 
L 459.512137 161.544138 
L 460.420279 144.175516 
L 461.328421 145.027313 
L 462.236563 142.578754 
L 463.144705 143.723034 
L 464.052847 150.199338 
L 464.960989 195.644083 
L 465.869131 195.898867 
L 466.777274 189.640384 
L 467.685416 198.691359 
L 468.593558 198.332625 
L 469.5017 185.279319 
L 471.317984 167.1707 
L 472.226126 141.335973 
L 473.134268 145.883891 
L 474.042411 146.738398 
L 474.950553 160.676388 
L 475.858695 169.358272 
L 476.766837 176.608994 
L 478.583121 168.441711 
L 479.491263 150.68128 
L 480.399405 167.299343 
L 481.307547 155.187695 
L 482.21569 132.345461 
L 483.123832 129.581254 
L 484.031974 139.760462 
L 484.940116 159.435158 
L 485.848258 184.793655 
L 486.7564 195.380002 
L 487.664542 169.423386 
L 488.572684 171.730446 
L 489.480826 162.476868 
L 490.388969 165.746266 
L 491.297111 157.301857 
L 492.205253 138.889504 
L 493.113395 135.74852 
L 494.021537 116.765927 
L 494.929679 104.852922 
L 495.837821 77.136621 
L 496.745963 94.0146 
L 498.562248 120.642727 
L 499.47039 125.386319 
L 500.378532 127.12495 
L 501.286674 139.572609 
L 502.194816 102.206048 
L 503.102958 131.053791 
L 504.0111 147.444796 
L 504.919242 177.870923 
L 505.827385 198.681629 
L 506.735527 200.000439 
L 507.643669 190.175925 
L 508.551811 166.677616 
L 509.459953 188.542625 
L 510.368095 197.1814 
L 511.276237 172.74866 
L 512.184379 166.623746 
L 513.092522 170.623791 
L 514.000664 172.510905 
L 514.908806 168.968278 
L 515.816948 148.240152 
L 516.72509 138.189605 
L 517.633232 151.880813 
L 518.541374 163.290616 
L 518.541374 163.290616 
" clip-path="url(#p08e1bbfcb1)" style="fill: none; stroke: #2ca02c; stroke-width: 1.5; stroke-linecap: square"/>
   </g>
   <g id="patch_3">
    <path d="M 42.720313 275.14952 
L 42.720313 22.08 
" style="fill: none; stroke: #000000; stroke-width: 0.8; stroke-linejoin: miter; stroke-linecap: square"/>
   </g>
   <g id="patch_4">
    <path d="M 42.720313 275.14952 
L 541.19952 275.14952 
" style="fill: none; stroke: #000000; stroke-width: 0.8; stroke-linejoin: miter; stroke-linecap: square"/>
   </g>
   <g id="text_16">
    <!-- Markov Chain samples -->
    <g transform="translate(231.436791 16.08) scale(0.12 -0.12)">
     <defs>
      <path id="IBMPlexSans-4d" d="M 595 0 
L 1120 0 
L 1120 3763 
L 1152 3763 
L 1530 3014 
L 2598 1069 
L 3667 3014 
L 4045 3763 
L 4077 3763 
L 4077 0 
L 4602 0 
L 4602 4467 
L 3910 4467 
L 2624 2061 
L 2592 2061 
L 1312 4467 
L 595 4467 
L 595 0 
z
" transform="scale(0.015625)"/>
      <path id="IBMPlexSans-72" d="M 1056 0 
L 1056 2240 
C 1056 2554 1389 2790 1939 2790 
L 2240 2790 
L 2240 3302 
L 2042 3302 
C 1504 3302 1203 3008 1088 2694 
L 1056 2694 
L 1056 3302 
L 544 3302 
L 544 0 
L 1056 0 
z
" transform="scale(0.015625)"/>
      <path id="IBMPlexSans-6b" d="M 544 0 
L 1056 0 
L 1056 1178 
L 1549 1683 
L 2643 0 
L 3264 0 
L 1920 1997 
L 3142 3302 
L 2522 3302 
L 1587 2298 
L 1082 1734 
L 1056 1734 
L 1056 4736 
L 544 4736 
L 544 0 
z
" transform="scale(0.015625)"/>
      <path id="IBMPlexSans-76" d="M 1869 0 
L 3034 3302 
L 2541 3302 
L 1952 1664 
L 1594 538 
L 1562 538 
L 1203 1664 
L 627 3302 
L 115 3302 
L 1274 0 
L 1869 0 
z
" transform="scale(0.015625)"/>
      <path id="IBMPlexSans-43" d="M 2170 -77 
C 2912 -77 3456 314 3738 941 
L 3309 1210 
C 3130 723 2739 403 2170 403 
C 1402 403 947 960 947 1875 
L 947 2541 
C 947 3456 1402 4064 2170 4064 
C 2720 4064 3091 3763 3270 3302 
L 3706 3565 
C 3424 4186 2912 4544 2170 4544 
C 1043 4544 371 3699 371 2208 
C 371 717 1043 -77 2170 -77 
z
" transform="scale(0.015625)"/>
      <path id="IBMPlexSans-69" d="M 800 4077 
C 1018 4077 1114 4192 1114 4365 
L 1114 4448 
C 1114 4621 1018 4736 800 4736 
C 582 4736 486 4621 486 4448 
L 486 4365 
C 486 4192 582 4077 800 4077 
z
M 544 0 
L 1056 0 
L 1056 3302 
L 544 3302 
L 544 0 
z
" transform="scale(0.015625)"/>
      <path id="IBMPlexSans-73" d="M 1536 -77 
C 2291 -77 2758 314 2758 954 
C 2758 1453 2477 1773 1747 1882 
L 1491 1920 
C 1082 1984 858 2112 858 2432 
C 858 2746 1082 2944 1504 2944 
C 1926 2944 2208 2746 2355 2541 
L 2694 2848 
C 2426 3181 2074 3379 1542 3379 
C 870 3379 365 3059 365 2406 
C 365 1792 819 1542 1427 1453 
L 1690 1414 
C 2125 1350 2266 1152 2266 896 
C 2266 557 2010 358 1574 358 
C 1158 358 851 544 595 864 
L 230 570 
C 525 179 928 -77 1536 -77 
z
" transform="scale(0.015625)"/>
      <path id="IBMPlexSans-6d" d="M 1056 0 
L 1056 2291 
C 1056 2714 1440 2918 1843 2918 
C 2330 2918 2554 2618 2554 2029 
L 2554 0 
L 3066 0 
L 3066 2291 
C 3066 2714 3437 2918 3840 2918 
C 4339 2918 4563 2611 4563 2029 
L 4563 0 
L 5075 0 
L 5075 2118 
C 5075 2918 4672 3379 4000 3379 
C 3437 3379 3117 3066 2995 2707 
L 2982 2707 
C 2803 3181 2406 3379 1971 3379 
C 1459 3379 1229 3104 1082 2765 
L 1056 2765 
L 1056 3302 
L 544 3302 
L 544 0 
L 1056 0 
z
" transform="scale(0.015625)"/>
     </defs>
     <use xlink:href="#IBMPlexSans-4d"/>
     <use xlink:href="#IBMPlexSans-61" transform="translate(81.199982 0)"/>
     <use xlink:href="#IBMPlexSans-72" transform="translate(134.599976 0)"/>
     <use xlink:href="#IBMPlexSans-6b" transform="translate(171.299973 0)"/>
     <use xlink:href="#IBMPlexSans-6f" transform="translate(223.999969 0)"/>
     <use xlink:href="#IBMPlexSans-76" transform="translate(279.999954 0)"/>
     <use xlink:href="#IBMPlexSans-20" transform="translate(329.199951 0)"/>
     <use xlink:href="#IBMPlexSans-43" transform="translate(352.799942 0)"/>
     <use xlink:href="#IBMPlexSans-68" transform="translate(414.899933 0)"/>
     <use xlink:href="#IBMPlexSans-61" transform="translate(471.699921 0)"/>
     <use xlink:href="#IBMPlexSans-69" transform="translate(525.099915 0)"/>
     <use xlink:href="#IBMPlexSans-6e" transform="translate(550.099899 0)"/>
     <use xlink:href="#IBMPlexSans-20" transform="translate(606.899887 0)"/>
     <use xlink:href="#IBMPlexSans-73" transform="translate(630.499878 0)"/>
     <use xlink:href="#IBMPlexSans-61" transform="translate(679.199875 0)"/>
     <use xlink:href="#IBMPlexSans-6d" transform="translate(732.599869 0)"/>
     <use xlink:href="#IBMPlexSans-70" transform="translate(819.899857 0)"/>
     <use xlink:href="#IBMPlexSans-6c" transform="translate(877.899841 0)"/>
     <use xlink:href="#IBMPlexSans-65" transform="translate(905.099838 0)"/>
     <use xlink:href="#IBMPlexSans-73" transform="translate(959.999832 0)"/>
    </g>
   </g>
   <g id="legend_1">
    <g id="patch_5">
     <path d="M 468.43077 73.28 
L 534.19952 73.28 
Q 536.19952 73.28 536.19952 71.28 
L 536.19952 29.08 
Q 536.19952 27.08 534.19952 27.08 
L 468.43077 27.08 
Q 466.43077 27.08 466.43077 29.08 
L 466.43077 71.28 
Q 466.43077 73.28 468.43077 73.28 
z
" style="fill: #ffffff; opacity: 0.8; stroke: #cccccc; stroke-linejoin: miter"/>
    </g>
    <g id="line2d_17">
     <path d="M 470.43077 34.98 
L 480.43077 34.98 
L 490.43077 34.98 
" style="fill: none; stroke: #1f77b4; stroke-width: 1.5; stroke-linecap: square"/>
    </g>
    <g id="text_17">
     <!-- Chain 1 -->
     <g transform="translate(498.43077 38.48) scale(0.1 -0.1)">
      <use xlink:href="#IBMPlexSans-43"/>
      <use xlink:href="#IBMPlexSans-68" transform="translate(62.099991 0)"/>
      <use xlink:href="#IBMPlexSans-61" transform="translate(118.899979 0)"/>
      <use xlink:href="#IBMPlexSans-69" transform="translate(172.299973 0)"/>
      <use xlink:href="#IBMPlexSans-6e" transform="translate(197.299957 0)"/>
      <use xlink:href="#IBMPlexSans-20" transform="translate(254.099945 0)"/>
      <use xlink:href="#IBMPlexSans-31" transform="translate(277.699936 0)"/>
     </g>
    </g>
    <g id="line2d_18">
     <path d="M 470.43077 49.38 
L 480.43077 49.38 
L 490.43077 49.38 
" style="fill: none; stroke: #ff7f0e; stroke-width: 1.5; stroke-linecap: square"/>
    </g>
    <g id="text_18">
     <!-- Chain 2 -->
     <g transform="translate(498.43077 52.88) scale(0.1 -0.1)">
      <use xlink:href="#IBMPlexSans-43"/>
      <use xlink:href="#IBMPlexSans-68" transform="translate(62.099991 0)"/>
      <use xlink:href="#IBMPlexSans-61" transform="translate(118.899979 0)"/>
      <use xlink:href="#IBMPlexSans-69" transform="translate(172.299973 0)"/>
      <use xlink:href="#IBMPlexSans-6e" transform="translate(197.299957 0)"/>
      <use xlink:href="#IBMPlexSans-20" transform="translate(254.099945 0)"/>
      <use xlink:href="#IBMPlexSans-32" transform="translate(277.699936 0)"/>
     </g>
    </g>
    <g id="line2d_19">
     <path d="M 470.43077 63.78 
L 480.43077 63.78 
L 490.43077 63.78 
" style="fill: none; stroke: #2ca02c; stroke-width: 1.5; stroke-linecap: square"/>
    </g>
    <g id="text_19">
     <!-- Chain 3 -->
     <g transform="translate(498.43077 67.28) scale(0.1 -0.1)">
      <use xlink:href="#IBMPlexSans-43"/>
      <use xlink:href="#IBMPlexSans-68" transform="translate(62.099991 0)"/>
      <use xlink:href="#IBMPlexSans-61" transform="translate(118.899979 0)"/>
      <use xlink:href="#IBMPlexSans-69" transform="translate(172.299973 0)"/>
      <use xlink:href="#IBMPlexSans-6e" transform="translate(197.299957 0)"/>
      <use xlink:href="#IBMPlexSans-20" transform="translate(254.099945 0)"/>
      <use xlink:href="#IBMPlexSans-33" transform="translate(277.699936 0)"/>
     </g>
    </g>
   </g>
  </g>
 </g>
 <defs>
  <clipPath id="p08e1bbfcb1">
   <rect x="42.720313" y="22.08" width="498.479208" height="253.06952"/>
  </clipPath>
 </defs>
</svg>