<?xml version="1.0" encoding="utf-8" standalone="no"?>
<!DOCTYPE svg PUBLIC "-//W3C//DTD SVG 1.1//EN"
  "http://www.w3.org/Graphics/SVG/1.1/DTD/svg11.dtd">
<svg xmlns:xlink="http://www.w3.org/1999/xlink" width="548.39952pt" height="312.14952pt" viewBox="0 0 548.39952 312.14952" xmlns="http://www.w3.org/2000/svg" version="1.1">
 <metadata>
  <rdf:RDF xmlns:dc="http://purl.org/dc/elements/1.1/" xmlns:cc="http://creativecommons.org/ns#" xmlns:rdf="http://www.w3.org/1999/02/22-rdf-syntax-ns#">
   <cc:Work>
    <dc:type rdf:resource="http://purl.org/dc/dcmitype/StillImage"/>
    <dc:date>2025-06-25T08:39:06.035570</dc:date>
    <dc:format>image/svg+xml</dc:format>
    <dc:creator>
     <cc:Agent>
      <dc:title>Matplotlib v3.10.1, https://matplotlib.org/</dc:title>
     </cc:Agent>
    </dc:creator>
   </cc:Work>
  </rdf:RDF>
 </metadata>
 <defs>
  <style type="text/css">*{stroke-linejoin: round; stroke-linecap: butt}</style>
 </defs>
 <g id="figure_1">
  <g id="patch_1">
   <path d="M 0 312.14952 
L 548.39952 312.14952 
L 548.39952 0 
L 0 0 
z
" style="fill: #ffffff"/>
  </g>
  <g id="axes_1">
   <g id="patch_2">
    <path d="M 42.320312 274.94952 
L 541.19952 274.94952 
L 541.19952 22.32 
L 42.320312 22.32 
z
" style="fill: #ffffff"/>
   </g>
   <g id="matplotlib.axis_1">
    <g id="xtick_1">
     <g id="line2d_1">
      <defs>
       <path id="md34854270b" d="M 0 0 
L 0 3.5 
" style="stroke: #000000; stroke-width: 0.8"/>
      </defs>
      <g>
       <use xlink:href="#md34854270b" x="68.866036" y="274.94952" style="stroke: #000000; stroke-width: 0.8"/>
      </g>
     </g>
     <g id="text_1">
      <!-- 292 -->
      <g transform="translate(59.866036 289.34952) scale(0.1 -0.1)">
       <defs>
        <path id="IBMPlexSans-32" d="M 3411 474 
L 1062 474 
L 2266 1555 
C 2835 2067 3245 2554 3245 3245 
C 3245 4006 2746 4544 1875 4544 
C 1011 4544 614 4019 442 3494 
L 922 3309 
C 1043 3731 1299 4064 1850 4064 
C 2400 4064 2675 3725 2675 3232 
L 2675 3155 
C 2675 2726 2355 2278 1939 1894 
L 480 550 
L 480 0 
L 3411 0 
L 3411 474 
z
" transform="scale(0.015625)"/>
        <path id="IBMPlexSans-39" d="M 3411 2829 
C 3411 3891 2842 4544 1914 4544 
C 1018 4544 429 3942 429 3066 
C 429 2221 979 1690 1747 1690 
C 2291 1690 2611 1965 2822 2330 
L 2854 2317 
C 2611 1280 2080 698 1126 0 
L 1818 0 
C 2534 467 3411 1504 3411 2829 
z
M 1920 2144 
C 1331 2144 986 2483 986 3085 
L 986 3136 
C 986 3738 1331 4077 1920 4077 
C 2509 4077 2854 3738 2854 3136 
L 2854 3085 
C 2854 2483 2509 2144 1920 2144 
z
" transform="scale(0.015625)"/>
       </defs>
       <use xlink:href="#IBMPlexSans-32"/>
       <use xlink:href="#IBMPlexSans-39" transform="translate(59.999985 0)"/>
       <use xlink:href="#IBMPlexSans-32" transform="translate(119.999969 0)"/>
      </g>
     </g>
    </g>
    <g id="xtick_2">
     <g id="line2d_2">
      <g>
       <use xlink:href="#md34854270b" x="124.611197" y="274.94952" style="stroke: #000000; stroke-width: 0.8"/>
      </g>
     </g>
     <g id="text_2">
      <!-- 294 -->
      <g transform="translate(115.611197 289.34952) scale(0.1 -0.1)">
       <defs>
        <path id="IBMPlexSans-34" d="M 2912 0 
L 2912 877 
L 3558 877 
L 3558 1325 
L 2912 1325 
L 2912 4467 
L 2112 4467 
L 243 1350 
L 243 877 
L 2400 877 
L 2400 0 
L 2912 0 
z
M 2368 4051 
L 2400 4051 
L 2400 1325 
L 749 1325 
L 2368 4051 
z
" transform="scale(0.015625)"/>
       </defs>
       <use xlink:href="#IBMPlexSans-32"/>
       <use xlink:href="#IBMPlexSans-39" transform="translate(59.999985 0)"/>
       <use xlink:href="#IBMPlexSans-34" transform="translate(119.999969 0)"/>
      </g>
     </g>
    </g>
    <g id="xtick_3">
     <g id="line2d_3">
      <g>
       <use xlink:href="#md34854270b" x="180.356357" y="274.94952" style="stroke: #000000; stroke-width: 0.8"/>
      </g>
     </g>
     <g id="text_3">
      <!-- 296 -->
      <g transform="translate(171.356357 289.34952) scale(0.1 -0.1)">
       <defs>
        <path id="IBMPlexSans-36" d="M 1926 -77 
C 2822 -77 3411 525 3411 1402 
C 3411 2246 2861 2778 2093 2778 
C 1549 2778 1229 2502 1018 2138 
L 986 2150 
C 1229 3187 1760 3770 2714 4467 
L 2022 4467 
C 1306 4000 429 2963 429 1638 
C 429 576 998 -77 1926 -77 
z
M 1920 390 
C 1331 390 986 730 986 1331 
L 986 1382 
C 986 1984 1331 2323 1920 2323 
C 2509 2323 2854 1984 2854 1382 
L 2854 1331 
C 2854 730 2509 390 1920 390 
z
" transform="scale(0.015625)"/>
       </defs>
       <use xlink:href="#IBMPlexSans-32"/>
       <use xlink:href="#IBMPlexSans-39" transform="translate(59.999985 0)"/>
       <use xlink:href="#IBMPlexSans-36" transform="translate(119.999969 0)"/>
      </g>
     </g>
    </g>
    <g id="xtick_4">
     <g id="line2d_4">
      <g>
       <use xlink:href="#md34854270b" x="236.101517" y="274.94952" style="stroke: #000000; stroke-width: 0.8"/>
      </g>
     </g>
     <g id="text_4">
      <!-- 298 -->
      <g transform="translate(227.101517 289.34952) scale(0.1 -0.1)">
       <defs>
        <path id="IBMPlexSans-38" d="M 1920 -77 
C 2938 -77 3469 480 3469 1216 
C 3469 1824 3104 2176 2566 2323 
L 2566 2374 
C 3034 2534 3334 2912 3334 3424 
C 3334 4102 2810 4544 1920 4544 
C 1030 4544 506 4102 506 3424 
C 506 2912 806 2534 1274 2374 
L 1274 2323 
C 736 2176 371 1824 371 1216 
C 371 480 902 -77 1920 -77 
z
M 1920 390 
C 1299 390 941 685 941 1190 
L 941 1325 
C 941 1830 1299 2125 1920 2125 
C 2541 2125 2899 1830 2899 1325 
L 2899 1190 
C 2899 685 2541 390 1920 390 
z
M 1920 2573 
C 1363 2573 1062 2822 1062 3277 
L 1062 3373 
C 1062 3827 1363 4077 1920 4077 
C 2477 4077 2778 3827 2778 3373 
L 2778 3277 
C 2778 2822 2477 2573 1920 2573 
z
" transform="scale(0.015625)"/>
       </defs>
       <use xlink:href="#IBMPlexSans-32"/>
       <use xlink:href="#IBMPlexSans-39" transform="translate(59.999985 0)"/>
       <use xlink:href="#IBMPlexSans-38" transform="translate(119.999969 0)"/>
      </g>
     </g>
    </g>
    <g id="xtick_5">
     <g id="line2d_5">
      <g>
       <use xlink:href="#md34854270b" x="291.846678" y="274.94952" style="stroke: #000000; stroke-width: 0.8"/>
      </g>
     </g>
     <g id="text_5">
      <!-- 300 -->
      <g transform="translate(282.846678 289.34952) scale(0.1 -0.1)">
       <defs>
        <path id="IBMPlexSans-33" d="M 1184 2573 
L 1184 2106 
L 1709 2106 
C 2336 2106 2669 1805 2669 1280 
L 2669 1229 
C 2669 704 2336 403 1709 403 
C 1165 403 902 640 672 992 
L 269 685 
C 544 301 941 -77 1715 -77 
C 2624 -77 3232 454 3232 1222 
C 3232 1894 2771 2253 2291 2349 
L 2291 2374 
C 2765 2496 3149 2842 3149 3418 
C 3149 4141 2547 4544 1792 4544 
C 1075 4544 685 4173 461 3814 
L 858 3507 
C 1043 3846 1318 4064 1779 4064 
C 2253 4064 2579 3827 2579 3360 
L 2579 3315 
C 2579 2886 2272 2573 1670 2573 
L 1184 2573 
z
" transform="scale(0.015625)"/>
        <path id="IBMPlexSans-30" d="M 1920 -77 
C 2989 -77 3456 774 3456 2234 
C 3456 3693 2989 4544 1920 4544 
C 851 4544 384 3693 384 2234 
C 384 774 851 -77 1920 -77 
z
M 1920 390 
C 1222 390 947 1005 947 1869 
L 947 2598 
C 947 3462 1222 4077 1920 4077 
C 2618 4077 2893 3462 2893 2598 
L 2893 1869 
C 2893 1005 2618 390 1920 390 
z
" transform="scale(0.015625)"/>
       </defs>
       <use xlink:href="#IBMPlexSans-33"/>
       <use xlink:href="#IBMPlexSans-30" transform="translate(59.999985 0)"/>
       <use xlink:href="#IBMPlexSans-30" transform="translate(119.999969 0)"/>
      </g>
     </g>
    </g>
    <g id="xtick_6">
     <g id="line2d_6">
      <g>
       <use xlink:href="#md34854270b" x="347.591838" y="274.94952" style="stroke: #000000; stroke-width: 0.8"/>
      </g>
     </g>
     <g id="text_6">
      <!-- 302 -->
      <g transform="translate(338.591838 289.34952) scale(0.1 -0.1)">
       <use xlink:href="#IBMPlexSans-33"/>
       <use xlink:href="#IBMPlexSans-30" transform="translate(59.999985 0)"/>
       <use xlink:href="#IBMPlexSans-32" transform="translate(119.999969 0)"/>
      </g>
     </g>
    </g>
    <g id="xtick_7">
     <g id="line2d_7">
      <g>
       <use xlink:href="#md34854270b" x="403.336999" y="274.94952" style="stroke: #000000; stroke-width: 0.8"/>
      </g>
     </g>
     <g id="text_7">
      <!-- 304 -->
      <g transform="translate(394.336999 289.34952) scale(0.1 -0.1)">
       <use xlink:href="#IBMPlexSans-33"/>
       <use xlink:href="#IBMPlexSans-30" transform="translate(59.999985 0)"/>
       <use xlink:href="#IBMPlexSans-34" transform="translate(119.999969 0)"/>
      </g>
     </g>
    </g>
    <g id="xtick_8">
     <g id="line2d_8">
      <g>
       <use xlink:href="#md34854270b" x="459.082159" y="274.94952" style="stroke: #000000; stroke-width: 0.8"/>
      </g>
     </g>
     <g id="text_8">
      <!-- 306 -->
      <g transform="translate(450.082159 289.34952) scale(0.1 -0.1)">
       <use xlink:href="#IBMPlexSans-33"/>
       <use xlink:href="#IBMPlexSans-30" transform="translate(59.999985 0)"/>
       <use xlink:href="#IBMPlexSans-36" transform="translate(119.999969 0)"/>
      </g>
     </g>
    </g>
    <g id="xtick_9">
     <g id="line2d_9">
      <g>
       <use xlink:href="#md34854270b" x="514.82732" y="274.94952" style="stroke: #000000; stroke-width: 0.8"/>
      </g>
     </g>
     <g id="text_9">
      <!-- 308 -->
      <g transform="translate(505.82732 289.34952) scale(0.1 -0.1)">
       <use xlink:href="#IBMPlexSans-33"/>
       <use xlink:href="#IBMPlexSans-30" transform="translate(59.999985 0)"/>
       <use xlink:href="#IBMPlexSans-38" transform="translate(119.999969 0)"/>
      </g>
     </g>
    </g>
    <g id="text_10">
     <!-- Temperature [K] -->
     <g transform="translate(254.94351 302.94952) scale(0.1 -0.1)">
      <defs>
       <path id="IBMPlexSans-54" d="M 3520 3994 
L 3520 4467 
L 141 4467 
L 141 3994 
L 1562 3994 
L 1562 0 
L 2099 0 
L 2099 3994 
L 3520 3994 
z
" transform="scale(0.015625)"/>
       <path id="IBMPlexSans-65" d="M 1786 -77 
C 2406 -77 2880 230 3091 678 
L 2726 941 
C 2554 576 2234 371 1818 371 
C 1203 371 838 800 838 1370 
L 838 1523 
L 3213 1523 
L 3213 1766 
C 3213 2701 2669 3379 1786 3379 
C 890 3379 301 2701 301 1651 
C 301 602 890 -77 1786 -77 
z
M 1786 2950 
C 2310 2950 2662 2560 2662 1978 
L 2662 1907 
L 838 1907 
L 838 1952 
C 838 2528 1229 2950 1786 2950 
z
" transform="scale(0.015625)"/>
       <path id="IBMPlexSans-6d" d="M 1056 0 
L 1056 2291 
C 1056 2714 1440 2918 1843 2918 
C 2330 2918 2554 2618 2554 2029 
L 2554 0 
L 3066 0 
L 3066 2291 
C 3066 2714 3437 2918 3840 2918 
C 4339 2918 4563 2611 4563 2029 
L 4563 0 
L 5075 0 
L 5075 2118 
C 5075 2918 4672 3379 4000 3379 
C 3437 3379 3117 3066 2995 2707 
L 2982 2707 
C 2803 3181 2406 3379 1971 3379 
C 1459 3379 1229 3104 1082 2765 
L 1056 2765 
L 1056 3302 
L 544 3302 
L 544 0 
L 1056 0 
z
" transform="scale(0.015625)"/>
       <path id="IBMPlexSans-70" d="M 544 -1280 
L 1056 -1280 
L 1056 538 
L 1082 538 
C 1280 128 1594 -77 2048 -77 
C 2874 -77 3392 595 3392 1651 
C 3392 2707 2874 3379 2048 3379 
C 1594 3379 1254 3181 1082 2765 
L 1056 2765 
L 1056 3302 
L 544 3302 
L 544 -1280 
z
M 1907 384 
C 1440 384 1056 627 1056 1056 
L 1056 2285 
C 1056 2650 1440 2918 1907 2918 
C 2483 2918 2842 2522 2842 1933 
L 2842 1370 
C 2842 781 2483 384 1907 384 
z
" transform="scale(0.015625)"/>
       <path id="IBMPlexSans-72" d="M 1056 0 
L 1056 2240 
C 1056 2554 1389 2790 1939 2790 
L 2240 2790 
L 2240 3302 
L 2042 3302 
C 1504 3302 1203 3008 1088 2694 
L 1056 2694 
L 1056 3302 
L 544 3302 
L 544 0 
L 1056 0 
z
" transform="scale(0.015625)"/>
       <path id="IBMPlexSans-61" d="M 3232 0 
L 3232 448 
L 2854 448 
L 2854 2266 
C 2854 2963 2381 3379 1587 3379 
C 992 3379 595 3085 416 2733 
L 723 2445 
C 902 2746 1165 2938 1562 2938 
C 2086 2938 2342 2682 2342 2214 
L 2342 1888 
L 1690 1888 
C 730 1888 282 1542 282 922 
C 282 307 691 -77 1389 -77 
C 1850 -77 2202 134 2342 538 
L 2374 538 
C 2413 230 2566 0 2944 0 
L 3232 0 
z
M 1472 358 
C 1075 358 819 544 819 870 
L 819 1005 
C 819 1325 1082 1504 1664 1504 
L 2342 1504 
L 2342 960 
C 2342 621 1978 358 1472 358 
z
" transform="scale(0.015625)"/>
       <path id="IBMPlexSans-74" d="M 1914 0 
L 1914 448 
L 1242 448 
L 1242 2854 
L 1965 2854 
L 1965 3302 
L 1242 3302 
L 1242 4218 
L 781 4218 
L 781 3603 
C 781 3379 710 3302 493 3302 
L 186 3302 
L 186 2854 
L 730 2854 
L 730 544 
C 730 224 922 0 1274 0 
L 1914 0 
z
" transform="scale(0.015625)"/>
       <path id="IBMPlexSans-75" d="M 2579 0 
L 3091 0 
L 3091 3302 
L 2579 3302 
L 2579 1018 
C 2579 582 2182 384 1779 384 
C 1286 384 1024 685 1024 1274 
L 1024 3302 
L 512 3302 
L 512 1184 
C 512 384 947 -77 1626 -77 
C 2176 -77 2426 224 2554 538 
L 2579 538 
L 2579 0 
z
" transform="scale(0.015625)"/>
       <path id="IBMPlexSans-20" transform="scale(0.015625)"/>
       <path id="IBMPlexSans-5b" d="M 1645 -883 
L 1645 -480 
L 1037 -480 
L 1037 4461 
L 1645 4461 
L 1645 4864 
L 595 4864 
L 595 -883 
L 1645 -883 
z
" transform="scale(0.015625)"/>
       <path id="IBMPlexSans-4b" d="M 3251 0 
L 3917 0 
L 2138 2554 
L 3802 4467 
L 3142 4467 
L 1792 2867 
L 1152 2093 
L 1133 2093 
L 1133 4467 
L 595 4467 
L 595 0 
L 1133 0 
L 1133 1491 
L 1766 2195 
L 3251 0 
z
" transform="scale(0.015625)"/>
       <path id="IBMPlexSans-5d" d="M 384 4864 
L 384 4461 
L 992 4461 
L 992 -480 
L 384 -480 
L 384 -883 
L 1434 -883 
L 1434 4864 
L 384 4864 
z
" transform="scale(0.015625)"/>
      </defs>
      <use xlink:href="#IBMPlexSans-54"/>
      <use xlink:href="#IBMPlexSans-65" transform="translate(57.199997 0)"/>
      <use xlink:href="#IBMPlexSans-6d" transform="translate(112.099991 0)"/>
      <use xlink:href="#IBMPlexSans-70" transform="translate(199.399979 0)"/>
      <use xlink:href="#IBMPlexSans-65" transform="translate(257.399963 0)"/>
      <use xlink:href="#IBMPlexSans-72" transform="translate(312.299957 0)"/>
      <use xlink:href="#IBMPlexSans-61" transform="translate(348.999954 0)"/>
      <use xlink:href="#IBMPlexSans-74" transform="translate(402.399948 0)"/>
      <use xlink:href="#IBMPlexSans-75" transform="translate(437.499939 0)"/>
      <use xlink:href="#IBMPlexSans-72" transform="translate(494.299927 0)"/>
      <use xlink:href="#IBMPlexSans-65" transform="translate(530.999924 0)"/>
      <use xlink:href="#IBMPlexSans-20" transform="translate(585.899918 0)"/>
      <use xlink:href="#IBMPlexSans-5b" transform="translate(609.499908 0)"/>
      <use xlink:href="#IBMPlexSans-4b" transform="translate(641.199905 0)"/>
      <use xlink:href="#IBMPlexSans-5d" transform="translate(704.599899 0)"/>
     </g>
    </g>
   </g>
   <g id="matplotlib.axis_2">
    <g id="ytick_1">
     <g id="line2d_10">
      <defs>
       <path id="mc6ba82796a" d="M 0 0 
L -3.5 0 
" style="stroke: #000000; stroke-width: 0.8"/>
      </defs>
      <g>
       <use xlink:href="#mc6ba82796a" x="42.320312" y="263.582002" style="stroke: #000000; stroke-width: 0.8"/>
      </g>
     </g>
     <g id="text_11">
      <!-- 0.0 -->
      <g transform="translate(20.6 267.282002) scale(0.1 -0.1)">
       <defs>
        <path id="IBMPlexSans-2e" d="M 870 -77 
C 1139 -77 1261 77 1261 294 
L 1261 378 
C 1261 595 1139 749 870 749 
C 602 749 480 595 480 378 
L 480 294 
C 480 77 602 -77 870 -77 
z
" transform="scale(0.015625)"/>
       </defs>
       <use xlink:href="#IBMPlexSans-30"/>
       <use xlink:href="#IBMPlexSans-2e" transform="translate(59.999985 0)"/>
       <use xlink:href="#IBMPlexSans-30" transform="translate(87.199982 0)"/>
      </g>
     </g>
    </g>
    <g id="ytick_2">
     <g id="line2d_11">
      <g>
       <use xlink:href="#mc6ba82796a" x="42.320312" y="217.626227" style="stroke: #000000; stroke-width: 0.8"/>
      </g>
     </g>
     <g id="text_12">
      <!-- 0.2 -->
      <g transform="translate(20.6 221.326227) scale(0.1 -0.1)">
       <use xlink:href="#IBMPlexSans-30"/>
       <use xlink:href="#IBMPlexSans-2e" transform="translate(59.999985 0)"/>
       <use xlink:href="#IBMPlexSans-32" transform="translate(87.199982 0)"/>
      </g>
     </g>
    </g>
    <g id="ytick_3">
     <g id="line2d_12">
      <g>
       <use xlink:href="#mc6ba82796a" x="42.320312" y="171.670452" style="stroke: #000000; stroke-width: 0.8"/>
      </g>
     </g>
     <g id="text_13">
      <!-- 0.4 -->
      <g transform="translate(20.6 175.370452) scale(0.1 -0.1)">
       <use xlink:href="#IBMPlexSans-30"/>
       <use xlink:href="#IBMPlexSans-2e" transform="translate(59.999985 0)"/>
       <use xlink:href="#IBMPlexSans-34" transform="translate(87.199982 0)"/>
      </g>
     </g>
    </g>
    <g id="ytick_4">
     <g id="line2d_13">
      <g>
       <use xlink:href="#mc6ba82796a" x="42.320312" y="125.714677" style="stroke: #000000; stroke-width: 0.8"/>
      </g>
     </g>
     <g id="text_14">
      <!-- 0.6 -->
      <g transform="translate(20.6 129.414677) scale(0.1 -0.1)">
       <use xlink:href="#IBMPlexSans-30"/>
       <use xlink:href="#IBMPlexSans-2e" transform="translate(59.999985 0)"/>
       <use xlink:href="#IBMPlexSans-36" transform="translate(87.199982 0)"/>
      </g>
     </g>
    </g>
    <g id="ytick_5">
     <g id="line2d_14">
      <g>
       <use xlink:href="#mc6ba82796a" x="42.320312" y="79.758902" style="stroke: #000000; stroke-width: 0.8"/>
      </g>
     </g>
     <g id="text_15">
      <!-- 0.8 -->
      <g transform="translate(20.6 83.458902) scale(0.1 -0.1)">
       <use xlink:href="#IBMPlexSans-30"/>
       <use xlink:href="#IBMPlexSans-2e" transform="translate(59.999985 0)"/>
       <use xlink:href="#IBMPlexSans-38" transform="translate(87.199982 0)"/>
      </g>
     </g>
    </g>
    <g id="ytick_6">
     <g id="line2d_15">
      <g>
       <use xlink:href="#mc6ba82796a" x="42.320312" y="33.803127" style="stroke: #000000; stroke-width: 0.8"/>
      </g>
     </g>
     <g id="text_16">
      <!-- 1.0 -->
      <g transform="translate(20.6 37.503127) scale(0.1 -0.1)">
       <defs>
        <path id="IBMPlexSans-31" d="M 3501 0 
L 3501 474 
L 2349 474 
L 2349 4467 
L 1510 4467 
L 326 3360 
L 640 3021 
L 1766 4070 
L 1811 4070 
L 1811 474 
L 563 474 
L 563 0 
L 3501 0 
z
" transform="scale(0.015625)"/>
       </defs>
       <use xlink:href="#IBMPlexSans-31"/>
       <use xlink:href="#IBMPlexSans-2e" transform="translate(59.999985 0)"/>
       <use xlink:href="#IBMPlexSans-30" transform="translate(87.199982 0)"/>
      </g>
     </g>
    </g>
    <g id="text_17">
     <!-- Cumulative Probability -->
     <g transform="translate(14.6 199.449604) rotate(-90) scale(0.1 -0.1)">
      <defs>
       <path id="IBMPlexSans-43" d="M 2170 -77 
C 2912 -77 3456 314 3738 941 
L 3309 1210 
C 3130 723 2739 403 2170 403 
C 1402 403 947 960 947 1875 
L 947 2541 
C 947 3456 1402 4064 2170 4064 
C 2720 4064 3091 3763 3270 3302 
L 3706 3565 
C 3424 4186 2912 4544 2170 4544 
C 1043 4544 371 3699 371 2208 
C 371 717 1043 -77 2170 -77 
z
" transform="scale(0.015625)"/>
       <path id="IBMPlexSans-6c" d="M 1542 0 
L 1542 448 
L 1056 448 
L 1056 4736 
L 544 4736 
L 544 531 
C 544 224 736 0 1088 0 
L 1542 0 
z
" transform="scale(0.015625)"/>
       <path id="IBMPlexSans-69" d="M 800 4077 
C 1018 4077 1114 4192 1114 4365 
L 1114 4448 
C 1114 4621 1018 4736 800 4736 
C 582 4736 486 4621 486 4448 
L 486 4365 
C 486 4192 582 4077 800 4077 
z
M 544 0 
L 1056 0 
L 1056 3302 
L 544 3302 
L 544 0 
z
" transform="scale(0.015625)"/>
       <path id="IBMPlexSans-76" d="M 1869 0 
L 3034 3302 
L 2541 3302 
L 1952 1664 
L 1594 538 
L 1562 538 
L 1203 1664 
L 627 3302 
L 115 3302 
L 1274 0 
L 1869 0 
z
" transform="scale(0.015625)"/>
       <path id="IBMPlexSans-50" d="M 1133 0 
L 1133 1907 
L 2374 1907 
C 3174 1907 3622 2400 3622 3187 
C 3622 3974 3174 4467 2374 4467 
L 595 4467 
L 595 0 
L 1133 0 
z
M 1133 3994 
L 2374 3994 
C 2797 3994 3046 3763 3046 3354 
L 3046 3021 
C 3046 2611 2797 2381 2374 2381 
L 1133 2381 
L 1133 3994 
z
" transform="scale(0.015625)"/>
       <path id="IBMPlexSans-6f" d="M 1792 -77 
C 2675 -77 3283 602 3283 1651 
C 3283 2701 2675 3379 1792 3379 
C 909 3379 301 2701 301 1651 
C 301 602 909 -77 1792 -77 
z
M 1792 378 
C 1242 378 851 717 851 1414 
L 851 1888 
C 851 2586 1242 2925 1792 2925 
C 2342 2925 2733 2586 2733 1888 
L 2733 1414 
C 2733 717 2342 378 1792 378 
z
" transform="scale(0.015625)"/>
       <path id="IBMPlexSans-62" d="M 544 0 
L 1056 0 
L 1056 538 
L 1082 538 
C 1280 128 1594 -77 2048 -77 
C 2874 -77 3392 595 3392 1651 
C 3392 2707 2874 3379 2048 3379 
C 1594 3379 1254 3181 1082 2765 
L 1056 2765 
L 1056 4736 
L 544 4736 
L 544 0 
z
M 1907 384 
C 1440 384 1056 627 1056 1056 
L 1056 2285 
C 1056 2650 1440 2918 1907 2918 
C 2483 2918 2842 2522 2842 1933 
L 2842 1370 
C 2842 781 2483 384 1907 384 
z
" transform="scale(0.015625)"/>
       <path id="IBMPlexSans-79" d="M 1779 1056 
L 1600 518 
L 1568 518 
L 1414 1056 
L 621 3302 
L 109 3302 
L 1344 -128 
L 1094 -832 
L 576 -832 
L 576 -1280 
L 838 -1280 
C 1325 -1280 1459 -1165 1606 -768 
L 3085 3302 
L 2579 3302 
L 1779 1056 
z
" transform="scale(0.015625)"/>
      </defs>
      <use xlink:href="#IBMPlexSans-43"/>
      <use xlink:href="#IBMPlexSans-75" transform="translate(62.099991 0)"/>
      <use xlink:href="#IBMPlexSans-6d" transform="translate(118.899979 0)"/>
      <use xlink:href="#IBMPlexSans-75" transform="translate(206.199966 0)"/>
      <use xlink:href="#IBMPlexSans-6c" transform="translate(262.999954 0)"/>
      <use xlink:href="#IBMPlexSans-61" transform="translate(290.199951 0)"/>
      <use xlink:href="#IBMPlexSans-74" transform="translate(343.599945 0)"/>
      <use xlink:href="#IBMPlexSans-69" transform="translate(378.699936 0)"/>
      <use xlink:href="#IBMPlexSans-76" transform="translate(403.699921 0)"/>
      <use xlink:href="#IBMPlexSans-65" transform="translate(452.899918 0)"/>
      <use xlink:href="#IBMPlexSans-20" transform="translate(507.799911 0)"/>
      <use xlink:href="#IBMPlexSans-50" transform="translate(531.399902 0)"/>
      <use xlink:href="#IBMPlexSans-72" transform="translate(591.999893 0)"/>
      <use xlink:href="#IBMPlexSans-6f" transform="translate(628.69989 0)"/>
      <use xlink:href="#IBMPlexSans-62" transform="translate(684.699875 0)"/>
      <use xlink:href="#IBMPlexSans-61" transform="translate(742.69986 0)"/>
      <use xlink:href="#IBMPlexSans-62" transform="translate(796.099854 0)"/>
      <use xlink:href="#IBMPlexSans-69" transform="translate(854.099838 0)"/>
      <use xlink:href="#IBMPlexSans-6c" transform="translate(879.099823 0)"/>
      <use xlink:href="#IBMPlexSans-69" transform="translate(906.29982 0)"/>
      <use xlink:href="#IBMPlexSans-74" transform="translate(931.299805 0)"/>
      <use xlink:href="#IBMPlexSans-79" transform="translate(966.399796 0)"/>
     </g>
    </g>
   </g>
   <g id="line2d_16">
    <path d="M 137.981835 262.433108 
L 151.236792 260.135319 
L 158.140291 257.83753 
L 164.418596 255.539741 
L 171.099237 253.241953 
L 177.195514 250.944164 
L 180.975596 248.646375 
L 183.777485 246.348586 
L 186.558959 244.050798 
L 189.075895 241.753009 
L 191.600487 239.45522 
L 194.435548 237.157431 
L 197.181297 234.859643 
L 199.076442 232.561854 
L 201.424959 230.264065 
L 203.178903 227.966276 
L 205.057887 225.668488 
L 206.680839 223.370699 
L 208.707827 221.07291 
L 209.949708 218.775121 
L 212.300777 216.477333 
L 213.58689 214.179544 
L 215.368054 211.881755 
L 216.903393 209.583966 
L 218.131665 207.286178 
L 219.240001 204.988389 
L 220.404478 202.6906 
L 221.90154 200.392811 
L 223.427523 198.095023 
L 224.666853 195.797234 
L 225.805811 193.499445 
L 227.513823 191.201656 
L 228.667242 188.903868 
L 229.955055 186.606079 
L 231.086358 184.30829 
L 232.688896 182.010501 
L 233.633066 179.712713 
L 234.635077 177.414924 
L 236.044527 175.117135 
L 237.219211 172.819346 
L 238.79623 170.521558 
L 240.134229 168.223769 
L 241.233209 165.92598 
L 242.679235 163.628191 
L 243.864977 161.330403 
L 244.79894 159.032614 
L 246.287496 156.734825 
L 247.191688 154.437036 
L 248.349359 152.139248 
L 249.409211 149.841459 
L 250.5201 147.54367 
L 251.66161 145.245881 
L 252.84565 142.948093 
L 253.736232 140.650304 
L 254.582583 138.352515 
L 255.515695 136.054726 
L 256.319515 133.756938 
L 257.318124 131.459149 
L 258.390735 129.16136 
L 259.367228 126.863571 
L 260.507037 124.565783 
L 261.631535 122.267994 
L 262.728814 119.970205 
L 263.763148 117.672416 
L 265.036502 115.374628 
L 265.970464 113.076839 
L 267.125584 110.77905 
L 268.261991 108.481261 
L 269.525137 106.183473 
L 270.987325 103.885684 
L 271.916184 101.587895 
L 272.72851 99.290106 
L 273.625047 96.992318 
L 274.99622 94.694529 
L 276.620873 92.39674 
L 277.652655 90.098951 
L 279.16758 87.801163 
L 280.667194 85.503374 
L 282.243363 83.205585 
L 284.075563 80.907796 
L 285.854175 78.610008 
L 287.193876 76.312219 
L 289.517725 74.01443 
L 290.950142 71.716641 
L 293.294405 69.418853 
L 295.07727 67.121064 
L 297.046418 64.823275 
L 299.293713 62.525486 
L 301.386198 60.227698 
L 303.585008 57.929909 
L 306.764565 55.63212 
L 309.698297 53.334331 
L 312.451701 51.036543 
L 315.866874 48.738754 
L 319.365407 46.440965 
L 321.964852 44.143176 
L 327.54226 41.845388 
L 331.43207 39.547599 
L 339.010949 37.24981 
L 355.699792 34.952021 
" clip-path="url(#pcdc3e818a5)" style="fill: none; stroke: #1f77b4; stroke-opacity: 0.2; stroke-width: 1.5; stroke-linecap: square"/>
   </g>
   <g id="line2d_17">
    <path d="M 207.086576 262.433108 
L 225.731808 260.135319 
L 236.213797 257.83753 
L 242.540587 255.539741 
L 246.936507 253.241953 
L 253.08552 250.944164 
L 255.914628 248.646375 
L 259.106093 246.348586 
L 262.922752 244.050798 
L 265.744204 241.753009 
L 267.78225 239.45522 
L 269.93853 237.157431 
L 272.401879 234.859643 
L 275.105097 232.561854 
L 278.241273 230.264065 
L 279.903352 227.966276 
L 281.405518 225.668488 
L 284.002411 223.370699 
L 285.634719 221.07291 
L 287.427792 218.775121 
L 288.640753 216.477333 
L 290.240738 214.179544 
L 291.437537 211.881755 
L 293.474733 209.583966 
L 295.04835 207.286178 
L 296.349774 204.988389 
L 297.579746 202.6906 
L 298.468627 200.392811 
L 299.997162 198.095023 
L 301.193961 195.797234 
L 302.37545 193.499445 
L 303.457418 191.201656 
L 304.359057 188.903868 
L 305.249639 186.606079 
L 306.12406 184.30829 
L 307.3081 182.010501 
L 308.376458 179.712713 
L 309.360607 177.414924 
L 310.209509 175.117135 
L 310.949534 172.819346 
L 312.21183 170.521558 
L 313.495391 168.223769 
L 314.762791 165.92598 
L 316.4674 163.628191 
L 317.742455 161.330403 
L 318.90523 159.032614 
L 319.845147 156.734825 
L 320.846308 154.437036 
L 322.299139 152.139248 
L 323.632885 149.841459 
L 324.788856 147.54367 
L 326.09113 145.245881 
L 326.76736 142.948093 
L 327.96586 140.650304 
L 329.03592 138.352515 
L 329.8542 136.054726 
L 330.838349 133.756938 
L 332.522544 131.459149 
L 333.4463 129.16136 
L 335.057343 126.863571 
L 336.428516 124.565783 
L 337.169392 122.267994 
L 338.33642 119.970205 
L 339.870058 117.672416 
L 340.919703 115.374628 
L 341.952336 113.076839 
L 343.22654 110.77905 
L 344.630036 108.481261 
L 345.922954 106.183473 
L 347.01598 103.885684 
L 348.922182 101.587895 
L 350.019461 99.290106 
L 351.552249 96.992318 
L 352.826453 94.694529 
L 353.972216 92.39674 
L 355.699792 90.098951 
L 357.127105 87.801163 
L 358.550165 85.503374 
L 360.98034 83.205585 
L 362.894198 80.907796 
L 365.149999 78.610008 
L 367.659279 76.312219 
L 369.682015 74.01443 
L 371.003853 71.716641 
L 373.072521 69.418853 
L 375.372553 67.121064 
L 376.985298 64.823275 
L 378.760508 62.525486 
L 381.009504 60.227698 
L 384.278373 57.929909 
L 387.642511 55.63212 
L 390.153493 53.334331 
L 393.144215 51.036543 
L 396.221699 48.738754 
L 399.545858 46.440965 
L 403.856718 44.143176 
L 408.346204 41.845388 
L 414.120101 39.547599 
L 420.672301 37.24981 
L 439.060651 34.952021 
" clip-path="url(#pcdc3e818a5)" style="fill: none; stroke: #1f77b4; stroke-opacity: 0.2; stroke-width: 1.5; stroke-linecap: square"/>
   </g>
   <g id="line2d_18">
    <path d="M 134.689999 262.433108 
L 154.58732 260.135319 
L 165.614545 257.83753 
L 171.620658 255.539741 
L 174.529722 253.241953 
L 178.639839 250.944164 
L 181.369426 248.646375 
L 186.18044 246.348586 
L 188.783287 244.050798 
L 192.750503 241.753009 
L 195.303164 239.45522 
L 197.515584 237.157431 
L 199.952564 234.859643 
L 202.617505 232.561854 
L 204.670862 230.264065 
L 206.805877 227.966276 
L 208.26041 225.668488 
L 210.339285 223.370699 
L 211.99456 221.07291 
L 213.23559 218.775121 
L 215.431849 216.477333 
L 217.377179 214.179544 
L 219.439893 211.881755 
L 221.403086 209.583966 
L 223.223378 207.286178 
L 224.868446 204.988389 
L 226.201342 202.6906 
L 227.489155 200.392811 
L 228.225778 198.095023 
L 230.293596 195.797234 
L 231.769393 193.499445 
L 233.282617 191.201656 
L 234.40031 188.903868 
L 235.911833 186.606079 
L 236.888326 184.30829 
L 237.975397 182.010501 
L 238.869382 179.712713 
L 240.274579 177.414924 
L 241.467125 175.117135 
L 242.45978 172.819346 
L 243.631061 170.521558 
L 244.932484 168.223769 
L 246.009349 165.92598 
L 246.852297 163.628191 
L 247.736925 161.330403 
L 248.789972 159.032614 
L 249.782626 156.734825 
L 251.072142 154.437036 
L 252.379519 152.139248 
L 253.367921 149.841459 
L 254.46605 147.54367 
L 255.838924 145.245881 
L 256.944709 142.948093 
L 258.093875 140.650304 
L 259.283019 138.352515 
L 260.216131 136.054726 
L 261.352537 133.756938 
L 261.988789 131.459149 
L 263.251085 129.16136 
L 264.405354 126.863571 
L 265.842874 124.565783 
L 266.832126 122.267994 
L 267.728662 119.970205 
L 269.194252 117.672416 
L 270.541608 115.374628 
L 271.704384 113.076839 
L 272.879067 110.77905 
L 274.366773 108.481261 
L 275.223331 106.183473 
L 276.450752 103.885684 
L 278.337391 101.587895 
L 280.172993 99.290106 
L 282.017102 96.992318 
L 283.184981 94.694529 
L 284.279708 92.39674 
L 285.589637 90.098951 
L 286.730297 87.801163 
L 288.420446 85.503374 
L 290.254348 83.205585 
L 291.505586 80.907796 
L 292.549276 78.610008 
L 294.674084 76.312219 
L 296.343819 74.01443 
L 297.553378 71.716641 
L 299.062349 69.418853 
L 300.884342 67.121064 
L 303.190328 64.823275 
L 304.72907 62.525486 
L 307.953708 60.227698 
L 310.127851 57.929909 
L 311.827357 55.63212 
L 314.165667 53.334331 
L 317.363086 51.036543 
L 319.894482 48.738754 
L 324.117729 46.440965 
L 328.854741 44.143176 
L 333.783139 41.845388 
L 342.061213 39.547599 
L 350.883674 37.24981 
L 371.853606 34.952021 
" clip-path="url(#pcdc3e818a5)" style="fill: none; stroke: #1f77b4; stroke-opacity: 0.2; stroke-width: 1.5; stroke-linecap: square"/>
   </g>
   <g id="line2d_19">
    <path d="M 175.986806 262.433108 
L 194.056179 260.135319 
L 204.04822 257.83753 
L 210.5715 255.539741 
L 215.448861 253.241953 
L 218.827459 250.944164 
L 221.258484 248.646375 
L 225.276735 246.348586 
L 227.990161 244.050798 
L 229.880202 241.753009 
L 232.443071 239.45522 
L 234.454749 237.157431 
L 238.201658 234.859643 
L 240.749216 232.561854 
L 242.197794 230.264065 
L 243.529839 227.966276 
L 245.695476 225.668488 
L 247.029222 223.370699 
L 248.95584 221.07291 
L 251.311161 218.775121 
L 253.395991 216.477333 
L 255.639032 214.179544 
L 257.392977 211.881755 
L 258.824543 209.583966 
L 260.529153 207.286178 
L 261.585603 204.988389 
L 262.831737 202.6906 
L 264.09063 200.392811 
L 265.544312 198.095023 
L 266.639889 195.797234 
L 268.31728 193.499445 
L 269.452836 191.201656 
L 270.873344 188.903868 
L 272.484387 186.606079 
L 273.635254 184.30829 
L 274.695106 182.010501 
L 275.894457 179.712713 
L 277.078497 177.414924 
L 278.502408 175.117135 
L 279.611595 172.819346 
L 280.601698 170.521558 
L 281.733851 168.223769 
L 282.685677 165.92598 
L 284.391987 163.628191 
L 285.650881 161.330403 
L 287.14284 159.032614 
L 288.34134 156.734825 
L 289.943877 154.437036 
L 291.291234 152.139248 
L 292.620727 149.841459 
L 293.539379 147.54367 
L 294.862068 145.245881 
L 295.818997 142.948093 
L 297.106811 140.650304 
L 298.451615 138.352515 
L 300.152822 136.054726 
L 301.471258 133.756938 
L 303.302608 131.459149 
L 304.171074 129.16136 
L 305.466543 126.863571 
L 306.389448 124.565783 
L 307.172854 122.267994 
L 308.226752 119.970205 
L 309.235568 117.672416 
L 310.588028 115.374628 
L 312.166748 113.076839 
L 313.645948 110.77905 
L 314.708352 108.481261 
L 315.656775 106.183473 
L 316.688557 103.885684 
L 317.864942 101.587895 
L 319.076202 99.290106 
L 320.403143 96.992318 
L 321.614403 94.694529 
L 322.653841 92.39674 
L 323.998645 90.098951 
L 325.397037 87.801163 
L 326.758854 85.503374 
L 328.072186 83.205585 
L 329.580306 80.907796 
L 330.731173 78.610008 
L 332.239293 76.312219 
L 334.483185 74.01443 
L 337.006927 71.716641 
L 338.825517 69.418853 
L 340.233266 67.121064 
L 342.269611 64.823275 
L 344.45226 62.525486 
L 347.094235 60.227698 
L 350.416693 57.929909 
L 352.85027 55.63212 
L 355.383368 53.334331 
L 360.057435 51.036543 
L 363.146827 48.738754 
L 366.976245 46.440965 
L 370.627886 44.143176 
L 377.308527 41.845388 
L 385.106011 39.547599 
L 395.281782 37.24981 
L 407.533877 34.952021 
" clip-path="url(#pcdc3e818a5)" style="fill: none; stroke: #1f77b4; stroke-opacity: 0.2; stroke-width: 1.5; stroke-linecap: square"/>
   </g>
   <g id="line2d_20">
    <path d="M 171.1171 262.433108 
L 186.639766 260.135319 
L 193.963463 257.83753 
L 201.396038 255.539741 
L 207.927823 253.241953 
L 214.668007 250.944164 
L 217.748043 248.646375 
L 220.287945 246.348586 
L 224.133524 244.050798 
L 225.909585 241.753009 
L 228.79228 239.45522 
L 230.69423 237.157431 
L 232.654021 234.859643 
L 234.14683 232.561854 
L 235.904177 230.264065 
L 237.124794 227.966276 
L 238.730733 225.668488 
L 241.175368 223.370699 
L 243.224472 221.07291 
L 245.635934 218.775121 
L 246.872711 216.477333 
L 248.009968 214.179544 
L 249.273965 211.881755 
L 250.36529 209.583966 
L 251.438752 207.286178 
L 252.443315 204.988389 
L 253.933572 202.6906 
L 255.704529 200.392811 
L 256.938755 198.095023 
L 257.913547 195.797234 
L 259.244741 193.499445 
L 260.399861 191.201656 
L 261.573694 188.903868 
L 263.097125 186.606079 
L 264.657132 184.30829 
L 265.76717 182.010501 
L 266.893369 179.712713 
L 268.09187 177.414924 
L 269.112594 175.117135 
L 270.259208 172.819346 
L 271.356487 170.521558 
L 272.45972 168.223769 
L 273.727119 165.92598 
L 274.910309 163.628191 
L 276.043313 161.330403 
L 277.291999 159.032614 
L 278.057542 156.734825 
L 279.373426 154.437036 
L 280.316745 152.139248 
L 281.424231 149.841459 
L 282.472175 147.54367 
L 283.90289 145.245881 
L 284.742436 142.948093 
L 286.141679 140.650304 
L 287.217693 138.352515 
L 288.309017 136.054726 
L 289.732928 133.756938 
L 290.931428 131.459149 
L 292.318763 129.16136 
L 293.683131 126.863571 
L 294.891839 124.565783 
L 295.856423 122.267994 
L 296.631323 119.970205 
L 297.778788 117.672416 
L 299.326036 115.374628 
L 300.424165 113.076839 
L 301.71368 110.77905 
L 302.696978 108.481261 
L 303.957573 106.183473 
L 305.080369 103.885684 
L 306.475359 101.587895 
L 307.401667 99.290106 
L 308.771989 96.992318 
L 309.583465 94.694529 
L 311.353571 92.39674 
L 312.501036 90.098951 
L 313.830529 87.801163 
L 315.496011 85.503374 
L 316.857827 83.205585 
L 318.239208 80.907796 
L 319.300761 78.610008 
L 320.674486 76.312219 
L 322.402913 74.01443 
L 324.376313 71.716641 
L 325.779809 69.418853 
L 327.771072 67.121064 
L 330.327987 64.823275 
L 332.072575 62.525486 
L 334.576752 60.227698 
L 336.342605 57.929909 
L 338.912279 55.63212 
L 341.609543 53.334331 
L 345.59292 51.036543 
L 350.016059 48.738754 
L 353.636228 46.440965 
L 358.266063 44.143176 
L 361.002455 41.845388 
L 368.357625 39.547599 
L 375.60817 37.24981 
L 390.969222 34.952021 
" clip-path="url(#pcdc3e818a5)" style="fill: none; stroke: #1f77b4; stroke-opacity: 0.2; stroke-width: 1.5; stroke-linecap: square"/>
   </g>
   <g id="line2d_21">
    <path d="M 204.0193 262.433108 
L 216.953579 260.135319 
L 226.907343 257.83753 
L 231.503154 255.539741 
L 236.765839 253.241953 
L 240.159747 250.944164 
L 242.190138 248.646375 
L 244.991176 246.348586 
L 248.767006 244.050798 
L 251.852145 241.753009 
L 254.588537 239.45522 
L 257.315572 237.157431 
L 259.132462 234.859643 
L 261.607718 232.561854 
L 263.407596 230.264065 
L 264.549106 227.966276 
L 267.81032 225.668488 
L 269.166182 223.370699 
L 271.570839 221.07291 
L 273.119788 218.775121 
L 274.553055 216.477333 
L 276.104556 214.179544 
L 278.006506 211.881755 
L 279.837005 209.583966 
L 280.90026 207.286178 
L 282.107266 204.988389 
L 283.050586 202.6906 
L 284.438771 200.392811 
L 285.783575 198.095023 
L 287.407377 195.797234 
L 288.857657 193.499445 
L 289.934521 191.201656 
L 291.435836 188.903868 
L 292.951612 186.606079 
L 294.00636 184.30829 
L 295.171687 182.010501 
L 296.45695 179.712713 
L 297.639289 177.414924 
L 298.745924 175.117135 
L 299.892538 172.819346 
L 300.560262 170.521558 
L 301.895709 168.223769 
L 302.848385 165.92598 
L 304.068151 163.628191 
L 305.361919 161.330403 
L 306.569776 159.032614 
L 307.99794 156.734825 
L 308.896177 154.437036 
L 309.833542 152.139248 
L 310.821093 149.841459 
L 311.880095 147.54367 
L 313.235957 145.245881 
L 314.74748 142.948093 
L 315.724823 140.650304 
L 316.854425 138.352515 
L 318.046121 136.054726 
L 319.287151 133.756938 
L 320.417604 131.459149 
L 321.788777 129.16136 
L 323.396418 126.863571 
L 324.222354 124.565783 
L 325.635206 122.267994 
L 326.793729 119.970205 
L 328.158947 117.672416 
L 329.179672 115.374628 
L 330.762645 113.076839 
L 332.146577 110.77905 
L 333.368044 108.481261 
L 334.566545 106.183473 
L 336.230325 103.885684 
L 337.263809 101.587895 
L 338.441895 99.290106 
L 339.892174 96.992318 
L 342.101192 94.694529 
L 343.587196 92.39674 
L 344.464169 90.098951 
L 346.014819 87.801163 
L 347.746648 85.503374 
L 349.054026 83.205585 
L 350.39883 80.907796 
L 352.587433 78.610008 
L 354.130428 76.312219 
L 355.028666 74.01443 
L 356.620996 71.716641 
L 357.970904 69.418853 
L 360.146748 67.121064 
L 361.717813 64.823275 
L 363.645281 62.525486 
L 365.627187 60.227698 
L 368.813549 57.929909 
L 372.405648 55.63212 
L 374.350128 53.334331 
L 376.476637 51.036543 
L 379.574535 48.738754 
L 383.309536 46.440965 
L 387.972545 44.143176 
L 392.690843 41.845388 
L 399.799338 39.547599 
L 410.298339 37.24981 
L 428.402587 34.952021 
" clip-path="url(#pcdc3e818a5)" style="fill: none; stroke: #1f77b4; stroke-opacity: 0.2; stroke-width: 1.5; stroke-linecap: square"/>
   </g>
   <g id="line2d_22">
    <path d="M 136.665951 262.433108 
L 161.01363 260.135319 
L 167.84738 257.83753 
L 174.983944 255.539741 
L 181.695207 253.241953 
L 186.630409 250.944164 
L 189.774241 248.646375 
L 193.957509 246.348586 
L 196.497412 244.050798 
L 200.009554 241.753009 
L 201.938723 239.45522 
L 204.365495 237.157431 
L 206.814383 234.859643 
L 208.81075 232.561854 
L 211.054642 230.264065 
L 213.318099 227.966276 
L 214.874703 225.668488 
L 216.914451 223.370699 
L 218.579082 221.07291 
L 219.792043 218.775121 
L 221.399684 216.477333 
L 223.318646 214.179544 
L 224.696624 211.881755 
L 225.979334 209.583966 
L 227.300321 207.286178 
L 228.701266 204.988389 
L 229.624171 202.6906 
L 231.05999 200.392811 
L 232.190442 198.095023 
L 233.360872 195.797234 
L 234.276973 193.499445 
L 235.944156 191.201656 
L 237.128196 188.903868 
L 238.359019 186.606079 
L 239.30404 184.30829 
L 240.739859 182.010501 
L 242.378972 179.712713 
L 244.079329 177.414924 
L 244.930783 175.117135 
L 245.791594 172.819346 
L 246.887172 170.521558 
L 247.887481 168.223769 
L 248.859721 165.92598 
L 250.082039 163.628191 
L 250.99984 161.330403 
L 251.829179 159.032614 
L 252.675529 156.734825 
L 254.025437 154.437036 
L 254.992574 152.139248 
L 256.186821 149.841459 
L 257.2841 147.54367 
L 258.687596 145.245881 
L 259.638571 142.948093 
L 260.678008 140.650304 
L 261.803357 138.352515 
L 262.891279 136.054726 
L 264.035341 133.756938 
L 265.221933 131.459149 
L 266.35834 129.16136 
L 267.54238 126.863571 
L 269.225725 124.565783 
L 270.330659 122.267994 
L 271.511296 119.970205 
L 272.482686 117.672416 
L 273.600379 115.374628 
L 275.114454 113.076839 
L 276.245756 110.77905 
L 277.401727 108.481261 
L 278.574709 106.183473 
L 279.733231 103.885684 
L 280.638274 101.587895 
L 282.313112 99.290106 
L 283.416345 96.992318 
L 284.284811 94.694529 
L 285.729987 92.39674 
L 286.66395 90.098951 
L 288.118482 87.801163 
L 289.600234 85.503374 
L 291.6672 83.205585 
L 293.482389 80.907796 
L 294.635807 78.610008 
L 295.727132 76.312219 
L 297.419833 74.01443 
L 298.61323 71.716641 
L 300.28977 69.418853 
L 302.586399 67.121064 
L 304.060496 64.823275 
L 306.105347 62.525486 
L 307.978376 60.227698 
L 309.499255 57.929909 
L 313.18407 55.63212 
L 316.290475 53.334331 
L 319.822181 51.036543 
L 323.56824 48.738754 
L 327.212226 46.440965 
L 332.677354 44.143176 
L 338.150988 41.845388 
L 346.287863 39.547599 
L 355.816325 37.24981 
L 370.104765 34.952021 
" clip-path="url(#pcdc3e818a5)" style="fill: none; stroke: #1f77b4; stroke-opacity: 0.2; stroke-width: 1.5; stroke-linecap: square"/>
   </g>
   <g id="line2d_23">
    <path d="M 144.479596 262.433108 
L 164.406688 260.135319 
L 173.972577 257.83753 
L 180.161569 255.539741 
L 185.19459 253.241953 
L 189.297902 250.944164 
L 192.423871 248.646375 
L 196.277105 246.348586 
L 198.938644 244.050798 
L 201.315231 241.753009 
L 204.167305 239.45522 
L 208.27487 237.157431 
L 211.382125 234.859643 
L 213.956052 232.561854 
L 215.327225 230.264065 
L 216.956981 227.966276 
L 219.041811 225.668488 
L 220.893575 223.370699 
L 222.674739 221.07291 
L 224.347026 218.775121 
L 225.103212 216.477333 
L 226.863111 214.179544 
L 228.212169 211.881755 
L 229.350276 209.583966 
L 230.838833 207.286178 
L 232.593628 204.988389 
L 233.38554 202.6906 
L 234.606156 200.392811 
L 237.120541 198.095023 
L 238.643121 195.797234 
L 240.109562 193.499445 
L 241.310614 191.201656 
L 242.464033 188.903868 
L 243.523885 186.606079 
L 244.906966 184.30829 
L 245.893667 182.010501 
L 247.46218 179.712713 
L 248.989013 177.414924 
L 250.246205 175.117135 
L 251.938907 172.819346 
L 253.333897 170.521558 
L 254.279768 168.223769 
L 255.445945 165.92598 
L 256.367149 163.628191 
L 257.589467 161.330403 
L 258.719919 159.032614 
L 259.852072 156.734825 
L 260.76477 154.437036 
L 261.621328 152.139248 
L 262.637799 149.841459 
L 263.731676 147.54367 
L 264.699663 145.245881 
L 265.650637 142.948093 
L 266.524207 140.650304 
L 267.516862 138.352515 
L 268.812331 136.054726 
L 270.266863 133.756938 
L 271.569138 131.459149 
L 273.118087 129.16136 
L 274.08012 126.863571 
L 275.012381 124.565783 
L 276.27893 122.267994 
L 277.000242 119.970205 
L 278.232766 117.672416 
L 279.122498 115.374628 
L 280.638274 113.076839 
L 281.558627 110.77905 
L 282.874511 108.481261 
L 283.985399 106.183473 
L 285.581982 103.885684 
L 287.274683 101.587895 
L 288.924854 99.290106 
L 290.630315 96.992318 
L 291.702926 94.694529 
L 293.746076 92.39674 
L 294.93607 90.098951 
L 296.718085 87.801163 
L 297.771132 85.503374 
L 299.012163 83.205585 
L 300.213215 80.907796 
L 301.957803 78.610008 
L 303.495695 76.312219 
L 304.600629 74.01443 
L 306.387747 71.716641 
L 309.081609 69.418853 
L 310.797276 67.121064 
L 312.993535 64.823275 
L 315.358213 62.525486 
L 318.495239 60.227698 
L 320.326589 57.929909 
L 322.978771 55.63212 
L 325.40129 53.334331 
L 327.756612 51.036543 
L 330.659722 48.738754 
L 334.304559 46.440965 
L 338.49208 44.143176 
L 343.759869 41.845388 
L 350.858156 39.547599 
L 362.172035 37.24981 
L 383.83606 34.952021 
" clip-path="url(#pcdc3e818a5)" style="fill: none; stroke: #1f77b4; stroke-opacity: 0.2; stroke-width: 1.5; stroke-linecap: square"/>
   </g>
   <g id="line2d_24">
    <path d="M 139.354709 262.433108 
L 163.284742 260.135319 
L 173.481778 257.83753 
L 181.462142 255.539741 
L 186.749494 253.241953 
L 190.010708 250.944164 
L 193.390157 248.646375 
L 196.87508 246.348586 
L 199.712693 244.050798 
L 204.016748 241.753009 
L 206.095623 239.45522 
L 209.393414 237.157431 
L 211.539487 234.859643 
L 213.20752 232.561854 
L 214.428987 230.264065 
L 216.207599 227.966276 
L 217.852667 225.668488 
L 219.610865 223.370699 
L 220.828929 221.07291 
L 222.358314 218.775121 
L 223.631668 216.477333 
L 224.974771 214.179544 
L 226.004852 211.881755 
L 227.950183 209.583966 
L 229.850431 207.286178 
L 231.828085 204.988389 
L 232.859016 202.6906 
L 234.379045 200.392811 
L 236.06239 198.095023 
L 237.86652 195.797234 
L 238.787724 193.499445 
L 239.954752 191.201656 
L 241.103917 188.903868 
L 242.106779 186.606079 
L 243.662533 184.30829 
L 244.861884 182.010501 
L 246.204137 179.712713 
L 247.689291 177.414924 
L 248.990714 175.117135 
L 249.952747 172.819346 
L 251.418337 170.521558 
L 252.428854 168.223769 
L 253.348357 165.92598 
L 254.642125 163.628191 
L 255.826165 161.330403 
L 256.823923 159.032614 
L 257.827636 156.734825 
L 258.936823 154.437036 
L 259.624111 152.139248 
L 260.809001 149.841459 
L 261.913936 147.54367 
L 262.754332 145.245881 
L 263.85076 142.948093 
L 264.692858 140.650304 
L 265.927084 138.352515 
L 267.225955 136.054726 
L 267.987246 133.756938 
L 268.83955 131.459149 
L 269.594036 129.16136 
L 270.443789 126.863571 
L 271.331819 124.565783 
L 272.153502 122.267994 
L 273.518721 119.970205 
L 274.859272 117.672416 
L 275.953149 115.374628 
L 277.192478 113.076839 
L 278.112831 110.77905 
L 279.490809 108.481261 
L 280.894305 106.183473 
L 281.880155 103.885684 
L 283.495451 101.587895 
L 284.495761 99.290106 
L 285.598143 96.992318 
L 287.234705 94.694529 
L 288.572704 92.39674 
L 289.870726 90.098951 
L 291.467309 87.801163 
L 293.626991 85.503374 
L 295.284818 83.205585 
L 297.094052 80.907796 
L 297.930195 78.610008 
L 299.582918 76.312219 
L 301.996081 74.01443 
L 304.283354 71.716641 
L 306.238891 69.418853 
L 307.530958 67.121064 
L 309.565602 64.823275 
L 311.570475 62.525486 
L 314.686236 60.227698 
L 316.515034 57.929909 
L 319.605277 55.63212 
L 322.626621 53.334331 
L 326.614251 51.036543 
L 329.792957 48.738754 
L 334.512106 46.440965 
L 338.128022 44.143176 
L 343.645037 41.845388 
L 351.70961 39.547599 
L 363.811149 37.24981 
L 389.112354 34.952021 
" clip-path="url(#pcdc3e818a5)" style="fill: none; stroke: #1f77b4; stroke-opacity: 0.2; stroke-width: 1.5; stroke-linecap: square"/>
   </g>
   <g id="line2d_25">
    <path d="M 164.785207 262.433108 
L 178.385508 260.135319 
L 189.644098 257.83753 
L 197.761409 255.539741 
L 202.865881 253.241953 
L 206.267445 250.944164 
L 209.818715 248.646375 
L 212.24889 246.348586 
L 216.091067 244.050798 
L 219.664453 241.753009 
L 222.576919 239.45522 
L 224.36744 237.157431 
L 227.079165 234.859643 
L 229.292435 232.561854 
L 231.789808 230.264065 
L 233.447634 227.966276 
L 235.768081 225.668488 
L 237.940522 223.370699 
L 239.370387 221.07291 
L 241.201737 218.775121 
L 243.127503 216.477333 
L 244.282623 214.179544 
L 245.374798 211.881755 
L 246.794456 209.583966 
L 248.049947 207.286178 
L 249.473857 204.988389 
L 250.416326 202.6906 
L 251.54933 200.392811 
L 252.860961 198.095023 
L 253.661379 195.797234 
L 255.32516 193.499445 
L 256.557684 191.201656 
L 258.019872 188.903868 
L 259.1869 186.606079 
L 260.188911 184.30829 
L 261.552429 182.010501 
L 262.351146 179.712713 
L 264.114447 177.414924 
L 265.249152 175.117135 
L 266.479125 172.819346 
L 267.644452 170.521558 
L 268.757893 168.223769 
L 269.922369 165.92598 
L 270.731293 163.628191 
L 271.816663 161.330403 
L 273.231217 159.032614 
L 274.29277 156.734825 
L 275.554216 154.437036 
L 276.619171 152.139248 
L 278.089014 149.841459 
L 279.355563 147.54367 
L 280.554064 145.245881 
L 281.750013 142.948093 
L 283.025918 140.650304 
L 284.041539 138.352515 
L 284.881085 136.054726 
L 286.023445 133.756938 
L 287.329122 131.459149 
L 288.199289 129.16136 
L 288.860208 126.863571 
L 289.672535 124.565783 
L 291.4554 122.267994 
L 292.915036 119.970205 
L 293.880471 117.672416 
L 294.954784 115.374628 
L 296.422925 113.076839 
L 297.882561 110.77905 
L 298.877768 108.481261 
L 300.090728 106.183473 
L 301.317299 103.885684 
L 302.486879 101.587895 
L 304.400737 99.290106 
L 305.805084 96.992318 
L 307.139681 94.694529 
L 308.227603 92.39674 
L 309.471185 90.098951 
L 310.772609 87.801163 
L 313.101562 85.503374 
L 314.410641 83.205585 
L 315.870277 80.907796 
L 317.460905 78.610008 
L 318.982635 76.312219 
L 320.512871 74.01443 
L 322.594298 71.716641 
L 324.930907 69.418853 
L 327.108452 67.121064 
L 329.439956 64.823275 
L 331.832705 62.525486 
L 333.907327 60.227698 
L 335.577912 57.929909 
L 338.429136 55.63212 
L 341.026029 53.334331 
L 344.316164 51.036543 
L 346.927517 48.738754 
L 350.223606 46.440965 
L 353.680459 44.143176 
L 358.921879 41.845388 
L 366.098422 39.547599 
L 376.968286 37.24981 
L 397.833593 34.952021 
" clip-path="url(#pcdc3e818a5)" style="fill: none; stroke: #1f77b4; stroke-opacity: 0.2; stroke-width: 1.5; stroke-linecap: square"/>
   </g>
   <g id="line2d_26">
    <path d="M 147.103517 262.433108 
L 168.239342 260.135319 
L 178.742996 257.83753 
L 185.870225 255.539741 
L 191.36168 253.241953 
L 196.368086 250.944164 
L 200.775531 248.646375 
L 204.487238 246.348586 
L 207.86288 244.050798 
L 211.393884 241.753009 
L 214.017116 239.45522 
L 216.572075 237.157431 
L 219.047552 234.859643 
L 221.179807 232.561854 
L 223.703421 230.264065 
L 225.46978 227.966276 
L 227.648091 225.668488 
L 229.440589 223.370699 
L 231.517585 221.07291 
L 233.221875 218.775121 
L 234.759061 216.477333 
L 236.919577 214.179544 
L 238.554871 211.881755 
L 240.393204 209.583966 
L 241.865403 207.286178 
L 243.398149 204.988389 
L 245.003871 202.6906 
L 246.354566 200.392811 
L 247.725233 198.095023 
L 249.236803 195.797234 
L 250.661283 193.499445 
L 252.116568 191.201656 
L 253.479222 188.903868 
L 254.919435 186.606079 
L 256.293504 184.30829 
L 257.555587 182.010501 
L 258.879832 179.712713 
L 260.171687 177.414924 
L 261.392949 175.117135 
L 262.632691 172.819346 
L 263.903991 170.521558 
L 265.167567 168.223769 
L 266.483336 165.92598 
L 267.739703 163.628191 
L 269.017365 161.330403 
L 270.292705 159.032614 
L 271.585644 156.734825 
L 272.781822 154.437036 
L 274.130616 152.139248 
L 275.349607 149.841459 
L 276.799027 147.54367 
L 278.046714 145.245881 
L 279.444175 142.948093 
L 280.669274 140.650304 
L 281.964811 138.352515 
L 283.297222 136.054726 
L 284.561002 133.756938 
L 285.946785 131.459149 
L 287.277686 129.16136 
L 288.680131 126.863571 
L 290.057493 124.565783 
L 291.497318 122.267994 
L 293.186272 119.970205 
L 294.525356 117.672416 
L 295.853106 115.374628 
L 297.291796 113.076839 
L 298.551846 110.77905 
L 299.971623 108.481261 
L 301.485552 106.183473 
L 303.012569 103.885684 
L 304.475063 101.587895 
L 306.033862 99.290106 
L 307.408961 96.992318 
L 308.935628 94.694529 
L 310.314134 92.39674 
L 312.10038 90.098951 
L 313.83004 87.801163 
L 315.624431 85.503374 
L 317.40397 83.205585 
L 319.171673 80.907796 
L 320.869606 78.610008 
L 322.998624 76.312219 
L 325.157911 74.01443 
L 327.190986 71.716641 
L 329.422 69.418853 
L 331.516514 67.121064 
L 334.07131 64.823275 
L 336.686993 62.525486 
L 339.247999 60.227698 
L 342.19631 57.929909 
L 345.485216 55.63212 
L 349.059823 53.334331 
L 352.575419 51.036543 
L 356.46824 48.738754 
L 361.232633 46.440965 
L 366.861694 44.143176 
L 372.97363 41.845388 
L 380.665009 39.547599 
L 392.67959 37.24981 
L 411.527393 34.952021 
" clip-path="url(#pcdc3e818a5)" style="fill: none; stroke: #000000; stroke-width: 1.5; stroke-linecap: square"/>
   </g>
   <g id="line2d_27">
    <path d="M 64.99664 263.46636 
L 69.577991 263.425247 
L 74.158492 263.371039 
L 78.739843 263.300078 
L 83.321194 263.207903 
L 87.901695 263.089102 
L 92.483046 262.937079 
L 97.064398 262.744042 
L 101.644898 262.50082 
L 106.226249 262.196554 
L 110.807601 261.818844 
L 115.388101 261.353571 
L 119.969452 260.784517 
L 124.550804 260.093853 
L 129.131304 259.262024 
L 133.712656 258.267283 
L 138.294007 257.086793 
L 142.875358 255.696302 
L 147.455859 254.070961 
L 152.03721 252.184518 
L 156.618561 250.011653 
L 161.199062 247.527927 
L 165.780413 244.70884 
L 170.361764 241.533335 
L 174.942265 237.983478 
L 179.523616 234.042959 
L 184.104967 229.701803 
L 188.685468 224.955419 
L 193.266819 219.802241 
L 197.84817 214.249506 
L 202.428671 208.311295 
L 207.010022 202.005064 
L 211.591373 195.358255 
L 216.171874 188.40505 
L 220.753225 181.181795 
L 225.334576 173.734138 
L 229.915077 166.112535 
L 234.496428 158.366855 
L 239.07778 150.553794 
L 243.65828 142.731498 
L 248.239631 134.953922 
L 252.820983 127.278322 
L 257.401483 119.759617 
L 261.982834 112.445174 
L 266.564186 105.38221 
L 271.144686 98.612553 
L 275.726038 92.168424 
L 280.307389 86.079525 
L 284.887889 80.368706 
L 289.469241 75.049016 
L 294.050592 70.130199 
L 298.631092 65.615474 
L 303.212444 61.499806 
L 307.793795 57.7755 
L 312.375146 54.42944 
L 316.955647 51.445204 
L 321.536998 48.80167 
L 326.118349 46.477088 
L 330.69885 44.44788 
L 335.280201 42.688454 
L 339.861552 41.174081 
L 344.442053 39.880101 
L 349.023404 38.781866 
L 353.604755 37.856552 
L 358.185256 37.082577 
L 362.766607 36.439523 
L 367.347958 35.909122 
L 371.928459 35.474796 
L 376.50981 35.121516 
L 381.091162 34.836238 
L 385.671662 34.607529 
L 390.253013 34.425392 
L 394.834365 34.281389 
L 399.414865 34.168352 
L 403.996217 34.080211 
L 408.577568 34.011977 
L 413.158068 33.959531 
L 417.73942 33.919486 
L 422.320771 33.88913 
L 426.901271 33.866282 
L 431.482623 33.849198 
L 436.063974 33.836515 
L 440.644475 33.827167 
L 445.225826 33.820322 
L 449.807177 33.815345 
L 454.388528 33.811751 
L 458.969029 33.809175 
L 463.55038 33.807341 
L 468.131731 33.806043 
L 472.712232 33.805132 
L 477.293583 33.804496 
L 481.874934 33.804056 
L 486.455435 33.803753 
L 491.036786 33.803546 
L 495.618137 33.803406 
L 500.198638 33.803311 
L 504.779989 33.803248 
L 509.361341 33.803206 
L 513.941841 33.803178 
L 518.523192 33.80316 
" clip-path="url(#pcdc3e818a5)" style="fill: none; stroke-dasharray: 4,6.6; stroke-dashoffset: 0; stroke: #d62728; stroke-width: 4"/>
   </g>
   <g id="patch_3">
    <path d="M 42.320312 274.94952 
L 42.320312 22.32 
" style="fill: none; stroke: #000000; stroke-width: 0.8; stroke-linejoin: miter; stroke-linecap: square"/>
   </g>
   <g id="patch_4">
    <path d="M 42.320312 274.94952 
L 541.19952 274.94952 
" style="fill: none; stroke: #000000; stroke-width: 0.8; stroke-linejoin: miter; stroke-linecap: square"/>
   </g>
   <g id="text_18">
    <!-- Cumulative Temperature Distribution (8000 H$_2$O, NVE) -->
    <g transform="translate(144.699916 16.32) scale(0.12 -0.12)">
     <defs>
      <path id="IBMPlexSans-44" d="M 595 0 
L 2093 0 
C 3206 0 3923 742 3923 2234 
C 3923 3725 3206 4467 2093 4467 
L 595 4467 
L 595 0 
z
M 1133 474 
L 1133 3994 
L 2093 3994 
C 2829 3994 3347 3482 3347 2598 
L 3347 1869 
C 3347 986 2829 474 2093 474 
L 1133 474 
z
" transform="scale(0.015625)"/>
      <path id="IBMPlexSans-73" d="M 1536 -77 
C 2291 -77 2758 314 2758 954 
C 2758 1453 2477 1773 1747 1882 
L 1491 1920 
C 1082 1984 858 2112 858 2432 
C 858 2746 1082 2944 1504 2944 
C 1926 2944 2208 2746 2355 2541 
L 2694 2848 
C 2426 3181 2074 3379 1542 3379 
C 870 3379 365 3059 365 2406 
C 365 1792 819 1542 1427 1453 
L 1690 1414 
C 2125 1350 2266 1152 2266 896 
C 2266 557 2010 358 1574 358 
C 1158 358 851 544 595 864 
L 230 570 
C 525 179 928 -77 1536 -77 
z
" transform="scale(0.015625)"/>
      <path id="IBMPlexSans-6e" d="M 1056 0 
L 1056 2291 
C 1056 2714 1453 2918 1862 2918 
C 2355 2918 2611 2618 2611 2029 
L 2611 0 
L 3123 0 
L 3123 2118 
C 3123 2918 2694 3379 2016 3379 
C 1523 3379 1242 3136 1082 2765 
L 1056 2765 
L 1056 3302 
L 544 3302 
L 544 0 
L 1056 0 
z
" transform="scale(0.015625)"/>
      <path id="IBMPlexSans-28" d="M 531 1997 
C 531 749 1056 -339 1690 -877 
L 2176 -877 
C 1485 -262 1011 819 1011 1715 
L 1011 2266 
C 1011 3162 1466 4224 2176 4864 
L 1690 4864 
C 1037 4307 531 3232 531 1997 
z
" transform="scale(0.015625)"/>
      <path id="IBMPlexSans-48" d="M 3392 0 
L 3930 0 
L 3930 4467 
L 3392 4467 
L 3392 2496 
L 1133 2496 
L 1133 4467 
L 595 4467 
L 595 0 
L 1133 0 
L 1133 2022 
L 3392 2022 
L 3392 0 
z
" transform="scale(0.015625)"/>
      <path id="DejaVuSans-32" d="M 1228 531 
L 3431 531 
L 3431 0 
L 469 0 
L 469 531 
Q 828 903 1448 1529 
Q 2069 2156 2228 2338 
Q 2531 2678 2651 2914 
Q 2772 3150 2772 3378 
Q 2772 3750 2511 3984 
Q 2250 4219 1831 4219 
Q 1534 4219 1204 4116 
Q 875 4013 500 3803 
L 500 4441 
Q 881 4594 1212 4672 
Q 1544 4750 1819 4750 
Q 2544 4750 2975 4387 
Q 3406 4025 3406 3419 
Q 3406 3131 3298 2873 
Q 3191 2616 2906 2266 
Q 2828 2175 2409 1742 
Q 1991 1309 1228 531 
z
" transform="scale(0.015625)"/>
      <path id="IBMPlexSans-4f" d="M 2266 -77 
C 3418 -77 4160 736 4160 2234 
C 4160 3731 3418 4544 2266 4544 
C 1114 4544 371 3731 371 2234 
C 371 736 1114 -77 2266 -77 
z
M 2266 403 
C 1491 403 947 979 947 1862 
L 947 2605 
C 947 3488 1491 4064 2266 4064 
C 3040 4064 3584 3488 3584 2605 
L 3584 1862 
C 3584 979 3040 403 2266 403 
z
" transform="scale(0.015625)"/>
      <path id="IBMPlexSans-2c" d="M 870 749 
C 602 749 480 595 480 371 
L 480 282 
C 480 109 557 -19 730 -58 
C 659 -358 506 -582 250 -851 
L 678 -851 
C 1043 -538 1261 -64 1261 282 
L 1261 371 
C 1261 595 1139 749 870 749 
z
" transform="scale(0.015625)"/>
      <path id="IBMPlexSans-4e" d="M 3309 0 
L 3930 0 
L 3930 4467 
L 3405 4467 
L 3405 749 
L 3386 749 
L 2848 1741 
L 1216 4467 
L 595 4467 
L 595 0 
L 1120 0 
L 1120 3718 
L 1139 3718 
L 1677 2726 
L 3309 0 
z
" transform="scale(0.015625)"/>
      <path id="IBMPlexSans-56" d="M 2266 0 
L 3770 4467 
L 3213 4467 
L 2470 2214 
L 1965 538 
L 1933 538 
L 1440 2214 
L 704 4467 
L 128 4467 
L 1613 0 
L 2266 0 
z
" transform="scale(0.015625)"/>
      <path id="IBMPlexSans-45" d="M 3322 0 
L 3322 474 
L 1133 474 
L 1133 2022 
L 3194 2022 
L 3194 2496 
L 1133 2496 
L 1133 3994 
L 3322 3994 
L 3322 4467 
L 595 4467 
L 595 0 
L 3322 0 
z
" transform="scale(0.015625)"/>
      <path id="IBMPlexSans-29" d="M 1613 1997 
C 1613 3232 1107 4307 454 4864 
L -32 4864 
C 678 4224 1133 3162 1133 2266 
L 1133 1715 
C 1133 819 659 -262 -32 -877 
L 454 -877 
C 1088 -339 1613 749 1613 1997 
z
" transform="scale(0.015625)"/>
     </defs>
     <use xlink:href="#IBMPlexSans-43"/>
     <use xlink:href="#IBMPlexSans-75" transform="translate(62.099991 0)"/>
     <use xlink:href="#IBMPlexSans-6d" transform="translate(118.899979 0)"/>
     <use xlink:href="#IBMPlexSans-75" transform="translate(206.199966 0)"/>
     <use xlink:href="#IBMPlexSans-6c" transform="translate(262.999954 0)"/>
     <use xlink:href="#IBMPlexSans-61" transform="translate(290.199951 0)"/>
     <use xlink:href="#IBMPlexSans-74" transform="translate(343.599945 0)"/>
     <use xlink:href="#IBMPlexSans-69" transform="translate(378.699936 0)"/>
     <use xlink:href="#IBMPlexSans-76" transform="translate(403.699921 0)"/>
     <use xlink:href="#IBMPlexSans-65" transform="translate(452.899918 0)"/>
     <use xlink:href="#IBMPlexSans-20" transform="translate(507.799911 0)"/>
     <use xlink:href="#IBMPlexSans-54" transform="translate(531.399902 0)"/>
     <use xlink:href="#IBMPlexSans-65" transform="translate(588.599899 0)"/>
     <use xlink:href="#IBMPlexSans-6d" transform="translate(643.499893 0)"/>
     <use xlink:href="#IBMPlexSans-70" transform="translate(730.799881 0)"/>
     <use xlink:href="#IBMPlexSans-65" transform="translate(788.799866 0)"/>
     <use xlink:href="#IBMPlexSans-72" transform="translate(843.69986 0)"/>
     <use xlink:href="#IBMPlexSans-61" transform="translate(880.399857 0)"/>
     <use xlink:href="#IBMPlexSans-74" transform="translate(933.79985 0)"/>
     <use xlink:href="#IBMPlexSans-75" transform="translate(968.899841 0)"/>
     <use xlink:href="#IBMPlexSans-72" transform="translate(1025.699829 0)"/>
     <use xlink:href="#IBMPlexSans-65" transform="translate(1062.399826 0)"/>
     <use xlink:href="#IBMPlexSans-20" transform="translate(1117.29982 0)"/>
     <use xlink:href="#IBMPlexSans-44" transform="translate(1140.899811 0)"/>
     <use xlink:href="#IBMPlexSans-69" transform="translate(1207.999802 0)"/>
     <use xlink:href="#IBMPlexSans-73" transform="translate(1232.999786 0)"/>
     <use xlink:href="#IBMPlexSans-74" transform="translate(1281.699783 0)"/>
     <use xlink:href="#IBMPlexSans-72" transform="translate(1316.799774 0)"/>
     <use xlink:href="#IBMPlexSans-69" transform="translate(1353.499771 0)"/>
     <use xlink:href="#IBMPlexSans-62" transform="translate(1378.499756 0)"/>
     <use xlink:href="#IBMPlexSans-75" transform="translate(1436.499741 0)"/>
     <use xlink:href="#IBMPlexSans-74" transform="translate(1493.299728 0)"/>
     <use xlink:href="#IBMPlexSans-69" transform="translate(1528.399719 0)"/>
     <use xlink:href="#IBMPlexSans-6f" transform="translate(1553.399704 0)"/>
     <use xlink:href="#IBMPlexSans-6e" transform="translate(1609.399689 0)"/>
     <use xlink:href="#IBMPlexSans-20" transform="translate(1666.199677 0)"/>
     <use xlink:href="#IBMPlexSans-28" transform="translate(1689.799667 0)"/>
     <use xlink:href="#IBMPlexSans-38" transform="translate(1723.299652 0)"/>
     <use xlink:href="#IBMPlexSans-30" transform="translate(1783.299637 0)"/>
     <use xlink:href="#IBMPlexSans-30" transform="translate(1843.299622 0)"/>
     <use xlink:href="#IBMPlexSans-30" transform="translate(1903.299606 0)"/>
     <use xlink:href="#IBMPlexSans-20" transform="translate(1963.299591 0)"/>
     <use xlink:href="#IBMPlexSans-48" transform="translate(1986.899582 0)"/>
     <use xlink:href="#DejaVuSans-32" transform="translate(2058.556595 -16.40625) scale(0.7)"/>
     <use xlink:href="#IBMPlexSans-4f" transform="translate(2105.827103 0)"/>
     <use xlink:href="#IBMPlexSans-2c" transform="translate(2176.62709 0)"/>
     <use xlink:href="#IBMPlexSans-20" transform="translate(2203.827087 0)"/>
     <use xlink:href="#IBMPlexSans-4e" transform="translate(2227.427078 0)"/>
     <use xlink:href="#IBMPlexSans-56" transform="translate(2298.12706 0)"/>
     <use xlink:href="#IBMPlexSans-45" transform="translate(2359.027054 0)"/>
     <use xlink:href="#IBMPlexSans-29" transform="translate(2417.327042 0)"/>
    </g>
   </g>
   <g id="legend_1">
    <g id="patch_5">
     <path d="M 49.320312 73.52 
L 148.479688 73.52 
Q 150.479688 73.52 150.479688 71.52 
L 150.479688 29.32 
Q 150.479688 27.32 148.479688 27.32 
L 49.320312 27.32 
Q 47.320312 27.32 47.320312 29.32 
L 47.320312 71.52 
Q 47.320312 73.52 49.320312 73.52 
z
" style="fill: #ffffff; opacity: 0.8; stroke: #cccccc; stroke-linejoin: miter"/>
    </g>
    <g id="line2d_28">
     <path d="M 51.320312 35.22 
L 61.320312 35.22 
L 71.320312 35.22 
" style="fill: none; stroke: #1f77b4; stroke-opacity: 0.2; stroke-width: 1.5; stroke-linecap: square"/>
    </g>
    <g id="text_19">
     <!-- Individual NVE -->
     <g transform="translate(79.320312 38.72) scale(0.1 -0.1)">
      <defs>
       <path id="IBMPlexSans-49" d="M 2176 0 
L 2176 448 
L 1549 448 
L 1549 4019 
L 2176 4019 
L 2176 4467 
L 384 4467 
L 384 4019 
L 1011 4019 
L 1011 448 
L 384 448 
L 384 0 
L 2176 0 
z
" transform="scale(0.015625)"/>
       <path id="IBMPlexSans-64" d="M 2656 0 
L 3168 0 
L 3168 4736 
L 2656 4736 
L 2656 2765 
L 2630 2765 
C 2458 3181 2118 3379 1664 3379 
C 838 3379 320 2707 320 1651 
C 320 595 838 -77 1664 -77 
C 2118 -77 2432 128 2630 538 
L 2656 538 
L 2656 0 
z
M 1805 384 
C 1229 384 870 781 870 1370 
L 870 1933 
C 870 2522 1229 2918 1805 2918 
C 2272 2918 2656 2650 2656 2285 
L 2656 1056 
C 2656 627 2272 384 1805 384 
z
" transform="scale(0.015625)"/>
      </defs>
      <use xlink:href="#IBMPlexSans-49"/>
      <use xlink:href="#IBMPlexSans-6e" transform="translate(39.999985 0)"/>
      <use xlink:href="#IBMPlexSans-64" transform="translate(96.799973 0)"/>
      <use xlink:href="#IBMPlexSans-69" transform="translate(154.799957 0)"/>
      <use xlink:href="#IBMPlexSans-76" transform="translate(179.799942 0)"/>
      <use xlink:href="#IBMPlexSans-69" transform="translate(228.999939 0)"/>
      <use xlink:href="#IBMPlexSans-64" transform="translate(253.999924 0)"/>
      <use xlink:href="#IBMPlexSans-75" transform="translate(311.999908 0)"/>
      <use xlink:href="#IBMPlexSans-61" transform="translate(368.799896 0)"/>
      <use xlink:href="#IBMPlexSans-6c" transform="translate(422.19989 0)"/>
      <use xlink:href="#IBMPlexSans-20" transform="translate(449.399887 0)"/>
      <use xlink:href="#IBMPlexSans-4e" transform="translate(472.999878 0)"/>
      <use xlink:href="#IBMPlexSans-56" transform="translate(543.69986 0)"/>
      <use xlink:href="#IBMPlexSans-45" transform="translate(604.599854 0)"/>
     </g>
    </g>
    <g id="line2d_29">
     <path d="M 51.320312 49.62 
L 61.320312 49.62 
L 71.320312 49.62 
" style="fill: none; stroke: #000000; stroke-width: 1.5; stroke-linecap: square"/>
    </g>
    <g id="text_20">
     <!-- Combined NVE -->
     <g transform="translate(79.320312 53.12) scale(0.1 -0.1)">
      <use xlink:href="#IBMPlexSans-43"/>
      <use xlink:href="#IBMPlexSans-6f" transform="translate(62.099991 0)"/>
      <use xlink:href="#IBMPlexSans-6d" transform="translate(118.099976 0)"/>
      <use xlink:href="#IBMPlexSans-62" transform="translate(205.399963 0)"/>
      <use xlink:href="#IBMPlexSans-69" transform="translate(263.399948 0)"/>
      <use xlink:href="#IBMPlexSans-6e" transform="translate(288.399933 0)"/>
      <use xlink:href="#IBMPlexSans-65" transform="translate(345.199921 0)"/>
      <use xlink:href="#IBMPlexSans-64" transform="translate(400.099915 0)"/>
      <use xlink:href="#IBMPlexSans-20" transform="translate(458.099899 0)"/>
      <use xlink:href="#IBMPlexSans-4e" transform="translate(481.69989 0)"/>
      <use xlink:href="#IBMPlexSans-56" transform="translate(552.399872 0)"/>
      <use xlink:href="#IBMPlexSans-45" transform="translate(613.299866 0)"/>
     </g>
    </g>
    <g id="line2d_30">
     <path d="M 51.320312 64.02 
L 61.320312 64.02 
L 71.320312 64.02 
" style="fill: none; stroke-dasharray: 4,6.6; stroke-dashoffset: 0; stroke: #d62728; stroke-width: 4"/>
    </g>
    <g id="text_21">
     <!-- NVT exact -->
     <g transform="translate(79.320312 67.52) scale(0.1 -0.1)">
      <defs>
       <path id="IBMPlexSans-78" d="M 134 0 
L 704 0 
L 1632 1293 
L 1651 1293 
L 2509 0 
L 3110 0 
L 1920 1702 
L 3085 3302 
L 2515 3302 
L 1645 2074 
L 1626 2074 
L 787 3302 
L 186 3302 
L 1357 1664 
L 134 0 
z
" transform="scale(0.015625)"/>
       <path id="IBMPlexSans-63" d="M 1773 -77 
C 2400 -77 2829 230 3040 704 
L 2669 954 
C 2490 576 2189 378 1773 378 
C 1165 378 851 794 851 1370 
L 851 1933 
C 851 2509 1165 2925 1773 2925 
C 2176 2925 2458 2726 2579 2387 
L 3008 2605 
C 2816 3059 2426 3379 1773 3379 
C 845 3379 301 2707 301 1651 
C 301 595 845 -77 1773 -77 
z
" transform="scale(0.015625)"/>
      </defs>
      <use xlink:href="#IBMPlexSans-4e"/>
      <use xlink:href="#IBMPlexSans-56" transform="translate(70.699982 0)"/>
      <use xlink:href="#IBMPlexSans-54" transform="translate(131.599976 0)"/>
      <use xlink:href="#IBMPlexSans-20" transform="translate(188.799973 0)"/>
      <use xlink:href="#IBMPlexSans-65" transform="translate(212.399963 0)"/>
      <use xlink:href="#IBMPlexSans-78" transform="translate(267.299957 0)"/>
      <use xlink:href="#IBMPlexSans-61" transform="translate(317.999954 0)"/>
      <use xlink:href="#IBMPlexSans-63" transform="translate(371.399948 0)"/>
      <use xlink:href="#IBMPlexSans-74" transform="translate(421.699936 0)"/>
     </g>
    </g>
   </g>
  </g>
 </g>
 <defs>
  <clipPath id="pcdc3e818a5">
   <rect x="42.320312" y="22.32" width="498.879207" height="252.62952"/>
  </clipPath>
 </defs>
</svg>