<?xml version="1.0" encoding="utf-8" standalone="no"?>
<!DOCTYPE svg PUBLIC "-//W3C//DTD SVG 1.1//EN"
  "http://www.w3.org/Graphics/SVG/1.1/DTD/svg11.dtd">
<svg xmlns:xlink="http://www.w3.org/1999/xlink" width="548.39952pt" height="312.14952pt" viewBox="0 0 548.39952 312.14952" xmlns="http://www.w3.org/2000/svg" version="1.1">
 <metadata>
  <rdf:RDF xmlns:dc="http://purl.org/dc/elements/1.1/" xmlns:cc="http://creativecommons.org/ns#" xmlns:rdf="http://www.w3.org/1999/02/22-rdf-syntax-ns#">
   <cc:Work>
    <dc:type rdf:resource="http://purl.org/dc/dcmitype/StillImage"/>
    <dc:date>2025-06-25T08:45:31.082476</dc:date>
    <dc:format>image/svg+xml</dc:format>
    <dc:creator>
     <cc:Agent>
      <dc:title>Matplotlib v3.10.1, https://matplotlib.org/</dc:title>
     </cc:Agent>
    </dc:creator>
   </cc:Work>
  </rdf:RDF>
 </metadata>
 <defs>
  <style type="text/css">*{stroke-linejoin: round; stroke-linecap: butt}</style>
 </defs>
 <g id="figure_1">
  <g id="patch_1">
   <path d="M 0 312.14952 
L 548.39952 312.14952 
L 548.39952 0 
L 0 0 
z
" style="fill: #ffffff"/>
  </g>
  <g id="axes_1">
   <g id="patch_2">
    <path d="M 42.320312 274.94952 
L 541.19952 274.94952 
L 541.19952 22.32 
L 42.320312 22.32 
z
" style="fill: #ffffff"/>
   </g>
   <g id="matplotlib.axis_1">
    <g id="xtick_1">
     <g id="line2d_1">
      <defs>
       <path id="mbb9dc1b548" d="M 0 0 
L 0 3.5 
" style="stroke: #000000; stroke-width: 0.8"/>
      </defs>
      <g>
       <use xlink:href="#mbb9dc1b548" x="69.231684" y="274.94952" style="stroke: #000000; stroke-width: 0.8"/>
      </g>
     </g>
     <g id="text_1">
      <!-- 285 -->
      <g transform="translate(60.231684 289.34952) scale(0.1 -0.1)">
       <defs>
        <path id="IBMPlexSans-32" d="M 3411 474 
L 1062 474 
L 2266 1555 
C 2835 2067 3245 2554 3245 3245 
C 3245 4006 2746 4544 1875 4544 
C 1011 4544 614 4019 442 3494 
L 922 3309 
C 1043 3731 1299 4064 1850 4064 
C 2400 4064 2675 3725 2675 3232 
L 2675 3155 
C 2675 2726 2355 2278 1939 1894 
L 480 550 
L 480 0 
L 3411 0 
L 3411 474 
z
" transform="scale(0.015625)"/>
        <path id="IBMPlexSans-38" d="M 1920 -77 
C 2938 -77 3469 480 3469 1216 
C 3469 1824 3104 2176 2566 2323 
L 2566 2374 
C 3034 2534 3334 2912 3334 3424 
C 3334 4102 2810 4544 1920 4544 
C 1030 4544 506 4102 506 3424 
C 506 2912 806 2534 1274 2374 
L 1274 2323 
C 736 2176 371 1824 371 1216 
C 371 480 902 -77 1920 -77 
z
M 1920 390 
C 1299 390 941 685 941 1190 
L 941 1325 
C 941 1830 1299 2125 1920 2125 
C 2541 2125 2899 1830 2899 1325 
L 2899 1190 
C 2899 685 2541 390 1920 390 
z
M 1920 2573 
C 1363 2573 1062 2822 1062 3277 
L 1062 3373 
C 1062 3827 1363 4077 1920 4077 
C 2477 4077 2778 3827 2778 3373 
L 2778 3277 
C 2778 2822 2477 2573 1920 2573 
z
" transform="scale(0.015625)"/>
        <path id="IBMPlexSans-35" d="M 3187 4467 
L 794 4467 
L 634 2010 
L 1088 1946 
C 1274 2150 1478 2323 1888 2323 
C 2496 2323 2822 1984 2822 1395 
L 2822 1331 
C 2822 742 2496 403 1888 403 
C 1350 403 1126 640 896 992 
L 493 685 
C 762 301 1146 -77 1888 -77 
C 2829 -77 3392 531 3392 1402 
C 3392 2266 2829 2784 2061 2784 
C 1594 2784 1357 2592 1146 2291 
L 1101 2291 
L 1229 3994 
L 3187 3994 
L 3187 4467 
z
" transform="scale(0.015625)"/>
       </defs>
       <use xlink:href="#IBMPlexSans-32"/>
       <use xlink:href="#IBMPlexSans-38" transform="translate(59.999985 0)"/>
       <use xlink:href="#IBMPlexSans-35" transform="translate(119.999969 0)"/>
      </g>
     </g>
    </g>
    <g id="xtick_2">
     <g id="line2d_2">
      <g>
       <use xlink:href="#mbb9dc1b548" x="148.904387" y="274.94952" style="stroke: #000000; stroke-width: 0.8"/>
      </g>
     </g>
     <g id="text_2">
      <!-- 290 -->
      <g transform="translate(139.904387 289.34952) scale(0.1 -0.1)">
       <defs>
        <path id="IBMPlexSans-39" d="M 3411 2829 
C 3411 3891 2842 4544 1914 4544 
C 1018 4544 429 3942 429 3066 
C 429 2221 979 1690 1747 1690 
C 2291 1690 2611 1965 2822 2330 
L 2854 2317 
C 2611 1280 2080 698 1126 0 
L 1818 0 
C 2534 467 3411 1504 3411 2829 
z
M 1920 2144 
C 1331 2144 986 2483 986 3085 
L 986 3136 
C 986 3738 1331 4077 1920 4077 
C 2509 4077 2854 3738 2854 3136 
L 2854 3085 
C 2854 2483 2509 2144 1920 2144 
z
" transform="scale(0.015625)"/>
        <path id="IBMPlexSans-30" d="M 1920 -77 
C 2989 -77 3456 774 3456 2234 
C 3456 3693 2989 4544 1920 4544 
C 851 4544 384 3693 384 2234 
C 384 774 851 -77 1920 -77 
z
M 1920 390 
C 1222 390 947 1005 947 1869 
L 947 2598 
C 947 3462 1222 4077 1920 4077 
C 2618 4077 2893 3462 2893 2598 
L 2893 1869 
C 2893 1005 2618 390 1920 390 
z
" transform="scale(0.015625)"/>
       </defs>
       <use xlink:href="#IBMPlexSans-32"/>
       <use xlink:href="#IBMPlexSans-39" transform="translate(59.999985 0)"/>
       <use xlink:href="#IBMPlexSans-30" transform="translate(119.999969 0)"/>
      </g>
     </g>
    </g>
    <g id="xtick_3">
     <g id="line2d_3">
      <g>
       <use xlink:href="#mbb9dc1b548" x="228.57709" y="274.94952" style="stroke: #000000; stroke-width: 0.8"/>
      </g>
     </g>
     <g id="text_3">
      <!-- 295 -->
      <g transform="translate(219.57709 289.34952) scale(0.1 -0.1)">
       <use xlink:href="#IBMPlexSans-32"/>
       <use xlink:href="#IBMPlexSans-39" transform="translate(59.999985 0)"/>
       <use xlink:href="#IBMPlexSans-35" transform="translate(119.999969 0)"/>
      </g>
     </g>
    </g>
    <g id="xtick_4">
     <g id="line2d_4">
      <g>
       <use xlink:href="#mbb9dc1b548" x="308.249793" y="274.94952" style="stroke: #000000; stroke-width: 0.8"/>
      </g>
     </g>
     <g id="text_4">
      <!-- 300 -->
      <g transform="translate(299.249793 289.34952) scale(0.1 -0.1)">
       <defs>
        <path id="IBMPlexSans-33" d="M 1184 2573 
L 1184 2106 
L 1709 2106 
C 2336 2106 2669 1805 2669 1280 
L 2669 1229 
C 2669 704 2336 403 1709 403 
C 1165 403 902 640 672 992 
L 269 685 
C 544 301 941 -77 1715 -77 
C 2624 -77 3232 454 3232 1222 
C 3232 1894 2771 2253 2291 2349 
L 2291 2374 
C 2765 2496 3149 2842 3149 3418 
C 3149 4141 2547 4544 1792 4544 
C 1075 4544 685 4173 461 3814 
L 858 3507 
C 1043 3846 1318 4064 1779 4064 
C 2253 4064 2579 3827 2579 3360 
L 2579 3315 
C 2579 2886 2272 2573 1670 2573 
L 1184 2573 
z
" transform="scale(0.015625)"/>
       </defs>
       <use xlink:href="#IBMPlexSans-33"/>
       <use xlink:href="#IBMPlexSans-30" transform="translate(59.999985 0)"/>
       <use xlink:href="#IBMPlexSans-30" transform="translate(119.999969 0)"/>
      </g>
     </g>
    </g>
    <g id="xtick_5">
     <g id="line2d_5">
      <g>
       <use xlink:href="#mbb9dc1b548" x="387.922496" y="274.94952" style="stroke: #000000; stroke-width: 0.8"/>
      </g>
     </g>
     <g id="text_5">
      <!-- 305 -->
      <g transform="translate(378.922496 289.34952) scale(0.1 -0.1)">
       <use xlink:href="#IBMPlexSans-33"/>
       <use xlink:href="#IBMPlexSans-30" transform="translate(59.999985 0)"/>
       <use xlink:href="#IBMPlexSans-35" transform="translate(119.999969 0)"/>
      </g>
     </g>
    </g>
    <g id="xtick_6">
     <g id="line2d_6">
      <g>
       <use xlink:href="#mbb9dc1b548" x="467.595199" y="274.94952" style="stroke: #000000; stroke-width: 0.8"/>
      </g>
     </g>
     <g id="text_6">
      <!-- 310 -->
      <g transform="translate(458.595199 289.34952) scale(0.1 -0.1)">
       <defs>
        <path id="IBMPlexSans-31" d="M 3501 0 
L 3501 474 
L 2349 474 
L 2349 4467 
L 1510 4467 
L 326 3360 
L 640 3021 
L 1766 4070 
L 1811 4070 
L 1811 474 
L 563 474 
L 563 0 
L 3501 0 
z
" transform="scale(0.015625)"/>
       </defs>
       <use xlink:href="#IBMPlexSans-33"/>
       <use xlink:href="#IBMPlexSans-31" transform="translate(59.999985 0)"/>
       <use xlink:href="#IBMPlexSans-30" transform="translate(119.999969 0)"/>
      </g>
     </g>
    </g>
    <g id="text_7">
     <!-- Temperature [K] -->
     <g transform="translate(254.94351 302.94952) scale(0.1 -0.1)">
      <defs>
       <path id="IBMPlexSans-54" d="M 3520 3994 
L 3520 4467 
L 141 4467 
L 141 3994 
L 1562 3994 
L 1562 0 
L 2099 0 
L 2099 3994 
L 3520 3994 
z
" transform="scale(0.015625)"/>
       <path id="IBMPlexSans-65" d="M 1786 -77 
C 2406 -77 2880 230 3091 678 
L 2726 941 
C 2554 576 2234 371 1818 371 
C 1203 371 838 800 838 1370 
L 838 1523 
L 3213 1523 
L 3213 1766 
C 3213 2701 2669 3379 1786 3379 
C 890 3379 301 2701 301 1651 
C 301 602 890 -77 1786 -77 
z
M 1786 2950 
C 2310 2950 2662 2560 2662 1978 
L 2662 1907 
L 838 1907 
L 838 1952 
C 838 2528 1229 2950 1786 2950 
z
" transform="scale(0.015625)"/>
       <path id="IBMPlexSans-6d" d="M 1056 0 
L 1056 2291 
C 1056 2714 1440 2918 1843 2918 
C 2330 2918 2554 2618 2554 2029 
L 2554 0 
L 3066 0 
L 3066 2291 
C 3066 2714 3437 2918 3840 2918 
C 4339 2918 4563 2611 4563 2029 
L 4563 0 
L 5075 0 
L 5075 2118 
C 5075 2918 4672 3379 4000 3379 
C 3437 3379 3117 3066 2995 2707 
L 2982 2707 
C 2803 3181 2406 3379 1971 3379 
C 1459 3379 1229 3104 1082 2765 
L 1056 2765 
L 1056 3302 
L 544 3302 
L 544 0 
L 1056 0 
z
" transform="scale(0.015625)"/>
       <path id="IBMPlexSans-70" d="M 544 -1280 
L 1056 -1280 
L 1056 538 
L 1082 538 
C 1280 128 1594 -77 2048 -77 
C 2874 -77 3392 595 3392 1651 
C 3392 2707 2874 3379 2048 3379 
C 1594 3379 1254 3181 1082 2765 
L 1056 2765 
L 1056 3302 
L 544 3302 
L 544 -1280 
z
M 1907 384 
C 1440 384 1056 627 1056 1056 
L 1056 2285 
C 1056 2650 1440 2918 1907 2918 
C 2483 2918 2842 2522 2842 1933 
L 2842 1370 
C 2842 781 2483 384 1907 384 
z
" transform="scale(0.015625)"/>
       <path id="IBMPlexSans-72" d="M 1056 0 
L 1056 2240 
C 1056 2554 1389 2790 1939 2790 
L 2240 2790 
L 2240 3302 
L 2042 3302 
C 1504 3302 1203 3008 1088 2694 
L 1056 2694 
L 1056 3302 
L 544 3302 
L 544 0 
L 1056 0 
z
" transform="scale(0.015625)"/>
       <path id="IBMPlexSans-61" d="M 3232 0 
L 3232 448 
L 2854 448 
L 2854 2266 
C 2854 2963 2381 3379 1587 3379 
C 992 3379 595 3085 416 2733 
L 723 2445 
C 902 2746 1165 2938 1562 2938 
C 2086 2938 2342 2682 2342 2214 
L 2342 1888 
L 1690 1888 
C 730 1888 282 1542 282 922 
C 282 307 691 -77 1389 -77 
C 1850 -77 2202 134 2342 538 
L 2374 538 
C 2413 230 2566 0 2944 0 
L 3232 0 
z
M 1472 358 
C 1075 358 819 544 819 870 
L 819 1005 
C 819 1325 1082 1504 1664 1504 
L 2342 1504 
L 2342 960 
C 2342 621 1978 358 1472 358 
z
" transform="scale(0.015625)"/>
       <path id="IBMPlexSans-74" d="M 1914 0 
L 1914 448 
L 1242 448 
L 1242 2854 
L 1965 2854 
L 1965 3302 
L 1242 3302 
L 1242 4218 
L 781 4218 
L 781 3603 
C 781 3379 710 3302 493 3302 
L 186 3302 
L 186 2854 
L 730 2854 
L 730 544 
C 730 224 922 0 1274 0 
L 1914 0 
z
" transform="scale(0.015625)"/>
       <path id="IBMPlexSans-75" d="M 2579 0 
L 3091 0 
L 3091 3302 
L 2579 3302 
L 2579 1018 
C 2579 582 2182 384 1779 384 
C 1286 384 1024 685 1024 1274 
L 1024 3302 
L 512 3302 
L 512 1184 
C 512 384 947 -77 1626 -77 
C 2176 -77 2426 224 2554 538 
L 2579 538 
L 2579 0 
z
" transform="scale(0.015625)"/>
       <path id="IBMPlexSans-20" transform="scale(0.015625)"/>
       <path id="IBMPlexSans-5b" d="M 1645 -883 
L 1645 -480 
L 1037 -480 
L 1037 4461 
L 1645 4461 
L 1645 4864 
L 595 4864 
L 595 -883 
L 1645 -883 
z
" transform="scale(0.015625)"/>
       <path id="IBMPlexSans-4b" d="M 3251 0 
L 3917 0 
L 2138 2554 
L 3802 4467 
L 3142 4467 
L 1792 2867 
L 1152 2093 
L 1133 2093 
L 1133 4467 
L 595 4467 
L 595 0 
L 1133 0 
L 1133 1491 
L 1766 2195 
L 3251 0 
z
" transform="scale(0.015625)"/>
       <path id="IBMPlexSans-5d" d="M 384 4864 
L 384 4461 
L 992 4461 
L 992 -480 
L 384 -480 
L 384 -883 
L 1434 -883 
L 1434 4864 
L 384 4864 
z
" transform="scale(0.015625)"/>
      </defs>
      <use xlink:href="#IBMPlexSans-54"/>
      <use xlink:href="#IBMPlexSans-65" transform="translate(57.199997 0)"/>
      <use xlink:href="#IBMPlexSans-6d" transform="translate(112.099991 0)"/>
      <use xlink:href="#IBMPlexSans-70" transform="translate(199.399979 0)"/>
      <use xlink:href="#IBMPlexSans-65" transform="translate(257.399963 0)"/>
      <use xlink:href="#IBMPlexSans-72" transform="translate(312.299957 0)"/>
      <use xlink:href="#IBMPlexSans-61" transform="translate(348.999954 0)"/>
      <use xlink:href="#IBMPlexSans-74" transform="translate(402.399948 0)"/>
      <use xlink:href="#IBMPlexSans-75" transform="translate(437.499939 0)"/>
      <use xlink:href="#IBMPlexSans-72" transform="translate(494.299927 0)"/>
      <use xlink:href="#IBMPlexSans-65" transform="translate(530.999924 0)"/>
      <use xlink:href="#IBMPlexSans-20" transform="translate(585.899918 0)"/>
      <use xlink:href="#IBMPlexSans-5b" transform="translate(609.499908 0)"/>
      <use xlink:href="#IBMPlexSans-4b" transform="translate(641.199905 0)"/>
      <use xlink:href="#IBMPlexSans-5d" transform="translate(704.599899 0)"/>
     </g>
    </g>
   </g>
   <g id="matplotlib.axis_2">
    <g id="ytick_1">
     <g id="line2d_7">
      <defs>
       <path id="m832b7233f3" d="M 0 0 
L -3.5 0 
" style="stroke: #000000; stroke-width: 0.8"/>
      </defs>
      <g>
       <use xlink:href="#m832b7233f3" x="42.320312" y="263.513311" style="stroke: #000000; stroke-width: 0.8"/>
      </g>
     </g>
     <g id="text_8">
      <!-- 0.0 -->
      <g transform="translate(20.6 267.213311) scale(0.1 -0.1)">
       <defs>
        <path id="IBMPlexSans-2e" d="M 870 -77 
C 1139 -77 1261 77 1261 294 
L 1261 378 
C 1261 595 1139 749 870 749 
C 602 749 480 595 480 378 
L 480 294 
C 480 77 602 -77 870 -77 
z
" transform="scale(0.015625)"/>
       </defs>
       <use xlink:href="#IBMPlexSans-30"/>
       <use xlink:href="#IBMPlexSans-2e" transform="translate(59.999985 0)"/>
       <use xlink:href="#IBMPlexSans-30" transform="translate(87.199982 0)"/>
      </g>
     </g>
    </g>
    <g id="ytick_2">
     <g id="line2d_8">
      <g>
       <use xlink:href="#m832b7233f3" x="42.320312" y="217.568555" style="stroke: #000000; stroke-width: 0.8"/>
      </g>
     </g>
     <g id="text_9">
      <!-- 0.2 -->
      <g transform="translate(20.6 221.268555) scale(0.1 -0.1)">
       <use xlink:href="#IBMPlexSans-30"/>
       <use xlink:href="#IBMPlexSans-2e" transform="translate(59.999985 0)"/>
       <use xlink:href="#IBMPlexSans-32" transform="translate(87.199982 0)"/>
      </g>
     </g>
    </g>
    <g id="ytick_3">
     <g id="line2d_9">
      <g>
       <use xlink:href="#m832b7233f3" x="42.320312" y="171.623799" style="stroke: #000000; stroke-width: 0.8"/>
      </g>
     </g>
     <g id="text_10">
      <!-- 0.4 -->
      <g transform="translate(20.6 175.323799) scale(0.1 -0.1)">
       <defs>
        <path id="IBMPlexSans-34" d="M 2912 0 
L 2912 877 
L 3558 877 
L 3558 1325 
L 2912 1325 
L 2912 4467 
L 2112 4467 
L 243 1350 
L 243 877 
L 2400 877 
L 2400 0 
L 2912 0 
z
M 2368 4051 
L 2400 4051 
L 2400 1325 
L 749 1325 
L 2368 4051 
z
" transform="scale(0.015625)"/>
       </defs>
       <use xlink:href="#IBMPlexSans-30"/>
       <use xlink:href="#IBMPlexSans-2e" transform="translate(59.999985 0)"/>
       <use xlink:href="#IBMPlexSans-34" transform="translate(87.199982 0)"/>
      </g>
     </g>
    </g>
    <g id="ytick_4">
     <g id="line2d_10">
      <g>
       <use xlink:href="#m832b7233f3" x="42.320312" y="125.679043" style="stroke: #000000; stroke-width: 0.8"/>
      </g>
     </g>
     <g id="text_11">
      <!-- 0.6 -->
      <g transform="translate(20.6 129.379043) scale(0.1 -0.1)">
       <defs>
        <path id="IBMPlexSans-36" d="M 1926 -77 
C 2822 -77 3411 525 3411 1402 
C 3411 2246 2861 2778 2093 2778 
C 1549 2778 1229 2502 1018 2138 
L 986 2150 
C 1229 3187 1760 3770 2714 4467 
L 2022 4467 
C 1306 4000 429 2963 429 1638 
C 429 576 998 -77 1926 -77 
z
M 1920 390 
C 1331 390 986 730 986 1331 
L 986 1382 
C 986 1984 1331 2323 1920 2323 
C 2509 2323 2854 1984 2854 1382 
L 2854 1331 
C 2854 730 2509 390 1920 390 
z
" transform="scale(0.015625)"/>
       </defs>
       <use xlink:href="#IBMPlexSans-30"/>
       <use xlink:href="#IBMPlexSans-2e" transform="translate(59.999985 0)"/>
       <use xlink:href="#IBMPlexSans-36" transform="translate(87.199982 0)"/>
      </g>
     </g>
    </g>
    <g id="ytick_5">
     <g id="line2d_11">
      <g>
       <use xlink:href="#m832b7233f3" x="42.320312" y="79.734288" style="stroke: #000000; stroke-width: 0.8"/>
      </g>
     </g>
     <g id="text_12">
      <!-- 0.8 -->
      <g transform="translate(20.6 83.434288) scale(0.1 -0.1)">
       <use xlink:href="#IBMPlexSans-30"/>
       <use xlink:href="#IBMPlexSans-2e" transform="translate(59.999985 0)"/>
       <use xlink:href="#IBMPlexSans-38" transform="translate(87.199982 0)"/>
      </g>
     </g>
    </g>
    <g id="ytick_6">
     <g id="line2d_12">
      <g>
       <use xlink:href="#m832b7233f3" x="42.320312" y="33.789532" style="stroke: #000000; stroke-width: 0.8"/>
      </g>
     </g>
     <g id="text_13">
      <!-- 1.0 -->
      <g transform="translate(20.6 37.489532) scale(0.1 -0.1)">
       <use xlink:href="#IBMPlexSans-31"/>
       <use xlink:href="#IBMPlexSans-2e" transform="translate(59.999985 0)"/>
       <use xlink:href="#IBMPlexSans-30" transform="translate(87.199982 0)"/>
      </g>
     </g>
    </g>
    <g id="text_14">
     <!-- Cumulative Probability -->
     <g transform="translate(14.6 199.449604) rotate(-90) scale(0.1 -0.1)">
      <defs>
       <path id="IBMPlexSans-43" d="M 2170 -77 
C 2912 -77 3456 314 3738 941 
L 3309 1210 
C 3130 723 2739 403 2170 403 
C 1402 403 947 960 947 1875 
L 947 2541 
C 947 3456 1402 4064 2170 4064 
C 2720 4064 3091 3763 3270 3302 
L 3706 3565 
C 3424 4186 2912 4544 2170 4544 
C 1043 4544 371 3699 371 2208 
C 371 717 1043 -77 2170 -77 
z
" transform="scale(0.015625)"/>
       <path id="IBMPlexSans-6c" d="M 1542 0 
L 1542 448 
L 1056 448 
L 1056 4736 
L 544 4736 
L 544 531 
C 544 224 736 0 1088 0 
L 1542 0 
z
" transform="scale(0.015625)"/>
       <path id="IBMPlexSans-69" d="M 800 4077 
C 1018 4077 1114 4192 1114 4365 
L 1114 4448 
C 1114 4621 1018 4736 800 4736 
C 582 4736 486 4621 486 4448 
L 486 4365 
C 486 4192 582 4077 800 4077 
z
M 544 0 
L 1056 0 
L 1056 3302 
L 544 3302 
L 544 0 
z
" transform="scale(0.015625)"/>
       <path id="IBMPlexSans-76" d="M 1869 0 
L 3034 3302 
L 2541 3302 
L 1952 1664 
L 1594 538 
L 1562 538 
L 1203 1664 
L 627 3302 
L 115 3302 
L 1274 0 
L 1869 0 
z
" transform="scale(0.015625)"/>
       <path id="IBMPlexSans-50" d="M 1133 0 
L 1133 1907 
L 2374 1907 
C 3174 1907 3622 2400 3622 3187 
C 3622 3974 3174 4467 2374 4467 
L 595 4467 
L 595 0 
L 1133 0 
z
M 1133 3994 
L 2374 3994 
C 2797 3994 3046 3763 3046 3354 
L 3046 3021 
C 3046 2611 2797 2381 2374 2381 
L 1133 2381 
L 1133 3994 
z
" transform="scale(0.015625)"/>
       <path id="IBMPlexSans-6f" d="M 1792 -77 
C 2675 -77 3283 602 3283 1651 
C 3283 2701 2675 3379 1792 3379 
C 909 3379 301 2701 301 1651 
C 301 602 909 -77 1792 -77 
z
M 1792 378 
C 1242 378 851 717 851 1414 
L 851 1888 
C 851 2586 1242 2925 1792 2925 
C 2342 2925 2733 2586 2733 1888 
L 2733 1414 
C 2733 717 2342 378 1792 378 
z
" transform="scale(0.015625)"/>
       <path id="IBMPlexSans-62" d="M 544 0 
L 1056 0 
L 1056 538 
L 1082 538 
C 1280 128 1594 -77 2048 -77 
C 2874 -77 3392 595 3392 1651 
C 3392 2707 2874 3379 2048 3379 
C 1594 3379 1254 3181 1082 2765 
L 1056 2765 
L 1056 4736 
L 544 4736 
L 544 0 
z
M 1907 384 
C 1440 384 1056 627 1056 1056 
L 1056 2285 
C 1056 2650 1440 2918 1907 2918 
C 2483 2918 2842 2522 2842 1933 
L 2842 1370 
C 2842 781 2483 384 1907 384 
z
" transform="scale(0.015625)"/>
       <path id="IBMPlexSans-79" d="M 1779 1056 
L 1600 518 
L 1568 518 
L 1414 1056 
L 621 3302 
L 109 3302 
L 1344 -128 
L 1094 -832 
L 576 -832 
L 576 -1280 
L 838 -1280 
C 1325 -1280 1459 -1165 1606 -768 
L 3085 3302 
L 2579 3302 
L 1779 1056 
z
" transform="scale(0.015625)"/>
      </defs>
      <use xlink:href="#IBMPlexSans-43"/>
      <use xlink:href="#IBMPlexSans-75" transform="translate(62.099991 0)"/>
      <use xlink:href="#IBMPlexSans-6d" transform="translate(118.899979 0)"/>
      <use xlink:href="#IBMPlexSans-75" transform="translate(206.199966 0)"/>
      <use xlink:href="#IBMPlexSans-6c" transform="translate(262.999954 0)"/>
      <use xlink:href="#IBMPlexSans-61" transform="translate(290.199951 0)"/>
      <use xlink:href="#IBMPlexSans-74" transform="translate(343.599945 0)"/>
      <use xlink:href="#IBMPlexSans-69" transform="translate(378.699936 0)"/>
      <use xlink:href="#IBMPlexSans-76" transform="translate(403.699921 0)"/>
      <use xlink:href="#IBMPlexSans-65" transform="translate(452.899918 0)"/>
      <use xlink:href="#IBMPlexSans-20" transform="translate(507.799911 0)"/>
      <use xlink:href="#IBMPlexSans-50" transform="translate(531.399902 0)"/>
      <use xlink:href="#IBMPlexSans-72" transform="translate(591.999893 0)"/>
      <use xlink:href="#IBMPlexSans-6f" transform="translate(628.69989 0)"/>
      <use xlink:href="#IBMPlexSans-62" transform="translate(684.699875 0)"/>
      <use xlink:href="#IBMPlexSans-61" transform="translate(742.69986 0)"/>
      <use xlink:href="#IBMPlexSans-62" transform="translate(796.099854 0)"/>
      <use xlink:href="#IBMPlexSans-69" transform="translate(854.099838 0)"/>
      <use xlink:href="#IBMPlexSans-6c" transform="translate(879.099823 0)"/>
      <use xlink:href="#IBMPlexSans-69" transform="translate(906.29982 0)"/>
      <use xlink:href="#IBMPlexSans-74" transform="translate(931.299805 0)"/>
      <use xlink:href="#IBMPlexSans-79" transform="translate(966.399796 0)"/>
     </g>
    </g>
   </g>
   <g id="line2d_13">
    <path d="M 161.977148 262.364692 
L 181.587993 260.067454 
L 190.609526 257.770216 
L 197.327534 255.472978 
L 202.652339 253.175741 
L 207.508853 250.878503 
L 211.187589 248.581265 
L 215.220338 246.284027 
L 218.127342 243.986789 
L 220.851502 241.689552 
L 223.08403 239.392314 
L 225.746919 237.095076 
L 227.203825 234.797838 
L 230.235317 232.500601 
L 232.289865 230.203363 
L 233.992344 227.906125 
L 236.223899 225.608887 
L 238.488522 223.311649 
L 240.169604 221.014412 
L 242.106472 218.717174 
L 243.682031 216.419936 
L 245.354846 214.122698 
L 246.995567 211.82546 
L 248.375153 209.528223 
L 250.239078 207.230985 
L 251.685772 204.933747 
L 253.286618 202.636509 
L 255.67816 200.339272 
L 257.401549 198.042034 
L 258.985861 195.744796 
L 261.070559 193.447558 
L 262.046044 191.15032 
L 263.674608 188.853083 
L 265.526862 186.555845 
L 267.085401 184.258607 
L 268.292843 181.961369 
L 269.606781 179.664131 
L 271.117178 177.366894 
L 272.257513 175.069656 
L 274.219181 172.772418 
L 275.446074 170.47518 
L 276.752718 168.177943 
L 277.84637 165.880705 
L 278.983788 163.583467 
L 280.404708 161.286229 
L 281.251328 158.988991 
L 283.007784 156.691754 
L 284.416548 154.394516 
L 285.715411 152.097278 
L 286.9141 149.80004 
L 288.279098 147.502802 
L 289.689321 145.205565 
L 291.104892 142.908327 
L 292.747558 140.611089 
L 293.866983 138.313851 
L 294.942642 136.016614 
L 296.221568 133.719376 
L 298.086952 131.422138 
L 299.078484 129.1249 
L 300.07877 126.827662 
L 301.668431 124.530425 
L 302.648292 122.233187 
L 304.393078 119.935949 
L 305.595171 117.638711 
L 306.660132 115.341473 
L 308.01589 113.044236 
L 308.988944 110.746998 
L 310.481348 108.44976 
L 311.41015 106.152522 
L 313.094636 103.855285 
L 314.027814 101.558047 
L 314.98482 99.260809 
L 316.055131 96.963571 
L 317.730864 94.666333 
L 319.243692 92.369096 
L 320.368952 90.071858 
L 321.571045 87.77462 
L 322.569385 85.477382 
L 324.664781 83.180144 
L 326.223807 80.882907 
L 328.65717 78.585669 
L 330.421407 76.288431 
L 332.916528 73.991193 
L 335.258956 71.693955 
L 338.202917 69.396718 
L 340.43739 67.09948 
L 342.987461 64.802242 
L 345.815686 62.505004 
L 348.035571 60.207767 
L 350.371191 57.910529 
L 353.549054 55.613291 
L 355.371159 53.316053 
L 358.180419 51.018815 
L 360.676513 48.721578 
L 364.858065 46.42434 
L 368.763895 44.127102 
L 377.150828 41.829864 
L 384.52775 39.532626 
L 394.08614 37.235389 
L 414.195912 34.938151 
" clip-path="url(#p2b8b78f69b)" style="fill: none; stroke: #1f77b4; stroke-opacity: 0.2; stroke-width: 1.5; stroke-linecap: square"/>
   </g>
   <g id="line2d_14">
    <path d="M 216.806596 262.364692 
L 242.718216 260.067454 
L 252.10349 257.770216 
L 260.798727 255.472978 
L 268.650748 253.175741 
L 273.948321 250.878503 
L 278.903064 248.581265 
L 282.460229 246.284027 
L 286.011072 243.986789 
L 289.754483 241.689552 
L 292.815152 239.392314 
L 295.062268 237.095076 
L 297.647838 234.797838 
L 300.528096 232.500601 
L 302.730474 230.203363 
L 303.858166 227.906125 
L 305.687078 225.608887 
L 308.045554 223.311649 
L 310.024242 221.014412 
L 313.052816 218.717174 
L 314.796629 216.419936 
L 317.044231 214.122698 
L 318.315863 211.82546 
L 319.958043 209.528223 
L 321.532629 207.230985 
L 323.155843 204.933747 
L 325.019282 202.636509 
L 326.54524 200.339272 
L 328.312881 198.042034 
L 329.801395 195.744796 
L 331.569522 193.447558 
L 332.796902 191.15032 
L 334.060753 188.853083 
L 335.399005 186.555845 
L 336.764003 184.258607 
L 337.977767 181.961369 
L 338.859886 179.664131 
L 340.768062 177.366894 
L 342.195305 175.069656 
L 343.452348 172.772418 
L 344.558643 170.47518 
L 345.54823 168.177943 
L 346.824725 165.880705 
L 347.859536 163.583467 
L 349.19633 161.286229 
L 350.368759 158.988991 
L 351.733757 156.691754 
L 353.154192 154.394516 
L 354.693766 152.097278 
L 355.930385 149.80004 
L 357.532689 147.502802 
L 358.668648 145.205565 
L 359.880466 142.908327 
L 361.058731 140.611089 
L 362.074092 138.313851 
L 363.940448 136.016614 
L 365.011244 133.719376 
L 366.262938 131.422138 
L 367.379445 129.1249 
L 368.907349 126.827662 
L 369.879429 124.530425 
L 370.762034 122.233187 
L 371.757943 119.935949 
L 372.970734 117.638711 
L 374.042503 115.341473 
L 375.517401 113.044236 
L 377.139643 110.746998 
L 378.332011 108.44976 
L 379.820039 106.152522 
L 381.209837 103.855285 
L 382.383726 101.558047 
L 383.746778 99.260809 
L 385.062662 96.963571 
L 386.209319 94.666333 
L 387.69686 92.369096 
L 389.542793 90.071858 
L 390.874723 87.77462 
L 392.339896 85.477382 
L 394.612299 83.180144 
L 396.37994 80.882907 
L 398.360573 78.585669 
L 400.118488 76.288431 
L 402.836813 73.991193 
L 404.683718 71.693955 
L 407.265884 69.396718 
L 409.260619 67.09948 
L 412.377697 64.802242 
L 414.336448 62.505004 
L 417.162241 60.207767 
L 420.906139 57.910529 
L 424.10394 55.613291 
L 427.128137 53.316053 
L 429.338782 51.018815 
L 432.888653 48.721578 
L 437.554544 46.42434 
L 441.633004 44.127102 
L 448.380675 41.829864 
L 455.27569 39.532626 
L 466.211235 37.235389 
L 484.842219 34.938151 
" clip-path="url(#p2b8b78f69b)" style="fill: none; stroke: #1f77b4; stroke-opacity: 0.2; stroke-width: 1.5; stroke-linecap: square"/>
   </g>
   <g id="line2d_15">
    <path d="M 166.30021 262.364692 
L 184.448313 260.067454 
L 198.612295 257.770216 
L 203.989619 255.472978 
L 208.512543 253.175741 
L 214.436449 250.878503 
L 217.742205 248.581265 
L 221.419968 246.284027 
L 224.293418 243.986789 
L 228.910194 241.689552 
L 231.472422 239.392314 
L 234.178104 237.095076 
L 237.396815 234.797838 
L 239.955153 232.500601 
L 241.720849 230.203363 
L 243.798739 227.906125 
L 246.013274 225.608887 
L 248.524929 223.311649 
L 251.40859 221.014412 
L 253.234585 218.717174 
L 255.660168 216.419936 
L 257.078171 214.122698 
L 258.259354 211.82546 
L 260.299313 209.528223 
L 262.041667 207.230985 
L 263.116354 204.933747 
L 264.604868 202.636509 
L 265.676151 200.339272 
L 267.281373 198.042034 
L 268.861795 195.744796 
L 270.579835 193.447558 
L 272.244383 191.15032 
L 273.669194 188.853083 
L 275.296299 186.555845 
L 276.962793 184.258607 
L 278.297641 181.961369 
L 279.85618 179.664131 
L 281.1424 177.366894 
L 282.219519 175.069656 
L 283.720676 172.772418 
L 284.470525 170.47518 
L 285.964875 168.177943 
L 287.120285 165.880705 
L 288.952601 163.583467 
L 290.254382 161.286229 
L 291.696213 158.988991 
L 292.673643 156.691754 
L 293.74833 154.394516 
L 294.662057 152.097278 
L 296.04602 149.80004 
L 297.598237 147.502802 
L 299.49912 145.205565 
L 300.906911 142.908327 
L 301.898443 140.611089 
L 303.101508 138.313851 
L 304.158689 136.016614 
L 305.353488 133.719376 
L 306.192327 131.422138 
L 307.400255 129.1249 
L 308.805615 126.827662 
L 310.687532 124.530425 
L 312.203278 122.233187 
L 313.303252 119.935949 
L 314.877838 117.638711 
L 316.476738 115.341473 
L 318.027497 113.044236 
L 319.200413 110.746998 
L 320.73172 108.44976 
L 322.721106 106.152522 
L 324.519383 103.855285 
L 325.863957 101.558047 
L 327.136561 99.260809 
L 328.39409 96.963571 
L 329.830086 94.666333 
L 331.187303 92.369096 
L 332.74487 90.071858 
L 334.377324 87.77462 
L 335.53322 85.477382 
L 336.973105 83.180144 
L 338.948389 80.882907 
L 340.634334 78.585669 
L 342.344594 76.288431 
L 344.296536 73.991193 
L 346.867517 71.693955 
L 349.020295 69.396718 
L 351.328683 67.09948 
L 354.767194 64.802242 
L 356.810558 62.505004 
L 359.02558 60.207767 
L 361.856237 57.910529 
L 365.242715 55.613291 
L 368.517835 53.316053 
L 371.489514 51.018815 
L 375.915668 48.721578 
L 380.022332 46.42434 
L 385.172076 44.127102 
L 389.591421 41.829864 
L 396.821485 39.532626 
L 407.445323 37.235389 
L 426.754671 34.938151 
" clip-path="url(#p2b8b78f69b)" style="fill: none; stroke: #1f77b4; stroke-opacity: 0.2; stroke-width: 1.5; stroke-linecap: square"/>
   </g>
   <g id="line2d_16">
    <path d="M 147.013716 262.364692 
L 170.144768 260.067454 
L 178.201514 257.770216 
L 185.311466 255.472978 
L 190.884763 253.175741 
L 195.198584 250.878503 
L 202.329933 248.581265 
L 206.521211 246.284027 
L 209.921306 243.986789 
L 212.838521 241.689552 
L 215.911834 239.392314 
L 218.754161 237.095076 
L 220.528124 234.797838 
L 222.600178 232.500601 
L 224.830761 230.203363 
L 227.364785 227.906125 
L 230.212948 225.608887 
L 232.255339 223.311649 
L 233.445275 221.014412 
L 235.61799 218.717174 
L 237.413835 216.419936 
L 239.569044 214.122698 
L 240.83484 211.82546 
L 242.591783 209.528223 
L 244.267516 207.230985 
L 246.652737 204.933747 
L 248.127149 202.636509 
L 249.317085 200.339272 
L 250.826995 198.042034 
L 252.462853 195.744796 
L 253.667378 193.447558 
L 255.019732 191.15032 
L 256.874418 188.853083 
L 258.021561 186.555845 
L 259.139527 184.258607 
L 260.482642 181.961369 
L 261.533501 179.664131 
L 262.870781 177.366894 
L 263.899271 175.069656 
L 264.954992 172.772418 
L 266.824266 170.47518 
L 267.73848 168.177943 
L 269.50612 165.880705 
L 270.633812 163.583467 
L 272.071266 161.286229 
L 273.283085 158.988991 
L 274.996262 156.691754 
L 275.976124 154.394516 
L 277.042057 152.097278 
L 278.422616 149.80004 
L 279.766218 147.502802 
L 281.023261 145.205565 
L 282.347411 142.908327 
L 283.587434 140.611089 
L 285.135275 138.313851 
L 286.729313 136.016614 
L 287.838525 133.719376 
L 289.095568 131.422138 
L 290.349694 129.1249 
L 291.727335 126.827662 
L 293.193967 124.530425 
L 295.352579 122.233187 
L 296.946617 119.935949 
L 298.621378 117.638711 
L 300.140528 115.341473 
L 301.214242 113.044236 
L 302.482469 110.746998 
L 303.876158 108.44976 
L 305.421081 106.152522 
L 306.610531 103.855285 
L 308.076189 101.558047 
L 309.836536 99.260809 
L 311.637244 96.963571 
L 312.941943 94.666333 
L 314.375507 92.369096 
L 315.972462 90.071858 
L 317.378794 87.77462 
L 318.868281 85.477382 
L 320.520186 83.180144 
L 323.018225 80.882907 
L 325.801712 78.585669 
L 327.914615 76.288431 
L 329.564089 73.991193 
L 331.052603 71.693955 
L 332.702077 69.396718 
L 335.801648 67.09948 
L 337.582419 64.802242 
L 339.706019 62.505004 
L 341.49457 60.207767 
L 344.298968 57.910529 
L 346.709962 55.613291 
L 349.963199 53.316053 
L 352.811848 51.018815 
L 357.847315 48.721578 
L 361.981211 46.42434 
L 367.867674 44.127102 
L 371.354814 41.829864 
L 381.131545 39.532626 
L 391.873063 37.235389 
L 416.641432 34.938151 
" clip-path="url(#p2b8b78f69b)" style="fill: none; stroke: #1f77b4; stroke-opacity: 0.2; stroke-width: 1.5; stroke-linecap: square"/>
   </g>
   <g id="line2d_17">
    <path d="M 150.35643 262.364692 
L 166.560371 260.067454 
L 173.969388 257.770216 
L 181.188268 255.472978 
L 189.429316 253.175741 
L 194.678261 250.878503 
L 199.700598 248.581265 
L 203.685205 246.284027 
L 206.459453 243.986789 
L 209.620783 241.689552 
L 212.893471 239.392314 
L 216.589227 237.095076 
L 219.948474 234.797838 
L 223.145302 232.500601 
L 225.208117 230.203363 
L 227.056967 227.906125 
L 229.375081 225.608887 
L 230.886451 223.311649 
L 232.127933 221.014412 
L 234.413465 218.717174 
L 235.887391 216.419936 
L 237.714845 214.122698 
L 239.543757 211.82546 
L 240.870825 209.528223 
L 242.124464 207.230985 
L 243.756432 204.933747 
L 245.133587 202.636509 
L 246.872537 200.339272 
L 248.882347 198.042034 
L 250.487569 195.744796 
L 252.189076 193.447558 
L 254.241192 191.15032 
L 255.668435 188.853083 
L 257.51923 186.555845 
L 258.91924 184.258607 
L 260.097992 181.961369 
L 261.457641 179.664131 
L 262.837714 177.366894 
L 263.752899 175.069656 
L 265.397024 172.772418 
L 266.394392 170.47518 
L 267.964601 168.177943 
L 269.015947 165.880705 
L 270.038601 163.583467 
L 271.917114 161.286229 
L 272.977699 158.988991 
L 274.685527 156.691754 
L 276.267407 154.394516 
L 277.88041 152.097278 
L 279.381081 149.80004 
L 280.313287 147.502802 
L 281.340318 145.205565 
L 282.388745 142.908327 
L 283.705115 140.611089 
L 285.937157 138.313851 
L 287.047828 136.016614 
L 288.31022 133.719376 
L 289.721415 131.422138 
L 290.810691 129.1249 
L 291.952971 126.827662 
L 293.161872 124.530425 
L 295.006345 122.233187 
L 296.715632 119.935949 
L 297.998935 117.638711 
L 299.458272 115.341473 
L 300.704617 113.044236 
L 301.931996 110.746998 
L 303.427805 108.44976 
L 304.538476 106.152522 
L 306.145644 103.855285 
L 307.444507 101.558047 
L 309.52726 99.260809 
L 310.913654 96.963571 
L 312.852953 94.666333 
L 314.053587 92.369096 
L 315.097152 90.071858 
L 316.684382 87.77462 
L 318.298843 85.477382 
L 319.920113 83.180144 
L 321.803975 80.882907 
L 323.745219 78.585669 
L 325.708346 76.288431 
L 327.605825 73.991193 
L 329.328241 71.693955 
L 331.528188 69.396718 
L 333.634769 67.09948 
L 335.237073 64.802242 
L 337.93157 62.505004 
L 341.752787 60.207767 
L 344.384553 57.910529 
L 346.816944 55.613291 
L 349.962226 53.316053 
L 353.777121 51.018815 
L 356.990483 48.721578 
L 362.254503 46.42434 
L 367.900255 44.127102 
L 372.42172 41.829864 
L 380.721122 39.532626 
L 388.169528 37.235389 
L 413.700389 34.938151 
" clip-path="url(#p2b8b78f69b)" style="fill: none; stroke: #1f77b4; stroke-opacity: 0.2; stroke-width: 1.5; stroke-linecap: square"/>
   </g>
   <g id="line2d_18">
    <path d="M 173.669837 262.364692 
L 194.59851 260.067454 
L 204.079095 257.770216 
L 210.497552 255.472978 
L 216.330524 253.175741 
L 221.041153 250.878503 
L 224.916833 248.581265 
L 228.76674 246.284027 
L 232.470276 243.986789 
L 235.77895 241.689552 
L 238.069345 239.392314 
L 240.705975 237.095076 
L 243.640696 234.797838 
L 246.608971 232.500601 
L 248.32458 230.203363 
L 250.294515 227.906125 
L 252.210472 225.608887 
L 254.434247 223.311649 
L 256.772785 221.014412 
L 257.795925 218.717174 
L 259.561621 216.419936 
L 261.610334 214.122698 
L 263.50684 211.82546 
L 265.061488 209.528223 
L 266.375427 207.230985 
L 267.666023 204.933747 
L 269.322792 202.636509 
L 270.965457 200.339272 
L 272.450568 198.042034 
L 273.800005 195.744796 
L 275.670737 193.447558 
L 277.366895 191.15032 
L 278.653601 188.853083 
L 280.003038 186.555845 
L 281.901489 184.258607 
L 283.514005 181.961369 
L 284.79828 179.664131 
L 285.914788 177.366894 
L 286.980721 175.069656 
L 287.898338 172.772418 
L 289.032838 170.47518 
L 290.080293 168.177943 
L 291.414655 165.880705 
L 293.05878 163.583467 
L 294.535623 161.286229 
L 295.621494 158.988991 
L 297.001081 156.691754 
L 297.914321 154.394516 
L 299.460703 152.097278 
L 300.638482 149.80004 
L 302.279203 147.502802 
L 303.367992 145.205565 
L 304.993638 142.908327 
L 306.593997 140.611089 
L 307.902586 138.313851 
L 309.300165 136.016614 
L 311.149988 133.719376 
L 312.148328 131.422138 
L 313.855184 129.1249 
L 315.562525 126.827662 
L 316.861875 124.530425 
L 317.888906 122.233187 
L 319.247096 119.935949 
L 321.137767 117.638711 
L 322.990021 115.341473 
L 324.492151 113.044236 
L 325.937872 110.746998 
L 327.247434 108.44976 
L 328.377557 106.152522 
L 329.828627 103.855285 
L 331.190221 101.558047 
L 332.620381 99.260809 
L 333.935778 96.963571 
L 335.537596 94.666333 
L 336.687657 92.369096 
L 337.96561 90.071858 
L 340.023076 87.77462 
L 341.965293 85.477382 
L 343.576836 83.180144 
L 345.556011 80.882907 
L 347.51622 78.585669 
L 348.942976 76.288431 
L 350.30068 73.991193 
L 351.967173 71.693955 
L 353.482919 69.396718 
L 356.028128 67.09948 
L 358.245095 64.802242 
L 360.996973 62.505004 
L 363.620473 60.207767 
L 365.895308 57.910529 
L 369.116937 55.613291 
L 372.32495 53.316053 
L 376.002712 51.018815 
L 380.959401 48.721578 
L 384.530668 46.42434 
L 390.349051 44.127102 
L 399.032617 41.829864 
L 405.800225 39.532626 
L 412.664605 37.235389 
L 437.332312 34.938151 
" clip-path="url(#p2b8b78f69b)" style="fill: none; stroke: #1f77b4; stroke-opacity: 0.2; stroke-width: 1.5; stroke-linecap: square"/>
   </g>
   <g id="line2d_19">
    <path d="M 153.983133 262.364692 
L 181.993554 260.067454 
L 189.361236 257.770216 
L 195.422761 255.472978 
L 202.323611 253.175741 
L 206.996797 250.878503 
L 212.019134 248.581265 
L 215.921559 246.284027 
L 219.058089 243.986789 
L 221.820666 241.689552 
L 225.029165 239.392314 
L 229.378971 237.095076 
L 232.433319 234.797838 
L 234.400336 232.500601 
L 236.431542 230.203363 
L 239.207249 227.906125 
L 241.458256 225.608887 
L 243.514263 223.311649 
L 245.448699 221.014412 
L 247.825167 218.717174 
L 249.563631 216.419936 
L 251.201434 214.122698 
L 252.979773 211.82546 
L 254.68906 209.528223 
L 256.350204 207.230985 
L 257.6763 204.933747 
L 259.611222 202.636509 
L 261.068128 200.339272 
L 262.646118 198.042034 
L 264.291702 195.744796 
L 265.628495 193.447558 
L 266.890401 191.15032 
L 268.269501 188.853083 
L 269.395248 186.555845 
L 270.832216 184.258607 
L 272.138374 181.961369 
L 273.108996 179.664131 
L 274.205079 177.366894 
L 275.240377 175.069656 
L 276.860187 172.772418 
L 278.207679 170.47518 
L 280.132876 168.177943 
L 281.262026 165.880705 
L 282.472872 163.583467 
L 284.00272 161.286229 
L 285.378903 158.988991 
L 287.003576 156.691754 
L 288.477502 154.394516 
L 289.225892 152.097278 
L 290.130866 149.80004 
L 291.136987 147.502802 
L 292.53408 145.205565 
L 294.930972 142.908327 
L 295.989611 140.611089 
L 297.560793 138.313851 
L 298.320368 136.016614 
L 299.318708 133.719376 
L 300.4216 131.422138 
L 301.755962 129.1249 
L 302.504352 126.827662 
L 303.548403 124.530425 
L 304.92799 122.233187 
L 306.362526 119.935949 
L 308.305229 117.638711 
L 309.053619 115.341473 
L 310.574715 113.044236 
L 311.953815 110.746998 
L 313.400508 108.44976 
L 314.885619 106.152522 
L 316.268123 103.855285 
L 317.53246 101.558047 
L 318.633406 99.260809 
L 320.209938 96.963571 
L 321.448988 94.666333 
L 323.58815 92.369096 
L 324.635118 90.071858 
L 325.930091 87.77462 
L 327.425413 85.477382 
L 329.293715 83.180144 
L 330.961668 80.882907 
L 332.648099 78.585669 
L 335.652359 76.288431 
L 337.515312 73.991193 
L 339.681705 71.693955 
L 341.369109 69.396718 
L 342.92084 67.09948 
L 345.822008 64.802242 
L 348.071556 62.505004 
L 350.104221 60.207767 
L 352.568706 57.910529 
L 356.094749 55.613291 
L 358.245095 53.316053 
L 361.608232 51.018815 
L 365.112878 48.721578 
L 369.777796 46.42434 
L 374.499123 44.127102 
L 379.876934 41.829864 
L 388.118468 39.532626 
L 394.942972 37.235389 
L 410.217626 34.938151 
" clip-path="url(#p2b8b78f69b)" style="fill: none; stroke: #1f77b4; stroke-opacity: 0.2; stroke-width: 1.5; stroke-linecap: square"/>
   </g>
   <g id="line2d_20">
    <path d="M 183.649349 262.364692 
L 203.251441 260.067454 
L 207.465574 257.770216 
L 214.007547 255.472978 
L 221.370853 253.175741 
L 225.128367 250.878503 
L 230.674431 248.581265 
L 233.871259 246.284027 
L 237.344783 243.986789 
L 240.373357 241.689552 
L 244.610346 239.392314 
L 247.1823 237.095076 
L 250.20747 234.797838 
L 252.623327 232.500601 
L 254.935605 230.203363 
L 257.256151 227.906125 
L 259.186696 225.608887 
L 262.030969 223.311649 
L 263.20194 221.014412 
L 264.870865 218.717174 
L 266.396823 216.419936 
L 268.641022 214.122698 
L 270.419847 211.82546 
L 271.800406 209.528223 
L 273.200903 207.230985 
L 274.513383 204.933747 
L 276.085051 202.636509 
L 277.700485 200.339272 
L 279.377191 198.042034 
L 280.774284 195.744796 
L 281.872312 193.447558 
L 283.291288 191.15032 
L 284.595986 188.853083 
L 285.817045 186.555845 
L 287.315284 184.258607 
L 288.240682 181.961369 
L 290.124058 179.664131 
L 291.511912 177.366894 
L 292.653219 175.069656 
L 294.485049 172.772418 
L 295.917641 170.47518 
L 297.299173 168.177943 
L 298.710368 165.880705 
L 299.889119 163.583467 
L 301.237097 161.286229 
L 302.962918 158.988991 
L 304.836082 156.691754 
L 306.368848 154.394516 
L 307.339956 152.097278 
L 308.074244 149.80004 
L 309.203395 147.502802 
L 310.510039 145.205565 
L 311.408691 142.908327 
L 312.432318 140.611089 
L 313.623713 138.313851 
L 315.340294 136.016614 
L 316.281252 133.719376 
L 317.476537 131.422138 
L 318.843967 129.1249 
L 319.885586 126.827662 
L 321.395011 124.530425 
L 322.163825 122.233187 
L 323.395095 119.935949 
L 325.133073 117.638711 
L 326.424155 115.341473 
L 327.543094 113.044236 
L 328.756858 110.746998 
L 330.280384 108.44976 
L 331.935207 106.152522 
L 333.355642 103.855285 
L 334.390939 101.558047 
L 335.9558 99.260809 
L 337.489539 96.963571 
L 339.853363 94.666333 
L 341.375431 92.369096 
L 343.167386 90.071858 
L 344.985114 87.77462 
L 346.545111 85.477382 
L 347.84203 83.180144 
L 349.890743 80.882907 
L 351.754668 78.585669 
L 353.679378 76.288431 
L 355.388179 73.991193 
L 357.932414 71.693955 
L 359.644132 69.396718 
L 362.621161 67.09948 
L 365.316144 64.802242 
L 367.740268 62.505004 
L 369.816213 60.207767 
L 372.403241 57.910529 
L 374.774846 55.613291 
L 378.308669 53.316053 
L 381.364475 51.018815 
L 386.597859 48.721578 
L 392.044722 46.42434 
L 396.219466 44.127102 
L 401.478137 41.829864 
L 410.760318 39.532626 
L 422.959228 37.235389 
L 433.914225 34.938151 
" clip-path="url(#p2b8b78f69b)" style="fill: none; stroke: #1f77b4; stroke-opacity: 0.2; stroke-width: 1.5; stroke-linecap: square"/>
   </g>
   <g id="line2d_21">
    <path d="M 145.597172 262.364692 
L 166.344948 260.067454 
L 178.435417 257.770216 
L 185.554122 255.472978 
L 193.619622 253.175741 
L 197.285713 250.878503 
L 202.005096 248.581265 
L 205.12266 246.284027 
L 207.64793 243.986789 
L 212.146054 241.689552 
L 214.180178 239.392314 
L 217.204375 237.095076 
L 219.78022 234.797838 
L 222.076451 232.500601 
L 224.574976 230.203363 
L 226.592566 227.906125 
L 227.690595 225.608887 
L 229.13583 223.311649 
L 230.566476 221.014412 
L 232.107022 218.717174 
L 234.635697 216.419936 
L 236.517614 214.122698 
L 238.434544 211.82546 
L 240.507571 209.528223 
L 242.561633 207.230985 
L 244.103638 204.933747 
L 245.090794 202.636509 
L 247.317487 200.339272 
L 249.472696 198.042034 
L 250.510425 195.744796 
L 252.073826 193.447558 
L 253.579847 191.15032 
L 255.290592 188.853083 
L 256.531102 186.555845 
L 258.212184 184.258607 
L 259.995386 181.961369 
L 261.986231 179.664131 
L 263.255431 177.366894 
L 264.495454 175.069656 
L 265.930477 172.772418 
L 266.985226 170.47518 
L 268.064776 168.177943 
L 269.437554 165.880705 
L 270.442216 163.583467 
L 271.656953 161.286229 
L 273.23397 158.988991 
L 274.231338 156.691754 
L 275.513668 154.394516 
L 276.711384 152.097278 
L 277.778777 149.80004 
L 279.129186 147.502802 
L 280.60603 145.205565 
L 281.761439 142.908327 
L 283.030153 140.611089 
L 284.298381 138.313851 
L 285.362369 136.016614 
L 286.500273 133.719376 
L 287.676593 131.422138 
L 289.04305 129.1249 
L 290.834032 126.827662 
L 293.281984 124.530425 
L 294.496234 122.233187 
L 295.663801 119.935949 
L 297.396429 117.638711 
L 299.524406 115.341473 
L 301.64752 113.044236 
L 302.97702 110.746998 
L 304.38627 108.44976 
L 305.368076 106.152522 
L 307.553435 103.855285 
L 308.970951 101.558047 
L 310.578119 99.260809 
L 311.995149 96.963571 
L 313.829411 94.666333 
L 315.265406 92.369096 
L 316.370242 90.071858 
L 317.283483 87.77462 
L 318.766162 85.477382 
L 320.596047 83.180144 
L 322.249897 80.882907 
L 323.41017 78.585669 
L 324.942449 76.288431 
L 326.89196 73.991193 
L 328.831259 71.693955 
L 330.703451 69.396718 
L 334.060753 67.09948 
L 336.186785 64.802242 
L 338.487879 62.505004 
L 341.30492 60.207767 
L 344.493481 57.910529 
L 347.751095 55.613291 
L 351.122013 53.316053 
L 354.59894 51.018815 
L 357.557976 48.721578 
L 362.458742 46.42434 
L 368.462885 44.127102 
L 373.360247 41.829864 
L 378.635938 39.532626 
L 388.205999 37.235389 
L 405.528879 34.938151 
" clip-path="url(#p2b8b78f69b)" style="fill: none; stroke: #1f77b4; stroke-opacity: 0.2; stroke-width: 1.5; stroke-linecap: square"/>
   </g>
   <g id="line2d_22">
    <path d="M 115.144635 262.364692 
L 133.779022 260.067454 
L 144.286638 257.770216 
L 150.985194 255.472978 
L 155.480886 253.175741 
L 160.90927 250.878503 
L 164.807319 248.581265 
L 167.693412 246.284027 
L 171.800563 243.986789 
L 175.49875 241.689552 
L 178.429095 239.392314 
L 181.02439 237.095076 
L 184.733275 234.797838 
L 187.407835 232.500601 
L 189.798405 230.203363 
L 192.147155 227.906125 
L 194.184683 225.608887 
L 196.277161 223.311649 
L 197.908643 221.014412 
L 200.41349 218.717174 
L 202.515207 216.419936 
L 204.101951 214.122698 
L 205.210191 211.82546 
L 206.794016 209.528223 
L 208.18965 207.230985 
L 209.88678 204.933747 
L 211.190506 202.636509 
L 212.788921 200.339272 
L 213.693894 198.042034 
L 215.080289 195.744796 
L 216.581933 193.447558 
L 217.875933 191.15032 
L 219.344996 188.853083 
L 220.893809 186.555845 
L 222.279231 184.258607 
L 223.430751 181.961369 
L 224.969838 179.664131 
L 226.574574 177.366894 
L 227.60355 175.069656 
L 229.250593 172.772418 
L 230.266439 170.47518 
L 231.349879 168.177943 
L 232.743568 165.880705 
L 234.218466 163.583467 
L 235.502254 161.286229 
L 236.721854 158.988991 
L 238.617387 156.691754 
L 239.76842 154.394516 
L 241.468468 152.097278 
L 242.890847 149.80004 
L 244.191169 147.502802 
L 245.161305 145.205565 
L 246.351727 142.908327 
L 247.580566 140.611089 
L 248.520066 138.313851 
L 249.714865 136.016614 
L 251.55253 133.719376 
L 252.64521 131.422138 
L 254.5529 129.1249 
L 256.094905 126.827662 
L 257.618918 124.530425 
L 258.819066 122.233187 
L 260.421857 119.935949 
L 262.077166 117.638711 
L 263.583186 115.341473 
L 264.760965 113.044236 
L 266.14736 110.746998 
L 267.076648 108.44976 
L 268.110487 106.152522 
L 270.188863 103.855285 
L 272.174845 101.558047 
L 273.638072 99.260809 
L 275.960562 96.963571 
L 277.445673 94.666333 
L 279.583862 92.369096 
L 280.763099 90.071858 
L 281.72205 87.77462 
L 283.360826 85.477382 
L 285.182444 83.180144 
L 287.127579 80.882907 
L 289.734059 78.585669 
L 291.853283 76.288431 
L 293.880113 73.991193 
L 296.159324 71.693955 
L 297.807339 69.396718 
L 299.994156 67.09948 
L 303.009114 64.802242 
L 305.287353 62.505004 
L 307.972125 60.207767 
L 309.913369 57.910529 
L 313.214262 55.613291 
L 315.675829 53.316053 
L 318.504541 51.018815 
L 320.601882 48.721578 
L 323.916877 46.42434 
L 328.989788 44.127102 
L 334.4668 41.829864 
L 343.113408 39.532626 
L 350.849208 37.235389 
L 364.705372 34.938151 
" clip-path="url(#p2b8b78f69b)" style="fill: none; stroke: #1f77b4; stroke-opacity: 0.2; stroke-width: 1.5; stroke-linecap: square"/>
   </g>
   <g id="line2d_23">
    <path d="M 146.540735 262.364692 
L 167.846431 260.067454 
L 179.298084 257.770216 
L 188.860106 255.472978 
L 195.407261 253.175741 
L 201.294088 250.878503 
L 205.413642 248.581265 
L 209.367223 246.284027 
L 213.188789 243.986789 
L 216.607599 241.689552 
L 219.777197 239.392314 
L 222.601608 237.095076 
L 225.346343 234.797838 
L 228.062361 232.500601 
L 230.650438 230.203363 
L 232.79632 227.906125 
L 235.325101 225.608887 
L 237.631775 223.311649 
L 239.995833 221.014412 
L 241.901389 218.717174 
L 244.006785 216.419936 
L 245.986667 214.122698 
L 248.096124 211.82546 
L 249.977207 209.528223 
L 251.831655 207.230985 
L 253.748427 204.933747 
L 255.693612 202.636509 
L 257.566047 200.339272 
L 259.185216 198.042034 
L 260.96718 195.744796 
L 262.645002 193.447558 
L 264.155637 191.15032 
L 265.750224 188.853083 
L 267.108852 186.555845 
L 268.593979 184.258607 
L 270.180642 181.961369 
L 271.794496 179.664131 
L 273.254577 177.366894 
L 274.852524 175.069656 
L 276.469261 172.772418 
L 277.990592 170.47518 
L 279.512864 168.177943 
L 280.89042 165.880705 
L 282.21894 163.583467 
L 283.705117 161.286229 
L 285.105612 158.988991 
L 286.580167 156.691754 
L 288.051894 154.394516 
L 289.537693 152.097278 
L 290.888588 149.80004 
L 292.514405 147.502802 
L 294.167946 145.205565 
L 295.64373 142.908327 
L 297.195594 140.611089 
L 298.715649 138.313851 
L 300.170675 136.016614 
L 301.71083 133.719376 
L 303.044783 131.422138 
L 304.476748 129.1249 
L 305.92666 126.827662 
L 307.429872 124.530425 
L 308.822703 122.233187 
L 310.551677 119.935949 
L 312.028843 117.638711 
L 313.548708 115.341473 
L 315.108032 113.044236 
L 316.495108 110.746998 
L 317.89383 108.44976 
L 319.45498 106.152522 
L 321.060496 103.855285 
L 322.705934 101.558047 
L 324.566764 99.260809 
L 326.288495 96.963571 
L 327.958118 94.666333 
L 329.690739 92.369096 
L 331.551744 90.071858 
L 333.496591 87.77462 
L 335.396465 85.477382 
L 337.425349 83.180144 
L 339.581681 80.882907 
L 341.764776 78.585669 
L 344.028441 76.288431 
L 346.151659 73.991193 
L 348.416625 71.693955 
L 350.698148 69.396718 
L 353.277559 67.09948 
L 355.911514 64.802242 
L 358.412194 62.505004 
L 361.695824 60.207767 
L 365.011619 57.910529 
L 368.626369 55.613291 
L 371.868553 53.316053 
L 375.802509 51.018815 
L 380.447196 48.721578 
L 385.142468 46.42434 
L 391.013013 44.127102 
L 398.391552 41.829864 
L 407.736193 39.532626 
L 421.998983 37.235389 
L 444.774481 34.938151 
" clip-path="url(#p2b8b78f69b)" style="fill: none; stroke: #000000; stroke-width: 1.5; stroke-linecap: square"/>
   </g>
   <g id="line2d_24">
    <path d="M 64.99664 263.46636 
L 69.577918 263.450657 
L 74.158709 263.430186 
L 78.739987 263.403655 
L 83.320778 263.369487 
L 87.902056 263.325739 
L 92.483334 263.270069 
L 97.064125 263.199664 
L 101.645403 263.111141 
L 106.226194 263.000527 
L 110.807472 262.863108 
L 115.388263 262.693447 
L 119.969541 262.485182 
L 124.550818 262.231078 
L 129.13161 261.922922 
L 133.712888 261.551354 
L 138.293679 261.106073 
L 142.874957 260.575493 
L 147.456234 259.947062 
L 152.037026 259.2072 
L 156.618303 258.341077 
L 161.199095 257.333303 
L 165.780372 256.167321 
L 170.361164 254.826454 
L 174.942441 253.29313 
L 179.523719 251.55009 
L 184.104511 249.580374 
L 188.685788 247.366924 
L 193.26658 244.894481 
L 197.847857 242.14809 
L 202.429135 239.115267 
L 207.009926 235.785757 
L 211.591204 232.150725 
L 216.171995 228.205691 
L 220.753273 223.94777 
L 225.334551 219.378819 
L 229.915342 214.504553 
L 234.49662 209.333004 
L 239.077411 203.8783 
L 243.658689 198.156275 
L 248.23948 192.188986 
L 252.820758 185.999677 
L 257.402036 179.616863 
L 261.982827 173.072154 
L 266.564105 166.397627 
L 271.144896 159.630208 
L 275.726174 152.805454 
L 280.307451 145.961946 
L 284.888243 139.138514 
L 289.469521 132.371417 
L 294.050312 125.698777 
L 298.63159 119.154259 
L 303.212381 112.772174 
L 307.793659 106.581451 
L 312.374936 100.610003 
L 316.955728 94.882261 
L 321.537005 89.417202 
L 326.117797 84.232375 
L 330.699075 79.339205 
L 335.280352 74.746929 
L 339.861144 70.460907 
L 344.442421 66.481565 
L 349.023213 62.80774 
L 353.60449 59.433585 
L 358.185282 56.352023 
L 362.766559 53.552236 
L 367.347837 51.022408 
L 371.928628 48.748996 
L 376.509906 46.716514 
L 381.090698 44.909521 
L 385.671975 43.311226 
L 390.253253 41.905209 
L 394.834044 40.675031 
L 399.415322 39.604182 
L 403.996113 38.677156 
L 408.577391 37.878705 
L 413.158669 37.194701 
L 417.73946 36.611881 
L 422.320738 36.11778 
L 426.901529 35.701178 
L 431.482807 35.351684 
L 436.063598 35.06008 
L 440.644876 34.817995 
L 445.226154 34.618088 
L 449.806945 34.453886 
L 454.388223 34.31968 
L 458.969014 34.210583 
L 463.550292 34.122336 
L 468.131569 34.051331 
L 472.712361 33.994498 
L 477.293638 33.949233 
L 481.87443 33.913374 
L 486.455708 33.885105 
L 491.036985 33.862937 
L 495.617777 33.845643 
L 500.199054 33.832217 
L 504.779846 33.82185 
L 509.361123 33.813883 
L 513.941915 33.807793 
L 518.523192 33.80316 
" clip-path="url(#p2b8b78f69b)" style="fill: none; stroke-dasharray: 4,6.6; stroke-dashoffset: 0; stroke: #d62728; stroke-width: 4"/>
   </g>
   <g id="patch_3">
    <path d="M 42.320312 274.94952 
L 42.320312 22.32 
" style="fill: none; stroke: #000000; stroke-width: 0.8; stroke-linejoin: miter; stroke-linecap: square"/>
   </g>
   <g id="patch_4">
    <path d="M 42.320312 274.94952 
L 541.19952 274.94952 
" style="fill: none; stroke: #000000; stroke-width: 0.8; stroke-linejoin: miter; stroke-linecap: square"/>
   </g>
   <g id="text_15">
    <!-- Cumulative Temperature Distribution (2000 H$_2$O, NVE) -->
    <g transform="translate(144.699916 16.32) scale(0.12 -0.12)">
     <defs>
      <path id="IBMPlexSans-44" d="M 595 0 
L 2093 0 
C 3206 0 3923 742 3923 2234 
C 3923 3725 3206 4467 2093 4467 
L 595 4467 
L 595 0 
z
M 1133 474 
L 1133 3994 
L 2093 3994 
C 2829 3994 3347 3482 3347 2598 
L 3347 1869 
C 3347 986 2829 474 2093 474 
L 1133 474 
z
" transform="scale(0.015625)"/>
      <path id="IBMPlexSans-73" d="M 1536 -77 
C 2291 -77 2758 314 2758 954 
C 2758 1453 2477 1773 1747 1882 
L 1491 1920 
C 1082 1984 858 2112 858 2432 
C 858 2746 1082 2944 1504 2944 
C 1926 2944 2208 2746 2355 2541 
L 2694 2848 
C 2426 3181 2074 3379 1542 3379 
C 870 3379 365 3059 365 2406 
C 365 1792 819 1542 1427 1453 
L 1690 1414 
C 2125 1350 2266 1152 2266 896 
C 2266 557 2010 358 1574 358 
C 1158 358 851 544 595 864 
L 230 570 
C 525 179 928 -77 1536 -77 
z
" transform="scale(0.015625)"/>
      <path id="IBMPlexSans-6e" d="M 1056 0 
L 1056 2291 
C 1056 2714 1453 2918 1862 2918 
C 2355 2918 2611 2618 2611 2029 
L 2611 0 
L 3123 0 
L 3123 2118 
C 3123 2918 2694 3379 2016 3379 
C 1523 3379 1242 3136 1082 2765 
L 1056 2765 
L 1056 3302 
L 544 3302 
L 544 0 
L 1056 0 
z
" transform="scale(0.015625)"/>
      <path id="IBMPlexSans-28" d="M 531 1997 
C 531 749 1056 -339 1690 -877 
L 2176 -877 
C 1485 -262 1011 819 1011 1715 
L 1011 2266 
C 1011 3162 1466 4224 2176 4864 
L 1690 4864 
C 1037 4307 531 3232 531 1997 
z
" transform="scale(0.015625)"/>
      <path id="IBMPlexSans-48" d="M 3392 0 
L 3930 0 
L 3930 4467 
L 3392 4467 
L 3392 2496 
L 1133 2496 
L 1133 4467 
L 595 4467 
L 595 0 
L 1133 0 
L 1133 2022 
L 3392 2022 
L 3392 0 
z
" transform="scale(0.015625)"/>
      <path id="DejaVuSans-32" d="M 1228 531 
L 3431 531 
L 3431 0 
L 469 0 
L 469 531 
Q 828 903 1448 1529 
Q 2069 2156 2228 2338 
Q 2531 2678 2651 2914 
Q 2772 3150 2772 3378 
Q 2772 3750 2511 3984 
Q 2250 4219 1831 4219 
Q 1534 4219 1204 4116 
Q 875 4013 500 3803 
L 500 4441 
Q 881 4594 1212 4672 
Q 1544 4750 1819 4750 
Q 2544 4750 2975 4387 
Q 3406 4025 3406 3419 
Q 3406 3131 3298 2873 
Q 3191 2616 2906 2266 
Q 2828 2175 2409 1742 
Q 1991 1309 1228 531 
z
" transform="scale(0.015625)"/>
      <path id="IBMPlexSans-4f" d="M 2266 -77 
C 3418 -77 4160 736 4160 2234 
C 4160 3731 3418 4544 2266 4544 
C 1114 4544 371 3731 371 2234 
C 371 736 1114 -77 2266 -77 
z
M 2266 403 
C 1491 403 947 979 947 1862 
L 947 2605 
C 947 3488 1491 4064 2266 4064 
C 3040 4064 3584 3488 3584 2605 
L 3584 1862 
C 3584 979 3040 403 2266 403 
z
" transform="scale(0.015625)"/>
      <path id="IBMPlexSans-2c" d="M 870 749 
C 602 749 480 595 480 371 
L 480 282 
C 480 109 557 -19 730 -58 
C 659 -358 506 -582 250 -851 
L 678 -851 
C 1043 -538 1261 -64 1261 282 
L 1261 371 
C 1261 595 1139 749 870 749 
z
" transform="scale(0.015625)"/>
      <path id="IBMPlexSans-4e" d="M 3309 0 
L 3930 0 
L 3930 4467 
L 3405 4467 
L 3405 749 
L 3386 749 
L 2848 1741 
L 1216 4467 
L 595 4467 
L 595 0 
L 1120 0 
L 1120 3718 
L 1139 3718 
L 1677 2726 
L 3309 0 
z
" transform="scale(0.015625)"/>
      <path id="IBMPlexSans-56" d="M 2266 0 
L 3770 4467 
L 3213 4467 
L 2470 2214 
L 1965 538 
L 1933 538 
L 1440 2214 
L 704 4467 
L 128 4467 
L 1613 0 
L 2266 0 
z
" transform="scale(0.015625)"/>
      <path id="IBMPlexSans-45" d="M 3322 0 
L 3322 474 
L 1133 474 
L 1133 2022 
L 3194 2022 
L 3194 2496 
L 1133 2496 
L 1133 3994 
L 3322 3994 
L 3322 4467 
L 595 4467 
L 595 0 
L 3322 0 
z
" transform="scale(0.015625)"/>
      <path id="IBMPlexSans-29" d="M 1613 1997 
C 1613 3232 1107 4307 454 4864 
L -32 4864 
C 678 4224 1133 3162 1133 2266 
L 1133 1715 
C 1133 819 659 -262 -32 -877 
L 454 -877 
C 1088 -339 1613 749 1613 1997 
z
" transform="scale(0.015625)"/>
     </defs>
     <use xlink:href="#IBMPlexSans-43"/>
     <use xlink:href="#IBMPlexSans-75" transform="translate(62.099991 0)"/>
     <use xlink:href="#IBMPlexSans-6d" transform="translate(118.899979 0)"/>
     <use xlink:href="#IBMPlexSans-75" transform="translate(206.199966 0)"/>
     <use xlink:href="#IBMPlexSans-6c" transform="translate(262.999954 0)"/>
     <use xlink:href="#IBMPlexSans-61" transform="translate(290.199951 0)"/>
     <use xlink:href="#IBMPlexSans-74" transform="translate(343.599945 0)"/>
     <use xlink:href="#IBMPlexSans-69" transform="translate(378.699936 0)"/>
     <use xlink:href="#IBMPlexSans-76" transform="translate(403.699921 0)"/>
     <use xlink:href="#IBMPlexSans-65" transform="translate(452.899918 0)"/>
     <use xlink:href="#IBMPlexSans-20" transform="translate(507.799911 0)"/>
     <use xlink:href="#IBMPlexSans-54" transform="translate(531.399902 0)"/>
     <use xlink:href="#IBMPlexSans-65" transform="translate(588.599899 0)"/>
     <use xlink:href="#IBMPlexSans-6d" transform="translate(643.499893 0)"/>
     <use xlink:href="#IBMPlexSans-70" transform="translate(730.799881 0)"/>
     <use xlink:href="#IBMPlexSans-65" transform="translate(788.799866 0)"/>
     <use xlink:href="#IBMPlexSans-72" transform="translate(843.69986 0)"/>
     <use xlink:href="#IBMPlexSans-61" transform="translate(880.399857 0)"/>
     <use xlink:href="#IBMPlexSans-74" transform="translate(933.79985 0)"/>
     <use xlink:href="#IBMPlexSans-75" transform="translate(968.899841 0)"/>
     <use xlink:href="#IBMPlexSans-72" transform="translate(1025.699829 0)"/>
     <use xlink:href="#IBMPlexSans-65" transform="translate(1062.399826 0)"/>
     <use xlink:href="#IBMPlexSans-20" transform="translate(1117.29982 0)"/>
     <use xlink:href="#IBMPlexSans-44" transform="translate(1140.899811 0)"/>
     <use xlink:href="#IBMPlexSans-69" transform="translate(1207.999802 0)"/>
     <use xlink:href="#IBMPlexSans-73" transform="translate(1232.999786 0)"/>
     <use xlink:href="#IBMPlexSans-74" transform="translate(1281.699783 0)"/>
     <use xlink:href="#IBMPlexSans-72" transform="translate(1316.799774 0)"/>
     <use xlink:href="#IBMPlexSans-69" transform="translate(1353.499771 0)"/>
     <use xlink:href="#IBMPlexSans-62" transform="translate(1378.499756 0)"/>
     <use xlink:href="#IBMPlexSans-75" transform="translate(1436.499741 0)"/>
     <use xlink:href="#IBMPlexSans-74" transform="translate(1493.299728 0)"/>
     <use xlink:href="#IBMPlexSans-69" transform="translate(1528.399719 0)"/>
     <use xlink:href="#IBMPlexSans-6f" transform="translate(1553.399704 0)"/>
     <use xlink:href="#IBMPlexSans-6e" transform="translate(1609.399689 0)"/>
     <use xlink:href="#IBMPlexSans-20" transform="translate(1666.199677 0)"/>
     <use xlink:href="#IBMPlexSans-28" transform="translate(1689.799667 0)"/>
     <use xlink:href="#IBMPlexSans-32" transform="translate(1723.299652 0)"/>
     <use xlink:href="#IBMPlexSans-30" transform="translate(1783.299637 0)"/>
     <use xlink:href="#IBMPlexSans-30" transform="translate(1843.299622 0)"/>
     <use xlink:href="#IBMPlexSans-30" transform="translate(1903.299606 0)"/>
     <use xlink:href="#IBMPlexSans-20" transform="translate(1963.299591 0)"/>
     <use xlink:href="#IBMPlexSans-48" transform="translate(1986.899582 0)"/>
     <use xlink:href="#DejaVuSans-32" transform="translate(2058.556595 -16.40625) scale(0.7)"/>
     <use xlink:href="#IBMPlexSans-4f" transform="translate(2105.827103 0)"/>
     <use xlink:href="#IBMPlexSans-2c" transform="translate(2176.62709 0)"/>
     <use xlink:href="#IBMPlexSans-20" transform="translate(2203.827087 0)"/>
     <use xlink:href="#IBMPlexSans-4e" transform="translate(2227.427078 0)"/>
     <use xlink:href="#IBMPlexSans-56" transform="translate(2298.12706 0)"/>
     <use xlink:href="#IBMPlexSans-45" transform="translate(2359.027054 0)"/>
     <use xlink:href="#IBMPlexSans-29" transform="translate(2417.327042 0)"/>
    </g>
   </g>
   <g id="legend_1">
    <g id="patch_5">
     <path d="M 49.320312 73.52 
L 148.479688 73.52 
Q 150.479688 73.52 150.479688 71.52 
L 150.479688 29.32 
Q 150.479688 27.32 148.479688 27.32 
L 49.320312 27.32 
Q 47.320312 27.32 47.320312 29.32 
L 47.320312 71.52 
Q 47.320312 73.52 49.320312 73.52 
z
" style="fill: #ffffff; opacity: 0.8; stroke: #cccccc; stroke-linejoin: miter"/>
    </g>
    <g id="line2d_25">
     <path d="M 51.320312 35.22 
L 61.320312 35.22 
L 71.320312 35.22 
" style="fill: none; stroke: #1f77b4; stroke-opacity: 0.2; stroke-width: 1.5; stroke-linecap: square"/>
    </g>
    <g id="text_16">
     <!-- Individual NVE -->
     <g transform="translate(79.320312 38.72) scale(0.1 -0.1)">
      <defs>
       <path id="IBMPlexSans-49" d="M 2176 0 
L 2176 448 
L 1549 448 
L 1549 4019 
L 2176 4019 
L 2176 4467 
L 384 4467 
L 384 4019 
L 1011 4019 
L 1011 448 
L 384 448 
L 384 0 
L 2176 0 
z
" transform="scale(0.015625)"/>
       <path id="IBMPlexSans-64" d="M 2656 0 
L 3168 0 
L 3168 4736 
L 2656 4736 
L 2656 2765 
L 2630 2765 
C 2458 3181 2118 3379 1664 3379 
C 838 3379 320 2707 320 1651 
C 320 595 838 -77 1664 -77 
C 2118 -77 2432 128 2630 538 
L 2656 538 
L 2656 0 
z
M 1805 384 
C 1229 384 870 781 870 1370 
L 870 1933 
C 870 2522 1229 2918 1805 2918 
C 2272 2918 2656 2650 2656 2285 
L 2656 1056 
C 2656 627 2272 384 1805 384 
z
" transform="scale(0.015625)"/>
      </defs>
      <use xlink:href="#IBMPlexSans-49"/>
      <use xlink:href="#IBMPlexSans-6e" transform="translate(39.999985 0)"/>
      <use xlink:href="#IBMPlexSans-64" transform="translate(96.799973 0)"/>
      <use xlink:href="#IBMPlexSans-69" transform="translate(154.799957 0)"/>
      <use xlink:href="#IBMPlexSans-76" transform="translate(179.799942 0)"/>
      <use xlink:href="#IBMPlexSans-69" transform="translate(228.999939 0)"/>
      <use xlink:href="#IBMPlexSans-64" transform="translate(253.999924 0)"/>
      <use xlink:href="#IBMPlexSans-75" transform="translate(311.999908 0)"/>
      <use xlink:href="#IBMPlexSans-61" transform="translate(368.799896 0)"/>
      <use xlink:href="#IBMPlexSans-6c" transform="translate(422.19989 0)"/>
      <use xlink:href="#IBMPlexSans-20" transform="translate(449.399887 0)"/>
      <use xlink:href="#IBMPlexSans-4e" transform="translate(472.999878 0)"/>
      <use xlink:href="#IBMPlexSans-56" transform="translate(543.69986 0)"/>
      <use xlink:href="#IBMPlexSans-45" transform="translate(604.599854 0)"/>
     </g>
    </g>
    <g id="line2d_26">
     <path d="M 51.320312 49.62 
L 61.320312 49.62 
L 71.320312 49.62 
" style="fill: none; stroke: #000000; stroke-width: 1.5; stroke-linecap: square"/>
    </g>
    <g id="text_17">
     <!-- Combined NVE -->
     <g transform="translate(79.320312 53.12) scale(0.1 -0.1)">
      <use xlink:href="#IBMPlexSans-43"/>
      <use xlink:href="#IBMPlexSans-6f" transform="translate(62.099991 0)"/>
      <use xlink:href="#IBMPlexSans-6d" transform="translate(118.099976 0)"/>
      <use xlink:href="#IBMPlexSans-62" transform="translate(205.399963 0)"/>
      <use xlink:href="#IBMPlexSans-69" transform="translate(263.399948 0)"/>
      <use xlink:href="#IBMPlexSans-6e" transform="translate(288.399933 0)"/>
      <use xlink:href="#IBMPlexSans-65" transform="translate(345.199921 0)"/>
      <use xlink:href="#IBMPlexSans-64" transform="translate(400.099915 0)"/>
      <use xlink:href="#IBMPlexSans-20" transform="translate(458.099899 0)"/>
      <use xlink:href="#IBMPlexSans-4e" transform="translate(481.69989 0)"/>
      <use xlink:href="#IBMPlexSans-56" transform="translate(552.399872 0)"/>
      <use xlink:href="#IBMPlexSans-45" transform="translate(613.299866 0)"/>
     </g>
    </g>
    <g id="line2d_27">
     <path d="M 51.320312 64.02 
L 61.320312 64.02 
L 71.320312 64.02 
" style="fill: none; stroke-dasharray: 4,6.6; stroke-dashoffset: 0; stroke: #d62728; stroke-width: 4"/>
    </g>
    <g id="text_18">
     <!-- NVT exact -->
     <g transform="translate(79.320312 67.52) scale(0.1 -0.1)">
      <defs>
       <path id="IBMPlexSans-78" d="M 134 0 
L 704 0 
L 1632 1293 
L 1651 1293 
L 2509 0 
L 3110 0 
L 1920 1702 
L 3085 3302 
L 2515 3302 
L 1645 2074 
L 1626 2074 
L 787 3302 
L 186 3302 
L 1357 1664 
L 134 0 
z
" transform="scale(0.015625)"/>
       <path id="IBMPlexSans-63" d="M 1773 -77 
C 2400 -77 2829 230 3040 704 
L 2669 954 
C 2490 576 2189 378 1773 378 
C 1165 378 851 794 851 1370 
L 851 1933 
C 851 2509 1165 2925 1773 2925 
C 2176 2925 2458 2726 2579 2387 
L 3008 2605 
C 2816 3059 2426 3379 1773 3379 
C 845 3379 301 2707 301 1651 
C 301 595 845 -77 1773 -77 
z
" transform="scale(0.015625)"/>
      </defs>
      <use xlink:href="#IBMPlexSans-4e"/>
      <use xlink:href="#IBMPlexSans-56" transform="translate(70.699982 0)"/>
      <use xlink:href="#IBMPlexSans-54" transform="translate(131.599976 0)"/>
      <use xlink:href="#IBMPlexSans-20" transform="translate(188.799973 0)"/>
      <use xlink:href="#IBMPlexSans-65" transform="translate(212.399963 0)"/>
      <use xlink:href="#IBMPlexSans-78" transform="translate(267.299957 0)"/>
      <use xlink:href="#IBMPlexSans-61" transform="translate(317.999954 0)"/>
      <use xlink:href="#IBMPlexSans-63" transform="translate(371.399948 0)"/>
      <use xlink:href="#IBMPlexSans-74" transform="translate(421.699936 0)"/>
     </g>
    </g>
   </g>
  </g>
 </g>
 <defs>
  <clipPath id="p2b8b78f69b">
   <rect x="42.320312" y="22.32" width="498.879208" height="252.62952"/>
  </clipPath>
 </defs>
</svg>