<?xml version="1.0" encoding="utf-8" standalone="no"?>
<!DOCTYPE svg PUBLIC "-//W3C//DTD SVG 1.1//EN"
  "http://www.w3.org/Graphics/SVG/1.1/DTD/svg11.dtd">
<svg xmlns:xlink="http://www.w3.org/1999/xlink" width="548.39952pt" height="312.14952pt" viewBox="0 0 548.39952 312.14952" xmlns="http://www.w3.org/2000/svg" version="1.1">
 <metadata>
  <rdf:RDF xmlns:dc="http://purl.org/dc/elements/1.1/" xmlns:cc="http://creativecommons.org/ns#" xmlns:rdf="http://www.w3.org/1999/02/22-rdf-syntax-ns#">
   <cc:Work>
    <dc:type rdf:resource="http://purl.org/dc/dcmitype/StillImage"/>
    <dc:date>2026-01-27T08:26:27.344485</dc:date>
    <dc:format>image/svg+xml</dc:format>
    <dc:creator>
     <cc:Agent>
      <dc:title>Matplotlib v3.10.7, https://matplotlib.org/</dc:title>
     </cc:Agent>
    </dc:creator>
   </cc:Work>
  </rdf:RDF>
 </metadata>
 <defs>
  <style type="text/css">*{stroke-linejoin: round; stroke-linecap: butt}</style>
 </defs>
 <g id="figure_1">
  <g id="patch_1">
   <path d="M 0 312.14952 
L 548.39952 312.14952 
L 548.39952 0 
L 0 0 
z
" style="fill: #ffffff"/>
  </g>
  <g id="axes_1">
   <g id="patch_2">
    <path d="M 48.640625 128.02452 
L 271.209676 128.02452 
L 271.209676 7.2 
L 48.640625 7.2 
z
" style="fill: #ffffff"/>
   </g>
   <g id="matplotlib.axis_1">
    <g id="xtick_1">
     <g id="line2d_1">
      <defs>
       <path id="m0f6bc35365" d="M 0 0 
L 0 3.5 
" style="stroke: #000000; stroke-width: 0.8"/>
      </defs>
      <g>
       <use xlink:href="#m0f6bc35365" x="217.539905" y="128.02452" style="stroke: #000000; stroke-width: 0.8"/>
      </g>
     </g>
     <g id="text_1">
      <!-- $\mathdefault{10^{0}}$ -->
      <g transform="translate(209.239905 142.42452) scale(0.1 -0.1)">
       <defs>
        <path id="IBMPlexSans-31" d="M 3501 0 
L 3501 474 
L 2349 474 
L 2349 4467 
L 1510 4467 
L 326 3360 
L 640 3021 
L 1766 4070 
L 1811 4070 
L 1811 474 
L 563 474 
L 563 0 
L 3501 0 
z
" transform="scale(0.015625)"/>
        <path id="IBMPlexSans-30" d="M 1920 -77 
C 2989 -77 3456 774 3456 2234 
C 3456 3693 2989 4544 1920 4544 
C 851 4544 384 3693 384 2234 
C 384 774 851 -77 1920 -77 
z
M 1920 390 
C 1222 390 947 1005 947 1869 
L 947 2598 
C 947 3462 1222 4077 1920 4077 
C 2618 4077 2893 3462 2893 2598 
L 2893 1869 
C 2893 1005 2618 390 1920 390 
z
" transform="scale(0.015625)"/>
       </defs>
       <use xlink:href="#IBMPlexSans-31" transform="translate(0 0.184375)"/>
       <use xlink:href="#IBMPlexSans-30" transform="translate(59.999985 0.184375)"/>
       <use xlink:href="#IBMPlexSans-30" transform="translate(120.90286 36.3) scale(0.7)"/>
      </g>
     </g>
    </g>
    <g id="xtick_2">
     <g id="line2d_2">
      <defs>
       <path id="mff76f9e7fa" d="M 0 0 
L 0 2 
" style="stroke: #000000; stroke-width: 0.6"/>
      </defs>
      <g>
       <use xlink:href="#mff76f9e7fa" x="80.425621" y="128.02452" style="stroke: #000000; stroke-width: 0.6"/>
      </g>
     </g>
    </g>
    <g id="xtick_3">
     <g id="line2d_3">
      <g>
       <use xlink:href="#mff76f9e7fa" x="114.968773" y="128.02452" style="stroke: #000000; stroke-width: 0.6"/>
      </g>
     </g>
    </g>
    <g id="xtick_4">
     <g id="line2d_4">
      <g>
       <use xlink:href="#mff76f9e7fa" x="139.477529" y="128.02452" style="stroke: #000000; stroke-width: 0.6"/>
      </g>
     </g>
    </g>
    <g id="xtick_5">
     <g id="line2d_5">
      <g>
       <use xlink:href="#mff76f9e7fa" x="158.487997" y="128.02452" style="stroke: #000000; stroke-width: 0.6"/>
      </g>
     </g>
    </g>
    <g id="xtick_6">
     <g id="line2d_6">
      <g>
       <use xlink:href="#mff76f9e7fa" x="174.020681" y="128.02452" style="stroke: #000000; stroke-width: 0.6"/>
      </g>
     </g>
    </g>
    <g id="xtick_7">
     <g id="line2d_7">
      <g>
       <use xlink:href="#mff76f9e7fa" x="187.153378" y="128.02452" style="stroke: #000000; stroke-width: 0.6"/>
      </g>
     </g>
    </g>
    <g id="xtick_8">
     <g id="line2d_8">
      <g>
       <use xlink:href="#mff76f9e7fa" x="198.529437" y="128.02452" style="stroke: #000000; stroke-width: 0.6"/>
      </g>
     </g>
    </g>
    <g id="xtick_9">
     <g id="line2d_9">
      <g>
       <use xlink:href="#mff76f9e7fa" x="208.563833" y="128.02452" style="stroke: #000000; stroke-width: 0.6"/>
      </g>
     </g>
    </g>
   </g>
   <g id="matplotlib.axis_2">
    <g id="ytick_1">
     <g id="line2d_10">
      <defs>
       <path id="m9856378a28" d="M 0 0 
L -3.5 0 
" style="stroke: #000000; stroke-width: 0.8"/>
      </defs>
      <g>
       <use xlink:href="#m9856378a28" x="48.640625" y="122.532496" style="stroke: #000000; stroke-width: 0.8"/>
      </g>
     </g>
     <g id="text_2">
      <!-- 0.00 -->
      <g transform="translate(20.920313 126.232496) scale(0.1 -0.1)">
       <defs>
        <path id="IBMPlexSans-2e" d="M 870 -77 
C 1139 -77 1261 77 1261 294 
L 1261 378 
C 1261 595 1139 749 870 749 
C 602 749 480 595 480 378 
L 480 294 
C 480 77 602 -77 870 -77 
z
" transform="scale(0.015625)"/>
       </defs>
       <use xlink:href="#IBMPlexSans-30"/>
       <use xlink:href="#IBMPlexSans-2e" transform="translate(59.999985 0)"/>
       <use xlink:href="#IBMPlexSans-30" transform="translate(87.199982 0)"/>
       <use xlink:href="#IBMPlexSans-30" transform="translate(147.199966 0)"/>
      </g>
     </g>
    </g>
    <g id="ytick_2">
     <g id="line2d_11">
      <g>
       <use xlink:href="#m9856378a28" x="48.640625" y="99.440323" style="stroke: #000000; stroke-width: 0.8"/>
      </g>
     </g>
     <g id="text_3">
      <!-- 0.05 -->
      <g transform="translate(20.920313 103.140323) scale(0.1 -0.1)">
       <defs>
        <path id="IBMPlexSans-35" d="M 3187 4467 
L 794 4467 
L 634 2010 
L 1088 1946 
C 1274 2150 1478 2323 1888 2323 
C 2496 2323 2822 1984 2822 1395 
L 2822 1331 
C 2822 742 2496 403 1888 403 
C 1350 403 1126 640 896 992 
L 493 685 
C 762 301 1146 -77 1888 -77 
C 2829 -77 3392 531 3392 1402 
C 3392 2266 2829 2784 2061 2784 
C 1594 2784 1357 2592 1146 2291 
L 1101 2291 
L 1229 3994 
L 3187 3994 
L 3187 4467 
z
" transform="scale(0.015625)"/>
       </defs>
       <use xlink:href="#IBMPlexSans-30"/>
       <use xlink:href="#IBMPlexSans-2e" transform="translate(59.999985 0)"/>
       <use xlink:href="#IBMPlexSans-30" transform="translate(87.199982 0)"/>
       <use xlink:href="#IBMPlexSans-35" transform="translate(147.199966 0)"/>
      </g>
     </g>
    </g>
    <g id="ytick_3">
     <g id="line2d_12">
      <g>
       <use xlink:href="#m9856378a28" x="48.640625" y="76.34815" style="stroke: #000000; stroke-width: 0.8"/>
      </g>
     </g>
     <g id="text_4">
      <!-- 0.10 -->
      <g transform="translate(20.920313 80.04815) scale(0.1 -0.1)">
       <use xlink:href="#IBMPlexSans-30"/>
       <use xlink:href="#IBMPlexSans-2e" transform="translate(59.999985 0)"/>
       <use xlink:href="#IBMPlexSans-31" transform="translate(87.199982 0)"/>
       <use xlink:href="#IBMPlexSans-30" transform="translate(147.199966 0)"/>
      </g>
     </g>
    </g>
    <g id="ytick_4">
     <g id="line2d_13">
      <g>
       <use xlink:href="#m9856378a28" x="48.640625" y="53.255977" style="stroke: #000000; stroke-width: 0.8"/>
      </g>
     </g>
     <g id="text_5">
      <!-- 0.15 -->
      <g transform="translate(20.920313 56.955977) scale(0.1 -0.1)">
       <use xlink:href="#IBMPlexSans-30"/>
       <use xlink:href="#IBMPlexSans-2e" transform="translate(59.999985 0)"/>
       <use xlink:href="#IBMPlexSans-31" transform="translate(87.199982 0)"/>
       <use xlink:href="#IBMPlexSans-35" transform="translate(147.199966 0)"/>
      </g>
     </g>
    </g>
    <g id="ytick_5">
     <g id="line2d_14">
      <g>
       <use xlink:href="#m9856378a28" x="48.640625" y="30.163804" style="stroke: #000000; stroke-width: 0.8"/>
      </g>
     </g>
     <g id="text_6">
      <!-- 0.20 -->
      <g transform="translate(20.920313 33.863804) scale(0.1 -0.1)">
       <defs>
        <path id="IBMPlexSans-32" d="M 3411 474 
L 1062 474 
L 2266 1555 
C 2835 2067 3245 2554 3245 3245 
C 3245 4006 2746 4544 1875 4544 
C 1011 4544 614 4019 442 3494 
L 922 3309 
C 1043 3731 1299 4064 1850 4064 
C 2400 4064 2675 3725 2675 3232 
L 2675 3155 
C 2675 2726 2355 2278 1939 1894 
L 480 550 
L 480 0 
L 3411 0 
L 3411 474 
z
" transform="scale(0.015625)"/>
       </defs>
       <use xlink:href="#IBMPlexSans-30"/>
       <use xlink:href="#IBMPlexSans-2e" transform="translate(59.999985 0)"/>
       <use xlink:href="#IBMPlexSans-32" transform="translate(87.199982 0)"/>
       <use xlink:href="#IBMPlexSans-30" transform="translate(147.199966 0)"/>
      </g>
     </g>
    </g>
    <g id="text_7">
     <!-- cv2l(125%) weight -->
     <g transform="translate(14.8 110.181791) rotate(-90) scale(0.1 -0.1)">
      <defs>
       <path id="IBMPlexSans-63" d="M 1773 -77 
C 2400 -77 2829 230 3040 704 
L 2669 954 
C 2490 576 2189 378 1773 378 
C 1165 378 851 794 851 1370 
L 851 1933 
C 851 2509 1165 2925 1773 2925 
C 2176 2925 2458 2726 2579 2387 
L 3008 2605 
C 2816 3059 2426 3379 1773 3379 
C 845 3379 301 2707 301 1651 
C 301 595 845 -77 1773 -77 
z
" transform="scale(0.015625)"/>
       <path id="IBMPlexSans-76" d="M 1869 0 
L 3034 3302 
L 2541 3302 
L 1952 1664 
L 1594 538 
L 1562 538 
L 1203 1664 
L 627 3302 
L 115 3302 
L 1274 0 
L 1869 0 
z
" transform="scale(0.015625)"/>
       <path id="IBMPlexSans-6c" d="M 1542 0 
L 1542 448 
L 1056 448 
L 1056 4736 
L 544 4736 
L 544 531 
C 544 224 736 0 1088 0 
L 1542 0 
z
" transform="scale(0.015625)"/>
       <path id="IBMPlexSans-28" d="M 531 1997 
C 531 749 1056 -339 1690 -877 
L 2176 -877 
C 1485 -262 1011 819 1011 1715 
L 1011 2266 
C 1011 3162 1466 4224 2176 4864 
L 1690 4864 
C 1037 4307 531 3232 531 1997 
z
" transform="scale(0.015625)"/>
       <path id="IBMPlexSans-25" d="M 1664 0 
L 4762 4467 
L 4269 4467 
L 1171 0 
L 1664 0 
z
M 1427 2010 
C 2074 2010 2438 2458 2438 3277 
C 2438 4096 2074 4544 1427 4544 
C 781 4544 416 4096 416 3277 
C 416 2458 781 2010 1427 2010 
z
M 1427 2342 
C 1056 2342 877 2598 877 3085 
L 877 3469 
C 877 3955 1056 4211 1427 4211 
C 1798 4211 1978 3955 1978 3469 
L 1978 3085 
C 1978 2598 1798 2342 1427 2342 
z
M 4506 -77 
C 5152 -77 5517 371 5517 1190 
C 5517 2010 5152 2458 4506 2458 
C 3859 2458 3494 2010 3494 1190 
C 3494 371 3859 -77 4506 -77 
z
M 4506 256 
C 4134 256 3955 512 3955 998 
L 3955 1382 
C 3955 1869 4134 2125 4506 2125 
C 4877 2125 5056 1869 5056 1382 
L 5056 998 
C 5056 512 4877 256 4506 256 
z
" transform="scale(0.015625)"/>
       <path id="IBMPlexSans-29" d="M 1613 1997 
C 1613 3232 1107 4307 454 4864 
L -32 4864 
C 678 4224 1133 3162 1133 2266 
L 1133 1715 
C 1133 819 659 -262 -32 -877 
L 454 -877 
C 1088 -339 1613 749 1613 1997 
z
" transform="scale(0.015625)"/>
       <path id="IBMPlexSans-20" transform="scale(0.015625)"/>
       <path id="IBMPlexSans-77" d="M 1082 0 
L 1702 0 
L 2163 1587 
L 2445 2592 
L 2458 2592 
L 2746 1587 
L 3206 0 
L 3840 0 
L 4717 3302 
L 4237 3302 
L 3878 1875 
L 3539 429 
L 3526 429 
L 3117 1875 
L 2688 3302 
L 2234 3302 
L 1818 1875 
L 1414 429 
L 1402 429 
L 1050 1875 
L 698 3302 
L 198 3302 
L 1082 0 
z
" transform="scale(0.015625)"/>
       <path id="IBMPlexSans-65" d="M 1786 -77 
C 2406 -77 2880 230 3091 678 
L 2726 941 
C 2554 576 2234 371 1818 371 
C 1203 371 838 800 838 1370 
L 838 1523 
L 3213 1523 
L 3213 1766 
C 3213 2701 2669 3379 1786 3379 
C 890 3379 301 2701 301 1651 
C 301 602 890 -77 1786 -77 
z
M 1786 2950 
C 2310 2950 2662 2560 2662 1978 
L 2662 1907 
L 838 1907 
L 838 1952 
C 838 2528 1229 2950 1786 2950 
z
" transform="scale(0.015625)"/>
       <path id="IBMPlexSans-69" d="M 800 4077 
C 1018 4077 1114 4192 1114 4365 
L 1114 4448 
C 1114 4621 1018 4736 800 4736 
C 582 4736 486 4621 486 4448 
L 486 4365 
C 486 4192 582 4077 800 4077 
z
M 544 0 
L 1056 0 
L 1056 3302 
L 544 3302 
L 544 0 
z
" transform="scale(0.015625)"/>
       <path id="IBMPlexSans-67" d="M 3328 -365 
C 3328 179 2976 512 2157 512 
L 1453 512 
C 1152 512 947 563 947 762 
C 947 966 1165 1075 1382 1133 
C 1478 1114 1594 1101 1702 1101 
C 2458 1101 2950 1568 2950 2240 
C 2950 2592 2810 2886 2573 3091 
L 2573 3302 
L 3200 3302 
L 3200 3750 
L 2707 3750 
C 2432 3750 2323 3565 2323 3309 
L 2323 3251 
C 2144 3334 1933 3379 1696 3379 
C 947 3379 454 2912 454 2240 
C 454 1779 685 1414 1075 1229 
L 1075 1203 
C 742 1120 506 960 506 627 
C 506 403 614 256 800 166 
L 800 96 
C 474 6 275 -186 275 -544 
C 275 -1062 698 -1357 1728 -1357 
C 2790 -1357 3328 -1043 3328 -365 
z
M 2848 -403 
C 2848 -762 2515 -941 1946 -941 
L 1472 -941 
C 954 -941 755 -704 755 -416 
C 755 -211 851 -64 1062 32 
L 2163 32 
C 2675 32 2848 -141 2848 -403 
z
M 1702 1510 
C 1267 1510 992 1715 992 2150 
L 992 2330 
C 992 2765 1267 2970 1702 2970 
C 2138 2970 2413 2765 2413 2330 
L 2413 2150 
C 2413 1715 2138 1510 1702 1510 
z
" transform="scale(0.015625)"/>
       <path id="IBMPlexSans-68" d="M 544 0 
L 1056 0 
L 1056 2291 
C 1056 2714 1453 2918 1862 2918 
C 2355 2918 2611 2618 2611 2029 
L 2611 0 
L 3123 0 
L 3123 2118 
C 3123 2918 2694 3379 2016 3379 
C 1523 3379 1242 3136 1082 2765 
L 1056 2765 
L 1056 4736 
L 544 4736 
L 544 0 
z
" transform="scale(0.015625)"/>
       <path id="IBMPlexSans-74" d="M 1914 0 
L 1914 448 
L 1242 448 
L 1242 2854 
L 1965 2854 
L 1965 3302 
L 1242 3302 
L 1242 4218 
L 781 4218 
L 781 3603 
C 781 3379 710 3302 493 3302 
L 186 3302 
L 186 2854 
L 730 2854 
L 730 544 
C 730 224 922 0 1274 0 
L 1914 0 
z
" transform="scale(0.015625)"/>
      </defs>
      <use xlink:href="#IBMPlexSans-63"/>
      <use xlink:href="#IBMPlexSans-76" transform="translate(50.299988 0)"/>
      <use xlink:href="#IBMPlexSans-32" transform="translate(99.499985 0)"/>
      <use xlink:href="#IBMPlexSans-6c" transform="translate(159.499969 0)"/>
      <use xlink:href="#IBMPlexSans-28" transform="translate(186.699966 0)"/>
      <use xlink:href="#IBMPlexSans-31" transform="translate(220.199951 0)"/>
      <use xlink:href="#IBMPlexSans-32" transform="translate(280.199936 0)"/>
      <use xlink:href="#IBMPlexSans-35" transform="translate(340.199921 0)"/>
      <use xlink:href="#IBMPlexSans-25" transform="translate(400.199905 0)"/>
      <use xlink:href="#IBMPlexSans-29" transform="translate(492.899887 0)"/>
      <use xlink:href="#IBMPlexSans-20" transform="translate(526.399872 0)"/>
      <use xlink:href="#IBMPlexSans-77" transform="translate(549.999863 0)"/>
      <use xlink:href="#IBMPlexSans-65" transform="translate(626.79985 0)"/>
      <use xlink:href="#IBMPlexSans-69" transform="translate(681.699844 0)"/>
      <use xlink:href="#IBMPlexSans-67" transform="translate(706.699829 0)"/>
      <use xlink:href="#IBMPlexSans-68" transform="translate(759.499817 0)"/>
      <use xlink:href="#IBMPlexSans-74" transform="translate(816.299805 0)"/>
     </g>
    </g>
   </g>
   <g id="line2d_15">
    <path d="M 58.7574 122.532496 
L 64.082019 122.532496 
L 69.406637 122.532496 
L 74.731255 122.532496 
L 80.055874 122.532494 
L 85.380492 122.532448 
L 90.705111 122.53205 
L 96.029729 122.529861 
L 101.354348 122.520497 
L 106.678966 122.488171 
L 112.003585 122.393312 
L 117.328203 122.162508 
L 122.652821 121.725681 
L 127.97744 121.155744 
L 133.302058 120.702298 
L 138.626677 120.541919 
L 143.951295 120.483613 
L 149.275914 120.302476 
L 154.600532 119.684627 
L 159.925151 118.313776 
L 165.249769 115.502314 
L 170.574388 109.734811 
L 175.899006 97.203867 
L 181.223624 72.054999 
L 186.548243 35.800106 
L 191.872861 12.692024 
L 197.19748 30.407634 
L 202.522098 76.233842 
L 207.846717 110.626427 
L 213.171335 121.200451 
L 218.495954 122.476737 
L 223.820572 122.531754 
L 229.14519 122.532494 
L 234.469809 122.532496 
L 239.794427 122.532496 
L 245.119046 122.532496 
L 250.443664 122.532496 
L 255.768283 122.532496 
L 261.092901 122.532496 
" clip-path="url(#pe571df1a64)" style="fill: none; stroke: #ff7f0e; stroke-width: 1.5; stroke-linecap: square"/>
   </g>
   <g id="patch_3">
    <path d="M 48.640625 128.02452 
L 48.640625 7.2 
" style="fill: none; stroke: #000000; stroke-width: 0.8; stroke-linejoin: miter; stroke-linecap: square"/>
   </g>
   <g id="patch_4">
    <path d="M 48.640625 128.02452 
L 271.209676 128.02452 
" style="fill: none; stroke: #000000; stroke-width: 0.8; stroke-linejoin: miter; stroke-linecap: square"/>
   </g>
  </g>
  <g id="axes_2">
   <g id="patch_5">
    <path d="M 318.630469 128.02452 
L 541.19952 128.02452 
L 541.19952 7.2 
L 318.630469 7.2 
z
" style="fill: #ffffff"/>
   </g>
   <g id="FillBetweenPolyCollection_1">
    <defs>
     <path id="m064d97a399" d="M 328.747244 -289.480617 
L 328.747244 -213.464312 
L 334.071862 -215.226893 
L 339.396481 -216.783133 
L 344.721099 -218.20841 
L 350.045718 -219.515889 
L 355.370336 -220.654394 
L 360.694955 -221.683582 
L 366.019573 -222.572224 
L 371.344191 -223.429828 
L 376.66881 -224.190692 
L 381.993428 -224.850133 
L 387.318047 -225.388937 
L 392.642665 -225.797919 
L 397.967284 -226.02628 
L 403.291902 -225.955494 
L 408.616521 -225.548055 
L 413.941139 -224.751554 
L 419.265757 -223.647693 
L 424.590376 -222.275564 
L 429.914994 -220.771905 
L 435.239613 -219.242091 
L 440.564231 -217.755345 
L 445.88885 -216.420682 
L 451.213468 -215.235865 
L 456.538087 -214.199102 
L 461.862705 -213.271931 
L 467.187324 -212.402462 
L 472.511942 -211.564006 
L 477.83656 -210.728648 
L 483.161179 -209.858043 
L 488.485797 -208.894292 
L 493.810416 -207.765819 
L 499.135034 -206.360074 
L 504.459653 -204.645428 
L 509.784271 -202.545613 
L 515.10889 -200.045342 
L 520.433508 -197.094989 
L 525.758126 -193.63924 
L 531.082745 -189.617024 
L 531.082745 -240.7997 
L 531.082745 -240.7997 
L 525.758126 -245.73001 
L 520.433508 -250.038993 
L 515.10889 -253.793893 
L 509.784271 -257.056293 
L 504.459653 -259.882076 
L 499.135034 -262.29123 
L 493.810416 -264.375231 
L 488.485797 -266.179193 
L 483.161179 -267.840099 
L 477.83656 -269.447235 
L 472.511942 -271.071831 
L 467.187324 -272.762862 
L 461.862705 -274.559435 
L 456.538087 -276.500065 
L 451.213468 -278.645738 
L 445.88885 -281.031032 
L 440.564231 -283.636754 
L 435.239613 -286.425871 
L 429.914994 -289.235039 
L 424.590376 -291.933226 
L 419.265757 -294.360902 
L 413.941139 -296.351193 
L 408.616521 -297.858218 
L 403.291902 -298.820803 
L 397.967284 -299.328666 
L 392.642665 -299.457496 
L 387.318047 -299.356713 
L 381.993428 -299.091056 
L 376.66881 -298.677469 
L 371.344191 -298.130586 
L 366.019573 -297.449806 
L 360.694955 -296.704208 
L 355.370336 -295.794697 
L 350.045718 -294.769677 
L 344.721099 -293.578322 
L 339.396481 -292.321529 
L 334.071862 -290.994703 
L 328.747244 -289.480617 
z
"/>
    </defs>
    <g clip-path="url(#pede203953f)">
     <use xlink:href="#m064d97a399" x="0" y="312.14952" style="fill: #d62728; fill-opacity: 0.3"/>
    </g>
   </g>
   <g id="PathCollection_1">
    <defs>
     <path id="C0_0_f6a82f25c2" d="M 0 2.738613 
C 0.726289 2.738613 1.422928 2.450055 1.936492 1.936492 
C 2.450055 1.422928 2.738613 0.726289 2.738613 -0 
C 2.738613 -0.726289 2.450055 -1.422928 1.936492 -1.936492 
C 1.422928 -2.450055 0.726289 -2.738613 0 -2.738613 
C -0.726289 -2.738613 -1.422928 -2.450055 -1.936492 -1.936492 
C -2.450055 -1.422928 -2.738613 -0.726289 -2.738613 0 
C -2.738613 0.726289 -2.450055 1.422928 -1.936492 1.936492 
C -1.422928 2.450055 -0.726289 2.738613 0 2.738613 
z
"/>
    </defs>
    <g clip-path="url(#pede203953f)">
     <use xlink:href="#C0_0_f6a82f25c2" x="397.967284" y="49.472047" style="fill: #fefefe"/>
    </g>
    <g clip-path="url(#pede203953f)">
     <use xlink:href="#C0_0_f6a82f25c2" x="403.291902" y="49.761371" style="fill: #fdfdfd"/>
    </g>
    <g clip-path="url(#pede203953f)">
     <use xlink:href="#C0_0_f6a82f25c2" x="408.616521" y="50.446383" style="fill: #fdfdfd"/>
    </g>
    <g clip-path="url(#pede203953f)">
     <use xlink:href="#C0_0_f6a82f25c2" x="413.941139" y="51.598146" style="fill: #fdfdfd"/>
    </g>
    <g clip-path="url(#pede203953f)">
     <use xlink:href="#C0_0_f6a82f25c2" x="419.265757" y="53.145222" style="fill: #fdfdfd"/>
    </g>
    <g clip-path="url(#pede203953f)">
     <use xlink:href="#C0_0_f6a82f25c2" x="424.590376" y="55.045125" style="fill: #fcfcfc"/>
    </g>
    <g clip-path="url(#pede203953f)">
     <use xlink:href="#C0_0_f6a82f25c2" x="429.914994" y="57.146048" style="fill: #fbfbfb"/>
    </g>
    <g clip-path="url(#pede203953f)">
     <use xlink:href="#C0_0_f6a82f25c2" x="435.239613" y="59.315539" style="fill: #f7f7f7"/>
    </g>
    <g clip-path="url(#pede203953f)">
     <use xlink:href="#C0_0_f6a82f25c2" x="440.564231" y="61.45347" style="fill: #f1f1f1"/>
    </g>
    <g clip-path="url(#pede203953f)">
     <use xlink:href="#C0_0_f6a82f25c2" x="445.88885" y="63.423663" style="fill: #dcdcdc"/>
    </g>
    <g clip-path="url(#pede203953f)">
     <use xlink:href="#C0_0_f6a82f25c2" x="451.213468" y="65.208718" style="fill: #a3a3a3"/>
    </g>
    <g clip-path="url(#pede203953f)">
     <use xlink:href="#C0_0_f6a82f25c2" x="456.538087" y="66.799937" style="fill: #434343"/>
    </g>
    <g clip-path="url(#pede203953f)">
     <use xlink:href="#C0_0_f6a82f25c2" x="461.862705" y="68.233837"/>
    </g>
    <g clip-path="url(#pede203953f)">
     <use xlink:href="#C0_0_f6a82f25c2" x="467.187324" y="69.566858" style="fill: #323232"/>
    </g>
    <g clip-path="url(#pede203953f)">
     <use xlink:href="#C0_0_f6a82f25c2" x="472.511942" y="70.831602" style="fill: #afafaf"/>
    </g>
    <g clip-path="url(#pede203953f)">
     <use xlink:href="#C0_0_f6a82f25c2" x="477.83656" y="72.061579" style="fill: #f2f2f2"/>
    </g>
    <g clip-path="url(#pede203953f)">
     <use xlink:href="#C0_0_f6a82f25c2" x="483.161179" y="73.300449" style="fill: #fefefe"/>
    </g>
   </g>
   <g id="matplotlib.axis_3">
    <g id="xtick_10">
     <g id="line2d_16">
      <g>
       <use xlink:href="#m0f6bc35365" x="487.529749" y="128.02452" style="stroke: #000000; stroke-width: 0.8"/>
      </g>
     </g>
     <g id="text_8">
      <!-- $\mathdefault{10^{0}}$ -->
      <g transform="translate(479.229749 142.42452) scale(0.1 -0.1)">
       <use xlink:href="#IBMPlexSans-31" transform="translate(0 0.184375)"/>
       <use xlink:href="#IBMPlexSans-30" transform="translate(59.999985 0.184375)"/>
       <use xlink:href="#IBMPlexSans-30" transform="translate(120.90286 36.3) scale(0.7)"/>
      </g>
     </g>
    </g>
    <g id="xtick_11">
     <g id="line2d_17">
      <g>
       <use xlink:href="#mff76f9e7fa" x="350.415464" y="128.02452" style="stroke: #000000; stroke-width: 0.6"/>
      </g>
     </g>
    </g>
    <g id="xtick_12">
     <g id="line2d_18">
      <g>
       <use xlink:href="#mff76f9e7fa" x="384.958616" y="128.02452" style="stroke: #000000; stroke-width: 0.6"/>
      </g>
     </g>
    </g>
    <g id="xtick_13">
     <g id="line2d_19">
      <g>
       <use xlink:href="#mff76f9e7fa" x="409.467373" y="128.02452" style="stroke: #000000; stroke-width: 0.6"/>
      </g>
     </g>
    </g>
    <g id="xtick_14">
     <g id="line2d_20">
      <g>
       <use xlink:href="#mff76f9e7fa" x="428.477841" y="128.02452" style="stroke: #000000; stroke-width: 0.6"/>
      </g>
     </g>
    </g>
    <g id="xtick_15">
     <g id="line2d_21">
      <g>
       <use xlink:href="#mff76f9e7fa" x="444.010525" y="128.02452" style="stroke: #000000; stroke-width: 0.6"/>
      </g>
     </g>
    </g>
    <g id="xtick_16">
     <g id="line2d_22">
      <g>
       <use xlink:href="#mff76f9e7fa" x="457.143221" y="128.02452" style="stroke: #000000; stroke-width: 0.6"/>
      </g>
     </g>
    </g>
    <g id="xtick_17">
     <g id="line2d_23">
      <g>
       <use xlink:href="#mff76f9e7fa" x="468.519281" y="128.02452" style="stroke: #000000; stroke-width: 0.6"/>
      </g>
     </g>
    </g>
    <g id="xtick_18">
     <g id="line2d_24">
      <g>
       <use xlink:href="#mff76f9e7fa" x="478.553676" y="128.02452" style="stroke: #000000; stroke-width: 0.6"/>
      </g>
     </g>
    </g>
   </g>
   <g id="matplotlib.axis_4">
    <g id="ytick_6">
     <g id="line2d_25">
      <g>
       <use xlink:href="#m9856378a28" x="318.630469" y="98.144714" style="stroke: #000000; stroke-width: 0.8"/>
      </g>
     </g>
     <g id="text_9">
      <!-- 1.15 -->
      <g transform="translate(290.910156 101.844714) scale(0.1 -0.1)">
       <use xlink:href="#IBMPlexSans-31"/>
       <use xlink:href="#IBMPlexSans-2e" transform="translate(59.999985 0)"/>
       <use xlink:href="#IBMPlexSans-31" transform="translate(87.199982 0)"/>
       <use xlink:href="#IBMPlexSans-35" transform="translate(147.199966 0)"/>
      </g>
     </g>
    </g>
    <g id="ytick_7">
     <g id="line2d_26">
      <g>
       <use xlink:href="#m9856378a28" x="318.630469" y="59.589588" style="stroke: #000000; stroke-width: 0.8"/>
      </g>
     </g>
     <g id="text_10">
      <!-- 1.20 -->
      <g transform="translate(290.910156 63.289588) scale(0.1 -0.1)">
       <use xlink:href="#IBMPlexSans-31"/>
       <use xlink:href="#IBMPlexSans-2e" transform="translate(59.999985 0)"/>
       <use xlink:href="#IBMPlexSans-32" transform="translate(87.199982 0)"/>
       <use xlink:href="#IBMPlexSans-30" transform="translate(147.199966 0)"/>
      </g>
     </g>
    </g>
    <g id="ytick_8">
     <g id="line2d_27">
      <g>
       <use xlink:href="#m9856378a28" x="318.630469" y="21.034462" style="stroke: #000000; stroke-width: 0.8"/>
      </g>
     </g>
     <g id="text_11">
      <!-- 1.25 -->
      <g transform="translate(290.910156 24.734462) scale(0.1 -0.1)">
       <use xlink:href="#IBMPlexSans-31"/>
       <use xlink:href="#IBMPlexSans-2e" transform="translate(59.999985 0)"/>
       <use xlink:href="#IBMPlexSans-32" transform="translate(87.199982 0)"/>
       <use xlink:href="#IBMPlexSans-35" transform="translate(147.199966 0)"/>
      </g>
     </g>
    </g>
    <g id="text_12">
     <!-- $η_b$ (95% CI) [η*] -->
     <g transform="translate(284.810156 104.06226) rotate(-90) scale(0.1 -0.1)">
      <defs>
       <path id="DejaVuSans-Oblique-3b7" d="M 3703 2113 
L 3034 -1331 
L 2459 -1331 
L 3125 2094 
Q 3222 2591 3075 2838 
Q 2931 3084 2544 3084 
Q 2078 3084 1750 2788 
Q 1425 2491 1325 1978 
L 941 0 
L 363 0 
L 1044 3500 
L 1622 3500 
L 1516 2956 
Q 1781 3272 2094 3428 
Q 2403 3584 2769 3584 
Q 3372 3584 3609 3213 
Q 3844 2838 3703 2113 
z
" transform="scale(0.015625)"/>
       <path id="DejaVuSans-Oblique-62" d="M 3169 2138 
Q 3169 2591 2961 2847 
Q 2753 3103 2388 3103 
Q 2122 3103 1889 2973 
Q 1656 2844 1484 2597 
Q 1303 2338 1198 1995 
Q 1094 1653 1094 1313 
Q 1094 881 1298 636 
Q 1503 391 1863 391 
Q 2134 391 2365 517 
Q 2597 644 2772 891 
Q 2950 1147 3059 1487 
Q 3169 1828 3169 2138 
z
M 1381 2969 
Q 1594 3256 1914 3420 
Q 2234 3584 2584 3584 
Q 3122 3584 3439 3221 
Q 3756 2859 3756 2241 
Q 3756 1734 3570 1259 
Q 3384 784 3041 416 
Q 2816 172 2522 40 
Q 2228 -91 1906 -91 
Q 1566 -91 1316 65 
Q 1066 222 909 531 
L 806 0 
L 231 0 
L 1178 4863 
L 1753 4863 
L 1381 2969 
z
" transform="scale(0.015625)"/>
       <path id="IBMPlexSans-39" d="M 3411 2829 
C 3411 3891 2842 4544 1914 4544 
C 1018 4544 429 3942 429 3066 
C 429 2221 979 1690 1747 1690 
C 2291 1690 2611 1965 2822 2330 
L 2854 2317 
C 2611 1280 2080 698 1126 0 
L 1818 0 
C 2534 467 3411 1504 3411 2829 
z
M 1920 2144 
C 1331 2144 986 2483 986 3085 
L 986 3136 
C 986 3738 1331 4077 1920 4077 
C 2509 4077 2854 3738 2854 3136 
L 2854 3085 
C 2854 2483 2509 2144 1920 2144 
z
" transform="scale(0.015625)"/>
       <path id="IBMPlexSans-43" d="M 2170 -77 
C 2912 -77 3456 314 3738 941 
L 3309 1210 
C 3130 723 2739 403 2170 403 
C 1402 403 947 960 947 1875 
L 947 2541 
C 947 3456 1402 4064 2170 4064 
C 2720 4064 3091 3763 3270 3302 
L 3706 3565 
C 3424 4186 2912 4544 2170 4544 
C 1043 4544 371 3699 371 2208 
C 371 717 1043 -77 2170 -77 
z
" transform="scale(0.015625)"/>
       <path id="IBMPlexSans-49" d="M 2176 0 
L 2176 448 
L 1549 448 
L 1549 4019 
L 2176 4019 
L 2176 4467 
L 384 4467 
L 384 4019 
L 1011 4019 
L 1011 448 
L 384 448 
L 384 0 
L 2176 0 
z
" transform="scale(0.015625)"/>
       <path id="IBMPlexSans-5b" d="M 1645 -883 
L 1645 -480 
L 1037 -480 
L 1037 4461 
L 1645 4461 
L 1645 4864 
L 595 4864 
L 595 -883 
L 1645 -883 
z
" transform="scale(0.015625)"/>
       <path id="IBMPlexSans-3b7" d="M 1088 0 
L 1088 2291 
C 1088 2714 1485 2918 1894 2918 
C 2387 2918 2643 2618 2643 2029 
L 2643 -1280 
L 3155 -1280 
L 3155 2118 
C 3155 2918 2726 3379 2048 3379 
C 1555 3379 1274 3136 1114 2765 
L 1088 2765 
C 1088 3078 896 3302 544 3302 
L 198 3302 
L 198 2854 
L 576 2854 
L 576 0 
L 1088 0 
z
" transform="scale(0.015625)"/>
       <path id="IBMPlexSans-2a" d="M 1440 3270 
L 1965 2483 
L 2323 2746 
L 1741 3488 
L 2650 3738 
L 2509 4166 
L 1626 3840 
L 1664 4781 
L 1216 4781 
L 1254 3840 
L 371 4166 
L 230 3738 
L 1139 3488 
L 557 2746 
L 915 2483 
L 1440 3270 
z
" transform="scale(0.015625)"/>
       <path id="IBMPlexSans-5d" d="M 384 4864 
L 384 4461 
L 992 4461 
L 992 -480 
L 384 -480 
L 384 -883 
L 1434 -883 
L 1434 4864 
L 384 4864 
z
" transform="scale(0.015625)"/>
      </defs>
      <use xlink:href="#DejaVuSans-Oblique-3b7"/>
      <use xlink:href="#DejaVuSans-Oblique-62" transform="translate(63.378906 -16.40625) scale(0.7)"/>
      <use xlink:href="#IBMPlexSans-20" transform="translate(110.546875 0)"/>
      <use xlink:href="#IBMPlexSans-28" transform="translate(134.146866 0)"/>
      <use xlink:href="#IBMPlexSans-39" transform="translate(167.646851 0)"/>
      <use xlink:href="#IBMPlexSans-35" transform="translate(227.646835 0)"/>
      <use xlink:href="#IBMPlexSans-25" transform="translate(287.64682 0)"/>
      <use xlink:href="#IBMPlexSans-20" transform="translate(380.346802 0)"/>
      <use xlink:href="#IBMPlexSans-43" transform="translate(403.946793 0)"/>
      <use xlink:href="#IBMPlexSans-49" transform="translate(466.046783 0)"/>
      <use xlink:href="#IBMPlexSans-29" transform="translate(506.046768 0)"/>
      <use xlink:href="#IBMPlexSans-20" transform="translate(539.546753 0)"/>
      <use xlink:href="#IBMPlexSans-5b" transform="translate(563.146744 0)"/>
      <use xlink:href="#IBMPlexSans-3b7" transform="translate(594.846741 0)"/>
      <use xlink:href="#IBMPlexSans-2a" transform="translate(652.146729 0)"/>
      <use xlink:href="#IBMPlexSans-5d" transform="translate(697.146713 0)"/>
     </g>
    </g>
   </g>
   <g id="line2d_28">
    <path d="M 328.747244 60.677055 
L 334.071862 59.038722 
L 339.396481 57.597189 
L 344.721099 56.256154 
L 350.045718 55.006737 
L 355.370336 53.924974 
L 360.694955 52.955625 
L 366.019573 52.138505 
L 371.344191 51.369313 
L 376.66881 50.715439 
L 381.993428 50.178926 
L 387.318047 49.776695 
L 392.642665 49.521812 
L 397.967284 49.472047 
L 403.291902 49.761371 
L 408.616521 50.446383 
L 413.941139 51.598146 
L 419.265757 53.145222 
L 424.590376 55.045125 
L 429.914994 57.146048 
L 435.239613 59.315539 
L 440.564231 61.45347 
L 445.88885 63.423663 
L 451.213468 65.208718 
L 456.538087 66.799937 
L 461.862705 68.233837 
L 467.187324 69.566858 
L 472.511942 70.831602 
L 477.83656 72.061579 
L 483.161179 73.300449 
L 488.485797 74.612778 
L 493.810416 76.078995 
L 499.135034 77.823868 
L 504.459653 79.885768 
L 509.784271 82.348567 
L 515.10889 85.229903 
L 520.433508 88.582529 
L 525.758126 92.464895 
L 531.082745 96.941158 
" clip-path="url(#pede203953f)" style="fill: none; stroke: #d62728; stroke-width: 1.5; stroke-linecap: square"/>
   </g>
   <g id="patch_6">
    <path d="M 318.630469 128.02452 
L 318.630469 7.2 
" style="fill: none; stroke: #000000; stroke-width: 0.8; stroke-linejoin: miter; stroke-linecap: square"/>
   </g>
   <g id="patch_7">
    <path d="M 318.630469 128.02452 
L 541.19952 128.02452 
" style="fill: none; stroke: #000000; stroke-width: 0.8; stroke-linejoin: miter; stroke-linecap: square"/>
   </g>
  </g>
  <g id="axes_3">
   <g id="patch_8">
    <path d="M 48.640625 274.94952 
L 271.209676 274.94952 
L 271.209676 154.125 
L 48.640625 154.125 
z
" style="fill: #ffffff"/>
   </g>
   <g id="matplotlib.axis_5">
    <g id="xtick_19">
     <g id="line2d_29">
      <g>
       <use xlink:href="#m0f6bc35365" x="217.539905" y="274.94952" style="stroke: #000000; stroke-width: 0.8"/>
      </g>
     </g>
     <g id="text_13">
      <!-- $\mathdefault{10^{0}}$ -->
      <g transform="translate(209.239905 289.34952) scale(0.1 -0.1)">
       <use xlink:href="#IBMPlexSans-31" transform="translate(0 0.184375)"/>
       <use xlink:href="#IBMPlexSans-30" transform="translate(59.999985 0.184375)"/>
       <use xlink:href="#IBMPlexSans-30" transform="translate(120.90286 36.3) scale(0.7)"/>
      </g>
     </g>
    </g>
    <g id="xtick_20">
     <g id="line2d_30">
      <g>
       <use xlink:href="#mff76f9e7fa" x="80.425621" y="274.94952" style="stroke: #000000; stroke-width: 0.6"/>
      </g>
     </g>
    </g>
    <g id="xtick_21">
     <g id="line2d_31">
      <g>
       <use xlink:href="#mff76f9e7fa" x="114.968773" y="274.94952" style="stroke: #000000; stroke-width: 0.6"/>
      </g>
     </g>
    </g>
    <g id="xtick_22">
     <g id="line2d_32">
      <g>
       <use xlink:href="#mff76f9e7fa" x="139.477529" y="274.94952" style="stroke: #000000; stroke-width: 0.6"/>
      </g>
     </g>
    </g>
    <g id="xtick_23">
     <g id="line2d_33">
      <g>
       <use xlink:href="#mff76f9e7fa" x="158.487997" y="274.94952" style="stroke: #000000; stroke-width: 0.6"/>
      </g>
     </g>
    </g>
    <g id="xtick_24">
     <g id="line2d_34">
      <g>
       <use xlink:href="#mff76f9e7fa" x="174.020681" y="274.94952" style="stroke: #000000; stroke-width: 0.6"/>
      </g>
     </g>
    </g>
    <g id="xtick_25">
     <g id="line2d_35">
      <g>
       <use xlink:href="#mff76f9e7fa" x="187.153378" y="274.94952" style="stroke: #000000; stroke-width: 0.6"/>
      </g>
     </g>
    </g>
    <g id="xtick_26">
     <g id="line2d_36">
      <g>
       <use xlink:href="#mff76f9e7fa" x="198.529437" y="274.94952" style="stroke: #000000; stroke-width: 0.6"/>
      </g>
     </g>
    </g>
    <g id="xtick_27">
     <g id="line2d_37">
      <g>
       <use xlink:href="#mff76f9e7fa" x="208.563833" y="274.94952" style="stroke: #000000; stroke-width: 0.6"/>
      </g>
     </g>
    </g>
    <g id="text_14">
     <!-- Cutoff frequency [1/τ*] -->
     <g transform="translate(108.569682 302.94952) scale(0.1 -0.1)">
      <defs>
       <path id="IBMPlexSans-75" d="M 2579 0 
L 3091 0 
L 3091 3302 
L 2579 3302 
L 2579 1018 
C 2579 582 2182 384 1779 384 
C 1286 384 1024 685 1024 1274 
L 1024 3302 
L 512 3302 
L 512 1184 
C 512 384 947 -77 1626 -77 
C 2176 -77 2426 224 2554 538 
L 2579 538 
L 2579 0 
z
" transform="scale(0.015625)"/>
       <path id="IBMPlexSans-6f" d="M 1792 -77 
C 2675 -77 3283 602 3283 1651 
C 3283 2701 2675 3379 1792 3379 
C 909 3379 301 2701 301 1651 
C 301 602 909 -77 1792 -77 
z
M 1792 378 
C 1242 378 851 717 851 1414 
L 851 1888 
C 851 2586 1242 2925 1792 2925 
C 2342 2925 2733 2586 2733 1888 
L 2733 1414 
C 2733 717 2342 378 1792 378 
z
" transform="scale(0.015625)"/>
       <path id="IBMPlexSans-66" d="M 723 0 
L 1235 0 
L 1235 2854 
L 1946 2854 
L 1946 3302 
L 1235 3302 
L 1235 4288 
L 1946 4288 
L 1946 4736 
L 1446 4736 
C 960 4736 723 4422 723 3968 
L 723 3302 
L 186 3302 
L 186 2854 
L 723 2854 
L 723 0 
z
" transform="scale(0.015625)"/>
       <path id="IBMPlexSans-72" d="M 1056 0 
L 1056 2240 
C 1056 2554 1389 2790 1939 2790 
L 2240 2790 
L 2240 3302 
L 2042 3302 
C 1504 3302 1203 3008 1088 2694 
L 1056 2694 
L 1056 3302 
L 544 3302 
L 544 0 
L 1056 0 
z
" transform="scale(0.015625)"/>
       <path id="IBMPlexSans-71" d="M 2656 -1280 
L 3168 -1280 
L 3168 3302 
L 2656 3302 
L 2656 2765 
L 2630 2765 
C 2458 3181 2118 3379 1664 3379 
C 838 3379 320 2707 320 1651 
C 320 595 838 -77 1664 -77 
C 2118 -77 2432 128 2630 538 
L 2656 538 
L 2656 -1280 
z
M 1805 384 
C 1229 384 870 781 870 1370 
L 870 1933 
C 870 2522 1229 2918 1805 2918 
C 2272 2918 2656 2650 2656 2285 
L 2656 1056 
C 2656 627 2272 384 1805 384 
z
" transform="scale(0.015625)"/>
       <path id="IBMPlexSans-6e" d="M 1056 0 
L 1056 2291 
C 1056 2714 1453 2918 1862 2918 
C 2355 2918 2611 2618 2611 2029 
L 2611 0 
L 3123 0 
L 3123 2118 
C 3123 2918 2694 3379 2016 3379 
C 1523 3379 1242 3136 1082 2765 
L 1056 2765 
L 1056 3302 
L 544 3302 
L 544 0 
L 1056 0 
z
" transform="scale(0.015625)"/>
       <path id="IBMPlexSans-79" d="M 1779 1056 
L 1600 518 
L 1568 518 
L 1414 1056 
L 621 3302 
L 109 3302 
L 1344 -128 
L 1094 -832 
L 576 -832 
L 576 -1280 
L 838 -1280 
C 1325 -1280 1459 -1165 1606 -768 
L 3085 3302 
L 2579 3302 
L 1779 1056 
z
" transform="scale(0.015625)"/>
       <path id="IBMPlexSans-2f" d="M 518 -966 
L 2189 4736 
L 1728 4736 
L 58 -966 
L 518 -966 
z
" transform="scale(0.015625)"/>
       <path id="IBMPlexSans-3c4" d="M 2451 0 
L 2451 448 
L 1715 448 
L 1715 2854 
L 2848 2854 
L 2848 3302 
L 128 3302 
L 128 2854 
L 1203 2854 
L 1203 544 
C 1203 224 1395 0 1747 0 
L 2451 0 
z
" transform="scale(0.015625)"/>
      </defs>
      <use xlink:href="#IBMPlexSans-43"/>
      <use xlink:href="#IBMPlexSans-75" transform="translate(62.099991 0)"/>
      <use xlink:href="#IBMPlexSans-74" transform="translate(118.899979 0)"/>
      <use xlink:href="#IBMPlexSans-6f" transform="translate(153.999969 0)"/>
      <use xlink:href="#IBMPlexSans-66" transform="translate(209.999954 0)"/>
      <use xlink:href="#IBMPlexSans-66" transform="translate(242.399948 0)"/>
      <use xlink:href="#IBMPlexSans-20" transform="translate(274.799942 0)"/>
      <use xlink:href="#IBMPlexSans-66" transform="translate(298.399933 0)"/>
      <use xlink:href="#IBMPlexSans-72" transform="translate(330.799927 0)"/>
      <use xlink:href="#IBMPlexSans-65" transform="translate(367.499924 0)"/>
      <use xlink:href="#IBMPlexSans-71" transform="translate(422.399918 0)"/>
      <use xlink:href="#IBMPlexSans-75" transform="translate(480.399902 0)"/>
      <use xlink:href="#IBMPlexSans-65" transform="translate(537.19989 0)"/>
      <use xlink:href="#IBMPlexSans-6e" transform="translate(592.099884 0)"/>
      <use xlink:href="#IBMPlexSans-63" transform="translate(648.899872 0)"/>
      <use xlink:href="#IBMPlexSans-79" transform="translate(699.19986 0)"/>
      <use xlink:href="#IBMPlexSans-20" transform="translate(749.099854 0)"/>
      <use xlink:href="#IBMPlexSans-5b" transform="translate(772.699844 0)"/>
      <use xlink:href="#IBMPlexSans-31" transform="translate(804.399841 0)"/>
      <use xlink:href="#IBMPlexSans-2f" transform="translate(864.399826 0)"/>
      <use xlink:href="#IBMPlexSans-3c4" transform="translate(902.699814 0)"/>
      <use xlink:href="#IBMPlexSans-2a" transform="translate(950.399811 0)"/>
      <use xlink:href="#IBMPlexSans-5d" transform="translate(995.399796 0)"/>
     </g>
    </g>
   </g>
   <g id="matplotlib.axis_6">
    <g id="ytick_9">
     <g id="line2d_38">
      <g>
       <use xlink:href="#m9856378a28" x="48.640625" y="270.302423" style="stroke: #000000; stroke-width: 0.8"/>
      </g>
     </g>
     <g id="text_15">
      <!-- −1 -->
      <g transform="translate(29.640625 274.002423) scale(0.1 -0.1)">
       <defs>
        <path id="IBMPlexSans-2212" d="M 3411 1734 
L 3411 2170 
L 429 2170 
L 429 1734 
L 3411 1734 
z
" transform="scale(0.015625)"/>
       </defs>
       <use xlink:href="#IBMPlexSans-2212"/>
       <use xlink:href="#IBMPlexSans-31" transform="translate(59.999985 0)"/>
      </g>
     </g>
    </g>
    <g id="ytick_10">
     <g id="line2d_39">
      <g>
       <use xlink:href="#m9856378a28" x="48.640625" y="247.066938" style="stroke: #000000; stroke-width: 0.8"/>
      </g>
     </g>
     <g id="text_16">
      <!-- 0 -->
      <g transform="translate(35.640625 250.766938) scale(0.1 -0.1)">
       <use xlink:href="#IBMPlexSans-30"/>
      </g>
     </g>
    </g>
    <g id="ytick_11">
     <g id="line2d_40">
      <g>
       <use xlink:href="#m9856378a28" x="48.640625" y="223.831454" style="stroke: #000000; stroke-width: 0.8"/>
      </g>
     </g>
     <g id="text_17">
      <!-- 1 -->
      <g transform="translate(35.640625 227.531454) scale(0.1 -0.1)">
       <use xlink:href="#IBMPlexSans-31"/>
      </g>
     </g>
    </g>
    <g id="ytick_12">
     <g id="line2d_41">
      <g>
       <use xlink:href="#m9856378a28" x="48.640625" y="200.595969" style="stroke: #000000; stroke-width: 0.8"/>
      </g>
     </g>
     <g id="text_18">
      <!-- 2 -->
      <g transform="translate(35.640625 204.295969) scale(0.1 -0.1)">
       <use xlink:href="#IBMPlexSans-32"/>
      </g>
     </g>
    </g>
    <g id="ytick_13">
     <g id="line2d_42">
      <g>
       <use xlink:href="#m9856378a28" x="48.640625" y="177.360485" style="stroke: #000000; stroke-width: 0.8"/>
      </g>
     </g>
     <g id="text_19">
      <!-- 3 -->
      <g transform="translate(35.640625 181.060485) scale(0.1 -0.1)">
       <defs>
        <path id="IBMPlexSans-33" d="M 1184 2573 
L 1184 2106 
L 1709 2106 
C 2336 2106 2669 1805 2669 1280 
L 2669 1229 
C 2669 704 2336 403 1709 403 
C 1165 403 902 640 672 992 
L 269 685 
C 544 301 941 -77 1715 -77 
C 2624 -77 3232 454 3232 1222 
C 3232 1894 2771 2253 2291 2349 
L 2291 2374 
C 2765 2496 3149 2842 3149 3418 
C 3149 4141 2547 4544 1792 4544 
C 1075 4544 685 4173 461 3814 
L 858 3507 
C 1043 3846 1318 4064 1779 4064 
C 2253 4064 2579 3827 2579 3360 
L 2579 3315 
C 2579 2886 2272 2573 1670 2573 
L 1184 2573 
z
" transform="scale(0.015625)"/>
       </defs>
       <use xlink:href="#IBMPlexSans-33"/>
      </g>
     </g>
    </g>
    <g id="ytick_14">
     <g id="line2d_43">
      <g>
       <use xlink:href="#m9856378a28" x="48.640625" y="154.125" style="stroke: #000000; stroke-width: 0.8"/>
      </g>
     </g>
     <g id="text_20">
      <!-- 4 -->
      <g transform="translate(35.640625 157.825) scale(0.1 -0.1)">
       <defs>
        <path id="IBMPlexSans-34" d="M 2912 0 
L 2912 877 
L 3558 877 
L 3558 1325 
L 2912 1325 
L 2912 4467 
L 2112 4467 
L 243 1350 
L 243 877 
L 2400 877 
L 2400 0 
L 2912 0 
z
M 2368 4051 
L 2400 4051 
L 2400 1325 
L 749 1325 
L 2368 4051 
z
" transform="scale(0.015625)"/>
       </defs>
       <use xlink:href="#IBMPlexSans-34"/>
      </g>
     </g>
    </g>
    <g id="text_21">
     <!-- Z-score -->
     <g transform="translate(23.640625 231.763041) rotate(-90) scale(0.1 -0.1)">
      <defs>
       <path id="IBMPlexSans-5a" d="M 3482 474 
L 806 474 
L 3392 3981 
L 3392 4467 
L 365 4467 
L 365 3994 
L 2810 3994 
L 230 486 
L 230 0 
L 3482 0 
L 3482 474 
z
" transform="scale(0.015625)"/>
       <path id="IBMPlexSans-2d" d="M 2112 1670 
L 2112 2221 
L 442 2221 
L 442 1670 
L 2112 1670 
z
" transform="scale(0.015625)"/>
       <path id="IBMPlexSans-73" d="M 1536 -77 
C 2291 -77 2758 314 2758 954 
C 2758 1453 2477 1773 1747 1882 
L 1491 1920 
C 1082 1984 858 2112 858 2432 
C 858 2746 1082 2944 1504 2944 
C 1926 2944 2208 2746 2355 2541 
L 2694 2848 
C 2426 3181 2074 3379 1542 3379 
C 870 3379 365 3059 365 2406 
C 365 1792 819 1542 1427 1453 
L 1690 1414 
C 2125 1350 2266 1152 2266 896 
C 2266 557 2010 358 1574 358 
C 1158 358 851 544 595 864 
L 230 570 
C 525 179 928 -77 1536 -77 
z
" transform="scale(0.015625)"/>
      </defs>
      <use xlink:href="#IBMPlexSans-5a"/>
      <use xlink:href="#IBMPlexSans-2d" transform="translate(57.999985 0)"/>
      <use xlink:href="#IBMPlexSans-73" transform="translate(97.899979 0)"/>
      <use xlink:href="#IBMPlexSans-63" transform="translate(146.599976 0)"/>
      <use xlink:href="#IBMPlexSans-6f" transform="translate(196.899963 0)"/>
      <use xlink:href="#IBMPlexSans-72" transform="translate(252.899948 0)"/>
      <use xlink:href="#IBMPlexSans-65" transform="translate(289.599945 0)"/>
     </g>
    </g>
   </g>
   <g id="line2d_44">
    <path d="M 58.7574 250.159495 
L 64.082019 252.42422 
L 69.406637 254.49499 
L 74.731255 256.190467 
L 80.055874 257.501072 
L 85.380492 258.573915 
L 90.705111 259.468577 
L 96.029729 260.221019 
L 101.354348 260.757992 
L 106.678966 260.973285 
L 112.003585 260.821453 
L 117.328203 260.172924 
L 122.652821 259.031919 
L 127.97744 257.455648 
L 133.302058 255.540595 
L 138.626677 253.553099 
L 143.951295 251.746443 
L 149.275914 250.4249 
L 154.600532 249.552214 
L 159.925151 249.012533 
L 165.249769 248.54786 
L 170.574388 247.87727 
L 175.899006 246.912462 
L 181.223624 245.61127 
L 186.548243 244.089189 
L 191.872861 242.503316 
L 197.19748 241.02167 
L 202.522098 239.777057 
L 207.846717 238.770711 
L 213.171335 237.925233 
L 218.495954 237.088768 
L 223.820572 236.104425 
L 229.14519 234.649441 
L 234.469809 232.720245 
L 239.794427 230.01006 
L 245.119046 226.420111 
L 250.443664 221.602721 
L 255.768283 215.17374 
L 261.092901 206.7384 
" clip-path="url(#pca286635b0)" style="fill: none; stroke: #1f77b4; stroke-width: 1.5; stroke-linecap: square"/>
   </g>
   <g id="line2d_45">
    <path d="M 58.7574 184.583177 
L 64.082019 184.023335 
L 69.406637 184.288191 
L 74.731255 185.617814 
L 80.055874 186.686804 
L 85.380492 188.872287 
L 90.705111 191.102513 
L 96.029729 194.57452 
L 101.354348 198.531945 
L 106.678966 202.93475 
L 112.003585 207.502244 
L 117.328203 211.448506 
L 122.652821 213.567836 
L 127.97744 212.584365 
L 133.302058 208.063537 
L 138.626677 200.469147 
L 143.951295 192.174929 
L 149.275914 184.971647 
L 154.600532 180.740961 
L 159.925151 179.282293 
L 165.249769 180.174323 
L 170.574388 183.063501 
L 175.899006 188.048111 
L 181.223624 193.81143 
L 186.548243 197.482152 
L 191.872861 196.094772 
L 197.19748 187.572248 
L 202.522098 169.959853 
L 207.846717 140.200869 
L 213.171335 95.153593 
L 218.495954 31.87632 
L 220.562812 -1 
" clip-path="url(#pca286635b0)" style="fill: none; stroke: #2ca02c; stroke-width: 1.5; stroke-linecap: square"/>
   </g>
   <g id="line2d_46">
    <path d="M 48.640625 247.066938 
L 271.209676 247.066938 
" clip-path="url(#pca286635b0)" style="fill: none; stroke-dasharray: 5.55,2.4; stroke-dashoffset: 0; stroke: #000000; stroke-width: 1.5"/>
   </g>
   <g id="line2d_47">
    <path d="M 48.640625 200.595969 
L 271.209676 200.595969 
" clip-path="url(#pca286635b0)" style="fill: none; stroke-dasharray: 5.55,2.4; stroke-dashoffset: 0; stroke: #000000; stroke-width: 1.5"/>
   </g>
   <g id="patch_9">
    <path d="M 48.640625 274.94952 
L 48.640625 154.125 
" style="fill: none; stroke: #000000; stroke-width: 0.8; stroke-linejoin: miter; stroke-linecap: square"/>
   </g>
   <g id="patch_10">
    <path d="M 48.640625 274.94952 
L 271.209676 274.94952 
" style="fill: none; stroke: #000000; stroke-width: 0.8; stroke-linejoin: miter; stroke-linecap: square"/>
   </g>
   <g id="legend_1">
    <g id="patch_11">
     <path d="M 193.379989 190.925 
L 264.209676 190.925 
Q 266.209676 190.925 266.209676 188.925 
L 266.209676 161.125 
Q 266.209676 159.125 264.209676 159.125 
L 193.379989 159.125 
Q 191.379989 159.125 191.379989 161.125 
L 191.379989 188.925 
Q 191.379989 190.925 193.379989 190.925 
z
" style="fill: #ffffff; opacity: 0.8; stroke: #cccccc; stroke-linejoin: miter"/>
    </g>
    <g id="line2d_48">
     <path d="M 195.379989 167.025 
L 205.379989 167.025 
L 215.379989 167.025 
" style="fill: none; stroke: #1f77b4; stroke-width: 1.5; stroke-linecap: square"/>
    </g>
    <g id="text_22">
     <!-- Cost -->
     <g transform="translate(223.379989 170.525) scale(0.1 -0.1)">
      <use xlink:href="#IBMPlexSans-43"/>
      <use xlink:href="#IBMPlexSans-6f" transform="translate(62.099991 0)"/>
      <use xlink:href="#IBMPlexSans-73" transform="translate(118.099976 0)"/>
      <use xlink:href="#IBMPlexSans-74" transform="translate(166.799973 0)"/>
     </g>
    </g>
    <g id="line2d_49">
     <path d="M 195.379989 181.425 
L 205.379989 181.425 
L 215.379989 181.425 
" style="fill: none; stroke: #2ca02c; stroke-width: 1.5; stroke-linecap: square"/>
    </g>
    <g id="text_23">
     <!-- Criterion -->
     <g transform="translate(223.379989 184.925) scale(0.1 -0.1)">
      <use xlink:href="#IBMPlexSans-43"/>
      <use xlink:href="#IBMPlexSans-72" transform="translate(62.099991 0)"/>
      <use xlink:href="#IBMPlexSans-69" transform="translate(98.799988 0)"/>
      <use xlink:href="#IBMPlexSans-74" transform="translate(123.799973 0)"/>
      <use xlink:href="#IBMPlexSans-65" transform="translate(158.899963 0)"/>
      <use xlink:href="#IBMPlexSans-72" transform="translate(213.799957 0)"/>
      <use xlink:href="#IBMPlexSans-69" transform="translate(250.499954 0)"/>
      <use xlink:href="#IBMPlexSans-6f" transform="translate(275.499939 0)"/>
      <use xlink:href="#IBMPlexSans-6e" transform="translate(331.499924 0)"/>
     </g>
    </g>
   </g>
  </g>
  <g id="axes_4">
   <g id="patch_12">
    <path d="M 318.630469 274.94952 
L 541.19952 274.94952 
L 541.19952 154.125 
L 318.630469 154.125 
z
" style="fill: #ffffff"/>
   </g>
   <g id="PathCollection_2">
    <defs>
     <path id="C1_0_06f03fa88d" d="M 0 2.738613 
C 0.726289 2.738613 1.422928 2.450055 1.936492 1.936492 
C 2.450055 1.422928 2.738613 0.726289 2.738613 -0 
C 2.738613 -0.726289 2.450055 -1.422928 1.936492 -1.936492 
C 1.422928 -2.450055 0.726289 -2.738613 0 -2.738613 
C -0.726289 -2.738613 -1.422928 -2.450055 -1.936492 -1.936492 
C -2.450055 -1.422928 -2.738613 -0.726289 -2.738613 0 
C -2.738613 0.726289 -2.450055 1.422928 -1.936492 1.936492 
C -1.422928 2.450055 -0.726289 2.738613 0 2.738613 
z
"/>
    </defs>
    <g clip-path="url(#p85c54550d2)">
     <use xlink:href="#C1_0_06f03fa88d" x="397.967284" y="266.099968" style="fill: #fefefe"/>
    </g>
    <g clip-path="url(#p85c54550d2)">
     <use xlink:href="#C1_0_06f03fa88d" x="403.291902" y="266.727521" style="fill: #fdfdfd"/>
    </g>
    <g clip-path="url(#p85c54550d2)">
     <use xlink:href="#C1_0_06f03fa88d" x="408.616521" y="267.252785" style="fill: #fdfdfd"/>
    </g>
    <g clip-path="url(#p85c54550d2)">
     <use xlink:href="#C1_0_06f03fa88d" x="413.941139" y="267.636022" style="fill: #fdfdfd"/>
    </g>
    <g clip-path="url(#p85c54550d2)">
     <use xlink:href="#C1_0_06f03fa88d" x="419.265757" y="267.828335" style="fill: #fdfdfd"/>
    </g>
    <g clip-path="url(#p85c54550d2)">
     <use xlink:href="#C1_0_06f03fa88d" x="424.590376" y="267.83015" style="fill: #fcfcfc"/>
    </g>
    <g clip-path="url(#p85c54550d2)">
     <use xlink:href="#C1_0_06f03fa88d" x="429.914994" y="267.648901" style="fill: #fbfbfb"/>
    </g>
    <g clip-path="url(#p85c54550d2)">
     <use xlink:href="#C1_0_06f03fa88d" x="435.239613" y="267.33314" style="fill: #f7f7f7"/>
    </g>
    <g clip-path="url(#p85c54550d2)">
     <use xlink:href="#C1_0_06f03fa88d" x="440.564231" y="266.95107" style="fill: #f1f1f1"/>
    </g>
    <g clip-path="url(#p85c54550d2)">
     <use xlink:href="#C1_0_06f03fa88d" x="445.88885" y="266.553422" style="fill: #dcdcdc"/>
    </g>
    <g clip-path="url(#p85c54550d2)">
     <use xlink:href="#C1_0_06f03fa88d" x="451.213468" y="266.1983" style="fill: #a3a3a3"/>
    </g>
    <g clip-path="url(#p85c54550d2)">
     <use xlink:href="#C1_0_06f03fa88d" x="456.538087" y="265.920116" style="fill: #434343"/>
    </g>
    <g clip-path="url(#p85c54550d2)">
     <use xlink:href="#C1_0_06f03fa88d" x="461.862705" y="265.738474"/>
    </g>
    <g clip-path="url(#p85c54550d2)">
     <use xlink:href="#C1_0_06f03fa88d" x="467.187324" y="265.656794" style="fill: #323232"/>
    </g>
    <g clip-path="url(#p85c54550d2)">
     <use xlink:href="#C1_0_06f03fa88d" x="472.511942" y="265.667783" style="fill: #afafaf"/>
    </g>
    <g clip-path="url(#p85c54550d2)">
     <use xlink:href="#C1_0_06f03fa88d" x="477.83656" y="265.763901" style="fill: #f2f2f2"/>
    </g>
    <g clip-path="url(#p85c54550d2)">
     <use xlink:href="#C1_0_06f03fa88d" x="483.161179" y="265.939746" style="fill: #fefefe"/>
    </g>
   </g>
   <g id="PathCollection_3">
    <defs>
     <path id="C2_0_28b2d3ce05" d="M 0 2.738613 
C 0.726289 2.738613 1.422928 2.450055 1.936492 1.936492 
C 2.450055 1.422928 2.738613 0.726289 2.738613 -0 
C 2.738613 -0.726289 2.450055 -1.422928 1.936492 -1.936492 
C 1.422928 -2.450055 0.726289 -2.738613 0 -2.738613 
C -0.726289 -2.738613 -1.422928 -2.450055 -1.936492 -1.936492 
C -2.450055 -1.422928 -2.738613 -0.726289 -2.738613 0 
C -2.738613 0.726289 -2.450055 1.422928 -1.936492 1.936492 
C -1.422928 2.450055 -0.726289 2.738613 0 2.738613 
z
"/>
    </defs>
    <g clip-path="url(#p85c54550d2)">
     <use xlink:href="#C2_0_28b2d3ce05" x="397.967284" y="188.437338" style="fill: #fefefe"/>
    </g>
    <g clip-path="url(#p85c54550d2)">
     <use xlink:href="#C2_0_28b2d3ce05" x="403.291902" y="188.220245" style="fill: #fdfdfd"/>
    </g>
    <g clip-path="url(#p85c54550d2)">
     <use xlink:href="#C2_0_28b2d3ce05" x="408.616521" y="188.027626" style="fill: #fdfdfd"/>
    </g>
    <g clip-path="url(#p85c54550d2)">
     <use xlink:href="#C2_0_28b2d3ce05" x="413.941139" y="187.869711" style="fill: #fdfdfd"/>
    </g>
    <g clip-path="url(#p85c54550d2)">
     <use xlink:href="#C2_0_28b2d3ce05" x="419.265757" y="187.740683" style="fill: #fdfdfd"/>
    </g>
    <g clip-path="url(#p85c54550d2)">
     <use xlink:href="#C2_0_28b2d3ce05" x="424.590376" y="187.637648" style="fill: #fcfcfc"/>
    </g>
    <g clip-path="url(#p85c54550d2)">
     <use xlink:href="#C2_0_28b2d3ce05" x="429.914994" y="187.545042" style="fill: #fbfbfb"/>
    </g>
    <g clip-path="url(#p85c54550d2)">
     <use xlink:href="#C2_0_28b2d3ce05" x="435.239613" y="187.450039" style="fill: #f7f7f7"/>
    </g>
    <g clip-path="url(#p85c54550d2)">
     <use xlink:href="#C2_0_28b2d3ce05" x="440.564231" y="187.343336" style="fill: #f1f1f1"/>
    </g>
    <g clip-path="url(#p85c54550d2)">
     <use xlink:href="#C2_0_28b2d3ce05" x="445.88885" y="187.21218" style="fill: #dcdcdc"/>
    </g>
    <g clip-path="url(#p85c54550d2)">
     <use xlink:href="#C2_0_28b2d3ce05" x="451.213468" y="187.05518" style="fill: #a3a3a3"/>
    </g>
    <g clip-path="url(#p85c54550d2)">
     <use xlink:href="#C2_0_28b2d3ce05" x="456.538087" y="186.871156" style="fill: #434343"/>
    </g>
    <g clip-path="url(#p85c54550d2)">
     <use xlink:href="#C2_0_28b2d3ce05" x="461.862705" y="186.662899"/>
    </g>
    <g clip-path="url(#p85c54550d2)">
     <use xlink:href="#C2_0_28b2d3ce05" x="467.187324" y="186.435053" style="fill: #323232"/>
    </g>
    <g clip-path="url(#p85c54550d2)">
     <use xlink:href="#C2_0_28b2d3ce05" x="472.511942" y="186.191063" style="fill: #afafaf"/>
    </g>
    <g clip-path="url(#p85c54550d2)">
     <use xlink:href="#C2_0_28b2d3ce05" x="477.83656" y="185.934455" style="fill: #f2f2f2"/>
    </g>
    <g clip-path="url(#p85c54550d2)">
     <use xlink:href="#C2_0_28b2d3ce05" x="483.161179" y="185.668935" style="fill: #fefefe"/>
    </g>
   </g>
   <g id="PathCollection_4">
    <defs>
     <path id="C3_0_c8fc348972" d="M 0 2.738613 
C 0.726289 2.738613 1.422928 2.450055 1.936492 1.936492 
C 2.450055 1.422928 2.738613 0.726289 2.738613 -0 
C 2.738613 -0.726289 2.450055 -1.422928 1.936492 -1.936492 
C 1.422928 -2.450055 0.726289 -2.738613 0 -2.738613 
C -0.726289 -2.738613 -1.422928 -2.450055 -1.936492 -1.936492 
C -2.450055 -1.422928 -2.738613 -0.726289 -2.738613 0 
C -2.738613 0.726289 -2.450055 1.422928 -1.936492 1.936492 
C -1.422928 2.450055 -0.726289 2.738613 0 2.738613 
z
"/>
    </defs>
    <g clip-path="url(#p85c54550d2)">
     <use xlink:href="#C3_0_c8fc348972" x="397.967284" y="159.867228" style="fill: #fefefe"/>
    </g>
    <g clip-path="url(#p85c54550d2)">
     <use xlink:href="#C3_0_c8fc348972" x="403.291902" y="159.905221" style="fill: #fdfdfd"/>
    </g>
    <g clip-path="url(#p85c54550d2)">
     <use xlink:href="#C3_0_c8fc348972" x="408.616521" y="159.939517" style="fill: #fdfdfd"/>
    </g>
    <g clip-path="url(#p85c54550d2)">
     <use xlink:href="#C3_0_c8fc348972" x="413.941139" y="159.968084" style="fill: #fdfdfd"/>
    </g>
    <g clip-path="url(#p85c54550d2)">
     <use xlink:href="#C3_0_c8fc348972" x="419.265757" y="159.991859" style="fill: #fdfdfd"/>
    </g>
    <g clip-path="url(#p85c54550d2)">
     <use xlink:href="#C3_0_c8fc348972" x="424.590376" y="160.011232" style="fill: #fcfcfc"/>
    </g>
    <g clip-path="url(#p85c54550d2)">
     <use xlink:href="#C3_0_c8fc348972" x="429.914994" y="160.029042" style="fill: #fbfbfb"/>
    </g>
    <g clip-path="url(#p85c54550d2)">
     <use xlink:href="#C3_0_c8fc348972" x="435.239613" y="160.047637" style="fill: #f7f7f7"/>
    </g>
    <g clip-path="url(#p85c54550d2)">
     <use xlink:href="#C3_0_c8fc348972" x="440.564231" y="160.068726" style="fill: #f1f1f1"/>
    </g>
    <g clip-path="url(#p85c54550d2)">
     <use xlink:href="#C3_0_c8fc348972" x="445.88885" y="160.094769" style="fill: #dcdcdc"/>
    </g>
    <g clip-path="url(#p85c54550d2)">
     <use xlink:href="#C3_0_c8fc348972" x="451.213468" y="160.126083" style="fill: #a3a3a3"/>
    </g>
    <g clip-path="url(#p85c54550d2)">
     <use xlink:href="#C3_0_c8fc348972" x="456.538087" y="160.163019" style="fill: #434343"/>
    </g>
    <g clip-path="url(#p85c54550d2)">
     <use xlink:href="#C3_0_c8fc348972" x="461.862705" y="160.205191"/>
    </g>
    <g clip-path="url(#p85c54550d2)">
     <use xlink:href="#C3_0_c8fc348972" x="467.187324" y="160.251864" style="fill: #323232"/>
    </g>
    <g clip-path="url(#p85c54550d2)">
     <use xlink:href="#C3_0_c8fc348972" x="472.511942" y="160.302538" style="fill: #afafaf"/>
    </g>
    <g clip-path="url(#p85c54550d2)">
     <use xlink:href="#C3_0_c8fc348972" x="477.83656" y="160.356669" style="fill: #f2f2f2"/>
    </g>
    <g clip-path="url(#p85c54550d2)">
     <use xlink:href="#C3_0_c8fc348972" x="483.161179" y="160.413634" style="fill: #fefefe"/>
    </g>
   </g>
   <g id="matplotlib.axis_7">
    <g id="xtick_28">
     <g id="line2d_50">
      <g>
       <use xlink:href="#m0f6bc35365" x="487.529749" y="274.94952" style="stroke: #000000; stroke-width: 0.8"/>
      </g>
     </g>
     <g id="text_24">
      <!-- $\mathdefault{10^{0}}$ -->
      <g transform="translate(479.229749 289.34952) scale(0.1 -0.1)">
       <use xlink:href="#IBMPlexSans-31" transform="translate(0 0.184375)"/>
       <use xlink:href="#IBMPlexSans-30" transform="translate(59.999985 0.184375)"/>
       <use xlink:href="#IBMPlexSans-30" transform="translate(120.90286 36.3) scale(0.7)"/>
      </g>
     </g>
    </g>
    <g id="xtick_29">
     <g id="line2d_51">
      <g>
       <use xlink:href="#mff76f9e7fa" x="350.415464" y="274.94952" style="stroke: #000000; stroke-width: 0.6"/>
      </g>
     </g>
    </g>
    <g id="xtick_30">
     <g id="line2d_52">
      <g>
       <use xlink:href="#mff76f9e7fa" x="384.958616" y="274.94952" style="stroke: #000000; stroke-width: 0.6"/>
      </g>
     </g>
    </g>
    <g id="xtick_31">
     <g id="line2d_53">
      <g>
       <use xlink:href="#mff76f9e7fa" x="409.467373" y="274.94952" style="stroke: #000000; stroke-width: 0.6"/>
      </g>
     </g>
    </g>
    <g id="xtick_32">
     <g id="line2d_54">
      <g>
       <use xlink:href="#mff76f9e7fa" x="428.477841" y="274.94952" style="stroke: #000000; stroke-width: 0.6"/>
      </g>
     </g>
    </g>
    <g id="xtick_33">
     <g id="line2d_55">
      <g>
       <use xlink:href="#mff76f9e7fa" x="444.010525" y="274.94952" style="stroke: #000000; stroke-width: 0.6"/>
      </g>
     </g>
    </g>
    <g id="xtick_34">
     <g id="line2d_56">
      <g>
       <use xlink:href="#mff76f9e7fa" x="457.143221" y="274.94952" style="stroke: #000000; stroke-width: 0.6"/>
      </g>
     </g>
    </g>
    <g id="xtick_35">
     <g id="line2d_57">
      <g>
       <use xlink:href="#mff76f9e7fa" x="468.519281" y="274.94952" style="stroke: #000000; stroke-width: 0.6"/>
      </g>
     </g>
    </g>
    <g id="xtick_36">
     <g id="line2d_58">
      <g>
       <use xlink:href="#mff76f9e7fa" x="478.553676" y="274.94952" style="stroke: #000000; stroke-width: 0.6"/>
      </g>
     </g>
    </g>
    <g id="text_25">
     <!-- Cutoff frequency [1/τ*] -->
     <g transform="translate(378.559526 302.94952) scale(0.1 -0.1)">
      <use xlink:href="#IBMPlexSans-43"/>
      <use xlink:href="#IBMPlexSans-75" transform="translate(62.099991 0)"/>
      <use xlink:href="#IBMPlexSans-74" transform="translate(118.899979 0)"/>
      <use xlink:href="#IBMPlexSans-6f" transform="translate(153.999969 0)"/>
      <use xlink:href="#IBMPlexSans-66" transform="translate(209.999954 0)"/>
      <use xlink:href="#IBMPlexSans-66" transform="translate(242.399948 0)"/>
      <use xlink:href="#IBMPlexSans-20" transform="translate(274.799942 0)"/>
      <use xlink:href="#IBMPlexSans-66" transform="translate(298.399933 0)"/>
      <use xlink:href="#IBMPlexSans-72" transform="translate(330.799927 0)"/>
      <use xlink:href="#IBMPlexSans-65" transform="translate(367.499924 0)"/>
      <use xlink:href="#IBMPlexSans-71" transform="translate(422.399918 0)"/>
      <use xlink:href="#IBMPlexSans-75" transform="translate(480.399902 0)"/>
      <use xlink:href="#IBMPlexSans-65" transform="translate(537.19989 0)"/>
      <use xlink:href="#IBMPlexSans-6e" transform="translate(592.099884 0)"/>
      <use xlink:href="#IBMPlexSans-63" transform="translate(648.899872 0)"/>
      <use xlink:href="#IBMPlexSans-79" transform="translate(699.19986 0)"/>
      <use xlink:href="#IBMPlexSans-20" transform="translate(749.099854 0)"/>
      <use xlink:href="#IBMPlexSans-5b" transform="translate(772.699844 0)"/>
      <use xlink:href="#IBMPlexSans-31" transform="translate(804.399841 0)"/>
      <use xlink:href="#IBMPlexSans-2f" transform="translate(864.399826 0)"/>
      <use xlink:href="#IBMPlexSans-3c4" transform="translate(902.699814 0)"/>
      <use xlink:href="#IBMPlexSans-2a" transform="translate(950.399811 0)"/>
      <use xlink:href="#IBMPlexSans-5d" transform="translate(995.399796 0)"/>
     </g>
    </g>
   </g>
   <g id="matplotlib.axis_8">
    <g id="ytick_15">
     <g id="line2d_59">
      <g>
       <use xlink:href="#m9856378a28" x="318.630469" y="251.632026" style="stroke: #000000; stroke-width: 0.8"/>
      </g>
     </g>
     <g id="text_26">
      <!-- $\mathdefault{10^{-2}}$ -->
      <g transform="translate(290.830469 255.332026) scale(0.1 -0.1)">
       <use xlink:href="#IBMPlexSans-31" transform="translate(0 0.184375)"/>
       <use xlink:href="#IBMPlexSans-30" transform="translate(59.999985 0.184375)"/>
       <use xlink:href="#IBMPlexSans-2212" transform="translate(120.90286 36.3) scale(0.7)"/>
       <use xlink:href="#IBMPlexSans-32" transform="translate(162.902849 36.3) scale(0.7)"/>
      </g>
     </g>
    </g>
    <g id="ytick_16">
     <g id="line2d_60">
      <g>
       <use xlink:href="#m9856378a28" x="318.630469" y="213.480332" style="stroke: #000000; stroke-width: 0.8"/>
      </g>
     </g>
     <g id="text_27">
      <!-- $\mathdefault{10^{-1}}$ -->
      <g transform="translate(290.830469 217.180332) scale(0.1 -0.1)">
       <use xlink:href="#IBMPlexSans-31" transform="translate(0 0.026563)"/>
       <use xlink:href="#IBMPlexSans-30" transform="translate(59.999985 0.026563)"/>
       <use xlink:href="#IBMPlexSans-2212" transform="translate(120.90286 36.142188) scale(0.7)"/>
       <use xlink:href="#IBMPlexSans-31" transform="translate(162.902849 36.142188) scale(0.7)"/>
      </g>
     </g>
    </g>
    <g id="ytick_17">
     <g id="line2d_61">
      <g>
       <use xlink:href="#m9856378a28" x="318.630469" y="175.328638" style="stroke: #000000; stroke-width: 0.8"/>
      </g>
     </g>
     <g id="text_28">
      <!-- $\mathdefault{10^{0}}$ -->
      <g transform="translate(295.030469 179.028638) scale(0.1 -0.1)">
       <use xlink:href="#IBMPlexSans-31" transform="translate(0 0.184375)"/>
       <use xlink:href="#IBMPlexSans-30" transform="translate(59.999985 0.184375)"/>
       <use xlink:href="#IBMPlexSans-30" transform="translate(120.90286 36.3) scale(0.7)"/>
      </g>
     </g>
    </g>
    <g id="ytick_18">
     <g id="line2d_62">
      <defs>
       <path id="mc2b7d40ce0" d="M 0 0 
L -2 0 
" style="stroke: #000000; stroke-width: 0.6"/>
      </defs>
      <g>
       <use xlink:href="#mc2b7d40ce0" x="318.630469" y="271.580736" style="stroke: #000000; stroke-width: 0.6"/>
      </g>
     </g>
    </g>
    <g id="ytick_19">
     <g id="line2d_63">
      <g>
       <use xlink:href="#mc2b7d40ce0" x="318.630469" y="266.814112" style="stroke: #000000; stroke-width: 0.6"/>
      </g>
     </g>
    </g>
    <g id="ytick_20">
     <g id="line2d_64">
      <g>
       <use xlink:href="#mc2b7d40ce0" x="318.630469" y="263.11683" style="stroke: #000000; stroke-width: 0.6"/>
      </g>
     </g>
    </g>
    <g id="ytick_21">
     <g id="line2d_65">
      <g>
       <use xlink:href="#mc2b7d40ce0" x="318.630469" y="260.095932" style="stroke: #000000; stroke-width: 0.6"/>
      </g>
     </g>
    </g>
    <g id="ytick_22">
     <g id="line2d_66">
      <g>
       <use xlink:href="#mc2b7d40ce0" x="318.630469" y="257.541798" style="stroke: #000000; stroke-width: 0.6"/>
      </g>
     </g>
    </g>
    <g id="ytick_23">
     <g id="line2d_67">
      <g>
       <use xlink:href="#mc2b7d40ce0" x="318.630469" y="255.329307" style="stroke: #000000; stroke-width: 0.6"/>
      </g>
     </g>
    </g>
    <g id="ytick_24">
     <g id="line2d_68">
      <g>
       <use xlink:href="#mc2b7d40ce0" x="318.630469" y="253.377752" style="stroke: #000000; stroke-width: 0.6"/>
      </g>
     </g>
    </g>
    <g id="ytick_25">
     <g id="line2d_69">
      <g>
       <use xlink:href="#mc2b7d40ce0" x="318.630469" y="240.147222" style="stroke: #000000; stroke-width: 0.6"/>
      </g>
     </g>
    </g>
    <g id="ytick_26">
     <g id="line2d_70">
      <g>
       <use xlink:href="#mc2b7d40ce0" x="318.630469" y="233.429042" style="stroke: #000000; stroke-width: 0.6"/>
      </g>
     </g>
    </g>
    <g id="ytick_27">
     <g id="line2d_71">
      <g>
       <use xlink:href="#mc2b7d40ce0" x="318.630469" y="228.662418" style="stroke: #000000; stroke-width: 0.6"/>
      </g>
     </g>
    </g>
    <g id="ytick_28">
     <g id="line2d_72">
      <g>
       <use xlink:href="#mc2b7d40ce0" x="318.630469" y="224.965136" style="stroke: #000000; stroke-width: 0.6"/>
      </g>
     </g>
    </g>
    <g id="ytick_29">
     <g id="line2d_73">
      <g>
       <use xlink:href="#mc2b7d40ce0" x="318.630469" y="221.944238" style="stroke: #000000; stroke-width: 0.6"/>
      </g>
     </g>
    </g>
    <g id="ytick_30">
     <g id="line2d_74">
      <g>
       <use xlink:href="#mc2b7d40ce0" x="318.630469" y="219.390104" style="stroke: #000000; stroke-width: 0.6"/>
      </g>
     </g>
    </g>
    <g id="ytick_31">
     <g id="line2d_75">
      <g>
       <use xlink:href="#mc2b7d40ce0" x="318.630469" y="217.177613" style="stroke: #000000; stroke-width: 0.6"/>
      </g>
     </g>
    </g>
    <g id="ytick_32">
     <g id="line2d_76">
      <g>
       <use xlink:href="#mc2b7d40ce0" x="318.630469" y="215.226058" style="stroke: #000000; stroke-width: 0.6"/>
      </g>
     </g>
    </g>
    <g id="ytick_33">
     <g id="line2d_77">
      <g>
       <use xlink:href="#mc2b7d40ce0" x="318.630469" y="201.995528" style="stroke: #000000; stroke-width: 0.6"/>
      </g>
     </g>
    </g>
    <g id="ytick_34">
     <g id="line2d_78">
      <g>
       <use xlink:href="#mc2b7d40ce0" x="318.630469" y="195.277348" style="stroke: #000000; stroke-width: 0.6"/>
      </g>
     </g>
    </g>
    <g id="ytick_35">
     <g id="line2d_79">
      <g>
       <use xlink:href="#mc2b7d40ce0" x="318.630469" y="190.510724" style="stroke: #000000; stroke-width: 0.6"/>
      </g>
     </g>
    </g>
    <g id="ytick_36">
     <g id="line2d_80">
      <g>
       <use xlink:href="#mc2b7d40ce0" x="318.630469" y="186.813443" style="stroke: #000000; stroke-width: 0.6"/>
      </g>
     </g>
    </g>
    <g id="ytick_37">
     <g id="line2d_81">
      <g>
       <use xlink:href="#mc2b7d40ce0" x="318.630469" y="183.792544" style="stroke: #000000; stroke-width: 0.6"/>
      </g>
     </g>
    </g>
    <g id="ytick_38">
     <g id="line2d_82">
      <g>
       <use xlink:href="#mc2b7d40ce0" x="318.630469" y="181.23841" style="stroke: #000000; stroke-width: 0.6"/>
      </g>
     </g>
    </g>
    <g id="ytick_39">
     <g id="line2d_83">
      <g>
       <use xlink:href="#mc2b7d40ce0" x="318.630469" y="179.025919" style="stroke: #000000; stroke-width: 0.6"/>
      </g>
     </g>
    </g>
    <g id="ytick_40">
     <g id="line2d_84">
      <g>
       <use xlink:href="#mc2b7d40ce0" x="318.630469" y="177.074364" style="stroke: #000000; stroke-width: 0.6"/>
      </g>
     </g>
    </g>
    <g id="ytick_41">
     <g id="line2d_85">
      <g>
       <use xlink:href="#mc2b7d40ce0" x="318.630469" y="163.843834" style="stroke: #000000; stroke-width: 0.6"/>
      </g>
     </g>
    </g>
    <g id="ytick_42">
     <g id="line2d_86">
      <g>
       <use xlink:href="#mc2b7d40ce0" x="318.630469" y="157.125654" style="stroke: #000000; stroke-width: 0.6"/>
      </g>
     </g>
    </g>
    <g id="text_29">
     <!-- Hessian Eigenvalues -->
     <g transform="translate(284.710156 260.528666) rotate(-90) scale(0.1 -0.1)">
      <defs>
       <path id="IBMPlexSans-48" d="M 3392 0 
L 3930 0 
L 3930 4467 
L 3392 4467 
L 3392 2496 
L 1133 2496 
L 1133 4467 
L 595 4467 
L 595 0 
L 1133 0 
L 1133 2022 
L 3392 2022 
L 3392 0 
z
" transform="scale(0.015625)"/>
       <path id="IBMPlexSans-61" d="M 3232 0 
L 3232 448 
L 2854 448 
L 2854 2266 
C 2854 2963 2381 3379 1587 3379 
C 992 3379 595 3085 416 2733 
L 723 2445 
C 902 2746 1165 2938 1562 2938 
C 2086 2938 2342 2682 2342 2214 
L 2342 1888 
L 1690 1888 
C 730 1888 282 1542 282 922 
C 282 307 691 -77 1389 -77 
C 1850 -77 2202 134 2342 538 
L 2374 538 
C 2413 230 2566 0 2944 0 
L 3232 0 
z
M 1472 358 
C 1075 358 819 544 819 870 
L 819 1005 
C 819 1325 1082 1504 1664 1504 
L 2342 1504 
L 2342 960 
C 2342 621 1978 358 1472 358 
z
" transform="scale(0.015625)"/>
       <path id="IBMPlexSans-45" d="M 3322 0 
L 3322 474 
L 1133 474 
L 1133 2022 
L 3194 2022 
L 3194 2496 
L 1133 2496 
L 1133 3994 
L 3322 3994 
L 3322 4467 
L 595 4467 
L 595 0 
L 3322 0 
z
" transform="scale(0.015625)"/>
      </defs>
      <use xlink:href="#IBMPlexSans-48"/>
      <use xlink:href="#IBMPlexSans-65" transform="translate(70.699982 0)"/>
      <use xlink:href="#IBMPlexSans-73" transform="translate(125.599976 0)"/>
      <use xlink:href="#IBMPlexSans-73" transform="translate(174.299973 0)"/>
      <use xlink:href="#IBMPlexSans-69" transform="translate(222.999969 0)"/>
      <use xlink:href="#IBMPlexSans-61" transform="translate(247.999954 0)"/>
      <use xlink:href="#IBMPlexSans-6e" transform="translate(301.399948 0)"/>
      <use xlink:href="#IBMPlexSans-20" transform="translate(358.199936 0)"/>
      <use xlink:href="#IBMPlexSans-45" transform="translate(381.799927 0)"/>
      <use xlink:href="#IBMPlexSans-69" transform="translate(440.099915 0)"/>
      <use xlink:href="#IBMPlexSans-67" transform="translate(465.099899 0)"/>
      <use xlink:href="#IBMPlexSans-65" transform="translate(517.899887 0)"/>
      <use xlink:href="#IBMPlexSans-6e" transform="translate(572.799881 0)"/>
      <use xlink:href="#IBMPlexSans-76" transform="translate(629.599869 0)"/>
      <use xlink:href="#IBMPlexSans-61" transform="translate(678.799866 0)"/>
      <use xlink:href="#IBMPlexSans-6c" transform="translate(732.19986 0)"/>
      <use xlink:href="#IBMPlexSans-75" transform="translate(759.399857 0)"/>
      <use xlink:href="#IBMPlexSans-65" transform="translate(816.199844 0)"/>
      <use xlink:href="#IBMPlexSans-73" transform="translate(871.099838 0)"/>
     </g>
    </g>
   </g>
   <g id="line2d_87">
    <path d="M 328.747244 249.117203 
L 334.071862 251.221921 
L 339.396481 253.043156 
L 344.721099 254.864083 
L 350.045718 256.631752 
L 355.370336 258.213504 
L 360.694955 259.634205 
L 366.019573 260.917015 
L 371.344191 262.022606 
L 376.66881 262.991572 
L 381.993428 263.860398 
L 387.318047 264.666541 
L 392.642665 265.410919 
L 397.967284 266.099968 
L 403.291902 266.727521 
L 408.616521 267.252785 
L 413.941139 267.636022 
L 419.265757 267.828335 
L 424.590376 267.83015 
L 429.914994 267.648901 
L 435.239613 267.33314 
L 440.564231 266.95107 
L 445.88885 266.553422 
L 451.213468 266.1983 
L 456.538087 265.920116 
L 461.862705 265.738474 
L 467.187324 265.656794 
L 472.511942 265.667783 
L 477.83656 265.763901 
L 483.161179 265.939746 
L 488.485797 266.189401 
L 493.810416 266.502088 
L 499.135034 266.863751 
L 504.459653 267.258417 
L 509.784271 267.67566 
L 515.10889 268.107711 
L 520.433508 268.550933 
L 525.758126 269.001937 
L 531.082745 269.457496 
" clip-path="url(#p85c54550d2)" style="fill: none; stroke: #9467bd; stroke-width: 1.5; stroke-linecap: square"/>
   </g>
   <g id="line2d_88">
    <path d="M 328.747244 189.87569 
L 334.071862 190.00002 
L 339.396481 190.061932 
L 344.721099 190.077985 
L 350.045718 190.043853 
L 355.370336 189.966961 
L 360.694955 189.848352 
L 366.019573 189.70575 
L 371.344191 189.528668 
L 376.66881 189.333029 
L 381.993428 189.122273 
L 387.318047 188.90102 
L 392.642665 188.670033 
L 397.967284 188.437338 
L 403.291902 188.220245 
L 408.616521 188.027626 
L 413.941139 187.869711 
L 419.265757 187.740683 
L 424.590376 187.637648 
L 429.914994 187.545042 
L 435.239613 187.450039 
L 440.564231 187.343336 
L 445.88885 187.21218 
L 451.213468 187.05518 
L 456.538087 186.871156 
L 461.862705 186.662899 
L 467.187324 186.435053 
L 472.511942 186.191063 
L 477.83656 185.934455 
L 483.161179 185.668935 
L 488.485797 185.399272 
L 493.810416 185.131074 
L 499.135034 184.871831 
L 504.459653 184.624202 
L 509.784271 184.392289 
L 515.10889 184.176398 
L 520.433508 183.978129 
L 525.758126 183.798887 
L 531.082745 183.640198 
" clip-path="url(#p85c54550d2)" style="fill: none; stroke: #9467bd; stroke-width: 1.5; stroke-linecap: square"/>
   </g>
   <g id="line2d_89">
    <path d="M 328.747244 159.671386 
L 334.071862 159.642459 
L 339.396481 159.625716 
L 344.721099 159.617024 
L 350.045718 159.617114 
L 355.370336 159.625079 
L 360.694955 159.64061 
L 366.019573 159.660799 
L 371.344191 159.687488 
L 376.66881 159.718058 
L 381.993428 159.751936 
L 387.318047 159.788348 
L 392.642665 159.827233 
L 397.967284 159.867228 
L 403.291902 159.905221 
L 408.616521 159.939517 
L 413.941139 159.968084 
L 419.265757 159.991859 
L 424.590376 160.011232 
L 429.914994 160.029042 
L 435.239613 160.047637 
L 440.564231 160.068726 
L 445.88885 160.094769 
L 451.213468 160.126083 
L 456.538087 160.163019 
L 461.862705 160.205191 
L 467.187324 160.251864 
L 472.511942 160.302538 
L 477.83656 160.356669 
L 483.161179 160.413634 
L 488.485797 160.472523 
L 493.810416 160.532169 
L 499.135034 160.590879 
L 504.459653 160.647964 
L 509.784271 160.702336 
L 515.10889 160.753761 
L 520.433508 160.801679 
L 525.758126 160.845565 
L 531.082745 160.884856 
" clip-path="url(#p85c54550d2)" style="fill: none; stroke: #9467bd; stroke-width: 1.5; stroke-linecap: square"/>
   </g>
   <g id="patch_13">
    <path d="M 318.630469 274.94952 
L 318.630469 154.125 
" style="fill: none; stroke: #000000; stroke-width: 0.8; stroke-linejoin: miter; stroke-linecap: square"/>
   </g>
   <g id="patch_14">
    <path d="M 318.630469 274.94952 
L 541.19952 274.94952 
" style="fill: none; stroke: #000000; stroke-width: 0.8; stroke-linejoin: miter; stroke-linecap: square"/>
   </g>
  </g>
 </g>
 <defs>
  <clipPath id="pe571df1a64">
   <rect x="48.640625" y="7.2" width="222.569051" height="120.82452"/>
  </clipPath>
  <clipPath id="pede203953f">
   <rect x="318.630469" y="7.2" width="222.569051" height="120.82452"/>
  </clipPath>
  <clipPath id="pca286635b0">
   <rect x="48.640625" y="154.125" width="222.569051" height="120.82452"/>
  </clipPath>
  <clipPath id="p85c54550d2">
   <rect x="318.630469" y="154.125" width="222.569051" height="120.82452"/>
  </clipPath>
 </defs>
</svg>