<?xml version="1.0" encoding="utf-8" standalone="no"?>
<!DOCTYPE svg PUBLIC "-//W3C//DTD SVG 1.1//EN"
  "http://www.w3.org/Graphics/SVG/1.1/DTD/svg11.dtd">
<svg xmlns:xlink="http://www.w3.org/1999/xlink" width="548.548152pt" height="312.14952pt" viewBox="0 0 548.548152 312.14952" xmlns="http://www.w3.org/2000/svg" version="1.1">
 <metadata>
  <rdf:RDF xmlns:dc="http://purl.org/dc/elements/1.1/" xmlns:cc="http://creativecommons.org/ns#" xmlns:rdf="http://www.w3.org/1999/02/22-rdf-syntax-ns#">
   <cc:Work>
    <dc:type rdf:resource="http://purl.org/dc/dcmitype/StillImage"/>
    <dc:date>2025-09-10T10:14:57.171617</dc:date>
    <dc:format>image/svg+xml</dc:format>
    <dc:creator>
     <cc:Agent>
      <dc:title>Matplotlib v3.10.3, https://matplotlib.org/</dc:title>
     </cc:Agent>
    </dc:creator>
   </cc:Work>
  </rdf:RDF>
 </metadata>
 <defs>
  <style type="text/css">*{stroke-linejoin: round; stroke-linecap: butt}</style>
 </defs>
 <g id="figure_1">
  <g id="patch_1">
   <path d="M 0 312.14952 
L 548.548152 312.14952 
L 548.548152 0 
L 0 0 
z
" style="fill: #ffffff"/>
  </g>
  <g id="axes_1">
   <g id="patch_2">
    <path d="M 48.640625 128.12452 
L 263.935251 128.12452 
L 263.935251 7.2 
L 48.640625 7.2 
z
" style="fill: #ffffff"/>
   </g>
   <g id="matplotlib.axis_1">
    <g id="xtick_1">
     <g id="line2d_1">
      <defs>
       <path id="mfaf85795bc" d="M 0 0 
L 0 3.5 
" style="stroke: #000000; stroke-width: 0.8"/>
      </defs>
      <g>
       <use xlink:href="#mfaf85795bc" x="96.67793" y="128.12452" style="stroke: #000000; stroke-width: 0.8"/>
      </g>
     </g>
     <g id="text_1">
      <!-- $\mathdefault{10^{-2}}$ -->
      <g transform="translate(86.27793 142.52452) scale(0.1 -0.1)">
       <defs>
        <path id="IBMPlexSans-31" d="M 3501 0 
L 3501 474 
L 2349 474 
L 2349 4467 
L 1510 4467 
L 326 3360 
L 640 3021 
L 1766 4070 
L 1811 4070 
L 1811 474 
L 563 474 
L 563 0 
L 3501 0 
z
" transform="scale(0.015625)"/>
        <path id="IBMPlexSans-30" d="M 1920 -77 
C 2989 -77 3456 774 3456 2234 
C 3456 3693 2989 4544 1920 4544 
C 851 4544 384 3693 384 2234 
C 384 774 851 -77 1920 -77 
z
M 1920 390 
C 1222 390 947 1005 947 1869 
L 947 2598 
C 947 3462 1222 4077 1920 4077 
C 2618 4077 2893 3462 2893 2598 
L 2893 1869 
C 2893 1005 2618 390 1920 390 
z
" transform="scale(0.015625)"/>
        <path id="IBMPlexSans-2212" d="M 3411 1734 
L 3411 2170 
L 429 2170 
L 429 1734 
L 3411 1734 
z
" transform="scale(0.015625)"/>
        <path id="IBMPlexSans-32" d="M 3411 474 
L 1062 474 
L 2266 1555 
C 2835 2067 3245 2554 3245 3245 
C 3245 4006 2746 4544 1875 4544 
C 1011 4544 614 4019 442 3494 
L 922 3309 
C 1043 3731 1299 4064 1850 4064 
C 2400 4064 2675 3725 2675 3232 
L 2675 3155 
C 2675 2726 2355 2278 1939 1894 
L 480 550 
L 480 0 
L 3411 0 
L 3411 474 
z
" transform="scale(0.015625)"/>
       </defs>
       <use xlink:href="#IBMPlexSans-31" transform="translate(0 0.184375)"/>
       <use xlink:href="#IBMPlexSans-30" transform="translate(59.999985 0.184375)"/>
       <use xlink:href="#IBMPlexSans-2212" transform="translate(120.90286 36.3) scale(0.7)"/>
       <use xlink:href="#IBMPlexSans-32" transform="translate(162.902849 36.3) scale(0.7)"/>
      </g>
     </g>
    </g>
    <g id="xtick_2">
     <g id="line2d_2">
      <defs>
       <path id="md2e35bf971" d="M 0 0 
L 0 2 
" style="stroke: #000000; stroke-width: 0.6"/>
      </defs>
      <g>
       <use xlink:href="#md2e35bf971" x="64.914884" y="128.12452" style="stroke: #000000; stroke-width: 0.6"/>
      </g>
     </g>
    </g>
    <g id="xtick_3">
     <g id="line2d_3">
      <g>
       <use xlink:href="#md2e35bf971" x="81.68054" y="128.12452" style="stroke: #000000; stroke-width: 0.6"/>
      </g>
     </g>
    </g>
    <g id="xtick_4">
     <g id="line2d_4">
      <g>
       <use xlink:href="#md2e35bf971" x="195.342963" y="128.12452" style="stroke: #000000; stroke-width: 0.6"/>
      </g>
     </g>
     <g id="text_2">
      <!-- $\mathdefault{2\times10^{-2}}$ -->
      <g transform="translate(176.992963 140.92452) scale(0.1 -0.1)">
       <defs>
        <path id="IBMPlexSans-d7" d="M 2938 595 
L 3251 909 
L 2234 1952 
L 3251 2995 
L 2938 3309 
L 1920 2266 
L 902 3309 
L 589 2995 
L 1606 1952 
L 589 909 
L 902 595 
L 1920 1638 
L 2938 595 
z
" transform="scale(0.015625)"/>
       </defs>
       <use xlink:href="#IBMPlexSans-32" transform="translate(0 0.184375)"/>
       <use xlink:href="#IBMPlexSans-d7" transform="translate(79.482407 0.184375)"/>
       <use xlink:href="#IBMPlexSans-31" transform="translate(158.964813 0.184375)"/>
       <use xlink:href="#IBMPlexSans-30" transform="translate(218.964798 0.184375)"/>
       <use xlink:href="#IBMPlexSans-2212" transform="translate(279.867673 36.3) scale(0.7)"/>
       <use xlink:href="#IBMPlexSans-32" transform="translate(321.867663 36.3) scale(0.7)"/>
      </g>
     </g>
    </g>
    <g id="xtick_5">
     <g id="line2d_5">
      <g>
       <use xlink:href="#md2e35bf971" x="253.058308" y="128.12452" style="stroke: #000000; stroke-width: 0.6"/>
      </g>
     </g>
     <g id="text_3">
      <!-- $\mathdefault{3\times10^{-2}}$ -->
      <g transform="translate(234.708308 140.92452) scale(0.1 -0.1)">
       <defs>
        <path id="IBMPlexSans-33" d="M 1184 2573 
L 1184 2106 
L 1709 2106 
C 2336 2106 2669 1805 2669 1280 
L 2669 1229 
C 2669 704 2336 403 1709 403 
C 1165 403 902 640 672 992 
L 269 685 
C 544 301 941 -77 1715 -77 
C 2624 -77 3232 454 3232 1222 
C 3232 1894 2771 2253 2291 2349 
L 2291 2374 
C 2765 2496 3149 2842 3149 3418 
C 3149 4141 2547 4544 1792 4544 
C 1075 4544 685 4173 461 3814 
L 858 3507 
C 1043 3846 1318 4064 1779 4064 
C 2253 4064 2579 3827 2579 3360 
L 2579 3315 
C 2579 2886 2272 2573 1670 2573 
L 1184 2573 
z
" transform="scale(0.015625)"/>
       </defs>
       <use xlink:href="#IBMPlexSans-33" transform="translate(0 0.184375)"/>
       <use xlink:href="#IBMPlexSans-d7" transform="translate(79.482407 0.184375)"/>
       <use xlink:href="#IBMPlexSans-31" transform="translate(158.964813 0.184375)"/>
       <use xlink:href="#IBMPlexSans-30" transform="translate(218.964798 0.184375)"/>
       <use xlink:href="#IBMPlexSans-2212" transform="translate(279.867673 36.3) scale(0.7)"/>
       <use xlink:href="#IBMPlexSans-32" transform="translate(321.867663 36.3) scale(0.7)"/>
      </g>
     </g>
    </g>
   </g>
   <g id="matplotlib.axis_2">
    <g id="ytick_1">
     <g id="line2d_6">
      <defs>
       <path id="m60d78a53fa" d="M 0 0 
L -3.5 0 
" style="stroke: #000000; stroke-width: 0.8"/>
      </defs>
      <g>
       <use xlink:href="#m60d78a53fa" x="48.640625" y="123.675265" style="stroke: #000000; stroke-width: 0.8"/>
      </g>
     </g>
     <g id="text_4">
      <!-- 0.00 -->
      <g transform="translate(20.920313 127.375265) scale(0.1 -0.1)">
       <defs>
        <path id="IBMPlexSans-2e" d="M 870 -77 
C 1139 -77 1261 77 1261 294 
L 1261 378 
C 1261 595 1139 749 870 749 
C 602 749 480 595 480 378 
L 480 294 
C 480 77 602 -77 870 -77 
z
" transform="scale(0.015625)"/>
       </defs>
       <use xlink:href="#IBMPlexSans-30"/>
       <use xlink:href="#IBMPlexSans-2e" transform="translate(59.999985 0)"/>
       <use xlink:href="#IBMPlexSans-30" transform="translate(87.199982 0)"/>
       <use xlink:href="#IBMPlexSans-30" transform="translate(147.199966 0)"/>
      </g>
     </g>
    </g>
    <g id="ytick_2">
     <g id="line2d_7">
      <g>
       <use xlink:href="#m60d78a53fa" x="48.640625" y="100.151968" style="stroke: #000000; stroke-width: 0.8"/>
      </g>
     </g>
     <g id="text_5">
      <!-- 0.05 -->
      <g transform="translate(20.920313 103.851968) scale(0.1 -0.1)">
       <defs>
        <path id="IBMPlexSans-35" d="M 3187 4467 
L 794 4467 
L 634 2010 
L 1088 1946 
C 1274 2150 1478 2323 1888 2323 
C 2496 2323 2822 1984 2822 1395 
L 2822 1331 
C 2822 742 2496 403 1888 403 
C 1350 403 1126 640 896 992 
L 493 685 
C 762 301 1146 -77 1888 -77 
C 2829 -77 3392 531 3392 1402 
C 3392 2266 2829 2784 2061 2784 
C 1594 2784 1357 2592 1146 2291 
L 1101 2291 
L 1229 3994 
L 3187 3994 
L 3187 4467 
z
" transform="scale(0.015625)"/>
       </defs>
       <use xlink:href="#IBMPlexSans-30"/>
       <use xlink:href="#IBMPlexSans-2e" transform="translate(59.999985 0)"/>
       <use xlink:href="#IBMPlexSans-30" transform="translate(87.199982 0)"/>
       <use xlink:href="#IBMPlexSans-35" transform="translate(147.199966 0)"/>
      </g>
     </g>
    </g>
    <g id="ytick_3">
     <g id="line2d_8">
      <g>
       <use xlink:href="#m60d78a53fa" x="48.640625" y="76.628672" style="stroke: #000000; stroke-width: 0.8"/>
      </g>
     </g>
     <g id="text_6">
      <!-- 0.10 -->
      <g transform="translate(20.920313 80.328672) scale(0.1 -0.1)">
       <use xlink:href="#IBMPlexSans-30"/>
       <use xlink:href="#IBMPlexSans-2e" transform="translate(59.999985 0)"/>
       <use xlink:href="#IBMPlexSans-31" transform="translate(87.199982 0)"/>
       <use xlink:href="#IBMPlexSans-30" transform="translate(147.199966 0)"/>
      </g>
     </g>
    </g>
    <g id="ytick_4">
     <g id="line2d_9">
      <g>
       <use xlink:href="#m60d78a53fa" x="48.640625" y="53.105376" style="stroke: #000000; stroke-width: 0.8"/>
      </g>
     </g>
     <g id="text_7">
      <!-- 0.15 -->
      <g transform="translate(20.920313 56.805376) scale(0.1 -0.1)">
       <use xlink:href="#IBMPlexSans-30"/>
       <use xlink:href="#IBMPlexSans-2e" transform="translate(59.999985 0)"/>
       <use xlink:href="#IBMPlexSans-31" transform="translate(87.199982 0)"/>
       <use xlink:href="#IBMPlexSans-35" transform="translate(147.199966 0)"/>
      </g>
     </g>
    </g>
    <g id="ytick_5">
     <g id="line2d_10">
      <g>
       <use xlink:href="#m60d78a53fa" x="48.640625" y="29.58208" style="stroke: #000000; stroke-width: 0.8"/>
      </g>
     </g>
     <g id="text_8">
      <!-- 0.20 -->
      <g transform="translate(20.920313 33.28208) scale(0.1 -0.1)">
       <use xlink:href="#IBMPlexSans-30"/>
       <use xlink:href="#IBMPlexSans-2e" transform="translate(59.999985 0)"/>
       <use xlink:href="#IBMPlexSans-32" transform="translate(87.199982 0)"/>
       <use xlink:href="#IBMPlexSans-30" transform="translate(147.199966 0)"/>
      </g>
     </g>
    </g>
    <g id="text_9">
     <!-- cv2l(125%) weight -->
     <g transform="translate(14.8 110.231791) rotate(-90) scale(0.1 -0.1)">
      <defs>
       <path id="IBMPlexSans-63" d="M 1773 -77 
C 2400 -77 2829 230 3040 704 
L 2669 954 
C 2490 576 2189 378 1773 378 
C 1165 378 851 794 851 1370 
L 851 1933 
C 851 2509 1165 2925 1773 2925 
C 2176 2925 2458 2726 2579 2387 
L 3008 2605 
C 2816 3059 2426 3379 1773 3379 
C 845 3379 301 2707 301 1651 
C 301 595 845 -77 1773 -77 
z
" transform="scale(0.015625)"/>
       <path id="IBMPlexSans-76" d="M 1869 0 
L 3034 3302 
L 2541 3302 
L 1952 1664 
L 1594 538 
L 1562 538 
L 1203 1664 
L 627 3302 
L 115 3302 
L 1274 0 
L 1869 0 
z
" transform="scale(0.015625)"/>
       <path id="IBMPlexSans-6c" d="M 1542 0 
L 1542 448 
L 1056 448 
L 1056 4736 
L 544 4736 
L 544 531 
C 544 224 736 0 1088 0 
L 1542 0 
z
" transform="scale(0.015625)"/>
       <path id="IBMPlexSans-28" d="M 531 1997 
C 531 749 1056 -339 1690 -877 
L 2176 -877 
C 1485 -262 1011 819 1011 1715 
L 1011 2266 
C 1011 3162 1466 4224 2176 4864 
L 1690 4864 
C 1037 4307 531 3232 531 1997 
z
" transform="scale(0.015625)"/>
       <path id="IBMPlexSans-25" d="M 1664 0 
L 4762 4467 
L 4269 4467 
L 1171 0 
L 1664 0 
z
M 1427 2010 
C 2074 2010 2438 2458 2438 3277 
C 2438 4096 2074 4544 1427 4544 
C 781 4544 416 4096 416 3277 
C 416 2458 781 2010 1427 2010 
z
M 1427 2342 
C 1056 2342 877 2598 877 3085 
L 877 3469 
C 877 3955 1056 4211 1427 4211 
C 1798 4211 1978 3955 1978 3469 
L 1978 3085 
C 1978 2598 1798 2342 1427 2342 
z
M 4506 -77 
C 5152 -77 5517 371 5517 1190 
C 5517 2010 5152 2458 4506 2458 
C 3859 2458 3494 2010 3494 1190 
C 3494 371 3859 -77 4506 -77 
z
M 4506 256 
C 4134 256 3955 512 3955 998 
L 3955 1382 
C 3955 1869 4134 2125 4506 2125 
C 4877 2125 5056 1869 5056 1382 
L 5056 998 
C 5056 512 4877 256 4506 256 
z
" transform="scale(0.015625)"/>
       <path id="IBMPlexSans-29" d="M 1613 1997 
C 1613 3232 1107 4307 454 4864 
L -32 4864 
C 678 4224 1133 3162 1133 2266 
L 1133 1715 
C 1133 819 659 -262 -32 -877 
L 454 -877 
C 1088 -339 1613 749 1613 1997 
z
" transform="scale(0.015625)"/>
       <path id="IBMPlexSans-20" transform="scale(0.015625)"/>
       <path id="IBMPlexSans-77" d="M 1082 0 
L 1702 0 
L 2163 1587 
L 2445 2592 
L 2458 2592 
L 2746 1587 
L 3206 0 
L 3840 0 
L 4717 3302 
L 4237 3302 
L 3878 1875 
L 3539 429 
L 3526 429 
L 3117 1875 
L 2688 3302 
L 2234 3302 
L 1818 1875 
L 1414 429 
L 1402 429 
L 1050 1875 
L 698 3302 
L 198 3302 
L 1082 0 
z
" transform="scale(0.015625)"/>
       <path id="IBMPlexSans-65" d="M 1786 -77 
C 2406 -77 2880 230 3091 678 
L 2726 941 
C 2554 576 2234 371 1818 371 
C 1203 371 838 800 838 1370 
L 838 1523 
L 3213 1523 
L 3213 1766 
C 3213 2701 2669 3379 1786 3379 
C 890 3379 301 2701 301 1651 
C 301 602 890 -77 1786 -77 
z
M 1786 2950 
C 2310 2950 2662 2560 2662 1978 
L 2662 1907 
L 838 1907 
L 838 1952 
C 838 2528 1229 2950 1786 2950 
z
" transform="scale(0.015625)"/>
       <path id="IBMPlexSans-69" d="M 800 4077 
C 1018 4077 1114 4192 1114 4365 
L 1114 4448 
C 1114 4621 1018 4736 800 4736 
C 582 4736 486 4621 486 4448 
L 486 4365 
C 486 4192 582 4077 800 4077 
z
M 544 0 
L 1056 0 
L 1056 3302 
L 544 3302 
L 544 0 
z
" transform="scale(0.015625)"/>
       <path id="IBMPlexSans-67" d="M 3328 -365 
C 3328 179 2976 512 2157 512 
L 1453 512 
C 1152 512 947 563 947 762 
C 947 966 1165 1075 1382 1133 
C 1478 1114 1594 1101 1702 1101 
C 2458 1101 2950 1568 2950 2240 
C 2950 2592 2810 2886 2573 3091 
L 2573 3302 
L 3200 3302 
L 3200 3750 
L 2707 3750 
C 2432 3750 2323 3565 2323 3309 
L 2323 3251 
C 2144 3334 1933 3379 1696 3379 
C 947 3379 454 2912 454 2240 
C 454 1779 685 1414 1075 1229 
L 1075 1203 
C 742 1120 506 960 506 627 
C 506 403 614 256 800 166 
L 800 96 
C 474 6 275 -186 275 -544 
C 275 -1062 698 -1357 1728 -1357 
C 2790 -1357 3328 -1043 3328 -365 
z
M 2848 -403 
C 2848 -762 2515 -941 1946 -941 
L 1472 -941 
C 954 -941 755 -704 755 -416 
C 755 -211 851 -64 1062 32 
L 2163 32 
C 2675 32 2848 -141 2848 -403 
z
M 1702 1510 
C 1267 1510 992 1715 992 2150 
L 992 2330 
C 992 2765 1267 2970 1702 2970 
C 2138 2970 2413 2765 2413 2330 
L 2413 2150 
C 2413 1715 2138 1510 1702 1510 
z
" transform="scale(0.015625)"/>
       <path id="IBMPlexSans-68" d="M 544 0 
L 1056 0 
L 1056 2291 
C 1056 2714 1453 2918 1862 2918 
C 2355 2918 2611 2618 2611 2029 
L 2611 0 
L 3123 0 
L 3123 2118 
C 3123 2918 2694 3379 2016 3379 
C 1523 3379 1242 3136 1082 2765 
L 1056 2765 
L 1056 4736 
L 544 4736 
L 544 0 
z
" transform="scale(0.015625)"/>
       <path id="IBMPlexSans-74" d="M 1914 0 
L 1914 448 
L 1242 448 
L 1242 2854 
L 1965 2854 
L 1965 3302 
L 1242 3302 
L 1242 4218 
L 781 4218 
L 781 3603 
C 781 3379 710 3302 493 3302 
L 186 3302 
L 186 2854 
L 730 2854 
L 730 544 
C 730 224 922 0 1274 0 
L 1914 0 
z
" transform="scale(0.015625)"/>
      </defs>
      <use xlink:href="#IBMPlexSans-63"/>
      <use xlink:href="#IBMPlexSans-76" transform="translate(50.299988 0)"/>
      <use xlink:href="#IBMPlexSans-32" transform="translate(99.499985 0)"/>
      <use xlink:href="#IBMPlexSans-6c" transform="translate(159.499969 0)"/>
      <use xlink:href="#IBMPlexSans-28" transform="translate(186.699966 0)"/>
      <use xlink:href="#IBMPlexSans-31" transform="translate(220.199951 0)"/>
      <use xlink:href="#IBMPlexSans-32" transform="translate(280.199936 0)"/>
      <use xlink:href="#IBMPlexSans-35" transform="translate(340.199921 0)"/>
      <use xlink:href="#IBMPlexSans-25" transform="translate(400.199905 0)"/>
      <use xlink:href="#IBMPlexSans-29" transform="translate(492.899887 0)"/>
      <use xlink:href="#IBMPlexSans-20" transform="translate(526.399872 0)"/>
      <use xlink:href="#IBMPlexSans-77" transform="translate(549.999863 0)"/>
      <use xlink:href="#IBMPlexSans-65" transform="translate(626.79985 0)"/>
      <use xlink:href="#IBMPlexSans-69" transform="translate(681.699844 0)"/>
      <use xlink:href="#IBMPlexSans-67" transform="translate(706.699829 0)"/>
      <use xlink:href="#IBMPlexSans-68" transform="translate(759.499817 0)"/>
      <use xlink:href="#IBMPlexSans-74" transform="translate(816.299805 0)"/>
     </g>
    </g>
   </g>
   <g id="line2d_11">
    <path d="M 58.426744 122.627951 
L 67.323216 122.409797 
L 76.219689 122.202854 
L 85.116161 121.994066 
L 94.012633 121.65632 
L 102.909105 121.212492 
L 111.805577 120.61034 
L 120.702049 119.922342 
L 129.598521 119.200797 
L 138.494994 118.41119 
L 147.391466 117.268182 
L 156.287938 115.629826 
L 165.18441 113.277396 
L 174.080882 110.104291 
L 182.977354 106.254906 
L 191.873826 102.242603 
L 200.770299 98.155593 
L 209.666771 93.690258 
L 218.563243 88.177706 
L 227.459715 81.728625 
L 236.356187 71.530229 
L 245.252659 53.06083 
L 254.149131 12.696569 
" clip-path="url(#p7cb6668f11)" style="fill: none; stroke: #ff7f0e; stroke-width: 1.5; stroke-linecap: square"/>
   </g>
   <g id="patch_3">
    <path d="M 48.640625 128.12452 
L 48.640625 7.2 
" style="fill: none; stroke: #000000; stroke-width: 0.8; stroke-linejoin: miter; stroke-linecap: square"/>
   </g>
   <g id="patch_4">
    <path d="M 48.640625 128.12452 
L 263.935251 128.12452 
" style="fill: none; stroke: #000000; stroke-width: 0.8; stroke-linejoin: miter; stroke-linecap: square"/>
   </g>
  </g>
  <g id="axes_2">
   <g id="patch_5">
    <path d="M 318.580469 128.12452 
L 533.875095 128.12452 
L 533.875095 7.2 
L 318.580469 7.2 
z
" style="fill: #ffffff"/>
   </g>
   <g id="FillBetweenPolyCollection_1">
    <defs>
     <path id="m335739b4f2" d="M 328.366588 -288.880753 
L 328.366588 -189.521569 
L 337.26306 -191.732513 
L 346.159532 -194.292812 
L 355.056005 -196.948873 
L 363.952477 -199.767329 
L 372.848949 -202.787397 
L 381.745421 -205.717506 
L 390.641893 -208.406635 
L 399.538365 -210.755507 
L 408.434837 -212.901163 
L 417.33131 -214.588321 
L 426.227782 -215.955791 
L 435.124254 -217.036208 
L 444.020726 -217.998538 
L 452.917198 -218.746756 
L 461.81367 -219.310677 
L 470.710142 -219.638279 
L 479.606615 -219.912269 
L 488.503087 -220.27199 
L 497.399559 -220.5981 
L 506.296031 -221.068772 
L 515.192503 -221.696632 
L 524.088975 -222.480452 
L 524.088975 -295.519944 
L 524.088975 -295.519944 
L 515.192503 -295.454321 
L 506.296031 -295.603077 
L 497.399559 -295.968115 
L 488.503087 -296.535314 
L 479.606615 -297.118026 
L 470.710142 -297.827056 
L 461.81367 -298.513081 
L 452.917198 -298.98668 
L 444.020726 -299.299843 
L 435.124254 -299.424523 
L 426.227782 -299.452951 
L 417.33131 -299.209339 
L 408.434837 -298.650422 
L 399.538365 -297.641814 
L 390.641893 -296.457966 
L 381.745421 -294.974405 
L 372.848949 -293.342975 
L 363.952477 -291.735939 
L 355.056005 -290.484333 
L 346.159532 -289.571771 
L 337.26306 -288.93343 
L 328.366588 -288.880753 
z
"/>
    </defs>
    <g clip-path="url(#p8186dd0344)">
     <use xlink:href="#m335739b4f2" x="0" y="312.14952" style="fill: #d62728; fill-opacity: 0.3"/>
    </g>
   </g>
   <g id="PathCollection_1">
    <defs>
     <path id="C0_0_fe60391a0e" d="M 0 2.738613 
C 0.726289 2.738613 1.422928 2.450055 1.936492 1.936492 
C 2.450055 1.422928 2.738613 0.726289 2.738613 -0 
C 2.738613 -0.726289 2.450055 -1.422928 1.936492 -1.936492 
C 1.422928 -2.450055 0.726289 -2.738613 0 -2.738613 
C -0.726289 -2.738613 -1.422928 -2.450055 -1.936492 -1.936492 
C -2.450055 -1.422928 -2.738613 -0.726289 -2.738613 0 
C -2.738613 0.726289 -2.450055 1.422928 -1.936492 1.936492 
C -1.422928 2.450055 -0.726289 2.738613 0 2.738613 
z
"/>
    </defs>
    <g clip-path="url(#p8186dd0344)">
     <use xlink:href="#C0_0_fe60391a0e" x="337.26306" y="71.816548" style="fill: #fefefe"/>
    </g>
    <g clip-path="url(#p8186dd0344)">
     <use xlink:href="#C0_0_fe60391a0e" x="346.159532" y="70.217229" style="fill: #fefefe"/>
    </g>
    <g clip-path="url(#p8186dd0344)">
     <use xlink:href="#C0_0_fe60391a0e" x="355.056005" y="68.432917" style="fill: #fefefe"/>
    </g>
    <g clip-path="url(#p8186dd0344)">
     <use xlink:href="#C0_0_fe60391a0e" x="363.952477" y="66.397886" style="fill: #fdfdfd"/>
    </g>
    <g clip-path="url(#p8186dd0344)">
     <use xlink:href="#C0_0_fe60391a0e" x="372.848949" y="64.084334" style="fill: #fdfdfd"/>
    </g>
    <g clip-path="url(#p8186dd0344)">
     <use xlink:href="#C0_0_fe60391a0e" x="381.745421" y="61.803564" style="fill: #fcfcfc"/>
    </g>
    <g clip-path="url(#p8186dd0344)">
     <use xlink:href="#C0_0_fe60391a0e" x="390.641893" y="59.717219" style="fill: #fbfbfb"/>
    </g>
    <g clip-path="url(#p8186dd0344)">
     <use xlink:href="#C0_0_fe60391a0e" x="399.538365" y="57.95086" style="fill: #fafafa"/>
    </g>
    <g clip-path="url(#p8186dd0344)">
     <use xlink:href="#C0_0_fe60391a0e" x="408.434837" y="56.373728" style="fill: #f9f9f9"/>
    </g>
    <g clip-path="url(#p8186dd0344)">
     <use xlink:href="#C0_0_fe60391a0e" x="417.33131" y="55.25069" style="fill: #f8f8f8"/>
    </g>
    <g clip-path="url(#p8186dd0344)">
     <use xlink:href="#C0_0_fe60391a0e" x="426.227782" y="54.445149" style="fill: #f7f7f7"/>
    </g>
    <g clip-path="url(#p8186dd0344)">
     <use xlink:href="#C0_0_fe60391a0e" x="435.124254" y="53.919155" style="fill: #f4f4f4"/>
    </g>
    <g clip-path="url(#p8186dd0344)">
     <use xlink:href="#C0_0_fe60391a0e" x="444.020726" y="53.50033" style="fill: #f0f0f0"/>
    </g>
    <g clip-path="url(#p8186dd0344)">
     <use xlink:href="#C0_0_fe60391a0e" x="452.917198" y="53.282802" style="fill: #eaeaea"/>
    </g>
    <g clip-path="url(#p8186dd0344)">
     <use xlink:href="#C0_0_fe60391a0e" x="461.81367" y="53.237641" style="fill: #e4e4e4"/>
    </g>
    <g clip-path="url(#p8186dd0344)">
     <use xlink:href="#C0_0_fe60391a0e" x="470.710142" y="53.416852" style="fill: #dddddd"/>
    </g>
    <g clip-path="url(#p8186dd0344)">
     <use xlink:href="#C0_0_fe60391a0e" x="479.606615" y="53.634372" style="fill: #d4d4d4"/>
    </g>
    <g clip-path="url(#p8186dd0344)">
     <use xlink:href="#C0_0_fe60391a0e" x="488.503087" y="53.745868" style="fill: #cacaca"/>
    </g>
    <g clip-path="url(#p8186dd0344)">
     <use xlink:href="#C0_0_fe60391a0e" x="497.399559" y="53.866412" style="fill: #bdbdbd"/>
    </g>
    <g clip-path="url(#p8186dd0344)">
     <use xlink:href="#C0_0_fe60391a0e" x="506.296031" y="53.813595" style="fill: #9f9f9f"/>
    </g>
    <g clip-path="url(#p8186dd0344)">
     <use xlink:href="#C0_0_fe60391a0e" x="515.192503" y="53.574044" style="fill: #707070"/>
    </g>
    <g clip-path="url(#p8186dd0344)">
     <use xlink:href="#C0_0_fe60391a0e" x="524.088975" y="53.149322"/>
    </g>
   </g>
   <g id="matplotlib.axis_3">
    <g id="xtick_6">
     <g id="line2d_12">
      <g>
       <use xlink:href="#mfaf85795bc" x="366.617774" y="128.12452" style="stroke: #000000; stroke-width: 0.8"/>
      </g>
     </g>
     <g id="text_10">
      <!-- $\mathdefault{10^{-2}}$ -->
      <g transform="translate(356.217774 142.52452) scale(0.1 -0.1)">
       <use xlink:href="#IBMPlexSans-31" transform="translate(0 0.184375)"/>
       <use xlink:href="#IBMPlexSans-30" transform="translate(59.999985 0.184375)"/>
       <use xlink:href="#IBMPlexSans-2212" transform="translate(120.90286 36.3) scale(0.7)"/>
       <use xlink:href="#IBMPlexSans-32" transform="translate(162.902849 36.3) scale(0.7)"/>
      </g>
     </g>
    </g>
    <g id="xtick_7">
     <g id="line2d_13">
      <g>
       <use xlink:href="#md2e35bf971" x="334.854728" y="128.12452" style="stroke: #000000; stroke-width: 0.6"/>
      </g>
     </g>
    </g>
    <g id="xtick_8">
     <g id="line2d_14">
      <g>
       <use xlink:href="#md2e35bf971" x="351.620383" y="128.12452" style="stroke: #000000; stroke-width: 0.6"/>
      </g>
     </g>
    </g>
    <g id="xtick_9">
     <g id="line2d_15">
      <g>
       <use xlink:href="#md2e35bf971" x="465.282807" y="128.12452" style="stroke: #000000; stroke-width: 0.6"/>
      </g>
     </g>
     <g id="text_11">
      <!-- $\mathdefault{2\times10^{-2}}$ -->
      <g transform="translate(446.932807 140.92452) scale(0.1 -0.1)">
       <use xlink:href="#IBMPlexSans-32" transform="translate(0 0.184375)"/>
       <use xlink:href="#IBMPlexSans-d7" transform="translate(79.482407 0.184375)"/>
       <use xlink:href="#IBMPlexSans-31" transform="translate(158.964813 0.184375)"/>
       <use xlink:href="#IBMPlexSans-30" transform="translate(218.964798 0.184375)"/>
       <use xlink:href="#IBMPlexSans-2212" transform="translate(279.867673 36.3) scale(0.7)"/>
       <use xlink:href="#IBMPlexSans-32" transform="translate(321.867663 36.3) scale(0.7)"/>
      </g>
     </g>
    </g>
    <g id="xtick_10">
     <g id="line2d_16">
      <g>
       <use xlink:href="#md2e35bf971" x="522.998152" y="128.12452" style="stroke: #000000; stroke-width: 0.6"/>
      </g>
     </g>
     <g id="text_12">
      <!-- $\mathdefault{3\times10^{-2}}$ -->
      <g transform="translate(504.648152 140.92452) scale(0.1 -0.1)">
       <use xlink:href="#IBMPlexSans-33" transform="translate(0 0.184375)"/>
       <use xlink:href="#IBMPlexSans-d7" transform="translate(79.482407 0.184375)"/>
       <use xlink:href="#IBMPlexSans-31" transform="translate(158.964813 0.184375)"/>
       <use xlink:href="#IBMPlexSans-30" transform="translate(218.964798 0.184375)"/>
       <use xlink:href="#IBMPlexSans-2212" transform="translate(279.867673 36.3) scale(0.7)"/>
       <use xlink:href="#IBMPlexSans-32" transform="translate(321.867663 36.3) scale(0.7)"/>
      </g>
     </g>
    </g>
   </g>
   <g id="matplotlib.axis_4">
    <g id="ytick_6">
     <g id="line2d_17">
      <g>
       <use xlink:href="#m60d78a53fa" x="318.580469" y="106.703965" style="stroke: #000000; stroke-width: 0.8"/>
      </g>
     </g>
     <g id="text_13">
      <!-- 0.98 -->
      <g transform="translate(290.860156 110.403965) scale(0.1 -0.1)">
       <defs>
        <path id="IBMPlexSans-39" d="M 3411 2829 
C 3411 3891 2842 4544 1914 4544 
C 1018 4544 429 3942 429 3066 
C 429 2221 979 1690 1747 1690 
C 2291 1690 2611 1965 2822 2330 
L 2854 2317 
C 2611 1280 2080 698 1126 0 
L 1818 0 
C 2534 467 3411 1504 3411 2829 
z
M 1920 2144 
C 1331 2144 986 2483 986 3085 
L 986 3136 
C 986 3738 1331 4077 1920 4077 
C 2509 4077 2854 3738 2854 3136 
L 2854 3085 
C 2854 2483 2509 2144 1920 2144 
z
" transform="scale(0.015625)"/>
        <path id="IBMPlexSans-38" d="M 1920 -77 
C 2938 -77 3469 480 3469 1216 
C 3469 1824 3104 2176 2566 2323 
L 2566 2374 
C 3034 2534 3334 2912 3334 3424 
C 3334 4102 2810 4544 1920 4544 
C 1030 4544 506 4102 506 3424 
C 506 2912 806 2534 1274 2374 
L 1274 2323 
C 736 2176 371 1824 371 1216 
C 371 480 902 -77 1920 -77 
z
M 1920 390 
C 1299 390 941 685 941 1190 
L 941 1325 
C 941 1830 1299 2125 1920 2125 
C 2541 2125 2899 1830 2899 1325 
L 2899 1190 
C 2899 685 2541 390 1920 390 
z
M 1920 2573 
C 1363 2573 1062 2822 1062 3277 
L 1062 3373 
C 1062 3827 1363 4077 1920 4077 
C 2477 4077 2778 3827 2778 3373 
L 2778 3277 
C 2778 2822 2477 2573 1920 2573 
z
" transform="scale(0.015625)"/>
       </defs>
       <use xlink:href="#IBMPlexSans-30"/>
       <use xlink:href="#IBMPlexSans-2e" transform="translate(59.999985 0)"/>
       <use xlink:href="#IBMPlexSans-39" transform="translate(87.199982 0)"/>
       <use xlink:href="#IBMPlexSans-38" transform="translate(147.199966 0)"/>
      </g>
     </g>
    </g>
    <g id="ytick_7">
     <g id="line2d_18">
      <g>
       <use xlink:href="#m60d78a53fa" x="318.580469" y="67.373056" style="stroke: #000000; stroke-width: 0.8"/>
      </g>
     </g>
     <g id="text_14">
      <!-- 1.00 -->
      <g transform="translate(290.860156 71.073056) scale(0.1 -0.1)">
       <use xlink:href="#IBMPlexSans-31"/>
       <use xlink:href="#IBMPlexSans-2e" transform="translate(59.999985 0)"/>
       <use xlink:href="#IBMPlexSans-30" transform="translate(87.199982 0)"/>
       <use xlink:href="#IBMPlexSans-30" transform="translate(147.199966 0)"/>
      </g>
     </g>
    </g>
    <g id="ytick_8">
     <g id="line2d_19">
      <g>
       <use xlink:href="#m60d78a53fa" x="318.580469" y="28.042146" style="stroke: #000000; stroke-width: 0.8"/>
      </g>
     </g>
     <g id="text_15">
      <!-- 1.02 -->
      <g transform="translate(290.860156 31.742146) scale(0.1 -0.1)">
       <use xlink:href="#IBMPlexSans-31"/>
       <use xlink:href="#IBMPlexSans-2e" transform="translate(59.999985 0)"/>
       <use xlink:href="#IBMPlexSans-30" transform="translate(87.199982 0)"/>
       <use xlink:href="#IBMPlexSans-32" transform="translate(147.199966 0)"/>
      </g>
     </g>
    </g>
    <g id="text_16">
     <!-- $\mathcal{I}$ (95% CI) -->
     <g transform="translate(284.860156 92.01226) rotate(-90) scale(0.1 -0.1)">
      <defs>
       <path id="STIXNonUnicode-Italic-e235" d="M 3782 4237 
L 3744 4083 
Q 3482 4083 3347 4067 
Q 3213 4051 3069 3977 
Q 2925 3904 2838 3753 
Q 2752 3603 2675 3334 
L 1920 710 
Q 1901 634 1901 557 
Q 1901 352 2208 352 
Q 2790 352 3283 819 
L 3398 698 
Q 3008 320 2566 160 
Q 2125 0 1549 0 
L 243 0 
L 282 154 
Q 467 154 556 160 
Q 646 166 777 201 
Q 909 237 982 310 
Q 1056 384 1139 521 
Q 1222 659 1280 870 
L 1946 3187 
Q 2061 3590 2061 3674 
Q 2061 3878 1754 3878 
Q 1523 3878 1203 3750 
Q 883 3622 678 3411 
L 570 3533 
Q 947 3904 1385 4070 
Q 1824 4237 2579 4237 
L 3782 4237 
z
" transform="scale(0.015625)"/>
       <path id="IBMPlexSans-43" d="M 2170 -77 
C 2912 -77 3456 314 3738 941 
L 3309 1210 
C 3130 723 2739 403 2170 403 
C 1402 403 947 960 947 1875 
L 947 2541 
C 947 3456 1402 4064 2170 4064 
C 2720 4064 3091 3763 3270 3302 
L 3706 3565 
C 3424 4186 2912 4544 2170 4544 
C 1043 4544 371 3699 371 2208 
C 371 717 1043 -77 2170 -77 
z
" transform="scale(0.015625)"/>
       <path id="IBMPlexSans-49" d="M 2176 0 
L 2176 448 
L 1549 448 
L 1549 4019 
L 2176 4019 
L 2176 4467 
L 384 4467 
L 384 4019 
L 1011 4019 
L 1011 448 
L 384 448 
L 384 0 
L 2176 0 
z
" transform="scale(0.015625)"/>
      </defs>
      <use xlink:href="#STIXNonUnicode-Italic-e235"/>
      <use xlink:href="#IBMPlexSans-20" transform="translate(57.499985 0)"/>
      <use xlink:href="#IBMPlexSans-28" transform="translate(81.099976 0)"/>
      <use xlink:href="#IBMPlexSans-39" transform="translate(114.59996 0)"/>
      <use xlink:href="#IBMPlexSans-35" transform="translate(174.599945 0)"/>
      <use xlink:href="#IBMPlexSans-25" transform="translate(234.59993 0)"/>
      <use xlink:href="#IBMPlexSans-20" transform="translate(327.299911 0)"/>
      <use xlink:href="#IBMPlexSans-43" transform="translate(350.899902 0)"/>
      <use xlink:href="#IBMPlexSans-49" transform="translate(412.999893 0)"/>
      <use xlink:href="#IBMPlexSans-29" transform="translate(452.999878 0)"/>
     </g>
    </g>
   </g>
   <g id="line2d_20">
    <path d="M 328.366588 72.948359 
L 337.26306 71.816548 
L 346.159532 70.217229 
L 355.056005 68.432917 
L 363.952477 66.397886 
L 372.848949 64.084334 
L 381.745421 61.803564 
L 390.641893 59.717219 
L 399.538365 57.95086 
L 408.434837 56.373728 
L 417.33131 55.25069 
L 426.227782 54.445149 
L 435.124254 53.919155 
L 444.020726 53.50033 
L 452.917198 53.282802 
L 461.81367 53.237641 
L 470.710142 53.416852 
L 479.606615 53.634372 
L 488.503087 53.745868 
L 497.399559 53.866412 
L 506.296031 53.813595 
L 515.192503 53.574044 
L 524.088975 53.149322 
" clip-path="url(#p8186dd0344)" style="fill: none; stroke: #d62728; stroke-width: 1.5; stroke-linecap: square"/>
   </g>
   <g id="patch_6">
    <path d="M 318.580469 128.12452 
L 318.580469 7.2 
" style="fill: none; stroke: #000000; stroke-width: 0.8; stroke-linejoin: miter; stroke-linecap: square"/>
   </g>
   <g id="patch_7">
    <path d="M 318.580469 128.12452 
L 533.875095 128.12452 
" style="fill: none; stroke: #000000; stroke-width: 0.8; stroke-linejoin: miter; stroke-linecap: square"/>
   </g>
  </g>
  <g id="axes_3">
   <g id="patch_8">
    <path d="M 48.640625 275.14952 
L 263.935251 275.14952 
L 263.935251 154.225 
L 48.640625 154.225 
z
" style="fill: #ffffff"/>
   </g>
   <g id="matplotlib.axis_5">
    <g id="xtick_11">
     <g id="line2d_21">
      <g>
       <use xlink:href="#mfaf85795bc" x="96.67793" y="275.14952" style="stroke: #000000; stroke-width: 0.8"/>
      </g>
     </g>
     <g id="text_17">
      <!-- $\mathdefault{10^{-2}}$ -->
      <g transform="translate(86.27793 289.54952) scale(0.1 -0.1)">
       <use xlink:href="#IBMPlexSans-31" transform="translate(0 0.184375)"/>
       <use xlink:href="#IBMPlexSans-30" transform="translate(59.999985 0.184375)"/>
       <use xlink:href="#IBMPlexSans-2212" transform="translate(120.90286 36.3) scale(0.7)"/>
       <use xlink:href="#IBMPlexSans-32" transform="translate(162.902849 36.3) scale(0.7)"/>
      </g>
     </g>
    </g>
    <g id="xtick_12">
     <g id="line2d_22">
      <g>
       <use xlink:href="#md2e35bf971" x="64.914884" y="275.14952" style="stroke: #000000; stroke-width: 0.6"/>
      </g>
     </g>
    </g>
    <g id="xtick_13">
     <g id="line2d_23">
      <g>
       <use xlink:href="#md2e35bf971" x="81.68054" y="275.14952" style="stroke: #000000; stroke-width: 0.6"/>
      </g>
     </g>
    </g>
    <g id="xtick_14">
     <g id="line2d_24">
      <g>
       <use xlink:href="#md2e35bf971" x="195.342963" y="275.14952" style="stroke: #000000; stroke-width: 0.6"/>
      </g>
     </g>
     <g id="text_18">
      <!-- $\mathdefault{2\times10^{-2}}$ -->
      <g transform="translate(176.992963 287.94952) scale(0.1 -0.1)">
       <use xlink:href="#IBMPlexSans-32" transform="translate(0 0.184375)"/>
       <use xlink:href="#IBMPlexSans-d7" transform="translate(79.482407 0.184375)"/>
       <use xlink:href="#IBMPlexSans-31" transform="translate(158.964813 0.184375)"/>
       <use xlink:href="#IBMPlexSans-30" transform="translate(218.964798 0.184375)"/>
       <use xlink:href="#IBMPlexSans-2212" transform="translate(279.867673 36.3) scale(0.7)"/>
       <use xlink:href="#IBMPlexSans-32" transform="translate(321.867663 36.3) scale(0.7)"/>
      </g>
     </g>
    </g>
    <g id="xtick_15">
     <g id="line2d_25">
      <g>
       <use xlink:href="#md2e35bf971" x="253.058308" y="275.14952" style="stroke: #000000; stroke-width: 0.6"/>
      </g>
     </g>
     <g id="text_19">
      <!-- $\mathdefault{3\times10^{-2}}$ -->
      <g transform="translate(234.708308 287.94952) scale(0.1 -0.1)">
       <use xlink:href="#IBMPlexSans-33" transform="translate(0 0.184375)"/>
       <use xlink:href="#IBMPlexSans-d7" transform="translate(79.482407 0.184375)"/>
       <use xlink:href="#IBMPlexSans-31" transform="translate(158.964813 0.184375)"/>
       <use xlink:href="#IBMPlexSans-30" transform="translate(218.964798 0.184375)"/>
       <use xlink:href="#IBMPlexSans-2212" transform="translate(279.867673 36.3) scale(0.7)"/>
       <use xlink:href="#IBMPlexSans-32" transform="translate(321.867663 36.3) scale(0.7)"/>
      </g>
     </g>
    </g>
    <g id="text_20">
     <!-- Cutoff frequency -->
     <g transform="translate(118.832469 302.94952) scale(0.1 -0.1)">
      <defs>
       <path id="IBMPlexSans-75" d="M 2579 0 
L 3091 0 
L 3091 3302 
L 2579 3302 
L 2579 1018 
C 2579 582 2182 384 1779 384 
C 1286 384 1024 685 1024 1274 
L 1024 3302 
L 512 3302 
L 512 1184 
C 512 384 947 -77 1626 -77 
C 2176 -77 2426 224 2554 538 
L 2579 538 
L 2579 0 
z
" transform="scale(0.015625)"/>
       <path id="IBMPlexSans-6f" d="M 1792 -77 
C 2675 -77 3283 602 3283 1651 
C 3283 2701 2675 3379 1792 3379 
C 909 3379 301 2701 301 1651 
C 301 602 909 -77 1792 -77 
z
M 1792 378 
C 1242 378 851 717 851 1414 
L 851 1888 
C 851 2586 1242 2925 1792 2925 
C 2342 2925 2733 2586 2733 1888 
L 2733 1414 
C 2733 717 2342 378 1792 378 
z
" transform="scale(0.015625)"/>
       <path id="IBMPlexSans-66" d="M 723 0 
L 1235 0 
L 1235 2854 
L 1946 2854 
L 1946 3302 
L 1235 3302 
L 1235 4288 
L 1946 4288 
L 1946 4736 
L 1446 4736 
C 960 4736 723 4422 723 3968 
L 723 3302 
L 186 3302 
L 186 2854 
L 723 2854 
L 723 0 
z
" transform="scale(0.015625)"/>
       <path id="IBMPlexSans-72" d="M 1056 0 
L 1056 2240 
C 1056 2554 1389 2790 1939 2790 
L 2240 2790 
L 2240 3302 
L 2042 3302 
C 1504 3302 1203 3008 1088 2694 
L 1056 2694 
L 1056 3302 
L 544 3302 
L 544 0 
L 1056 0 
z
" transform="scale(0.015625)"/>
       <path id="IBMPlexSans-71" d="M 2656 -1280 
L 3168 -1280 
L 3168 3302 
L 2656 3302 
L 2656 2765 
L 2630 2765 
C 2458 3181 2118 3379 1664 3379 
C 838 3379 320 2707 320 1651 
C 320 595 838 -77 1664 -77 
C 2118 -77 2432 128 2630 538 
L 2656 538 
L 2656 -1280 
z
M 1805 384 
C 1229 384 870 781 870 1370 
L 870 1933 
C 870 2522 1229 2918 1805 2918 
C 2272 2918 2656 2650 2656 2285 
L 2656 1056 
C 2656 627 2272 384 1805 384 
z
" transform="scale(0.015625)"/>
       <path id="IBMPlexSans-6e" d="M 1056 0 
L 1056 2291 
C 1056 2714 1453 2918 1862 2918 
C 2355 2918 2611 2618 2611 2029 
L 2611 0 
L 3123 0 
L 3123 2118 
C 3123 2918 2694 3379 2016 3379 
C 1523 3379 1242 3136 1082 2765 
L 1056 2765 
L 1056 3302 
L 544 3302 
L 544 0 
L 1056 0 
z
" transform="scale(0.015625)"/>
       <path id="IBMPlexSans-79" d="M 1779 1056 
L 1600 518 
L 1568 518 
L 1414 1056 
L 621 3302 
L 109 3302 
L 1344 -128 
L 1094 -832 
L 576 -832 
L 576 -1280 
L 838 -1280 
C 1325 -1280 1459 -1165 1606 -768 
L 3085 3302 
L 2579 3302 
L 1779 1056 
z
" transform="scale(0.015625)"/>
      </defs>
      <use xlink:href="#IBMPlexSans-43"/>
      <use xlink:href="#IBMPlexSans-75" transform="translate(62.099991 0)"/>
      <use xlink:href="#IBMPlexSans-74" transform="translate(118.899979 0)"/>
      <use xlink:href="#IBMPlexSans-6f" transform="translate(153.999969 0)"/>
      <use xlink:href="#IBMPlexSans-66" transform="translate(209.999954 0)"/>
      <use xlink:href="#IBMPlexSans-66" transform="translate(242.399948 0)"/>
      <use xlink:href="#IBMPlexSans-20" transform="translate(274.799942 0)"/>
      <use xlink:href="#IBMPlexSans-66" transform="translate(298.399933 0)"/>
      <use xlink:href="#IBMPlexSans-72" transform="translate(330.799927 0)"/>
      <use xlink:href="#IBMPlexSans-65" transform="translate(367.499924 0)"/>
      <use xlink:href="#IBMPlexSans-71" transform="translate(422.399918 0)"/>
      <use xlink:href="#IBMPlexSans-75" transform="translate(480.399902 0)"/>
      <use xlink:href="#IBMPlexSans-65" transform="translate(537.19989 0)"/>
      <use xlink:href="#IBMPlexSans-6e" transform="translate(592.099884 0)"/>
      <use xlink:href="#IBMPlexSans-63" transform="translate(648.899872 0)"/>
      <use xlink:href="#IBMPlexSans-79" transform="translate(699.19986 0)"/>
     </g>
    </g>
   </g>
   <g id="matplotlib.axis_6">
    <g id="ytick_9">
     <g id="line2d_26">
      <g>
       <use xlink:href="#m60d78a53fa" x="48.640625" y="270.498577" style="stroke: #000000; stroke-width: 0.8"/>
      </g>
     </g>
     <g id="text_21">
      <!-- −1 -->
      <g transform="translate(29.640625 274.198577) scale(0.1 -0.1)">
       <use xlink:href="#IBMPlexSans-2212"/>
       <use xlink:href="#IBMPlexSans-31" transform="translate(59.999985 0)"/>
      </g>
     </g>
    </g>
    <g id="ytick_10">
     <g id="line2d_27">
      <g>
       <use xlink:href="#m60d78a53fa" x="48.640625" y="247.243862" style="stroke: #000000; stroke-width: 0.8"/>
      </g>
     </g>
     <g id="text_22">
      <!-- 0 -->
      <g transform="translate(35.640625 250.943862) scale(0.1 -0.1)">
       <use xlink:href="#IBMPlexSans-30"/>
      </g>
     </g>
    </g>
    <g id="ytick_11">
     <g id="line2d_28">
      <g>
       <use xlink:href="#m60d78a53fa" x="48.640625" y="223.989146" style="stroke: #000000; stroke-width: 0.8"/>
      </g>
     </g>
     <g id="text_23">
      <!-- 1 -->
      <g transform="translate(35.640625 227.689146) scale(0.1 -0.1)">
       <use xlink:href="#IBMPlexSans-31"/>
      </g>
     </g>
    </g>
    <g id="ytick_12">
     <g id="line2d_29">
      <g>
       <use xlink:href="#m60d78a53fa" x="48.640625" y="200.734431" style="stroke: #000000; stroke-width: 0.8"/>
      </g>
     </g>
     <g id="text_24">
      <!-- 2 -->
      <g transform="translate(35.640625 204.434431) scale(0.1 -0.1)">
       <use xlink:href="#IBMPlexSans-32"/>
      </g>
     </g>
    </g>
    <g id="ytick_13">
     <g id="line2d_30">
      <g>
       <use xlink:href="#m60d78a53fa" x="48.640625" y="177.479715" style="stroke: #000000; stroke-width: 0.8"/>
      </g>
     </g>
     <g id="text_25">
      <!-- 3 -->
      <g transform="translate(35.640625 181.179715) scale(0.1 -0.1)">
       <use xlink:href="#IBMPlexSans-33"/>
      </g>
     </g>
    </g>
    <g id="ytick_14">
     <g id="line2d_31">
      <g>
       <use xlink:href="#m60d78a53fa" x="48.640625" y="154.225" style="stroke: #000000; stroke-width: 0.8"/>
      </g>
     </g>
     <g id="text_26">
      <!-- 4 -->
      <g transform="translate(35.640625 157.925) scale(0.1 -0.1)">
       <defs>
        <path id="IBMPlexSans-34" d="M 2912 0 
L 2912 877 
L 3558 877 
L 3558 1325 
L 2912 1325 
L 2912 4467 
L 2112 4467 
L 243 1350 
L 243 877 
L 2400 877 
L 2400 0 
L 2912 0 
z
M 2368 4051 
L 2400 4051 
L 2400 1325 
L 749 1325 
L 2368 4051 
z
" transform="scale(0.015625)"/>
       </defs>
       <use xlink:href="#IBMPlexSans-34"/>
      </g>
     </g>
    </g>
    <g id="text_27">
     <!-- Z-score -->
     <g transform="translate(23.640625 231.913041) rotate(-90) scale(0.1 -0.1)">
      <defs>
       <path id="IBMPlexSans-5a" d="M 3482 474 
L 806 474 
L 3392 3981 
L 3392 4467 
L 365 4467 
L 365 3994 
L 2810 3994 
L 230 486 
L 230 0 
L 3482 0 
L 3482 474 
z
" transform="scale(0.015625)"/>
       <path id="IBMPlexSans-2d" d="M 2112 1670 
L 2112 2221 
L 442 2221 
L 442 1670 
L 2112 1670 
z
" transform="scale(0.015625)"/>
       <path id="IBMPlexSans-73" d="M 1536 -77 
C 2291 -77 2758 314 2758 954 
C 2758 1453 2477 1773 1747 1882 
L 1491 1920 
C 1082 1984 858 2112 858 2432 
C 858 2746 1082 2944 1504 2944 
C 1926 2944 2208 2746 2355 2541 
L 2694 2848 
C 2426 3181 2074 3379 1542 3379 
C 870 3379 365 3059 365 2406 
C 365 1792 819 1542 1427 1453 
L 1690 1414 
C 2125 1350 2266 1152 2266 896 
C 2266 557 2010 358 1574 358 
C 1158 358 851 544 595 864 
L 230 570 
C 525 179 928 -77 1536 -77 
z
" transform="scale(0.015625)"/>
      </defs>
      <use xlink:href="#IBMPlexSans-5a"/>
      <use xlink:href="#IBMPlexSans-2d" transform="translate(57.999985 0)"/>
      <use xlink:href="#IBMPlexSans-73" transform="translate(97.899979 0)"/>
      <use xlink:href="#IBMPlexSans-63" transform="translate(146.599976 0)"/>
      <use xlink:href="#IBMPlexSans-6f" transform="translate(196.899963 0)"/>
      <use xlink:href="#IBMPlexSans-72" transform="translate(252.899948 0)"/>
      <use xlink:href="#IBMPlexSans-65" transform="translate(289.599945 0)"/>
     </g>
    </g>
   </g>
   <g id="line2d_32">
    <path d="M 58.426744 247.369926 
L 67.323216 246.23674 
L 76.219689 244.750314 
L 85.116161 243.057641 
L 94.012633 241.065333 
L 102.909105 238.707352 
L 111.805577 236.085712 
L 120.702049 233.454995 
L 129.598521 231.204225 
L 138.494994 229.644214 
L 147.391466 228.91485 
L 156.287938 228.911609 
L 165.18441 229.41659 
L 174.080882 230.126078 
L 182.977354 230.829734 
L 191.873826 231.375853 
L 200.770299 231.752137 
L 209.666771 231.961867 
L 218.563243 232.131005 
L 227.459715 232.503334 
L 236.356187 233.248119 
L 245.252659 234.547624 
L 254.149131 236.434998 
" clip-path="url(#pae1da15895)" style="fill: none; stroke: #1f77b4; stroke-width: 1.5; stroke-linecap: square"/>
   </g>
   <g id="line2d_33">
    <path d="M 58.426744 254.346568 
L 67.323216 252.363034 
L 76.219689 250.150683 
L 85.116161 247.757955 
L 94.012633 246.596746 
L 102.909105 246.073032 
L 111.805577 246.060791 
L 120.702049 245.837355 
L 129.598521 245.156467 
L 138.494994 244.342598 
L 147.391466 244.145718 
L 156.287938 244.563981 
L 165.18441 245.565676 
L 174.080882 246.854997 
L 182.977354 247.895588 
L 191.873826 248.207825 
L 200.770299 247.953557 
L 209.666771 247.544851 
L 218.563243 247.407193 
L 227.459715 247.322151 
L 236.356187 248.335826 
L 245.252659 251.115239 
L 254.149131 256.865109 
" clip-path="url(#pae1da15895)" style="fill: none; stroke: #2ca02c; stroke-width: 1.5; stroke-linecap: square"/>
   </g>
   <g id="line2d_34">
    <path d="M 48.640625 247.243862 
L 263.935251 247.243862 
" clip-path="url(#pae1da15895)" style="fill: none; stroke-dasharray: 5.55,2.4; stroke-dashoffset: 0; stroke: #000000; stroke-width: 1.5"/>
   </g>
   <g id="line2d_35">
    <path d="M 48.640625 200.734431 
L 263.935251 200.734431 
" clip-path="url(#pae1da15895)" style="fill: none; stroke-dasharray: 5.55,2.4; stroke-dashoffset: 0; stroke: #000000; stroke-width: 1.5"/>
   </g>
   <g id="patch_9">
    <path d="M 48.640625 275.14952 
L 48.640625 154.225 
" style="fill: none; stroke: #000000; stroke-width: 0.8; stroke-linejoin: miter; stroke-linecap: square"/>
   </g>
   <g id="patch_10">
    <path d="M 48.640625 275.14952 
L 263.935251 275.14952 
" style="fill: none; stroke: #000000; stroke-width: 0.8; stroke-linejoin: miter; stroke-linecap: square"/>
   </g>
   <g id="legend_1">
    <g id="patch_11">
     <path d="M 186.105563 191.025 
L 256.935251 191.025 
Q 258.935251 191.025 258.935251 189.025 
L 258.935251 161.225 
Q 258.935251 159.225 256.935251 159.225 
L 186.105563 159.225 
Q 184.105563 159.225 184.105563 161.225 
L 184.105563 189.025 
Q 184.105563 191.025 186.105563 191.025 
z
" style="fill: #ffffff; opacity: 0.8; stroke: #cccccc; stroke-linejoin: miter"/>
    </g>
    <g id="line2d_36">
     <path d="M 188.105563 167.125 
L 198.105563 167.125 
L 208.105563 167.125 
" style="fill: none; stroke: #1f77b4; stroke-width: 1.5; stroke-linecap: square"/>
    </g>
    <g id="text_28">
     <!-- Cost -->
     <g transform="translate(216.105563 170.625) scale(0.1 -0.1)">
      <use xlink:href="#IBMPlexSans-43"/>
      <use xlink:href="#IBMPlexSans-6f" transform="translate(62.099991 0)"/>
      <use xlink:href="#IBMPlexSans-73" transform="translate(118.099976 0)"/>
      <use xlink:href="#IBMPlexSans-74" transform="translate(166.799973 0)"/>
     </g>
    </g>
    <g id="line2d_37">
     <path d="M 188.105563 181.525 
L 198.105563 181.525 
L 208.105563 181.525 
" style="fill: none; stroke: #2ca02c; stroke-width: 1.5; stroke-linecap: square"/>
    </g>
    <g id="text_29">
     <!-- Criterion -->
     <g transform="translate(216.105563 185.025) scale(0.1 -0.1)">
      <use xlink:href="#IBMPlexSans-43"/>
      <use xlink:href="#IBMPlexSans-72" transform="translate(62.099991 0)"/>
      <use xlink:href="#IBMPlexSans-69" transform="translate(98.799988 0)"/>
      <use xlink:href="#IBMPlexSans-74" transform="translate(123.799973 0)"/>
      <use xlink:href="#IBMPlexSans-65" transform="translate(158.899963 0)"/>
      <use xlink:href="#IBMPlexSans-72" transform="translate(213.799957 0)"/>
      <use xlink:href="#IBMPlexSans-69" transform="translate(250.499954 0)"/>
      <use xlink:href="#IBMPlexSans-6f" transform="translate(275.499939 0)"/>
      <use xlink:href="#IBMPlexSans-6e" transform="translate(331.499924 0)"/>
     </g>
    </g>
   </g>
  </g>
  <g id="axes_4">
   <g id="patch_12">
    <path d="M 318.580469 275.14952 
L 533.875095 275.14952 
L 533.875095 154.225 
L 318.580469 154.225 
z
" style="fill: #ffffff"/>
   </g>
   <g id="PathCollection_2">
    <defs>
     <path id="C1_0_3f9d5e2b9c" d="M 0 2.738613 
C 0.726289 2.738613 1.422928 2.450055 1.936492 1.936492 
C 2.450055 1.422928 2.738613 0.726289 2.738613 -0 
C 2.738613 -0.726289 2.450055 -1.422928 1.936492 -1.936492 
C 1.422928 -2.450055 0.726289 -2.738613 0 -2.738613 
C -0.726289 -2.738613 -1.422928 -2.450055 -1.936492 -1.936492 
C -2.450055 -1.422928 -2.738613 -0.726289 -2.738613 0 
C -2.738613 0.726289 -2.450055 1.422928 -1.936492 1.936492 
C -1.422928 2.450055 -0.726289 2.738613 0 2.738613 
z
"/>
    </defs>
    <g clip-path="url(#p261ee9584b)">
     <use xlink:href="#C1_0_3f9d5e2b9c" x="337.26306" y="266.571446" style="fill: #fefefe"/>
    </g>
    <g clip-path="url(#p261ee9584b)">
     <use xlink:href="#C1_0_3f9d5e2b9c" x="346.159532" y="263.947927" style="fill: #fefefe"/>
    </g>
    <g clip-path="url(#p261ee9584b)">
     <use xlink:href="#C1_0_3f9d5e2b9c" x="355.056005" y="261.662282" style="fill: #fefefe"/>
    </g>
    <g clip-path="url(#p261ee9584b)">
     <use xlink:href="#C1_0_3f9d5e2b9c" x="363.952477" y="259.752864" style="fill: #fdfdfd"/>
    </g>
    <g clip-path="url(#p261ee9584b)">
     <use xlink:href="#C1_0_3f9d5e2b9c" x="372.848949" y="258.163044" style="fill: #fdfdfd"/>
    </g>
    <g clip-path="url(#p261ee9584b)">
     <use xlink:href="#C1_0_3f9d5e2b9c" x="381.745421" y="256.849322" style="fill: #fcfcfc"/>
    </g>
    <g clip-path="url(#p261ee9584b)">
     <use xlink:href="#C1_0_3f9d5e2b9c" x="390.641893" y="255.803704" style="fill: #fbfbfb"/>
    </g>
    <g clip-path="url(#p261ee9584b)">
     <use xlink:href="#C1_0_3f9d5e2b9c" x="399.538365" y="254.891934" style="fill: #fafafa"/>
    </g>
    <g clip-path="url(#p261ee9584b)">
     <use xlink:href="#C1_0_3f9d5e2b9c" x="408.434837" y="254.063375" style="fill: #f9f9f9"/>
    </g>
    <g clip-path="url(#p261ee9584b)">
     <use xlink:href="#C1_0_3f9d5e2b9c" x="417.33131" y="253.309345" style="fill: #f8f8f8"/>
    </g>
    <g clip-path="url(#p261ee9584b)">
     <use xlink:href="#C1_0_3f9d5e2b9c" x="426.227782" y="252.58835" style="fill: #f7f7f7"/>
    </g>
    <g clip-path="url(#p261ee9584b)">
     <use xlink:href="#C1_0_3f9d5e2b9c" x="435.124254" y="251.924981" style="fill: #f4f4f4"/>
    </g>
    <g clip-path="url(#p261ee9584b)">
     <use xlink:href="#C1_0_3f9d5e2b9c" x="444.020726" y="251.306481" style="fill: #f0f0f0"/>
    </g>
    <g clip-path="url(#p261ee9584b)">
     <use xlink:href="#C1_0_3f9d5e2b9c" x="452.917198" y="250.762881" style="fill: #eaeaea"/>
    </g>
    <g clip-path="url(#p261ee9584b)">
     <use xlink:href="#C1_0_3f9d5e2b9c" x="461.81367" y="250.285481" style="fill: #e4e4e4"/>
    </g>
    <g clip-path="url(#p261ee9584b)">
     <use xlink:href="#C1_0_3f9d5e2b9c" x="470.710142" y="249.885741" style="fill: #dddddd"/>
    </g>
    <g clip-path="url(#p261ee9584b)">
     <use xlink:href="#C1_0_3f9d5e2b9c" x="479.606615" y="249.552443" style="fill: #d4d4d4"/>
    </g>
    <g clip-path="url(#p261ee9584b)">
     <use xlink:href="#C1_0_3f9d5e2b9c" x="488.503087" y="249.291453" style="fill: #cacaca"/>
    </g>
    <g clip-path="url(#p261ee9584b)">
     <use xlink:href="#C1_0_3f9d5e2b9c" x="497.399559" y="249.148191" style="fill: #bdbdbd"/>
    </g>
    <g clip-path="url(#p261ee9584b)">
     <use xlink:href="#C1_0_3f9d5e2b9c" x="506.296031" y="249.117686" style="fill: #9f9f9f"/>
    </g>
    <g clip-path="url(#p261ee9584b)">
     <use xlink:href="#C1_0_3f9d5e2b9c" x="515.192503" y="249.20279" style="fill: #707070"/>
    </g>
    <g clip-path="url(#p261ee9584b)">
     <use xlink:href="#C1_0_3f9d5e2b9c" x="524.088975" y="249.4026"/>
    </g>
   </g>
   <g id="PathCollection_3">
    <defs>
     <path id="C2_0_163345caf4" d="M 0 2.738613 
C 0.726289 2.738613 1.422928 2.450055 1.936492 1.936492 
C 2.450055 1.422928 2.738613 0.726289 2.738613 -0 
C 2.738613 -0.726289 2.450055 -1.422928 1.936492 -1.936492 
C 1.422928 -2.450055 0.726289 -2.738613 0 -2.738613 
C -0.726289 -2.738613 -1.422928 -2.450055 -1.936492 -1.936492 
C -2.450055 -1.422928 -2.738613 -0.726289 -2.738613 0 
C -2.738613 0.726289 -2.450055 1.422928 -1.936492 1.936492 
C -1.422928 2.450055 -0.726289 2.738613 0 2.738613 
z
"/>
    </defs>
    <g clip-path="url(#p261ee9584b)">
     <use xlink:href="#C2_0_163345caf4" x="337.26306" y="205.766645" style="fill: #fefefe"/>
    </g>
    <g clip-path="url(#p261ee9584b)">
     <use xlink:href="#C2_0_163345caf4" x="346.159532" y="205.994464" style="fill: #fefefe"/>
    </g>
    <g clip-path="url(#p261ee9584b)">
     <use xlink:href="#C2_0_163345caf4" x="355.056005" y="206.218509" style="fill: #fefefe"/>
    </g>
    <g clip-path="url(#p261ee9584b)">
     <use xlink:href="#C2_0_163345caf4" x="363.952477" y="206.438432" style="fill: #fdfdfd"/>
    </g>
    <g clip-path="url(#p261ee9584b)">
     <use xlink:href="#C2_0_163345caf4" x="372.848949" y="206.644732" style="fill: #fdfdfd"/>
    </g>
    <g clip-path="url(#p261ee9584b)">
     <use xlink:href="#C2_0_163345caf4" x="381.745421" y="206.844799" style="fill: #fcfcfc"/>
    </g>
    <g clip-path="url(#p261ee9584b)">
     <use xlink:href="#C2_0_163345caf4" x="390.641893" y="207.045812" style="fill: #fbfbfb"/>
    </g>
    <g clip-path="url(#p261ee9584b)">
     <use xlink:href="#C2_0_163345caf4" x="399.538365" y="207.238876" style="fill: #fafafa"/>
    </g>
    <g clip-path="url(#p261ee9584b)">
     <use xlink:href="#C2_0_163345caf4" x="408.434837" y="207.41527" style="fill: #f9f9f9"/>
    </g>
    <g clip-path="url(#p261ee9584b)">
     <use xlink:href="#C2_0_163345caf4" x="417.33131" y="207.587006" style="fill: #f8f8f8"/>
    </g>
    <g clip-path="url(#p261ee9584b)">
     <use xlink:href="#C2_0_163345caf4" x="426.227782" y="207.743615" style="fill: #f7f7f7"/>
    </g>
    <g clip-path="url(#p261ee9584b)">
     <use xlink:href="#C2_0_163345caf4" x="435.124254" y="207.886678" style="fill: #f4f4f4"/>
    </g>
    <g clip-path="url(#p261ee9584b)">
     <use xlink:href="#C2_0_163345caf4" x="444.020726" y="208.003247" style="fill: #f0f0f0"/>
    </g>
    <g clip-path="url(#p261ee9584b)">
     <use xlink:href="#C2_0_163345caf4" x="452.917198" y="208.099375" style="fill: #eaeaea"/>
    </g>
    <g clip-path="url(#p261ee9584b)">
     <use xlink:href="#C2_0_163345caf4" x="461.81367" y="208.168894" style="fill: #e4e4e4"/>
    </g>
    <g clip-path="url(#p261ee9584b)">
     <use xlink:href="#C2_0_163345caf4" x="470.710142" y="208.21512" style="fill: #dddddd"/>
    </g>
    <g clip-path="url(#p261ee9584b)">
     <use xlink:href="#C2_0_163345caf4" x="479.606615" y="208.225821" style="fill: #d4d4d4"/>
    </g>
    <g clip-path="url(#p261ee9584b)">
     <use xlink:href="#C2_0_163345caf4" x="488.503087" y="208.194262" style="fill: #cacaca"/>
    </g>
    <g clip-path="url(#p261ee9584b)">
     <use xlink:href="#C2_0_163345caf4" x="497.399559" y="208.142027" style="fill: #bdbdbd"/>
    </g>
    <g clip-path="url(#p261ee9584b)">
     <use xlink:href="#C2_0_163345caf4" x="506.296031" y="208.062656" style="fill: #9f9f9f"/>
    </g>
    <g clip-path="url(#p261ee9584b)">
     <use xlink:href="#C2_0_163345caf4" x="515.192503" y="207.959984" style="fill: #707070"/>
    </g>
    <g clip-path="url(#p261ee9584b)">
     <use xlink:href="#C2_0_163345caf4" x="524.088975" y="207.839419"/>
    </g>
   </g>
   <g id="PathCollection_4">
    <defs>
     <path id="C3_0_a745479e5b" d="M 0 2.738613 
C 0.726289 2.738613 1.422928 2.450055 1.936492 1.936492 
C 2.450055 1.422928 2.738613 0.726289 2.738613 -0 
C 2.738613 -0.726289 2.450055 -1.422928 1.936492 -1.936492 
C 1.422928 -2.450055 0.726289 -2.738613 0 -2.738613 
C -0.726289 -2.738613 -1.422928 -2.450055 -1.936492 -1.936492 
C -2.450055 -1.422928 -2.738613 -0.726289 -2.738613 0 
C -2.738613 0.726289 -2.450055 1.422928 -1.936492 1.936492 
C -1.422928 2.450055 -0.726289 2.738613 0 2.738613 
z
"/>
    </defs>
    <g clip-path="url(#p261ee9584b)">
     <use xlink:href="#C3_0_a745479e5b" x="337.26306" y="159.789548" style="fill: #fefefe"/>
    </g>
    <g clip-path="url(#p261ee9584b)">
     <use xlink:href="#C3_0_a745479e5b" x="346.159532" y="159.788145" style="fill: #fefefe"/>
    </g>
    <g clip-path="url(#p261ee9584b)">
     <use xlink:href="#C3_0_a745479e5b" x="355.056005" y="159.786503" style="fill: #fefefe"/>
    </g>
    <g clip-path="url(#p261ee9584b)">
     <use xlink:href="#C3_0_a745479e5b" x="363.952477" y="159.783059" style="fill: #fdfdfd"/>
    </g>
    <g clip-path="url(#p261ee9584b)">
     <use xlink:href="#C3_0_a745479e5b" x="372.848949" y="159.778915" style="fill: #fdfdfd"/>
    </g>
    <g clip-path="url(#p261ee9584b)">
     <use xlink:href="#C3_0_a745479e5b" x="381.745421" y="159.772849" style="fill: #fcfcfc"/>
    </g>
    <g clip-path="url(#p261ee9584b)">
     <use xlink:href="#C3_0_a745479e5b" x="390.641893" y="159.763302" style="fill: #fbfbfb"/>
    </g>
    <g clip-path="url(#p261ee9584b)">
     <use xlink:href="#C3_0_a745479e5b" x="399.538365" y="159.753405" style="fill: #fafafa"/>
    </g>
    <g clip-path="url(#p261ee9584b)">
     <use xlink:href="#C3_0_a745479e5b" x="408.434837" y="159.745032" style="fill: #f9f9f9"/>
    </g>
    <g clip-path="url(#p261ee9584b)">
     <use xlink:href="#C3_0_a745479e5b" x="417.33131" y="159.736538" style="fill: #f8f8f8"/>
    </g>
    <g clip-path="url(#p261ee9584b)">
     <use xlink:href="#C3_0_a745479e5b" x="426.227782" y="159.730033" style="fill: #f7f7f7"/>
    </g>
    <g clip-path="url(#p261ee9584b)">
     <use xlink:href="#C3_0_a745479e5b" x="435.124254" y="159.724701" style="fill: #f4f4f4"/>
    </g>
    <g clip-path="url(#p261ee9584b)">
     <use xlink:href="#C3_0_a745479e5b" x="444.020726" y="159.722406" style="fill: #f0f0f0"/>
    </g>
    <g clip-path="url(#p261ee9584b)">
     <use xlink:href="#C3_0_a745479e5b" x="452.917198" y="159.721569" style="fill: #eaeaea"/>
    </g>
    <g clip-path="url(#p261ee9584b)">
     <use xlink:href="#C3_0_a745479e5b" x="461.81367" y="159.723059" style="fill: #e4e4e4"/>
    </g>
    <g clip-path="url(#p261ee9584b)">
     <use xlink:href="#C3_0_a745479e5b" x="470.710142" y="159.726063" style="fill: #dddddd"/>
    </g>
    <g clip-path="url(#p261ee9584b)">
     <use xlink:href="#C3_0_a745479e5b" x="479.606615" y="159.732343" style="fill: #d4d4d4"/>
    </g>
    <g clip-path="url(#p261ee9584b)">
     <use xlink:href="#C3_0_a745479e5b" x="488.503087" y="159.742579" style="fill: #cacaca"/>
    </g>
    <g clip-path="url(#p261ee9584b)">
     <use xlink:href="#C3_0_a745479e5b" x="497.399559" y="159.752824" style="fill: #bdbdbd"/>
    </g>
    <g clip-path="url(#p261ee9584b)">
     <use xlink:href="#C3_0_a745479e5b" x="506.296031" y="159.764019" style="fill: #9f9f9f"/>
    </g>
    <g clip-path="url(#p261ee9584b)">
     <use xlink:href="#C3_0_a745479e5b" x="515.192503" y="159.775613" style="fill: #707070"/>
    </g>
    <g clip-path="url(#p261ee9584b)">
     <use xlink:href="#C3_0_a745479e5b" x="524.088975" y="159.786976"/>
    </g>
   </g>
   <g id="matplotlib.axis_7">
    <g id="xtick_16">
     <g id="line2d_38">
      <g>
       <use xlink:href="#mfaf85795bc" x="366.617774" y="275.14952" style="stroke: #000000; stroke-width: 0.8"/>
      </g>
     </g>
     <g id="text_30">
      <!-- $\mathdefault{10^{-2}}$ -->
      <g transform="translate(356.217774 289.54952) scale(0.1 -0.1)">
       <use xlink:href="#IBMPlexSans-31" transform="translate(0 0.184375)"/>
       <use xlink:href="#IBMPlexSans-30" transform="translate(59.999985 0.184375)"/>
       <use xlink:href="#IBMPlexSans-2212" transform="translate(120.90286 36.3) scale(0.7)"/>
       <use xlink:href="#IBMPlexSans-32" transform="translate(162.902849 36.3) scale(0.7)"/>
      </g>
     </g>
    </g>
    <g id="xtick_17">
     <g id="line2d_39">
      <g>
       <use xlink:href="#md2e35bf971" x="334.854728" y="275.14952" style="stroke: #000000; stroke-width: 0.6"/>
      </g>
     </g>
    </g>
    <g id="xtick_18">
     <g id="line2d_40">
      <g>
       <use xlink:href="#md2e35bf971" x="351.620383" y="275.14952" style="stroke: #000000; stroke-width: 0.6"/>
      </g>
     </g>
    </g>
    <g id="xtick_19">
     <g id="line2d_41">
      <g>
       <use xlink:href="#md2e35bf971" x="465.282807" y="275.14952" style="stroke: #000000; stroke-width: 0.6"/>
      </g>
     </g>
     <g id="text_31">
      <!-- $\mathdefault{2\times10^{-2}}$ -->
      <g transform="translate(446.932807 287.94952) scale(0.1 -0.1)">
       <use xlink:href="#IBMPlexSans-32" transform="translate(0 0.184375)"/>
       <use xlink:href="#IBMPlexSans-d7" transform="translate(79.482407 0.184375)"/>
       <use xlink:href="#IBMPlexSans-31" transform="translate(158.964813 0.184375)"/>
       <use xlink:href="#IBMPlexSans-30" transform="translate(218.964798 0.184375)"/>
       <use xlink:href="#IBMPlexSans-2212" transform="translate(279.867673 36.3) scale(0.7)"/>
       <use xlink:href="#IBMPlexSans-32" transform="translate(321.867663 36.3) scale(0.7)"/>
      </g>
     </g>
    </g>
    <g id="xtick_20">
     <g id="line2d_42">
      <g>
       <use xlink:href="#md2e35bf971" x="522.998152" y="275.14952" style="stroke: #000000; stroke-width: 0.6"/>
      </g>
     </g>
     <g id="text_32">
      <!-- $\mathdefault{3\times10^{-2}}$ -->
      <g transform="translate(504.648152 287.94952) scale(0.1 -0.1)">
       <use xlink:href="#IBMPlexSans-33" transform="translate(0 0.184375)"/>
       <use xlink:href="#IBMPlexSans-d7" transform="translate(79.482407 0.184375)"/>
       <use xlink:href="#IBMPlexSans-31" transform="translate(158.964813 0.184375)"/>
       <use xlink:href="#IBMPlexSans-30" transform="translate(218.964798 0.184375)"/>
       <use xlink:href="#IBMPlexSans-2212" transform="translate(279.867673 36.3) scale(0.7)"/>
       <use xlink:href="#IBMPlexSans-32" transform="translate(321.867663 36.3) scale(0.7)"/>
      </g>
     </g>
    </g>
    <g id="text_33">
     <!-- Cutoff frequency -->
     <g transform="translate(388.772313 302.94952) scale(0.1 -0.1)">
      <use xlink:href="#IBMPlexSans-43"/>
      <use xlink:href="#IBMPlexSans-75" transform="translate(62.099991 0)"/>
      <use xlink:href="#IBMPlexSans-74" transform="translate(118.899979 0)"/>
      <use xlink:href="#IBMPlexSans-6f" transform="translate(153.999969 0)"/>
      <use xlink:href="#IBMPlexSans-66" transform="translate(209.999954 0)"/>
      <use xlink:href="#IBMPlexSans-66" transform="translate(242.399948 0)"/>
      <use xlink:href="#IBMPlexSans-20" transform="translate(274.799942 0)"/>
      <use xlink:href="#IBMPlexSans-66" transform="translate(298.399933 0)"/>
      <use xlink:href="#IBMPlexSans-72" transform="translate(330.799927 0)"/>
      <use xlink:href="#IBMPlexSans-65" transform="translate(367.499924 0)"/>
      <use xlink:href="#IBMPlexSans-71" transform="translate(422.399918 0)"/>
      <use xlink:href="#IBMPlexSans-75" transform="translate(480.399902 0)"/>
      <use xlink:href="#IBMPlexSans-65" transform="translate(537.19989 0)"/>
      <use xlink:href="#IBMPlexSans-6e" transform="translate(592.099884 0)"/>
      <use xlink:href="#IBMPlexSans-63" transform="translate(648.899872 0)"/>
      <use xlink:href="#IBMPlexSans-79" transform="translate(699.19986 0)"/>
     </g>
    </g>
   </g>
   <g id="matplotlib.axis_8">
    <g id="ytick_15">
     <g id="line2d_43">
      <g>
       <use xlink:href="#m60d78a53fa" x="318.580469" y="237.492425" style="stroke: #000000; stroke-width: 0.8"/>
      </g>
     </g>
     <g id="text_34">
      <!-- $\mathdefault{10^{-1}}$ -->
      <g transform="translate(290.780469 241.192425) scale(0.1 -0.1)">
       <use xlink:href="#IBMPlexSans-31" transform="translate(0 0.026563)"/>
       <use xlink:href="#IBMPlexSans-30" transform="translate(59.999985 0.026563)"/>
       <use xlink:href="#IBMPlexSans-2212" transform="translate(120.90286 36.142188) scale(0.7)"/>
       <use xlink:href="#IBMPlexSans-31" transform="translate(162.902849 36.142188) scale(0.7)"/>
      </g>
     </g>
    </g>
    <g id="ytick_16">
     <g id="line2d_44">
      <g>
       <use xlink:href="#m60d78a53fa" x="318.580469" y="182.529977" style="stroke: #000000; stroke-width: 0.8"/>
      </g>
     </g>
     <g id="text_35">
      <!-- $\mathdefault{10^{0}}$ -->
      <g transform="translate(294.980469 186.229977) scale(0.1 -0.1)">
       <use xlink:href="#IBMPlexSans-31" transform="translate(0 0.184375)"/>
       <use xlink:href="#IBMPlexSans-30" transform="translate(59.999985 0.184375)"/>
       <use xlink:href="#IBMPlexSans-30" transform="translate(120.90286 36.3) scale(0.7)"/>
      </g>
     </g>
    </g>
    <g id="ytick_17">
     <g id="line2d_45">
      <defs>
       <path id="m48f596ae9c" d="M 0 0 
L -2 0 
" style="stroke: #000000; stroke-width: 0.6"/>
      </defs>
      <g>
       <use xlink:href="#m48f596ae9c" x="318.580469" y="266.23112" style="stroke: #000000; stroke-width: 0.6"/>
      </g>
     </g>
    </g>
    <g id="ytick_18">
     <g id="line2d_46">
      <g>
       <use xlink:href="#m48f596ae9c" x="318.580469" y="259.364181" style="stroke: #000000; stroke-width: 0.6"/>
      </g>
     </g>
    </g>
    <g id="ytick_19">
     <g id="line2d_47">
      <g>
       <use xlink:href="#m48f596ae9c" x="318.580469" y="254.03777" style="stroke: #000000; stroke-width: 0.6"/>
      </g>
     </g>
    </g>
    <g id="ytick_20">
     <g id="line2d_48">
      <g>
       <use xlink:href="#m48f596ae9c" x="318.580469" y="249.685775" style="stroke: #000000; stroke-width: 0.6"/>
      </g>
     </g>
    </g>
    <g id="ytick_21">
     <g id="line2d_49">
      <g>
       <use xlink:href="#m48f596ae9c" x="318.580469" y="246.006215" style="stroke: #000000; stroke-width: 0.6"/>
      </g>
     </g>
    </g>
    <g id="ytick_22">
     <g id="line2d_50">
      <g>
       <use xlink:href="#m48f596ae9c" x="318.580469" y="242.818836" style="stroke: #000000; stroke-width: 0.6"/>
      </g>
     </g>
    </g>
    <g id="ytick_23">
     <g id="line2d_51">
      <g>
       <use xlink:href="#m48f596ae9c" x="318.580469" y="240.007368" style="stroke: #000000; stroke-width: 0.6"/>
      </g>
     </g>
    </g>
    <g id="ytick_24">
     <g id="line2d_52">
      <g>
       <use xlink:href="#m48f596ae9c" x="318.580469" y="220.947079" style="stroke: #000000; stroke-width: 0.6"/>
      </g>
     </g>
    </g>
    <g id="ytick_25">
     <g id="line2d_53">
      <g>
       <use xlink:href="#m48f596ae9c" x="318.580469" y="211.268672" style="stroke: #000000; stroke-width: 0.6"/>
      </g>
     </g>
    </g>
    <g id="ytick_26">
     <g id="line2d_54">
      <g>
       <use xlink:href="#m48f596ae9c" x="318.580469" y="204.401734" style="stroke: #000000; stroke-width: 0.6"/>
      </g>
     </g>
    </g>
    <g id="ytick_27">
     <g id="line2d_55">
      <g>
       <use xlink:href="#m48f596ae9c" x="318.580469" y="199.075322" style="stroke: #000000; stroke-width: 0.6"/>
      </g>
     </g>
    </g>
    <g id="ytick_28">
     <g id="line2d_56">
      <g>
       <use xlink:href="#m48f596ae9c" x="318.580469" y="194.723327" style="stroke: #000000; stroke-width: 0.6"/>
      </g>
     </g>
    </g>
    <g id="ytick_29">
     <g id="line2d_57">
      <g>
       <use xlink:href="#m48f596ae9c" x="318.580469" y="191.043768" style="stroke: #000000; stroke-width: 0.6"/>
      </g>
     </g>
    </g>
    <g id="ytick_30">
     <g id="line2d_58">
      <g>
       <use xlink:href="#m48f596ae9c" x="318.580469" y="187.856388" style="stroke: #000000; stroke-width: 0.6"/>
      </g>
     </g>
    </g>
    <g id="ytick_31">
     <g id="line2d_59">
      <g>
       <use xlink:href="#m48f596ae9c" x="318.580469" y="185.04492" style="stroke: #000000; stroke-width: 0.6"/>
      </g>
     </g>
    </g>
    <g id="ytick_32">
     <g id="line2d_60">
      <g>
       <use xlink:href="#m48f596ae9c" x="318.580469" y="165.984631" style="stroke: #000000; stroke-width: 0.6"/>
      </g>
     </g>
    </g>
    <g id="ytick_33">
     <g id="line2d_61">
      <g>
       <use xlink:href="#m48f596ae9c" x="318.580469" y="156.306225" style="stroke: #000000; stroke-width: 0.6"/>
      </g>
     </g>
    </g>
    <g id="text_36">
     <!-- Hessian Eigenvalues -->
     <g transform="translate(284.660156 260.678666) rotate(-90) scale(0.1 -0.1)">
      <defs>
       <path id="IBMPlexSans-48" d="M 3392 0 
L 3930 0 
L 3930 4467 
L 3392 4467 
L 3392 2496 
L 1133 2496 
L 1133 4467 
L 595 4467 
L 595 0 
L 1133 0 
L 1133 2022 
L 3392 2022 
L 3392 0 
z
" transform="scale(0.015625)"/>
       <path id="IBMPlexSans-61" d="M 3232 0 
L 3232 448 
L 2854 448 
L 2854 2266 
C 2854 2963 2381 3379 1587 3379 
C 992 3379 595 3085 416 2733 
L 723 2445 
C 902 2746 1165 2938 1562 2938 
C 2086 2938 2342 2682 2342 2214 
L 2342 1888 
L 1690 1888 
C 730 1888 282 1542 282 922 
C 282 307 691 -77 1389 -77 
C 1850 -77 2202 134 2342 538 
L 2374 538 
C 2413 230 2566 0 2944 0 
L 3232 0 
z
M 1472 358 
C 1075 358 819 544 819 870 
L 819 1005 
C 819 1325 1082 1504 1664 1504 
L 2342 1504 
L 2342 960 
C 2342 621 1978 358 1472 358 
z
" transform="scale(0.015625)"/>
       <path id="IBMPlexSans-45" d="M 3322 0 
L 3322 474 
L 1133 474 
L 1133 2022 
L 3194 2022 
L 3194 2496 
L 1133 2496 
L 1133 3994 
L 3322 3994 
L 3322 4467 
L 595 4467 
L 595 0 
L 3322 0 
z
" transform="scale(0.015625)"/>
      </defs>
      <use xlink:href="#IBMPlexSans-48"/>
      <use xlink:href="#IBMPlexSans-65" transform="translate(70.699982 0)"/>
      <use xlink:href="#IBMPlexSans-73" transform="translate(125.599976 0)"/>
      <use xlink:href="#IBMPlexSans-73" transform="translate(174.299973 0)"/>
      <use xlink:href="#IBMPlexSans-69" transform="translate(222.999969 0)"/>
      <use xlink:href="#IBMPlexSans-61" transform="translate(247.999954 0)"/>
      <use xlink:href="#IBMPlexSans-6e" transform="translate(301.399948 0)"/>
      <use xlink:href="#IBMPlexSans-20" transform="translate(358.199936 0)"/>
      <use xlink:href="#IBMPlexSans-45" transform="translate(381.799927 0)"/>
      <use xlink:href="#IBMPlexSans-69" transform="translate(440.099915 0)"/>
      <use xlink:href="#IBMPlexSans-67" transform="translate(465.099899 0)"/>
      <use xlink:href="#IBMPlexSans-65" transform="translate(517.899887 0)"/>
      <use xlink:href="#IBMPlexSans-6e" transform="translate(572.799881 0)"/>
      <use xlink:href="#IBMPlexSans-76" transform="translate(629.599869 0)"/>
      <use xlink:href="#IBMPlexSans-61" transform="translate(678.799866 0)"/>
      <use xlink:href="#IBMPlexSans-6c" transform="translate(732.19986 0)"/>
      <use xlink:href="#IBMPlexSans-75" transform="translate(759.399857 0)"/>
      <use xlink:href="#IBMPlexSans-65" transform="translate(816.199844 0)"/>
      <use xlink:href="#IBMPlexSans-73" transform="translate(871.099838 0)"/>
     </g>
    </g>
   </g>
   <g id="line2d_62">
    <path d="M 328.366588 269.652951 
L 337.26306 266.571446 
L 346.159532 263.947927 
L 355.056005 261.662282 
L 363.952477 259.752864 
L 372.848949 258.163044 
L 381.745421 256.849322 
L 390.641893 255.803704 
L 399.538365 254.891934 
L 408.434837 254.063375 
L 417.33131 253.309345 
L 426.227782 252.58835 
L 435.124254 251.924981 
L 444.020726 251.306481 
L 452.917198 250.762881 
L 461.81367 250.285481 
L 470.710142 249.885741 
L 479.606615 249.552443 
L 488.503087 249.291453 
L 497.399559 249.148191 
L 506.296031 249.117686 
L 515.192503 249.20279 
L 524.088975 249.4026 
" clip-path="url(#p261ee9584b)" style="fill: none; stroke: #9467bd; stroke-width: 1.5; stroke-linecap: square"/>
   </g>
   <g id="line2d_63">
    <path d="M 328.366588 205.533379 
L 337.26306 205.766645 
L 346.159532 205.994464 
L 355.056005 206.218509 
L 363.952477 206.438432 
L 372.848949 206.644732 
L 381.745421 206.844799 
L 390.641893 207.045812 
L 399.538365 207.238876 
L 408.434837 207.41527 
L 417.33131 207.587006 
L 426.227782 207.743615 
L 435.124254 207.886678 
L 444.020726 208.003247 
L 452.917198 208.099375 
L 461.81367 208.168894 
L 470.710142 208.21512 
L 479.606615 208.225821 
L 488.503087 208.194262 
L 497.399559 208.142027 
L 506.296031 208.062656 
L 515.192503 207.959984 
L 524.088975 207.839419 
" clip-path="url(#p261ee9584b)" style="fill: none; stroke: #9467bd; stroke-width: 1.5; stroke-linecap: square"/>
   </g>
   <g id="line2d_64">
    <path d="M 328.366588 159.790726 
L 337.26306 159.789548 
L 346.159532 159.788145 
L 355.056005 159.786503 
L 363.952477 159.783059 
L 372.848949 159.778915 
L 381.745421 159.772849 
L 390.641893 159.763302 
L 399.538365 159.753405 
L 408.434837 159.745032 
L 417.33131 159.736538 
L 426.227782 159.730033 
L 435.124254 159.724701 
L 444.020726 159.722406 
L 452.917198 159.721569 
L 461.81367 159.723059 
L 470.710142 159.726063 
L 479.606615 159.732343 
L 488.503087 159.742579 
L 497.399559 159.752824 
L 506.296031 159.764019 
L 515.192503 159.775613 
L 524.088975 159.786976 
" clip-path="url(#p261ee9584b)" style="fill: none; stroke: #9467bd; stroke-width: 1.5; stroke-linecap: square"/>
   </g>
   <g id="patch_13">
    <path d="M 318.580469 275.14952 
L 318.580469 154.225 
" style="fill: none; stroke: #000000; stroke-width: 0.8; stroke-linejoin: miter; stroke-linecap: square"/>
   </g>
   <g id="patch_14">
    <path d="M 318.580469 275.14952 
L 533.875095 275.14952 
" style="fill: none; stroke: #000000; stroke-width: 0.8; stroke-linejoin: miter; stroke-linecap: square"/>
   </g>
  </g>
 </g>
 <defs>
  <clipPath id="p7cb6668f11">
   <rect x="48.640625" y="7.2" width="215.294626" height="120.92452"/>
  </clipPath>
  <clipPath id="p8186dd0344">
   <rect x="318.580469" y="7.2" width="215.294626" height="120.92452"/>
  </clipPath>
  <clipPath id="pae1da15895">
   <rect x="48.640625" y="154.225" width="215.294626" height="120.92452"/>
  </clipPath>
  <clipPath id="p261ee9584b">
   <rect x="318.580469" y="154.225" width="215.294626" height="120.92452"/>
  </clipPath>
 </defs>
</svg>