<?xml version="1.0" encoding="utf-8" standalone="no"?>
<!DOCTYPE svg PUBLIC "-//W3C//DTD SVG 1.1//EN"
  "http://www.w3.org/Graphics/SVG/1.1/DTD/svg11.dtd">
<svg xmlns:xlink="http://www.w3.org/1999/xlink" width="548.39952pt" height="312.14952pt" viewBox="0 0 548.39952 312.14952" xmlns="http://www.w3.org/2000/svg" version="1.1">
 <metadata>
  <rdf:RDF xmlns:dc="http://purl.org/dc/elements/1.1/" xmlns:cc="http://creativecommons.org/ns#" xmlns:rdf="http://www.w3.org/1999/02/22-rdf-syntax-ns#">
   <cc:Work>
    <dc:type rdf:resource="http://purl.org/dc/dcmitype/StillImage"/>
    <dc:date>2025-06-25T08:45:31.162910</dc:date>
    <dc:format>image/svg+xml</dc:format>
    <dc:creator>
     <cc:Agent>
      <dc:title>Matplotlib v3.10.1, https://matplotlib.org/</dc:title>
     </cc:Agent>
    </dc:creator>
   </cc:Work>
  </rdf:RDF>
 </metadata>
 <defs>
  <style type="text/css">*{stroke-linejoin: round; stroke-linecap: butt}</style>
 </defs>
 <g id="figure_1">
  <g id="patch_1">
   <path d="M 0 312.14952 
L 548.39952 312.14952 
L 548.39952 0 
L 0 0 
z
" style="fill: #ffffff"/>
  </g>
  <g id="axes_1">
   <g id="patch_2">
    <path d="M 42.320312 274.94952 
L 541.19952 274.94952 
L 541.19952 22.32 
L 42.320312 22.32 
z
" style="fill: #ffffff"/>
   </g>
   <g id="matplotlib.axis_1">
    <g id="xtick_1">
     <g id="line2d_1">
      <defs>
       <path id="mb4b5510eba" d="M 0 0 
L 0 3.5 
" style="stroke: #000000; stroke-width: 0.8"/>
      </defs>
      <g>
       <use xlink:href="#mb4b5510eba" x="47.905006" y="274.94952" style="stroke: #000000; stroke-width: 0.8"/>
      </g>
     </g>
     <g id="text_1">
      <!-- 287.5 -->
      <g transform="translate(34.54485 289.34952) scale(0.1 -0.1)">
       <defs>
        <path id="IBMPlexSans-32" d="M 3411 474 
L 1062 474 
L 2266 1555 
C 2835 2067 3245 2554 3245 3245 
C 3245 4006 2746 4544 1875 4544 
C 1011 4544 614 4019 442 3494 
L 922 3309 
C 1043 3731 1299 4064 1850 4064 
C 2400 4064 2675 3725 2675 3232 
L 2675 3155 
C 2675 2726 2355 2278 1939 1894 
L 480 550 
L 480 0 
L 3411 0 
L 3411 474 
z
" transform="scale(0.015625)"/>
        <path id="IBMPlexSans-38" d="M 1920 -77 
C 2938 -77 3469 480 3469 1216 
C 3469 1824 3104 2176 2566 2323 
L 2566 2374 
C 3034 2534 3334 2912 3334 3424 
C 3334 4102 2810 4544 1920 4544 
C 1030 4544 506 4102 506 3424 
C 506 2912 806 2534 1274 2374 
L 1274 2323 
C 736 2176 371 1824 371 1216 
C 371 480 902 -77 1920 -77 
z
M 1920 390 
C 1299 390 941 685 941 1190 
L 941 1325 
C 941 1830 1299 2125 1920 2125 
C 2541 2125 2899 1830 2899 1325 
L 2899 1190 
C 2899 685 2541 390 1920 390 
z
M 1920 2573 
C 1363 2573 1062 2822 1062 3277 
L 1062 3373 
C 1062 3827 1363 4077 1920 4077 
C 2477 4077 2778 3827 2778 3373 
L 2778 3277 
C 2778 2822 2477 2573 1920 2573 
z
" transform="scale(0.015625)"/>
        <path id="IBMPlexSans-37" d="M 1696 0 
L 3373 3994 
L 3373 4467 
L 442 4467 
L 442 3174 
L 922 3174 
L 922 4006 
L 2829 4006 
L 1120 0 
L 1696 0 
z
" transform="scale(0.015625)"/>
        <path id="IBMPlexSans-2e" d="M 870 -77 
C 1139 -77 1261 77 1261 294 
L 1261 378 
C 1261 595 1139 749 870 749 
C 602 749 480 595 480 378 
L 480 294 
C 480 77 602 -77 870 -77 
z
" transform="scale(0.015625)"/>
        <path id="IBMPlexSans-35" d="M 3187 4467 
L 794 4467 
L 634 2010 
L 1088 1946 
C 1274 2150 1478 2323 1888 2323 
C 2496 2323 2822 1984 2822 1395 
L 2822 1331 
C 2822 742 2496 403 1888 403 
C 1350 403 1126 640 896 992 
L 493 685 
C 762 301 1146 -77 1888 -77 
C 2829 -77 3392 531 3392 1402 
C 3392 2266 2829 2784 2061 2784 
C 1594 2784 1357 2592 1146 2291 
L 1101 2291 
L 1229 3994 
L 3187 3994 
L 3187 4467 
z
" transform="scale(0.015625)"/>
       </defs>
       <use xlink:href="#IBMPlexSans-32"/>
       <use xlink:href="#IBMPlexSans-38" transform="translate(59.999985 0)"/>
       <use xlink:href="#IBMPlexSans-37" transform="translate(119.999969 0)"/>
       <use xlink:href="#IBMPlexSans-2e" transform="translate(179.999954 0)"/>
       <use xlink:href="#IBMPlexSans-35" transform="translate(207.199951 0)"/>
      </g>
     </g>
    </g>
    <g id="xtick_2">
     <g id="line2d_2">
      <g>
       <use xlink:href="#mb4b5510eba" x="107.817144" y="274.94952" style="stroke: #000000; stroke-width: 0.8"/>
      </g>
     </g>
     <g id="text_2">
      <!-- 290.0 -->
      <g transform="translate(94.456988 289.34952) scale(0.1 -0.1)">
       <defs>
        <path id="IBMPlexSans-39" d="M 3411 2829 
C 3411 3891 2842 4544 1914 4544 
C 1018 4544 429 3942 429 3066 
C 429 2221 979 1690 1747 1690 
C 2291 1690 2611 1965 2822 2330 
L 2854 2317 
C 2611 1280 2080 698 1126 0 
L 1818 0 
C 2534 467 3411 1504 3411 2829 
z
M 1920 2144 
C 1331 2144 986 2483 986 3085 
L 986 3136 
C 986 3738 1331 4077 1920 4077 
C 2509 4077 2854 3738 2854 3136 
L 2854 3085 
C 2854 2483 2509 2144 1920 2144 
z
" transform="scale(0.015625)"/>
        <path id="IBMPlexSans-30" d="M 1920 -77 
C 2989 -77 3456 774 3456 2234 
C 3456 3693 2989 4544 1920 4544 
C 851 4544 384 3693 384 2234 
C 384 774 851 -77 1920 -77 
z
M 1920 390 
C 1222 390 947 1005 947 1869 
L 947 2598 
C 947 3462 1222 4077 1920 4077 
C 2618 4077 2893 3462 2893 2598 
L 2893 1869 
C 2893 1005 2618 390 1920 390 
z
" transform="scale(0.015625)"/>
       </defs>
       <use xlink:href="#IBMPlexSans-32"/>
       <use xlink:href="#IBMPlexSans-39" transform="translate(59.999985 0)"/>
       <use xlink:href="#IBMPlexSans-30" transform="translate(119.999969 0)"/>
       <use xlink:href="#IBMPlexSans-2e" transform="translate(179.999954 0)"/>
       <use xlink:href="#IBMPlexSans-30" transform="translate(207.199951 0)"/>
      </g>
     </g>
    </g>
    <g id="xtick_3">
     <g id="line2d_3">
      <g>
       <use xlink:href="#mb4b5510eba" x="167.729283" y="274.94952" style="stroke: #000000; stroke-width: 0.8"/>
      </g>
     </g>
     <g id="text_3">
      <!-- 292.5 -->
      <g transform="translate(154.369127 289.34952) scale(0.1 -0.1)">
       <use xlink:href="#IBMPlexSans-32"/>
       <use xlink:href="#IBMPlexSans-39" transform="translate(59.999985 0)"/>
       <use xlink:href="#IBMPlexSans-32" transform="translate(119.999969 0)"/>
       <use xlink:href="#IBMPlexSans-2e" transform="translate(179.999954 0)"/>
       <use xlink:href="#IBMPlexSans-35" transform="translate(207.199951 0)"/>
      </g>
     </g>
    </g>
    <g id="xtick_4">
     <g id="line2d_4">
      <g>
       <use xlink:href="#mb4b5510eba" x="227.641422" y="274.94952" style="stroke: #000000; stroke-width: 0.8"/>
      </g>
     </g>
     <g id="text_4">
      <!-- 295.0 -->
      <g transform="translate(214.281266 289.34952) scale(0.1 -0.1)">
       <use xlink:href="#IBMPlexSans-32"/>
       <use xlink:href="#IBMPlexSans-39" transform="translate(59.999985 0)"/>
       <use xlink:href="#IBMPlexSans-35" transform="translate(119.999969 0)"/>
       <use xlink:href="#IBMPlexSans-2e" transform="translate(179.999954 0)"/>
       <use xlink:href="#IBMPlexSans-30" transform="translate(207.199951 0)"/>
      </g>
     </g>
    </g>
    <g id="xtick_5">
     <g id="line2d_5">
      <g>
       <use xlink:href="#mb4b5510eba" x="287.55356" y="274.94952" style="stroke: #000000; stroke-width: 0.8"/>
      </g>
     </g>
     <g id="text_5">
      <!-- 297.5 -->
      <g transform="translate(274.193404 289.34952) scale(0.1 -0.1)">
       <use xlink:href="#IBMPlexSans-32"/>
       <use xlink:href="#IBMPlexSans-39" transform="translate(59.999985 0)"/>
       <use xlink:href="#IBMPlexSans-37" transform="translate(119.999969 0)"/>
       <use xlink:href="#IBMPlexSans-2e" transform="translate(179.999954 0)"/>
       <use xlink:href="#IBMPlexSans-35" transform="translate(207.199951 0)"/>
      </g>
     </g>
    </g>
    <g id="xtick_6">
     <g id="line2d_6">
      <g>
       <use xlink:href="#mb4b5510eba" x="347.465699" y="274.94952" style="stroke: #000000; stroke-width: 0.8"/>
      </g>
     </g>
     <g id="text_6">
      <!-- 300.0 -->
      <g transform="translate(334.105543 289.34952) scale(0.1 -0.1)">
       <defs>
        <path id="IBMPlexSans-33" d="M 1184 2573 
L 1184 2106 
L 1709 2106 
C 2336 2106 2669 1805 2669 1280 
L 2669 1229 
C 2669 704 2336 403 1709 403 
C 1165 403 902 640 672 992 
L 269 685 
C 544 301 941 -77 1715 -77 
C 2624 -77 3232 454 3232 1222 
C 3232 1894 2771 2253 2291 2349 
L 2291 2374 
C 2765 2496 3149 2842 3149 3418 
C 3149 4141 2547 4544 1792 4544 
C 1075 4544 685 4173 461 3814 
L 858 3507 
C 1043 3846 1318 4064 1779 4064 
C 2253 4064 2579 3827 2579 3360 
L 2579 3315 
C 2579 2886 2272 2573 1670 2573 
L 1184 2573 
z
" transform="scale(0.015625)"/>
       </defs>
       <use xlink:href="#IBMPlexSans-33"/>
       <use xlink:href="#IBMPlexSans-30" transform="translate(59.999985 0)"/>
       <use xlink:href="#IBMPlexSans-30" transform="translate(119.999969 0)"/>
       <use xlink:href="#IBMPlexSans-2e" transform="translate(179.999954 0)"/>
       <use xlink:href="#IBMPlexSans-30" transform="translate(207.199951 0)"/>
      </g>
     </g>
    </g>
    <g id="xtick_7">
     <g id="line2d_7">
      <g>
       <use xlink:href="#mb4b5510eba" x="407.377838" y="274.94952" style="stroke: #000000; stroke-width: 0.8"/>
      </g>
     </g>
     <g id="text_7">
      <!-- 302.5 -->
      <g transform="translate(394.017682 289.34952) scale(0.1 -0.1)">
       <use xlink:href="#IBMPlexSans-33"/>
       <use xlink:href="#IBMPlexSans-30" transform="translate(59.999985 0)"/>
       <use xlink:href="#IBMPlexSans-32" transform="translate(119.999969 0)"/>
       <use xlink:href="#IBMPlexSans-2e" transform="translate(179.999954 0)"/>
       <use xlink:href="#IBMPlexSans-35" transform="translate(207.199951 0)"/>
      </g>
     </g>
    </g>
    <g id="xtick_8">
     <g id="line2d_8">
      <g>
       <use xlink:href="#mb4b5510eba" x="467.289976" y="274.94952" style="stroke: #000000; stroke-width: 0.8"/>
      </g>
     </g>
     <g id="text_8">
      <!-- 305.0 -->
      <g transform="translate(453.92982 289.34952) scale(0.1 -0.1)">
       <use xlink:href="#IBMPlexSans-33"/>
       <use xlink:href="#IBMPlexSans-30" transform="translate(59.999985 0)"/>
       <use xlink:href="#IBMPlexSans-35" transform="translate(119.999969 0)"/>
       <use xlink:href="#IBMPlexSans-2e" transform="translate(179.999954 0)"/>
       <use xlink:href="#IBMPlexSans-30" transform="translate(207.199951 0)"/>
      </g>
     </g>
    </g>
    <g id="xtick_9">
     <g id="line2d_9">
      <g>
       <use xlink:href="#mb4b5510eba" x="527.202115" y="274.94952" style="stroke: #000000; stroke-width: 0.8"/>
      </g>
     </g>
     <g id="text_9">
      <!-- 307.5 -->
      <g transform="translate(513.841959 289.34952) scale(0.1 -0.1)">
       <use xlink:href="#IBMPlexSans-33"/>
       <use xlink:href="#IBMPlexSans-30" transform="translate(59.999985 0)"/>
       <use xlink:href="#IBMPlexSans-37" transform="translate(119.999969 0)"/>
       <use xlink:href="#IBMPlexSans-2e" transform="translate(179.999954 0)"/>
       <use xlink:href="#IBMPlexSans-35" transform="translate(207.199951 0)"/>
      </g>
     </g>
    </g>
    <g id="text_10">
     <!-- Temperature [K] -->
     <g transform="translate(254.94351 302.94952) scale(0.1 -0.1)">
      <defs>
       <path id="IBMPlexSans-54" d="M 3520 3994 
L 3520 4467 
L 141 4467 
L 141 3994 
L 1562 3994 
L 1562 0 
L 2099 0 
L 2099 3994 
L 3520 3994 
z
" transform="scale(0.015625)"/>
       <path id="IBMPlexSans-65" d="M 1786 -77 
C 2406 -77 2880 230 3091 678 
L 2726 941 
C 2554 576 2234 371 1818 371 
C 1203 371 838 800 838 1370 
L 838 1523 
L 3213 1523 
L 3213 1766 
C 3213 2701 2669 3379 1786 3379 
C 890 3379 301 2701 301 1651 
C 301 602 890 -77 1786 -77 
z
M 1786 2950 
C 2310 2950 2662 2560 2662 1978 
L 2662 1907 
L 838 1907 
L 838 1952 
C 838 2528 1229 2950 1786 2950 
z
" transform="scale(0.015625)"/>
       <path id="IBMPlexSans-6d" d="M 1056 0 
L 1056 2291 
C 1056 2714 1440 2918 1843 2918 
C 2330 2918 2554 2618 2554 2029 
L 2554 0 
L 3066 0 
L 3066 2291 
C 3066 2714 3437 2918 3840 2918 
C 4339 2918 4563 2611 4563 2029 
L 4563 0 
L 5075 0 
L 5075 2118 
C 5075 2918 4672 3379 4000 3379 
C 3437 3379 3117 3066 2995 2707 
L 2982 2707 
C 2803 3181 2406 3379 1971 3379 
C 1459 3379 1229 3104 1082 2765 
L 1056 2765 
L 1056 3302 
L 544 3302 
L 544 0 
L 1056 0 
z
" transform="scale(0.015625)"/>
       <path id="IBMPlexSans-70" d="M 544 -1280 
L 1056 -1280 
L 1056 538 
L 1082 538 
C 1280 128 1594 -77 2048 -77 
C 2874 -77 3392 595 3392 1651 
C 3392 2707 2874 3379 2048 3379 
C 1594 3379 1254 3181 1082 2765 
L 1056 2765 
L 1056 3302 
L 544 3302 
L 544 -1280 
z
M 1907 384 
C 1440 384 1056 627 1056 1056 
L 1056 2285 
C 1056 2650 1440 2918 1907 2918 
C 2483 2918 2842 2522 2842 1933 
L 2842 1370 
C 2842 781 2483 384 1907 384 
z
" transform="scale(0.015625)"/>
       <path id="IBMPlexSans-72" d="M 1056 0 
L 1056 2240 
C 1056 2554 1389 2790 1939 2790 
L 2240 2790 
L 2240 3302 
L 2042 3302 
C 1504 3302 1203 3008 1088 2694 
L 1056 2694 
L 1056 3302 
L 544 3302 
L 544 0 
L 1056 0 
z
" transform="scale(0.015625)"/>
       <path id="IBMPlexSans-61" d="M 3232 0 
L 3232 448 
L 2854 448 
L 2854 2266 
C 2854 2963 2381 3379 1587 3379 
C 992 3379 595 3085 416 2733 
L 723 2445 
C 902 2746 1165 2938 1562 2938 
C 2086 2938 2342 2682 2342 2214 
L 2342 1888 
L 1690 1888 
C 730 1888 282 1542 282 922 
C 282 307 691 -77 1389 -77 
C 1850 -77 2202 134 2342 538 
L 2374 538 
C 2413 230 2566 0 2944 0 
L 3232 0 
z
M 1472 358 
C 1075 358 819 544 819 870 
L 819 1005 
C 819 1325 1082 1504 1664 1504 
L 2342 1504 
L 2342 960 
C 2342 621 1978 358 1472 358 
z
" transform="scale(0.015625)"/>
       <path id="IBMPlexSans-74" d="M 1914 0 
L 1914 448 
L 1242 448 
L 1242 2854 
L 1965 2854 
L 1965 3302 
L 1242 3302 
L 1242 4218 
L 781 4218 
L 781 3603 
C 781 3379 710 3302 493 3302 
L 186 3302 
L 186 2854 
L 730 2854 
L 730 544 
C 730 224 922 0 1274 0 
L 1914 0 
z
" transform="scale(0.015625)"/>
       <path id="IBMPlexSans-75" d="M 2579 0 
L 3091 0 
L 3091 3302 
L 2579 3302 
L 2579 1018 
C 2579 582 2182 384 1779 384 
C 1286 384 1024 685 1024 1274 
L 1024 3302 
L 512 3302 
L 512 1184 
C 512 384 947 -77 1626 -77 
C 2176 -77 2426 224 2554 538 
L 2579 538 
L 2579 0 
z
" transform="scale(0.015625)"/>
       <path id="IBMPlexSans-20" transform="scale(0.015625)"/>
       <path id="IBMPlexSans-5b" d="M 1645 -883 
L 1645 -480 
L 1037 -480 
L 1037 4461 
L 1645 4461 
L 1645 4864 
L 595 4864 
L 595 -883 
L 1645 -883 
z
" transform="scale(0.015625)"/>
       <path id="IBMPlexSans-4b" d="M 3251 0 
L 3917 0 
L 2138 2554 
L 3802 4467 
L 3142 4467 
L 1792 2867 
L 1152 2093 
L 1133 2093 
L 1133 4467 
L 595 4467 
L 595 0 
L 1133 0 
L 1133 1491 
L 1766 2195 
L 3251 0 
z
" transform="scale(0.015625)"/>
       <path id="IBMPlexSans-5d" d="M 384 4864 
L 384 4461 
L 992 4461 
L 992 -480 
L 384 -480 
L 384 -883 
L 1434 -883 
L 1434 4864 
L 384 4864 
z
" transform="scale(0.015625)"/>
      </defs>
      <use xlink:href="#IBMPlexSans-54"/>
      <use xlink:href="#IBMPlexSans-65" transform="translate(57.199997 0)"/>
      <use xlink:href="#IBMPlexSans-6d" transform="translate(112.099991 0)"/>
      <use xlink:href="#IBMPlexSans-70" transform="translate(199.399979 0)"/>
      <use xlink:href="#IBMPlexSans-65" transform="translate(257.399963 0)"/>
      <use xlink:href="#IBMPlexSans-72" transform="translate(312.299957 0)"/>
      <use xlink:href="#IBMPlexSans-61" transform="translate(348.999954 0)"/>
      <use xlink:href="#IBMPlexSans-74" transform="translate(402.399948 0)"/>
      <use xlink:href="#IBMPlexSans-75" transform="translate(437.499939 0)"/>
      <use xlink:href="#IBMPlexSans-72" transform="translate(494.299927 0)"/>
      <use xlink:href="#IBMPlexSans-65" transform="translate(530.999924 0)"/>
      <use xlink:href="#IBMPlexSans-20" transform="translate(585.899918 0)"/>
      <use xlink:href="#IBMPlexSans-5b" transform="translate(609.499908 0)"/>
      <use xlink:href="#IBMPlexSans-4b" transform="translate(641.199905 0)"/>
      <use xlink:href="#IBMPlexSans-5d" transform="translate(704.599899 0)"/>
     </g>
    </g>
   </g>
   <g id="matplotlib.axis_2">
    <g id="ytick_1">
     <g id="line2d_10">
      <defs>
       <path id="m909e360f64" d="M 0 0 
L -3.5 0 
" style="stroke: #000000; stroke-width: 0.8"/>
      </defs>
      <g>
       <use xlink:href="#m909e360f64" x="42.320312" y="263.492229" style="stroke: #000000; stroke-width: 0.8"/>
      </g>
     </g>
     <g id="text_11">
      <!-- 0.0 -->
      <g transform="translate(20.6 267.192229) scale(0.1 -0.1)">
       <use xlink:href="#IBMPlexSans-30"/>
       <use xlink:href="#IBMPlexSans-2e" transform="translate(59.999985 0)"/>
       <use xlink:href="#IBMPlexSans-30" transform="translate(87.199982 0)"/>
      </g>
     </g>
    </g>
    <g id="ytick_2">
     <g id="line2d_11">
      <g>
       <use xlink:href="#m909e360f64" x="42.320312" y="217.529915" style="stroke: #000000; stroke-width: 0.8"/>
      </g>
     </g>
     <g id="text_12">
      <!-- 0.2 -->
      <g transform="translate(20.6 221.229915) scale(0.1 -0.1)">
       <use xlink:href="#IBMPlexSans-30"/>
       <use xlink:href="#IBMPlexSans-2e" transform="translate(59.999985 0)"/>
       <use xlink:href="#IBMPlexSans-32" transform="translate(87.199982 0)"/>
      </g>
     </g>
    </g>
    <g id="ytick_3">
     <g id="line2d_12">
      <g>
       <use xlink:href="#m909e360f64" x="42.320312" y="171.567602" style="stroke: #000000; stroke-width: 0.8"/>
      </g>
     </g>
     <g id="text_13">
      <!-- 0.4 -->
      <g transform="translate(20.6 175.267602) scale(0.1 -0.1)">
       <defs>
        <path id="IBMPlexSans-34" d="M 2912 0 
L 2912 877 
L 3558 877 
L 3558 1325 
L 2912 1325 
L 2912 4467 
L 2112 4467 
L 243 1350 
L 243 877 
L 2400 877 
L 2400 0 
L 2912 0 
z
M 2368 4051 
L 2400 4051 
L 2400 1325 
L 749 1325 
L 2368 4051 
z
" transform="scale(0.015625)"/>
       </defs>
       <use xlink:href="#IBMPlexSans-30"/>
       <use xlink:href="#IBMPlexSans-2e" transform="translate(59.999985 0)"/>
       <use xlink:href="#IBMPlexSans-34" transform="translate(87.199982 0)"/>
      </g>
     </g>
    </g>
    <g id="ytick_4">
     <g id="line2d_13">
      <g>
       <use xlink:href="#m909e360f64" x="42.320312" y="125.605289" style="stroke: #000000; stroke-width: 0.8"/>
      </g>
     </g>
     <g id="text_14">
      <!-- 0.6 -->
      <g transform="translate(20.6 129.305289) scale(0.1 -0.1)">
       <defs>
        <path id="IBMPlexSans-36" d="M 1926 -77 
C 2822 -77 3411 525 3411 1402 
C 3411 2246 2861 2778 2093 2778 
C 1549 2778 1229 2502 1018 2138 
L 986 2150 
C 1229 3187 1760 3770 2714 4467 
L 2022 4467 
C 1306 4000 429 2963 429 1638 
C 429 576 998 -77 1926 -77 
z
M 1920 390 
C 1331 390 986 730 986 1331 
L 986 1382 
C 986 1984 1331 2323 1920 2323 
C 2509 2323 2854 1984 2854 1382 
L 2854 1331 
C 2854 730 2509 390 1920 390 
z
" transform="scale(0.015625)"/>
       </defs>
       <use xlink:href="#IBMPlexSans-30"/>
       <use xlink:href="#IBMPlexSans-2e" transform="translate(59.999985 0)"/>
       <use xlink:href="#IBMPlexSans-36" transform="translate(87.199982 0)"/>
      </g>
     </g>
    </g>
    <g id="ytick_5">
     <g id="line2d_14">
      <g>
       <use xlink:href="#m909e360f64" x="42.320312" y="79.642975" style="stroke: #000000; stroke-width: 0.8"/>
      </g>
     </g>
     <g id="text_15">
      <!-- 0.8 -->
      <g transform="translate(20.6 83.342975) scale(0.1 -0.1)">
       <use xlink:href="#IBMPlexSans-30"/>
       <use xlink:href="#IBMPlexSans-2e" transform="translate(59.999985 0)"/>
       <use xlink:href="#IBMPlexSans-38" transform="translate(87.199982 0)"/>
      </g>
     </g>
    </g>
    <g id="ytick_6">
     <g id="line2d_15">
      <g>
       <use xlink:href="#m909e360f64" x="42.320312" y="33.680662" style="stroke: #000000; stroke-width: 0.8"/>
      </g>
     </g>
     <g id="text_16">
      <!-- 1.0 -->
      <g transform="translate(20.6 37.380662) scale(0.1 -0.1)">
       <defs>
        <path id="IBMPlexSans-31" d="M 3501 0 
L 3501 474 
L 2349 474 
L 2349 4467 
L 1510 4467 
L 326 3360 
L 640 3021 
L 1766 4070 
L 1811 4070 
L 1811 474 
L 563 474 
L 563 0 
L 3501 0 
z
" transform="scale(0.015625)"/>
       </defs>
       <use xlink:href="#IBMPlexSans-31"/>
       <use xlink:href="#IBMPlexSans-2e" transform="translate(59.999985 0)"/>
       <use xlink:href="#IBMPlexSans-30" transform="translate(87.199982 0)"/>
      </g>
     </g>
    </g>
    <g id="text_17">
     <!-- Cumulative Probability -->
     <g transform="translate(14.6 199.449604) rotate(-90) scale(0.1 -0.1)">
      <defs>
       <path id="IBMPlexSans-43" d="M 2170 -77 
C 2912 -77 3456 314 3738 941 
L 3309 1210 
C 3130 723 2739 403 2170 403 
C 1402 403 947 960 947 1875 
L 947 2541 
C 947 3456 1402 4064 2170 4064 
C 2720 4064 3091 3763 3270 3302 
L 3706 3565 
C 3424 4186 2912 4544 2170 4544 
C 1043 4544 371 3699 371 2208 
C 371 717 1043 -77 2170 -77 
z
" transform="scale(0.015625)"/>
       <path id="IBMPlexSans-6c" d="M 1542 0 
L 1542 448 
L 1056 448 
L 1056 4736 
L 544 4736 
L 544 531 
C 544 224 736 0 1088 0 
L 1542 0 
z
" transform="scale(0.015625)"/>
       <path id="IBMPlexSans-69" d="M 800 4077 
C 1018 4077 1114 4192 1114 4365 
L 1114 4448 
C 1114 4621 1018 4736 800 4736 
C 582 4736 486 4621 486 4448 
L 486 4365 
C 486 4192 582 4077 800 4077 
z
M 544 0 
L 1056 0 
L 1056 3302 
L 544 3302 
L 544 0 
z
" transform="scale(0.015625)"/>
       <path id="IBMPlexSans-76" d="M 1869 0 
L 3034 3302 
L 2541 3302 
L 1952 1664 
L 1594 538 
L 1562 538 
L 1203 1664 
L 627 3302 
L 115 3302 
L 1274 0 
L 1869 0 
z
" transform="scale(0.015625)"/>
       <path id="IBMPlexSans-50" d="M 1133 0 
L 1133 1907 
L 2374 1907 
C 3174 1907 3622 2400 3622 3187 
C 3622 3974 3174 4467 2374 4467 
L 595 4467 
L 595 0 
L 1133 0 
z
M 1133 3994 
L 2374 3994 
C 2797 3994 3046 3763 3046 3354 
L 3046 3021 
C 3046 2611 2797 2381 2374 2381 
L 1133 2381 
L 1133 3994 
z
" transform="scale(0.015625)"/>
       <path id="IBMPlexSans-6f" d="M 1792 -77 
C 2675 -77 3283 602 3283 1651 
C 3283 2701 2675 3379 1792 3379 
C 909 3379 301 2701 301 1651 
C 301 602 909 -77 1792 -77 
z
M 1792 378 
C 1242 378 851 717 851 1414 
L 851 1888 
C 851 2586 1242 2925 1792 2925 
C 2342 2925 2733 2586 2733 1888 
L 2733 1414 
C 2733 717 2342 378 1792 378 
z
" transform="scale(0.015625)"/>
       <path id="IBMPlexSans-62" d="M 544 0 
L 1056 0 
L 1056 538 
L 1082 538 
C 1280 128 1594 -77 2048 -77 
C 2874 -77 3392 595 3392 1651 
C 3392 2707 2874 3379 2048 3379 
C 1594 3379 1254 3181 1082 2765 
L 1056 2765 
L 1056 4736 
L 544 4736 
L 544 0 
z
M 1907 384 
C 1440 384 1056 627 1056 1056 
L 1056 2285 
C 1056 2650 1440 2918 1907 2918 
C 2483 2918 2842 2522 2842 1933 
L 2842 1370 
C 2842 781 2483 384 1907 384 
z
" transform="scale(0.015625)"/>
       <path id="IBMPlexSans-79" d="M 1779 1056 
L 1600 518 
L 1568 518 
L 1414 1056 
L 621 3302 
L 109 3302 
L 1344 -128 
L 1094 -832 
L 576 -832 
L 576 -1280 
L 838 -1280 
C 1325 -1280 1459 -1165 1606 -768 
L 3085 3302 
L 2579 3302 
L 1779 1056 
z
" transform="scale(0.015625)"/>
      </defs>
      <use xlink:href="#IBMPlexSans-43"/>
      <use xlink:href="#IBMPlexSans-75" transform="translate(62.099991 0)"/>
      <use xlink:href="#IBMPlexSans-6d" transform="translate(118.899979 0)"/>
      <use xlink:href="#IBMPlexSans-75" transform="translate(206.199966 0)"/>
      <use xlink:href="#IBMPlexSans-6c" transform="translate(262.999954 0)"/>
      <use xlink:href="#IBMPlexSans-61" transform="translate(290.199951 0)"/>
      <use xlink:href="#IBMPlexSans-74" transform="translate(343.599945 0)"/>
      <use xlink:href="#IBMPlexSans-69" transform="translate(378.699936 0)"/>
      <use xlink:href="#IBMPlexSans-76" transform="translate(403.699921 0)"/>
      <use xlink:href="#IBMPlexSans-65" transform="translate(452.899918 0)"/>
      <use xlink:href="#IBMPlexSans-20" transform="translate(507.799911 0)"/>
      <use xlink:href="#IBMPlexSans-50" transform="translate(531.399902 0)"/>
      <use xlink:href="#IBMPlexSans-72" transform="translate(591.999893 0)"/>
      <use xlink:href="#IBMPlexSans-6f" transform="translate(628.69989 0)"/>
      <use xlink:href="#IBMPlexSans-62" transform="translate(684.699875 0)"/>
      <use xlink:href="#IBMPlexSans-61" transform="translate(742.69986 0)"/>
      <use xlink:href="#IBMPlexSans-62" transform="translate(796.099854 0)"/>
      <use xlink:href="#IBMPlexSans-69" transform="translate(854.099838 0)"/>
      <use xlink:href="#IBMPlexSans-6c" transform="translate(879.099823 0)"/>
      <use xlink:href="#IBMPlexSans-69" transform="translate(906.29982 0)"/>
      <use xlink:href="#IBMPlexSans-74" transform="translate(931.299805 0)"/>
      <use xlink:href="#IBMPlexSans-79" transform="translate(966.399796 0)"/>
     </g>
    </g>
   </g>
   <g id="line2d_16">
    <path d="M 145.329515 262.343171 
L 179.706591 260.045055 
L 188.199751 257.74694 
L 200.287493 255.448824 
L 201.963015 253.150708 
L 204.865009 250.852593 
L 210.85988 248.554477 
L 216.617062 246.256361 
L 218.56172 243.958246 
L 220.573662 241.66013 
L 225.274775 239.362014 
L 231.054629 237.063899 
L 232.52903 234.765783 
L 235.12532 232.467667 
L 238.2906 230.169552 
L 240.336184 227.871436 
L 242.618725 225.57332 
L 246.489757 223.275205 
L 247.614573 220.977089 
L 250.560448 218.678973 
L 252.547524 216.380858 
L 253.791549 214.082742 
L 254.956589 211.784626 
L 258.237422 209.486511 
L 259.703046 207.188395 
L 261.812257 204.890279 
L 265.404645 202.592164 
L 267.611126 200.294048 
L 269.202543 197.995932 
L 272.190836 195.697817 
L 273.625743 193.399701 
L 274.652558 191.101585 
L 275.519207 188.80347 
L 277.59112 186.505354 
L 279.135729 184.207238 
L 280.419248 181.909123 
L 281.267613 179.611007 
L 284.342937 177.312891 
L 286.502611 175.014776 
L 286.547224 172.71666 
L 289.104021 170.418544 
L 290.006506 168.120429 
L 292.918739 165.822313 
L 293.636924 163.524197 
L 299.204687 161.226081 
L 300.336084 158.927966 
L 301.044762 156.62985 
L 302.07889 154.331734 
L 302.288787 152.033619 
L 304.240027 149.735503 
L 305.794145 147.437387 
L 307.278052 145.139272 
L 307.88361 142.841156 
L 309.654206 140.54304 
L 315.001102 138.244925 
L 315.80266 135.946809 
L 317.521331 133.648693 
L 319.053508 131.350578 
L 320.031322 129.052462 
L 323.676368 126.754346 
L 325.808251 124.456231 
L 328.31166 122.158115 
L 330.589082 119.859999 
L 330.996443 117.561884 
L 331.825062 115.263768 
L 332.827011 112.965652 
L 334.701459 110.667537 
L 337.936948 108.369421 
L 338.813836 106.071305 
L 339.856741 103.77319 
L 342.399642 101.475074 
L 345.773357 99.176958 
L 347.734104 96.878843 
L 351.793825 94.580727 
L 353.522003 92.282611 
L 355.70435 89.984496 
L 358.229699 87.68638 
L 359.952027 85.388264 
L 360.671674 83.090149 
L 365.151189 80.792033 
L 366.232123 78.493917 
L 368.044407 76.195802 
L 372.431772 73.897686 
L 378.425911 71.59957 
L 384.08363 69.301455 
L 387.727212 67.003339 
L 388.160171 64.705223 
L 390.501952 62.407108 
L 393.093854 60.108992 
L 394.034369 57.810876 
L 403.084817 55.512761 
L 405.224745 53.214645 
L 406.027036 50.916529 
L 413.331753 48.618414 
L 419.054561 46.320298 
L 422.014332 44.022182 
L 423.457285 41.724067 
L 429.564052 39.425951 
L 442.029901 37.127835 
L 450.797317 34.829719 
" clip-path="url(#p1d31103c78)" style="fill: none; stroke: #1f77b4; stroke-opacity: 0.2; stroke-width: 1.5; stroke-linecap: square"/>
   </g>
   <g id="line2d_17">
    <path d="M 151.368998 262.343171 
L 154.325844 260.045055 
L 156.739296 257.74694 
L 168.933084 255.448824 
L 175.548139 253.150708 
L 180.190013 250.852593 
L 181.521069 248.554477 
L 184.902097 246.256361 
L 187.139295 243.958246 
L 192.335532 241.66013 
L 194.918658 239.362014 
L 196.063951 237.063899 
L 201.671206 234.765783 
L 206.178512 232.467667 
L 212.132428 230.169552 
L 212.511998 227.871436 
L 215.153632 225.57332 
L 218.687512 223.275205 
L 219.819641 220.977089 
L 224.743816 218.678973 
L 227.506854 216.380858 
L 229.500512 214.082742 
L 231.908845 211.784626 
L 235.461009 209.486511 
L 235.713325 207.188395 
L 240.555589 204.890279 
L 243.003415 202.592164 
L 246.32301 200.294048 
L 247.885903 197.995932 
L 250.688434 195.697817 
L 252.744257 193.399701 
L 255.154784 191.101585 
L 259.708897 188.80347 
L 262.281784 186.505354 
L 265.773977 184.207238 
L 267.966562 181.909123 
L 271.67816 179.611007 
L 272.670601 177.312891 
L 274.282495 175.014776 
L 276.216183 172.71666 
L 280.717638 170.418544 
L 281.639138 168.120429 
L 284.972629 165.822313 
L 285.194227 163.524197 
L 288.050878 161.226081 
L 289.788564 158.927966 
L 291.200068 156.62985 
L 292.865351 154.331734 
L 295.449939 152.033619 
L 296.766368 149.735503 
L 299.130089 147.437387 
L 299.939693 145.139272 
L 301.097419 142.841156 
L 303.202974 140.54304 
L 305.129348 138.244925 
L 305.651531 135.946809 
L 307.250261 133.648693 
L 311.08692 131.350578 
L 313.644448 129.052462 
L 314.135915 126.754346 
L 316.0952 124.456231 
L 317.612019 122.158115 
L 320.291683 119.859999 
L 322.039608 117.561884 
L 323.146139 115.263768 
L 324.49621 112.965652 
L 326.481092 110.667537 
L 329.756075 108.369421 
L 332.462799 106.071305 
L 334.058603 103.77319 
L 334.711698 101.475074 
L 340.050548 99.176958 
L 343.343814 96.878843 
L 346.123673 94.580727 
L 350.375738 92.282611 
L 351.848676 89.984496 
L 356.960808 87.68638 
L 358.282356 85.388264 
L 358.825749 83.090149 
L 363.047828 80.792033 
L 366.831099 78.493917 
L 369.976632 76.195802 
L 373.379601 73.897686 
L 375.249661 71.59957 
L 377.131423 69.301455 
L 378.070475 67.003339 
L 383.715761 64.705223 
L 384.97807 62.407108 
L 387.860318 60.108992 
L 392.195757 57.810876 
L 396.930512 55.512761 
L 399.64455 53.214645 
L 401.466341 50.916529 
L 406.137469 48.618414 
L 409.694021 46.320298 
L 418.443885 44.022182 
L 424.810281 41.724067 
L 442.398501 39.425951 
L 454.012329 37.127835 
L 460.783893 34.829719 
" clip-path="url(#p1d31103c78)" style="fill: none; stroke: #1f77b4; stroke-opacity: 0.2; stroke-width: 1.5; stroke-linecap: square"/>
   </g>
   <g id="line2d_18">
    <path d="M 136.758832 262.343171 
L 153.729063 260.045055 
L 156.672744 257.74694 
L 173.285344 255.448824 
L 180.007176 253.150708 
L 180.738525 250.852593 
L 198.832108 248.554477 
L 203.332101 246.256361 
L 205.641702 243.958246 
L 206.603426 241.66013 
L 216.038564 239.362014 
L 225.253566 237.063899 
L 226.044886 234.765783 
L 226.341814 232.467667 
L 234.709913 230.169552 
L 237.394697 227.871436 
L 241.153832 225.57332 
L 243.522673 223.275205 
L 247.592632 220.977089 
L 249.046555 218.678973 
L 250.722076 216.380858 
L 251.66186 214.082742 
L 252.578972 211.784626 
L 254.106761 209.486511 
L 256.01412 207.188395 
L 259.215236 204.890279 
L 264.994358 202.592164 
L 265.087971 200.294048 
L 265.908545 197.995932 
L 267.093331 195.697817 
L 268.785673 193.399701 
L 269.91122 191.101585 
L 271.750564 188.80347 
L 273.632326 186.505354 
L 274.411944 184.207238 
L 274.894635 181.909123 
L 276.19863 179.611007 
L 276.391707 177.312891 
L 279.145237 175.014776 
L 282.166441 172.71666 
L 286.71324 170.418544 
L 287.39047 168.120429 
L 287.814652 165.822313 
L 288.560629 163.524197 
L 288.922646 161.226081 
L 292.168375 158.927966 
L 293.516252 156.62985 
L 294.953353 154.331734 
L 296.258812 152.033619 
L 297.729555 149.735503 
L 302.154219 147.437387 
L 303.897756 145.139272 
L 307.306575 142.841156 
L 307.40165 140.54304 
L 309.14665 138.244925 
L 309.692968 135.946809 
L 310.335093 133.648693 
L 311.059129 131.350578 
L 311.948449 129.052462 
L 314.357514 126.754346 
L 314.459172 124.456231 
L 315.250492 122.158115 
L 315.722943 119.859999 
L 316.074722 117.561884 
L 321.921129 115.263768 
L 323.405768 112.965652 
L 324.598599 110.667537 
L 326.473779 108.369421 
L 327.684162 106.071305 
L 331.181475 103.77319 
L 333.208044 101.475074 
L 333.622719 99.176958 
L 335.722423 96.878843 
L 336.959134 94.580727 
L 338.513252 92.282611 
L 339.387946 89.984496 
L 341.153423 87.68638 
L 342.554688 85.388264 
L 348.066137 83.090149 
L 350.443754 80.792033 
L 351.141461 78.493917 
L 353.057596 76.195802 
L 354.21386 73.897686 
L 358.449835 71.59957 
L 365.178249 69.301455 
L 366.401065 67.003339 
L 370.916416 64.705223 
L 373.411049 62.407108 
L 375.40617 60.108992 
L 378.006117 57.810876 
L 379.895192 55.512761 
L 390.2138 53.214645 
L 393.765232 50.916529 
L 397.130902 48.618414 
L 400.187211 46.320298 
L 409.09724 44.022182 
L 437.407773 41.724067 
L 445.472363 39.425951 
L 464.483058 37.127835 
L 467.715622 34.829719 
" clip-path="url(#p1d31103c78)" style="fill: none; stroke: #1f77b4; stroke-opacity: 0.2; stroke-width: 1.5; stroke-linecap: square"/>
   </g>
   <g id="line2d_19">
    <path d="M 84.203337 262.343171 
L 148.850231 260.045055 
L 160.983317 257.74694 
L 179.060079 255.448824 
L 207.288701 253.150708 
L 209.686064 250.852593 
L 211.736036 248.554477 
L 213.025405 246.256361 
L 214.097563 243.958246 
L 215.171184 241.66013 
L 217.719937 239.362014 
L 219.145336 237.063899 
L 220.4859 234.765783 
L 221.251623 232.467667 
L 223.030264 230.169552 
L 224.994669 227.871436 
L 231.039271 225.57332 
L 232.021473 223.275205 
L 235.264276 220.977089 
L 237.434921 218.678973 
L 239.53755 216.380858 
L 243.502195 214.082742 
L 248.263279 211.784626 
L 250.437581 209.486511 
L 251.473172 207.188395 
L 253.945132 204.890279 
L 254.864439 202.592164 
L 262.27447 200.294048 
L 263.655258 197.995932 
L 264.827611 195.697817 
L 268.42073 193.399701 
L 271.334426 191.101585 
L 272.861483 188.80347 
L 273.942418 186.505354 
L 277.436074 184.207238 
L 279.94899 181.909123 
L 283.442646 179.611007 
L 284.280772 177.312891 
L 285.46117 175.014776 
L 287.595979 172.71666 
L 287.674233 170.418544 
L 289.212261 168.120429 
L 292.529661 165.822313 
L 294.75662 163.524197 
L 296.457739 161.226081 
L 297.230775 158.927966 
L 301.751977 156.62985 
L 302.479669 154.331734 
L 304.065235 152.033619 
L 304.80536 149.735503 
L 311.19004 147.437387 
L 311.9543 145.139272 
L 314.462097 142.841156 
L 315.854586 140.54304 
L 316.196858 138.244925 
L 318.217576 135.946809 
L 319.39578 133.648693 
L 320.819717 131.350578 
L 322.086414 129.052462 
L 323.93234 126.754346 
L 325.951595 124.456231 
L 326.693915 122.158115 
L 329.146861 119.859999 
L 329.727552 117.561884 
L 329.919166 115.263768 
L 330.641007 112.965652 
L 334.082737 110.667537 
L 336.080784 108.369421 
L 339.101257 106.071305 
L 341.086139 103.77319 
L 341.704129 101.475074 
L 343.174872 99.176958 
L 345.472041 96.878843 
L 347.9323 94.580727 
L 349.431566 92.282611 
L 350.92425 89.984496 
L 352.185828 87.68638 
L 359.370604 85.388264 
L 364.306481 83.090149 
L 367.412521 80.792033 
L 368.538068 78.493917 
L 374.960047 76.195802 
L 377.804264 73.897686 
L 380.331076 71.59957 
L 382.53902 69.301455 
L 385.161639 67.003339 
L 393.114331 64.705223 
L 401.815195 62.407108 
L 404.24108 60.108992 
L 408.862477 57.810876 
L 409.672812 55.512761 
L 412.947063 53.214645 
L 417.973627 50.916529 
L 428.529924 48.618414 
L 430.265416 46.320298 
L 434.156194 44.022182 
L 441.02649 41.724067 
L 452.245389 39.425951 
L 463.711484 37.127835 
L 474.610783 34.829719 
" clip-path="url(#p1d31103c78)" style="fill: none; stroke: #1f77b4; stroke-opacity: 0.2; stroke-width: 1.5; stroke-linecap: square"/>
   </g>
   <g id="line2d_20">
    <path d="M 139.728842 262.343171 
L 160.469178 260.045055 
L 165.318756 257.74694 
L 170.449171 255.448824 
L 186.084689 253.150708 
L 192.119053 250.852593 
L 197.392081 248.554477 
L 202.852336 246.256361 
L 209.005909 243.958246 
L 219.720908 241.66013 
L 226.736011 239.362014 
L 226.88155 237.063899 
L 232.297192 234.765783 
L 234.820347 232.467667 
L 239.816194 230.169552 
L 242.4315 227.871436 
L 244.045588 225.57332 
L 246.878835 223.275205 
L 250.511447 220.977089 
L 252.027534 218.678973 
L 260.103825 216.380858 
L 261.363209 214.082742 
L 268.374655 211.784626 
L 268.55603 209.486511 
L 268.923899 207.188395 
L 269.399276 204.890279 
L 271.973625 202.592164 
L 273.295174 200.294048 
L 274.606483 197.995932 
L 275.077472 195.697817 
L 276.085271 193.399701 
L 278.495799 191.101585 
L 279.664495 188.80347 
L 280.368784 186.505354 
L 281.353912 184.207238 
L 283.414855 181.909123 
L 284.986524 179.611007 
L 287.245662 177.312891 
L 289.481397 175.014776 
L 292.521617 172.71666 
L 294.004062 170.418544 
L 296.10596 168.120429 
L 296.570367 165.822313 
L 297.230044 163.524197 
L 297.92702 161.226081 
L 299.950663 158.927966 
L 301.19542 156.62985 
L 301.596199 154.331734 
L 302.759776 152.033619 
L 304.710285 149.735503 
L 306.088878 147.437387 
L 309.322174 145.139272 
L 311.940405 142.841156 
L 313.299983 140.54304 
L 314.858488 138.244925 
L 316.985984 135.946809 
L 318.554728 133.648693 
L 319.890172 131.350578 
L 321.042047 129.052462 
L 321.317035 126.754346 
L 325.691235 124.456231 
L 327.509369 122.158115 
L 327.908686 119.859999 
L 329.901613 117.561884 
L 330.756561 115.263768 
L 331.008876 112.965652 
L 331.280938 110.667537 
L 332.312872 108.369421 
L 333.613211 106.071305 
L 334.701459 103.77319 
L 339.468394 101.475074 
L 343.431576 99.176958 
L 346.431571 96.878843 
L 351.344776 94.580727 
L 351.586853 92.282611 
L 356.2141 89.984496 
L 357.837696 87.68638 
L 361.561726 85.388264 
L 362.224329 83.090149 
L 365.225787 80.792033 
L 368.84816 78.493917 
L 370.492233 76.195802 
L 370.99979 73.897686 
L 371.98638 71.59957 
L 374.37131 69.301455 
L 375.548051 67.003339 
L 378.38715 64.705223 
L 379.775982 62.407108 
L 379.960282 60.108992 
L 382.135315 57.810876 
L 385.351058 55.512761 
L 396.188924 53.214645 
L 402.833233 50.916529 
L 405.318358 48.618414 
L 417.162561 46.320298 
L 423.359284 44.022182 
L 426.139143 41.724067 
L 438.17569 39.425951 
L 448.160803 37.127835 
L 471.64955 34.829719 
" clip-path="url(#p1d31103c78)" style="fill: none; stroke: #1f77b4; stroke-opacity: 0.2; stroke-width: 1.5; stroke-linecap: square"/>
   </g>
   <g id="line2d_21">
    <path d="M 97.004144 262.343171 
L 141.244929 260.045055 
L 162.274148 257.74694 
L 168.505976 255.448824 
L 175.434049 253.150708 
L 184.590542 250.852593 
L 186.570305 248.554477 
L 197.005198 246.256361 
L 205.368177 243.958246 
L 208.11732 241.66013 
L 210.974701 239.362014 
L 213.318676 237.063899 
L 217.687026 234.765783 
L 218.735781 232.467667 
L 221.228951 230.169552 
L 225.979796 227.871436 
L 226.321336 225.57332 
L 227.942006 223.275205 
L 231.243317 220.977089 
L 234.320835 218.678973 
L 236.195284 216.380858 
L 243.848855 214.082742 
L 245.393465 211.784626 
L 246.777178 209.486511 
L 247.305212 207.188395 
L 249.42905 204.890279 
L 251.378828 202.592164 
L 259.143564 200.294048 
L 260.471694 197.995932 
L 261.588465 195.697817 
L 263.516301 193.399701 
L 264.211083 191.101585 
L 266.337847 188.80347 
L 266.703522 186.505354 
L 267.524827 184.207238 
L 270.544569 181.909123 
L 271.226918 179.611007 
L 272.054805 177.312891 
L 275.878299 175.014776 
L 276.627201 172.71666 
L 277.327834 170.418544 
L 278.585023 168.120429 
L 282.899985 165.822313 
L 285.032599 163.524197 
L 287.606949 161.226081 
L 288.349269 158.927966 
L 291.055993 156.62985 
L 291.624251 154.331734 
L 293.224443 152.033619 
L 295.342431 149.735503 
L 297.064027 147.437387 
L 302.899464 145.139272 
L 305.096437 142.841156 
L 307.48283 140.54304 
L 309.34192 138.244925 
L 311.465759 135.946809 
L 313.449178 133.648693 
L 313.675165 131.350578 
L 314.109587 129.052462 
L 314.630307 126.754346 
L 315.477941 124.456231 
L 316.275112 122.158115 
L 318.671744 119.859999 
L 321.736829 117.561884 
L 323.66686 115.263768 
L 325.60201 112.965652 
L 328.56105 110.667537 
L 331.007413 108.369421 
L 335.699751 106.071305 
L 336.368204 103.77319 
L 342.037624 101.475074 
L 342.34991 99.176958 
L 345.553221 96.878843 
L 346.755559 94.580727 
L 349.297729 92.282611 
L 349.79139 89.984496 
L 353.080999 87.68638 
L 356.004934 85.388264 
L 358.345252 83.090149 
L 359.292349 80.792033 
L 363.961284 78.493917 
L 365.647775 76.195802 
L 367.792092 73.897686 
L 372.272338 71.59957 
L 374.771358 69.301455 
L 376.190908 67.003339 
L 377.470769 64.705223 
L 379.479054 62.407108 
L 382.68017 60.108992 
L 385.307177 57.810876 
L 393.125302 55.512761 
L 396.216715 53.214645 
L 399.728655 50.916529 
L 411.535559 48.618414 
L 415.304933 46.320298 
L 422.779324 44.022182 
L 423.901214 41.724067 
L 440.205916 39.425951 
L 448.400685 37.127835 
L 450.730764 34.829719 
" clip-path="url(#p1d31103c78)" style="fill: none; stroke: #1f77b4; stroke-opacity: 0.2; stroke-width: 1.5; stroke-linecap: square"/>
   </g>
   <g id="line2d_22">
    <path d="M 126.073818 262.343171 
L 132.070152 260.045055 
L 151.820241 257.74694 
L 165.973313 255.448824 
L 176.55667 253.150708 
L 182.588839 250.852593 
L 184.592736 248.554477 
L 188.374544 246.256361 
L 193.242405 243.958246 
L 197.272871 241.66013 
L 202.012015 239.362014 
L 206.904742 237.063899 
L 209.226777 234.765783 
L 216.135103 232.467667 
L 216.857676 230.169552 
L 219.421786 227.871436 
L 222.788919 225.57332 
L 227.228941 223.275205 
L 230.093636 220.977089 
L 232.714792 218.678973 
L 233.498067 216.380858 
L 235.65116 214.082742 
L 240.235258 211.784626 
L 243.455389 209.486511 
L 245.100925 207.188395 
L 246.679908 204.890279 
L 253.534846 202.592164 
L 254.945618 200.294048 
L 256.447079 197.995932 
L 260.547754 195.697817 
L 261.27691 193.399701 
L 263.77593 191.101585 
L 265.371003 188.80347 
L 266.832971 186.505354 
L 268.835405 184.207238 
L 271.949491 181.909123 
L 275.307847 179.611007 
L 276.94095 177.312891 
L 279.621345 175.014776 
L 280.427292 172.71666 
L 282.213248 170.418544 
L 282.649132 168.120429 
L 284.986524 165.822313 
L 287.572576 163.524197 
L 288.819526 161.226081 
L 291.101336 158.927966 
L 292.943605 156.62985 
L 293.754672 154.331734 
L 294.964323 152.033619 
L 297.696645 149.735503 
L 299.980649 147.437387 
L 301.218092 145.139272 
L 301.558901 142.841156 
L 303.077182 140.54304 
L 303.376304 138.244925 
L 306.264402 135.946809 
L 307.793654 133.648693 
L 308.407256 131.350578 
L 310.41481 129.052462 
L 313.531821 126.754346 
L 314.632501 124.456231 
L 316.834594 122.158115 
L 320.272668 119.859999 
L 321.560574 117.561884 
L 323.744383 115.263768 
L 324.827511 112.965652 
L 325.582264 110.667537 
L 326.968902 108.369421 
L 328.49596 106.071305 
L 330.41502 103.77319 
L 332.653681 101.475074 
L 334.95158 99.176958 
L 335.164403 96.878843 
L 336.730222 94.580727 
L 337.83456 92.282611 
L 342.412075 89.984496 
L 343.185843 87.68638 
L 346.474721 85.388264 
L 346.920844 83.090149 
L 347.944002 80.792033 
L 348.638783 78.493917 
L 350.211916 76.195802 
L 351.364523 73.897686 
L 353.046626 71.59957 
L 358.513462 69.301455 
L 360.575136 67.003339 
L 363.844999 64.705223 
L 368.876683 62.407108 
L 369.873512 60.108992 
L 374.165801 57.810876 
L 376.909093 55.512761 
L 381.937119 53.214645 
L 387.578017 50.916529 
L 399.695744 48.618414 
L 409.837366 46.320298 
L 415.432188 44.022182 
L 418.418288 41.724067 
L 421.301998 39.425951 
L 437.954091 37.127835 
L 447.645202 34.829719 
" clip-path="url(#p1d31103c78)" style="fill: none; stroke: #1f77b4; stroke-opacity: 0.2; stroke-width: 1.5; stroke-linecap: square"/>
   </g>
   <g id="line2d_23">
    <path d="M 127.132812 262.343171 
L 153.706391 260.045055 
L 164.79511 257.74694 
L 172.043513 255.448824 
L 183.290203 253.150708 
L 185.077621 250.852593 
L 198.021042 248.554477 
L 208.810639 246.256361 
L 210.083187 243.958246 
L 213.666067 241.66013 
L 215.334275 239.362014 
L 223.41276 237.063899 
L 227.151418 234.765783 
L 230.830836 232.467667 
L 233.627516 230.169552 
L 235.809863 227.871436 
L 238.379824 225.57332 
L 243.205267 223.275205 
L 245.839588 220.977089 
L 247.249629 218.678973 
L 253.772534 216.380858 
L 254.234747 214.082742 
L 255.197203 211.784626 
L 257.105293 209.486511 
L 258.482424 207.188395 
L 260.266185 204.890279 
L 262.410501 202.592164 
L 265.860276 200.294048 
L 267.999473 197.995932 
L 269.162318 195.697817 
L 272.359046 193.399701 
L 273.609654 191.101585 
L 275.508237 188.80347 
L 277.807599 186.505354 
L 278.696189 184.207238 
L 280.361471 181.909123 
L 280.600622 179.611007 
L 283.276629 177.312891 
L 284.162294 175.014776 
L 285.706903 172.71666 
L 289.035274 170.418544 
L 290.665452 168.120429 
L 291.592072 165.822313 
L 292.581587 163.524197 
L 293.979927 161.226081 
L 296.251498 158.927966 
L 296.443843 156.62985 
L 298.694936 154.331734 
L 299.123507 152.033619 
L 300.098396 149.735503 
L 300.717117 147.437387 
L 301.847052 145.139272 
L 302.693955 142.841156 
L 303.118137 140.54304 
L 304.818525 138.244925 
L 305.158602 135.946809 
L 307.727832 133.648693 
L 309.275367 131.350578 
L 310.517199 129.052462 
L 310.670782 126.754346 
L 313.269998 124.456231 
L 316.991103 122.158115 
L 320.053263 119.859999 
L 320.6047 117.561884 
L 321.913816 115.263768 
L 323.389679 112.965652 
L 325.121514 110.667537 
L 326.02473 108.369421 
L 332.112482 106.071305 
L 335.522033 103.77319 
L 336.645386 101.475074 
L 338.443042 99.176958 
L 341.571755 96.878843 
L 343.041036 94.580727 
L 344.865752 92.282611 
L 345.8187 89.984496 
L 348.227765 87.68638 
L 349.095145 85.388264 
L 349.886465 83.090149 
L 352.615861 80.792033 
L 354.749207 78.493917 
L 355.091479 76.195802 
L 356.952763 73.897686 
L 361.286008 71.59957 
L 364.496631 69.301455 
L 374.193592 67.003339 
L 378.56633 64.705223 
L 380.40348 62.407108 
L 380.589974 60.108992 
L 384.597768 57.810876 
L 387.518778 55.512761 
L 388.781818 53.214645 
L 394.846898 50.916529 
L 395.205259 48.618414 
L 397.204037 46.320298 
L 407.095537 44.022182 
L 411.414886 41.724067 
L 422.251289 39.425951 
L 437.306116 37.127835 
L 477.484255 34.829719 
" clip-path="url(#p1d31103c78)" style="fill: none; stroke: #1f77b4; stroke-opacity: 0.2; stroke-width: 1.5; stroke-linecap: square"/>
   </g>
   <g id="line2d_24">
    <path d="M 142.847316 262.343171 
L 162.737824 260.045055 
L 167.020606 257.74694 
L 178.525462 255.448824 
L 184.042762 253.150708 
L 188.934758 250.852593 
L 200.888663 248.554477 
L 209.339404 246.256361 
L 212.133159 243.958246 
L 215.377425 241.66013 
L 216.161431 239.362014 
L 219.704819 237.063899 
L 226.433964 234.765783 
L 229.845709 232.467667 
L 231.727471 230.169552 
L 237.94906 227.871436 
L 238.841306 225.57332 
L 241.382013 223.275205 
L 242.695517 220.977089 
L 243.652122 218.678973 
L 246.356652 216.380858 
L 248.347385 214.082742 
L 252.336895 211.784626 
L 252.957811 209.486511 
L 254.993156 207.188395 
L 258.554096 204.890279 
L 260.272767 202.592164 
L 263.428539 200.294048 
L 263.98729 197.995932 
L 266.476072 195.697817 
L 268.718389 193.399701 
L 271.468263 191.101585 
L 272.362703 188.80347 
L 272.48557 186.505354 
L 274.395123 184.207238 
L 274.98971 181.909123 
L 277.488731 179.611007 
L 277.853674 177.312891 
L 279.057475 175.014776 
L 281.516272 172.71666 
L 283.670095 170.418544 
L 284.671313 168.120429 
L 287.723234 165.822313 
L 288.752973 163.524197 
L 289.148633 161.226081 
L 293.90533 158.927966 
L 295.096698 156.62985 
L 297.401179 154.331734 
L 298.137648 152.033619 
L 299.606929 149.735503 
L 301.377526 147.437387 
L 302.394833 145.139272 
L 303.788785 142.841156 
L 305.882638 140.54304 
L 306.090341 138.244925 
L 307.477711 135.946809 
L 308.522809 133.648693 
L 312.684918 131.350578 
L 313.531821 129.052462 
L 314.064243 126.754346 
L 316.090812 124.456231 
L 319.652483 122.158115 
L 322.72927 119.859999 
L 328.719753 117.561884 
L 329.971091 115.263768 
L 330.425259 112.965652 
L 333.235103 110.667537 
L 334.910625 108.369421 
L 337.244361 106.071305 
L 337.827977 103.77319 
L 342.128312 101.475074 
L 342.233626 99.176958 
L 343.827967 96.878843 
L 346.04615 94.580727 
L 346.998367 92.282611 
L 351.431075 89.984496 
L 353.670467 87.68638 
L 357.003957 85.388264 
L 360.433254 83.090149 
L 361.167529 80.792033 
L 363.126083 78.493917 
L 363.409846 76.195802 
L 366.526126 73.897686 
L 367.110474 71.59957 
L 370.50101 69.301455 
L 371.17897 67.003339 
L 374.769164 64.705223 
L 378.847168 62.407108 
L 380.173836 60.108992 
L 383.012934 57.810876 
L 386.059736 55.512761 
L 387.753541 53.214645 
L 398.478048 50.916529 
L 407.529958 48.618414 
L 419.005561 46.320298 
L 424.774445 44.022182 
L 428.812225 41.724067 
L 438.232004 39.425951 
L 443.331703 37.127835 
L 454.684439 34.829719 
" clip-path="url(#p1d31103c78)" style="fill: none; stroke: #1f77b4; stroke-opacity: 0.2; stroke-width: 1.5; stroke-linecap: square"/>
   </g>
   <g id="line2d_25">
    <path d="M 93.827163 262.343171 
L 132.852695 260.045055 
L 154.092543 257.74694 
L 165.076679 255.448824 
L 175.954769 253.150708 
L 177.340676 250.852593 
L 192.200232 248.554477 
L 200.413286 246.256361 
L 202.414257 243.958246 
L 204.481051 241.66013 
L 209.743109 239.362014 
L 213.296004 237.063899 
L 217.482979 234.765783 
L 219.785998 232.467667 
L 227.724796 230.169552 
L 231.483931 227.871436 
L 237.538773 225.57332 
L 238.904202 223.275205 
L 241.812047 220.977089 
L 245.87323 218.678973 
L 249.693067 216.380858 
L 250.419297 214.082742 
L 250.833241 211.784626 
L 254.942693 209.486511 
L 257.659656 207.188395 
L 258.657948 204.890279 
L 259.967794 202.592164 
L 260.214259 200.294048 
L 261.723033 197.995932 
L 264.941701 195.697817 
L 272.011655 193.399701 
L 272.294688 191.101585 
L 274.629886 188.80347 
L 277.221788 186.505354 
L 281.087701 184.207238 
L 282.17668 181.909123 
L 285.222019 179.611007 
L 286.197639 177.312891 
L 287.676427 175.014776 
L 290.749557 172.71666 
L 292.098897 170.418544 
L 293.484072 168.120429 
L 294.471394 165.822313 
L 295.378267 163.524197 
L 297.831213 161.226081 
L 298.768071 158.927966 
L 300.697371 156.62985 
L 301.340958 154.331734 
L 303.089615 152.033619 
L 304.743927 149.735503 
L 306.51818 147.437387 
L 309.754401 145.139272 
L 311.568148 142.841156 
L 312.355811 140.54304 
L 313.674434 138.244925 
L 315.800466 135.946809 
L 316.182962 133.648693 
L 317.398465 131.350578 
L 319.738051 129.052462 
L 323.4555 126.754346 
L 324.082266 124.456231 
L 325.042528 122.158115 
L 328.052762 119.859999 
L 330.543738 117.561884 
L 331.088593 115.263768 
L 332.383082 112.965652 
L 334.727056 110.667537 
L 335.230225 108.369421 
L 338.267518 106.071305 
L 338.552745 103.77319 
L 339.074928 101.475074 
L 340.033727 99.176958 
L 341.69901 96.878843 
L 345.112217 94.580727 
L 345.93791 92.282611 
L 346.622453 89.984496 
L 350.064915 87.68638 
L 352.243604 85.388264 
L 352.961058 83.090149 
L 360.076356 80.792033 
L 363.440563 78.493917 
L 367.494432 76.195802 
L 372.278188 73.897686 
L 374.633133 71.59957 
L 376.601194 69.301455 
L 381.811327 67.003339 
L 383.190652 64.705223 
L 384.030241 62.407108 
L 385.087041 60.108992 
L 387.556076 57.810876 
L 390.870552 55.512761 
L 393.180153 53.214645 
L 397.193067 50.916529 
L 399.159665 48.618414 
L 406.286665 46.320298 
L 416.103567 44.022182 
L 428.268832 41.724067 
L 442.103036 39.425951 
L 458.665174 37.127835 
L 473.012785 34.829719 
" clip-path="url(#p1d31103c78)" style="fill: none; stroke: #1f77b4; stroke-opacity: 0.2; stroke-width: 1.5; stroke-linecap: square"/>
   </g>
   <g id="line2d_26">
    <path d="M 126.846452 262.343171 
L 146.528087 260.045055 
L 160.783805 257.74694 
L 172.23242 255.448824 
L 180.087588 253.150708 
L 184.758427 250.852593 
L 192.870605 248.554477 
L 200.902119 246.256361 
L 205.704924 243.958246 
L 209.856914 241.66013 
L 212.591664 239.362014 
L 216.176303 237.063899 
L 219.447018 234.765783 
L 223.112501 232.467667 
L 226.481476 230.169552 
L 229.997954 227.871436 
L 232.74175 225.57332 
L 235.623497 223.275205 
L 238.883132 220.977089 
L 242.01911 218.678973 
L 244.837368 216.380858 
L 246.872227 214.082742 
L 249.697492 211.784626 
L 251.854307 209.486511 
L 254.122803 207.188395 
L 256.821047 204.890279 
L 259.637828 202.592164 
L 261.463623 200.294048 
L 263.995968 197.995932 
L 266.152812 195.697817 
L 268.248102 193.399701 
L 270.013064 191.101585 
L 272.051569 188.80347 
L 273.468968 186.505354 
L 274.998925 184.207238 
L 276.680396 181.909123 
L 278.610452 179.611007 
L 280.422264 177.312891 
L 282.405307 175.014776 
L 284.412346 172.71666 
L 285.817823 170.418544 
L 287.809226 168.120429 
L 289.140826 165.822313 
L 291.538584 163.524197 
L 293.16448 161.226081 
L 294.761414 158.927966 
L 296.459362 156.62985 
L 297.85756 154.331734 
L 299.826378 152.033619 
L 301.357597 149.735503 
L 302.486844 147.437387 
L 303.857981 145.139272 
L 305.572893 142.841156 
L 307.380471 140.54304 
L 309.328793 138.244925 
L 311.165064 135.946809 
L 313.272546 133.648693 
L 314.293868 131.350578 
L 315.774163 129.052462 
L 317.325096 126.754346 
L 319.554662 124.456231 
L 321.314314 122.158115 
L 323.544633 119.859999 
L 325.25297 117.561884 
L 327.3002 115.263768 
L 329.677184 112.965652 
L 330.746903 110.667537 
L 332.464664 108.369421 
L 334.686192 106.071305 
L 336.17481 103.77319 
L 338.447332 101.475074 
L 340.056911 99.176958 
L 342.37602 96.878843 
L 344.693713 94.580727 
L 346.716293 92.282611 
L 348.996699 89.984496 
L 350.926839 87.68638 
L 352.660071 85.388264 
L 355.933818 83.090149 
L 358.534887 80.792033 
L 361.187418 78.493917 
L 364.370181 76.195802 
L 367.227965 73.897686 
L 370.259547 71.59957 
L 373.880889 69.301455 
L 376.116628 67.003339 
L 378.819809 64.705223 
L 381.921395 62.407108 
L 384.573923 60.108992 
L 387.759413 57.810876 
L 393.115922 55.512761 
L 397.145511 53.214645 
L 401.587617 50.916529 
L 407.569718 48.618414 
L 415.369197 46.320298 
L 422.404028 44.022182 
L 428.687731 41.724067 
L 440.059134 39.425951 
L 450.726815 37.127835 
L 474.538874 34.829719 
" clip-path="url(#p1d31103c78)" style="fill: none; stroke: #000000; stroke-width: 1.5; stroke-linecap: square"/>
   </g>
   <g id="line2d_27">
    <path d="M 64.99664 263.46636 
L 69.577812 263.458007 
L 74.158985 263.447183 
L 78.740157 263.433229 
L 83.320598 263.41534 
L 87.90177 263.392518 
L 92.482943 263.363558 
L 97.064115 263.327002 
L 101.645287 263.281099 
L 106.22646 263.223759 
L 110.807632 263.152504 
L 115.388804 263.064418 
L 119.969245 262.95611 
L 124.550418 262.823585 
L 129.13159 262.662291 
L 133.712762 262.466997 
L 138.293935 262.231757 
L 142.875107 261.94986 
L 147.456279 261.613793 
L 152.037452 261.215205 
L 156.617892 260.744975 
L 161.199065 260.192894 
L 165.780237 259.548129 
L 170.361409 258.798971 
L 174.942582 257.932966 
L 179.523754 256.936997 
L 184.104926 255.797394 
L 188.685367 254.500301 
L 193.26654 253.030984 
L 197.847712 251.375271 
L 202.428884 249.518973 
L 207.010057 247.448327 
L 211.591229 245.150257 
L 216.172401 242.612664 
L 220.753574 239.824713 
L 225.334015 236.777636 
L 229.915187 233.463038 
L 234.496359 229.876092 
L 239.077532 226.013892 
L 243.658704 221.876151 
L 248.239876 217.465392 
L 252.821049 212.787097 
L 257.40149 207.850612 
L 261.982662 202.665992 
L 266.563834 197.248713 
L 271.145006 191.616477 
L 275.726179 185.789827 
L 280.307351 179.791945 
L 284.888523 173.648376 
L 289.469696 167.386706 
L 294.050137 161.03721 
L 298.631309 154.628372 
L 303.212481 148.192529 
L 307.793654 141.761373 
L 312.374826 135.366482 
L 316.955998 129.038865 
L 321.537171 122.808504 
L 326.117612 116.704903 
L 330.698784 110.752816 
L 335.279956 104.977757 
L 339.861129 99.40179 
L 344.442301 94.044275 
L 349.023473 88.921696 
L 353.604646 84.047547 
L 358.185818 79.432285 
L 362.766259 75.08401 
L 367.347431 71.005802 
L 371.928604 67.200002 
L 376.509776 63.665562 
L 381.090948 60.39896 
L 385.67212 57.394438 
L 390.253293 54.644261 
L 394.834465 52.138989 
L 399.414906 49.868107 
L 403.996078 47.818892 
L 408.577251 45.978865 
L 413.158423 44.334566 
L 417.739595 42.872191 
L 422.320768 41.577811 
L 426.90194 40.437582 
L 431.483112 39.437923 
L 436.063553 38.565796 
L 440.644726 37.808297 
L 445.225898 37.153589 
L 449.80707 36.590401 
L 454.388243 36.108229 
L 458.969415 35.697367 
L 463.550587 35.348919 
L 468.131028 35.054838 
L 472.712201 34.807729 
L 477.293373 34.6011 
L 481.874545 34.429131 
L 486.455717 34.286678 
L 491.03689 34.169228 
L 495.618062 34.072843 
L 500.199234 33.994116 
L 504.779675 33.930121 
L 509.360848 33.878325 
L 513.94202 33.836606 
L 518.523192 33.80316 
" clip-path="url(#p1d31103c78)" style="fill: none; stroke-dasharray: 4,6.6; stroke-dashoffset: 0; stroke: #d62728; stroke-width: 4"/>
   </g>
   <g id="patch_3">
    <path d="M 42.320312 274.94952 
L 42.320312 22.32 
" style="fill: none; stroke: #000000; stroke-width: 0.8; stroke-linejoin: miter; stroke-linecap: square"/>
   </g>
   <g id="patch_4">
    <path d="M 42.320313 274.94952 
L 541.19952 274.94952 
" style="fill: none; stroke: #000000; stroke-width: 0.8; stroke-linejoin: miter; stroke-linecap: square"/>
   </g>
   <g id="text_18">
    <!-- Cumulative Temperature Distribution (4000 H$_2$O, NPT) -->
    <g transform="translate(144.759916 16.32) scale(0.12 -0.12)">
     <defs>
      <path id="IBMPlexSans-44" d="M 595 0 
L 2093 0 
C 3206 0 3923 742 3923 2234 
C 3923 3725 3206 4467 2093 4467 
L 595 4467 
L 595 0 
z
M 1133 474 
L 1133 3994 
L 2093 3994 
C 2829 3994 3347 3482 3347 2598 
L 3347 1869 
C 3347 986 2829 474 2093 474 
L 1133 474 
z
" transform="scale(0.015625)"/>
      <path id="IBMPlexSans-73" d="M 1536 -77 
C 2291 -77 2758 314 2758 954 
C 2758 1453 2477 1773 1747 1882 
L 1491 1920 
C 1082 1984 858 2112 858 2432 
C 858 2746 1082 2944 1504 2944 
C 1926 2944 2208 2746 2355 2541 
L 2694 2848 
C 2426 3181 2074 3379 1542 3379 
C 870 3379 365 3059 365 2406 
C 365 1792 819 1542 1427 1453 
L 1690 1414 
C 2125 1350 2266 1152 2266 896 
C 2266 557 2010 358 1574 358 
C 1158 358 851 544 595 864 
L 230 570 
C 525 179 928 -77 1536 -77 
z
" transform="scale(0.015625)"/>
      <path id="IBMPlexSans-6e" d="M 1056 0 
L 1056 2291 
C 1056 2714 1453 2918 1862 2918 
C 2355 2918 2611 2618 2611 2029 
L 2611 0 
L 3123 0 
L 3123 2118 
C 3123 2918 2694 3379 2016 3379 
C 1523 3379 1242 3136 1082 2765 
L 1056 2765 
L 1056 3302 
L 544 3302 
L 544 0 
L 1056 0 
z
" transform="scale(0.015625)"/>
      <path id="IBMPlexSans-28" d="M 531 1997 
C 531 749 1056 -339 1690 -877 
L 2176 -877 
C 1485 -262 1011 819 1011 1715 
L 1011 2266 
C 1011 3162 1466 4224 2176 4864 
L 1690 4864 
C 1037 4307 531 3232 531 1997 
z
" transform="scale(0.015625)"/>
      <path id="IBMPlexSans-48" d="M 3392 0 
L 3930 0 
L 3930 4467 
L 3392 4467 
L 3392 2496 
L 1133 2496 
L 1133 4467 
L 595 4467 
L 595 0 
L 1133 0 
L 1133 2022 
L 3392 2022 
L 3392 0 
z
" transform="scale(0.015625)"/>
      <path id="DejaVuSans-32" d="M 1228 531 
L 3431 531 
L 3431 0 
L 469 0 
L 469 531 
Q 828 903 1448 1529 
Q 2069 2156 2228 2338 
Q 2531 2678 2651 2914 
Q 2772 3150 2772 3378 
Q 2772 3750 2511 3984 
Q 2250 4219 1831 4219 
Q 1534 4219 1204 4116 
Q 875 4013 500 3803 
L 500 4441 
Q 881 4594 1212 4672 
Q 1544 4750 1819 4750 
Q 2544 4750 2975 4387 
Q 3406 4025 3406 3419 
Q 3406 3131 3298 2873 
Q 3191 2616 2906 2266 
Q 2828 2175 2409 1742 
Q 1991 1309 1228 531 
z
" transform="scale(0.015625)"/>
      <path id="IBMPlexSans-4f" d="M 2266 -77 
C 3418 -77 4160 736 4160 2234 
C 4160 3731 3418 4544 2266 4544 
C 1114 4544 371 3731 371 2234 
C 371 736 1114 -77 2266 -77 
z
M 2266 403 
C 1491 403 947 979 947 1862 
L 947 2605 
C 947 3488 1491 4064 2266 4064 
C 3040 4064 3584 3488 3584 2605 
L 3584 1862 
C 3584 979 3040 403 2266 403 
z
" transform="scale(0.015625)"/>
      <path id="IBMPlexSans-2c" d="M 870 749 
C 602 749 480 595 480 371 
L 480 282 
C 480 109 557 -19 730 -58 
C 659 -358 506 -582 250 -851 
L 678 -851 
C 1043 -538 1261 -64 1261 282 
L 1261 371 
C 1261 595 1139 749 870 749 
z
" transform="scale(0.015625)"/>
      <path id="IBMPlexSans-4e" d="M 3309 0 
L 3930 0 
L 3930 4467 
L 3405 4467 
L 3405 749 
L 3386 749 
L 2848 1741 
L 1216 4467 
L 595 4467 
L 595 0 
L 1120 0 
L 1120 3718 
L 1139 3718 
L 1677 2726 
L 3309 0 
z
" transform="scale(0.015625)"/>
      <path id="IBMPlexSans-29" d="M 1613 1997 
C 1613 3232 1107 4307 454 4864 
L -32 4864 
C 678 4224 1133 3162 1133 2266 
L 1133 1715 
C 1133 819 659 -262 -32 -877 
L 454 -877 
C 1088 -339 1613 749 1613 1997 
z
" transform="scale(0.015625)"/>
     </defs>
     <use xlink:href="#IBMPlexSans-43"/>
     <use xlink:href="#IBMPlexSans-75" transform="translate(62.099991 0)"/>
     <use xlink:href="#IBMPlexSans-6d" transform="translate(118.899979 0)"/>
     <use xlink:href="#IBMPlexSans-75" transform="translate(206.199966 0)"/>
     <use xlink:href="#IBMPlexSans-6c" transform="translate(262.999954 0)"/>
     <use xlink:href="#IBMPlexSans-61" transform="translate(290.199951 0)"/>
     <use xlink:href="#IBMPlexSans-74" transform="translate(343.599945 0)"/>
     <use xlink:href="#IBMPlexSans-69" transform="translate(378.699936 0)"/>
     <use xlink:href="#IBMPlexSans-76" transform="translate(403.699921 0)"/>
     <use xlink:href="#IBMPlexSans-65" transform="translate(452.899918 0)"/>
     <use xlink:href="#IBMPlexSans-20" transform="translate(507.799911 0)"/>
     <use xlink:href="#IBMPlexSans-54" transform="translate(531.399902 0)"/>
     <use xlink:href="#IBMPlexSans-65" transform="translate(588.599899 0)"/>
     <use xlink:href="#IBMPlexSans-6d" transform="translate(643.499893 0)"/>
     <use xlink:href="#IBMPlexSans-70" transform="translate(730.799881 0)"/>
     <use xlink:href="#IBMPlexSans-65" transform="translate(788.799866 0)"/>
     <use xlink:href="#IBMPlexSans-72" transform="translate(843.69986 0)"/>
     <use xlink:href="#IBMPlexSans-61" transform="translate(880.399857 0)"/>
     <use xlink:href="#IBMPlexSans-74" transform="translate(933.79985 0)"/>
     <use xlink:href="#IBMPlexSans-75" transform="translate(968.899841 0)"/>
     <use xlink:href="#IBMPlexSans-72" transform="translate(1025.699829 0)"/>
     <use xlink:href="#IBMPlexSans-65" transform="translate(1062.399826 0)"/>
     <use xlink:href="#IBMPlexSans-20" transform="translate(1117.29982 0)"/>
     <use xlink:href="#IBMPlexSans-44" transform="translate(1140.899811 0)"/>
     <use xlink:href="#IBMPlexSans-69" transform="translate(1207.999802 0)"/>
     <use xlink:href="#IBMPlexSans-73" transform="translate(1232.999786 0)"/>
     <use xlink:href="#IBMPlexSans-74" transform="translate(1281.699783 0)"/>
     <use xlink:href="#IBMPlexSans-72" transform="translate(1316.799774 0)"/>
     <use xlink:href="#IBMPlexSans-69" transform="translate(1353.499771 0)"/>
     <use xlink:href="#IBMPlexSans-62" transform="translate(1378.499756 0)"/>
     <use xlink:href="#IBMPlexSans-75" transform="translate(1436.499741 0)"/>
     <use xlink:href="#IBMPlexSans-74" transform="translate(1493.299728 0)"/>
     <use xlink:href="#IBMPlexSans-69" transform="translate(1528.399719 0)"/>
     <use xlink:href="#IBMPlexSans-6f" transform="translate(1553.399704 0)"/>
     <use xlink:href="#IBMPlexSans-6e" transform="translate(1609.399689 0)"/>
     <use xlink:href="#IBMPlexSans-20" transform="translate(1666.199677 0)"/>
     <use xlink:href="#IBMPlexSans-28" transform="translate(1689.799667 0)"/>
     <use xlink:href="#IBMPlexSans-34" transform="translate(1723.299652 0)"/>
     <use xlink:href="#IBMPlexSans-30" transform="translate(1783.299637 0)"/>
     <use xlink:href="#IBMPlexSans-30" transform="translate(1843.299622 0)"/>
     <use xlink:href="#IBMPlexSans-30" transform="translate(1903.299606 0)"/>
     <use xlink:href="#IBMPlexSans-20" transform="translate(1963.299591 0)"/>
     <use xlink:href="#IBMPlexSans-48" transform="translate(1986.899582 0)"/>
     <use xlink:href="#DejaVuSans-32" transform="translate(2058.556595 -16.40625) scale(0.7)"/>
     <use xlink:href="#IBMPlexSans-4f" transform="translate(2105.827103 0)"/>
     <use xlink:href="#IBMPlexSans-2c" transform="translate(2176.62709 0)"/>
     <use xlink:href="#IBMPlexSans-20" transform="translate(2203.827087 0)"/>
     <use xlink:href="#IBMPlexSans-4e" transform="translate(2227.427078 0)"/>
     <use xlink:href="#IBMPlexSans-50" transform="translate(2298.12706 0)"/>
     <use xlink:href="#IBMPlexSans-54" transform="translate(2358.727051 0)"/>
     <use xlink:href="#IBMPlexSans-29" transform="translate(2415.927048 0)"/>
    </g>
   </g>
   <g id="legend_1">
    <g id="patch_5">
     <path d="M 49.320312 73.52 
L 148.479688 73.52 
Q 150.479688 73.52 150.479688 71.52 
L 150.479688 29.32 
Q 150.479688 27.32 148.479688 27.32 
L 49.320312 27.32 
Q 47.320312 27.32 47.320312 29.32 
L 47.320312 71.52 
Q 47.320312 73.52 49.320312 73.52 
z
" style="fill: #ffffff; opacity: 0.8; stroke: #cccccc; stroke-linejoin: miter"/>
    </g>
    <g id="line2d_28">
     <path d="M 51.320312 35.22 
L 61.320312 35.22 
L 71.320312 35.22 
" style="fill: none; stroke: #1f77b4; stroke-opacity: 0.2; stroke-width: 1.5; stroke-linecap: square"/>
    </g>
    <g id="text_19">
     <!-- Individual NVE -->
     <g transform="translate(79.320312 38.72) scale(0.1 -0.1)">
      <defs>
       <path id="IBMPlexSans-49" d="M 2176 0 
L 2176 448 
L 1549 448 
L 1549 4019 
L 2176 4019 
L 2176 4467 
L 384 4467 
L 384 4019 
L 1011 4019 
L 1011 448 
L 384 448 
L 384 0 
L 2176 0 
z
" transform="scale(0.015625)"/>
       <path id="IBMPlexSans-64" d="M 2656 0 
L 3168 0 
L 3168 4736 
L 2656 4736 
L 2656 2765 
L 2630 2765 
C 2458 3181 2118 3379 1664 3379 
C 838 3379 320 2707 320 1651 
C 320 595 838 -77 1664 -77 
C 2118 -77 2432 128 2630 538 
L 2656 538 
L 2656 0 
z
M 1805 384 
C 1229 384 870 781 870 1370 
L 870 1933 
C 870 2522 1229 2918 1805 2918 
C 2272 2918 2656 2650 2656 2285 
L 2656 1056 
C 2656 627 2272 384 1805 384 
z
" transform="scale(0.015625)"/>
       <path id="IBMPlexSans-56" d="M 2266 0 
L 3770 4467 
L 3213 4467 
L 2470 2214 
L 1965 538 
L 1933 538 
L 1440 2214 
L 704 4467 
L 128 4467 
L 1613 0 
L 2266 0 
z
" transform="scale(0.015625)"/>
       <path id="IBMPlexSans-45" d="M 3322 0 
L 3322 474 
L 1133 474 
L 1133 2022 
L 3194 2022 
L 3194 2496 
L 1133 2496 
L 1133 3994 
L 3322 3994 
L 3322 4467 
L 595 4467 
L 595 0 
L 3322 0 
z
" transform="scale(0.015625)"/>
      </defs>
      <use xlink:href="#IBMPlexSans-49"/>
      <use xlink:href="#IBMPlexSans-6e" transform="translate(39.999985 0)"/>
      <use xlink:href="#IBMPlexSans-64" transform="translate(96.799973 0)"/>
      <use xlink:href="#IBMPlexSans-69" transform="translate(154.799957 0)"/>
      <use xlink:href="#IBMPlexSans-76" transform="translate(179.799942 0)"/>
      <use xlink:href="#IBMPlexSans-69" transform="translate(228.999939 0)"/>
      <use xlink:href="#IBMPlexSans-64" transform="translate(253.999924 0)"/>
      <use xlink:href="#IBMPlexSans-75" transform="translate(311.999908 0)"/>
      <use xlink:href="#IBMPlexSans-61" transform="translate(368.799896 0)"/>
      <use xlink:href="#IBMPlexSans-6c" transform="translate(422.19989 0)"/>
      <use xlink:href="#IBMPlexSans-20" transform="translate(449.399887 0)"/>
      <use xlink:href="#IBMPlexSans-4e" transform="translate(472.999878 0)"/>
      <use xlink:href="#IBMPlexSans-56" transform="translate(543.69986 0)"/>
      <use xlink:href="#IBMPlexSans-45" transform="translate(604.599854 0)"/>
     </g>
    </g>
    <g id="line2d_29">
     <path d="M 51.320312 49.62 
L 61.320312 49.62 
L 71.320312 49.62 
" style="fill: none; stroke: #000000; stroke-width: 1.5; stroke-linecap: square"/>
    </g>
    <g id="text_20">
     <!-- Combined NVE -->
     <g transform="translate(79.320312 53.12) scale(0.1 -0.1)">
      <use xlink:href="#IBMPlexSans-43"/>
      <use xlink:href="#IBMPlexSans-6f" transform="translate(62.099991 0)"/>
      <use xlink:href="#IBMPlexSans-6d" transform="translate(118.099976 0)"/>
      <use xlink:href="#IBMPlexSans-62" transform="translate(205.399963 0)"/>
      <use xlink:href="#IBMPlexSans-69" transform="translate(263.399948 0)"/>
      <use xlink:href="#IBMPlexSans-6e" transform="translate(288.399933 0)"/>
      <use xlink:href="#IBMPlexSans-65" transform="translate(345.199921 0)"/>
      <use xlink:href="#IBMPlexSans-64" transform="translate(400.099915 0)"/>
      <use xlink:href="#IBMPlexSans-20" transform="translate(458.099899 0)"/>
      <use xlink:href="#IBMPlexSans-4e" transform="translate(481.69989 0)"/>
      <use xlink:href="#IBMPlexSans-56" transform="translate(552.399872 0)"/>
      <use xlink:href="#IBMPlexSans-45" transform="translate(613.299866 0)"/>
     </g>
    </g>
    <g id="line2d_30">
     <path d="M 51.320312 64.02 
L 61.320312 64.02 
L 71.320312 64.02 
" style="fill: none; stroke-dasharray: 4,6.6; stroke-dashoffset: 0; stroke: #d62728; stroke-width: 4"/>
    </g>
    <g id="text_21">
     <!-- NVT exact -->
     <g transform="translate(79.320312 67.52) scale(0.1 -0.1)">
      <defs>
       <path id="IBMPlexSans-78" d="M 134 0 
L 704 0 
L 1632 1293 
L 1651 1293 
L 2509 0 
L 3110 0 
L 1920 1702 
L 3085 3302 
L 2515 3302 
L 1645 2074 
L 1626 2074 
L 787 3302 
L 186 3302 
L 1357 1664 
L 134 0 
z
" transform="scale(0.015625)"/>
       <path id="IBMPlexSans-63" d="M 1773 -77 
C 2400 -77 2829 230 3040 704 
L 2669 954 
C 2490 576 2189 378 1773 378 
C 1165 378 851 794 851 1370 
L 851 1933 
C 851 2509 1165 2925 1773 2925 
C 2176 2925 2458 2726 2579 2387 
L 3008 2605 
C 2816 3059 2426 3379 1773 3379 
C 845 3379 301 2707 301 1651 
C 301 595 845 -77 1773 -77 
z
" transform="scale(0.015625)"/>
      </defs>
      <use xlink:href="#IBMPlexSans-4e"/>
      <use xlink:href="#IBMPlexSans-56" transform="translate(70.699982 0)"/>
      <use xlink:href="#IBMPlexSans-54" transform="translate(131.599976 0)"/>
      <use xlink:href="#IBMPlexSans-20" transform="translate(188.799973 0)"/>
      <use xlink:href="#IBMPlexSans-65" transform="translate(212.399963 0)"/>
      <use xlink:href="#IBMPlexSans-78" transform="translate(267.299957 0)"/>
      <use xlink:href="#IBMPlexSans-61" transform="translate(317.999954 0)"/>
      <use xlink:href="#IBMPlexSans-63" transform="translate(371.399948 0)"/>
      <use xlink:href="#IBMPlexSans-74" transform="translate(421.699936 0)"/>
     </g>
    </g>
   </g>
  </g>
 </g>
 <defs>
  <clipPath id="p1d31103c78">
   <rect x="42.320312" y="22.32" width="498.879207" height="252.62952"/>
  </clipPath>
 </defs>
</svg>