<?xml version="1.0" encoding="utf-8" standalone="no"?>
<!DOCTYPE svg PUBLIC "-//W3C//DTD SVG 1.1//EN"
  "http://www.w3.org/Graphics/SVG/1.1/DTD/svg11.dtd">
<svg xmlns:xlink="http://www.w3.org/1999/xlink" width="548.39952pt" height="312.14952pt" viewBox="0 0 548.39952 312.14952" xmlns="http://www.w3.org/2000/svg" version="1.1">
 <metadata>
  <rdf:RDF xmlns:dc="http://purl.org/dc/elements/1.1/" xmlns:cc="http://creativecommons.org/ns#" xmlns:rdf="http://www.w3.org/1999/02/22-rdf-syntax-ns#">
   <cc:Work>
    <dc:type rdf:resource="http://purl.org/dc/dcmitype/StillImage"/>
    <dc:date>2025-06-25T08:39:04.648005</dc:date>
    <dc:format>image/svg+xml</dc:format>
    <dc:creator>
     <cc:Agent>
      <dc:title>Matplotlib v3.10.1, https://matplotlib.org/</dc:title>
     </cc:Agent>
    </dc:creator>
   </cc:Work>
  </rdf:RDF>
 </metadata>
 <defs>
  <style type="text/css">*{stroke-linejoin: round; stroke-linecap: butt}</style>
 </defs>
 <g id="figure_1">
  <g id="patch_1">
   <path d="M 0 312.14952 
L 548.39952 312.14952 
L 548.39952 0 
L 0 0 
z
" style="fill: #ffffff"/>
  </g>
  <g id="axes_1">
   <g id="patch_2">
    <path d="M 45.8 274.94952 
L 541.19952 274.94952 
L 541.19952 22.32 
L 45.8 22.32 
z
" style="fill: #ffffff"/>
   </g>
   <g id="matplotlib.axis_1">
    <g id="xtick_1">
     <g id="line2d_1">
      <defs>
       <path id="mbaafb37a6b" d="M 0 0 
L 0 3.5 
" style="stroke: #000000; stroke-width: 0.8"/>
      </defs>
      <g>
       <use xlink:href="#mbaafb37a6b" x="68.31816" y="274.94952" style="stroke: #000000; stroke-width: 0.8"/>
      </g>
     </g>
     <g id="text_1">
      <!-- 0 -->
      <g transform="translate(65.31816 289.34952) scale(0.1 -0.1)">
       <defs>
        <path id="IBMPlexSans-30" d="M 1920 -77 
C 2989 -77 3456 774 3456 2234 
C 3456 3693 2989 4544 1920 4544 
C 851 4544 384 3693 384 2234 
C 384 774 851 -77 1920 -77 
z
M 1920 390 
C 1222 390 947 1005 947 1869 
L 947 2598 
C 947 3462 1222 4077 1920 4077 
C 2618 4077 2893 3462 2893 2598 
L 2893 1869 
C 2893 1005 2618 390 1920 390 
z
" transform="scale(0.015625)"/>
       </defs>
       <use xlink:href="#IBMPlexSans-30"/>
      </g>
     </g>
    </g>
    <g id="xtick_2">
     <g id="line2d_2">
      <g>
       <use xlink:href="#mbaafb37a6b" x="158.3908" y="274.94952" style="stroke: #000000; stroke-width: 0.8"/>
      </g>
     </g>
     <g id="text_2">
      <!-- 5 -->
      <g transform="translate(155.3908 289.34952) scale(0.1 -0.1)">
       <defs>
        <path id="IBMPlexSans-35" d="M 3187 4467 
L 794 4467 
L 634 2010 
L 1088 1946 
C 1274 2150 1478 2323 1888 2323 
C 2496 2323 2822 1984 2822 1395 
L 2822 1331 
C 2822 742 2496 403 1888 403 
C 1350 403 1126 640 896 992 
L 493 685 
C 762 301 1146 -77 1888 -77 
C 2829 -77 3392 531 3392 1402 
C 3392 2266 2829 2784 2061 2784 
C 1594 2784 1357 2592 1146 2291 
L 1101 2291 
L 1229 3994 
L 3187 3994 
L 3187 4467 
z
" transform="scale(0.015625)"/>
       </defs>
       <use xlink:href="#IBMPlexSans-35"/>
      </g>
     </g>
    </g>
    <g id="xtick_3">
     <g id="line2d_3">
      <g>
       <use xlink:href="#mbaafb37a6b" x="248.46344" y="274.94952" style="stroke: #000000; stroke-width: 0.8"/>
      </g>
     </g>
     <g id="text_3">
      <!-- 10 -->
      <g transform="translate(242.46344 289.34952) scale(0.1 -0.1)">
       <defs>
        <path id="IBMPlexSans-31" d="M 3501 0 
L 3501 474 
L 2349 474 
L 2349 4467 
L 1510 4467 
L 326 3360 
L 640 3021 
L 1766 4070 
L 1811 4070 
L 1811 474 
L 563 474 
L 563 0 
L 3501 0 
z
" transform="scale(0.015625)"/>
       </defs>
       <use xlink:href="#IBMPlexSans-31"/>
       <use xlink:href="#IBMPlexSans-30" transform="translate(59.999985 0)"/>
      </g>
     </g>
    </g>
    <g id="xtick_4">
     <g id="line2d_4">
      <g>
       <use xlink:href="#mbaafb37a6b" x="338.53608" y="274.94952" style="stroke: #000000; stroke-width: 0.8"/>
      </g>
     </g>
     <g id="text_4">
      <!-- 15 -->
      <g transform="translate(332.53608 289.34952) scale(0.1 -0.1)">
       <use xlink:href="#IBMPlexSans-31"/>
       <use xlink:href="#IBMPlexSans-35" transform="translate(59.999985 0)"/>
      </g>
     </g>
    </g>
    <g id="xtick_5">
     <g id="line2d_5">
      <g>
       <use xlink:href="#mbaafb37a6b" x="428.60872" y="274.94952" style="stroke: #000000; stroke-width: 0.8"/>
      </g>
     </g>
     <g id="text_5">
      <!-- 20 -->
      <g transform="translate(422.60872 289.34952) scale(0.1 -0.1)">
       <defs>
        <path id="IBMPlexSans-32" d="M 3411 474 
L 1062 474 
L 2266 1555 
C 2835 2067 3245 2554 3245 3245 
C 3245 4006 2746 4544 1875 4544 
C 1011 4544 614 4019 442 3494 
L 922 3309 
C 1043 3731 1299 4064 1850 4064 
C 2400 4064 2675 3725 2675 3232 
L 2675 3155 
C 2675 2726 2355 2278 1939 1894 
L 480 550 
L 480 0 
L 3411 0 
L 3411 474 
z
" transform="scale(0.015625)"/>
       </defs>
       <use xlink:href="#IBMPlexSans-32"/>
       <use xlink:href="#IBMPlexSans-30" transform="translate(59.999985 0)"/>
      </g>
     </g>
    </g>
    <g id="xtick_6">
     <g id="line2d_6">
      <g>
       <use xlink:href="#mbaafb37a6b" x="518.68136" y="274.94952" style="stroke: #000000; stroke-width: 0.8"/>
      </g>
     </g>
     <g id="text_6">
      <!-- 25 -->
      <g transform="translate(512.68136 289.34952) scale(0.1 -0.1)">
       <use xlink:href="#IBMPlexSans-32"/>
       <use xlink:href="#IBMPlexSans-35" transform="translate(59.999985 0)"/>
      </g>
     </g>
    </g>
    <g id="text_7">
     <!-- Time [ps] -->
     <g transform="translate(272.594291 302.94952) scale(0.1 -0.1)">
      <defs>
       <path id="IBMPlexSans-54" d="M 3520 3994 
L 3520 4467 
L 141 4467 
L 141 3994 
L 1562 3994 
L 1562 0 
L 2099 0 
L 2099 3994 
L 3520 3994 
z
" transform="scale(0.015625)"/>
       <path id="IBMPlexSans-69" d="M 800 4077 
C 1018 4077 1114 4192 1114 4365 
L 1114 4448 
C 1114 4621 1018 4736 800 4736 
C 582 4736 486 4621 486 4448 
L 486 4365 
C 486 4192 582 4077 800 4077 
z
M 544 0 
L 1056 0 
L 1056 3302 
L 544 3302 
L 544 0 
z
" transform="scale(0.015625)"/>
       <path id="IBMPlexSans-6d" d="M 1056 0 
L 1056 2291 
C 1056 2714 1440 2918 1843 2918 
C 2330 2918 2554 2618 2554 2029 
L 2554 0 
L 3066 0 
L 3066 2291 
C 3066 2714 3437 2918 3840 2918 
C 4339 2918 4563 2611 4563 2029 
L 4563 0 
L 5075 0 
L 5075 2118 
C 5075 2918 4672 3379 4000 3379 
C 3437 3379 3117 3066 2995 2707 
L 2982 2707 
C 2803 3181 2406 3379 1971 3379 
C 1459 3379 1229 3104 1082 2765 
L 1056 2765 
L 1056 3302 
L 544 3302 
L 544 0 
L 1056 0 
z
" transform="scale(0.015625)"/>
       <path id="IBMPlexSans-65" d="M 1786 -77 
C 2406 -77 2880 230 3091 678 
L 2726 941 
C 2554 576 2234 371 1818 371 
C 1203 371 838 800 838 1370 
L 838 1523 
L 3213 1523 
L 3213 1766 
C 3213 2701 2669 3379 1786 3379 
C 890 3379 301 2701 301 1651 
C 301 602 890 -77 1786 -77 
z
M 1786 2950 
C 2310 2950 2662 2560 2662 1978 
L 2662 1907 
L 838 1907 
L 838 1952 
C 838 2528 1229 2950 1786 2950 
z
" transform="scale(0.015625)"/>
       <path id="IBMPlexSans-20" transform="scale(0.015625)"/>
       <path id="IBMPlexSans-5b" d="M 1645 -883 
L 1645 -480 
L 1037 -480 
L 1037 4461 
L 1645 4461 
L 1645 4864 
L 595 4864 
L 595 -883 
L 1645 -883 
z
" transform="scale(0.015625)"/>
       <path id="IBMPlexSans-70" d="M 544 -1280 
L 1056 -1280 
L 1056 538 
L 1082 538 
C 1280 128 1594 -77 2048 -77 
C 2874 -77 3392 595 3392 1651 
C 3392 2707 2874 3379 2048 3379 
C 1594 3379 1254 3181 1082 2765 
L 1056 2765 
L 1056 3302 
L 544 3302 
L 544 -1280 
z
M 1907 384 
C 1440 384 1056 627 1056 1056 
L 1056 2285 
C 1056 2650 1440 2918 1907 2918 
C 2483 2918 2842 2522 2842 1933 
L 2842 1370 
C 2842 781 2483 384 1907 384 
z
" transform="scale(0.015625)"/>
       <path id="IBMPlexSans-73" d="M 1536 -77 
C 2291 -77 2758 314 2758 954 
C 2758 1453 2477 1773 1747 1882 
L 1491 1920 
C 1082 1984 858 2112 858 2432 
C 858 2746 1082 2944 1504 2944 
C 1926 2944 2208 2746 2355 2541 
L 2694 2848 
C 2426 3181 2074 3379 1542 3379 
C 870 3379 365 3059 365 2406 
C 365 1792 819 1542 1427 1453 
L 1690 1414 
C 2125 1350 2266 1152 2266 896 
C 2266 557 2010 358 1574 358 
C 1158 358 851 544 595 864 
L 230 570 
C 525 179 928 -77 1536 -77 
z
" transform="scale(0.015625)"/>
       <path id="IBMPlexSans-5d" d="M 384 4864 
L 384 4461 
L 992 4461 
L 992 -480 
L 384 -480 
L 384 -883 
L 1434 -883 
L 1434 4864 
L 384 4864 
z
" transform="scale(0.015625)"/>
      </defs>
      <use xlink:href="#IBMPlexSans-54"/>
      <use xlink:href="#IBMPlexSans-69" transform="translate(57.199997 0)"/>
      <use xlink:href="#IBMPlexSans-6d" transform="translate(82.199982 0)"/>
      <use xlink:href="#IBMPlexSans-65" transform="translate(169.499969 0)"/>
      <use xlink:href="#IBMPlexSans-20" transform="translate(224.399963 0)"/>
      <use xlink:href="#IBMPlexSans-5b" transform="translate(247.999954 0)"/>
      <use xlink:href="#IBMPlexSans-70" transform="translate(279.699951 0)"/>
      <use xlink:href="#IBMPlexSans-73" transform="translate(337.699936 0)"/>
      <use xlink:href="#IBMPlexSans-5d" transform="translate(386.399933 0)"/>
     </g>
    </g>
   </g>
   <g id="matplotlib.axis_2">
    <g id="ytick_1">
     <g id="line2d_7">
      <defs>
       <path id="md5b244c144" d="M 0 0 
L -3.5 0 
" style="stroke: #000000; stroke-width: 0.8"/>
      </defs>
      <g>
       <use xlink:href="#md5b244c144" x="45.8" y="266.624998" style="stroke: #000000; stroke-width: 0.8"/>
      </g>
     </g>
     <g id="text_8">
      <!-- 293 -->
      <g transform="translate(20.8 270.324998) scale(0.1 -0.1)">
       <defs>
        <path id="IBMPlexSans-39" d="M 3411 2829 
C 3411 3891 2842 4544 1914 4544 
C 1018 4544 429 3942 429 3066 
C 429 2221 979 1690 1747 1690 
C 2291 1690 2611 1965 2822 2330 
L 2854 2317 
C 2611 1280 2080 698 1126 0 
L 1818 0 
C 2534 467 3411 1504 3411 2829 
z
M 1920 2144 
C 1331 2144 986 2483 986 3085 
L 986 3136 
C 986 3738 1331 4077 1920 4077 
C 2509 4077 2854 3738 2854 3136 
L 2854 3085 
C 2854 2483 2509 2144 1920 2144 
z
" transform="scale(0.015625)"/>
        <path id="IBMPlexSans-33" d="M 1184 2573 
L 1184 2106 
L 1709 2106 
C 2336 2106 2669 1805 2669 1280 
L 2669 1229 
C 2669 704 2336 403 1709 403 
C 1165 403 902 640 672 992 
L 269 685 
C 544 301 941 -77 1715 -77 
C 2624 -77 3232 454 3232 1222 
C 3232 1894 2771 2253 2291 2349 
L 2291 2374 
C 2765 2496 3149 2842 3149 3418 
C 3149 4141 2547 4544 1792 4544 
C 1075 4544 685 4173 461 3814 
L 858 3507 
C 1043 3846 1318 4064 1779 4064 
C 2253 4064 2579 3827 2579 3360 
L 2579 3315 
C 2579 2886 2272 2573 1670 2573 
L 1184 2573 
z
" transform="scale(0.015625)"/>
       </defs>
       <use xlink:href="#IBMPlexSans-32"/>
       <use xlink:href="#IBMPlexSans-39" transform="translate(59.999985 0)"/>
       <use xlink:href="#IBMPlexSans-33" transform="translate(119.999969 0)"/>
      </g>
     </g>
    </g>
    <g id="ytick_2">
     <g id="line2d_8">
      <g>
       <use xlink:href="#md5b244c144" x="45.8" y="238.317821" style="stroke: #000000; stroke-width: 0.8"/>
      </g>
     </g>
     <g id="text_9">
      <!-- 294 -->
      <g transform="translate(20.8 242.017821) scale(0.1 -0.1)">
       <defs>
        <path id="IBMPlexSans-34" d="M 2912 0 
L 2912 877 
L 3558 877 
L 3558 1325 
L 2912 1325 
L 2912 4467 
L 2112 4467 
L 243 1350 
L 243 877 
L 2400 877 
L 2400 0 
L 2912 0 
z
M 2368 4051 
L 2400 4051 
L 2400 1325 
L 749 1325 
L 2368 4051 
z
" transform="scale(0.015625)"/>
       </defs>
       <use xlink:href="#IBMPlexSans-32"/>
       <use xlink:href="#IBMPlexSans-39" transform="translate(59.999985 0)"/>
       <use xlink:href="#IBMPlexSans-34" transform="translate(119.999969 0)"/>
      </g>
     </g>
    </g>
    <g id="ytick_3">
     <g id="line2d_9">
      <g>
       <use xlink:href="#md5b244c144" x="45.8" y="210.010644" style="stroke: #000000; stroke-width: 0.8"/>
      </g>
     </g>
     <g id="text_10">
      <!-- 295 -->
      <g transform="translate(20.8 213.710644) scale(0.1 -0.1)">
       <use xlink:href="#IBMPlexSans-32"/>
       <use xlink:href="#IBMPlexSans-39" transform="translate(59.999985 0)"/>
       <use xlink:href="#IBMPlexSans-35" transform="translate(119.999969 0)"/>
      </g>
     </g>
    </g>
    <g id="ytick_4">
     <g id="line2d_10">
      <g>
       <use xlink:href="#md5b244c144" x="45.8" y="181.703468" style="stroke: #000000; stroke-width: 0.8"/>
      </g>
     </g>
     <g id="text_11">
      <!-- 296 -->
      <g transform="translate(20.8 185.403468) scale(0.1 -0.1)">
       <defs>
        <path id="IBMPlexSans-36" d="M 1926 -77 
C 2822 -77 3411 525 3411 1402 
C 3411 2246 2861 2778 2093 2778 
C 1549 2778 1229 2502 1018 2138 
L 986 2150 
C 1229 3187 1760 3770 2714 4467 
L 2022 4467 
C 1306 4000 429 2963 429 1638 
C 429 576 998 -77 1926 -77 
z
M 1920 390 
C 1331 390 986 730 986 1331 
L 986 1382 
C 986 1984 1331 2323 1920 2323 
C 2509 2323 2854 1984 2854 1382 
L 2854 1331 
C 2854 730 2509 390 1920 390 
z
" transform="scale(0.015625)"/>
       </defs>
       <use xlink:href="#IBMPlexSans-32"/>
       <use xlink:href="#IBMPlexSans-39" transform="translate(59.999985 0)"/>
       <use xlink:href="#IBMPlexSans-36" transform="translate(119.999969 0)"/>
      </g>
     </g>
    </g>
    <g id="ytick_5">
     <g id="line2d_11">
      <g>
       <use xlink:href="#md5b244c144" x="45.8" y="153.396291" style="stroke: #000000; stroke-width: 0.8"/>
      </g>
     </g>
     <g id="text_12">
      <!-- 297 -->
      <g transform="translate(20.8 157.096291) scale(0.1 -0.1)">
       <defs>
        <path id="IBMPlexSans-37" d="M 1696 0 
L 3373 3994 
L 3373 4467 
L 442 4467 
L 442 3174 
L 922 3174 
L 922 4006 
L 2829 4006 
L 1120 0 
L 1696 0 
z
" transform="scale(0.015625)"/>
       </defs>
       <use xlink:href="#IBMPlexSans-32"/>
       <use xlink:href="#IBMPlexSans-39" transform="translate(59.999985 0)"/>
       <use xlink:href="#IBMPlexSans-37" transform="translate(119.999969 0)"/>
      </g>
     </g>
    </g>
    <g id="ytick_6">
     <g id="line2d_12">
      <g>
       <use xlink:href="#md5b244c144" x="45.8" y="125.089114" style="stroke: #000000; stroke-width: 0.8"/>
      </g>
     </g>
     <g id="text_13">
      <!-- 298 -->
      <g transform="translate(20.8 128.789114) scale(0.1 -0.1)">
       <defs>
        <path id="IBMPlexSans-38" d="M 1920 -77 
C 2938 -77 3469 480 3469 1216 
C 3469 1824 3104 2176 2566 2323 
L 2566 2374 
C 3034 2534 3334 2912 3334 3424 
C 3334 4102 2810 4544 1920 4544 
C 1030 4544 506 4102 506 3424 
C 506 2912 806 2534 1274 2374 
L 1274 2323 
C 736 2176 371 1824 371 1216 
C 371 480 902 -77 1920 -77 
z
M 1920 390 
C 1299 390 941 685 941 1190 
L 941 1325 
C 941 1830 1299 2125 1920 2125 
C 2541 2125 2899 1830 2899 1325 
L 2899 1190 
C 2899 685 2541 390 1920 390 
z
M 1920 2573 
C 1363 2573 1062 2822 1062 3277 
L 1062 3373 
C 1062 3827 1363 4077 1920 4077 
C 2477 4077 2778 3827 2778 3373 
L 2778 3277 
C 2778 2822 2477 2573 1920 2573 
z
" transform="scale(0.015625)"/>
       </defs>
       <use xlink:href="#IBMPlexSans-32"/>
       <use xlink:href="#IBMPlexSans-39" transform="translate(59.999985 0)"/>
       <use xlink:href="#IBMPlexSans-38" transform="translate(119.999969 0)"/>
      </g>
     </g>
    </g>
    <g id="ytick_7">
     <g id="line2d_13">
      <g>
       <use xlink:href="#md5b244c144" x="45.8" y="96.781938" style="stroke: #000000; stroke-width: 0.8"/>
      </g>
     </g>
     <g id="text_14">
      <!-- 299 -->
      <g transform="translate(20.8 100.481938) scale(0.1 -0.1)">
       <use xlink:href="#IBMPlexSans-32"/>
       <use xlink:href="#IBMPlexSans-39" transform="translate(59.999985 0)"/>
       <use xlink:href="#IBMPlexSans-39" transform="translate(119.999969 0)"/>
      </g>
     </g>
    </g>
    <g id="ytick_8">
     <g id="line2d_14">
      <g>
       <use xlink:href="#md5b244c144" x="45.8" y="68.474761" style="stroke: #000000; stroke-width: 0.8"/>
      </g>
     </g>
     <g id="text_15">
      <!-- 300 -->
      <g transform="translate(20.8 72.174761) scale(0.1 -0.1)">
       <use xlink:href="#IBMPlexSans-33"/>
       <use xlink:href="#IBMPlexSans-30" transform="translate(59.999985 0)"/>
       <use xlink:href="#IBMPlexSans-30" transform="translate(119.999969 0)"/>
      </g>
     </g>
    </g>
    <g id="ytick_9">
     <g id="line2d_15">
      <g>
       <use xlink:href="#md5b244c144" x="45.8" y="40.167584" style="stroke: #000000; stroke-width: 0.8"/>
      </g>
     </g>
     <g id="text_16">
      <!-- 301 -->
      <g transform="translate(20.8 43.867584) scale(0.1 -0.1)">
       <use xlink:href="#IBMPlexSans-33"/>
       <use xlink:href="#IBMPlexSans-30" transform="translate(59.999985 0)"/>
       <use xlink:href="#IBMPlexSans-31" transform="translate(119.999969 0)"/>
      </g>
     </g>
    </g>
    <g id="text_17">
     <!-- Temperature [K] -->
     <g transform="translate(14.8 185.451166) rotate(-90) scale(0.1 -0.1)">
      <defs>
       <path id="IBMPlexSans-72" d="M 1056 0 
L 1056 2240 
C 1056 2554 1389 2790 1939 2790 
L 2240 2790 
L 2240 3302 
L 2042 3302 
C 1504 3302 1203 3008 1088 2694 
L 1056 2694 
L 1056 3302 
L 544 3302 
L 544 0 
L 1056 0 
z
" transform="scale(0.015625)"/>
       <path id="IBMPlexSans-61" d="M 3232 0 
L 3232 448 
L 2854 448 
L 2854 2266 
C 2854 2963 2381 3379 1587 3379 
C 992 3379 595 3085 416 2733 
L 723 2445 
C 902 2746 1165 2938 1562 2938 
C 2086 2938 2342 2682 2342 2214 
L 2342 1888 
L 1690 1888 
C 730 1888 282 1542 282 922 
C 282 307 691 -77 1389 -77 
C 1850 -77 2202 134 2342 538 
L 2374 538 
C 2413 230 2566 0 2944 0 
L 3232 0 
z
M 1472 358 
C 1075 358 819 544 819 870 
L 819 1005 
C 819 1325 1082 1504 1664 1504 
L 2342 1504 
L 2342 960 
C 2342 621 1978 358 1472 358 
z
" transform="scale(0.015625)"/>
       <path id="IBMPlexSans-74" d="M 1914 0 
L 1914 448 
L 1242 448 
L 1242 2854 
L 1965 2854 
L 1965 3302 
L 1242 3302 
L 1242 4218 
L 781 4218 
L 781 3603 
C 781 3379 710 3302 493 3302 
L 186 3302 
L 186 2854 
L 730 2854 
L 730 544 
C 730 224 922 0 1274 0 
L 1914 0 
z
" transform="scale(0.015625)"/>
       <path id="IBMPlexSans-75" d="M 2579 0 
L 3091 0 
L 3091 3302 
L 2579 3302 
L 2579 1018 
C 2579 582 2182 384 1779 384 
C 1286 384 1024 685 1024 1274 
L 1024 3302 
L 512 3302 
L 512 1184 
C 512 384 947 -77 1626 -77 
C 2176 -77 2426 224 2554 538 
L 2579 538 
L 2579 0 
z
" transform="scale(0.015625)"/>
       <path id="IBMPlexSans-4b" d="M 3251 0 
L 3917 0 
L 2138 2554 
L 3802 4467 
L 3142 4467 
L 1792 2867 
L 1152 2093 
L 1133 2093 
L 1133 4467 
L 595 4467 
L 595 0 
L 1133 0 
L 1133 1491 
L 1766 2195 
L 3251 0 
z
" transform="scale(0.015625)"/>
      </defs>
      <use xlink:href="#IBMPlexSans-54"/>
      <use xlink:href="#IBMPlexSans-65" transform="translate(57.199997 0)"/>
      <use xlink:href="#IBMPlexSans-6d" transform="translate(112.099991 0)"/>
      <use xlink:href="#IBMPlexSans-70" transform="translate(199.399979 0)"/>
      <use xlink:href="#IBMPlexSans-65" transform="translate(257.399963 0)"/>
      <use xlink:href="#IBMPlexSans-72" transform="translate(312.299957 0)"/>
      <use xlink:href="#IBMPlexSans-61" transform="translate(348.999954 0)"/>
      <use xlink:href="#IBMPlexSans-74" transform="translate(402.399948 0)"/>
      <use xlink:href="#IBMPlexSans-75" transform="translate(437.499939 0)"/>
      <use xlink:href="#IBMPlexSans-72" transform="translate(494.299927 0)"/>
      <use xlink:href="#IBMPlexSans-65" transform="translate(530.999924 0)"/>
      <use xlink:href="#IBMPlexSans-20" transform="translate(585.899918 0)"/>
      <use xlink:href="#IBMPlexSans-5b" transform="translate(609.499908 0)"/>
      <use xlink:href="#IBMPlexSans-4b" transform="translate(641.199905 0)"/>
      <use xlink:href="#IBMPlexSans-5d" transform="translate(704.599899 0)"/>
     </g>
    </g>
   </g>
   <g id="line2d_16">
    <path d="M 117.155011 -1 
L 122.361744 25.401083 
L 131.369008 29.416593 
L 140.376272 35.765062 
L 149.383536 15.488863 
L 158.3908 65.736823 
L 167.398064 36.626984 
L 176.405328 16.265436 
L 185.412592 81.302185 
L 194.419856 64.789204 
L 203.231474 -1 
M 203.647257 -1 
L 212.434384 57.307343 
L 221.441648 36.63139 
L 230.448912 51.973356 
L 239.456176 11.500694 
L 248.46344 41.848884 
L 257.470704 42.637292 
L 266.477968 73.538098 
L 275.485232 74.427017 
L 284.492496 88.21195 
L 293.49976 42.584812 
L 302.507024 59.336479 
L 311.514288 48.826032 
L 320.521552 45.242714 
L 329.528816 23.724707 
L 338.53608 11.873279 
L 347.543344 37.135111 
L 356.550608 25.492869 
L 365.557872 51.117394 
L 374.565136 89.917698 
L 383.5724 27.030637 
L 392.579664 46.210762 
L 401.586928 26.962781 
L 410.594192 63.976738 
L 419.601456 59.810526 
L 428.60872 30.986368 
L 437.615984 49.671757 
L 446.623248 55.145906 
L 455.630512 22.891162 
L 464.637776 78.764793 
L 473.64504 97.42798 
L 482.652304 67.921455 
L 491.659568 49.634265 
L 500.666832 58.481467 
L 509.674096 44.886153 
L 518.68136 40.089145 
" clip-path="url(#p1786f3f679)" style="fill: none; stroke: #1f77b4; stroke-width: 1.5; stroke-linecap: square"/>
   </g>
   <g id="line2d_17">
    <path d="M 103.760246 -1 
L 104.347216 8.640777 
L 113.35448 12.55081 
L 122.361744 50.267393 
L 131.369008 65.895429 
L 140.376272 96.135247 
L 149.383536 87.647068 
L 158.3908 99.657576 
L 167.398064 82.048349 
L 176.405328 37.619697 
L 185.412592 91.181319 
L 194.419856 85.746735 
L 203.42712 88.290994 
L 212.434384 73.04496 
L 221.441648 51.673595 
L 230.448912 85.146693 
L 239.456176 92.400925 
L 248.46344 69.497579 
L 257.470704 55.848489 
L 266.477968 95.983207 
L 275.485232 95.38783 
L 284.492496 91.696701 
L 293.49976 83.093801 
L 302.507024 103.345941 
L 311.514288 66.66116 
L 320.521552 65.810078 
L 329.528816 98.627502 
L 338.53608 54.535239 
L 347.543344 52.569597 
L 356.550608 82.795076 
L 365.557872 72.152241 
L 374.565136 99.075503 
L 383.5724 65.096525 
L 392.579664 77.866717 
L 401.586928 67.889405 
L 410.594192 83.148224 
L 419.601456 67.466802 
L 428.60872 64.767737 
L 437.615984 73.086944 
L 446.623248 81.085657 
L 455.630512 92.020824 
L 464.637776 107.581651 
L 473.64504 110.222318 
L 482.652304 101.674014 
L 491.659568 72.838842 
L 500.666832 95.852763 
L 509.674096 96.513621 
L 518.68136 88.617881 
" clip-path="url(#p1786f3f679)" style="fill: none; stroke: #ff7f0e; stroke-width: 1.5; stroke-linecap: square"/>
   </g>
   <g id="line2d_18">
    <path d="M 100.157565 -1 
L 104.347216 77.21709 
L 113.35448 81.070366 
L 122.361744 108.067489 
L 131.369008 87.585215 
L 140.376272 111.490128 
L 149.383536 122.912171 
L 158.3908 145.342032 
L 167.398064 118.901239 
L 176.405328 105.370066 
L 185.412592 129.226171 
L 194.419856 120.866535 
L 203.42712 117.818382 
L 212.434384 101.313781 
L 221.441648 88.592052 
L 230.448912 110.924728 
L 239.456176 138.047112 
L 248.46344 93.441366 
L 257.470704 95.396728 
L 266.477968 114.404382 
L 275.485232 109.82589 
L 284.492496 106.487478 
L 293.49976 146.125559 
L 302.507024 142.099941 
L 311.514288 106.691782 
L 320.521552 108.884275 
L 329.528816 134.381726 
L 338.53608 97.647964 
L 347.543344 120.332666 
L 356.550608 128.147634 
L 365.557872 91.88943 
L 374.565136 136.191094 
L 383.5724 126.657464 
L 392.579664 128.195146 
L 401.586928 126.788772 
L 410.594192 108.683426 
L 419.601456 96.264482 
L 428.60872 125.172046 
L 437.615984 132.258774 
L 446.623248 115.79132 
L 455.630512 138.159846 
L 464.637776 137.262721 
L 473.64504 128.301402 
L 482.652304 148.053277 
L 491.659568 99.705262 
L 500.666832 121.174072 
L 509.674096 144.507105 
L 518.68136 108.465732 
" clip-path="url(#p1786f3f679)" style="fill: none; stroke: #2ca02c; stroke-width: 1.5; stroke-linecap: square"/>
   </g>
   <g id="line2d_19">
    <path d="M 99.249651 -1 
L 104.347216 87.329338 
L 113.35448 160.221527 
L 122.361744 163.705155 
L 131.369008 133.881202 
L 140.376272 125.4801 
L 149.383536 153.037786 
L 158.3908 182.42376 
L 167.398064 140.530209 
L 176.405328 143.63771 
L 185.412592 181.763247 
L 194.419856 149.764251 
L 203.42712 164.181664 
L 212.434384 129.844527 
L 221.441648 120.248352 
L 230.448912 139.596888 
L 239.456176 178.265625 
L 248.46344 104.364612 
L 257.470704 169.229063 
L 266.477968 141.846051 
L 275.485232 166.387461 
L 284.492496 117.907447 
L 293.49976 182.684302 
L 302.507024 164.203606 
L 311.514288 149.763905 
L 320.521552 158.61439 
L 329.528816 208.679426 
L 338.53608 141.069953 
L 347.543344 132.860284 
L 356.550608 153.480604 
L 365.557872 136.637109 
L 374.565136 160.53632 
L 383.5724 172.6111 
L 392.579664 144.926253 
L 401.586928 185.906178 
L 410.594192 140.085664 
L 419.601456 135.411455 
L 428.60872 170.522098 
L 437.615984 166.642647 
L 446.623248 162.69374 
L 455.630512 167.223683 
L 464.637776 148.977787 
L 473.64504 144.353682 
L 482.652304 176.05188 
L 491.659568 138.210037 
L 500.666832 165.723493 
L 509.674096 176.254198 
L 518.68136 118.50075 
" clip-path="url(#p1786f3f679)" style="fill: none; stroke: #d62728; stroke-width: 1.5; stroke-linecap: square"/>
   </g>
   <g id="line2d_20">
    <path d="M 97.725615 -1 
L 104.347216 116.746756 
L 113.35448 215.939058 
L 122.361744 185.128569 
L 131.369008 182.341995 
L 140.376272 191.462006 
L 149.383536 172.812208 
L 158.3908 212.08509 
L 167.398064 158.785133 
L 176.405328 177.441539 
L 185.412592 210.159618 
L 194.419856 159.523394 
L 203.42712 209.568086 
L 212.434384 155.015306 
L 221.441648 134.478306 
L 230.448912 141.574624 
L 239.456176 190.208924 
L 248.46344 118.61694 
L 257.470704 185.471308 
L 266.477968 153.54574 
L 275.485232 221.619714 
L 284.492496 162.458121 
L 293.49976 258.68356 
L 302.507024 233.298498 
L 311.514288 206.198963 
L 320.521552 194.89648 
L 329.528816 217.136204 
L 338.53608 161.98416 
L 347.543344 153.946617 
L 356.550608 153.620378 
L 365.557872 164.614202 
L 374.565136 173.328714 
L 383.5724 183.162797 
L 392.579664 197.120547 
L 401.586928 208.895479 
L 410.594192 167.759799 
L 419.601456 176.054818 
L 428.60872 240.377063 
L 437.615984 192.726577 
L 446.623248 196.544823 
L 455.630512 206.58252 
L 464.637776 150.818643 
L 473.64504 166.019713 
L 482.652304 219.325717 
L 491.659568 209.589207 
L 500.666832 181.628959 
L 509.674096 179.859804 
L 518.68136 122.510084 
" clip-path="url(#p1786f3f679)" style="fill: none; stroke: #9467bd; stroke-width: 1.5; stroke-linecap: square"/>
   </g>
   <g id="line2d_21">
    <path d="M 97.725615 -1 
L 104.347216 116.746756 
L 113.35448 215.939058 
L 122.361744 185.128569 
L 131.369008 182.341995 
L 140.376272 191.462006 
L 149.383536 172.812208 
L 158.3908 212.08509 
L 167.398064 158.785133 
L 176.405328 177.441539 
L 185.412592 210.159618 
L 194.419856 159.523394 
L 203.42712 209.568086 
L 212.434384 155.015306 
L 221.441648 134.478306 
L 230.448912 141.574624 
L 239.456176 190.208924 
L 248.46344 118.61694 
L 257.470704 185.471308 
L 266.477968 153.54574 
L 275.485232 221.619714 
L 284.492496 162.458121 
L 293.49976 258.68356 
L 302.507024 233.298498 
L 311.514288 206.198963 
L 320.521552 194.89648 
L 329.528816 217.136204 
L 338.53608 161.98416 
L 347.543344 153.946617 
L 356.550608 153.620378 
L 365.557872 164.614202 
L 374.565136 173.328714 
L 383.5724 183.162797 
L 392.579664 197.120547 
L 401.586928 208.895479 
L 410.594192 167.759799 
L 419.601456 176.054818 
L 428.60872 240.377063 
L 437.615984 192.726577 
L 446.623248 196.544823 
L 455.630512 206.58252 
L 464.637776 150.818643 
L 473.64504 166.019713 
L 482.652304 219.325717 
L 491.659568 209.589207 
L 500.666832 181.628959 
L 509.674096 179.859804 
L 518.68136 122.510084 
" clip-path="url(#p1786f3f679)" style="fill: none; stroke: #8c564b; stroke-width: 1.5; stroke-linecap: square"/>
   </g>
   <g id="line2d_22">
    <path d="M 45.8 59.639871 
L 541.19952 59.639871 
" clip-path="url(#p1786f3f679)" style="fill: none; stroke-dasharray: 1.5,2.475; stroke-dashoffset: 0; stroke: #000000; stroke-width: 1.5"/>
   </g>
   <g id="line2d_23">
    <path d="M 45.8 103.486653 
L 541.19952 103.486653 
" clip-path="url(#p1786f3f679)" style="fill: none; stroke-dasharray: 1.5,2.475; stroke-dashoffset: 0; stroke: #000000; stroke-width: 1.5"/>
   </g>
   <g id="line2d_24">
    <path d="M 45.8 149.267048 
L 541.19952 149.267048 
" clip-path="url(#p1786f3f679)" style="fill: none; stroke-dasharray: 1.5,2.475; stroke-dashoffset: 0; stroke: #000000; stroke-width: 1.5"/>
   </g>
   <g id="line2d_25">
    <path d="M 45.8 194.881931 
L 541.19952 194.881931 
" clip-path="url(#p1786f3f679)" style="fill: none; stroke-dasharray: 1.5,2.475; stroke-dashoffset: 0; stroke: #000000; stroke-width: 1.5"/>
   </g>
   <g id="line2d_26">
    <path d="M 45.8 238.26203 
L 541.19952 238.26203 
" clip-path="url(#p1786f3f679)" style="fill: none; stroke-dasharray: 1.5,2.475; stroke-dashoffset: 0; stroke: #000000; stroke-width: 1.5"/>
   </g>
   <g id="line2d_27">
    <path d="M 45.8 238.26203 
L 541.19952 238.26203 
" clip-path="url(#p1786f3f679)" style="fill: none; stroke-dasharray: 1.5,2.475; stroke-dashoffset: 0; stroke: #000000; stroke-width: 1.5"/>
   </g>
   <g id="patch_3">
    <path d="M 45.8 274.94952 
L 45.8 22.32 
" style="fill: none; stroke: #000000; stroke-width: 0.8; stroke-linejoin: miter; stroke-linecap: square"/>
   </g>
   <g id="patch_4">
    <path d="M 45.8 274.94952 
L 541.19952 274.94952 
" style="fill: none; stroke: #000000; stroke-width: 0.8; stroke-linejoin: miter; stroke-linecap: square"/>
   </g>
   <g id="text_18">
    <!-- Temperature percentiles during the NVT run (8000 H$_2$O) -->
    <g transform="translate(142.11976 16.32) scale(0.12 -0.12)">
     <defs>
      <path id="IBMPlexSans-63" d="M 1773 -77 
C 2400 -77 2829 230 3040 704 
L 2669 954 
C 2490 576 2189 378 1773 378 
C 1165 378 851 794 851 1370 
L 851 1933 
C 851 2509 1165 2925 1773 2925 
C 2176 2925 2458 2726 2579 2387 
L 3008 2605 
C 2816 3059 2426 3379 1773 3379 
C 845 3379 301 2707 301 1651 
C 301 595 845 -77 1773 -77 
z
" transform="scale(0.015625)"/>
      <path id="IBMPlexSans-6e" d="M 1056 0 
L 1056 2291 
C 1056 2714 1453 2918 1862 2918 
C 2355 2918 2611 2618 2611 2029 
L 2611 0 
L 3123 0 
L 3123 2118 
C 3123 2918 2694 3379 2016 3379 
C 1523 3379 1242 3136 1082 2765 
L 1056 2765 
L 1056 3302 
L 544 3302 
L 544 0 
L 1056 0 
z
" transform="scale(0.015625)"/>
      <path id="IBMPlexSans-6c" d="M 1542 0 
L 1542 448 
L 1056 448 
L 1056 4736 
L 544 4736 
L 544 531 
C 544 224 736 0 1088 0 
L 1542 0 
z
" transform="scale(0.015625)"/>
      <path id="IBMPlexSans-64" d="M 2656 0 
L 3168 0 
L 3168 4736 
L 2656 4736 
L 2656 2765 
L 2630 2765 
C 2458 3181 2118 3379 1664 3379 
C 838 3379 320 2707 320 1651 
C 320 595 838 -77 1664 -77 
C 2118 -77 2432 128 2630 538 
L 2656 538 
L 2656 0 
z
M 1805 384 
C 1229 384 870 781 870 1370 
L 870 1933 
C 870 2522 1229 2918 1805 2918 
C 2272 2918 2656 2650 2656 2285 
L 2656 1056 
C 2656 627 2272 384 1805 384 
z
" transform="scale(0.015625)"/>
      <path id="IBMPlexSans-67" d="M 3328 -365 
C 3328 179 2976 512 2157 512 
L 1453 512 
C 1152 512 947 563 947 762 
C 947 966 1165 1075 1382 1133 
C 1478 1114 1594 1101 1702 1101 
C 2458 1101 2950 1568 2950 2240 
C 2950 2592 2810 2886 2573 3091 
L 2573 3302 
L 3200 3302 
L 3200 3750 
L 2707 3750 
C 2432 3750 2323 3565 2323 3309 
L 2323 3251 
C 2144 3334 1933 3379 1696 3379 
C 947 3379 454 2912 454 2240 
C 454 1779 685 1414 1075 1229 
L 1075 1203 
C 742 1120 506 960 506 627 
C 506 403 614 256 800 166 
L 800 96 
C 474 6 275 -186 275 -544 
C 275 -1062 698 -1357 1728 -1357 
C 2790 -1357 3328 -1043 3328 -365 
z
M 2848 -403 
C 2848 -762 2515 -941 1946 -941 
L 1472 -941 
C 954 -941 755 -704 755 -416 
C 755 -211 851 -64 1062 32 
L 2163 32 
C 2675 32 2848 -141 2848 -403 
z
M 1702 1510 
C 1267 1510 992 1715 992 2150 
L 992 2330 
C 992 2765 1267 2970 1702 2970 
C 2138 2970 2413 2765 2413 2330 
L 2413 2150 
C 2413 1715 2138 1510 1702 1510 
z
" transform="scale(0.015625)"/>
      <path id="IBMPlexSans-68" d="M 544 0 
L 1056 0 
L 1056 2291 
C 1056 2714 1453 2918 1862 2918 
C 2355 2918 2611 2618 2611 2029 
L 2611 0 
L 3123 0 
L 3123 2118 
C 3123 2918 2694 3379 2016 3379 
C 1523 3379 1242 3136 1082 2765 
L 1056 2765 
L 1056 4736 
L 544 4736 
L 544 0 
z
" transform="scale(0.015625)"/>
      <path id="IBMPlexSans-4e" d="M 3309 0 
L 3930 0 
L 3930 4467 
L 3405 4467 
L 3405 749 
L 3386 749 
L 2848 1741 
L 1216 4467 
L 595 4467 
L 595 0 
L 1120 0 
L 1120 3718 
L 1139 3718 
L 1677 2726 
L 3309 0 
z
" transform="scale(0.015625)"/>
      <path id="IBMPlexSans-56" d="M 2266 0 
L 3770 4467 
L 3213 4467 
L 2470 2214 
L 1965 538 
L 1933 538 
L 1440 2214 
L 704 4467 
L 128 4467 
L 1613 0 
L 2266 0 
z
" transform="scale(0.015625)"/>
      <path id="IBMPlexSans-28" d="M 531 1997 
C 531 749 1056 -339 1690 -877 
L 2176 -877 
C 1485 -262 1011 819 1011 1715 
L 1011 2266 
C 1011 3162 1466 4224 2176 4864 
L 1690 4864 
C 1037 4307 531 3232 531 1997 
z
" transform="scale(0.015625)"/>
      <path id="IBMPlexSans-48" d="M 3392 0 
L 3930 0 
L 3930 4467 
L 3392 4467 
L 3392 2496 
L 1133 2496 
L 1133 4467 
L 595 4467 
L 595 0 
L 1133 0 
L 1133 2022 
L 3392 2022 
L 3392 0 
z
" transform="scale(0.015625)"/>
      <path id="DejaVuSans-32" d="M 1228 531 
L 3431 531 
L 3431 0 
L 469 0 
L 469 531 
Q 828 903 1448 1529 
Q 2069 2156 2228 2338 
Q 2531 2678 2651 2914 
Q 2772 3150 2772 3378 
Q 2772 3750 2511 3984 
Q 2250 4219 1831 4219 
Q 1534 4219 1204 4116 
Q 875 4013 500 3803 
L 500 4441 
Q 881 4594 1212 4672 
Q 1544 4750 1819 4750 
Q 2544 4750 2975 4387 
Q 3406 4025 3406 3419 
Q 3406 3131 3298 2873 
Q 3191 2616 2906 2266 
Q 2828 2175 2409 1742 
Q 1991 1309 1228 531 
z
" transform="scale(0.015625)"/>
      <path id="IBMPlexSans-4f" d="M 2266 -77 
C 3418 -77 4160 736 4160 2234 
C 4160 3731 3418 4544 2266 4544 
C 1114 4544 371 3731 371 2234 
C 371 736 1114 -77 2266 -77 
z
M 2266 403 
C 1491 403 947 979 947 1862 
L 947 2605 
C 947 3488 1491 4064 2266 4064 
C 3040 4064 3584 3488 3584 2605 
L 3584 1862 
C 3584 979 3040 403 2266 403 
z
" transform="scale(0.015625)"/>
      <path id="IBMPlexSans-29" d="M 1613 1997 
C 1613 3232 1107 4307 454 4864 
L -32 4864 
C 678 4224 1133 3162 1133 2266 
L 1133 1715 
C 1133 819 659 -262 -32 -877 
L 454 -877 
C 1088 -339 1613 749 1613 1997 
z
" transform="scale(0.015625)"/>
     </defs>
     <use xlink:href="#IBMPlexSans-54"/>
     <use xlink:href="#IBMPlexSans-65" transform="translate(57.199997 0)"/>
     <use xlink:href="#IBMPlexSans-6d" transform="translate(112.099991 0)"/>
     <use xlink:href="#IBMPlexSans-70" transform="translate(199.399979 0)"/>
     <use xlink:href="#IBMPlexSans-65" transform="translate(257.399963 0)"/>
     <use xlink:href="#IBMPlexSans-72" transform="translate(312.299957 0)"/>
     <use xlink:href="#IBMPlexSans-61" transform="translate(348.999954 0)"/>
     <use xlink:href="#IBMPlexSans-74" transform="translate(402.399948 0)"/>
     <use xlink:href="#IBMPlexSans-75" transform="translate(437.499939 0)"/>
     <use xlink:href="#IBMPlexSans-72" transform="translate(494.299927 0)"/>
     <use xlink:href="#IBMPlexSans-65" transform="translate(530.999924 0)"/>
     <use xlink:href="#IBMPlexSans-20" transform="translate(585.899918 0)"/>
     <use xlink:href="#IBMPlexSans-70" transform="translate(609.499908 0)"/>
     <use xlink:href="#IBMPlexSans-65" transform="translate(667.499893 0)"/>
     <use xlink:href="#IBMPlexSans-72" transform="translate(722.399887 0)"/>
     <use xlink:href="#IBMPlexSans-63" transform="translate(759.099884 0)"/>
     <use xlink:href="#IBMPlexSans-65" transform="translate(809.399872 0)"/>
     <use xlink:href="#IBMPlexSans-6e" transform="translate(864.299866 0)"/>
     <use xlink:href="#IBMPlexSans-74" transform="translate(921.099854 0)"/>
     <use xlink:href="#IBMPlexSans-69" transform="translate(956.199844 0)"/>
     <use xlink:href="#IBMPlexSans-6c" transform="translate(981.199829 0)"/>
     <use xlink:href="#IBMPlexSans-65" transform="translate(1008.399826 0)"/>
     <use xlink:href="#IBMPlexSans-73" transform="translate(1063.29982 0)"/>
     <use xlink:href="#IBMPlexSans-20" transform="translate(1111.999817 0)"/>
     <use xlink:href="#IBMPlexSans-64" transform="translate(1135.599808 0)"/>
     <use xlink:href="#IBMPlexSans-75" transform="translate(1193.599792 0)"/>
     <use xlink:href="#IBMPlexSans-72" transform="translate(1250.39978 0)"/>
     <use xlink:href="#IBMPlexSans-69" transform="translate(1287.099777 0)"/>
     <use xlink:href="#IBMPlexSans-6e" transform="translate(1312.099762 0)"/>
     <use xlink:href="#IBMPlexSans-67" transform="translate(1368.89975 0)"/>
     <use xlink:href="#IBMPlexSans-20" transform="translate(1421.699738 0)"/>
     <use xlink:href="#IBMPlexSans-74" transform="translate(1445.299728 0)"/>
     <use xlink:href="#IBMPlexSans-68" transform="translate(1480.399719 0)"/>
     <use xlink:href="#IBMPlexSans-65" transform="translate(1537.199707 0)"/>
     <use xlink:href="#IBMPlexSans-20" transform="translate(1592.099701 0)"/>
     <use xlink:href="#IBMPlexSans-4e" transform="translate(1615.699692 0)"/>
     <use xlink:href="#IBMPlexSans-56" transform="translate(1686.399673 0)"/>
     <use xlink:href="#IBMPlexSans-54" transform="translate(1747.299667 0)"/>
     <use xlink:href="#IBMPlexSans-20" transform="translate(1804.499664 0)"/>
     <use xlink:href="#IBMPlexSans-72" transform="translate(1828.099655 0)"/>
     <use xlink:href="#IBMPlexSans-75" transform="translate(1864.799652 0)"/>
     <use xlink:href="#IBMPlexSans-6e" transform="translate(1921.59964 0)"/>
     <use xlink:href="#IBMPlexSans-20" transform="translate(1978.399628 0)"/>
     <use xlink:href="#IBMPlexSans-28" transform="translate(2001.999619 0)"/>
     <use xlink:href="#IBMPlexSans-38" transform="translate(2035.499603 0)"/>
     <use xlink:href="#IBMPlexSans-30" transform="translate(2095.499588 0)"/>
     <use xlink:href="#IBMPlexSans-30" transform="translate(2155.499573 0)"/>
     <use xlink:href="#IBMPlexSans-30" transform="translate(2215.499557 0)"/>
     <use xlink:href="#IBMPlexSans-20" transform="translate(2275.499542 0)"/>
     <use xlink:href="#IBMPlexSans-48" transform="translate(2299.099533 0)"/>
     <use xlink:href="#DejaVuSans-32" transform="translate(2370.756546 -16.40625) scale(0.7)"/>
     <use xlink:href="#IBMPlexSans-4f" transform="translate(2418.027054 0)"/>
     <use xlink:href="#IBMPlexSans-29" transform="translate(2488.827042 0)"/>
    </g>
   </g>
   <g id="legend_1">
    <g id="patch_5">
     <path d="M 52.8 269.94952 
L 108.429688 269.94952 
Q 110.429688 269.94952 110.429688 267.94952 
L 110.429688 182.54952 
Q 110.429688 180.54952 108.429688 180.54952 
L 52.8 180.54952 
Q 50.8 180.54952 50.8 182.54952 
L 50.8 267.94952 
Q 50.8 269.94952 52.8 269.94952 
z
" style="fill: #ffffff; opacity: 0.8; stroke: #cccccc; stroke-linejoin: miter"/>
    </g>
    <g id="line2d_28">
     <path d="M 54.8 188.44952 
L 64.8 188.44952 
L 74.8 188.44952 
" style="fill: none; stroke: #1f77b4; stroke-width: 1.5; stroke-linecap: square"/>
    </g>
    <g id="text_19">
     <!-- 95 % -->
     <g transform="translate(82.8 191.94952) scale(0.1 -0.1)">
      <defs>
       <path id="IBMPlexSans-25" d="M 1664 0 
L 4762 4467 
L 4269 4467 
L 1171 0 
L 1664 0 
z
M 1427 2010 
C 2074 2010 2438 2458 2438 3277 
C 2438 4096 2074 4544 1427 4544 
C 781 4544 416 4096 416 3277 
C 416 2458 781 2010 1427 2010 
z
M 1427 2342 
C 1056 2342 877 2598 877 3085 
L 877 3469 
C 877 3955 1056 4211 1427 4211 
C 1798 4211 1978 3955 1978 3469 
L 1978 3085 
C 1978 2598 1798 2342 1427 2342 
z
M 4506 -77 
C 5152 -77 5517 371 5517 1190 
C 5517 2010 5152 2458 4506 2458 
C 3859 2458 3494 2010 3494 1190 
C 3494 371 3859 -77 4506 -77 
z
M 4506 256 
C 4134 256 3955 512 3955 998 
L 3955 1382 
C 3955 1869 4134 2125 4506 2125 
C 4877 2125 5056 1869 5056 1382 
L 5056 998 
C 5056 512 4877 256 4506 256 
z
" transform="scale(0.015625)"/>
      </defs>
      <use xlink:href="#IBMPlexSans-39"/>
      <use xlink:href="#IBMPlexSans-35" transform="translate(59.999985 0)"/>
      <use xlink:href="#IBMPlexSans-20" transform="translate(119.999969 0)"/>
      <use xlink:href="#IBMPlexSans-25" transform="translate(143.59996 0)"/>
     </g>
    </g>
    <g id="line2d_29">
     <path d="M 54.8 202.84952 
L 64.8 202.84952 
L 74.8 202.84952 
" style="fill: none; stroke: #ff7f0e; stroke-width: 1.5; stroke-linecap: square"/>
    </g>
    <g id="text_20">
     <!-- 80 % -->
     <g transform="translate(82.8 206.34952) scale(0.1 -0.1)">
      <use xlink:href="#IBMPlexSans-38"/>
      <use xlink:href="#IBMPlexSans-30" transform="translate(59.999985 0)"/>
      <use xlink:href="#IBMPlexSans-20" transform="translate(119.999969 0)"/>
      <use xlink:href="#IBMPlexSans-25" transform="translate(143.59996 0)"/>
     </g>
    </g>
    <g id="line2d_30">
     <path d="M 54.8 217.24952 
L 64.8 217.24952 
L 74.8 217.24952 
" style="fill: none; stroke: #2ca02c; stroke-width: 1.5; stroke-linecap: square"/>
    </g>
    <g id="text_21">
     <!-- 50 % -->
     <g transform="translate(82.8 220.74952) scale(0.1 -0.1)">
      <use xlink:href="#IBMPlexSans-35"/>
      <use xlink:href="#IBMPlexSans-30" transform="translate(59.999985 0)"/>
      <use xlink:href="#IBMPlexSans-20" transform="translate(119.999969 0)"/>
      <use xlink:href="#IBMPlexSans-25" transform="translate(143.59996 0)"/>
     </g>
    </g>
    <g id="line2d_31">
     <path d="M 54.8 231.64952 
L 64.8 231.64952 
L 74.8 231.64952 
" style="fill: none; stroke: #d62728; stroke-width: 1.5; stroke-linecap: square"/>
    </g>
    <g id="text_22">
     <!-- 20 % -->
     <g transform="translate(82.8 235.14952) scale(0.1 -0.1)">
      <use xlink:href="#IBMPlexSans-32"/>
      <use xlink:href="#IBMPlexSans-30" transform="translate(59.999985 0)"/>
      <use xlink:href="#IBMPlexSans-20" transform="translate(119.999969 0)"/>
      <use xlink:href="#IBMPlexSans-25" transform="translate(143.59996 0)"/>
     </g>
    </g>
    <g id="line2d_32">
     <path d="M 54.8 246.04952 
L 64.8 246.04952 
L 74.8 246.04952 
" style="fill: none; stroke: #9467bd; stroke-width: 1.5; stroke-linecap: square"/>
    </g>
    <g id="text_23">
     <!-- 5 % -->
     <g transform="translate(82.8 249.54952) scale(0.1 -0.1)">
      <use xlink:href="#IBMPlexSans-35"/>
      <use xlink:href="#IBMPlexSans-20" transform="translate(59.999985 0)"/>
      <use xlink:href="#IBMPlexSans-25" transform="translate(83.599976 0)"/>
     </g>
    </g>
    <g id="line2d_33">
     <path d="M 54.8 260.44952 
L 64.8 260.44952 
L 74.8 260.44952 
" style="fill: none; stroke: #8c564b; stroke-width: 1.5; stroke-linecap: square"/>
    </g>
    <g id="text_24">
     <!-- 5 % -->
     <g transform="translate(82.8 263.94952) scale(0.1 -0.1)">
      <use xlink:href="#IBMPlexSans-35"/>
      <use xlink:href="#IBMPlexSans-20" transform="translate(59.999985 0)"/>
      <use xlink:href="#IBMPlexSans-25" transform="translate(83.599976 0)"/>
     </g>
    </g>
   </g>
  </g>
 </g>
 <defs>
  <clipPath id="p1786f3f679">
   <rect x="45.8" y="22.32" width="495.39952" height="252.62952"/>
  </clipPath>
 </defs>
</svg>