<?xml version="1.0" encoding="utf-8" standalone="no"?>
<!DOCTYPE svg PUBLIC "-//W3C//DTD SVG 1.1//EN"
  "http://www.w3.org/Graphics/SVG/1.1/DTD/svg11.dtd">
<svg xmlns:xlink="http://www.w3.org/1999/xlink" width="548.39952pt" height="312.14952pt" viewBox="0 0 548.39952 312.14952" xmlns="http://www.w3.org/2000/svg" version="1.1">
 <metadata>
  <rdf:RDF xmlns:dc="http://purl.org/dc/elements/1.1/" xmlns:cc="http://creativecommons.org/ns#" xmlns:rdf="http://www.w3.org/1999/02/22-rdf-syntax-ns#">
   <cc:Work>
    <dc:type rdf:resource="http://purl.org/dc/dcmitype/StillImage"/>
    <dc:date>2025-10-18T14:22:07.305315</dc:date>
    <dc:format>image/svg+xml</dc:format>
    <dc:creator>
     <cc:Agent>
      <dc:title>Matplotlib v3.10.6, https://matplotlib.org/</dc:title>
     </cc:Agent>
    </dc:creator>
   </cc:Work>
  </rdf:RDF>
 </metadata>
 <defs>
  <style type="text/css">*{stroke-linejoin: round; stroke-linecap: butt}</style>
 </defs>
 <g id="figure_1">
  <g id="patch_1">
   <path d="M 0 312.14952 
L 548.39952 312.14952 
L 548.39952 0 
L 0 0 
z
" style="fill: #ffffff"/>
  </g>
  <g id="axes_1">
   <g id="patch_2">
    <path d="M 48.640625 133.32452 
L 271.259676 133.32452 
L 271.259676 17.6 
L 48.640625 17.6 
z
" style="fill: #ffffff"/>
   </g>
   <g id="matplotlib.axis_1">
    <g id="xtick_1">
     <g id="line2d_1">
      <defs>
       <path id="m555b650713" d="M 0 0 
L 0 3.5 
" style="stroke: #000000; stroke-width: 0.8"/>
      </defs>
      <g>
       <use xlink:href="#m555b650713" x="213.219537" y="133.32452" style="stroke: #000000; stroke-width: 0.8"/>
      </g>
     </g>
     <g id="text_1">
      <!-- $\mathdefault{10^{-1}}$ -->
      <g transform="translate(202.819537 147.72452) scale(0.1 -0.1)">
       <defs>
        <path id="IBMPlexSans-31" d="M 3501 0 
L 3501 474 
L 2349 474 
L 2349 4467 
L 1510 4467 
L 326 3360 
L 640 3021 
L 1766 4070 
L 1811 4070 
L 1811 474 
L 563 474 
L 563 0 
L 3501 0 
z
" transform="scale(0.015625)"/>
        <path id="IBMPlexSans-30" d="M 1920 -77 
C 2989 -77 3456 774 3456 2234 
C 3456 3693 2989 4544 1920 4544 
C 851 4544 384 3693 384 2234 
C 384 774 851 -77 1920 -77 
z
M 1920 390 
C 1222 390 947 1005 947 1869 
L 947 2598 
C 947 3462 1222 4077 1920 4077 
C 2618 4077 2893 3462 2893 2598 
L 2893 1869 
C 2893 1005 2618 390 1920 390 
z
" transform="scale(0.015625)"/>
        <path id="IBMPlexSans-2212" d="M 3411 1734 
L 3411 2170 
L 429 2170 
L 429 1734 
L 3411 1734 
z
" transform="scale(0.015625)"/>
       </defs>
       <use xlink:href="#IBMPlexSans-31" transform="translate(0 0.026563)"/>
       <use xlink:href="#IBMPlexSans-30" transform="translate(59.999985 0.026563)"/>
       <use xlink:href="#IBMPlexSans-2212" transform="translate(120.90286 36.142188) scale(0.7)"/>
       <use xlink:href="#IBMPlexSans-31" transform="translate(162.902849 36.142188) scale(0.7)"/>
      </g>
     </g>
    </g>
    <g id="xtick_2">
     <g id="line2d_2">
      <defs>
       <path id="m02cddbcba4" d="M 0 0 
L 0 2 
" style="stroke: #000000; stroke-width: 0.6"/>
      </defs>
      <g>
       <use xlink:href="#m02cddbcba4" x="64.319157" y="133.32452" style="stroke: #000000; stroke-width: 0.6"/>
      </g>
     </g>
    </g>
    <g id="xtick_3">
     <g id="line2d_3">
      <g>
       <use xlink:href="#m02cddbcba4" x="101.831576" y="133.32452" style="stroke: #000000; stroke-width: 0.6"/>
      </g>
     </g>
    </g>
    <g id="xtick_4">
     <g id="line2d_4">
      <g>
       <use xlink:href="#m02cddbcba4" x="128.44706" y="133.32452" style="stroke: #000000; stroke-width: 0.6"/>
      </g>
     </g>
    </g>
    <g id="xtick_5">
     <g id="line2d_5">
      <g>
       <use xlink:href="#m02cddbcba4" x="149.091634" y="133.32452" style="stroke: #000000; stroke-width: 0.6"/>
      </g>
     </g>
    </g>
    <g id="xtick_6">
     <g id="line2d_6">
      <g>
       <use xlink:href="#m02cddbcba4" x="165.959479" y="133.32452" style="stroke: #000000; stroke-width: 0.6"/>
      </g>
     </g>
    </g>
    <g id="xtick_7">
     <g id="line2d_7">
      <g>
       <use xlink:href="#m02cddbcba4" x="180.221039" y="133.32452" style="stroke: #000000; stroke-width: 0.6"/>
      </g>
     </g>
    </g>
    <g id="xtick_8">
     <g id="line2d_8">
      <g>
       <use xlink:href="#m02cddbcba4" x="192.574964" y="133.32452" style="stroke: #000000; stroke-width: 0.6"/>
      </g>
     </g>
    </g>
    <g id="xtick_9">
     <g id="line2d_9">
      <g>
       <use xlink:href="#m02cddbcba4" x="203.471898" y="133.32452" style="stroke: #000000; stroke-width: 0.6"/>
      </g>
     </g>
    </g>
   </g>
   <g id="matplotlib.axis_2">
    <g id="ytick_1">
     <g id="line2d_10">
      <defs>
       <path id="mf7c3b0b7fc" d="M 0 0 
L -3.5 0 
" style="stroke: #000000; stroke-width: 0.8"/>
      </defs>
      <g>
       <use xlink:href="#mf7c3b0b7fc" x="48.640625" y="129.829745" style="stroke: #000000; stroke-width: 0.8"/>
      </g>
     </g>
     <g id="text_2">
      <!-- 0.00 -->
      <g transform="translate(20.920313 133.529745) scale(0.1 -0.1)">
       <defs>
        <path id="IBMPlexSans-2e" d="M 870 -77 
C 1139 -77 1261 77 1261 294 
L 1261 378 
C 1261 595 1139 749 870 749 
C 602 749 480 595 480 378 
L 480 294 
C 480 77 602 -77 870 -77 
z
" transform="scale(0.015625)"/>
       </defs>
       <use xlink:href="#IBMPlexSans-30"/>
       <use xlink:href="#IBMPlexSans-2e" transform="translate(59.999985 0)"/>
       <use xlink:href="#IBMPlexSans-30" transform="translate(87.199982 0)"/>
       <use xlink:href="#IBMPlexSans-30" transform="translate(147.199966 0)"/>
      </g>
     </g>
    </g>
    <g id="ytick_2">
     <g id="line2d_11">
      <g>
       <use xlink:href="#mf7c3b0b7fc" x="48.640625" y="90.893978" style="stroke: #000000; stroke-width: 0.8"/>
      </g>
     </g>
     <g id="text_3">
      <!-- 0.02 -->
      <g transform="translate(20.920313 94.593978) scale(0.1 -0.1)">
       <defs>
        <path id="IBMPlexSans-32" d="M 3411 474 
L 1062 474 
L 2266 1555 
C 2835 2067 3245 2554 3245 3245 
C 3245 4006 2746 4544 1875 4544 
C 1011 4544 614 4019 442 3494 
L 922 3309 
C 1043 3731 1299 4064 1850 4064 
C 2400 4064 2675 3725 2675 3232 
L 2675 3155 
C 2675 2726 2355 2278 1939 1894 
L 480 550 
L 480 0 
L 3411 0 
L 3411 474 
z
" transform="scale(0.015625)"/>
       </defs>
       <use xlink:href="#IBMPlexSans-30"/>
       <use xlink:href="#IBMPlexSans-2e" transform="translate(59.999985 0)"/>
       <use xlink:href="#IBMPlexSans-30" transform="translate(87.199982 0)"/>
       <use xlink:href="#IBMPlexSans-32" transform="translate(147.199966 0)"/>
      </g>
     </g>
    </g>
    <g id="ytick_3">
     <g id="line2d_12">
      <g>
       <use xlink:href="#mf7c3b0b7fc" x="48.640625" y="51.958211" style="stroke: #000000; stroke-width: 0.8"/>
      </g>
     </g>
     <g id="text_4">
      <!-- 0.04 -->
      <g transform="translate(20.920313 55.658211) scale(0.1 -0.1)">
       <defs>
        <path id="IBMPlexSans-34" d="M 2912 0 
L 2912 877 
L 3558 877 
L 3558 1325 
L 2912 1325 
L 2912 4467 
L 2112 4467 
L 243 1350 
L 243 877 
L 2400 877 
L 2400 0 
L 2912 0 
z
M 2368 4051 
L 2400 4051 
L 2400 1325 
L 749 1325 
L 2368 4051 
z
" transform="scale(0.015625)"/>
       </defs>
       <use xlink:href="#IBMPlexSans-30"/>
       <use xlink:href="#IBMPlexSans-2e" transform="translate(59.999985 0)"/>
       <use xlink:href="#IBMPlexSans-30" transform="translate(87.199982 0)"/>
       <use xlink:href="#IBMPlexSans-34" transform="translate(147.199966 0)"/>
      </g>
     </g>
    </g>
    <g id="text_5">
     <!-- cv2l(125%) weight -->
     <g transform="translate(14.8 118.031791) rotate(-90) scale(0.1 -0.1)">
      <defs>
       <path id="IBMPlexSans-63" d="M 1773 -77 
C 2400 -77 2829 230 3040 704 
L 2669 954 
C 2490 576 2189 378 1773 378 
C 1165 378 851 794 851 1370 
L 851 1933 
C 851 2509 1165 2925 1773 2925 
C 2176 2925 2458 2726 2579 2387 
L 3008 2605 
C 2816 3059 2426 3379 1773 3379 
C 845 3379 301 2707 301 1651 
C 301 595 845 -77 1773 -77 
z
" transform="scale(0.015625)"/>
       <path id="IBMPlexSans-76" d="M 1869 0 
L 3034 3302 
L 2541 3302 
L 1952 1664 
L 1594 538 
L 1562 538 
L 1203 1664 
L 627 3302 
L 115 3302 
L 1274 0 
L 1869 0 
z
" transform="scale(0.015625)"/>
       <path id="IBMPlexSans-6c" d="M 1542 0 
L 1542 448 
L 1056 448 
L 1056 4736 
L 544 4736 
L 544 531 
C 544 224 736 0 1088 0 
L 1542 0 
z
" transform="scale(0.015625)"/>
       <path id="IBMPlexSans-28" d="M 531 1997 
C 531 749 1056 -339 1690 -877 
L 2176 -877 
C 1485 -262 1011 819 1011 1715 
L 1011 2266 
C 1011 3162 1466 4224 2176 4864 
L 1690 4864 
C 1037 4307 531 3232 531 1997 
z
" transform="scale(0.015625)"/>
       <path id="IBMPlexSans-35" d="M 3187 4467 
L 794 4467 
L 634 2010 
L 1088 1946 
C 1274 2150 1478 2323 1888 2323 
C 2496 2323 2822 1984 2822 1395 
L 2822 1331 
C 2822 742 2496 403 1888 403 
C 1350 403 1126 640 896 992 
L 493 685 
C 762 301 1146 -77 1888 -77 
C 2829 -77 3392 531 3392 1402 
C 3392 2266 2829 2784 2061 2784 
C 1594 2784 1357 2592 1146 2291 
L 1101 2291 
L 1229 3994 
L 3187 3994 
L 3187 4467 
z
" transform="scale(0.015625)"/>
       <path id="IBMPlexSans-25" d="M 1664 0 
L 4762 4467 
L 4269 4467 
L 1171 0 
L 1664 0 
z
M 1427 2010 
C 2074 2010 2438 2458 2438 3277 
C 2438 4096 2074 4544 1427 4544 
C 781 4544 416 4096 416 3277 
C 416 2458 781 2010 1427 2010 
z
M 1427 2342 
C 1056 2342 877 2598 877 3085 
L 877 3469 
C 877 3955 1056 4211 1427 4211 
C 1798 4211 1978 3955 1978 3469 
L 1978 3085 
C 1978 2598 1798 2342 1427 2342 
z
M 4506 -77 
C 5152 -77 5517 371 5517 1190 
C 5517 2010 5152 2458 4506 2458 
C 3859 2458 3494 2010 3494 1190 
C 3494 371 3859 -77 4506 -77 
z
M 4506 256 
C 4134 256 3955 512 3955 998 
L 3955 1382 
C 3955 1869 4134 2125 4506 2125 
C 4877 2125 5056 1869 5056 1382 
L 5056 998 
C 5056 512 4877 256 4506 256 
z
" transform="scale(0.015625)"/>
       <path id="IBMPlexSans-29" d="M 1613 1997 
C 1613 3232 1107 4307 454 4864 
L -32 4864 
C 678 4224 1133 3162 1133 2266 
L 1133 1715 
C 1133 819 659 -262 -32 -877 
L 454 -877 
C 1088 -339 1613 749 1613 1997 
z
" transform="scale(0.015625)"/>
       <path id="IBMPlexSans-20" transform="scale(0.015625)"/>
       <path id="IBMPlexSans-77" d="M 1082 0 
L 1702 0 
L 2163 1587 
L 2445 2592 
L 2458 2592 
L 2746 1587 
L 3206 0 
L 3840 0 
L 4717 3302 
L 4237 3302 
L 3878 1875 
L 3539 429 
L 3526 429 
L 3117 1875 
L 2688 3302 
L 2234 3302 
L 1818 1875 
L 1414 429 
L 1402 429 
L 1050 1875 
L 698 3302 
L 198 3302 
L 1082 0 
z
" transform="scale(0.015625)"/>
       <path id="IBMPlexSans-65" d="M 1786 -77 
C 2406 -77 2880 230 3091 678 
L 2726 941 
C 2554 576 2234 371 1818 371 
C 1203 371 838 800 838 1370 
L 838 1523 
L 3213 1523 
L 3213 1766 
C 3213 2701 2669 3379 1786 3379 
C 890 3379 301 2701 301 1651 
C 301 602 890 -77 1786 -77 
z
M 1786 2950 
C 2310 2950 2662 2560 2662 1978 
L 2662 1907 
L 838 1907 
L 838 1952 
C 838 2528 1229 2950 1786 2950 
z
" transform="scale(0.015625)"/>
       <path id="IBMPlexSans-69" d="M 800 4077 
C 1018 4077 1114 4192 1114 4365 
L 1114 4448 
C 1114 4621 1018 4736 800 4736 
C 582 4736 486 4621 486 4448 
L 486 4365 
C 486 4192 582 4077 800 4077 
z
M 544 0 
L 1056 0 
L 1056 3302 
L 544 3302 
L 544 0 
z
" transform="scale(0.015625)"/>
       <path id="IBMPlexSans-67" d="M 3328 -365 
C 3328 179 2976 512 2157 512 
L 1453 512 
C 1152 512 947 563 947 762 
C 947 966 1165 1075 1382 1133 
C 1478 1114 1594 1101 1702 1101 
C 2458 1101 2950 1568 2950 2240 
C 2950 2592 2810 2886 2573 3091 
L 2573 3302 
L 3200 3302 
L 3200 3750 
L 2707 3750 
C 2432 3750 2323 3565 2323 3309 
L 2323 3251 
C 2144 3334 1933 3379 1696 3379 
C 947 3379 454 2912 454 2240 
C 454 1779 685 1414 1075 1229 
L 1075 1203 
C 742 1120 506 960 506 627 
C 506 403 614 256 800 166 
L 800 96 
C 474 6 275 -186 275 -544 
C 275 -1062 698 -1357 1728 -1357 
C 2790 -1357 3328 -1043 3328 -365 
z
M 2848 -403 
C 2848 -762 2515 -941 1946 -941 
L 1472 -941 
C 954 -941 755 -704 755 -416 
C 755 -211 851 -64 1062 32 
L 2163 32 
C 2675 32 2848 -141 2848 -403 
z
M 1702 1510 
C 1267 1510 992 1715 992 2150 
L 992 2330 
C 992 2765 1267 2970 1702 2970 
C 2138 2970 2413 2765 2413 2330 
L 2413 2150 
C 2413 1715 2138 1510 1702 1510 
z
" transform="scale(0.015625)"/>
       <path id="IBMPlexSans-68" d="M 544 0 
L 1056 0 
L 1056 2291 
C 1056 2714 1453 2918 1862 2918 
C 2355 2918 2611 2618 2611 2029 
L 2611 0 
L 3123 0 
L 3123 2118 
C 3123 2918 2694 3379 2016 3379 
C 1523 3379 1242 3136 1082 2765 
L 1056 2765 
L 1056 4736 
L 544 4736 
L 544 0 
z
" transform="scale(0.015625)"/>
       <path id="IBMPlexSans-74" d="M 1914 0 
L 1914 448 
L 1242 448 
L 1242 2854 
L 1965 2854 
L 1965 3302 
L 1242 3302 
L 1242 4218 
L 781 4218 
L 781 3603 
C 781 3379 710 3302 493 3302 
L 186 3302 
L 186 2854 
L 730 2854 
L 730 544 
C 730 224 922 0 1274 0 
L 1914 0 
z
" transform="scale(0.015625)"/>
      </defs>
      <use xlink:href="#IBMPlexSans-63"/>
      <use xlink:href="#IBMPlexSans-76" transform="translate(50.299988 0)"/>
      <use xlink:href="#IBMPlexSans-32" transform="translate(99.499985 0)"/>
      <use xlink:href="#IBMPlexSans-6c" transform="translate(159.499969 0)"/>
      <use xlink:href="#IBMPlexSans-28" transform="translate(186.699966 0)"/>
      <use xlink:href="#IBMPlexSans-31" transform="translate(220.199951 0)"/>
      <use xlink:href="#IBMPlexSans-32" transform="translate(280.199936 0)"/>
      <use xlink:href="#IBMPlexSans-35" transform="translate(340.199921 0)"/>
      <use xlink:href="#IBMPlexSans-25" transform="translate(400.199905 0)"/>
      <use xlink:href="#IBMPlexSans-29" transform="translate(492.899887 0)"/>
      <use xlink:href="#IBMPlexSans-20" transform="translate(526.399872 0)"/>
      <use xlink:href="#IBMPlexSans-77" transform="translate(549.999863 0)"/>
      <use xlink:href="#IBMPlexSans-65" transform="translate(626.79985 0)"/>
      <use xlink:href="#IBMPlexSans-69" transform="translate(681.699844 0)"/>
      <use xlink:href="#IBMPlexSans-67" transform="translate(706.699829 0)"/>
      <use xlink:href="#IBMPlexSans-68" transform="translate(759.499817 0)"/>
      <use xlink:href="#IBMPlexSans-74" transform="translate(816.299805 0)"/>
     </g>
    </g>
   </g>
   <g id="line2d_13">
    <path d="M 58.759673 128.064315 
L 64.541986 127.363104 
L 70.324299 126.129635 
L 76.106612 123.731375 
L 81.888925 119.335833 
L 87.671238 112.556898 
L 93.453551 104.474394 
L 99.235864 96.878317 
L 105.018177 89.916037 
L 110.80049 83.662893 
L 116.582803 78.337678 
L 122.365116 74.265137 
L 128.147429 72.103612 
L 133.929742 70.810427 
L 139.712055 69.676435 
L 145.494368 67.157319 
L 151.276681 60.14477 
L 157.058994 49.152886 
L 162.841307 37.371364 
L 168.62362 27.580114 
L 174.405933 22.860205 
L 180.188246 28.176064 
L 185.970559 41.134771 
L 191.752872 55.584132 
L 197.535185 70.798611 
L 203.317498 83.64066 
L 209.099811 89.091079 
L 214.882124 89.246662 
L 220.664437 83.453485 
L 226.44675 72.913264 
L 232.229063 61.965637 
L 238.011376 54.269235 
L 243.793689 53.777394 
L 249.576002 59.412335 
L 255.358315 68.024862 
L 261.140628 74.021531 
" clip-path="url(#pca842fbf46)" style="fill: none; stroke: #ff7f0e; stroke-width: 1.5; stroke-linecap: square"/>
   </g>
   <g id="patch_3">
    <path d="M 48.640625 133.32452 
L 48.640625 17.6 
" style="fill: none; stroke: #000000; stroke-width: 0.8; stroke-linejoin: miter; stroke-linecap: square"/>
   </g>
   <g id="patch_4">
    <path d="M 48.640625 133.32452 
L 271.259676 133.32452 
" style="fill: none; stroke: #000000; stroke-width: 0.8; stroke-linejoin: miter; stroke-linecap: square"/>
   </g>
  </g>
  <g id="axes_2">
   <g id="patch_5">
    <path d="M 318.580469 133.32452 
L 541.19952 133.32452 
L 541.19952 17.6 
L 318.580469 17.6 
z
" style="fill: #ffffff"/>
   </g>
   <g id="FillBetweenPolyCollection_1">
    <defs>
     <path id="mc39bf337b3" d="M 328.699517 -289.289315 
L 328.699517 -202.834573 
L 334.48183 -202.197661 
L 340.264143 -201.583097 
L 346.046456 -200.926363 
L 351.828769 -200.309233 
L 357.611082 -199.691713 
L 363.393395 -199.07669 
L 369.175708 -198.596097 
L 374.958021 -198.165973 
L 380.740334 -197.747727 
L 386.522647 -197.404748 
L 392.30496 -197.109821 
L 398.087273 -196.807133 
L 403.869586 -196.471457 
L 409.651899 -196.130384 
L 415.434212 -195.774889 
L 421.216525 -195.390608 
L 426.998838 -194.91864 
L 432.781151 -194.413705 
L 438.563464 -193.887562 
L 444.345777 -193.366532 
L 450.12809 -192.832303 
L 455.910403 -192.306834 
L 461.692716 -191.77821 
L 467.475029 -191.188152 
L 473.257342 -190.528677 
L 479.039655 -189.820352 
L 484.821968 -189.066234 
L 490.604281 -188.283131 
L 496.386594 -187.522044 
L 502.168907 -186.810033 
L 507.95122 -186.137645 
L 513.733533 -185.542341 
L 519.515846 -185.015136 
L 525.298159 -184.542814 
L 531.080472 -184.085205 
L 531.080472 -238.776488 
L 531.080472 -238.776488 
L 525.298159 -239.53292 
L 519.515846 -240.324288 
L 513.733533 -241.200684 
L 507.95122 -242.179233 
L 502.168907 -243.271333 
L 496.386594 -244.433127 
L 490.604281 -245.674186 
L 484.821968 -246.960712 
L 479.039655 -248.231671 
L 473.257342 -249.46618 
L 467.475029 -250.661228 
L 461.692716 -251.793125 
L 455.910403 -252.880402 
L 450.12809 -253.993421 
L 444.345777 -255.149683 
L 438.563464 -256.329967 
L 432.781151 -257.548298 
L 426.998838 -258.772426 
L 421.216525 -259.988359 
L 415.434212 -261.140777 
L 409.651899 -262.303931 
L 403.869586 -263.500431 
L 398.087273 -264.751378 
L 392.30496 -266.029943 
L 386.522647 -267.376237 
L 380.740334 -268.86345 
L 374.958021 -270.542052 
L 369.175708 -272.349821 
L 363.393395 -274.33981 
L 357.611082 -276.606132 
L 351.828769 -278.98755 
L 346.046456 -281.441587 
L 340.264143 -284.020513 
L 334.48183 -286.61563 
L 328.699517 -289.289315 
z
"/>
    </defs>
    <g clip-path="url(#p11029f831f)">
     <use xlink:href="#mc39bf337b3" x="0" y="312.14952" style="fill: #d62728; fill-opacity: 0.3"/>
    </g>
   </g>
   <g id="PathCollection_1">
    <defs>
     <path id="C0_0_0a04157106" d="M 0 2.738613 
C 0.726289 2.738613 1.422928 2.450055 1.936492 1.936492 
C 2.450055 1.422928 2.738613 0.726289 2.738613 -0 
C 2.738613 -0.726289 2.450055 -1.422928 1.936492 -1.936492 
C 1.422928 -2.450055 0.726289 -2.738613 0 -2.738613 
C -0.726289 -2.738613 -1.422928 -2.450055 -1.936492 -1.936492 
C -2.450055 -1.422928 -2.738613 -0.726289 -2.738613 0 
C -2.738613 0.726289 -2.450055 1.422928 -1.936492 1.936492 
C -1.422928 2.450055 -0.726289 2.738613 0 2.738613 
z
"/>
    </defs>
    <g clip-path="url(#p11029f831f)">
     <use xlink:href="#C0_0_0a04157106" x="328.699517" y="66.087576" style="fill: #fdfdfd"/>
    </g>
    <g clip-path="url(#p11029f831f)">
     <use xlink:href="#C0_0_0a04157106" x="334.48183" y="67.742874" style="fill: #fdfdfd"/>
    </g>
    <g clip-path="url(#p11029f831f)">
     <use xlink:href="#C0_0_0a04157106" x="340.264143" y="69.347715" style="fill: #fbfbfb"/>
    </g>
    <g clip-path="url(#p11029f831f)">
     <use xlink:href="#C0_0_0a04157106" x="346.046456" y="70.965545" style="fill: #f8f8f8"/>
    </g>
    <g clip-path="url(#p11029f831f)">
     <use xlink:href="#C0_0_0a04157106" x="351.828769" y="72.501128" style="fill: #f3f3f3"/>
    </g>
    <g clip-path="url(#p11029f831f)">
     <use xlink:href="#C0_0_0a04157106" x="357.611082" y="74.000598" style="fill: #e9e9e9"/>
    </g>
    <g clip-path="url(#p11029f831f)">
     <use xlink:href="#C0_0_0a04157106" x="363.393395" y="75.44127" style="fill: #dcdcdc"/>
    </g>
    <g clip-path="url(#p11029f831f)">
     <use xlink:href="#C0_0_0a04157106" x="369.175708" y="76.676561" style="fill: #cccccc"/>
    </g>
    <g clip-path="url(#p11029f831f)">
     <use xlink:href="#C0_0_0a04157106" x="374.958021" y="77.795508" style="fill: #bebebe"/>
    </g>
    <g clip-path="url(#p11029f831f)">
     <use xlink:href="#C0_0_0a04157106" x="380.740334" y="78.843932" style="fill: #ababab"/>
    </g>
    <g clip-path="url(#p11029f831f)">
     <use xlink:href="#C0_0_0a04157106" x="386.522647" y="79.759028" style="fill: #9c9c9c"/>
    </g>
    <g clip-path="url(#p11029f831f)">
     <use xlink:href="#C0_0_0a04157106" x="392.30496" y="80.579638" style="fill: #919191"/>
    </g>
    <g clip-path="url(#p11029f831f)">
     <use xlink:href="#C0_0_0a04157106" x="398.087273" y="81.370264" style="fill: #8a8a8a"/>
    </g>
    <g clip-path="url(#p11029f831f)">
     <use xlink:href="#C0_0_0a04157106" x="403.869586" y="82.163576" style="fill: #878787"/>
    </g>
    <g clip-path="url(#p11029f831f)">
     <use xlink:href="#C0_0_0a04157106" x="409.651899" y="82.932362" style="fill: #858585"/>
    </g>
    <g clip-path="url(#p11029f831f)">
     <use xlink:href="#C0_0_0a04157106" x="415.434212" y="83.691687" style="fill: #7e7e7e"/>
    </g>
    <g clip-path="url(#p11029f831f)">
     <use xlink:href="#C0_0_0a04157106" x="421.216525" y="84.460036" style="fill: #6c6c6c"/>
    </g>
    <g clip-path="url(#p11029f831f)">
     <use xlink:href="#C0_0_0a04157106" x="426.998838" y="85.303987" style="fill: #505050"/>
    </g>
    <g clip-path="url(#p11029f831f)">
     <use xlink:href="#C0_0_0a04157106" x="432.781151" y="86.168519" style="fill: #282828"/>
    </g>
    <g clip-path="url(#p11029f831f)">
     <use xlink:href="#C0_0_0a04157106" x="438.563464" y="87.040756" style="fill: #0d0d0d"/>
    </g>
    <g clip-path="url(#p11029f831f)">
     <use xlink:href="#C0_0_0a04157106" x="444.345777" y="87.891412"/>
    </g>
    <g clip-path="url(#p11029f831f)">
     <use xlink:href="#C0_0_0a04157106" x="450.12809" y="88.736658" style="fill: #0e0e0e"/>
    </g>
    <g clip-path="url(#p11029f831f)">
     <use xlink:href="#C0_0_0a04157106" x="455.910403" y="89.555902" style="fill: #353535"/>
    </g>
    <g clip-path="url(#p11029f831f)">
     <use xlink:href="#C0_0_0a04157106" x="461.692716" y="90.363853" style="fill: #616161"/>
    </g>
    <g clip-path="url(#p11029f831f)">
     <use xlink:href="#C0_0_0a04157106" x="467.475029" y="91.22483" style="fill: #878787"/>
    </g>
    <g clip-path="url(#p11029f831f)">
     <use xlink:href="#C0_0_0a04157106" x="473.257342" y="92.152091" style="fill: #ababab"/>
    </g>
    <g clip-path="url(#p11029f831f)">
     <use xlink:href="#C0_0_0a04157106" x="479.039655" y="93.123509" style="fill: #bbbbbb"/>
    </g>
    <g clip-path="url(#p11029f831f)">
     <use xlink:href="#C0_0_0a04157106" x="484.821968" y="94.136047" style="fill: #bbbbbb"/>
    </g>
    <g clip-path="url(#p11029f831f)">
     <use xlink:href="#C0_0_0a04157106" x="490.604281" y="95.170862" style="fill: #ababab"/>
    </g>
    <g clip-path="url(#p11029f831f)">
     <use xlink:href="#C0_0_0a04157106" x="496.386594" y="96.171935" style="fill: #8d8d8d"/>
    </g>
    <g clip-path="url(#p11029f831f)">
     <use xlink:href="#C0_0_0a04157106" x="502.168907" y="97.108837" style="fill: #707070"/>
    </g>
    <g clip-path="url(#p11029f831f)">
     <use xlink:href="#C0_0_0a04157106" x="507.95122" y="97.991081" style="fill: #5e5e5e"/>
    </g>
    <g clip-path="url(#p11029f831f)">
     <use xlink:href="#C0_0_0a04157106" x="513.733533" y="98.778007" style="fill: #5c5c5c"/>
    </g>
    <g clip-path="url(#p11029f831f)">
     <use xlink:href="#C0_0_0a04157106" x="519.515846" y="99.479808" style="fill: #6a6a6a"/>
    </g>
    <g clip-path="url(#p11029f831f)">
     <use xlink:href="#C0_0_0a04157106" x="525.298159" y="100.111653" style="fill: #818181"/>
    </g>
    <g clip-path="url(#p11029f831f)">
     <use xlink:href="#C0_0_0a04157106" x="531.080472" y="100.718673" style="fill: #909090"/>
    </g>
   </g>
   <g id="matplotlib.axis_3">
    <g id="xtick_10">
     <g id="line2d_14">
      <g>
       <use xlink:href="#m555b650713" x="483.159381" y="133.32452" style="stroke: #000000; stroke-width: 0.8"/>
      </g>
     </g>
     <g id="text_6">
      <!-- $\mathdefault{10^{-1}}$ -->
      <g transform="translate(472.759381 147.72452) scale(0.1 -0.1)">
       <use xlink:href="#IBMPlexSans-31" transform="translate(0 0.026563)"/>
       <use xlink:href="#IBMPlexSans-30" transform="translate(59.999985 0.026563)"/>
       <use xlink:href="#IBMPlexSans-2212" transform="translate(120.90286 36.142188) scale(0.7)"/>
       <use xlink:href="#IBMPlexSans-31" transform="translate(162.902849 36.142188) scale(0.7)"/>
      </g>
     </g>
    </g>
    <g id="xtick_11">
     <g id="line2d_15">
      <g>
       <use xlink:href="#m02cddbcba4" x="334.259" y="133.32452" style="stroke: #000000; stroke-width: 0.6"/>
      </g>
     </g>
    </g>
    <g id="xtick_12">
     <g id="line2d_16">
      <g>
       <use xlink:href="#m02cddbcba4" x="371.771419" y="133.32452" style="stroke: #000000; stroke-width: 0.6"/>
      </g>
     </g>
    </g>
    <g id="xtick_13">
     <g id="line2d_17">
      <g>
       <use xlink:href="#m02cddbcba4" x="398.386904" y="133.32452" style="stroke: #000000; stroke-width: 0.6"/>
      </g>
     </g>
    </g>
    <g id="xtick_14">
     <g id="line2d_18">
      <g>
       <use xlink:href="#m02cddbcba4" x="419.031478" y="133.32452" style="stroke: #000000; stroke-width: 0.6"/>
      </g>
     </g>
    </g>
    <g id="xtick_15">
     <g id="line2d_19">
      <g>
       <use xlink:href="#m02cddbcba4" x="435.899323" y="133.32452" style="stroke: #000000; stroke-width: 0.6"/>
      </g>
     </g>
    </g>
    <g id="xtick_16">
     <g id="line2d_20">
      <g>
       <use xlink:href="#m02cddbcba4" x="450.160882" y="133.32452" style="stroke: #000000; stroke-width: 0.6"/>
      </g>
     </g>
    </g>
    <g id="xtick_17">
     <g id="line2d_21">
      <g>
       <use xlink:href="#m02cddbcba4" x="462.514807" y="133.32452" style="stroke: #000000; stroke-width: 0.6"/>
      </g>
     </g>
    </g>
    <g id="xtick_18">
     <g id="line2d_22">
      <g>
       <use xlink:href="#m02cddbcba4" x="473.411741" y="133.32452" style="stroke: #000000; stroke-width: 0.6"/>
      </g>
     </g>
    </g>
   </g>
   <g id="matplotlib.axis_4">
    <g id="ytick_4">
     <g id="line2d_23">
      <g>
       <use xlink:href="#mf7c3b0b7fc" x="318.580469" y="109.153017" style="stroke: #000000; stroke-width: 0.8"/>
      </g>
     </g>
     <g id="text_7">
      <!-- 6.0 -->
      <g transform="translate(296.860156 112.853017) scale(0.1 -0.1)">
       <defs>
        <path id="IBMPlexSans-36" d="M 1926 -77 
C 2822 -77 3411 525 3411 1402 
C 3411 2246 2861 2778 2093 2778 
C 1549 2778 1229 2502 1018 2138 
L 986 2150 
C 1229 3187 1760 3770 2714 4467 
L 2022 4467 
C 1306 4000 429 2963 429 1638 
C 429 576 998 -77 1926 -77 
z
M 1920 390 
C 1331 390 986 730 986 1331 
L 986 1382 
C 986 1984 1331 2323 1920 2323 
C 2509 2323 2854 1984 2854 1382 
L 2854 1331 
C 2854 730 2509 390 1920 390 
z
" transform="scale(0.015625)"/>
       </defs>
       <use xlink:href="#IBMPlexSans-36"/>
       <use xlink:href="#IBMPlexSans-2e" transform="translate(59.999985 0)"/>
       <use xlink:href="#IBMPlexSans-30" transform="translate(87.199982 0)"/>
      </g>
     </g>
    </g>
    <g id="ytick_5">
     <g id="line2d_24">
      <g>
       <use xlink:href="#mf7c3b0b7fc" x="318.580469" y="74.590732" style="stroke: #000000; stroke-width: 0.8"/>
      </g>
     </g>
     <g id="text_8">
      <!-- 6.5 -->
      <g transform="translate(296.860156 78.290732) scale(0.1 -0.1)">
       <use xlink:href="#IBMPlexSans-36"/>
       <use xlink:href="#IBMPlexSans-2e" transform="translate(59.999985 0)"/>
       <use xlink:href="#IBMPlexSans-35" transform="translate(87.199982 0)"/>
      </g>
     </g>
    </g>
    <g id="ytick_6">
     <g id="line2d_25">
      <g>
       <use xlink:href="#mf7c3b0b7fc" x="318.580469" y="40.028447" style="stroke: #000000; stroke-width: 0.8"/>
      </g>
     </g>
     <g id="text_9">
      <!-- 7.0 -->
      <g transform="translate(296.860156 43.728447) scale(0.1 -0.1)">
       <defs>
        <path id="IBMPlexSans-37" d="M 1696 0 
L 3373 3994 
L 3373 4467 
L 442 4467 
L 442 3174 
L 922 3174 
L 922 4006 
L 2829 4006 
L 1120 0 
L 1696 0 
z
" transform="scale(0.015625)"/>
       </defs>
       <use xlink:href="#IBMPlexSans-37"/>
       <use xlink:href="#IBMPlexSans-2e" transform="translate(59.999985 0)"/>
       <use xlink:href="#IBMPlexSans-30" transform="translate(87.199982 0)"/>
      </g>
     </g>
    </g>
    <g id="text_10">
     <!-- $\mathcal{I}$ (95% CI) [a$^2_0$] -->
     <g transform="translate(289.960156 109.26226) rotate(-90) scale(0.1 -0.1)">
      <defs>
       <path id="STIXNonUnicode-Italic-e235" d="M 3782 4237 
L 3744 4083 
Q 3482 4083 3347 4067 
Q 3213 4051 3069 3977 
Q 2925 3904 2838 3753 
Q 2752 3603 2675 3334 
L 1920 710 
Q 1901 634 1901 557 
Q 1901 352 2208 352 
Q 2790 352 3283 819 
L 3398 698 
Q 3008 320 2566 160 
Q 2125 0 1549 0 
L 243 0 
L 282 154 
Q 467 154 556 160 
Q 646 166 777 201 
Q 909 237 982 310 
Q 1056 384 1139 521 
Q 1222 659 1280 870 
L 1946 3187 
Q 2061 3590 2061 3674 
Q 2061 3878 1754 3878 
Q 1523 3878 1203 3750 
Q 883 3622 678 3411 
L 570 3533 
Q 947 3904 1385 4070 
Q 1824 4237 2579 4237 
L 3782 4237 
z
" transform="scale(0.015625)"/>
       <path id="IBMPlexSans-39" d="M 3411 2829 
C 3411 3891 2842 4544 1914 4544 
C 1018 4544 429 3942 429 3066 
C 429 2221 979 1690 1747 1690 
C 2291 1690 2611 1965 2822 2330 
L 2854 2317 
C 2611 1280 2080 698 1126 0 
L 1818 0 
C 2534 467 3411 1504 3411 2829 
z
M 1920 2144 
C 1331 2144 986 2483 986 3085 
L 986 3136 
C 986 3738 1331 4077 1920 4077 
C 2509 4077 2854 3738 2854 3136 
L 2854 3085 
C 2854 2483 2509 2144 1920 2144 
z
" transform="scale(0.015625)"/>
       <path id="IBMPlexSans-43" d="M 2170 -77 
C 2912 -77 3456 314 3738 941 
L 3309 1210 
C 3130 723 2739 403 2170 403 
C 1402 403 947 960 947 1875 
L 947 2541 
C 947 3456 1402 4064 2170 4064 
C 2720 4064 3091 3763 3270 3302 
L 3706 3565 
C 3424 4186 2912 4544 2170 4544 
C 1043 4544 371 3699 371 2208 
C 371 717 1043 -77 2170 -77 
z
" transform="scale(0.015625)"/>
       <path id="IBMPlexSans-49" d="M 2176 0 
L 2176 448 
L 1549 448 
L 1549 4019 
L 2176 4019 
L 2176 4467 
L 384 4467 
L 384 4019 
L 1011 4019 
L 1011 448 
L 384 448 
L 384 0 
L 2176 0 
z
" transform="scale(0.015625)"/>
       <path id="IBMPlexSans-5b" d="M 1645 -883 
L 1645 -480 
L 1037 -480 
L 1037 4461 
L 1645 4461 
L 1645 4864 
L 595 4864 
L 595 -883 
L 1645 -883 
z
" transform="scale(0.015625)"/>
       <path id="IBMPlexSans-61" d="M 3232 0 
L 3232 448 
L 2854 448 
L 2854 2266 
C 2854 2963 2381 3379 1587 3379 
C 992 3379 595 3085 416 2733 
L 723 2445 
C 902 2746 1165 2938 1562 2938 
C 2086 2938 2342 2682 2342 2214 
L 2342 1888 
L 1690 1888 
C 730 1888 282 1542 282 922 
C 282 307 691 -77 1389 -77 
C 1850 -77 2202 134 2342 538 
L 2374 538 
C 2413 230 2566 0 2944 0 
L 3232 0 
z
M 1472 358 
C 1075 358 819 544 819 870 
L 819 1005 
C 819 1325 1082 1504 1664 1504 
L 2342 1504 
L 2342 960 
C 2342 621 1978 358 1472 358 
z
" transform="scale(0.015625)"/>
       <path id="DejaVuSans-32" d="M 1228 531 
L 3431 531 
L 3431 0 
L 469 0 
L 469 531 
Q 828 903 1448 1529 
Q 2069 2156 2228 2338 
Q 2531 2678 2651 2914 
Q 2772 3150 2772 3378 
Q 2772 3750 2511 3984 
Q 2250 4219 1831 4219 
Q 1534 4219 1204 4116 
Q 875 4013 500 3803 
L 500 4441 
Q 881 4594 1212 4672 
Q 1544 4750 1819 4750 
Q 2544 4750 2975 4387 
Q 3406 4025 3406 3419 
Q 3406 3131 3298 2873 
Q 3191 2616 2906 2266 
Q 2828 2175 2409 1742 
Q 1991 1309 1228 531 
z
" transform="scale(0.015625)"/>
       <path id="DejaVuSans-30" d="M 2034 4250 
Q 1547 4250 1301 3770 
Q 1056 3291 1056 2328 
Q 1056 1369 1301 889 
Q 1547 409 2034 409 
Q 2525 409 2770 889 
Q 3016 1369 3016 2328 
Q 3016 3291 2770 3770 
Q 2525 4250 2034 4250 
z
M 2034 4750 
Q 2819 4750 3233 4129 
Q 3647 3509 3647 2328 
Q 3647 1150 3233 529 
Q 2819 -91 2034 -91 
Q 1250 -91 836 529 
Q 422 1150 422 2328 
Q 422 3509 836 4129 
Q 1250 4750 2034 4750 
z
" transform="scale(0.015625)"/>
       <path id="IBMPlexSans-5d" d="M 384 4864 
L 384 4461 
L 992 4461 
L 992 -480 
L 384 -480 
L 384 -883 
L 1434 -883 
L 1434 4864 
L 384 4864 
z
" transform="scale(0.015625)"/>
      </defs>
      <use xlink:href="#STIXNonUnicode-Italic-e235" transform="translate(0 0.765625)"/>
      <use xlink:href="#IBMPlexSans-20" transform="translate(57.499985 0.765625)"/>
      <use xlink:href="#IBMPlexSans-28" transform="translate(81.099976 0.765625)"/>
      <use xlink:href="#IBMPlexSans-39" transform="translate(114.59996 0.765625)"/>
      <use xlink:href="#IBMPlexSans-35" transform="translate(174.599945 0.765625)"/>
      <use xlink:href="#IBMPlexSans-25" transform="translate(234.59993 0.765625)"/>
      <use xlink:href="#IBMPlexSans-20" transform="translate(327.299911 0.765625)"/>
      <use xlink:href="#IBMPlexSans-43" transform="translate(350.899902 0.765625)"/>
      <use xlink:href="#IBMPlexSans-49" transform="translate(412.999893 0.765625)"/>
      <use xlink:href="#IBMPlexSans-29" transform="translate(452.999878 0.765625)"/>
      <use xlink:href="#IBMPlexSans-20" transform="translate(486.499863 0.765625)"/>
      <use xlink:href="#IBMPlexSans-5b" transform="translate(510.099854 0.765625)"/>
      <use xlink:href="#IBMPlexSans-61" transform="translate(541.79985 0.765625)"/>
      <use xlink:href="#DejaVuSans-32" transform="translate(596.156876 39.046875) scale(0.7)"/>
      <use xlink:href="#DejaVuSans-30" transform="translate(596.156876 -26.578125) scale(0.7)"/>
      <use xlink:href="#IBMPlexSans-5d" transform="translate(643.427383 0.765625)"/>
     </g>
    </g>
    <g id="text_11">
     <!-- 1e−5 -->
     <g transform="translate(318.580469 14.6) scale(0.1 -0.1)">
      <use xlink:href="#IBMPlexSans-31"/>
      <use xlink:href="#IBMPlexSans-65" transform="translate(59.999985 0)"/>
      <use xlink:href="#IBMPlexSans-2212" transform="translate(114.899979 0)"/>
      <use xlink:href="#IBMPlexSans-35" transform="translate(174.899963 0)"/>
     </g>
    </g>
   </g>
   <g id="line2d_26">
    <path d="M 328.699517 66.087576 
L 334.48183 67.742874 
L 340.264143 69.347715 
L 346.046456 70.965545 
L 351.828769 72.501128 
L 357.611082 74.000598 
L 363.393395 75.44127 
L 369.175708 76.676561 
L 374.958021 77.795508 
L 380.740334 78.843932 
L 386.522647 79.759028 
L 392.30496 80.579638 
L 398.087273 81.370264 
L 403.869586 82.163576 
L 409.651899 82.932362 
L 415.434212 83.691687 
L 421.216525 84.460036 
L 426.998838 85.303987 
L 432.781151 86.168519 
L 438.563464 87.040756 
L 444.345777 87.891412 
L 450.12809 88.736658 
L 455.910403 89.555902 
L 461.692716 90.363853 
L 467.475029 91.22483 
L 473.257342 92.152091 
L 479.039655 93.123509 
L 484.821968 94.136047 
L 490.604281 95.170862 
L 496.386594 96.171935 
L 502.168907 97.108837 
L 507.95122 97.991081 
L 513.733533 98.778007 
L 519.515846 99.479808 
L 525.298159 100.111653 
L 531.080472 100.718673 
" clip-path="url(#p11029f831f)" style="fill: none; stroke: #d62728; stroke-width: 1.5; stroke-linecap: square"/>
   </g>
   <g id="patch_6">
    <path d="M 318.580469 133.32452 
L 318.580469 17.6 
" style="fill: none; stroke: #000000; stroke-width: 0.8; stroke-linejoin: miter; stroke-linecap: square"/>
   </g>
   <g id="patch_7">
    <path d="M 318.580469 133.32452 
L 541.19952 133.32452 
" style="fill: none; stroke: #000000; stroke-width: 0.8; stroke-linejoin: miter; stroke-linecap: square"/>
   </g>
  </g>
  <g id="axes_3">
   <g id="patch_8">
    <path d="M 48.640625 275.14952 
L 271.259676 275.14952 
L 271.259676 159.425 
L 48.640625 159.425 
z
" style="fill: #ffffff"/>
   </g>
   <g id="matplotlib.axis_5">
    <g id="xtick_19">
     <g id="line2d_27">
      <g>
       <use xlink:href="#m555b650713" x="213.219537" y="275.14952" style="stroke: #000000; stroke-width: 0.8"/>
      </g>
     </g>
     <g id="text_12">
      <!-- $\mathdefault{10^{-1}}$ -->
      <g transform="translate(202.819537 289.54952) scale(0.1 -0.1)">
       <use xlink:href="#IBMPlexSans-31" transform="translate(0 0.026563)"/>
       <use xlink:href="#IBMPlexSans-30" transform="translate(59.999985 0.026563)"/>
       <use xlink:href="#IBMPlexSans-2212" transform="translate(120.90286 36.142188) scale(0.7)"/>
       <use xlink:href="#IBMPlexSans-31" transform="translate(162.902849 36.142188) scale(0.7)"/>
      </g>
     </g>
    </g>
    <g id="xtick_20">
     <g id="line2d_28">
      <g>
       <use xlink:href="#m02cddbcba4" x="64.319157" y="275.14952" style="stroke: #000000; stroke-width: 0.6"/>
      </g>
     </g>
    </g>
    <g id="xtick_21">
     <g id="line2d_29">
      <g>
       <use xlink:href="#m02cddbcba4" x="101.831576" y="275.14952" style="stroke: #000000; stroke-width: 0.6"/>
      </g>
     </g>
    </g>
    <g id="xtick_22">
     <g id="line2d_30">
      <g>
       <use xlink:href="#m02cddbcba4" x="128.44706" y="275.14952" style="stroke: #000000; stroke-width: 0.6"/>
      </g>
     </g>
    </g>
    <g id="xtick_23">
     <g id="line2d_31">
      <g>
       <use xlink:href="#m02cddbcba4" x="149.091634" y="275.14952" style="stroke: #000000; stroke-width: 0.6"/>
      </g>
     </g>
    </g>
    <g id="xtick_24">
     <g id="line2d_32">
      <g>
       <use xlink:href="#m02cddbcba4" x="165.959479" y="275.14952" style="stroke: #000000; stroke-width: 0.6"/>
      </g>
     </g>
    </g>
    <g id="xtick_25">
     <g id="line2d_33">
      <g>
       <use xlink:href="#m02cddbcba4" x="180.221039" y="275.14952" style="stroke: #000000; stroke-width: 0.6"/>
      </g>
     </g>
    </g>
    <g id="xtick_26">
     <g id="line2d_34">
      <g>
       <use xlink:href="#m02cddbcba4" x="192.574964" y="275.14952" style="stroke: #000000; stroke-width: 0.6"/>
      </g>
     </g>
    </g>
    <g id="xtick_27">
     <g id="line2d_35">
      <g>
       <use xlink:href="#m02cddbcba4" x="203.471898" y="275.14952" style="stroke: #000000; stroke-width: 0.6"/>
      </g>
     </g>
    </g>
    <g id="text_13">
     <!-- Cutoff frequency -->
     <g transform="translate(122.494682 302.94952) scale(0.1 -0.1)">
      <defs>
       <path id="IBMPlexSans-75" d="M 2579 0 
L 3091 0 
L 3091 3302 
L 2579 3302 
L 2579 1018 
C 2579 582 2182 384 1779 384 
C 1286 384 1024 685 1024 1274 
L 1024 3302 
L 512 3302 
L 512 1184 
C 512 384 947 -77 1626 -77 
C 2176 -77 2426 224 2554 538 
L 2579 538 
L 2579 0 
z
" transform="scale(0.015625)"/>
       <path id="IBMPlexSans-6f" d="M 1792 -77 
C 2675 -77 3283 602 3283 1651 
C 3283 2701 2675 3379 1792 3379 
C 909 3379 301 2701 301 1651 
C 301 602 909 -77 1792 -77 
z
M 1792 378 
C 1242 378 851 717 851 1414 
L 851 1888 
C 851 2586 1242 2925 1792 2925 
C 2342 2925 2733 2586 2733 1888 
L 2733 1414 
C 2733 717 2342 378 1792 378 
z
" transform="scale(0.015625)"/>
       <path id="IBMPlexSans-66" d="M 723 0 
L 1235 0 
L 1235 2854 
L 1946 2854 
L 1946 3302 
L 1235 3302 
L 1235 4288 
L 1946 4288 
L 1946 4736 
L 1446 4736 
C 960 4736 723 4422 723 3968 
L 723 3302 
L 186 3302 
L 186 2854 
L 723 2854 
L 723 0 
z
" transform="scale(0.015625)"/>
       <path id="IBMPlexSans-72" d="M 1056 0 
L 1056 2240 
C 1056 2554 1389 2790 1939 2790 
L 2240 2790 
L 2240 3302 
L 2042 3302 
C 1504 3302 1203 3008 1088 2694 
L 1056 2694 
L 1056 3302 
L 544 3302 
L 544 0 
L 1056 0 
z
" transform="scale(0.015625)"/>
       <path id="IBMPlexSans-71" d="M 2656 -1280 
L 3168 -1280 
L 3168 3302 
L 2656 3302 
L 2656 2765 
L 2630 2765 
C 2458 3181 2118 3379 1664 3379 
C 838 3379 320 2707 320 1651 
C 320 595 838 -77 1664 -77 
C 2118 -77 2432 128 2630 538 
L 2656 538 
L 2656 -1280 
z
M 1805 384 
C 1229 384 870 781 870 1370 
L 870 1933 
C 870 2522 1229 2918 1805 2918 
C 2272 2918 2656 2650 2656 2285 
L 2656 1056 
C 2656 627 2272 384 1805 384 
z
" transform="scale(0.015625)"/>
       <path id="IBMPlexSans-6e" d="M 1056 0 
L 1056 2291 
C 1056 2714 1453 2918 1862 2918 
C 2355 2918 2611 2618 2611 2029 
L 2611 0 
L 3123 0 
L 3123 2118 
C 3123 2918 2694 3379 2016 3379 
C 1523 3379 1242 3136 1082 2765 
L 1056 2765 
L 1056 3302 
L 544 3302 
L 544 0 
L 1056 0 
z
" transform="scale(0.015625)"/>
       <path id="IBMPlexSans-79" d="M 1779 1056 
L 1600 518 
L 1568 518 
L 1414 1056 
L 621 3302 
L 109 3302 
L 1344 -128 
L 1094 -832 
L 576 -832 
L 576 -1280 
L 838 -1280 
C 1325 -1280 1459 -1165 1606 -768 
L 3085 3302 
L 2579 3302 
L 1779 1056 
z
" transform="scale(0.015625)"/>
      </defs>
      <use xlink:href="#IBMPlexSans-43"/>
      <use xlink:href="#IBMPlexSans-75" transform="translate(62.099991 0)"/>
      <use xlink:href="#IBMPlexSans-74" transform="translate(118.899979 0)"/>
      <use xlink:href="#IBMPlexSans-6f" transform="translate(153.999969 0)"/>
      <use xlink:href="#IBMPlexSans-66" transform="translate(209.999954 0)"/>
      <use xlink:href="#IBMPlexSans-66" transform="translate(242.399948 0)"/>
      <use xlink:href="#IBMPlexSans-20" transform="translate(274.799942 0)"/>
      <use xlink:href="#IBMPlexSans-66" transform="translate(298.399933 0)"/>
      <use xlink:href="#IBMPlexSans-72" transform="translate(330.799927 0)"/>
      <use xlink:href="#IBMPlexSans-65" transform="translate(367.499924 0)"/>
      <use xlink:href="#IBMPlexSans-71" transform="translate(422.399918 0)"/>
      <use xlink:href="#IBMPlexSans-75" transform="translate(480.399902 0)"/>
      <use xlink:href="#IBMPlexSans-65" transform="translate(537.19989 0)"/>
      <use xlink:href="#IBMPlexSans-6e" transform="translate(592.099884 0)"/>
      <use xlink:href="#IBMPlexSans-63" transform="translate(648.899872 0)"/>
      <use xlink:href="#IBMPlexSans-79" transform="translate(699.19986 0)"/>
     </g>
    </g>
   </g>
   <g id="matplotlib.axis_6">
    <g id="ytick_7">
     <g id="line2d_36">
      <g>
       <use xlink:href="#mf7c3b0b7fc" x="48.640625" y="244.292721" style="stroke: #000000; stroke-width: 0.8"/>
      </g>
     </g>
     <g id="text_14">
      <!-- 0 -->
      <g transform="translate(35.640625 247.992721) scale(0.1 -0.1)">
       <use xlink:href="#IBMPlexSans-30"/>
      </g>
     </g>
    </g>
    <g id="ytick_8">
     <g id="line2d_37">
      <g>
       <use xlink:href="#mf7c3b0b7fc" x="48.640625" y="201.85886" style="stroke: #000000; stroke-width: 0.8"/>
      </g>
     </g>
     <g id="text_15">
      <!-- 2 -->
      <g transform="translate(35.640625 205.55886) scale(0.1 -0.1)">
       <use xlink:href="#IBMPlexSans-32"/>
      </g>
     </g>
    </g>
    <g id="ytick_9">
     <g id="line2d_38">
      <g>
       <use xlink:href="#mf7c3b0b7fc" x="48.640625" y="159.425" style="stroke: #000000; stroke-width: 0.8"/>
      </g>
     </g>
     <g id="text_16">
      <!-- 4 -->
      <g transform="translate(35.640625 163.125) scale(0.1 -0.1)">
       <use xlink:href="#IBMPlexSans-34"/>
      </g>
     </g>
    </g>
    <g id="text_17">
     <!-- Z-score -->
     <g transform="translate(29.640625 234.513041) rotate(-90) scale(0.1 -0.1)">
      <defs>
       <path id="IBMPlexSans-5a" d="M 3482 474 
L 806 474 
L 3392 3981 
L 3392 4467 
L 365 4467 
L 365 3994 
L 2810 3994 
L 230 486 
L 230 0 
L 3482 0 
L 3482 474 
z
" transform="scale(0.015625)"/>
       <path id="IBMPlexSans-2d" d="M 2112 1670 
L 2112 2221 
L 442 2221 
L 442 1670 
L 2112 1670 
z
" transform="scale(0.015625)"/>
       <path id="IBMPlexSans-73" d="M 1536 -77 
C 2291 -77 2758 314 2758 954 
C 2758 1453 2477 1773 1747 1882 
L 1491 1920 
C 1082 1984 858 2112 858 2432 
C 858 2746 1082 2944 1504 2944 
C 1926 2944 2208 2746 2355 2541 
L 2694 2848 
C 2426 3181 2074 3379 1542 3379 
C 870 3379 365 3059 365 2406 
C 365 1792 819 1542 1427 1453 
L 1690 1414 
C 2125 1350 2266 1152 2266 896 
C 2266 557 2010 358 1574 358 
C 1158 358 851 544 595 864 
L 230 570 
C 525 179 928 -77 1536 -77 
z
" transform="scale(0.015625)"/>
      </defs>
      <use xlink:href="#IBMPlexSans-5a"/>
      <use xlink:href="#IBMPlexSans-2d" transform="translate(57.999985 0)"/>
      <use xlink:href="#IBMPlexSans-73" transform="translate(97.899979 0)"/>
      <use xlink:href="#IBMPlexSans-63" transform="translate(146.599976 0)"/>
      <use xlink:href="#IBMPlexSans-6f" transform="translate(196.899963 0)"/>
      <use xlink:href="#IBMPlexSans-72" transform="translate(252.899948 0)"/>
      <use xlink:href="#IBMPlexSans-65" transform="translate(289.599945 0)"/>
     </g>
    </g>
   </g>
   <g id="line2d_39">
    <path d="M 58.759673 270.739816 
L 64.541986 270.906134 
L 70.324299 270.838743 
L 76.106612 270.616606 
L 81.888925 270.378705 
L 87.671238 270.080414 
L 93.453551 269.629576 
L 99.235864 268.95115 
L 105.018177 267.966539 
L 110.80049 266.720703 
L 116.582803 265.38721 
L 122.365116 264.102899 
L 128.147429 262.902295 
L 133.929742 261.742218 
L 139.712055 260.550206 
L 145.494368 259.21767 
L 151.276681 257.632885 
L 157.058994 255.701056 
L 162.841307 253.387465 
L 168.62362 250.610167 
L 174.405933 247.402588 
L 180.188246 243.825438 
L 185.970559 240.130795 
L 191.752872 236.675484 
L 197.535185 233.772618 
L 203.317498 231.673881 
L 209.099811 230.475991 
L 214.882124 229.969577 
L 220.664437 229.886978 
L 226.44675 230.001919 
L 232.229063 230.236171 
L 238.011376 230.626549 
L 243.793689 231.317789 
L 249.576002 232.38153 
L 255.358315 233.720721 
L 261.140628 235.170609 
" clip-path="url(#p9731093668)" style="fill: none; stroke: #1f77b4; stroke-width: 1.5; stroke-linecap: square"/>
   </g>
   <g id="line2d_40">
    <path d="M 58.759673 226.447291 
L 64.541986 227.565352 
L 70.324299 230.037487 
L 76.106612 234.233662 
L 81.888925 239.366277 
L 87.671238 243.850427 
L 93.453551 246.488389 
L 99.235864 247.287732 
L 105.018177 247.07211 
L 110.80049 246.222399 
L 116.582803 244.963661 
L 122.365116 243.316809 
L 128.147429 241.14082 
L 133.929742 238.79083 
L 139.712055 236.495949 
L 145.494368 234.685115 
L 151.276681 234.07899 
L 157.058994 234.202756 
L 162.841307 234.20605 
L 168.62362 233.652663 
L 174.405933 232.203305 
L 180.188246 229.156097 
L 185.970559 224.704766 
L 191.752872 219.60908 
L 197.535185 213.650808 
L 203.317498 207.431088 
L 209.099811 203.307617 
L 214.882124 201.308477 
L 220.664437 201.714391 
L 226.44675 203.409442 
L 232.229063 204.678804 
L 238.011376 204.832355 
L 243.793689 203.336821 
L 249.576002 200.493736 
L 255.358315 196.820452 
L 261.140628 193.714593 
" clip-path="url(#p9731093668)" style="fill: none; stroke: #2ca02c; stroke-width: 1.5; stroke-linecap: square"/>
   </g>
   <g id="line2d_41">
    <path d="M 48.640625 244.292721 
L 271.259676 244.292721 
" clip-path="url(#p9731093668)" style="fill: none; stroke-dasharray: 5.55,2.4; stroke-dashoffset: 0; stroke: #000000; stroke-width: 1.5"/>
   </g>
   <g id="line2d_42">
    <path d="M 48.640625 201.85886 
L 271.259676 201.85886 
" clip-path="url(#p9731093668)" style="fill: none; stroke-dasharray: 5.55,2.4; stroke-dashoffset: 0; stroke: #000000; stroke-width: 1.5"/>
   </g>
   <g id="patch_9">
    <path d="M 48.640625 275.14952 
L 48.640625 159.425 
" style="fill: none; stroke: #000000; stroke-width: 0.8; stroke-linejoin: miter; stroke-linecap: square"/>
   </g>
   <g id="patch_10">
    <path d="M 48.640625 275.14952 
L 271.259676 275.14952 
" style="fill: none; stroke: #000000; stroke-width: 0.8; stroke-linejoin: miter; stroke-linecap: square"/>
   </g>
   <g id="legend_1">
    <g id="patch_11">
     <path d="M 55.640625 196.225 
L 126.470313 196.225 
Q 128.470313 196.225 128.470313 194.225 
L 128.470313 166.425 
Q 128.470313 164.425 126.470313 164.425 
L 55.640625 164.425 
Q 53.640625 164.425 53.640625 166.425 
L 53.640625 194.225 
Q 53.640625 196.225 55.640625 196.225 
z
" style="fill: #ffffff; opacity: 0.8; stroke: #cccccc; stroke-linejoin: miter"/>
    </g>
    <g id="line2d_43">
     <path d="M 57.640625 172.325 
L 67.640625 172.325 
L 77.640625 172.325 
" style="fill: none; stroke: #1f77b4; stroke-width: 1.5; stroke-linecap: square"/>
    </g>
    <g id="text_18">
     <!-- Cost -->
     <g transform="translate(85.640625 175.825) scale(0.1 -0.1)">
      <use xlink:href="#IBMPlexSans-43"/>
      <use xlink:href="#IBMPlexSans-6f" transform="translate(62.099991 0)"/>
      <use xlink:href="#IBMPlexSans-73" transform="translate(118.099976 0)"/>
      <use xlink:href="#IBMPlexSans-74" transform="translate(166.799973 0)"/>
     </g>
    </g>
    <g id="line2d_44">
     <path d="M 57.640625 186.725 
L 67.640625 186.725 
L 77.640625 186.725 
" style="fill: none; stroke: #2ca02c; stroke-width: 1.5; stroke-linecap: square"/>
    </g>
    <g id="text_19">
     <!-- Criterion -->
     <g transform="translate(85.640625 190.225) scale(0.1 -0.1)">
      <use xlink:href="#IBMPlexSans-43"/>
      <use xlink:href="#IBMPlexSans-72" transform="translate(62.099991 0)"/>
      <use xlink:href="#IBMPlexSans-69" transform="translate(98.799988 0)"/>
      <use xlink:href="#IBMPlexSans-74" transform="translate(123.799973 0)"/>
      <use xlink:href="#IBMPlexSans-65" transform="translate(158.899963 0)"/>
      <use xlink:href="#IBMPlexSans-72" transform="translate(213.799957 0)"/>
      <use xlink:href="#IBMPlexSans-69" transform="translate(250.499954 0)"/>
      <use xlink:href="#IBMPlexSans-6f" transform="translate(275.499939 0)"/>
      <use xlink:href="#IBMPlexSans-6e" transform="translate(331.499924 0)"/>
     </g>
    </g>
   </g>
  </g>
  <g id="axes_4">
   <g id="patch_12">
    <path d="M 318.580469 275.14952 
L 541.19952 275.14952 
L 541.19952 159.425 
L 318.580469 159.425 
z
" style="fill: #ffffff"/>
   </g>
   <g id="PathCollection_2">
    <defs>
     <path id="C1_0_aab26e39a0" d="M 0 2.738613 
C 0.726289 2.738613 1.422928 2.450055 1.936492 1.936492 
C 2.450055 1.422928 2.738613 0.726289 2.738613 -0 
C 2.738613 -0.726289 2.450055 -1.422928 1.936492 -1.936492 
C 1.422928 -2.450055 0.726289 -2.738613 0 -2.738613 
C -0.726289 -2.738613 -1.422928 -2.450055 -1.936492 -1.936492 
C -2.450055 -1.422928 -2.738613 -0.726289 -2.738613 0 
C -2.738613 0.726289 -2.450055 1.422928 -1.936492 1.936492 
C -1.422928 2.450055 -0.726289 2.738613 0 2.738613 
z
"/>
    </defs>
    <g clip-path="url(#p5d3187180a)">
     <use xlink:href="#C1_0_aab26e39a0" x="328.699517" y="263.449705" style="fill: #fdfdfd"/>
    </g>
    <g clip-path="url(#p5d3187180a)">
     <use xlink:href="#C1_0_aab26e39a0" x="334.48183" y="262.210229" style="fill: #fdfdfd"/>
    </g>
    <g clip-path="url(#p5d3187180a)">
     <use xlink:href="#C1_0_aab26e39a0" x="340.264143" y="260.952402" style="fill: #fbfbfb"/>
    </g>
    <g clip-path="url(#p5d3187180a)">
     <use xlink:href="#C1_0_aab26e39a0" x="346.046456" y="259.718153" style="fill: #f8f8f8"/>
    </g>
    <g clip-path="url(#p5d3187180a)">
     <use xlink:href="#C1_0_aab26e39a0" x="351.828769" y="258.528018" style="fill: #f3f3f3"/>
    </g>
    <g clip-path="url(#p5d3187180a)">
     <use xlink:href="#C1_0_aab26e39a0" x="357.611082" y="257.384664" style="fill: #e9e9e9"/>
    </g>
    <g clip-path="url(#p5d3187180a)">
     <use xlink:href="#C1_0_aab26e39a0" x="363.393395" y="256.382059" style="fill: #dcdcdc"/>
    </g>
    <g clip-path="url(#p5d3187180a)">
     <use xlink:href="#C1_0_aab26e39a0" x="369.175708" y="255.5164" style="fill: #cccccc"/>
    </g>
    <g clip-path="url(#p5d3187180a)">
     <use xlink:href="#C1_0_aab26e39a0" x="374.958021" y="254.832749" style="fill: #bebebe"/>
    </g>
    <g clip-path="url(#p5d3187180a)">
     <use xlink:href="#C1_0_aab26e39a0" x="380.740334" y="254.340901" style="fill: #ababab"/>
    </g>
    <g clip-path="url(#p5d3187180a)">
     <use xlink:href="#C1_0_aab26e39a0" x="386.522647" y="254.014624" style="fill: #9c9c9c"/>
    </g>
    <g clip-path="url(#p5d3187180a)">
     <use xlink:href="#C1_0_aab26e39a0" x="392.30496" y="253.826652" style="fill: #919191"/>
    </g>
    <g clip-path="url(#p5d3187180a)">
     <use xlink:href="#C1_0_aab26e39a0" x="398.087273" y="253.778602" style="fill: #8a8a8a"/>
    </g>
    <g clip-path="url(#p5d3187180a)">
     <use xlink:href="#C1_0_aab26e39a0" x="403.869586" y="253.856022" style="fill: #878787"/>
    </g>
    <g clip-path="url(#p5d3187180a)">
     <use xlink:href="#C1_0_aab26e39a0" x="409.651899" y="254.04374" style="fill: #858585"/>
    </g>
    <g clip-path="url(#p5d3187180a)">
     <use xlink:href="#C1_0_aab26e39a0" x="415.434212" y="254.320541" style="fill: #7e7e7e"/>
    </g>
    <g clip-path="url(#p5d3187180a)">
     <use xlink:href="#C1_0_aab26e39a0" x="421.216525" y="254.677057" style="fill: #6c6c6c"/>
    </g>
    <g clip-path="url(#p5d3187180a)">
     <use xlink:href="#C1_0_aab26e39a0" x="426.998838" y="255.112292" style="fill: #505050"/>
    </g>
    <g clip-path="url(#p5d3187180a)">
     <use xlink:href="#C1_0_aab26e39a0" x="432.781151" y="255.597323" style="fill: #282828"/>
    </g>
    <g clip-path="url(#p5d3187180a)">
     <use xlink:href="#C1_0_aab26e39a0" x="438.563464" y="256.131379" style="fill: #0d0d0d"/>
    </g>
    <g clip-path="url(#p5d3187180a)">
     <use xlink:href="#C1_0_aab26e39a0" x="444.345777" y="256.713723"/>
    </g>
    <g clip-path="url(#p5d3187180a)">
     <use xlink:href="#C1_0_aab26e39a0" x="450.12809" y="257.363406" style="fill: #0e0e0e"/>
    </g>
    <g clip-path="url(#p5d3187180a)">
     <use xlink:href="#C1_0_aab26e39a0" x="455.910403" y="258.062458" style="fill: #353535"/>
    </g>
    <g clip-path="url(#p5d3187180a)">
     <use xlink:href="#C1_0_aab26e39a0" x="461.692716" y="258.804803" style="fill: #616161"/>
    </g>
    <g clip-path="url(#p5d3187180a)">
     <use xlink:href="#C1_0_aab26e39a0" x="467.475029" y="259.593488" style="fill: #878787"/>
    </g>
    <g clip-path="url(#p5d3187180a)">
     <use xlink:href="#C1_0_aab26e39a0" x="473.257342" y="260.409743" style="fill: #ababab"/>
    </g>
    <g clip-path="url(#p5d3187180a)">
     <use xlink:href="#C1_0_aab26e39a0" x="479.039655" y="261.250485" style="fill: #bbbbbb"/>
    </g>
    <g clip-path="url(#p5d3187180a)">
     <use xlink:href="#C1_0_aab26e39a0" x="484.821968" y="262.114563" style="fill: #bbbbbb"/>
    </g>
    <g clip-path="url(#p5d3187180a)">
     <use xlink:href="#C1_0_aab26e39a0" x="490.604281" y="263.002846" style="fill: #ababab"/>
    </g>
    <g clip-path="url(#p5d3187180a)">
     <use xlink:href="#C1_0_aab26e39a0" x="496.386594" y="263.912892" style="fill: #8d8d8d"/>
    </g>
    <g clip-path="url(#p5d3187180a)">
     <use xlink:href="#C1_0_aab26e39a0" x="502.168907" y="264.846845" style="fill: #707070"/>
    </g>
    <g clip-path="url(#p5d3187180a)">
     <use xlink:href="#C1_0_aab26e39a0" x="507.95122" y="265.809036" style="fill: #5e5e5e"/>
    </g>
    <g clip-path="url(#p5d3187180a)">
     <use xlink:href="#C1_0_aab26e39a0" x="513.733533" y="266.79581" style="fill: #5c5c5c"/>
    </g>
    <g clip-path="url(#p5d3187180a)">
     <use xlink:href="#C1_0_aab26e39a0" x="519.515846" y="267.806285" style="fill: #6a6a6a"/>
    </g>
    <g clip-path="url(#p5d3187180a)">
     <use xlink:href="#C1_0_aab26e39a0" x="525.298159" y="268.838337" style="fill: #818181"/>
    </g>
    <g clip-path="url(#p5d3187180a)">
     <use xlink:href="#C1_0_aab26e39a0" x="531.080472" y="269.889315" style="fill: #909090"/>
    </g>
   </g>
   <g id="PathCollection_3">
    <defs>
     <path id="C2_0_4e0366d2f4" d="M 0 2.738613 
C 0.726289 2.738613 1.422928 2.450055 1.936492 1.936492 
C 2.450055 1.422928 2.738613 0.726289 2.738613 -0 
C 2.738613 -0.726289 2.450055 -1.422928 1.936492 -1.936492 
C 1.422928 -2.450055 0.726289 -2.738613 0 -2.738613 
C -0.726289 -2.738613 -1.422928 -2.450055 -1.936492 -1.936492 
C -2.450055 -1.422928 -2.738613 -0.726289 -2.738613 0 
C -2.738613 0.726289 -2.450055 1.422928 -1.936492 1.936492 
C -1.422928 2.450055 -0.726289 2.738613 0 2.738613 
z
"/>
    </defs>
    <g clip-path="url(#p5d3187180a)">
     <use xlink:href="#C2_0_4e0366d2f4" x="328.699517" y="210.570379" style="fill: #fdfdfd"/>
    </g>
    <g clip-path="url(#p5d3187180a)">
     <use xlink:href="#C2_0_4e0366d2f4" x="334.48183" y="210.782628" style="fill: #fdfdfd"/>
    </g>
    <g clip-path="url(#p5d3187180a)">
     <use xlink:href="#C2_0_4e0366d2f4" x="340.264143" y="210.979393" style="fill: #fbfbfb"/>
    </g>
    <g clip-path="url(#p5d3187180a)">
     <use xlink:href="#C2_0_4e0366d2f4" x="346.046456" y="211.157604" style="fill: #f8f8f8"/>
    </g>
    <g clip-path="url(#p5d3187180a)">
     <use xlink:href="#C2_0_4e0366d2f4" x="351.828769" y="211.301022" style="fill: #f3f3f3"/>
    </g>
    <g clip-path="url(#p5d3187180a)">
     <use xlink:href="#C2_0_4e0366d2f4" x="357.611082" y="211.408212" style="fill: #e9e9e9"/>
    </g>
    <g clip-path="url(#p5d3187180a)">
     <use xlink:href="#C2_0_4e0366d2f4" x="363.393395" y="211.493887" style="fill: #dcdcdc"/>
    </g>
    <g clip-path="url(#p5d3187180a)">
     <use xlink:href="#C2_0_4e0366d2f4" x="369.175708" y="211.530885" style="fill: #cccccc"/>
    </g>
    <g clip-path="url(#p5d3187180a)">
     <use xlink:href="#C2_0_4e0366d2f4" x="374.958021" y="211.537519" style="fill: #bebebe"/>
    </g>
    <g clip-path="url(#p5d3187180a)">
     <use xlink:href="#C2_0_4e0366d2f4" x="380.740334" y="211.526385" style="fill: #ababab"/>
    </g>
    <g clip-path="url(#p5d3187180a)">
     <use xlink:href="#C2_0_4e0366d2f4" x="386.522647" y="211.487374" style="fill: #9c9c9c"/>
    </g>
    <g clip-path="url(#p5d3187180a)">
     <use xlink:href="#C2_0_4e0366d2f4" x="392.30496" y="211.4192" style="fill: #919191"/>
    </g>
    <g clip-path="url(#p5d3187180a)">
     <use xlink:href="#C2_0_4e0366d2f4" x="398.087273" y="211.33969" style="fill: #8a8a8a"/>
    </g>
    <g clip-path="url(#p5d3187180a)">
     <use xlink:href="#C2_0_4e0366d2f4" x="403.869586" y="211.256432" style="fill: #878787"/>
    </g>
    <g clip-path="url(#p5d3187180a)">
     <use xlink:href="#C2_0_4e0366d2f4" x="409.651899" y="211.16827" style="fill: #858585"/>
    </g>
    <g clip-path="url(#p5d3187180a)">
     <use xlink:href="#C2_0_4e0366d2f4" x="415.434212" y="211.070716" style="fill: #7e7e7e"/>
    </g>
    <g clip-path="url(#p5d3187180a)">
     <use xlink:href="#C2_0_4e0366d2f4" x="421.216525" y="210.966731" style="fill: #6c6c6c"/>
    </g>
    <g clip-path="url(#p5d3187180a)">
     <use xlink:href="#C2_0_4e0366d2f4" x="426.998838" y="210.873873" style="fill: #505050"/>
    </g>
    <g clip-path="url(#p5d3187180a)">
     <use xlink:href="#C2_0_4e0366d2f4" x="432.781151" y="210.766949" style="fill: #282828"/>
    </g>
    <g clip-path="url(#p5d3187180a)">
     <use xlink:href="#C2_0_4e0366d2f4" x="438.563464" y="210.648405" style="fill: #0d0d0d"/>
    </g>
    <g clip-path="url(#p5d3187180a)">
     <use xlink:href="#C2_0_4e0366d2f4" x="444.345777" y="210.516255"/>
    </g>
    <g clip-path="url(#p5d3187180a)">
     <use xlink:href="#C2_0_4e0366d2f4" x="450.12809" y="210.401851" style="fill: #0e0e0e"/>
    </g>
    <g clip-path="url(#p5d3187180a)">
     <use xlink:href="#C2_0_4e0366d2f4" x="455.910403" y="210.285794" style="fill: #353535"/>
    </g>
    <g clip-path="url(#p5d3187180a)">
     <use xlink:href="#C2_0_4e0366d2f4" x="461.692716" y="210.167733" style="fill: #616161"/>
    </g>
    <g clip-path="url(#p5d3187180a)">
     <use xlink:href="#C2_0_4e0366d2f4" x="467.475029" y="210.07025" style="fill: #878787"/>
    </g>
    <g clip-path="url(#p5d3187180a)">
     <use xlink:href="#C2_0_4e0366d2f4" x="473.257342" y="209.97177" style="fill: #ababab"/>
    </g>
    <g clip-path="url(#p5d3187180a)">
     <use xlink:href="#C2_0_4e0366d2f4" x="479.039655" y="209.869549" style="fill: #bbbbbb"/>
    </g>
    <g clip-path="url(#p5d3187180a)">
     <use xlink:href="#C2_0_4e0366d2f4" x="484.821968" y="209.764416" style="fill: #bbbbbb"/>
    </g>
    <g clip-path="url(#p5d3187180a)">
     <use xlink:href="#C2_0_4e0366d2f4" x="490.604281" y="209.658867" style="fill: #ababab"/>
    </g>
    <g clip-path="url(#p5d3187180a)">
     <use xlink:href="#C2_0_4e0366d2f4" x="496.386594" y="209.542709" style="fill: #8d8d8d"/>
    </g>
    <g clip-path="url(#p5d3187180a)">
     <use xlink:href="#C2_0_4e0366d2f4" x="502.168907" y="209.419478" style="fill: #707070"/>
    </g>
    <g clip-path="url(#p5d3187180a)">
     <use xlink:href="#C2_0_4e0366d2f4" x="507.95122" y="209.306429" style="fill: #5e5e5e"/>
    </g>
    <g clip-path="url(#p5d3187180a)">
     <use xlink:href="#C2_0_4e0366d2f4" x="513.733533" y="209.194127" style="fill: #5c5c5c"/>
    </g>
    <g clip-path="url(#p5d3187180a)">
     <use xlink:href="#C2_0_4e0366d2f4" x="519.515846" y="209.088417" style="fill: #6a6a6a"/>
    </g>
    <g clip-path="url(#p5d3187180a)">
     <use xlink:href="#C2_0_4e0366d2f4" x="525.298159" y="208.993076" style="fill: #818181"/>
    </g>
    <g clip-path="url(#p5d3187180a)">
     <use xlink:href="#C2_0_4e0366d2f4" x="531.080472" y="208.914205" style="fill: #909090"/>
    </g>
   </g>
   <g id="PathCollection_4">
    <defs>
     <path id="C3_0_54b4c63984" d="M 0 2.738613 
C 0.726289 2.738613 1.422928 2.450055 1.936492 1.936492 
C 2.450055 1.422928 2.738613 0.726289 2.738613 -0 
C 2.738613 -0.726289 2.450055 -1.422928 1.936492 -1.936492 
C 1.422928 -2.450055 0.726289 -2.738613 0 -2.738613 
C -0.726289 -2.738613 -1.422928 -2.450055 -1.936492 -1.936492 
C -2.450055 -1.422928 -2.738613 -0.726289 -2.738613 0 
C -2.738613 0.726289 -2.450055 1.422928 -1.936492 1.936492 
C -1.422928 2.450055 -0.726289 2.738613 0 2.738613 
z
"/>
    </defs>
    <g clip-path="url(#p5d3187180a)">
     <use xlink:href="#C3_0_54b4c63984" x="328.699517" y="164.709966" style="fill: #fdfdfd"/>
    </g>
    <g clip-path="url(#p5d3187180a)">
     <use xlink:href="#C3_0_54b4c63984" x="334.48183" y="164.698349" style="fill: #fdfdfd"/>
    </g>
    <g clip-path="url(#p5d3187180a)">
     <use xlink:href="#C3_0_54b4c63984" x="340.264143" y="164.690168" style="fill: #fbfbfb"/>
    </g>
    <g clip-path="url(#p5d3187180a)">
     <use xlink:href="#C3_0_54b4c63984" x="346.046456" y="164.685227" style="fill: #f8f8f8"/>
    </g>
    <g clip-path="url(#p5d3187180a)">
     <use xlink:href="#C3_0_54b4c63984" x="351.828769" y="164.685205" style="fill: #f3f3f3"/>
    </g>
    <g clip-path="url(#p5d3187180a)">
     <use xlink:href="#C3_0_54b4c63984" x="357.611082" y="164.690099" style="fill: #e9e9e9"/>
    </g>
    <g clip-path="url(#p5d3187180a)">
     <use xlink:href="#C3_0_54b4c63984" x="363.393395" y="164.696284" style="fill: #dcdcdc"/>
    </g>
    <g clip-path="url(#p5d3187180a)">
     <use xlink:href="#C3_0_54b4c63984" x="369.175708" y="164.706939" style="fill: #cccccc"/>
    </g>
    <g clip-path="url(#p5d3187180a)">
     <use xlink:href="#C3_0_54b4c63984" x="374.958021" y="164.718633" style="fill: #bebebe"/>
    </g>
    <g clip-path="url(#p5d3187180a)">
     <use xlink:href="#C3_0_54b4c63984" x="380.740334" y="164.729296" style="fill: #ababab"/>
    </g>
    <g clip-path="url(#p5d3187180a)">
     <use xlink:href="#C3_0_54b4c63984" x="386.522647" y="164.740486" style="fill: #9c9c9c"/>
    </g>
    <g clip-path="url(#p5d3187180a)">
     <use xlink:href="#C3_0_54b4c63984" x="392.30496" y="164.75278" style="fill: #919191"/>
    </g>
    <g clip-path="url(#p5d3187180a)">
     <use xlink:href="#C3_0_54b4c63984" x="398.087273" y="164.763841" style="fill: #8a8a8a"/>
    </g>
    <g clip-path="url(#p5d3187180a)">
     <use xlink:href="#C3_0_54b4c63984" x="403.869586" y="164.772973" style="fill: #878787"/>
    </g>
    <g clip-path="url(#p5d3187180a)">
     <use xlink:href="#C3_0_54b4c63984" x="409.651899" y="164.780647" style="fill: #858585"/>
    </g>
    <g clip-path="url(#p5d3187180a)">
     <use xlink:href="#C3_0_54b4c63984" x="415.434212" y="164.787908" style="fill: #7e7e7e"/>
    </g>
    <g clip-path="url(#p5d3187180a)">
     <use xlink:href="#C3_0_54b4c63984" x="421.216525" y="164.794623" style="fill: #6c6c6c"/>
    </g>
    <g clip-path="url(#p5d3187180a)">
     <use xlink:href="#C3_0_54b4c63984" x="426.998838" y="164.798601" style="fill: #505050"/>
    </g>
    <g clip-path="url(#p5d3187180a)">
     <use xlink:href="#C3_0_54b4c63984" x="432.781151" y="164.803726" style="fill: #282828"/>
    </g>
    <g clip-path="url(#p5d3187180a)">
     <use xlink:href="#C3_0_54b4c63984" x="438.563464" y="164.809773" style="fill: #0d0d0d"/>
    </g>
    <g clip-path="url(#p5d3187180a)">
     <use xlink:href="#C3_0_54b4c63984" x="444.345777" y="164.817097"/>
    </g>
    <g clip-path="url(#p5d3187180a)">
     <use xlink:href="#C3_0_54b4c63984" x="450.12809" y="164.82129" style="fill: #0e0e0e"/>
    </g>
    <g clip-path="url(#p5d3187180a)">
     <use xlink:href="#C3_0_54b4c63984" x="455.910403" y="164.825293" style="fill: #353535"/>
    </g>
    <g clip-path="url(#p5d3187180a)">
     <use xlink:href="#C3_0_54b4c63984" x="461.692716" y="164.829317" style="fill: #616161"/>
    </g>
    <g clip-path="url(#p5d3187180a)">
     <use xlink:href="#C3_0_54b4c63984" x="467.475029" y="164.830317" style="fill: #878787"/>
    </g>
    <g clip-path="url(#p5d3187180a)">
     <use xlink:href="#C3_0_54b4c63984" x="473.257342" y="164.831524" style="fill: #ababab"/>
    </g>
    <g clip-path="url(#p5d3187180a)">
     <use xlink:href="#C3_0_54b4c63984" x="479.039655" y="164.833385" style="fill: #bbbbbb"/>
    </g>
    <g clip-path="url(#p5d3187180a)">
     <use xlink:href="#C3_0_54b4c63984" x="484.821968" y="164.835833" style="fill: #bbbbbb"/>
    </g>
    <g clip-path="url(#p5d3187180a)">
     <use xlink:href="#C3_0_54b4c63984" x="490.604281" y="164.838537" style="fill: #ababab"/>
    </g>
    <g clip-path="url(#p5d3187180a)">
     <use xlink:href="#C3_0_54b4c63984" x="496.386594" y="164.842962" style="fill: #8d8d8d"/>
    </g>
    <g clip-path="url(#p5d3187180a)">
     <use xlink:href="#C3_0_54b4c63984" x="502.168907" y="164.848628" style="fill: #707070"/>
    </g>
    <g clip-path="url(#p5d3187180a)">
     <use xlink:href="#C3_0_54b4c63984" x="507.95122" y="164.853099" style="fill: #5e5e5e"/>
    </g>
    <g clip-path="url(#p5d3187180a)">
     <use xlink:href="#C3_0_54b4c63984" x="513.733533" y="164.857746" style="fill: #5c5c5c"/>
    </g>
    <g clip-path="url(#p5d3187180a)">
     <use xlink:href="#C3_0_54b4c63984" x="519.515846" y="164.861764" style="fill: #6a6a6a"/>
    </g>
    <g clip-path="url(#p5d3187180a)">
     <use xlink:href="#C3_0_54b4c63984" x="525.298159" y="164.864638" style="fill: #818181"/>
    </g>
    <g clip-path="url(#p5d3187180a)">
     <use xlink:href="#C3_0_54b4c63984" x="531.080472" y="164.865511" style="fill: #909090"/>
    </g>
   </g>
   <g id="matplotlib.axis_7">
    <g id="xtick_28">
     <g id="line2d_45">
      <g>
       <use xlink:href="#m555b650713" x="483.159381" y="275.14952" style="stroke: #000000; stroke-width: 0.8"/>
      </g>
     </g>
     <g id="text_20">
      <!-- $\mathdefault{10^{-1}}$ -->
      <g transform="translate(472.759381 289.54952) scale(0.1 -0.1)">
       <use xlink:href="#IBMPlexSans-31" transform="translate(0 0.026563)"/>
       <use xlink:href="#IBMPlexSans-30" transform="translate(59.999985 0.026563)"/>
       <use xlink:href="#IBMPlexSans-2212" transform="translate(120.90286 36.142188) scale(0.7)"/>
       <use xlink:href="#IBMPlexSans-31" transform="translate(162.902849 36.142188) scale(0.7)"/>
      </g>
     </g>
    </g>
    <g id="xtick_29">
     <g id="line2d_46">
      <g>
       <use xlink:href="#m02cddbcba4" x="334.259" y="275.14952" style="stroke: #000000; stroke-width: 0.6"/>
      </g>
     </g>
    </g>
    <g id="xtick_30">
     <g id="line2d_47">
      <g>
       <use xlink:href="#m02cddbcba4" x="371.771419" y="275.14952" style="stroke: #000000; stroke-width: 0.6"/>
      </g>
     </g>
    </g>
    <g id="xtick_31">
     <g id="line2d_48">
      <g>
       <use xlink:href="#m02cddbcba4" x="398.386904" y="275.14952" style="stroke: #000000; stroke-width: 0.6"/>
      </g>
     </g>
    </g>
    <g id="xtick_32">
     <g id="line2d_49">
      <g>
       <use xlink:href="#m02cddbcba4" x="419.031478" y="275.14952" style="stroke: #000000; stroke-width: 0.6"/>
      </g>
     </g>
    </g>
    <g id="xtick_33">
     <g id="line2d_50">
      <g>
       <use xlink:href="#m02cddbcba4" x="435.899323" y="275.14952" style="stroke: #000000; stroke-width: 0.6"/>
      </g>
     </g>
    </g>
    <g id="xtick_34">
     <g id="line2d_51">
      <g>
       <use xlink:href="#m02cddbcba4" x="450.160882" y="275.14952" style="stroke: #000000; stroke-width: 0.6"/>
      </g>
     </g>
    </g>
    <g id="xtick_35">
     <g id="line2d_52">
      <g>
       <use xlink:href="#m02cddbcba4" x="462.514807" y="275.14952" style="stroke: #000000; stroke-width: 0.6"/>
      </g>
     </g>
    </g>
    <g id="xtick_36">
     <g id="line2d_53">
      <g>
       <use xlink:href="#m02cddbcba4" x="473.411741" y="275.14952" style="stroke: #000000; stroke-width: 0.6"/>
      </g>
     </g>
    </g>
    <g id="text_21">
     <!-- Cutoff frequency -->
     <g transform="translate(392.434526 302.94952) scale(0.1 -0.1)">
      <use xlink:href="#IBMPlexSans-43"/>
      <use xlink:href="#IBMPlexSans-75" transform="translate(62.099991 0)"/>
      <use xlink:href="#IBMPlexSans-74" transform="translate(118.899979 0)"/>
      <use xlink:href="#IBMPlexSans-6f" transform="translate(153.999969 0)"/>
      <use xlink:href="#IBMPlexSans-66" transform="translate(209.999954 0)"/>
      <use xlink:href="#IBMPlexSans-66" transform="translate(242.399948 0)"/>
      <use xlink:href="#IBMPlexSans-20" transform="translate(274.799942 0)"/>
      <use xlink:href="#IBMPlexSans-66" transform="translate(298.399933 0)"/>
      <use xlink:href="#IBMPlexSans-72" transform="translate(330.799927 0)"/>
      <use xlink:href="#IBMPlexSans-65" transform="translate(367.499924 0)"/>
      <use xlink:href="#IBMPlexSans-71" transform="translate(422.399918 0)"/>
      <use xlink:href="#IBMPlexSans-75" transform="translate(480.399902 0)"/>
      <use xlink:href="#IBMPlexSans-65" transform="translate(537.19989 0)"/>
      <use xlink:href="#IBMPlexSans-6e" transform="translate(592.099884 0)"/>
      <use xlink:href="#IBMPlexSans-63" transform="translate(648.899872 0)"/>
      <use xlink:href="#IBMPlexSans-79" transform="translate(699.19986 0)"/>
     </g>
    </g>
   </g>
   <g id="matplotlib.axis_8">
    <g id="ytick_10">
     <g id="line2d_54">
      <g>
       <use xlink:href="#mf7c3b0b7fc" x="318.580469" y="238.593333" style="stroke: #000000; stroke-width: 0.8"/>
      </g>
     </g>
     <g id="text_22">
      <!-- $\mathdefault{10^{-1}}$ -->
      <g transform="translate(290.780469 242.293333) scale(0.1 -0.1)">
       <use xlink:href="#IBMPlexSans-31" transform="translate(0 0.026563)"/>
       <use xlink:href="#IBMPlexSans-30" transform="translate(59.999985 0.026563)"/>
       <use xlink:href="#IBMPlexSans-2212" transform="translate(120.90286 36.142188) scale(0.7)"/>
       <use xlink:href="#IBMPlexSans-31" transform="translate(162.902849 36.142188) scale(0.7)"/>
      </g>
     </g>
    </g>
    <g id="ytick_11">
     <g id="line2d_55">
      <g>
       <use xlink:href="#mf7c3b0b7fc" x="318.580469" y="186.50962" style="stroke: #000000; stroke-width: 0.8"/>
      </g>
     </g>
     <g id="text_23">
      <!-- $\mathdefault{10^{0}}$ -->
      <g transform="translate(294.980469 190.20962) scale(0.1 -0.1)">
       <use xlink:href="#IBMPlexSans-31" transform="translate(0 0.184375)"/>
       <use xlink:href="#IBMPlexSans-30" transform="translate(59.999985 0.184375)"/>
       <use xlink:href="#IBMPlexSans-30" transform="translate(120.90286 36.3) scale(0.7)"/>
      </g>
     </g>
    </g>
    <g id="ytick_12">
     <g id="line2d_56">
      <defs>
       <path id="m32e478e110" d="M 0 0 
L -2 0 
" style="stroke: #000000; stroke-width: 0.6"/>
      </defs>
      <g>
       <use xlink:href="#m32e478e110" x="318.580469" y="274.998286" style="stroke: #000000; stroke-width: 0.6"/>
      </g>
     </g>
    </g>
    <g id="ytick_13">
     <g id="line2d_57">
      <g>
       <use xlink:href="#m32e478e110" x="318.580469" y="265.826799" style="stroke: #000000; stroke-width: 0.6"/>
      </g>
     </g>
    </g>
    <g id="ytick_14">
     <g id="line2d_58">
      <g>
       <use xlink:href="#m32e478e110" x="318.580469" y="259.319526" style="stroke: #000000; stroke-width: 0.6"/>
      </g>
     </g>
    </g>
    <g id="ytick_15">
     <g id="line2d_59">
      <g>
       <use xlink:href="#m32e478e110" x="318.580469" y="254.272093" style="stroke: #000000; stroke-width: 0.6"/>
      </g>
     </g>
    </g>
    <g id="ytick_16">
     <g id="line2d_60">
      <g>
       <use xlink:href="#m32e478e110" x="318.580469" y="250.14804" style="stroke: #000000; stroke-width: 0.6"/>
      </g>
     </g>
    </g>
    <g id="ytick_17">
     <g id="line2d_61">
      <g>
       <use xlink:href="#m32e478e110" x="318.580469" y="246.661202" style="stroke: #000000; stroke-width: 0.6"/>
      </g>
     </g>
    </g>
    <g id="ytick_18">
     <g id="line2d_62">
      <g>
       <use xlink:href="#m32e478e110" x="318.580469" y="243.640766" style="stroke: #000000; stroke-width: 0.6"/>
      </g>
     </g>
    </g>
    <g id="ytick_19">
     <g id="line2d_63">
      <g>
       <use xlink:href="#m32e478e110" x="318.580469" y="240.976553" style="stroke: #000000; stroke-width: 0.6"/>
      </g>
     </g>
    </g>
    <g id="ytick_20">
     <g id="line2d_64">
      <g>
       <use xlink:href="#m32e478e110" x="318.580469" y="222.914573" style="stroke: #000000; stroke-width: 0.6"/>
      </g>
     </g>
    </g>
    <g id="ytick_21">
     <g id="line2d_65">
      <g>
       <use xlink:href="#m32e478e110" x="318.580469" y="213.743087" style="stroke: #000000; stroke-width: 0.6"/>
      </g>
     </g>
    </g>
    <g id="ytick_22">
     <g id="line2d_66">
      <g>
       <use xlink:href="#m32e478e110" x="318.580469" y="207.235813" style="stroke: #000000; stroke-width: 0.6"/>
      </g>
     </g>
    </g>
    <g id="ytick_23">
     <g id="line2d_67">
      <g>
       <use xlink:href="#m32e478e110" x="318.580469" y="202.18838" style="stroke: #000000; stroke-width: 0.6"/>
      </g>
     </g>
    </g>
    <g id="ytick_24">
     <g id="line2d_68">
      <g>
       <use xlink:href="#m32e478e110" x="318.580469" y="198.064327" style="stroke: #000000; stroke-width: 0.6"/>
      </g>
     </g>
    </g>
    <g id="ytick_25">
     <g id="line2d_69">
      <g>
       <use xlink:href="#m32e478e110" x="318.580469" y="194.577489" style="stroke: #000000; stroke-width: 0.6"/>
      </g>
     </g>
    </g>
    <g id="ytick_26">
     <g id="line2d_70">
      <g>
       <use xlink:href="#m32e478e110" x="318.580469" y="191.557054" style="stroke: #000000; stroke-width: 0.6"/>
      </g>
     </g>
    </g>
    <g id="ytick_27">
     <g id="line2d_71">
      <g>
       <use xlink:href="#m32e478e110" x="318.580469" y="188.89284" style="stroke: #000000; stroke-width: 0.6"/>
      </g>
     </g>
    </g>
    <g id="ytick_28">
     <g id="line2d_72">
      <g>
       <use xlink:href="#m32e478e110" x="318.580469" y="170.83086" style="stroke: #000000; stroke-width: 0.6"/>
      </g>
     </g>
    </g>
    <g id="ytick_29">
     <g id="line2d_73">
      <g>
       <use xlink:href="#m32e478e110" x="318.580469" y="161.659374" style="stroke: #000000; stroke-width: 0.6"/>
      </g>
     </g>
    </g>
    <g id="text_24">
     <!-- Hessian Eigenvalues -->
     <g transform="translate(284.660156 263.278666) rotate(-90) scale(0.1 -0.1)">
      <defs>
       <path id="IBMPlexSans-48" d="M 3392 0 
L 3930 0 
L 3930 4467 
L 3392 4467 
L 3392 2496 
L 1133 2496 
L 1133 4467 
L 595 4467 
L 595 0 
L 1133 0 
L 1133 2022 
L 3392 2022 
L 3392 0 
z
" transform="scale(0.015625)"/>
       <path id="IBMPlexSans-45" d="M 3322 0 
L 3322 474 
L 1133 474 
L 1133 2022 
L 3194 2022 
L 3194 2496 
L 1133 2496 
L 1133 3994 
L 3322 3994 
L 3322 4467 
L 595 4467 
L 595 0 
L 3322 0 
z
" transform="scale(0.015625)"/>
      </defs>
      <use xlink:href="#IBMPlexSans-48"/>
      <use xlink:href="#IBMPlexSans-65" transform="translate(70.699982 0)"/>
      <use xlink:href="#IBMPlexSans-73" transform="translate(125.599976 0)"/>
      <use xlink:href="#IBMPlexSans-73" transform="translate(174.299973 0)"/>
      <use xlink:href="#IBMPlexSans-69" transform="translate(222.999969 0)"/>
      <use xlink:href="#IBMPlexSans-61" transform="translate(247.999954 0)"/>
      <use xlink:href="#IBMPlexSans-6e" transform="translate(301.399948 0)"/>
      <use xlink:href="#IBMPlexSans-20" transform="translate(358.199936 0)"/>
      <use xlink:href="#IBMPlexSans-45" transform="translate(381.799927 0)"/>
      <use xlink:href="#IBMPlexSans-69" transform="translate(440.099915 0)"/>
      <use xlink:href="#IBMPlexSans-67" transform="translate(465.099899 0)"/>
      <use xlink:href="#IBMPlexSans-65" transform="translate(517.899887 0)"/>
      <use xlink:href="#IBMPlexSans-6e" transform="translate(572.799881 0)"/>
      <use xlink:href="#IBMPlexSans-76" transform="translate(629.599869 0)"/>
      <use xlink:href="#IBMPlexSans-61" transform="translate(678.799866 0)"/>
      <use xlink:href="#IBMPlexSans-6c" transform="translate(732.19986 0)"/>
      <use xlink:href="#IBMPlexSans-75" transform="translate(759.399857 0)"/>
      <use xlink:href="#IBMPlexSans-65" transform="translate(816.199844 0)"/>
      <use xlink:href="#IBMPlexSans-73" transform="translate(871.099838 0)"/>
     </g>
    </g>
   </g>
   <g id="line2d_74">
    <path d="M 328.699517 263.449705 
L 334.48183 262.210229 
L 340.264143 260.952402 
L 346.046456 259.718153 
L 351.828769 258.528018 
L 357.611082 257.384664 
L 363.393395 256.382059 
L 369.175708 255.5164 
L 374.958021 254.832749 
L 380.740334 254.340901 
L 386.522647 254.014624 
L 392.30496 253.826652 
L 398.087273 253.778602 
L 403.869586 253.856022 
L 409.651899 254.04374 
L 415.434212 254.320541 
L 421.216525 254.677057 
L 426.998838 255.112292 
L 432.781151 255.597323 
L 438.563464 256.131379 
L 444.345777 256.713723 
L 450.12809 257.363406 
L 455.910403 258.062458 
L 461.692716 258.804803 
L 467.475029 259.593488 
L 473.257342 260.409743 
L 479.039655 261.250485 
L 484.821968 262.114563 
L 490.604281 263.002846 
L 496.386594 263.912892 
L 502.168907 264.846845 
L 507.95122 265.809036 
L 513.733533 266.79581 
L 519.515846 267.806285 
L 525.298159 268.838337 
L 531.080472 269.889315 
" clip-path="url(#p5d3187180a)" style="fill: none; stroke: #9467bd; stroke-width: 1.5; stroke-linecap: square"/>
   </g>
   <g id="line2d_75">
    <path d="M 328.699517 210.570379 
L 334.48183 210.782628 
L 340.264143 210.979393 
L 346.046456 211.157604 
L 351.828769 211.301022 
L 357.611082 211.408212 
L 363.393395 211.493887 
L 369.175708 211.530885 
L 374.958021 211.537519 
L 380.740334 211.526385 
L 386.522647 211.487374 
L 392.30496 211.4192 
L 398.087273 211.33969 
L 403.869586 211.256432 
L 409.651899 211.16827 
L 415.434212 211.070716 
L 421.216525 210.966731 
L 426.998838 210.873873 
L 432.781151 210.766949 
L 438.563464 210.648405 
L 444.345777 210.516255 
L 450.12809 210.401851 
L 455.910403 210.285794 
L 461.692716 210.167733 
L 467.475029 210.07025 
L 473.257342 209.97177 
L 479.039655 209.869549 
L 484.821968 209.764416 
L 490.604281 209.658867 
L 496.386594 209.542709 
L 502.168907 209.419478 
L 507.95122 209.306429 
L 513.733533 209.194127 
L 519.515846 209.088417 
L 525.298159 208.993076 
L 531.080472 208.914205 
" clip-path="url(#p5d3187180a)" style="fill: none; stroke: #9467bd; stroke-width: 1.5; stroke-linecap: square"/>
   </g>
   <g id="line2d_76">
    <path d="M 328.699517 164.709966 
L 334.48183 164.698349 
L 340.264143 164.690168 
L 346.046456 164.685227 
L 351.828769 164.685205 
L 357.611082 164.690099 
L 363.393395 164.696284 
L 369.175708 164.706939 
L 374.958021 164.718633 
L 380.740334 164.729296 
L 386.522647 164.740486 
L 392.30496 164.75278 
L 398.087273 164.763841 
L 403.869586 164.772973 
L 409.651899 164.780647 
L 415.434212 164.787908 
L 421.216525 164.794623 
L 426.998838 164.798601 
L 432.781151 164.803726 
L 438.563464 164.809773 
L 444.345777 164.817097 
L 450.12809 164.82129 
L 455.910403 164.825293 
L 461.692716 164.829317 
L 467.475029 164.830317 
L 473.257342 164.831524 
L 479.039655 164.833385 
L 484.821968 164.835833 
L 490.604281 164.838537 
L 496.386594 164.842962 
L 502.168907 164.848628 
L 507.95122 164.853099 
L 513.733533 164.857746 
L 519.515846 164.861764 
L 525.298159 164.864638 
L 531.080472 164.865511 
" clip-path="url(#p5d3187180a)" style="fill: none; stroke: #9467bd; stroke-width: 1.5; stroke-linecap: square"/>
   </g>
   <g id="patch_13">
    <path d="M 318.580469 275.14952 
L 318.580469 159.425 
" style="fill: none; stroke: #000000; stroke-width: 0.8; stroke-linejoin: miter; stroke-linecap: square"/>
   </g>
   <g id="patch_14">
    <path d="M 318.580469 275.14952 
L 541.19952 275.14952 
" style="fill: none; stroke: #000000; stroke-width: 0.8; stroke-linejoin: miter; stroke-linecap: square"/>
   </g>
  </g>
 </g>
 <defs>
  <clipPath id="pca842fbf46">
   <rect x="48.640625" y="17.6" width="222.619051" height="115.72452"/>
  </clipPath>
  <clipPath id="p11029f831f">
   <rect x="318.580469" y="17.6" width="222.619051" height="115.72452"/>
  </clipPath>
  <clipPath id="p9731093668">
   <rect x="48.640625" y="159.425" width="222.619051" height="115.72452"/>
  </clipPath>
  <clipPath id="p5d3187180a">
   <rect x="318.580469" y="159.425" width="222.619051" height="115.72452"/>
  </clipPath>
 </defs>
</svg>