<?xml version="1.0" encoding="utf-8" standalone="no"?>
<!DOCTYPE svg PUBLIC "-//W3C//DTD SVG 1.1//EN"
  "http://www.w3.org/Graphics/SVG/1.1/DTD/svg11.dtd">
<svg xmlns:xlink="http://www.w3.org/1999/xlink" width="548.39952pt" height="312.14952pt" viewBox="0 0 548.39952 312.14952" xmlns="http://www.w3.org/2000/svg" version="1.1">
 <metadata>
  <rdf:RDF xmlns:dc="http://purl.org/dc/elements/1.1/" xmlns:cc="http://creativecommons.org/ns#" xmlns:rdf="http://www.w3.org/1999/02/22-rdf-syntax-ns#">
   <cc:Work>
    <dc:type rdf:resource="http://purl.org/dc/dcmitype/StillImage"/>
    <dc:date>2026-01-27T08:27:21.774813</dc:date>
    <dc:format>image/svg+xml</dc:format>
    <dc:creator>
     <cc:Agent>
      <dc:title>Matplotlib v3.10.7, https://matplotlib.org/</dc:title>
     </cc:Agent>
    </dc:creator>
   </cc:Work>
  </rdf:RDF>
 </metadata>
 <defs>
  <style type="text/css">*{stroke-linejoin: round; stroke-linecap: butt}</style>
 </defs>
 <g id="figure_1">
  <g id="patch_1">
   <path d="M 0 312.14952 
L 548.39952 312.14952 
L 548.39952 0 
L 0 0 
z
" style="fill: #ffffff"/>
  </g>
  <g id="axes_1">
   <g id="patch_2">
    <path d="M 48.640625 128.02452 
L 271.259676 128.02452 
L 271.259676 7.2 
L 48.640625 7.2 
z
" style="fill: #ffffff"/>
   </g>
   <g id="matplotlib.axis_1">
    <g id="xtick_1">
     <g id="line2d_1">
      <defs>
       <path id="mcfe95b885e" d="M 0 0 
L 0 3.5 
" style="stroke: #000000; stroke-width: 0.8"/>
      </defs>
      <g>
       <use xlink:href="#mcfe95b885e" x="135.053352" y="128.02452" style="stroke: #000000; stroke-width: 0.8"/>
      </g>
     </g>
     <g id="text_1">
      <!-- $\mathdefault{10^{-1}}$ -->
      <g transform="translate(124.653352 142.42452) scale(0.1 -0.1)">
       <defs>
        <path id="IBMPlexSans-31" d="M 3501 0 
L 3501 474 
L 2349 474 
L 2349 4467 
L 1510 4467 
L 326 3360 
L 640 3021 
L 1766 4070 
L 1811 4070 
L 1811 474 
L 563 474 
L 563 0 
L 3501 0 
z
" transform="scale(0.015625)"/>
        <path id="IBMPlexSans-30" d="M 1920 -77 
C 2989 -77 3456 774 3456 2234 
C 3456 3693 2989 4544 1920 4544 
C 851 4544 384 3693 384 2234 
C 384 774 851 -77 1920 -77 
z
M 1920 390 
C 1222 390 947 1005 947 1869 
L 947 2598 
C 947 3462 1222 4077 1920 4077 
C 2618 4077 2893 3462 2893 2598 
L 2893 1869 
C 2893 1005 2618 390 1920 390 
z
" transform="scale(0.015625)"/>
        <path id="IBMPlexSans-2212" d="M 3411 1734 
L 3411 2170 
L 429 2170 
L 429 1734 
L 3411 1734 
z
" transform="scale(0.015625)"/>
       </defs>
       <use xlink:href="#IBMPlexSans-31" transform="translate(0 0.026563)"/>
       <use xlink:href="#IBMPlexSans-30" transform="translate(59.999985 0.026563)"/>
       <use xlink:href="#IBMPlexSans-2212" transform="translate(120.90286 36.142188) scale(0.7)"/>
       <use xlink:href="#IBMPlexSans-31" transform="translate(162.902849 36.142188) scale(0.7)"/>
      </g>
     </g>
    </g>
    <g id="xtick_2">
     <g id="line2d_2">
      <g>
       <use xlink:href="#mcfe95b885e" x="261.426063" y="128.02452" style="stroke: #000000; stroke-width: 0.8"/>
      </g>
     </g>
     <g id="text_2">
      <!-- $\mathdefault{10^{0}}$ -->
      <g transform="translate(253.126063 142.42452) scale(0.1 -0.1)">
       <use xlink:href="#IBMPlexSans-31" transform="translate(0 0.184375)"/>
       <use xlink:href="#IBMPlexSans-30" transform="translate(59.999985 0.184375)"/>
       <use xlink:href="#IBMPlexSans-30" transform="translate(120.90286 36.3) scale(0.7)"/>
      </g>
     </g>
    </g>
    <g id="xtick_3">
     <g id="line2d_3">
      <defs>
       <path id="m5204d962d0" d="M 0 0 
L 0 2 
" style="stroke: #000000; stroke-width: 0.6"/>
      </defs>
      <g>
       <use xlink:href="#m5204d962d0" x="68.975747" y="128.02452" style="stroke: #000000; stroke-width: 0.6"/>
      </g>
     </g>
    </g>
    <g id="xtick_4">
     <g id="line2d_4">
      <g>
       <use xlink:href="#m5204d962d0" x="84.764594" y="128.02452" style="stroke: #000000; stroke-width: 0.6"/>
      </g>
     </g>
    </g>
    <g id="xtick_5">
     <g id="line2d_5">
      <g>
       <use xlink:href="#m5204d962d0" x="97.011375" y="128.02452" style="stroke: #000000; stroke-width: 0.6"/>
      </g>
     </g>
    </g>
    <g id="xtick_6">
     <g id="line2d_6">
      <g>
       <use xlink:href="#m5204d962d0" x="107.017724" y="128.02452" style="stroke: #000000; stroke-width: 0.6"/>
      </g>
     </g>
    </g>
    <g id="xtick_7">
     <g id="line2d_7">
      <g>
       <use xlink:href="#m5204d962d0" x="115.477971" y="128.02452" style="stroke: #000000; stroke-width: 0.6"/>
      </g>
     </g>
    </g>
    <g id="xtick_8">
     <g id="line2d_8">
      <g>
       <use xlink:href="#m5204d962d0" x="122.806571" y="128.02452" style="stroke: #000000; stroke-width: 0.6"/>
      </g>
     </g>
    </g>
    <g id="xtick_9">
     <g id="line2d_9">
      <g>
       <use xlink:href="#m5204d962d0" x="129.270853" y="128.02452" style="stroke: #000000; stroke-width: 0.6"/>
      </g>
     </g>
    </g>
    <g id="xtick_10">
     <g id="line2d_10">
      <g>
       <use xlink:href="#m5204d962d0" x="173.095328" y="128.02452" style="stroke: #000000; stroke-width: 0.6"/>
      </g>
     </g>
    </g>
    <g id="xtick_11">
     <g id="line2d_11">
      <g>
       <use xlink:href="#m5204d962d0" x="195.348458" y="128.02452" style="stroke: #000000; stroke-width: 0.6"/>
      </g>
     </g>
    </g>
    <g id="xtick_12">
     <g id="line2d_12">
      <g>
       <use xlink:href="#m5204d962d0" x="211.137305" y="128.02452" style="stroke: #000000; stroke-width: 0.6"/>
      </g>
     </g>
    </g>
    <g id="xtick_13">
     <g id="line2d_13">
      <g>
       <use xlink:href="#m5204d962d0" x="223.384086" y="128.02452" style="stroke: #000000; stroke-width: 0.6"/>
      </g>
     </g>
    </g>
    <g id="xtick_14">
     <g id="line2d_14">
      <g>
       <use xlink:href="#m5204d962d0" x="233.390435" y="128.02452" style="stroke: #000000; stroke-width: 0.6"/>
      </g>
     </g>
    </g>
    <g id="xtick_15">
     <g id="line2d_15">
      <g>
       <use xlink:href="#m5204d962d0" x="241.850682" y="128.02452" style="stroke: #000000; stroke-width: 0.6"/>
      </g>
     </g>
    </g>
    <g id="xtick_16">
     <g id="line2d_16">
      <g>
       <use xlink:href="#m5204d962d0" x="249.179281" y="128.02452" style="stroke: #000000; stroke-width: 0.6"/>
      </g>
     </g>
    </g>
    <g id="xtick_17">
     <g id="line2d_17">
      <g>
       <use xlink:href="#m5204d962d0" x="255.643564" y="128.02452" style="stroke: #000000; stroke-width: 0.6"/>
      </g>
     </g>
    </g>
   </g>
   <g id="matplotlib.axis_2">
    <g id="ytick_1">
     <g id="line2d_18">
      <defs>
       <path id="mda5185ba15" d="M 0 0 
L -3.5 0 
" style="stroke: #000000; stroke-width: 0.8"/>
      </defs>
      <g>
       <use xlink:href="#mda5185ba15" x="48.640625" y="122.532496" style="stroke: #000000; stroke-width: 0.8"/>
      </g>
     </g>
     <g id="text_3">
      <!-- 0.00 -->
      <g transform="translate(20.920313 126.232496) scale(0.1 -0.1)">
       <defs>
        <path id="IBMPlexSans-2e" d="M 870 -77 
C 1139 -77 1261 77 1261 294 
L 1261 378 
C 1261 595 1139 749 870 749 
C 602 749 480 595 480 378 
L 480 294 
C 480 77 602 -77 870 -77 
z
" transform="scale(0.015625)"/>
       </defs>
       <use xlink:href="#IBMPlexSans-30"/>
       <use xlink:href="#IBMPlexSans-2e" transform="translate(59.999985 0)"/>
       <use xlink:href="#IBMPlexSans-30" transform="translate(87.199982 0)"/>
       <use xlink:href="#IBMPlexSans-30" transform="translate(147.199966 0)"/>
      </g>
     </g>
    </g>
    <g id="ytick_2">
     <g id="line2d_19">
      <g>
       <use xlink:href="#mda5185ba15" x="48.640625" y="96.928028" style="stroke: #000000; stroke-width: 0.8"/>
      </g>
     </g>
     <g id="text_4">
      <!-- 0.05 -->
      <g transform="translate(20.920313 100.628028) scale(0.1 -0.1)">
       <defs>
        <path id="IBMPlexSans-35" d="M 3187 4467 
L 794 4467 
L 634 2010 
L 1088 1946 
C 1274 2150 1478 2323 1888 2323 
C 2496 2323 2822 1984 2822 1395 
L 2822 1331 
C 2822 742 2496 403 1888 403 
C 1350 403 1126 640 896 992 
L 493 685 
C 762 301 1146 -77 1888 -77 
C 2829 -77 3392 531 3392 1402 
C 3392 2266 2829 2784 2061 2784 
C 1594 2784 1357 2592 1146 2291 
L 1101 2291 
L 1229 3994 
L 3187 3994 
L 3187 4467 
z
" transform="scale(0.015625)"/>
       </defs>
       <use xlink:href="#IBMPlexSans-30"/>
       <use xlink:href="#IBMPlexSans-2e" transform="translate(59.999985 0)"/>
       <use xlink:href="#IBMPlexSans-30" transform="translate(87.199982 0)"/>
       <use xlink:href="#IBMPlexSans-35" transform="translate(147.199966 0)"/>
      </g>
     </g>
    </g>
    <g id="ytick_3">
     <g id="line2d_20">
      <g>
       <use xlink:href="#mda5185ba15" x="48.640625" y="71.32356" style="stroke: #000000; stroke-width: 0.8"/>
      </g>
     </g>
     <g id="text_5">
      <!-- 0.10 -->
      <g transform="translate(20.920313 75.02356) scale(0.1 -0.1)">
       <use xlink:href="#IBMPlexSans-30"/>
       <use xlink:href="#IBMPlexSans-2e" transform="translate(59.999985 0)"/>
       <use xlink:href="#IBMPlexSans-31" transform="translate(87.199982 0)"/>
       <use xlink:href="#IBMPlexSans-30" transform="translate(147.199966 0)"/>
      </g>
     </g>
    </g>
    <g id="ytick_4">
     <g id="line2d_21">
      <g>
       <use xlink:href="#mda5185ba15" x="48.640625" y="45.719092" style="stroke: #000000; stroke-width: 0.8"/>
      </g>
     </g>
     <g id="text_6">
      <!-- 0.15 -->
      <g transform="translate(20.920313 49.419092) scale(0.1 -0.1)">
       <use xlink:href="#IBMPlexSans-30"/>
       <use xlink:href="#IBMPlexSans-2e" transform="translate(59.999985 0)"/>
       <use xlink:href="#IBMPlexSans-31" transform="translate(87.199982 0)"/>
       <use xlink:href="#IBMPlexSans-35" transform="translate(147.199966 0)"/>
      </g>
     </g>
    </g>
    <g id="ytick_5">
     <g id="line2d_22">
      <g>
       <use xlink:href="#mda5185ba15" x="48.640625" y="20.114623" style="stroke: #000000; stroke-width: 0.8"/>
      </g>
     </g>
     <g id="text_7">
      <!-- 0.20 -->
      <g transform="translate(20.920313 23.814623) scale(0.1 -0.1)">
       <defs>
        <path id="IBMPlexSans-32" d="M 3411 474 
L 1062 474 
L 2266 1555 
C 2835 2067 3245 2554 3245 3245 
C 3245 4006 2746 4544 1875 4544 
C 1011 4544 614 4019 442 3494 
L 922 3309 
C 1043 3731 1299 4064 1850 4064 
C 2400 4064 2675 3725 2675 3232 
L 2675 3155 
C 2675 2726 2355 2278 1939 1894 
L 480 550 
L 480 0 
L 3411 0 
L 3411 474 
z
" transform="scale(0.015625)"/>
       </defs>
       <use xlink:href="#IBMPlexSans-30"/>
       <use xlink:href="#IBMPlexSans-2e" transform="translate(59.999985 0)"/>
       <use xlink:href="#IBMPlexSans-32" transform="translate(87.199982 0)"/>
       <use xlink:href="#IBMPlexSans-30" transform="translate(147.199966 0)"/>
      </g>
     </g>
    </g>
    <g id="text_8">
     <!-- cv2l(125%) weight -->
     <g transform="translate(14.8 110.181791) rotate(-90) scale(0.1 -0.1)">
      <defs>
       <path id="IBMPlexSans-63" d="M 1773 -77 
C 2400 -77 2829 230 3040 704 
L 2669 954 
C 2490 576 2189 378 1773 378 
C 1165 378 851 794 851 1370 
L 851 1933 
C 851 2509 1165 2925 1773 2925 
C 2176 2925 2458 2726 2579 2387 
L 3008 2605 
C 2816 3059 2426 3379 1773 3379 
C 845 3379 301 2707 301 1651 
C 301 595 845 -77 1773 -77 
z
" transform="scale(0.015625)"/>
       <path id="IBMPlexSans-76" d="M 1869 0 
L 3034 3302 
L 2541 3302 
L 1952 1664 
L 1594 538 
L 1562 538 
L 1203 1664 
L 627 3302 
L 115 3302 
L 1274 0 
L 1869 0 
z
" transform="scale(0.015625)"/>
       <path id="IBMPlexSans-6c" d="M 1542 0 
L 1542 448 
L 1056 448 
L 1056 4736 
L 544 4736 
L 544 531 
C 544 224 736 0 1088 0 
L 1542 0 
z
" transform="scale(0.015625)"/>
       <path id="IBMPlexSans-28" d="M 531 1997 
C 531 749 1056 -339 1690 -877 
L 2176 -877 
C 1485 -262 1011 819 1011 1715 
L 1011 2266 
C 1011 3162 1466 4224 2176 4864 
L 1690 4864 
C 1037 4307 531 3232 531 1997 
z
" transform="scale(0.015625)"/>
       <path id="IBMPlexSans-25" d="M 1664 0 
L 4762 4467 
L 4269 4467 
L 1171 0 
L 1664 0 
z
M 1427 2010 
C 2074 2010 2438 2458 2438 3277 
C 2438 4096 2074 4544 1427 4544 
C 781 4544 416 4096 416 3277 
C 416 2458 781 2010 1427 2010 
z
M 1427 2342 
C 1056 2342 877 2598 877 3085 
L 877 3469 
C 877 3955 1056 4211 1427 4211 
C 1798 4211 1978 3955 1978 3469 
L 1978 3085 
C 1978 2598 1798 2342 1427 2342 
z
M 4506 -77 
C 5152 -77 5517 371 5517 1190 
C 5517 2010 5152 2458 4506 2458 
C 3859 2458 3494 2010 3494 1190 
C 3494 371 3859 -77 4506 -77 
z
M 4506 256 
C 4134 256 3955 512 3955 998 
L 3955 1382 
C 3955 1869 4134 2125 4506 2125 
C 4877 2125 5056 1869 5056 1382 
L 5056 998 
C 5056 512 4877 256 4506 256 
z
" transform="scale(0.015625)"/>
       <path id="IBMPlexSans-29" d="M 1613 1997 
C 1613 3232 1107 4307 454 4864 
L -32 4864 
C 678 4224 1133 3162 1133 2266 
L 1133 1715 
C 1133 819 659 -262 -32 -877 
L 454 -877 
C 1088 -339 1613 749 1613 1997 
z
" transform="scale(0.015625)"/>
       <path id="IBMPlexSans-20" transform="scale(0.015625)"/>
       <path id="IBMPlexSans-77" d="M 1082 0 
L 1702 0 
L 2163 1587 
L 2445 2592 
L 2458 2592 
L 2746 1587 
L 3206 0 
L 3840 0 
L 4717 3302 
L 4237 3302 
L 3878 1875 
L 3539 429 
L 3526 429 
L 3117 1875 
L 2688 3302 
L 2234 3302 
L 1818 1875 
L 1414 429 
L 1402 429 
L 1050 1875 
L 698 3302 
L 198 3302 
L 1082 0 
z
" transform="scale(0.015625)"/>
       <path id="IBMPlexSans-65" d="M 1786 -77 
C 2406 -77 2880 230 3091 678 
L 2726 941 
C 2554 576 2234 371 1818 371 
C 1203 371 838 800 838 1370 
L 838 1523 
L 3213 1523 
L 3213 1766 
C 3213 2701 2669 3379 1786 3379 
C 890 3379 301 2701 301 1651 
C 301 602 890 -77 1786 -77 
z
M 1786 2950 
C 2310 2950 2662 2560 2662 1978 
L 2662 1907 
L 838 1907 
L 838 1952 
C 838 2528 1229 2950 1786 2950 
z
" transform="scale(0.015625)"/>
       <path id="IBMPlexSans-69" d="M 800 4077 
C 1018 4077 1114 4192 1114 4365 
L 1114 4448 
C 1114 4621 1018 4736 800 4736 
C 582 4736 486 4621 486 4448 
L 486 4365 
C 486 4192 582 4077 800 4077 
z
M 544 0 
L 1056 0 
L 1056 3302 
L 544 3302 
L 544 0 
z
" transform="scale(0.015625)"/>
       <path id="IBMPlexSans-67" d="M 3328 -365 
C 3328 179 2976 512 2157 512 
L 1453 512 
C 1152 512 947 563 947 762 
C 947 966 1165 1075 1382 1133 
C 1478 1114 1594 1101 1702 1101 
C 2458 1101 2950 1568 2950 2240 
C 2950 2592 2810 2886 2573 3091 
L 2573 3302 
L 3200 3302 
L 3200 3750 
L 2707 3750 
C 2432 3750 2323 3565 2323 3309 
L 2323 3251 
C 2144 3334 1933 3379 1696 3379 
C 947 3379 454 2912 454 2240 
C 454 1779 685 1414 1075 1229 
L 1075 1203 
C 742 1120 506 960 506 627 
C 506 403 614 256 800 166 
L 800 96 
C 474 6 275 -186 275 -544 
C 275 -1062 698 -1357 1728 -1357 
C 2790 -1357 3328 -1043 3328 -365 
z
M 2848 -403 
C 2848 -762 2515 -941 1946 -941 
L 1472 -941 
C 954 -941 755 -704 755 -416 
C 755 -211 851 -64 1062 32 
L 2163 32 
C 2675 32 2848 -141 2848 -403 
z
M 1702 1510 
C 1267 1510 992 1715 992 2150 
L 992 2330 
C 992 2765 1267 2970 1702 2970 
C 2138 2970 2413 2765 2413 2330 
L 2413 2150 
C 2413 1715 2138 1510 1702 1510 
z
" transform="scale(0.015625)"/>
       <path id="IBMPlexSans-68" d="M 544 0 
L 1056 0 
L 1056 2291 
C 1056 2714 1453 2918 1862 2918 
C 2355 2918 2611 2618 2611 2029 
L 2611 0 
L 3123 0 
L 3123 2118 
C 3123 2918 2694 3379 2016 3379 
C 1523 3379 1242 3136 1082 2765 
L 1056 2765 
L 1056 4736 
L 544 4736 
L 544 0 
z
" transform="scale(0.015625)"/>
       <path id="IBMPlexSans-74" d="M 1914 0 
L 1914 448 
L 1242 448 
L 1242 2854 
L 1965 2854 
L 1965 3302 
L 1242 3302 
L 1242 4218 
L 781 4218 
L 781 3603 
C 781 3379 710 3302 493 3302 
L 186 3302 
L 186 2854 
L 730 2854 
L 730 544 
C 730 224 922 0 1274 0 
L 1914 0 
z
" transform="scale(0.015625)"/>
      </defs>
      <use xlink:href="#IBMPlexSans-63"/>
      <use xlink:href="#IBMPlexSans-76" transform="translate(50.299988 0)"/>
      <use xlink:href="#IBMPlexSans-32" transform="translate(99.499985 0)"/>
      <use xlink:href="#IBMPlexSans-6c" transform="translate(159.499969 0)"/>
      <use xlink:href="#IBMPlexSans-28" transform="translate(186.699966 0)"/>
      <use xlink:href="#IBMPlexSans-31" transform="translate(220.199951 0)"/>
      <use xlink:href="#IBMPlexSans-32" transform="translate(280.199936 0)"/>
      <use xlink:href="#IBMPlexSans-35" transform="translate(340.199921 0)"/>
      <use xlink:href="#IBMPlexSans-25" transform="translate(400.199905 0)"/>
      <use xlink:href="#IBMPlexSans-29" transform="translate(492.899887 0)"/>
      <use xlink:href="#IBMPlexSans-20" transform="translate(526.399872 0)"/>
      <use xlink:href="#IBMPlexSans-77" transform="translate(549.999863 0)"/>
      <use xlink:href="#IBMPlexSans-65" transform="translate(626.79985 0)"/>
      <use xlink:href="#IBMPlexSans-69" transform="translate(681.699844 0)"/>
      <use xlink:href="#IBMPlexSans-67" transform="translate(706.699829 0)"/>
      <use xlink:href="#IBMPlexSans-68" transform="translate(759.499817 0)"/>
      <use xlink:href="#IBMPlexSans-74" transform="translate(816.299805 0)"/>
     </g>
    </g>
   </g>
   <g id="line2d_23">
    <path d="M 58.759673 122.532496 
L 62.189858 122.532495 
L 65.620044 122.532495 
L 69.05023 122.532494 
L 72.480416 122.532495 
L 75.910601 122.532495 
L 79.340787 122.532495 
L 82.770973 122.532495 
L 86.201158 122.532496 
L 89.631344 122.532496 
L 93.06153 122.532496 
L 96.491715 122.532496 
L 99.921901 122.532496 
L 103.352087 122.532496 
L 106.782272 122.532496 
L 110.212458 122.532496 
L 113.642644 122.532496 
L 117.07283 122.532496 
L 120.503015 122.532496 
L 123.933201 122.532496 
L 127.363387 122.532496 
L 130.793572 122.532496 
L 134.223758 122.532496 
L 137.653944 122.532496 
L 141.084129 122.532496 
L 144.514315 122.532496 
L 147.944501 122.532496 
L 151.374686 122.532496 
L 154.804872 122.532496 
L 195.9671 122.267969 
L 199.397286 122.071778 
L 202.827472 121.674296 
L 206.257657 120.983232 
L 209.687843 119.956548 
L 213.118029 118.489806 
L 216.548215 116.237232 
L 219.9784 113.430502 
L 223.408586 112.22534 
L 226.838772 111.24067 
L 230.268957 111.352219 
L 233.699143 112.151322 
L 237.129329 111.375129 
L 240.559514 107.075269 
L 243.9897 95.173248 
L 247.419886 67.446878 
L 250.850071 29.710433 
L 254.280257 12.692024 
L 257.710443 37.767034 
L 261.140628 75.239647 
" clip-path="url(#pa34c57bc69)" style="fill: none; stroke: #ff7f0e; stroke-width: 1.5; stroke-linecap: square"/>
   </g>
   <g id="patch_3">
    <path d="M 48.640625 128.02452 
L 48.640625 7.2 
" style="fill: none; stroke: #000000; stroke-width: 0.8; stroke-linejoin: miter; stroke-linecap: square"/>
   </g>
   <g id="patch_4">
    <path d="M 48.640625 128.02452 
L 271.259676 128.02452 
" style="fill: none; stroke: #000000; stroke-width: 0.8; stroke-linejoin: miter; stroke-linecap: square"/>
   </g>
  </g>
  <g id="axes_2">
   <g id="patch_5">
    <path d="M 318.580469 128.02452 
L 541.19952 128.02452 
L 541.19952 7.2 
L 318.580469 7.2 
z
" style="fill: #ffffff"/>
   </g>
   <g id="FillBetweenPolyCollection_1">
    <defs>
     <path id="m5c44151872" d="M 328.699517 -295.54759 
L 328.699517 -197.153131 
L 332.129702 -197.436815 
L 335.559888 -197.765375 
L 338.990074 -198.126043 
L 342.420259 -198.401182 
L 345.850445 -198.861017 
L 349.280631 -199.367961 
L 352.710816 -199.762669 
L 356.141002 -199.943264 
L 359.571188 -199.897185 
L 363.001373 -199.618683 
L 366.431559 -199.129021 
L 369.861745 -198.465036 
L 373.29193 -197.710627 
L 376.722116 -196.934383 
L 380.152302 -196.18583 
L 383.582488 -195.509394 
L 387.012673 -194.957926 
L 390.442859 -194.489312 
L 393.873045 -194.102651 
L 397.30323 -193.710172 
L 400.733416 -193.275209 
L 404.163602 -192.797173 
L 407.593787 -192.291003 
L 411.023973 -191.789738 
L 414.454159 -191.288552 
L 417.884344 -190.773897 
L 421.31453 -190.216742 
L 424.744716 -189.617024 
L 465.906944 -195.882114 
L 469.33713 -203.232 
L 472.767315 -203.758029 
L 476.197501 -204.064959 
L 479.627687 -204.080899 
L 483.057873 -204.238294 
L 486.488058 -204.526777 
L 489.918244 -204.81267 
L 493.34843 -204.654395 
L 496.778615 -204.543311 
L 500.208801 -204.433646 
L 503.638987 -204.241713 
L 507.069172 -204.015174 
L 510.499358 -203.717357 
L 513.929544 -203.352684 
L 517.359729 -203.060414 
L 520.789915 -202.834351 
L 524.220101 -202.739742 
L 527.650287 -202.765303 
L 531.080472 -202.907787 
L 531.080472 -223.598805 
L 531.080472 -223.598805 
L 527.650287 -223.731115 
L 524.220101 -223.979069 
L 520.789915 -224.347674 
L 517.359729 -224.854404 
L 513.929544 -225.445365 
L 510.499358 -226.136712 
L 507.069172 -226.801615 
L 503.638987 -227.429662 
L 500.208801 -228.045275 
L 496.778615 -228.588938 
L 493.34843 -229.120562 
L 489.918244 -229.672657 
L 486.488058 -230.019086 
L 483.057873 -230.483465 
L 479.627687 -231.208123 
L 476.197501 -232.209239 
L 472.767315 -233.727502 
L 469.33713 -235.775209 
L 465.906944 -244.720283 
L 424.744716 -299.457496 
L 421.31453 -299.390768 
L 417.884344 -299.316717 
L 414.454159 -299.240711 
L 411.023973 -299.158363 
L 407.593787 -299.065626 
L 404.163602 -298.955672 
L 400.733416 -298.836244 
L 397.30323 -298.71635 
L 393.873045 -298.611724 
L 390.442859 -298.526282 
L 387.012673 -298.422365 
L 383.582488 -298.29495 
L 380.152302 -298.087665 
L 376.722116 -297.794526 
L 373.29193 -297.398002 
L 369.861745 -296.87837 
L 366.431559 -296.237147 
L 363.001373 -295.541546 
L 359.571188 -294.837327 
L 356.141002 -294.195602 
L 352.710816 -293.693008 
L 349.280631 -293.488819 
L 345.850445 -293.5492 
L 342.420259 -293.763643 
L 338.990074 -294.005732 
L 335.559888 -294.805888 
L 332.129702 -295.541096 
L 328.699517 -295.54759 
z
"/>
    </defs>
    <g clip-path="url(#pac1f270fc3)">
     <use xlink:href="#m5c44151872" x="0" y="312.14952" style="fill: #d62728; fill-opacity: 0.3"/>
    </g>
   </g>
   <g id="PathCollection_1">
    <defs>
     <path id="C0_0_6de87bd3f8" d="M 0 2.738613 
C 0.726289 2.738613 1.422928 2.450055 1.936492 1.936492 
C 2.450055 1.422928 2.738613 0.726289 2.738613 -0 
C 2.738613 -0.726289 2.450055 -1.422928 1.936492 -1.936492 
C 1.422928 -2.450055 0.726289 -2.738613 0 -2.738613 
C -0.726289 -2.738613 -1.422928 -2.450055 -1.936492 -1.936492 
C -2.450055 -1.422928 -2.738613 -0.726289 -2.738613 0 
C -2.738613 0.726289 -2.450055 1.422928 -1.936492 1.936492 
C -1.422928 2.450055 -0.726289 2.738613 0 2.738613 
z
"/>
    </defs>
    <g clip-path="url(#pac1f270fc3)">
     <use xlink:href="#C0_0_6de87bd3f8" x="476.197501" y="94.012421" style="fill: #fefefe"/>
    </g>
    <g clip-path="url(#pac1f270fc3)">
     <use xlink:href="#C0_0_6de87bd3f8" x="479.627687" y="94.505009" style="fill: #fcfcfc"/>
    </g>
    <g clip-path="url(#pac1f270fc3)">
     <use xlink:href="#C0_0_6de87bd3f8" x="483.057873" y="94.78864" style="fill: #fbfbfb"/>
    </g>
    <g clip-path="url(#pac1f270fc3)">
     <use xlink:href="#C0_0_6de87bd3f8" x="486.488058" y="94.876589" style="fill: #f8f8f8"/>
    </g>
    <g clip-path="url(#pac1f270fc3)">
     <use xlink:href="#C0_0_6de87bd3f8" x="489.918244" y="94.906856" style="fill: #f5f5f5"/>
    </g>
    <g clip-path="url(#pac1f270fc3)">
     <use xlink:href="#C0_0_6de87bd3f8" x="493.34843" y="95.262041" style="fill: #f4f4f4"/>
    </g>
    <g clip-path="url(#pac1f270fc3)">
     <use xlink:href="#C0_0_6de87bd3f8" x="496.778615" y="95.583396" style="fill: #f3f3f3"/>
    </g>
    <g clip-path="url(#pac1f270fc3)">
     <use xlink:href="#C0_0_6de87bd3f8" x="500.208801" y="95.91006" style="fill: #f3f3f3"/>
    </g>
    <g clip-path="url(#pac1f270fc3)">
     <use xlink:href="#C0_0_6de87bd3f8" x="503.638987" y="96.313833" style="fill: #f4f4f4"/>
    </g>
    <g clip-path="url(#pac1f270fc3)">
     <use xlink:href="#C0_0_6de87bd3f8" x="507.069172" y="96.741125" style="fill: #f3f3f3"/>
    </g>
    <g clip-path="url(#pac1f270fc3)">
     <use xlink:href="#C0_0_6de87bd3f8" x="510.499358" y="97.222485" style="fill: #ededed"/>
    </g>
    <g clip-path="url(#pac1f270fc3)">
     <use xlink:href="#C0_0_6de87bd3f8" x="513.929544" y="97.750496" style="fill: #dadada"/>
    </g>
    <g clip-path="url(#pac1f270fc3)">
     <use xlink:href="#C0_0_6de87bd3f8" x="517.359729" y="98.192111" style="fill: #959595"/>
    </g>
    <g clip-path="url(#pac1f270fc3)">
     <use xlink:href="#C0_0_6de87bd3f8" x="520.789915" y="98.558508" style="fill: #2f2f2f"/>
    </g>
    <g clip-path="url(#pac1f270fc3)">
     <use xlink:href="#C0_0_6de87bd3f8" x="524.220101" y="98.790114"/>
    </g>
    <g clip-path="url(#pac1f270fc3)">
     <use xlink:href="#C0_0_6de87bd3f8" x="527.650287" y="98.901311" style="fill: #4a4a4a"/>
    </g>
    <g clip-path="url(#pac1f270fc3)">
     <use xlink:href="#C0_0_6de87bd3f8" x="531.080472" y="98.896224" style="fill: #ababab"/>
    </g>
   </g>
   <g id="matplotlib.axis_3">
    <g id="xtick_18">
     <g id="line2d_24">
      <g>
       <use xlink:href="#mcfe95b885e" x="404.993195" y="128.02452" style="stroke: #000000; stroke-width: 0.8"/>
      </g>
     </g>
     <g id="text_9">
      <!-- $\mathdefault{10^{-1}}$ -->
      <g transform="translate(394.593195 142.42452) scale(0.1 -0.1)">
       <use xlink:href="#IBMPlexSans-31" transform="translate(0 0.026563)"/>
       <use xlink:href="#IBMPlexSans-30" transform="translate(59.999985 0.026563)"/>
       <use xlink:href="#IBMPlexSans-2212" transform="translate(120.90286 36.142188) scale(0.7)"/>
       <use xlink:href="#IBMPlexSans-31" transform="translate(162.902849 36.142188) scale(0.7)"/>
      </g>
     </g>
    </g>
    <g id="xtick_19">
     <g id="line2d_25">
      <g>
       <use xlink:href="#mcfe95b885e" x="531.365906" y="128.02452" style="stroke: #000000; stroke-width: 0.8"/>
      </g>
     </g>
     <g id="text_10">
      <!-- $\mathdefault{10^{0}}$ -->
      <g transform="translate(523.065906 142.42452) scale(0.1 -0.1)">
       <use xlink:href="#IBMPlexSans-31" transform="translate(0 0.184375)"/>
       <use xlink:href="#IBMPlexSans-30" transform="translate(59.999985 0.184375)"/>
       <use xlink:href="#IBMPlexSans-30" transform="translate(120.90286 36.3) scale(0.7)"/>
      </g>
     </g>
    </g>
    <g id="xtick_20">
     <g id="line2d_26">
      <g>
       <use xlink:href="#m5204d962d0" x="338.915591" y="128.02452" style="stroke: #000000; stroke-width: 0.6"/>
      </g>
     </g>
    </g>
    <g id="xtick_21">
     <g id="line2d_27">
      <g>
       <use xlink:href="#m5204d962d0" x="354.704438" y="128.02452" style="stroke: #000000; stroke-width: 0.6"/>
      </g>
     </g>
    </g>
    <g id="xtick_22">
     <g id="line2d_28">
      <g>
       <use xlink:href="#m5204d962d0" x="366.951219" y="128.02452" style="stroke: #000000; stroke-width: 0.6"/>
      </g>
     </g>
    </g>
    <g id="xtick_23">
     <g id="line2d_29">
      <g>
       <use xlink:href="#m5204d962d0" x="376.957567" y="128.02452" style="stroke: #000000; stroke-width: 0.6"/>
      </g>
     </g>
    </g>
    <g id="xtick_24">
     <g id="line2d_30">
      <g>
       <use xlink:href="#m5204d962d0" x="385.417815" y="128.02452" style="stroke: #000000; stroke-width: 0.6"/>
      </g>
     </g>
    </g>
    <g id="xtick_25">
     <g id="line2d_31">
      <g>
       <use xlink:href="#m5204d962d0" x="392.746414" y="128.02452" style="stroke: #000000; stroke-width: 0.6"/>
      </g>
     </g>
    </g>
    <g id="xtick_26">
     <g id="line2d_32">
      <g>
       <use xlink:href="#m5204d962d0" x="399.210697" y="128.02452" style="stroke: #000000; stroke-width: 0.6"/>
      </g>
     </g>
    </g>
    <g id="xtick_27">
     <g id="line2d_33">
      <g>
       <use xlink:href="#m5204d962d0" x="443.035172" y="128.02452" style="stroke: #000000; stroke-width: 0.6"/>
      </g>
     </g>
    </g>
    <g id="xtick_28">
     <g id="line2d_34">
      <g>
       <use xlink:href="#m5204d962d0" x="465.288302" y="128.02452" style="stroke: #000000; stroke-width: 0.6"/>
      </g>
     </g>
    </g>
    <g id="xtick_29">
     <g id="line2d_35">
      <g>
       <use xlink:href="#m5204d962d0" x="481.077149" y="128.02452" style="stroke: #000000; stroke-width: 0.6"/>
      </g>
     </g>
    </g>
    <g id="xtick_30">
     <g id="line2d_36">
      <g>
       <use xlink:href="#m5204d962d0" x="493.32393" y="128.02452" style="stroke: #000000; stroke-width: 0.6"/>
      </g>
     </g>
    </g>
    <g id="xtick_31">
     <g id="line2d_37">
      <g>
       <use xlink:href="#m5204d962d0" x="503.330278" y="128.02452" style="stroke: #000000; stroke-width: 0.6"/>
      </g>
     </g>
    </g>
    <g id="xtick_32">
     <g id="line2d_38">
      <g>
       <use xlink:href="#m5204d962d0" x="511.790526" y="128.02452" style="stroke: #000000; stroke-width: 0.6"/>
      </g>
     </g>
    </g>
    <g id="xtick_33">
     <g id="line2d_39">
      <g>
       <use xlink:href="#m5204d962d0" x="519.119125" y="128.02452" style="stroke: #000000; stroke-width: 0.6"/>
      </g>
     </g>
    </g>
    <g id="xtick_34">
     <g id="line2d_40">
      <g>
       <use xlink:href="#m5204d962d0" x="525.583408" y="128.02452" style="stroke: #000000; stroke-width: 0.6"/>
      </g>
     </g>
    </g>
   </g>
   <g id="matplotlib.axis_4">
    <g id="ytick_6">
     <g id="line2d_41">
      <g>
       <use xlink:href="#mda5185ba15" x="318.580469" y="120.35466" style="stroke: #000000; stroke-width: 0.8"/>
      </g>
     </g>
     <g id="text_11">
      <!-- 345 -->
      <g transform="translate(293.580469 124.05466) scale(0.1 -0.1)">
       <defs>
        <path id="IBMPlexSans-33" d="M 1184 2573 
L 1184 2106 
L 1709 2106 
C 2336 2106 2669 1805 2669 1280 
L 2669 1229 
C 2669 704 2336 403 1709 403 
C 1165 403 902 640 672 992 
L 269 685 
C 544 301 941 -77 1715 -77 
C 2624 -77 3232 454 3232 1222 
C 3232 1894 2771 2253 2291 2349 
L 2291 2374 
C 2765 2496 3149 2842 3149 3418 
C 3149 4141 2547 4544 1792 4544 
C 1075 4544 685 4173 461 3814 
L 858 3507 
C 1043 3846 1318 4064 1779 4064 
C 2253 4064 2579 3827 2579 3360 
L 2579 3315 
C 2579 2886 2272 2573 1670 2573 
L 1184 2573 
z
" transform="scale(0.015625)"/>
        <path id="IBMPlexSans-34" d="M 2912 0 
L 2912 877 
L 3558 877 
L 3558 1325 
L 2912 1325 
L 2912 4467 
L 2112 4467 
L 243 1350 
L 243 877 
L 2400 877 
L 2400 0 
L 2912 0 
z
M 2368 4051 
L 2400 4051 
L 2400 1325 
L 749 1325 
L 2368 4051 
z
" transform="scale(0.015625)"/>
       </defs>
       <use xlink:href="#IBMPlexSans-33"/>
       <use xlink:href="#IBMPlexSans-34" transform="translate(59.999985 0)"/>
       <use xlink:href="#IBMPlexSans-35" transform="translate(119.999969 0)"/>
      </g>
     </g>
    </g>
    <g id="ytick_7">
     <g id="line2d_42">
      <g>
       <use xlink:href="#mda5185ba15" x="318.580469" y="97.623409" style="stroke: #000000; stroke-width: 0.8"/>
      </g>
     </g>
     <g id="text_12">
      <!-- 350 -->
      <g transform="translate(293.580469 101.323409) scale(0.1 -0.1)">
       <use xlink:href="#IBMPlexSans-33"/>
       <use xlink:href="#IBMPlexSans-35" transform="translate(59.999985 0)"/>
       <use xlink:href="#IBMPlexSans-30" transform="translate(119.999969 0)"/>
      </g>
     </g>
    </g>
    <g id="ytick_8">
     <g id="line2d_43">
      <g>
       <use xlink:href="#mda5185ba15" x="318.580469" y="74.892157" style="stroke: #000000; stroke-width: 0.8"/>
      </g>
     </g>
     <g id="text_13">
      <!-- 355 -->
      <g transform="translate(293.580469 78.592157) scale(0.1 -0.1)">
       <use xlink:href="#IBMPlexSans-33"/>
       <use xlink:href="#IBMPlexSans-35" transform="translate(59.999985 0)"/>
       <use xlink:href="#IBMPlexSans-35" transform="translate(119.999969 0)"/>
      </g>
     </g>
    </g>
    <g id="ytick_9">
     <g id="line2d_44">
      <g>
       <use xlink:href="#mda5185ba15" x="318.580469" y="52.160906" style="stroke: #000000; stroke-width: 0.8"/>
      </g>
     </g>
     <g id="text_14">
      <!-- 360 -->
      <g transform="translate(293.580469 55.860906) scale(0.1 -0.1)">
       <defs>
        <path id="IBMPlexSans-36" d="M 1926 -77 
C 2822 -77 3411 525 3411 1402 
C 3411 2246 2861 2778 2093 2778 
C 1549 2778 1229 2502 1018 2138 
L 986 2150 
C 1229 3187 1760 3770 2714 4467 
L 2022 4467 
C 1306 4000 429 2963 429 1638 
C 429 576 998 -77 1926 -77 
z
M 1920 390 
C 1331 390 986 730 986 1331 
L 986 1382 
C 986 1984 1331 2323 1920 2323 
C 2509 2323 2854 1984 2854 1382 
L 2854 1331 
C 2854 730 2509 390 1920 390 
z
" transform="scale(0.015625)"/>
       </defs>
       <use xlink:href="#IBMPlexSans-33"/>
       <use xlink:href="#IBMPlexSans-36" transform="translate(59.999985 0)"/>
       <use xlink:href="#IBMPlexSans-30" transform="translate(119.999969 0)"/>
      </g>
     </g>
    </g>
    <g id="ytick_10">
     <g id="line2d_45">
      <g>
       <use xlink:href="#mda5185ba15" x="318.580469" y="29.429654" style="stroke: #000000; stroke-width: 0.8"/>
      </g>
     </g>
     <g id="text_15">
      <!-- 365 -->
      <g transform="translate(293.580469 33.129654) scale(0.1 -0.1)">
       <use xlink:href="#IBMPlexSans-33"/>
       <use xlink:href="#IBMPlexSans-36" transform="translate(59.999985 0)"/>
       <use xlink:href="#IBMPlexSans-35" transform="translate(119.999969 0)"/>
      </g>
     </g>
    </g>
    <g id="text_16">
     <!-- $\sigma$ (95% CI) [S/m] -->
     <g transform="translate(287.580469 105.81226) rotate(-90) scale(0.1 -0.1)">
      <defs>
       <path id="DejaVuSans-Oblique-3c3" d="M 2219 3044 
Q 1744 3044 1422 2700 
Q 1081 2341 969 1747 
Q 844 1119 1044 756 
Q 1241 397 1706 397 
Q 2166 397 2503 759 
Q 2844 1122 2966 1747 
Q 3075 2319 2881 2700 
Q 2700 3044 2219 3044 
z
M 2309 3503 
L 4219 3500 
L 4106 2925 
L 3463 2925 
Q 3706 2438 3575 1747 
Q 3406 888 2884 400 
Q 2359 -91 1609 -91 
Q 856 -91 525 400 
Q 194 888 363 1747 
Q 528 2609 1050 3097 
Q 1484 3503 2309 3503 
z
" transform="scale(0.015625)"/>
       <path id="IBMPlexSans-39" d="M 3411 2829 
C 3411 3891 2842 4544 1914 4544 
C 1018 4544 429 3942 429 3066 
C 429 2221 979 1690 1747 1690 
C 2291 1690 2611 1965 2822 2330 
L 2854 2317 
C 2611 1280 2080 698 1126 0 
L 1818 0 
C 2534 467 3411 1504 3411 2829 
z
M 1920 2144 
C 1331 2144 986 2483 986 3085 
L 986 3136 
C 986 3738 1331 4077 1920 4077 
C 2509 4077 2854 3738 2854 3136 
L 2854 3085 
C 2854 2483 2509 2144 1920 2144 
z
" transform="scale(0.015625)"/>
       <path id="IBMPlexSans-43" d="M 2170 -77 
C 2912 -77 3456 314 3738 941 
L 3309 1210 
C 3130 723 2739 403 2170 403 
C 1402 403 947 960 947 1875 
L 947 2541 
C 947 3456 1402 4064 2170 4064 
C 2720 4064 3091 3763 3270 3302 
L 3706 3565 
C 3424 4186 2912 4544 2170 4544 
C 1043 4544 371 3699 371 2208 
C 371 717 1043 -77 2170 -77 
z
" transform="scale(0.015625)"/>
       <path id="IBMPlexSans-49" d="M 2176 0 
L 2176 448 
L 1549 448 
L 1549 4019 
L 2176 4019 
L 2176 4467 
L 384 4467 
L 384 4019 
L 1011 4019 
L 1011 448 
L 384 448 
L 384 0 
L 2176 0 
z
" transform="scale(0.015625)"/>
       <path id="IBMPlexSans-5b" d="M 1645 -883 
L 1645 -480 
L 1037 -480 
L 1037 4461 
L 1645 4461 
L 1645 4864 
L 595 4864 
L 595 -883 
L 1645 -883 
z
" transform="scale(0.015625)"/>
       <path id="IBMPlexSans-53" d="M 1850 -77 
C 2810 -77 3386 448 3386 1267 
C 3386 1933 3008 2317 2138 2515 
L 1773 2598 
C 1210 2726 934 2918 934 3341 
C 934 3821 1286 4070 1856 4070 
C 2374 4070 2714 3859 2957 3520 
L 3360 3814 
C 3027 4288 2554 4544 1882 4544 
C 1005 4544 403 4115 403 3322 
C 403 2637 851 2278 1664 2093 
L 2029 2010 
C 2618 1875 2854 1664 2854 1242 
C 2854 730 2509 397 1869 397 
C 1350 397 979 621 666 1037 
L 269 704 
C 627 218 1133 -77 1850 -77 
z
" transform="scale(0.015625)"/>
       <path id="IBMPlexSans-2f" d="M 518 -966 
L 2189 4736 
L 1728 4736 
L 58 -966 
L 518 -966 
z
" transform="scale(0.015625)"/>
       <path id="IBMPlexSans-6d" d="M 1056 0 
L 1056 2291 
C 1056 2714 1440 2918 1843 2918 
C 2330 2918 2554 2618 2554 2029 
L 2554 0 
L 3066 0 
L 3066 2291 
C 3066 2714 3437 2918 3840 2918 
C 4339 2918 4563 2611 4563 2029 
L 4563 0 
L 5075 0 
L 5075 2118 
C 5075 2918 4672 3379 4000 3379 
C 3437 3379 3117 3066 2995 2707 
L 2982 2707 
C 2803 3181 2406 3379 1971 3379 
C 1459 3379 1229 3104 1082 2765 
L 1056 2765 
L 1056 3302 
L 544 3302 
L 544 0 
L 1056 0 
z
" transform="scale(0.015625)"/>
       <path id="IBMPlexSans-5d" d="M 384 4864 
L 384 4461 
L 992 4461 
L 992 -480 
L 384 -480 
L 384 -883 
L 1434 -883 
L 1434 4864 
L 384 4864 
z
" transform="scale(0.015625)"/>
      </defs>
      <use xlink:href="#DejaVuSans-Oblique-3c3"/>
      <use xlink:href="#IBMPlexSans-20" transform="translate(63.378906 0)"/>
      <use xlink:href="#IBMPlexSans-28" transform="translate(86.978897 0)"/>
      <use xlink:href="#IBMPlexSans-39" transform="translate(120.478882 0)"/>
      <use xlink:href="#IBMPlexSans-35" transform="translate(180.478867 0)"/>
      <use xlink:href="#IBMPlexSans-25" transform="translate(240.478851 0)"/>
      <use xlink:href="#IBMPlexSans-20" transform="translate(333.178833 0)"/>
      <use xlink:href="#IBMPlexSans-43" transform="translate(356.778824 0)"/>
      <use xlink:href="#IBMPlexSans-49" transform="translate(418.878815 0)"/>
      <use xlink:href="#IBMPlexSans-29" transform="translate(458.878799 0)"/>
      <use xlink:href="#IBMPlexSans-20" transform="translate(492.378784 0)"/>
      <use xlink:href="#IBMPlexSans-5b" transform="translate(515.978775 0)"/>
      <use xlink:href="#IBMPlexSans-53" transform="translate(547.678772 0)"/>
      <use xlink:href="#IBMPlexSans-2f" transform="translate(605.778763 0)"/>
      <use xlink:href="#IBMPlexSans-6d" transform="translate(644.078751 0)"/>
      <use xlink:href="#IBMPlexSans-5d" transform="translate(731.378738 0)"/>
     </g>
    </g>
   </g>
   <g id="line2d_46">
    <path d="M 328.699517 65.79916 
L 332.129702 65.660565 
L 335.559888 65.863888 
L 338.990074 66.083632 
L 342.420259 66.067107 
L 345.850445 65.944412 
L 349.280631 65.72113 
L 352.710816 65.421682 
L 356.141002 65.080087 
L 359.571188 64.782264 
L 363.001373 64.569406 
L 366.431559 64.466436 
L 369.861745 64.477817 
L 373.29193 64.595206 
L 376.722116 64.785066 
L 380.152302 65.012772 
L 383.582488 65.247348 
L 387.012673 65.459374 
L 390.442859 65.641723 
L 393.873045 65.792333 
L 397.30323 65.936259 
L 400.733416 66.093793 
L 404.163602 66.273097 
L 407.593787 66.471205 
L 411.023973 66.67547 
L 414.454159 66.884888 
L 417.884344 67.104213 
L 421.31453 67.345765 
L 424.744716 67.61226 
L 465.906944 91.848321 
L 469.33713 92.645916 
L 472.767315 93.406755 
L 476.197501 94.012421 
L 479.627687 94.505009 
L 483.057873 94.78864 
L 486.488058 94.876589 
L 489.918244 94.906856 
L 493.34843 95.262041 
L 496.778615 95.583396 
L 500.208801 95.91006 
L 503.638987 96.313833 
L 507.069172 96.741125 
L 510.499358 97.222485 
L 513.929544 97.750496 
L 517.359729 98.192111 
L 520.789915 98.558508 
L 524.220101 98.790114 
L 527.650287 98.901311 
L 531.080472 98.896224 
" clip-path="url(#pac1f270fc3)" style="fill: none; stroke: #d62728; stroke-width: 1.5; stroke-linecap: square"/>
   </g>
   <g id="patch_6">
    <path d="M 318.580469 128.02452 
L 318.580469 7.2 
" style="fill: none; stroke: #000000; stroke-width: 0.8; stroke-linejoin: miter; stroke-linecap: square"/>
   </g>
   <g id="patch_7">
    <path d="M 318.580469 128.02452 
L 541.19952 128.02452 
" style="fill: none; stroke: #000000; stroke-width: 0.8; stroke-linejoin: miter; stroke-linecap: square"/>
   </g>
  </g>
  <g id="axes_3">
   <g id="patch_8">
    <path d="M 48.640625 274.94952 
L 271.259676 274.94952 
L 271.259676 154.125 
L 48.640625 154.125 
z
" style="fill: #ffffff"/>
   </g>
   <g id="matplotlib.axis_5">
    <g id="xtick_35">
     <g id="line2d_47">
      <g>
       <use xlink:href="#mcfe95b885e" x="135.053352" y="274.94952" style="stroke: #000000; stroke-width: 0.8"/>
      </g>
     </g>
     <g id="text_17">
      <!-- $\mathdefault{10^{-1}}$ -->
      <g transform="translate(124.653352 289.34952) scale(0.1 -0.1)">
       <use xlink:href="#IBMPlexSans-31" transform="translate(0 0.026563)"/>
       <use xlink:href="#IBMPlexSans-30" transform="translate(59.999985 0.026563)"/>
       <use xlink:href="#IBMPlexSans-2212" transform="translate(120.90286 36.142188) scale(0.7)"/>
       <use xlink:href="#IBMPlexSans-31" transform="translate(162.902849 36.142188) scale(0.7)"/>
      </g>
     </g>
    </g>
    <g id="xtick_36">
     <g id="line2d_48">
      <g>
       <use xlink:href="#mcfe95b885e" x="261.426063" y="274.94952" style="stroke: #000000; stroke-width: 0.8"/>
      </g>
     </g>
     <g id="text_18">
      <!-- $\mathdefault{10^{0}}$ -->
      <g transform="translate(253.126063 289.34952) scale(0.1 -0.1)">
       <use xlink:href="#IBMPlexSans-31" transform="translate(0 0.184375)"/>
       <use xlink:href="#IBMPlexSans-30" transform="translate(59.999985 0.184375)"/>
       <use xlink:href="#IBMPlexSans-30" transform="translate(120.90286 36.3) scale(0.7)"/>
      </g>
     </g>
    </g>
    <g id="xtick_37">
     <g id="line2d_49">
      <g>
       <use xlink:href="#m5204d962d0" x="68.975747" y="274.94952" style="stroke: #000000; stroke-width: 0.6"/>
      </g>
     </g>
    </g>
    <g id="xtick_38">
     <g id="line2d_50">
      <g>
       <use xlink:href="#m5204d962d0" x="84.764594" y="274.94952" style="stroke: #000000; stroke-width: 0.6"/>
      </g>
     </g>
    </g>
    <g id="xtick_39">
     <g id="line2d_51">
      <g>
       <use xlink:href="#m5204d962d0" x="97.011375" y="274.94952" style="stroke: #000000; stroke-width: 0.6"/>
      </g>
     </g>
    </g>
    <g id="xtick_40">
     <g id="line2d_52">
      <g>
       <use xlink:href="#m5204d962d0" x="107.017724" y="274.94952" style="stroke: #000000; stroke-width: 0.6"/>
      </g>
     </g>
    </g>
    <g id="xtick_41">
     <g id="line2d_53">
      <g>
       <use xlink:href="#m5204d962d0" x="115.477971" y="274.94952" style="stroke: #000000; stroke-width: 0.6"/>
      </g>
     </g>
    </g>
    <g id="xtick_42">
     <g id="line2d_54">
      <g>
       <use xlink:href="#m5204d962d0" x="122.806571" y="274.94952" style="stroke: #000000; stroke-width: 0.6"/>
      </g>
     </g>
    </g>
    <g id="xtick_43">
     <g id="line2d_55">
      <g>
       <use xlink:href="#m5204d962d0" x="129.270853" y="274.94952" style="stroke: #000000; stroke-width: 0.6"/>
      </g>
     </g>
    </g>
    <g id="xtick_44">
     <g id="line2d_56">
      <g>
       <use xlink:href="#m5204d962d0" x="173.095328" y="274.94952" style="stroke: #000000; stroke-width: 0.6"/>
      </g>
     </g>
    </g>
    <g id="xtick_45">
     <g id="line2d_57">
      <g>
       <use xlink:href="#m5204d962d0" x="195.348458" y="274.94952" style="stroke: #000000; stroke-width: 0.6"/>
      </g>
     </g>
    </g>
    <g id="xtick_46">
     <g id="line2d_58">
      <g>
       <use xlink:href="#m5204d962d0" x="211.137305" y="274.94952" style="stroke: #000000; stroke-width: 0.6"/>
      </g>
     </g>
    </g>
    <g id="xtick_47">
     <g id="line2d_59">
      <g>
       <use xlink:href="#m5204d962d0" x="223.384086" y="274.94952" style="stroke: #000000; stroke-width: 0.6"/>
      </g>
     </g>
    </g>
    <g id="xtick_48">
     <g id="line2d_60">
      <g>
       <use xlink:href="#m5204d962d0" x="233.390435" y="274.94952" style="stroke: #000000; stroke-width: 0.6"/>
      </g>
     </g>
    </g>
    <g id="xtick_49">
     <g id="line2d_61">
      <g>
       <use xlink:href="#m5204d962d0" x="241.850682" y="274.94952" style="stroke: #000000; stroke-width: 0.6"/>
      </g>
     </g>
    </g>
    <g id="xtick_50">
     <g id="line2d_62">
      <g>
       <use xlink:href="#m5204d962d0" x="249.179281" y="274.94952" style="stroke: #000000; stroke-width: 0.6"/>
      </g>
     </g>
    </g>
    <g id="xtick_51">
     <g id="line2d_63">
      <g>
       <use xlink:href="#m5204d962d0" x="255.643564" y="274.94952" style="stroke: #000000; stroke-width: 0.6"/>
      </g>
     </g>
    </g>
    <g id="text_19">
     <!-- Cutoff frequency [THz] -->
     <g transform="translate(109.429057 302.94952) scale(0.1 -0.1)">
      <defs>
       <path id="IBMPlexSans-75" d="M 2579 0 
L 3091 0 
L 3091 3302 
L 2579 3302 
L 2579 1018 
C 2579 582 2182 384 1779 384 
C 1286 384 1024 685 1024 1274 
L 1024 3302 
L 512 3302 
L 512 1184 
C 512 384 947 -77 1626 -77 
C 2176 -77 2426 224 2554 538 
L 2579 538 
L 2579 0 
z
" transform="scale(0.015625)"/>
       <path id="IBMPlexSans-6f" d="M 1792 -77 
C 2675 -77 3283 602 3283 1651 
C 3283 2701 2675 3379 1792 3379 
C 909 3379 301 2701 301 1651 
C 301 602 909 -77 1792 -77 
z
M 1792 378 
C 1242 378 851 717 851 1414 
L 851 1888 
C 851 2586 1242 2925 1792 2925 
C 2342 2925 2733 2586 2733 1888 
L 2733 1414 
C 2733 717 2342 378 1792 378 
z
" transform="scale(0.015625)"/>
       <path id="IBMPlexSans-66" d="M 723 0 
L 1235 0 
L 1235 2854 
L 1946 2854 
L 1946 3302 
L 1235 3302 
L 1235 4288 
L 1946 4288 
L 1946 4736 
L 1446 4736 
C 960 4736 723 4422 723 3968 
L 723 3302 
L 186 3302 
L 186 2854 
L 723 2854 
L 723 0 
z
" transform="scale(0.015625)"/>
       <path id="IBMPlexSans-72" d="M 1056 0 
L 1056 2240 
C 1056 2554 1389 2790 1939 2790 
L 2240 2790 
L 2240 3302 
L 2042 3302 
C 1504 3302 1203 3008 1088 2694 
L 1056 2694 
L 1056 3302 
L 544 3302 
L 544 0 
L 1056 0 
z
" transform="scale(0.015625)"/>
       <path id="IBMPlexSans-71" d="M 2656 -1280 
L 3168 -1280 
L 3168 3302 
L 2656 3302 
L 2656 2765 
L 2630 2765 
C 2458 3181 2118 3379 1664 3379 
C 838 3379 320 2707 320 1651 
C 320 595 838 -77 1664 -77 
C 2118 -77 2432 128 2630 538 
L 2656 538 
L 2656 -1280 
z
M 1805 384 
C 1229 384 870 781 870 1370 
L 870 1933 
C 870 2522 1229 2918 1805 2918 
C 2272 2918 2656 2650 2656 2285 
L 2656 1056 
C 2656 627 2272 384 1805 384 
z
" transform="scale(0.015625)"/>
       <path id="IBMPlexSans-6e" d="M 1056 0 
L 1056 2291 
C 1056 2714 1453 2918 1862 2918 
C 2355 2918 2611 2618 2611 2029 
L 2611 0 
L 3123 0 
L 3123 2118 
C 3123 2918 2694 3379 2016 3379 
C 1523 3379 1242 3136 1082 2765 
L 1056 2765 
L 1056 3302 
L 544 3302 
L 544 0 
L 1056 0 
z
" transform="scale(0.015625)"/>
       <path id="IBMPlexSans-79" d="M 1779 1056 
L 1600 518 
L 1568 518 
L 1414 1056 
L 621 3302 
L 109 3302 
L 1344 -128 
L 1094 -832 
L 576 -832 
L 576 -1280 
L 838 -1280 
C 1325 -1280 1459 -1165 1606 -768 
L 3085 3302 
L 2579 3302 
L 1779 1056 
z
" transform="scale(0.015625)"/>
       <path id="IBMPlexSans-54" d="M 3520 3994 
L 3520 4467 
L 141 4467 
L 141 3994 
L 1562 3994 
L 1562 0 
L 2099 0 
L 2099 3994 
L 3520 3994 
z
" transform="scale(0.015625)"/>
       <path id="IBMPlexSans-48" d="M 3392 0 
L 3930 0 
L 3930 4467 
L 3392 4467 
L 3392 2496 
L 1133 2496 
L 1133 4467 
L 595 4467 
L 595 0 
L 1133 0 
L 1133 2022 
L 3392 2022 
L 3392 0 
z
" transform="scale(0.015625)"/>
       <path id="IBMPlexSans-7a" d="M 2758 0 
L 2758 448 
L 794 448 
L 2707 2918 
L 2707 3302 
L 269 3302 
L 269 2854 
L 2086 2854 
L 211 429 
L 211 0 
L 2758 0 
z
" transform="scale(0.015625)"/>
      </defs>
      <use xlink:href="#IBMPlexSans-43"/>
      <use xlink:href="#IBMPlexSans-75" transform="translate(62.099991 0)"/>
      <use xlink:href="#IBMPlexSans-74" transform="translate(118.899979 0)"/>
      <use xlink:href="#IBMPlexSans-6f" transform="translate(153.999969 0)"/>
      <use xlink:href="#IBMPlexSans-66" transform="translate(209.999954 0)"/>
      <use xlink:href="#IBMPlexSans-66" transform="translate(242.399948 0)"/>
      <use xlink:href="#IBMPlexSans-20" transform="translate(274.799942 0)"/>
      <use xlink:href="#IBMPlexSans-66" transform="translate(298.399933 0)"/>
      <use xlink:href="#IBMPlexSans-72" transform="translate(330.799927 0)"/>
      <use xlink:href="#IBMPlexSans-65" transform="translate(367.499924 0)"/>
      <use xlink:href="#IBMPlexSans-71" transform="translate(422.399918 0)"/>
      <use xlink:href="#IBMPlexSans-75" transform="translate(480.399902 0)"/>
      <use xlink:href="#IBMPlexSans-65" transform="translate(537.19989 0)"/>
      <use xlink:href="#IBMPlexSans-6e" transform="translate(592.099884 0)"/>
      <use xlink:href="#IBMPlexSans-63" transform="translate(648.899872 0)"/>
      <use xlink:href="#IBMPlexSans-79" transform="translate(699.19986 0)"/>
      <use xlink:href="#IBMPlexSans-20" transform="translate(749.099854 0)"/>
      <use xlink:href="#IBMPlexSans-5b" transform="translate(772.699844 0)"/>
      <use xlink:href="#IBMPlexSans-54" transform="translate(804.399841 0)"/>
      <use xlink:href="#IBMPlexSans-48" transform="translate(861.599838 0)"/>
      <use xlink:href="#IBMPlexSans-7a" transform="translate(932.29982 0)"/>
      <use xlink:href="#IBMPlexSans-5d" transform="translate(978.699814 0)"/>
     </g>
    </g>
   </g>
   <g id="matplotlib.axis_6">
    <g id="ytick_11">
     <g id="line2d_64">
      <g>
       <use xlink:href="#mda5185ba15" x="48.640625" y="270.302423" style="stroke: #000000; stroke-width: 0.8"/>
      </g>
     </g>
     <g id="text_20">
      <!-- −1 -->
      <g transform="translate(29.640625 274.002423) scale(0.1 -0.1)">
       <use xlink:href="#IBMPlexSans-2212"/>
       <use xlink:href="#IBMPlexSans-31" transform="translate(59.999985 0)"/>
      </g>
     </g>
    </g>
    <g id="ytick_12">
     <g id="line2d_65">
      <g>
       <use xlink:href="#mda5185ba15" x="48.640625" y="247.066938" style="stroke: #000000; stroke-width: 0.8"/>
      </g>
     </g>
     <g id="text_21">
      <!-- 0 -->
      <g transform="translate(35.640625 250.766938) scale(0.1 -0.1)">
       <use xlink:href="#IBMPlexSans-30"/>
      </g>
     </g>
    </g>
    <g id="ytick_13">
     <g id="line2d_66">
      <g>
       <use xlink:href="#mda5185ba15" x="48.640625" y="223.831454" style="stroke: #000000; stroke-width: 0.8"/>
      </g>
     </g>
     <g id="text_22">
      <!-- 1 -->
      <g transform="translate(35.640625 227.531454) scale(0.1 -0.1)">
       <use xlink:href="#IBMPlexSans-31"/>
      </g>
     </g>
    </g>
    <g id="ytick_14">
     <g id="line2d_67">
      <g>
       <use xlink:href="#mda5185ba15" x="48.640625" y="200.595969" style="stroke: #000000; stroke-width: 0.8"/>
      </g>
     </g>
     <g id="text_23">
      <!-- 2 -->
      <g transform="translate(35.640625 204.295969) scale(0.1 -0.1)">
       <use xlink:href="#IBMPlexSans-32"/>
      </g>
     </g>
    </g>
    <g id="ytick_15">
     <g id="line2d_68">
      <g>
       <use xlink:href="#mda5185ba15" x="48.640625" y="177.360485" style="stroke: #000000; stroke-width: 0.8"/>
      </g>
     </g>
     <g id="text_24">
      <!-- 3 -->
      <g transform="translate(35.640625 181.060485) scale(0.1 -0.1)">
       <use xlink:href="#IBMPlexSans-33"/>
      </g>
     </g>
    </g>
    <g id="ytick_16">
     <g id="line2d_69">
      <g>
       <use xlink:href="#mda5185ba15" x="48.640625" y="154.125" style="stroke: #000000; stroke-width: 0.8"/>
      </g>
     </g>
     <g id="text_25">
      <!-- 4 -->
      <g transform="translate(35.640625 157.825) scale(0.1 -0.1)">
       <use xlink:href="#IBMPlexSans-34"/>
      </g>
     </g>
    </g>
    <g id="text_26">
     <!-- Z-score -->
     <g transform="translate(23.640625 231.763041) rotate(-90) scale(0.1 -0.1)">
      <defs>
       <path id="IBMPlexSans-5a" d="M 3482 474 
L 806 474 
L 3392 3981 
L 3392 4467 
L 365 4467 
L 365 3994 
L 2810 3994 
L 230 486 
L 230 0 
L 3482 0 
L 3482 474 
z
" transform="scale(0.015625)"/>
       <path id="IBMPlexSans-2d" d="M 2112 1670 
L 2112 2221 
L 442 2221 
L 442 1670 
L 2112 1670 
z
" transform="scale(0.015625)"/>
       <path id="IBMPlexSans-73" d="M 1536 -77 
C 2291 -77 2758 314 2758 954 
C 2758 1453 2477 1773 1747 1882 
L 1491 1920 
C 1082 1984 858 2112 858 2432 
C 858 2746 1082 2944 1504 2944 
C 1926 2944 2208 2746 2355 2541 
L 2694 2848 
C 2426 3181 2074 3379 1542 3379 
C 870 3379 365 3059 365 2406 
C 365 1792 819 1542 1427 1453 
L 1690 1414 
C 2125 1350 2266 1152 2266 896 
C 2266 557 2010 358 1574 358 
C 1158 358 851 544 595 864 
L 230 570 
C 525 179 928 -77 1536 -77 
z
" transform="scale(0.015625)"/>
      </defs>
      <use xlink:href="#IBMPlexSans-5a"/>
      <use xlink:href="#IBMPlexSans-2d" transform="translate(57.999985 0)"/>
      <use xlink:href="#IBMPlexSans-73" transform="translate(97.899979 0)"/>
      <use xlink:href="#IBMPlexSans-63" transform="translate(146.599976 0)"/>
      <use xlink:href="#IBMPlexSans-6f" transform="translate(196.899963 0)"/>
      <use xlink:href="#IBMPlexSans-72" transform="translate(252.899948 0)"/>
      <use xlink:href="#IBMPlexSans-65" transform="translate(289.599945 0)"/>
     </g>
    </g>
   </g>
   <g id="line2d_70">
    <path d="M 58.759673 218.442574 
L 62.189858 218.2068 
L 65.620044 217.863253 
L 69.05023 217.45928 
L 72.480416 217.11176 
L 75.910601 216.988824 
L 79.340787 217.230964 
L 82.770973 217.851317 
L 86.201158 218.76939 
L 89.631344 219.905342 
L 93.06153 221.177755 
L 96.491715 222.574572 
L 99.921901 224.086925 
L 103.352087 225.719835 
L 106.782272 227.389135 
L 110.212458 229.066019 
L 113.642644 230.65868 
L 117.07283 232.187463 
L 120.503015 233.735525 
L 123.933201 235.425554 
L 127.363387 237.216654 
L 130.793572 239.002666 
L 134.223758 240.658453 
L 137.653944 242.112377 
L 141.084129 243.379768 
L 144.514315 244.501415 
L 147.944501 245.537755 
L 151.374686 246.535356 
L 154.804872 247.530659 
L 195.9671 257.019392 
L 199.397286 259.192132 
L 202.827472 261.046937 
L 206.257657 262.293335 
L 209.687843 262.816589 
L 213.118029 262.67035 
L 216.548215 262.094359 
L 219.9784 261.409696 
L 223.408586 260.866152 
L 226.838772 260.65494 
L 230.268957 260.833348 
L 233.699143 261.210496 
L 237.129329 261.587142 
L 240.559514 261.765256 
L 243.9897 261.567263 
L 247.419886 260.973435 
L 250.850071 259.989299 
L 254.280257 258.748893 
L 257.710443 257.54049 
L 261.140628 256.636345 
" clip-path="url(#pd2e5903366)" style="fill: none; stroke: #1f77b4; stroke-width: 1.5; stroke-linecap: square"/>
   </g>
   <g id="line2d_71">
    <path d="M 58.759673 269.004242 
L 62.189858 268.892066 
L 65.620044 268.556654 
L 69.05023 268.146746 
L 72.480416 267.574712 
L 75.910601 266.585735 
L 79.340787 265.103779 
L 82.770973 263.801972 
L 86.201158 262.73607 
L 89.631344 262.166709 
L 93.06153 263.099855 
L 96.491715 264.269128 
L 99.921901 265.461182 
L 103.352087 266.200641 
L 106.782272 266.115723 
L 110.212458 265.361204 
L 113.642644 264.371282 
L 117.07283 263.490795 
L 120.503015 262.637921 
L 123.933201 261.567124 
L 127.363387 260.138467 
L 130.793572 258.593715 
L 134.223758 257.152603 
L 137.653944 256.06672 
L 141.084129 255.699325 
L 144.514315 256.022518 
L 147.944501 256.814557 
L 151.374686 257.513032 
L 154.804872 257.715576 
L 195.9671 241.246759 
L 199.397286 242.056897 
L 202.827472 244.478131 
L 206.257657 246.640441 
L 209.687843 247.503552 
L 213.118029 247.545041 
L 216.548215 247.692194 
L 219.9784 247.884364 
L 223.408586 247.061809 
L 226.838772 244.874476 
L 230.268957 240.361218 
L 233.699143 234.777418 
L 237.129329 231.820004 
L 240.559514 233.919686 
L 243.9897 241.025504 
L 247.419886 250.499972 
L 250.850071 256.667278 
L 254.280257 256.010069 
L 257.710443 247.16777 
L 261.140628 232.113552 
" clip-path="url(#pd2e5903366)" style="fill: none; stroke: #2ca02c; stroke-width: 1.5; stroke-linecap: square"/>
   </g>
   <g id="line2d_72">
    <path d="M 48.640625 247.066938 
L 271.259676 247.066938 
" clip-path="url(#pd2e5903366)" style="fill: none; stroke-dasharray: 5.55,2.4; stroke-dashoffset: 0; stroke: #000000; stroke-width: 1.5"/>
   </g>
   <g id="line2d_73">
    <path d="M 48.640625 200.595969 
L 271.259676 200.595969 
" clip-path="url(#pd2e5903366)" style="fill: none; stroke-dasharray: 5.55,2.4; stroke-dashoffset: 0; stroke: #000000; stroke-width: 1.5"/>
   </g>
   <g id="patch_9">
    <path d="M 48.640625 274.94952 
L 48.640625 154.125 
" style="fill: none; stroke: #000000; stroke-width: 0.8; stroke-linejoin: miter; stroke-linecap: square"/>
   </g>
   <g id="patch_10">
    <path d="M 48.640625 274.94952 
L 271.259676 274.94952 
" style="fill: none; stroke: #000000; stroke-width: 0.8; stroke-linejoin: miter; stroke-linecap: square"/>
   </g>
   <g id="legend_1">
    <g id="patch_11">
     <path d="M 193.429989 190.925 
L 264.259676 190.925 
Q 266.259676 190.925 266.259676 188.925 
L 266.259676 161.125 
Q 266.259676 159.125 264.259676 159.125 
L 193.429989 159.125 
Q 191.429989 159.125 191.429989 161.125 
L 191.429989 188.925 
Q 191.429989 190.925 193.429989 190.925 
z
" style="fill: #ffffff; opacity: 0.8; stroke: #cccccc; stroke-linejoin: miter"/>
    </g>
    <g id="line2d_74">
     <path d="M 195.429989 167.025 
L 205.429989 167.025 
L 215.429989 167.025 
" style="fill: none; stroke: #1f77b4; stroke-width: 1.5; stroke-linecap: square"/>
    </g>
    <g id="text_27">
     <!-- Cost -->
     <g transform="translate(223.429989 170.525) scale(0.1 -0.1)">
      <use xlink:href="#IBMPlexSans-43"/>
      <use xlink:href="#IBMPlexSans-6f" transform="translate(62.099991 0)"/>
      <use xlink:href="#IBMPlexSans-73" transform="translate(118.099976 0)"/>
      <use xlink:href="#IBMPlexSans-74" transform="translate(166.799973 0)"/>
     </g>
    </g>
    <g id="line2d_75">
     <path d="M 195.429989 181.425 
L 205.429989 181.425 
L 215.429989 181.425 
" style="fill: none; stroke: #2ca02c; stroke-width: 1.5; stroke-linecap: square"/>
    </g>
    <g id="text_28">
     <!-- Criterion -->
     <g transform="translate(223.429989 184.925) scale(0.1 -0.1)">
      <use xlink:href="#IBMPlexSans-43"/>
      <use xlink:href="#IBMPlexSans-72" transform="translate(62.099991 0)"/>
      <use xlink:href="#IBMPlexSans-69" transform="translate(98.799988 0)"/>
      <use xlink:href="#IBMPlexSans-74" transform="translate(123.799973 0)"/>
      <use xlink:href="#IBMPlexSans-65" transform="translate(158.899963 0)"/>
      <use xlink:href="#IBMPlexSans-72" transform="translate(213.799957 0)"/>
      <use xlink:href="#IBMPlexSans-69" transform="translate(250.499954 0)"/>
      <use xlink:href="#IBMPlexSans-6f" transform="translate(275.499939 0)"/>
      <use xlink:href="#IBMPlexSans-6e" transform="translate(331.499924 0)"/>
     </g>
    </g>
   </g>
  </g>
  <g id="axes_4">
   <g id="patch_12">
    <path d="M 318.580469 274.94952 
L 541.19952 274.94952 
L 541.19952 154.125 
L 318.580469 154.125 
z
" style="fill: #ffffff"/>
   </g>
   <g id="PathCollection_2">
    <defs>
     <path id="C1_0_a04bec93d8" d="M 0 2.738613 
C 0.726289 2.738613 1.422928 2.450055 1.936492 1.936492 
C 2.450055 1.422928 2.738613 0.726289 2.738613 -0 
C 2.738613 -0.726289 2.450055 -1.422928 1.936492 -1.936492 
C 1.422928 -2.450055 0.726289 -2.738613 0 -2.738613 
C -0.726289 -2.738613 -1.422928 -2.450055 -1.936492 -1.936492 
C -2.450055 -1.422928 -2.738613 -0.726289 -2.738613 0 
C -2.738613 0.726289 -2.450055 1.422928 -1.936492 1.936492 
C -1.422928 2.450055 -0.726289 2.738613 0 2.738613 
z
"/>
    </defs>
    <g clip-path="url(#pec5c4211de)">
     <use xlink:href="#C1_0_a04bec93d8" x="476.197501" y="233.693133" style="fill: #fefefe"/>
    </g>
    <g clip-path="url(#pec5c4211de)">
     <use xlink:href="#C1_0_a04bec93d8" x="479.627687" y="229.76363" style="fill: #fcfcfc"/>
    </g>
    <g clip-path="url(#pec5c4211de)">
     <use xlink:href="#C1_0_a04bec93d8" x="483.057873" y="226.465625" style="fill: #fbfbfb"/>
    </g>
    <g clip-path="url(#pec5c4211de)">
     <use xlink:href="#C1_0_a04bec93d8" x="486.488058" y="223.889498" style="fill: #f8f8f8"/>
    </g>
    <g clip-path="url(#pec5c4211de)">
     <use xlink:href="#C1_0_a04bec93d8" x="489.918244" y="222.104766" style="fill: #f5f5f5"/>
    </g>
    <g clip-path="url(#pec5c4211de)">
     <use xlink:href="#C1_0_a04bec93d8" x="493.34843" y="221.713562" style="fill: #f4f4f4"/>
    </g>
    <g clip-path="url(#pec5c4211de)">
     <use xlink:href="#C1_0_a04bec93d8" x="496.778615" y="221.19845" style="fill: #f3f3f3"/>
    </g>
    <g clip-path="url(#pec5c4211de)">
     <use xlink:href="#C1_0_a04bec93d8" x="500.208801" y="220.599253" style="fill: #f3f3f3"/>
    </g>
    <g clip-path="url(#pec5c4211de)">
     <use xlink:href="#C1_0_a04bec93d8" x="503.638987" y="220.019095" style="fill: #f4f4f4"/>
    </g>
    <g clip-path="url(#pec5c4211de)">
     <use xlink:href="#C1_0_a04bec93d8" x="507.069172" y="219.463499" style="fill: #f3f3f3"/>
    </g>
    <g clip-path="url(#pec5c4211de)">
     <use xlink:href="#C1_0_a04bec93d8" x="510.499358" y="218.997009" style="fill: #ededed"/>
    </g>
    <g clip-path="url(#pec5c4211de)">
     <use xlink:href="#C1_0_a04bec93d8" x="513.929544" y="218.655196" style="fill: #dadada"/>
    </g>
    <g clip-path="url(#pec5c4211de)">
     <use xlink:href="#C1_0_a04bec93d8" x="517.359729" y="218.370276" style="fill: #959595"/>
    </g>
    <g clip-path="url(#pec5c4211de)">
     <use xlink:href="#C1_0_a04bec93d8" x="520.789915" y="218.131693" style="fill: #2f2f2f"/>
    </g>
    <g clip-path="url(#pec5c4211de)">
     <use xlink:href="#C1_0_a04bec93d8" x="524.220101" y="217.898304"/>
    </g>
    <g clip-path="url(#pec5c4211de)">
     <use xlink:href="#C1_0_a04bec93d8" x="527.650287" y="217.656044" style="fill: #4a4a4a"/>
    </g>
    <g clip-path="url(#pec5c4211de)">
     <use xlink:href="#C1_0_a04bec93d8" x="531.080472" y="217.400188" style="fill: #ababab"/>
    </g>
   </g>
   <g id="PathCollection_3">
    <defs>
     <path id="C2_0_d9008c447f" d="M 0 2.738613 
C 0.726289 2.738613 1.422928 2.450055 1.936492 1.936492 
C 2.450055 1.422928 2.738613 0.726289 2.738613 -0 
C 2.738613 -0.726289 2.450055 -1.422928 1.936492 -1.936492 
C 1.422928 -2.450055 0.726289 -2.738613 0 -2.738613 
C -0.726289 -2.738613 -1.422928 -2.450055 -1.936492 -1.936492 
C -2.450055 -1.422928 -2.738613 -0.726289 -2.738613 0 
C -2.738613 0.726289 -2.450055 1.422928 -1.936492 1.936492 
C -1.422928 2.450055 -0.726289 2.738613 0 2.738613 
z
"/>
    </defs>
    <g clip-path="url(#pec5c4211de)">
     <use xlink:href="#C2_0_d9008c447f" x="476.197501" y="173.505523" style="fill: #fefefe"/>
    </g>
    <g clip-path="url(#pec5c4211de)">
     <use xlink:href="#C2_0_d9008c447f" x="479.627687" y="173.490326" style="fill: #fcfcfc"/>
    </g>
    <g clip-path="url(#pec5c4211de)">
     <use xlink:href="#C2_0_d9008c447f" x="483.057873" y="173.474809" style="fill: #fbfbfb"/>
    </g>
    <g clip-path="url(#pec5c4211de)">
     <use xlink:href="#C2_0_d9008c447f" x="486.488058" y="173.458648" style="fill: #f8f8f8"/>
    </g>
    <g clip-path="url(#pec5c4211de)">
     <use xlink:href="#C2_0_d9008c447f" x="489.918244" y="173.439961" style="fill: #f5f5f5"/>
    </g>
    <g clip-path="url(#pec5c4211de)">
     <use xlink:href="#C2_0_d9008c447f" x="493.34843" y="173.414916" style="fill: #f4f4f4"/>
    </g>
    <g clip-path="url(#pec5c4211de)">
     <use xlink:href="#C2_0_d9008c447f" x="496.778615" y="173.383368" style="fill: #f3f3f3"/>
    </g>
    <g clip-path="url(#pec5c4211de)">
     <use xlink:href="#C2_0_d9008c447f" x="500.208801" y="173.345507" style="fill: #f3f3f3"/>
    </g>
    <g clip-path="url(#pec5c4211de)">
     <use xlink:href="#C2_0_d9008c447f" x="503.638987" y="173.299765" style="fill: #f4f4f4"/>
    </g>
    <g clip-path="url(#pec5c4211de)">
     <use xlink:href="#C2_0_d9008c447f" x="507.069172" y="173.247296" style="fill: #f3f3f3"/>
    </g>
    <g clip-path="url(#pec5c4211de)">
     <use xlink:href="#C2_0_d9008c447f" x="510.499358" y="173.185741" style="fill: #ededed"/>
    </g>
    <g clip-path="url(#pec5c4211de)">
     <use xlink:href="#C2_0_d9008c447f" x="513.929544" y="173.114152" style="fill: #dadada"/>
    </g>
    <g clip-path="url(#pec5c4211de)">
     <use xlink:href="#C2_0_d9008c447f" x="517.359729" y="173.035613" style="fill: #959595"/>
    </g>
    <g clip-path="url(#pec5c4211de)">
     <use xlink:href="#C2_0_d9008c447f" x="520.789915" y="172.949636" style="fill: #2f2f2f"/>
    </g>
    <g clip-path="url(#pec5c4211de)">
     <use xlink:href="#C2_0_d9008c447f" x="524.220101" y="172.85934"/>
    </g>
    <g clip-path="url(#pec5c4211de)">
     <use xlink:href="#C2_0_d9008c447f" x="527.650287" y="172.765127" style="fill: #4a4a4a"/>
    </g>
    <g clip-path="url(#pec5c4211de)">
     <use xlink:href="#C2_0_d9008c447f" x="531.080472" y="172.667591" style="fill: #ababab"/>
    </g>
   </g>
   <g id="PathCollection_4">
    <defs>
     <path id="C3_0_922844f1a8" d="M 0 2.738613 
C 0.726289 2.738613 1.422928 2.450055 1.936492 1.936492 
C 2.450055 1.422928 2.738613 0.726289 2.738613 -0 
C 2.738613 -0.726289 2.450055 -1.422928 1.936492 -1.936492 
C 1.422928 -2.450055 0.726289 -2.738613 0 -2.738613 
C -0.726289 -2.738613 -1.422928 -2.450055 -1.936492 -1.936492 
C -2.450055 -1.422928 -2.738613 -0.726289 -2.738613 0 
C -2.738613 0.726289 -2.450055 1.422928 -1.936492 1.936492 
C -1.422928 2.450055 -0.726289 2.738613 0 2.738613 
z
"/>
    </defs>
    <g clip-path="url(#pec5c4211de)">
     <use xlink:href="#C3_0_922844f1a8" x="476.197501" y="159.670553" style="fill: #fefefe"/>
    </g>
    <g clip-path="url(#pec5c4211de)">
     <use xlink:href="#C3_0_922844f1a8" x="479.627687" y="159.673694" style="fill: #fcfcfc"/>
    </g>
    <g clip-path="url(#pec5c4211de)">
     <use xlink:href="#C3_0_922844f1a8" x="483.057873" y="159.677047" style="fill: #fbfbfb"/>
    </g>
    <g clip-path="url(#pec5c4211de)">
     <use xlink:href="#C3_0_922844f1a8" x="486.488058" y="159.680598" style="fill: #f8f8f8"/>
    </g>
    <g clip-path="url(#pec5c4211de)">
     <use xlink:href="#C3_0_922844f1a8" x="489.918244" y="159.684542" style="fill: #f5f5f5"/>
    </g>
    <g clip-path="url(#pec5c4211de)">
     <use xlink:href="#C3_0_922844f1a8" x="493.34843" y="159.689157" style="fill: #f4f4f4"/>
    </g>
    <g clip-path="url(#pec5c4211de)">
     <use xlink:href="#C3_0_922844f1a8" x="496.778615" y="159.695016" style="fill: #f3f3f3"/>
    </g>
    <g clip-path="url(#pec5c4211de)">
     <use xlink:href="#C3_0_922844f1a8" x="500.208801" y="159.702094" style="fill: #f3f3f3"/>
    </g>
    <g clip-path="url(#pec5c4211de)">
     <use xlink:href="#C3_0_922844f1a8" x="503.638987" y="159.710651" style="fill: #f4f4f4"/>
    </g>
    <g clip-path="url(#pec5c4211de)">
     <use xlink:href="#C3_0_922844f1a8" x="507.069172" y="159.720502" style="fill: #f3f3f3"/>
    </g>
    <g clip-path="url(#pec5c4211de)">
     <use xlink:href="#C3_0_922844f1a8" x="510.499358" y="159.732073" style="fill: #ededed"/>
    </g>
    <g clip-path="url(#pec5c4211de)">
     <use xlink:href="#C3_0_922844f1a8" x="513.929544" y="159.745558" style="fill: #dadada"/>
    </g>
    <g clip-path="url(#pec5c4211de)">
     <use xlink:href="#C3_0_922844f1a8" x="517.359729" y="159.760471" style="fill: #959595"/>
    </g>
    <g clip-path="url(#pec5c4211de)">
     <use xlink:href="#C3_0_922844f1a8" x="520.789915" y="159.776954" style="fill: #2f2f2f"/>
    </g>
    <g clip-path="url(#pec5c4211de)">
     <use xlink:href="#C3_0_922844f1a8" x="524.220101" y="159.794488"/>
    </g>
    <g clip-path="url(#pec5c4211de)">
     <use xlink:href="#C3_0_922844f1a8" x="527.650287" y="159.813039" style="fill: #4a4a4a"/>
    </g>
    <g clip-path="url(#pec5c4211de)">
     <use xlink:href="#C3_0_922844f1a8" x="531.080472" y="159.832531" style="fill: #ababab"/>
    </g>
   </g>
   <g id="matplotlib.axis_7">
    <g id="xtick_52">
     <g id="line2d_76">
      <g>
       <use xlink:href="#mcfe95b885e" x="404.993195" y="274.94952" style="stroke: #000000; stroke-width: 0.8"/>
      </g>
     </g>
     <g id="text_29">
      <!-- $\mathdefault{10^{-1}}$ -->
      <g transform="translate(394.593195 289.34952) scale(0.1 -0.1)">
       <use xlink:href="#IBMPlexSans-31" transform="translate(0 0.026563)"/>
       <use xlink:href="#IBMPlexSans-30" transform="translate(59.999985 0.026563)"/>
       <use xlink:href="#IBMPlexSans-2212" transform="translate(120.90286 36.142188) scale(0.7)"/>
       <use xlink:href="#IBMPlexSans-31" transform="translate(162.902849 36.142188) scale(0.7)"/>
      </g>
     </g>
    </g>
    <g id="xtick_53">
     <g id="line2d_77">
      <g>
       <use xlink:href="#mcfe95b885e" x="531.365906" y="274.94952" style="stroke: #000000; stroke-width: 0.8"/>
      </g>
     </g>
     <g id="text_30">
      <!-- $\mathdefault{10^{0}}$ -->
      <g transform="translate(523.065906 289.34952) scale(0.1 -0.1)">
       <use xlink:href="#IBMPlexSans-31" transform="translate(0 0.184375)"/>
       <use xlink:href="#IBMPlexSans-30" transform="translate(59.999985 0.184375)"/>
       <use xlink:href="#IBMPlexSans-30" transform="translate(120.90286 36.3) scale(0.7)"/>
      </g>
     </g>
    </g>
    <g id="xtick_54">
     <g id="line2d_78">
      <g>
       <use xlink:href="#m5204d962d0" x="338.915591" y="274.94952" style="stroke: #000000; stroke-width: 0.6"/>
      </g>
     </g>
    </g>
    <g id="xtick_55">
     <g id="line2d_79">
      <g>
       <use xlink:href="#m5204d962d0" x="354.704438" y="274.94952" style="stroke: #000000; stroke-width: 0.6"/>
      </g>
     </g>
    </g>
    <g id="xtick_56">
     <g id="line2d_80">
      <g>
       <use xlink:href="#m5204d962d0" x="366.951219" y="274.94952" style="stroke: #000000; stroke-width: 0.6"/>
      </g>
     </g>
    </g>
    <g id="xtick_57">
     <g id="line2d_81">
      <g>
       <use xlink:href="#m5204d962d0" x="376.957567" y="274.94952" style="stroke: #000000; stroke-width: 0.6"/>
      </g>
     </g>
    </g>
    <g id="xtick_58">
     <g id="line2d_82">
      <g>
       <use xlink:href="#m5204d962d0" x="385.417815" y="274.94952" style="stroke: #000000; stroke-width: 0.6"/>
      </g>
     </g>
    </g>
    <g id="xtick_59">
     <g id="line2d_83">
      <g>
       <use xlink:href="#m5204d962d0" x="392.746414" y="274.94952" style="stroke: #000000; stroke-width: 0.6"/>
      </g>
     </g>
    </g>
    <g id="xtick_60">
     <g id="line2d_84">
      <g>
       <use xlink:href="#m5204d962d0" x="399.210697" y="274.94952" style="stroke: #000000; stroke-width: 0.6"/>
      </g>
     </g>
    </g>
    <g id="xtick_61">
     <g id="line2d_85">
      <g>
       <use xlink:href="#m5204d962d0" x="443.035172" y="274.94952" style="stroke: #000000; stroke-width: 0.6"/>
      </g>
     </g>
    </g>
    <g id="xtick_62">
     <g id="line2d_86">
      <g>
       <use xlink:href="#m5204d962d0" x="465.288302" y="274.94952" style="stroke: #000000; stroke-width: 0.6"/>
      </g>
     </g>
    </g>
    <g id="xtick_63">
     <g id="line2d_87">
      <g>
       <use xlink:href="#m5204d962d0" x="481.077149" y="274.94952" style="stroke: #000000; stroke-width: 0.6"/>
      </g>
     </g>
    </g>
    <g id="xtick_64">
     <g id="line2d_88">
      <g>
       <use xlink:href="#m5204d962d0" x="493.32393" y="274.94952" style="stroke: #000000; stroke-width: 0.6"/>
      </g>
     </g>
    </g>
    <g id="xtick_65">
     <g id="line2d_89">
      <g>
       <use xlink:href="#m5204d962d0" x="503.330278" y="274.94952" style="stroke: #000000; stroke-width: 0.6"/>
      </g>
     </g>
    </g>
    <g id="xtick_66">
     <g id="line2d_90">
      <g>
       <use xlink:href="#m5204d962d0" x="511.790526" y="274.94952" style="stroke: #000000; stroke-width: 0.6"/>
      </g>
     </g>
    </g>
    <g id="xtick_67">
     <g id="line2d_91">
      <g>
       <use xlink:href="#m5204d962d0" x="519.119125" y="274.94952" style="stroke: #000000; stroke-width: 0.6"/>
      </g>
     </g>
    </g>
    <g id="xtick_68">
     <g id="line2d_92">
      <g>
       <use xlink:href="#m5204d962d0" x="525.583408" y="274.94952" style="stroke: #000000; stroke-width: 0.6"/>
      </g>
     </g>
    </g>
    <g id="text_31">
     <!-- Cutoff frequency [THz] -->
     <g transform="translate(379.368901 302.94952) scale(0.1 -0.1)">
      <use xlink:href="#IBMPlexSans-43"/>
      <use xlink:href="#IBMPlexSans-75" transform="translate(62.099991 0)"/>
      <use xlink:href="#IBMPlexSans-74" transform="translate(118.899979 0)"/>
      <use xlink:href="#IBMPlexSans-6f" transform="translate(153.999969 0)"/>
      <use xlink:href="#IBMPlexSans-66" transform="translate(209.999954 0)"/>
      <use xlink:href="#IBMPlexSans-66" transform="translate(242.399948 0)"/>
      <use xlink:href="#IBMPlexSans-20" transform="translate(274.799942 0)"/>
      <use xlink:href="#IBMPlexSans-66" transform="translate(298.399933 0)"/>
      <use xlink:href="#IBMPlexSans-72" transform="translate(330.799927 0)"/>
      <use xlink:href="#IBMPlexSans-65" transform="translate(367.499924 0)"/>
      <use xlink:href="#IBMPlexSans-71" transform="translate(422.399918 0)"/>
      <use xlink:href="#IBMPlexSans-75" transform="translate(480.399902 0)"/>
      <use xlink:href="#IBMPlexSans-65" transform="translate(537.19989 0)"/>
      <use xlink:href="#IBMPlexSans-6e" transform="translate(592.099884 0)"/>
      <use xlink:href="#IBMPlexSans-63" transform="translate(648.899872 0)"/>
      <use xlink:href="#IBMPlexSans-79" transform="translate(699.19986 0)"/>
      <use xlink:href="#IBMPlexSans-20" transform="translate(749.099854 0)"/>
      <use xlink:href="#IBMPlexSans-5b" transform="translate(772.699844 0)"/>
      <use xlink:href="#IBMPlexSans-54" transform="translate(804.399841 0)"/>
      <use xlink:href="#IBMPlexSans-48" transform="translate(861.599838 0)"/>
      <use xlink:href="#IBMPlexSans-7a" transform="translate(932.29982 0)"/>
      <use xlink:href="#IBMPlexSans-5d" transform="translate(978.699814 0)"/>
     </g>
    </g>
   </g>
   <g id="matplotlib.axis_8">
    <g id="ytick_17">
     <g id="line2d_93">
      <g>
       <use xlink:href="#mda5185ba15" x="318.580469" y="258.779813" style="stroke: #000000; stroke-width: 0.8"/>
      </g>
     </g>
     <g id="text_32">
      <!-- $\mathdefault{10^{-5}}$ -->
      <g transform="translate(290.780469 262.479813) scale(0.1 -0.1)">
       <use xlink:href="#IBMPlexSans-31" transform="translate(0 0.026563)"/>
       <use xlink:href="#IBMPlexSans-30" transform="translate(59.999985 0.026563)"/>
       <use xlink:href="#IBMPlexSans-2212" transform="translate(120.90286 36.142188) scale(0.7)"/>
       <use xlink:href="#IBMPlexSans-35" transform="translate(162.902849 36.142188) scale(0.7)"/>
      </g>
     </g>
    </g>
    <g id="ytick_18">
     <g id="line2d_94">
      <g>
       <use xlink:href="#mda5185ba15" x="318.580469" y="240.449051" style="stroke: #000000; stroke-width: 0.8"/>
      </g>
     </g>
     <g id="text_33">
      <!-- $\mathdefault{10^{-4}}$ -->
      <g transform="translate(290.780469 244.149051) scale(0.1 -0.1)">
       <use xlink:href="#IBMPlexSans-31" transform="translate(0 0.026563)"/>
       <use xlink:href="#IBMPlexSans-30" transform="translate(59.999985 0.026563)"/>
       <use xlink:href="#IBMPlexSans-2212" transform="translate(120.90286 36.142188) scale(0.7)"/>
       <use xlink:href="#IBMPlexSans-34" transform="translate(162.902849 36.142188) scale(0.7)"/>
      </g>
     </g>
    </g>
    <g id="ytick_19">
     <g id="line2d_95">
      <g>
       <use xlink:href="#mda5185ba15" x="318.580469" y="222.118289" style="stroke: #000000; stroke-width: 0.8"/>
      </g>
     </g>
     <g id="text_34">
      <!-- $\mathdefault{10^{-3}}$ -->
      <g transform="translate(290.780469 225.818289) scale(0.1 -0.1)">
       <use xlink:href="#IBMPlexSans-31" transform="translate(0 0.184375)"/>
       <use xlink:href="#IBMPlexSans-30" transform="translate(59.999985 0.184375)"/>
       <use xlink:href="#IBMPlexSans-2212" transform="translate(120.90286 36.3) scale(0.7)"/>
       <use xlink:href="#IBMPlexSans-33" transform="translate(162.902849 36.3) scale(0.7)"/>
      </g>
     </g>
    </g>
    <g id="ytick_20">
     <g id="line2d_96">
      <g>
       <use xlink:href="#mda5185ba15" x="318.580469" y="203.787527" style="stroke: #000000; stroke-width: 0.8"/>
      </g>
     </g>
     <g id="text_35">
      <!-- $\mathdefault{10^{-2}}$ -->
      <g transform="translate(290.780469 207.487527) scale(0.1 -0.1)">
       <use xlink:href="#IBMPlexSans-31" transform="translate(0 0.184375)"/>
       <use xlink:href="#IBMPlexSans-30" transform="translate(59.999985 0.184375)"/>
       <use xlink:href="#IBMPlexSans-2212" transform="translate(120.90286 36.3) scale(0.7)"/>
       <use xlink:href="#IBMPlexSans-32" transform="translate(162.902849 36.3) scale(0.7)"/>
      </g>
     </g>
    </g>
    <g id="ytick_21">
     <g id="line2d_97">
      <g>
       <use xlink:href="#mda5185ba15" x="318.580469" y="185.456765" style="stroke: #000000; stroke-width: 0.8"/>
      </g>
     </g>
     <g id="text_36">
      <!-- $\mathdefault{10^{-1}}$ -->
      <g transform="translate(290.780469 189.156765) scale(0.1 -0.1)">
       <use xlink:href="#IBMPlexSans-31" transform="translate(0 0.026563)"/>
       <use xlink:href="#IBMPlexSans-30" transform="translate(59.999985 0.026563)"/>
       <use xlink:href="#IBMPlexSans-2212" transform="translate(120.90286 36.142188) scale(0.7)"/>
       <use xlink:href="#IBMPlexSans-31" transform="translate(162.902849 36.142188) scale(0.7)"/>
      </g>
     </g>
    </g>
    <g id="ytick_22">
     <g id="line2d_98">
      <g>
       <use xlink:href="#mda5185ba15" x="318.580469" y="167.126004" style="stroke: #000000; stroke-width: 0.8"/>
      </g>
     </g>
     <g id="text_37">
      <!-- $\mathdefault{10^{0}}$ -->
      <g transform="translate(294.980469 170.826004) scale(0.1 -0.1)">
       <use xlink:href="#IBMPlexSans-31" transform="translate(0 0.184375)"/>
       <use xlink:href="#IBMPlexSans-30" transform="translate(59.999985 0.184375)"/>
       <use xlink:href="#IBMPlexSans-30" transform="translate(120.90286 36.3) scale(0.7)"/>
      </g>
     </g>
    </g>
    <g id="ytick_23">
     <g id="line2d_99">
      <defs>
       <path id="mce47422390" d="M 0 0 
L -2 0 
" style="stroke: #000000; stroke-width: 0.6"/>
      </defs>
      <g>
       <use xlink:href="#mce47422390" x="318.580469" y="271.592466" style="stroke: #000000; stroke-width: 0.6"/>
      </g>
     </g>
    </g>
    <g id="ytick_24">
     <g id="line2d_100">
      <g>
       <use xlink:href="#mce47422390" x="318.580469" y="268.364579" style="stroke: #000000; stroke-width: 0.6"/>
      </g>
     </g>
    </g>
    <g id="ytick_25">
     <g id="line2d_101">
      <g>
       <use xlink:href="#mce47422390" x="318.580469" y="266.074357" style="stroke: #000000; stroke-width: 0.6"/>
      </g>
     </g>
    </g>
    <g id="ytick_26">
     <g id="line2d_102">
      <g>
       <use xlink:href="#mce47422390" x="318.580469" y="264.297922" style="stroke: #000000; stroke-width: 0.6"/>
      </g>
     </g>
    </g>
    <g id="ytick_27">
     <g id="line2d_103">
      <g>
       <use xlink:href="#mce47422390" x="318.580469" y="262.84647" style="stroke: #000000; stroke-width: 0.6"/>
      </g>
     </g>
    </g>
    <g id="ytick_28">
     <g id="line2d_104">
      <g>
       <use xlink:href="#mce47422390" x="318.580469" y="261.619284" style="stroke: #000000; stroke-width: 0.6"/>
      </g>
     </g>
    </g>
    <g id="ytick_29">
     <g id="line2d_105">
      <g>
       <use xlink:href="#mce47422390" x="318.580469" y="260.556248" style="stroke: #000000; stroke-width: 0.6"/>
      </g>
     </g>
    </g>
    <g id="ytick_30">
     <g id="line2d_106">
      <g>
       <use xlink:href="#mce47422390" x="318.580469" y="259.618583" style="stroke: #000000; stroke-width: 0.6"/>
      </g>
     </g>
    </g>
    <g id="ytick_31">
     <g id="line2d_107">
      <g>
       <use xlink:href="#mce47422390" x="318.580469" y="253.261704" style="stroke: #000000; stroke-width: 0.6"/>
      </g>
     </g>
    </g>
    <g id="ytick_32">
     <g id="line2d_108">
      <g>
       <use xlink:href="#mce47422390" x="318.580469" y="250.033817" style="stroke: #000000; stroke-width: 0.6"/>
      </g>
     </g>
    </g>
    <g id="ytick_33">
     <g id="line2d_109">
      <g>
       <use xlink:href="#mce47422390" x="318.580469" y="247.743595" style="stroke: #000000; stroke-width: 0.6"/>
      </g>
     </g>
    </g>
    <g id="ytick_34">
     <g id="line2d_110">
      <g>
       <use xlink:href="#mce47422390" x="318.580469" y="245.96716" style="stroke: #000000; stroke-width: 0.6"/>
      </g>
     </g>
    </g>
    <g id="ytick_35">
     <g id="line2d_111">
      <g>
       <use xlink:href="#mce47422390" x="318.580469" y="244.515708" style="stroke: #000000; stroke-width: 0.6"/>
      </g>
     </g>
    </g>
    <g id="ytick_36">
     <g id="line2d_112">
      <g>
       <use xlink:href="#mce47422390" x="318.580469" y="243.288522" style="stroke: #000000; stroke-width: 0.6"/>
      </g>
     </g>
    </g>
    <g id="ytick_37">
     <g id="line2d_113">
      <g>
       <use xlink:href="#mce47422390" x="318.580469" y="242.225486" style="stroke: #000000; stroke-width: 0.6"/>
      </g>
     </g>
    </g>
    <g id="ytick_38">
     <g id="line2d_114">
      <g>
       <use xlink:href="#mce47422390" x="318.580469" y="241.287821" style="stroke: #000000; stroke-width: 0.6"/>
      </g>
     </g>
    </g>
    <g id="ytick_39">
     <g id="line2d_115">
      <g>
       <use xlink:href="#mce47422390" x="318.580469" y="234.930942" style="stroke: #000000; stroke-width: 0.6"/>
      </g>
     </g>
    </g>
    <g id="ytick_40">
     <g id="line2d_116">
      <g>
       <use xlink:href="#mce47422390" x="318.580469" y="231.703055" style="stroke: #000000; stroke-width: 0.6"/>
      </g>
     </g>
    </g>
    <g id="ytick_41">
     <g id="line2d_117">
      <g>
       <use xlink:href="#mce47422390" x="318.580469" y="229.412833" style="stroke: #000000; stroke-width: 0.6"/>
      </g>
     </g>
    </g>
    <g id="ytick_42">
     <g id="line2d_118">
      <g>
       <use xlink:href="#mce47422390" x="318.580469" y="227.636398" style="stroke: #000000; stroke-width: 0.6"/>
      </g>
     </g>
    </g>
    <g id="ytick_43">
     <g id="line2d_119">
      <g>
       <use xlink:href="#mce47422390" x="318.580469" y="226.184946" style="stroke: #000000; stroke-width: 0.6"/>
      </g>
     </g>
    </g>
    <g id="ytick_44">
     <g id="line2d_120">
      <g>
       <use xlink:href="#mce47422390" x="318.580469" y="224.95776" style="stroke: #000000; stroke-width: 0.6"/>
      </g>
     </g>
    </g>
    <g id="ytick_45">
     <g id="line2d_121">
      <g>
       <use xlink:href="#mce47422390" x="318.580469" y="223.894724" style="stroke: #000000; stroke-width: 0.6"/>
      </g>
     </g>
    </g>
    <g id="ytick_46">
     <g id="line2d_122">
      <g>
       <use xlink:href="#mce47422390" x="318.580469" y="222.957059" style="stroke: #000000; stroke-width: 0.6"/>
      </g>
     </g>
    </g>
    <g id="ytick_47">
     <g id="line2d_123">
      <g>
       <use xlink:href="#mce47422390" x="318.580469" y="216.60018" style="stroke: #000000; stroke-width: 0.6"/>
      </g>
     </g>
    </g>
    <g id="ytick_48">
     <g id="line2d_124">
      <g>
       <use xlink:href="#mce47422390" x="318.580469" y="213.372293" style="stroke: #000000; stroke-width: 0.6"/>
      </g>
     </g>
    </g>
    <g id="ytick_49">
     <g id="line2d_125">
      <g>
       <use xlink:href="#mce47422390" x="318.580469" y="211.082071" style="stroke: #000000; stroke-width: 0.6"/>
      </g>
     </g>
    </g>
    <g id="ytick_50">
     <g id="line2d_126">
      <g>
       <use xlink:href="#mce47422390" x="318.580469" y="209.305637" style="stroke: #000000; stroke-width: 0.6"/>
      </g>
     </g>
    </g>
    <g id="ytick_51">
     <g id="line2d_127">
      <g>
       <use xlink:href="#mce47422390" x="318.580469" y="207.854184" style="stroke: #000000; stroke-width: 0.6"/>
      </g>
     </g>
    </g>
    <g id="ytick_52">
     <g id="line2d_128">
      <g>
       <use xlink:href="#mce47422390" x="318.580469" y="206.626998" style="stroke: #000000; stroke-width: 0.6"/>
      </g>
     </g>
    </g>
    <g id="ytick_53">
     <g id="line2d_129">
      <g>
       <use xlink:href="#mce47422390" x="318.580469" y="205.563962" style="stroke: #000000; stroke-width: 0.6"/>
      </g>
     </g>
    </g>
    <g id="ytick_54">
     <g id="line2d_130">
      <g>
       <use xlink:href="#mce47422390" x="318.580469" y="204.626297" style="stroke: #000000; stroke-width: 0.6"/>
      </g>
     </g>
    </g>
    <g id="ytick_55">
     <g id="line2d_131">
      <g>
       <use xlink:href="#mce47422390" x="318.580469" y="198.269418" style="stroke: #000000; stroke-width: 0.6"/>
      </g>
     </g>
    </g>
    <g id="ytick_56">
     <g id="line2d_132">
      <g>
       <use xlink:href="#mce47422390" x="318.580469" y="195.041531" style="stroke: #000000; stroke-width: 0.6"/>
      </g>
     </g>
    </g>
    <g id="ytick_57">
     <g id="line2d_133">
      <g>
       <use xlink:href="#mce47422390" x="318.580469" y="192.751309" style="stroke: #000000; stroke-width: 0.6"/>
      </g>
     </g>
    </g>
    <g id="ytick_58">
     <g id="line2d_134">
      <g>
       <use xlink:href="#mce47422390" x="318.580469" y="190.974875" style="stroke: #000000; stroke-width: 0.6"/>
      </g>
     </g>
    </g>
    <g id="ytick_59">
     <g id="line2d_135">
      <g>
       <use xlink:href="#mce47422390" x="318.580469" y="189.523422" style="stroke: #000000; stroke-width: 0.6"/>
      </g>
     </g>
    </g>
    <g id="ytick_60">
     <g id="line2d_136">
      <g>
       <use xlink:href="#mce47422390" x="318.580469" y="188.296236" style="stroke: #000000; stroke-width: 0.6"/>
      </g>
     </g>
    </g>
    <g id="ytick_61">
     <g id="line2d_137">
      <g>
       <use xlink:href="#mce47422390" x="318.580469" y="187.2332" style="stroke: #000000; stroke-width: 0.6"/>
      </g>
     </g>
    </g>
    <g id="ytick_62">
     <g id="line2d_138">
      <g>
       <use xlink:href="#mce47422390" x="318.580469" y="186.295535" style="stroke: #000000; stroke-width: 0.6"/>
      </g>
     </g>
    </g>
    <g id="ytick_63">
     <g id="line2d_139">
      <g>
       <use xlink:href="#mce47422390" x="318.580469" y="179.938656" style="stroke: #000000; stroke-width: 0.6"/>
      </g>
     </g>
    </g>
    <g id="ytick_64">
     <g id="line2d_140">
      <g>
       <use xlink:href="#mce47422390" x="318.580469" y="176.710769" style="stroke: #000000; stroke-width: 0.6"/>
      </g>
     </g>
    </g>
    <g id="ytick_65">
     <g id="line2d_141">
      <g>
       <use xlink:href="#mce47422390" x="318.580469" y="174.420547" style="stroke: #000000; stroke-width: 0.6"/>
      </g>
     </g>
    </g>
    <g id="ytick_66">
     <g id="line2d_142">
      <g>
       <use xlink:href="#mce47422390" x="318.580469" y="172.644113" style="stroke: #000000; stroke-width: 0.6"/>
      </g>
     </g>
    </g>
    <g id="ytick_67">
     <g id="line2d_143">
      <g>
       <use xlink:href="#mce47422390" x="318.580469" y="171.19266" style="stroke: #000000; stroke-width: 0.6"/>
      </g>
     </g>
    </g>
    <g id="ytick_68">
     <g id="line2d_144">
      <g>
       <use xlink:href="#mce47422390" x="318.580469" y="169.965475" style="stroke: #000000; stroke-width: 0.6"/>
      </g>
     </g>
    </g>
    <g id="ytick_69">
     <g id="line2d_145">
      <g>
       <use xlink:href="#mce47422390" x="318.580469" y="168.902438" style="stroke: #000000; stroke-width: 0.6"/>
      </g>
     </g>
    </g>
    <g id="ytick_70">
     <g id="line2d_146">
      <g>
       <use xlink:href="#mce47422390" x="318.580469" y="167.964773" style="stroke: #000000; stroke-width: 0.6"/>
      </g>
     </g>
    </g>
    <g id="ytick_71">
     <g id="line2d_147">
      <g>
       <use xlink:href="#mce47422390" x="318.580469" y="161.607894" style="stroke: #000000; stroke-width: 0.6"/>
      </g>
     </g>
    </g>
    <g id="ytick_72">
     <g id="line2d_148">
      <g>
       <use xlink:href="#mce47422390" x="318.580469" y="158.380007" style="stroke: #000000; stroke-width: 0.6"/>
      </g>
     </g>
    </g>
    <g id="ytick_73">
     <g id="line2d_149">
      <g>
       <use xlink:href="#mce47422390" x="318.580469" y="156.089785" style="stroke: #000000; stroke-width: 0.6"/>
      </g>
     </g>
    </g>
    <g id="ytick_74">
     <g id="line2d_150">
      <g>
       <use xlink:href="#mce47422390" x="318.580469" y="154.313351" style="stroke: #000000; stroke-width: 0.6"/>
      </g>
     </g>
    </g>
    <g id="text_38">
     <!-- Hessian Eigenvalues -->
     <g transform="translate(284.660156 260.528666) rotate(-90) scale(0.1 -0.1)">
      <defs>
       <path id="IBMPlexSans-61" d="M 3232 0 
L 3232 448 
L 2854 448 
L 2854 2266 
C 2854 2963 2381 3379 1587 3379 
C 992 3379 595 3085 416 2733 
L 723 2445 
C 902 2746 1165 2938 1562 2938 
C 2086 2938 2342 2682 2342 2214 
L 2342 1888 
L 1690 1888 
C 730 1888 282 1542 282 922 
C 282 307 691 -77 1389 -77 
C 1850 -77 2202 134 2342 538 
L 2374 538 
C 2413 230 2566 0 2944 0 
L 3232 0 
z
M 1472 358 
C 1075 358 819 544 819 870 
L 819 1005 
C 819 1325 1082 1504 1664 1504 
L 2342 1504 
L 2342 960 
C 2342 621 1978 358 1472 358 
z
" transform="scale(0.015625)"/>
       <path id="IBMPlexSans-45" d="M 3322 0 
L 3322 474 
L 1133 474 
L 1133 2022 
L 3194 2022 
L 3194 2496 
L 1133 2496 
L 1133 3994 
L 3322 3994 
L 3322 4467 
L 595 4467 
L 595 0 
L 3322 0 
z
" transform="scale(0.015625)"/>
      </defs>
      <use xlink:href="#IBMPlexSans-48"/>
      <use xlink:href="#IBMPlexSans-65" transform="translate(70.699982 0)"/>
      <use xlink:href="#IBMPlexSans-73" transform="translate(125.599976 0)"/>
      <use xlink:href="#IBMPlexSans-73" transform="translate(174.299973 0)"/>
      <use xlink:href="#IBMPlexSans-69" transform="translate(222.999969 0)"/>
      <use xlink:href="#IBMPlexSans-61" transform="translate(247.999954 0)"/>
      <use xlink:href="#IBMPlexSans-6e" transform="translate(301.399948 0)"/>
      <use xlink:href="#IBMPlexSans-20" transform="translate(358.199936 0)"/>
      <use xlink:href="#IBMPlexSans-45" transform="translate(381.799927 0)"/>
      <use xlink:href="#IBMPlexSans-69" transform="translate(440.099915 0)"/>
      <use xlink:href="#IBMPlexSans-67" transform="translate(465.099899 0)"/>
      <use xlink:href="#IBMPlexSans-65" transform="translate(517.899887 0)"/>
      <use xlink:href="#IBMPlexSans-6e" transform="translate(572.799881 0)"/>
      <use xlink:href="#IBMPlexSans-76" transform="translate(629.599869 0)"/>
      <use xlink:href="#IBMPlexSans-61" transform="translate(678.799866 0)"/>
      <use xlink:href="#IBMPlexSans-6c" transform="translate(732.19986 0)"/>
      <use xlink:href="#IBMPlexSans-75" transform="translate(759.399857 0)"/>
      <use xlink:href="#IBMPlexSans-65" transform="translate(816.199844 0)"/>
      <use xlink:href="#IBMPlexSans-73" transform="translate(871.099838 0)"/>
     </g>
    </g>
   </g>
   <g id="line2d_151">
    <path d="M 328.699517 259.847679 
L 332.129702 246.836829 
L 335.559888 242.67957 
L 338.990074 241.878544 
L 342.420259 243.471768 
L 345.850445 244.368222 
L 349.280631 244.990803 
L 352.710816 245.671746 
L 356.141002 246.598577 
L 359.571188 247.706103 
L 363.001373 248.980021 
L 366.431559 250.388926 
L 369.861745 251.88077 
L 373.29193 253.400913 
L 376.722116 254.896521 
L 380.152302 256.328388 
L 383.582488 257.66611 
L 387.012673 258.885163 
L 390.442859 259.983839 
L 393.873045 260.977367 
L 397.30323 261.913837 
L 400.733416 262.83989 
L 404.163602 263.778761 
L 407.593787 264.728061 
L 411.023973 265.670322 
L 414.454159 266.602639 
L 417.884344 267.533417 
L 421.31453 268.482089 
L 424.744716 269.457496 
L 465.906944 263.256638 
L 469.33713 246.843423 
L 472.767315 239.851601 
L 476.197501 233.693133 
L 479.627687 229.76363 
L 483.057873 226.465625 
L 486.488058 223.889498 
L 489.918244 222.104766 
L 493.34843 221.713562 
L 496.778615 221.19845 
L 500.208801 220.599253 
L 503.638987 220.019095 
L 507.069172 219.463499 
L 510.499358 218.997009 
L 513.929544 218.655196 
L 517.359729 218.370276 
L 520.789915 218.131693 
L 524.220101 217.898304 
L 527.650287 217.656044 
L 531.080472 217.400188 
" clip-path="url(#pec5c4211de)" style="fill: none; stroke: #9467bd; stroke-width: 1.5; stroke-linecap: square"/>
   </g>
   <g id="line2d_152">
    <path d="M 328.699517 173.81273 
L 332.129702 173.812635 
L 335.559888 173.800702 
L 338.990074 173.790931 
L 342.420259 173.782117 
L 345.850445 173.738384 
L 349.280631 173.677016 
L 352.710816 173.572498 
L 356.141002 173.396134 
L 359.571188 173.164539 
L 363.001373 172.880368 
L 366.431559 172.554914 
L 369.861745 172.199789 
L 373.29193 171.847311 
L 376.722116 171.510596 
L 380.152302 171.195918 
L 383.582488 170.908858 
L 387.012673 170.656612 
L 390.442859 170.42419 
L 393.873045 170.212231 
L 397.30323 170.006519 
L 400.733416 169.80605 
L 404.163602 169.613881 
L 407.593787 169.432478 
L 411.023973 169.264754 
L 414.454159 169.108942 
L 417.884344 168.963299 
L 421.31453 168.825518 
L 424.744716 168.695932 
L 465.906944 173.548517 
L 469.33713 173.534515 
L 472.767315 173.518537 
L 476.197501 173.505523 
L 479.627687 173.490326 
L 483.057873 173.474809 
L 486.488058 173.458648 
L 489.918244 173.439961 
L 493.34843 173.414916 
L 496.778615 173.383368 
L 500.208801 173.345507 
L 503.638987 173.299765 
L 507.069172 173.247296 
L 510.499358 173.185741 
L 513.929544 173.114152 
L 517.359729 173.035613 
L 520.789915 172.949636 
L 524.220101 172.85934 
L 527.650287 172.765127 
L 531.080472 172.667591 
" clip-path="url(#pec5c4211de)" style="fill: none; stroke: #9467bd; stroke-width: 1.5; stroke-linecap: square"/>
   </g>
   <g id="line2d_153">
    <path d="M 328.699517 159.617024 
L 332.129702 159.617151 
L 335.559888 159.619255 
L 338.990074 159.620926 
L 342.420259 159.622367 
L 345.850445 159.629753 
L 349.280631 159.640215 
L 352.710816 159.658264 
L 356.141002 159.689364 
L 359.571188 159.731463 
L 363.001373 159.785147 
L 366.431559 159.849512 
L 369.861745 159.923457 
L 373.29193 160.000922 
L 376.722116 160.078956 
L 380.152302 160.155673 
L 383.582488 160.22904 
L 387.012673 160.296323 
L 390.442859 160.360766 
L 393.873045 160.421676 
L 397.30323 160.48283 
L 400.733416 160.544439 
L 404.163602 160.605439 
L 407.593787 160.664837 
L 411.023973 160.721382 
L 414.454159 160.775365 
L 417.884344 160.827131 
L 421.31453 160.877302 
L 424.744716 160.925586 
L 465.906944 159.662303 
L 469.33713 159.664875 
L 472.767315 159.667873 
L 476.197501 159.670553 
L 479.627687 159.673694 
L 483.057873 159.677047 
L 486.488058 159.680598 
L 489.918244 159.684542 
L 493.34843 159.689157 
L 496.778615 159.695016 
L 500.208801 159.702094 
L 503.638987 159.710651 
L 507.069172 159.720502 
L 510.499358 159.732073 
L 513.929544 159.745558 
L 517.359729 159.760471 
L 520.789915 159.776954 
L 524.220101 159.794488 
L 527.650287 159.813039 
L 531.080472 159.832531 
" clip-path="url(#pec5c4211de)" style="fill: none; stroke: #9467bd; stroke-width: 1.5; stroke-linecap: square"/>
   </g>
   <g id="patch_13">
    <path d="M 318.580469 274.94952 
L 318.580469 154.125 
" style="fill: none; stroke: #000000; stroke-width: 0.8; stroke-linejoin: miter; stroke-linecap: square"/>
   </g>
   <g id="patch_14">
    <path d="M 318.580469 274.94952 
L 541.19952 274.94952 
" style="fill: none; stroke: #000000; stroke-width: 0.8; stroke-linejoin: miter; stroke-linecap: square"/>
   </g>
  </g>
 </g>
 <defs>
  <clipPath id="pa34c57bc69">
   <rect x="48.640625" y="7.2" width="222.619051" height="120.82452"/>
  </clipPath>
  <clipPath id="pac1f270fc3">
   <rect x="318.580469" y="7.2" width="222.619051" height="120.82452"/>
  </clipPath>
  <clipPath id="pd2e5903366">
   <rect x="48.640625" y="154.125" width="222.619051" height="120.82452"/>
  </clipPath>
  <clipPath id="pec5c4211de">
   <rect x="318.580469" y="154.125" width="222.619051" height="120.82452"/>
  </clipPath>
 </defs>
</svg>