<?xml version="1.0" encoding="utf-8" standalone="no"?>
<!DOCTYPE svg PUBLIC "-//W3C//DTD SVG 1.1//EN"
  "http://www.w3.org/Graphics/SVG/1.1/DTD/svg11.dtd">
<svg xmlns:xlink="http://www.w3.org/1999/xlink" width="548.357351pt" height="312.14952pt" viewBox="0 0 548.357351 312.14952" xmlns="http://www.w3.org/2000/svg" version="1.1">
 <metadata>
  <rdf:RDF xmlns:dc="http://purl.org/dc/elements/1.1/" xmlns:cc="http://creativecommons.org/ns#" xmlns:rdf="http://www.w3.org/1999/02/22-rdf-syntax-ns#">
   <cc:Work>
    <dc:type rdf:resource="http://purl.org/dc/dcmitype/StillImage"/>
    <dc:date>2025-06-25T08:40:18.481197</dc:date>
    <dc:format>image/svg+xml</dc:format>
    <dc:creator>
     <cc:Agent>
      <dc:title>Matplotlib v3.10.1, https://matplotlib.org/</dc:title>
     </cc:Agent>
    </dc:creator>
   </cc:Work>
  </rdf:RDF>
 </metadata>
 <defs>
  <style type="text/css">*{stroke-linejoin: round; stroke-linecap: butt}</style>
 </defs>
 <g id="figure_1">
  <g id="patch_1">
   <path d="M 0 312.14952 
L 548.357351 312.14952 
L 548.357351 0 
L 0 0 
z
" style="fill: #ffffff"/>
  </g>
  <g id="axes_1">
   <g id="patch_2">
    <path d="M 50.020313 275.14952 
L 541.135777 275.14952 
L 541.135777 22.08 
L 50.020313 22.08 
z
" style="fill: #ffffff"/>
   </g>
   <g id="matplotlib.axis_1">
    <g id="xtick_1">
     <g id="line2d_1">
      <defs>
       <path id="m50138d0bc6" d="M 0 0 
L 0 3.5 
" style="stroke: #000000; stroke-width: 0.8"/>
      </defs>
      <g>
       <use xlink:href="#m50138d0bc6" x="50.020313" y="275.14952" style="stroke: #000000; stroke-width: 0.8"/>
      </g>
     </g>
     <g id="text_1">
      <!-- $\infty$ -->
      <g transform="translate(45.820312 289.54952) scale(0.1 -0.1)">
       <defs>
        <path id="DejaVuSans-221e" d="M 2916 1091 
Q 2819 1203 2666 1466 
Q 2456 1091 2272 925 
Q 2041 725 1681 725 
Q 1259 725 981 1041 
Q 688 1372 688 1919 
Q 688 2444 981 2800 
Q 1244 3116 1688 3116 
Q 1916 3116 2084 3022 
Q 2281 2919 2416 2741 
Q 2541 2581 2666 2366 
Q 2875 2741 3059 2906 
Q 3291 3106 3650 3106 
Q 4072 3106 4350 2791 
Q 4644 2459 4644 1913 
Q 4644 1388 4350 1031 
Q 4088 716 3644 716 
Q 3416 716 3247 809 
Q 3078 894 2916 1091 
z
M 1647 1134 
Q 2163 1134 2472 1884 
Q 2075 2703 1647 2703 
Q 1334 2703 1175 2478 
Q 1003 2238 1003 1919 
Q 1003 1569 1175 1353 
Q 1350 1134 1647 1134 
z
M 3684 2697 
Q 3219 2697 2859 1947 
Q 3253 1128 3684 1128 
Q 3997 1128 4156 1353 
Q 4328 1594 4328 1913 
Q 4328 2263 4156 2478 
Q 3981 2697 3684 2697 
z
" transform="scale(0.015625)"/>
       </defs>
       <use xlink:href="#DejaVuSans-221e" transform="translate(0 0.3125)"/>
      </g>
     </g>
    </g>
    <g id="xtick_2">
     <g id="line2d_2">
      <g>
       <use xlink:href="#m50138d0bc6" x="529.157351" y="275.14952" style="stroke: #000000; stroke-width: 0.8"/>
      </g>
     </g>
     <g id="text_2">
      <!-- 1000 -->
      <g transform="translate(517.157351 289.54952) scale(0.1 -0.1)">
       <defs>
        <path id="IBMPlexSans-31" d="M 3501 0 
L 3501 474 
L 2349 474 
L 2349 4467 
L 1510 4467 
L 326 3360 
L 640 3021 
L 1766 4070 
L 1811 4070 
L 1811 474 
L 563 474 
L 563 0 
L 3501 0 
z
" transform="scale(0.015625)"/>
        <path id="IBMPlexSans-30" d="M 1920 -77 
C 2989 -77 3456 774 3456 2234 
C 3456 3693 2989 4544 1920 4544 
C 851 4544 384 3693 384 2234 
C 384 774 851 -77 1920 -77 
z
M 1920 390 
C 1222 390 947 1005 947 1869 
L 947 2598 
C 947 3462 1222 4077 1920 4077 
C 2618 4077 2893 3462 2893 2598 
L 2893 1869 
C 2893 1005 2618 390 1920 390 
z
" transform="scale(0.015625)"/>
       </defs>
       <use xlink:href="#IBMPlexSans-31"/>
       <use xlink:href="#IBMPlexSans-30" transform="translate(59.999985 0)"/>
       <use xlink:href="#IBMPlexSans-30" transform="translate(119.999969 0)"/>
       <use xlink:href="#IBMPlexSans-30" transform="translate(179.999954 0)"/>
      </g>
     </g>
    </g>
    <g id="xtick_3">
     <g id="line2d_3">
      <g>
       <use xlink:href="#m50138d0bc6" x="430.311632" y="275.14952" style="stroke: #000000; stroke-width: 0.8"/>
      </g>
     </g>
     <g id="text_3">
      <!-- 2000 -->
      <g transform="translate(418.311632 289.54952) scale(0.1 -0.1)">
       <defs>
        <path id="IBMPlexSans-32" d="M 3411 474 
L 1062 474 
L 2266 1555 
C 2835 2067 3245 2554 3245 3245 
C 3245 4006 2746 4544 1875 4544 
C 1011 4544 614 4019 442 3494 
L 922 3309 
C 1043 3731 1299 4064 1850 4064 
C 2400 4064 2675 3725 2675 3232 
L 2675 3155 
C 2675 2726 2355 2278 1939 1894 
L 480 550 
L 480 0 
L 3411 0 
L 3411 474 
z
" transform="scale(0.015625)"/>
       </defs>
       <use xlink:href="#IBMPlexSans-32"/>
       <use xlink:href="#IBMPlexSans-30" transform="translate(59.999985 0)"/>
       <use xlink:href="#IBMPlexSans-30" transform="translate(119.999969 0)"/>
       <use xlink:href="#IBMPlexSans-30" transform="translate(179.999954 0)"/>
      </g>
     </g>
    </g>
    <g id="xtick_4">
     <g id="line2d_4">
      <g>
       <use xlink:href="#m50138d0bc6" x="351.857733" y="275.14952" style="stroke: #000000; stroke-width: 0.8"/>
      </g>
     </g>
     <g id="text_4">
      <!-- 4000 -->
      <g transform="translate(339.857733 289.54952) scale(0.1 -0.1)">
       <defs>
        <path id="IBMPlexSans-34" d="M 2912 0 
L 2912 877 
L 3558 877 
L 3558 1325 
L 2912 1325 
L 2912 4467 
L 2112 4467 
L 243 1350 
L 243 877 
L 2400 877 
L 2400 0 
L 2912 0 
z
M 2368 4051 
L 2400 4051 
L 2400 1325 
L 749 1325 
L 2368 4051 
z
" transform="scale(0.015625)"/>
       </defs>
       <use xlink:href="#IBMPlexSans-34"/>
       <use xlink:href="#IBMPlexSans-30" transform="translate(59.999985 0)"/>
       <use xlink:href="#IBMPlexSans-30" transform="translate(119.999969 0)"/>
       <use xlink:href="#IBMPlexSans-30" transform="translate(179.999954 0)"/>
      </g>
     </g>
    </g>
    <g id="xtick_5">
     <g id="line2d_5">
      <g>
       <use xlink:href="#m50138d0bc6" x="289.588832" y="275.14952" style="stroke: #000000; stroke-width: 0.8"/>
      </g>
     </g>
     <g id="text_5">
      <!-- 8000 -->
      <g transform="translate(277.588832 289.54952) scale(0.1 -0.1)">
       <defs>
        <path id="IBMPlexSans-38" d="M 1920 -77 
C 2938 -77 3469 480 3469 1216 
C 3469 1824 3104 2176 2566 2323 
L 2566 2374 
C 3034 2534 3334 2912 3334 3424 
C 3334 4102 2810 4544 1920 4544 
C 1030 4544 506 4102 506 3424 
C 506 2912 806 2534 1274 2374 
L 1274 2323 
C 736 2176 371 1824 371 1216 
C 371 480 902 -77 1920 -77 
z
M 1920 390 
C 1299 390 941 685 941 1190 
L 941 1325 
C 941 1830 1299 2125 1920 2125 
C 2541 2125 2899 1830 2899 1325 
L 2899 1190 
C 2899 685 2541 390 1920 390 
z
M 1920 2573 
C 1363 2573 1062 2822 1062 3277 
L 1062 3373 
C 1062 3827 1363 4077 1920 4077 
C 2477 4077 2778 3827 2778 3373 
L 2778 3277 
C 2778 2822 2477 2573 1920 2573 
z
" transform="scale(0.015625)"/>
       </defs>
       <use xlink:href="#IBMPlexSans-38"/>
       <use xlink:href="#IBMPlexSans-30" transform="translate(59.999985 0)"/>
       <use xlink:href="#IBMPlexSans-30" transform="translate(119.999969 0)"/>
       <use xlink:href="#IBMPlexSans-30" transform="translate(179.999954 0)"/>
      </g>
     </g>
    </g>
    <g id="text_6">
     <!-- Number of Water Molecules -->
     <g transform="translate(233.077263 302.94952) scale(0.1 -0.1)">
      <defs>
       <path id="IBMPlexSans-4e" d="M 3309 0 
L 3930 0 
L 3930 4467 
L 3405 4467 
L 3405 749 
L 3386 749 
L 2848 1741 
L 1216 4467 
L 595 4467 
L 595 0 
L 1120 0 
L 1120 3718 
L 1139 3718 
L 1677 2726 
L 3309 0 
z
" transform="scale(0.015625)"/>
       <path id="IBMPlexSans-75" d="M 2579 0 
L 3091 0 
L 3091 3302 
L 2579 3302 
L 2579 1018 
C 2579 582 2182 384 1779 384 
C 1286 384 1024 685 1024 1274 
L 1024 3302 
L 512 3302 
L 512 1184 
C 512 384 947 -77 1626 -77 
C 2176 -77 2426 224 2554 538 
L 2579 538 
L 2579 0 
z
" transform="scale(0.015625)"/>
       <path id="IBMPlexSans-6d" d="M 1056 0 
L 1056 2291 
C 1056 2714 1440 2918 1843 2918 
C 2330 2918 2554 2618 2554 2029 
L 2554 0 
L 3066 0 
L 3066 2291 
C 3066 2714 3437 2918 3840 2918 
C 4339 2918 4563 2611 4563 2029 
L 4563 0 
L 5075 0 
L 5075 2118 
C 5075 2918 4672 3379 4000 3379 
C 3437 3379 3117 3066 2995 2707 
L 2982 2707 
C 2803 3181 2406 3379 1971 3379 
C 1459 3379 1229 3104 1082 2765 
L 1056 2765 
L 1056 3302 
L 544 3302 
L 544 0 
L 1056 0 
z
" transform="scale(0.015625)"/>
       <path id="IBMPlexSans-62" d="M 544 0 
L 1056 0 
L 1056 538 
L 1082 538 
C 1280 128 1594 -77 2048 -77 
C 2874 -77 3392 595 3392 1651 
C 3392 2707 2874 3379 2048 3379 
C 1594 3379 1254 3181 1082 2765 
L 1056 2765 
L 1056 4736 
L 544 4736 
L 544 0 
z
M 1907 384 
C 1440 384 1056 627 1056 1056 
L 1056 2285 
C 1056 2650 1440 2918 1907 2918 
C 2483 2918 2842 2522 2842 1933 
L 2842 1370 
C 2842 781 2483 384 1907 384 
z
" transform="scale(0.015625)"/>
       <path id="IBMPlexSans-65" d="M 1786 -77 
C 2406 -77 2880 230 3091 678 
L 2726 941 
C 2554 576 2234 371 1818 371 
C 1203 371 838 800 838 1370 
L 838 1523 
L 3213 1523 
L 3213 1766 
C 3213 2701 2669 3379 1786 3379 
C 890 3379 301 2701 301 1651 
C 301 602 890 -77 1786 -77 
z
M 1786 2950 
C 2310 2950 2662 2560 2662 1978 
L 2662 1907 
L 838 1907 
L 838 1952 
C 838 2528 1229 2950 1786 2950 
z
" transform="scale(0.015625)"/>
       <path id="IBMPlexSans-72" d="M 1056 0 
L 1056 2240 
C 1056 2554 1389 2790 1939 2790 
L 2240 2790 
L 2240 3302 
L 2042 3302 
C 1504 3302 1203 3008 1088 2694 
L 1056 2694 
L 1056 3302 
L 544 3302 
L 544 0 
L 1056 0 
z
" transform="scale(0.015625)"/>
       <path id="IBMPlexSans-20" transform="scale(0.015625)"/>
       <path id="IBMPlexSans-6f" d="M 1792 -77 
C 2675 -77 3283 602 3283 1651 
C 3283 2701 2675 3379 1792 3379 
C 909 3379 301 2701 301 1651 
C 301 602 909 -77 1792 -77 
z
M 1792 378 
C 1242 378 851 717 851 1414 
L 851 1888 
C 851 2586 1242 2925 1792 2925 
C 2342 2925 2733 2586 2733 1888 
L 2733 1414 
C 2733 717 2342 378 1792 378 
z
" transform="scale(0.015625)"/>
       <path id="IBMPlexSans-66" d="M 723 0 
L 1235 0 
L 1235 2854 
L 1946 2854 
L 1946 3302 
L 1235 3302 
L 1235 4288 
L 1946 4288 
L 1946 4736 
L 1446 4736 
C 960 4736 723 4422 723 3968 
L 723 3302 
L 186 3302 
L 186 2854 
L 723 2854 
L 723 0 
z
" transform="scale(0.015625)"/>
       <path id="IBMPlexSans-57" d="M 1811 0 
L 2406 2227 
L 2829 3866 
L 2842 3866 
L 3251 2227 
L 3834 0 
L 4429 0 
L 5574 4467 
L 5024 4467 
L 4518 2317 
L 4134 653 
L 4115 653 
L 3699 2317 
L 3155 4467 
L 2541 4467 
L 1978 2317 
L 1562 646 
L 1549 646 
L 1178 2317 
L 698 4467 
L 128 4467 
L 1216 0 
L 1811 0 
z
" transform="scale(0.015625)"/>
       <path id="IBMPlexSans-61" d="M 3232 0 
L 3232 448 
L 2854 448 
L 2854 2266 
C 2854 2963 2381 3379 1587 3379 
C 992 3379 595 3085 416 2733 
L 723 2445 
C 902 2746 1165 2938 1562 2938 
C 2086 2938 2342 2682 2342 2214 
L 2342 1888 
L 1690 1888 
C 730 1888 282 1542 282 922 
C 282 307 691 -77 1389 -77 
C 1850 -77 2202 134 2342 538 
L 2374 538 
C 2413 230 2566 0 2944 0 
L 3232 0 
z
M 1472 358 
C 1075 358 819 544 819 870 
L 819 1005 
C 819 1325 1082 1504 1664 1504 
L 2342 1504 
L 2342 960 
C 2342 621 1978 358 1472 358 
z
" transform="scale(0.015625)"/>
       <path id="IBMPlexSans-74" d="M 1914 0 
L 1914 448 
L 1242 448 
L 1242 2854 
L 1965 2854 
L 1965 3302 
L 1242 3302 
L 1242 4218 
L 781 4218 
L 781 3603 
C 781 3379 710 3302 493 3302 
L 186 3302 
L 186 2854 
L 730 2854 
L 730 544 
C 730 224 922 0 1274 0 
L 1914 0 
z
" transform="scale(0.015625)"/>
       <path id="IBMPlexSans-4d" d="M 595 0 
L 1120 0 
L 1120 3763 
L 1152 3763 
L 1530 3014 
L 2598 1069 
L 3667 3014 
L 4045 3763 
L 4077 3763 
L 4077 0 
L 4602 0 
L 4602 4467 
L 3910 4467 
L 2624 2061 
L 2592 2061 
L 1312 4467 
L 595 4467 
L 595 0 
z
" transform="scale(0.015625)"/>
       <path id="IBMPlexSans-6c" d="M 1542 0 
L 1542 448 
L 1056 448 
L 1056 4736 
L 544 4736 
L 544 531 
C 544 224 736 0 1088 0 
L 1542 0 
z
" transform="scale(0.015625)"/>
       <path id="IBMPlexSans-63" d="M 1773 -77 
C 2400 -77 2829 230 3040 704 
L 2669 954 
C 2490 576 2189 378 1773 378 
C 1165 378 851 794 851 1370 
L 851 1933 
C 851 2509 1165 2925 1773 2925 
C 2176 2925 2458 2726 2579 2387 
L 3008 2605 
C 2816 3059 2426 3379 1773 3379 
C 845 3379 301 2707 301 1651 
C 301 595 845 -77 1773 -77 
z
" transform="scale(0.015625)"/>
       <path id="IBMPlexSans-73" d="M 1536 -77 
C 2291 -77 2758 314 2758 954 
C 2758 1453 2477 1773 1747 1882 
L 1491 1920 
C 1082 1984 858 2112 858 2432 
C 858 2746 1082 2944 1504 2944 
C 1926 2944 2208 2746 2355 2541 
L 2694 2848 
C 2426 3181 2074 3379 1542 3379 
C 870 3379 365 3059 365 2406 
C 365 1792 819 1542 1427 1453 
L 1690 1414 
C 2125 1350 2266 1152 2266 896 
C 2266 557 2010 358 1574 358 
C 1158 358 851 544 595 864 
L 230 570 
C 525 179 928 -77 1536 -77 
z
" transform="scale(0.015625)"/>
      </defs>
      <use xlink:href="#IBMPlexSans-4e"/>
      <use xlink:href="#IBMPlexSans-75" transform="translate(70.699982 0)"/>
      <use xlink:href="#IBMPlexSans-6d" transform="translate(127.499969 0)"/>
      <use xlink:href="#IBMPlexSans-62" transform="translate(214.799957 0)"/>
      <use xlink:href="#IBMPlexSans-65" transform="translate(272.799942 0)"/>
      <use xlink:href="#IBMPlexSans-72" transform="translate(327.699936 0)"/>
      <use xlink:href="#IBMPlexSans-20" transform="translate(364.399933 0)"/>
      <use xlink:href="#IBMPlexSans-6f" transform="translate(387.999924 0)"/>
      <use xlink:href="#IBMPlexSans-66" transform="translate(443.999908 0)"/>
      <use xlink:href="#IBMPlexSans-20" transform="translate(476.399902 0)"/>
      <use xlink:href="#IBMPlexSans-57" transform="translate(499.999893 0)"/>
      <use xlink:href="#IBMPlexSans-61" transform="translate(589.099884 0)"/>
      <use xlink:href="#IBMPlexSans-74" transform="translate(642.499878 0)"/>
      <use xlink:href="#IBMPlexSans-65" transform="translate(677.599869 0)"/>
      <use xlink:href="#IBMPlexSans-72" transform="translate(732.499863 0)"/>
      <use xlink:href="#IBMPlexSans-20" transform="translate(769.19986 0)"/>
      <use xlink:href="#IBMPlexSans-4d" transform="translate(792.79985 0)"/>
      <use xlink:href="#IBMPlexSans-6f" transform="translate(873.999832 0)"/>
      <use xlink:href="#IBMPlexSans-6c" transform="translate(929.999817 0)"/>
      <use xlink:href="#IBMPlexSans-65" transform="translate(957.199814 0)"/>
      <use xlink:href="#IBMPlexSans-63" transform="translate(1012.099808 0)"/>
      <use xlink:href="#IBMPlexSans-75" transform="translate(1062.399796 0)"/>
      <use xlink:href="#IBMPlexSans-6c" transform="translate(1119.199783 0)"/>
      <use xlink:href="#IBMPlexSans-65" transform="translate(1146.39978 0)"/>
      <use xlink:href="#IBMPlexSans-73" transform="translate(1201.299774 0)"/>
     </g>
    </g>
   </g>
   <g id="matplotlib.axis_2">
    <g id="ytick_1">
     <g id="line2d_6">
      <defs>
       <path id="mbb5d3304cb" d="M 0 0 
L -3.5 0 
" style="stroke: #000000; stroke-width: 0.8"/>
      </defs>
      <g>
       <use xlink:href="#mbb5d3304cb" x="50.020313" y="256.407064" style="stroke: #000000; stroke-width: 0.8"/>
      </g>
     </g>
     <g id="text_7">
      <!-- 1.42 -->
      <g transform="translate(22.3 260.107064) scale(0.1 -0.1)">
       <defs>
        <path id="IBMPlexSans-2e" d="M 870 -77 
C 1139 -77 1261 77 1261 294 
L 1261 378 
C 1261 595 1139 749 870 749 
C 602 749 480 595 480 378 
L 480 294 
C 480 77 602 -77 870 -77 
z
" transform="scale(0.015625)"/>
       </defs>
       <use xlink:href="#IBMPlexSans-31"/>
       <use xlink:href="#IBMPlexSans-2e" transform="translate(59.999985 0)"/>
       <use xlink:href="#IBMPlexSans-34" transform="translate(87.199982 0)"/>
       <use xlink:href="#IBMPlexSans-32" transform="translate(147.199966 0)"/>
      </g>
     </g>
    </g>
    <g id="ytick_2">
     <g id="line2d_7">
      <g>
       <use xlink:href="#mbb5d3304cb" x="50.020313" y="208.564235" style="stroke: #000000; stroke-width: 0.8"/>
      </g>
     </g>
     <g id="text_8">
      <!-- 1.44 -->
      <g transform="translate(22.3 212.264235) scale(0.1 -0.1)">
       <use xlink:href="#IBMPlexSans-31"/>
       <use xlink:href="#IBMPlexSans-2e" transform="translate(59.999985 0)"/>
       <use xlink:href="#IBMPlexSans-34" transform="translate(87.199982 0)"/>
       <use xlink:href="#IBMPlexSans-34" transform="translate(147.199966 0)"/>
      </g>
     </g>
    </g>
    <g id="ytick_3">
     <g id="line2d_8">
      <g>
       <use xlink:href="#mbb5d3304cb" x="50.020313" y="160.721407" style="stroke: #000000; stroke-width: 0.8"/>
      </g>
     </g>
     <g id="text_9">
      <!-- 1.46 -->
      <g transform="translate(22.3 164.421407) scale(0.1 -0.1)">
       <defs>
        <path id="IBMPlexSans-36" d="M 1926 -77 
C 2822 -77 3411 525 3411 1402 
C 3411 2246 2861 2778 2093 2778 
C 1549 2778 1229 2502 1018 2138 
L 986 2150 
C 1229 3187 1760 3770 2714 4467 
L 2022 4467 
C 1306 4000 429 2963 429 1638 
C 429 576 998 -77 1926 -77 
z
M 1920 390 
C 1331 390 986 730 986 1331 
L 986 1382 
C 986 1984 1331 2323 1920 2323 
C 2509 2323 2854 1984 2854 1382 
L 2854 1331 
C 2854 730 2509 390 1920 390 
z
" transform="scale(0.015625)"/>
       </defs>
       <use xlink:href="#IBMPlexSans-31"/>
       <use xlink:href="#IBMPlexSans-2e" transform="translate(59.999985 0)"/>
       <use xlink:href="#IBMPlexSans-34" transform="translate(87.199982 0)"/>
       <use xlink:href="#IBMPlexSans-36" transform="translate(147.199966 0)"/>
      </g>
     </g>
    </g>
    <g id="ytick_4">
     <g id="line2d_9">
      <g>
       <use xlink:href="#mbb5d3304cb" x="50.020313" y="112.878579" style="stroke: #000000; stroke-width: 0.8"/>
      </g>
     </g>
     <g id="text_10">
      <!-- 1.48 -->
      <g transform="translate(22.3 116.578579) scale(0.1 -0.1)">
       <use xlink:href="#IBMPlexSans-31"/>
       <use xlink:href="#IBMPlexSans-2e" transform="translate(59.999985 0)"/>
       <use xlink:href="#IBMPlexSans-34" transform="translate(87.199982 0)"/>
       <use xlink:href="#IBMPlexSans-38" transform="translate(147.199966 0)"/>
      </g>
     </g>
    </g>
    <g id="ytick_5">
     <g id="line2d_10">
      <g>
       <use xlink:href="#mbb5d3304cb" x="50.020313" y="65.035751" style="stroke: #000000; stroke-width: 0.8"/>
      </g>
     </g>
     <g id="text_11">
      <!-- 1.50 -->
      <g transform="translate(22.3 68.735751) scale(0.1 -0.1)">
       <defs>
        <path id="IBMPlexSans-35" d="M 3187 4467 
L 794 4467 
L 634 2010 
L 1088 1946 
C 1274 2150 1478 2323 1888 2323 
C 2496 2323 2822 1984 2822 1395 
L 2822 1331 
C 2822 742 2496 403 1888 403 
C 1350 403 1126 640 896 992 
L 493 685 
C 762 301 1146 -77 1888 -77 
C 2829 -77 3392 531 3392 1402 
C 3392 2266 2829 2784 2061 2784 
C 1594 2784 1357 2592 1146 2291 
L 1101 2291 
L 1229 3994 
L 3187 3994 
L 3187 4467 
z
" transform="scale(0.015625)"/>
       </defs>
       <use xlink:href="#IBMPlexSans-31"/>
       <use xlink:href="#IBMPlexSans-2e" transform="translate(59.999985 0)"/>
       <use xlink:href="#IBMPlexSans-35" transform="translate(87.199982 0)"/>
       <use xlink:href="#IBMPlexSans-30" transform="translate(147.199966 0)"/>
      </g>
     </g>
    </g>
    <g id="text_12">
     <!-- Diffusivity [m$^2$/s] -->
     <g transform="translate(16.3 186.46476) rotate(-90) scale(0.1 -0.1)">
      <defs>
       <path id="IBMPlexSans-44" d="M 595 0 
L 2093 0 
C 3206 0 3923 742 3923 2234 
C 3923 3725 3206 4467 2093 4467 
L 595 4467 
L 595 0 
z
M 1133 474 
L 1133 3994 
L 2093 3994 
C 2829 3994 3347 3482 3347 2598 
L 3347 1869 
C 3347 986 2829 474 2093 474 
L 1133 474 
z
" transform="scale(0.015625)"/>
       <path id="IBMPlexSans-69" d="M 800 4077 
C 1018 4077 1114 4192 1114 4365 
L 1114 4448 
C 1114 4621 1018 4736 800 4736 
C 582 4736 486 4621 486 4448 
L 486 4365 
C 486 4192 582 4077 800 4077 
z
M 544 0 
L 1056 0 
L 1056 3302 
L 544 3302 
L 544 0 
z
" transform="scale(0.015625)"/>
       <path id="IBMPlexSans-76" d="M 1869 0 
L 3034 3302 
L 2541 3302 
L 1952 1664 
L 1594 538 
L 1562 538 
L 1203 1664 
L 627 3302 
L 115 3302 
L 1274 0 
L 1869 0 
z
" transform="scale(0.015625)"/>
       <path id="IBMPlexSans-79" d="M 1779 1056 
L 1600 518 
L 1568 518 
L 1414 1056 
L 621 3302 
L 109 3302 
L 1344 -128 
L 1094 -832 
L 576 -832 
L 576 -1280 
L 838 -1280 
C 1325 -1280 1459 -1165 1606 -768 
L 3085 3302 
L 2579 3302 
L 1779 1056 
z
" transform="scale(0.015625)"/>
       <path id="IBMPlexSans-5b" d="M 1645 -883 
L 1645 -480 
L 1037 -480 
L 1037 4461 
L 1645 4461 
L 1645 4864 
L 595 4864 
L 595 -883 
L 1645 -883 
z
" transform="scale(0.015625)"/>
       <path id="DejaVuSans-32" d="M 1228 531 
L 3431 531 
L 3431 0 
L 469 0 
L 469 531 
Q 828 903 1448 1529 
Q 2069 2156 2228 2338 
Q 2531 2678 2651 2914 
Q 2772 3150 2772 3378 
Q 2772 3750 2511 3984 
Q 2250 4219 1831 4219 
Q 1534 4219 1204 4116 
Q 875 4013 500 3803 
L 500 4441 
Q 881 4594 1212 4672 
Q 1544 4750 1819 4750 
Q 2544 4750 2975 4387 
Q 3406 4025 3406 3419 
Q 3406 3131 3298 2873 
Q 3191 2616 2906 2266 
Q 2828 2175 2409 1742 
Q 1991 1309 1228 531 
z
" transform="scale(0.015625)"/>
       <path id="IBMPlexSans-2f" d="M 518 -966 
L 2189 4736 
L 1728 4736 
L 58 -966 
L 518 -966 
z
" transform="scale(0.015625)"/>
       <path id="IBMPlexSans-5d" d="M 384 4864 
L 384 4461 
L 992 4461 
L 992 -480 
L 384 -480 
L 384 -883 
L 1434 -883 
L 1434 4864 
L 384 4864 
z
" transform="scale(0.015625)"/>
      </defs>
      <use xlink:href="#IBMPlexSans-44" transform="translate(0 0.765625)"/>
      <use xlink:href="#IBMPlexSans-69" transform="translate(67.099991 0.765625)"/>
      <use xlink:href="#IBMPlexSans-66" transform="translate(92.099976 0.765625)"/>
      <use xlink:href="#IBMPlexSans-66" transform="translate(124.499969 0.765625)"/>
      <use xlink:href="#IBMPlexSans-75" transform="translate(156.899963 0.765625)"/>
      <use xlink:href="#IBMPlexSans-73" transform="translate(213.699951 0.765625)"/>
      <use xlink:href="#IBMPlexSans-69" transform="translate(262.399948 0.765625)"/>
      <use xlink:href="#IBMPlexSans-76" transform="translate(287.399933 0.765625)"/>
      <use xlink:href="#IBMPlexSans-69" transform="translate(336.59993 0.765625)"/>
      <use xlink:href="#IBMPlexSans-74" transform="translate(361.599915 0.765625)"/>
      <use xlink:href="#IBMPlexSans-79" transform="translate(396.699905 0.765625)"/>
      <use xlink:href="#IBMPlexSans-20" transform="translate(446.599899 0.765625)"/>
      <use xlink:href="#IBMPlexSans-5b" transform="translate(470.19989 0.765625)"/>
      <use xlink:href="#IBMPlexSans-6d" transform="translate(501.899887 0.765625)"/>
      <use xlink:href="#DejaVuSans-32" transform="translate(590.156906 39.046875) scale(0.7)"/>
      <use xlink:href="#IBMPlexSans-2f" transform="translate(637.427414 0.765625)"/>
      <use xlink:href="#IBMPlexSans-73" transform="translate(675.727402 0.765625)"/>
      <use xlink:href="#IBMPlexSans-5d" transform="translate(724.427399 0.765625)"/>
     </g>
    </g>
    <g id="text_13">
     <!-- 1e−8 -->
     <g transform="translate(50.020313 19.08) scale(0.1 -0.1)">
      <defs>
       <path id="IBMPlexSans-2212" d="M 3411 1734 
L 3411 2170 
L 429 2170 
L 429 1734 
L 3411 1734 
z
" transform="scale(0.015625)"/>
      </defs>
      <use xlink:href="#IBMPlexSans-31"/>
      <use xlink:href="#IBMPlexSans-65" transform="translate(59.999985 0)"/>
      <use xlink:href="#IBMPlexSans-2212" transform="translate(114.899979 0)"/>
      <use xlink:href="#IBMPlexSans-38" transform="translate(174.899963 0)"/>
     </g>
    </g>
   </g>
   <g id="LineCollection_1">
    <path d="M 529.157351 263.64636 
L 529.157351 236.292747 
" clip-path="url(#pf8f3de3608)" style="fill: none; stroke: #1f77b4; stroke-width: 1.5"/>
    <path d="M 430.311632 206.501458 
L 430.311632 181.335866 
" clip-path="url(#pf8f3de3608)" style="fill: none; stroke: #1f77b4; stroke-width: 1.5"/>
    <path d="M 351.857733 90.204424 
L 351.857733 71.818315 
" clip-path="url(#pf8f3de3608)" style="fill: none; stroke: #1f77b4; stroke-width: 1.5"/>
    <path d="M 289.588832 45.435994 
L 289.588832 33.58316 
" clip-path="url(#pf8f3de3608)" style="fill: none; stroke: #1f77b4; stroke-width: 1.5"/>
   </g>
   <g id="line2d_11">
    <path d="M 529.157351 249.969553 
L 430.311632 193.918662 
L 351.857733 81.01137 
L 289.588832 39.509577 
" clip-path="url(#pf8f3de3608)" style="fill: none; stroke: #1f77b4; stroke-width: 1.5; stroke-linecap: square"/>
    <defs>
     <path id="mc7c07d0dd5" d="M 0 3 
C 0.795609 3 1.55874 2.683901 2.12132 2.12132 
C 2.683901 1.55874 3 0.795609 3 0 
C 3 -0.795609 2.683901 -1.55874 2.12132 -2.12132 
C 1.55874 -2.683901 0.795609 -3 0 -3 
C -0.795609 -3 -1.55874 -2.683901 -2.12132 -2.12132 
C -2.683901 -1.55874 -3 -0.795609 -3 0 
C -3 0.795609 -2.683901 1.55874 -2.12132 2.12132 
C -1.55874 2.683901 -0.795609 3 0 3 
z
" style="stroke: #1f77b4"/>
    </defs>
    <g clip-path="url(#pf8f3de3608)">
     <use xlink:href="#mc7c07d0dd5" x="529.157351" y="249.969553" style="fill: #1f77b4; stroke: #1f77b4"/>
     <use xlink:href="#mc7c07d0dd5" x="430.311632" y="193.918662" style="fill: #1f77b4; stroke: #1f77b4"/>
     <use xlink:href="#mc7c07d0dd5" x="351.857733" y="81.01137" style="fill: #1f77b4; stroke: #1f77b4"/>
     <use xlink:href="#mc7c07d0dd5" x="289.588832" y="39.509577" style="fill: #1f77b4; stroke: #1f77b4"/>
    </g>
   </g>
   <g id="patch_3">
    <path d="M 50.020313 275.14952 
L 50.020313 22.08 
" style="fill: none; stroke: #000000; stroke-width: 0.8; stroke-linejoin: miter; stroke-linecap: square"/>
   </g>
   <g id="patch_4">
    <path d="M 50.020313 275.14952 
L 541.135777 275.14952 
" style="fill: none; stroke: #000000; stroke-width: 0.8; stroke-linejoin: miter; stroke-linecap: square"/>
   </g>
   <g id="text_14">
    <!-- Diffusivity of TIP4P Water at Ambient Conditions -->
    <g transform="translate(165.17742 16.08) scale(0.12 -0.12)">
     <defs>
      <path id="IBMPlexSans-54" d="M 3520 3994 
L 3520 4467 
L 141 4467 
L 141 3994 
L 1562 3994 
L 1562 0 
L 2099 0 
L 2099 3994 
L 3520 3994 
z
" transform="scale(0.015625)"/>
      <path id="IBMPlexSans-49" d="M 2176 0 
L 2176 448 
L 1549 448 
L 1549 4019 
L 2176 4019 
L 2176 4467 
L 384 4467 
L 384 4019 
L 1011 4019 
L 1011 448 
L 384 448 
L 384 0 
L 2176 0 
z
" transform="scale(0.015625)"/>
      <path id="IBMPlexSans-50" d="M 1133 0 
L 1133 1907 
L 2374 1907 
C 3174 1907 3622 2400 3622 3187 
C 3622 3974 3174 4467 2374 4467 
L 595 4467 
L 595 0 
L 1133 0 
z
M 1133 3994 
L 2374 3994 
C 2797 3994 3046 3763 3046 3354 
L 3046 3021 
C 3046 2611 2797 2381 2374 2381 
L 1133 2381 
L 1133 3994 
z
" transform="scale(0.015625)"/>
      <path id="IBMPlexSans-41" d="M 3955 0 
L 2394 4467 
L 1709 4467 
L 147 0 
L 691 0 
L 1139 1318 
L 2944 1318 
L 3392 0 
L 3955 0 
z
M 2810 1792 
L 1267 1792 
L 2022 3968 
L 2054 3968 
L 2810 1792 
z
" transform="scale(0.015625)"/>
      <path id="IBMPlexSans-6e" d="M 1056 0 
L 1056 2291 
C 1056 2714 1453 2918 1862 2918 
C 2355 2918 2611 2618 2611 2029 
L 2611 0 
L 3123 0 
L 3123 2118 
C 3123 2918 2694 3379 2016 3379 
C 1523 3379 1242 3136 1082 2765 
L 1056 2765 
L 1056 3302 
L 544 3302 
L 544 0 
L 1056 0 
z
" transform="scale(0.015625)"/>
      <path id="IBMPlexSans-43" d="M 2170 -77 
C 2912 -77 3456 314 3738 941 
L 3309 1210 
C 3130 723 2739 403 2170 403 
C 1402 403 947 960 947 1875 
L 947 2541 
C 947 3456 1402 4064 2170 4064 
C 2720 4064 3091 3763 3270 3302 
L 3706 3565 
C 3424 4186 2912 4544 2170 4544 
C 1043 4544 371 3699 371 2208 
C 371 717 1043 -77 2170 -77 
z
" transform="scale(0.015625)"/>
      <path id="IBMPlexSans-64" d="M 2656 0 
L 3168 0 
L 3168 4736 
L 2656 4736 
L 2656 2765 
L 2630 2765 
C 2458 3181 2118 3379 1664 3379 
C 838 3379 320 2707 320 1651 
C 320 595 838 -77 1664 -77 
C 2118 -77 2432 128 2630 538 
L 2656 538 
L 2656 0 
z
M 1805 384 
C 1229 384 870 781 870 1370 
L 870 1933 
C 870 2522 1229 2918 1805 2918 
C 2272 2918 2656 2650 2656 2285 
L 2656 1056 
C 2656 627 2272 384 1805 384 
z
" transform="scale(0.015625)"/>
     </defs>
     <use xlink:href="#IBMPlexSans-44"/>
     <use xlink:href="#IBMPlexSans-69" transform="translate(67.099991 0)"/>
     <use xlink:href="#IBMPlexSans-66" transform="translate(92.099976 0)"/>
     <use xlink:href="#IBMPlexSans-66" transform="translate(124.499969 0)"/>
     <use xlink:href="#IBMPlexSans-75" transform="translate(156.899963 0)"/>
     <use xlink:href="#IBMPlexSans-73" transform="translate(213.699951 0)"/>
     <use xlink:href="#IBMPlexSans-69" transform="translate(262.399948 0)"/>
     <use xlink:href="#IBMPlexSans-76" transform="translate(287.399933 0)"/>
     <use xlink:href="#IBMPlexSans-69" transform="translate(336.59993 0)"/>
     <use xlink:href="#IBMPlexSans-74" transform="translate(361.599915 0)"/>
     <use xlink:href="#IBMPlexSans-79" transform="translate(396.699905 0)"/>
     <use xlink:href="#IBMPlexSans-20" transform="translate(446.599899 0)"/>
     <use xlink:href="#IBMPlexSans-6f" transform="translate(470.19989 0)"/>
     <use xlink:href="#IBMPlexSans-66" transform="translate(526.199875 0)"/>
     <use xlink:href="#IBMPlexSans-20" transform="translate(558.599869 0)"/>
     <use xlink:href="#IBMPlexSans-54" transform="translate(582.19986 0)"/>
     <use xlink:href="#IBMPlexSans-49" transform="translate(639.399857 0)"/>
     <use xlink:href="#IBMPlexSans-50" transform="translate(679.399841 0)"/>
     <use xlink:href="#IBMPlexSans-34" transform="translate(739.999832 0)"/>
     <use xlink:href="#IBMPlexSans-50" transform="translate(799.999817 0)"/>
     <use xlink:href="#IBMPlexSans-20" transform="translate(860.599808 0)"/>
     <use xlink:href="#IBMPlexSans-57" transform="translate(884.199799 0)"/>
     <use xlink:href="#IBMPlexSans-61" transform="translate(973.299789 0)"/>
     <use xlink:href="#IBMPlexSans-74" transform="translate(1026.699783 0)"/>
     <use xlink:href="#IBMPlexSans-65" transform="translate(1061.799774 0)"/>
     <use xlink:href="#IBMPlexSans-72" transform="translate(1116.699768 0)"/>
     <use xlink:href="#IBMPlexSans-20" transform="translate(1153.399765 0)"/>
     <use xlink:href="#IBMPlexSans-61" transform="translate(1176.999756 0)"/>
     <use xlink:href="#IBMPlexSans-74" transform="translate(1230.39975 0)"/>
     <use xlink:href="#IBMPlexSans-20" transform="translate(1265.499741 0)"/>
     <use xlink:href="#IBMPlexSans-41" transform="translate(1289.099731 0)"/>
     <use xlink:href="#IBMPlexSans-6d" transform="translate(1353.199722 0)"/>
     <use xlink:href="#IBMPlexSans-62" transform="translate(1440.49971 0)"/>
     <use xlink:href="#IBMPlexSans-69" transform="translate(1498.499695 0)"/>
     <use xlink:href="#IBMPlexSans-65" transform="translate(1523.49968 0)"/>
     <use xlink:href="#IBMPlexSans-6e" transform="translate(1578.399673 0)"/>
     <use xlink:href="#IBMPlexSans-74" transform="translate(1635.199661 0)"/>
     <use xlink:href="#IBMPlexSans-20" transform="translate(1670.299652 0)"/>
     <use xlink:href="#IBMPlexSans-43" transform="translate(1693.899643 0)"/>
     <use xlink:href="#IBMPlexSans-6f" transform="translate(1755.999634 0)"/>
     <use xlink:href="#IBMPlexSans-6e" transform="translate(1811.999619 0)"/>
     <use xlink:href="#IBMPlexSans-64" transform="translate(1868.799606 0)"/>
     <use xlink:href="#IBMPlexSans-69" transform="translate(1926.799591 0)"/>
     <use xlink:href="#IBMPlexSans-74" transform="translate(1951.799576 0)"/>
     <use xlink:href="#IBMPlexSans-69" transform="translate(1986.899567 0)"/>
     <use xlink:href="#IBMPlexSans-6f" transform="translate(2011.899551 0)"/>
     <use xlink:href="#IBMPlexSans-6e" transform="translate(2067.899536 0)"/>
     <use xlink:href="#IBMPlexSans-73" transform="translate(2124.699524 0)"/>
    </g>
   </g>
   <g id="legend_1">
    <g id="patch_5">
     <path d="M 530.135777 35.08 
L 534.135777 35.08 
Q 536.135777 35.08 536.135777 33.08 
L 536.135777 29.08 
Q 536.135777 27.08 534.135777 27.08 
L 530.135777 27.08 
Q 528.135777 27.08 528.135777 29.08 
L 528.135777 33.08 
Q 528.135777 35.08 530.135777 35.08 
z
" style="fill: #ffffff; opacity: 0.8; stroke: #cccccc; stroke-linejoin: miter"/>
    </g>
   </g>
  </g>
 </g>
 <defs>
  <clipPath id="pf8f3de3608">
   <rect x="50.020313" y="22.08" width="491.115464" height="253.06952"/>
  </clipPath>
 </defs>
</svg>