<?xml version="1.0" encoding="utf-8" standalone="no"?>
<!DOCTYPE svg PUBLIC "-//W3C//DTD SVG 1.1//EN"
  "http://www.w3.org/Graphics/SVG/1.1/DTD/svg11.dtd">
<svg xmlns:xlink="http://www.w3.org/1999/xlink" width="548.39952pt" height="312.14952pt" viewBox="0 0 548.39952 312.14952" xmlns="http://www.w3.org/2000/svg" version="1.1">
 <metadata>
  <rdf:RDF xmlns:dc="http://purl.org/dc/elements/1.1/" xmlns:cc="http://creativecommons.org/ns#" xmlns:rdf="http://www.w3.org/1999/02/22-rdf-syntax-ns#">
   <cc:Work>
    <dc:type rdf:resource="http://purl.org/dc/dcmitype/StillImage"/>
    <dc:date>2025-06-25T08:39:05.949537</dc:date>
    <dc:format>image/svg+xml</dc:format>
    <dc:creator>
     <cc:Agent>
      <dc:title>Matplotlib v3.10.1, https://matplotlib.org/</dc:title>
     </cc:Agent>
    </dc:creator>
   </cc:Work>
  </rdf:RDF>
 </metadata>
 <defs>
  <style type="text/css">*{stroke-linejoin: round; stroke-linecap: butt}</style>
 </defs>
 <g id="figure_1">
  <g id="patch_1">
   <path d="M 0 312.14952 
L 548.39952 312.14952 
L 548.39952 0 
L 0 0 
z
" style="fill: #ffffff"/>
  </g>
  <g id="axes_1">
   <g id="patch_2">
    <path d="M 42.320312 274.94952 
L 541.19952 274.94952 
L 541.19952 22.32 
L 42.320312 22.32 
z
" style="fill: #ffffff"/>
   </g>
   <g id="matplotlib.axis_1">
    <g id="xtick_1">
     <g id="line2d_1">
      <defs>
       <path id="mcda927212b" d="M 0 0 
L 0 3.5 
" style="stroke: #000000; stroke-width: 0.8"/>
      </defs>
      <g>
       <use xlink:href="#mcda927212b" x="96.544202" y="274.94952" style="stroke: #000000; stroke-width: 0.8"/>
      </g>
     </g>
     <g id="text_1">
      <!-- 292 -->
      <g transform="translate(87.544202 289.34952) scale(0.1 -0.1)">
       <defs>
        <path id="IBMPlexSans-32" d="M 3411 474 
L 1062 474 
L 2266 1555 
C 2835 2067 3245 2554 3245 3245 
C 3245 4006 2746 4544 1875 4544 
C 1011 4544 614 4019 442 3494 
L 922 3309 
C 1043 3731 1299 4064 1850 4064 
C 2400 4064 2675 3725 2675 3232 
L 2675 3155 
C 2675 2726 2355 2278 1939 1894 
L 480 550 
L 480 0 
L 3411 0 
L 3411 474 
z
" transform="scale(0.015625)"/>
        <path id="IBMPlexSans-39" d="M 3411 2829 
C 3411 3891 2842 4544 1914 4544 
C 1018 4544 429 3942 429 3066 
C 429 2221 979 1690 1747 1690 
C 2291 1690 2611 1965 2822 2330 
L 2854 2317 
C 2611 1280 2080 698 1126 0 
L 1818 0 
C 2534 467 3411 1504 3411 2829 
z
M 1920 2144 
C 1331 2144 986 2483 986 3085 
L 986 3136 
C 986 3738 1331 4077 1920 4077 
C 2509 4077 2854 3738 2854 3136 
L 2854 3085 
C 2854 2483 2509 2144 1920 2144 
z
" transform="scale(0.015625)"/>
       </defs>
       <use xlink:href="#IBMPlexSans-32"/>
       <use xlink:href="#IBMPlexSans-39" transform="translate(59.999985 0)"/>
       <use xlink:href="#IBMPlexSans-32" transform="translate(119.999969 0)"/>
      </g>
     </g>
    </g>
    <g id="xtick_2">
     <g id="line2d_2">
      <g>
       <use xlink:href="#mcda927212b" x="161.7486" y="274.94952" style="stroke: #000000; stroke-width: 0.8"/>
      </g>
     </g>
     <g id="text_2">
      <!-- 294 -->
      <g transform="translate(152.7486 289.34952) scale(0.1 -0.1)">
       <defs>
        <path id="IBMPlexSans-34" d="M 2912 0 
L 2912 877 
L 3558 877 
L 3558 1325 
L 2912 1325 
L 2912 4467 
L 2112 4467 
L 243 1350 
L 243 877 
L 2400 877 
L 2400 0 
L 2912 0 
z
M 2368 4051 
L 2400 4051 
L 2400 1325 
L 749 1325 
L 2368 4051 
z
" transform="scale(0.015625)"/>
       </defs>
       <use xlink:href="#IBMPlexSans-32"/>
       <use xlink:href="#IBMPlexSans-39" transform="translate(59.999985 0)"/>
       <use xlink:href="#IBMPlexSans-34" transform="translate(119.999969 0)"/>
      </g>
     </g>
    </g>
    <g id="xtick_3">
     <g id="line2d_3">
      <g>
       <use xlink:href="#mcda927212b" x="226.952997" y="274.94952" style="stroke: #000000; stroke-width: 0.8"/>
      </g>
     </g>
     <g id="text_3">
      <!-- 296 -->
      <g transform="translate(217.952997 289.34952) scale(0.1 -0.1)">
       <defs>
        <path id="IBMPlexSans-36" d="M 1926 -77 
C 2822 -77 3411 525 3411 1402 
C 3411 2246 2861 2778 2093 2778 
C 1549 2778 1229 2502 1018 2138 
L 986 2150 
C 1229 3187 1760 3770 2714 4467 
L 2022 4467 
C 1306 4000 429 2963 429 1638 
C 429 576 998 -77 1926 -77 
z
M 1920 390 
C 1331 390 986 730 986 1331 
L 986 1382 
C 986 1984 1331 2323 1920 2323 
C 2509 2323 2854 1984 2854 1382 
L 2854 1331 
C 2854 730 2509 390 1920 390 
z
" transform="scale(0.015625)"/>
       </defs>
       <use xlink:href="#IBMPlexSans-32"/>
       <use xlink:href="#IBMPlexSans-39" transform="translate(59.999985 0)"/>
       <use xlink:href="#IBMPlexSans-36" transform="translate(119.999969 0)"/>
      </g>
     </g>
    </g>
    <g id="xtick_4">
     <g id="line2d_4">
      <g>
       <use xlink:href="#mcda927212b" x="292.157395" y="274.94952" style="stroke: #000000; stroke-width: 0.8"/>
      </g>
     </g>
     <g id="text_4">
      <!-- 298 -->
      <g transform="translate(283.157395 289.34952) scale(0.1 -0.1)">
       <defs>
        <path id="IBMPlexSans-38" d="M 1920 -77 
C 2938 -77 3469 480 3469 1216 
C 3469 1824 3104 2176 2566 2323 
L 2566 2374 
C 3034 2534 3334 2912 3334 3424 
C 3334 4102 2810 4544 1920 4544 
C 1030 4544 506 4102 506 3424 
C 506 2912 806 2534 1274 2374 
L 1274 2323 
C 736 2176 371 1824 371 1216 
C 371 480 902 -77 1920 -77 
z
M 1920 390 
C 1299 390 941 685 941 1190 
L 941 1325 
C 941 1830 1299 2125 1920 2125 
C 2541 2125 2899 1830 2899 1325 
L 2899 1190 
C 2899 685 2541 390 1920 390 
z
M 1920 2573 
C 1363 2573 1062 2822 1062 3277 
L 1062 3373 
C 1062 3827 1363 4077 1920 4077 
C 2477 4077 2778 3827 2778 3373 
L 2778 3277 
C 2778 2822 2477 2573 1920 2573 
z
" transform="scale(0.015625)"/>
       </defs>
       <use xlink:href="#IBMPlexSans-32"/>
       <use xlink:href="#IBMPlexSans-39" transform="translate(59.999985 0)"/>
       <use xlink:href="#IBMPlexSans-38" transform="translate(119.999969 0)"/>
      </g>
     </g>
    </g>
    <g id="xtick_5">
     <g id="line2d_5">
      <g>
       <use xlink:href="#mcda927212b" x="357.361792" y="274.94952" style="stroke: #000000; stroke-width: 0.8"/>
      </g>
     </g>
     <g id="text_5">
      <!-- 300 -->
      <g transform="translate(348.361792 289.34952) scale(0.1 -0.1)">
       <defs>
        <path id="IBMPlexSans-33" d="M 1184 2573 
L 1184 2106 
L 1709 2106 
C 2336 2106 2669 1805 2669 1280 
L 2669 1229 
C 2669 704 2336 403 1709 403 
C 1165 403 902 640 672 992 
L 269 685 
C 544 301 941 -77 1715 -77 
C 2624 -77 3232 454 3232 1222 
C 3232 1894 2771 2253 2291 2349 
L 2291 2374 
C 2765 2496 3149 2842 3149 3418 
C 3149 4141 2547 4544 1792 4544 
C 1075 4544 685 4173 461 3814 
L 858 3507 
C 1043 3846 1318 4064 1779 4064 
C 2253 4064 2579 3827 2579 3360 
L 2579 3315 
C 2579 2886 2272 2573 1670 2573 
L 1184 2573 
z
" transform="scale(0.015625)"/>
        <path id="IBMPlexSans-30" d="M 1920 -77 
C 2989 -77 3456 774 3456 2234 
C 3456 3693 2989 4544 1920 4544 
C 851 4544 384 3693 384 2234 
C 384 774 851 -77 1920 -77 
z
M 1920 390 
C 1222 390 947 1005 947 1869 
L 947 2598 
C 947 3462 1222 4077 1920 4077 
C 2618 4077 2893 3462 2893 2598 
L 2893 1869 
C 2893 1005 2618 390 1920 390 
z
" transform="scale(0.015625)"/>
       </defs>
       <use xlink:href="#IBMPlexSans-33"/>
       <use xlink:href="#IBMPlexSans-30" transform="translate(59.999985 0)"/>
       <use xlink:href="#IBMPlexSans-30" transform="translate(119.999969 0)"/>
      </g>
     </g>
    </g>
    <g id="xtick_6">
     <g id="line2d_6">
      <g>
       <use xlink:href="#mcda927212b" x="422.56619" y="274.94952" style="stroke: #000000; stroke-width: 0.8"/>
      </g>
     </g>
     <g id="text_6">
      <!-- 302 -->
      <g transform="translate(413.56619 289.34952) scale(0.1 -0.1)">
       <use xlink:href="#IBMPlexSans-33"/>
       <use xlink:href="#IBMPlexSans-30" transform="translate(59.999985 0)"/>
       <use xlink:href="#IBMPlexSans-32" transform="translate(119.999969 0)"/>
      </g>
     </g>
    </g>
    <g id="xtick_7">
     <g id="line2d_7">
      <g>
       <use xlink:href="#mcda927212b" x="487.770587" y="274.94952" style="stroke: #000000; stroke-width: 0.8"/>
      </g>
     </g>
     <g id="text_7">
      <!-- 304 -->
      <g transform="translate(478.770587 289.34952) scale(0.1 -0.1)">
       <use xlink:href="#IBMPlexSans-33"/>
       <use xlink:href="#IBMPlexSans-30" transform="translate(59.999985 0)"/>
       <use xlink:href="#IBMPlexSans-34" transform="translate(119.999969 0)"/>
      </g>
     </g>
    </g>
    <g id="text_8">
     <!-- Temperature [K] -->
     <g transform="translate(254.94351 302.94952) scale(0.1 -0.1)">
      <defs>
       <path id="IBMPlexSans-54" d="M 3520 3994 
L 3520 4467 
L 141 4467 
L 141 3994 
L 1562 3994 
L 1562 0 
L 2099 0 
L 2099 3994 
L 3520 3994 
z
" transform="scale(0.015625)"/>
       <path id="IBMPlexSans-65" d="M 1786 -77 
C 2406 -77 2880 230 3091 678 
L 2726 941 
C 2554 576 2234 371 1818 371 
C 1203 371 838 800 838 1370 
L 838 1523 
L 3213 1523 
L 3213 1766 
C 3213 2701 2669 3379 1786 3379 
C 890 3379 301 2701 301 1651 
C 301 602 890 -77 1786 -77 
z
M 1786 2950 
C 2310 2950 2662 2560 2662 1978 
L 2662 1907 
L 838 1907 
L 838 1952 
C 838 2528 1229 2950 1786 2950 
z
" transform="scale(0.015625)"/>
       <path id="IBMPlexSans-6d" d="M 1056 0 
L 1056 2291 
C 1056 2714 1440 2918 1843 2918 
C 2330 2918 2554 2618 2554 2029 
L 2554 0 
L 3066 0 
L 3066 2291 
C 3066 2714 3437 2918 3840 2918 
C 4339 2918 4563 2611 4563 2029 
L 4563 0 
L 5075 0 
L 5075 2118 
C 5075 2918 4672 3379 4000 3379 
C 3437 3379 3117 3066 2995 2707 
L 2982 2707 
C 2803 3181 2406 3379 1971 3379 
C 1459 3379 1229 3104 1082 2765 
L 1056 2765 
L 1056 3302 
L 544 3302 
L 544 0 
L 1056 0 
z
" transform="scale(0.015625)"/>
       <path id="IBMPlexSans-70" d="M 544 -1280 
L 1056 -1280 
L 1056 538 
L 1082 538 
C 1280 128 1594 -77 2048 -77 
C 2874 -77 3392 595 3392 1651 
C 3392 2707 2874 3379 2048 3379 
C 1594 3379 1254 3181 1082 2765 
L 1056 2765 
L 1056 3302 
L 544 3302 
L 544 -1280 
z
M 1907 384 
C 1440 384 1056 627 1056 1056 
L 1056 2285 
C 1056 2650 1440 2918 1907 2918 
C 2483 2918 2842 2522 2842 1933 
L 2842 1370 
C 2842 781 2483 384 1907 384 
z
" transform="scale(0.015625)"/>
       <path id="IBMPlexSans-72" d="M 1056 0 
L 1056 2240 
C 1056 2554 1389 2790 1939 2790 
L 2240 2790 
L 2240 3302 
L 2042 3302 
C 1504 3302 1203 3008 1088 2694 
L 1056 2694 
L 1056 3302 
L 544 3302 
L 544 0 
L 1056 0 
z
" transform="scale(0.015625)"/>
       <path id="IBMPlexSans-61" d="M 3232 0 
L 3232 448 
L 2854 448 
L 2854 2266 
C 2854 2963 2381 3379 1587 3379 
C 992 3379 595 3085 416 2733 
L 723 2445 
C 902 2746 1165 2938 1562 2938 
C 2086 2938 2342 2682 2342 2214 
L 2342 1888 
L 1690 1888 
C 730 1888 282 1542 282 922 
C 282 307 691 -77 1389 -77 
C 1850 -77 2202 134 2342 538 
L 2374 538 
C 2413 230 2566 0 2944 0 
L 3232 0 
z
M 1472 358 
C 1075 358 819 544 819 870 
L 819 1005 
C 819 1325 1082 1504 1664 1504 
L 2342 1504 
L 2342 960 
C 2342 621 1978 358 1472 358 
z
" transform="scale(0.015625)"/>
       <path id="IBMPlexSans-74" d="M 1914 0 
L 1914 448 
L 1242 448 
L 1242 2854 
L 1965 2854 
L 1965 3302 
L 1242 3302 
L 1242 4218 
L 781 4218 
L 781 3603 
C 781 3379 710 3302 493 3302 
L 186 3302 
L 186 2854 
L 730 2854 
L 730 544 
C 730 224 922 0 1274 0 
L 1914 0 
z
" transform="scale(0.015625)"/>
       <path id="IBMPlexSans-75" d="M 2579 0 
L 3091 0 
L 3091 3302 
L 2579 3302 
L 2579 1018 
C 2579 582 2182 384 1779 384 
C 1286 384 1024 685 1024 1274 
L 1024 3302 
L 512 3302 
L 512 1184 
C 512 384 947 -77 1626 -77 
C 2176 -77 2426 224 2554 538 
L 2579 538 
L 2579 0 
z
" transform="scale(0.015625)"/>
       <path id="IBMPlexSans-20" transform="scale(0.015625)"/>
       <path id="IBMPlexSans-5b" d="M 1645 -883 
L 1645 -480 
L 1037 -480 
L 1037 4461 
L 1645 4461 
L 1645 4864 
L 595 4864 
L 595 -883 
L 1645 -883 
z
" transform="scale(0.015625)"/>
       <path id="IBMPlexSans-4b" d="M 3251 0 
L 3917 0 
L 2138 2554 
L 3802 4467 
L 3142 4467 
L 1792 2867 
L 1152 2093 
L 1133 2093 
L 1133 4467 
L 595 4467 
L 595 0 
L 1133 0 
L 1133 1491 
L 1766 2195 
L 3251 0 
z
" transform="scale(0.015625)"/>
       <path id="IBMPlexSans-5d" d="M 384 4864 
L 384 4461 
L 992 4461 
L 992 -480 
L 384 -480 
L 384 -883 
L 1434 -883 
L 1434 4864 
L 384 4864 
z
" transform="scale(0.015625)"/>
      </defs>
      <use xlink:href="#IBMPlexSans-54"/>
      <use xlink:href="#IBMPlexSans-65" transform="translate(57.199997 0)"/>
      <use xlink:href="#IBMPlexSans-6d" transform="translate(112.099991 0)"/>
      <use xlink:href="#IBMPlexSans-70" transform="translate(199.399979 0)"/>
      <use xlink:href="#IBMPlexSans-65" transform="translate(257.399963 0)"/>
      <use xlink:href="#IBMPlexSans-72" transform="translate(312.299957 0)"/>
      <use xlink:href="#IBMPlexSans-61" transform="translate(348.999954 0)"/>
      <use xlink:href="#IBMPlexSans-74" transform="translate(402.399948 0)"/>
      <use xlink:href="#IBMPlexSans-75" transform="translate(437.499939 0)"/>
      <use xlink:href="#IBMPlexSans-72" transform="translate(494.299927 0)"/>
      <use xlink:href="#IBMPlexSans-65" transform="translate(530.999924 0)"/>
      <use xlink:href="#IBMPlexSans-20" transform="translate(585.899918 0)"/>
      <use xlink:href="#IBMPlexSans-5b" transform="translate(609.499908 0)"/>
      <use xlink:href="#IBMPlexSans-4b" transform="translate(641.199905 0)"/>
      <use xlink:href="#IBMPlexSans-5d" transform="translate(704.599899 0)"/>
     </g>
    </g>
   </g>
   <g id="matplotlib.axis_2">
    <g id="ytick_1">
     <g id="line2d_8">
      <defs>
       <path id="m320948de6b" d="M 0 0 
L -3.5 0 
" style="stroke: #000000; stroke-width: 0.8"/>
      </defs>
      <g>
       <use xlink:href="#m320948de6b" x="42.320312" y="263.488714" style="stroke: #000000; stroke-width: 0.8"/>
      </g>
     </g>
     <g id="text_9">
      <!-- 0.0 -->
      <g transform="translate(20.6 267.188714) scale(0.1 -0.1)">
       <defs>
        <path id="IBMPlexSans-2e" d="M 870 -77 
C 1139 -77 1261 77 1261 294 
L 1261 378 
C 1261 595 1139 749 870 749 
C 602 749 480 595 480 378 
L 480 294 
C 480 77 602 -77 870 -77 
z
" transform="scale(0.015625)"/>
       </defs>
       <use xlink:href="#IBMPlexSans-30"/>
       <use xlink:href="#IBMPlexSans-2e" transform="translate(59.999985 0)"/>
       <use xlink:href="#IBMPlexSans-30" transform="translate(87.199982 0)"/>
      </g>
     </g>
    </g>
    <g id="ytick_2">
     <g id="line2d_9">
      <g>
       <use xlink:href="#m320948de6b" x="42.320312" y="217.541128" style="stroke: #000000; stroke-width: 0.8"/>
      </g>
     </g>
     <g id="text_10">
      <!-- 0.2 -->
      <g transform="translate(20.6 221.241128) scale(0.1 -0.1)">
       <use xlink:href="#IBMPlexSans-30"/>
       <use xlink:href="#IBMPlexSans-2e" transform="translate(59.999985 0)"/>
       <use xlink:href="#IBMPlexSans-32" transform="translate(87.199982 0)"/>
      </g>
     </g>
    </g>
    <g id="ytick_3">
     <g id="line2d_10">
      <g>
       <use xlink:href="#m320948de6b" x="42.320312" y="171.593542" style="stroke: #000000; stroke-width: 0.8"/>
      </g>
     </g>
     <g id="text_11">
      <!-- 0.4 -->
      <g transform="translate(20.6 175.293542) scale(0.1 -0.1)">
       <use xlink:href="#IBMPlexSans-30"/>
       <use xlink:href="#IBMPlexSans-2e" transform="translate(59.999985 0)"/>
       <use xlink:href="#IBMPlexSans-34" transform="translate(87.199982 0)"/>
      </g>
     </g>
    </g>
    <g id="ytick_4">
     <g id="line2d_11">
      <g>
       <use xlink:href="#m320948de6b" x="42.320312" y="125.645956" style="stroke: #000000; stroke-width: 0.8"/>
      </g>
     </g>
     <g id="text_12">
      <!-- 0.6 -->
      <g transform="translate(20.6 129.345956) scale(0.1 -0.1)">
       <use xlink:href="#IBMPlexSans-30"/>
       <use xlink:href="#IBMPlexSans-2e" transform="translate(59.999985 0)"/>
       <use xlink:href="#IBMPlexSans-36" transform="translate(87.199982 0)"/>
      </g>
     </g>
    </g>
    <g id="ytick_5">
     <g id="line2d_12">
      <g>
       <use xlink:href="#m320948de6b" x="42.320312" y="79.69837" style="stroke: #000000; stroke-width: 0.8"/>
      </g>
     </g>
     <g id="text_13">
      <!-- 0.8 -->
      <g transform="translate(20.6 83.39837) scale(0.1 -0.1)">
       <use xlink:href="#IBMPlexSans-30"/>
       <use xlink:href="#IBMPlexSans-2e" transform="translate(59.999985 0)"/>
       <use xlink:href="#IBMPlexSans-38" transform="translate(87.199982 0)"/>
      </g>
     </g>
    </g>
    <g id="ytick_6">
     <g id="line2d_13">
      <g>
       <use xlink:href="#m320948de6b" x="42.320312" y="33.750784" style="stroke: #000000; stroke-width: 0.8"/>
      </g>
     </g>
     <g id="text_14">
      <!-- 1.0 -->
      <g transform="translate(20.6 37.450784) scale(0.1 -0.1)">
       <defs>
        <path id="IBMPlexSans-31" d="M 3501 0 
L 3501 474 
L 2349 474 
L 2349 4467 
L 1510 4467 
L 326 3360 
L 640 3021 
L 1766 4070 
L 1811 4070 
L 1811 474 
L 563 474 
L 563 0 
L 3501 0 
z
" transform="scale(0.015625)"/>
       </defs>
       <use xlink:href="#IBMPlexSans-31"/>
       <use xlink:href="#IBMPlexSans-2e" transform="translate(59.999985 0)"/>
       <use xlink:href="#IBMPlexSans-30" transform="translate(87.199982 0)"/>
      </g>
     </g>
    </g>
    <g id="text_15">
     <!-- Cumulative Probability -->
     <g transform="translate(14.6 199.449604) rotate(-90) scale(0.1 -0.1)">
      <defs>
       <path id="IBMPlexSans-43" d="M 2170 -77 
C 2912 -77 3456 314 3738 941 
L 3309 1210 
C 3130 723 2739 403 2170 403 
C 1402 403 947 960 947 1875 
L 947 2541 
C 947 3456 1402 4064 2170 4064 
C 2720 4064 3091 3763 3270 3302 
L 3706 3565 
C 3424 4186 2912 4544 2170 4544 
C 1043 4544 371 3699 371 2208 
C 371 717 1043 -77 2170 -77 
z
" transform="scale(0.015625)"/>
       <path id="IBMPlexSans-6c" d="M 1542 0 
L 1542 448 
L 1056 448 
L 1056 4736 
L 544 4736 
L 544 531 
C 544 224 736 0 1088 0 
L 1542 0 
z
" transform="scale(0.015625)"/>
       <path id="IBMPlexSans-69" d="M 800 4077 
C 1018 4077 1114 4192 1114 4365 
L 1114 4448 
C 1114 4621 1018 4736 800 4736 
C 582 4736 486 4621 486 4448 
L 486 4365 
C 486 4192 582 4077 800 4077 
z
M 544 0 
L 1056 0 
L 1056 3302 
L 544 3302 
L 544 0 
z
" transform="scale(0.015625)"/>
       <path id="IBMPlexSans-76" d="M 1869 0 
L 3034 3302 
L 2541 3302 
L 1952 1664 
L 1594 538 
L 1562 538 
L 1203 1664 
L 627 3302 
L 115 3302 
L 1274 0 
L 1869 0 
z
" transform="scale(0.015625)"/>
       <path id="IBMPlexSans-50" d="M 1133 0 
L 1133 1907 
L 2374 1907 
C 3174 1907 3622 2400 3622 3187 
C 3622 3974 3174 4467 2374 4467 
L 595 4467 
L 595 0 
L 1133 0 
z
M 1133 3994 
L 2374 3994 
C 2797 3994 3046 3763 3046 3354 
L 3046 3021 
C 3046 2611 2797 2381 2374 2381 
L 1133 2381 
L 1133 3994 
z
" transform="scale(0.015625)"/>
       <path id="IBMPlexSans-6f" d="M 1792 -77 
C 2675 -77 3283 602 3283 1651 
C 3283 2701 2675 3379 1792 3379 
C 909 3379 301 2701 301 1651 
C 301 602 909 -77 1792 -77 
z
M 1792 378 
C 1242 378 851 717 851 1414 
L 851 1888 
C 851 2586 1242 2925 1792 2925 
C 2342 2925 2733 2586 2733 1888 
L 2733 1414 
C 2733 717 2342 378 1792 378 
z
" transform="scale(0.015625)"/>
       <path id="IBMPlexSans-62" d="M 544 0 
L 1056 0 
L 1056 538 
L 1082 538 
C 1280 128 1594 -77 2048 -77 
C 2874 -77 3392 595 3392 1651 
C 3392 2707 2874 3379 2048 3379 
C 1594 3379 1254 3181 1082 2765 
L 1056 2765 
L 1056 4736 
L 544 4736 
L 544 0 
z
M 1907 384 
C 1440 384 1056 627 1056 1056 
L 1056 2285 
C 1056 2650 1440 2918 1907 2918 
C 2483 2918 2842 2522 2842 1933 
L 2842 1370 
C 2842 781 2483 384 1907 384 
z
" transform="scale(0.015625)"/>
       <path id="IBMPlexSans-79" d="M 1779 1056 
L 1600 518 
L 1568 518 
L 1414 1056 
L 621 3302 
L 109 3302 
L 1344 -128 
L 1094 -832 
L 576 -832 
L 576 -1280 
L 838 -1280 
C 1325 -1280 1459 -1165 1606 -768 
L 3085 3302 
L 2579 3302 
L 1779 1056 
z
" transform="scale(0.015625)"/>
      </defs>
      <use xlink:href="#IBMPlexSans-43"/>
      <use xlink:href="#IBMPlexSans-75" transform="translate(62.099991 0)"/>
      <use xlink:href="#IBMPlexSans-6d" transform="translate(118.899979 0)"/>
      <use xlink:href="#IBMPlexSans-75" transform="translate(206.199966 0)"/>
      <use xlink:href="#IBMPlexSans-6c" transform="translate(262.999954 0)"/>
      <use xlink:href="#IBMPlexSans-61" transform="translate(290.199951 0)"/>
      <use xlink:href="#IBMPlexSans-74" transform="translate(343.599945 0)"/>
      <use xlink:href="#IBMPlexSans-69" transform="translate(378.699936 0)"/>
      <use xlink:href="#IBMPlexSans-76" transform="translate(403.699921 0)"/>
      <use xlink:href="#IBMPlexSans-65" transform="translate(452.899918 0)"/>
      <use xlink:href="#IBMPlexSans-20" transform="translate(507.799911 0)"/>
      <use xlink:href="#IBMPlexSans-50" transform="translate(531.399902 0)"/>
      <use xlink:href="#IBMPlexSans-72" transform="translate(591.999893 0)"/>
      <use xlink:href="#IBMPlexSans-6f" transform="translate(628.69989 0)"/>
      <use xlink:href="#IBMPlexSans-62" transform="translate(684.699875 0)"/>
      <use xlink:href="#IBMPlexSans-61" transform="translate(742.69986 0)"/>
      <use xlink:href="#IBMPlexSans-62" transform="translate(796.099854 0)"/>
      <use xlink:href="#IBMPlexSans-69" transform="translate(854.099838 0)"/>
      <use xlink:href="#IBMPlexSans-6c" transform="translate(879.099823 0)"/>
      <use xlink:href="#IBMPlexSans-69" transform="translate(906.29982 0)"/>
      <use xlink:href="#IBMPlexSans-74" transform="translate(931.299805 0)"/>
      <use xlink:href="#IBMPlexSans-79" transform="translate(966.399796 0)"/>
     </g>
    </g>
   </g>
   <g id="line2d_14">
    <path d="M 120.005886 262.340024 
L 145.19777 260.042645 
L 160.084065 257.745266 
L 169.30318 255.447886 
L 184.92772 253.150507 
L 190.585945 250.853128 
L 197.801251 248.555749 
L 200.164234 246.258369 
L 209.197295 243.96099 
L 210.61608 241.663611 
L 212.666652 239.366231 
L 221.152496 237.068852 
L 224.854669 234.771473 
L 225.719272 232.474093 
L 232.348558 230.176714 
L 234.05488 227.879335 
L 235.798015 225.581956 
L 238.838552 223.284576 
L 240.678197 220.987197 
L 242.19946 218.689818 
L 245.486742 216.392438 
L 246.27573 214.095059 
L 246.84981 211.79768 
L 249.814732 209.5003 
L 251.343955 207.202921 
L 251.939924 204.905542 
L 255.614238 202.608163 
L 258.24884 200.310783 
L 258.607018 198.013404 
L 262.616627 195.716025 
L 264.582629 193.418645 
L 264.847283 191.121266 
L 265.789491 188.823887 
L 268.522592 186.526507 
L 269.148409 184.229128 
L 271.334292 181.931749 
L 271.87554 179.63437 
L 273.961929 177.33699 
L 277.734742 175.039611 
L 280.696679 172.742232 
L 281.031974 170.444852 
L 284.218767 168.147473 
L 284.468497 165.850094 
L 285.076406 163.552714 
L 286.959828 161.255335 
L 289.116858 158.957956 
L 290.260044 156.660577 
L 290.812236 154.363197 
L 294.259703 152.065818 
L 295.571034 149.768439 
L 298.013613 147.471059 
L 299.770677 145.17368 
L 300.296005 142.876301 
L 301.7914 140.578921 
L 302.912698 138.281542 
L 303.268886 135.984163 
L 304.547384 133.686784 
L 305.797029 131.389404 
L 306.615865 129.092025 
L 307.868495 126.794646 
L 308.93905 124.497266 
L 310.619504 122.199887 
L 311.951729 119.902508 
L 314.042098 117.605128 
L 315.734492 115.307749 
L 316.695604 113.01037 
L 319.606799 110.712991 
L 319.877422 108.415611 
L 324.862072 106.118232 
L 327.633976 103.820853 
L 327.942407 101.523473 
L 328.81298 99.226094 
L 330.141225 96.928715 
L 331.344107 94.631335 
L 332.985759 92.333956 
L 333.130025 90.036577 
L 334.263262 87.739198 
L 335.990478 85.441818 
L 338.997187 83.144439 
L 342.913272 80.84706 
L 346.786574 78.54968 
L 347.571581 76.252301 
L 347.939709 73.954922 
L 351.078745 71.657542 
L 355.105268 69.360163 
L 356.746919 67.062784 
L 358.782567 64.765405 
L 362.721535 62.468025 
L 363.925413 60.170646 
L 368.588697 57.873267 
L 371.877969 55.575887 
L 378.52019 53.278508 
L 380.197659 50.981129 
L 382.75366 48.683749 
L 386.481701 46.38637 
L 391.8106 44.088991 
L 402.414672 41.791612 
L 425.22268 39.494232 
L 433.567243 37.196853 
L 441.231267 34.899474 
" clip-path="url(#p7d6262e06b)" style="fill: none; stroke: #1f77b4; stroke-opacity: 0.2; stroke-width: 1.5; stroke-linecap: square"/>
   </g>
   <g id="line2d_15">
    <path d="M 104.251009 262.340024 
L 138.661014 260.042645 
L 163.848918 257.745266 
L 171.764662 255.447886 
L 185.689845 253.150507 
L 191.101324 250.853128 
L 195.943698 248.555749 
L 201.295481 246.258369 
L 204.868311 243.96099 
L 210.679756 241.663611 
L 214.822687 239.366231 
L 220.939579 237.068852 
L 222.058887 234.771473 
L 224.17214 232.474093 
L 229.965676 230.176714 
L 233.312655 227.879335 
L 233.605167 225.581956 
L 236.505418 223.284576 
L 237.038706 220.987197 
L 238.977844 218.689818 
L 246.747332 216.392438 
L 248.078561 214.095059 
L 248.36013 211.79768 
L 249.390888 209.5003 
L 252.268254 207.202921 
L 256.277863 204.905542 
L 257.139481 202.608163 
L 257.350409 200.310783 
L 258.392111 198.013404 
L 261.998769 195.716025 
L 265.876051 193.418645 
L 266.313825 191.121266 
L 268.019152 188.823887 
L 268.927532 186.526507 
L 269.702591 184.229128 
L 270.587092 181.931749 
L 271.898424 179.63437 
L 272.636669 177.33699 
L 274.590732 175.039611 
L 275.846346 172.742232 
L 277.721808 170.444852 
L 279.539564 168.147473 
L 280.313627 165.850094 
L 281.77221 163.552714 
L 281.986122 161.255335 
L 286.33401 158.957956 
L 289.812321 156.660577 
L 291.144546 154.363197 
L 291.65097 152.065818 
L 293.143381 149.768439 
L 295.774002 147.471059 
L 296.402804 145.17368 
L 298.494169 142.876301 
L 299.691082 140.578921 
L 300.536781 138.281542 
L 301.024301 135.984163 
L 301.455111 133.686784 
L 303.258937 131.389404 
L 305.522426 129.092025 
L 308.223688 126.794646 
L 313.033229 124.497266 
L 313.755556 122.199887 
L 315.433025 119.902508 
L 317.074676 117.605128 
L 320.051537 115.307749 
L 322.089174 113.01037 
L 322.364773 110.712991 
L 322.504064 108.415611 
L 324.380521 106.118232 
L 326.238075 103.820853 
L 329.423873 101.523473 
L 330.786941 99.226094 
L 333.222554 96.928715 
L 335.692991 94.631335 
L 336.87896 92.333956 
L 341.080592 90.036577 
L 341.594976 87.739198 
L 343.239612 85.441818 
L 344.774805 83.144439 
L 346.601515 80.84706 
L 347.803402 78.54968 
L 348.730687 76.252301 
L 350.142507 73.954922 
L 359.004439 71.657542 
L 360.130711 69.360163 
L 360.72469 67.062784 
L 361.06496 64.765405 
L 365.053675 62.468025 
L 366.492358 60.170646 
L 377.717273 57.873267 
L 380.825466 55.575887 
L 383.793372 53.278508 
L 387.520418 50.981129 
L 392.359807 48.683749 
L 400.201925 46.38637 
L 403.661332 44.088991 
L 413.764949 41.791612 
L 419.373427 39.494232 
L 428.861176 37.196853 
L 475.144797 34.899474 
" clip-path="url(#p7d6262e06b)" style="fill: none; stroke: #1f77b4; stroke-opacity: 0.2; stroke-width: 1.5; stroke-linecap: square"/>
   </g>
   <g id="line2d_16">
    <path d="M 140.269832 262.340024 
L 155.852585 260.042645 
L 171.595522 257.745266 
L 182.071247 255.447886 
L 186.67782 253.150507 
L 192.711137 250.853128 
L 199.756308 248.555749 
L 208.810264 246.258369 
L 211.308558 243.96099 
L 213.969028 241.663611 
L 218.862144 239.366231 
L 222.763304 237.068852 
L 224.674584 234.771473 
L 230.40345 232.474093 
L 231.383466 230.176714 
L 232.202302 227.879335 
L 236.190022 225.581956 
L 237.252618 223.284576 
L 239.870305 220.987197 
L 241.729848 218.689818 
L 243.015311 216.392438 
L 248.550163 214.095059 
L 251.270329 211.79768 
L 253.209468 209.5003 
L 253.670125 207.202921 
L 253.987511 204.905542 
L 255.393361 202.608163 
L 257.633967 200.310783 
L 260.698382 198.013404 
L 265.676068 195.716025 
L 265.995444 193.418645 
L 267.2232 191.121266 
L 268.753418 188.823887 
L 269.878695 186.526507 
L 271.963095 184.229128 
L 272.502352 181.931749 
L 273.749012 179.63437 
L 276.297054 177.33699 
L 277.233293 175.039611 
L 278.69685 172.742232 
L 280.318602 170.444852 
L 281.172261 168.147473 
L 282.033879 165.850094 
L 283.534249 163.552714 
L 283.91929 161.255335 
L 285.523134 158.957956 
L 289.693923 156.660577 
L 292.261864 154.363197 
L 293.836854 152.065818 
L 296.632636 149.768439 
L 298.516057 147.471059 
L 300.898939 145.17368 
L 302.024216 142.876301 
L 303.199241 140.578921 
L 306.081582 138.281542 
L 307.756066 135.984163 
L 310.526975 133.686784 
L 312.770565 131.389404 
L 314.007275 129.092025 
L 315.84891 126.794646 
L 317.173175 124.497266 
L 319.363038 122.199887 
L 319.965972 119.902508 
L 321.359883 117.605128 
L 321.963812 115.307749 
L 324.538717 113.01037 
L 326.843993 110.712991 
L 328.536386 108.415611 
L 332.105237 106.118232 
L 333.500143 103.820853 
L 334.395589 101.523473 
L 336.29095 99.226094 
L 339.432971 96.928715 
L 341.232818 94.631335 
L 343.811702 92.333956 
L 345.387688 90.036577 
L 348.982406 87.739198 
L 352.49554 85.441818 
L 358.568655 83.144439 
L 359.916799 80.84706 
L 360.560525 78.54968 
L 363.649814 76.252301 
L 364.575108 73.954922 
L 371.160617 71.657542 
L 371.317818 69.360163 
L 374.006146 67.062784 
L 375.234897 64.765405 
L 375.833851 62.468025 
L 377.020815 60.170646 
L 377.68046 57.873267 
L 380.653341 55.575887 
L 383.793372 53.278508 
L 387.762189 50.981129 
L 389.701327 48.683749 
L 396.441051 46.38637 
L 403.633474 44.088991 
L 423.229815 41.791612 
L 427.074264 39.494232 
L 440.535804 37.196853 
L 495.587832 34.899474 
" clip-path="url(#p7d6262e06b)" style="fill: none; stroke: #1f77b4; stroke-opacity: 0.2; stroke-width: 1.5; stroke-linecap: square"/>
   </g>
   <g id="line2d_17">
    <path d="M 146.382744 262.340024 
L 160.479056 260.042645 
L 178.008907 257.745266 
L 186.360434 255.447886 
L 191.17296 253.150507 
L 206.63234 250.853128 
L 213.27257 248.555749 
L 216.530999 246.258369 
L 217.548823 243.96099 
L 217.68712 241.663611 
L 219.802362 239.366231 
L 227.389776 237.068852 
L 228.869252 234.771473 
L 240.196646 232.474093 
L 242.20742 230.176714 
L 245.60912 227.879335 
L 248.313367 225.581956 
L 251.142977 223.284576 
L 255.24611 220.987197 
L 256.553462 218.689818 
L 257.091724 216.392438 
L 259.138316 214.095059 
L 261.579899 211.79768 
L 261.895295 209.5003 
L 263.631466 207.202921 
L 269.606081 204.905542 
L 271.171122 202.608163 
L 271.720329 200.310783 
L 277.829262 198.013404 
L 278.540644 195.716025 
L 280.080811 193.418645 
L 281.140423 191.121266 
L 282.037859 188.823887 
L 283.055682 186.526507 
L 286.178799 184.229128 
L 288.930804 181.931749 
L 290.191393 179.63437 
L 292.340464 177.33699 
L 292.827984 175.039611 
L 293.89456 172.742232 
L 296.705266 170.444852 
L 298.04943 168.147473 
L 301.107876 165.850094 
L 302.088887 163.552714 
L 304.006137 161.255335 
L 304.351381 158.957956 
L 305.025951 156.660577 
L 306.031835 154.363197 
L 306.595966 152.065818 
L 308.422676 149.768439 
L 309.459404 147.471059 
L 310.096166 145.17368 
L 310.914007 142.876301 
L 312.59446 140.578921 
L 314.045083 138.281542 
L 314.649012 135.984163 
L 315.450934 133.686784 
L 316.138437 131.389404 
L 316.453833 129.092025 
L 316.941354 126.794646 
L 317.346295 124.497266 
L 318.323326 122.199887 
L 319.595854 119.902508 
L 320.576865 117.605128 
L 321.359883 115.307749 
L 322.786627 113.01037 
L 323.169679 110.712991 
L 324.757604 108.415611 
L 327.178293 106.118232 
L 328.542356 103.820853 
L 329.094548 101.523473 
L 330.240719 99.226094 
L 330.826739 96.928715 
L 331.455541 94.631335 
L 331.676417 92.333956 
L 332.147024 90.036577 
L 334.818438 87.739198 
L 337.949515 85.441818 
L 341.596966 83.144439 
L 342.088466 80.84706 
L 342.807808 78.54968 
L 342.828702 76.252301 
L 346.75772 73.954922 
L 349.327651 71.657542 
L 351.83689 69.360163 
L 352.33237 67.062784 
L 357.537897 64.765405 
L 368.205645 62.468025 
L 369.024481 60.170646 
L 378.502281 57.873267 
L 381.459243 55.575887 
L 382.876037 53.278508 
L 385.176339 50.981129 
L 388.031817 48.683749 
L 391.044496 46.38637 
L 396.101777 44.088991 
L 407.92863 41.791612 
L 418.73567 39.494232 
L 439.192635 37.196853 
L 454.369452 34.899474 
" clip-path="url(#p7d6262e06b)" style="fill: none; stroke: #1f77b4; stroke-opacity: 0.2; stroke-width: 1.5; stroke-linecap: square"/>
   </g>
   <g id="line2d_18">
    <path d="M 127.205273 262.340024 
L 167.702322 260.042645 
L 181.129039 257.745266 
L 185.710738 255.447886 
L 187.740416 253.150507 
L 192.723076 250.853128 
L 204.001718 248.555749 
L 207.777516 246.258369 
L 211.495607 243.96099 
L 221.553457 241.663611 
L 225.672509 239.366231 
L 228.166824 237.068852 
L 228.8205 234.771473 
L 229.210517 232.474093 
L 229.90001 230.176714 
L 232.216231 227.879335 
L 233.633025 225.581956 
L 235.947256 223.284576 
L 238.049565 220.987197 
L 240.767741 218.689818 
L 242.820303 216.392438 
L 243.944585 214.095059 
L 245.118615 211.79768 
L 248.805863 209.5003 
L 248.993906 207.202921 
L 250.971847 204.905542 
L 252.628423 202.608163 
L 253.437309 200.310783 
L 255.466987 198.013404 
L 259.113443 195.716025 
L 259.74523 193.418645 
L 259.99098 191.121266 
L 263.851348 188.823887 
L 264.911954 186.526507 
L 265.926793 184.229128 
L 268.132575 181.931749 
L 268.873806 179.63437 
L 272.471509 177.33699 
L 274.20768 175.039611 
L 275.935891 172.742232 
L 276.126919 170.444852 
L 279.27093 168.147473 
L 280.063897 165.850094 
L 281.459798 163.552714 
L 284.469492 161.255335 
L 284.535158 158.957956 
L 286.747905 156.660577 
L 287.732896 154.363197 
L 287.758764 152.065818 
L 289.911815 149.768439 
L 290.934613 147.471059 
L 293.39908 145.17368 
L 294.377106 142.876301 
L 295.702367 140.578921 
L 296.227695 138.281542 
L 296.673428 135.984163 
L 298.168823 133.686784 
L 299.548805 131.389404 
L 300.868096 129.092025 
L 302.576408 126.794646 
L 303.782276 124.497266 
L 304.558329 122.199887 
L 304.696626 119.902508 
L 309.884243 117.605128 
L 312.542724 115.307749 
L 314.178405 113.01037 
L 314.683835 110.712991 
L 319.852549 108.415611 
L 322.519983 106.118232 
L 327.716556 103.820853 
L 328.314515 101.523473 
L 330.967025 99.226094 
L 331.617716 96.928715 
L 334.402554 94.631335 
L 335.816363 92.333956 
L 336.759567 90.036577 
L 338.1097 87.739198 
L 342.045684 85.441818 
L 343.532124 83.144439 
L 344.544973 80.84706 
L 349.049067 78.54968 
L 351.124513 76.252301 
L 353.482521 73.954922 
L 354.678439 71.657542 
L 359.629261 69.360163 
L 363.641855 67.062784 
L 364.586053 64.765405 
L 374.728473 62.468025 
L 376.464643 60.170646 
L 381.677135 57.873267 
L 383.641146 55.575887 
L 384.08688 53.278508 
L 391.15195 50.981129 
L 403.575767 48.683749 
L 406.016355 46.38637 
L 412.195929 44.088991 
L 433.7921 41.791612 
L 439.27422 39.494232 
L 444.431989 37.196853 
L 464.233288 34.899474 
" clip-path="url(#p7d6262e06b)" style="fill: none; stroke: #1f77b4; stroke-opacity: 0.2; stroke-width: 1.5; stroke-linecap: square"/>
   </g>
   <g id="line2d_19">
    <path d="M 131.953127 262.340024 
L 161.07403 260.042645 
L 168.73507 257.745266 
L 170.522977 255.447886 
L 172.63822 253.150507 
L 180.912142 250.853128 
L 183.693995 248.555749 
L 195.833259 246.258369 
L 201.453676 243.96099 
L 205.062324 241.663611 
L 212.130379 239.366231 
L 215.216683 237.068852 
L 219.364589 234.771473 
L 221.226122 232.474093 
L 225.445663 230.176714 
L 235.39208 227.879335 
L 236.714355 225.581956 
L 239.37781 223.284576 
L 241.064233 220.987197 
L 243.323743 218.689818 
L 246.121514 216.392438 
L 251.599655 214.095059 
L 253.222402 211.79768 
L 256.24304 209.5003 
L 261.179933 207.202921 
L 262.154975 204.905542 
L 265.991464 202.608163 
L 266.606337 200.310783 
L 269.30561 198.013404 
L 271.850666 195.716025 
L 273.093347 193.418645 
L 275.1081 191.121266 
L 277.337761 188.823887 
L 277.730763 186.526507 
L 279.577372 184.229128 
L 281.418011 181.931749 
L 284.834635 179.63437 
L 285.688294 177.33699 
L 288.362693 175.039611 
L 290.101848 172.742232 
L 290.999285 170.444852 
L 291.959402 168.147473 
L 294.174139 165.850094 
L 295.893395 163.552714 
L 296.813715 161.255335 
L 297.71911 158.957956 
L 298.648384 156.660577 
L 298.962785 154.363197 
L 302.988313 152.065818 
L 303.707655 149.768439 
L 305.478648 147.471059 
L 307.552104 145.17368 
L 309.301209 142.876301 
L 311.626384 140.578921 
L 314.900732 138.281542 
L 317.970122 135.984163 
L 318.893426 133.686784 
L 319.253595 131.389404 
L 321.545937 129.092025 
L 322.473221 126.794646 
L 322.941838 124.497266 
L 323.133861 122.199887 
L 323.680084 119.902508 
L 324.99241 117.605128 
L 326.14853 115.307749 
L 327.140485 113.01037 
L 328.997044 110.712991 
L 330.46657 108.415611 
L 335.206465 106.118232 
L 338.28879 103.820853 
L 339.016091 101.523473 
L 340.453779 99.226094 
L 341.19501 96.928715 
L 343.76892 94.631335 
L 345.397637 92.333956 
L 346.192594 90.036577 
L 347.149727 87.739198 
L 348.572491 85.441818 
L 349.935559 83.144439 
L 352.027918 80.84706 
L 356.911084 78.54968 
L 357.553816 76.252301 
L 359.513848 73.954922 
L 367.170907 71.657542 
L 368.336977 69.360163 
L 371.013366 67.062784 
L 374.223043 64.765405 
L 376.039804 62.468025 
L 377.329246 60.170646 
L 381.772649 57.873267 
L 388.954127 55.575887 
L 389.962001 53.278508 
L 393.22839 50.981129 
L 395.776431 48.683749 
L 408.369389 46.38637 
L 411.716368 44.088991 
L 429.845172 41.791612 
L 431.262962 39.494232 
L 442.968433 37.196853 
L 461.770811 34.899474 
" clip-path="url(#p7d6262e06b)" style="fill: none; stroke: #1f77b4; stroke-opacity: 0.2; stroke-width: 1.5; stroke-linecap: square"/>
   </g>
   <g id="line2d_20">
    <path d="M 143.883455 262.340024 
L 176.138419 260.042645 
L 186.222138 257.745266 
L 197.140611 255.447886 
L 202.407824 253.150507 
L 203.210741 250.853128 
L 204.767822 248.555749 
L 206.252273 246.258369 
L 211.425961 243.96099 
L 214.419736 241.663611 
L 220.147607 239.366231 
L 225.009879 237.068852 
L 226.682374 234.771473 
L 227.809641 232.474093 
L 229.584614 230.176714 
L 229.884091 227.879335 
L 231.246164 225.581956 
L 237.621741 223.284576 
L 240.200625 220.987197 
L 244.887788 218.689818 
L 246.728428 216.392438 
L 248.018865 214.095059 
L 250.405726 211.79768 
L 252.33591 209.5003 
L 252.740851 207.202921 
L 253.240311 204.905542 
L 257.559346 202.608163 
L 259.290542 200.310783 
L 261.934098 198.013404 
L 263.72897 195.716025 
L 264.077199 193.418645 
L 267.595307 191.121266 
L 269.901579 188.823887 
L 272.702335 186.526507 
L 275.301119 184.229128 
L 275.461304 181.931749 
L 278.855045 179.63437 
L 280.699664 177.33699 
L 280.785229 175.039611 
L 282.292563 172.742232 
L 282.733322 170.444852 
L 283.019865 168.147473 
L 283.222832 165.850094 
L 285.25848 163.552714 
L 287.045392 161.255335 
L 287.822441 158.957956 
L 288.821361 156.660577 
L 290.807261 154.363197 
L 292.122572 152.065818 
L 293.243869 149.768439 
L 295.106397 147.471059 
L 296.496329 145.17368 
L 297.505198 142.876301 
L 298.652364 140.578921 
L 301.04022 138.281542 
L 303.490758 135.984163 
L 306.546219 133.686784 
L 308.577887 131.389404 
L 309.831512 129.092025 
L 312.10495 126.794646 
L 316.358319 124.497266 
L 316.976177 122.199887 
L 317.872618 119.902508 
L 319.412785 117.605128 
L 321.564841 115.307749 
L 322.599579 113.01037 
L 325.662999 110.712991 
L 326.586304 108.415611 
L 328.948292 106.118232 
L 329.202996 103.820853 
L 331.682387 101.523473 
L 333.809569 99.226094 
L 334.977629 96.928715 
L 336.809314 94.631335 
L 336.995368 92.333956 
L 338.965349 90.036577 
L 339.854826 87.739198 
L 340.729378 85.441818 
L 350.651916 83.144439 
L 354.927174 80.84706 
L 359.497929 78.54968 
L 361.927573 76.252301 
L 363.116526 73.954922 
L 364.173153 71.657542 
L 366.95998 69.360163 
L 371.212354 67.062784 
L 372.800279 64.765405 
L 379.552937 62.468025 
L 382.758635 60.170646 
L 385.931499 57.873267 
L 388.837719 55.575887 
L 392.72893 53.278508 
L 399.796985 50.981129 
L 401.78388 48.683749 
L 403.648398 46.38637 
L 405.141803 44.088991 
L 410.066757 41.791612 
L 423.454671 39.494232 
L 441.085011 37.196853 
L 459.511302 34.899474 
" clip-path="url(#p7d6262e06b)" style="fill: none; stroke: #1f77b4; stroke-opacity: 0.2; stroke-width: 1.5; stroke-linecap: square"/>
   </g>
   <g id="line2d_21">
    <path d="M 140.139495 262.340024 
L 173.70778 260.042645 
L 200.339343 257.745266 
L 201.520337 255.447886 
L 206.754717 253.150507 
L 210.413112 250.853128 
L 212.470649 248.555749 
L 213.667562 246.258369 
L 216.821522 243.96099 
L 218.276124 241.663611 
L 220.084925 239.366231 
L 221.988246 237.068852 
L 225.885427 234.771473 
L 228.252389 232.474093 
L 229.39856 230.176714 
L 234.6409 227.879335 
L 236.930257 225.581956 
L 242.128819 223.284576 
L 243.378464 220.987197 
L 246.280705 218.689818 
L 247.300518 216.392438 
L 249.774934 214.095059 
L 250.061477 211.79768 
L 251.379773 209.5003 
L 255.377442 207.202921 
L 259.775078 204.905542 
L 261.992799 202.608163 
L 263.447402 200.310783 
L 265.998428 198.013404 
L 268.332558 195.716025 
L 269.203131 193.418645 
L 272.027766 191.121266 
L 273.342082 188.823887 
L 275.463294 186.526507 
L 277.022365 184.229128 
L 277.203444 181.931749 
L 277.660122 179.63437 
L 278.93265 177.33699 
L 279.840036 175.039611 
L 281.054858 172.742232 
L 282.066712 170.444852 
L 283.621803 168.147473 
L 287.076236 165.850094 
L 291.758424 163.552714 
L 294.6537 161.255335 
L 296.589853 158.957956 
L 298.355872 156.660577 
L 300.634285 154.363197 
L 301.593407 152.065818 
L 304.268801 149.768439 
L 308.257516 147.471059 
L 310.452354 145.17368 
L 312.92677 142.876301 
L 312.996416 140.578921 
L 314.940529 138.281542 
L 315.43203 135.984163 
L 317.177155 133.686784 
L 319.063561 131.389404 
L 320.463442 129.092025 
L 321.088264 126.794646 
L 322.121012 124.497266 
L 323.925834 122.199887 
L 327.833959 119.902508 
L 331.756013 117.605128 
L 332.499233 115.307749 
L 333.313094 113.01037 
L 337.405283 110.712991 
L 340.016006 108.415611 
L 340.338366 106.118232 
L 344.258431 103.820853 
L 348.362559 101.523473 
L 349.292828 99.226094 
L 352.726366 96.928715 
L 353.281543 94.631335 
L 358.760678 92.333956 
L 361.268922 90.036577 
L 361.536561 87.739198 
L 362.354402 85.441818 
L 363.192142 83.144439 
L 364.783051 80.84706 
L 366.343117 78.54968 
L 367.961885 76.252301 
L 369.928881 73.954922 
L 372.7764 71.657542 
L 374.85682 69.360163 
L 376.380073 67.062784 
L 377.449634 64.765405 
L 378.480392 62.468025 
L 379.322111 60.170646 
L 382.360658 57.873267 
L 386.982155 55.575887 
L 387.654735 53.278508 
L 393.408474 50.981129 
L 400.328283 48.683749 
L 403.060388 46.38637 
L 406.049188 44.088991 
L 417.845199 41.791612 
L 427.330958 39.494232 
L 435.688455 37.196853 
L 456.126516 34.899474 
" clip-path="url(#p7d6262e06b)" style="fill: none; stroke: #1f77b4; stroke-opacity: 0.2; stroke-width: 1.5; stroke-linecap: square"/>
   </g>
   <g id="line2d_22">
    <path d="M 130.720396 262.340024 
L 157.022634 260.042645 
L 170.048391 257.745266 
L 186.836016 255.447886 
L 188.627903 253.150507 
L 190.577986 250.853128 
L 196.755569 248.555749 
L 199.172279 246.258369 
L 201.326324 243.96099 
L 203.455496 241.663611 
L 208.217279 239.366231 
L 214.543109 237.068852 
L 218.505955 234.771473 
L 224.594989 232.474093 
L 225.08251 230.176714 
L 227.085324 227.879335 
L 235.446801 225.581956 
L 236.567104 223.284576 
L 238.558974 220.987197 
L 239.057439 218.689818 
L 241.872125 216.392438 
L 244.733573 214.095059 
L 246.660772 211.79768 
L 248.534244 209.5003 
L 249.034699 207.202921 
L 249.384918 204.905542 
L 251.890177 202.608163 
L 255.249095 200.310783 
L 256.3296 198.013404 
L 256.701708 195.716025 
L 259.853678 193.418645 
L 259.977051 191.121266 
L 265.96858 188.823887 
L 268.565374 186.526507 
L 270.727379 184.229128 
L 275.238438 181.931749 
L 278.069042 179.63437 
L 280.061907 177.33699 
L 281.424975 175.039611 
L 282.153272 172.742232 
L 283.652646 170.444852 
L 285.721127 168.147473 
L 288.08013 165.850094 
L 289.545677 163.552714 
L 289.855103 161.255335 
L 291.48581 158.957956 
L 292.177294 156.660577 
L 293.243869 154.363197 
L 295.708336 152.065818 
L 296.115267 149.768439 
L 296.404794 147.471059 
L 298.89115 145.17368 
L 301.653104 142.876301 
L 303.153473 140.578921 
L 307.093436 138.281542 
L 308.072457 135.984163 
L 310.496132 133.686784 
L 310.742877 131.389404 
L 314.040108 129.092025 
L 316.087695 126.794646 
L 316.415031 124.497266 
L 316.550342 122.199887 
L 318.120358 119.902508 
L 318.611858 117.605128 
L 322.195633 115.307749 
L 323.726846 113.01037 
L 325.131701 110.712991 
L 327.694667 108.415611 
L 328.302575 106.118232 
L 328.993064 103.820853 
L 329.633805 101.523473 
L 333.614561 99.226094 
L 334.276196 96.928715 
L 335.177612 94.631335 
L 336.557594 92.333956 
L 338.256952 90.036577 
L 342.35511 87.739198 
L 344.422596 85.441818 
L 345.803573 83.144439 
L 349.672895 80.84706 
L 353.167125 78.54968 
L 355.720141 76.252301 
L 358.076159 73.954922 
L 361.623121 71.657542 
L 365.913303 69.360163 
L 371.621275 67.062784 
L 373.048019 64.765405 
L 374.388203 62.468025 
L 374.539434 60.170646 
L 378.448554 57.873267 
L 380.406596 55.575887 
L 386.024028 53.278508 
L 387.601008 50.981129 
L 390.23959 48.683749 
L 394.941677 46.38637 
L 402.842496 44.088991 
L 407.182425 41.791612 
L 419.799261 39.494232 
L 449.554936 37.196853 
L 495.296315 34.899474 
" clip-path="url(#p7d6262e06b)" style="fill: none; stroke: #1f77b4; stroke-opacity: 0.2; stroke-width: 1.5; stroke-linecap: square"/>
   </g>
   <g id="line2d_23">
    <path d="M 152.332486 262.340024 
L 152.805083 260.042645 
L 169.670313 257.745266 
L 176.36626 255.447886 
L 179.184926 253.150507 
L 191.653516 250.853128 
L 195.735755 248.555749 
L 203.572899 246.258369 
L 208.123755 243.96099 
L 208.833147 241.663611 
L 214.975908 239.366231 
L 223.350319 237.068852 
L 229.908965 234.771473 
L 230.750684 232.474093 
L 233.068894 230.176714 
L 235.383125 227.879335 
L 237.331218 225.581956 
L 240.245398 223.284576 
L 243.664012 220.987197 
L 244.871869 218.689818 
L 249.371984 216.392438 
L 250.277379 214.095059 
L 254.161626 211.79768 
L 257.124557 209.5003 
L 258.470711 207.202921 
L 259.390036 204.905542 
L 260.562076 202.608163 
L 261.945042 200.310783 
L 263.432478 198.013404 
L 265.343758 195.716025 
L 267.352542 193.418645 
L 268.654919 191.121266 
L 271.802909 188.823887 
L 272.440666 186.526507 
L 274.887224 184.229128 
L 275.284205 181.931749 
L 275.649348 179.63437 
L 278.561538 177.33699 
L 280.595195 175.039611 
L 282.199039 172.742232 
L 283.348195 170.444852 
L 285.744011 168.147473 
L 286.354904 165.850094 
L 287.467247 163.552714 
L 287.633402 161.255335 
L 289.754614 158.957956 
L 291.454967 156.660577 
L 293.392116 154.363197 
L 293.635876 152.065818 
L 294.636786 149.768439 
L 295.126296 147.471059 
L 295.142215 145.17368 
L 296.030697 142.876301 
L 297.368891 140.578921 
L 298.315079 138.281542 
L 299.942801 135.984163 
L 303.145514 133.686784 
L 303.625075 131.389404 
L 307.445645 129.092025 
L 309.258426 126.794646 
L 310.548863 124.497266 
L 313.714763 122.199887 
L 315.192249 119.902508 
L 315.33751 117.605128 
L 318.08852 115.307749 
L 321.782733 113.01037 
L 322.268263 110.712991 
L 322.884131 108.415611 
L 323.541787 106.118232 
L 326.158479 103.820853 
L 327.345443 101.523473 
L 328.05583 99.226094 
L 330.937177 96.928715 
L 334.481154 94.631335 
L 336.939651 92.333956 
L 340.378164 90.036577 
L 341.437775 87.739198 
L 342.321282 85.441818 
L 345.039459 83.144439 
L 347.92379 80.84706 
L 349.037128 78.54968 
L 350.490736 76.252301 
L 353.419839 73.954922 
L 357.807526 71.657542 
L 361.074909 69.360163 
L 368.408613 67.062784 
L 371.300904 64.765405 
L 374.058878 62.468025 
L 376.416886 60.170646 
L 378.828621 57.873267 
L 381.08614 55.575887 
L 383.962512 53.278508 
L 389.656555 50.981129 
L 395.030226 48.683749 
L 403.184756 46.38637 
L 405.007486 44.088991 
L 410.696554 41.791612 
L 418.474996 39.494232 
L 428.332863 37.196853 
L 455.614122 34.899474 
" clip-path="url(#p7d6262e06b)" style="fill: none; stroke: #1f77b4; stroke-opacity: 0.2; stroke-width: 1.5; stroke-linecap: square"/>
   </g>
   <g id="line2d_24">
    <path d="M 124.534351 262.340024 
L 155.264779 260.042645 
L 169.324348 257.745266 
L 179.728999 255.447886 
L 187.305518 253.150507 
L 193.699202 250.853128 
L 201.036806 248.555749 
L 204.99927 246.258369 
L 209.148195 243.96099 
L 213.255497 241.663611 
L 217.20736 239.366231 
L 221.056485 237.068852 
L 224.865986 234.771473 
L 227.790896 232.474093 
L 229.902741 230.176714 
L 233.337414 227.879335 
L 236.17465 225.581956 
L 238.493855 223.284576 
L 240.672864 220.987197 
L 243.56618 218.689818 
L 246.172296 216.392438 
L 248.328252 214.095059 
L 249.845376 211.79768 
L 251.895898 209.5003 
L 253.83327 207.202921 
L 256.293126 204.905542 
L 258.142371 202.608163 
L 259.965037 200.310783 
L 262.087025 198.013404 
L 264.691341 195.716025 
L 265.997667 193.418645 
L 268.500594 191.121266 
L 269.899862 188.823887 
L 271.898558 186.526507 
L 273.966422 184.229128 
L 275.490854 181.931749 
L 277.376649 179.63437 
L 278.871462 177.33699 
L 280.403212 175.039611 
L 281.692818 172.742232 
L 282.8723 170.444852 
L 284.531203 168.147473 
L 286.308067 165.850094 
L 288.187554 163.552714 
L 289.819465 161.255335 
L 291.240239 158.957956 
L 293.012247 156.660577 
L 294.448518 154.363197 
L 295.838877 152.065818 
L 296.820958 149.768439 
L 298.506098 147.471059 
L 300.2655 145.17368 
L 301.753369 142.876301 
L 303.267046 140.578921 
L 304.692089 138.281542 
L 306.885484 135.984163 
L 308.941926 133.686784 
L 310.67333 131.389404 
L 312.932044 129.092025 
L 314.676134 126.794646 
L 315.953841 124.497266 
L 317.149117 122.199887 
L 318.848654 119.902508 
L 320.128893 117.605128 
L 322.104392 115.307749 
L 322.940375 113.01037 
L 324.860505 110.712991 
L 326.86623 108.415611 
L 328.304545 106.118232 
L 329.665012 103.820853 
L 331.637968 101.523473 
L 333.334734 99.226094 
L 335.19276 96.928715 
L 336.973917 94.631335 
L 339.066594 92.333956 
L 341.395759 90.036577 
L 343.202083 87.739198 
L 345.417038 85.441818 
L 347.924825 83.144439 
L 349.900318 80.84706 
L 352.834352 78.54968 
L 356.650982 76.252301 
L 359.504694 73.954922 
L 361.707666 71.657542 
L 364.58173 69.360163 
L 367.942767 67.062784 
L 371.314181 64.765405 
L 374.536822 62.468025 
L 377.135069 60.170646 
L 379.979986 57.873267 
L 382.754381 55.575887 
L 386.224344 53.278508 
L 389.647824 50.981129 
L 394.098574 48.683749 
L 402.861589 46.38637 
L 406.397527 44.088991 
L 416.952932 41.791612 
L 428.979922 39.494232 
L 441.032224 37.196853 
L 475.042806 34.899474 
" clip-path="url(#p7d6262e06b)" style="fill: none; stroke: #000000; stroke-width: 1.5; stroke-linecap: square"/>
   </g>
   <g id="line2d_25">
    <path d="M 64.99664 263.46636 
L 69.577345 263.458794 
L 74.159044 263.448877 
L 78.739748 263.435956 
L 83.320453 263.419211 
L 87.902152 263.397626 
L 92.482857 263.369969 
L 97.064556 263.334712 
L 101.64526 263.290036 
L 106.225965 263.233726 
L 110.807664 263.16313 
L 115.388369 263.075149 
L 119.969073 262.966086 
L 124.550773 262.831604 
L 129.131477 262.666762 
L 133.713176 262.465732 
L 138.293881 262.222025 
L 142.874585 261.928143 
L 147.456285 261.575619 
L 152.036989 261.155253 
L 156.617693 260.656636 
L 161.199393 260.068298 
L 165.780097 259.378192 
L 170.361797 258.572784 
L 174.942501 257.638348 
L 179.523206 256.559906 
L 184.104905 255.321754 
L 188.685609 253.908591 
L 193.266314 252.304122 
L 197.848013 250.491922 
L 202.428718 248.457089 
L 207.010417 246.183668 
L 211.591121 243.658541 
L 216.171826 240.868437 
L 220.753525 237.801515 
L 225.33423 234.449974 
L 229.914934 230.806403 
L 234.496634 226.865813 
L 239.077338 222.628786 
L 243.659037 218.095562 
L 248.239742 213.2736 
L 252.820446 208.170975 
L 257.402146 202.799118 
L 261.98285 197.176577 
L 266.563554 191.32192 
L 271.145254 185.256833 
L 275.725958 179.010047 
L 280.307658 172.607695 
L 284.888362 166.083742 
L 289.469067 159.469879 
L 294.050766 152.799112 
L 298.63147 146.109646 
L 303.212175 139.435628 
L 307.793874 132.81094 
L 312.374579 126.272938 
L 316.956278 119.851897 
L 321.536982 113.581838 
L 326.117687 107.490253 
L 330.699386 101.602079 
L 335.280091 95.943031 
L 339.860795 90.531681 
L 344.442495 85.383362 
L 349.023199 80.513192 
L 353.604898 75.928389 
L 358.185603 71.636776 
L 362.766307 67.639798 
L 367.348007 63.935975 
L 371.928711 60.523277 
L 376.509415 57.394573 
L 381.091115 54.540641 
L 385.671819 51.952078 
L 390.253519 49.615454 
L 394.834223 47.518161 
L 399.414928 45.645064 
L 403.996627 43.980567 
L 408.577331 42.509771 
L 413.158036 41.21659 
L 417.739735 40.085248 
L 422.32044 39.101052 
L 426.902139 38.248932 
L 431.482843 37.515301 
L 436.063548 36.886805 
L 440.645247 36.35105 
L 445.225952 35.896908 
L 449.806656 35.513842 
L 454.388356 35.192329 
L 458.96906 34.923984 
L 463.549764 34.701115 
L 468.131464 34.516929 
L 472.712168 34.36556 
L 477.293868 34.241745 
L 481.874572 34.141032 
L 486.455276 34.059509 
L 491.036976 33.993845 
L 495.61768 33.941248 
L 500.19938 33.899314 
L 504.780084 33.866068 
L 509.360789 33.839836 
L 513.942488 33.819241 
L 518.523192 33.80316 
" clip-path="url(#p7d6262e06b)" style="fill: none; stroke-dasharray: 4,6.6; stroke-dashoffset: 0; stroke: #d62728; stroke-width: 4"/>
   </g>
   <g id="patch_3">
    <path d="M 42.320312 274.94952 
L 42.320312 22.32 
" style="fill: none; stroke: #000000; stroke-width: 0.8; stroke-linejoin: miter; stroke-linecap: square"/>
   </g>
   <g id="patch_4">
    <path d="M 42.320312 274.94952 
L 541.19952 274.94952 
" style="fill: none; stroke: #000000; stroke-width: 0.8; stroke-linejoin: miter; stroke-linecap: square"/>
   </g>
   <g id="text_16">
    <!-- Cumulative Temperature Distribution (8000 H$_2$O, NPT) -->
    <g transform="translate(144.759916 16.32) scale(0.12 -0.12)">
     <defs>
      <path id="IBMPlexSans-44" d="M 595 0 
L 2093 0 
C 3206 0 3923 742 3923 2234 
C 3923 3725 3206 4467 2093 4467 
L 595 4467 
L 595 0 
z
M 1133 474 
L 1133 3994 
L 2093 3994 
C 2829 3994 3347 3482 3347 2598 
L 3347 1869 
C 3347 986 2829 474 2093 474 
L 1133 474 
z
" transform="scale(0.015625)"/>
      <path id="IBMPlexSans-73" d="M 1536 -77 
C 2291 -77 2758 314 2758 954 
C 2758 1453 2477 1773 1747 1882 
L 1491 1920 
C 1082 1984 858 2112 858 2432 
C 858 2746 1082 2944 1504 2944 
C 1926 2944 2208 2746 2355 2541 
L 2694 2848 
C 2426 3181 2074 3379 1542 3379 
C 870 3379 365 3059 365 2406 
C 365 1792 819 1542 1427 1453 
L 1690 1414 
C 2125 1350 2266 1152 2266 896 
C 2266 557 2010 358 1574 358 
C 1158 358 851 544 595 864 
L 230 570 
C 525 179 928 -77 1536 -77 
z
" transform="scale(0.015625)"/>
      <path id="IBMPlexSans-6e" d="M 1056 0 
L 1056 2291 
C 1056 2714 1453 2918 1862 2918 
C 2355 2918 2611 2618 2611 2029 
L 2611 0 
L 3123 0 
L 3123 2118 
C 3123 2918 2694 3379 2016 3379 
C 1523 3379 1242 3136 1082 2765 
L 1056 2765 
L 1056 3302 
L 544 3302 
L 544 0 
L 1056 0 
z
" transform="scale(0.015625)"/>
      <path id="IBMPlexSans-28" d="M 531 1997 
C 531 749 1056 -339 1690 -877 
L 2176 -877 
C 1485 -262 1011 819 1011 1715 
L 1011 2266 
C 1011 3162 1466 4224 2176 4864 
L 1690 4864 
C 1037 4307 531 3232 531 1997 
z
" transform="scale(0.015625)"/>
      <path id="IBMPlexSans-48" d="M 3392 0 
L 3930 0 
L 3930 4467 
L 3392 4467 
L 3392 2496 
L 1133 2496 
L 1133 4467 
L 595 4467 
L 595 0 
L 1133 0 
L 1133 2022 
L 3392 2022 
L 3392 0 
z
" transform="scale(0.015625)"/>
      <path id="DejaVuSans-32" d="M 1228 531 
L 3431 531 
L 3431 0 
L 469 0 
L 469 531 
Q 828 903 1448 1529 
Q 2069 2156 2228 2338 
Q 2531 2678 2651 2914 
Q 2772 3150 2772 3378 
Q 2772 3750 2511 3984 
Q 2250 4219 1831 4219 
Q 1534 4219 1204 4116 
Q 875 4013 500 3803 
L 500 4441 
Q 881 4594 1212 4672 
Q 1544 4750 1819 4750 
Q 2544 4750 2975 4387 
Q 3406 4025 3406 3419 
Q 3406 3131 3298 2873 
Q 3191 2616 2906 2266 
Q 2828 2175 2409 1742 
Q 1991 1309 1228 531 
z
" transform="scale(0.015625)"/>
      <path id="IBMPlexSans-4f" d="M 2266 -77 
C 3418 -77 4160 736 4160 2234 
C 4160 3731 3418 4544 2266 4544 
C 1114 4544 371 3731 371 2234 
C 371 736 1114 -77 2266 -77 
z
M 2266 403 
C 1491 403 947 979 947 1862 
L 947 2605 
C 947 3488 1491 4064 2266 4064 
C 3040 4064 3584 3488 3584 2605 
L 3584 1862 
C 3584 979 3040 403 2266 403 
z
" transform="scale(0.015625)"/>
      <path id="IBMPlexSans-2c" d="M 870 749 
C 602 749 480 595 480 371 
L 480 282 
C 480 109 557 -19 730 -58 
C 659 -358 506 -582 250 -851 
L 678 -851 
C 1043 -538 1261 -64 1261 282 
L 1261 371 
C 1261 595 1139 749 870 749 
z
" transform="scale(0.015625)"/>
      <path id="IBMPlexSans-4e" d="M 3309 0 
L 3930 0 
L 3930 4467 
L 3405 4467 
L 3405 749 
L 3386 749 
L 2848 1741 
L 1216 4467 
L 595 4467 
L 595 0 
L 1120 0 
L 1120 3718 
L 1139 3718 
L 1677 2726 
L 3309 0 
z
" transform="scale(0.015625)"/>
      <path id="IBMPlexSans-29" d="M 1613 1997 
C 1613 3232 1107 4307 454 4864 
L -32 4864 
C 678 4224 1133 3162 1133 2266 
L 1133 1715 
C 1133 819 659 -262 -32 -877 
L 454 -877 
C 1088 -339 1613 749 1613 1997 
z
" transform="scale(0.015625)"/>
     </defs>
     <use xlink:href="#IBMPlexSans-43"/>
     <use xlink:href="#IBMPlexSans-75" transform="translate(62.099991 0)"/>
     <use xlink:href="#IBMPlexSans-6d" transform="translate(118.899979 0)"/>
     <use xlink:href="#IBMPlexSans-75" transform="translate(206.199966 0)"/>
     <use xlink:href="#IBMPlexSans-6c" transform="translate(262.999954 0)"/>
     <use xlink:href="#IBMPlexSans-61" transform="translate(290.199951 0)"/>
     <use xlink:href="#IBMPlexSans-74" transform="translate(343.599945 0)"/>
     <use xlink:href="#IBMPlexSans-69" transform="translate(378.699936 0)"/>
     <use xlink:href="#IBMPlexSans-76" transform="translate(403.699921 0)"/>
     <use xlink:href="#IBMPlexSans-65" transform="translate(452.899918 0)"/>
     <use xlink:href="#IBMPlexSans-20" transform="translate(507.799911 0)"/>
     <use xlink:href="#IBMPlexSans-54" transform="translate(531.399902 0)"/>
     <use xlink:href="#IBMPlexSans-65" transform="translate(588.599899 0)"/>
     <use xlink:href="#IBMPlexSans-6d" transform="translate(643.499893 0)"/>
     <use xlink:href="#IBMPlexSans-70" transform="translate(730.799881 0)"/>
     <use xlink:href="#IBMPlexSans-65" transform="translate(788.799866 0)"/>
     <use xlink:href="#IBMPlexSans-72" transform="translate(843.69986 0)"/>
     <use xlink:href="#IBMPlexSans-61" transform="translate(880.399857 0)"/>
     <use xlink:href="#IBMPlexSans-74" transform="translate(933.79985 0)"/>
     <use xlink:href="#IBMPlexSans-75" transform="translate(968.899841 0)"/>
     <use xlink:href="#IBMPlexSans-72" transform="translate(1025.699829 0)"/>
     <use xlink:href="#IBMPlexSans-65" transform="translate(1062.399826 0)"/>
     <use xlink:href="#IBMPlexSans-20" transform="translate(1117.29982 0)"/>
     <use xlink:href="#IBMPlexSans-44" transform="translate(1140.899811 0)"/>
     <use xlink:href="#IBMPlexSans-69" transform="translate(1207.999802 0)"/>
     <use xlink:href="#IBMPlexSans-73" transform="translate(1232.999786 0)"/>
     <use xlink:href="#IBMPlexSans-74" transform="translate(1281.699783 0)"/>
     <use xlink:href="#IBMPlexSans-72" transform="translate(1316.799774 0)"/>
     <use xlink:href="#IBMPlexSans-69" transform="translate(1353.499771 0)"/>
     <use xlink:href="#IBMPlexSans-62" transform="translate(1378.499756 0)"/>
     <use xlink:href="#IBMPlexSans-75" transform="translate(1436.499741 0)"/>
     <use xlink:href="#IBMPlexSans-74" transform="translate(1493.299728 0)"/>
     <use xlink:href="#IBMPlexSans-69" transform="translate(1528.399719 0)"/>
     <use xlink:href="#IBMPlexSans-6f" transform="translate(1553.399704 0)"/>
     <use xlink:href="#IBMPlexSans-6e" transform="translate(1609.399689 0)"/>
     <use xlink:href="#IBMPlexSans-20" transform="translate(1666.199677 0)"/>
     <use xlink:href="#IBMPlexSans-28" transform="translate(1689.799667 0)"/>
     <use xlink:href="#IBMPlexSans-38" transform="translate(1723.299652 0)"/>
     <use xlink:href="#IBMPlexSans-30" transform="translate(1783.299637 0)"/>
     <use xlink:href="#IBMPlexSans-30" transform="translate(1843.299622 0)"/>
     <use xlink:href="#IBMPlexSans-30" transform="translate(1903.299606 0)"/>
     <use xlink:href="#IBMPlexSans-20" transform="translate(1963.299591 0)"/>
     <use xlink:href="#IBMPlexSans-48" transform="translate(1986.899582 0)"/>
     <use xlink:href="#DejaVuSans-32" transform="translate(2058.556595 -16.40625) scale(0.7)"/>
     <use xlink:href="#IBMPlexSans-4f" transform="translate(2105.827103 0)"/>
     <use xlink:href="#IBMPlexSans-2c" transform="translate(2176.62709 0)"/>
     <use xlink:href="#IBMPlexSans-20" transform="translate(2203.827087 0)"/>
     <use xlink:href="#IBMPlexSans-4e" transform="translate(2227.427078 0)"/>
     <use xlink:href="#IBMPlexSans-50" transform="translate(2298.12706 0)"/>
     <use xlink:href="#IBMPlexSans-54" transform="translate(2358.727051 0)"/>
     <use xlink:href="#IBMPlexSans-29" transform="translate(2415.927048 0)"/>
    </g>
   </g>
   <g id="legend_1">
    <g id="patch_5">
     <path d="M 49.320312 73.52 
L 148.479688 73.52 
Q 150.479688 73.52 150.479688 71.52 
L 150.479688 29.32 
Q 150.479688 27.32 148.479688 27.32 
L 49.320312 27.32 
Q 47.320312 27.32 47.320312 29.32 
L 47.320312 71.52 
Q 47.320312 73.52 49.320312 73.52 
z
" style="fill: #ffffff; opacity: 0.8; stroke: #cccccc; stroke-linejoin: miter"/>
    </g>
    <g id="line2d_26">
     <path d="M 51.320312 35.22 
L 61.320312 35.22 
L 71.320312 35.22 
" style="fill: none; stroke: #1f77b4; stroke-opacity: 0.2; stroke-width: 1.5; stroke-linecap: square"/>
    </g>
    <g id="text_17">
     <!-- Individual NVE -->
     <g transform="translate(79.320312 38.72) scale(0.1 -0.1)">
      <defs>
       <path id="IBMPlexSans-49" d="M 2176 0 
L 2176 448 
L 1549 448 
L 1549 4019 
L 2176 4019 
L 2176 4467 
L 384 4467 
L 384 4019 
L 1011 4019 
L 1011 448 
L 384 448 
L 384 0 
L 2176 0 
z
" transform="scale(0.015625)"/>
       <path id="IBMPlexSans-64" d="M 2656 0 
L 3168 0 
L 3168 4736 
L 2656 4736 
L 2656 2765 
L 2630 2765 
C 2458 3181 2118 3379 1664 3379 
C 838 3379 320 2707 320 1651 
C 320 595 838 -77 1664 -77 
C 2118 -77 2432 128 2630 538 
L 2656 538 
L 2656 0 
z
M 1805 384 
C 1229 384 870 781 870 1370 
L 870 1933 
C 870 2522 1229 2918 1805 2918 
C 2272 2918 2656 2650 2656 2285 
L 2656 1056 
C 2656 627 2272 384 1805 384 
z
" transform="scale(0.015625)"/>
       <path id="IBMPlexSans-56" d="M 2266 0 
L 3770 4467 
L 3213 4467 
L 2470 2214 
L 1965 538 
L 1933 538 
L 1440 2214 
L 704 4467 
L 128 4467 
L 1613 0 
L 2266 0 
z
" transform="scale(0.015625)"/>
       <path id="IBMPlexSans-45" d="M 3322 0 
L 3322 474 
L 1133 474 
L 1133 2022 
L 3194 2022 
L 3194 2496 
L 1133 2496 
L 1133 3994 
L 3322 3994 
L 3322 4467 
L 595 4467 
L 595 0 
L 3322 0 
z
" transform="scale(0.015625)"/>
      </defs>
      <use xlink:href="#IBMPlexSans-49"/>
      <use xlink:href="#IBMPlexSans-6e" transform="translate(39.999985 0)"/>
      <use xlink:href="#IBMPlexSans-64" transform="translate(96.799973 0)"/>
      <use xlink:href="#IBMPlexSans-69" transform="translate(154.799957 0)"/>
      <use xlink:href="#IBMPlexSans-76" transform="translate(179.799942 0)"/>
      <use xlink:href="#IBMPlexSans-69" transform="translate(228.999939 0)"/>
      <use xlink:href="#IBMPlexSans-64" transform="translate(253.999924 0)"/>
      <use xlink:href="#IBMPlexSans-75" transform="translate(311.999908 0)"/>
      <use xlink:href="#IBMPlexSans-61" transform="translate(368.799896 0)"/>
      <use xlink:href="#IBMPlexSans-6c" transform="translate(422.19989 0)"/>
      <use xlink:href="#IBMPlexSans-20" transform="translate(449.399887 0)"/>
      <use xlink:href="#IBMPlexSans-4e" transform="translate(472.999878 0)"/>
      <use xlink:href="#IBMPlexSans-56" transform="translate(543.69986 0)"/>
      <use xlink:href="#IBMPlexSans-45" transform="translate(604.599854 0)"/>
     </g>
    </g>
    <g id="line2d_27">
     <path d="M 51.320312 49.62 
L 61.320312 49.62 
L 71.320312 49.62 
" style="fill: none; stroke: #000000; stroke-width: 1.5; stroke-linecap: square"/>
    </g>
    <g id="text_18">
     <!-- Combined NVE -->
     <g transform="translate(79.320312 53.12) scale(0.1 -0.1)">
      <use xlink:href="#IBMPlexSans-43"/>
      <use xlink:href="#IBMPlexSans-6f" transform="translate(62.099991 0)"/>
      <use xlink:href="#IBMPlexSans-6d" transform="translate(118.099976 0)"/>
      <use xlink:href="#IBMPlexSans-62" transform="translate(205.399963 0)"/>
      <use xlink:href="#IBMPlexSans-69" transform="translate(263.399948 0)"/>
      <use xlink:href="#IBMPlexSans-6e" transform="translate(288.399933 0)"/>
      <use xlink:href="#IBMPlexSans-65" transform="translate(345.199921 0)"/>
      <use xlink:href="#IBMPlexSans-64" transform="translate(400.099915 0)"/>
      <use xlink:href="#IBMPlexSans-20" transform="translate(458.099899 0)"/>
      <use xlink:href="#IBMPlexSans-4e" transform="translate(481.69989 0)"/>
      <use xlink:href="#IBMPlexSans-56" transform="translate(552.399872 0)"/>
      <use xlink:href="#IBMPlexSans-45" transform="translate(613.299866 0)"/>
     </g>
    </g>
    <g id="line2d_28">
     <path d="M 51.320312 64.02 
L 61.320312 64.02 
L 71.320312 64.02 
" style="fill: none; stroke-dasharray: 4,6.6; stroke-dashoffset: 0; stroke: #d62728; stroke-width: 4"/>
    </g>
    <g id="text_19">
     <!-- NVT exact -->
     <g transform="translate(79.320312 67.52) scale(0.1 -0.1)">
      <defs>
       <path id="IBMPlexSans-78" d="M 134 0 
L 704 0 
L 1632 1293 
L 1651 1293 
L 2509 0 
L 3110 0 
L 1920 1702 
L 3085 3302 
L 2515 3302 
L 1645 2074 
L 1626 2074 
L 787 3302 
L 186 3302 
L 1357 1664 
L 134 0 
z
" transform="scale(0.015625)"/>
       <path id="IBMPlexSans-63" d="M 1773 -77 
C 2400 -77 2829 230 3040 704 
L 2669 954 
C 2490 576 2189 378 1773 378 
C 1165 378 851 794 851 1370 
L 851 1933 
C 851 2509 1165 2925 1773 2925 
C 2176 2925 2458 2726 2579 2387 
L 3008 2605 
C 2816 3059 2426 3379 1773 3379 
C 845 3379 301 2707 301 1651 
C 301 595 845 -77 1773 -77 
z
" transform="scale(0.015625)"/>
      </defs>
      <use xlink:href="#IBMPlexSans-4e"/>
      <use xlink:href="#IBMPlexSans-56" transform="translate(70.699982 0)"/>
      <use xlink:href="#IBMPlexSans-54" transform="translate(131.599976 0)"/>
      <use xlink:href="#IBMPlexSans-20" transform="translate(188.799973 0)"/>
      <use xlink:href="#IBMPlexSans-65" transform="translate(212.399963 0)"/>
      <use xlink:href="#IBMPlexSans-78" transform="translate(267.299957 0)"/>
      <use xlink:href="#IBMPlexSans-61" transform="translate(317.999954 0)"/>
      <use xlink:href="#IBMPlexSans-63" transform="translate(371.399948 0)"/>
      <use xlink:href="#IBMPlexSans-74" transform="translate(421.699936 0)"/>
     </g>
    </g>
   </g>
  </g>
 </g>
 <defs>
  <clipPath id="p7d6262e06b">
   <rect x="42.320312" y="22.32" width="498.879207" height="252.62952"/>
  </clipPath>
 </defs>
</svg>