<?xml version="1.0" encoding="utf-8" standalone="no"?>
<!DOCTYPE svg PUBLIC "-//W3C//DTD SVG 1.1//EN"
  "http://www.w3.org/Graphics/SVG/1.1/DTD/svg11.dtd">
<svg xmlns:xlink="http://www.w3.org/1999/xlink" width="548.39952pt" height="312.14952pt" viewBox="0 0 548.39952 312.14952" xmlns="http://www.w3.org/2000/svg" version="1.1">
 <metadata>
  <rdf:RDF xmlns:dc="http://purl.org/dc/elements/1.1/" xmlns:cc="http://creativecommons.org/ns#" xmlns:rdf="http://www.w3.org/1999/02/22-rdf-syntax-ns#">
   <cc:Work>
    <dc:type rdf:resource="http://purl.org/dc/dcmitype/StillImage"/>
    <dc:date>2025-06-25T08:39:54.521993</dc:date>
    <dc:format>image/svg+xml</dc:format>
    <dc:creator>
     <cc:Agent>
      <dc:title>Matplotlib v3.10.1, https://matplotlib.org/</dc:title>
     </cc:Agent>
    </dc:creator>
   </cc:Work>
  </rdf:RDF>
 </metadata>
 <defs>
  <style type="text/css">*{stroke-linejoin: round; stroke-linecap: butt}</style>
 </defs>
 <g id="figure_1">
  <g id="patch_1">
   <path d="M 0 312.14952 
L 548.39952 312.14952 
L 548.39952 0 
L 0 0 
z
" style="fill: #ffffff"/>
  </g>
  <g id="axes_1">
   <g id="patch_2">
    <path d="M 48.640625 133.22452 
L 264.109676 133.22452 
L 264.109676 17.6 
L 48.640625 17.6 
z
" style="fill: #ffffff"/>
   </g>
   <g id="matplotlib.axis_1">
    <g id="xtick_1">
     <g id="line2d_1">
      <defs>
       <path id="md8cdbe7690" d="M 0 0 
L 0 3.5 
" style="stroke: #000000; stroke-width: 0.8"/>
      </defs>
      <g>
       <use xlink:href="#md8cdbe7690" x="56.636118" y="133.22452" style="stroke: #000000; stroke-width: 0.8"/>
      </g>
     </g>
     <g id="text_1">
      <!-- $\mathdefault{10^{-2}}$ -->
      <g transform="translate(46.236118 147.62452) scale(0.1 -0.1)">
       <defs>
        <path id="IBMPlexSans-31" d="M 3501 0 
L 3501 474 
L 2349 474 
L 2349 4467 
L 1510 4467 
L 326 3360 
L 640 3021 
L 1766 4070 
L 1811 4070 
L 1811 474 
L 563 474 
L 563 0 
L 3501 0 
z
" transform="scale(0.015625)"/>
        <path id="IBMPlexSans-30" d="M 1920 -77 
C 2989 -77 3456 774 3456 2234 
C 3456 3693 2989 4544 1920 4544 
C 851 4544 384 3693 384 2234 
C 384 774 851 -77 1920 -77 
z
M 1920 390 
C 1222 390 947 1005 947 1869 
L 947 2598 
C 947 3462 1222 4077 1920 4077 
C 2618 4077 2893 3462 2893 2598 
L 2893 1869 
C 2893 1005 2618 390 1920 390 
z
" transform="scale(0.015625)"/>
        <path id="IBMPlexSans-2212" d="M 3411 1734 
L 3411 2170 
L 429 2170 
L 429 1734 
L 3411 1734 
z
" transform="scale(0.015625)"/>
        <path id="IBMPlexSans-32" d="M 3411 474 
L 1062 474 
L 2266 1555 
C 2835 2067 3245 2554 3245 3245 
C 3245 4006 2746 4544 1875 4544 
C 1011 4544 614 4019 442 3494 
L 922 3309 
C 1043 3731 1299 4064 1850 4064 
C 2400 4064 2675 3725 2675 3232 
L 2675 3155 
C 2675 2726 2355 2278 1939 1894 
L 480 550 
L 480 0 
L 3411 0 
L 3411 474 
z
" transform="scale(0.015625)"/>
       </defs>
       <use xlink:href="#IBMPlexSans-31" transform="translate(0 0.184375)"/>
       <use xlink:href="#IBMPlexSans-30" transform="translate(59.999985 0.184375)"/>
       <use xlink:href="#IBMPlexSans-2212" transform="translate(120.90286 36.3) scale(0.7)"/>
       <use xlink:href="#IBMPlexSans-32" transform="translate(162.902849 36.3) scale(0.7)"/>
      </g>
     </g>
    </g>
    <g id="xtick_2">
     <g id="line2d_2">
      <g>
       <use xlink:href="#md8cdbe7690" x="237.049146" y="133.22452" style="stroke: #000000; stroke-width: 0.8"/>
      </g>
     </g>
     <g id="text_2">
      <!-- $\mathdefault{10^{-1}}$ -->
      <g transform="translate(226.649146 147.62452) scale(0.1 -0.1)">
       <use xlink:href="#IBMPlexSans-31" transform="translate(0 0.026563)"/>
       <use xlink:href="#IBMPlexSans-30" transform="translate(59.999985 0.026563)"/>
       <use xlink:href="#IBMPlexSans-2212" transform="translate(120.90286 36.142188) scale(0.7)"/>
       <use xlink:href="#IBMPlexSans-31" transform="translate(162.902849 36.142188) scale(0.7)"/>
      </g>
     </g>
    </g>
    <g id="xtick_3">
     <g id="line2d_3">
      <defs>
       <path id="mddc114b152" d="M 0 0 
L 0 2 
" style="stroke: #000000; stroke-width: 0.6"/>
      </defs>
      <g>
       <use xlink:href="#mddc114b152" x="110.945851" y="133.22452" style="stroke: #000000; stroke-width: 0.6"/>
      </g>
     </g>
    </g>
    <g id="xtick_4">
     <g id="line2d_4">
      <g>
       <use xlink:href="#mddc114b152" x="142.715008" y="133.22452" style="stroke: #000000; stroke-width: 0.6"/>
      </g>
     </g>
    </g>
    <g id="xtick_5">
     <g id="line2d_5">
      <g>
       <use xlink:href="#mddc114b152" x="165.255584" y="133.22452" style="stroke: #000000; stroke-width: 0.6"/>
      </g>
     </g>
    </g>
    <g id="xtick_6">
     <g id="line2d_6">
      <g>
       <use xlink:href="#mddc114b152" x="182.739413" y="133.22452" style="stroke: #000000; stroke-width: 0.6"/>
      </g>
     </g>
    </g>
    <g id="xtick_7">
     <g id="line2d_7">
      <g>
       <use xlink:href="#mddc114b152" x="197.024741" y="133.22452" style="stroke: #000000; stroke-width: 0.6"/>
      </g>
     </g>
    </g>
    <g id="xtick_8">
     <g id="line2d_8">
      <g>
       <use xlink:href="#mddc114b152" x="209.102814" y="133.22452" style="stroke: #000000; stroke-width: 0.6"/>
      </g>
     </g>
    </g>
    <g id="xtick_9">
     <g id="line2d_9">
      <g>
       <use xlink:href="#mddc114b152" x="219.565317" y="133.22452" style="stroke: #000000; stroke-width: 0.6"/>
      </g>
     </g>
    </g>
    <g id="xtick_10">
     <g id="line2d_10">
      <g>
       <use xlink:href="#mddc114b152" x="228.793898" y="133.22452" style="stroke: #000000; stroke-width: 0.6"/>
      </g>
     </g>
    </g>
   </g>
   <g id="matplotlib.axis_2">
    <g id="ytick_1">
     <g id="line2d_11">
      <defs>
       <path id="m824bdf76cc" d="M 0 0 
L -3.5 0 
" style="stroke: #000000; stroke-width: 0.8"/>
      </defs>
      <g>
       <use xlink:href="#m824bdf76cc" x="48.640625" y="127.96886" style="stroke: #000000; stroke-width: 0.8"/>
      </g>
     </g>
     <g id="text_3">
      <!-- 0.00 -->
      <g transform="translate(20.920313 131.66886) scale(0.1 -0.1)">
       <defs>
        <path id="IBMPlexSans-2e" d="M 870 -77 
C 1139 -77 1261 77 1261 294 
L 1261 378 
C 1261 595 1139 749 870 749 
C 602 749 480 595 480 378 
L 480 294 
C 480 77 602 -77 870 -77 
z
" transform="scale(0.015625)"/>
       </defs>
       <use xlink:href="#IBMPlexSans-30"/>
       <use xlink:href="#IBMPlexSans-2e" transform="translate(59.999985 0)"/>
       <use xlink:href="#IBMPlexSans-30" transform="translate(87.199982 0)"/>
       <use xlink:href="#IBMPlexSans-30" transform="translate(147.199966 0)"/>
      </g>
     </g>
    </g>
    <g id="ytick_2">
     <g id="line2d_12">
      <g>
       <use xlink:href="#m824bdf76cc" x="48.640625" y="96.806021" style="stroke: #000000; stroke-width: 0.8"/>
      </g>
     </g>
     <g id="text_4">
      <!-- 0.02 -->
      <g transform="translate(20.920313 100.506021) scale(0.1 -0.1)">
       <use xlink:href="#IBMPlexSans-30"/>
       <use xlink:href="#IBMPlexSans-2e" transform="translate(59.999985 0)"/>
       <use xlink:href="#IBMPlexSans-30" transform="translate(87.199982 0)"/>
       <use xlink:href="#IBMPlexSans-32" transform="translate(147.199966 0)"/>
      </g>
     </g>
    </g>
    <g id="ytick_3">
     <g id="line2d_13">
      <g>
       <use xlink:href="#m824bdf76cc" x="48.640625" y="65.643183" style="stroke: #000000; stroke-width: 0.8"/>
      </g>
     </g>
     <g id="text_5">
      <!-- 0.04 -->
      <g transform="translate(20.920313 69.343183) scale(0.1 -0.1)">
       <defs>
        <path id="IBMPlexSans-34" d="M 2912 0 
L 2912 877 
L 3558 877 
L 3558 1325 
L 2912 1325 
L 2912 4467 
L 2112 4467 
L 243 1350 
L 243 877 
L 2400 877 
L 2400 0 
L 2912 0 
z
M 2368 4051 
L 2400 4051 
L 2400 1325 
L 749 1325 
L 2368 4051 
z
" transform="scale(0.015625)"/>
       </defs>
       <use xlink:href="#IBMPlexSans-30"/>
       <use xlink:href="#IBMPlexSans-2e" transform="translate(59.999985 0)"/>
       <use xlink:href="#IBMPlexSans-30" transform="translate(87.199982 0)"/>
       <use xlink:href="#IBMPlexSans-34" transform="translate(147.199966 0)"/>
      </g>
     </g>
    </g>
    <g id="ytick_4">
     <g id="line2d_14">
      <g>
       <use xlink:href="#m824bdf76cc" x="48.640625" y="34.480344" style="stroke: #000000; stroke-width: 0.8"/>
      </g>
     </g>
     <g id="text_6">
      <!-- 0.06 -->
      <g transform="translate(20.920313 38.180344) scale(0.1 -0.1)">
       <defs>
        <path id="IBMPlexSans-36" d="M 1926 -77 
C 2822 -77 3411 525 3411 1402 
C 3411 2246 2861 2778 2093 2778 
C 1549 2778 1229 2502 1018 2138 
L 986 2150 
C 1229 3187 1760 3770 2714 4467 
L 2022 4467 
C 1306 4000 429 2963 429 1638 
C 429 576 998 -77 1926 -77 
z
M 1920 390 
C 1331 390 986 730 986 1331 
L 986 1382 
C 986 1984 1331 2323 1920 2323 
C 2509 2323 2854 1984 2854 1382 
L 2854 1331 
C 2854 730 2509 390 1920 390 
z
" transform="scale(0.015625)"/>
       </defs>
       <use xlink:href="#IBMPlexSans-30"/>
       <use xlink:href="#IBMPlexSans-2e" transform="translate(59.999985 0)"/>
       <use xlink:href="#IBMPlexSans-30" transform="translate(87.199982 0)"/>
       <use xlink:href="#IBMPlexSans-36" transform="translate(147.199966 0)"/>
      </g>
     </g>
    </g>
    <g id="text_7">
     <!-- cv2l(125%) weight -->
     <g transform="translate(14.8 117.981791) rotate(-90) scale(0.1 -0.1)">
      <defs>
       <path id="IBMPlexSans-63" d="M 1773 -77 
C 2400 -77 2829 230 3040 704 
L 2669 954 
C 2490 576 2189 378 1773 378 
C 1165 378 851 794 851 1370 
L 851 1933 
C 851 2509 1165 2925 1773 2925 
C 2176 2925 2458 2726 2579 2387 
L 3008 2605 
C 2816 3059 2426 3379 1773 3379 
C 845 3379 301 2707 301 1651 
C 301 595 845 -77 1773 -77 
z
" transform="scale(0.015625)"/>
       <path id="IBMPlexSans-76" d="M 1869 0 
L 3034 3302 
L 2541 3302 
L 1952 1664 
L 1594 538 
L 1562 538 
L 1203 1664 
L 627 3302 
L 115 3302 
L 1274 0 
L 1869 0 
z
" transform="scale(0.015625)"/>
       <path id="IBMPlexSans-6c" d="M 1542 0 
L 1542 448 
L 1056 448 
L 1056 4736 
L 544 4736 
L 544 531 
C 544 224 736 0 1088 0 
L 1542 0 
z
" transform="scale(0.015625)"/>
       <path id="IBMPlexSans-28" d="M 531 1997 
C 531 749 1056 -339 1690 -877 
L 2176 -877 
C 1485 -262 1011 819 1011 1715 
L 1011 2266 
C 1011 3162 1466 4224 2176 4864 
L 1690 4864 
C 1037 4307 531 3232 531 1997 
z
" transform="scale(0.015625)"/>
       <path id="IBMPlexSans-35" d="M 3187 4467 
L 794 4467 
L 634 2010 
L 1088 1946 
C 1274 2150 1478 2323 1888 2323 
C 2496 2323 2822 1984 2822 1395 
L 2822 1331 
C 2822 742 2496 403 1888 403 
C 1350 403 1126 640 896 992 
L 493 685 
C 762 301 1146 -77 1888 -77 
C 2829 -77 3392 531 3392 1402 
C 3392 2266 2829 2784 2061 2784 
C 1594 2784 1357 2592 1146 2291 
L 1101 2291 
L 1229 3994 
L 3187 3994 
L 3187 4467 
z
" transform="scale(0.015625)"/>
       <path id="IBMPlexSans-25" d="M 1664 0 
L 4762 4467 
L 4269 4467 
L 1171 0 
L 1664 0 
z
M 1427 2010 
C 2074 2010 2438 2458 2438 3277 
C 2438 4096 2074 4544 1427 4544 
C 781 4544 416 4096 416 3277 
C 416 2458 781 2010 1427 2010 
z
M 1427 2342 
C 1056 2342 877 2598 877 3085 
L 877 3469 
C 877 3955 1056 4211 1427 4211 
C 1798 4211 1978 3955 1978 3469 
L 1978 3085 
C 1978 2598 1798 2342 1427 2342 
z
M 4506 -77 
C 5152 -77 5517 371 5517 1190 
C 5517 2010 5152 2458 4506 2458 
C 3859 2458 3494 2010 3494 1190 
C 3494 371 3859 -77 4506 -77 
z
M 4506 256 
C 4134 256 3955 512 3955 998 
L 3955 1382 
C 3955 1869 4134 2125 4506 2125 
C 4877 2125 5056 1869 5056 1382 
L 5056 998 
C 5056 512 4877 256 4506 256 
z
" transform="scale(0.015625)"/>
       <path id="IBMPlexSans-29" d="M 1613 1997 
C 1613 3232 1107 4307 454 4864 
L -32 4864 
C 678 4224 1133 3162 1133 2266 
L 1133 1715 
C 1133 819 659 -262 -32 -877 
L 454 -877 
C 1088 -339 1613 749 1613 1997 
z
" transform="scale(0.015625)"/>
       <path id="IBMPlexSans-20" transform="scale(0.015625)"/>
       <path id="IBMPlexSans-77" d="M 1082 0 
L 1702 0 
L 2163 1587 
L 2445 2592 
L 2458 2592 
L 2746 1587 
L 3206 0 
L 3840 0 
L 4717 3302 
L 4237 3302 
L 3878 1875 
L 3539 429 
L 3526 429 
L 3117 1875 
L 2688 3302 
L 2234 3302 
L 1818 1875 
L 1414 429 
L 1402 429 
L 1050 1875 
L 698 3302 
L 198 3302 
L 1082 0 
z
" transform="scale(0.015625)"/>
       <path id="IBMPlexSans-65" d="M 1786 -77 
C 2406 -77 2880 230 3091 678 
L 2726 941 
C 2554 576 2234 371 1818 371 
C 1203 371 838 800 838 1370 
L 838 1523 
L 3213 1523 
L 3213 1766 
C 3213 2701 2669 3379 1786 3379 
C 890 3379 301 2701 301 1651 
C 301 602 890 -77 1786 -77 
z
M 1786 2950 
C 2310 2950 2662 2560 2662 1978 
L 2662 1907 
L 838 1907 
L 838 1952 
C 838 2528 1229 2950 1786 2950 
z
" transform="scale(0.015625)"/>
       <path id="IBMPlexSans-69" d="M 800 4077 
C 1018 4077 1114 4192 1114 4365 
L 1114 4448 
C 1114 4621 1018 4736 800 4736 
C 582 4736 486 4621 486 4448 
L 486 4365 
C 486 4192 582 4077 800 4077 
z
M 544 0 
L 1056 0 
L 1056 3302 
L 544 3302 
L 544 0 
z
" transform="scale(0.015625)"/>
       <path id="IBMPlexSans-67" d="M 3328 -365 
C 3328 179 2976 512 2157 512 
L 1453 512 
C 1152 512 947 563 947 762 
C 947 966 1165 1075 1382 1133 
C 1478 1114 1594 1101 1702 1101 
C 2458 1101 2950 1568 2950 2240 
C 2950 2592 2810 2886 2573 3091 
L 2573 3302 
L 3200 3302 
L 3200 3750 
L 2707 3750 
C 2432 3750 2323 3565 2323 3309 
L 2323 3251 
C 2144 3334 1933 3379 1696 3379 
C 947 3379 454 2912 454 2240 
C 454 1779 685 1414 1075 1229 
L 1075 1203 
C 742 1120 506 960 506 627 
C 506 403 614 256 800 166 
L 800 96 
C 474 6 275 -186 275 -544 
C 275 -1062 698 -1357 1728 -1357 
C 2790 -1357 3328 -1043 3328 -365 
z
M 2848 -403 
C 2848 -762 2515 -941 1946 -941 
L 1472 -941 
C 954 -941 755 -704 755 -416 
C 755 -211 851 -64 1062 32 
L 2163 32 
C 2675 32 2848 -141 2848 -403 
z
M 1702 1510 
C 1267 1510 992 1715 992 2150 
L 992 2330 
C 992 2765 1267 2970 1702 2970 
C 2138 2970 2413 2765 2413 2330 
L 2413 2150 
C 2413 1715 2138 1510 1702 1510 
z
" transform="scale(0.015625)"/>
       <path id="IBMPlexSans-68" d="M 544 0 
L 1056 0 
L 1056 2291 
C 1056 2714 1453 2918 1862 2918 
C 2355 2918 2611 2618 2611 2029 
L 2611 0 
L 3123 0 
L 3123 2118 
C 3123 2918 2694 3379 2016 3379 
C 1523 3379 1242 3136 1082 2765 
L 1056 2765 
L 1056 4736 
L 544 4736 
L 544 0 
z
" transform="scale(0.015625)"/>
       <path id="IBMPlexSans-74" d="M 1914 0 
L 1914 448 
L 1242 448 
L 1242 2854 
L 1965 2854 
L 1965 3302 
L 1242 3302 
L 1242 4218 
L 781 4218 
L 781 3603 
C 781 3379 710 3302 493 3302 
L 186 3302 
L 186 2854 
L 730 2854 
L 730 544 
C 730 224 922 0 1274 0 
L 1914 0 
z
" transform="scale(0.015625)"/>
      </defs>
      <use xlink:href="#IBMPlexSans-63"/>
      <use xlink:href="#IBMPlexSans-76" transform="translate(50.299988 0)"/>
      <use xlink:href="#IBMPlexSans-32" transform="translate(99.499985 0)"/>
      <use xlink:href="#IBMPlexSans-6c" transform="translate(159.499969 0)"/>
      <use xlink:href="#IBMPlexSans-28" transform="translate(186.699966 0)"/>
      <use xlink:href="#IBMPlexSans-31" transform="translate(220.199951 0)"/>
      <use xlink:href="#IBMPlexSans-32" transform="translate(280.199936 0)"/>
      <use xlink:href="#IBMPlexSans-35" transform="translate(340.199921 0)"/>
      <use xlink:href="#IBMPlexSans-25" transform="translate(400.199905 0)"/>
      <use xlink:href="#IBMPlexSans-29" transform="translate(492.899887 0)"/>
      <use xlink:href="#IBMPlexSans-20" transform="translate(526.399872 0)"/>
      <use xlink:href="#IBMPlexSans-77" transform="translate(549.999863 0)"/>
      <use xlink:href="#IBMPlexSans-65" transform="translate(626.79985 0)"/>
      <use xlink:href="#IBMPlexSans-69" transform="translate(681.699844 0)"/>
      <use xlink:href="#IBMPlexSans-67" transform="translate(706.699829 0)"/>
      <use xlink:href="#IBMPlexSans-68" transform="translate(759.499817 0)"/>
      <use xlink:href="#IBMPlexSans-74" transform="translate(816.299805 0)"/>
     </g>
    </g>
   </g>
   <g id="line2d_15">
    <path d="M 58.434673 115.330427 
L 63.331697 112.97442 
L 68.228721 110.863965 
L 73.125744 109.053402 
L 78.022768 107.314134 
L 82.919792 105.322196 
L 87.816816 102.985915 
L 92.71384 99.672345 
L 97.610864 95.008131 
L 102.507888 88.357934 
L 107.404912 79.803867 
L 112.301936 69.768177 
L 117.198959 58.852529 
L 122.095983 48.288735 
L 126.993007 38.357897 
L 131.890031 30.848831 
L 136.787055 25.212144 
L 141.684079 22.85566 
L 146.581103 23.407014 
L 151.478127 28.410972 
L 156.375151 35.356097 
L 161.272175 44.035112 
L 166.169198 52.201134 
L 171.066222 61.213519 
L 175.963246 71.157325 
L 180.86027 83.844959 
L 185.757294 98.742871 
L 190.654318 112.454516 
L 195.551342 122.470711 
L 200.448366 126.857496 
L 205.34539 127.873003 
L 210.242413 127.966173 
L 215.139437 127.968841 
L 220.036461 127.96886 
L 224.933485 127.96886 
L 229.830509 127.96886 
L 234.727533 127.96886 
L 239.624557 127.96886 
L 244.521581 127.96886 
L 249.418605 127.96886 
L 254.315628 127.96886 
" clip-path="url(#pa234da9a6c)" style="fill: none; stroke: #ff7f0e; stroke-width: 1.5; stroke-linecap: square"/>
   </g>
   <g id="patch_3">
    <path d="M 48.640625 133.22452 
L 48.640625 17.6 
" style="fill: none; stroke: #000000; stroke-width: 0.8; stroke-linejoin: miter; stroke-linecap: square"/>
   </g>
   <g id="patch_4">
    <path d="M 48.640625 133.22452 
L 264.109676 133.22452 
" style="fill: none; stroke: #000000; stroke-width: 0.8; stroke-linejoin: miter; stroke-linecap: square"/>
   </g>
  </g>
  <g id="axes_2">
   <g id="patch_5">
    <path d="M 325.730469 133.22452 
L 541.19952 133.22452 
L 541.19952 17.6 
L 325.730469 17.6 
z
" style="fill: #ffffff"/>
   </g>
   <g id="FillBetweenPolyCollection_1">
    <defs>
     <path id="ma97eefb4d9" d="M 335.524517 -249.849776 
L 335.524517 -184.18066 
L 340.42154 -184.555296 
L 345.318564 -185.161979 
L 350.215588 -185.905129 
L 355.112612 -186.840227 
L 360.009636 -187.962284 
L 364.90666 -189.208199 
L 369.803684 -190.589948 
L 374.700708 -192.114432 
L 379.597732 -193.670554 
L 384.494755 -195.329039 
L 389.391779 -196.965516 
L 394.288803 -198.55155 
L 399.185827 -200.100432 
L 404.082851 -201.680467 
L 408.979875 -203.187444 
L 413.876899 -204.751942 
L 418.773923 -206.403245 
L 423.670947 -208.049265 
L 428.56797 -209.775859 
L 433.464994 -211.552323 
L 438.362018 -213.386086 
L 443.259042 -215.196831 
L 448.156066 -217.079817 
L 453.05309 -218.880573 
L 457.950114 -220.681214 
L 462.847138 -222.49668 
L 467.744162 -224.301592 
L 472.641186 -226.197464 
L 477.538209 -228.264451 
L 482.435233 -230.577183 
L 487.332257 -233.15079 
L 492.229281 -236.081115 
L 497.126305 -239.330913 
L 502.023329 -242.989239 
L 506.920353 -246.939153 
L 511.817377 -251.227234 
L 516.714401 -255.812035 
L 521.611424 -260.630187 
L 526.508448 -265.796772 
L 531.405472 -271.278449 
L 531.405472 -289.29386 
L 531.405472 -289.29386 
L 526.508448 -284.408925 
L 521.611424 -279.856404 
L 516.714401 -275.665541 
L 511.817377 -271.730177 
L 506.920353 -268.109811 
L 502.023329 -264.846763 
L 497.126305 -261.900899 
L 492.229281 -259.377736 
L 487.332257 -257.20219 
L 482.435233 -255.405752 
L 477.538209 -253.90121 
L 472.641186 -252.665674 
L 467.744162 -251.623768 
L 462.847138 -250.706947 
L 457.950114 -249.814236 
L 453.05309 -248.959455 
L 448.156066 -248.125995 
L 443.259042 -247.263618 
L 438.362018 -246.47818 
L 433.464994 -245.728837 
L 428.56797 -245.058698 
L 423.670947 -244.483306 
L 418.773923 -244.008749 
L 413.876899 -243.605186 
L 408.979875 -243.310813 
L 404.082851 -243.090137 
L 399.185827 -242.885504 
L 394.288803 -242.729154 
L 389.391779 -242.592423 
L 384.494755 -242.464459 
L 379.597732 -242.378283 
L 374.700708 -242.400331 
L 369.803684 -242.588994 
L 364.90666 -242.923131 
L 360.009636 -243.467839 
L 355.112612 -244.215023 
L 350.215588 -245.237686 
L 345.318564 -246.549222 
L 340.42154 -248.100686 
L 335.524517 -249.849776 
z
"/>
    </defs>
    <g clip-path="url(#p9790f244bf)">
     <use xlink:href="#ma97eefb4d9" x="0" y="312.14952" style="fill: #d62728; fill-opacity: 0.3"/>
    </g>
   </g>
   <g id="PathCollection_1">
    <defs>
     <path id="C0_0_08a52e3e55" d="M 0 2.738613 
C 0.726289 2.738613 1.422928 2.450055 1.936492 1.936492 
C 2.450055 1.422928 2.738613 0.726289 2.738613 -0 
C 2.738613 -0.726289 2.450055 -1.422928 1.936492 -1.936492 
C 1.422928 -2.450055 0.726289 -2.738613 0 -2.738613 
C -0.726289 -2.738613 -1.422928 -2.450055 -1.936492 -1.936492 
C -2.450055 -1.422928 -2.738613 -0.726289 -2.738613 0 
C -2.738613 0.726289 -2.450055 1.422928 -1.936492 1.936492 
C -1.422928 2.450055 -0.726289 2.738613 0 2.738613 
z
"/>
    </defs>
    <g clip-path="url(#p9790f244bf)">
     <use xlink:href="#C0_0_08a52e3e55" x="335.524517" y="95.134302" style="fill: #f1f1f1"/>
    </g>
    <g clip-path="url(#p9790f244bf)">
     <use xlink:href="#C0_0_08a52e3e55" x="340.42154" y="95.821529" style="fill: #ededed"/>
    </g>
    <g clip-path="url(#p9790f244bf)">
     <use xlink:href="#C0_0_08a52e3e55" x="345.318564" y="96.29392" style="fill: #e9e9e9"/>
    </g>
    <g clip-path="url(#p9790f244bf)">
     <use xlink:href="#C0_0_08a52e3e55" x="350.215588" y="96.578112" style="fill: #e6e6e6"/>
    </g>
    <g clip-path="url(#p9790f244bf)">
     <use xlink:href="#C0_0_08a52e3e55" x="355.112612" y="96.621895" style="fill: #e3e3e3"/>
    </g>
    <g clip-path="url(#p9790f244bf)">
     <use xlink:href="#C0_0_08a52e3e55" x="360.009636" y="96.434459" style="fill: #dfdfdf"/>
    </g>
    <g clip-path="url(#p9790f244bf)">
     <use xlink:href="#C0_0_08a52e3e55" x="364.90666" y="96.083855" style="fill: #dcdcdc"/>
    </g>
    <g clip-path="url(#p9790f244bf)">
     <use xlink:href="#C0_0_08a52e3e55" x="369.803684" y="95.560049" style="fill: #d5d5d5"/>
    </g>
    <g clip-path="url(#p9790f244bf)">
     <use xlink:href="#C0_0_08a52e3e55" x="374.700708" y="94.892138" style="fill: #cbcbcb"/>
    </g>
    <g clip-path="url(#p9790f244bf)">
     <use xlink:href="#C0_0_08a52e3e55" x="379.597732" y="94.125102" style="fill: #bdbdbd"/>
    </g>
    <g clip-path="url(#p9790f244bf)">
     <use xlink:href="#C0_0_08a52e3e55" x="384.494755" y="93.252771" style="fill: #a3a3a3"/>
    </g>
    <g clip-path="url(#p9790f244bf)">
     <use xlink:href="#C0_0_08a52e3e55" x="389.391779" y="92.370551" style="fill: #878787"/>
    </g>
    <g clip-path="url(#p9790f244bf)">
     <use xlink:href="#C0_0_08a52e3e55" x="394.288803" y="91.509168" style="fill: #6a6a6a"/>
    </g>
    <g clip-path="url(#p9790f244bf)">
     <use xlink:href="#C0_0_08a52e3e55" x="399.185827" y="90.656552" style="fill: #4e4e4e"/>
    </g>
    <g clip-path="url(#p9790f244bf)">
     <use xlink:href="#C0_0_08a52e3e55" x="404.082851" y="89.764218" style="fill: #2c2c2c"/>
    </g>
    <g clip-path="url(#p9790f244bf)">
     <use xlink:href="#C0_0_08a52e3e55" x="408.979875" y="88.900391" style="fill: #161616"/>
    </g>
    <g clip-path="url(#p9790f244bf)">
     <use xlink:href="#C0_0_08a52e3e55" x="413.876899" y="87.970956" style="fill: #060606"/>
    </g>
    <g clip-path="url(#p9790f244bf)">
     <use xlink:href="#C0_0_08a52e3e55" x="418.773923" y="86.943523"/>
    </g>
    <g clip-path="url(#p9790f244bf)">
     <use xlink:href="#C0_0_08a52e3e55" x="423.670947" y="85.883235" style="fill: #010101"/>
    </g>
    <g clip-path="url(#p9790f244bf)">
     <use xlink:href="#C0_0_08a52e3e55" x="428.56797" y="84.732241" style="fill: #0f0f0f"/>
    </g>
    <g clip-path="url(#p9790f244bf)">
     <use xlink:href="#C0_0_08a52e3e55" x="433.464994" y="83.50894" style="fill: #232323"/>
    </g>
    <g clip-path="url(#p9790f244bf)">
     <use xlink:href="#C0_0_08a52e3e55" x="438.362018" y="82.217387" style="fill: #404040"/>
    </g>
    <g clip-path="url(#p9790f244bf)">
     <use xlink:href="#C0_0_08a52e3e55" x="443.259042" y="80.919295" style="fill: #5a5a5a"/>
    </g>
    <g clip-path="url(#p9790f244bf)">
     <use xlink:href="#C0_0_08a52e3e55" x="448.156066" y="79.546614" style="fill: #707070"/>
    </g>
    <g clip-path="url(#p9790f244bf)">
     <use xlink:href="#C0_0_08a52e3e55" x="453.05309" y="78.229506" style="fill: #8a8a8a"/>
    </g>
    <g clip-path="url(#p9790f244bf)">
     <use xlink:href="#C0_0_08a52e3e55" x="457.950114" y="76.901795" style="fill: #afafaf"/>
    </g>
    <g clip-path="url(#p9790f244bf)">
     <use xlink:href="#C0_0_08a52e3e55" x="462.847138" y="75.547707" style="fill: #d3d3d3"/>
    </g>
    <g clip-path="url(#p9790f244bf)">
     <use xlink:href="#C0_0_08a52e3e55" x="467.744162" y="74.18684" style="fill: #ececec"/>
    </g>
    <g clip-path="url(#p9790f244bf)">
     <use xlink:href="#C0_0_08a52e3e55" x="472.641186" y="72.717951" style="fill: #f9f9f9"/>
    </g>
    <g clip-path="url(#p9790f244bf)">
     <use xlink:href="#C0_0_08a52e3e55" x="477.538209" y="71.06669" style="fill: #fefefe"/>
    </g>
   </g>
   <g id="matplotlib.axis_3">
    <g id="xtick_11">
     <g id="line2d_16">
      <g>
       <use xlink:href="#md8cdbe7690" x="333.725962" y="133.22452" style="stroke: #000000; stroke-width: 0.8"/>
      </g>
     </g>
     <g id="text_8">
      <!-- $\mathdefault{10^{-2}}$ -->
      <g transform="translate(323.325962 147.62452) scale(0.1 -0.1)">
       <use xlink:href="#IBMPlexSans-31" transform="translate(0 0.184375)"/>
       <use xlink:href="#IBMPlexSans-30" transform="translate(59.999985 0.184375)"/>
       <use xlink:href="#IBMPlexSans-2212" transform="translate(120.90286 36.3) scale(0.7)"/>
       <use xlink:href="#IBMPlexSans-32" transform="translate(162.902849 36.3) scale(0.7)"/>
      </g>
     </g>
    </g>
    <g id="xtick_12">
     <g id="line2d_17">
      <g>
       <use xlink:href="#md8cdbe7690" x="514.138989" y="133.22452" style="stroke: #000000; stroke-width: 0.8"/>
      </g>
     </g>
     <g id="text_9">
      <!-- $\mathdefault{10^{-1}}$ -->
      <g transform="translate(503.738989 147.62452) scale(0.1 -0.1)">
       <use xlink:href="#IBMPlexSans-31" transform="translate(0 0.026563)"/>
       <use xlink:href="#IBMPlexSans-30" transform="translate(59.999985 0.026563)"/>
       <use xlink:href="#IBMPlexSans-2212" transform="translate(120.90286 36.142188) scale(0.7)"/>
       <use xlink:href="#IBMPlexSans-31" transform="translate(162.902849 36.142188) scale(0.7)"/>
      </g>
     </g>
    </g>
    <g id="xtick_13">
     <g id="line2d_18">
      <g>
       <use xlink:href="#mddc114b152" x="388.035695" y="133.22452" style="stroke: #000000; stroke-width: 0.6"/>
      </g>
     </g>
    </g>
    <g id="xtick_14">
     <g id="line2d_19">
      <g>
       <use xlink:href="#mddc114b152" x="419.804852" y="133.22452" style="stroke: #000000; stroke-width: 0.6"/>
      </g>
     </g>
    </g>
    <g id="xtick_15">
     <g id="line2d_20">
      <g>
       <use xlink:href="#mddc114b152" x="442.345428" y="133.22452" style="stroke: #000000; stroke-width: 0.6"/>
      </g>
     </g>
    </g>
    <g id="xtick_16">
     <g id="line2d_21">
      <g>
       <use xlink:href="#mddc114b152" x="459.829257" y="133.22452" style="stroke: #000000; stroke-width: 0.6"/>
      </g>
     </g>
    </g>
    <g id="xtick_17">
     <g id="line2d_22">
      <g>
       <use xlink:href="#mddc114b152" x="474.114585" y="133.22452" style="stroke: #000000; stroke-width: 0.6"/>
      </g>
     </g>
    </g>
    <g id="xtick_18">
     <g id="line2d_23">
      <g>
       <use xlink:href="#mddc114b152" x="486.192658" y="133.22452" style="stroke: #000000; stroke-width: 0.6"/>
      </g>
     </g>
    </g>
    <g id="xtick_19">
     <g id="line2d_24">
      <g>
       <use xlink:href="#mddc114b152" x="496.655161" y="133.22452" style="stroke: #000000; stroke-width: 0.6"/>
      </g>
     </g>
    </g>
    <g id="xtick_20">
     <g id="line2d_25">
      <g>
       <use xlink:href="#mddc114b152" x="505.883742" y="133.22452" style="stroke: #000000; stroke-width: 0.6"/>
      </g>
     </g>
    </g>
   </g>
   <g id="matplotlib.axis_4">
    <g id="ytick_5">
     <g id="line2d_26">
      <g>
       <use xlink:href="#m824bdf76cc" x="325.730469" y="100.879929" style="stroke: #000000; stroke-width: 0.8"/>
      </g>
     </g>
     <g id="text_10">
      <!-- 1.44 -->
      <g transform="translate(298.010156 104.579929) scale(0.1 -0.1)">
       <use xlink:href="#IBMPlexSans-31"/>
       <use xlink:href="#IBMPlexSans-2e" transform="translate(59.999985 0)"/>
       <use xlink:href="#IBMPlexSans-34" transform="translate(87.199982 0)"/>
       <use xlink:href="#IBMPlexSans-34" transform="translate(147.199966 0)"/>
      </g>
     </g>
    </g>
    <g id="ytick_6">
     <g id="line2d_27">
      <g>
       <use xlink:href="#m824bdf76cc" x="325.730469" y="55.834051" style="stroke: #000000; stroke-width: 0.8"/>
      </g>
     </g>
     <g id="text_11">
      <!-- 1.46 -->
      <g transform="translate(298.010156 59.534051) scale(0.1 -0.1)">
       <use xlink:href="#IBMPlexSans-31"/>
       <use xlink:href="#IBMPlexSans-2e" transform="translate(59.999985 0)"/>
       <use xlink:href="#IBMPlexSans-34" transform="translate(87.199982 0)"/>
       <use xlink:href="#IBMPlexSans-36" transform="translate(147.199966 0)"/>
      </g>
     </g>
    </g>
    <g id="text_12">
     <!-- $D$ (95% CI) [m²/s] -->
     <g transform="translate(292.010156 115.51226) rotate(-90) scale(0.1 -0.1)">
      <defs>
       <path id="DejaVuSans-Oblique-44" d="M 1081 4666 
L 2438 4666 
Q 3519 4666 4070 4208 
Q 4622 3750 4622 2847 
Q 4622 2250 4412 1698 
Q 4203 1147 3834 769 
Q 3463 381 2891 190 
Q 2319 0 1538 0 
L 172 0 
L 1081 4666 
z
M 1613 4147 
L 909 519 
L 1734 519 
Q 2794 519 3375 1128 
Q 3956 1738 3956 2847 
Q 3956 3519 3581 3833 
Q 3206 4147 2406 4147 
L 1613 4147 
z
" transform="scale(0.015625)"/>
       <path id="IBMPlexSans-39" d="M 3411 2829 
C 3411 3891 2842 4544 1914 4544 
C 1018 4544 429 3942 429 3066 
C 429 2221 979 1690 1747 1690 
C 2291 1690 2611 1965 2822 2330 
L 2854 2317 
C 2611 1280 2080 698 1126 0 
L 1818 0 
C 2534 467 3411 1504 3411 2829 
z
M 1920 2144 
C 1331 2144 986 2483 986 3085 
L 986 3136 
C 986 3738 1331 4077 1920 4077 
C 2509 4077 2854 3738 2854 3136 
L 2854 3085 
C 2854 2483 2509 2144 1920 2144 
z
" transform="scale(0.015625)"/>
       <path id="IBMPlexSans-43" d="M 2170 -77 
C 2912 -77 3456 314 3738 941 
L 3309 1210 
C 3130 723 2739 403 2170 403 
C 1402 403 947 960 947 1875 
L 947 2541 
C 947 3456 1402 4064 2170 4064 
C 2720 4064 3091 3763 3270 3302 
L 3706 3565 
C 3424 4186 2912 4544 2170 4544 
C 1043 4544 371 3699 371 2208 
C 371 717 1043 -77 2170 -77 
z
" transform="scale(0.015625)"/>
       <path id="IBMPlexSans-49" d="M 2176 0 
L 2176 448 
L 1549 448 
L 1549 4019 
L 2176 4019 
L 2176 4467 
L 384 4467 
L 384 4019 
L 1011 4019 
L 1011 448 
L 384 448 
L 384 0 
L 2176 0 
z
" transform="scale(0.015625)"/>
       <path id="IBMPlexSans-5b" d="M 1645 -883 
L 1645 -480 
L 1037 -480 
L 1037 4461 
L 1645 4461 
L 1645 4864 
L 595 4864 
L 595 -883 
L 1645 -883 
z
" transform="scale(0.015625)"/>
       <path id="IBMPlexSans-6d" d="M 1056 0 
L 1056 2291 
C 1056 2714 1440 2918 1843 2918 
C 2330 2918 2554 2618 2554 2029 
L 2554 0 
L 3066 0 
L 3066 2291 
C 3066 2714 3437 2918 3840 2918 
C 4339 2918 4563 2611 4563 2029 
L 4563 0 
L 5075 0 
L 5075 2118 
C 5075 2918 4672 3379 4000 3379 
C 3437 3379 3117 3066 2995 2707 
L 2982 2707 
C 2803 3181 2406 3379 1971 3379 
C 1459 3379 1229 3104 1082 2765 
L 1056 2765 
L 1056 3302 
L 544 3302 
L 544 0 
L 1056 0 
z
" transform="scale(0.015625)"/>
       <path id="IBMPlexSans-b2" d="M 1990 2426 
L 678 2426 
L 1299 2906 
C 1658 3181 1907 3437 1907 3808 
C 1907 4218 1613 4506 1088 4506 
C 576 4506 320 4230 218 3930 
L 563 3802 
C 634 4006 768 4173 1062 4173 
C 1331 4173 1478 4026 1478 3808 
L 1478 3770 
C 1478 3539 1331 3347 1082 3142 
L 250 2470 
L 250 2106 
L 1990 2106 
L 1990 2426 
z
" transform="scale(0.015625)"/>
       <path id="IBMPlexSans-2f" d="M 518 -966 
L 2189 4736 
L 1728 4736 
L 58 -966 
L 518 -966 
z
" transform="scale(0.015625)"/>
       <path id="IBMPlexSans-73" d="M 1536 -77 
C 2291 -77 2758 314 2758 954 
C 2758 1453 2477 1773 1747 1882 
L 1491 1920 
C 1082 1984 858 2112 858 2432 
C 858 2746 1082 2944 1504 2944 
C 1926 2944 2208 2746 2355 2541 
L 2694 2848 
C 2426 3181 2074 3379 1542 3379 
C 870 3379 365 3059 365 2406 
C 365 1792 819 1542 1427 1453 
L 1690 1414 
C 2125 1350 2266 1152 2266 896 
C 2266 557 2010 358 1574 358 
C 1158 358 851 544 595 864 
L 230 570 
C 525 179 928 -77 1536 -77 
z
" transform="scale(0.015625)"/>
       <path id="IBMPlexSans-5d" d="M 384 4864 
L 384 4461 
L 992 4461 
L 992 -480 
L 384 -480 
L 384 -883 
L 1434 -883 
L 1434 4864 
L 384 4864 
z
" transform="scale(0.015625)"/>
      </defs>
      <use xlink:href="#DejaVuSans-Oblique-44"/>
      <use xlink:href="#IBMPlexSans-20" transform="translate(77.001953 0)"/>
      <use xlink:href="#IBMPlexSans-28" transform="translate(100.601944 0)"/>
      <use xlink:href="#IBMPlexSans-39" transform="translate(134.101929 0)"/>
      <use xlink:href="#IBMPlexSans-35" transform="translate(194.101913 0)"/>
      <use xlink:href="#IBMPlexSans-25" transform="translate(254.101898 0)"/>
      <use xlink:href="#IBMPlexSans-20" transform="translate(346.80188 0)"/>
      <use xlink:href="#IBMPlexSans-43" transform="translate(370.401871 0)"/>
      <use xlink:href="#IBMPlexSans-49" transform="translate(432.501862 0)"/>
      <use xlink:href="#IBMPlexSans-29" transform="translate(472.501846 0)"/>
      <use xlink:href="#IBMPlexSans-20" transform="translate(506.001831 0)"/>
      <use xlink:href="#IBMPlexSans-5b" transform="translate(529.601822 0)"/>
      <use xlink:href="#IBMPlexSans-6d" transform="translate(561.301819 0)"/>
      <use xlink:href="#IBMPlexSans-b2" transform="translate(648.601807 0)"/>
      <use xlink:href="#IBMPlexSans-2f" transform="translate(683.201797 0)"/>
      <use xlink:href="#IBMPlexSans-73" transform="translate(721.501785 0)"/>
      <use xlink:href="#IBMPlexSans-5d" transform="translate(770.201782 0)"/>
     </g>
    </g>
    <g id="text_13">
     <!-- 1e−8 -->
     <g transform="translate(325.730469 14.6) scale(0.1 -0.1)">
      <defs>
       <path id="IBMPlexSans-38" d="M 1920 -77 
C 2938 -77 3469 480 3469 1216 
C 3469 1824 3104 2176 2566 2323 
L 2566 2374 
C 3034 2534 3334 2912 3334 3424 
C 3334 4102 2810 4544 1920 4544 
C 1030 4544 506 4102 506 3424 
C 506 2912 806 2534 1274 2374 
L 1274 2323 
C 736 2176 371 1824 371 1216 
C 371 480 902 -77 1920 -77 
z
M 1920 390 
C 1299 390 941 685 941 1190 
L 941 1325 
C 941 1830 1299 2125 1920 2125 
C 2541 2125 2899 1830 2899 1325 
L 2899 1190 
C 2899 685 2541 390 1920 390 
z
M 1920 2573 
C 1363 2573 1062 2822 1062 3277 
L 1062 3373 
C 1062 3827 1363 4077 1920 4077 
C 2477 4077 2778 3827 2778 3373 
L 2778 3277 
C 2778 2822 2477 2573 1920 2573 
z
" transform="scale(0.015625)"/>
      </defs>
      <use xlink:href="#IBMPlexSans-31"/>
      <use xlink:href="#IBMPlexSans-65" transform="translate(59.999985 0)"/>
      <use xlink:href="#IBMPlexSans-2212" transform="translate(114.899979 0)"/>
      <use xlink:href="#IBMPlexSans-38" transform="translate(174.899963 0)"/>
     </g>
    </g>
   </g>
   <g id="line2d_28">
    <path d="M 335.524517 95.134302 
L 340.42154 95.821529 
L 345.318564 96.29392 
L 350.215588 96.578112 
L 355.112612 96.621895 
L 360.009636 96.434459 
L 364.90666 96.083855 
L 369.803684 95.560049 
L 374.700708 94.892138 
L 379.597732 94.125102 
L 384.494755 93.252771 
L 389.391779 92.370551 
L 394.288803 91.509168 
L 399.185827 90.656552 
L 404.082851 89.764218 
L 408.979875 88.900391 
L 413.876899 87.970956 
L 418.773923 86.943523 
L 423.670947 85.883235 
L 428.56797 84.732241 
L 433.464994 83.50894 
L 438.362018 82.217387 
L 443.259042 80.919295 
L 448.156066 79.546614 
L 453.05309 78.229506 
L 457.950114 76.901795 
L 462.847138 75.547707 
L 467.744162 74.18684 
L 472.641186 72.717951 
L 477.538209 71.06669 
L 482.435233 69.158052 
L 487.332257 66.97303 
L 492.229281 64.420094 
L 497.126305 61.533614 
L 502.023329 58.231519 
L 506.920353 54.625038 
L 511.817377 50.670815 
L 516.714401 46.410732 
L 521.611424 41.906225 
L 526.508448 37.046671 
L 531.405472 31.863366 
" clip-path="url(#p9790f244bf)" style="fill: none; stroke: #d62728; stroke-width: 1.5; stroke-linecap: square"/>
   </g>
   <g id="patch_6">
    <path d="M 325.730469 133.22452 
L 325.730469 17.6 
" style="fill: none; stroke: #000000; stroke-width: 0.8; stroke-linejoin: miter; stroke-linecap: square"/>
   </g>
   <g id="patch_7">
    <path d="M 325.730469 133.22452 
L 541.19952 133.22452 
" style="fill: none; stroke: #000000; stroke-width: 0.8; stroke-linejoin: miter; stroke-linecap: square"/>
   </g>
  </g>
  <g id="axes_3">
   <g id="patch_8">
    <path d="M 48.640625 274.94952 
L 264.109676 274.94952 
L 264.109676 159.325 
L 48.640625 159.325 
z
" style="fill: #ffffff"/>
   </g>
   <g id="matplotlib.axis_5">
    <g id="xtick_21">
     <g id="line2d_29">
      <g>
       <use xlink:href="#md8cdbe7690" x="56.636118" y="274.94952" style="stroke: #000000; stroke-width: 0.8"/>
      </g>
     </g>
     <g id="text_14">
      <!-- $\mathdefault{10^{-2}}$ -->
      <g transform="translate(46.236118 289.34952) scale(0.1 -0.1)">
       <use xlink:href="#IBMPlexSans-31" transform="translate(0 0.184375)"/>
       <use xlink:href="#IBMPlexSans-30" transform="translate(59.999985 0.184375)"/>
       <use xlink:href="#IBMPlexSans-2212" transform="translate(120.90286 36.3) scale(0.7)"/>
       <use xlink:href="#IBMPlexSans-32" transform="translate(162.902849 36.3) scale(0.7)"/>
      </g>
     </g>
    </g>
    <g id="xtick_22">
     <g id="line2d_30">
      <g>
       <use xlink:href="#md8cdbe7690" x="237.049146" y="274.94952" style="stroke: #000000; stroke-width: 0.8"/>
      </g>
     </g>
     <g id="text_15">
      <!-- $\mathdefault{10^{-1}}$ -->
      <g transform="translate(226.649146 289.34952) scale(0.1 -0.1)">
       <use xlink:href="#IBMPlexSans-31" transform="translate(0 0.026563)"/>
       <use xlink:href="#IBMPlexSans-30" transform="translate(59.999985 0.026563)"/>
       <use xlink:href="#IBMPlexSans-2212" transform="translate(120.90286 36.142188) scale(0.7)"/>
       <use xlink:href="#IBMPlexSans-31" transform="translate(162.902849 36.142188) scale(0.7)"/>
      </g>
     </g>
    </g>
    <g id="xtick_23">
     <g id="line2d_31">
      <g>
       <use xlink:href="#mddc114b152" x="110.945851" y="274.94952" style="stroke: #000000; stroke-width: 0.6"/>
      </g>
     </g>
    </g>
    <g id="xtick_24">
     <g id="line2d_32">
      <g>
       <use xlink:href="#mddc114b152" x="142.715008" y="274.94952" style="stroke: #000000; stroke-width: 0.6"/>
      </g>
     </g>
    </g>
    <g id="xtick_25">
     <g id="line2d_33">
      <g>
       <use xlink:href="#mddc114b152" x="165.255584" y="274.94952" style="stroke: #000000; stroke-width: 0.6"/>
      </g>
     </g>
    </g>
    <g id="xtick_26">
     <g id="line2d_34">
      <g>
       <use xlink:href="#mddc114b152" x="182.739413" y="274.94952" style="stroke: #000000; stroke-width: 0.6"/>
      </g>
     </g>
    </g>
    <g id="xtick_27">
     <g id="line2d_35">
      <g>
       <use xlink:href="#mddc114b152" x="197.024741" y="274.94952" style="stroke: #000000; stroke-width: 0.6"/>
      </g>
     </g>
    </g>
    <g id="xtick_28">
     <g id="line2d_36">
      <g>
       <use xlink:href="#mddc114b152" x="209.102814" y="274.94952" style="stroke: #000000; stroke-width: 0.6"/>
      </g>
     </g>
    </g>
    <g id="xtick_29">
     <g id="line2d_37">
      <g>
       <use xlink:href="#mddc114b152" x="219.565317" y="274.94952" style="stroke: #000000; stroke-width: 0.6"/>
      </g>
     </g>
    </g>
    <g id="xtick_30">
     <g id="line2d_38">
      <g>
       <use xlink:href="#mddc114b152" x="228.793898" y="274.94952" style="stroke: #000000; stroke-width: 0.6"/>
      </g>
     </g>
    </g>
    <g id="text_16">
     <!-- Cutoff frequency [THz] -->
     <g transform="translate(105.854057 302.94952) scale(0.1 -0.1)">
      <defs>
       <path id="IBMPlexSans-75" d="M 2579 0 
L 3091 0 
L 3091 3302 
L 2579 3302 
L 2579 1018 
C 2579 582 2182 384 1779 384 
C 1286 384 1024 685 1024 1274 
L 1024 3302 
L 512 3302 
L 512 1184 
C 512 384 947 -77 1626 -77 
C 2176 -77 2426 224 2554 538 
L 2579 538 
L 2579 0 
z
" transform="scale(0.015625)"/>
       <path id="IBMPlexSans-6f" d="M 1792 -77 
C 2675 -77 3283 602 3283 1651 
C 3283 2701 2675 3379 1792 3379 
C 909 3379 301 2701 301 1651 
C 301 602 909 -77 1792 -77 
z
M 1792 378 
C 1242 378 851 717 851 1414 
L 851 1888 
C 851 2586 1242 2925 1792 2925 
C 2342 2925 2733 2586 2733 1888 
L 2733 1414 
C 2733 717 2342 378 1792 378 
z
" transform="scale(0.015625)"/>
       <path id="IBMPlexSans-66" d="M 723 0 
L 1235 0 
L 1235 2854 
L 1946 2854 
L 1946 3302 
L 1235 3302 
L 1235 4288 
L 1946 4288 
L 1946 4736 
L 1446 4736 
C 960 4736 723 4422 723 3968 
L 723 3302 
L 186 3302 
L 186 2854 
L 723 2854 
L 723 0 
z
" transform="scale(0.015625)"/>
       <path id="IBMPlexSans-72" d="M 1056 0 
L 1056 2240 
C 1056 2554 1389 2790 1939 2790 
L 2240 2790 
L 2240 3302 
L 2042 3302 
C 1504 3302 1203 3008 1088 2694 
L 1056 2694 
L 1056 3302 
L 544 3302 
L 544 0 
L 1056 0 
z
" transform="scale(0.015625)"/>
       <path id="IBMPlexSans-71" d="M 2656 -1280 
L 3168 -1280 
L 3168 3302 
L 2656 3302 
L 2656 2765 
L 2630 2765 
C 2458 3181 2118 3379 1664 3379 
C 838 3379 320 2707 320 1651 
C 320 595 838 -77 1664 -77 
C 2118 -77 2432 128 2630 538 
L 2656 538 
L 2656 -1280 
z
M 1805 384 
C 1229 384 870 781 870 1370 
L 870 1933 
C 870 2522 1229 2918 1805 2918 
C 2272 2918 2656 2650 2656 2285 
L 2656 1056 
C 2656 627 2272 384 1805 384 
z
" transform="scale(0.015625)"/>
       <path id="IBMPlexSans-6e" d="M 1056 0 
L 1056 2291 
C 1056 2714 1453 2918 1862 2918 
C 2355 2918 2611 2618 2611 2029 
L 2611 0 
L 3123 0 
L 3123 2118 
C 3123 2918 2694 3379 2016 3379 
C 1523 3379 1242 3136 1082 2765 
L 1056 2765 
L 1056 3302 
L 544 3302 
L 544 0 
L 1056 0 
z
" transform="scale(0.015625)"/>
       <path id="IBMPlexSans-79" d="M 1779 1056 
L 1600 518 
L 1568 518 
L 1414 1056 
L 621 3302 
L 109 3302 
L 1344 -128 
L 1094 -832 
L 576 -832 
L 576 -1280 
L 838 -1280 
C 1325 -1280 1459 -1165 1606 -768 
L 3085 3302 
L 2579 3302 
L 1779 1056 
z
" transform="scale(0.015625)"/>
       <path id="IBMPlexSans-54" d="M 3520 3994 
L 3520 4467 
L 141 4467 
L 141 3994 
L 1562 3994 
L 1562 0 
L 2099 0 
L 2099 3994 
L 3520 3994 
z
" transform="scale(0.015625)"/>
       <path id="IBMPlexSans-48" d="M 3392 0 
L 3930 0 
L 3930 4467 
L 3392 4467 
L 3392 2496 
L 1133 2496 
L 1133 4467 
L 595 4467 
L 595 0 
L 1133 0 
L 1133 2022 
L 3392 2022 
L 3392 0 
z
" transform="scale(0.015625)"/>
       <path id="IBMPlexSans-7a" d="M 2758 0 
L 2758 448 
L 794 448 
L 2707 2918 
L 2707 3302 
L 269 3302 
L 269 2854 
L 2086 2854 
L 211 429 
L 211 0 
L 2758 0 
z
" transform="scale(0.015625)"/>
      </defs>
      <use xlink:href="#IBMPlexSans-43"/>
      <use xlink:href="#IBMPlexSans-75" transform="translate(62.099991 0)"/>
      <use xlink:href="#IBMPlexSans-74" transform="translate(118.899979 0)"/>
      <use xlink:href="#IBMPlexSans-6f" transform="translate(153.999969 0)"/>
      <use xlink:href="#IBMPlexSans-66" transform="translate(209.999954 0)"/>
      <use xlink:href="#IBMPlexSans-66" transform="translate(242.399948 0)"/>
      <use xlink:href="#IBMPlexSans-20" transform="translate(274.799942 0)"/>
      <use xlink:href="#IBMPlexSans-66" transform="translate(298.399933 0)"/>
      <use xlink:href="#IBMPlexSans-72" transform="translate(330.799927 0)"/>
      <use xlink:href="#IBMPlexSans-65" transform="translate(367.499924 0)"/>
      <use xlink:href="#IBMPlexSans-71" transform="translate(422.399918 0)"/>
      <use xlink:href="#IBMPlexSans-75" transform="translate(480.399902 0)"/>
      <use xlink:href="#IBMPlexSans-65" transform="translate(537.19989 0)"/>
      <use xlink:href="#IBMPlexSans-6e" transform="translate(592.099884 0)"/>
      <use xlink:href="#IBMPlexSans-63" transform="translate(648.899872 0)"/>
      <use xlink:href="#IBMPlexSans-79" transform="translate(699.19986 0)"/>
      <use xlink:href="#IBMPlexSans-20" transform="translate(749.099854 0)"/>
      <use xlink:href="#IBMPlexSans-5b" transform="translate(772.699844 0)"/>
      <use xlink:href="#IBMPlexSans-54" transform="translate(804.399841 0)"/>
      <use xlink:href="#IBMPlexSans-48" transform="translate(861.599838 0)"/>
      <use xlink:href="#IBMPlexSans-7a" transform="translate(932.29982 0)"/>
      <use xlink:href="#IBMPlexSans-5d" transform="translate(978.699814 0)"/>
     </g>
    </g>
   </g>
   <g id="matplotlib.axis_6">
    <g id="ytick_7">
     <g id="line2d_39">
      <g>
       <use xlink:href="#m824bdf76cc" x="48.640625" y="266.55695" style="stroke: #000000; stroke-width: 0.8"/>
      </g>
     </g>
     <g id="text_17">
      <!-- −4 -->
      <g transform="translate(29.640625 270.25695) scale(0.1 -0.1)">
       <use xlink:href="#IBMPlexSans-2212"/>
       <use xlink:href="#IBMPlexSans-34" transform="translate(59.999985 0)"/>
      </g>
     </g>
    </g>
    <g id="ytick_8">
     <g id="line2d_40">
      <g>
       <use xlink:href="#m824bdf76cc" x="48.640625" y="239.748963" style="stroke: #000000; stroke-width: 0.8"/>
      </g>
     </g>
     <g id="text_18">
      <!-- −2 -->
      <g transform="translate(29.640625 243.448963) scale(0.1 -0.1)">
       <use xlink:href="#IBMPlexSans-2212"/>
       <use xlink:href="#IBMPlexSans-32" transform="translate(59.999985 0)"/>
      </g>
     </g>
    </g>
    <g id="ytick_9">
     <g id="line2d_41">
      <g>
       <use xlink:href="#m824bdf76cc" x="48.640625" y="212.940975" style="stroke: #000000; stroke-width: 0.8"/>
      </g>
     </g>
     <g id="text_19">
      <!-- 0 -->
      <g transform="translate(35.640625 216.640975) scale(0.1 -0.1)">
       <use xlink:href="#IBMPlexSans-30"/>
      </g>
     </g>
    </g>
    <g id="ytick_10">
     <g id="line2d_42">
      <g>
       <use xlink:href="#m824bdf76cc" x="48.640625" y="186.132988" style="stroke: #000000; stroke-width: 0.8"/>
      </g>
     </g>
     <g id="text_20">
      <!-- 2 -->
      <g transform="translate(35.640625 189.832988) scale(0.1 -0.1)">
       <use xlink:href="#IBMPlexSans-32"/>
      </g>
     </g>
    </g>
    <g id="ytick_11">
     <g id="line2d_43">
      <g>
       <use xlink:href="#m824bdf76cc" x="48.640625" y="159.325" style="stroke: #000000; stroke-width: 0.8"/>
      </g>
     </g>
     <g id="text_21">
      <!-- 4 -->
      <g transform="translate(35.640625 163.025) scale(0.1 -0.1)">
       <use xlink:href="#IBMPlexSans-34"/>
      </g>
     </g>
    </g>
    <g id="text_22">
     <!-- Z-score -->
     <g transform="translate(23.640625 234.363041) rotate(-90) scale(0.1 -0.1)">
      <defs>
       <path id="IBMPlexSans-5a" d="M 3482 474 
L 806 474 
L 3392 3981 
L 3392 4467 
L 365 4467 
L 365 3994 
L 2810 3994 
L 230 486 
L 230 0 
L 3482 0 
L 3482 474 
z
" transform="scale(0.015625)"/>
       <path id="IBMPlexSans-2d" d="M 2112 1670 
L 2112 2221 
L 442 2221 
L 442 1670 
L 2112 1670 
z
" transform="scale(0.015625)"/>
      </defs>
      <use xlink:href="#IBMPlexSans-5a"/>
      <use xlink:href="#IBMPlexSans-2d" transform="translate(57.999985 0)"/>
      <use xlink:href="#IBMPlexSans-73" transform="translate(97.899979 0)"/>
      <use xlink:href="#IBMPlexSans-63" transform="translate(146.599976 0)"/>
      <use xlink:href="#IBMPlexSans-6f" transform="translate(196.899963 0)"/>
      <use xlink:href="#IBMPlexSans-72" transform="translate(252.899948 0)"/>
      <use xlink:href="#IBMPlexSans-65" transform="translate(289.599945 0)"/>
     </g>
    </g>
   </g>
   <g id="line2d_44">
    <path d="M 58.434673 238.141019 
L 63.331697 238.936851 
L 68.228721 239.851179 
L 73.125744 240.872886 
L 78.022768 241.976537 
L 82.919792 243.127176 
L 87.816816 244.314768 
L 92.71384 245.514952 
L 97.610864 246.727947 
L 102.507888 247.940836 
L 107.404912 249.162423 
L 112.301936 250.418579 
L 117.198959 251.715314 
L 122.095983 253.030429 
L 126.993007 254.332982 
L 131.890031 255.63839 
L 136.787055 256.910432 
L 141.684079 258.13253 
L 146.581103 259.33408 
L 151.478127 260.50277 
L 156.375151 261.641588 
L 161.272175 262.773153 
L 166.169198 263.944102 
L 171.066222 265.130619 
L 175.963246 266.429989 
L 180.86027 267.776262 
L 185.757294 269.106498 
L 190.654318 270.408734 
L 195.551342 271.466371 
L 200.448366 272.149322 
L 205.34539 272.268721 
L 210.242413 271.710793 
L 215.139437 270.177637 
L 220.036461 267.642064 
L 224.933485 263.820466 
L 229.830509 258.933404 
L 234.727533 252.723565 
L 239.624557 245.231848 
L 244.521581 236.484867 
L 249.418605 225.731007 
L 254.315628 212.737065 
" clip-path="url(#p6a19042338)" style="fill: none; stroke: #1f77b4; stroke-width: 1.5; stroke-linecap: square"/>
   </g>
   <g id="line2d_45">
    <path d="M 58.434673 221.698527 
L 63.331697 221.628423 
L 68.228721 221.024213 
L 73.125744 219.996633 
L 78.022768 218.79314 
L 82.919792 217.608217 
L 87.816816 216.503196 
L 92.71384 215.77534 
L 97.610864 215.367922 
L 102.507888 215.402467 
L 107.404912 215.591855 
L 112.301936 215.673785 
L 117.198959 215.522458 
L 122.095983 214.97268 
L 126.993007 214.089852 
L 131.890031 212.693298 
L 136.787055 210.974527 
L 141.684079 208.80318 
L 146.581103 206.242673 
L 151.478127 203.095647 
L 156.375151 199.636401 
L 161.272175 195.814737 
L 166.169198 191.939874 
L 171.066222 187.727928 
L 175.963246 183.05096 
L 180.86027 177.137343 
L 185.757294 169.079473 
L 190.654318 158.06206 
L 195.551342 141.609051 
L 200.448366 117.627702 
L 205.34539 82.219577 
L 210.242413 31.736053 
L 212.557783 -1 
" clip-path="url(#p6a19042338)" style="fill: none; stroke: #2ca02c; stroke-width: 1.5; stroke-linecap: square"/>
   </g>
   <g id="line2d_46">
    <path d="M 48.640625 212.940975 
L 264.109676 212.940975 
" clip-path="url(#p6a19042338)" style="fill: none; stroke-dasharray: 5.55,2.4; stroke-dashoffset: 0; stroke: #000000; stroke-width: 1.5"/>
   </g>
   <g id="line2d_47">
    <path d="M 48.640625 186.132988 
L 264.109676 186.132988 
" clip-path="url(#p6a19042338)" style="fill: none; stroke-dasharray: 5.55,2.4; stroke-dashoffset: 0; stroke: #000000; stroke-width: 1.5"/>
   </g>
   <g id="patch_9">
    <path d="M 48.640625 274.94952 
L 48.640625 159.325 
" style="fill: none; stroke: #000000; stroke-width: 0.8; stroke-linejoin: miter; stroke-linecap: square"/>
   </g>
   <g id="patch_10">
    <path d="M 48.640625 274.94952 
L 264.109676 274.94952 
" style="fill: none; stroke: #000000; stroke-width: 0.8; stroke-linejoin: miter; stroke-linecap: square"/>
   </g>
   <g id="legend_1">
    <g id="patch_11">
     <path d="M 55.640625 196.125 
L 126.470313 196.125 
Q 128.470313 196.125 128.470313 194.125 
L 128.470313 166.325 
Q 128.470313 164.325 126.470313 164.325 
L 55.640625 164.325 
Q 53.640625 164.325 53.640625 166.325 
L 53.640625 194.125 
Q 53.640625 196.125 55.640625 196.125 
z
" style="fill: #ffffff; opacity: 0.8; stroke: #cccccc; stroke-linejoin: miter"/>
    </g>
    <g id="line2d_48">
     <path d="M 57.640625 172.225 
L 67.640625 172.225 
L 77.640625 172.225 
" style="fill: none; stroke: #1f77b4; stroke-width: 1.5; stroke-linecap: square"/>
    </g>
    <g id="text_23">
     <!-- Cost -->
     <g transform="translate(85.640625 175.725) scale(0.1 -0.1)">
      <use xlink:href="#IBMPlexSans-43"/>
      <use xlink:href="#IBMPlexSans-6f" transform="translate(62.099991 0)"/>
      <use xlink:href="#IBMPlexSans-73" transform="translate(118.099976 0)"/>
      <use xlink:href="#IBMPlexSans-74" transform="translate(166.799973 0)"/>
     </g>
    </g>
    <g id="line2d_49">
     <path d="M 57.640625 186.625 
L 67.640625 186.625 
L 77.640625 186.625 
" style="fill: none; stroke: #2ca02c; stroke-width: 1.5; stroke-linecap: square"/>
    </g>
    <g id="text_24">
     <!-- Criterion -->
     <g transform="translate(85.640625 190.125) scale(0.1 -0.1)">
      <use xlink:href="#IBMPlexSans-43"/>
      <use xlink:href="#IBMPlexSans-72" transform="translate(62.099991 0)"/>
      <use xlink:href="#IBMPlexSans-69" transform="translate(98.799988 0)"/>
      <use xlink:href="#IBMPlexSans-74" transform="translate(123.799973 0)"/>
      <use xlink:href="#IBMPlexSans-65" transform="translate(158.899963 0)"/>
      <use xlink:href="#IBMPlexSans-72" transform="translate(213.799957 0)"/>
      <use xlink:href="#IBMPlexSans-69" transform="translate(250.499954 0)"/>
      <use xlink:href="#IBMPlexSans-6f" transform="translate(275.499939 0)"/>
      <use xlink:href="#IBMPlexSans-6e" transform="translate(331.499924 0)"/>
     </g>
    </g>
   </g>
  </g>
  <g id="axes_4">
   <g id="patch_12">
    <path d="M 325.730469 274.94952 
L 541.19952 274.94952 
L 541.19952 159.325 
L 325.730469 159.325 
z
" style="fill: #ffffff"/>
   </g>
   <g id="PathCollection_2">
    <defs>
     <path id="C1_0_e78b834a0b" d="M 0 2.738613 
C 0.726289 2.738613 1.422928 2.450055 1.936492 1.936492 
C 2.450055 1.422928 2.738613 0.726289 2.738613 -0 
C 2.738613 -0.726289 2.450055 -1.422928 1.936492 -1.936492 
C 1.422928 -2.450055 0.726289 -2.738613 0 -2.738613 
C -0.726289 -2.738613 -1.422928 -2.450055 -1.936492 -1.936492 
C -2.450055 -1.422928 -2.738613 -0.726289 -2.738613 0 
C -2.738613 0.726289 -2.450055 1.422928 -1.936492 1.936492 
C -1.422928 2.450055 -0.726289 2.738613 0 2.738613 
z
"/>
    </defs>
    <g clip-path="url(#p9a93149e8e)">
     <use xlink:href="#C1_0_e78b834a0b" x="335.524517" y="269.67771" style="fill: #f1f1f1"/>
    </g>
    <g clip-path="url(#p9a93149e8e)">
     <use xlink:href="#C1_0_e78b834a0b" x="340.42154" y="269.69386" style="fill: #ededed"/>
    </g>
    <g clip-path="url(#p9a93149e8e)">
     <use xlink:href="#C1_0_e78b834a0b" x="345.318564" y="269.42444" style="fill: #e9e9e9"/>
    </g>
    <g clip-path="url(#p9a93149e8e)">
     <use xlink:href="#C1_0_e78b834a0b" x="350.215588" y="269.211822" style="fill: #e6e6e6"/>
    </g>
    <g clip-path="url(#p9a93149e8e)">
     <use xlink:href="#C1_0_e78b834a0b" x="355.112612" y="269.052082" style="fill: #e3e3e3"/>
    </g>
    <g clip-path="url(#p9a93149e8e)">
     <use xlink:href="#C1_0_e78b834a0b" x="360.009636" y="268.937382" style="fill: #dfdfdf"/>
    </g>
    <g clip-path="url(#p9a93149e8e)">
     <use xlink:href="#C1_0_e78b834a0b" x="364.90666" y="268.855972" style="fill: #dcdcdc"/>
    </g>
    <g clip-path="url(#p9a93149e8e)">
     <use xlink:href="#C1_0_e78b834a0b" x="369.803684" y="268.807749" style="fill: #d5d5d5"/>
    </g>
    <g clip-path="url(#p9a93149e8e)">
     <use xlink:href="#C1_0_e78b834a0b" x="374.700708" y="268.582014" style="fill: #cbcbcb"/>
    </g>
    <g clip-path="url(#p9a93149e8e)">
     <use xlink:href="#C1_0_e78b834a0b" x="379.597732" y="268.596055" style="fill: #bdbdbd"/>
    </g>
    <g clip-path="url(#p9a93149e8e)">
     <use xlink:href="#C1_0_e78b834a0b" x="384.494755" y="268.45308" style="fill: #a3a3a3"/>
    </g>
    <g clip-path="url(#p9a93149e8e)">
     <use xlink:href="#C1_0_e78b834a0b" x="389.391779" y="268.347922" style="fill: #878787"/>
    </g>
    <g clip-path="url(#p9a93149e8e)">
     <use xlink:href="#C1_0_e78b834a0b" x="394.288803" y="268.276905" style="fill: #6a6a6a"/>
    </g>
    <g clip-path="url(#p9a93149e8e)">
     <use xlink:href="#C1_0_e78b834a0b" x="399.185827" y="268.240835" style="fill: #4e4e4e"/>
    </g>
    <g clip-path="url(#p9a93149e8e)">
     <use xlink:href="#C1_0_e78b834a0b" x="404.082851" y="268.097691" style="fill: #2c2c2c"/>
    </g>
    <g clip-path="url(#p9a93149e8e)">
     <use xlink:href="#C1_0_e78b834a0b" x="408.979875" y="268.127941" style="fill: #161616"/>
    </g>
    <g clip-path="url(#p9a93149e8e)">
     <use xlink:href="#C1_0_e78b834a0b" x="413.876899" y="268.056721" style="fill: #060606"/>
    </g>
    <g clip-path="url(#p9a93149e8e)">
     <use xlink:href="#C1_0_e78b834a0b" x="418.773923" y="267.904856"/>
    </g>
    <g clip-path="url(#p9a93149e8e)">
     <use xlink:href="#C1_0_e78b834a0b" x="423.670947" y="267.906374" style="fill: #010101"/>
    </g>
    <g clip-path="url(#p9a93149e8e)">
     <use xlink:href="#C1_0_e78b834a0b" x="428.56797" y="267.831455" style="fill: #0f0f0f"/>
    </g>
    <g clip-path="url(#p9a93149e8e)">
     <use xlink:href="#C1_0_e78b834a0b" x="433.464994" y="267.793036" style="fill: #232323"/>
    </g>
    <g clip-path="url(#p9a93149e8e)">
     <use xlink:href="#C1_0_e78b834a0b" x="438.362018" y="267.692648" style="fill: #404040"/>
    </g>
    <g clip-path="url(#p9a93149e8e)">
     <use xlink:href="#C1_0_e78b834a0b" x="443.259042" y="267.715841" style="fill: #5a5a5a"/>
    </g>
    <g clip-path="url(#p9a93149e8e)">
     <use xlink:href="#C1_0_e78b834a0b" x="448.156066" y="267.602965" style="fill: #707070"/>
    </g>
    <g clip-path="url(#p9a93149e8e)">
     <use xlink:href="#C1_0_e78b834a0b" x="453.05309" y="267.606879" style="fill: #8a8a8a"/>
    </g>
    <g clip-path="url(#p9a93149e8e)">
     <use xlink:href="#C1_0_e78b834a0b" x="457.950114" y="267.570326" style="fill: #afafaf"/>
    </g>
    <g clip-path="url(#p9a93149e8e)">
     <use xlink:href="#C1_0_e78b834a0b" x="462.847138" y="267.504065" style="fill: #d3d3d3"/>
    </g>
    <g clip-path="url(#p9a93149e8e)">
     <use xlink:href="#C1_0_e78b834a0b" x="467.744162" y="267.478758" style="fill: #ececec"/>
    </g>
    <g clip-path="url(#p9a93149e8e)">
     <use xlink:href="#C1_0_e78b834a0b" x="472.641186" y="267.496875" style="fill: #f9f9f9"/>
    </g>
    <g clip-path="url(#p9a93149e8e)">
     <use xlink:href="#C1_0_e78b834a0b" x="477.538209" y="267.494679" style="fill: #fefefe"/>
    </g>
   </g>
   <g id="PathCollection_3">
    <defs>
     <path id="C2_0_e6f2539a95" d="M 0 2.738613 
C 0.726289 2.738613 1.422928 2.450055 1.936492 1.936492 
C 2.450055 1.422928 2.738613 0.726289 2.738613 -0 
C 2.738613 -0.726289 2.450055 -1.422928 1.936492 -1.936492 
C 1.422928 -2.450055 0.726289 -2.738613 0 -2.738613 
C -0.726289 -2.738613 -1.422928 -2.450055 -1.936492 -1.936492 
C -2.450055 -1.422928 -2.738613 -0.726289 -2.738613 0 
C -2.738613 0.726289 -2.450055 1.422928 -1.936492 1.936492 
C -1.422928 2.450055 -0.726289 2.738613 0 2.738613 
z
"/>
    </defs>
    <g clip-path="url(#p9a93149e8e)">
     <use xlink:href="#C2_0_e6f2539a95" x="335.524517" y="164.583798" style="fill: #f1f1f1"/>
    </g>
    <g clip-path="url(#p9a93149e8e)">
     <use xlink:href="#C2_0_e6f2539a95" x="340.42154" y="164.58066" style="fill: #ededed"/>
    </g>
    <g clip-path="url(#p9a93149e8e)">
     <use xlink:href="#C2_0_e6f2539a95" x="345.318564" y="164.633133" style="fill: #e9e9e9"/>
    </g>
    <g clip-path="url(#p9a93149e8e)">
     <use xlink:href="#C2_0_e6f2539a95" x="350.215588" y="164.67473" style="fill: #e6e6e6"/>
    </g>
    <g clip-path="url(#p9a93149e8e)">
     <use xlink:href="#C2_0_e6f2539a95" x="355.112612" y="164.70609" style="fill: #e3e3e3"/>
    </g>
    <g clip-path="url(#p9a93149e8e)">
     <use xlink:href="#C2_0_e6f2539a95" x="360.009636" y="164.728666" style="fill: #dfdfdf"/>
    </g>
    <g clip-path="url(#p9a93149e8e)">
     <use xlink:href="#C2_0_e6f2539a95" x="364.90666" y="164.744718" style="fill: #dcdcdc"/>
    </g>
    <g clip-path="url(#p9a93149e8e)">
     <use xlink:href="#C2_0_e6f2539a95" x="369.803684" y="164.754239" style="fill: #d5d5d5"/>
    </g>
    <g clip-path="url(#p9a93149e8e)">
     <use xlink:href="#C2_0_e6f2539a95" x="374.700708" y="164.798918" style="fill: #cbcbcb"/>
    </g>
    <g clip-path="url(#p9a93149e8e)">
     <use xlink:href="#C2_0_e6f2539a95" x="379.597732" y="164.796134" style="fill: #bdbdbd"/>
    </g>
    <g clip-path="url(#p9a93149e8e)">
     <use xlink:href="#C2_0_e6f2539a95" x="384.494755" y="164.824522" style="fill: #a3a3a3"/>
    </g>
    <g clip-path="url(#p9a93149e8e)">
     <use xlink:href="#C2_0_e6f2539a95" x="389.391779" y="164.845451" style="fill: #878787"/>
    </g>
    <g clip-path="url(#p9a93149e8e)">
     <use xlink:href="#C2_0_e6f2539a95" x="394.288803" y="164.859608" style="fill: #6a6a6a"/>
    </g>
    <g clip-path="url(#p9a93149e8e)">
     <use xlink:href="#C2_0_e6f2539a95" x="399.185827" y="164.866806" style="fill: #4e4e4e"/>
    </g>
    <g clip-path="url(#p9a93149e8e)">
     <use xlink:href="#C2_0_e6f2539a95" x="404.082851" y="164.895418" style="fill: #2c2c2c"/>
    </g>
    <g clip-path="url(#p9a93149e8e)">
     <use xlink:href="#C2_0_e6f2539a95" x="408.979875" y="164.889365" style="fill: #161616"/>
    </g>
    <g clip-path="url(#p9a93149e8e)">
     <use xlink:href="#C2_0_e6f2539a95" x="413.876899" y="164.903621" style="fill: #060606"/>
    </g>
    <g clip-path="url(#p9a93149e8e)">
     <use xlink:href="#C2_0_e6f2539a95" x="418.773923" y="164.934083"/>
    </g>
    <g clip-path="url(#p9a93149e8e)">
     <use xlink:href="#C2_0_e6f2539a95" x="423.670947" y="164.933778" style="fill: #010101"/>
    </g>
    <g clip-path="url(#p9a93149e8e)">
     <use xlink:href="#C2_0_e6f2539a95" x="428.56797" y="164.948837" style="fill: #0f0f0f"/>
    </g>
    <g clip-path="url(#p9a93149e8e)">
     <use xlink:href="#C2_0_e6f2539a95" x="433.464994" y="164.956568" style="fill: #232323"/>
    </g>
    <g clip-path="url(#p9a93149e8e)">
     <use xlink:href="#C2_0_e6f2539a95" x="438.362018" y="164.976795" style="fill: #404040"/>
    </g>
    <g clip-path="url(#p9a93149e8e)">
     <use xlink:href="#C2_0_e6f2539a95" x="443.259042" y="164.972118" style="fill: #5a5a5a"/>
    </g>
    <g clip-path="url(#p9a93149e8e)">
     <use xlink:href="#C2_0_e6f2539a95" x="448.156066" y="164.994897" style="fill: #707070"/>
    </g>
    <g clip-path="url(#p9a93149e8e)">
     <use xlink:href="#C2_0_e6f2539a95" x="453.05309" y="164.994106" style="fill: #8a8a8a"/>
    </g>
    <g clip-path="url(#p9a93149e8e)">
     <use xlink:href="#C2_0_e6f2539a95" x="457.950114" y="165.001492" style="fill: #afafaf"/>
    </g>
    <g clip-path="url(#p9a93149e8e)">
     <use xlink:href="#C2_0_e6f2539a95" x="462.847138" y="165.014894" style="fill: #d3d3d3"/>
    </g>
    <g clip-path="url(#p9a93149e8e)">
     <use xlink:href="#C2_0_e6f2539a95" x="467.744162" y="165.020017" style="fill: #ececec"/>
    </g>
    <g clip-path="url(#p9a93149e8e)">
     <use xlink:href="#C2_0_e6f2539a95" x="472.641186" y="165.016349" style="fill: #f9f9f9"/>
    </g>
    <g clip-path="url(#p9a93149e8e)">
     <use xlink:href="#C2_0_e6f2539a95" x="477.538209" y="165.016794" style="fill: #fefefe"/>
    </g>
   </g>
   <g id="matplotlib.axis_7">
    <g id="xtick_31">
     <g id="line2d_50">
      <g>
       <use xlink:href="#md8cdbe7690" x="333.725962" y="274.94952" style="stroke: #000000; stroke-width: 0.8"/>
      </g>
     </g>
     <g id="text_25">
      <!-- $\mathdefault{10^{-2}}$ -->
      <g transform="translate(323.325962 289.34952) scale(0.1 -0.1)">
       <use xlink:href="#IBMPlexSans-31" transform="translate(0 0.184375)"/>
       <use xlink:href="#IBMPlexSans-30" transform="translate(59.999985 0.184375)"/>
       <use xlink:href="#IBMPlexSans-2212" transform="translate(120.90286 36.3) scale(0.7)"/>
       <use xlink:href="#IBMPlexSans-32" transform="translate(162.902849 36.3) scale(0.7)"/>
      </g>
     </g>
    </g>
    <g id="xtick_32">
     <g id="line2d_51">
      <g>
       <use xlink:href="#md8cdbe7690" x="514.138989" y="274.94952" style="stroke: #000000; stroke-width: 0.8"/>
      </g>
     </g>
     <g id="text_26">
      <!-- $\mathdefault{10^{-1}}$ -->
      <g transform="translate(503.738989 289.34952) scale(0.1 -0.1)">
       <use xlink:href="#IBMPlexSans-31" transform="translate(0 0.026563)"/>
       <use xlink:href="#IBMPlexSans-30" transform="translate(59.999985 0.026563)"/>
       <use xlink:href="#IBMPlexSans-2212" transform="translate(120.90286 36.142188) scale(0.7)"/>
       <use xlink:href="#IBMPlexSans-31" transform="translate(162.902849 36.142188) scale(0.7)"/>
      </g>
     </g>
    </g>
    <g id="xtick_33">
     <g id="line2d_52">
      <g>
       <use xlink:href="#mddc114b152" x="388.035695" y="274.94952" style="stroke: #000000; stroke-width: 0.6"/>
      </g>
     </g>
    </g>
    <g id="xtick_34">
     <g id="line2d_53">
      <g>
       <use xlink:href="#mddc114b152" x="419.804852" y="274.94952" style="stroke: #000000; stroke-width: 0.6"/>
      </g>
     </g>
    </g>
    <g id="xtick_35">
     <g id="line2d_54">
      <g>
       <use xlink:href="#mddc114b152" x="442.345428" y="274.94952" style="stroke: #000000; stroke-width: 0.6"/>
      </g>
     </g>
    </g>
    <g id="xtick_36">
     <g id="line2d_55">
      <g>
       <use xlink:href="#mddc114b152" x="459.829257" y="274.94952" style="stroke: #000000; stroke-width: 0.6"/>
      </g>
     </g>
    </g>
    <g id="xtick_37">
     <g id="line2d_56">
      <g>
       <use xlink:href="#mddc114b152" x="474.114585" y="274.94952" style="stroke: #000000; stroke-width: 0.6"/>
      </g>
     </g>
    </g>
    <g id="xtick_38">
     <g id="line2d_57">
      <g>
       <use xlink:href="#mddc114b152" x="486.192658" y="274.94952" style="stroke: #000000; stroke-width: 0.6"/>
      </g>
     </g>
    </g>
    <g id="xtick_39">
     <g id="line2d_58">
      <g>
       <use xlink:href="#mddc114b152" x="496.655161" y="274.94952" style="stroke: #000000; stroke-width: 0.6"/>
      </g>
     </g>
    </g>
    <g id="xtick_40">
     <g id="line2d_59">
      <g>
       <use xlink:href="#mddc114b152" x="505.883742" y="274.94952" style="stroke: #000000; stroke-width: 0.6"/>
      </g>
     </g>
    </g>
    <g id="text_27">
     <!-- Cutoff frequency [THz] -->
     <g transform="translate(382.943901 302.94952) scale(0.1 -0.1)">
      <use xlink:href="#IBMPlexSans-43"/>
      <use xlink:href="#IBMPlexSans-75" transform="translate(62.099991 0)"/>
      <use xlink:href="#IBMPlexSans-74" transform="translate(118.899979 0)"/>
      <use xlink:href="#IBMPlexSans-6f" transform="translate(153.999969 0)"/>
      <use xlink:href="#IBMPlexSans-66" transform="translate(209.999954 0)"/>
      <use xlink:href="#IBMPlexSans-66" transform="translate(242.399948 0)"/>
      <use xlink:href="#IBMPlexSans-20" transform="translate(274.799942 0)"/>
      <use xlink:href="#IBMPlexSans-66" transform="translate(298.399933 0)"/>
      <use xlink:href="#IBMPlexSans-72" transform="translate(330.799927 0)"/>
      <use xlink:href="#IBMPlexSans-65" transform="translate(367.499924 0)"/>
      <use xlink:href="#IBMPlexSans-71" transform="translate(422.399918 0)"/>
      <use xlink:href="#IBMPlexSans-75" transform="translate(480.399902 0)"/>
      <use xlink:href="#IBMPlexSans-65" transform="translate(537.19989 0)"/>
      <use xlink:href="#IBMPlexSans-6e" transform="translate(592.099884 0)"/>
      <use xlink:href="#IBMPlexSans-63" transform="translate(648.899872 0)"/>
      <use xlink:href="#IBMPlexSans-79" transform="translate(699.19986 0)"/>
      <use xlink:href="#IBMPlexSans-20" transform="translate(749.099854 0)"/>
      <use xlink:href="#IBMPlexSans-5b" transform="translate(772.699844 0)"/>
      <use xlink:href="#IBMPlexSans-54" transform="translate(804.399841 0)"/>
      <use xlink:href="#IBMPlexSans-48" transform="translate(861.599838 0)"/>
      <use xlink:href="#IBMPlexSans-7a" transform="translate(932.29982 0)"/>
      <use xlink:href="#IBMPlexSans-5d" transform="translate(978.699814 0)"/>
     </g>
    </g>
   </g>
   <g id="matplotlib.axis_8">
    <g id="ytick_12">
     <g id="line2d_60">
      <g>
       <use xlink:href="#m824bdf76cc" x="325.730469" y="197.658406" style="stroke: #000000; stroke-width: 0.8"/>
      </g>
     </g>
     <g id="text_28">
      <!-- $\mathdefault{10^{0}}$ -->
      <g transform="translate(302.130469 201.358406) scale(0.1 -0.1)">
       <use xlink:href="#IBMPlexSans-31" transform="translate(0 0.184375)"/>
       <use xlink:href="#IBMPlexSans-30" transform="translate(59.999985 0.184375)"/>
       <use xlink:href="#IBMPlexSans-30" transform="translate(120.90286 36.3) scale(0.7)"/>
      </g>
     </g>
    </g>
    <g id="ytick_13">
     <g id="line2d_61">
      <defs>
       <path id="m3079132d99" d="M 0 0 
L -2 0 
" style="stroke: #000000; stroke-width: 0.6"/>
      </defs>
      <g>
       <use xlink:href="#m3079132d99" x="325.730469" y="274.896846" style="stroke: #000000; stroke-width: 0.6"/>
      </g>
     </g>
     <g id="text_29">
      <!-- $\mathdefault{3\times10^{-1}}$ -->
      <g transform="translate(283.630469 278.596846) scale(0.1 -0.1)">
       <defs>
        <path id="IBMPlexSans-33" d="M 1184 2573 
L 1184 2106 
L 1709 2106 
C 2336 2106 2669 1805 2669 1280 
L 2669 1229 
C 2669 704 2336 403 1709 403 
C 1165 403 902 640 672 992 
L 269 685 
C 544 301 941 -77 1715 -77 
C 2624 -77 3232 454 3232 1222 
C 3232 1894 2771 2253 2291 2349 
L 2291 2374 
C 2765 2496 3149 2842 3149 3418 
C 3149 4141 2547 4544 1792 4544 
C 1075 4544 685 4173 461 3814 
L 858 3507 
C 1043 3846 1318 4064 1779 4064 
C 2253 4064 2579 3827 2579 3360 
L 2579 3315 
C 2579 2886 2272 2573 1670 2573 
L 1184 2573 
z
" transform="scale(0.015625)"/>
        <path id="IBMPlexSans-d7" d="M 2938 595 
L 3251 909 
L 2234 1952 
L 3251 2995 
L 2938 3309 
L 1920 2266 
L 902 3309 
L 589 2995 
L 1606 1952 
L 589 909 
L 902 595 
L 1920 1638 
L 2938 595 
z
" transform="scale(0.015625)"/>
       </defs>
       <use xlink:href="#IBMPlexSans-33" transform="translate(0 0.026563)"/>
       <use xlink:href="#IBMPlexSans-d7" transform="translate(79.482407 0.026563)"/>
       <use xlink:href="#IBMPlexSans-31" transform="translate(158.964813 0.026563)"/>
       <use xlink:href="#IBMPlexSans-30" transform="translate(218.964798 0.026563)"/>
       <use xlink:href="#IBMPlexSans-2212" transform="translate(279.867673 36.142188) scale(0.7)"/>
       <use xlink:href="#IBMPlexSans-31" transform="translate(321.867663 36.142188) scale(0.7)"/>
      </g>
     </g>
    </g>
    <g id="ytick_14">
     <g id="line2d_62">
      <g>
       <use xlink:href="#m3079132d99" x="325.730469" y="256.441185" style="stroke: #000000; stroke-width: 0.6"/>
      </g>
     </g>
     <g id="text_30">
      <!-- $\mathdefault{4\times10^{-1}}$ -->
      <g transform="translate(283.630469 260.141185) scale(0.1 -0.1)">
       <use xlink:href="#IBMPlexSans-34" transform="translate(0 0.026563)"/>
       <use xlink:href="#IBMPlexSans-d7" transform="translate(79.482407 0.026563)"/>
       <use xlink:href="#IBMPlexSans-31" transform="translate(158.964813 0.026563)"/>
       <use xlink:href="#IBMPlexSans-30" transform="translate(218.964798 0.026563)"/>
       <use xlink:href="#IBMPlexSans-2212" transform="translate(279.867673 36.142188) scale(0.7)"/>
       <use xlink:href="#IBMPlexSans-31" transform="translate(321.867663 36.142188) scale(0.7)"/>
      </g>
     </g>
    </g>
    <g id="ytick_15">
     <g id="line2d_63">
      <g>
       <use xlink:href="#m3079132d99" x="325.730469" y="242.125862" style="stroke: #000000; stroke-width: 0.6"/>
      </g>
     </g>
    </g>
    <g id="ytick_16">
     <g id="line2d_64">
      <g>
       <use xlink:href="#m3079132d99" x="325.730469" y="230.429391" style="stroke: #000000; stroke-width: 0.6"/>
      </g>
     </g>
     <g id="text_31">
      <!-- $\mathdefault{6\times10^{-1}}$ -->
      <g transform="translate(283.630469 234.129391) scale(0.1 -0.1)">
       <use xlink:href="#IBMPlexSans-36" transform="translate(0 0.026563)"/>
       <use xlink:href="#IBMPlexSans-d7" transform="translate(79.482407 0.026563)"/>
       <use xlink:href="#IBMPlexSans-31" transform="translate(158.964813 0.026563)"/>
       <use xlink:href="#IBMPlexSans-30" transform="translate(218.964798 0.026563)"/>
       <use xlink:href="#IBMPlexSans-2212" transform="translate(279.867673 36.142188) scale(0.7)"/>
       <use xlink:href="#IBMPlexSans-31" transform="translate(321.867663 36.142188) scale(0.7)"/>
      </g>
     </g>
    </g>
    <g id="ytick_17">
     <g id="line2d_65">
      <g>
       <use xlink:href="#m3079132d99" x="325.730469" y="220.540166" style="stroke: #000000; stroke-width: 0.6"/>
      </g>
     </g>
    </g>
    <g id="ytick_18">
     <g id="line2d_66">
      <g>
       <use xlink:href="#m3079132d99" x="325.730469" y="211.97373" style="stroke: #000000; stroke-width: 0.6"/>
      </g>
     </g>
    </g>
    <g id="ytick_19">
     <g id="line2d_67">
      <g>
       <use xlink:href="#m3079132d99" x="325.730469" y="204.417597" style="stroke: #000000; stroke-width: 0.6"/>
      </g>
     </g>
    </g>
    <g id="text_32">
     <!-- Hessian Eigenvalues -->
     <g transform="translate(277.510156 263.128666) rotate(-90) scale(0.1 -0.1)">
      <defs>
       <path id="IBMPlexSans-61" d="M 3232 0 
L 3232 448 
L 2854 448 
L 2854 2266 
C 2854 2963 2381 3379 1587 3379 
C 992 3379 595 3085 416 2733 
L 723 2445 
C 902 2746 1165 2938 1562 2938 
C 2086 2938 2342 2682 2342 2214 
L 2342 1888 
L 1690 1888 
C 730 1888 282 1542 282 922 
C 282 307 691 -77 1389 -77 
C 1850 -77 2202 134 2342 538 
L 2374 538 
C 2413 230 2566 0 2944 0 
L 3232 0 
z
M 1472 358 
C 1075 358 819 544 819 870 
L 819 1005 
C 819 1325 1082 1504 1664 1504 
L 2342 1504 
L 2342 960 
C 2342 621 1978 358 1472 358 
z
" transform="scale(0.015625)"/>
       <path id="IBMPlexSans-45" d="M 3322 0 
L 3322 474 
L 1133 474 
L 1133 2022 
L 3194 2022 
L 3194 2496 
L 1133 2496 
L 1133 3994 
L 3322 3994 
L 3322 4467 
L 595 4467 
L 595 0 
L 3322 0 
z
" transform="scale(0.015625)"/>
      </defs>
      <use xlink:href="#IBMPlexSans-48"/>
      <use xlink:href="#IBMPlexSans-65" transform="translate(70.699982 0)"/>
      <use xlink:href="#IBMPlexSans-73" transform="translate(125.599976 0)"/>
      <use xlink:href="#IBMPlexSans-73" transform="translate(174.299973 0)"/>
      <use xlink:href="#IBMPlexSans-69" transform="translate(222.999969 0)"/>
      <use xlink:href="#IBMPlexSans-61" transform="translate(247.999954 0)"/>
      <use xlink:href="#IBMPlexSans-6e" transform="translate(301.399948 0)"/>
      <use xlink:href="#IBMPlexSans-20" transform="translate(358.199936 0)"/>
      <use xlink:href="#IBMPlexSans-45" transform="translate(381.799927 0)"/>
      <use xlink:href="#IBMPlexSans-69" transform="translate(440.099915 0)"/>
      <use xlink:href="#IBMPlexSans-67" transform="translate(465.099899 0)"/>
      <use xlink:href="#IBMPlexSans-65" transform="translate(517.899887 0)"/>
      <use xlink:href="#IBMPlexSans-6e" transform="translate(572.799881 0)"/>
      <use xlink:href="#IBMPlexSans-76" transform="translate(629.599869 0)"/>
      <use xlink:href="#IBMPlexSans-61" transform="translate(678.799866 0)"/>
      <use xlink:href="#IBMPlexSans-6c" transform="translate(732.19986 0)"/>
      <use xlink:href="#IBMPlexSans-75" transform="translate(759.399857 0)"/>
      <use xlink:href="#IBMPlexSans-65" transform="translate(816.199844 0)"/>
      <use xlink:href="#IBMPlexSans-73" transform="translate(871.099838 0)"/>
     </g>
    </g>
   </g>
   <g id="line2d_68">
    <path d="M 335.524517 269.67771 
L 340.42154 269.69386 
L 345.318564 269.42444 
L 350.215588 269.211822 
L 355.112612 269.052082 
L 360.009636 268.937382 
L 364.90666 268.855972 
L 369.803684 268.807749 
L 374.700708 268.582014 
L 379.597732 268.596055 
L 384.494755 268.45308 
L 389.391779 268.347922 
L 394.288803 268.276905 
L 399.185827 268.240835 
L 404.082851 268.097691 
L 408.979875 268.127941 
L 413.876899 268.056721 
L 418.773923 267.904856 
L 423.670947 267.906374 
L 428.56797 267.831455 
L 433.464994 267.793036 
L 438.362018 267.692648 
L 443.259042 267.715841 
L 448.156066 267.602965 
L 453.05309 267.606879 
L 457.950114 267.570326 
L 462.847138 267.504065 
L 467.744162 267.478758 
L 472.641186 267.496875 
L 477.538209 267.494679 
L 482.435233 267.478331 
L 487.332257 267.503528 
L 492.229281 267.51951 
L 497.126305 267.574842 
L 502.023329 267.577232 
L 506.920353 267.619375 
L 511.817377 267.661845 
L 516.714401 267.707775 
L 521.611424 267.799684 
L 526.508448 267.869736 
L 531.405472 267.960699 
" clip-path="url(#p9a93149e8e)" style="fill: none; stroke: #9467bd; stroke-width: 1.5; stroke-linecap: square"/>
   </g>
   <g id="line2d_69">
    <path d="M 335.524517 164.583798 
L 340.42154 164.58066 
L 345.318564 164.633133 
L 350.215588 164.67473 
L 355.112612 164.70609 
L 360.009636 164.728666 
L 364.90666 164.744718 
L 369.803684 164.754239 
L 374.700708 164.798918 
L 379.597732 164.796134 
L 384.494755 164.824522 
L 389.391779 164.845451 
L 394.288803 164.859608 
L 399.185827 164.866806 
L 404.082851 164.895418 
L 408.979875 164.889365 
L 413.876899 164.903621 
L 418.773923 164.934083 
L 423.670947 164.933778 
L 428.56797 164.948837 
L 433.464994 164.956568 
L 438.362018 164.976795 
L 443.259042 164.972118 
L 448.156066 164.994897 
L 453.05309 164.994106 
L 457.950114 165.001492 
L 462.847138 165.014894 
L 467.744162 165.020017 
L 472.641186 165.016349 
L 477.538209 165.016794 
L 482.435233 165.020104 
L 487.332257 165.015003 
L 492.229281 165.011769 
L 497.126305 165.000579 
L 502.023329 165.000096 
L 506.920353 164.991582 
L 511.817377 164.983009 
L 516.714401 164.973745 
L 521.611424 164.95523 
L 526.508448 164.94114 
L 531.405472 164.922872 
" clip-path="url(#p9a93149e8e)" style="fill: none; stroke: #9467bd; stroke-width: 1.5; stroke-linecap: square"/>
   </g>
   <g id="patch_13">
    <path d="M 325.730469 274.94952 
L 325.730469 159.325 
" style="fill: none; stroke: #000000; stroke-width: 0.8; stroke-linejoin: miter; stroke-linecap: square"/>
   </g>
   <g id="patch_14">
    <path d="M 325.730469 274.94952 
L 541.19952 274.94952 
" style="fill: none; stroke: #000000; stroke-width: 0.8; stroke-linejoin: miter; stroke-linecap: square"/>
   </g>
  </g>
 </g>
 <defs>
  <clipPath id="pa234da9a6c">
   <rect x="48.640625" y="17.6" width="215.469051" height="115.62452"/>
  </clipPath>
  <clipPath id="p9790f244bf">
   <rect x="325.730469" y="17.6" width="215.469051" height="115.62452"/>
  </clipPath>
  <clipPath id="p6a19042338">
   <rect x="48.640625" y="159.325" width="215.469051" height="115.62452"/>
  </clipPath>
  <clipPath id="p9a93149e8e">
   <rect x="325.730469" y="159.325" width="215.469051" height="115.62452"/>
  </clipPath>
 </defs>
</svg>