<?xml version="1.0" encoding="utf-8" standalone="no"?>
<!DOCTYPE svg PUBLIC "-//W3C//DTD SVG 1.1//EN"
  "http://www.w3.org/Graphics/SVG/1.1/DTD/svg11.dtd">
<svg xmlns:xlink="http://www.w3.org/1999/xlink" width="548.39952pt" height="312.14952pt" viewBox="0 0 548.39952 312.14952" xmlns="http://www.w3.org/2000/svg" version="1.1">
 <metadata>
  <rdf:RDF xmlns:dc="http://purl.org/dc/elements/1.1/" xmlns:cc="http://creativecommons.org/ns#" xmlns:rdf="http://www.w3.org/1999/02/22-rdf-syntax-ns#">
   <cc:Work>
    <dc:type rdf:resource="http://purl.org/dc/dcmitype/StillImage"/>
    <dc:date>2025-06-25T08:40:17.972960</dc:date>
    <dc:format>image/svg+xml</dc:format>
    <dc:creator>
     <cc:Agent>
      <dc:title>Matplotlib v3.10.1, https://matplotlib.org/</dc:title>
     </cc:Agent>
    </dc:creator>
   </cc:Work>
  </rdf:RDF>
 </metadata>
 <defs>
  <style type="text/css">*{stroke-linejoin: round; stroke-linecap: butt}</style>
 </defs>
 <g id="figure_1">
  <g id="patch_1">
   <path d="M 0 312.14952 
L 548.39952 312.14952 
L 548.39952 0 
L 0 0 
z
" style="fill: #ffffff"/>
  </g>
  <g id="axes_1">
   <g id="patch_2">
    <path d="M 54.520313 274.94952 
L 505.958895 274.94952 
L 505.958895 47.648 
L 54.520313 47.648 
z
" style="fill: #ffffff"/>
   </g>
   <g id="FillBetweenPolyCollection_1">
    <defs>
     <path id="m6ba06e83b2" d="M 65.652042 -75.657869 
L 65.652042 -40.283454 
L 72.357904 -40.323411 
L 79.063765 -40.390008 
L 85.769626 -40.483249 
L 92.475487 -40.603138 
L 99.181349 -40.749682 
L 105.88721 -40.922888 
L 112.593071 -41.122764 
L 119.298933 -41.349321 
L 126.004794 -41.60257 
L 132.710655 -41.882525 
L 139.416517 -42.189199 
L 146.122378 -42.522608 
L 152.828239 -42.882769 
L 159.5341 -43.269701 
L 166.239962 -43.683422 
L 172.945823 -44.123954 
L 179.651684 -44.59132 
L 186.357546 -45.085543 
L 193.063407 -45.606648 
L 199.769268 -46.154662 
L 206.475129 -46.729612 
L 213.180991 -47.331529 
L 219.886852 -47.960442 
L 219.886852 -83.439026 
L 219.886852 -83.439026 
L 213.180991 -82.801574 
L 206.475129 -82.191485 
L 199.769268 -81.60873 
L 193.063407 -81.053278 
L 186.357546 -80.5251 
L 179.651684 -80.02417 
L 172.945823 -79.550463 
L 166.239962 -79.103953 
L 159.5341 -78.684619 
L 152.828239 -78.292438 
L 146.122378 -77.927391 
L 139.416517 -77.589459 
L 132.710655 -77.278626 
L 126.004794 -76.994874 
L 119.298933 -76.73819 
L 112.593071 -76.50856 
L 105.88721 -76.305973 
L 99.181349 -76.130419 
L 92.475487 -75.981888 
L 85.769626 -75.860373 
L 79.063765 -75.765868 
L 72.357904 -75.698368 
L 65.652042 -75.657869 
z
"/>
    </defs>
    <g clip-path="url(#p949a94d377)">
     <use xlink:href="#m6ba06e83b2" x="0" y="312.14952" style="fill: #2ca02c; fill-opacity: 0.3"/>
    </g>
   </g>
   <g id="matplotlib.axis_1">
    <g id="xtick_1">
     <g id="line2d_1">
      <defs>
       <path id="m7217e3853f" d="M 0 0 
L 0 3.5 
" style="stroke: #000000; stroke-width: 0.8"/>
      </defs>
      <g>
       <use xlink:href="#m7217e3853f" x="58.946181" y="274.94952" style="stroke: #000000; stroke-width: 0.8"/>
      </g>
     </g>
     <g id="text_1">
      <!-- 0.00 -->
      <g transform="translate(48.586025 289.34952) scale(0.1 -0.1)">
       <defs>
        <path id="IBMPlexSans-30" d="M 1920 -77 
C 2989 -77 3456 774 3456 2234 
C 3456 3693 2989 4544 1920 4544 
C 851 4544 384 3693 384 2234 
C 384 774 851 -77 1920 -77 
z
M 1920 390 
C 1222 390 947 1005 947 1869 
L 947 2598 
C 947 3462 1222 4077 1920 4077 
C 2618 4077 2893 3462 2893 2598 
L 2893 1869 
C 2893 1005 2618 390 1920 390 
z
" transform="scale(0.015625)"/>
        <path id="IBMPlexSans-2e" d="M 870 -77 
C 1139 -77 1261 77 1261 294 
L 1261 378 
C 1261 595 1139 749 870 749 
C 602 749 480 595 480 378 
L 480 294 
C 480 77 602 -77 870 -77 
z
" transform="scale(0.015625)"/>
       </defs>
       <use xlink:href="#IBMPlexSans-30"/>
       <use xlink:href="#IBMPlexSans-2e" transform="translate(59.999985 0)"/>
       <use xlink:href="#IBMPlexSans-30" transform="translate(87.199982 0)"/>
       <use xlink:href="#IBMPlexSans-30" transform="translate(147.199966 0)"/>
      </g>
     </g>
    </g>
    <g id="xtick_2">
     <g id="line2d_2">
      <g>
       <use xlink:href="#m7217e3853f" x="126.004791" y="274.94952" style="stroke: #000000; stroke-width: 0.8"/>
      </g>
     </g>
     <g id="text_2">
      <!-- 0.01 -->
      <g transform="translate(115.644634 289.34952) scale(0.1 -0.1)">
       <defs>
        <path id="IBMPlexSans-31" d="M 3501 0 
L 3501 474 
L 2349 474 
L 2349 4467 
L 1510 4467 
L 326 3360 
L 640 3021 
L 1766 4070 
L 1811 4070 
L 1811 474 
L 563 474 
L 563 0 
L 3501 0 
z
" transform="scale(0.015625)"/>
       </defs>
       <use xlink:href="#IBMPlexSans-30"/>
       <use xlink:href="#IBMPlexSans-2e" transform="translate(59.999985 0)"/>
       <use xlink:href="#IBMPlexSans-30" transform="translate(87.199982 0)"/>
       <use xlink:href="#IBMPlexSans-31" transform="translate(147.199966 0)"/>
      </g>
     </g>
    </g>
    <g id="xtick_3">
     <g id="line2d_3">
      <g>
       <use xlink:href="#m7217e3853f" x="193.063401" y="274.94952" style="stroke: #000000; stroke-width: 0.8"/>
      </g>
     </g>
     <g id="text_3">
      <!-- 0.02 -->
      <g transform="translate(182.703244 289.34952) scale(0.1 -0.1)">
       <defs>
        <path id="IBMPlexSans-32" d="M 3411 474 
L 1062 474 
L 2266 1555 
C 2835 2067 3245 2554 3245 3245 
C 3245 4006 2746 4544 1875 4544 
C 1011 4544 614 4019 442 3494 
L 922 3309 
C 1043 3731 1299 4064 1850 4064 
C 2400 4064 2675 3725 2675 3232 
L 2675 3155 
C 2675 2726 2355 2278 1939 1894 
L 480 550 
L 480 0 
L 3411 0 
L 3411 474 
z
" transform="scale(0.015625)"/>
       </defs>
       <use xlink:href="#IBMPlexSans-30"/>
       <use xlink:href="#IBMPlexSans-2e" transform="translate(59.999985 0)"/>
       <use xlink:href="#IBMPlexSans-30" transform="translate(87.199982 0)"/>
       <use xlink:href="#IBMPlexSans-32" transform="translate(147.199966 0)"/>
      </g>
     </g>
    </g>
    <g id="xtick_4">
     <g id="line2d_4">
      <g>
       <use xlink:href="#m7217e3853f" x="260.12201" y="274.94952" style="stroke: #000000; stroke-width: 0.8"/>
      </g>
     </g>
     <g id="text_4">
      <!-- 0.03 -->
      <g transform="translate(249.761854 289.34952) scale(0.1 -0.1)">
       <defs>
        <path id="IBMPlexSans-33" d="M 1184 2573 
L 1184 2106 
L 1709 2106 
C 2336 2106 2669 1805 2669 1280 
L 2669 1229 
C 2669 704 2336 403 1709 403 
C 1165 403 902 640 672 992 
L 269 685 
C 544 301 941 -77 1715 -77 
C 2624 -77 3232 454 3232 1222 
C 3232 1894 2771 2253 2291 2349 
L 2291 2374 
C 2765 2496 3149 2842 3149 3418 
C 3149 4141 2547 4544 1792 4544 
C 1075 4544 685 4173 461 3814 
L 858 3507 
C 1043 3846 1318 4064 1779 4064 
C 2253 4064 2579 3827 2579 3360 
L 2579 3315 
C 2579 2886 2272 2573 1670 2573 
L 1184 2573 
z
" transform="scale(0.015625)"/>
       </defs>
       <use xlink:href="#IBMPlexSans-30"/>
       <use xlink:href="#IBMPlexSans-2e" transform="translate(59.999985 0)"/>
       <use xlink:href="#IBMPlexSans-30" transform="translate(87.199982 0)"/>
       <use xlink:href="#IBMPlexSans-33" transform="translate(147.199966 0)"/>
      </g>
     </g>
    </g>
    <g id="xtick_5">
     <g id="line2d_5">
      <g>
       <use xlink:href="#m7217e3853f" x="327.18062" y="274.94952" style="stroke: #000000; stroke-width: 0.8"/>
      </g>
     </g>
     <g id="text_5">
      <!-- 0.04 -->
      <g transform="translate(316.820464 289.34952) scale(0.1 -0.1)">
       <defs>
        <path id="IBMPlexSans-34" d="M 2912 0 
L 2912 877 
L 3558 877 
L 3558 1325 
L 2912 1325 
L 2912 4467 
L 2112 4467 
L 243 1350 
L 243 877 
L 2400 877 
L 2400 0 
L 2912 0 
z
M 2368 4051 
L 2400 4051 
L 2400 1325 
L 749 1325 
L 2368 4051 
z
" transform="scale(0.015625)"/>
       </defs>
       <use xlink:href="#IBMPlexSans-30"/>
       <use xlink:href="#IBMPlexSans-2e" transform="translate(59.999985 0)"/>
       <use xlink:href="#IBMPlexSans-30" transform="translate(87.199982 0)"/>
       <use xlink:href="#IBMPlexSans-34" transform="translate(147.199966 0)"/>
      </g>
     </g>
    </g>
    <g id="xtick_6">
     <g id="line2d_6">
      <g>
       <use xlink:href="#m7217e3853f" x="394.23923" y="274.94952" style="stroke: #000000; stroke-width: 0.8"/>
      </g>
     </g>
     <g id="text_6">
      <!-- 0.05 -->
      <g transform="translate(383.879074 289.34952) scale(0.1 -0.1)">
       <defs>
        <path id="IBMPlexSans-35" d="M 3187 4467 
L 794 4467 
L 634 2010 
L 1088 1946 
C 1274 2150 1478 2323 1888 2323 
C 2496 2323 2822 1984 2822 1395 
L 2822 1331 
C 2822 742 2496 403 1888 403 
C 1350 403 1126 640 896 992 
L 493 685 
C 762 301 1146 -77 1888 -77 
C 2829 -77 3392 531 3392 1402 
C 3392 2266 2829 2784 2061 2784 
C 1594 2784 1357 2592 1146 2291 
L 1101 2291 
L 1229 3994 
L 3187 3994 
L 3187 4467 
z
" transform="scale(0.015625)"/>
       </defs>
       <use xlink:href="#IBMPlexSans-30"/>
       <use xlink:href="#IBMPlexSans-2e" transform="translate(59.999985 0)"/>
       <use xlink:href="#IBMPlexSans-30" transform="translate(87.199982 0)"/>
       <use xlink:href="#IBMPlexSans-35" transform="translate(147.199966 0)"/>
      </g>
     </g>
    </g>
    <g id="xtick_7">
     <g id="line2d_7">
      <g>
       <use xlink:href="#m7217e3853f" x="461.29784" y="274.94952" style="stroke: #000000; stroke-width: 0.8"/>
      </g>
     </g>
     <g id="text_7">
      <!-- 0.06 -->
      <g transform="translate(450.937683 289.34952) scale(0.1 -0.1)">
       <defs>
        <path id="IBMPlexSans-36" d="M 1926 -77 
C 2822 -77 3411 525 3411 1402 
C 3411 2246 2861 2778 2093 2778 
C 1549 2778 1229 2502 1018 2138 
L 986 2150 
C 1229 3187 1760 3770 2714 4467 
L 2022 4467 
C 1306 4000 429 2963 429 1638 
C 429 576 998 -77 1926 -77 
z
M 1920 390 
C 1331 390 986 730 986 1331 
L 986 1382 
C 986 1984 1331 2323 1920 2323 
C 2509 2323 2854 1984 2854 1382 
L 2854 1331 
C 2854 730 2509 390 1920 390 
z
" transform="scale(0.015625)"/>
       </defs>
       <use xlink:href="#IBMPlexSans-30"/>
       <use xlink:href="#IBMPlexSans-2e" transform="translate(59.999985 0)"/>
       <use xlink:href="#IBMPlexSans-30" transform="translate(87.199982 0)"/>
       <use xlink:href="#IBMPlexSans-36" transform="translate(147.199966 0)"/>
      </g>
     </g>
    </g>
    <g id="text_8">
     <!-- Frequency [THz] -->
     <g transform="translate(243.463041 302.94952) scale(0.1 -0.1)">
      <defs>
       <path id="IBMPlexSans-46" d="M 1133 0 
L 1133 2022 
L 3072 2022 
L 3072 2496 
L 1133 2496 
L 1133 3994 
L 3258 3994 
L 3258 4467 
L 595 4467 
L 595 0 
L 1133 0 
z
" transform="scale(0.015625)"/>
       <path id="IBMPlexSans-72" d="M 1056 0 
L 1056 2240 
C 1056 2554 1389 2790 1939 2790 
L 2240 2790 
L 2240 3302 
L 2042 3302 
C 1504 3302 1203 3008 1088 2694 
L 1056 2694 
L 1056 3302 
L 544 3302 
L 544 0 
L 1056 0 
z
" transform="scale(0.015625)"/>
       <path id="IBMPlexSans-65" d="M 1786 -77 
C 2406 -77 2880 230 3091 678 
L 2726 941 
C 2554 576 2234 371 1818 371 
C 1203 371 838 800 838 1370 
L 838 1523 
L 3213 1523 
L 3213 1766 
C 3213 2701 2669 3379 1786 3379 
C 890 3379 301 2701 301 1651 
C 301 602 890 -77 1786 -77 
z
M 1786 2950 
C 2310 2950 2662 2560 2662 1978 
L 2662 1907 
L 838 1907 
L 838 1952 
C 838 2528 1229 2950 1786 2950 
z
" transform="scale(0.015625)"/>
       <path id="IBMPlexSans-71" d="M 2656 -1280 
L 3168 -1280 
L 3168 3302 
L 2656 3302 
L 2656 2765 
L 2630 2765 
C 2458 3181 2118 3379 1664 3379 
C 838 3379 320 2707 320 1651 
C 320 595 838 -77 1664 -77 
C 2118 -77 2432 128 2630 538 
L 2656 538 
L 2656 -1280 
z
M 1805 384 
C 1229 384 870 781 870 1370 
L 870 1933 
C 870 2522 1229 2918 1805 2918 
C 2272 2918 2656 2650 2656 2285 
L 2656 1056 
C 2656 627 2272 384 1805 384 
z
" transform="scale(0.015625)"/>
       <path id="IBMPlexSans-75" d="M 2579 0 
L 3091 0 
L 3091 3302 
L 2579 3302 
L 2579 1018 
C 2579 582 2182 384 1779 384 
C 1286 384 1024 685 1024 1274 
L 1024 3302 
L 512 3302 
L 512 1184 
C 512 384 947 -77 1626 -77 
C 2176 -77 2426 224 2554 538 
L 2579 538 
L 2579 0 
z
" transform="scale(0.015625)"/>
       <path id="IBMPlexSans-6e" d="M 1056 0 
L 1056 2291 
C 1056 2714 1453 2918 1862 2918 
C 2355 2918 2611 2618 2611 2029 
L 2611 0 
L 3123 0 
L 3123 2118 
C 3123 2918 2694 3379 2016 3379 
C 1523 3379 1242 3136 1082 2765 
L 1056 2765 
L 1056 3302 
L 544 3302 
L 544 0 
L 1056 0 
z
" transform="scale(0.015625)"/>
       <path id="IBMPlexSans-63" d="M 1773 -77 
C 2400 -77 2829 230 3040 704 
L 2669 954 
C 2490 576 2189 378 1773 378 
C 1165 378 851 794 851 1370 
L 851 1933 
C 851 2509 1165 2925 1773 2925 
C 2176 2925 2458 2726 2579 2387 
L 3008 2605 
C 2816 3059 2426 3379 1773 3379 
C 845 3379 301 2707 301 1651 
C 301 595 845 -77 1773 -77 
z
" transform="scale(0.015625)"/>
       <path id="IBMPlexSans-79" d="M 1779 1056 
L 1600 518 
L 1568 518 
L 1414 1056 
L 621 3302 
L 109 3302 
L 1344 -128 
L 1094 -832 
L 576 -832 
L 576 -1280 
L 838 -1280 
C 1325 -1280 1459 -1165 1606 -768 
L 3085 3302 
L 2579 3302 
L 1779 1056 
z
" transform="scale(0.015625)"/>
       <path id="IBMPlexSans-20" transform="scale(0.015625)"/>
       <path id="IBMPlexSans-5b" d="M 1645 -883 
L 1645 -480 
L 1037 -480 
L 1037 4461 
L 1645 4461 
L 1645 4864 
L 595 4864 
L 595 -883 
L 1645 -883 
z
" transform="scale(0.015625)"/>
       <path id="IBMPlexSans-54" d="M 3520 3994 
L 3520 4467 
L 141 4467 
L 141 3994 
L 1562 3994 
L 1562 0 
L 2099 0 
L 2099 3994 
L 3520 3994 
z
" transform="scale(0.015625)"/>
       <path id="IBMPlexSans-48" d="M 3392 0 
L 3930 0 
L 3930 4467 
L 3392 4467 
L 3392 2496 
L 1133 2496 
L 1133 4467 
L 595 4467 
L 595 0 
L 1133 0 
L 1133 2022 
L 3392 2022 
L 3392 0 
z
" transform="scale(0.015625)"/>
       <path id="IBMPlexSans-7a" d="M 2758 0 
L 2758 448 
L 794 448 
L 2707 2918 
L 2707 3302 
L 269 3302 
L 269 2854 
L 2086 2854 
L 211 429 
L 211 0 
L 2758 0 
z
" transform="scale(0.015625)"/>
       <path id="IBMPlexSans-5d" d="M 384 4864 
L 384 4461 
L 992 4461 
L 992 -480 
L 384 -480 
L 384 -883 
L 1434 -883 
L 1434 4864 
L 384 4864 
z
" transform="scale(0.015625)"/>
      </defs>
      <use xlink:href="#IBMPlexSans-46"/>
      <use xlink:href="#IBMPlexSans-72" transform="translate(55.899994 0)"/>
      <use xlink:href="#IBMPlexSans-65" transform="translate(92.599991 0)"/>
      <use xlink:href="#IBMPlexSans-71" transform="translate(147.499985 0)"/>
      <use xlink:href="#IBMPlexSans-75" transform="translate(205.499969 0)"/>
      <use xlink:href="#IBMPlexSans-65" transform="translate(262.299957 0)"/>
      <use xlink:href="#IBMPlexSans-6e" transform="translate(317.199951 0)"/>
      <use xlink:href="#IBMPlexSans-63" transform="translate(373.999939 0)"/>
      <use xlink:href="#IBMPlexSans-79" transform="translate(424.299927 0)"/>
      <use xlink:href="#IBMPlexSans-20" transform="translate(474.199921 0)"/>
      <use xlink:href="#IBMPlexSans-5b" transform="translate(497.799911 0)"/>
      <use xlink:href="#IBMPlexSans-54" transform="translate(529.499908 0)"/>
      <use xlink:href="#IBMPlexSans-48" transform="translate(586.699905 0)"/>
      <use xlink:href="#IBMPlexSans-7a" transform="translate(657.399887 0)"/>
      <use xlink:href="#IBMPlexSans-5d" transform="translate(703.799881 0)"/>
     </g>
    </g>
   </g>
   <g id="matplotlib.axis_2">
    <g id="ytick_1">
     <g id="line2d_8">
      <defs>
       <path id="md650ad2581" d="M 0 0 
L -3.5 0 
" style="stroke: #000000; stroke-width: 0.8"/>
      </defs>
      <g>
       <use xlink:href="#md650ad2581" x="54.520313" y="265.409705" style="stroke: #000000; stroke-width: 0.8"/>
      </g>
     </g>
     <g id="text_9">
      <!-- 1.500 -->
      <g transform="translate(20.8 269.109705) scale(0.1 -0.1)">
       <use xlink:href="#IBMPlexSans-31"/>
       <use xlink:href="#IBMPlexSans-2e" transform="translate(59.999985 0)"/>
       <use xlink:href="#IBMPlexSans-35" transform="translate(87.199982 0)"/>
       <use xlink:href="#IBMPlexSans-30" transform="translate(147.199966 0)"/>
       <use xlink:href="#IBMPlexSans-30" transform="translate(207.199951 0)"/>
      </g>
     </g>
    </g>
    <g id="ytick_2">
     <g id="line2d_9">
      <g>
       <use xlink:href="#md650ad2581" x="54.520313" y="239.23842" style="stroke: #000000; stroke-width: 0.8"/>
      </g>
     </g>
     <g id="text_10">
      <!-- 1.525 -->
      <g transform="translate(20.8 242.93842) scale(0.1 -0.1)">
       <use xlink:href="#IBMPlexSans-31"/>
       <use xlink:href="#IBMPlexSans-2e" transform="translate(59.999985 0)"/>
       <use xlink:href="#IBMPlexSans-35" transform="translate(87.199982 0)"/>
       <use xlink:href="#IBMPlexSans-32" transform="translate(147.199966 0)"/>
       <use xlink:href="#IBMPlexSans-35" transform="translate(207.199951 0)"/>
      </g>
     </g>
    </g>
    <g id="ytick_3">
     <g id="line2d_10">
      <g>
       <use xlink:href="#md650ad2581" x="54.520313" y="213.067135" style="stroke: #000000; stroke-width: 0.8"/>
      </g>
     </g>
     <g id="text_11">
      <!-- 1.550 -->
      <g transform="translate(20.8 216.767135) scale(0.1 -0.1)">
       <use xlink:href="#IBMPlexSans-31"/>
       <use xlink:href="#IBMPlexSans-2e" transform="translate(59.999985 0)"/>
       <use xlink:href="#IBMPlexSans-35" transform="translate(87.199982 0)"/>
       <use xlink:href="#IBMPlexSans-35" transform="translate(147.199966 0)"/>
       <use xlink:href="#IBMPlexSans-30" transform="translate(207.199951 0)"/>
      </g>
     </g>
    </g>
    <g id="ytick_4">
     <g id="line2d_11">
      <g>
       <use xlink:href="#md650ad2581" x="54.520313" y="186.89585" style="stroke: #000000; stroke-width: 0.8"/>
      </g>
     </g>
     <g id="text_12">
      <!-- 1.575 -->
      <g transform="translate(20.8 190.59585) scale(0.1 -0.1)">
       <defs>
        <path id="IBMPlexSans-37" d="M 1696 0 
L 3373 3994 
L 3373 4467 
L 442 4467 
L 442 3174 
L 922 3174 
L 922 4006 
L 2829 4006 
L 1120 0 
L 1696 0 
z
" transform="scale(0.015625)"/>
       </defs>
       <use xlink:href="#IBMPlexSans-31"/>
       <use xlink:href="#IBMPlexSans-2e" transform="translate(59.999985 0)"/>
       <use xlink:href="#IBMPlexSans-35" transform="translate(87.199982 0)"/>
       <use xlink:href="#IBMPlexSans-37" transform="translate(147.199966 0)"/>
       <use xlink:href="#IBMPlexSans-35" transform="translate(207.199951 0)"/>
      </g>
     </g>
    </g>
    <g id="ytick_5">
     <g id="line2d_12">
      <g>
       <use xlink:href="#md650ad2581" x="54.520313" y="160.724566" style="stroke: #000000; stroke-width: 0.8"/>
      </g>
     </g>
     <g id="text_13">
      <!-- 1.600 -->
      <g transform="translate(20.8 164.424566) scale(0.1 -0.1)">
       <use xlink:href="#IBMPlexSans-31"/>
       <use xlink:href="#IBMPlexSans-2e" transform="translate(59.999985 0)"/>
       <use xlink:href="#IBMPlexSans-36" transform="translate(87.199982 0)"/>
       <use xlink:href="#IBMPlexSans-30" transform="translate(147.199966 0)"/>
       <use xlink:href="#IBMPlexSans-30" transform="translate(207.199951 0)"/>
      </g>
     </g>
    </g>
    <g id="ytick_6">
     <g id="line2d_13">
      <g>
       <use xlink:href="#md650ad2581" x="54.520313" y="134.553281" style="stroke: #000000; stroke-width: 0.8"/>
      </g>
     </g>
     <g id="text_14">
      <!-- 1.625 -->
      <g transform="translate(20.8 138.253281) scale(0.1 -0.1)">
       <use xlink:href="#IBMPlexSans-31"/>
       <use xlink:href="#IBMPlexSans-2e" transform="translate(59.999985 0)"/>
       <use xlink:href="#IBMPlexSans-36" transform="translate(87.199982 0)"/>
       <use xlink:href="#IBMPlexSans-32" transform="translate(147.199966 0)"/>
       <use xlink:href="#IBMPlexSans-35" transform="translate(207.199951 0)"/>
      </g>
     </g>
    </g>
    <g id="ytick_7">
     <g id="line2d_14">
      <g>
       <use xlink:href="#md650ad2581" x="54.520313" y="108.381996" style="stroke: #000000; stroke-width: 0.8"/>
      </g>
     </g>
     <g id="text_15">
      <!-- 1.650 -->
      <g transform="translate(20.8 112.081996) scale(0.1 -0.1)">
       <use xlink:href="#IBMPlexSans-31"/>
       <use xlink:href="#IBMPlexSans-2e" transform="translate(59.999985 0)"/>
       <use xlink:href="#IBMPlexSans-36" transform="translate(87.199982 0)"/>
       <use xlink:href="#IBMPlexSans-35" transform="translate(147.199966 0)"/>
       <use xlink:href="#IBMPlexSans-30" transform="translate(207.199951 0)"/>
      </g>
     </g>
    </g>
    <g id="ytick_8">
     <g id="line2d_15">
      <g>
       <use xlink:href="#md650ad2581" x="54.520313" y="82.210711" style="stroke: #000000; stroke-width: 0.8"/>
      </g>
     </g>
     <g id="text_16">
      <!-- 1.675 -->
      <g transform="translate(20.8 85.910711) scale(0.1 -0.1)">
       <use xlink:href="#IBMPlexSans-31"/>
       <use xlink:href="#IBMPlexSans-2e" transform="translate(59.999985 0)"/>
       <use xlink:href="#IBMPlexSans-36" transform="translate(87.199982 0)"/>
       <use xlink:href="#IBMPlexSans-37" transform="translate(147.199966 0)"/>
       <use xlink:href="#IBMPlexSans-35" transform="translate(207.199951 0)"/>
      </g>
     </g>
    </g>
    <g id="ytick_9">
     <g id="line2d_16">
      <g>
       <use xlink:href="#md650ad2581" x="54.520313" y="56.039426" style="stroke: #000000; stroke-width: 0.8"/>
      </g>
     </g>
     <g id="text_17">
      <!-- 1.700 -->
      <g transform="translate(20.8 59.739426) scale(0.1 -0.1)">
       <use xlink:href="#IBMPlexSans-31"/>
       <use xlink:href="#IBMPlexSans-2e" transform="translate(59.999985 0)"/>
       <use xlink:href="#IBMPlexSans-37" transform="translate(87.199982 0)"/>
       <use xlink:href="#IBMPlexSans-30" transform="translate(147.199966 0)"/>
       <use xlink:href="#IBMPlexSans-30" transform="translate(207.199951 0)"/>
      </g>
     </g>
    </g>
    <g id="text_18">
     <!-- Amplitude [m²/s] -->
     <g transform="translate(14.8 199.412822) rotate(-90) scale(0.1 -0.1)">
      <defs>
       <path id="IBMPlexSans-41" d="M 3955 0 
L 2394 4467 
L 1709 4467 
L 147 0 
L 691 0 
L 1139 1318 
L 2944 1318 
L 3392 0 
L 3955 0 
z
M 2810 1792 
L 1267 1792 
L 2022 3968 
L 2054 3968 
L 2810 1792 
z
" transform="scale(0.015625)"/>
       <path id="IBMPlexSans-6d" d="M 1056 0 
L 1056 2291 
C 1056 2714 1440 2918 1843 2918 
C 2330 2918 2554 2618 2554 2029 
L 2554 0 
L 3066 0 
L 3066 2291 
C 3066 2714 3437 2918 3840 2918 
C 4339 2918 4563 2611 4563 2029 
L 4563 0 
L 5075 0 
L 5075 2118 
C 5075 2918 4672 3379 4000 3379 
C 3437 3379 3117 3066 2995 2707 
L 2982 2707 
C 2803 3181 2406 3379 1971 3379 
C 1459 3379 1229 3104 1082 2765 
L 1056 2765 
L 1056 3302 
L 544 3302 
L 544 0 
L 1056 0 
z
" transform="scale(0.015625)"/>
       <path id="IBMPlexSans-70" d="M 544 -1280 
L 1056 -1280 
L 1056 538 
L 1082 538 
C 1280 128 1594 -77 2048 -77 
C 2874 -77 3392 595 3392 1651 
C 3392 2707 2874 3379 2048 3379 
C 1594 3379 1254 3181 1082 2765 
L 1056 2765 
L 1056 3302 
L 544 3302 
L 544 -1280 
z
M 1907 384 
C 1440 384 1056 627 1056 1056 
L 1056 2285 
C 1056 2650 1440 2918 1907 2918 
C 2483 2918 2842 2522 2842 1933 
L 2842 1370 
C 2842 781 2483 384 1907 384 
z
" transform="scale(0.015625)"/>
       <path id="IBMPlexSans-6c" d="M 1542 0 
L 1542 448 
L 1056 448 
L 1056 4736 
L 544 4736 
L 544 531 
C 544 224 736 0 1088 0 
L 1542 0 
z
" transform="scale(0.015625)"/>
       <path id="IBMPlexSans-69" d="M 800 4077 
C 1018 4077 1114 4192 1114 4365 
L 1114 4448 
C 1114 4621 1018 4736 800 4736 
C 582 4736 486 4621 486 4448 
L 486 4365 
C 486 4192 582 4077 800 4077 
z
M 544 0 
L 1056 0 
L 1056 3302 
L 544 3302 
L 544 0 
z
" transform="scale(0.015625)"/>
       <path id="IBMPlexSans-74" d="M 1914 0 
L 1914 448 
L 1242 448 
L 1242 2854 
L 1965 2854 
L 1965 3302 
L 1242 3302 
L 1242 4218 
L 781 4218 
L 781 3603 
C 781 3379 710 3302 493 3302 
L 186 3302 
L 186 2854 
L 730 2854 
L 730 544 
C 730 224 922 0 1274 0 
L 1914 0 
z
" transform="scale(0.015625)"/>
       <path id="IBMPlexSans-64" d="M 2656 0 
L 3168 0 
L 3168 4736 
L 2656 4736 
L 2656 2765 
L 2630 2765 
C 2458 3181 2118 3379 1664 3379 
C 838 3379 320 2707 320 1651 
C 320 595 838 -77 1664 -77 
C 2118 -77 2432 128 2630 538 
L 2656 538 
L 2656 0 
z
M 1805 384 
C 1229 384 870 781 870 1370 
L 870 1933 
C 870 2522 1229 2918 1805 2918 
C 2272 2918 2656 2650 2656 2285 
L 2656 1056 
C 2656 627 2272 384 1805 384 
z
" transform="scale(0.015625)"/>
       <path id="IBMPlexSans-b2" d="M 1990 2426 
L 678 2426 
L 1299 2906 
C 1658 3181 1907 3437 1907 3808 
C 1907 4218 1613 4506 1088 4506 
C 576 4506 320 4230 218 3930 
L 563 3802 
C 634 4006 768 4173 1062 4173 
C 1331 4173 1478 4026 1478 3808 
L 1478 3770 
C 1478 3539 1331 3347 1082 3142 
L 250 2470 
L 250 2106 
L 1990 2106 
L 1990 2426 
z
" transform="scale(0.015625)"/>
       <path id="IBMPlexSans-2f" d="M 518 -966 
L 2189 4736 
L 1728 4736 
L 58 -966 
L 518 -966 
z
" transform="scale(0.015625)"/>
       <path id="IBMPlexSans-73" d="M 1536 -77 
C 2291 -77 2758 314 2758 954 
C 2758 1453 2477 1773 1747 1882 
L 1491 1920 
C 1082 1984 858 2112 858 2432 
C 858 2746 1082 2944 1504 2944 
C 1926 2944 2208 2746 2355 2541 
L 2694 2848 
C 2426 3181 2074 3379 1542 3379 
C 870 3379 365 3059 365 2406 
C 365 1792 819 1542 1427 1453 
L 1690 1414 
C 2125 1350 2266 1152 2266 896 
C 2266 557 2010 358 1574 358 
C 1158 358 851 544 595 864 
L 230 570 
C 525 179 928 -77 1536 -77 
z
" transform="scale(0.015625)"/>
      </defs>
      <use xlink:href="#IBMPlexSans-41"/>
      <use xlink:href="#IBMPlexSans-6d" transform="translate(64.099991 0)"/>
      <use xlink:href="#IBMPlexSans-70" transform="translate(151.399979 0)"/>
      <use xlink:href="#IBMPlexSans-6c" transform="translate(209.399963 0)"/>
      <use xlink:href="#IBMPlexSans-69" transform="translate(236.59996 0)"/>
      <use xlink:href="#IBMPlexSans-74" transform="translate(261.599945 0)"/>
      <use xlink:href="#IBMPlexSans-75" transform="translate(296.699936 0)"/>
      <use xlink:href="#IBMPlexSans-64" transform="translate(353.499924 0)"/>
      <use xlink:href="#IBMPlexSans-65" transform="translate(411.499908 0)"/>
      <use xlink:href="#IBMPlexSans-20" transform="translate(466.399902 0)"/>
      <use xlink:href="#IBMPlexSans-5b" transform="translate(489.999893 0)"/>
      <use xlink:href="#IBMPlexSans-6d" transform="translate(521.69989 0)"/>
      <use xlink:href="#IBMPlexSans-b2" transform="translate(608.999878 0)"/>
      <use xlink:href="#IBMPlexSans-2f" transform="translate(643.599869 0)"/>
      <use xlink:href="#IBMPlexSans-73" transform="translate(681.899857 0)"/>
      <use xlink:href="#IBMPlexSans-5d" transform="translate(730.599854 0)"/>
     </g>
    </g>
    <g id="text_19">
     <!-- 1e−8 -->
     <g transform="translate(54.520313 44.648) scale(0.1 -0.1)">
      <defs>
       <path id="IBMPlexSans-2212" d="M 3411 1734 
L 3411 2170 
L 429 2170 
L 429 1734 
L 3411 1734 
z
" transform="scale(0.015625)"/>
       <path id="IBMPlexSans-38" d="M 1920 -77 
C 2938 -77 3469 480 3469 1216 
C 3469 1824 3104 2176 2566 2323 
L 2566 2374 
C 3034 2534 3334 2912 3334 3424 
C 3334 4102 2810 4544 1920 4544 
C 1030 4544 506 4102 506 3424 
C 506 2912 806 2534 1274 2374 
L 1274 2323 
C 736 2176 371 1824 371 1216 
C 371 480 902 -77 1920 -77 
z
M 1920 390 
C 1299 390 941 685 941 1190 
L 941 1325 
C 941 1830 1299 2125 1920 2125 
C 2541 2125 2899 1830 2899 1325 
L 2899 1190 
C 2899 685 2541 390 1920 390 
z
M 1920 2573 
C 1363 2573 1062 2822 1062 3277 
L 1062 3373 
C 1062 3827 1363 4077 1920 4077 
C 2477 4077 2778 3827 2778 3373 
L 2778 3277 
C 2778 2822 2477 2573 1920 2573 
z
" transform="scale(0.015625)"/>
      </defs>
      <use xlink:href="#IBMPlexSans-31"/>
      <use xlink:href="#IBMPlexSans-65" transform="translate(59.999985 0)"/>
      <use xlink:href="#IBMPlexSans-2212" transform="translate(114.899979 0)"/>
      <use xlink:href="#IBMPlexSans-38" transform="translate(174.899963 0)"/>
     </g>
    </g>
   </g>
   <g id="line2d_17">
    <defs>
     <path id="mfd149e2753" d="M 0 1.5 
C 0.397805 1.5 0.77937 1.341951 1.06066 1.06066 
C 1.341951 0.77937 1.5 0.397805 1.5 0 
C 1.5 -0.397805 1.341951 -0.77937 1.06066 -1.06066 
C 0.77937 -1.341951 0.397805 -1.5 0 -1.5 
C -0.397805 -1.5 -0.77937 -1.341951 -1.06066 -1.06066 
C -1.341951 -0.77937 -1.5 -0.397805 -1.5 0 
C -1.5 0.397805 -1.341951 0.77937 -1.06066 1.06066 
C -0.77937 1.341951 -0.397805 1.5 0 1.5 
z
"/>
    </defs>
    <g clip-path="url(#p949a94d377)">
     <use xlink:href="#mfd149e2753" x="65.652042" y="246.441658" style="fill: #1f77b4"/>
     <use xlink:href="#mfd149e2753" x="72.357904" y="258.214916" style="fill: #1f77b4"/>
     <use xlink:href="#mfd149e2753" x="79.063765" y="259.32124" style="fill: #1f77b4"/>
     <use xlink:href="#mfd149e2753" x="85.769626" y="254.174171" style="fill: #1f77b4"/>
     <use xlink:href="#mfd149e2753" x="92.475487" y="259.353195" style="fill: #1f77b4"/>
     <use xlink:href="#mfd149e2753" x="99.181349" y="253.503674" style="fill: #1f77b4"/>
     <use xlink:href="#mfd149e2753" x="105.88721" y="252.11832" style="fill: #1f77b4"/>
     <use xlink:href="#mfd149e2753" x="112.593071" y="254.584186" style="fill: #1f77b4"/>
     <use xlink:href="#mfd149e2753" x="119.298933" y="247.421956" style="fill: #1f77b4"/>
     <use xlink:href="#mfd149e2753" x="126.004794" y="247.269547" style="fill: #1f77b4"/>
     <use xlink:href="#mfd149e2753" x="132.710655" y="250.826751" style="fill: #1f77b4"/>
     <use xlink:href="#mfd149e2753" x="139.416517" y="250.662347" style="fill: #1f77b4"/>
     <use xlink:href="#mfd149e2753" x="146.122378" y="248.449907" style="fill: #1f77b4"/>
     <use xlink:href="#mfd149e2753" x="152.828239" y="248.913658" style="fill: #1f77b4"/>
     <use xlink:href="#mfd149e2753" x="159.5341" y="258.077079" style="fill: #1f77b4"/>
     <use xlink:href="#mfd149e2753" x="166.239962" y="258.225343" style="fill: #1f77b4"/>
     <use xlink:href="#mfd149e2753" x="172.945823" y="258.047292" style="fill: #1f77b4"/>
     <use xlink:href="#mfd149e2753" x="179.651684" y="254.149887" style="fill: #1f77b4"/>
     <use xlink:href="#mfd149e2753" x="186.357546" y="246.532991" style="fill: #1f77b4"/>
     <use xlink:href="#mfd149e2753" x="193.063407" y="247.027508" style="fill: #1f77b4"/>
     <use xlink:href="#mfd149e2753" x="199.769268" y="245.769187" style="fill: #1f77b4"/>
     <use xlink:href="#mfd149e2753" x="206.475129" y="253.796944" style="fill: #1f77b4"/>
     <use xlink:href="#mfd149e2753" x="213.180991" y="243.559343" style="fill: #1f77b4"/>
     <use xlink:href="#mfd149e2753" x="219.886852" y="245.412952" style="fill: #1f77b4"/>
     <use xlink:href="#mfd149e2753" x="226.592713" y="250.164734" style="fill: #1f77b4"/>
     <use xlink:href="#mfd149e2753" x="233.298575" y="239.761114" style="fill: #1f77b4"/>
     <use xlink:href="#mfd149e2753" x="240.004436" y="250.848627" style="fill: #1f77b4"/>
     <use xlink:href="#mfd149e2753" x="246.710297" y="238.59447" style="fill: #1f77b4"/>
     <use xlink:href="#mfd149e2753" x="253.416159" y="239.105703" style="fill: #1f77b4"/>
     <use xlink:href="#mfd149e2753" x="260.12202" y="232.967345" style="fill: #1f77b4"/>
     <use xlink:href="#mfd149e2753" x="266.827881" y="239.12845" style="fill: #1f77b4"/>
     <use xlink:href="#mfd149e2753" x="273.533742" y="239.724148" style="fill: #1f77b4"/>
     <use xlink:href="#mfd149e2753" x="280.239604" y="235.846428" style="fill: #1f77b4"/>
     <use xlink:href="#mfd149e2753" x="286.945465" y="229.267354" style="fill: #1f77b4"/>
     <use xlink:href="#mfd149e2753" x="293.651326" y="238.940519" style="fill: #1f77b4"/>
     <use xlink:href="#mfd149e2753" x="300.357188" y="237.742966" style="fill: #1f77b4"/>
     <use xlink:href="#mfd149e2753" x="307.063049" y="238.755765" style="fill: #1f77b4"/>
     <use xlink:href="#mfd149e2753" x="313.76891" y="230.083108" style="fill: #1f77b4"/>
     <use xlink:href="#mfd149e2753" x="320.474772" y="230.206365" style="fill: #1f77b4"/>
     <use xlink:href="#mfd149e2753" x="327.180633" y="233.095956" style="fill: #1f77b4"/>
     <use xlink:href="#mfd149e2753" x="333.886494" y="233.892004" style="fill: #1f77b4"/>
     <use xlink:href="#mfd149e2753" x="340.592355" y="234.257577" style="fill: #1f77b4"/>
     <use xlink:href="#mfd149e2753" x="347.298217" y="234.493799" style="fill: #1f77b4"/>
     <use xlink:href="#mfd149e2753" x="354.004078" y="227.221238" style="fill: #1f77b4"/>
     <use xlink:href="#mfd149e2753" x="360.709939" y="229.037324" style="fill: #1f77b4"/>
     <use xlink:href="#mfd149e2753" x="367.415801" y="233.945089" style="fill: #1f77b4"/>
     <use xlink:href="#mfd149e2753" x="374.121662" y="233.066094" style="fill: #1f77b4"/>
     <use xlink:href="#mfd149e2753" x="380.827523" y="236.398145" style="fill: #1f77b4"/>
     <use xlink:href="#mfd149e2753" x="387.533384" y="230.197363" style="fill: #1f77b4"/>
     <use xlink:href="#mfd149e2753" x="394.239246" y="221.071253" style="fill: #1f77b4"/>
     <use xlink:href="#mfd149e2753" x="400.945107" y="227.913042" style="fill: #1f77b4"/>
     <use xlink:href="#mfd149e2753" x="407.650968" y="225.883748" style="fill: #1f77b4"/>
     <use xlink:href="#mfd149e2753" x="414.35683" y="222.553495" style="fill: #1f77b4"/>
     <use xlink:href="#mfd149e2753" x="421.062691" y="227.008226" style="fill: #1f77b4"/>
     <use xlink:href="#mfd149e2753" x="427.768552" y="224.464566" style="fill: #1f77b4"/>
     <use xlink:href="#mfd149e2753" x="434.474414" y="216.170049" style="fill: #1f77b4"/>
     <use xlink:href="#mfd149e2753" x="441.180275" y="219.182187" style="fill: #1f77b4"/>
     <use xlink:href="#mfd149e2753" x="447.886136" y="219.317515" style="fill: #1f77b4"/>
     <use xlink:href="#mfd149e2753" x="454.591997" y="224.296568" style="fill: #1f77b4"/>
     <use xlink:href="#mfd149e2753" x="461.297859" y="224.936061" style="fill: #1f77b4"/>
     <use xlink:href="#mfd149e2753" x="468.00372" y="226.840789" style="fill: #1f77b4"/>
     <use xlink:href="#mfd149e2753" x="474.709581" y="223.822985" style="fill: #1f77b4"/>
     <use xlink:href="#mfd149e2753" x="481.415443" y="219.738652" style="fill: #1f77b4"/>
     <use xlink:href="#mfd149e2753" x="488.121304" y="210.196982" style="fill: #1f77b4"/>
     <use xlink:href="#mfd149e2753" x="494.827165" y="214.923253" style="fill: #1f77b4"/>
     <use xlink:href="#mfd149e2753" x="501.533027" y="217.643866" style="fill: #1f77b4"/>
    </g>
   </g>
   <g id="line2d_18">
    <path d="M 65.652042 254.227632 
L 72.357904 254.187405 
L 79.063765 254.120356 
L 85.769626 254.026484 
L 92.475487 253.905782 
L 99.181349 253.758246 
L 105.88721 253.583867 
L 112.593071 253.382637 
L 119.298933 253.154545 
L 126.004794 252.89958 
L 132.710655 252.617729 
L 139.416517 252.308977 
L 146.122378 251.973308 
L 152.828239 251.610707 
L 159.5341 251.221153 
L 166.239962 250.804628 
L 172.945823 250.36111 
L 179.651684 249.890576 
L 186.357546 249.393003 
L 193.063407 248.868365 
L 199.769268 248.316635 
L 206.475129 247.737786 
L 213.180991 247.131787 
L 219.886852 246.498609 
" clip-path="url(#p949a94d377)" style="fill: none; stroke: #2ca02c; stroke-width: 1.5; stroke-linecap: square"/>
   </g>
   <g id="line2d_19">
    <path d="M 65.652042 259.296416 
L 72.357904 259.213512 
L 79.063765 259.077343 
L 85.769626 258.891092 
L 92.475487 258.659585 
L 99.181349 258.389666 
L 105.88721 258.090659 
L 112.593071 257.774842 
L 119.298933 257.45773 
L 126.004794 257.157805 
L 132.710655 256.89527 
L 139.416517 256.689602 
L 146.122378 256.556452 
L 152.828239 256.505182 
L 159.5341 256.538294 
L 166.239962 256.652806 
L 172.945823 256.842541 
L 179.651684 257.100194 
L 186.357546 257.418678 
L 193.063407 257.791768 
L 199.769268 258.214284 
L 206.475129 258.682048 
L 213.180991 259.191741 
L 219.886852 259.740749 
" clip-path="url(#p949a94d377)" style="fill: none; stroke-dasharray: 5.55,2.4; stroke-dashoffset: 0; stroke: #2ca02c; stroke-width: 1.5"/>
   </g>
   <g id="line2d_20">
    <path d="M 65.652042 249.158848 
L 72.357904 249.161297 
L 79.063765 249.16337 
L 85.769626 249.161876 
L 92.475487 249.15198 
L 99.181349 249.126826 
L 105.88721 249.077076 
L 112.593071 248.990432 
L 119.298933 248.85136 
L 126.004794 248.641355 
L 132.710655 248.340187 
L 139.416517 247.928351 
L 146.122378 247.390165 
L 152.828239 246.716232 
L 159.5341 245.904013 
L 166.239962 244.95645 
L 172.945823 243.879679 
L 179.651684 242.680959 
L 186.357546 241.367328 
L 193.063407 239.944962 
L 199.769268 238.418987 
L 206.475129 236.793525 
L 213.180991 235.071834 
L 219.886852 233.256468 
" clip-path="url(#p949a94d377)" style="fill: none; stroke-dasharray: 5.55,2.4; stroke-dashoffset: 0; stroke: #2ca02c; stroke-width: 1.5"/>
   </g>
   <g id="line2d_21">
    <path d="M 217.683252 274.94952 
L 217.683252 252.219368 
" clip-path="url(#p949a94d377)" style="fill: none; stroke: #000000; stroke-width: 1.5; stroke-linecap: square"/>
   </g>
   <g id="patch_3">
    <path d="M 54.520313 274.94952 
L 54.520313 47.648 
" style="fill: none; stroke: #000000; stroke-width: 0.8; stroke-linejoin: miter; stroke-linecap: square"/>
   </g>
   <g id="patch_4">
    <path d="M 54.520313 274.94952 
L 505.958895 274.94952 
" style="fill: none; stroke: #000000; stroke-width: 0.8; stroke-linejoin: miter; stroke-linecap: square"/>
   </g>
   <g id="text_20">
    <!-- Model exppoly(0, 2)  -->
    <g transform="translate(54.520313 16.32) scale(0.12 -0.12)">
     <defs>
      <path id="IBMPlexSans-4d" d="M 595 0 
L 1120 0 
L 1120 3763 
L 1152 3763 
L 1530 3014 
L 2598 1069 
L 3667 3014 
L 4045 3763 
L 4077 3763 
L 4077 0 
L 4602 0 
L 4602 4467 
L 3910 4467 
L 2624 2061 
L 2592 2061 
L 1312 4467 
L 595 4467 
L 595 0 
z
" transform="scale(0.015625)"/>
      <path id="IBMPlexSans-6f" d="M 1792 -77 
C 2675 -77 3283 602 3283 1651 
C 3283 2701 2675 3379 1792 3379 
C 909 3379 301 2701 301 1651 
C 301 602 909 -77 1792 -77 
z
M 1792 378 
C 1242 378 851 717 851 1414 
L 851 1888 
C 851 2586 1242 2925 1792 2925 
C 2342 2925 2733 2586 2733 1888 
L 2733 1414 
C 2733 717 2342 378 1792 378 
z
" transform="scale(0.015625)"/>
      <path id="IBMPlexSans-78" d="M 134 0 
L 704 0 
L 1632 1293 
L 1651 1293 
L 2509 0 
L 3110 0 
L 1920 1702 
L 3085 3302 
L 2515 3302 
L 1645 2074 
L 1626 2074 
L 787 3302 
L 186 3302 
L 1357 1664 
L 134 0 
z
" transform="scale(0.015625)"/>
      <path id="IBMPlexSans-28" d="M 531 1997 
C 531 749 1056 -339 1690 -877 
L 2176 -877 
C 1485 -262 1011 819 1011 1715 
L 1011 2266 
C 1011 3162 1466 4224 2176 4864 
L 1690 4864 
C 1037 4307 531 3232 531 1997 
z
" transform="scale(0.015625)"/>
      <path id="IBMPlexSans-2c" d="M 870 749 
C 602 749 480 595 480 371 
L 480 282 
C 480 109 557 -19 730 -58 
C 659 -358 506 -582 250 -851 
L 678 -851 
C 1043 -538 1261 -64 1261 282 
L 1261 371 
C 1261 595 1139 749 870 749 
z
" transform="scale(0.015625)"/>
      <path id="IBMPlexSans-29" d="M 1613 1997 
C 1613 3232 1107 4307 454 4864 
L -32 4864 
C 678 4224 1133 3162 1133 2266 
L 1133 1715 
C 1133 819 659 -262 -32 -877 
L 454 -877 
C 1088 -339 1613 749 1613 1997 
z
" transform="scale(0.015625)"/>
     </defs>
     <use xlink:href="#IBMPlexSans-4d"/>
     <use xlink:href="#IBMPlexSans-6f" transform="translate(81.199982 0)"/>
     <use xlink:href="#IBMPlexSans-64" transform="translate(137.199966 0)"/>
     <use xlink:href="#IBMPlexSans-65" transform="translate(195.199951 0)"/>
     <use xlink:href="#IBMPlexSans-6c" transform="translate(250.099945 0)"/>
     <use xlink:href="#IBMPlexSans-20" transform="translate(277.299942 0)"/>
     <use xlink:href="#IBMPlexSans-65" transform="translate(300.899933 0)"/>
     <use xlink:href="#IBMPlexSans-78" transform="translate(355.799927 0)"/>
     <use xlink:href="#IBMPlexSans-70" transform="translate(406.499924 0)"/>
     <use xlink:href="#IBMPlexSans-70" transform="translate(464.499908 0)"/>
     <use xlink:href="#IBMPlexSans-6f" transform="translate(522.499893 0)"/>
     <use xlink:href="#IBMPlexSans-6c" transform="translate(578.499878 0)"/>
     <use xlink:href="#IBMPlexSans-79" transform="translate(605.699875 0)"/>
     <use xlink:href="#IBMPlexSans-28" transform="translate(655.599869 0)"/>
     <use xlink:href="#IBMPlexSans-30" transform="translate(689.099854 0)"/>
     <use xlink:href="#IBMPlexSans-2c" transform="translate(749.099838 0)"/>
     <use xlink:href="#IBMPlexSans-20" transform="translate(776.299835 0)"/>
     <use xlink:href="#IBMPlexSans-32" transform="translate(799.899826 0)"/>
     <use xlink:href="#IBMPlexSans-29" transform="translate(859.899811 0)"/>
     <use xlink:href="#IBMPlexSans-20" transform="translate(893.399796 0)"/>
    </g>
    <!-- $D$ = $1.51\times 10^{-8}$ ± $2.48\times 10^{-11}$ m²/s -->
    <g transform="translate(54.520313 31.248) scale(0.12 -0.12)">
     <defs>
      <path id="DejaVuSans-Oblique-44" d="M 1081 4666 
L 2438 4666 
Q 3519 4666 4070 4208 
Q 4622 3750 4622 2847 
Q 4622 2250 4412 1698 
Q 4203 1147 3834 769 
Q 3463 381 2891 190 
Q 2319 0 1538 0 
L 172 0 
L 1081 4666 
z
M 1613 4147 
L 909 519 
L 1734 519 
Q 2794 519 3375 1128 
Q 3956 1738 3956 2847 
Q 3956 3519 3581 3833 
Q 3206 4147 2406 4147 
L 1613 4147 
z
" transform="scale(0.015625)"/>
      <path id="IBMPlexSans-3d" d="M 3411 2381 
L 3411 2816 
L 429 2816 
L 429 2381 
L 3411 2381 
z
M 3411 1101 
L 3411 1536 
L 429 1536 
L 429 1101 
L 3411 1101 
z
" transform="scale(0.015625)"/>
      <path id="DejaVuSans-31" d="M 794 531 
L 1825 531 
L 1825 4091 
L 703 3866 
L 703 4441 
L 1819 4666 
L 2450 4666 
L 2450 531 
L 3481 531 
L 3481 0 
L 794 0 
L 794 531 
z
" transform="scale(0.015625)"/>
      <path id="DejaVuSans-2e" d="M 684 794 
L 1344 794 
L 1344 0 
L 684 0 
L 684 794 
z
" transform="scale(0.015625)"/>
      <path id="DejaVuSans-35" d="M 691 4666 
L 3169 4666 
L 3169 4134 
L 1269 4134 
L 1269 2991 
Q 1406 3038 1543 3061 
Q 1681 3084 1819 3084 
Q 2600 3084 3056 2656 
Q 3513 2228 3513 1497 
Q 3513 744 3044 326 
Q 2575 -91 1722 -91 
Q 1428 -91 1123 -41 
Q 819 9 494 109 
L 494 744 
Q 775 591 1075 516 
Q 1375 441 1709 441 
Q 2250 441 2565 725 
Q 2881 1009 2881 1497 
Q 2881 1984 2565 2268 
Q 2250 2553 1709 2553 
Q 1456 2553 1204 2497 
Q 953 2441 691 2322 
L 691 4666 
z
" transform="scale(0.015625)"/>
      <path id="DejaVuSans-d7" d="M 4488 3438 
L 3059 2003 
L 4488 575 
L 4116 197 
L 2681 1631 
L 1247 197 
L 878 575 
L 2303 2003 
L 878 3438 
L 1247 3816 
L 2681 2381 
L 4116 3816 
L 4488 3438 
z
" transform="scale(0.015625)"/>
      <path id="DejaVuSans-30" d="M 2034 4250 
Q 1547 4250 1301 3770 
Q 1056 3291 1056 2328 
Q 1056 1369 1301 889 
Q 1547 409 2034 409 
Q 2525 409 2770 889 
Q 3016 1369 3016 2328 
Q 3016 3291 2770 3770 
Q 2525 4250 2034 4250 
z
M 2034 4750 
Q 2819 4750 3233 4129 
Q 3647 3509 3647 2328 
Q 3647 1150 3233 529 
Q 2819 -91 2034 -91 
Q 1250 -91 836 529 
Q 422 1150 422 2328 
Q 422 3509 836 4129 
Q 1250 4750 2034 4750 
z
" transform="scale(0.015625)"/>
      <path id="DejaVuSans-2212" d="M 678 2272 
L 4684 2272 
L 4684 1741 
L 678 1741 
L 678 2272 
z
" transform="scale(0.015625)"/>
      <path id="DejaVuSans-38" d="M 2034 2216 
Q 1584 2216 1326 1975 
Q 1069 1734 1069 1313 
Q 1069 891 1326 650 
Q 1584 409 2034 409 
Q 2484 409 2743 651 
Q 3003 894 3003 1313 
Q 3003 1734 2745 1975 
Q 2488 2216 2034 2216 
z
M 1403 2484 
Q 997 2584 770 2862 
Q 544 3141 544 3541 
Q 544 4100 942 4425 
Q 1341 4750 2034 4750 
Q 2731 4750 3128 4425 
Q 3525 4100 3525 3541 
Q 3525 3141 3298 2862 
Q 3072 2584 2669 2484 
Q 3125 2378 3379 2068 
Q 3634 1759 3634 1313 
Q 3634 634 3220 271 
Q 2806 -91 2034 -91 
Q 1263 -91 848 271 
Q 434 634 434 1313 
Q 434 1759 690 2068 
Q 947 2378 1403 2484 
z
M 1172 3481 
Q 1172 3119 1398 2916 
Q 1625 2713 2034 2713 
Q 2441 2713 2670 2916 
Q 2900 3119 2900 3481 
Q 2900 3844 2670 4047 
Q 2441 4250 2034 4250 
Q 1625 4250 1398 4047 
Q 1172 3844 1172 3481 
z
" transform="scale(0.015625)"/>
      <path id="IBMPlexSans-b1" d="M 2163 973 
L 2163 2246 
L 3411 2246 
L 3411 2682 
L 2163 2682 
L 2163 3955 
L 1677 3955 
L 1677 2682 
L 429 2682 
L 429 2246 
L 1677 2246 
L 1677 973 
L 2163 973 
z
M 3411 0 
L 3411 435 
L 429 435 
L 429 0 
L 3411 0 
z
" transform="scale(0.015625)"/>
      <path id="DejaVuSans-32" d="M 1228 531 
L 3431 531 
L 3431 0 
L 469 0 
L 469 531 
Q 828 903 1448 1529 
Q 2069 2156 2228 2338 
Q 2531 2678 2651 2914 
Q 2772 3150 2772 3378 
Q 2772 3750 2511 3984 
Q 2250 4219 1831 4219 
Q 1534 4219 1204 4116 
Q 875 4013 500 3803 
L 500 4441 
Q 881 4594 1212 4672 
Q 1544 4750 1819 4750 
Q 2544 4750 2975 4387 
Q 3406 4025 3406 3419 
Q 3406 3131 3298 2873 
Q 3191 2616 2906 2266 
Q 2828 2175 2409 1742 
Q 1991 1309 1228 531 
z
" transform="scale(0.015625)"/>
      <path id="DejaVuSans-34" d="M 2419 4116 
L 825 1625 
L 2419 1625 
L 2419 4116 
z
M 2253 4666 
L 3047 4666 
L 3047 1625 
L 3713 1625 
L 3713 1100 
L 3047 1100 
L 3047 0 
L 2419 0 
L 2419 1100 
L 313 1100 
L 313 1709 
L 2253 4666 
z
" transform="scale(0.015625)"/>
     </defs>
     <use xlink:href="#DejaVuSans-Oblique-44" transform="translate(0 0.765625)"/>
     <use xlink:href="#IBMPlexSans-20" transform="translate(77.001953 0.765625)"/>
     <use xlink:href="#IBMPlexSans-3d" transform="translate(100.601944 0.765625)"/>
     <use xlink:href="#IBMPlexSans-20" transform="translate(160.601929 0.765625)"/>
     <use xlink:href="#DejaVuSans-31" transform="translate(184.20192 0.765625)"/>
     <use xlink:href="#DejaVuSans-2e" transform="translate(247.824966 0.765625)"/>
     <use xlink:href="#DejaVuSans-35" transform="translate(279.612076 0.765625)"/>
     <use xlink:href="#DejaVuSans-31" transform="translate(343.235123 0.765625)"/>
     <use xlink:href="#DejaVuSans-d7" transform="translate(426.340591 0.765625)"/>
     <use xlink:href="#DejaVuSans-31" transform="translate(529.612076 0.765625)"/>
     <use xlink:href="#DejaVuSans-30" transform="translate(593.235123 0.765625)"/>
     <use xlink:href="#DejaVuSans-2212" transform="translate(657.815201 39.046875) scale(0.7)"/>
     <use xlink:href="#DejaVuSans-38" transform="translate(716.467545 39.046875) scale(0.7)"/>
     <use xlink:href="#IBMPlexSans-20" transform="translate(763.738052 0.765625)"/>
     <use xlink:href="#IBMPlexSans-b1" transform="translate(787.338043 0.765625)"/>
     <use xlink:href="#IBMPlexSans-20" transform="translate(847.338028 0.765625)"/>
     <use xlink:href="#DejaVuSans-32" transform="translate(870.938019 0.765625)"/>
     <use xlink:href="#DejaVuSans-2e" transform="translate(934.561066 0.765625)"/>
     <use xlink:href="#DejaVuSans-34" transform="translate(966.348175 0.765625)"/>
     <use xlink:href="#DejaVuSans-38" transform="translate(1029.971222 0.765625)"/>
     <use xlink:href="#DejaVuSans-d7" transform="translate(1113.076691 0.765625)"/>
     <use xlink:href="#DejaVuSans-31" transform="translate(1216.348175 0.765625)"/>
     <use xlink:href="#DejaVuSans-30" transform="translate(1279.971222 0.765625)"/>
     <use xlink:href="#DejaVuSans-2212" transform="translate(1344.5513 39.046875) scale(0.7)"/>
     <use xlink:href="#DejaVuSans-31" transform="translate(1403.203644 39.046875) scale(0.7)"/>
     <use xlink:href="#DejaVuSans-31" transform="translate(1447.739777 39.046875) scale(0.7)"/>
     <use xlink:href="#IBMPlexSans-20" transform="translate(1495.010284 0.765625)"/>
     <use xlink:href="#IBMPlexSans-6d" transform="translate(1518.610275 0.765625)"/>
     <use xlink:href="#IBMPlexSans-b2" transform="translate(1605.910263 0.765625)"/>
     <use xlink:href="#IBMPlexSans-2f" transform="translate(1640.510254 0.765625)"/>
     <use xlink:href="#IBMPlexSans-73" transform="translate(1678.810242 0.765625)"/>
    </g>
   </g>
   <g id="text_21">
    <!--  -->
    <g transform="translate(505.958895 18.192) scale(0.12 -0.12)"/>
    <!-- $\tau_\text{int}$ = 0.185 ± 0.000 ps -->
    <g transform="translate(381.878895 31.248) scale(0.12 -0.12)">
     <defs>
      <path id="DejaVuSans-Oblique-3c4" d="M 2103 638 
Q 2188 488 2525 488 
L 2800 488 
L 2706 0 
L 2363 0 
Q 1800 0 1600 300 
Q 1403 606 1534 1269 
L 1856 2925 
L 541 2925 
L 653 3500 
L 3881 3500 
L 3769 2925 
L 2444 2925 
L 2113 1234 
Q 2025 781 2103 638 
z
" transform="scale(0.015625)"/>
      <path id="DejaVuSans-69" d="M 603 3500 
L 1178 3500 
L 1178 0 
L 603 0 
L 603 3500 
z
M 603 4863 
L 1178 4863 
L 1178 4134 
L 603 4134 
L 603 4863 
z
" transform="scale(0.015625)"/>
      <path id="DejaVuSans-6e" d="M 3513 2113 
L 3513 0 
L 2938 0 
L 2938 2094 
Q 2938 2591 2744 2837 
Q 2550 3084 2163 3084 
Q 1697 3084 1428 2787 
Q 1159 2491 1159 1978 
L 1159 0 
L 581 0 
L 581 3500 
L 1159 3500 
L 1159 2956 
Q 1366 3272 1645 3428 
Q 1925 3584 2291 3584 
Q 2894 3584 3203 3211 
Q 3513 2838 3513 2113 
z
" transform="scale(0.015625)"/>
      <path id="DejaVuSans-74" d="M 1172 4494 
L 1172 3500 
L 2356 3500 
L 2356 3053 
L 1172 3053 
L 1172 1153 
Q 1172 725 1289 603 
Q 1406 481 1766 481 
L 2356 481 
L 2356 0 
L 1766 0 
Q 1100 0 847 248 
Q 594 497 594 1153 
L 594 3053 
L 172 3053 
L 172 3500 
L 594 3500 
L 594 4494 
L 1172 4494 
z
" transform="scale(0.015625)"/>
     </defs>
     <use xlink:href="#DejaVuSans-Oblique-3c4"/>
     <use xlink:href="#DejaVuSans-69" transform="translate(60.205078 -16.40625) scale(0.7)"/>
     <use xlink:href="#DejaVuSans-6e" transform="translate(79.65332 -16.40625) scale(0.7)"/>
     <use xlink:href="#DejaVuSans-74" transform="translate(124.018555 -16.40625) scale(0.7)"/>
     <use xlink:href="#IBMPlexSans-20" transform="translate(154.199219 0)"/>
     <use xlink:href="#IBMPlexSans-3d" transform="translate(177.79921 0)"/>
     <use xlink:href="#IBMPlexSans-20" transform="translate(237.799194 0)"/>
     <use xlink:href="#IBMPlexSans-30" transform="translate(261.399185 0)"/>
     <use xlink:href="#IBMPlexSans-2e" transform="translate(321.39917 0)"/>
     <use xlink:href="#IBMPlexSans-31" transform="translate(348.599167 0)"/>
     <use xlink:href="#IBMPlexSans-38" transform="translate(408.599152 0)"/>
     <use xlink:href="#IBMPlexSans-35" transform="translate(468.599136 0)"/>
     <use xlink:href="#IBMPlexSans-20" transform="translate(528.599121 0)"/>
     <use xlink:href="#IBMPlexSans-b1" transform="translate(552.199112 0)"/>
     <use xlink:href="#IBMPlexSans-20" transform="translate(612.199097 0)"/>
     <use xlink:href="#IBMPlexSans-30" transform="translate(635.799088 0)"/>
     <use xlink:href="#IBMPlexSans-2e" transform="translate(695.799072 0)"/>
     <use xlink:href="#IBMPlexSans-30" transform="translate(722.999069 0)"/>
     <use xlink:href="#IBMPlexSans-30" transform="translate(782.999054 0)"/>
     <use xlink:href="#IBMPlexSans-30" transform="translate(842.999039 0)"/>
     <use xlink:href="#IBMPlexSans-20" transform="translate(902.999023 0)"/>
     <use xlink:href="#IBMPlexSans-70" transform="translate(926.599014 0)"/>
     <use xlink:href="#IBMPlexSans-73" transform="translate(984.598999 0)"/>
    </g>
   </g>
   <g id="legend_1">
    <g id="patch_5">
     <path d="M 368.902645 84.568312 
L 498.958895 84.568312 
Q 500.958895 84.568312 500.958895 82.568312 
L 500.958895 54.648 
Q 500.958895 52.648 498.958895 52.648 
L 368.902645 52.648 
Q 366.902645 52.648 366.902645 54.648 
L 366.902645 82.568312 
Q 366.902645 84.568312 368.902645 84.568312 
z
" style="fill: #ffffff; opacity: 0.8; stroke: #cccccc; stroke-linejoin: miter"/>
    </g>
    <g id="line2d_22">
     <path d="M 370.902645 60.548 
L 380.902645 60.548 
L 390.902645 60.548 
" style="fill: none; stroke-dasharray: 5.55,2.4; stroke-dashoffset: 0; stroke: #2ca02c; stroke-width: 1.5"/>
    </g>
    <g id="text_22">
     <!-- 95% CI fitted model -->
     <g transform="translate(398.902645 64.048) scale(0.1 -0.1)">
      <defs>
       <path id="IBMPlexSans-39" d="M 3411 2829 
C 3411 3891 2842 4544 1914 4544 
C 1018 4544 429 3942 429 3066 
C 429 2221 979 1690 1747 1690 
C 2291 1690 2611 1965 2822 2330 
L 2854 2317 
C 2611 1280 2080 698 1126 0 
L 1818 0 
C 2534 467 3411 1504 3411 2829 
z
M 1920 2144 
C 1331 2144 986 2483 986 3085 
L 986 3136 
C 986 3738 1331 4077 1920 4077 
C 2509 4077 2854 3738 2854 3136 
L 2854 3085 
C 2854 2483 2509 2144 1920 2144 
z
" transform="scale(0.015625)"/>
       <path id="IBMPlexSans-25" d="M 1664 0 
L 4762 4467 
L 4269 4467 
L 1171 0 
L 1664 0 
z
M 1427 2010 
C 2074 2010 2438 2458 2438 3277 
C 2438 4096 2074 4544 1427 4544 
C 781 4544 416 4096 416 3277 
C 416 2458 781 2010 1427 2010 
z
M 1427 2342 
C 1056 2342 877 2598 877 3085 
L 877 3469 
C 877 3955 1056 4211 1427 4211 
C 1798 4211 1978 3955 1978 3469 
L 1978 3085 
C 1978 2598 1798 2342 1427 2342 
z
M 4506 -77 
C 5152 -77 5517 371 5517 1190 
C 5517 2010 5152 2458 4506 2458 
C 3859 2458 3494 2010 3494 1190 
C 3494 371 3859 -77 4506 -77 
z
M 4506 256 
C 4134 256 3955 512 3955 998 
L 3955 1382 
C 3955 1869 4134 2125 4506 2125 
C 4877 2125 5056 1869 5056 1382 
L 5056 998 
C 5056 512 4877 256 4506 256 
z
" transform="scale(0.015625)"/>
       <path id="IBMPlexSans-43" d="M 2170 -77 
C 2912 -77 3456 314 3738 941 
L 3309 1210 
C 3130 723 2739 403 2170 403 
C 1402 403 947 960 947 1875 
L 947 2541 
C 947 3456 1402 4064 2170 4064 
C 2720 4064 3091 3763 3270 3302 
L 3706 3565 
C 3424 4186 2912 4544 2170 4544 
C 1043 4544 371 3699 371 2208 
C 371 717 1043 -77 2170 -77 
z
" transform="scale(0.015625)"/>
       <path id="IBMPlexSans-49" d="M 2176 0 
L 2176 448 
L 1549 448 
L 1549 4019 
L 2176 4019 
L 2176 4467 
L 384 4467 
L 384 4019 
L 1011 4019 
L 1011 448 
L 384 448 
L 384 0 
L 2176 0 
z
" transform="scale(0.015625)"/>
       <path id="IBMPlexSans-66" d="M 723 0 
L 1235 0 
L 1235 2854 
L 1946 2854 
L 1946 3302 
L 1235 3302 
L 1235 4288 
L 1946 4288 
L 1946 4736 
L 1446 4736 
C 960 4736 723 4422 723 3968 
L 723 3302 
L 186 3302 
L 186 2854 
L 723 2854 
L 723 0 
z
" transform="scale(0.015625)"/>
      </defs>
      <use xlink:href="#IBMPlexSans-39"/>
      <use xlink:href="#IBMPlexSans-35" transform="translate(59.999985 0)"/>
      <use xlink:href="#IBMPlexSans-25" transform="translate(119.999969 0)"/>
      <use xlink:href="#IBMPlexSans-20" transform="translate(212.699951 0)"/>
      <use xlink:href="#IBMPlexSans-43" transform="translate(236.299942 0)"/>
      <use xlink:href="#IBMPlexSans-49" transform="translate(298.399933 0)"/>
      <use xlink:href="#IBMPlexSans-20" transform="translate(338.399918 0)"/>
      <use xlink:href="#IBMPlexSans-66" transform="translate(361.999908 0)"/>
      <use xlink:href="#IBMPlexSans-69" transform="translate(394.399902 0)"/>
      <use xlink:href="#IBMPlexSans-74" transform="translate(419.399887 0)"/>
      <use xlink:href="#IBMPlexSans-74" transform="translate(454.499878 0)"/>
      <use xlink:href="#IBMPlexSans-65" transform="translate(489.599869 0)"/>
      <use xlink:href="#IBMPlexSans-64" transform="translate(544.499863 0)"/>
      <use xlink:href="#IBMPlexSans-20" transform="translate(602.499847 0)"/>
      <use xlink:href="#IBMPlexSans-6d" transform="translate(626.099838 0)"/>
      <use xlink:href="#IBMPlexSans-6f" transform="translate(713.399826 0)"/>
      <use xlink:href="#IBMPlexSans-64" transform="translate(769.399811 0)"/>
      <use xlink:href="#IBMPlexSans-65" transform="translate(827.399796 0)"/>
      <use xlink:href="#IBMPlexSans-6c" transform="translate(882.299789 0)"/>
     </g>
    </g>
    <g id="patch_6">
     <path d="M 370.902645 78.448 
L 390.902645 78.448 
L 390.902645 71.448 
L 370.902645 71.448 
z
" style="fill: #2ca02c; fill-opacity: 0.3"/>
    </g>
    <g id="text_23">
     <!-- 95% CI sampling PSD -->
     <g transform="translate(398.902645 78.448) scale(0.1 -0.1)">
      <defs>
       <path id="IBMPlexSans-61" d="M 3232 0 
L 3232 448 
L 2854 448 
L 2854 2266 
C 2854 2963 2381 3379 1587 3379 
C 992 3379 595 3085 416 2733 
L 723 2445 
C 902 2746 1165 2938 1562 2938 
C 2086 2938 2342 2682 2342 2214 
L 2342 1888 
L 1690 1888 
C 730 1888 282 1542 282 922 
C 282 307 691 -77 1389 -77 
C 1850 -77 2202 134 2342 538 
L 2374 538 
C 2413 230 2566 0 2944 0 
L 3232 0 
z
M 1472 358 
C 1075 358 819 544 819 870 
L 819 1005 
C 819 1325 1082 1504 1664 1504 
L 2342 1504 
L 2342 960 
C 2342 621 1978 358 1472 358 
z
" transform="scale(0.015625)"/>
       <path id="IBMPlexSans-67" d="M 3328 -365 
C 3328 179 2976 512 2157 512 
L 1453 512 
C 1152 512 947 563 947 762 
C 947 966 1165 1075 1382 1133 
C 1478 1114 1594 1101 1702 1101 
C 2458 1101 2950 1568 2950 2240 
C 2950 2592 2810 2886 2573 3091 
L 2573 3302 
L 3200 3302 
L 3200 3750 
L 2707 3750 
C 2432 3750 2323 3565 2323 3309 
L 2323 3251 
C 2144 3334 1933 3379 1696 3379 
C 947 3379 454 2912 454 2240 
C 454 1779 685 1414 1075 1229 
L 1075 1203 
C 742 1120 506 960 506 627 
C 506 403 614 256 800 166 
L 800 96 
C 474 6 275 -186 275 -544 
C 275 -1062 698 -1357 1728 -1357 
C 2790 -1357 3328 -1043 3328 -365 
z
M 2848 -403 
C 2848 -762 2515 -941 1946 -941 
L 1472 -941 
C 954 -941 755 -704 755 -416 
C 755 -211 851 -64 1062 32 
L 2163 32 
C 2675 32 2848 -141 2848 -403 
z
M 1702 1510 
C 1267 1510 992 1715 992 2150 
L 992 2330 
C 992 2765 1267 2970 1702 2970 
C 2138 2970 2413 2765 2413 2330 
L 2413 2150 
C 2413 1715 2138 1510 1702 1510 
z
" transform="scale(0.015625)"/>
       <path id="IBMPlexSans-50" d="M 1133 0 
L 1133 1907 
L 2374 1907 
C 3174 1907 3622 2400 3622 3187 
C 3622 3974 3174 4467 2374 4467 
L 595 4467 
L 595 0 
L 1133 0 
z
M 1133 3994 
L 2374 3994 
C 2797 3994 3046 3763 3046 3354 
L 3046 3021 
C 3046 2611 2797 2381 2374 2381 
L 1133 2381 
L 1133 3994 
z
" transform="scale(0.015625)"/>
       <path id="IBMPlexSans-53" d="M 1850 -77 
C 2810 -77 3386 448 3386 1267 
C 3386 1933 3008 2317 2138 2515 
L 1773 2598 
C 1210 2726 934 2918 934 3341 
C 934 3821 1286 4070 1856 4070 
C 2374 4070 2714 3859 2957 3520 
L 3360 3814 
C 3027 4288 2554 4544 1882 4544 
C 1005 4544 403 4115 403 3322 
C 403 2637 851 2278 1664 2093 
L 2029 2010 
C 2618 1875 2854 1664 2854 1242 
C 2854 730 2509 397 1869 397 
C 1350 397 979 621 666 1037 
L 269 704 
C 627 218 1133 -77 1850 -77 
z
" transform="scale(0.015625)"/>
       <path id="IBMPlexSans-44" d="M 595 0 
L 2093 0 
C 3206 0 3923 742 3923 2234 
C 3923 3725 3206 4467 2093 4467 
L 595 4467 
L 595 0 
z
M 1133 474 
L 1133 3994 
L 2093 3994 
C 2829 3994 3347 3482 3347 2598 
L 3347 1869 
C 3347 986 2829 474 2093 474 
L 1133 474 
z
" transform="scale(0.015625)"/>
      </defs>
      <use xlink:href="#IBMPlexSans-39"/>
      <use xlink:href="#IBMPlexSans-35" transform="translate(59.999985 0)"/>
      <use xlink:href="#IBMPlexSans-25" transform="translate(119.999969 0)"/>
      <use xlink:href="#IBMPlexSans-20" transform="translate(212.699951 0)"/>
      <use xlink:href="#IBMPlexSans-43" transform="translate(236.299942 0)"/>
      <use xlink:href="#IBMPlexSans-49" transform="translate(298.399933 0)"/>
      <use xlink:href="#IBMPlexSans-20" transform="translate(338.399918 0)"/>
      <use xlink:href="#IBMPlexSans-73" transform="translate(361.999908 0)"/>
      <use xlink:href="#IBMPlexSans-61" transform="translate(410.699905 0)"/>
      <use xlink:href="#IBMPlexSans-6d" transform="translate(464.099899 0)"/>
      <use xlink:href="#IBMPlexSans-70" transform="translate(551.399887 0)"/>
      <use xlink:href="#IBMPlexSans-6c" transform="translate(609.399872 0)"/>
      <use xlink:href="#IBMPlexSans-69" transform="translate(636.599869 0)"/>
      <use xlink:href="#IBMPlexSans-6e" transform="translate(661.599854 0)"/>
      <use xlink:href="#IBMPlexSans-67" transform="translate(718.399841 0)"/>
      <use xlink:href="#IBMPlexSans-20" transform="translate(771.199829 0)"/>
      <use xlink:href="#IBMPlexSans-50" transform="translate(794.79982 0)"/>
      <use xlink:href="#IBMPlexSans-53" transform="translate(855.399811 0)"/>
      <use xlink:href="#IBMPlexSans-44" transform="translate(913.499802 0)"/>
     </g>
    </g>
   </g>
  </g>
  <g id="axes_2">
   <g id="matplotlib.axis_3">
    <g id="ytick_10">
     <g id="line2d_23">
      <defs>
       <path id="m916b54a664" d="M 0 0 
L 3.5 0 
" style="stroke: #ff0000; stroke-width: 0.8"/>
      </defs>
      <g>
       <use xlink:href="#m916b54a664" x="505.958895" y="270.578337" style="fill: #ff0000; stroke: #ff0000; stroke-width: 0.8"/>
      </g>
     </g>
     <g id="text_24">
      <!-- 0.0 -->
      <g style="fill: #ff0000" transform="translate(512.958895 274.278337) scale(0.1 -0.1)">
       <use xlink:href="#IBMPlexSans-30"/>
       <use xlink:href="#IBMPlexSans-2e" transform="translate(59.999985 0)"/>
       <use xlink:href="#IBMPlexSans-30" transform="translate(87.199982 0)"/>
      </g>
     </g>
    </g>
    <g id="ytick_11">
     <g id="line2d_24">
      <g>
       <use xlink:href="#m916b54a664" x="505.958895" y="226.866506" style="fill: #ff0000; stroke: #ff0000; stroke-width: 0.8"/>
      </g>
     </g>
     <g id="text_25">
      <!-- 0.2 -->
      <g style="fill: #ff0000" transform="translate(512.958895 230.566506) scale(0.1 -0.1)">
       <use xlink:href="#IBMPlexSans-30"/>
       <use xlink:href="#IBMPlexSans-2e" transform="translate(59.999985 0)"/>
       <use xlink:href="#IBMPlexSans-32" transform="translate(87.199982 0)"/>
      </g>
     </g>
    </g>
    <g id="ytick_12">
     <g id="line2d_25">
      <g>
       <use xlink:href="#m916b54a664" x="505.958895" y="183.154675" style="fill: #ff0000; stroke: #ff0000; stroke-width: 0.8"/>
      </g>
     </g>
     <g id="text_26">
      <!-- 0.4 -->
      <g style="fill: #ff0000" transform="translate(512.958895 186.854675) scale(0.1 -0.1)">
       <use xlink:href="#IBMPlexSans-30"/>
       <use xlink:href="#IBMPlexSans-2e" transform="translate(59.999985 0)"/>
       <use xlink:href="#IBMPlexSans-34" transform="translate(87.199982 0)"/>
      </g>
     </g>
    </g>
    <g id="ytick_13">
     <g id="line2d_26">
      <g>
       <use xlink:href="#m916b54a664" x="505.958895" y="139.442845" style="fill: #ff0000; stroke: #ff0000; stroke-width: 0.8"/>
      </g>
     </g>
     <g id="text_27">
      <!-- 0.6 -->
      <g style="fill: #ff0000" transform="translate(512.958895 143.142845) scale(0.1 -0.1)">
       <use xlink:href="#IBMPlexSans-30"/>
       <use xlink:href="#IBMPlexSans-2e" transform="translate(59.999985 0)"/>
       <use xlink:href="#IBMPlexSans-36" transform="translate(87.199982 0)"/>
      </g>
     </g>
    </g>
    <g id="ytick_14">
     <g id="line2d_27">
      <g>
       <use xlink:href="#m916b54a664" x="505.958895" y="95.731014" style="fill: #ff0000; stroke: #ff0000; stroke-width: 0.8"/>
      </g>
     </g>
     <g id="text_28">
      <!-- 0.8 -->
      <g style="fill: #ff0000" transform="translate(512.958895 99.431014) scale(0.1 -0.1)">
       <use xlink:href="#IBMPlexSans-30"/>
       <use xlink:href="#IBMPlexSans-2e" transform="translate(59.999985 0)"/>
       <use xlink:href="#IBMPlexSans-38" transform="translate(87.199982 0)"/>
      </g>
     </g>
    </g>
    <g id="ytick_15">
     <g id="line2d_28">
      <g>
       <use xlink:href="#m916b54a664" x="505.958895" y="52.019183" style="fill: #ff0000; stroke: #ff0000; stroke-width: 0.8"/>
      </g>
     </g>
     <g id="text_29">
      <!-- 1.0 -->
      <g style="fill: #ff0000" transform="translate(512.958895 55.719183) scale(0.1 -0.1)">
       <use xlink:href="#IBMPlexSans-31"/>
       <use xlink:href="#IBMPlexSans-2e" transform="translate(59.999985 0)"/>
       <use xlink:href="#IBMPlexSans-30" transform="translate(87.199982 0)"/>
      </g>
     </g>
    </g>
    <g id="text_30">
     <!-- Fitting weight -->
     <g style="fill: #d62728" transform="translate(539.079207 191.832354) rotate(-90) scale(0.1 -0.1)">
      <defs>
       <path id="IBMPlexSans-77" d="M 1082 0 
L 1702 0 
L 2163 1587 
L 2445 2592 
L 2458 2592 
L 2746 1587 
L 3206 0 
L 3840 0 
L 4717 3302 
L 4237 3302 
L 3878 1875 
L 3539 429 
L 3526 429 
L 3117 1875 
L 2688 3302 
L 2234 3302 
L 1818 1875 
L 1414 429 
L 1402 429 
L 1050 1875 
L 698 3302 
L 198 3302 
L 1082 0 
z
" transform="scale(0.015625)"/>
       <path id="IBMPlexSans-68" d="M 544 0 
L 1056 0 
L 1056 2291 
C 1056 2714 1453 2918 1862 2918 
C 2355 2918 2611 2618 2611 2029 
L 2611 0 
L 3123 0 
L 3123 2118 
C 3123 2918 2694 3379 2016 3379 
C 1523 3379 1242 3136 1082 2765 
L 1056 2765 
L 1056 4736 
L 544 4736 
L 544 0 
z
" transform="scale(0.015625)"/>
      </defs>
      <use xlink:href="#IBMPlexSans-46"/>
      <use xlink:href="#IBMPlexSans-69" transform="translate(55.899994 0)"/>
      <use xlink:href="#IBMPlexSans-74" transform="translate(80.899979 0)"/>
      <use xlink:href="#IBMPlexSans-74" transform="translate(115.999969 0)"/>
      <use xlink:href="#IBMPlexSans-69" transform="translate(151.09996 0)"/>
      <use xlink:href="#IBMPlexSans-6e" transform="translate(176.099945 0)"/>
      <use xlink:href="#IBMPlexSans-67" transform="translate(232.899933 0)"/>
      <use xlink:href="#IBMPlexSans-20" transform="translate(285.699921 0)"/>
      <use xlink:href="#IBMPlexSans-77" transform="translate(309.299911 0)"/>
      <use xlink:href="#IBMPlexSans-65" transform="translate(386.099899 0)"/>
      <use xlink:href="#IBMPlexSans-69" transform="translate(440.999893 0)"/>
      <use xlink:href="#IBMPlexSans-67" transform="translate(465.999878 0)"/>
      <use xlink:href="#IBMPlexSans-68" transform="translate(518.799866 0)"/>
      <use xlink:href="#IBMPlexSans-74" transform="translate(575.599854 0)"/>
     </g>
    </g>
   </g>
   <g id="line2d_29">
    <path d="M 65.652042 52.019183 
L 72.357904 52.019195 
L 79.063765 52.019478 
L 85.769626 52.022129 
L 92.475487 52.036722 
L 99.181349 52.094249 
L 105.88721 52.273161 
L 112.593071 52.731927 
L 119.298933 53.713959 
L 126.004794 55.475139 
L 132.710655 58.173079 
L 139.416517 61.836918 
L 146.122378 66.413082 
L 152.828239 71.815301 
L 159.5341 77.96716 
L 166.239962 84.834573 
L 172.945823 92.434075 
L 179.651684 100.813207 
L 186.357546 110.013602 
L 193.063407 120.032207 
L 199.769268 130.79351 
L 206.475129 142.140207 
L 213.180991 153.843694 
L 219.886852 165.630222 
L 226.592713 177.214892 
L 233.298575 188.334722 
L 240.004436 198.773923 
L 246.710297 208.377941 
L 253.416159 217.056324 
L 260.12202 224.776938 
L 266.827881 231.554995 
L 273.533742 237.440173 
L 280.239604 242.504235 
L 286.945465 246.830549 
L 293.651326 250.506056 
L 300.357188 253.615658 
L 307.063049 256.238672 
L 313.76891 258.446906 
L 320.474772 260.303876 
L 327.180633 261.864804 
L 333.886494 263.177086 
L 340.592355 264.281001 
L 347.298217 265.210536 
L 354.004078 265.994222 
L 360.709939 266.655913 
L 367.415801 267.215512 
L 374.121662 267.689598 
L 380.827523 268.091968 
L 387.533384 268.434112 
L 394.239246 268.725596 
L 400.945107 268.974395 
L 407.650968 269.187163 
L 414.35683 269.369462 
L 421.062691 269.525947 
L 427.768552 269.660523 
L 434.474414 269.776466 
L 441.180275 269.876536 
L 447.886136 269.963058 
L 454.591997 270.037997 
L 461.297859 270.103015 
L 468.00372 270.159519 
L 474.709581 270.208708 
L 481.415443 270.251597 
L 488.121304 270.289054 
L 494.827165 270.32182 
L 501.533027 270.350526 
" clip-path="url(#p949a94d377)" style="fill: none; stroke-dasharray: 1.5,2.475; stroke-dashoffset: 0; stroke: #d62728; stroke-width: 1.5"/>
   </g>
   <g id="patch_7">
    <path d="M 54.520313 274.94952 
L 54.520313 47.648 
" style="fill: none; stroke: #000000; stroke-width: 0.8; stroke-linejoin: miter; stroke-linecap: square"/>
   </g>
   <g id="patch_8">
    <path d="M 505.958895 274.94952 
L 505.958895 47.648 
" style="fill: none; stroke: #ff0000; stroke-width: 0.8; stroke-linejoin: miter; stroke-linecap: square"/>
   </g>
   <g id="patch_9">
    <path d="M 54.520313 274.94952 
L 505.958895 274.94952 
" style="fill: none; stroke: #000000; stroke-width: 0.8; stroke-linejoin: miter; stroke-linecap: square"/>
   </g>
  </g>
 </g>
 <defs>
  <clipPath id="p949a94d377">
   <rect x="54.520313" y="47.648" width="451.438582" height="227.30152"/>
  </clipPath>
 </defs>
</svg>