<?xml version="1.0" encoding="utf-8" standalone="no"?>
<!DOCTYPE svg PUBLIC "-//W3C//DTD SVG 1.1//EN"
  "http://www.w3.org/Graphics/SVG/1.1/DTD/svg11.dtd">
<svg xmlns:xlink="http://www.w3.org/1999/xlink" width="548.39952pt" height="312.14952pt" viewBox="0 0 548.39952 312.14952" xmlns="http://www.w3.org/2000/svg" version="1.1">
 <metadata>
  <rdf:RDF xmlns:dc="http://purl.org/dc/elements/1.1/" xmlns:cc="http://creativecommons.org/ns#" xmlns:rdf="http://www.w3.org/1999/02/22-rdf-syntax-ns#">
   <cc:Work>
    <dc:type rdf:resource="http://purl.org/dc/dcmitype/StillImage"/>
    <dc:date>2025-06-24T11:18:45.058532</dc:date>
    <dc:format>image/svg+xml</dc:format>
    <dc:creator>
     <cc:Agent>
      <dc:title>Matplotlib v3.10.1, https://matplotlib.org/</dc:title>
     </cc:Agent>
    </dc:creator>
   </cc:Work>
  </rdf:RDF>
 </metadata>
 <defs>
  <style type="text/css">*{stroke-linejoin: round; stroke-linecap: butt}</style>
 </defs>
 <g id="figure_1">
  <g id="patch_1">
   <path d="M 0 312.14952 
L 548.39952 312.14952 
L 548.39952 0 
L 0 0 
z
" style="fill: #ffffff"/>
  </g>
  <g id="axes_1">
   <g id="patch_2">
    <path d="M 33.8 274.94952 
L 505.958895 274.94952 
L 505.958895 36.576 
L 33.8 36.576 
z
" style="fill: #ffffff"/>
   </g>
   <g id="FillBetweenPolyCollection_1">
    <defs>
     <path id="md4dcd404ca" d="M 38.429009 -268.923257 
L 38.429009 -205.727324 
L 40.459276 -214.311838 
L 42.489543 -214.190467 
L 44.51981 -213.988539 
L 46.550077 -213.706585 
L 48.580344 -213.345347 
L 50.610611 -212.905768 
L 52.640878 -212.388988 
L 54.671145 -211.796339 
L 56.701412 -211.129331 
L 58.731679 -210.389649 
L 60.761946 -209.579137 
L 62.792213 -208.699791 
L 64.82248 -207.753744 
L 66.852747 -206.743257 
L 68.883014 -205.670702 
L 70.913281 -204.538552 
L 72.943548 -203.349368 
L 74.973815 -202.105782 
L 77.004082 -200.810489 
L 79.034349 -199.466229 
L 81.064616 -198.075777 
L 83.094883 -196.641931 
L 85.12515 -195.167499 
L 87.155417 -193.655285 
L 89.185684 -192.108083 
L 91.215951 -190.528666 
L 93.246218 -188.919772 
L 95.276485 -187.2841 
L 97.306752 -185.624301 
L 99.337019 -183.942967 
L 101.367286 -182.242632 
L 103.397553 -180.525757 
L 105.42782 -178.794733 
L 107.458087 -177.051871 
L 109.488354 -175.299403 
L 111.518621 -173.539475 
L 113.548888 -171.774146 
L 115.579155 -170.005387 
L 117.609422 -168.23508 
L 119.639689 -166.465016 
L 121.669956 -164.696896 
L 123.700223 -162.932331 
L 125.73049 -161.172841 
L 127.760757 -159.419859 
L 129.791024 -157.67473 
L 131.821291 -155.938716 
L 133.851558 -154.212991 
L 135.881825 -152.498652 
L 137.912092 -150.796714 
L 139.942359 -149.108117 
L 141.972626 -147.433725 
L 144.002893 -145.774333 
L 146.03316 -144.130665 
L 148.063427 -142.503382 
L 150.093694 -140.893079 
L 152.123961 -139.300292 
L 154.154228 -137.7255 
L 156.184495 -136.169127 
L 158.214762 -134.631546 
L 160.245029 -133.11308 
L 162.275296 -131.614006 
L 164.305563 -130.134558 
L 166.33583 -128.674929 
L 168.366097 -127.235271 
L 170.396364 -125.815702 
L 172.426631 -124.416306 
L 174.456898 -123.037135 
L 176.487165 -121.678212 
L 178.517432 -120.339531 
L 180.547699 -119.021061 
L 182.577966 -117.72275 
L 184.608233 -116.44452 
L 186.6385 -115.186276 
L 188.668767 -113.947904 
L 190.699034 -112.729272 
L 192.729301 -111.530233 
L 194.759568 -110.350628 
L 196.789835 -109.190281 
L 198.820102 -108.049009 
L 200.850369 -106.926615 
L 202.880636 -105.822895 
L 204.910903 -104.737637 
L 206.94117 -103.670618 
L 208.971437 -102.621614 
L 211.001704 -101.590391 
L 213.031971 -100.576712 
L 215.062238 -99.580337 
L 217.092505 -98.60102 
L 217.092505 -113.875691 
L 217.092505 -113.875691 
L 215.062238 -115.103956 
L 213.031971 -116.353615 
L 211.001704 -117.624977 
L 208.971437 -118.918343 
L 206.94117 -120.23401 
L 204.910903 -121.57227 
L 202.880636 -122.933408 
L 200.850369 -124.3177 
L 198.820102 -125.725413 
L 196.789835 -127.156803 
L 194.759568 -128.612116 
L 192.729301 -130.091585 
L 190.699034 -131.595426 
L 188.668767 -133.123841 
L 186.6385 -134.677015 
L 184.608233 -136.255111 
L 182.577966 -137.858274 
L 180.547699 -139.486624 
L 178.517432 -141.140256 
L 176.487165 -142.819238 
L 174.456898 -144.523608 
L 172.426631 -146.253372 
L 170.396364 -148.008502 
L 168.366097 -149.788933 
L 166.33583 -151.59456 
L 164.305563 -153.425237 
L 162.275296 -155.280769 
L 160.245029 -157.160916 
L 158.214762 -159.065384 
L 156.184495 -160.993828 
L 154.154228 -162.945839 
L 152.123961 -164.920952 
L 150.093694 -166.918635 
L 148.063427 -168.938287 
L 146.03316 -170.979235 
L 144.002893 -173.040732 
L 141.972626 -175.121951 
L 139.942359 -177.221983 
L 137.912092 -179.339832 
L 135.881825 -181.474412 
L 133.851558 -183.624546 
L 131.821291 -185.78896 
L 129.791024 -187.966279 
L 127.760757 -190.15503 
L 125.73049 -192.35363 
L 123.700223 -194.560392 
L 121.669956 -196.773521 
L 119.639689 -198.991107 
L 117.609422 -201.211131 
L 115.579155 -203.431461 
L 113.548888 -205.649848 
L 111.518621 -207.863934 
L 109.488354 -210.071246 
L 107.458087 -212.269202 
L 105.42782 -214.455109 
L 103.397553 -216.626169 
L 101.367286 -218.779483 
L 99.337019 -220.912054 
L 97.306752 -223.020792 
L 95.276485 -225.102522 
L 93.246218 -227.153991 
L 91.215951 -229.171875 
L 89.185684 -231.15279 
L 87.155417 -233.093299 
L 85.12515 -234.989926 
L 83.094883 -236.839168 
L 81.064616 -238.637506 
L 79.034349 -240.381418 
L 77.004082 -242.067397 
L 74.973815 -243.691961 
L 72.943548 -245.251674 
L 70.913281 -246.743156 
L 68.883014 -248.163104 
L 66.852747 -249.508309 
L 64.82248 -250.775668 
L 62.792213 -251.962205 
L 60.761946 -253.065086 
L 58.731679 -254.081635 
L 56.701412 -255.009349 
L 54.671145 -255.845914 
L 52.640878 -256.589218 
L 50.610611 -257.237366 
L 48.580344 -257.788689 
L 46.550077 -258.241756 
L 44.51981 -258.595383 
L 42.489543 -258.848643 
L 40.459276 -259.000867 
L 38.429009 -268.923257 
z
"/>
    </defs>
    <g clip-path="url(#p93652aaa15)">
     <use xlink:href="#md4dcd404ca" x="0" y="312.14952" style="fill: #2ca02c; fill-opacity: 0.3"/>
    </g>
   </g>
   <g id="matplotlib.axis_1">
    <g id="xtick_1">
     <g id="line2d_1">
      <defs>
       <path id="mdc7948e0ee" d="M 0 0 
L 0 3.5 
" style="stroke: #000000; stroke-width: 0.8"/>
      </defs>
      <g>
       <use xlink:href="#mdc7948e0ee" x="38.429009" y="274.94952" style="stroke: #000000; stroke-width: 0.8"/>
      </g>
     </g>
     <g id="text_1">
      <!-- 0 -->
      <g transform="translate(35.429009 289.34952) scale(0.1 -0.1)">
       <defs>
        <path id="IBMPlexSans-30" d="M 1920 -77 
C 2989 -77 3456 774 3456 2234 
C 3456 3693 2989 4544 1920 4544 
C 851 4544 384 3693 384 2234 
C 384 774 851 -77 1920 -77 
z
M 1920 390 
C 1222 390 947 1005 947 1869 
L 947 2598 
C 947 3462 1222 4077 1920 4077 
C 2618 4077 2893 3462 2893 2598 
L 2893 1869 
C 2893 1005 2618 390 1920 390 
z
" transform="scale(0.015625)"/>
       </defs>
       <use xlink:href="#IBMPlexSans-30"/>
      </g>
     </g>
    </g>
    <g id="xtick_2">
     <g id="line2d_2">
      <g>
       <use xlink:href="#mdc7948e0ee" x="111.518621" y="274.94952" style="stroke: #000000; stroke-width: 0.8"/>
      </g>
     </g>
     <g id="text_2">
      <!-- 1 -->
      <g transform="translate(108.518621 289.34952) scale(0.1 -0.1)">
       <defs>
        <path id="IBMPlexSans-31" d="M 3501 0 
L 3501 474 
L 2349 474 
L 2349 4467 
L 1510 4467 
L 326 3360 
L 640 3021 
L 1766 4070 
L 1811 4070 
L 1811 474 
L 563 474 
L 563 0 
L 3501 0 
z
" transform="scale(0.015625)"/>
       </defs>
       <use xlink:href="#IBMPlexSans-31"/>
      </g>
     </g>
    </g>
    <g id="xtick_3">
     <g id="line2d_3">
      <g>
       <use xlink:href="#mdc7948e0ee" x="184.608233" y="274.94952" style="stroke: #000000; stroke-width: 0.8"/>
      </g>
     </g>
     <g id="text_3">
      <!-- 2 -->
      <g transform="translate(181.608233 289.34952) scale(0.1 -0.1)">
       <defs>
        <path id="IBMPlexSans-32" d="M 3411 474 
L 1062 474 
L 2266 1555 
C 2835 2067 3245 2554 3245 3245 
C 3245 4006 2746 4544 1875 4544 
C 1011 4544 614 4019 442 3494 
L 922 3309 
C 1043 3731 1299 4064 1850 4064 
C 2400 4064 2675 3725 2675 3232 
L 2675 3155 
C 2675 2726 2355 2278 1939 1894 
L 480 550 
L 480 0 
L 3411 0 
L 3411 474 
z
" transform="scale(0.015625)"/>
       </defs>
       <use xlink:href="#IBMPlexSans-32"/>
      </g>
     </g>
    </g>
    <g id="xtick_4">
     <g id="line2d_4">
      <g>
       <use xlink:href="#mdc7948e0ee" x="257.697845" y="274.94952" style="stroke: #000000; stroke-width: 0.8"/>
      </g>
     </g>
     <g id="text_4">
      <!-- 3 -->
      <g transform="translate(254.697845 289.34952) scale(0.1 -0.1)">
       <defs>
        <path id="IBMPlexSans-33" d="M 1184 2573 
L 1184 2106 
L 1709 2106 
C 2336 2106 2669 1805 2669 1280 
L 2669 1229 
C 2669 704 2336 403 1709 403 
C 1165 403 902 640 672 992 
L 269 685 
C 544 301 941 -77 1715 -77 
C 2624 -77 3232 454 3232 1222 
C 3232 1894 2771 2253 2291 2349 
L 2291 2374 
C 2765 2496 3149 2842 3149 3418 
C 3149 4141 2547 4544 1792 4544 
C 1075 4544 685 4173 461 3814 
L 858 3507 
C 1043 3846 1318 4064 1779 4064 
C 2253 4064 2579 3827 2579 3360 
L 2579 3315 
C 2579 2886 2272 2573 1670 2573 
L 1184 2573 
z
" transform="scale(0.015625)"/>
       </defs>
       <use xlink:href="#IBMPlexSans-33"/>
      </g>
     </g>
    </g>
    <g id="xtick_5">
     <g id="line2d_5">
      <g>
       <use xlink:href="#mdc7948e0ee" x="330.787458" y="274.94952" style="stroke: #000000; stroke-width: 0.8"/>
      </g>
     </g>
     <g id="text_5">
      <!-- 4 -->
      <g transform="translate(327.787458 289.34952) scale(0.1 -0.1)">
       <defs>
        <path id="IBMPlexSans-34" d="M 2912 0 
L 2912 877 
L 3558 877 
L 3558 1325 
L 2912 1325 
L 2912 4467 
L 2112 4467 
L 243 1350 
L 243 877 
L 2400 877 
L 2400 0 
L 2912 0 
z
M 2368 4051 
L 2400 4051 
L 2400 1325 
L 749 1325 
L 2368 4051 
z
" transform="scale(0.015625)"/>
       </defs>
       <use xlink:href="#IBMPlexSans-34"/>
      </g>
     </g>
    </g>
    <g id="xtick_6">
     <g id="line2d_6">
      <g>
       <use xlink:href="#mdc7948e0ee" x="403.87707" y="274.94952" style="stroke: #000000; stroke-width: 0.8"/>
      </g>
     </g>
     <g id="text_6">
      <!-- 5 -->
      <g transform="translate(400.87707 289.34952) scale(0.1 -0.1)">
       <defs>
        <path id="IBMPlexSans-35" d="M 3187 4467 
L 794 4467 
L 634 2010 
L 1088 1946 
C 1274 2150 1478 2323 1888 2323 
C 2496 2323 2822 1984 2822 1395 
L 2822 1331 
C 2822 742 2496 403 1888 403 
C 1350 403 1126 640 896 992 
L 493 685 
C 762 301 1146 -77 1888 -77 
C 2829 -77 3392 531 3392 1402 
C 3392 2266 2829 2784 2061 2784 
C 1594 2784 1357 2592 1146 2291 
L 1101 2291 
L 1229 3994 
L 3187 3994 
L 3187 4467 
z
" transform="scale(0.015625)"/>
       </defs>
       <use xlink:href="#IBMPlexSans-35"/>
      </g>
     </g>
    </g>
    <g id="xtick_7">
     <g id="line2d_7">
      <g>
       <use xlink:href="#mdc7948e0ee" x="476.966682" y="274.94952" style="stroke: #000000; stroke-width: 0.8"/>
      </g>
     </g>
     <g id="text_7">
      <!-- 6 -->
      <g transform="translate(473.966682 289.34952) scale(0.1 -0.1)">
       <defs>
        <path id="IBMPlexSans-36" d="M 1926 -77 
C 2822 -77 3411 525 3411 1402 
C 3411 2246 2861 2778 2093 2778 
C 1549 2778 1229 2502 1018 2138 
L 986 2150 
C 1229 3187 1760 3770 2714 4467 
L 2022 4467 
C 1306 4000 429 2963 429 1638 
C 429 576 998 -77 1926 -77 
z
M 1920 390 
C 1331 390 986 730 986 1331 
L 986 1382 
C 986 1984 1331 2323 1920 2323 
C 2509 2323 2854 1984 2854 1382 
L 2854 1331 
C 2854 730 2509 390 1920 390 
z
" transform="scale(0.015625)"/>
       </defs>
       <use xlink:href="#IBMPlexSans-36"/>
      </g>
     </g>
    </g>
    <g id="text_8">
     <!-- Frequency [1/τ*] -->
     <g transform="translate(232.26851 302.94952) scale(0.1 -0.1)">
      <defs>
       <path id="IBMPlexSans-46" d="M 1133 0 
L 1133 2022 
L 3072 2022 
L 3072 2496 
L 1133 2496 
L 1133 3994 
L 3258 3994 
L 3258 4467 
L 595 4467 
L 595 0 
L 1133 0 
z
" transform="scale(0.015625)"/>
       <path id="IBMPlexSans-72" d="M 1056 0 
L 1056 2240 
C 1056 2554 1389 2790 1939 2790 
L 2240 2790 
L 2240 3302 
L 2042 3302 
C 1504 3302 1203 3008 1088 2694 
L 1056 2694 
L 1056 3302 
L 544 3302 
L 544 0 
L 1056 0 
z
" transform="scale(0.015625)"/>
       <path id="IBMPlexSans-65" d="M 1786 -77 
C 2406 -77 2880 230 3091 678 
L 2726 941 
C 2554 576 2234 371 1818 371 
C 1203 371 838 800 838 1370 
L 838 1523 
L 3213 1523 
L 3213 1766 
C 3213 2701 2669 3379 1786 3379 
C 890 3379 301 2701 301 1651 
C 301 602 890 -77 1786 -77 
z
M 1786 2950 
C 2310 2950 2662 2560 2662 1978 
L 2662 1907 
L 838 1907 
L 838 1952 
C 838 2528 1229 2950 1786 2950 
z
" transform="scale(0.015625)"/>
       <path id="IBMPlexSans-71" d="M 2656 -1280 
L 3168 -1280 
L 3168 3302 
L 2656 3302 
L 2656 2765 
L 2630 2765 
C 2458 3181 2118 3379 1664 3379 
C 838 3379 320 2707 320 1651 
C 320 595 838 -77 1664 -77 
C 2118 -77 2432 128 2630 538 
L 2656 538 
L 2656 -1280 
z
M 1805 384 
C 1229 384 870 781 870 1370 
L 870 1933 
C 870 2522 1229 2918 1805 2918 
C 2272 2918 2656 2650 2656 2285 
L 2656 1056 
C 2656 627 2272 384 1805 384 
z
" transform="scale(0.015625)"/>
       <path id="IBMPlexSans-75" d="M 2579 0 
L 3091 0 
L 3091 3302 
L 2579 3302 
L 2579 1018 
C 2579 582 2182 384 1779 384 
C 1286 384 1024 685 1024 1274 
L 1024 3302 
L 512 3302 
L 512 1184 
C 512 384 947 -77 1626 -77 
C 2176 -77 2426 224 2554 538 
L 2579 538 
L 2579 0 
z
" transform="scale(0.015625)"/>
       <path id="IBMPlexSans-6e" d="M 1056 0 
L 1056 2291 
C 1056 2714 1453 2918 1862 2918 
C 2355 2918 2611 2618 2611 2029 
L 2611 0 
L 3123 0 
L 3123 2118 
C 3123 2918 2694 3379 2016 3379 
C 1523 3379 1242 3136 1082 2765 
L 1056 2765 
L 1056 3302 
L 544 3302 
L 544 0 
L 1056 0 
z
" transform="scale(0.015625)"/>
       <path id="IBMPlexSans-63" d="M 1773 -77 
C 2400 -77 2829 230 3040 704 
L 2669 954 
C 2490 576 2189 378 1773 378 
C 1165 378 851 794 851 1370 
L 851 1933 
C 851 2509 1165 2925 1773 2925 
C 2176 2925 2458 2726 2579 2387 
L 3008 2605 
C 2816 3059 2426 3379 1773 3379 
C 845 3379 301 2707 301 1651 
C 301 595 845 -77 1773 -77 
z
" transform="scale(0.015625)"/>
       <path id="IBMPlexSans-79" d="M 1779 1056 
L 1600 518 
L 1568 518 
L 1414 1056 
L 621 3302 
L 109 3302 
L 1344 -128 
L 1094 -832 
L 576 -832 
L 576 -1280 
L 838 -1280 
C 1325 -1280 1459 -1165 1606 -768 
L 3085 3302 
L 2579 3302 
L 1779 1056 
z
" transform="scale(0.015625)"/>
       <path id="IBMPlexSans-20" transform="scale(0.015625)"/>
       <path id="IBMPlexSans-5b" d="M 1645 -883 
L 1645 -480 
L 1037 -480 
L 1037 4461 
L 1645 4461 
L 1645 4864 
L 595 4864 
L 595 -883 
L 1645 -883 
z
" transform="scale(0.015625)"/>
       <path id="IBMPlexSans-2f" d="M 518 -966 
L 2189 4736 
L 1728 4736 
L 58 -966 
L 518 -966 
z
" transform="scale(0.015625)"/>
       <path id="IBMPlexSans-3c4" d="M 2451 0 
L 2451 448 
L 1715 448 
L 1715 2854 
L 2848 2854 
L 2848 3302 
L 128 3302 
L 128 2854 
L 1203 2854 
L 1203 544 
C 1203 224 1395 0 1747 0 
L 2451 0 
z
" transform="scale(0.015625)"/>
       <path id="IBMPlexSans-2a" d="M 1440 3270 
L 1965 2483 
L 2323 2746 
L 1741 3488 
L 2650 3738 
L 2509 4166 
L 1626 3840 
L 1664 4781 
L 1216 4781 
L 1254 3840 
L 371 4166 
L 230 3738 
L 1139 3488 
L 557 2746 
L 915 2483 
L 1440 3270 
z
" transform="scale(0.015625)"/>
       <path id="IBMPlexSans-5d" d="M 384 4864 
L 384 4461 
L 992 4461 
L 992 -480 
L 384 -480 
L 384 -883 
L 1434 -883 
L 1434 4864 
L 384 4864 
z
" transform="scale(0.015625)"/>
      </defs>
      <use xlink:href="#IBMPlexSans-46"/>
      <use xlink:href="#IBMPlexSans-72" transform="translate(55.899994 0)"/>
      <use xlink:href="#IBMPlexSans-65" transform="translate(92.599991 0)"/>
      <use xlink:href="#IBMPlexSans-71" transform="translate(147.499985 0)"/>
      <use xlink:href="#IBMPlexSans-75" transform="translate(205.499969 0)"/>
      <use xlink:href="#IBMPlexSans-65" transform="translate(262.299957 0)"/>
      <use xlink:href="#IBMPlexSans-6e" transform="translate(317.199951 0)"/>
      <use xlink:href="#IBMPlexSans-63" transform="translate(373.999939 0)"/>
      <use xlink:href="#IBMPlexSans-79" transform="translate(424.299927 0)"/>
      <use xlink:href="#IBMPlexSans-20" transform="translate(474.199921 0)"/>
      <use xlink:href="#IBMPlexSans-5b" transform="translate(497.799911 0)"/>
      <use xlink:href="#IBMPlexSans-31" transform="translate(529.499908 0)"/>
      <use xlink:href="#IBMPlexSans-2f" transform="translate(589.499893 0)"/>
      <use xlink:href="#IBMPlexSans-3c4" transform="translate(627.799881 0)"/>
      <use xlink:href="#IBMPlexSans-2a" transform="translate(675.499878 0)"/>
      <use xlink:href="#IBMPlexSans-5d" transform="translate(720.499863 0)"/>
     </g>
    </g>
   </g>
   <g id="matplotlib.axis_2">
    <g id="ytick_1">
     <g id="line2d_8">
      <defs>
       <path id="mb6396d738b" d="M 0 0 
L -3.5 0 
" style="stroke: #000000; stroke-width: 0.8"/>
      </defs>
      <g>
       <use xlink:href="#mb6396d738b" x="33.8" y="273.636318" style="stroke: #000000; stroke-width: 0.8"/>
      </g>
     </g>
     <g id="text_9">
      <!-- 0 -->
      <g transform="translate(20.8 277.336318) scale(0.1 -0.1)">
       <use xlink:href="#IBMPlexSans-30"/>
      </g>
     </g>
    </g>
    <g id="ytick_2">
     <g id="line2d_9">
      <g>
       <use xlink:href="#mb6396d738b" x="33.8" y="244.738744" style="stroke: #000000; stroke-width: 0.8"/>
      </g>
     </g>
     <g id="text_10">
      <!-- 1 -->
      <g transform="translate(20.8 248.438744) scale(0.1 -0.1)">
       <use xlink:href="#IBMPlexSans-31"/>
      </g>
     </g>
    </g>
    <g id="ytick_3">
     <g id="line2d_10">
      <g>
       <use xlink:href="#mb6396d738b" x="33.8" y="215.841169" style="stroke: #000000; stroke-width: 0.8"/>
      </g>
     </g>
     <g id="text_11">
      <!-- 2 -->
      <g transform="translate(20.8 219.541169) scale(0.1 -0.1)">
       <use xlink:href="#IBMPlexSans-32"/>
      </g>
     </g>
    </g>
    <g id="ytick_4">
     <g id="line2d_11">
      <g>
       <use xlink:href="#mb6396d738b" x="33.8" y="186.943595" style="stroke: #000000; stroke-width: 0.8"/>
      </g>
     </g>
     <g id="text_12">
      <!-- 3 -->
      <g transform="translate(20.8 190.643595) scale(0.1 -0.1)">
       <use xlink:href="#IBMPlexSans-33"/>
      </g>
     </g>
    </g>
    <g id="ytick_5">
     <g id="line2d_12">
      <g>
       <use xlink:href="#mb6396d738b" x="33.8" y="158.046021" style="stroke: #000000; stroke-width: 0.8"/>
      </g>
     </g>
     <g id="text_13">
      <!-- 4 -->
      <g transform="translate(20.8 161.746021) scale(0.1 -0.1)">
       <use xlink:href="#IBMPlexSans-34"/>
      </g>
     </g>
    </g>
    <g id="ytick_6">
     <g id="line2d_13">
      <g>
       <use xlink:href="#mb6396d738b" x="33.8" y="129.148446" style="stroke: #000000; stroke-width: 0.8"/>
      </g>
     </g>
     <g id="text_14">
      <!-- 5 -->
      <g transform="translate(20.8 132.848446) scale(0.1 -0.1)">
       <use xlink:href="#IBMPlexSans-35"/>
      </g>
     </g>
    </g>
    <g id="ytick_7">
     <g id="line2d_14">
      <g>
       <use xlink:href="#mb6396d738b" x="33.8" y="100.250872" style="stroke: #000000; stroke-width: 0.8"/>
      </g>
     </g>
     <g id="text_15">
      <!-- 6 -->
      <g transform="translate(20.8 103.950872) scale(0.1 -0.1)">
       <use xlink:href="#IBMPlexSans-36"/>
      </g>
     </g>
    </g>
    <g id="ytick_8">
     <g id="line2d_15">
      <g>
       <use xlink:href="#mb6396d738b" x="33.8" y="71.353298" style="stroke: #000000; stroke-width: 0.8"/>
      </g>
     </g>
     <g id="text_16">
      <!-- 7 -->
      <g transform="translate(20.8 75.053298) scale(0.1 -0.1)">
       <defs>
        <path id="IBMPlexSans-37" d="M 1696 0 
L 3373 3994 
L 3373 4467 
L 442 4467 
L 442 3174 
L 922 3174 
L 922 4006 
L 2829 4006 
L 1120 0 
L 1696 0 
z
" transform="scale(0.015625)"/>
       </defs>
       <use xlink:href="#IBMPlexSans-37"/>
      </g>
     </g>
    </g>
    <g id="ytick_9">
     <g id="line2d_16">
      <g>
       <use xlink:href="#mb6396d738b" x="33.8" y="42.455723" style="stroke: #000000; stroke-width: 0.8"/>
      </g>
     </g>
     <g id="text_17">
      <!-- 8 -->
      <g transform="translate(20.8 46.155723) scale(0.1 -0.1)">
       <defs>
        <path id="IBMPlexSans-38" d="M 1920 -77 
C 2938 -77 3469 480 3469 1216 
C 3469 1824 3104 2176 2566 2323 
L 2566 2374 
C 3034 2534 3334 2912 3334 3424 
C 3334 4102 2810 4544 1920 4544 
C 1030 4544 506 4102 506 3424 
C 506 2912 806 2534 1274 2374 
L 1274 2323 
C 736 2176 371 1824 371 1216 
C 371 480 902 -77 1920 -77 
z
M 1920 390 
C 1299 390 941 685 941 1190 
L 941 1325 
C 941 1830 1299 2125 1920 2125 
C 2541 2125 2899 1830 2899 1325 
L 2899 1190 
C 2899 685 2541 390 1920 390 
z
M 1920 2573 
C 1363 2573 1062 2822 1062 3277 
L 1062 3373 
C 1062 3827 1363 4077 1920 4077 
C 2477 4077 2778 3827 2778 3373 
L 2778 3277 
C 2778 2822 2477 2573 1920 2573 
z
" transform="scale(0.015625)"/>
       </defs>
       <use xlink:href="#IBMPlexSans-38"/>
      </g>
     </g>
    </g>
    <g id="text_18">
     <!-- Amplitude [κ*] -->
     <g transform="translate(14.8 188.317447) rotate(-90) scale(0.1 -0.1)">
      <defs>
       <path id="IBMPlexSans-41" d="M 3955 0 
L 2394 4467 
L 1709 4467 
L 147 0 
L 691 0 
L 1139 1318 
L 2944 1318 
L 3392 0 
L 3955 0 
z
M 2810 1792 
L 1267 1792 
L 2022 3968 
L 2054 3968 
L 2810 1792 
z
" transform="scale(0.015625)"/>
       <path id="IBMPlexSans-6d" d="M 1056 0 
L 1056 2291 
C 1056 2714 1440 2918 1843 2918 
C 2330 2918 2554 2618 2554 2029 
L 2554 0 
L 3066 0 
L 3066 2291 
C 3066 2714 3437 2918 3840 2918 
C 4339 2918 4563 2611 4563 2029 
L 4563 0 
L 5075 0 
L 5075 2118 
C 5075 2918 4672 3379 4000 3379 
C 3437 3379 3117 3066 2995 2707 
L 2982 2707 
C 2803 3181 2406 3379 1971 3379 
C 1459 3379 1229 3104 1082 2765 
L 1056 2765 
L 1056 3302 
L 544 3302 
L 544 0 
L 1056 0 
z
" transform="scale(0.015625)"/>
       <path id="IBMPlexSans-70" d="M 544 -1280 
L 1056 -1280 
L 1056 538 
L 1082 538 
C 1280 128 1594 -77 2048 -77 
C 2874 -77 3392 595 3392 1651 
C 3392 2707 2874 3379 2048 3379 
C 1594 3379 1254 3181 1082 2765 
L 1056 2765 
L 1056 3302 
L 544 3302 
L 544 -1280 
z
M 1907 384 
C 1440 384 1056 627 1056 1056 
L 1056 2285 
C 1056 2650 1440 2918 1907 2918 
C 2483 2918 2842 2522 2842 1933 
L 2842 1370 
C 2842 781 2483 384 1907 384 
z
" transform="scale(0.015625)"/>
       <path id="IBMPlexSans-6c" d="M 1542 0 
L 1542 448 
L 1056 448 
L 1056 4736 
L 544 4736 
L 544 531 
C 544 224 736 0 1088 0 
L 1542 0 
z
" transform="scale(0.015625)"/>
       <path id="IBMPlexSans-69" d="M 800 4077 
C 1018 4077 1114 4192 1114 4365 
L 1114 4448 
C 1114 4621 1018 4736 800 4736 
C 582 4736 486 4621 486 4448 
L 486 4365 
C 486 4192 582 4077 800 4077 
z
M 544 0 
L 1056 0 
L 1056 3302 
L 544 3302 
L 544 0 
z
" transform="scale(0.015625)"/>
       <path id="IBMPlexSans-74" d="M 1914 0 
L 1914 448 
L 1242 448 
L 1242 2854 
L 1965 2854 
L 1965 3302 
L 1242 3302 
L 1242 4218 
L 781 4218 
L 781 3603 
C 781 3379 710 3302 493 3302 
L 186 3302 
L 186 2854 
L 730 2854 
L 730 544 
C 730 224 922 0 1274 0 
L 1914 0 
z
" transform="scale(0.015625)"/>
       <path id="IBMPlexSans-64" d="M 2656 0 
L 3168 0 
L 3168 4736 
L 2656 4736 
L 2656 2765 
L 2630 2765 
C 2458 3181 2118 3379 1664 3379 
C 838 3379 320 2707 320 1651 
C 320 595 838 -77 1664 -77 
C 2118 -77 2432 128 2630 538 
L 2656 538 
L 2656 0 
z
M 1805 384 
C 1229 384 870 781 870 1370 
L 870 1933 
C 870 2522 1229 2918 1805 2918 
C 2272 2918 2656 2650 2656 2285 
L 2656 1056 
C 2656 627 2272 384 1805 384 
z
" transform="scale(0.015625)"/>
       <path id="IBMPlexSans-3ba" d="M 2643 0 
L 3264 0 
L 1850 1894 
L 2739 2854 
L 3117 2854 
L 3117 3302 
L 2803 3302 
C 2624 3302 2509 3258 2381 3117 
L 1402 2061 
L 1082 1683 
L 1056 1683 
L 1056 3302 
L 544 3302 
L 544 0 
L 1056 0 
L 1056 1114 
L 1485 1574 
L 2643 0 
z
" transform="scale(0.015625)"/>
      </defs>
      <use xlink:href="#IBMPlexSans-41"/>
      <use xlink:href="#IBMPlexSans-6d" transform="translate(64.099991 0)"/>
      <use xlink:href="#IBMPlexSans-70" transform="translate(151.399979 0)"/>
      <use xlink:href="#IBMPlexSans-6c" transform="translate(209.399963 0)"/>
      <use xlink:href="#IBMPlexSans-69" transform="translate(236.59996 0)"/>
      <use xlink:href="#IBMPlexSans-74" transform="translate(261.599945 0)"/>
      <use xlink:href="#IBMPlexSans-75" transform="translate(296.699936 0)"/>
      <use xlink:href="#IBMPlexSans-64" transform="translate(353.499924 0)"/>
      <use xlink:href="#IBMPlexSans-65" transform="translate(411.499908 0)"/>
      <use xlink:href="#IBMPlexSans-20" transform="translate(466.399902 0)"/>
      <use xlink:href="#IBMPlexSans-5b" transform="translate(489.999893 0)"/>
      <use xlink:href="#IBMPlexSans-3ba" transform="translate(521.69989 0)"/>
      <use xlink:href="#IBMPlexSans-2a" transform="translate(574.399887 0)"/>
      <use xlink:href="#IBMPlexSans-5d" transform="translate(619.399872 0)"/>
     </g>
    </g>
   </g>
   <g id="line2d_17">
    <defs>
     <path id="m29648e0f6a" d="M 0 1.5 
C 0.397805 1.5 0.77937 1.341951 1.06066 1.06066 
C 1.341951 0.77937 1.5 0.397805 1.5 0 
C 1.5 -0.397805 1.341951 -0.77937 1.06066 -1.06066 
C 0.77937 -1.341951 0.397805 -1.5 0 -1.5 
C -0.397805 -1.5 -0.77937 -1.341951 -1.06066 -1.06066 
C -1.341951 -0.77937 -1.5 -0.397805 -1.5 0 
C -1.5 0.397805 -1.341951 0.77937 -1.06066 1.06066 
C -0.77937 1.341951 -0.397805 1.5 0 1.5 
z
"/>
    </defs>
    <g clip-path="url(#p93652aaa15)">
     <use xlink:href="#m29648e0f6a" x="38.429009" y="82.209752" style="fill: #1f77b4"/>
     <use xlink:href="#m29648e0f6a" x="40.459276" y="84.342444" style="fill: #1f77b4"/>
     <use xlink:href="#m29648e0f6a" x="42.489543" y="58.126938" style="fill: #1f77b4"/>
     <use xlink:href="#m29648e0f6a" x="44.51981" y="80.517216" style="fill: #1f77b4"/>
     <use xlink:href="#m29648e0f6a" x="46.550077" y="68.686431" style="fill: #1f77b4"/>
     <use xlink:href="#m29648e0f6a" x="48.580344" y="66.445277" style="fill: #1f77b4"/>
     <use xlink:href="#m29648e0f6a" x="50.610611" y="64.224611" style="fill: #1f77b4"/>
     <use xlink:href="#m29648e0f6a" x="52.640878" y="79.458401" style="fill: #1f77b4"/>
     <use xlink:href="#m29648e0f6a" x="54.671145" y="77.75384" style="fill: #1f77b4"/>
     <use xlink:href="#m29648e0f6a" x="56.701412" y="91.594096" style="fill: #1f77b4"/>
     <use xlink:href="#m29648e0f6a" x="58.731679" y="72.311069" style="fill: #1f77b4"/>
     <use xlink:href="#m29648e0f6a" x="60.761946" y="99.978969" style="fill: #1f77b4"/>
     <use xlink:href="#m29648e0f6a" x="62.792213" y="83.549451" style="fill: #1f77b4"/>
     <use xlink:href="#m29648e0f6a" x="64.82248" y="67.374249" style="fill: #1f77b4"/>
     <use xlink:href="#m29648e0f6a" x="66.852747" y="106.878425" style="fill: #1f77b4"/>
     <use xlink:href="#m29648e0f6a" x="68.883014" y="81.12756" style="fill: #1f77b4"/>
     <use xlink:href="#m29648e0f6a" x="70.913281" y="76.873171" style="fill: #1f77b4"/>
     <use xlink:href="#m29648e0f6a" x="72.943548" y="98.725059" style="fill: #1f77b4"/>
     <use xlink:href="#m29648e0f6a" x="74.973815" y="105.962508" style="fill: #1f77b4"/>
     <use xlink:href="#m29648e0f6a" x="77.004082" y="93.286092" style="fill: #1f77b4"/>
     <use xlink:href="#m29648e0f6a" x="79.034349" y="90.527665" style="fill: #1f77b4"/>
     <use xlink:href="#m29648e0f6a" x="81.064616" y="99.835159" style="fill: #1f77b4"/>
     <use xlink:href="#m29648e0f6a" x="83.094883" y="83.422783" style="fill: #1f77b4"/>
     <use xlink:href="#m29648e0f6a" x="85.12515" y="96.151576" style="fill: #1f77b4"/>
     <use xlink:href="#m29648e0f6a" x="87.155417" y="126.209031" style="fill: #1f77b4"/>
     <use xlink:href="#m29648e0f6a" x="89.185684" y="108.861417" style="fill: #1f77b4"/>
     <use xlink:href="#m29648e0f6a" x="91.215951" y="97.546585" style="fill: #1f77b4"/>
     <use xlink:href="#m29648e0f6a" x="93.246218" y="102.823195" style="fill: #1f77b4"/>
     <use xlink:href="#m29648e0f6a" x="95.276485" y="122.662188" style="fill: #1f77b4"/>
     <use xlink:href="#m29648e0f6a" x="97.306752" y="120.80662" style="fill: #1f77b4"/>
     <use xlink:href="#m29648e0f6a" x="99.337019" y="109.592793" style="fill: #1f77b4"/>
     <use xlink:href="#m29648e0f6a" x="101.367286" y="90.710879" style="fill: #1f77b4"/>
     <use xlink:href="#m29648e0f6a" x="103.397553" y="121.747161" style="fill: #1f77b4"/>
     <use xlink:href="#m29648e0f6a" x="105.42782" y="115.875581" style="fill: #1f77b4"/>
     <use xlink:href="#m29648e0f6a" x="107.458087" y="120.235596" style="fill: #1f77b4"/>
     <use xlink:href="#m29648e0f6a" x="109.488354" y="114.199024" style="fill: #1f77b4"/>
     <use xlink:href="#m29648e0f6a" x="111.518621" y="118.547297" style="fill: #1f77b4"/>
     <use xlink:href="#m29648e0f6a" x="113.548888" y="124.221927" style="fill: #1f77b4"/>
     <use xlink:href="#m29648e0f6a" x="115.579155" y="117.437027" style="fill: #1f77b4"/>
     <use xlink:href="#m29648e0f6a" x="117.609422" y="111.819853" style="fill: #1f77b4"/>
     <use xlink:href="#m29648e0f6a" x="119.639689" y="125.901041" style="fill: #1f77b4"/>
     <use xlink:href="#m29648e0f6a" x="121.669956" y="124.998488" style="fill: #1f77b4"/>
     <use xlink:href="#m29648e0f6a" x="123.700223" y="140.385698" style="fill: #1f77b4"/>
     <use xlink:href="#m29648e0f6a" x="125.73049" y="144.136331" style="fill: #1f77b4"/>
     <use xlink:href="#m29648e0f6a" x="127.760757" y="131.855932" style="fill: #1f77b4"/>
     <use xlink:href="#m29648e0f6a" x="129.791024" y="128.858391" style="fill: #1f77b4"/>
     <use xlink:href="#m29648e0f6a" x="131.821291" y="160.588106" style="fill: #1f77b4"/>
     <use xlink:href="#m29648e0f6a" x="133.851558" y="136.749109" style="fill: #1f77b4"/>
     <use xlink:href="#m29648e0f6a" x="135.881825" y="135.656525" style="fill: #1f77b4"/>
     <use xlink:href="#m29648e0f6a" x="137.912092" y="142.502029" style="fill: #1f77b4"/>
     <use xlink:href="#m29648e0f6a" x="139.942359" y="140.520837" style="fill: #1f77b4"/>
     <use xlink:href="#m29648e0f6a" x="141.972626" y="155.051838" style="fill: #1f77b4"/>
     <use xlink:href="#m29648e0f6a" x="144.002893" y="156.97202" style="fill: #1f77b4"/>
     <use xlink:href="#m29648e0f6a" x="146.03316" y="144.029538" style="fill: #1f77b4"/>
     <use xlink:href="#m29648e0f6a" x="148.063427" y="167.824465" style="fill: #1f77b4"/>
     <use xlink:href="#m29648e0f6a" x="150.093694" y="158.603345" style="fill: #1f77b4"/>
     <use xlink:href="#m29648e0f6a" x="152.123961" y="164.177382" style="fill: #1f77b4"/>
     <use xlink:href="#m29648e0f6a" x="154.154228" y="165.02874" style="fill: #1f77b4"/>
     <use xlink:href="#m29648e0f6a" x="156.184495" y="171.733294" style="fill: #1f77b4"/>
     <use xlink:href="#m29648e0f6a" x="158.214762" y="161.108181" style="fill: #1f77b4"/>
     <use xlink:href="#m29648e0f6a" x="160.245029" y="169.546605" style="fill: #1f77b4"/>
     <use xlink:href="#m29648e0f6a" x="162.275296" y="176.751869" style="fill: #1f77b4"/>
     <use xlink:href="#m29648e0f6a" x="164.305563" y="172.930212" style="fill: #1f77b4"/>
     <use xlink:href="#m29648e0f6a" x="166.33583" y="167.944881" style="fill: #1f77b4"/>
     <use xlink:href="#m29648e0f6a" x="168.366097" y="175.524885" style="fill: #1f77b4"/>
     <use xlink:href="#m29648e0f6a" x="170.396364" y="179.166003" style="fill: #1f77b4"/>
     <use xlink:href="#m29648e0f6a" x="172.426631" y="175.856352" style="fill: #1f77b4"/>
     <use xlink:href="#m29648e0f6a" x="174.456898" y="181.682922" style="fill: #1f77b4"/>
     <use xlink:href="#m29648e0f6a" x="176.487165" y="178.421484" style="fill: #1f77b4"/>
     <use xlink:href="#m29648e0f6a" x="178.517432" y="178.918453" style="fill: #1f77b4"/>
     <use xlink:href="#m29648e0f6a" x="180.547699" y="177.186992" style="fill: #1f77b4"/>
     <use xlink:href="#m29648e0f6a" x="182.577966" y="178.79868" style="fill: #1f77b4"/>
     <use xlink:href="#m29648e0f6a" x="184.608233" y="179.502063" style="fill: #1f77b4"/>
     <use xlink:href="#m29648e0f6a" x="186.6385" y="176.646674" style="fill: #1f77b4"/>
     <use xlink:href="#m29648e0f6a" x="188.668767" y="192.421859" style="fill: #1f77b4"/>
     <use xlink:href="#m29648e0f6a" x="190.699034" y="191.479258" style="fill: #1f77b4"/>
     <use xlink:href="#m29648e0f6a" x="192.729301" y="193.287492" style="fill: #1f77b4"/>
     <use xlink:href="#m29648e0f6a" x="194.759568" y="192.353625" style="fill: #1f77b4"/>
     <use xlink:href="#m29648e0f6a" x="196.789835" y="200.248512" style="fill: #1f77b4"/>
     <use xlink:href="#m29648e0f6a" x="198.820102" y="198.531415" style="fill: #1f77b4"/>
     <use xlink:href="#m29648e0f6a" x="200.850369" y="194.429006" style="fill: #1f77b4"/>
     <use xlink:href="#m29648e0f6a" x="202.880636" y="195.281787" style="fill: #1f77b4"/>
     <use xlink:href="#m29648e0f6a" x="204.910903" y="197.59042" style="fill: #1f77b4"/>
     <use xlink:href="#m29648e0f6a" x="206.94117" y="198.672691" style="fill: #1f77b4"/>
     <use xlink:href="#m29648e0f6a" x="208.971437" y="197.207269" style="fill: #1f77b4"/>
     <use xlink:href="#m29648e0f6a" x="211.001704" y="203.806118" style="fill: #1f77b4"/>
     <use xlink:href="#m29648e0f6a" x="213.031971" y="209.188073" style="fill: #1f77b4"/>
     <use xlink:href="#m29648e0f6a" x="215.062238" y="201.072528" style="fill: #1f77b4"/>
     <use xlink:href="#m29648e0f6a" x="217.092505" y="206.662648" style="fill: #1f77b4"/>
     <use xlink:href="#m29648e0f6a" x="219.122772" y="207.514073" style="fill: #1f77b4"/>
     <use xlink:href="#m29648e0f6a" x="221.153039" y="210.617442" style="fill: #1f77b4"/>
     <use xlink:href="#m29648e0f6a" x="223.183306" y="209.350444" style="fill: #1f77b4"/>
     <use xlink:href="#m29648e0f6a" x="225.213573" y="210.448789" style="fill: #1f77b4"/>
     <use xlink:href="#m29648e0f6a" x="227.24384" y="213.254038" style="fill: #1f77b4"/>
     <use xlink:href="#m29648e0f6a" x="229.274107" y="214.09276" style="fill: #1f77b4"/>
     <use xlink:href="#m29648e0f6a" x="231.304374" y="206.533703" style="fill: #1f77b4"/>
     <use xlink:href="#m29648e0f6a" x="233.334641" y="222.814123" style="fill: #1f77b4"/>
     <use xlink:href="#m29648e0f6a" x="235.364908" y="216.484619" style="fill: #1f77b4"/>
     <use xlink:href="#m29648e0f6a" x="237.395175" y="216.517327" style="fill: #1f77b4"/>
     <use xlink:href="#m29648e0f6a" x="239.425442" y="218.711301" style="fill: #1f77b4"/>
     <use xlink:href="#m29648e0f6a" x="241.455709" y="223.526664" style="fill: #1f77b4"/>
     <use xlink:href="#m29648e0f6a" x="243.485976" y="220.794995" style="fill: #1f77b4"/>
     <use xlink:href="#m29648e0f6a" x="245.516243" y="218.909498" style="fill: #1f77b4"/>
     <use xlink:href="#m29648e0f6a" x="247.54651" y="221.887435" style="fill: #1f77b4"/>
     <use xlink:href="#m29648e0f6a" x="249.576777" y="224.314149" style="fill: #1f77b4"/>
     <use xlink:href="#m29648e0f6a" x="251.607044" y="226.786515" style="fill: #1f77b4"/>
     <use xlink:href="#m29648e0f6a" x="253.637311" y="228.51718" style="fill: #1f77b4"/>
     <use xlink:href="#m29648e0f6a" x="255.667578" y="226.311184" style="fill: #1f77b4"/>
     <use xlink:href="#m29648e0f6a" x="257.697845" y="227.351954" style="fill: #1f77b4"/>
     <use xlink:href="#m29648e0f6a" x="259.728112" y="233.230356" style="fill: #1f77b4"/>
     <use xlink:href="#m29648e0f6a" x="261.758379" y="225.421792" style="fill: #1f77b4"/>
     <use xlink:href="#m29648e0f6a" x="263.788646" y="226.34292" style="fill: #1f77b4"/>
     <use xlink:href="#m29648e0f6a" x="265.818913" y="227.59767" style="fill: #1f77b4"/>
     <use xlink:href="#m29648e0f6a" x="267.84918" y="227.580859" style="fill: #1f77b4"/>
     <use xlink:href="#m29648e0f6a" x="269.879447" y="224.279217" style="fill: #1f77b4"/>
     <use xlink:href="#m29648e0f6a" x="271.909715" y="231.62098" style="fill: #1f77b4"/>
     <use xlink:href="#m29648e0f6a" x="273.939982" y="226.656805" style="fill: #1f77b4"/>
     <use xlink:href="#m29648e0f6a" x="275.970249" y="226.431186" style="fill: #1f77b4"/>
     <use xlink:href="#m29648e0f6a" x="278.000516" y="229.889945" style="fill: #1f77b4"/>
     <use xlink:href="#m29648e0f6a" x="280.030783" y="234.126812" style="fill: #1f77b4"/>
     <use xlink:href="#m29648e0f6a" x="282.06105" y="229.812044" style="fill: #1f77b4"/>
     <use xlink:href="#m29648e0f6a" x="284.091317" y="232.572924" style="fill: #1f77b4"/>
     <use xlink:href="#m29648e0f6a" x="286.121584" y="235.972865" style="fill: #1f77b4"/>
     <use xlink:href="#m29648e0f6a" x="288.151851" y="236.122729" style="fill: #1f77b4"/>
     <use xlink:href="#m29648e0f6a" x="290.182118" y="233.014761" style="fill: #1f77b4"/>
     <use xlink:href="#m29648e0f6a" x="292.212385" y="234.685771" style="fill: #1f77b4"/>
     <use xlink:href="#m29648e0f6a" x="294.242652" y="232.581918" style="fill: #1f77b4"/>
     <use xlink:href="#m29648e0f6a" x="296.272919" y="232.861868" style="fill: #1f77b4"/>
     <use xlink:href="#m29648e0f6a" x="298.303186" y="235.593566" style="fill: #1f77b4"/>
     <use xlink:href="#m29648e0f6a" x="300.333453" y="237.508915" style="fill: #1f77b4"/>
     <use xlink:href="#m29648e0f6a" x="302.36372" y="238.243482" style="fill: #1f77b4"/>
     <use xlink:href="#m29648e0f6a" x="304.393987" y="242.107895" style="fill: #1f77b4"/>
     <use xlink:href="#m29648e0f6a" x="306.424254" y="242.674778" style="fill: #1f77b4"/>
     <use xlink:href="#m29648e0f6a" x="308.454521" y="241.639272" style="fill: #1f77b4"/>
     <use xlink:href="#m29648e0f6a" x="310.484788" y="240.074777" style="fill: #1f77b4"/>
     <use xlink:href="#m29648e0f6a" x="312.515055" y="239.183802" style="fill: #1f77b4"/>
     <use xlink:href="#m29648e0f6a" x="314.545322" y="242.304154" style="fill: #1f77b4"/>
     <use xlink:href="#m29648e0f6a" x="316.575589" y="242.471549" style="fill: #1f77b4"/>
     <use xlink:href="#m29648e0f6a" x="318.605856" y="242.315564" style="fill: #1f77b4"/>
     <use xlink:href="#m29648e0f6a" x="320.636123" y="242.422051" style="fill: #1f77b4"/>
     <use xlink:href="#m29648e0f6a" x="322.66639" y="240.539577" style="fill: #1f77b4"/>
     <use xlink:href="#m29648e0f6a" x="324.696657" y="243.993101" style="fill: #1f77b4"/>
     <use xlink:href="#m29648e0f6a" x="326.726924" y="246.570852" style="fill: #1f77b4"/>
     <use xlink:href="#m29648e0f6a" x="328.757191" y="242.777733" style="fill: #1f77b4"/>
     <use xlink:href="#m29648e0f6a" x="330.787458" y="242.806874" style="fill: #1f77b4"/>
     <use xlink:href="#m29648e0f6a" x="332.817725" y="242.687685" style="fill: #1f77b4"/>
     <use xlink:href="#m29648e0f6a" x="334.847992" y="245.814664" style="fill: #1f77b4"/>
     <use xlink:href="#m29648e0f6a" x="336.878259" y="247.278592" style="fill: #1f77b4"/>
     <use xlink:href="#m29648e0f6a" x="338.908526" y="246.328526" style="fill: #1f77b4"/>
     <use xlink:href="#m29648e0f6a" x="340.938793" y="246.170391" style="fill: #1f77b4"/>
     <use xlink:href="#m29648e0f6a" x="342.96906" y="246.542726" style="fill: #1f77b4"/>
     <use xlink:href="#m29648e0f6a" x="344.999327" y="248.202655" style="fill: #1f77b4"/>
     <use xlink:href="#m29648e0f6a" x="347.029594" y="248.806324" style="fill: #1f77b4"/>
     <use xlink:href="#m29648e0f6a" x="349.059861" y="244.246054" style="fill: #1f77b4"/>
     <use xlink:href="#m29648e0f6a" x="351.090128" y="247.391383" style="fill: #1f77b4"/>
     <use xlink:href="#m29648e0f6a" x="353.120395" y="249.74008" style="fill: #1f77b4"/>
     <use xlink:href="#m29648e0f6a" x="355.150662" y="248.211588" style="fill: #1f77b4"/>
     <use xlink:href="#m29648e0f6a" x="357.180929" y="248.899138" style="fill: #1f77b4"/>
     <use xlink:href="#m29648e0f6a" x="359.211196" y="249.084956" style="fill: #1f77b4"/>
     <use xlink:href="#m29648e0f6a" x="361.241463" y="251.243867" style="fill: #1f77b4"/>
     <use xlink:href="#m29648e0f6a" x="363.27173" y="249.579435" style="fill: #1f77b4"/>
     <use xlink:href="#m29648e0f6a" x="365.301997" y="251.776676" style="fill: #1f77b4"/>
     <use xlink:href="#m29648e0f6a" x="367.332264" y="251.49702" style="fill: #1f77b4"/>
     <use xlink:href="#m29648e0f6a" x="369.362531" y="250.338366" style="fill: #1f77b4"/>
     <use xlink:href="#m29648e0f6a" x="371.392798" y="252.700937" style="fill: #1f77b4"/>
     <use xlink:href="#m29648e0f6a" x="373.423065" y="251.588756" style="fill: #1f77b4"/>
     <use xlink:href="#m29648e0f6a" x="375.453332" y="253.495599" style="fill: #1f77b4"/>
     <use xlink:href="#m29648e0f6a" x="377.483599" y="251.155502" style="fill: #1f77b4"/>
     <use xlink:href="#m29648e0f6a" x="379.513866" y="252.483594" style="fill: #1f77b4"/>
     <use xlink:href="#m29648e0f6a" x="381.544133" y="252.273813" style="fill: #1f77b4"/>
     <use xlink:href="#m29648e0f6a" x="383.5744" y="252.704793" style="fill: #1f77b4"/>
     <use xlink:href="#m29648e0f6a" x="385.604667" y="255.307953" style="fill: #1f77b4"/>
     <use xlink:href="#m29648e0f6a" x="387.634934" y="252.428755" style="fill: #1f77b4"/>
     <use xlink:href="#m29648e0f6a" x="389.665201" y="253.053355" style="fill: #1f77b4"/>
     <use xlink:href="#m29648e0f6a" x="391.695468" y="253.523775" style="fill: #1f77b4"/>
     <use xlink:href="#m29648e0f6a" x="393.725735" y="253.496404" style="fill: #1f77b4"/>
     <use xlink:href="#m29648e0f6a" x="395.756002" y="255.12106" style="fill: #1f77b4"/>
     <use xlink:href="#m29648e0f6a" x="397.786269" y="255.258459" style="fill: #1f77b4"/>
     <use xlink:href="#m29648e0f6a" x="399.816536" y="255.951741" style="fill: #1f77b4"/>
     <use xlink:href="#m29648e0f6a" x="401.846803" y="254.78399" style="fill: #1f77b4"/>
     <use xlink:href="#m29648e0f6a" x="403.87707" y="255.836756" style="fill: #1f77b4"/>
     <use xlink:href="#m29648e0f6a" x="405.907337" y="254.779263" style="fill: #1f77b4"/>
     <use xlink:href="#m29648e0f6a" x="407.937604" y="256.200111" style="fill: #1f77b4"/>
     <use xlink:href="#m29648e0f6a" x="409.967871" y="255.243361" style="fill: #1f77b4"/>
     <use xlink:href="#m29648e0f6a" x="411.998138" y="254.176663" style="fill: #1f77b4"/>
     <use xlink:href="#m29648e0f6a" x="414.028405" y="257.005537" style="fill: #1f77b4"/>
     <use xlink:href="#m29648e0f6a" x="416.058672" y="257.094529" style="fill: #1f77b4"/>
     <use xlink:href="#m29648e0f6a" x="418.088939" y="257.00164" style="fill: #1f77b4"/>
     <use xlink:href="#m29648e0f6a" x="420.119206" y="256.979788" style="fill: #1f77b4"/>
     <use xlink:href="#m29648e0f6a" x="422.149473" y="255.806691" style="fill: #1f77b4"/>
     <use xlink:href="#m29648e0f6a" x="424.17974" y="257.538343" style="fill: #1f77b4"/>
     <use xlink:href="#m29648e0f6a" x="426.210007" y="257.094913" style="fill: #1f77b4"/>
     <use xlink:href="#m29648e0f6a" x="428.240274" y="256.032295" style="fill: #1f77b4"/>
     <use xlink:href="#m29648e0f6a" x="430.270541" y="258.483539" style="fill: #1f77b4"/>
     <use xlink:href="#m29648e0f6a" x="432.300808" y="258.55334" style="fill: #1f77b4"/>
     <use xlink:href="#m29648e0f6a" x="434.331075" y="260.149495" style="fill: #1f77b4"/>
     <use xlink:href="#m29648e0f6a" x="436.361342" y="257.40599" style="fill: #1f77b4"/>
     <use xlink:href="#m29648e0f6a" x="438.391609" y="258.303723" style="fill: #1f77b4"/>
     <use xlink:href="#m29648e0f6a" x="440.421876" y="258.197729" style="fill: #1f77b4"/>
     <use xlink:href="#m29648e0f6a" x="442.452143" y="260.668426" style="fill: #1f77b4"/>
     <use xlink:href="#m29648e0f6a" x="444.48241" y="258.573597" style="fill: #1f77b4"/>
     <use xlink:href="#m29648e0f6a" x="446.512677" y="260.085843" style="fill: #1f77b4"/>
     <use xlink:href="#m29648e0f6a" x="448.542944" y="259.644017" style="fill: #1f77b4"/>
     <use xlink:href="#m29648e0f6a" x="450.573211" y="260.430454" style="fill: #1f77b4"/>
     <use xlink:href="#m29648e0f6a" x="452.603478" y="260.165131" style="fill: #1f77b4"/>
     <use xlink:href="#m29648e0f6a" x="454.633745" y="261.030028" style="fill: #1f77b4"/>
     <use xlink:href="#m29648e0f6a" x="456.664012" y="261.242131" style="fill: #1f77b4"/>
     <use xlink:href="#m29648e0f6a" x="458.694279" y="260.632362" style="fill: #1f77b4"/>
     <use xlink:href="#m29648e0f6a" x="460.724546" y="260.041973" style="fill: #1f77b4"/>
     <use xlink:href="#m29648e0f6a" x="462.754813" y="260.490042" style="fill: #1f77b4"/>
     <use xlink:href="#m29648e0f6a" x="464.78508" y="259.065766" style="fill: #1f77b4"/>
     <use xlink:href="#m29648e0f6a" x="466.815347" y="261.608758" style="fill: #1f77b4"/>
     <use xlink:href="#m29648e0f6a" x="468.845614" y="261.372067" style="fill: #1f77b4"/>
     <use xlink:href="#m29648e0f6a" x="470.875881" y="261.391155" style="fill: #1f77b4"/>
     <use xlink:href="#m29648e0f6a" x="472.906148" y="261.322241" style="fill: #1f77b4"/>
     <use xlink:href="#m29648e0f6a" x="474.936415" y="262.202082" style="fill: #1f77b4"/>
     <use xlink:href="#m29648e0f6a" x="476.966682" y="260.755506" style="fill: #1f77b4"/>
     <use xlink:href="#m29648e0f6a" x="478.996949" y="262.099941" style="fill: #1f77b4"/>
     <use xlink:href="#m29648e0f6a" x="481.027216" y="262.520074" style="fill: #1f77b4"/>
     <use xlink:href="#m29648e0f6a" x="483.057483" y="262.653918" style="fill: #1f77b4"/>
     <use xlink:href="#m29648e0f6a" x="485.08775" y="262.219967" style="fill: #1f77b4"/>
     <use xlink:href="#m29648e0f6a" x="487.118017" y="262.495525" style="fill: #1f77b4"/>
     <use xlink:href="#m29648e0f6a" x="489.148284" y="262.202707" style="fill: #1f77b4"/>
     <use xlink:href="#m29648e0f6a" x="491.178551" y="262.697387" style="fill: #1f77b4"/>
     <use xlink:href="#m29648e0f6a" x="493.208818" y="262.142959" style="fill: #1f77b4"/>
     <use xlink:href="#m29648e0f6a" x="495.239085" y="263.502602" style="fill: #1f77b4"/>
     <use xlink:href="#m29648e0f6a" x="497.269352" y="263.915079" style="fill: #1f77b4"/>
     <use xlink:href="#m29648e0f6a" x="499.299619" y="262.475421" style="fill: #1f77b4"/>
     <use xlink:href="#m29648e0f6a" x="501.329886" y="263.330035" style="fill: #1f77b4"/>
    </g>
   </g>
   <g id="line2d_18">
    <path d="M 38.429009 76.071126 
L 40.459276 76.116622 
L 42.489543 76.252989 
L 44.51981 76.479867 
L 46.550077 76.796658 
L 48.580344 77.202529 
L 50.610611 77.696422 
L 52.640878 78.277053 
L 54.671145 78.942928 
L 56.701412 79.692349 
L 58.731679 80.523423 
L 60.761946 81.434079 
L 62.792213 82.422074 
L 64.82248 83.485011 
L 66.852747 84.620351 
L 68.883014 85.825427 
L 70.913281 87.097461 
L 72.943548 88.433577 
L 74.973815 89.830815 
L 77.004082 91.286151 
L 79.034349 92.796503 
L 81.064616 94.358754 
L 83.094883 95.96976 
L 85.12515 97.626369 
L 87.155417 99.325427 
L 89.185684 101.063795 
L 91.215951 102.838359 
L 93.246218 104.646042 
L 95.276485 106.483812 
L 97.306752 108.348691 
L 99.337019 110.237764 
L 101.367286 112.148187 
L 103.397553 114.077193 
L 105.42782 116.022096 
L 107.458087 117.980299 
L 109.488354 119.949296 
L 111.518621 121.926675 
L 113.548888 123.910122 
L 115.579155 125.897422 
L 117.609422 127.886462 
L 119.639689 129.875228 
L 121.669956 131.861811 
L 123.700223 133.8444 
L 125.73049 135.821287 
L 127.760757 137.790861 
L 129.791024 139.751611 
L 131.821291 141.702122 
L 133.851558 143.641071 
L 135.881825 145.567228 
L 137.912092 147.479451 
L 139.942359 149.376686 
L 141.972626 151.257959 
L 144.002893 153.12238 
L 146.03316 154.969133 
L 148.063427 156.797478 
L 150.093694 158.606745 
L 152.123961 160.396331 
L 154.154228 162.165698 
L 156.184495 163.914371 
L 158.214762 165.64193 
L 160.245029 167.348013 
L 162.275296 169.032307 
L 164.305563 170.69455 
L 166.33583 172.334526 
L 168.366097 173.952063 
L 170.396364 175.547029 
L 172.426631 177.119329 
L 174.456898 178.668905 
L 176.487165 180.195733 
L 178.517432 181.699817 
L 180.547699 183.181191 
L 182.577966 184.639918 
L 184.608233 186.076081 
L 186.6385 187.489789 
L 188.668767 188.88117 
L 190.699034 190.250372 
L 192.729301 191.59756 
L 194.759568 192.922913 
L 196.789835 194.226628 
L 198.820102 195.508912 
L 200.850369 196.769985 
L 202.880636 198.010076 
L 204.910903 199.229426 
L 206.94117 200.428281 
L 208.971437 201.606897 
L 211.001704 202.765534 
L 213.031971 203.904459 
L 215.062238 205.023943 
L 217.092505 206.124261 
" clip-path="url(#p93652aaa15)" style="fill: none; stroke: #2ca02c; stroke-width: 1.5; stroke-linecap: square"/>
   </g>
   <g id="line2d_19">
    <path d="M 38.429009 80.676516 
L 40.459276 80.717568 
L 42.489543 80.840638 
L 44.51981 81.045464 
L 46.550077 81.331613 
L 48.580344 81.698481 
L 50.610611 82.145298 
L 52.640878 82.671133 
L 54.671145 83.274897 
L 56.701412 83.955352 
L 58.731679 84.711118 
L 60.761946 85.540678 
L 62.792213 86.442387 
L 64.82248 87.414486 
L 66.852747 88.455104 
L 68.883014 89.562271 
L 70.913281 90.73393 
L 72.943548 91.967942 
L 74.973815 93.2621 
L 77.004082 94.614134 
L 79.034349 96.021723 
L 81.064616 97.482499 
L 83.094883 98.994058 
L 85.12515 100.553961 
L 87.155417 102.15974 
L 89.185684 103.808899 
L 91.215951 105.498914 
L 93.246218 107.227236 
L 95.276485 108.991281 
L 97.306752 110.788436 
L 99.337019 112.616051 
L 101.367286 114.47144 
L 103.397553 116.351881 
L 105.42782 118.254624 
L 107.458087 120.176893 
L 109.488354 122.115902 
L 111.518621 124.06887 
L 113.548888 126.033038 
L 115.579155 128.00569 
L 117.609422 129.984171 
L 119.639689 131.965911 
L 121.669956 133.948438 
L 123.700223 135.929394 
L 125.73049 137.906547 
L 127.760757 139.8778 
L 129.791024 141.841196 
L 131.821291 143.79492 
L 133.851558 145.737299 
L 135.881825 147.666799 
L 137.912092 149.582027 
L 139.942359 151.481719 
L 141.972626 153.36474 
L 144.002893 155.230075 
L 146.03316 157.076828 
L 148.063427 158.904208 
L 150.093694 160.711529 
L 152.123961 162.498202 
L 154.154228 164.263728 
L 156.184495 166.007693 
L 158.214762 167.729762 
L 160.245029 169.429673 
L 162.275296 171.107234 
L 164.305563 172.762312 
L 166.33583 174.394837 
L 168.366097 176.004789 
L 170.396364 177.592197 
L 172.426631 179.157134 
L 174.456898 180.699713 
L 176.487165 182.220081 
L 178.517432 183.718417 
L 180.547699 185.194925 
L 182.577966 186.649833 
L 184.608233 188.083387 
L 186.6385 189.495847 
L 188.668767 190.887487 
L 190.699034 192.258584 
L 192.729301 193.609425 
L 194.759568 194.940294 
L 196.789835 196.251477 
L 198.820102 197.543258 
L 200.850369 198.815912 
L 202.880636 200.069713 
L 204.910903 201.304924 
L 206.94117 202.521801 
L 208.971437 203.720594 
L 211.001704 204.901543 
L 213.031971 206.06488 
L 215.062238 207.21083 
L 217.092505 208.33961 
" clip-path="url(#p93652aaa15)" style="fill: none; stroke-dasharray: 5.55,2.4; stroke-dashoffset: 0; stroke: #2ca02c; stroke-width: 1.5"/>
   </g>
   <g id="line2d_20">
    <path d="M 38.429009 71.465737 
L 40.459276 71.515676 
L 42.489543 71.665341 
L 44.51981 71.914271 
L 46.550077 72.261703 
L 48.580344 72.706578 
L 50.610611 73.247545 
L 52.640878 73.882973 
L 54.671145 74.610959 
L 56.701412 75.429345 
L 58.731679 76.335729 
L 60.761946 77.327481 
L 62.792213 78.401761 
L 64.82248 79.555536 
L 66.852747 80.785598 
L 68.883014 82.088583 
L 70.913281 83.460992 
L 72.943548 84.899211 
L 74.973815 86.399531 
L 77.004082 87.958167 
L 79.034349 89.571282 
L 81.064616 91.235008 
L 83.094883 92.945463 
L 85.12515 94.698777 
L 87.155417 96.491113 
L 89.185684 98.318691 
L 91.215951 100.177804 
L 93.246218 102.064849 
L 95.276485 103.976343 
L 97.306752 105.908945 
L 99.337019 107.859477 
L 101.367286 109.824934 
L 103.397553 111.802504 
L 105.42782 113.789568 
L 107.458087 115.783705 
L 109.488354 117.78269 
L 111.518621 119.784479 
L 113.548888 121.787205 
L 115.579155 123.789154 
L 117.609422 125.788752 
L 119.639689 127.784546 
L 121.669956 129.775184 
L 123.700223 131.759407 
L 125.73049 133.736027 
L 127.760757 135.703922 
L 129.791024 137.662026 
L 131.821291 139.609324 
L 133.851558 141.544843 
L 135.881825 143.467656 
L 137.912092 145.376875 
L 139.942359 147.271652 
L 141.972626 149.151179 
L 144.002893 151.014685 
L 146.03316 152.861439 
L 148.063427 154.690748 
L 150.093694 156.50196 
L 152.123961 158.29446 
L 154.154228 160.067669 
L 156.184495 161.821049 
L 158.214762 163.554099 
L 160.245029 165.266352 
L 162.275296 166.957379 
L 164.305563 168.626787 
L 166.33583 170.274215 
L 168.366097 171.899338 
L 170.396364 173.501861 
L 172.426631 175.081524 
L 174.456898 176.638098 
L 176.487165 178.171384 
L 178.517432 179.681216 
L 180.547699 181.167458 
L 182.577966 182.630003 
L 184.608233 184.068776 
L 186.6385 185.483731 
L 188.668767 186.874854 
L 190.699034 188.24216 
L 192.729301 189.585695 
L 194.759568 190.905533 
L 196.789835 192.201779 
L 198.820102 193.474567 
L 200.850369 194.724057 
L 202.880636 195.95044 
L 204.910903 197.153928 
L 206.94117 198.334761 
L 208.971437 199.493199 
L 211.001704 200.629525 
L 213.031971 201.744038 
L 215.062238 202.837057 
L 217.092505 203.908911 
" clip-path="url(#p93652aaa15)" style="fill: none; stroke-dasharray: 5.55,2.4; stroke-dashoffset: 0; stroke: #2ca02c; stroke-width: 1.5"/>
   </g>
   <g id="line2d_21">
    <path d="M 212.510288 274.94952 
L 212.510288 251.112168 
" clip-path="url(#p93652aaa15)" style="fill: none; stroke: #000000; stroke-width: 1.5; stroke-linecap: square"/>
   </g>
   <g id="patch_3">
    <path d="M 33.8 274.94952 
L 33.8 36.576 
" style="fill: none; stroke: #000000; stroke-width: 0.8; stroke-linejoin: miter; stroke-linecap: square"/>
   </g>
   <g id="patch_4">
    <path d="M 33.8 274.94952 
L 505.958895 274.94952 
" style="fill: none; stroke: #000000; stroke-width: 0.8; stroke-linejoin: miter; stroke-linecap: square"/>
   </g>
   <g id="text_19">
    <!-- Model lorentz(0.1)  -->
    <g transform="translate(33.8 17.52) scale(0.12 -0.12)">
     <defs>
      <path id="IBMPlexSans-4d" d="M 595 0 
L 1120 0 
L 1120 3763 
L 1152 3763 
L 1530 3014 
L 2598 1069 
L 3667 3014 
L 4045 3763 
L 4077 3763 
L 4077 0 
L 4602 0 
L 4602 4467 
L 3910 4467 
L 2624 2061 
L 2592 2061 
L 1312 4467 
L 595 4467 
L 595 0 
z
" transform="scale(0.015625)"/>
      <path id="IBMPlexSans-6f" d="M 1792 -77 
C 2675 -77 3283 602 3283 1651 
C 3283 2701 2675 3379 1792 3379 
C 909 3379 301 2701 301 1651 
C 301 602 909 -77 1792 -77 
z
M 1792 378 
C 1242 378 851 717 851 1414 
L 851 1888 
C 851 2586 1242 2925 1792 2925 
C 2342 2925 2733 2586 2733 1888 
L 2733 1414 
C 2733 717 2342 378 1792 378 
z
" transform="scale(0.015625)"/>
      <path id="IBMPlexSans-7a" d="M 2758 0 
L 2758 448 
L 794 448 
L 2707 2918 
L 2707 3302 
L 269 3302 
L 269 2854 
L 2086 2854 
L 211 429 
L 211 0 
L 2758 0 
z
" transform="scale(0.015625)"/>
      <path id="IBMPlexSans-28" d="M 531 1997 
C 531 749 1056 -339 1690 -877 
L 2176 -877 
C 1485 -262 1011 819 1011 1715 
L 1011 2266 
C 1011 3162 1466 4224 2176 4864 
L 1690 4864 
C 1037 4307 531 3232 531 1997 
z
" transform="scale(0.015625)"/>
      <path id="IBMPlexSans-2e" d="M 870 -77 
C 1139 -77 1261 77 1261 294 
L 1261 378 
C 1261 595 1139 749 870 749 
C 602 749 480 595 480 378 
L 480 294 
C 480 77 602 -77 870 -77 
z
" transform="scale(0.015625)"/>
      <path id="IBMPlexSans-29" d="M 1613 1997 
C 1613 3232 1107 4307 454 4864 
L -32 4864 
C 678 4224 1133 3162 1133 2266 
L 1133 1715 
C 1133 819 659 -262 -32 -877 
L 454 -877 
C 1088 -339 1613 749 1613 1997 
z
" transform="scale(0.015625)"/>
     </defs>
     <use xlink:href="#IBMPlexSans-4d"/>
     <use xlink:href="#IBMPlexSans-6f" transform="translate(81.199982 0)"/>
     <use xlink:href="#IBMPlexSans-64" transform="translate(137.199966 0)"/>
     <use xlink:href="#IBMPlexSans-65" transform="translate(195.199951 0)"/>
     <use xlink:href="#IBMPlexSans-6c" transform="translate(250.099945 0)"/>
     <use xlink:href="#IBMPlexSans-20" transform="translate(277.299942 0)"/>
     <use xlink:href="#IBMPlexSans-6c" transform="translate(300.899933 0)"/>
     <use xlink:href="#IBMPlexSans-6f" transform="translate(328.09993 0)"/>
     <use xlink:href="#IBMPlexSans-72" transform="translate(384.099915 0)"/>
     <use xlink:href="#IBMPlexSans-65" transform="translate(420.799911 0)"/>
     <use xlink:href="#IBMPlexSans-6e" transform="translate(475.699905 0)"/>
     <use xlink:href="#IBMPlexSans-74" transform="translate(532.499893 0)"/>
     <use xlink:href="#IBMPlexSans-7a" transform="translate(567.599884 0)"/>
     <use xlink:href="#IBMPlexSans-28" transform="translate(613.999878 0)"/>
     <use xlink:href="#IBMPlexSans-30" transform="translate(647.499863 0)"/>
     <use xlink:href="#IBMPlexSans-2e" transform="translate(707.499847 0)"/>
     <use xlink:href="#IBMPlexSans-31" transform="translate(734.699844 0)"/>
     <use xlink:href="#IBMPlexSans-29" transform="translate(794.699829 0)"/>
     <use xlink:href="#IBMPlexSans-20" transform="translate(828.199814 0)"/>
    </g>
    <!-- $κ$ = 6.837 ± 0.081 κ* -->
    <g transform="translate(33.8 30.576) scale(0.12 -0.12)">
     <defs>
      <path id="DejaVuSans-Oblique-3ba" d="M 938 3500 
L 1531 3500 
L 1247 2047 
L 3041 3500 
L 3741 3500 
L 2106 2181 
L 3275 0 
L 2572 0 
L 1628 1806 
L 1122 1403 
L 850 0 
L 256 0 
L 938 3500 
z
" transform="scale(0.015625)"/>
      <path id="IBMPlexSans-3d" d="M 3411 2381 
L 3411 2816 
L 429 2816 
L 429 2381 
L 3411 2381 
z
M 3411 1101 
L 3411 1536 
L 429 1536 
L 429 1101 
L 3411 1101 
z
" transform="scale(0.015625)"/>
      <path id="IBMPlexSans-b1" d="M 2163 973 
L 2163 2246 
L 3411 2246 
L 3411 2682 
L 2163 2682 
L 2163 3955 
L 1677 3955 
L 1677 2682 
L 429 2682 
L 429 2246 
L 1677 2246 
L 1677 973 
L 2163 973 
z
M 3411 0 
L 3411 435 
L 429 435 
L 429 0 
L 3411 0 
z
" transform="scale(0.015625)"/>
     </defs>
     <use xlink:href="#DejaVuSans-Oblique-3ba" transform="translate(0 0.296875)"/>
     <use xlink:href="#IBMPlexSans-20" transform="translate(58.935547 0.296875)"/>
     <use xlink:href="#IBMPlexSans-3d" transform="translate(82.535538 0.296875)"/>
     <use xlink:href="#IBMPlexSans-20" transform="translate(142.535522 0.296875)"/>
     <use xlink:href="#IBMPlexSans-36" transform="translate(166.135513 0.296875)"/>
     <use xlink:href="#IBMPlexSans-2e" transform="translate(226.135498 0.296875)"/>
     <use xlink:href="#IBMPlexSans-38" transform="translate(253.335495 0.296875)"/>
     <use xlink:href="#IBMPlexSans-33" transform="translate(313.33548 0.296875)"/>
     <use xlink:href="#IBMPlexSans-37" transform="translate(373.335464 0.296875)"/>
     <use xlink:href="#IBMPlexSans-20" transform="translate(433.335449 0.296875)"/>
     <use xlink:href="#IBMPlexSans-b1" transform="translate(456.93544 0.296875)"/>
     <use xlink:href="#IBMPlexSans-20" transform="translate(516.935425 0.296875)"/>
     <use xlink:href="#IBMPlexSans-30" transform="translate(540.535416 0.296875)"/>
     <use xlink:href="#IBMPlexSans-2e" transform="translate(600.5354 0.296875)"/>
     <use xlink:href="#IBMPlexSans-30" transform="translate(627.735397 0.296875)"/>
     <use xlink:href="#IBMPlexSans-38" transform="translate(687.735382 0.296875)"/>
     <use xlink:href="#IBMPlexSans-31" transform="translate(747.735367 0.296875)"/>
     <use xlink:href="#IBMPlexSans-20" transform="translate(807.735352 0.296875)"/>
     <use xlink:href="#IBMPlexSans-3ba" transform="translate(831.335342 0.296875)"/>
     <use xlink:href="#IBMPlexSans-2a" transform="translate(884.035339 0.296875)"/>
    </g>
   </g>
   <g id="text_20">
    <!-- $\tau_\text{exp}$ = 0.085 ± 0.003 τ* -->
    <g transform="translate(379.118895 16.2) scale(0.12 -0.12)">
     <defs>
      <path id="DejaVuSans-Oblique-3c4" d="M 2103 638 
Q 2188 488 2525 488 
L 2800 488 
L 2706 0 
L 2363 0 
Q 1800 0 1600 300 
Q 1403 606 1534 1269 
L 1856 2925 
L 541 2925 
L 653 3500 
L 3881 3500 
L 3769 2925 
L 2444 2925 
L 2113 1234 
Q 2025 781 2103 638 
z
" transform="scale(0.015625)"/>
      <path id="DejaVuSans-65" d="M 3597 1894 
L 3597 1613 
L 953 1613 
Q 991 1019 1311 708 
Q 1631 397 2203 397 
Q 2534 397 2845 478 
Q 3156 559 3463 722 
L 3463 178 
Q 3153 47 2828 -22 
Q 2503 -91 2169 -91 
Q 1331 -91 842 396 
Q 353 884 353 1716 
Q 353 2575 817 3079 
Q 1281 3584 2069 3584 
Q 2775 3584 3186 3129 
Q 3597 2675 3597 1894 
z
M 3022 2063 
Q 3016 2534 2758 2815 
Q 2500 3097 2075 3097 
Q 1594 3097 1305 2825 
Q 1016 2553 972 2059 
L 3022 2063 
z
" transform="scale(0.015625)"/>
      <path id="DejaVuSans-78" d="M 3513 3500 
L 2247 1797 
L 3578 0 
L 2900 0 
L 1881 1375 
L 863 0 
L 184 0 
L 1544 1831 
L 300 3500 
L 978 3500 
L 1906 2253 
L 2834 3500 
L 3513 3500 
z
" transform="scale(0.015625)"/>
      <path id="DejaVuSans-70" d="M 1159 525 
L 1159 -1331 
L 581 -1331 
L 581 3500 
L 1159 3500 
L 1159 2969 
Q 1341 3281 1617 3432 
Q 1894 3584 2278 3584 
Q 2916 3584 3314 3078 
Q 3713 2572 3713 1747 
Q 3713 922 3314 415 
Q 2916 -91 2278 -91 
Q 1894 -91 1617 61 
Q 1341 213 1159 525 
z
M 3116 1747 
Q 3116 2381 2855 2742 
Q 2594 3103 2138 3103 
Q 1681 3103 1420 2742 
Q 1159 2381 1159 1747 
Q 1159 1113 1420 752 
Q 1681 391 2138 391 
Q 2594 391 2855 752 
Q 3116 1113 3116 1747 
z
" transform="scale(0.015625)"/>
     </defs>
     <use xlink:href="#DejaVuSans-Oblique-3c4" transform="translate(0 0.296875)"/>
     <use xlink:href="#DejaVuSans-65" transform="translate(60.205078 -16.109375) scale(0.7)"/>
     <use xlink:href="#DejaVuSans-78" transform="translate(103.271484 -16.109375) scale(0.7)"/>
     <use xlink:href="#DejaVuSans-70" transform="translate(144.697266 -16.109375) scale(0.7)"/>
     <use xlink:href="#IBMPlexSans-20" transform="translate(191.865234 0.296875)"/>
     <use xlink:href="#IBMPlexSans-3d" transform="translate(215.465225 0.296875)"/>
     <use xlink:href="#IBMPlexSans-20" transform="translate(275.46521 0.296875)"/>
     <use xlink:href="#IBMPlexSans-30" transform="translate(299.065201 0.296875)"/>
     <use xlink:href="#IBMPlexSans-2e" transform="translate(359.065186 0.296875)"/>
     <use xlink:href="#IBMPlexSans-30" transform="translate(386.265182 0.296875)"/>
     <use xlink:href="#IBMPlexSans-38" transform="translate(446.265167 0.296875)"/>
     <use xlink:href="#IBMPlexSans-35" transform="translate(506.265152 0.296875)"/>
     <use xlink:href="#IBMPlexSans-20" transform="translate(566.265137 0.296875)"/>
     <use xlink:href="#IBMPlexSans-b1" transform="translate(589.865128 0.296875)"/>
     <use xlink:href="#IBMPlexSans-20" transform="translate(649.865112 0.296875)"/>
     <use xlink:href="#IBMPlexSans-30" transform="translate(673.465103 0.296875)"/>
     <use xlink:href="#IBMPlexSans-2e" transform="translate(733.465088 0.296875)"/>
     <use xlink:href="#IBMPlexSans-30" transform="translate(760.665085 0.296875)"/>
     <use xlink:href="#IBMPlexSans-30" transform="translate(820.66507 0.296875)"/>
     <use xlink:href="#IBMPlexSans-33" transform="translate(880.665054 0.296875)"/>
     <use xlink:href="#IBMPlexSans-20" transform="translate(940.665039 0.296875)"/>
     <use xlink:href="#IBMPlexSans-3c4" transform="translate(964.26503 0.296875)"/>
     <use xlink:href="#IBMPlexSans-2a" transform="translate(1011.965027 0.296875)"/>
    </g>
    <!-- $\tau_\text{int}$ = 0.106 ± 0.001 τ* -->
    <g transform="translate(383.558895 30.576) scale(0.12 -0.12)">
     <defs>
      <path id="DejaVuSans-69" d="M 603 3500 
L 1178 3500 
L 1178 0 
L 603 0 
L 603 3500 
z
M 603 4863 
L 1178 4863 
L 1178 4134 
L 603 4134 
L 603 4863 
z
" transform="scale(0.015625)"/>
      <path id="DejaVuSans-6e" d="M 3513 2113 
L 3513 0 
L 2938 0 
L 2938 2094 
Q 2938 2591 2744 2837 
Q 2550 3084 2163 3084 
Q 1697 3084 1428 2787 
Q 1159 2491 1159 1978 
L 1159 0 
L 581 0 
L 581 3500 
L 1159 3500 
L 1159 2956 
Q 1366 3272 1645 3428 
Q 1925 3584 2291 3584 
Q 2894 3584 3203 3211 
Q 3513 2838 3513 2113 
z
" transform="scale(0.015625)"/>
      <path id="DejaVuSans-74" d="M 1172 4494 
L 1172 3500 
L 2356 3500 
L 2356 3053 
L 1172 3053 
L 1172 1153 
Q 1172 725 1289 603 
Q 1406 481 1766 481 
L 2356 481 
L 2356 0 
L 1766 0 
Q 1100 0 847 248 
Q 594 497 594 1153 
L 594 3053 
L 172 3053 
L 172 3500 
L 594 3500 
L 594 4494 
L 1172 4494 
z
" transform="scale(0.015625)"/>
     </defs>
     <use xlink:href="#DejaVuSans-Oblique-3c4" transform="translate(0 0.296875)"/>
     <use xlink:href="#DejaVuSans-69" transform="translate(60.205078 -16.109375) scale(0.7)"/>
     <use xlink:href="#DejaVuSans-6e" transform="translate(79.65332 -16.109375) scale(0.7)"/>
     <use xlink:href="#DejaVuSans-74" transform="translate(124.018555 -16.109375) scale(0.7)"/>
     <use xlink:href="#IBMPlexSans-20" transform="translate(154.199219 0.296875)"/>
     <use xlink:href="#IBMPlexSans-3d" transform="translate(177.79921 0.296875)"/>
     <use xlink:href="#IBMPlexSans-20" transform="translate(237.799194 0.296875)"/>
     <use xlink:href="#IBMPlexSans-30" transform="translate(261.399185 0.296875)"/>
     <use xlink:href="#IBMPlexSans-2e" transform="translate(321.39917 0.296875)"/>
     <use xlink:href="#IBMPlexSans-31" transform="translate(348.599167 0.296875)"/>
     <use xlink:href="#IBMPlexSans-30" transform="translate(408.599152 0.296875)"/>
     <use xlink:href="#IBMPlexSans-36" transform="translate(468.599136 0.296875)"/>
     <use xlink:href="#IBMPlexSans-20" transform="translate(528.599121 0.296875)"/>
     <use xlink:href="#IBMPlexSans-b1" transform="translate(552.199112 0.296875)"/>
     <use xlink:href="#IBMPlexSans-20" transform="translate(612.199097 0.296875)"/>
     <use xlink:href="#IBMPlexSans-30" transform="translate(635.799088 0.296875)"/>
     <use xlink:href="#IBMPlexSans-2e" transform="translate(695.799072 0.296875)"/>
     <use xlink:href="#IBMPlexSans-30" transform="translate(722.999069 0.296875)"/>
     <use xlink:href="#IBMPlexSans-30" transform="translate(782.999054 0.296875)"/>
     <use xlink:href="#IBMPlexSans-31" transform="translate(842.999039 0.296875)"/>
     <use xlink:href="#IBMPlexSans-20" transform="translate(902.999023 0.296875)"/>
     <use xlink:href="#IBMPlexSans-3c4" transform="translate(926.599014 0.296875)"/>
     <use xlink:href="#IBMPlexSans-2a" transform="translate(974.299011 0.296875)"/>
    </g>
   </g>
   <g id="legend_1">
    <g id="patch_5">
     <path d="M 368.902645 73.496312 
L 498.958895 73.496312 
Q 500.958895 73.496312 500.958895 71.496312 
L 500.958895 43.576 
Q 500.958895 41.576 498.958895 41.576 
L 368.902645 41.576 
Q 366.902645 41.576 366.902645 43.576 
L 366.902645 71.496312 
Q 366.902645 73.496312 368.902645 73.496312 
z
" style="fill: #ffffff; opacity: 0.8; stroke: #cccccc; stroke-linejoin: miter"/>
    </g>
    <g id="line2d_22">
     <path d="M 370.902645 49.476 
L 380.902645 49.476 
L 390.902645 49.476 
" style="fill: none; stroke-dasharray: 5.55,2.4; stroke-dashoffset: 0; stroke: #2ca02c; stroke-width: 1.5"/>
    </g>
    <g id="text_21">
     <!-- 95% CI fitted model -->
     <g transform="translate(398.902645 52.976) scale(0.1 -0.1)">
      <defs>
       <path id="IBMPlexSans-39" d="M 3411 2829 
C 3411 3891 2842 4544 1914 4544 
C 1018 4544 429 3942 429 3066 
C 429 2221 979 1690 1747 1690 
C 2291 1690 2611 1965 2822 2330 
L 2854 2317 
C 2611 1280 2080 698 1126 0 
L 1818 0 
C 2534 467 3411 1504 3411 2829 
z
M 1920 2144 
C 1331 2144 986 2483 986 3085 
L 986 3136 
C 986 3738 1331 4077 1920 4077 
C 2509 4077 2854 3738 2854 3136 
L 2854 3085 
C 2854 2483 2509 2144 1920 2144 
z
" transform="scale(0.015625)"/>
       <path id="IBMPlexSans-25" d="M 1664 0 
L 4762 4467 
L 4269 4467 
L 1171 0 
L 1664 0 
z
M 1427 2010 
C 2074 2010 2438 2458 2438 3277 
C 2438 4096 2074 4544 1427 4544 
C 781 4544 416 4096 416 3277 
C 416 2458 781 2010 1427 2010 
z
M 1427 2342 
C 1056 2342 877 2598 877 3085 
L 877 3469 
C 877 3955 1056 4211 1427 4211 
C 1798 4211 1978 3955 1978 3469 
L 1978 3085 
C 1978 2598 1798 2342 1427 2342 
z
M 4506 -77 
C 5152 -77 5517 371 5517 1190 
C 5517 2010 5152 2458 4506 2458 
C 3859 2458 3494 2010 3494 1190 
C 3494 371 3859 -77 4506 -77 
z
M 4506 256 
C 4134 256 3955 512 3955 998 
L 3955 1382 
C 3955 1869 4134 2125 4506 2125 
C 4877 2125 5056 1869 5056 1382 
L 5056 998 
C 5056 512 4877 256 4506 256 
z
" transform="scale(0.015625)"/>
       <path id="IBMPlexSans-43" d="M 2170 -77 
C 2912 -77 3456 314 3738 941 
L 3309 1210 
C 3130 723 2739 403 2170 403 
C 1402 403 947 960 947 1875 
L 947 2541 
C 947 3456 1402 4064 2170 4064 
C 2720 4064 3091 3763 3270 3302 
L 3706 3565 
C 3424 4186 2912 4544 2170 4544 
C 1043 4544 371 3699 371 2208 
C 371 717 1043 -77 2170 -77 
z
" transform="scale(0.015625)"/>
       <path id="IBMPlexSans-49" d="M 2176 0 
L 2176 448 
L 1549 448 
L 1549 4019 
L 2176 4019 
L 2176 4467 
L 384 4467 
L 384 4019 
L 1011 4019 
L 1011 448 
L 384 448 
L 384 0 
L 2176 0 
z
" transform="scale(0.015625)"/>
       <path id="IBMPlexSans-66" d="M 723 0 
L 1235 0 
L 1235 2854 
L 1946 2854 
L 1946 3302 
L 1235 3302 
L 1235 4288 
L 1946 4288 
L 1946 4736 
L 1446 4736 
C 960 4736 723 4422 723 3968 
L 723 3302 
L 186 3302 
L 186 2854 
L 723 2854 
L 723 0 
z
" transform="scale(0.015625)"/>
      </defs>
      <use xlink:href="#IBMPlexSans-39"/>
      <use xlink:href="#IBMPlexSans-35" transform="translate(59.999985 0)"/>
      <use xlink:href="#IBMPlexSans-25" transform="translate(119.999969 0)"/>
      <use xlink:href="#IBMPlexSans-20" transform="translate(212.699951 0)"/>
      <use xlink:href="#IBMPlexSans-43" transform="translate(236.299942 0)"/>
      <use xlink:href="#IBMPlexSans-49" transform="translate(298.399933 0)"/>
      <use xlink:href="#IBMPlexSans-20" transform="translate(338.399918 0)"/>
      <use xlink:href="#IBMPlexSans-66" transform="translate(361.999908 0)"/>
      <use xlink:href="#IBMPlexSans-69" transform="translate(394.399902 0)"/>
      <use xlink:href="#IBMPlexSans-74" transform="translate(419.399887 0)"/>
      <use xlink:href="#IBMPlexSans-74" transform="translate(454.499878 0)"/>
      <use xlink:href="#IBMPlexSans-65" transform="translate(489.599869 0)"/>
      <use xlink:href="#IBMPlexSans-64" transform="translate(544.499863 0)"/>
      <use xlink:href="#IBMPlexSans-20" transform="translate(602.499847 0)"/>
      <use xlink:href="#IBMPlexSans-6d" transform="translate(626.099838 0)"/>
      <use xlink:href="#IBMPlexSans-6f" transform="translate(713.399826 0)"/>
      <use xlink:href="#IBMPlexSans-64" transform="translate(769.399811 0)"/>
      <use xlink:href="#IBMPlexSans-65" transform="translate(827.399796 0)"/>
      <use xlink:href="#IBMPlexSans-6c" transform="translate(882.299789 0)"/>
     </g>
    </g>
    <g id="patch_6">
     <path d="M 370.902645 67.376 
L 390.902645 67.376 
L 390.902645 60.376 
L 370.902645 60.376 
z
" style="fill: #2ca02c; fill-opacity: 0.3"/>
    </g>
    <g id="text_22">
     <!-- 95% CI sampling PSD -->
     <g transform="translate(398.902645 67.376) scale(0.1 -0.1)">
      <defs>
       <path id="IBMPlexSans-73" d="M 1536 -77 
C 2291 -77 2758 314 2758 954 
C 2758 1453 2477 1773 1747 1882 
L 1491 1920 
C 1082 1984 858 2112 858 2432 
C 858 2746 1082 2944 1504 2944 
C 1926 2944 2208 2746 2355 2541 
L 2694 2848 
C 2426 3181 2074 3379 1542 3379 
C 870 3379 365 3059 365 2406 
C 365 1792 819 1542 1427 1453 
L 1690 1414 
C 2125 1350 2266 1152 2266 896 
C 2266 557 2010 358 1574 358 
C 1158 358 851 544 595 864 
L 230 570 
C 525 179 928 -77 1536 -77 
z
" transform="scale(0.015625)"/>
       <path id="IBMPlexSans-61" d="M 3232 0 
L 3232 448 
L 2854 448 
L 2854 2266 
C 2854 2963 2381 3379 1587 3379 
C 992 3379 595 3085 416 2733 
L 723 2445 
C 902 2746 1165 2938 1562 2938 
C 2086 2938 2342 2682 2342 2214 
L 2342 1888 
L 1690 1888 
C 730 1888 282 1542 282 922 
C 282 307 691 -77 1389 -77 
C 1850 -77 2202 134 2342 538 
L 2374 538 
C 2413 230 2566 0 2944 0 
L 3232 0 
z
M 1472 358 
C 1075 358 819 544 819 870 
L 819 1005 
C 819 1325 1082 1504 1664 1504 
L 2342 1504 
L 2342 960 
C 2342 621 1978 358 1472 358 
z
" transform="scale(0.015625)"/>
       <path id="IBMPlexSans-67" d="M 3328 -365 
C 3328 179 2976 512 2157 512 
L 1453 512 
C 1152 512 947 563 947 762 
C 947 966 1165 1075 1382 1133 
C 1478 1114 1594 1101 1702 1101 
C 2458 1101 2950 1568 2950 2240 
C 2950 2592 2810 2886 2573 3091 
L 2573 3302 
L 3200 3302 
L 3200 3750 
L 2707 3750 
C 2432 3750 2323 3565 2323 3309 
L 2323 3251 
C 2144 3334 1933 3379 1696 3379 
C 947 3379 454 2912 454 2240 
C 454 1779 685 1414 1075 1229 
L 1075 1203 
C 742 1120 506 960 506 627 
C 506 403 614 256 800 166 
L 800 96 
C 474 6 275 -186 275 -544 
C 275 -1062 698 -1357 1728 -1357 
C 2790 -1357 3328 -1043 3328 -365 
z
M 2848 -403 
C 2848 -762 2515 -941 1946 -941 
L 1472 -941 
C 954 -941 755 -704 755 -416 
C 755 -211 851 -64 1062 32 
L 2163 32 
C 2675 32 2848 -141 2848 -403 
z
M 1702 1510 
C 1267 1510 992 1715 992 2150 
L 992 2330 
C 992 2765 1267 2970 1702 2970 
C 2138 2970 2413 2765 2413 2330 
L 2413 2150 
C 2413 1715 2138 1510 1702 1510 
z
" transform="scale(0.015625)"/>
       <path id="IBMPlexSans-50" d="M 1133 0 
L 1133 1907 
L 2374 1907 
C 3174 1907 3622 2400 3622 3187 
C 3622 3974 3174 4467 2374 4467 
L 595 4467 
L 595 0 
L 1133 0 
z
M 1133 3994 
L 2374 3994 
C 2797 3994 3046 3763 3046 3354 
L 3046 3021 
C 3046 2611 2797 2381 2374 2381 
L 1133 2381 
L 1133 3994 
z
" transform="scale(0.015625)"/>
       <path id="IBMPlexSans-53" d="M 1850 -77 
C 2810 -77 3386 448 3386 1267 
C 3386 1933 3008 2317 2138 2515 
L 1773 2598 
C 1210 2726 934 2918 934 3341 
C 934 3821 1286 4070 1856 4070 
C 2374 4070 2714 3859 2957 3520 
L 3360 3814 
C 3027 4288 2554 4544 1882 4544 
C 1005 4544 403 4115 403 3322 
C 403 2637 851 2278 1664 2093 
L 2029 2010 
C 2618 1875 2854 1664 2854 1242 
C 2854 730 2509 397 1869 397 
C 1350 397 979 621 666 1037 
L 269 704 
C 627 218 1133 -77 1850 -77 
z
" transform="scale(0.015625)"/>
       <path id="IBMPlexSans-44" d="M 595 0 
L 2093 0 
C 3206 0 3923 742 3923 2234 
C 3923 3725 3206 4467 2093 4467 
L 595 4467 
L 595 0 
z
M 1133 474 
L 1133 3994 
L 2093 3994 
C 2829 3994 3347 3482 3347 2598 
L 3347 1869 
C 3347 986 2829 474 2093 474 
L 1133 474 
z
" transform="scale(0.015625)"/>
      </defs>
      <use xlink:href="#IBMPlexSans-39"/>
      <use xlink:href="#IBMPlexSans-35" transform="translate(59.999985 0)"/>
      <use xlink:href="#IBMPlexSans-25" transform="translate(119.999969 0)"/>
      <use xlink:href="#IBMPlexSans-20" transform="translate(212.699951 0)"/>
      <use xlink:href="#IBMPlexSans-43" transform="translate(236.299942 0)"/>
      <use xlink:href="#IBMPlexSans-49" transform="translate(298.399933 0)"/>
      <use xlink:href="#IBMPlexSans-20" transform="translate(338.399918 0)"/>
      <use xlink:href="#IBMPlexSans-73" transform="translate(361.999908 0)"/>
      <use xlink:href="#IBMPlexSans-61" transform="translate(410.699905 0)"/>
      <use xlink:href="#IBMPlexSans-6d" transform="translate(464.099899 0)"/>
      <use xlink:href="#IBMPlexSans-70" transform="translate(551.399887 0)"/>
      <use xlink:href="#IBMPlexSans-6c" transform="translate(609.399872 0)"/>
      <use xlink:href="#IBMPlexSans-69" transform="translate(636.599869 0)"/>
      <use xlink:href="#IBMPlexSans-6e" transform="translate(661.599854 0)"/>
      <use xlink:href="#IBMPlexSans-67" transform="translate(718.399841 0)"/>
      <use xlink:href="#IBMPlexSans-20" transform="translate(771.199829 0)"/>
      <use xlink:href="#IBMPlexSans-50" transform="translate(794.79982 0)"/>
      <use xlink:href="#IBMPlexSans-53" transform="translate(855.399811 0)"/>
      <use xlink:href="#IBMPlexSans-44" transform="translate(913.499802 0)"/>
     </g>
    </g>
   </g>
  </g>
  <g id="axes_2">
   <g id="matplotlib.axis_3">
    <g id="ytick_10">
     <g id="line2d_23">
      <defs>
       <path id="m712e8b5bfd" d="M 0 0 
L 3.5 0 
" style="stroke: #ff0000; stroke-width: 0.8"/>
      </defs>
      <g>
       <use xlink:href="#m712e8b5bfd" x="505.958895" y="270.365414" style="fill: #ff0000; stroke: #ff0000; stroke-width: 0.8"/>
      </g>
     </g>
     <g id="text_23">
      <!-- 0.0 -->
      <g style="fill: #ff0000" transform="translate(512.958895 274.065414) scale(0.1 -0.1)">
       <use xlink:href="#IBMPlexSans-30"/>
       <use xlink:href="#IBMPlexSans-2e" transform="translate(59.999985 0)"/>
       <use xlink:href="#IBMPlexSans-30" transform="translate(87.199982 0)"/>
      </g>
     </g>
    </g>
    <g id="ytick_11">
     <g id="line2d_24">
      <g>
       <use xlink:href="#m712e8b5bfd" x="505.958895" y="224.524352" style="fill: #ff0000; stroke: #ff0000; stroke-width: 0.8"/>
      </g>
     </g>
     <g id="text_24">
      <!-- 0.2 -->
      <g style="fill: #ff0000" transform="translate(512.958895 228.224352) scale(0.1 -0.1)">
       <use xlink:href="#IBMPlexSans-30"/>
       <use xlink:href="#IBMPlexSans-2e" transform="translate(59.999985 0)"/>
       <use xlink:href="#IBMPlexSans-32" transform="translate(87.199982 0)"/>
      </g>
     </g>
    </g>
    <g id="ytick_12">
     <g id="line2d_25">
      <g>
       <use xlink:href="#m712e8b5bfd" x="505.958895" y="178.683291" style="fill: #ff0000; stroke: #ff0000; stroke-width: 0.8"/>
      </g>
     </g>
     <g id="text_25">
      <!-- 0.4 -->
      <g style="fill: #ff0000" transform="translate(512.958895 182.383291) scale(0.1 -0.1)">
       <use xlink:href="#IBMPlexSans-30"/>
       <use xlink:href="#IBMPlexSans-2e" transform="translate(59.999985 0)"/>
       <use xlink:href="#IBMPlexSans-34" transform="translate(87.199982 0)"/>
      </g>
     </g>
    </g>
    <g id="ytick_13">
     <g id="line2d_26">
      <g>
       <use xlink:href="#m712e8b5bfd" x="505.958895" y="132.842229" style="fill: #ff0000; stroke: #ff0000; stroke-width: 0.8"/>
      </g>
     </g>
     <g id="text_26">
      <!-- 0.6 -->
      <g style="fill: #ff0000" transform="translate(512.958895 136.542229) scale(0.1 -0.1)">
       <use xlink:href="#IBMPlexSans-30"/>
       <use xlink:href="#IBMPlexSans-2e" transform="translate(59.999985 0)"/>
       <use xlink:href="#IBMPlexSans-36" transform="translate(87.199982 0)"/>
      </g>
     </g>
    </g>
    <g id="ytick_14">
     <g id="line2d_27">
      <g>
       <use xlink:href="#m712e8b5bfd" x="505.958895" y="87.001168" style="fill: #ff0000; stroke: #ff0000; stroke-width: 0.8"/>
      </g>
     </g>
     <g id="text_27">
      <!-- 0.8 -->
      <g style="fill: #ff0000" transform="translate(512.958895 90.701168) scale(0.1 -0.1)">
       <use xlink:href="#IBMPlexSans-30"/>
       <use xlink:href="#IBMPlexSans-2e" transform="translate(59.999985 0)"/>
       <use xlink:href="#IBMPlexSans-38" transform="translate(87.199982 0)"/>
      </g>
     </g>
    </g>
    <g id="ytick_15">
     <g id="line2d_28">
      <g>
       <use xlink:href="#m712e8b5bfd" x="505.958895" y="41.160106" style="fill: #ff0000; stroke: #ff0000; stroke-width: 0.8"/>
      </g>
     </g>
     <g id="text_28">
      <!-- 1.0 -->
      <g style="fill: #ff0000" transform="translate(512.958895 44.860106) scale(0.1 -0.1)">
       <use xlink:href="#IBMPlexSans-31"/>
       <use xlink:href="#IBMPlexSans-2e" transform="translate(59.999985 0)"/>
       <use xlink:href="#IBMPlexSans-30" transform="translate(87.199982 0)"/>
      </g>
     </g>
    </g>
    <g id="text_29">
     <!-- Fitting weight -->
     <g style="fill: #d62728" transform="translate(539.079207 186.296354) rotate(-90) scale(0.1 -0.1)">
      <defs>
       <path id="IBMPlexSans-77" d="M 1082 0 
L 1702 0 
L 2163 1587 
L 2445 2592 
L 2458 2592 
L 2746 1587 
L 3206 0 
L 3840 0 
L 4717 3302 
L 4237 3302 
L 3878 1875 
L 3539 429 
L 3526 429 
L 3117 1875 
L 2688 3302 
L 2234 3302 
L 1818 1875 
L 1414 429 
L 1402 429 
L 1050 1875 
L 698 3302 
L 198 3302 
L 1082 0 
z
" transform="scale(0.015625)"/>
       <path id="IBMPlexSans-68" d="M 544 0 
L 1056 0 
L 1056 2291 
C 1056 2714 1453 2918 1862 2918 
C 2355 2918 2611 2618 2611 2029 
L 2611 0 
L 3123 0 
L 3123 2118 
C 3123 2918 2694 3379 2016 3379 
C 1523 3379 1242 3136 1082 2765 
L 1056 2765 
L 1056 4736 
L 544 4736 
L 544 0 
z
" transform="scale(0.015625)"/>
      </defs>
      <use xlink:href="#IBMPlexSans-46"/>
      <use xlink:href="#IBMPlexSans-69" transform="translate(55.899994 0)"/>
      <use xlink:href="#IBMPlexSans-74" transform="translate(80.899979 0)"/>
      <use xlink:href="#IBMPlexSans-74" transform="translate(115.999969 0)"/>
      <use xlink:href="#IBMPlexSans-69" transform="translate(151.09996 0)"/>
      <use xlink:href="#IBMPlexSans-6e" transform="translate(176.099945 0)"/>
      <use xlink:href="#IBMPlexSans-67" transform="translate(232.899933 0)"/>
      <use xlink:href="#IBMPlexSans-20" transform="translate(285.699921 0)"/>
      <use xlink:href="#IBMPlexSans-77" transform="translate(309.299911 0)"/>
      <use xlink:href="#IBMPlexSans-65" transform="translate(386.099899 0)"/>
      <use xlink:href="#IBMPlexSans-69" transform="translate(440.999893 0)"/>
      <use xlink:href="#IBMPlexSans-67" transform="translate(465.999878 0)"/>
      <use xlink:href="#IBMPlexSans-68" transform="translate(518.799866 0)"/>
      <use xlink:href="#IBMPlexSans-74" transform="translate(575.599854 0)"/>
     </g>
    </g>
   </g>
   <g id="line2d_29">
    <path d="M 38.429009 41.160106 
L 95.276485 41.270779 
L 103.397553 41.480158 
L 109.488354 41.809166 
L 115.579155 42.391993 
L 119.639689 42.985633 
L 123.700223 43.796936 
L 127.760757 44.876482 
L 131.821291 46.276666 
L 135.881825 48.04968 
L 139.942359 50.245907 
L 144.002893 52.912598 
L 148.063427 56.092331 
L 152.123961 59.82081 
L 156.184495 64.123884 
L 160.245029 69.014115 
L 164.305563 74.487555 
L 168.366097 80.521452 
L 172.426631 87.0735 
L 176.487165 94.082942 
L 180.547699 101.473496 
L 186.6385 113.080892 
L 206.94117 152.628226 
L 213.031971 163.785691 
L 219.122772 174.332538 
L 223.183306 180.987291 
L 227.24384 187.327139 
L 231.304374 193.347528 
L 235.364908 199.048577 
L 239.425442 204.433768 
L 243.485976 209.508907 
L 247.54651 214.28135 
L 251.607044 218.759475 
L 255.667578 222.952337 
L 259.728112 226.869469 
L 263.788646 230.52078 
L 267.84918 233.91651 
L 271.909715 237.067206 
L 275.970249 239.983711 
L 280.030783 242.677139 
L 284.091317 245.158834 
L 288.151851 247.440312 
L 292.212385 249.533192 
L 296.272919 251.449106 
L 302.36372 254.016403 
L 308.454521 256.249694 
L 314.545322 258.185678 
L 320.636123 259.858998 
L 326.726924 261.301824 
L 332.817725 262.543591 
L 340.938793 263.932033 
L 349.059861 265.06506 
L 357.180929 265.98923 
L 367.332264 266.909155 
L 379.513866 267.746538 
L 393.725735 268.454477 
L 409.967871 269.016803 
L 430.270541 269.477702 
L 456.664012 269.835378 
L 493.208818 270.0931 
L 501.329886 270.128916 
L 501.329886 270.128916 
" clip-path="url(#p93652aaa15)" style="fill: none; stroke-dasharray: 1.5,2.475; stroke-dashoffset: 0; stroke: #d62728; stroke-width: 1.5"/>
   </g>
   <g id="patch_7">
    <path d="M 33.8 274.94952 
L 33.8 36.576 
" style="fill: none; stroke: #000000; stroke-width: 0.8; stroke-linejoin: miter; stroke-linecap: square"/>
   </g>
   <g id="patch_8">
    <path d="M 505.958895 274.94952 
L 505.958895 36.576 
" style="fill: none; stroke: #ff0000; stroke-width: 0.8; stroke-linejoin: miter; stroke-linecap: square"/>
   </g>
   <g id="patch_9">
    <path d="M 33.8 274.94952 
L 505.958895 274.94952 
" style="fill: none; stroke: #000000; stroke-width: 0.8; stroke-linejoin: miter; stroke-linecap: square"/>
   </g>
  </g>
 </g>
 <defs>
  <clipPath id="p93652aaa15">
   <rect x="33.8" y="36.576" width="472.158895" height="238.37352"/>
  </clipPath>
 </defs>
</svg>