<?xml version="1.0" encoding="utf-8" standalone="no"?>
<!DOCTYPE svg PUBLIC "-//W3C//DTD SVG 1.1//EN"
  "http://www.w3.org/Graphics/SVG/1.1/DTD/svg11.dtd">
<svg xmlns:xlink="http://www.w3.org/1999/xlink" width="548.39952pt" height="312.14952pt" viewBox="0 0 548.39952 312.14952" xmlns="http://www.w3.org/2000/svg" version="1.1">
 <metadata>
  <rdf:RDF xmlns:dc="http://purl.org/dc/elements/1.1/" xmlns:cc="http://creativecommons.org/ns#" xmlns:rdf="http://www.w3.org/1999/02/22-rdf-syntax-ns#">
   <cc:Work>
    <dc:type rdf:resource="http://purl.org/dc/dcmitype/StillImage"/>
    <dc:date>2025-06-24T11:18:45.260530</dc:date>
    <dc:format>image/svg+xml</dc:format>
    <dc:creator>
     <cc:Agent>
      <dc:title>Matplotlib v3.10.1, https://matplotlib.org/</dc:title>
     </cc:Agent>
    </dc:creator>
   </cc:Work>
  </rdf:RDF>
 </metadata>
 <defs>
  <style type="text/css">*{stroke-linejoin: round; stroke-linecap: butt}</style>
 </defs>
 <g id="figure_1">
  <g id="patch_1">
   <path d="M 0 312.14952 
L 548.39952 312.14952 
L 548.39952 0 
L 0 0 
z
" style="fill: #ffffff"/>
  </g>
  <g id="axes_1">
   <g id="patch_2">
    <path d="M 48.640625 129.62452 
L 271.259676 129.62452 
L 271.259676 7.2 
L 48.640625 7.2 
z
" style="fill: #ffffff"/>
   </g>
   <g id="matplotlib.axis_1">
    <g id="xtick_1">
     <g id="line2d_1">
      <defs>
       <path id="mde7276000d" d="M 0 0 
L 0 2 
" style="stroke: #000000; stroke-width: 0.6"/>
      </defs>
      <g>
       <use xlink:href="#mde7276000d" x="117.099818" y="129.62452" style="stroke: #000000; stroke-width: 0.6"/>
      </g>
     </g>
     <g id="text_1">
      <!-- $\mathdefault{2\times10^{0}}$ -->
      <g transform="translate(100.849818 142.42452) scale(0.1 -0.1)">
       <defs>
        <path id="IBMPlexSans-32" d="M 3411 474 
L 1062 474 
L 2266 1555 
C 2835 2067 3245 2554 3245 3245 
C 3245 4006 2746 4544 1875 4544 
C 1011 4544 614 4019 442 3494 
L 922 3309 
C 1043 3731 1299 4064 1850 4064 
C 2400 4064 2675 3725 2675 3232 
L 2675 3155 
C 2675 2726 2355 2278 1939 1894 
L 480 550 
L 480 0 
L 3411 0 
L 3411 474 
z
" transform="scale(0.015625)"/>
        <path id="IBMPlexSans-d7" d="M 2938 595 
L 3251 909 
L 2234 1952 
L 3251 2995 
L 2938 3309 
L 1920 2266 
L 902 3309 
L 589 2995 
L 1606 1952 
L 589 909 
L 902 595 
L 1920 1638 
L 2938 595 
z
" transform="scale(0.015625)"/>
        <path id="IBMPlexSans-31" d="M 3501 0 
L 3501 474 
L 2349 474 
L 2349 4467 
L 1510 4467 
L 326 3360 
L 640 3021 
L 1766 4070 
L 1811 4070 
L 1811 474 
L 563 474 
L 563 0 
L 3501 0 
z
" transform="scale(0.015625)"/>
        <path id="IBMPlexSans-30" d="M 1920 -77 
C 2989 -77 3456 774 3456 2234 
C 3456 3693 2989 4544 1920 4544 
C 851 4544 384 3693 384 2234 
C 384 774 851 -77 1920 -77 
z
M 1920 390 
C 1222 390 947 1005 947 1869 
L 947 2598 
C 947 3462 1222 4077 1920 4077 
C 2618 4077 2893 3462 2893 2598 
L 2893 1869 
C 2893 1005 2618 390 1920 390 
z
" transform="scale(0.015625)"/>
       </defs>
       <use xlink:href="#IBMPlexSans-32" transform="translate(0 0.184375)"/>
       <use xlink:href="#IBMPlexSans-d7" transform="translate(79.482407 0.184375)"/>
       <use xlink:href="#IBMPlexSans-31" transform="translate(158.964813 0.184375)"/>
       <use xlink:href="#IBMPlexSans-30" transform="translate(218.964798 0.184375)"/>
       <use xlink:href="#IBMPlexSans-30" transform="translate(279.867673 36.3) scale(0.7)"/>
      </g>
     </g>
    </g>
    <g id="xtick_2">
     <g id="line2d_2">
      <g>
       <use xlink:href="#mde7276000d" x="179.620516" y="129.62452" style="stroke: #000000; stroke-width: 0.6"/>
      </g>
     </g>
     <g id="text_2">
      <!-- $\mathdefault{3\times10^{0}}$ -->
      <g transform="translate(163.370516 142.42452) scale(0.1 -0.1)">
       <defs>
        <path id="IBMPlexSans-33" d="M 1184 2573 
L 1184 2106 
L 1709 2106 
C 2336 2106 2669 1805 2669 1280 
L 2669 1229 
C 2669 704 2336 403 1709 403 
C 1165 403 902 640 672 992 
L 269 685 
C 544 301 941 -77 1715 -77 
C 2624 -77 3232 454 3232 1222 
C 3232 1894 2771 2253 2291 2349 
L 2291 2374 
C 2765 2496 3149 2842 3149 3418 
C 3149 4141 2547 4544 1792 4544 
C 1075 4544 685 4173 461 3814 
L 858 3507 
C 1043 3846 1318 4064 1779 4064 
C 2253 4064 2579 3827 2579 3360 
L 2579 3315 
C 2579 2886 2272 2573 1670 2573 
L 1184 2573 
z
" transform="scale(0.015625)"/>
       </defs>
       <use xlink:href="#IBMPlexSans-33" transform="translate(0 0.184375)"/>
       <use xlink:href="#IBMPlexSans-d7" transform="translate(79.482407 0.184375)"/>
       <use xlink:href="#IBMPlexSans-31" transform="translate(158.964813 0.184375)"/>
       <use xlink:href="#IBMPlexSans-30" transform="translate(218.964798 0.184375)"/>
       <use xlink:href="#IBMPlexSans-30" transform="translate(279.867673 36.3) scale(0.7)"/>
      </g>
     </g>
    </g>
    <g id="xtick_3">
     <g id="line2d_3">
      <g>
       <use xlink:href="#mde7276000d" x="223.979657" y="129.62452" style="stroke: #000000; stroke-width: 0.6"/>
      </g>
     </g>
     <g id="text_3">
      <!-- $\mathdefault{4\times10^{0}}$ -->
      <g transform="translate(207.729657 142.42452) scale(0.1 -0.1)">
       <defs>
        <path id="IBMPlexSans-34" d="M 2912 0 
L 2912 877 
L 3558 877 
L 3558 1325 
L 2912 1325 
L 2912 4467 
L 2112 4467 
L 243 1350 
L 243 877 
L 2400 877 
L 2400 0 
L 2912 0 
z
M 2368 4051 
L 2400 4051 
L 2400 1325 
L 749 1325 
L 2368 4051 
z
" transform="scale(0.015625)"/>
       </defs>
       <use xlink:href="#IBMPlexSans-34" transform="translate(0 0.184375)"/>
       <use xlink:href="#IBMPlexSans-d7" transform="translate(79.482407 0.184375)"/>
       <use xlink:href="#IBMPlexSans-31" transform="translate(158.964813 0.184375)"/>
       <use xlink:href="#IBMPlexSans-30" transform="translate(218.964798 0.184375)"/>
       <use xlink:href="#IBMPlexSans-30" transform="translate(279.867673 36.3) scale(0.7)"/>
      </g>
     </g>
    </g>
    <g id="xtick_4">
     <g id="line2d_4">
      <g>
       <use xlink:href="#mde7276000d" x="258.38728" y="129.62452" style="stroke: #000000; stroke-width: 0.6"/>
      </g>
     </g>
    </g>
   </g>
   <g id="matplotlib.axis_2">
    <g id="ytick_1">
     <g id="line2d_5">
      <defs>
       <path id="m1ce848c74d" d="M 0 0 
L -3.5 0 
" style="stroke: #000000; stroke-width: 0.8"/>
      </defs>
      <g>
       <use xlink:href="#m1ce848c74d" x="48.640625" y="124.059769" style="stroke: #000000; stroke-width: 0.8"/>
      </g>
     </g>
     <g id="text_4">
      <!-- 0.00 -->
      <g transform="translate(20.920313 127.759769) scale(0.1 -0.1)">
       <defs>
        <path id="IBMPlexSans-2e" d="M 870 -77 
C 1139 -77 1261 77 1261 294 
L 1261 378 
C 1261 595 1139 749 870 749 
C 602 749 480 595 480 378 
L 480 294 
C 480 77 602 -77 870 -77 
z
" transform="scale(0.015625)"/>
       </defs>
       <use xlink:href="#IBMPlexSans-30"/>
       <use xlink:href="#IBMPlexSans-2e" transform="translate(59.999985 0)"/>
       <use xlink:href="#IBMPlexSans-30" transform="translate(87.199982 0)"/>
       <use xlink:href="#IBMPlexSans-30" transform="translate(147.199966 0)"/>
      </g>
     </g>
    </g>
    <g id="ytick_2">
     <g id="line2d_6">
      <g>
       <use xlink:href="#m1ce848c74d" x="48.640625" y="88.512054" style="stroke: #000000; stroke-width: 0.8"/>
      </g>
     </g>
     <g id="text_5">
      <!-- 0.05 -->
      <g transform="translate(20.920313 92.212054) scale(0.1 -0.1)">
       <defs>
        <path id="IBMPlexSans-35" d="M 3187 4467 
L 794 4467 
L 634 2010 
L 1088 1946 
C 1274 2150 1478 2323 1888 2323 
C 2496 2323 2822 1984 2822 1395 
L 2822 1331 
C 2822 742 2496 403 1888 403 
C 1350 403 1126 640 896 992 
L 493 685 
C 762 301 1146 -77 1888 -77 
C 2829 -77 3392 531 3392 1402 
C 3392 2266 2829 2784 2061 2784 
C 1594 2784 1357 2592 1146 2291 
L 1101 2291 
L 1229 3994 
L 3187 3994 
L 3187 4467 
z
" transform="scale(0.015625)"/>
       </defs>
       <use xlink:href="#IBMPlexSans-30"/>
       <use xlink:href="#IBMPlexSans-2e" transform="translate(59.999985 0)"/>
       <use xlink:href="#IBMPlexSans-30" transform="translate(87.199982 0)"/>
       <use xlink:href="#IBMPlexSans-35" transform="translate(147.199966 0)"/>
      </g>
     </g>
    </g>
    <g id="ytick_3">
     <g id="line2d_7">
      <g>
       <use xlink:href="#m1ce848c74d" x="48.640625" y="52.96434" style="stroke: #000000; stroke-width: 0.8"/>
      </g>
     </g>
     <g id="text_6">
      <!-- 0.10 -->
      <g transform="translate(20.920313 56.66434) scale(0.1 -0.1)">
       <use xlink:href="#IBMPlexSans-30"/>
       <use xlink:href="#IBMPlexSans-2e" transform="translate(59.999985 0)"/>
       <use xlink:href="#IBMPlexSans-31" transform="translate(87.199982 0)"/>
       <use xlink:href="#IBMPlexSans-30" transform="translate(147.199966 0)"/>
      </g>
     </g>
    </g>
    <g id="ytick_4">
     <g id="line2d_8">
      <g>
       <use xlink:href="#m1ce848c74d" x="48.640625" y="17.416625" style="stroke: #000000; stroke-width: 0.8"/>
      </g>
     </g>
     <g id="text_7">
      <!-- 0.15 -->
      <g transform="translate(20.920313 21.116625) scale(0.1 -0.1)">
       <use xlink:href="#IBMPlexSans-30"/>
       <use xlink:href="#IBMPlexSans-2e" transform="translate(59.999985 0)"/>
       <use xlink:href="#IBMPlexSans-31" transform="translate(87.199982 0)"/>
       <use xlink:href="#IBMPlexSans-35" transform="translate(147.199966 0)"/>
      </g>
     </g>
    </g>
    <g id="text_8">
     <!-- cv2l(125%) weight -->
     <g transform="translate(14.8 110.981791) rotate(-90) scale(0.1 -0.1)">
      <defs>
       <path id="IBMPlexSans-63" d="M 1773 -77 
C 2400 -77 2829 230 3040 704 
L 2669 954 
C 2490 576 2189 378 1773 378 
C 1165 378 851 794 851 1370 
L 851 1933 
C 851 2509 1165 2925 1773 2925 
C 2176 2925 2458 2726 2579 2387 
L 3008 2605 
C 2816 3059 2426 3379 1773 3379 
C 845 3379 301 2707 301 1651 
C 301 595 845 -77 1773 -77 
z
" transform="scale(0.015625)"/>
       <path id="IBMPlexSans-76" d="M 1869 0 
L 3034 3302 
L 2541 3302 
L 1952 1664 
L 1594 538 
L 1562 538 
L 1203 1664 
L 627 3302 
L 115 3302 
L 1274 0 
L 1869 0 
z
" transform="scale(0.015625)"/>
       <path id="IBMPlexSans-6c" d="M 1542 0 
L 1542 448 
L 1056 448 
L 1056 4736 
L 544 4736 
L 544 531 
C 544 224 736 0 1088 0 
L 1542 0 
z
" transform="scale(0.015625)"/>
       <path id="IBMPlexSans-28" d="M 531 1997 
C 531 749 1056 -339 1690 -877 
L 2176 -877 
C 1485 -262 1011 819 1011 1715 
L 1011 2266 
C 1011 3162 1466 4224 2176 4864 
L 1690 4864 
C 1037 4307 531 3232 531 1997 
z
" transform="scale(0.015625)"/>
       <path id="IBMPlexSans-25" d="M 1664 0 
L 4762 4467 
L 4269 4467 
L 1171 0 
L 1664 0 
z
M 1427 2010 
C 2074 2010 2438 2458 2438 3277 
C 2438 4096 2074 4544 1427 4544 
C 781 4544 416 4096 416 3277 
C 416 2458 781 2010 1427 2010 
z
M 1427 2342 
C 1056 2342 877 2598 877 3085 
L 877 3469 
C 877 3955 1056 4211 1427 4211 
C 1798 4211 1978 3955 1978 3469 
L 1978 3085 
C 1978 2598 1798 2342 1427 2342 
z
M 4506 -77 
C 5152 -77 5517 371 5517 1190 
C 5517 2010 5152 2458 4506 2458 
C 3859 2458 3494 2010 3494 1190 
C 3494 371 3859 -77 4506 -77 
z
M 4506 256 
C 4134 256 3955 512 3955 998 
L 3955 1382 
C 3955 1869 4134 2125 4506 2125 
C 4877 2125 5056 1869 5056 1382 
L 5056 998 
C 5056 512 4877 256 4506 256 
z
" transform="scale(0.015625)"/>
       <path id="IBMPlexSans-29" d="M 1613 1997 
C 1613 3232 1107 4307 454 4864 
L -32 4864 
C 678 4224 1133 3162 1133 2266 
L 1133 1715 
C 1133 819 659 -262 -32 -877 
L 454 -877 
C 1088 -339 1613 749 1613 1997 
z
" transform="scale(0.015625)"/>
       <path id="IBMPlexSans-20" transform="scale(0.015625)"/>
       <path id="IBMPlexSans-77" d="M 1082 0 
L 1702 0 
L 2163 1587 
L 2445 2592 
L 2458 2592 
L 2746 1587 
L 3206 0 
L 3840 0 
L 4717 3302 
L 4237 3302 
L 3878 1875 
L 3539 429 
L 3526 429 
L 3117 1875 
L 2688 3302 
L 2234 3302 
L 1818 1875 
L 1414 429 
L 1402 429 
L 1050 1875 
L 698 3302 
L 198 3302 
L 1082 0 
z
" transform="scale(0.015625)"/>
       <path id="IBMPlexSans-65" d="M 1786 -77 
C 2406 -77 2880 230 3091 678 
L 2726 941 
C 2554 576 2234 371 1818 371 
C 1203 371 838 800 838 1370 
L 838 1523 
L 3213 1523 
L 3213 1766 
C 3213 2701 2669 3379 1786 3379 
C 890 3379 301 2701 301 1651 
C 301 602 890 -77 1786 -77 
z
M 1786 2950 
C 2310 2950 2662 2560 2662 1978 
L 2662 1907 
L 838 1907 
L 838 1952 
C 838 2528 1229 2950 1786 2950 
z
" transform="scale(0.015625)"/>
       <path id="IBMPlexSans-69" d="M 800 4077 
C 1018 4077 1114 4192 1114 4365 
L 1114 4448 
C 1114 4621 1018 4736 800 4736 
C 582 4736 486 4621 486 4448 
L 486 4365 
C 486 4192 582 4077 800 4077 
z
M 544 0 
L 1056 0 
L 1056 3302 
L 544 3302 
L 544 0 
z
" transform="scale(0.015625)"/>
       <path id="IBMPlexSans-67" d="M 3328 -365 
C 3328 179 2976 512 2157 512 
L 1453 512 
C 1152 512 947 563 947 762 
C 947 966 1165 1075 1382 1133 
C 1478 1114 1594 1101 1702 1101 
C 2458 1101 2950 1568 2950 2240 
C 2950 2592 2810 2886 2573 3091 
L 2573 3302 
L 3200 3302 
L 3200 3750 
L 2707 3750 
C 2432 3750 2323 3565 2323 3309 
L 2323 3251 
C 2144 3334 1933 3379 1696 3379 
C 947 3379 454 2912 454 2240 
C 454 1779 685 1414 1075 1229 
L 1075 1203 
C 742 1120 506 960 506 627 
C 506 403 614 256 800 166 
L 800 96 
C 474 6 275 -186 275 -544 
C 275 -1062 698 -1357 1728 -1357 
C 2790 -1357 3328 -1043 3328 -365 
z
M 2848 -403 
C 2848 -762 2515 -941 1946 -941 
L 1472 -941 
C 954 -941 755 -704 755 -416 
C 755 -211 851 -64 1062 32 
L 2163 32 
C 2675 32 2848 -141 2848 -403 
z
M 1702 1510 
C 1267 1510 992 1715 992 2150 
L 992 2330 
C 992 2765 1267 2970 1702 2970 
C 2138 2970 2413 2765 2413 2330 
L 2413 2150 
C 2413 1715 2138 1510 1702 1510 
z
" transform="scale(0.015625)"/>
       <path id="IBMPlexSans-68" d="M 544 0 
L 1056 0 
L 1056 2291 
C 1056 2714 1453 2918 1862 2918 
C 2355 2918 2611 2618 2611 2029 
L 2611 0 
L 3123 0 
L 3123 2118 
C 3123 2918 2694 3379 2016 3379 
C 1523 3379 1242 3136 1082 2765 
L 1056 2765 
L 1056 4736 
L 544 4736 
L 544 0 
z
" transform="scale(0.015625)"/>
       <path id="IBMPlexSans-74" d="M 1914 0 
L 1914 448 
L 1242 448 
L 1242 2854 
L 1965 2854 
L 1965 3302 
L 1242 3302 
L 1242 4218 
L 781 4218 
L 781 3603 
C 781 3379 710 3302 493 3302 
L 186 3302 
L 186 2854 
L 730 2854 
L 730 544 
C 730 224 922 0 1274 0 
L 1914 0 
z
" transform="scale(0.015625)"/>
      </defs>
      <use xlink:href="#IBMPlexSans-63"/>
      <use xlink:href="#IBMPlexSans-76" transform="translate(50.299988 0)"/>
      <use xlink:href="#IBMPlexSans-32" transform="translate(99.499985 0)"/>
      <use xlink:href="#IBMPlexSans-6c" transform="translate(159.499969 0)"/>
      <use xlink:href="#IBMPlexSans-28" transform="translate(186.699966 0)"/>
      <use xlink:href="#IBMPlexSans-31" transform="translate(220.199951 0)"/>
      <use xlink:href="#IBMPlexSans-32" transform="translate(280.199936 0)"/>
      <use xlink:href="#IBMPlexSans-35" transform="translate(340.199921 0)"/>
      <use xlink:href="#IBMPlexSans-25" transform="translate(400.199905 0)"/>
      <use xlink:href="#IBMPlexSans-29" transform="translate(492.899887 0)"/>
      <use xlink:href="#IBMPlexSans-20" transform="translate(526.399872 0)"/>
      <use xlink:href="#IBMPlexSans-77" transform="translate(549.999863 0)"/>
      <use xlink:href="#IBMPlexSans-65" transform="translate(626.79985 0)"/>
      <use xlink:href="#IBMPlexSans-69" transform="translate(681.699844 0)"/>
      <use xlink:href="#IBMPlexSans-67" transform="translate(706.699829 0)"/>
      <use xlink:href="#IBMPlexSans-68" transform="translate(759.499817 0)"/>
      <use xlink:href="#IBMPlexSans-74" transform="translate(816.299805 0)"/>
     </g>
    </g>
   </g>
   <g id="line2d_9">
    <path d="M 58.759673 119.240735 
L 68.396861 117.412374 
L 78.03405 115.491283 
L 87.671238 112.141069 
L 97.308426 103.290286 
L 106.945615 80.821777 
L 116.582803 41.686134 
L 126.219991 12.764751 
L 135.85718 22.881735 
L 145.494368 53.026759 
L 155.131556 72.822107 
L 164.768745 75.295515 
L 174.405933 70.672792 
L 184.043122 75.711034 
L 193.68031 90.692639 
L 203.317498 110.424294 
L 212.954687 123.687492 
L 222.591875 124.058775 
L 232.229063 124.059767 
L 241.866252 124.059769 
L 251.50344 124.059769 
L 261.140628 124.059769 
" clip-path="url(#pf634459367)" style="fill: none; stroke: #ff7f0e; stroke-width: 1.5; stroke-linecap: square"/>
   </g>
   <g id="patch_3">
    <path d="M 48.640625 129.62452 
L 48.640625 7.2 
" style="fill: none; stroke: #000000; stroke-width: 0.8; stroke-linejoin: miter; stroke-linecap: square"/>
   </g>
   <g id="patch_4">
    <path d="M 48.640625 129.62452 
L 271.259676 129.62452 
" style="fill: none; stroke: #000000; stroke-width: 0.8; stroke-linejoin: miter; stroke-linecap: square"/>
   </g>
  </g>
  <g id="axes_2">
   <g id="patch_5">
    <path d="M 318.580469 129.62452 
L 541.19952 129.62452 
L 541.19952 7.2 
L 318.580469 7.2 
z
" style="fill: #ffffff"/>
   </g>
   <g id="FillBetweenPolyCollection_1">
    <defs>
     <path id="m5f2d5bae44" d="M 328.699517 -267.41147 
L 328.699517 -188.089751 
L 338.336705 -189.719958 
L 347.973893 -191.370331 
L 357.611082 -192.903843 
L 367.24827 -194.263786 
L 376.885458 -195.473816 
L 386.522647 -196.722748 
L 396.159835 -198.178982 
L 405.797023 -200.069316 
L 415.434212 -202.271576 
L 425.0714 -204.851307 
L 434.708589 -207.640048 
L 444.345777 -210.394982 
L 453.982965 -213.143212 
L 463.620154 -215.605772 
L 473.257342 -217.913856 
L 482.89453 -220.10669 
L 492.531719 -222.698777 
L 502.168907 -225.723964 
L 511.806095 -229.444716 
L 521.443284 -234.728585 
L 531.080472 -242.342738 
L 531.080472 -299.384769 
L 531.080472 -299.384769 
L 521.443284 -292.220155 
L 511.806095 -287.588634 
L 502.168907 -284.582568 
L 492.531719 -282.304932 
L 482.89453 -280.480673 
L 473.257342 -279.053303 
L 463.620154 -277.511022 
L 453.982965 -275.814476 
L 444.345777 -273.843901 
L 434.708589 -271.901533 
L 425.0714 -269.991463 
L 415.434212 -268.387077 
L 405.797023 -267.295975 
L 396.159835 -266.612754 
L 386.522647 -266.48805 
L 376.885458 -266.664767 
L 367.24827 -266.873165 
L 357.611082 -266.987669 
L 347.973893 -267.026992 
L 338.336705 -267.066904 
L 328.699517 -267.41147 
z
"/>
    </defs>
    <g clip-path="url(#p01d962b729)">
     <use xlink:href="#m5f2d5bae44" x="0" y="312.14952" style="fill: #d62728; fill-opacity: 0.3"/>
    </g>
   </g>
   <g id="PathCollection_1">
    <defs>
     <path id="C0_0_e80b417901" d="M 0 2.738613 
C 0.726289 2.738613 1.422928 2.450055 1.936492 1.936492 
C 2.450055 1.422928 2.738613 0.726289 2.738613 -0 
C 2.738613 -0.726289 2.450055 -1.422928 1.936492 -1.936492 
C 1.422928 -2.450055 0.726289 -2.738613 0 -2.738613 
C -0.726289 -2.738613 -1.422928 -2.450055 -1.936492 -1.936492 
C -2.450055 -1.422928 -2.738613 -0.726289 -2.738613 0 
C -2.738613 0.726289 -2.450055 1.422928 -1.936492 1.936492 
C -1.422928 2.450055 -0.726289 2.738613 0 2.738613 
z
"/>
    </defs>
    <g clip-path="url(#p01d962b729)">
     <use xlink:href="#C0_0_e80b417901" x="328.699517" y="84.39891" style="fill: #fafafa"/>
    </g>
    <g clip-path="url(#p01d962b729)">
     <use xlink:href="#C0_0_e80b417901" x="338.336705" y="83.756089" style="fill: #f8f8f8"/>
    </g>
    <g clip-path="url(#p01d962b729)">
     <use xlink:href="#C0_0_e80b417901" x="347.973893" y="82.950859" style="fill: #f6f6f6"/>
    </g>
    <g clip-path="url(#p01d962b729)">
     <use xlink:href="#C0_0_e80b417901" x="357.611082" y="82.203764" style="fill: #f2f2f2"/>
    </g>
    <g clip-path="url(#p01d962b729)">
     <use xlink:href="#C0_0_e80b417901" x="367.24827" y="81.581044" style="fill: #e5e5e5"/>
    </g>
    <g clip-path="url(#p01d962b729)">
     <use xlink:href="#C0_0_e80b417901" x="376.885458" y="81.080228" style="fill: #b9b9b9"/>
    </g>
    <g clip-path="url(#p01d962b729)">
     <use xlink:href="#C0_0_e80b417901" x="386.522647" y="80.544121" style="fill: #545454"/>
    </g>
    <g clip-path="url(#p01d962b729)">
     <use xlink:href="#C0_0_e80b417901" x="396.159835" y="79.753652"/>
    </g>
    <g clip-path="url(#p01d962b729)">
     <use xlink:href="#C0_0_e80b417901" x="405.797023" y="78.466874" style="fill: #1b1b1b"/>
    </g>
    <g clip-path="url(#p01d962b729)">
     <use xlink:href="#C0_0_e80b417901" x="415.434212" y="76.820194" style="fill: #6f6f6f"/>
    </g>
    <g clip-path="url(#p01d962b729)">
     <use xlink:href="#C0_0_e80b417901" x="425.0714" y="74.728135" style="fill: #a3a3a3"/>
    </g>
    <g clip-path="url(#p01d962b729)">
     <use xlink:href="#C0_0_e80b417901" x="434.708589" y="72.37873" style="fill: #a9a9a9"/>
    </g>
    <g clip-path="url(#p01d962b729)">
     <use xlink:href="#C0_0_e80b417901" x="444.345777" y="70.030078" style="fill: #9d9d9d"/>
    </g>
    <g clip-path="url(#p01d962b729)">
     <use xlink:href="#C0_0_e80b417901" x="453.982965" y="67.670676" style="fill: #aaaaaa"/>
    </g>
    <g clip-path="url(#p01d962b729)">
     <use xlink:href="#C0_0_e80b417901" x="463.620154" y="65.591123" style="fill: #cecece"/>
    </g>
    <g clip-path="url(#p01d962b729)">
     <use xlink:href="#C0_0_e80b417901" x="473.257342" y="63.665941" style="fill: #f0f0f0"/>
    </g>
   </g>
   <g id="matplotlib.axis_3">
    <g id="xtick_5">
     <g id="line2d_10">
      <g>
       <use xlink:href="#mde7276000d" x="387.039661" y="129.62452" style="stroke: #000000; stroke-width: 0.6"/>
      </g>
     </g>
     <g id="text_9">
      <!-- $\mathdefault{2\times10^{0}}$ -->
      <g transform="translate(370.789661 142.42452) scale(0.1 -0.1)">
       <use xlink:href="#IBMPlexSans-32" transform="translate(0 0.184375)"/>
       <use xlink:href="#IBMPlexSans-d7" transform="translate(79.482407 0.184375)"/>
       <use xlink:href="#IBMPlexSans-31" transform="translate(158.964813 0.184375)"/>
       <use xlink:href="#IBMPlexSans-30" transform="translate(218.964798 0.184375)"/>
       <use xlink:href="#IBMPlexSans-30" transform="translate(279.867673 36.3) scale(0.7)"/>
      </g>
     </g>
    </g>
    <g id="xtick_6">
     <g id="line2d_11">
      <g>
       <use xlink:href="#mde7276000d" x="449.560359" y="129.62452" style="stroke: #000000; stroke-width: 0.6"/>
      </g>
     </g>
     <g id="text_10">
      <!-- $\mathdefault{3\times10^{0}}$ -->
      <g transform="translate(433.310359 142.42452) scale(0.1 -0.1)">
       <use xlink:href="#IBMPlexSans-33" transform="translate(0 0.184375)"/>
       <use xlink:href="#IBMPlexSans-d7" transform="translate(79.482407 0.184375)"/>
       <use xlink:href="#IBMPlexSans-31" transform="translate(158.964813 0.184375)"/>
       <use xlink:href="#IBMPlexSans-30" transform="translate(218.964798 0.184375)"/>
       <use xlink:href="#IBMPlexSans-30" transform="translate(279.867673 36.3) scale(0.7)"/>
      </g>
     </g>
    </g>
    <g id="xtick_7">
     <g id="line2d_12">
      <g>
       <use xlink:href="#mde7276000d" x="493.919501" y="129.62452" style="stroke: #000000; stroke-width: 0.6"/>
      </g>
     </g>
     <g id="text_11">
      <!-- $\mathdefault{4\times10^{0}}$ -->
      <g transform="translate(477.669501 142.42452) scale(0.1 -0.1)">
       <use xlink:href="#IBMPlexSans-34" transform="translate(0 0.184375)"/>
       <use xlink:href="#IBMPlexSans-d7" transform="translate(79.482407 0.184375)"/>
       <use xlink:href="#IBMPlexSans-31" transform="translate(158.964813 0.184375)"/>
       <use xlink:href="#IBMPlexSans-30" transform="translate(218.964798 0.184375)"/>
       <use xlink:href="#IBMPlexSans-30" transform="translate(279.867673 36.3) scale(0.7)"/>
      </g>
     </g>
    </g>
    <g id="xtick_8">
     <g id="line2d_13">
      <g>
       <use xlink:href="#mde7276000d" x="528.327124" y="129.62452" style="stroke: #000000; stroke-width: 0.6"/>
      </g>
     </g>
    </g>
   </g>
   <g id="matplotlib.axis_4">
    <g id="ytick_5">
     <g id="line2d_14">
      <g>
       <use xlink:href="#m1ce848c74d" x="318.580469" y="128.354824" style="stroke: #000000; stroke-width: 0.8"/>
      </g>
     </g>
     <g id="text_12">
      <!-- 6.6 -->
      <g transform="translate(296.860156 132.054824) scale(0.1 -0.1)">
       <defs>
        <path id="IBMPlexSans-36" d="M 1926 -77 
C 2822 -77 3411 525 3411 1402 
C 3411 2246 2861 2778 2093 2778 
C 1549 2778 1229 2502 1018 2138 
L 986 2150 
C 1229 3187 1760 3770 2714 4467 
L 2022 4467 
C 1306 4000 429 2963 429 1638 
C 429 576 998 -77 1926 -77 
z
M 1920 390 
C 1331 390 986 730 986 1331 
L 986 1382 
C 986 1984 1331 2323 1920 2323 
C 2509 2323 2854 1984 2854 1382 
L 2854 1331 
C 2854 730 2509 390 1920 390 
z
" transform="scale(0.015625)"/>
       </defs>
       <use xlink:href="#IBMPlexSans-36"/>
       <use xlink:href="#IBMPlexSans-2e" transform="translate(59.999985 0)"/>
       <use xlink:href="#IBMPlexSans-36" transform="translate(87.199982 0)"/>
      </g>
     </g>
    </g>
    <g id="ytick_6">
     <g id="line2d_15">
      <g>
       <use xlink:href="#m1ce848c74d" x="318.580469" y="106.345094" style="stroke: #000000; stroke-width: 0.8"/>
      </g>
     </g>
     <g id="text_13">
      <!-- 6.7 -->
      <g transform="translate(296.860156 110.045094) scale(0.1 -0.1)">
       <defs>
        <path id="IBMPlexSans-37" d="M 1696 0 
L 3373 3994 
L 3373 4467 
L 442 4467 
L 442 3174 
L 922 3174 
L 922 4006 
L 2829 4006 
L 1120 0 
L 1696 0 
z
" transform="scale(0.015625)"/>
       </defs>
       <use xlink:href="#IBMPlexSans-36"/>
       <use xlink:href="#IBMPlexSans-2e" transform="translate(59.999985 0)"/>
       <use xlink:href="#IBMPlexSans-37" transform="translate(87.199982 0)"/>
      </g>
     </g>
    </g>
    <g id="ytick_7">
     <g id="line2d_16">
      <g>
       <use xlink:href="#m1ce848c74d" x="318.580469" y="84.335364" style="stroke: #000000; stroke-width: 0.8"/>
      </g>
     </g>
     <g id="text_14">
      <!-- 6.8 -->
      <g transform="translate(296.860156 88.035364) scale(0.1 -0.1)">
       <defs>
        <path id="IBMPlexSans-38" d="M 1920 -77 
C 2938 -77 3469 480 3469 1216 
C 3469 1824 3104 2176 2566 2323 
L 2566 2374 
C 3034 2534 3334 2912 3334 3424 
C 3334 4102 2810 4544 1920 4544 
C 1030 4544 506 4102 506 3424 
C 506 2912 806 2534 1274 2374 
L 1274 2323 
C 736 2176 371 1824 371 1216 
C 371 480 902 -77 1920 -77 
z
M 1920 390 
C 1299 390 941 685 941 1190 
L 941 1325 
C 941 1830 1299 2125 1920 2125 
C 2541 2125 2899 1830 2899 1325 
L 2899 1190 
C 2899 685 2541 390 1920 390 
z
M 1920 2573 
C 1363 2573 1062 2822 1062 3277 
L 1062 3373 
C 1062 3827 1363 4077 1920 4077 
C 2477 4077 2778 3827 2778 3373 
L 2778 3277 
C 2778 2822 2477 2573 1920 2573 
z
" transform="scale(0.015625)"/>
       </defs>
       <use xlink:href="#IBMPlexSans-36"/>
       <use xlink:href="#IBMPlexSans-2e" transform="translate(59.999985 0)"/>
       <use xlink:href="#IBMPlexSans-38" transform="translate(87.199982 0)"/>
      </g>
     </g>
    </g>
    <g id="ytick_8">
     <g id="line2d_17">
      <g>
       <use xlink:href="#m1ce848c74d" x="318.580469" y="62.325634" style="stroke: #000000; stroke-width: 0.8"/>
      </g>
     </g>
     <g id="text_15">
      <!-- 6.9 -->
      <g transform="translate(296.860156 66.025634) scale(0.1 -0.1)">
       <defs>
        <path id="IBMPlexSans-39" d="M 3411 2829 
C 3411 3891 2842 4544 1914 4544 
C 1018 4544 429 3942 429 3066 
C 429 2221 979 1690 1747 1690 
C 2291 1690 2611 1965 2822 2330 
L 2854 2317 
C 2611 1280 2080 698 1126 0 
L 1818 0 
C 2534 467 3411 1504 3411 2829 
z
M 1920 2144 
C 1331 2144 986 2483 986 3085 
L 986 3136 
C 986 3738 1331 4077 1920 4077 
C 2509 4077 2854 3738 2854 3136 
L 2854 3085 
C 2854 2483 2509 2144 1920 2144 
z
" transform="scale(0.015625)"/>
       </defs>
       <use xlink:href="#IBMPlexSans-36"/>
       <use xlink:href="#IBMPlexSans-2e" transform="translate(59.999985 0)"/>
       <use xlink:href="#IBMPlexSans-39" transform="translate(87.199982 0)"/>
      </g>
     </g>
    </g>
    <g id="ytick_9">
     <g id="line2d_18">
      <g>
       <use xlink:href="#m1ce848c74d" x="318.580469" y="40.315904" style="stroke: #000000; stroke-width: 0.8"/>
      </g>
     </g>
     <g id="text_16">
      <!-- 7.0 -->
      <g transform="translate(296.860156 44.015904) scale(0.1 -0.1)">
       <use xlink:href="#IBMPlexSans-37"/>
       <use xlink:href="#IBMPlexSans-2e" transform="translate(59.999985 0)"/>
       <use xlink:href="#IBMPlexSans-30" transform="translate(87.199982 0)"/>
      </g>
     </g>
    </g>
    <g id="ytick_10">
     <g id="line2d_19">
      <g>
       <use xlink:href="#m1ce848c74d" x="318.580469" y="18.306173" style="stroke: #000000; stroke-width: 0.8"/>
      </g>
     </g>
     <g id="text_17">
      <!-- 7.1 -->
      <g transform="translate(296.860156 22.006173) scale(0.1 -0.1)">
       <use xlink:href="#IBMPlexSans-37"/>
       <use xlink:href="#IBMPlexSans-2e" transform="translate(59.999985 0)"/>
       <use xlink:href="#IBMPlexSans-31" transform="translate(87.199982 0)"/>
      </g>
     </g>
    </g>
    <g id="text_18">
     <!-- $κ$ (95% CI) [κ*] -->
     <g transform="translate(290.860156 102.06226) rotate(-90) scale(0.1 -0.1)">
      <defs>
       <path id="DejaVuSans-Oblique-3ba" d="M 938 3500 
L 1531 3500 
L 1247 2047 
L 3041 3500 
L 3741 3500 
L 2106 2181 
L 3275 0 
L 2572 0 
L 1628 1806 
L 1122 1403 
L 850 0 
L 256 0 
L 938 3500 
z
" transform="scale(0.015625)"/>
       <path id="IBMPlexSans-43" d="M 2170 -77 
C 2912 -77 3456 314 3738 941 
L 3309 1210 
C 3130 723 2739 403 2170 403 
C 1402 403 947 960 947 1875 
L 947 2541 
C 947 3456 1402 4064 2170 4064 
C 2720 4064 3091 3763 3270 3302 
L 3706 3565 
C 3424 4186 2912 4544 2170 4544 
C 1043 4544 371 3699 371 2208 
C 371 717 1043 -77 2170 -77 
z
" transform="scale(0.015625)"/>
       <path id="IBMPlexSans-49" d="M 2176 0 
L 2176 448 
L 1549 448 
L 1549 4019 
L 2176 4019 
L 2176 4467 
L 384 4467 
L 384 4019 
L 1011 4019 
L 1011 448 
L 384 448 
L 384 0 
L 2176 0 
z
" transform="scale(0.015625)"/>
       <path id="IBMPlexSans-5b" d="M 1645 -883 
L 1645 -480 
L 1037 -480 
L 1037 4461 
L 1645 4461 
L 1645 4864 
L 595 4864 
L 595 -883 
L 1645 -883 
z
" transform="scale(0.015625)"/>
       <path id="IBMPlexSans-3ba" d="M 2643 0 
L 3264 0 
L 1850 1894 
L 2739 2854 
L 3117 2854 
L 3117 3302 
L 2803 3302 
C 2624 3302 2509 3258 2381 3117 
L 1402 2061 
L 1082 1683 
L 1056 1683 
L 1056 3302 
L 544 3302 
L 544 0 
L 1056 0 
L 1056 1114 
L 1485 1574 
L 2643 0 
z
" transform="scale(0.015625)"/>
       <path id="IBMPlexSans-2a" d="M 1440 3270 
L 1965 2483 
L 2323 2746 
L 1741 3488 
L 2650 3738 
L 2509 4166 
L 1626 3840 
L 1664 4781 
L 1216 4781 
L 1254 3840 
L 371 4166 
L 230 3738 
L 1139 3488 
L 557 2746 
L 915 2483 
L 1440 3270 
z
" transform="scale(0.015625)"/>
       <path id="IBMPlexSans-5d" d="M 384 4864 
L 384 4461 
L 992 4461 
L 992 -480 
L 384 -480 
L 384 -883 
L 1434 -883 
L 1434 4864 
L 384 4864 
z
" transform="scale(0.015625)"/>
      </defs>
      <use xlink:href="#DejaVuSans-Oblique-3ba"/>
      <use xlink:href="#IBMPlexSans-20" transform="translate(58.935547 0)"/>
      <use xlink:href="#IBMPlexSans-28" transform="translate(82.535538 0)"/>
      <use xlink:href="#IBMPlexSans-39" transform="translate(116.035522 0)"/>
      <use xlink:href="#IBMPlexSans-35" transform="translate(176.035507 0)"/>
      <use xlink:href="#IBMPlexSans-25" transform="translate(236.035492 0)"/>
      <use xlink:href="#IBMPlexSans-20" transform="translate(328.735474 0)"/>
      <use xlink:href="#IBMPlexSans-43" transform="translate(352.335464 0)"/>
      <use xlink:href="#IBMPlexSans-49" transform="translate(414.435455 0)"/>
      <use xlink:href="#IBMPlexSans-29" transform="translate(454.43544 0)"/>
      <use xlink:href="#IBMPlexSans-20" transform="translate(487.935425 0)"/>
      <use xlink:href="#IBMPlexSans-5b" transform="translate(511.535416 0)"/>
      <use xlink:href="#IBMPlexSans-3ba" transform="translate(543.235413 0)"/>
      <use xlink:href="#IBMPlexSans-2a" transform="translate(595.93541 0)"/>
      <use xlink:href="#IBMPlexSans-5d" transform="translate(640.935394 0)"/>
     </g>
    </g>
   </g>
   <g id="line2d_20">
    <path d="M 328.699517 84.39891 
L 338.336705 83.756089 
L 347.973893 82.950859 
L 357.611082 82.203764 
L 367.24827 81.581044 
L 376.885458 81.080228 
L 386.522647 80.544121 
L 396.159835 79.753652 
L 405.797023 78.466874 
L 415.434212 76.820194 
L 425.0714 74.728135 
L 434.708589 72.37873 
L 444.345777 70.030078 
L 453.982965 67.670676 
L 463.620154 65.591123 
L 473.257342 63.665941 
L 482.89453 61.855839 
L 492.531719 59.647666 
L 502.168907 56.996254 
L 511.806095 53.632845 
L 521.443284 48.67515 
L 531.080472 41.285767 
" clip-path="url(#p01d962b729)" style="fill: none; stroke: #d62728; stroke-width: 1.5; stroke-linecap: square"/>
   </g>
   <g id="patch_6">
    <path d="M 318.580469 129.62452 
L 318.580469 7.2 
" style="fill: none; stroke: #000000; stroke-width: 0.8; stroke-linejoin: miter; stroke-linecap: square"/>
   </g>
   <g id="patch_7">
    <path d="M 318.580469 129.62452 
L 541.19952 129.62452 
" style="fill: none; stroke: #000000; stroke-width: 0.8; stroke-linejoin: miter; stroke-linecap: square"/>
   </g>
  </g>
  <g id="axes_3">
   <g id="patch_8">
    <path d="M 48.640625 276.54952 
L 271.259676 276.54952 
L 271.259676 154.125 
L 48.640625 154.125 
z
" style="fill: #ffffff"/>
   </g>
   <g id="matplotlib.axis_5">
    <g id="xtick_9">
     <g id="line2d_21">
      <g>
       <use xlink:href="#mde7276000d" x="117.099818" y="276.54952" style="stroke: #000000; stroke-width: 0.6"/>
      </g>
     </g>
     <g id="text_19">
      <!-- $\mathdefault{2\times10^{0}}$ -->
      <g transform="translate(100.849818 289.34952) scale(0.1 -0.1)">
       <use xlink:href="#IBMPlexSans-32" transform="translate(0 0.184375)"/>
       <use xlink:href="#IBMPlexSans-d7" transform="translate(79.482407 0.184375)"/>
       <use xlink:href="#IBMPlexSans-31" transform="translate(158.964813 0.184375)"/>
       <use xlink:href="#IBMPlexSans-30" transform="translate(218.964798 0.184375)"/>
       <use xlink:href="#IBMPlexSans-30" transform="translate(279.867673 36.3) scale(0.7)"/>
      </g>
     </g>
    </g>
    <g id="xtick_10">
     <g id="line2d_22">
      <g>
       <use xlink:href="#mde7276000d" x="179.620516" y="276.54952" style="stroke: #000000; stroke-width: 0.6"/>
      </g>
     </g>
     <g id="text_20">
      <!-- $\mathdefault{3\times10^{0}}$ -->
      <g transform="translate(163.370516 289.34952) scale(0.1 -0.1)">
       <use xlink:href="#IBMPlexSans-33" transform="translate(0 0.184375)"/>
       <use xlink:href="#IBMPlexSans-d7" transform="translate(79.482407 0.184375)"/>
       <use xlink:href="#IBMPlexSans-31" transform="translate(158.964813 0.184375)"/>
       <use xlink:href="#IBMPlexSans-30" transform="translate(218.964798 0.184375)"/>
       <use xlink:href="#IBMPlexSans-30" transform="translate(279.867673 36.3) scale(0.7)"/>
      </g>
     </g>
    </g>
    <g id="xtick_11">
     <g id="line2d_23">
      <g>
       <use xlink:href="#mde7276000d" x="223.979657" y="276.54952" style="stroke: #000000; stroke-width: 0.6"/>
      </g>
     </g>
     <g id="text_21">
      <!-- $\mathdefault{4\times10^{0}}$ -->
      <g transform="translate(207.729657 289.34952) scale(0.1 -0.1)">
       <use xlink:href="#IBMPlexSans-34" transform="translate(0 0.184375)"/>
       <use xlink:href="#IBMPlexSans-d7" transform="translate(79.482407 0.184375)"/>
       <use xlink:href="#IBMPlexSans-31" transform="translate(158.964813 0.184375)"/>
       <use xlink:href="#IBMPlexSans-30" transform="translate(218.964798 0.184375)"/>
       <use xlink:href="#IBMPlexSans-30" transform="translate(279.867673 36.3) scale(0.7)"/>
      </g>
     </g>
    </g>
    <g id="xtick_12">
     <g id="line2d_24">
      <g>
       <use xlink:href="#mde7276000d" x="258.38728" y="276.54952" style="stroke: #000000; stroke-width: 0.6"/>
      </g>
     </g>
    </g>
    <g id="text_22">
     <!-- Cutoff frequency [1/τ*] -->
     <g transform="translate(108.594682 302.94952) scale(0.1 -0.1)">
      <defs>
       <path id="IBMPlexSans-75" d="M 2579 0 
L 3091 0 
L 3091 3302 
L 2579 3302 
L 2579 1018 
C 2579 582 2182 384 1779 384 
C 1286 384 1024 685 1024 1274 
L 1024 3302 
L 512 3302 
L 512 1184 
C 512 384 947 -77 1626 -77 
C 2176 -77 2426 224 2554 538 
L 2579 538 
L 2579 0 
z
" transform="scale(0.015625)"/>
       <path id="IBMPlexSans-6f" d="M 1792 -77 
C 2675 -77 3283 602 3283 1651 
C 3283 2701 2675 3379 1792 3379 
C 909 3379 301 2701 301 1651 
C 301 602 909 -77 1792 -77 
z
M 1792 378 
C 1242 378 851 717 851 1414 
L 851 1888 
C 851 2586 1242 2925 1792 2925 
C 2342 2925 2733 2586 2733 1888 
L 2733 1414 
C 2733 717 2342 378 1792 378 
z
" transform="scale(0.015625)"/>
       <path id="IBMPlexSans-66" d="M 723 0 
L 1235 0 
L 1235 2854 
L 1946 2854 
L 1946 3302 
L 1235 3302 
L 1235 4288 
L 1946 4288 
L 1946 4736 
L 1446 4736 
C 960 4736 723 4422 723 3968 
L 723 3302 
L 186 3302 
L 186 2854 
L 723 2854 
L 723 0 
z
" transform="scale(0.015625)"/>
       <path id="IBMPlexSans-72" d="M 1056 0 
L 1056 2240 
C 1056 2554 1389 2790 1939 2790 
L 2240 2790 
L 2240 3302 
L 2042 3302 
C 1504 3302 1203 3008 1088 2694 
L 1056 2694 
L 1056 3302 
L 544 3302 
L 544 0 
L 1056 0 
z
" transform="scale(0.015625)"/>
       <path id="IBMPlexSans-71" d="M 2656 -1280 
L 3168 -1280 
L 3168 3302 
L 2656 3302 
L 2656 2765 
L 2630 2765 
C 2458 3181 2118 3379 1664 3379 
C 838 3379 320 2707 320 1651 
C 320 595 838 -77 1664 -77 
C 2118 -77 2432 128 2630 538 
L 2656 538 
L 2656 -1280 
z
M 1805 384 
C 1229 384 870 781 870 1370 
L 870 1933 
C 870 2522 1229 2918 1805 2918 
C 2272 2918 2656 2650 2656 2285 
L 2656 1056 
C 2656 627 2272 384 1805 384 
z
" transform="scale(0.015625)"/>
       <path id="IBMPlexSans-6e" d="M 1056 0 
L 1056 2291 
C 1056 2714 1453 2918 1862 2918 
C 2355 2918 2611 2618 2611 2029 
L 2611 0 
L 3123 0 
L 3123 2118 
C 3123 2918 2694 3379 2016 3379 
C 1523 3379 1242 3136 1082 2765 
L 1056 2765 
L 1056 3302 
L 544 3302 
L 544 0 
L 1056 0 
z
" transform="scale(0.015625)"/>
       <path id="IBMPlexSans-79" d="M 1779 1056 
L 1600 518 
L 1568 518 
L 1414 1056 
L 621 3302 
L 109 3302 
L 1344 -128 
L 1094 -832 
L 576 -832 
L 576 -1280 
L 838 -1280 
C 1325 -1280 1459 -1165 1606 -768 
L 3085 3302 
L 2579 3302 
L 1779 1056 
z
" transform="scale(0.015625)"/>
       <path id="IBMPlexSans-2f" d="M 518 -966 
L 2189 4736 
L 1728 4736 
L 58 -966 
L 518 -966 
z
" transform="scale(0.015625)"/>
       <path id="IBMPlexSans-3c4" d="M 2451 0 
L 2451 448 
L 1715 448 
L 1715 2854 
L 2848 2854 
L 2848 3302 
L 128 3302 
L 128 2854 
L 1203 2854 
L 1203 544 
C 1203 224 1395 0 1747 0 
L 2451 0 
z
" transform="scale(0.015625)"/>
      </defs>
      <use xlink:href="#IBMPlexSans-43"/>
      <use xlink:href="#IBMPlexSans-75" transform="translate(62.099991 0)"/>
      <use xlink:href="#IBMPlexSans-74" transform="translate(118.899979 0)"/>
      <use xlink:href="#IBMPlexSans-6f" transform="translate(153.999969 0)"/>
      <use xlink:href="#IBMPlexSans-66" transform="translate(209.999954 0)"/>
      <use xlink:href="#IBMPlexSans-66" transform="translate(242.399948 0)"/>
      <use xlink:href="#IBMPlexSans-20" transform="translate(274.799942 0)"/>
      <use xlink:href="#IBMPlexSans-66" transform="translate(298.399933 0)"/>
      <use xlink:href="#IBMPlexSans-72" transform="translate(330.799927 0)"/>
      <use xlink:href="#IBMPlexSans-65" transform="translate(367.499924 0)"/>
      <use xlink:href="#IBMPlexSans-71" transform="translate(422.399918 0)"/>
      <use xlink:href="#IBMPlexSans-75" transform="translate(480.399902 0)"/>
      <use xlink:href="#IBMPlexSans-65" transform="translate(537.19989 0)"/>
      <use xlink:href="#IBMPlexSans-6e" transform="translate(592.099884 0)"/>
      <use xlink:href="#IBMPlexSans-63" transform="translate(648.899872 0)"/>
      <use xlink:href="#IBMPlexSans-79" transform="translate(699.19986 0)"/>
      <use xlink:href="#IBMPlexSans-20" transform="translate(749.099854 0)"/>
      <use xlink:href="#IBMPlexSans-5b" transform="translate(772.699844 0)"/>
      <use xlink:href="#IBMPlexSans-31" transform="translate(804.399841 0)"/>
      <use xlink:href="#IBMPlexSans-2f" transform="translate(864.399826 0)"/>
      <use xlink:href="#IBMPlexSans-3c4" transform="translate(902.699814 0)"/>
      <use xlink:href="#IBMPlexSans-2a" transform="translate(950.399811 0)"/>
      <use xlink:href="#IBMPlexSans-5d" transform="translate(995.399796 0)"/>
     </g>
    </g>
   </g>
   <g id="matplotlib.axis_6">
    <g id="ytick_11">
     <g id="line2d_25">
      <g>
       <use xlink:href="#m1ce848c74d" x="48.640625" y="271.840885" style="stroke: #000000; stroke-width: 0.8"/>
      </g>
     </g>
     <g id="text_23">
      <!-- −1 -->
      <g transform="translate(29.640625 275.540885) scale(0.1 -0.1)">
       <defs>
        <path id="IBMPlexSans-2212" d="M 3411 1734 
L 3411 2170 
L 429 2170 
L 429 1734 
L 3411 1734 
z
" transform="scale(0.015625)"/>
       </defs>
       <use xlink:href="#IBMPlexSans-2212"/>
       <use xlink:href="#IBMPlexSans-31" transform="translate(59.999985 0)"/>
      </g>
     </g>
    </g>
    <g id="ytick_12">
     <g id="line2d_26">
      <g>
       <use xlink:href="#m1ce848c74d" x="48.640625" y="248.297708" style="stroke: #000000; stroke-width: 0.8"/>
      </g>
     </g>
     <g id="text_24">
      <!-- 0 -->
      <g transform="translate(35.640625 251.997708) scale(0.1 -0.1)">
       <use xlink:href="#IBMPlexSans-30"/>
      </g>
     </g>
    </g>
    <g id="ytick_13">
     <g id="line2d_27">
      <g>
       <use xlink:href="#m1ce848c74d" x="48.640625" y="224.754531" style="stroke: #000000; stroke-width: 0.8"/>
      </g>
     </g>
     <g id="text_25">
      <!-- 1 -->
      <g transform="translate(35.640625 228.454531) scale(0.1 -0.1)">
       <use xlink:href="#IBMPlexSans-31"/>
      </g>
     </g>
    </g>
    <g id="ytick_14">
     <g id="line2d_28">
      <g>
       <use xlink:href="#m1ce848c74d" x="48.640625" y="201.211354" style="stroke: #000000; stroke-width: 0.8"/>
      </g>
     </g>
     <g id="text_26">
      <!-- 2 -->
      <g transform="translate(35.640625 204.911354) scale(0.1 -0.1)">
       <use xlink:href="#IBMPlexSans-32"/>
      </g>
     </g>
    </g>
    <g id="ytick_15">
     <g id="line2d_29">
      <g>
       <use xlink:href="#m1ce848c74d" x="48.640625" y="177.668177" style="stroke: #000000; stroke-width: 0.8"/>
      </g>
     </g>
     <g id="text_27">
      <!-- 3 -->
      <g transform="translate(35.640625 181.368177) scale(0.1 -0.1)">
       <use xlink:href="#IBMPlexSans-33"/>
      </g>
     </g>
    </g>
    <g id="ytick_16">
     <g id="line2d_30">
      <g>
       <use xlink:href="#m1ce848c74d" x="48.640625" y="154.125" style="stroke: #000000; stroke-width: 0.8"/>
      </g>
     </g>
     <g id="text_28">
      <!-- 4 -->
      <g transform="translate(35.640625 157.825) scale(0.1 -0.1)">
       <use xlink:href="#IBMPlexSans-34"/>
      </g>
     </g>
    </g>
    <g id="text_29">
     <!-- Z-score -->
     <g transform="translate(23.640625 232.563041) rotate(-90) scale(0.1 -0.1)">
      <defs>
       <path id="IBMPlexSans-5a" d="M 3482 474 
L 806 474 
L 3392 3981 
L 3392 4467 
L 365 4467 
L 365 3994 
L 2810 3994 
L 230 486 
L 230 0 
L 3482 0 
L 3482 474 
z
" transform="scale(0.015625)"/>
       <path id="IBMPlexSans-2d" d="M 2112 1670 
L 2112 2221 
L 442 2221 
L 442 1670 
L 2112 1670 
z
" transform="scale(0.015625)"/>
       <path id="IBMPlexSans-73" d="M 1536 -77 
C 2291 -77 2758 314 2758 954 
C 2758 1453 2477 1773 1747 1882 
L 1491 1920 
C 1082 1984 858 2112 858 2432 
C 858 2746 1082 2944 1504 2944 
C 1926 2944 2208 2746 2355 2541 
L 2694 2848 
C 2426 3181 2074 3379 1542 3379 
C 870 3379 365 3059 365 2406 
C 365 1792 819 1542 1427 1453 
L 1690 1414 
C 2125 1350 2266 1152 2266 896 
C 2266 557 2010 358 1574 358 
C 1158 358 851 544 595 864 
L 230 570 
C 525 179 928 -77 1536 -77 
z
" transform="scale(0.015625)"/>
      </defs>
      <use xlink:href="#IBMPlexSans-5a"/>
      <use xlink:href="#IBMPlexSans-2d" transform="translate(57.999985 0)"/>
      <use xlink:href="#IBMPlexSans-73" transform="translate(97.899979 0)"/>
      <use xlink:href="#IBMPlexSans-63" transform="translate(146.599976 0)"/>
      <use xlink:href="#IBMPlexSans-6f" transform="translate(196.899963 0)"/>
      <use xlink:href="#IBMPlexSans-72" transform="translate(252.899948 0)"/>
      <use xlink:href="#IBMPlexSans-65" transform="translate(289.599945 0)"/>
     </g>
    </g>
   </g>
   <g id="line2d_31">
    <path d="M 58.759673 224.117797 
L 68.396861 223.993711 
L 78.03405 224.466255 
L 87.671238 225.579289 
L 97.308426 227.149492 
L 106.945615 228.943623 
L 116.582803 230.719933 
L 126.219991 232.195591 
L 135.85718 233.07263 
L 145.494368 233.264458 
L 155.131556 232.566763 
L 164.768745 231.108112 
L 174.405933 229.227827 
L 184.043122 227.20432 
L 193.68031 225.615102 
L 203.317498 224.661064 
L 212.954687 224.443679 
L 222.591875 224.581285 
L 232.229063 224.88335 
L 241.866252 224.699025 
L 251.50344 221.987391 
L 261.140628 212.984382 
" clip-path="url(#p92bb35d655)" style="fill: none; stroke: #1f77b4; stroke-width: 1.5; stroke-linecap: square"/>
   </g>
   <g id="line2d_32">
    <path d="M 58.759673 229.464333 
L 68.396861 229.51114 
L 78.03405 228.633599 
L 87.671238 229.373251 
L 97.308426 234.586651 
L 106.945615 243.1901 
L 116.582803 250.087286 
L 126.219991 250.474432 
L 135.85718 243.510645 
L 145.494368 231.778993 
L 155.131556 220.774596 
L 164.768745 215.354724 
L 174.405933 212.561728 
L 184.043122 206.107152 
L 193.68031 193.875129 
L 203.317498 169.927824 
L 212.954687 82.115576 
L 217.303352 -1 
" clip-path="url(#p92bb35d655)" style="fill: none; stroke: #2ca02c; stroke-width: 1.5; stroke-linecap: square"/>
   </g>
   <g id="line2d_33">
    <path d="M 48.640625 248.297708 
L 271.259676 248.297708 
" clip-path="url(#p92bb35d655)" style="fill: none; stroke-dasharray: 5.55,2.4; stroke-dashoffset: 0; stroke: #000000; stroke-width: 1.5"/>
   </g>
   <g id="line2d_34">
    <path d="M 48.640625 201.211354 
L 271.259676 201.211354 
" clip-path="url(#p92bb35d655)" style="fill: none; stroke-dasharray: 5.55,2.4; stroke-dashoffset: 0; stroke: #000000; stroke-width: 1.5"/>
   </g>
   <g id="patch_9">
    <path d="M 48.640625 276.54952 
L 48.640625 154.125 
" style="fill: none; stroke: #000000; stroke-width: 0.8; stroke-linejoin: miter; stroke-linecap: square"/>
   </g>
   <g id="patch_10">
    <path d="M 48.640625 276.54952 
L 271.259676 276.54952 
" style="fill: none; stroke: #000000; stroke-width: 0.8; stroke-linejoin: miter; stroke-linecap: square"/>
   </g>
   <g id="legend_1">
    <g id="patch_11">
     <path d="M 55.640625 190.925 
L 126.470313 190.925 
Q 128.470313 190.925 128.470313 188.925 
L 128.470313 161.125 
Q 128.470313 159.125 126.470313 159.125 
L 55.640625 159.125 
Q 53.640625 159.125 53.640625 161.125 
L 53.640625 188.925 
Q 53.640625 190.925 55.640625 190.925 
z
" style="fill: #ffffff; opacity: 0.8; stroke: #cccccc; stroke-linejoin: miter"/>
    </g>
    <g id="line2d_35">
     <path d="M 57.640625 167.025 
L 67.640625 167.025 
L 77.640625 167.025 
" style="fill: none; stroke: #1f77b4; stroke-width: 1.5; stroke-linecap: square"/>
    </g>
    <g id="text_30">
     <!-- Cost -->
     <g transform="translate(85.640625 170.525) scale(0.1 -0.1)">
      <use xlink:href="#IBMPlexSans-43"/>
      <use xlink:href="#IBMPlexSans-6f" transform="translate(62.099991 0)"/>
      <use xlink:href="#IBMPlexSans-73" transform="translate(118.099976 0)"/>
      <use xlink:href="#IBMPlexSans-74" transform="translate(166.799973 0)"/>
     </g>
    </g>
    <g id="line2d_36">
     <path d="M 57.640625 181.425 
L 67.640625 181.425 
L 77.640625 181.425 
" style="fill: none; stroke: #2ca02c; stroke-width: 1.5; stroke-linecap: square"/>
    </g>
    <g id="text_31">
     <!-- Criterion -->
     <g transform="translate(85.640625 184.925) scale(0.1 -0.1)">
      <use xlink:href="#IBMPlexSans-43"/>
      <use xlink:href="#IBMPlexSans-72" transform="translate(62.099991 0)"/>
      <use xlink:href="#IBMPlexSans-69" transform="translate(98.799988 0)"/>
      <use xlink:href="#IBMPlexSans-74" transform="translate(123.799973 0)"/>
      <use xlink:href="#IBMPlexSans-65" transform="translate(158.899963 0)"/>
      <use xlink:href="#IBMPlexSans-72" transform="translate(213.799957 0)"/>
      <use xlink:href="#IBMPlexSans-69" transform="translate(250.499954 0)"/>
      <use xlink:href="#IBMPlexSans-6f" transform="translate(275.499939 0)"/>
      <use xlink:href="#IBMPlexSans-6e" transform="translate(331.499924 0)"/>
     </g>
    </g>
   </g>
  </g>
  <g id="axes_4">
   <g id="patch_12">
    <path d="M 318.580469 276.54952 
L 541.19952 276.54952 
L 541.19952 154.125 
L 318.580469 154.125 
z
" style="fill: #ffffff"/>
   </g>
   <g id="PathCollection_2">
    <defs>
     <path id="C1_0_d5156e17a1" d="M 0 2.738613 
C 0.726289 2.738613 1.422928 2.450055 1.936492 1.936492 
C 2.450055 1.422928 2.738613 0.726289 2.738613 -0 
C 2.738613 -0.726289 2.450055 -1.422928 1.936492 -1.936492 
C 1.422928 -2.450055 0.726289 -2.738613 0 -2.738613 
C -0.726289 -2.738613 -1.422928 -2.450055 -1.936492 -1.936492 
C -2.450055 -1.422928 -2.738613 -0.726289 -2.738613 0 
C -2.738613 0.726289 -2.450055 1.422928 -1.936492 1.936492 
C -1.422928 2.450055 -0.726289 2.738613 0 2.738613 
z
"/>
    </defs>
    <g clip-path="url(#p10cf640031)">
     <use xlink:href="#C1_0_d5156e17a1" x="328.699517" y="270.984769" style="fill: #fafafa"/>
    </g>
    <g clip-path="url(#p10cf640031)">
     <use xlink:href="#C1_0_d5156e17a1" x="338.336705" y="267.069245" style="fill: #f8f8f8"/>
    </g>
    <g clip-path="url(#p10cf640031)">
     <use xlink:href="#C1_0_d5156e17a1" x="347.973893" y="263.950189" style="fill: #f6f6f6"/>
    </g>
    <g clip-path="url(#p10cf640031)">
     <use xlink:href="#C1_0_d5156e17a1" x="357.611082" y="261.120004" style="fill: #f2f2f2"/>
    </g>
    <g clip-path="url(#p10cf640031)">
     <use xlink:href="#C1_0_d5156e17a1" x="367.24827" y="258.613865" style="fill: #e5e5e5"/>
    </g>
    <g clip-path="url(#p10cf640031)">
     <use xlink:href="#C1_0_d5156e17a1" x="376.885458" y="256.274667" style="fill: #b9b9b9"/>
    </g>
    <g clip-path="url(#p10cf640031)">
     <use xlink:href="#C1_0_d5156e17a1" x="386.522647" y="253.747177" style="fill: #545454"/>
    </g>
    <g clip-path="url(#p10cf640031)">
     <use xlink:href="#C1_0_d5156e17a1" x="396.159835" y="251.428753"/>
    </g>
    <g clip-path="url(#p10cf640031)">
     <use xlink:href="#C1_0_d5156e17a1" x="405.797023" y="249.384536" style="fill: #1b1b1b"/>
    </g>
    <g clip-path="url(#p10cf640031)">
     <use xlink:href="#C1_0_d5156e17a1" x="415.434212" y="247.521259" style="fill: #6f6f6f"/>
    </g>
    <g clip-path="url(#p10cf640031)">
     <use xlink:href="#C1_0_d5156e17a1" x="425.0714" y="246.050489" style="fill: #a3a3a3"/>
    </g>
    <g clip-path="url(#p10cf640031)">
     <use xlink:href="#C1_0_d5156e17a1" x="434.708589" y="244.869946" style="fill: #a9a9a9"/>
    </g>
    <g clip-path="url(#p10cf640031)">
     <use xlink:href="#C1_0_d5156e17a1" x="444.345777" y="243.943055" style="fill: #9d9d9d"/>
    </g>
    <g clip-path="url(#p10cf640031)">
     <use xlink:href="#C1_0_d5156e17a1" x="453.982965" y="243.150992" style="fill: #aaaaaa"/>
    </g>
    <g clip-path="url(#p10cf640031)">
     <use xlink:href="#C1_0_d5156e17a1" x="463.620154" y="242.488053" style="fill: #cecece"/>
    </g>
    <g clip-path="url(#p10cf640031)">
     <use xlink:href="#C1_0_d5156e17a1" x="473.257342" y="241.887652" style="fill: #f0f0f0"/>
    </g>
   </g>
   <g id="PathCollection_3">
    <defs>
     <path id="C2_0_fcb35d453e" d="M 0 2.738613 
C 0.726289 2.738613 1.422928 2.450055 1.936492 1.936492 
C 2.450055 1.422928 2.738613 0.726289 2.738613 -0 
C 2.738613 -0.726289 2.450055 -1.422928 1.936492 -1.936492 
C 1.422928 -2.450055 0.726289 -2.738613 0 -2.738613 
C -0.726289 -2.738613 -1.422928 -2.450055 -1.936492 -1.936492 
C -2.450055 -1.422928 -2.738613 -0.726289 -2.738613 0 
C -2.738613 0.726289 -2.450055 1.422928 -1.936492 1.936492 
C -1.422928 2.450055 -0.726289 2.738613 0 2.738613 
z
"/>
    </defs>
    <g clip-path="url(#p10cf640031)">
     <use xlink:href="#C2_0_fcb35d453e" x="328.699517" y="205.679309" style="fill: #fafafa"/>
    </g>
    <g clip-path="url(#p10cf640031)">
     <use xlink:href="#C2_0_fcb35d453e" x="338.336705" y="205.922658" style="fill: #f8f8f8"/>
    </g>
    <g clip-path="url(#p10cf640031)">
     <use xlink:href="#C2_0_fcb35d453e" x="347.973893" y="206.174301" style="fill: #f6f6f6"/>
    </g>
    <g clip-path="url(#p10cf640031)">
     <use xlink:href="#C2_0_fcb35d453e" x="357.611082" y="206.415683" style="fill: #f2f2f2"/>
    </g>
    <g clip-path="url(#p10cf640031)">
     <use xlink:href="#C2_0_fcb35d453e" x="367.24827" y="206.659751" style="fill: #e5e5e5"/>
    </g>
    <g clip-path="url(#p10cf640031)">
     <use xlink:href="#C2_0_fcb35d453e" x="376.885458" y="206.901741" style="fill: #b9b9b9"/>
    </g>
    <g clip-path="url(#p10cf640031)">
     <use xlink:href="#C2_0_fcb35d453e" x="386.522647" y="207.093597" style="fill: #545454"/>
    </g>
    <g clip-path="url(#p10cf640031)">
     <use xlink:href="#C2_0_fcb35d453e" x="396.159835" y="207.261474"/>
    </g>
    <g clip-path="url(#p10cf640031)">
     <use xlink:href="#C2_0_fcb35d453e" x="405.797023" y="207.393339" style="fill: #1b1b1b"/>
    </g>
    <g clip-path="url(#p10cf640031)">
     <use xlink:href="#C2_0_fcb35d453e" x="415.434212" y="207.462721" style="fill: #6f6f6f"/>
    </g>
    <g clip-path="url(#p10cf640031)">
     <use xlink:href="#C2_0_fcb35d453e" x="425.0714" y="207.499194" style="fill: #a3a3a3"/>
    </g>
    <g clip-path="url(#p10cf640031)">
     <use xlink:href="#C2_0_fcb35d453e" x="434.708589" y="207.487471" style="fill: #a9a9a9"/>
    </g>
    <g clip-path="url(#p10cf640031)">
     <use xlink:href="#C2_0_fcb35d453e" x="444.345777" y="207.431423" style="fill: #9d9d9d"/>
    </g>
    <g clip-path="url(#p10cf640031)">
     <use xlink:href="#C2_0_fcb35d453e" x="453.982965" y="207.291292" style="fill: #aaaaaa"/>
    </g>
    <g clip-path="url(#p10cf640031)">
     <use xlink:href="#C2_0_fcb35d453e" x="463.620154" y="207.071387" style="fill: #cecece"/>
    </g>
    <g clip-path="url(#p10cf640031)">
     <use xlink:href="#C2_0_fcb35d453e" x="473.257342" y="206.717213" style="fill: #f0f0f0"/>
    </g>
   </g>
   <g id="PathCollection_4">
    <defs>
     <path id="C3_0_fb2534ef28" d="M 0 2.738613 
C 0.726289 2.738613 1.422928 2.450055 1.936492 1.936492 
C 2.450055 1.422928 2.738613 0.726289 2.738613 -0 
C 2.738613 -0.726289 2.450055 -1.422928 1.936492 -1.936492 
C 1.422928 -2.450055 0.726289 -2.738613 0 -2.738613 
C -0.726289 -2.738613 -1.422928 -2.450055 -1.936492 -1.936492 
C -2.450055 -1.422928 -2.738613 -0.726289 -2.738613 0 
C -2.738613 0.726289 -2.450055 1.422928 -1.936492 1.936492 
C -1.422928 2.450055 -0.726289 2.738613 0 2.738613 
z
"/>
    </defs>
    <g clip-path="url(#p10cf640031)">
     <use xlink:href="#C3_0_fb2534ef28" x="328.699517" y="159.689751" style="fill: #fafafa"/>
    </g>
    <g clip-path="url(#p10cf640031)">
     <use xlink:href="#C3_0_fb2534ef28" x="338.336705" y="159.695074" style="fill: #f8f8f8"/>
    </g>
    <g clip-path="url(#p10cf640031)">
     <use xlink:href="#C3_0_fb2534ef28" x="347.973893" y="159.696388" style="fill: #f6f6f6"/>
    </g>
    <g clip-path="url(#p10cf640031)">
     <use xlink:href="#C3_0_fb2534ef28" x="357.611082" y="159.700568" style="fill: #f2f2f2"/>
    </g>
    <g clip-path="url(#p10cf640031)">
     <use xlink:href="#C3_0_fb2534ef28" x="367.24827" y="159.704318" style="fill: #e5e5e5"/>
    </g>
    <g clip-path="url(#p10cf640031)">
     <use xlink:href="#C3_0_fb2534ef28" x="376.885458" y="159.70996" style="fill: #b9b9b9"/>
    </g>
    <g clip-path="url(#p10cf640031)">
     <use xlink:href="#C3_0_fb2534ef28" x="386.522647" y="159.730637" style="fill: #545454"/>
    </g>
    <g clip-path="url(#p10cf640031)">
     <use xlink:href="#C3_0_fb2534ef28" x="396.159835" y="159.755546"/>
    </g>
    <g clip-path="url(#p10cf640031)">
     <use xlink:href="#C3_0_fb2534ef28" x="405.797023" y="159.783922" style="fill: #1b1b1b"/>
    </g>
    <g clip-path="url(#p10cf640031)">
     <use xlink:href="#C3_0_fb2534ef28" x="415.434212" y="159.820452" style="fill: #6f6f6f"/>
    </g>
    <g clip-path="url(#p10cf640031)">
     <use xlink:href="#C3_0_fb2534ef28" x="425.0714" y="159.854467" style="fill: #a3a3a3"/>
    </g>
    <g clip-path="url(#p10cf640031)">
     <use xlink:href="#C3_0_fb2534ef28" x="434.708589" y="159.889209" style="fill: #a9a9a9"/>
    </g>
    <g clip-path="url(#p10cf640031)">
     <use xlink:href="#C3_0_fb2534ef28" x="444.345777" y="159.924132" style="fill: #9d9d9d"/>
    </g>
    <g clip-path="url(#p10cf640031)">
     <use xlink:href="#C3_0_fb2534ef28" x="453.982965" y="159.967642" style="fill: #aaaaaa"/>
    </g>
    <g clip-path="url(#p10cf640031)">
     <use xlink:href="#C3_0_fb2534ef28" x="463.620154" y="160.019189" style="fill: #cecece"/>
    </g>
    <g clip-path="url(#p10cf640031)">
     <use xlink:href="#C3_0_fb2534ef28" x="473.257342" y="160.088767" style="fill: #f0f0f0"/>
    </g>
   </g>
   <g id="matplotlib.axis_7">
    <g id="xtick_13">
     <g id="line2d_37">
      <g>
       <use xlink:href="#mde7276000d" x="387.039661" y="276.54952" style="stroke: #000000; stroke-width: 0.6"/>
      </g>
     </g>
     <g id="text_32">
      <!-- $\mathdefault{2\times10^{0}}$ -->
      <g transform="translate(370.789661 289.34952) scale(0.1 -0.1)">
       <use xlink:href="#IBMPlexSans-32" transform="translate(0 0.184375)"/>
       <use xlink:href="#IBMPlexSans-d7" transform="translate(79.482407 0.184375)"/>
       <use xlink:href="#IBMPlexSans-31" transform="translate(158.964813 0.184375)"/>
       <use xlink:href="#IBMPlexSans-30" transform="translate(218.964798 0.184375)"/>
       <use xlink:href="#IBMPlexSans-30" transform="translate(279.867673 36.3) scale(0.7)"/>
      </g>
     </g>
    </g>
    <g id="xtick_14">
     <g id="line2d_38">
      <g>
       <use xlink:href="#mde7276000d" x="449.560359" y="276.54952" style="stroke: #000000; stroke-width: 0.6"/>
      </g>
     </g>
     <g id="text_33">
      <!-- $\mathdefault{3\times10^{0}}$ -->
      <g transform="translate(433.310359 289.34952) scale(0.1 -0.1)">
       <use xlink:href="#IBMPlexSans-33" transform="translate(0 0.184375)"/>
       <use xlink:href="#IBMPlexSans-d7" transform="translate(79.482407 0.184375)"/>
       <use xlink:href="#IBMPlexSans-31" transform="translate(158.964813 0.184375)"/>
       <use xlink:href="#IBMPlexSans-30" transform="translate(218.964798 0.184375)"/>
       <use xlink:href="#IBMPlexSans-30" transform="translate(279.867673 36.3) scale(0.7)"/>
      </g>
     </g>
    </g>
    <g id="xtick_15">
     <g id="line2d_39">
      <g>
       <use xlink:href="#mde7276000d" x="493.919501" y="276.54952" style="stroke: #000000; stroke-width: 0.6"/>
      </g>
     </g>
     <g id="text_34">
      <!-- $\mathdefault{4\times10^{0}}$ -->
      <g transform="translate(477.669501 289.34952) scale(0.1 -0.1)">
       <use xlink:href="#IBMPlexSans-34" transform="translate(0 0.184375)"/>
       <use xlink:href="#IBMPlexSans-d7" transform="translate(79.482407 0.184375)"/>
       <use xlink:href="#IBMPlexSans-31" transform="translate(158.964813 0.184375)"/>
       <use xlink:href="#IBMPlexSans-30" transform="translate(218.964798 0.184375)"/>
       <use xlink:href="#IBMPlexSans-30" transform="translate(279.867673 36.3) scale(0.7)"/>
      </g>
     </g>
    </g>
    <g id="xtick_16">
     <g id="line2d_40">
      <g>
       <use xlink:href="#mde7276000d" x="528.327124" y="276.54952" style="stroke: #000000; stroke-width: 0.6"/>
      </g>
     </g>
    </g>
    <g id="text_35">
     <!-- Cutoff frequency [1/τ*] -->
     <g transform="translate(378.534526 302.94952) scale(0.1 -0.1)">
      <use xlink:href="#IBMPlexSans-43"/>
      <use xlink:href="#IBMPlexSans-75" transform="translate(62.099991 0)"/>
      <use xlink:href="#IBMPlexSans-74" transform="translate(118.899979 0)"/>
      <use xlink:href="#IBMPlexSans-6f" transform="translate(153.999969 0)"/>
      <use xlink:href="#IBMPlexSans-66" transform="translate(209.999954 0)"/>
      <use xlink:href="#IBMPlexSans-66" transform="translate(242.399948 0)"/>
      <use xlink:href="#IBMPlexSans-20" transform="translate(274.799942 0)"/>
      <use xlink:href="#IBMPlexSans-66" transform="translate(298.399933 0)"/>
      <use xlink:href="#IBMPlexSans-72" transform="translate(330.799927 0)"/>
      <use xlink:href="#IBMPlexSans-65" transform="translate(367.499924 0)"/>
      <use xlink:href="#IBMPlexSans-71" transform="translate(422.399918 0)"/>
      <use xlink:href="#IBMPlexSans-75" transform="translate(480.399902 0)"/>
      <use xlink:href="#IBMPlexSans-65" transform="translate(537.19989 0)"/>
      <use xlink:href="#IBMPlexSans-6e" transform="translate(592.099884 0)"/>
      <use xlink:href="#IBMPlexSans-63" transform="translate(648.899872 0)"/>
      <use xlink:href="#IBMPlexSans-79" transform="translate(699.19986 0)"/>
      <use xlink:href="#IBMPlexSans-20" transform="translate(749.099854 0)"/>
      <use xlink:href="#IBMPlexSans-5b" transform="translate(772.699844 0)"/>
      <use xlink:href="#IBMPlexSans-31" transform="translate(804.399841 0)"/>
      <use xlink:href="#IBMPlexSans-2f" transform="translate(864.399826 0)"/>
      <use xlink:href="#IBMPlexSans-3c4" transform="translate(902.699814 0)"/>
      <use xlink:href="#IBMPlexSans-2a" transform="translate(950.399811 0)"/>
      <use xlink:href="#IBMPlexSans-5d" transform="translate(995.399796 0)"/>
     </g>
    </g>
   </g>
   <g id="matplotlib.axis_8">
    <g id="ytick_17">
     <g id="line2d_41">
      <g>
       <use xlink:href="#m1ce848c74d" x="318.580469" y="237.681446" style="stroke: #000000; stroke-width: 0.8"/>
      </g>
     </g>
     <g id="text_36">
      <!-- $\mathdefault{10^{-1}}$ -->
      <g transform="translate(290.780469 241.381446) scale(0.1 -0.1)">
       <use xlink:href="#IBMPlexSans-31" transform="translate(0 0.026563)"/>
       <use xlink:href="#IBMPlexSans-30" transform="translate(59.999985 0.026563)"/>
       <use xlink:href="#IBMPlexSans-2212" transform="translate(120.90286 36.142188) scale(0.7)"/>
       <use xlink:href="#IBMPlexSans-31" transform="translate(162.902849 36.142188) scale(0.7)"/>
      </g>
     </g>
    </g>
    <g id="ytick_18">
     <g id="line2d_42">
      <g>
       <use xlink:href="#m1ce848c74d" x="318.580469" y="182.528079" style="stroke: #000000; stroke-width: 0.8"/>
      </g>
     </g>
     <g id="text_37">
      <!-- $\mathdefault{10^{0}}$ -->
      <g transform="translate(294.980469 186.228079) scale(0.1 -0.1)">
       <use xlink:href="#IBMPlexSans-31" transform="translate(0 0.184375)"/>
       <use xlink:href="#IBMPlexSans-30" transform="translate(59.999985 0.184375)"/>
       <use xlink:href="#IBMPlexSans-30" transform="translate(120.90286 36.3) scale(0.7)"/>
      </g>
     </g>
    </g>
    <g id="ytick_19">
     <g id="line2d_43">
      <defs>
       <path id="ma0d8b0bdfa" d="M 0 0 
L -2 0 
" style="stroke: #000000; stroke-width: 0.6"/>
      </defs>
      <g>
       <use xlink:href="#ma0d8b0bdfa" x="318.580469" y="276.231994" style="stroke: #000000; stroke-width: 0.6"/>
      </g>
     </g>
    </g>
    <g id="ytick_20">
     <g id="line2d_44">
      <g>
       <use xlink:href="#ma0d8b0bdfa" x="318.580469" y="266.519969" style="stroke: #000000; stroke-width: 0.6"/>
      </g>
     </g>
    </g>
    <g id="ytick_21">
     <g id="line2d_45">
      <g>
       <use xlink:href="#ma0d8b0bdfa" x="318.580469" y="259.629177" style="stroke: #000000; stroke-width: 0.6"/>
      </g>
     </g>
    </g>
    <g id="ytick_22">
     <g id="line2d_46">
      <g>
       <use xlink:href="#ma0d8b0bdfa" x="318.580469" y="254.284263" style="stroke: #000000; stroke-width: 0.6"/>
      </g>
     </g>
    </g>
    <g id="ytick_23">
     <g id="line2d_47">
      <g>
       <use xlink:href="#ma0d8b0bdfa" x="318.580469" y="249.917151" style="stroke: #000000; stroke-width: 0.6"/>
      </g>
     </g>
    </g>
    <g id="ytick_24">
     <g id="line2d_48">
      <g>
       <use xlink:href="#ma0d8b0bdfa" x="318.580469" y="246.22481" style="stroke: #000000; stroke-width: 0.6"/>
      </g>
     </g>
    </g>
    <g id="ytick_25">
     <g id="line2d_49">
      <g>
       <use xlink:href="#ma0d8b0bdfa" x="318.580469" y="243.026359" style="stroke: #000000; stroke-width: 0.6"/>
      </g>
     </g>
    </g>
    <g id="ytick_26">
     <g id="line2d_50">
      <g>
       <use xlink:href="#ma0d8b0bdfa" x="318.580469" y="240.205125" style="stroke: #000000; stroke-width: 0.6"/>
      </g>
     </g>
    </g>
    <g id="ytick_27">
     <g id="line2d_51">
      <g>
       <use xlink:href="#ma0d8b0bdfa" x="318.580469" y="221.078628" style="stroke: #000000; stroke-width: 0.6"/>
      </g>
     </g>
    </g>
    <g id="ytick_28">
     <g id="line2d_52">
      <g>
       <use xlink:href="#ma0d8b0bdfa" x="318.580469" y="211.366602" style="stroke: #000000; stroke-width: 0.6"/>
      </g>
     </g>
    </g>
    <g id="ytick_29">
     <g id="line2d_53">
      <g>
       <use xlink:href="#ma0d8b0bdfa" x="318.580469" y="204.47581" style="stroke: #000000; stroke-width: 0.6"/>
      </g>
     </g>
    </g>
    <g id="ytick_30">
     <g id="line2d_54">
      <g>
       <use xlink:href="#ma0d8b0bdfa" x="318.580469" y="199.130897" style="stroke: #000000; stroke-width: 0.6"/>
      </g>
     </g>
    </g>
    <g id="ytick_31">
     <g id="line2d_55">
      <g>
       <use xlink:href="#ma0d8b0bdfa" x="318.580469" y="194.763785" style="stroke: #000000; stroke-width: 0.6"/>
      </g>
     </g>
    </g>
    <g id="ytick_32">
     <g id="line2d_56">
      <g>
       <use xlink:href="#ma0d8b0bdfa" x="318.580469" y="191.071444" style="stroke: #000000; stroke-width: 0.6"/>
      </g>
     </g>
    </g>
    <g id="ytick_33">
     <g id="line2d_57">
      <g>
       <use xlink:href="#ma0d8b0bdfa" x="318.580469" y="187.872993" style="stroke: #000000; stroke-width: 0.6"/>
      </g>
     </g>
    </g>
    <g id="ytick_34">
     <g id="line2d_58">
      <g>
       <use xlink:href="#ma0d8b0bdfa" x="318.580469" y="185.051759" style="stroke: #000000; stroke-width: 0.6"/>
      </g>
     </g>
    </g>
    <g id="ytick_35">
     <g id="line2d_59">
      <g>
       <use xlink:href="#ma0d8b0bdfa" x="318.580469" y="165.925262" style="stroke: #000000; stroke-width: 0.6"/>
      </g>
     </g>
    </g>
    <g id="ytick_36">
     <g id="line2d_60">
      <g>
       <use xlink:href="#ma0d8b0bdfa" x="318.580469" y="156.213236" style="stroke: #000000; stroke-width: 0.6"/>
      </g>
     </g>
    </g>
    <g id="text_38">
     <!-- Hessian Eigenvalues -->
     <g transform="translate(284.660156 261.328666) rotate(-90) scale(0.1 -0.1)">
      <defs>
       <path id="IBMPlexSans-48" d="M 3392 0 
L 3930 0 
L 3930 4467 
L 3392 4467 
L 3392 2496 
L 1133 2496 
L 1133 4467 
L 595 4467 
L 595 0 
L 1133 0 
L 1133 2022 
L 3392 2022 
L 3392 0 
z
" transform="scale(0.015625)"/>
       <path id="IBMPlexSans-61" d="M 3232 0 
L 3232 448 
L 2854 448 
L 2854 2266 
C 2854 2963 2381 3379 1587 3379 
C 992 3379 595 3085 416 2733 
L 723 2445 
C 902 2746 1165 2938 1562 2938 
C 2086 2938 2342 2682 2342 2214 
L 2342 1888 
L 1690 1888 
C 730 1888 282 1542 282 922 
C 282 307 691 -77 1389 -77 
C 1850 -77 2202 134 2342 538 
L 2374 538 
C 2413 230 2566 0 2944 0 
L 3232 0 
z
M 1472 358 
C 1075 358 819 544 819 870 
L 819 1005 
C 819 1325 1082 1504 1664 1504 
L 2342 1504 
L 2342 960 
C 2342 621 1978 358 1472 358 
z
" transform="scale(0.015625)"/>
       <path id="IBMPlexSans-45" d="M 3322 0 
L 3322 474 
L 1133 474 
L 1133 2022 
L 3194 2022 
L 3194 2496 
L 1133 2496 
L 1133 3994 
L 3322 3994 
L 3322 4467 
L 595 4467 
L 595 0 
L 3322 0 
z
" transform="scale(0.015625)"/>
      </defs>
      <use xlink:href="#IBMPlexSans-48"/>
      <use xlink:href="#IBMPlexSans-65" transform="translate(70.699982 0)"/>
      <use xlink:href="#IBMPlexSans-73" transform="translate(125.599976 0)"/>
      <use xlink:href="#IBMPlexSans-73" transform="translate(174.299973 0)"/>
      <use xlink:href="#IBMPlexSans-69" transform="translate(222.999969 0)"/>
      <use xlink:href="#IBMPlexSans-61" transform="translate(247.999954 0)"/>
      <use xlink:href="#IBMPlexSans-6e" transform="translate(301.399948 0)"/>
      <use xlink:href="#IBMPlexSans-20" transform="translate(358.199936 0)"/>
      <use xlink:href="#IBMPlexSans-45" transform="translate(381.799927 0)"/>
      <use xlink:href="#IBMPlexSans-69" transform="translate(440.099915 0)"/>
      <use xlink:href="#IBMPlexSans-67" transform="translate(465.099899 0)"/>
      <use xlink:href="#IBMPlexSans-65" transform="translate(517.899887 0)"/>
      <use xlink:href="#IBMPlexSans-6e" transform="translate(572.799881 0)"/>
      <use xlink:href="#IBMPlexSans-76" transform="translate(629.599869 0)"/>
      <use xlink:href="#IBMPlexSans-61" transform="translate(678.799866 0)"/>
      <use xlink:href="#IBMPlexSans-6c" transform="translate(732.19986 0)"/>
      <use xlink:href="#IBMPlexSans-75" transform="translate(759.399857 0)"/>
      <use xlink:href="#IBMPlexSans-65" transform="translate(816.199844 0)"/>
      <use xlink:href="#IBMPlexSans-73" transform="translate(871.099838 0)"/>
     </g>
    </g>
   </g>
   <g id="line2d_61">
    <path d="M 328.699517 270.984769 
L 338.336705 267.069245 
L 347.973893 263.950189 
L 357.611082 261.120004 
L 367.24827 258.613865 
L 376.885458 256.274667 
L 386.522647 253.747177 
L 396.159835 251.428753 
L 405.797023 249.384536 
L 415.434212 247.521259 
L 425.0714 246.050489 
L 434.708589 244.869946 
L 444.345777 243.943055 
L 453.982965 243.150992 
L 463.620154 242.488053 
L 473.257342 241.887652 
L 482.89453 241.357936 
L 492.531719 240.791477 
L 502.168907 240.310824 
L 511.806095 239.958567 
L 521.443284 239.755886 
L 531.080472 240.175594 
" clip-path="url(#p10cf640031)" style="fill: none; stroke: #9467bd; stroke-width: 1.5; stroke-linecap: square"/>
   </g>
   <g id="line2d_62">
    <path d="M 328.699517 205.679309 
L 338.336705 205.922658 
L 347.973893 206.174301 
L 357.611082 206.415683 
L 367.24827 206.659751 
L 376.885458 206.901741 
L 386.522647 207.093597 
L 396.159835 207.261474 
L 405.797023 207.393339 
L 415.434212 207.462721 
L 425.0714 207.499194 
L 434.708589 207.487471 
L 444.345777 207.431423 
L 453.982965 207.291292 
L 463.620154 207.071387 
L 473.257342 206.717213 
L 482.89453 206.189447 
L 492.531719 205.292719 
L 502.168907 203.96631 
L 511.806095 202.017986 
L 521.443284 198.960746 
L 531.080472 194.982132 
" clip-path="url(#p10cf640031)" style="fill: none; stroke: #9467bd; stroke-width: 1.5; stroke-linecap: square"/>
   </g>
   <g id="line2d_63">
    <path d="M 328.699517 159.689751 
L 338.336705 159.695074 
L 347.973893 159.696388 
L 357.611082 159.700568 
L 367.24827 159.704318 
L 376.885458 159.70996 
L 386.522647 159.730637 
L 396.159835 159.755546 
L 405.797023 159.783922 
L 415.434212 159.820452 
L 425.0714 159.854467 
L 434.708589 159.889209 
L 444.345777 159.924132 
L 453.982965 159.967642 
L 463.620154 160.019189 
L 473.257342 160.088767 
L 482.89453 160.182733 
L 492.531719 160.336429 
L 502.168907 160.56314 
L 511.806095 160.909851 
L 521.443284 161.510972 
L 531.080472 162.418414 
" clip-path="url(#p10cf640031)" style="fill: none; stroke: #9467bd; stroke-width: 1.5; stroke-linecap: square"/>
   </g>
   <g id="patch_13">
    <path d="M 318.580469 276.54952 
L 318.580469 154.125 
" style="fill: none; stroke: #000000; stroke-width: 0.8; stroke-linejoin: miter; stroke-linecap: square"/>
   </g>
   <g id="patch_14">
    <path d="M 318.580469 276.54952 
L 541.19952 276.54952 
" style="fill: none; stroke: #000000; stroke-width: 0.8; stroke-linejoin: miter; stroke-linecap: square"/>
   </g>
  </g>
 </g>
 <defs>
  <clipPath id="pf634459367">
   <rect x="48.640625" y="7.2" width="222.619051" height="122.42452"/>
  </clipPath>
  <clipPath id="p01d962b729">
   <rect x="318.580469" y="7.2" width="222.619051" height="122.42452"/>
  </clipPath>
  <clipPath id="p92bb35d655">
   <rect x="48.640625" y="154.125" width="222.619051" height="122.42452"/>
  </clipPath>
  <clipPath id="p10cf640031">
   <rect x="318.580469" y="154.125" width="222.619051" height="122.42452"/>
  </clipPath>
 </defs>
</svg>