<?xml version="1.0" encoding="utf-8" standalone="no"?>
<!DOCTYPE svg PUBLIC "-//W3C//DTD SVG 1.1//EN"
  "http://www.w3.org/Graphics/SVG/1.1/DTD/svg11.dtd">
<svg xmlns:xlink="http://www.w3.org/1999/xlink" width="548.39952pt" height="312.14952pt" viewBox="0 0 548.39952 312.14952" xmlns="http://www.w3.org/2000/svg" version="1.1">
 <metadata>
  <rdf:RDF xmlns:dc="http://purl.org/dc/elements/1.1/" xmlns:cc="http://creativecommons.org/ns#" xmlns:rdf="http://www.w3.org/1999/02/22-rdf-syntax-ns#">
   <cc:Work>
    <dc:type rdf:resource="http://purl.org/dc/dcmitype/StillImage"/>
    <dc:date>2025-06-24T10:10:35.487967</dc:date>
    <dc:format>image/svg+xml</dc:format>
    <dc:creator>
     <cc:Agent>
      <dc:title>Matplotlib v3.10.1, https://matplotlib.org/</dc:title>
     </cc:Agent>
    </dc:creator>
   </cc:Work>
  </rdf:RDF>
 </metadata>
 <defs>
  <style type="text/css">*{stroke-linejoin: round; stroke-linecap: butt}</style>
 </defs>
 <g id="figure_1">
  <g id="patch_1">
   <path d="M 0 312.14952 
L 548.39952 312.14952 
L 548.39952 0 
L 0 0 
z
" style="fill: #ffffff"/>
  </g>
  <g id="axes_1">
   <g id="patch_2">
    <path d="M 66.720313 275.14952 
L 541.19952 275.14952 
L 541.19952 22.08 
L 66.720313 22.08 
z
" style="fill: #ffffff"/>
   </g>
   <g id="matplotlib.axis_1">
    <g id="xtick_1">
     <g id="line2d_1">
      <defs>
       <path id="meb81b1b84e" d="M 0 0 
L 0 3.5 
" style="stroke: #000000; stroke-width: 0.8"/>
      </defs>
      <g>
       <use xlink:href="#meb81b1b84e" x="88.287549" y="275.14952" style="stroke: #000000; stroke-width: 0.8"/>
      </g>
     </g>
     <g id="text_1">
      <!-- 0 -->
      <g transform="translate(85.287549 289.54952) scale(0.1 -0.1)">
       <defs>
        <path id="IBMPlexSans-30" d="M 1920 -77 
C 2989 -77 3456 774 3456 2234 
C 3456 3693 2989 4544 1920 4544 
C 851 4544 384 3693 384 2234 
C 384 774 851 -77 1920 -77 
z
M 1920 390 
C 1222 390 947 1005 947 1869 
L 947 2598 
C 947 3462 1222 4077 1920 4077 
C 2618 4077 2893 3462 2893 2598 
L 2893 1869 
C 2893 1005 2618 390 1920 390 
z
" transform="scale(0.015625)"/>
       </defs>
       <use xlink:href="#IBMPlexSans-30"/>
      </g>
     </g>
    </g>
    <g id="xtick_2">
     <g id="line2d_2">
      <g>
       <use xlink:href="#meb81b1b84e" x="193.678763" y="275.14952" style="stroke: #000000; stroke-width: 0.8"/>
      </g>
     </g>
     <g id="text_2">
      <!-- 5000 -->
      <g transform="translate(181.678763 289.54952) scale(0.1 -0.1)">
       <defs>
        <path id="IBMPlexSans-35" d="M 3187 4467 
L 794 4467 
L 634 2010 
L 1088 1946 
C 1274 2150 1478 2323 1888 2323 
C 2496 2323 2822 1984 2822 1395 
L 2822 1331 
C 2822 742 2496 403 1888 403 
C 1350 403 1126 640 896 992 
L 493 685 
C 762 301 1146 -77 1888 -77 
C 2829 -77 3392 531 3392 1402 
C 3392 2266 2829 2784 2061 2784 
C 1594 2784 1357 2592 1146 2291 
L 1101 2291 
L 1229 3994 
L 3187 3994 
L 3187 4467 
z
" transform="scale(0.015625)"/>
       </defs>
       <use xlink:href="#IBMPlexSans-35"/>
       <use xlink:href="#IBMPlexSans-30" transform="translate(59.999985 0)"/>
       <use xlink:href="#IBMPlexSans-30" transform="translate(119.999969 0)"/>
       <use xlink:href="#IBMPlexSans-30" transform="translate(179.999954 0)"/>
      </g>
     </g>
    </g>
    <g id="xtick_3">
     <g id="line2d_3">
      <g>
       <use xlink:href="#meb81b1b84e" x="299.069977" y="275.14952" style="stroke: #000000; stroke-width: 0.8"/>
      </g>
     </g>
     <g id="text_3">
      <!-- 10000 -->
      <g transform="translate(284.069977 289.54952) scale(0.1 -0.1)">
       <defs>
        <path id="IBMPlexSans-31" d="M 3501 0 
L 3501 474 
L 2349 474 
L 2349 4467 
L 1510 4467 
L 326 3360 
L 640 3021 
L 1766 4070 
L 1811 4070 
L 1811 474 
L 563 474 
L 563 0 
L 3501 0 
z
" transform="scale(0.015625)"/>
       </defs>
       <use xlink:href="#IBMPlexSans-31"/>
       <use xlink:href="#IBMPlexSans-30" transform="translate(59.999985 0)"/>
       <use xlink:href="#IBMPlexSans-30" transform="translate(119.999969 0)"/>
       <use xlink:href="#IBMPlexSans-30" transform="translate(179.999954 0)"/>
       <use xlink:href="#IBMPlexSans-30" transform="translate(239.999939 0)"/>
      </g>
     </g>
    </g>
    <g id="xtick_4">
     <g id="line2d_4">
      <g>
       <use xlink:href="#meb81b1b84e" x="404.461191" y="275.14952" style="stroke: #000000; stroke-width: 0.8"/>
      </g>
     </g>
     <g id="text_4">
      <!-- 15000 -->
      <g transform="translate(389.461191 289.54952) scale(0.1 -0.1)">
       <use xlink:href="#IBMPlexSans-31"/>
       <use xlink:href="#IBMPlexSans-35" transform="translate(59.999985 0)"/>
       <use xlink:href="#IBMPlexSans-30" transform="translate(119.999969 0)"/>
       <use xlink:href="#IBMPlexSans-30" transform="translate(179.999954 0)"/>
       <use xlink:href="#IBMPlexSans-30" transform="translate(239.999939 0)"/>
      </g>
     </g>
    </g>
    <g id="xtick_5">
     <g id="line2d_5">
      <g>
       <use xlink:href="#meb81b1b84e" x="509.852404" y="275.14952" style="stroke: #000000; stroke-width: 0.8"/>
      </g>
     </g>
     <g id="text_5">
      <!-- 20000 -->
      <g transform="translate(494.852404 289.54952) scale(0.1 -0.1)">
       <defs>
        <path id="IBMPlexSans-32" d="M 3411 474 
L 1062 474 
L 2266 1555 
C 2835 2067 3245 2554 3245 3245 
C 3245 4006 2746 4544 1875 4544 
C 1011 4544 614 4019 442 3494 
L 922 3309 
C 1043 3731 1299 4064 1850 4064 
C 2400 4064 2675 3725 2675 3232 
L 2675 3155 
C 2675 2726 2355 2278 1939 1894 
L 480 550 
L 480 0 
L 3411 0 
L 3411 474 
z
" transform="scale(0.015625)"/>
       </defs>
       <use xlink:href="#IBMPlexSans-32"/>
       <use xlink:href="#IBMPlexSans-30" transform="translate(59.999985 0)"/>
       <use xlink:href="#IBMPlexSans-30" transform="translate(119.999969 0)"/>
       <use xlink:href="#IBMPlexSans-30" transform="translate(179.999954 0)"/>
       <use xlink:href="#IBMPlexSans-30" transform="translate(239.999939 0)"/>
      </g>
     </g>
    </g>
    <g id="text_6">
     <!-- Time [a.u. of time] -->
     <g transform="translate(263.264604 302.94952) scale(0.1 -0.1)">
      <defs>
       <path id="IBMPlexSans-54" d="M 3520 3994 
L 3520 4467 
L 141 4467 
L 141 3994 
L 1562 3994 
L 1562 0 
L 2099 0 
L 2099 3994 
L 3520 3994 
z
" transform="scale(0.015625)"/>
       <path id="IBMPlexSans-69" d="M 800 4077 
C 1018 4077 1114 4192 1114 4365 
L 1114 4448 
C 1114 4621 1018 4736 800 4736 
C 582 4736 486 4621 486 4448 
L 486 4365 
C 486 4192 582 4077 800 4077 
z
M 544 0 
L 1056 0 
L 1056 3302 
L 544 3302 
L 544 0 
z
" transform="scale(0.015625)"/>
       <path id="IBMPlexSans-6d" d="M 1056 0 
L 1056 2291 
C 1056 2714 1440 2918 1843 2918 
C 2330 2918 2554 2618 2554 2029 
L 2554 0 
L 3066 0 
L 3066 2291 
C 3066 2714 3437 2918 3840 2918 
C 4339 2918 4563 2611 4563 2029 
L 4563 0 
L 5075 0 
L 5075 2118 
C 5075 2918 4672 3379 4000 3379 
C 3437 3379 3117 3066 2995 2707 
L 2982 2707 
C 2803 3181 2406 3379 1971 3379 
C 1459 3379 1229 3104 1082 2765 
L 1056 2765 
L 1056 3302 
L 544 3302 
L 544 0 
L 1056 0 
z
" transform="scale(0.015625)"/>
       <path id="IBMPlexSans-65" d="M 1786 -77 
C 2406 -77 2880 230 3091 678 
L 2726 941 
C 2554 576 2234 371 1818 371 
C 1203 371 838 800 838 1370 
L 838 1523 
L 3213 1523 
L 3213 1766 
C 3213 2701 2669 3379 1786 3379 
C 890 3379 301 2701 301 1651 
C 301 602 890 -77 1786 -77 
z
M 1786 2950 
C 2310 2950 2662 2560 2662 1978 
L 2662 1907 
L 838 1907 
L 838 1952 
C 838 2528 1229 2950 1786 2950 
z
" transform="scale(0.015625)"/>
       <path id="IBMPlexSans-20" transform="scale(0.015625)"/>
       <path id="IBMPlexSans-5b" d="M 1645 -883 
L 1645 -480 
L 1037 -480 
L 1037 4461 
L 1645 4461 
L 1645 4864 
L 595 4864 
L 595 -883 
L 1645 -883 
z
" transform="scale(0.015625)"/>
       <path id="IBMPlexSans-61" d="M 3232 0 
L 3232 448 
L 2854 448 
L 2854 2266 
C 2854 2963 2381 3379 1587 3379 
C 992 3379 595 3085 416 2733 
L 723 2445 
C 902 2746 1165 2938 1562 2938 
C 2086 2938 2342 2682 2342 2214 
L 2342 1888 
L 1690 1888 
C 730 1888 282 1542 282 922 
C 282 307 691 -77 1389 -77 
C 1850 -77 2202 134 2342 538 
L 2374 538 
C 2413 230 2566 0 2944 0 
L 3232 0 
z
M 1472 358 
C 1075 358 819 544 819 870 
L 819 1005 
C 819 1325 1082 1504 1664 1504 
L 2342 1504 
L 2342 960 
C 2342 621 1978 358 1472 358 
z
" transform="scale(0.015625)"/>
       <path id="IBMPlexSans-2e" d="M 870 -77 
C 1139 -77 1261 77 1261 294 
L 1261 378 
C 1261 595 1139 749 870 749 
C 602 749 480 595 480 378 
L 480 294 
C 480 77 602 -77 870 -77 
z
" transform="scale(0.015625)"/>
       <path id="IBMPlexSans-75" d="M 2579 0 
L 3091 0 
L 3091 3302 
L 2579 3302 
L 2579 1018 
C 2579 582 2182 384 1779 384 
C 1286 384 1024 685 1024 1274 
L 1024 3302 
L 512 3302 
L 512 1184 
C 512 384 947 -77 1626 -77 
C 2176 -77 2426 224 2554 538 
L 2579 538 
L 2579 0 
z
" transform="scale(0.015625)"/>
       <path id="IBMPlexSans-6f" d="M 1792 -77 
C 2675 -77 3283 602 3283 1651 
C 3283 2701 2675 3379 1792 3379 
C 909 3379 301 2701 301 1651 
C 301 602 909 -77 1792 -77 
z
M 1792 378 
C 1242 378 851 717 851 1414 
L 851 1888 
C 851 2586 1242 2925 1792 2925 
C 2342 2925 2733 2586 2733 1888 
L 2733 1414 
C 2733 717 2342 378 1792 378 
z
" transform="scale(0.015625)"/>
       <path id="IBMPlexSans-66" d="M 723 0 
L 1235 0 
L 1235 2854 
L 1946 2854 
L 1946 3302 
L 1235 3302 
L 1235 4288 
L 1946 4288 
L 1946 4736 
L 1446 4736 
C 960 4736 723 4422 723 3968 
L 723 3302 
L 186 3302 
L 186 2854 
L 723 2854 
L 723 0 
z
" transform="scale(0.015625)"/>
       <path id="IBMPlexSans-74" d="M 1914 0 
L 1914 448 
L 1242 448 
L 1242 2854 
L 1965 2854 
L 1965 3302 
L 1242 3302 
L 1242 4218 
L 781 4218 
L 781 3603 
C 781 3379 710 3302 493 3302 
L 186 3302 
L 186 2854 
L 730 2854 
L 730 544 
C 730 224 922 0 1274 0 
L 1914 0 
z
" transform="scale(0.015625)"/>
       <path id="IBMPlexSans-5d" d="M 384 4864 
L 384 4461 
L 992 4461 
L 992 -480 
L 384 -480 
L 384 -883 
L 1434 -883 
L 1434 4864 
L 384 4864 
z
" transform="scale(0.015625)"/>
      </defs>
      <use xlink:href="#IBMPlexSans-54"/>
      <use xlink:href="#IBMPlexSans-69" transform="translate(57.199997 0)"/>
      <use xlink:href="#IBMPlexSans-6d" transform="translate(82.199982 0)"/>
      <use xlink:href="#IBMPlexSans-65" transform="translate(169.499969 0)"/>
      <use xlink:href="#IBMPlexSans-20" transform="translate(224.399963 0)"/>
      <use xlink:href="#IBMPlexSans-5b" transform="translate(247.999954 0)"/>
      <use xlink:href="#IBMPlexSans-61" transform="translate(279.699951 0)"/>
      <use xlink:href="#IBMPlexSans-2e" transform="translate(333.099945 0)"/>
      <use xlink:href="#IBMPlexSans-75" transform="translate(360.299942 0)"/>
      <use xlink:href="#IBMPlexSans-2e" transform="translate(417.09993 0)"/>
      <use xlink:href="#IBMPlexSans-20" transform="translate(444.299927 0)"/>
      <use xlink:href="#IBMPlexSans-6f" transform="translate(467.899918 0)"/>
      <use xlink:href="#IBMPlexSans-66" transform="translate(523.899902 0)"/>
      <use xlink:href="#IBMPlexSans-20" transform="translate(556.299896 0)"/>
      <use xlink:href="#IBMPlexSans-74" transform="translate(579.899887 0)"/>
      <use xlink:href="#IBMPlexSans-69" transform="translate(614.999878 0)"/>
      <use xlink:href="#IBMPlexSans-6d" transform="translate(639.999863 0)"/>
      <use xlink:href="#IBMPlexSans-65" transform="translate(727.29985 0)"/>
      <use xlink:href="#IBMPlexSans-5d" transform="translate(782.199844 0)"/>
     </g>
    </g>
   </g>
   <g id="matplotlib.axis_2">
    <g id="ytick_1">
     <g id="line2d_6">
      <defs>
       <path id="m4f775f3d78" d="M 0 0 
L -3.5 0 
" style="stroke: #000000; stroke-width: 0.8"/>
      </defs>
      <g>
       <use xlink:href="#m4f775f3d78" x="66.720313" y="248.10805" style="stroke: #000000; stroke-width: 0.8"/>
      </g>
     </g>
     <g id="text_7">
      <!-- −0.0220 -->
      <g transform="translate(21 251.80805) scale(0.1 -0.1)">
       <defs>
        <path id="IBMPlexSans-2212" d="M 3411 1734 
L 3411 2170 
L 429 2170 
L 429 1734 
L 3411 1734 
z
" transform="scale(0.015625)"/>
       </defs>
       <use xlink:href="#IBMPlexSans-2212"/>
       <use xlink:href="#IBMPlexSans-30" transform="translate(59.999985 0)"/>
       <use xlink:href="#IBMPlexSans-2e" transform="translate(119.999969 0)"/>
       <use xlink:href="#IBMPlexSans-30" transform="translate(147.199966 0)"/>
       <use xlink:href="#IBMPlexSans-32" transform="translate(207.199951 0)"/>
       <use xlink:href="#IBMPlexSans-32" transform="translate(267.199936 0)"/>
       <use xlink:href="#IBMPlexSans-30" transform="translate(327.199921 0)"/>
      </g>
     </g>
    </g>
    <g id="ytick_2">
     <g id="line2d_7">
      <g>
       <use xlink:href="#m4f775f3d78" x="66.720313" y="216.581738" style="stroke: #000000; stroke-width: 0.8"/>
      </g>
     </g>
     <g id="text_8">
      <!-- −0.0219 -->
      <g transform="translate(21 220.281738) scale(0.1 -0.1)">
       <defs>
        <path id="IBMPlexSans-39" d="M 3411 2829 
C 3411 3891 2842 4544 1914 4544 
C 1018 4544 429 3942 429 3066 
C 429 2221 979 1690 1747 1690 
C 2291 1690 2611 1965 2822 2330 
L 2854 2317 
C 2611 1280 2080 698 1126 0 
L 1818 0 
C 2534 467 3411 1504 3411 2829 
z
M 1920 2144 
C 1331 2144 986 2483 986 3085 
L 986 3136 
C 986 3738 1331 4077 1920 4077 
C 2509 4077 2854 3738 2854 3136 
L 2854 3085 
C 2854 2483 2509 2144 1920 2144 
z
" transform="scale(0.015625)"/>
       </defs>
       <use xlink:href="#IBMPlexSans-2212"/>
       <use xlink:href="#IBMPlexSans-30" transform="translate(59.999985 0)"/>
       <use xlink:href="#IBMPlexSans-2e" transform="translate(119.999969 0)"/>
       <use xlink:href="#IBMPlexSans-30" transform="translate(147.199966 0)"/>
       <use xlink:href="#IBMPlexSans-32" transform="translate(207.199951 0)"/>
       <use xlink:href="#IBMPlexSans-31" transform="translate(267.199936 0)"/>
       <use xlink:href="#IBMPlexSans-39" transform="translate(327.199921 0)"/>
      </g>
     </g>
    </g>
    <g id="ytick_3">
     <g id="line2d_8">
      <g>
       <use xlink:href="#m4f775f3d78" x="66.720313" y="185.055425" style="stroke: #000000; stroke-width: 0.8"/>
      </g>
     </g>
     <g id="text_9">
      <!-- −0.0218 -->
      <g transform="translate(21 188.755425) scale(0.1 -0.1)">
       <defs>
        <path id="IBMPlexSans-38" d="M 1920 -77 
C 2938 -77 3469 480 3469 1216 
C 3469 1824 3104 2176 2566 2323 
L 2566 2374 
C 3034 2534 3334 2912 3334 3424 
C 3334 4102 2810 4544 1920 4544 
C 1030 4544 506 4102 506 3424 
C 506 2912 806 2534 1274 2374 
L 1274 2323 
C 736 2176 371 1824 371 1216 
C 371 480 902 -77 1920 -77 
z
M 1920 390 
C 1299 390 941 685 941 1190 
L 941 1325 
C 941 1830 1299 2125 1920 2125 
C 2541 2125 2899 1830 2899 1325 
L 2899 1190 
C 2899 685 2541 390 1920 390 
z
M 1920 2573 
C 1363 2573 1062 2822 1062 3277 
L 1062 3373 
C 1062 3827 1363 4077 1920 4077 
C 2477 4077 2778 3827 2778 3373 
L 2778 3277 
C 2778 2822 2477 2573 1920 2573 
z
" transform="scale(0.015625)"/>
       </defs>
       <use xlink:href="#IBMPlexSans-2212"/>
       <use xlink:href="#IBMPlexSans-30" transform="translate(59.999985 0)"/>
       <use xlink:href="#IBMPlexSans-2e" transform="translate(119.999969 0)"/>
       <use xlink:href="#IBMPlexSans-30" transform="translate(147.199966 0)"/>
       <use xlink:href="#IBMPlexSans-32" transform="translate(207.199951 0)"/>
       <use xlink:href="#IBMPlexSans-31" transform="translate(267.199936 0)"/>
       <use xlink:href="#IBMPlexSans-38" transform="translate(327.199921 0)"/>
      </g>
     </g>
    </g>
    <g id="ytick_4">
     <g id="line2d_9">
      <g>
       <use xlink:href="#m4f775f3d78" x="66.720313" y="153.529112" style="stroke: #000000; stroke-width: 0.8"/>
      </g>
     </g>
     <g id="text_10">
      <!-- −0.0217 -->
      <g transform="translate(21 157.229112) scale(0.1 -0.1)">
       <defs>
        <path id="IBMPlexSans-37" d="M 1696 0 
L 3373 3994 
L 3373 4467 
L 442 4467 
L 442 3174 
L 922 3174 
L 922 4006 
L 2829 4006 
L 1120 0 
L 1696 0 
z
" transform="scale(0.015625)"/>
       </defs>
       <use xlink:href="#IBMPlexSans-2212"/>
       <use xlink:href="#IBMPlexSans-30" transform="translate(59.999985 0)"/>
       <use xlink:href="#IBMPlexSans-2e" transform="translate(119.999969 0)"/>
       <use xlink:href="#IBMPlexSans-30" transform="translate(147.199966 0)"/>
       <use xlink:href="#IBMPlexSans-32" transform="translate(207.199951 0)"/>
       <use xlink:href="#IBMPlexSans-31" transform="translate(267.199936 0)"/>
       <use xlink:href="#IBMPlexSans-37" transform="translate(327.199921 0)"/>
      </g>
     </g>
    </g>
    <g id="ytick_5">
     <g id="line2d_10">
      <g>
       <use xlink:href="#m4f775f3d78" x="66.720313" y="122.0028" style="stroke: #000000; stroke-width: 0.8"/>
      </g>
     </g>
     <g id="text_11">
      <!-- −0.0216 -->
      <g transform="translate(21 125.7028) scale(0.1 -0.1)">
       <defs>
        <path id="IBMPlexSans-36" d="M 1926 -77 
C 2822 -77 3411 525 3411 1402 
C 3411 2246 2861 2778 2093 2778 
C 1549 2778 1229 2502 1018 2138 
L 986 2150 
C 1229 3187 1760 3770 2714 4467 
L 2022 4467 
C 1306 4000 429 2963 429 1638 
C 429 576 998 -77 1926 -77 
z
M 1920 390 
C 1331 390 986 730 986 1331 
L 986 1382 
C 986 1984 1331 2323 1920 2323 
C 2509 2323 2854 1984 2854 1382 
L 2854 1331 
C 2854 730 2509 390 1920 390 
z
" transform="scale(0.015625)"/>
       </defs>
       <use xlink:href="#IBMPlexSans-2212"/>
       <use xlink:href="#IBMPlexSans-30" transform="translate(59.999985 0)"/>
       <use xlink:href="#IBMPlexSans-2e" transform="translate(119.999969 0)"/>
       <use xlink:href="#IBMPlexSans-30" transform="translate(147.199966 0)"/>
       <use xlink:href="#IBMPlexSans-32" transform="translate(207.199951 0)"/>
       <use xlink:href="#IBMPlexSans-31" transform="translate(267.199936 0)"/>
       <use xlink:href="#IBMPlexSans-36" transform="translate(327.199921 0)"/>
      </g>
     </g>
    </g>
    <g id="ytick_6">
     <g id="line2d_11">
      <g>
       <use xlink:href="#m4f775f3d78" x="66.720313" y="90.476487" style="stroke: #000000; stroke-width: 0.8"/>
      </g>
     </g>
     <g id="text_12">
      <!-- −0.0215 -->
      <g transform="translate(21 94.176487) scale(0.1 -0.1)">
       <use xlink:href="#IBMPlexSans-2212"/>
       <use xlink:href="#IBMPlexSans-30" transform="translate(59.999985 0)"/>
       <use xlink:href="#IBMPlexSans-2e" transform="translate(119.999969 0)"/>
       <use xlink:href="#IBMPlexSans-30" transform="translate(147.199966 0)"/>
       <use xlink:href="#IBMPlexSans-32" transform="translate(207.199951 0)"/>
       <use xlink:href="#IBMPlexSans-31" transform="translate(267.199936 0)"/>
       <use xlink:href="#IBMPlexSans-35" transform="translate(327.199921 0)"/>
      </g>
     </g>
    </g>
    <g id="ytick_7">
     <g id="line2d_12">
      <g>
       <use xlink:href="#m4f775f3d78" x="66.720313" y="58.950175" style="stroke: #000000; stroke-width: 0.8"/>
      </g>
     </g>
     <g id="text_13">
      <!-- −0.0214 -->
      <g transform="translate(21 62.650175) scale(0.1 -0.1)">
       <defs>
        <path id="IBMPlexSans-34" d="M 2912 0 
L 2912 877 
L 3558 877 
L 3558 1325 
L 2912 1325 
L 2912 4467 
L 2112 4467 
L 243 1350 
L 243 877 
L 2400 877 
L 2400 0 
L 2912 0 
z
M 2368 4051 
L 2400 4051 
L 2400 1325 
L 749 1325 
L 2368 4051 
z
" transform="scale(0.015625)"/>
       </defs>
       <use xlink:href="#IBMPlexSans-2212"/>
       <use xlink:href="#IBMPlexSans-30" transform="translate(59.999985 0)"/>
       <use xlink:href="#IBMPlexSans-2e" transform="translate(119.999969 0)"/>
       <use xlink:href="#IBMPlexSans-30" transform="translate(147.199966 0)"/>
       <use xlink:href="#IBMPlexSans-32" transform="translate(207.199951 0)"/>
       <use xlink:href="#IBMPlexSans-31" transform="translate(267.199936 0)"/>
       <use xlink:href="#IBMPlexSans-34" transform="translate(327.199921 0)"/>
      </g>
     </g>
    </g>
    <g id="ytick_8">
     <g id="line2d_13">
      <g>
       <use xlink:href="#m4f775f3d78" x="66.720313" y="27.423862" style="stroke: #000000; stroke-width: 0.8"/>
      </g>
     </g>
     <g id="text_14">
      <!-- −0.0213 -->
      <g transform="translate(21 31.123862) scale(0.1 -0.1)">
       <defs>
        <path id="IBMPlexSans-33" d="M 1184 2573 
L 1184 2106 
L 1709 2106 
C 2336 2106 2669 1805 2669 1280 
L 2669 1229 
C 2669 704 2336 403 1709 403 
C 1165 403 902 640 672 992 
L 269 685 
C 544 301 941 -77 1715 -77 
C 2624 -77 3232 454 3232 1222 
C 3232 1894 2771 2253 2291 2349 
L 2291 2374 
C 2765 2496 3149 2842 3149 3418 
C 3149 4141 2547 4544 1792 4544 
C 1075 4544 685 4173 461 3814 
L 858 3507 
C 1043 3846 1318 4064 1779 4064 
C 2253 4064 2579 3827 2579 3360 
L 2579 3315 
C 2579 2886 2272 2573 1670 2573 
L 1184 2573 
z
" transform="scale(0.015625)"/>
       </defs>
       <use xlink:href="#IBMPlexSans-2212"/>
       <use xlink:href="#IBMPlexSans-30" transform="translate(59.999985 0)"/>
       <use xlink:href="#IBMPlexSans-2e" transform="translate(119.999969 0)"/>
       <use xlink:href="#IBMPlexSans-30" transform="translate(147.199966 0)"/>
       <use xlink:href="#IBMPlexSans-32" transform="translate(207.199951 0)"/>
       <use xlink:href="#IBMPlexSans-31" transform="translate(267.199936 0)"/>
       <use xlink:href="#IBMPlexSans-33" transform="translate(327.199921 0)"/>
      </g>
     </g>
    </g>
    <g id="text_15">
     <!-- Energy [E$_\mathrm{h}$] -->
     <g transform="translate(14.8 173.76476) rotate(-90) scale(0.1 -0.1)">
      <defs>
       <path id="IBMPlexSans-45" d="M 3322 0 
L 3322 474 
L 1133 474 
L 1133 2022 
L 3194 2022 
L 3194 2496 
L 1133 2496 
L 1133 3994 
L 3322 3994 
L 3322 4467 
L 595 4467 
L 595 0 
L 3322 0 
z
" transform="scale(0.015625)"/>
       <path id="IBMPlexSans-6e" d="M 1056 0 
L 1056 2291 
C 1056 2714 1453 2918 1862 2918 
C 2355 2918 2611 2618 2611 2029 
L 2611 0 
L 3123 0 
L 3123 2118 
C 3123 2918 2694 3379 2016 3379 
C 1523 3379 1242 3136 1082 2765 
L 1056 2765 
L 1056 3302 
L 544 3302 
L 544 0 
L 1056 0 
z
" transform="scale(0.015625)"/>
       <path id="IBMPlexSans-72" d="M 1056 0 
L 1056 2240 
C 1056 2554 1389 2790 1939 2790 
L 2240 2790 
L 2240 3302 
L 2042 3302 
C 1504 3302 1203 3008 1088 2694 
L 1056 2694 
L 1056 3302 
L 544 3302 
L 544 0 
L 1056 0 
z
" transform="scale(0.015625)"/>
       <path id="IBMPlexSans-67" d="M 3328 -365 
C 3328 179 2976 512 2157 512 
L 1453 512 
C 1152 512 947 563 947 762 
C 947 966 1165 1075 1382 1133 
C 1478 1114 1594 1101 1702 1101 
C 2458 1101 2950 1568 2950 2240 
C 2950 2592 2810 2886 2573 3091 
L 2573 3302 
L 3200 3302 
L 3200 3750 
L 2707 3750 
C 2432 3750 2323 3565 2323 3309 
L 2323 3251 
C 2144 3334 1933 3379 1696 3379 
C 947 3379 454 2912 454 2240 
C 454 1779 685 1414 1075 1229 
L 1075 1203 
C 742 1120 506 960 506 627 
C 506 403 614 256 800 166 
L 800 96 
C 474 6 275 -186 275 -544 
C 275 -1062 698 -1357 1728 -1357 
C 2790 -1357 3328 -1043 3328 -365 
z
M 2848 -403 
C 2848 -762 2515 -941 1946 -941 
L 1472 -941 
C 954 -941 755 -704 755 -416 
C 755 -211 851 -64 1062 32 
L 2163 32 
C 2675 32 2848 -141 2848 -403 
z
M 1702 1510 
C 1267 1510 992 1715 992 2150 
L 992 2330 
C 992 2765 1267 2970 1702 2970 
C 2138 2970 2413 2765 2413 2330 
L 2413 2150 
C 2413 1715 2138 1510 1702 1510 
z
" transform="scale(0.015625)"/>
       <path id="IBMPlexSans-79" d="M 1779 1056 
L 1600 518 
L 1568 518 
L 1414 1056 
L 621 3302 
L 109 3302 
L 1344 -128 
L 1094 -832 
L 576 -832 
L 576 -1280 
L 838 -1280 
C 1325 -1280 1459 -1165 1606 -768 
L 3085 3302 
L 2579 3302 
L 1779 1056 
z
" transform="scale(0.015625)"/>
       <path id="DejaVuSans-68" d="M 3513 2113 
L 3513 0 
L 2938 0 
L 2938 2094 
Q 2938 2591 2744 2837 
Q 2550 3084 2163 3084 
Q 1697 3084 1428 2787 
Q 1159 2491 1159 1978 
L 1159 0 
L 581 0 
L 581 4863 
L 1159 4863 
L 1159 2956 
Q 1366 3272 1645 3428 
Q 1925 3584 2291 3584 
Q 2894 3584 3203 3211 
Q 3513 2838 3513 2113 
z
" transform="scale(0.015625)"/>
      </defs>
      <use xlink:href="#IBMPlexSans-45"/>
      <use xlink:href="#IBMPlexSans-6e" transform="translate(58.299988 0)"/>
      <use xlink:href="#IBMPlexSans-65" transform="translate(115.099976 0)"/>
      <use xlink:href="#IBMPlexSans-72" transform="translate(169.999969 0)"/>
      <use xlink:href="#IBMPlexSans-67" transform="translate(206.699966 0)"/>
      <use xlink:href="#IBMPlexSans-79" transform="translate(259.499954 0)"/>
      <use xlink:href="#IBMPlexSans-20" transform="translate(309.399948 0)"/>
      <use xlink:href="#IBMPlexSans-5b" transform="translate(332.999939 0)"/>
      <use xlink:href="#IBMPlexSans-45" transform="translate(364.699936 0)"/>
      <use xlink:href="#DejaVuSans-68" transform="translate(423.956955 -16.40625) scale(0.7)"/>
      <use xlink:href="#IBMPlexSans-5d" transform="translate(471.056564 0)"/>
     </g>
    </g>
   </g>
   <g id="line2d_14">
    <path d="M 88.287549 261.398024 
L 92.644567 254.460997 
L 97.001584 243.221024 
L 101.358602 228.145219 
L 105.715619 209.857519 
L 110.072637 189.110812 
L 114.429654 166.753937 
L 118.786672 143.695328 
L 123.143689 120.865103 
L 127.500707 99.177338 
L 131.857724 79.494075 
L 136.214742 62.59237 
L 140.571759 49.135442 
L 144.928777 39.648673 
L 149.285794 34.501026 
L 153.642812 33.892213 
L 157.999829 37.845834 
L 162.356847 46.20856 
L 166.713864 58.655404 
L 171.070882 74.700974 
L 175.4279 93.716562 
L 179.784917 114.952737 
L 184.141935 137.566985 
L 188.498952 160.655651 
L 192.85597 183.289244 
L 197.212987 204.549847 
L 201.570005 223.569137 
L 205.927022 239.565334 
L 210.28404 251.877269 
L 214.641057 259.993779 
L 218.998075 263.576804 
L 223.355092 262.476835 
L 227.71211 256.739787 
L 232.069127 246.604889 
L 236.426145 232.493705 
L 240.783162 214.990961 
L 245.14018 194.818312 
L 249.497197 172.802535 
L 253.854215 149.839892 
L 258.211232 126.858458 
L 262.56825 104.78018 
L 266.925267 84.48429 
L 271.282285 66.773432 
L 275.639302 52.343634 
L 279.99632 41.758956 
L 284.353337 35.431427 
L 288.710355 33.606662 
L 293.067372 36.355396 
L 297.42439 43.57106 
L 301.781407 54.973438 
L 306.138425 70.118339 
L 310.495443 88.413159 
L 314.85246 109.138055 
L 319.209478 131.472298 
L 323.566495 154.525155 
L 327.923513 177.370417 
L 332.28053 199.083374 
L 336.637548 218.778842 
L 340.994565 235.648565 
L 345.351583 248.996226 
L 349.7086 258.268253 
L 354.065618 263.078738 
L 358.422635 263.22702 
L 362.779653 258.70691 
L 367.13667 249.706973 
L 371.493688 236.601859 
L 375.850705 219.935224 
L 380.207723 200.395232 
L 384.56474 178.784072 
L 388.921758 155.983164 
L 393.278775 132.915847 
L 397.635793 110.50935 
L 401.99281 89.657697 
L 406.349828 71.186993 
L 410.706845 55.82428 
L 415.063863 44.170877 
L 419.42088 36.680863 
L 423.777898 33.645155 
L 428.134915 35.181454 
L 432.491933 41.230209 
L 436.84895 51.556658 
L 441.205968 65.758912 
L 445.562986 83.281971 
L 449.920003 103.437442 
L 454.277021 125.428569 
L 458.634038 148.379988 
L 462.991056 171.371387 
L 467.348073 193.473963 
L 471.705091 213.788322 
L 476.062108 231.482213 
L 480.419126 245.826359 
L 484.776143 256.226546 
L 489.133161 262.250264 
L 493.490178 263.64636 
L 497.847196 260.356557 
L 502.204213 252.518139 
L 506.561231 240.457634 
L 510.918248 224.675887 
L 515.275266 205.82541 
L 519.632283 184.681336 
" clip-path="url(#pd27d288d53)" style="fill: none; stroke: #1f77b4; stroke-width: 1.5; stroke-linecap: square"/>
   </g>
   <g id="line2d_15">
    <path d="M 88.287549 34.159836 
L 92.644567 34.141569 
L 97.001584 34.112066 
L 101.358602 34.072677 
L 105.715619 34.025177 
L 110.072637 33.971663 
L 114.429654 33.914439 
L 118.786672 33.855901 
L 123.143689 33.798424 
L 127.500707 33.744268 
L 131.857724 33.695491 
L 136.214742 33.653891 
L 140.571759 33.620957 
L 144.928777 33.59784 
L 149.285794 33.585331 
L 153.642812 33.583853 
L 157.999829 33.593456 
L 162.356847 33.613816 
L 166.713864 33.644239 
L 171.070882 33.683667 
L 175.4279 33.7307 
L 179.784917 33.783617 
L 184.141935 33.840425 
L 188.498952 33.89891 
L 192.85597 33.956718 
L 197.212987 34.011449 
L 201.570005 34.060762 
L 205.927022 34.102495 
L 210.28404 34.134777 
L 214.641057 34.156134 
L 218.998075 34.165582 
L 223.355092 34.16268 
L 227.71211 34.147565 
L 232.069127 34.120936 
L 236.426145 34.084017 
L 240.783162 34.03848 
L 245.14018 33.986346 
L 249.497197 33.929876 
L 253.854215 33.871452 
L 258.211232 33.813466 
L 262.56825 33.758217 
L 266.925267 33.707823 
L 271.282285 33.664157 
L 275.639302 33.628794 
L 279.99632 33.602975 
L 284.353337 33.58759 
L 288.710355 33.58316 
L 293.067372 33.589834 
L 297.42439 33.607388 
L 301.781407 33.635224 
L 306.138425 33.672382 
L 310.495443 33.717549 
L 314.85246 33.769087 
L 319.209478 33.825069 
L 323.566495 33.883333 
L 327.923513 33.941555 
L 332.28053 33.997337 
L 336.637548 34.048311 
L 340.994565 34.092255 
L 345.351583 34.12721 
L 349.7086 34.151589 
L 354.065618 34.164268 
L 358.422635 34.164659 
L 362.779653 34.152744 
L 367.13667 34.129076 
L 371.493688 34.094746 
L 375.850705 34.051315 
L 380.207723 34.000721 
L 384.56474 33.945174 
L 388.921758 33.887035 
L 393.278775 33.828703 
L 397.635793 33.772511 
L 401.99281 33.720633 
L 406.349828 33.675012 
L 410.706845 33.637306 
L 415.063863 33.608849 
L 419.42088 33.590625 
L 423.777898 33.583253 
L 428.134915 33.586983 
L 432.491933 33.601688 
L 436.84895 33.626871 
L 441.205968 33.661665 
L 445.562986 33.70485 
L 449.920003 33.754871 
L 454.277021 33.809875 
L 458.634038 33.867754 
L 462.991056 33.92622 
L 467.348073 33.982885 
L 471.705091 34.035361 
L 476.062108 34.081378 
L 480.419126 34.118894 
L 484.776143 34.146214 
L 489.133161 34.162083 
L 493.490178 34.165766 
L 497.847196 34.15709 
L 502.204213 34.136461 
L 506.561231 34.10483 
L 510.918248 34.063642 
L 515.275266 34.014746 
L 519.632283 33.960289 
" clip-path="url(#pd27d288d53)" style="fill: none; stroke: #ff7f0e; stroke-width: 1.5; stroke-linecap: square"/>
   </g>
   <g id="patch_3">
    <path d="M 66.720313 275.14952 
L 66.720313 22.08 
" style="fill: none; stroke: #000000; stroke-width: 0.8; stroke-linejoin: miter; stroke-linecap: square"/>
   </g>
   <g id="patch_4">
    <path d="M 66.720313 275.14952 
L 541.19952 275.14952 
" style="fill: none; stroke: #000000; stroke-width: 0.8; stroke-linejoin: miter; stroke-linecap: square"/>
   </g>
   <g id="text_16">
    <!-- Energy Conservation Demo -->
    <g transform="translate(231.204291 16.08) scale(0.12 -0.12)">
     <defs>
      <path id="IBMPlexSans-43" d="M 2170 -77 
C 2912 -77 3456 314 3738 941 
L 3309 1210 
C 3130 723 2739 403 2170 403 
C 1402 403 947 960 947 1875 
L 947 2541 
C 947 3456 1402 4064 2170 4064 
C 2720 4064 3091 3763 3270 3302 
L 3706 3565 
C 3424 4186 2912 4544 2170 4544 
C 1043 4544 371 3699 371 2208 
C 371 717 1043 -77 2170 -77 
z
" transform="scale(0.015625)"/>
      <path id="IBMPlexSans-73" d="M 1536 -77 
C 2291 -77 2758 314 2758 954 
C 2758 1453 2477 1773 1747 1882 
L 1491 1920 
C 1082 1984 858 2112 858 2432 
C 858 2746 1082 2944 1504 2944 
C 1926 2944 2208 2746 2355 2541 
L 2694 2848 
C 2426 3181 2074 3379 1542 3379 
C 870 3379 365 3059 365 2406 
C 365 1792 819 1542 1427 1453 
L 1690 1414 
C 2125 1350 2266 1152 2266 896 
C 2266 557 2010 358 1574 358 
C 1158 358 851 544 595 864 
L 230 570 
C 525 179 928 -77 1536 -77 
z
" transform="scale(0.015625)"/>
      <path id="IBMPlexSans-76" d="M 1869 0 
L 3034 3302 
L 2541 3302 
L 1952 1664 
L 1594 538 
L 1562 538 
L 1203 1664 
L 627 3302 
L 115 3302 
L 1274 0 
L 1869 0 
z
" transform="scale(0.015625)"/>
      <path id="IBMPlexSans-44" d="M 595 0 
L 2093 0 
C 3206 0 3923 742 3923 2234 
C 3923 3725 3206 4467 2093 4467 
L 595 4467 
L 595 0 
z
M 1133 474 
L 1133 3994 
L 2093 3994 
C 2829 3994 3347 3482 3347 2598 
L 3347 1869 
C 3347 986 2829 474 2093 474 
L 1133 474 
z
" transform="scale(0.015625)"/>
     </defs>
     <use xlink:href="#IBMPlexSans-45"/>
     <use xlink:href="#IBMPlexSans-6e" transform="translate(58.299988 0)"/>
     <use xlink:href="#IBMPlexSans-65" transform="translate(115.099976 0)"/>
     <use xlink:href="#IBMPlexSans-72" transform="translate(169.999969 0)"/>
     <use xlink:href="#IBMPlexSans-67" transform="translate(206.699966 0)"/>
     <use xlink:href="#IBMPlexSans-79" transform="translate(259.499954 0)"/>
     <use xlink:href="#IBMPlexSans-20" transform="translate(309.399948 0)"/>
     <use xlink:href="#IBMPlexSans-43" transform="translate(332.999939 0)"/>
     <use xlink:href="#IBMPlexSans-6f" transform="translate(395.09993 0)"/>
     <use xlink:href="#IBMPlexSans-6e" transform="translate(451.099915 0)"/>
     <use xlink:href="#IBMPlexSans-73" transform="translate(507.899902 0)"/>
     <use xlink:href="#IBMPlexSans-65" transform="translate(556.599899 0)"/>
     <use xlink:href="#IBMPlexSans-72" transform="translate(611.499893 0)"/>
     <use xlink:href="#IBMPlexSans-76" transform="translate(648.19989 0)"/>
     <use xlink:href="#IBMPlexSans-61" transform="translate(697.399887 0)"/>
     <use xlink:href="#IBMPlexSans-74" transform="translate(750.799881 0)"/>
     <use xlink:href="#IBMPlexSans-69" transform="translate(785.899872 0)"/>
     <use xlink:href="#IBMPlexSans-6f" transform="translate(810.899857 0)"/>
     <use xlink:href="#IBMPlexSans-6e" transform="translate(866.899841 0)"/>
     <use xlink:href="#IBMPlexSans-20" transform="translate(923.699829 0)"/>
     <use xlink:href="#IBMPlexSans-44" transform="translate(947.29982 0)"/>
     <use xlink:href="#IBMPlexSans-65" transform="translate(1014.399811 0)"/>
     <use xlink:href="#IBMPlexSans-6d" transform="translate(1069.299805 0)"/>
     <use xlink:href="#IBMPlexSans-6f" transform="translate(1156.599792 0)"/>
    </g>
   </g>
   <g id="legend_1">
    <g id="patch_5">
     <path d="M 462.04952 164.51476 
L 534.19952 164.51476 
Q 536.19952 164.51476 536.19952 162.51476 
L 536.19952 134.71476 
Q 536.19952 132.71476 534.19952 132.71476 
L 462.04952 132.71476 
Q 460.04952 132.71476 460.04952 134.71476 
L 460.04952 162.51476 
Q 460.04952 164.51476 462.04952 164.51476 
z
" style="fill: #ffffff; opacity: 0.8; stroke: #cccccc; stroke-linejoin: miter"/>
    </g>
    <g id="line2d_16">
     <path d="M 464.04952 140.61476 
L 474.04952 140.61476 
L 484.04952 140.61476 
" style="fill: none; stroke: #1f77b4; stroke-width: 1.5; stroke-linecap: square"/>
    </g>
    <g id="text_17">
     <!-- potential -->
     <g transform="translate(492.04952 144.11476) scale(0.1 -0.1)">
      <defs>
       <path id="IBMPlexSans-70" d="M 544 -1280 
L 1056 -1280 
L 1056 538 
L 1082 538 
C 1280 128 1594 -77 2048 -77 
C 2874 -77 3392 595 3392 1651 
C 3392 2707 2874 3379 2048 3379 
C 1594 3379 1254 3181 1082 2765 
L 1056 2765 
L 1056 3302 
L 544 3302 
L 544 -1280 
z
M 1907 384 
C 1440 384 1056 627 1056 1056 
L 1056 2285 
C 1056 2650 1440 2918 1907 2918 
C 2483 2918 2842 2522 2842 1933 
L 2842 1370 
C 2842 781 2483 384 1907 384 
z
" transform="scale(0.015625)"/>
       <path id="IBMPlexSans-6c" d="M 1542 0 
L 1542 448 
L 1056 448 
L 1056 4736 
L 544 4736 
L 544 531 
C 544 224 736 0 1088 0 
L 1542 0 
z
" transform="scale(0.015625)"/>
      </defs>
      <use xlink:href="#IBMPlexSans-70"/>
      <use xlink:href="#IBMPlexSans-6f" transform="translate(57.999985 0)"/>
      <use xlink:href="#IBMPlexSans-74" transform="translate(113.999969 0)"/>
      <use xlink:href="#IBMPlexSans-65" transform="translate(149.09996 0)"/>
      <use xlink:href="#IBMPlexSans-6e" transform="translate(203.999954 0)"/>
      <use xlink:href="#IBMPlexSans-74" transform="translate(260.799942 0)"/>
      <use xlink:href="#IBMPlexSans-69" transform="translate(295.899933 0)"/>
      <use xlink:href="#IBMPlexSans-61" transform="translate(320.899918 0)"/>
      <use xlink:href="#IBMPlexSans-6c" transform="translate(374.299911 0)"/>
     </g>
    </g>
    <g id="line2d_17">
     <path d="M 464.04952 155.01476 
L 474.04952 155.01476 
L 484.04952 155.01476 
" style="fill: none; stroke: #ff7f0e; stroke-width: 1.5; stroke-linecap: square"/>
    </g>
    <g id="text_18">
     <!-- total -->
     <g transform="translate(492.04952 158.51476) scale(0.1 -0.1)">
      <use xlink:href="#IBMPlexSans-74"/>
      <use xlink:href="#IBMPlexSans-6f" transform="translate(35.099991 0)"/>
      <use xlink:href="#IBMPlexSans-74" transform="translate(91.099976 0)"/>
      <use xlink:href="#IBMPlexSans-61" transform="translate(126.199966 0)"/>
      <use xlink:href="#IBMPlexSans-6c" transform="translate(179.59996 0)"/>
     </g>
    </g>
   </g>
  </g>
 </g>
 <defs>
  <clipPath id="pd27d288d53">
   <rect x="66.720313" y="22.08" width="474.479208" height="253.06952"/>
  </clipPath>
 </defs>
</svg>